<?xml version="1.0" encoding="UTF-8" standalone="no"?>
<!-- Created with Inkscape (http://www.inkscape.org/) -->

<svg
   width="210mm"
   height="297mm"
   viewBox="0 0 210 297"
   version="1.1"
   id="svg57"
   inkscape:version="1.1.2 (b8e25be833, 2022-02-05)"
   sodipodi:docname="vector.svg"
   xmlns:inkscape="http://www.inkscape.org/namespaces/inkscape"
   xmlns:sodipodi="http://sodipodi.sourceforge.net/DTD/sodipodi-0.dtd"
   xmlns="http://www.w3.org/2000/svg"
   xmlns:svg="http://www.w3.org/2000/svg">
  <sodipodi:namedview
     id="namedview59"
     pagecolor="#ffffff"
     bordercolor="#666666"
     borderopacity="1.0"
     inkscape:pageshadow="2"
     inkscape:pageopacity="0.0"
     inkscape:pagecheckerboard="0"
     inkscape:document-units="mm"
     showgrid="false"
     inkscape:zoom="0.74029882"
     inkscape:cx="361.34057"
     inkscape:cy="561.93525"
     inkscape:window-width="1920"
     inkscape:window-height="1017"
     inkscape:window-x="-8"
     inkscape:window-y="-8"
     inkscape:window-maximized="1"
     inkscape:current-layer="layer1" />
  <defs
     id="defs54" />
  <g
     inkscape:label="Capa 1"
     inkscape:groupmode="layer"
     id="layer1">
    <path
       inkscape:connector-curvature="0"
       id="Lota"
       style="fill:#000000;fill-opacity:1;fill-rule:evenodd;stroke:#d39062;stroke-width:1.93228;stroke-linecap:butt;stroke-linejoin:miter;stroke-miterlimit:4;stroke-dasharray:none;stroke-opacity:1"
       d="m 206.58676,99.128682 c -1.86062,-1.15191 -4.25687,-2.317 -5.67609,-3.38146 -3.48687,-2.61505 -8.94855,-5.36007 -14.00896,-8.81599 -2.53041,-1.72886 -4.91208,-3.63281 -7.00448,-5.79688 -2.0924,-2.16407 -3.85121,-4.49523 -4.95161,-7.24604 -0.553,-1.38548 -5.29419,-4.4595 -10.26516,-7.84994 -4.97117,-3.39045 -10.21246,-7.14044 -11.71453,-10.14438 -1.63703,-3.27605 -1.76879,-5.66292 -1.08603,-7.36683 0.68276,-1.7049 2.16467,-2.7514 3.86458,-3.50224 1.70092,-0.75063 3.65816,-1.1539 5.07219,-1.57114 1.41344,-0.41725 2.34914,-0.86843 2.17386,-1.56915 -0.0998,-0.41525 -1.13394,-6.42134 -3.1399,-12.5598 -1.00218,-3.06922 -2.27787,-6.11829 -3.7438,-8.57443 -1.46534,-2.45614 -3.15108,-4.22972 -5.07239,-4.71004 -4.52059,-1.12995 -7.73635,-1.78476 -10.14438,-1.93249 -2.40803,-0.13975 -3.99894,0.11978 -5.31375,0.84446 -2.62963,1.46534 -4.07899,4.6827 -8.45385,9.05756 -2.39385,2.39385 -4.33613,5.54732 -6.40058,8.81599 -2.06445,3.26866 -4.29819,6.57486 -7.60838,9.05755 -3.05825,2.29383 -17.420771,10.81636 -21.979691,11.95609 -3.55015,0.88838 -10.44124,1.74683 -17.02828,2.17385 -6.15841,0.39728 -11.5093,0.35935 -13.88818,-0.11978 1.31961,6.75872 2.82108,13.51925 4.34771,20.28895 1.77877,12.45918 5.06779,22.10886 -4.71005,31.399388 -8.44986,12.75883 -19.4942,31.77689 -34.78104,37.19645 -5.06281,1.2657 -10.51091,14.76699 -14.00896,17.39062 -0.61888,0.46516 0,1.52124 0,2.29444 -5.65194,4.2389 9.29911,8.03121 9.29911,15.09598 0,6.53573 -12.75763,18.91985 -18.35666,21.85891 1.1559,0.6628 2.00895,1.50327 3.38146,2.05307 6.19854,2.4793 11.09086,3.20638 15.09598,2.89834 4.00513,-0.30744 7.1049,-1.60309 10.0236,-3.1399 2.9187,-1.53721 5.63517,-3.38046 8.57463,-4.58907 2.93926,-1.2078 6.07736,-1.76479 10.14438,-1.08602 6.98991,1.16588 11.62529,2.39964 16.18281,2.77775 2.27886,0.17967 4.59805,0.19964 7.12526,-0.24156 2.52721,-0.43321 5.34869,-1.19783 8.69521,-2.53619 4.03667,-1.61507 7.17917,-2.57193 9.78224,-2.89834 2.60307,-0.32741 4.6785,-0.0399 6.64234,0.84446 1.96443,0.8844 3.798901,2.33297 5.917451,4.34771 2.11876,2.01474 4.41998,4.54075 7.48761,7.60838 0.40925,0.40926 6.43691,4.50043 12.31823,8.93678 2.94086,2.21817 5.91166,4.54754 8.0915,6.52135 2.17985,1.97442 3.62303,3.57311 3.62303,4.46849 0,4.76714 -1.47333,10.62271 -2.41542,16.30359 -0.47114,2.84045 -0.8245,5.55052 -0.84446,8.21229 -0.0194,2.66157 0.32341,5.27602 1.2078,7.4876 1.02215,2.55656 2.69191,4.76675 4.58927,6.8837 1.89655,2.11696 3.98995,4.07101 5.79687,6.03824 1.80672,1.96643 3.35471,3.93046 4.10595,6.03843 0.36933,1.03612 -0.19964,2.26309 -0.24157,3.38146 1.81471,-1.54918 2.78195,-2.70868 5.43454,-4.58906 4.69986,-3.33155 9.76267,-6.63256 12.19765,-7.84995 2.96761,-1.48331 4.69547,-2.40743 5.67609,-3.26068 0.98022,-0.85245 1.2118,-1.57114 1.20781,-2.65697 -0.004,-1.08603 -0.25554,-2.52661 -0.24157,-4.70985 0.0156,-2.18324 0.29347,-5.15524 1.32759,-9.29911 0.98222,-3.93146 0.49111,-8.99527 0,-14.00897 -0.4911,-5.01369 -0.98421,-9.95013 0,-13.88838 0.60291,-2.41182 1.52324,-4.32614 2.5362,-5.91765 1.01416,-1.59111 2.21298,-2.84244 3.38146,-4.3475 1.16788,-1.50527 2.31539,-3.16086 3.38146,-5.31376 1.06606,-2.15309 2.07084,-4.79808 2.77775,-8.33306 1.18385,-5.91886 3.46052,-9.27257 4.83063,-12.43902 0.68476,-1.58312 1.14792,-3.13071 1.08803,-4.9514 -0.0599,-1.8207 -0.59492,-3.9672 -1.9325,-6.64234 -1.51924,-3.03968 -2.21817,-5.14865 -2.29463,-6.8837 -0.0798,-1.73485 0.36135,-3.05745 1.20781,-4.22693 1.69093,-2.33855 4.74858,-4.30418 7.00448,-8.81599 1.5971,-3.19559 3.04607,-18.22231 3.98536,-21.97968 1.05009,-4.19718 1.00218,-8.45685 0.96625,-12.80136 -0.0399,-4.34451 -0.002,-8.68842 1.08603,-13.04291 0.36733,-1.46734 1.30562,-2.88277 2.65697,-4.22673 0.83448,-0.83049 1.9804,-1.595098 3.01912,-2.415408 z" />
  </g>
</svg>
