<?xml version="1.0" encoding="UTF-8" standalone="no"?>
<!-- Created with Inkscape (http://www.inkscape.org/) -->

<svg
   width="210mm"
   height="297mm"
   viewBox="0 0 210 297"
   version="1.1"
   id="svg64"
   inkscape:version="1.1.2 (b8e25be833, 2022-02-05)"
   sodipodi:docname="vector.svg"
   xmlns:inkscape="http://www.inkscape.org/namespaces/inkscape"
   xmlns:sodipodi="http://sodipodi.sourceforge.net/DTD/sodipodi-0.dtd"
   xmlns="http://www.w3.org/2000/svg"
   xmlns:svg="http://www.w3.org/2000/svg">
  <sodipodi:namedview
     id="namedview66"
     pagecolor="#ffffff"
     bordercolor="#666666"
     borderopacity="1.0"
     inkscape:pageshadow="2"
     inkscape:pageopacity="0.0"
     inkscape:pagecheckerboard="0"
     inkscape:document-units="mm"
     showgrid="false"
     inkscape:zoom="0.74029882"
     inkscape:cx="361.34057"
     inkscape:cy="453.87078"
     inkscape:window-width="1920"
     inkscape:window-height="1017"
     inkscape:window-x="-8"
     inkscape:window-y="-8"
     inkscape:window-maximized="1"
     inkscape:current-layer="layer1" />
  <defs
     id="defs61" />
  <g
     inkscape:label="Capa 1"
     inkscape:groupmode="layer"
     id="layer1">
    <path
       style="fill:#000000;fill-opacity:1;fill-rule:evenodd;stroke:#d39062;stroke-width:0.448798;stroke-linecap:butt;stroke-linejoin:miter;stroke-miterlimit:4;stroke-dasharray:none;stroke-opacity:1"
       d="m 208.65556,134.06234 c -0.21847,-0.10211 -0.51396,-0.20558 -0.66635,-0.28192 -0.68708,-0.2127 -1.25905,-0.44322 -1.74275,-0.76883 -0.4837,-0.32568 -0.89192,-0.7684 -1.2558,-1.43523 -1.11019,-0.71663 -2.2768,-1.04851 -3.56238,-1.35831 -0.28259,-0.65916 -0.38219,-1.59132 -0.897,-2.40911 -0.38268,-0.44326 -0.5619,-0.8525 -0.64074,-1.28144 -0.0787,-0.42891 -0.0604,-0.88934 -0.0512,-1.48645 -0.1184,-0.8163 -0.30329,-1.2084 -0.6407,-1.46084 -0.33755,-0.2524 -0.82427,-0.37405 -1.53771,-0.61509 -0.53493,-0.7895 -1.14035,-1.55053 -1.38397,-2.51159 -0.12009,-0.55874 -0.23306,-1.19086 -0.41005,-1.7684 -0.17708,-0.5775 -0.4111,-1.11416 -0.84574,-1.46084 -0.38061,0 -0.72091,-0.20253 -0.99953,-0.46131 -0.27852,-0.25884 -0.51576,-0.56698 -0.74322,-0.79448 -0.51278,-0.31042 -0.92988,-0.45795 -1.33271,-0.64071 -0.40279,-0.18285 -0.77647,-0.39451 -1.17892,-0.84574 -0.5699,-0.48472 -1.10218,-1.07176 -1.66584,-1.58901 -0.56367,-0.51722 -1.16115,-0.97639 -1.89654,-1.17892 -0.52706,0.0784 -0.96197,0.32059 -1.33267,0.66635 -0.37073,0.34566 -0.67039,0.80918 -0.92265,1.30709 -0.5045,0.9958 -0.81823,2.16206 -1.0764,3.07542 -0.39842,0.53683 -0.85484,0.67816 -1.33271,0.79449 -0.47783,0.11636 -0.98887,0.22695 -1.43519,0.71761 -0.0237,0.0964 -0.41408,0.63697 -0.87139,1.12766 -0.45727,0.49069 -0.96513,0.927 -1.17889,0.82013 -0.21644,-0.22322 -0.34247,-0.45788 -0.38443,-0.69199 -0.0421,-0.23409 -0.017,-0.46454 0.0271,-0.71758 0.0831,-0.50616 0.25715,-1.06168 0.12823,-1.69149 -0.0991,-0.49531 -0.34169,-0.61527 -0.58944,-0.692 -0.24765,-0.0767 -0.51888,-0.11501 -0.692,-0.46131 -0.25749,-0.4605 -0.49157,-0.89151 -0.66632,-1.35832 -0.17471,-0.46681 -0.26868,-0.96889 -0.23069,-1.5121 0.0838,-0.50266 0.21746,-0.8834 0.4357,-1.23018 0.21848,-0.34675 0.50175,-0.66937 0.92262,-1.0764 -0.34122,-0.37277 -0.6862,-0.70238 -0.94823,-1.0764 -0.2619,-0.37402 -0.42145,-0.78991 -0.41009,-1.3327 -0.58795,-0.4108 -1.13926,-0.67016 -1.56332,-0.97389 -0.4241,-0.30362 -0.71843,-0.64826 -0.84575,-1.20453 -0.51494,-0.51495 -0.86376,-1.02857 -1.23018,-1.48648 -0.36642,-0.45789 -0.77461,-0.85854 -1.43522,-1.15328 -0.30058,0.28056 -0.51631,0.58208 -0.76884,0.79449 -0.25274,0.21237 -0.53659,0.32703 -0.94827,0.23069 -0.19507,-0.14622 -0.71646,-0.70635 -1.20457,-1.33267 -0.48807,-0.62636 -0.93924,-1.30604 -0.97388,-1.64027 -0.59813,-0.57194 -1.20989,-0.79126 -1.87088,-0.87136 -0.66096,-0.0801 -1.37552,-0.0238 -2.15281,-0.0512 -0.57787,-0.44387 -1.02802,-0.862666 -1.56335,-1.153266 -0.53534,-0.29074 -1.1582,-0.44665 -1.99903,-0.33314 -0.65498,0.0203 -1.10021,0.15503 -1.51209,0.35879 -0.41192,0.20389 -0.78231,0.480876 -1.25583,0.768866 -0.46973,0 -1.65645,0.10483 -2.79351,0.28191 -1.13706,0.17709 -2.23219,0.41256 -2.53724,0.71758 -0.52661,0.44635 -0.75157,0.82451 -0.92265,1.23019 -0.17098,0.40567 -0.29074,0.85823 -0.5638,1.48648 -0.43427,0.51949 -1.26349,1.33932 -1.589,1.94776 -0.60197,-0.0563 -1.06494,-0.2714 -1.43519,-0.53818 -0.37026,-0.26699 -0.66591,-0.60061 -0.94827,-0.94827 -0.28225,-0.34766 -0.55874,-0.70099 -0.89701,-0.99953 -0.33823,-0.29854 -0.74346,-0.5468 -1.28144,-0.66635 -0.37144,-0.37144 -0.71961,-0.38383 -1.0764,-0.28191 -0.35679,0.10211 -0.7038,0.32873 -1.10201,0.4613 -0.31856,0.10619 -0.90118,0.0204 -1.40958,0 -0.2541,-0.0102 -0.47722,-0.0102 -0.66635,0.0512 -0.1893,0.0597 -0.33552,0.1625 -0.38444,0.35882 -0.2714,0.31584 -0.55474,0.81685 -0.87139,1.2558 -0.31652,0.43895 -0.67107,0.82312 -1.0764,0.94823 -0.83578,-0.12484 -1.70177,-0.35258 -2.51159,-0.71758 -0.80982,-0.36499 -1.55515,-0.87465 -2.12719,-1.48645 -0.26462,-0.15876 -0.75978,-0.19913 -1.23019,-0.28191 -0.47036,-0.0828 -0.91563,-0.191 -1.05075,-0.46131 -0.13332,-0.26665 -0.19507,-0.9175 -0.28191,-1.53771 -0.0868,-0.62022 -0.20729,-1.225396 -0.48696,-1.435186 -0.77966,0.0136 -1.13947,-0.055 -1.40958,-0.28192 -0.27004,-0.22695 -0.45015,-0.60959 -0.87139,-1.15331 -0.46993,-0.11704 -0.95957,0.0526 -1.51207,0.10246 -0.27614,0.0237 -0.56237,0.0339 -0.87139,-0.0512 -0.30905,-0.0845 -0.64966,-0.24358 -0.99953,-0.53818 -0.0556,-0.27819 -0.0641,-0.56383 -0.17946,-0.76888 -0.115,-0.2049 -0.32975,-0.33314 -0.74322,-0.33314 -0.54419,0 -2.59766,0.13231 -3.12669,0 -0.55823,-0.0519 -0.83448,-0.0203 -1.10204,0.10246 -0.26767,0.12213 -0.51563,0.31753 -0.99953,0.6407 -1.04906,0.55186 -1.88527,1.31978 -2.9729,1.79401 -1.00068,0.20694 -1.99197,0.44313 -3.0242,0.41005 -0.52454,0.32602 -1.01211,0.722256 -1.17892,1.307086 -0.0787,0.27615 0.0204,0.6668 -0.0271,0.97388 -0.0238,0.15368 -0.0773,0.2921 -0.23069,0.38444 -0.15334,0.0923 -0.39454,0.14316 -0.76887,0.12823 -0.501,-0.19642 -0.93114,-0.37269 -1.38393,-0.48695 -0.4528,-0.11433 -0.92588,-0.16454 -1.48648,-0.10246 -0.27615,-0.34742 -0.53184,-0.67618 -0.69197,-1.05075 -0.16012,-0.37456 -0.2256,-0.78695 -0.15368,-1.307046 0.36703,-0.67887 0.4205,-1.36022 0.76887,-2.05032 0.17506,-0.48153 0.30499,-0.92255 0.28192,-1.35832 -0.0238,-0.43573 -0.21203,-0.86101 -0.71761,-1.25579 -0.3843,-0.99451 -0.16047,-1.96734 -0.58945,-2.87042 -0.42535,-0.42535 -2.03491,-1.17888 -2.10154,-1.51209 -0.2144,-0.55715 -0.29073,-0.94868 -0.4357,-1.28145 -0.14519,-0.3328 -0.36513,-0.614 -0.92265,-0.92262 -1.29898,-0.23374 -2.694886,-0.55507 -3.972426,-0.58947 -0.77766,0.455 -1.10737,1.15025 -1.87088,1.43522 -0.98576,0 -1.96157,0 -2.94733,0 -0.92811,0 -1.88191,0.0919 -2.7935,-0.077 -0.41378,0 -1.08763,0.31313 -1.43523,0.48692 -0.48393,0.58341 -0.63585,0.90274 -0.74322,1.23019 -0.1072,0.32737 -0.16623,0.66543 -0.43566,1.30705 -0.36812,0.2965 -0.53693,0.46854 -0.61513,0.692 -0.078,0.22357 -0.056,0.49988 -0.0512,0.99949 0.19439,0.19405 0.23884,0.32263 0.20491,0.41005 -0.0339,0.0872 -0.16046,0.14079 -0.30736,0.17947 -0.29379,0.0773 -0.68525,0.12687 -0.74322,0.35878 -0.25817,0.38278 -0.51498,0.98237 -0.84575,1.43523 -0.49127,0.48702 -0.6883,0.89334 -1.02517,1.43519 -0.36619,0.017 -0.66273,0.0573 -0.92262,0 -0.25987,-0.0573 -0.49239,-0.21101 -0.69197,-0.58948 -0.115,-0.15334 -0.32534,-0.31007 -0.48696,-0.46131 -0.16182,-0.1513 -0.26495,-0.3155 -0.17946,-0.48692 0.13536,-0.27038 0.0926,-0.49049 0,-0.71761 -0.0926,-0.22696 -0.23035,-0.46023 -0.33314,-0.71762 -0.43543,-0.44556 -0.83862,-0.66374 -1.2558,-0.69196 -0.41717,-0.0271 -0.8432,0.14859 -1.35831,0.53818 -0.18761,0.47939 -0.43668,0.84792 -0.71761,1.1277 -0.2809,0.27988 -0.59603,0.45544 -0.97388,0.53818 -0.37789,0.0828 -0.80311,0.0862 -1.28145,-0.0271 -0.47834,-0.11161 -1.00661,-0.33721 -1.58897,-0.6407 -0.0733,-0.0733 -0.19812,-0.86454 -0.58948,-1.2558 -0.40777,-0.32703 -0.8662,-0.31889 -1.20453,-0.35882 -0.16929,-0.0204 -0.30634,-0.0604 -0.41005,-0.15368 -0.10381,-0.0933 -0.17302,-0.24935 -0.17946,-0.51257 -0.32907,-0.72087 -0.60916,-1.45789 -1.0764,-2.10154 -0.34258,-0.38539 -0.66062,-0.69438 -1.02514,-0.87136 -0.36453,-0.17709 -0.7932,-0.21509 -1.35832,-0.0512 -2.06803,0.13706 -4.02291,0.0994 -4.71569,-0.17946 -0.71083,-0.72399 -1.55243,-1.38525 -2.12715,-2.20406 -0.0499,-0.42491 -0.15097,-0.8238 -0.35883,-1.20457 -0.20762,-0.38074 -0.52827,-0.74299 -0.99952,-1.0764 -0.41989,-0.31483 -1.46725,-1.56977 -1.84524,-1.94776 -0.71561,-0.4319 -1.26194,-0.55668 -1.79402,-0.66636 -0.53211,-0.10957 -1.06368,-0.20049 -1.76836,-0.51257 -1.07623,-0.60338 -2.55237,-1.42911 -3.2805,-2.10157 -0.18116,-0.23035 -0.4359,-0.438 -0.6407,-0.66632 -0.20491,-0.22831 -0.3709,-0.47617 -0.38444,-0.76887 -0.37467,-0.33654 -0.65706,-0.56936 -0.84575,-0.84575 -0.18862,-0.27648 -0.28734,-0.60087 -0.25647,-1.10205 -0.46616,-1.29949 -0.9389,-2.57028 -1.58897,-3.79303 -0.4531,-0.27174 -0.56363,-0.33314 -0.66635,-0.3077 -0.10279,0.0271 -0.21169,0.12824 -0.61506,0.12824 -0.96452,0.1876 -1.46463,0.29345 -2.30658,0.23069 -0.84198,-0.0628 -2.01432,-0.2999 -4.3569,-0.74323 0,-0.17437 -0.13231,-0.38002 -0.23069,-0.56383 -0.098,-0.18387 -0.16487,-0.3311 -0.0271,-0.4357 0.0136,-0.47457 -0.0461,-0.89934 -0.15368,-1.28144 -0.10754,-0.38209 -0.2507,-0.73634 -0.46131,-1.05075 -0.42107,-0.62883 -1.03091,-1.13353 -1.74275,-1.64027 -0.54141,0.6768 -1.33226,1.27724 -1.87089,1.7684 -0.50544,0.27513 -1.0098,0.36744 -1.51209,0.4357 -0.5023,0.0682 -1.01059,0.10245 -1.53772,0.23069 -0.20796,0.37358 -0.32126,0.63117 -0.35878,0.87136 -0.0377,0.24019 0.017,0.46467 0.2049,0.82013 -0.28124,0.57598 -0.57017,0.83377 -0.92262,0.94827 -0.35244,0.11432 -0.76792,0.0892 -1.35831,0.15368 -0.25783,0.31584 -0.49578,0.49686 -0.71762,0.58947 -0.22187,0.0926 -0.43563,0.10789 -0.66635,0.077 -0.46141,-0.0624 -0.97754,-0.27038 -1.74275,-0.23069 -0.21916,0.45673 -0.41002,0.93945 -0.66635,1.38397 -0.25647,0.44452 -0.57981,0.85328 -1.02514,1.15327 -0.47037,1.08282 -0.90651,2.18965 -1.10202,3.28047 -1.11592,0.22492 -2.23554,0.13434 -3.38302,0.077 -0.017,7.1e-4 -0.0339,-6.5e-4 -0.0512,0 0.007,0.0271 0.017,0.0502 0.0271,0.077 -0.56326,0.14078 -1.79734,0.25579 -2.56289,0.12823 -0.62035,-0.10347 -1.06673,-0.0695 -1.48645,0.0512 -0.41975,0.12077 -0.80833,0.32737 -1.3327,0.58944 -0.0902,0.0451 -0.4149,0.34193 -0.74323,0.58948 -0.32839,0.24765 -0.65773,0.44428 -0.79448,0.30736 -0.0855,-0.0855 -0.15945,-0.18353 -0.25613,-0.25613 -0.59566,-0.44676 -1.37223,-0.36578 -1.92215,-0.64074 -0.49123,-0.0238 -0.9062,0.017 -1.2558,0.12823 -0.34959,0.11026 -0.65339,0.2731 -0.897,0.51257 -0.4872301,0.47872 -0.7990701,1.2196 -1.0764001,2.17842 -0.24901,0.65075 -0.50426,0.92822 -0.71762,1.20457 -0.21338,0.27649 -0.38291,0.54768 -0.43566,1.23015 0.11467,0.22899 0.11467,0.43909 0.0271,0.64074 -0.0892,0.20151 -0.26088,0.41069 -0.46134,0.58944 -0.401,0.35753 -0.93663,0.65471 -1.23015,0.94827 -0.26767,0.26766 -0.61988,0.54225 -0.97392,0.87136 -0.0237,0.0237 -0.0516,0.0529 -0.077,0.077 0.017,0.0617 0.0658,0.0838 0.077,0.15368 0.0868,0.55115 -0.0204,1.29458 -0.28191,1.81963 -0.13604,0.85677 -0.18252,1.74961 -0.35879,2.5885 -0.17641,0.83889 -0.47994,1.64152 -1.0764,2.35784 -0.52624,0.60431 -0.87435,1.13764 -1.05079,1.71711 -0.17641,0.57947 -0.17946,1.19914 0.0271,1.97341 -0.55989,0.66587 -0.94603,1.374386 -1.28144,2.075916 -0.33552,0.70154 -0.61642005,1.3895 -0.97388005,2.02467 0.33857,-0.0848 0.85358005,0.0933 1.35831005,0.25613 0.5047,0.16284 0.99488,0.31008 1.30706,0.15368 0.42939,-0.21474 0.76517,-0.48207 1.12766,-0.58944 0.36249,-0.1072 0.74764,-0.0543 1.3327,0.38444 0.8583,0.72626 1.61147,1.35472 2.43472,1.81962 0.82322,0.46491 1.70798,0.76202 2.8960301,0.84575 0.21237,0.35065 0.33416,0.74105 0.38444,1.12766 0.0502,0.38661 0.0499,0.78909 0.0271,1.20454 -8.9e-4,0.017 9.1e-4,0.0349 0,0.0512 0.66082,0.25037 1.19154,0.54022 1.51209,0.82013 0.35906,0.31347 0.53262,0.59267 0.56383,0.71758 0.35021,0.41297 0.76023,0.65401 1.23019,0.82014 0.46996,0.16623 0.97842,0.25782 1.51209,0.30769 1.06731,0.0997 2.21787,0.0943 3.20359,0.51257 0.54328,0.40748 1.12332,0.67982 1.6915,0.97392 0.56813,0.29413 1.11921,0.60664 1.58897,1.0764 0.69213,0.44618 1.23588,0.90756 1.69149,1.43519 0.45558,0.52767 0.81837,1.1163 1.17892,1.84527 0.16284,0.32568 0.88361,0.67545 1.64023,0.99953 0.75663,0.32398 1.56916,0.61943 1.87089,0.84575 0.7783,0.58374 1.56739,1.15731 2.25532,1.84527 0.26631,0.26597 1.14161,0.52743 2.05028,0.71758 0.90871,0.19032 1.84375,0.3077 2.25533,0.3077 0.87953,0 1.58625,0.30702 2.30661,0.61509 0.72033,0.30803 1.44676,0.6407 2.40907,0.6407 0.7416,0.31652 1.46545,0.56173 2.10158,0.94827 0.63609,0.38654 1.20416,0.90996 1.61458,1.7171 0.73251,0.94671 1.18595,1.95831 1.48649,3.0242 0.30057,1.06588 0.44485,2.1759 0.56383,3.33172 -0.93721,1.17278 -1.94732,2.27677 -2.87041,3.48551 -0.51946,0.64616 -0.7929,1.55294 -1.07644,2.53724 -0.28361,0.98429 -0.59915,2.0628 -1.20453,3.02419 -0.10992,0.21983 -0.0305,0.44683 0.15367,0.69197 0.18354,0.24527 0.48065,0.51175 0.79449,0.74322 0.62768,0.46294 1.36452,0.85192 1.53771,1.02514 -0.0136,0.90081 0.0102,1.76609 0.15368,2.61415 0.14452,0.84805 0.40754,1.67063 0.87139,2.51159 0.75154,0.75157 2.26123,1.37477 2.46033,1.64026 0.50006,0.5028 0.8602,1.08709 1.12767,1.6402 0.26732,0.55315 0.43956,1.07013 0.51257,1.43523 0.0957,0.90742 0.38447,1.84137 0.76887,2.74228 0.38437,0.9009 0.86118,1.78583 1.28144,2.61411 0.46033,0.0638 0.77379,0.21203 0.99949,0.41005 0.2256,0.19812 0.35703,0.43583 0.48696,0.692 0.12993,0.25613 0.26258,0.53085 0.4357,0.76883 0.17302,0.23782 0.38844,0.44588 0.74322,0.58948 1.3784,0.34458 2.80891,0.71351 4.1006,1.23019 0.24562,2.00204 0.67225,3.96642 1.23018,5.94583 0.20796,0.52217 0.33722,1.06093 0.3844,1.58897 0.0472,0.52804 0.0204,1.05713 -0.0271,1.58897 -0.0909,1.06375 -0.30634,2.13679 -0.35878,3.20359 0.24765,1.30811 0.0611,1.5941 0.12823,1.87092 0.0672,0.27683 0.41093,0.53853 1.74275,1.81963 0.0692,0.27717 0.0102,0.56149 -0.10245,0.84575 -0.11399,0.28429 -0.28395,0.56566 -0.51257,0.79448 0.8295,0.57231 1.58721,1.39357 2.3322,2.30659 0.74499,0.91301 1.47003,1.90962 2.17845,2.81915 0.23069,0.17302 0.44105,0.53486 0.66635,0.79448 -0.10076,-0.82427 -0.24664,-1.79699 -0.17946,-1.92214 2.00411,-0.21407 6.63919,2.98504 6.33027,2.87041 -0.63043,-0.23408 1.16647,-1.39275 2.92167,-1.05079 1.20125,0.23409 2.26645,1.32395 4.04934,2.92168 0.87451,0.78373 1.78573,2.31238 3.2292,2.71663 1.14697,0.32127 0.22832,1.71059 1.05079,2.63976 2.19029,2.47451 5.13846,3.76094 6.56093,3.69055 1.13458,-0.056 2.3805,3.17987 2.87041,5.58704 0.31347,1.53968 1.73753,1.12203 1.97341,1.6915 1.08746,2.62534 2.28595,1.58897 3.99807,1.58897 1.45029,0 4.305606,5.74866 5.407656,9.84142 0.95725,3.55492 -0.0994,1.30417 7.30418,5.40765 3.95937,2.19447 3.30235,4.54003 4.53626,3.30608 0.73451,-0.73451 1.04852,-2.04655 1.35832,-3.56238 -0.86363,-5.39031 0.71235,-5.0895 6.22778,-5.27952 4.99859,-0.77606 5.03336,0.8374 5.43327,-1.48645 1.06571,-3.11993 -2.36243,-5.25909 4.27999,-4.45938 1.45514,0.17505 1.9484,-1.97009 2.51162,-2.05032 1.01453,-0.15096 -0.44611,4.70304 1.28141,5.35643 0,0.69756 2.74228,-0.12383 3.86994,0.61506 -0.15809,0.15435 -1.85212,3.09309 -0.48695,4.30563 0,1.63179 5.33712,1.9478 7.66297,1.94776 1.31415,0 0.70554,1.84372 2.33223,3.66494 1.15765,1.29606 2.00214,2.81735 3.8443,2.84476 3.91167,0.0584 3.41575,-3.0536 4.07495,-2.48597 0.33941,0.29243 -0.0377,2.29196 2.25532,2.25532 -0.17879,-0.95814 3.27744,-1.69109 6.91975,-1.87089 1.71052,-2.30712 2.26998,-0.71188 4.97195,0.97388 2.00164,1.23707 2.38784,3.42913 3.99808,3.07546 1.26889,-0.27852 1.18062,-2.02854 2.28097,-1.58901 1.31228,-0.15232 7.24919,3.07865 8.20119,2.48598 0.31788,-0.31787 -0.21542,-1.42627 0.9995,-1.58897 1.94799,1.48672 4.18493,-2.20508 4.38251,-3.07542 1.47315,-2.23575 0.2507,-5.89743 0.17946,-13.01937 -0.44404,-3.34736 2.18445,-2.49429 3.38298,-3.81868 1.90719,-3.82669 -0.44431,-5.61941 6.15088,-12.42992 0.64647,-1.65452 0.0271,-5.80766 1.38396,-6.76597 2.1007,-1.48272 1.20457,-5.01416 1.20454,-6.58658 0,-1.27513 1.44666,-2.28812 2.79354,-5.04882 3.1985,-6.55608 3.96527,-10.56596 2.5885,-12.22489 -2.43024,-0.66635 -9.02044,-3.33196 -10.32838,-5.10012 -1.00072,-0.51556 -3.04886,-0.35981 -3.61364,-1.17892 -1.0286,-1.49191 -0.11026,-4.26937 -0.12824,-6.53532 0,-2.18672 5.3836,-5.55671 8.97003,-6.74032 2.33641,-0.77107 -0.25138,0.50236 1.17893,-3.45989 4.70819,-6.85322 1.46355,-4.95221 3.02419,-7.71423 z"
       id="San_Fernando"
       inkscape:label="#path2156" />
  </g>
</svg>
