<?xml version="1.0" encoding="UTF-8" standalone="no"?>
<!-- Created with Inkscape (http://www.inkscape.org/) -->

<svg
   width="210mm"
   height="297mm"
   viewBox="0 0 210 297"
   version="1.1"
   id="svg1283"
   inkscape:version="1.1.2 (b8e25be833, 2022-02-05)"
   sodipodi:docname="vector.svg"
   xmlns:inkscape="http://www.inkscape.org/namespaces/inkscape"
   xmlns:sodipodi="http://sodipodi.sourceforge.net/DTD/sodipodi-0.dtd"
   xmlns="http://www.w3.org/2000/svg"
   xmlns:svg="http://www.w3.org/2000/svg">
  <sodipodi:namedview
     id="namedview1285"
     pagecolor="#ffffff"
     bordercolor="#666666"
     borderopacity="1.0"
     inkscape:pageshadow="2"
     inkscape:pageopacity="0.0"
     inkscape:pagecheckerboard="0"
     inkscape:document-units="mm"
     showgrid="false"
     inkscape:zoom="0.52347032"
     inkscape:cx="155.69173"
     inkscape:cy="611.30496"
     inkscape:window-width="1920"
     inkscape:window-height="1017"
     inkscape:window-x="-8"
     inkscape:window-y="-8"
     inkscape:window-maximized="1"
     inkscape:current-layer="layer1" />
  <defs
     id="defs1280" />
  <g
     inkscape:label="Capa 1"
     inkscape:groupmode="layer"
     id="layer1">
    <path
       id="Curacavi"
       style="fill:#000000;fill-opacity:1;stroke:#d38d5f;stroke-width:0.910463;stroke-miterlimit:4;stroke-opacity:1"
       d="m 32.973543,65.4063 c 0.65347,3.65078 -0.052,13.63725 1.54008,14.23722 0.49751,0.18761 0.45599,4.74215 5.03949,10.25335 -1.69846,9.78334 6.23551,15.98372 8.25327,16.36158 1.46454,0.27425 -1.63983,1.17448 -2.40476,9.22564 -3.65776,0.72858 -6.02752,2.74527 -2.92426,10.23488 l -2.92425,6.94509 c -7.47823,5.57682 1.81647,9.45612 -5.8485,16.81448 -3.16795,-3.6553 -10.66644,4.13087 -12.428085,6.57959 -2.961569,-0.30063 -5.308337,-3.67556 -9.138282,0.36542 l -10.2348864,13.89019 -0.482812,0.16575 c 3.020798,-3.55576 -1.96972595,6.43659 7.172678,2.75877 5.2704844,5.35666 15.1847374,3.81653 18.8633574,11.05607 1.12764,5.13651 7.83367,5.5384 12.12976,6.85829 5.57184,1.13998 14.35799,4.4098 18.2909,8.9376 3.80899,4.53269 6.67889,0.81523 10.57284,-1.94105 7.35606,0.25542 14.7666,1.12513 22.01882,1.60516 5.3909,0.14315 9.27774,-6.4998 14.733587,-4.3597 3.59038,4.85502 9.64551,-0.0301 13.3805,-2.46966 3.19118,-3.15621 13.38979,-8.3609 10.5479,0.39933 -2.12743,5.09875 -0.52953,12.61082 -6.61849,14.00802 -1.44617,5.63393 4.91167,9.47857 6.82419,14.36026 -0.96527,5.08843 2.03796,9.76292 6.62436,12.12823 5.50363,2.42642 5.97443,8.65008 9.72897,12.52289 2.65758,2.7055 5.86786,4.78615 8.56421,7.44908 2.69634,2.66292 8.91224,2.95971 4.9874,4.58332 2.31042,-0.73009 6.25516,-1.22948 9.09323,0.0452 4.95848,1.179 2.49736,9.50193 13.33611,3.56186 3.55915,1.67568 9.83246,0.89962 10.10197,6.15789 0.26974,5.25826 3.92677,2.17476 3.17151,3.0294 1.8238,0.34584 2.79342,-1.41197 2.87554,-2.21198 1.96403,-1.37972 3.05631,-0.65701 3.98154,-2.98616 1.91603,-1.67673 2.87668,-1.6808 2.87563,-4.31328 0.42344,-1.90691 1.3865,-3.61747 1.32713,-5.52996 0.0829,-3.61031 0.98905,-3.46633 0.55303,-5.30874 0.58091,-2.06092 1.30445,-2.41617 1.65895,-4.86632 0.64495,-0.85992 1.09974,-1.80098 0.88478,-2.87555 -0.1424,-0.70975 -0.87069,-2.10846 -0.22076,-2.4332 0.55378,-0.7695 0.98724,-1.03833 0.35337,-1.77513 -0.69017,-0.96705 -1.20349,-1.57953 -2.27671,-2.12496 -0.76392,-0.54324 -1.73347,-0.68488 -2.58035,-0.91069 -0.79315,-1.08475 -0.0814,-2.34166 0.1522,-3.56692 0.26974,-1.04519 0.96728,-1.79871 1.66958,-2.58027 0.59372,-0.87287 0.75834,-1.78704 0.83482,-2.80796 0.0972,-1.19354 1.89727,-2.30202 1.97314,-2.35258 0.24336,-0.0753 0.71578,-0.68489 -0.0377,-1.52461 -1.76248,-2.134 -3.99382,-4.00007 -4.71405,-6.72968 -10.91043,-0.73009 -10.46491,-4.52892 -12.18761,-7.88261 l -0.30288,-6.24543 c -1.1234,-2.08586 -4.73673,-2.83095 -2.68063,-5.26429 0.34282,-0.40536 1.53772,-2.46228 0.25692,-4.80115 -1.28056,-2.33879 2.65743,-1.65269 3.09051,-8.91333 1.25864,-7.59946 -3.2586,-10.02739 -1.0308,-14.55239 -5.42259,-5.08678 1.30167,-2.98329 0.30289,-12.12703 -14.2058,-3.42368 -9.11729,-3.07303 -11.73644,-4.34124 2.06484,-9.07306 -9.3341,-7.17647 -8.41669,-12.96878 0.30447,-8.40325 -10.82405,-6.41263 -9.21326,-15.43544 -0.73477,-2.87615 -6.15599,-6.60415 -4.07852,-8.37951 3.41978,-2.92241 3.63409,-7.96481 4.83673,-12.29022 5.0328,0.86805 4.96525,-4.88245 9.94511,-5.56884 7.2528,1.27107 6.79079,-5.05415 2.21131,-4.90821 -1.79427,-3.06549 2.52172,-9.89606 -3.72246,-11.94695 -0.97087,-0.31871 0.21375,-3.40312 -0.58347,-6.60566 0.15257,-6.1218 -6.76885,-13.80828 -7.93689,-18.7284 -1.44869,-6.10235 0.049,-3.94613 -1.72748,-3.9248 -7.92285,-4.74095 1.68164,-13.11202 -0.40415,-20.06495 -1.28731,-1.39772 -3.5934,-4.13825 -3.28807,-5.35425 -8.60441,-1.58639 -8.04451,4.06939 -13.1266,2.52128 2.33539,12.187 -1.94395,8.66409 -7.31062,2.55872 -2.92426,2.38369 -5.84851,0.22679 -8.77277,-1.09658 -2.08766,2.42054 -1.10342,7.91298 -1.46213,12.06254 -7.04622,8.18173 -11.94575,5.63009 -16.08339,-0.73085 -6.56055,0.0226 -16.973097,-3.81397 -16.448907,3.2898 -2.82581,5.38695 -8.14307,7.03671 -16.81446,3.65529 l -6.9451,-2.9243 c -7.85565,5.68171 -9.06182,2.49739 -11.33148,0.73085 l -7.31063,-0.73085 c -3.01029,2.72833 -6.52323,4.78646 -12.42807,3.65537 0.21903,3.90853 -2.66454,5.95559 -7.31064,6.9451 -3.73396,2.505 -1.1718,6.05933 0.73108,9.50381 z"
       sodipodi:nodetypes="csccccccccccccccscccscccccccsccccccssccccssccccccscccscsccccccccccscccccccccccccc"
       inkscape:label="#path6607" />
  </g>
</svg>
