<?xml version="1.0" encoding="UTF-8" standalone="no"?>
<!-- Created with Inkscape (http://www.inkscape.org/) -->

<svg
   width="210mm"
   height="297mm"
   viewBox="0 0 210 297"
   version="1.1"
   id="svg57"
   inkscape:version="1.1.2 (b8e25be833, 2022-02-05)"
   sodipodi:docname="vector.svg"
   xmlns:inkscape="http://www.inkscape.org/namespaces/inkscape"
   xmlns:sodipodi="http://sodipodi.sourceforge.net/DTD/sodipodi-0.dtd"
   xmlns="http://www.w3.org/2000/svg"
   xmlns:svg="http://www.w3.org/2000/svg">
  <sodipodi:namedview
     id="namedview59"
     pagecolor="#ffffff"
     bordercolor="#666666"
     borderopacity="1.0"
     inkscape:pageshadow="2"
     inkscape:pageopacity="0.0"
     inkscape:pagecheckerboard="0"
     inkscape:document-units="mm"
     showgrid="false"
     inkscape:zoom="0.74029882"
     inkscape:cx="361.34057"
     inkscape:cy="453.87078"
     inkscape:window-width="1920"
     inkscape:window-height="1017"
     inkscape:window-x="-8"
     inkscape:window-y="-8"
     inkscape:window-maximized="1"
     inkscape:current-layer="layer1" />
  <defs
     id="defs54" />
  <g
     inkscape:label="Capa 1"
     inkscape:groupmode="layer"
     id="layer1">
    <path
       inkscape:connector-curvature="0"
       id="Tucapel"
       style="fill:#000000;fill-opacity:1;fill-rule:evenodd;stroke:#d39062;stroke-width:0.507681;stroke-linecap:butt;stroke-linejoin:miter;stroke-miterlimit:4;stroke-dasharray:none;stroke-opacity:1"
       d="m 64.476615,216.23782 c 0.22555,-0.37188 0.37189,-0.79465 0.63462,-1.1423 0.7027,-0.92982 1.51581,-1.7882 2.44322,-2.5701 0.92741,-0.7819 1.95347,-1.48597 3.0461,-2.15767 1.09263,-0.6717 2.26022,-1.30464 3.45859,-1.9038 1.36155,-0.68078 2.52709,-0.99696 3.58547,-1.11057 1.05837,-0.11329 2.00429,-0.0367 2.88743,0 0.88314,0.0367 1.70254,0.042 2.53842,-0.1904 0.83588,-0.23131 1.68528,-0.70165 2.60183,-1.61825 0.20614,-0.20614 1.19056,-0.24233 2.57015,-0.1904 1.3796,0.0525 3.169,0.20823 5.01338,0.3808 3.68869,0.34514 7.588125,0.79323 8.884375,0.79323 1.35201,0 2.45691,-0.16417 3.39512,-0.44427 0.93821,-0.28009 1.70244,-0.69126 2.34802,-1.20571 0.64558,-0.51456 1.17592,-1.13674 1.64998,-1.84039 0.47417,-0.70364 0.90895,-1.46887 1.33265,-2.31628 0.10438,-0.20824 0.36874,-0.38133 0.79324,-0.47574 0.42486,-0.0949 0.99501,-0.12169 1.64998,-0.12694 1.30994,-0.0105 3.00509,0.14215 4.69604,0.34881 3.382,0.41385 6.77917,1.06016 7.36139,1.20572 1.37802,0.34461 2.47579,0.53196 3.39511,0.57115 0.91933,0.0367 1.67957,-0.0656 2.34802,-0.31734 0.66845,-0.25177 1.24658,-0.64579 1.87207,-1.17403 0.62549,-0.5282 1.30385,-1.17692 2.0942,-1.96727 0.36192,-0.36192 1.28843,-0.56675 2.53837,-0.63457 1.24998,-0.0677 2.79721,-0.0262 4.37875,0.0635 3.16318,0.18096 6.46467,0.57115 7.61526,0.57115 0.96868,0 1.86404,-0.21138 2.7605,-0.44427 0.89646,-0.23289 1.76957,-0.51193 2.72876,-0.69803 0.9592,-0.18621 1.98442,-0.26646 3.14131,-0.12693 1.15683,0.13952 2.445,0.52452 3.93448,1.26918 1.0513,0.52567 2.17099,0.89389 3.33165,1.17403 1.16071,0.2801 2.3829,0.46053 3.61726,0.57115 2.46871,0.22135 5.03424,0.19041 7.58347,0.19041 1.13794,0 2.23676,-0.10334 3.26818,-0.28534 1.03142,-0.18254 1.98484,-0.45371 2.88744,-0.79329 0.90264,-0.33989 1.7552,-0.7659 2.50668,-1.23745 0.75153,-0.47154 1.42093,-0.97666 1.999,-1.55478 0.71681,-0.71681 1.5914,-1.13921 2.53842,-1.36439 0.94702,-0.22502 1.94734,-0.28009 2.9509,-0.22187 2.00703,0.11644 3.98101,0.60283 5.17199,0.60283 0.28953,0 0.57382,-0.15263 0.8567,-0.41227 0.28272,-0.25964 0.55589,-0.62817 0.82496,-1.07884 0.53827,-0.90128 1.05036,-2.10967 1.49132,-3.36338 0.88198,-2.50737 1.49415,-5.18321 1.64999,-5.8066 0.50668,-2.0277 1.00687,-3.87034 1.36438,-5.87002 0.35772,-1.99969 0.57115,-4.16339 0.57115,-6.72677 0,-1.801 -0.021,-2.93721 -0.12693,-3.74419 -0.10596,-0.80698 -0.29111,-1.27228 -0.66635,-1.68167 -0.7508,-0.81883 -2.20609,-1.44458 -5.01332,-4.25181 -0.50039,-0.5004 -0.74844,-0.97519 -0.82497,-1.45959 -0.0766,-0.48466 0.0157,-0.968 0.25387,-1.42785 0.47469,-0.91969 1.46745,-1.79911 2.53842,-2.57015 1.07097,-0.77105 2.22743,-1.44364 3.01437,-1.999 0.39339,-0.27747 0.69929,-0.51875 0.8567,-0.72977 0.15735,-0.21138 0.15683,-0.37136 -0.0315,-0.50774 -0.71807,-0.51875 -1.2257,-1.29766 -1.55479,-2.25286 -0.32887,-0.95516 -0.48308,-2.09709 -0.50773,-3.33166 -0.0262,-1.23456 0.0897,-2.5776 0.28586,-3.93448 0.19565,-1.35694 0.49305,-2.73936 0.82497,-4.06147 0.17519,-0.69824 0.0551,-3.10029 -0.15841,-5.7114 -0.21348,-2.61112 -0.53559,-5.43844 -0.82497,-6.88544 -0.15735,-0.78589 -0.0157,-1.9144 0.28534,-3.20472 0.3016,-1.29032 0.77131,-2.72913 1.26924,-4.12494 0.99575,-2.7916 2.1113,-5.3991 2.31628,-6.21908 1.18836,-4.75363 1.79675,-8.10715 2.91917,-12.59684 0.14949,-0.59806 0.12799,-1.18689 0,-1.77687 -0.12798,-0.589982 -0.35667,-1.172672 -0.69808,-1.745132 -0.68298,-1.14498 -1.73716,-2.24962 -2.88744,-3.26819 -2.30049,-2.03713 -5.01158,-3.7424 -6.09215,-4.82297 -0.22554,-0.22554 -0.34094,-0.52189 -0.34881,-0.85675 -0.0105,-0.33464 0.0703,-0.69908 0.22188,-1.11051 0.30422,-0.82293 0.88759,-1.76334 1.49131,-2.69709 0.60373,-0.93375 1.23404,-1.84983 1.68172,-2.63357 0.44742,-0.78374 0.70349,-1.43577 0.53937,-1.8086 -0.16208,-0.36874 -0.75552,-0.47207 -1.6182,-0.4128 -0.86268,0.0593 -1.97881,0.2759 -3.26819,0.53942 -1.28937,0.26331 -2.74592,0.58128 -4.1884,0.82502 -1.44243,0.2439 -2.89814,0.41227 -4.22009,0.41227 -0.58211,0 -1.16302,0 -1.74513,0 0.73428,1.3047 1.46457,2.2791 1.77687,3.10952 0.18358,0.4878 0.22607,0.99968 0.12693,1.61825 -0.0991,0.61852 -0.34041,1.3475 -0.82502,2.31629 -0.2397,0.47941 -1.27511,1.82045 -2.25281,3.1413 -0.97771,1.3208 -1.90381,2.64631 -1.90381,3.10952 0,1.48418 -0.52829,2.98216 -1.0471,4.410482 -0.51875,1.42833 -1.04704,2.76748 -1.0471,3.87107 0,0.68791 0.84422,2.93942 1.52305,5.10852 0.33937,1.0846 0.6587,2.15221 0.79329,2.98264 0.13428,0.83042 0.0981,1.42648 -0.22187,1.58651 -0.61165,0.3058 -1.15862,0.51141 -1.61825,0.60289 -0.45949,0.0918 -0.82355,0.0724 -1.17399,0 -0.70086,-0.14477 -1.25591,-0.54834 -1.77686,-1.0471 -0.52085,-0.49882 -1.02969,-1.07254 -1.71346,-1.52305 -0.68376,-0.45057 -1.53968,-0.79324 -2.72876,-0.79324 -1.66226,0 -3.54986,-0.13952 -5.20372,-0.0315 -0.82696,0.054 -1.57079,0.19355 -2.22114,0.41228 -0.65035,0.21924 -1.19732,0.53873 -1.55478,1.01536 -0.35983,0.47994 -0.79214,0.9625 -1.30092,1.39612 -0.50879,0.43378 -1.09882,0.81726 -1.77687,1.11052 -0.6781,0.2932 -1.44841,0.48046 -2.31628,0.53941 -0.86793,0.0587 -1.84096,-0.0157 -2.91917,-0.28534 -1.04338,-0.26068 -3.03593,-0.72976 -5.07684,-0.98363 -1.0204,-0.12693 -2.06325,-0.18935 -2.98263,-0.15841 -0.91933,0.0315 -1.7316,0.15211 -2.31629,0.44427 -1.57461,0.78736 -2.69761,0.97823 -3.64893,1.39612 -0.47574,0.20876 -0.91576,0.49567 -1.33265,0.92017 -0.417,0.42486 -0.81463,0.99459 -1.2375,1.84038 -0.23814,0.47679 -0.6545,1.02822 -1.20572,1.523 -0.55122,0.49463 -1.24117,0.93134 -1.96727,1.20577 -0.72614,0.27433 -1.48985,0.37503 -2.25287,0.1904 -0.76297,-0.18463 -1.52751,-0.6406 -2.18935,-1.52305 -0.53842,-0.71791 -2.09719,-3.49032 -3.87107,-5.9018 -0.88691,-1.20577 -1.81069,-2.31403 -2.69703,-3.04611 -0.44322,-0.36611 -0.89662,-0.65774 -1.30097,-0.79323 -0.4044,-0.13532 -0.77083,-0.13795 -1.11051,0.0315 -1.15295,0.57645 -2.461,1.16989 -3.77587,1.49132 -0.65749,0.1605 -1.32185,0.25911 -1.96727,0.25387 -0.64542,-0.005 -1.27369,-0.10963 -1.87212,-0.34881 -1.65476,-0.66194 -3.65523,-2.05019 -5.80655,-3.26818 -1.07569,-0.60902 -2.18579,-1.17115 -3.29997,-1.58652 -1.11419,-0.41542 -2.23603,-0.6663 -3.33165,-0.6663 -2.01096,0 -4.43803,-0.27485 -6.790235,-0.31733 -1.17608,-0.021 -2.34728,0.0105 -3.4268,0.15893 -1.07957,0.14581 -2.08922,0.39391 -2.9509,0.82496 -0.97535,0.48781 -1.93297,1.55515 -2.9509,2.57015 -0.50879,0.50722 -1.01301,1.02245 -1.55479,1.42785 -0.54178,0.40546 -1.12405,0.70937 -1.7134,0.8567 -1.05151,0.26279 -1.77435,0.50669 -2.2846,0.79324 -0.51036,0.28639 -0.78563,0.61468 -1.01537,1.01536 -0.45948,0.80137 -0.62156,1.90952 -1.523,3.71246 -0.23184,0.46315 -0.37451,1.11707 -0.44427,1.84033 -0.0698,0.72321 -0.0629,1.5369 -0.0949,2.37975 -0.0315,0.84286 -0.1028,1.71613 -0.22187,2.53842 -0.11906,0.82224 -0.3037,1.59129 -0.63456,2.25282 -0.84081,1.68161 -1.24731,2.57933 -1.93554,3.29992 -0.68827,0.72058 -1.64532,1.25103 -3.58552,2.22108 -0.97472,0.48728 -2.14602,1.14687 -3.26818,1.87207 -1.12222,0.72525 -2.2204,1.52232 -2.98264,2.2846 -0.60073,0.60074 -1.22019,0.98421 -1.87207,1.26918 -0.65192,0.28482 -1.3316,0.47417 -2.06246,0.63462 -0.73087,0.16051 -1.51041,0.31157 -2.34802,0.53942 -0.83761,0.22764 -1.72489,0.52924 -2.69704,1.01537 -0.54135,0.27065 -2.43938,0.0682 -4.28355,-0.0949 -0.92211,-0.0818 -1.80891,-0.15211 -2.53842,-0.15893 -0.72955,-0.005 -1.29992,0.0624 -1.49131,0.25387 -1.10832,1.10826 -1.97986,1.65208 -2.91917,2.15761 -0.93931,0.50564 -1.93979,0.97892 -3.29992,1.99901 -0.92331,0.69247 -1.68072,1.07448 -2.37975,1.26918 -0.69908,0.1946 -1.32772,0.18201 -1.96727,0.0949 -1.2791,-0.17309 -2.60288,-0.6663 -4.63257,-0.66635 -1.24332,0 -2.14838,0.11749 -2.85575,0.31733 -0.70732,0.19984 -1.23263,0.46368 -1.68167,0.7615 -0.44899,0.29793 -0.83262,0.62491 -1.30091,0.92017 -0.4684,0.2953 -1.0117,0.57026 -1.77692,0.76155 -0.59827,0.14949 -1.12846,0.21558 -1.6182,0.1904 -0.48991,-0.0262 -0.92951,-0.15945 -1.42785,-0.41227 -0.9968,-0.50617 -2.13722,-1.5026 -3.87107,-3.23645 -0.7326,-0.7326 -2.43011,-2.37414 -4.12494,-3.87107 -1.69483,-1.49693 -3.39931,-2.84883 -4.18835,-3.04611 -1.12882,-0.28219 -2.71634,-0.46892 -4.4422201,-0.57115 -1.72588,-0.10228 -3.58327,-0.12693 -5.23545,-0.12693 -1.47637,0 -2.24537,0.15893 -2.60188998,0.41227 -0.17834,0.12694 -0.25649,0.26541 -0.25387,0.44427 0.003,0.17886 0.0724,0.38028 0.1904,0.60289 0.23603998,0.44531 0.65024998,0.98069 0.95189998,1.55473 0.3016,0.57409 0.50931,1.19974 0.34881,1.84038 -0.33832,1.35301 -0.86667,2.90501 -1.30091998,4.37876 -0.30002,1.01778 -0.40755,1.83996 -0.53941,2.69703 1.66151998,0.33255 3.34375998,0.70291 4.60082998,1.20572 0.95914,0.38342 1.71288,0.7765 2.34802,1.17403 0.63519,0.39759 1.14791,0.79617 1.61825,1.23745 0.94068,0.88261 1.7144501,1.90485 2.9509001,3.14131 0.60357,0.60351 0.84558,1.19858 0.88844,1.8086 0.042,0.61007 -0.11015,1.21038 -0.31734,1.87206 -0.20719,0.66169 -0.48833,1.36753 -0.63462,2.12594 -0.14634,0.7584 -0.16155,1.57466 0.0635,2.47495 0.17152,0.68534 0.58411,1.32415 1.14225,1.93553 0.55819,0.61133 1.24626,1.21322 1.93553,1.80861 0.68933,0.59538 1.40257,1.20283 1.96727,1.84033 0.5647,0.6375 0.98961,1.29305 1.17404,2.03073 0.15578,0.62261 0.63068,1.25529 1.30091,1.84034 0.67024,0.58505 1.51964,1.12252 2.44322,1.61825 1.8471,0.9914 3.94251,1.73921 5.23545,2.06242 0.0724,0.0157 4.7808,8.93746 5.55279,9.7094 0.91141,0.91146 1.59895,2.01589 2.15762,3.20477 0.55867,1.18888 0.9883,2.46189 1.30097,3.7124 0.14529,0.58196 0.53994,1.17482 1.04705,1.77687 0.50721,0.60204 1.12383,1.21962 1.71345,1.74519 1.17923,1.05108 2.22811,1.8333 2.06241,1.99894 -0.38919,0.3892 -0.64642,0.78149 -0.82496,1.14231 -0.17834,0.36087 -0.25387,0.70663 -0.25387,1.0471 -2.6e-4,0.68088 0.30632,1.31901 0.82497,1.96727 1.0376,1.29645 2.85297,2.5991 4.41048,4.15661 1.57157,1.57157 2.48172,2.99654 3.58547,4.18835 0.5519,0.59597 1.15421,1.12935 1.9038,1.58652 0.74965,0.45739 1.66688,0.85303 2.82402,1.1423 3.61794,0.90444 7.4193,1.84689 11.07379,2.76051 0.0262,0.005 0.0671,0.0262 0.0949,0.0315 z" />
  </g>
</svg>
