<?xml version="1.0" encoding="UTF-8" standalone="no"?>
<!-- Created with Inkscape (http://www.inkscape.org/) -->

<svg
   width="210mm"
   height="297mm"
   viewBox="0 0 210 297"
   version="1.1"
   id="svg64"
   inkscape:version="1.1.2 (b8e25be833, 2022-02-05)"
   sodipodi:docname="vector.svg"
   xmlns:inkscape="http://www.inkscape.org/namespaces/inkscape"
   xmlns:sodipodi="http://sodipodi.sourceforge.net/DTD/sodipodi-0.dtd"
   xmlns="http://www.w3.org/2000/svg"
   xmlns:svg="http://www.w3.org/2000/svg">
  <sodipodi:namedview
     id="namedview66"
     pagecolor="#ffffff"
     bordercolor="#666666"
     borderopacity="1.0"
     inkscape:pageshadow="2"
     inkscape:pageopacity="0.0"
     inkscape:pagecheckerboard="0"
     inkscape:document-units="mm"
     showgrid="false"
     inkscape:zoom="0.74029882"
     inkscape:cx="361.34057"
     inkscape:cy="561.93525"
     inkscape:window-width="1920"
     inkscape:window-height="1017"
     inkscape:window-x="-8"
     inkscape:window-y="-8"
     inkscape:window-maximized="1"
     inkscape:current-layer="layer1" />
  <defs
     id="defs61" />
  <g
     inkscape:label="Capa 1"
     inkscape:groupmode="layer"
     id="layer1">
    <path
       style="fill:#000000;fill-opacity:1;fill-rule:evenodd;stroke:#d39062;stroke-width:1.1552;stroke-linecap:butt;stroke-linejoin:miter;stroke-miterlimit:4;stroke-dasharray:none;stroke-opacity:1"
       d="m 69.287695,20.050135 c -15.08528,25.53421 0.59178,44.53087 -29.67433,68.15715 -2.541753,29.399355 -44.7107999,44.644455 -28.591325,79.853535 1.254483,12.05281 -3.6701599,19.51586 -9.8192409,25.91989 -0.01382,0.0115 0.01382,0.0576 0,0.0691 1.346941,0.39398 2.824242,0.95039 4.187622,1.9494 1.630008,1.19438 3.09883,2.59347 4.187611,3.68222 0.5848649,0.58521 1.5010079,0.86053 2.5992119,0.93887 1.098192,0.0806 2.426575,-0.0461 3.682221,-0.21657 2.51127,-0.34215 4.91507,-0.92275 5.920423,-0.7223 0.759046,0.15206 1.068356,0.5783 1.155204,1.08287 0.0864,0.50457 0.0046,1.08402 0,1.73282 -0.0046,0.64857 0.09446,1.3658 0.577608,1.9494 0.48349,0.58406 1.335595,1.06098 2.888005,1.37179 3.52805,0.70617 7.520318,0.79372 11.479846,0.79372 0.645,0 2.044764,1.62039 3.465624,3.39342 1.42085,1.77314 2.84804,3.64224 3.39341,4.18771 1.01432,1.01375 2.80491,1.4264 4.69302,1.6606 1.88811,0.23385 3.8363,0.30873 5.19842,0.64972 -0.79694,3.18779 -1.75999,5.28994 -2.23821,7.14787 -0.23915,0.9285 -0.30873,1.80275 -0.21646,2.74358 0.0922,0.94117 0.34744,1.92244 0.93864,3.10461 1.42088,2.84184 2.17763,4.6674 3.10462,8.37531 0.76734,3.06925 1.8297,6.76403 3.0324,9.16938 0.96341,1.92694 0.86976,2.9764 0.79419,3.97103 -0.076,0.99417 -0.144,1.9502 0.72195,3.68222 0.52024,1.04025 1.21998,1.28551 2.3826,1.44402 1.16262,0.15897 2.80382,0.24998 5.27062,0.8663 1.0376,0.25919 1.92255,0.78911 2.67142,1.51613 0.74891,0.72806 1.34946,1.66267 1.8772,2.59924 1.05546,1.87325 1.73374,3.90075 2.31041,5.05401 1.40444,2.80889 2.23562,6.70435 3.03242,9.89145 0.33845,1.35381 1.15867,1.95723 2.16601,2.09385 1.0073,0.13594 2.22231,-0.1751 3.46561,-0.7223 2.4866,-1.09323 5.01521,-3.05738 5.84823,-3.6821 2.10548,-1.57915 3.05923,-2.45697 3.39341,-3.39342 0.3342,-0.93657 0.0265,-1.91714 -0.36103,-3.46565 -0.0495,-0.19929 6.92353,-5.8824 7.653225,-6.06488 2.77078,-0.69234 4.86418,-0.6094 6.64243,-0.86629 0.8891,-0.12903 1.66627,-0.34791 2.45481,-0.79373 0.78853,-0.44582 1.59631,-1.11743 2.38261,-2.16597 0.43545,-0.5806 0.87252,-0.53683 1.3718,-0.144 0.49928,0.39283 1.01951,1.13587 1.58841,1.9494 0.56897,0.81331 1.16059,1.69999 1.80501,2.38266 0.64442,0.68313 1.36814,1.15522 2.09381,1.15522 4.58254,0 9.13552,0 13.71806,0 3.95406,0 8.66845,0.023 11.47985,0.7223 2.07058,0.51724 2.9518,1.55968 4.11541,2.02162 0.58187,0.23155 1.25837,0.30413 2.16601,0.144 0.90765,-0.15897 2.08032,-0.57138 3.68222,-1.37179 1.44334,-0.7223 2.04786,-1.38457 2.31041,-1.94951 0.26254,-0.56448 0.13398,-1.05177 0.0726,-1.4439 -0.0622,-0.39283 -0.0369,-0.6624 0.43315,-0.8663 0.47036,-0.2039 1.3902,-0.36057 3.24902,-0.36057 1.65,0 2.8958,-0.33984 3.82662,-0.93888 0.93081,-0.59903 1.58909,-1.40738 2.0938,-2.38254 1.00937,-1.95044 1.46337,-4.44288 2.52702,-6.57026 0.50676,-1.01375 2.63992,-1.6227 4.83741,-2.16597 2.1975,-0.54374 4.422,-1.02873 5.05402,-1.6606 0.28409,-0.28454 -1.17317,-2.45685 -2.7436,-4.62086 -1.57044,-2.16401 -3.28095,-4.32365 -3.39342,-4.54863 -1.86,-3.72001 -1.44655,-4.57605 -3.75441,-7.65325 -1.47441,-1.96587 -2.85865,-2.49475 -3.82663,-3.32119 -0.48395,-0.41356 -0.88438,-0.88703 -1.1552,-1.66059 -0.27083,-0.77414 -0.43315,-1.82856 -0.43315,-3.39342 0,-2.11874 -0.4631,-3.46058 -1.08298,-4.83744 -0.61989,-1.37697 -1.37378,-2.82375 -1.94941,-5.12624 -0.31657,-1.26615 -1.399,-2.46698 -2.52701,-3.60999 -1.12803,-1.14277 -2.29805,-2.21355 -2.81582,-3.24907 -0.22406,-0.44813 0.16105,-0.92044 0.79418,-1.44391 0.63314,-0.52415 1.51919,-1.0725 2.38262,-1.73282 0.86341,-0.66009 1.69911,-1.38193 2.166,-2.2382 0.46691,-0.85593 0.55642,-1.84733 0,-2.96027 -0.62898,-1.25786 -0.59039,-3.6169 -0.43314,-5.99265 0.15736,-2.37564 0.43314,-4.74966 0.43314,-6.20923 0,-1.78466 -0.96663,-2.65234 -1.6606,-3.68222 -0.34698,-0.51494 -0.62369,-1.06214 -0.64984,-1.80494 -0.0265,-0.74303 0.1698,-1.71163 0.79418,-2.96027 1.14762,-2.29511 1.56032,-4.22112 2.23822,-5.84819 0.33891,-0.81331 0.76722,-1.56049 1.3718,-2.2382 0.60456,-0.67737 1.40157,-1.24231 2.527,-1.80506 0.48534,-0.24307 3.25616,1.46994 6.35363,3.24908 3.09748,1.77913 6.5225,3.60999 8.15864,3.60999 1.48527,0 2.11941,0.33292 2.38261,0.86629 0.26323,0.53338 0.15437,1.25141 0,2.02163 -0.15436,0.77068 -0.37681,1.5992 -0.14434,2.31043 0.23235,0.71078 0.88669,1.30463 2.31041,1.6606 2.69936,0.67506 5.36597,0.64857 7.43663,0 1.0353,-0.32486 1.90248,-0.80294 2.59921,-1.44402 0.69672,-0.64166 1.20682,-1.43388 1.444,-2.38266 0.13605,-0.54374 0.62208,-0.97574 1.37182,-1.37179 0.74971,-0.39629 1.73996,-0.75456 2.74361,-1.08287 2.0073,-0.65779 4.19018,-1.22998 5.05401,-2.09386 0.42416,-0.42393 0.40285,-1.36476 0.14446,-2.52701 -0.25839,-1.16224 -0.77045,-2.59566 -1.2996,-4.04314 -1.05834,-2.89506 -2.27919,-5.90095 -1.94941,-7.22009 0.44167,-1.76647 1.9763,-3.24493 3.39341,-4.90956 0.70859,-0.83173 1.4456,-1.73247 1.94941,-2.67146 0.50377,-0.93887 0.79418,-1.97083 0.79418,-3.10461 3e-5,-4.87004 0.85397,-8.09654 1.51621,-11.40759 0.0323,-0.16243 0.23788,-0.34099 0.2888,-0.50572 -3.41136,0.0691 -6.81846,0.30758 -10.03584,0.21657 -2.88082,-0.82482 -3.67106,-1.74572 -4.98182,-3.82668 -4.98338,0.0346 -12.53495,2.09663 -17.40027,0.57715 -5.55118,-3.61506 -10.75071,-7.31226 -15.45088,-11.91308 -1.7222,-4.06905 -4.28111,-7.02402 -7.43662,-10.18025 0.21415,-6.28549 -0.33074,-9.221785 0,-15.739635 -1.70409,-1.13586 -4.20518,-2.10284 -5.55943,-4.11537 -4.53423,-4.81912 -6.10953,-14.07455 -10.75784,-11.91307 -3.63109,-0.53107 -7.5456,-0.64742 -11.04666,-1.6606 -3.69394,-2.04777 -7.05853,-4.53619 -10.54124,-6.93129 -0.73404,-5.33694 0.86907,-4.38471 -3.32122,-15.30638 1.38781,-6.17328 1.35737,-7.60359 5.70383,-12.56291 -14.60682,-8.42047 -8.31928,-10.92052 -17.03927,-11.62427 -2.794255,-0.22579 -13.200705,10.71028 -15.378665,5.34281 -1.66535,-4.10408 -0.0691,-10.03545 -3.82662,-12.5628 -4.23278,2.54268 -8.25075,7.13658 -12.85165,-1.29967 z"
       id="Vichuquen"
       inkscape:label="#path1873" />
  </g>
</svg>
