<?xml version="1.0" encoding="UTF-8" standalone="no"?>
<!-- Created with Inkscape (http://www.inkscape.org/) -->

<svg
   width="210mm"
   height="297mm"
   viewBox="0 0 210 297"
   version="1.1"
   id="svg1283"
   inkscape:version="1.1.2 (b8e25be833, 2022-02-05)"
   sodipodi:docname="vector.svg"
   xmlns:inkscape="http://www.inkscape.org/namespaces/inkscape"
   xmlns:sodipodi="http://sodipodi.sourceforge.net/DTD/sodipodi-0.dtd"
   xmlns="http://www.w3.org/2000/svg"
   xmlns:svg="http://www.w3.org/2000/svg">
  <sodipodi:namedview
     id="namedview1285"
     pagecolor="#ffffff"
     bordercolor="#666666"
     borderopacity="1.0"
     inkscape:pageshadow="2"
     inkscape:pageopacity="0.0"
     inkscape:pagecheckerboard="0"
     inkscape:document-units="mm"
     showgrid="false"
     inkscape:zoom="0.52347032"
     inkscape:cx="155.69173"
     inkscape:cy="611.30496"
     inkscape:window-width="1920"
     inkscape:window-height="1017"
     inkscape:window-x="-8"
     inkscape:window-y="-8"
     inkscape:window-maximized="1"
     inkscape:current-layer="layer1" />
  <defs
     id="defs1280" />
  <g
     inkscape:label="Capa 1"
     inkscape:groupmode="layer"
     id="layer1">
    <path
       d="m 78.535734,68.352188 c -1.95289,1.51302 -3.87031,3.21521 -6.32552,3.56229 -3.3393,0.27103 -4.08774,-2.1803 -7.31734,-2.04501 -3.36923,-0.98909 -5.47302,2.1787 -7.49687,3.48509 -1.60307,1.29445 -4.53523,1.98625 -6.7354,1.73768 -1.42608,-1.97596 -4.30274,-1.57765 -7.05942,-1.13274 -1.86199,-2.0237 -5.39886,-1.98084 -6.61101,-2.04502 -3.10939,-0.40882 -5.28535,0.28168 -7.23893,2.04502 -1.22227,0.67908 -7.26695,-1.47275 -4.34347,2.04501 2.33705,1.48112 -0.0152,5.13713 1.44785,7.07472 0.73923,2.10143 1.36723,5.4686 0,7.57033 -0.0784,2.86075 -2.01745,4.96248 -1.44785,8.11412 1.28577,2.236032 -0.28168,5.782492 -2.4549,6.596852 -1.96089,1.18353 -3.8359,3.51197 -4.84699,5.07957 -0.77295,2.24395 -1.32984,5.90635 -3.94888,5.5413 -1.89458,0.59534 -5.0268899,0.89834 -7.1452899,2.04509 -2.38973,0.0533 -7.4014,-0.20022 -6.39244,2.40314 1.15802,2.63175 3.73062,3.20402 4.95997,5.71099 1.92686,1.42889 0.488,5.55295 0.44079,8.24454 -0.74531,3.39762 1.46749,5.59756 2.82193,7.31278 1.4621599,2.16644 -0.58011,6.98808 2.0250699,7.72951 1.67631,2.12899 4.11576,3.23463 5.21394,5.46419 1.3121,2.0173 1.37971,4.18275 2.52859,6.74005 0.14313,2.36978 1.79028,4.56363 2.45498,7.07471 1.04291,2.35731 2.89577,3.78429 2.39201,7.10853 -1.41313,1.95693 -0.004,6.24352 0.50399,8.14633 0.54813,3.41817 -1.28364,5.4947 -4.01185,5.50909 -2.24386,1.39258 -3.58071,2.31589 -5.68214,4.55184 -0.19489,3.08275 3.22542,4.8208 -0.94417,6.59685 -2.21006,1.28386 -2.50826,3.25061 -3.3992199,6.08525 -1.04611,2.17063 4.7133899,0.49713 6.1581899,-0.40045 2.31535,-1.18489 4.49024,-2.04181 7.68741,-1.66048 1.83642,1.4525 1.52832,4.46886 3.52804,6.06912 2.51192,0.3167 5.18836,1.03217 4.40635,5.07957 1.29756,2.06762 3.82715,2.83471 5.79116,4.09003 2.40343,0.40577 1.79515,4.78745 4.86237,5.07957 2.74732,-0.26951 4.76264,1.21077 6.21642,3.03455 3.36839,0.67071 5.79588,-1.13305 8.61317,-0.14312 2.30979,1.43087 4.33455,1.11318 6.9657,0.14312 2.61378,-0.2832 4.79316,-1.39729 6.70464,-2.57275 1.14379,-1.75069 2.87712,-2.9062 3.83987,-5.54137 1.44815,-2.69517 4.35032,-2.86631 7.58144,-2.57275 2.79627,0.68974 3.80119,2.32662 7.09923,2.04501 2.56339,0.21697 5.62604,1.22494 8.05878,0 3.290886,0.24362 5.678866,-0.45907 7.223626,-2.04501 2.53796,-0.3365 3.58072,-3.82791 5.35052,-4.55184 1.32231,-1.43772 2.5353,-3.7702 4.34347,-5.54138 1.06879,-2.32555 2.99976,-4.73432 5.28756,-5.6073 2.28056,-1.26536 3.71782,-2.52456 6.29476,-3.03456 2.00977,-1.05113 4.59805,-1.26765 6.29484,-3.03456 2.41158,-1.28926 3.98504,-3.19778 6.66171,-2.12221 2.8287,0.73847 4.84281,1.40971 8.14336,1.13267 2.69357,0.27331 4.63741,-1.77871 6.97484,-2.04501 1.47495,-1.68728 3.99304,-2.35677 5.28763,-4.02402 2.31292,-0.86233 3.43371,-3.24057 5.71747,-4.47464 1.84357,-1.72801 3.52331,-2.26024 5.42421,-4.1673 1.91864,-0.94181 3.60287,-3.0303 5.79124,-3.5623 1.46406,-1.30297 3.65167,-2.68694 6.32552,-3.03455 4.16525,0 8.33057,0 12.49589,0 1.88925,-1.42806 5.80357,-0.88311 8.68236,-0.98954 2.67713,0.0228 7.99072,0.25046 4.73706,-3.56504 -1.03804,-5.00793 -3.236,-9.76356 -4.22912,-14.70823 2.62749,-4.00012 4.72481,-8.64263 4.34339,-13.65543 -2.5308,-3.44513 -1.74925,-8.33864 -4.5628,-11.64155 -2.50019,-1.07473 -1.11287,-5.56978 -4.12284,-5.96809 -3.191,2.05004 -5.27537,0.6334 -8.18431,-0.13551 -3.4886,-0.48647 -2.62369,-4.73752 -2.75714,-7.10974 -0.97371,0.36314 -6.59715,2.2865 -5.489,-1.99393 -0.87383,-2.73811 -5.03808,-1.89237 -7.22774,-3.73427 -3.63827,-1.12704 -7.03049,-4.0981 -7.61723,-7.79895 -0.79305,-3.200672 -4.23376,-2.237552 -5.92781,-4.167302 -0.60828,-2.62155 -1.91491,-6.0028 -4.84699,-5.60731 -2.45422,1.40118 -5.70263,0.41339 -7.60596,-1.37407 -1.74057,-0.59154 -4.64715,-0.37989 -7.60908,-0.60524 -2.74701,-0.21545 -3.83994,2.18433 -7.00551,1.97909 -1.52551,1.46969 -5.48071,1.2024 -7.31735,0 -3.20128,-0.72705 -3.42313,2.563 -4.76858,4.55183 -0.6669,3.27147 -4.03004,-0.70497 -3.90282,-2.60503 -0.94265,-2.61538 -1.41466,-4.4805 -4.34339,-4.98136 -2.72989,-1.37705 -3.6908,1.45713 -4.84692,3.56229 -0.44688,2.75021 -2.83403,4.56714 -5.65458,3.17776 -2.03877,-0.84528 -4.23711,-2.49517 -5.927816,-0.14313 -1.19052,2.12853 -5.61895,0.86477 -4.84699,-2.62109 0.0457,-3.9466 -0.24895,-8.03799 0.50398,-11.67649 0.51465,-3.61087 -3.06462,-5.08802 -5.79123,-5.42703 -1.53631,-1.36296 -4.71323,-1.89831 -5.55683,-4.3558 -0.96519,-2.54085 -1.26407,-3.96251 -4.64068,-3.2966 z"
       style="fill:#000000;fill-opacity:1;stroke:#d39062;stroke-width:1.00714;stroke-miterlimit:4;stroke-dasharray:none;stroke-opacity:1"
       id="Rio_Ibanez" />
  </g>
</svg>
