<?xml version="1.0" encoding="UTF-8" standalone="no"?>
<!-- Created with Inkscape (http://www.inkscape.org/) -->

<svg
   width="210mm"
   height="297mm"
   viewBox="0 0 210 297"
   version="1.1"
   id="svg1283"
   inkscape:version="1.1.2 (b8e25be833, 2022-02-05)"
   sodipodi:docname="vector.svg"
   xmlns:inkscape="http://www.inkscape.org/namespaces/inkscape"
   xmlns:sodipodi="http://sodipodi.sourceforge.net/DTD/sodipodi-0.dtd"
   xmlns="http://www.w3.org/2000/svg"
   xmlns:svg="http://www.w3.org/2000/svg">
  <sodipodi:namedview
     id="namedview1285"
     pagecolor="#ffffff"
     bordercolor="#666666"
     borderopacity="1.0"
     inkscape:pageshadow="2"
     inkscape:pageopacity="0.0"
     inkscape:pagecheckerboard="0"
     inkscape:document-units="mm"
     showgrid="false"
     inkscape:zoom="0.74029882"
     inkscape:cx="361.34057"
     inkscape:cy="561.93525"
     inkscape:window-width="1920"
     inkscape:window-height="1017"
     inkscape:window-x="-8"
     inkscape:window-y="-8"
     inkscape:window-maximized="1"
     inkscape:current-layer="layer1" />
  <defs
     id="defs1280" />
  <g
     inkscape:label="Capa 1"
     inkscape:groupmode="layer"
     id="layer1">
    <path
       d="m 136.50412,104.09908 -1.64964,0.42574 -2.87372,0.79822 h -2.02219 l -0.85142,0.85143 h -0.3726 l -0.85148,0.79822 h -0.37259 l -0.42574,0.42574 h -1.22396 l -0.42574,-0.42574 h -2.02219 l -0.42574,0.42574 h -0.42574 l -0.37259,0.37259 h -0.85148 l -0.79823,0.85143 v 0.37259 l -0.42574,0.42574 v 0.79822 l -0.37259,0.85143 v 0.79828 l -0.42574,0.42574 -0.42574,-0.42574 h -1.22396 l -0.79828,0.79822 h -0.42574 l -0.37259,0.42574 h -0.42575 l -0.42574,0.42574 h -0.42574 l -0.37259,0.42574 -0.42574,0.37259 h -1.22396 l -0.42574,0.42574 h -0.3726 l -0.42574,0.42575 h -0.79822 l -0.42574,0.37259 h -0.42574 l -0.37259,0.42574 h -0.42574 l -0.79823,-0.42574 h -1.22401 l -0.85143,0.85148 h -1.6497 l -0.3726,-0.42574 h -0.42574 l -0.42574,-0.42574 h -1.22396 l -0.37259,0.42574 h -0.42574 l -0.79828,0.42574 h -0.42574 l -0.425735,-0.42574 v -0.79822 h -4.47017 l -0.42574,0.37259 h -0.42574 l -0.79828,0.85148 h -0.42574 l -0.79822,0.79817 h -0.42574 v 0.42574 h -2.02218 l -0.42574,0.37259 h -0.79822 l -0.42574,-0.37259 h -0.3726 l -0.42574,0.37259 h -0.42574 v 0.85148 l -0.37259,0.3726 v 1.22396 l -0.42574,0.42574 h -0.42574 l -0.3726,0.42574 v 0.37259 l -0.42574,0.42575 v 0.42574 l -0.42574,0.37259 v 0.42574 l -1.64964,1.6497 -0.3726,0.42574 h -0.42574 l -0.42574,0.3726 h -0.37259 l -0.42574,0.42574 h -0.42574 l -0.3726,0.42574 -0.42574,0.37259 h -0.79822 l -0.42574,0.42574 h -0.79822 v 0.42574 h -0.42574 l -0.42574,0.3726 h -0.79822 l -11.44146,-3.24609 -7.76951,-2.07539 v 0.42574 h -0.42574 l -0.3726,0.42574 h -0.42574 -0.42574 l -0.37259,0.42574 v 0.79822 l -0.42574,0.42575 h -0.42574 v 0.37259 l -0.42574,0.42574 h -0.3726 l -0.42574,0.42574 h -2.02218 v 0.79822 l -0.42574,0.42574 h -0.79822 l -0.42574,-0.42574 -0.42574,0.42574 h -4.04443 l -0.42574,-0.42574 h -0.85148 l -0.37259,-0.42574 h -0.42574 l -0.42574,-0.37259 v 0.37259 h -0.79822 l -0.79828,0.42574 -0.85143,0.79822 v 0.42574 h -0.79827 v 1.64965 h -1.22397 l -0.42574,0.37259 h -0.37259 v 0.42574 l -0.42574,0.42574 v 0.79823 h -0.42574 l -0.3726,0.42574 v 0.37259 l -0.42574,0.42574 v 0.42574 h -0.79822 v 0.79822 l -0.42574,0.42574 -0.42574,0.42574 h -0.42574 l -0.37259,0.3726 h -0.42574 v 0.85142 l 0.42574,0.3726 v 0.42574 l -0.42574,0.42574 v 1.2239 h -0.42574 l -1.22397,-1.2239 -0.37259,0.37259 v 0.85143 l -0.42574,0.37259 h -0.42574 l -0.3726,-0.37259 h -0.85142 l -0.37259,-0.42574 h -2.87367 l -0.42574,0.42574 h -0.37259 l -0.42574,-0.42574 0.42574,-0.42575 -0.42574,-0.37259 v -0.42574 l -0.42574,-0.42574 0.42574,-0.37259 h 0.42574 l 0.37259,-0.42574 -0.79822,-0.79823 v -0.42574 l -0.42574,-0.42574 v -0.37259 h -0.42574 l -0.3726,-0.42574 v -1.22391 l 0.79828,-0.85142 v -0.3726 h -0.79828 l -0.42574,0.3726 h -0.42574 l -0.37259,0.42574 h -0.42574 l -0.42574,0.42574 h -0.3726 l -0.42574,0.37259 h -0.79822 v -0.37259 l -0.42574,-0.42574 h -2.02224 l 0.3726,0.42574 v 0.37259 l 0.85148,0.85143 v 0.42574 h -1.64971 v -0.42574 l -0.42574,-0.42574 v -0.42574 l 0.42574,-0.3726 v -0.42574 l -0.79827,-0.79822 0.37259,-0.42574 v -0.79822 h -0.37259 l -0.42574,-0.42574 h -0.42574 v -0.42574 l -0.79828,-0.79817 h -0.42574 v -0.79827 l 0.42574,-0.42575 h 0.42574 v -0.42574 l 0.37259,-0.37259 -0.37259,-0.42574 h -0.42574 v -0.42574 h -1.22391 l -0.42574,-0.37259 0.42574,-0.42575 v -0.42574 l -0.85148,-0.79822 v -0.42574 h -0.37259 l -0.42574,-0.42574 h -0.42574 l -0.3726,0.42574 h -1.22396 l -0.42574,-0.42574 v -0.37259 l 0.42574,-0.42574 v -0.42574 l -0.85142,-0.79822 v -0.42575 l -0.3726,-0.37259 h -0.42574 v 0.79822 l -0.42574,0.42574 v 1.59645 l -0.37259,0.42574 0.37259,0.42574 v 1.22396 h 0.42574 v 1.64964 l 0.42574,0.3726 v 1.6497 l 0.3726,0.42574 v 0.3726 l -0.3726,0.42574 v 0.79822 l 0.3726,0.42574 v 1.2239 h -0.79828 l -0.79822,0.79822 h -0.42574 v 0.85143 l -0.42574,0.42574 h -0.3726 v 0.79822 l 0.3726,0.42574 -0.3726,0.3726 h -0.42574 l -0.42574,0.42574 v 0.42574 l -0.37259,0.37259 v 0.42574 h -0.42574 l -1.22397,1.22396 v 1.64965 l -0.42574,0.37259 h -0.42574 l -0.37259,0.42574 v 2.44787 l 0.37259,0.42574 v 0.79822 l 0.85148,0.85143 v 0.37259 l 0.79823,0.85148 v 0.79817 h 0.42574 v 2.02218 l 0.42574,0.42574 v 1.22391 l -0.42574,0.42574 h -0.42574 l -0.42575,0.37259 v 0.42574 l -0.37259,0.42574 v 0.3726 h -0.85148 l -0.79822,0.42574 v 0.42574 l 0.42574,0.42574 h 0.37259 l 0.42574,0.37259 h 0.79822 l 0.42575,-0.37259 0.85148,0.79822 v 0.42574 l 0.37259,0.37259 h 0.42574 l 0.42574,0.42574 v 0.42574 l 0.3726,0.3726 h 0.42574 l 0.42574,0.42574 v 1.22396 l 0.37259,0.42574 h 0.42574 v 0.79822 l 0.42574,0.42574 v 0.3726 h 0.79822 v 0.42574 l 0.42574,0.42574 h 0.79822 l 0.42575,0.37259 h 0.79827 l 0.42574,0.42574 h 2.02224 v 0.42574 l 0.42574,0.3726 h 0.42575 l 0.37259,0.42574 -0.37259,0.42574 0.37259,0.42574 v 0.37259 l -0.79828,0.85143 v 0.79822 l 0.42574,0.42574 v 0.37259 h 0.3726 l 0.42574,0.42574 v 0.42574 l 0.42574,0.3726 v 1.22396 0.85142 l -0.42574,0.3726 v 2.44787 l 0.42574,0.42574 v 0.85148 l 0.37259,0.37259 h 0.42574 l 0.42574,0.42574 h 0.3726 l 0.85148,0.79822 v 0.42574 l -0.42574,0.42574 v 1.59645 h 0.42574 l 0.79822,0.85142 v 0.3726 h 0.42574 l 0.79822,0.85148 v 0.37259 h 0.42574 v 0.42574 l 0.37259,0.42574 h 1.22402 l 0.42574,0.3726 h 0.42574 l 0.3726,0.42574 h 0.85142 l 0.42574,0.42574 h 0.79822 l 0.42574,0.37259 h 0.3726 l 0.42574,-0.37259 h 0.42574 l 0.37259,-0.42574 h 0.42574 l 0.42574,-0.42574 h 0.3726 l 0.42574,-0.3726 h 0.42574 v -0.42574 l 0.79828,-0.79816 h 0.42574 l 0.37259,0.37259 v 0.42574 h 0.42574 v 0.79822 l 0.42574,0.42574 h 0.3726 l 0.42574,0.42574 v 1.22391 l 0.42574,0.42574 h 0.37259 l 0.42574,0.37259 0.85148,-0.79822 v -0.85142 l 0.3726,-0.3726 v -0.85148 l 0.42574,-0.37259 v -0.42574 l 0.42574,-0.42574 h 0.37259 l 0.42574,-0.3726 0.42574,-0.42574 10.2175,3.67178 4.04436,1.22396 -1.22396,5.32147 4.94911,1.64965 0.37259,-0.85143 v -0.79822 l 0.42574,-0.42574 v -0.37259 l 1.22402,-1.22391 h 0.42574 l 0.3726,-0.42574 0.42574,0.42574 h 0.42574 v -0.42574 l 0.79828,-0.79822 h 0.42574 v -0.42574 l 0.37259,-0.42574 h 0.85142 l 0.3726,0.42574 0.42574,-0.42574 v -0.37259 h 0.79822 v -0.42574 l 0.85148,-0.79823 v -0.85148 l 0.37259,-0.42574 v -0.37259 l 0.42575,-0.42574 v -0.79822 l 1.22396,-1.22391 h 1.6497 l 0.42574,-0.42574 h 0.79822 l 0.42574,-0.42574 h 0.3726 l 0.85142,-0.37259 h 0.79828 l 0.42574,-0.42574 0.37259,-0.42574 h 0.42574 l 0.42574,-0.3726 h 0.3726 l 0.85142,-0.85142 v -0.79822 l 0.3726,-0.42575 0.85148,-0.79822 0.42574,0.42574 h 1.22396 l 0.79828,-0.85142 h 0.42574 l 0.79822,-0.79822 h 0.42574 l 0.79822,-0.85143 h 0.42574 l 0.3726,-0.37259 0.42574,-0.42574 h 0.42574 l 0.37259,-0.42574 h 0.85143 l 0.37259,-0.3726 h 0.42574 l 1.22396,-1.22396 h 0.42574 l 0.42574,-0.42574 v -0.79822 l 0.3726,-0.42574 v -1.22396 l 0.42574,-0.42574 v -0.3726 l 0.42574,-0.42574 v -1.22396 h 0.37259 l 1.6497,-1.64964 v -1.64965 l 0.42575,-0.37259 v -0.85143 l -0.42575,-0.37259 -0.42574,-0.42574 v -2.02213 h 0.85143 l 0.37259,0.37259 h 0.42574 l 0.79822,0.85143 v -2.44787 l 0.85149,-0.85142 h 2.82046 v -0.3726 h 0.42574 l 0.42574,-0.42574 h 0.42574 l 0.37259,-0.42574 h 2.07545 l 0.37259,-0.37259 h 2.075435 l 0.79828,0.37259 0.42574,-0.37259 h 0.37259 v -1.27717 l 0.42575,-0.37259 0.42574,-0.42574 h 0.37259 l 0.42574,-0.42574 h 0.42574 l 0.37259,0.85148 v 0.37259 h 0.42575 l 0.42574,-0.37259 0.42574,0.37259 0.37259,-0.37259 0.42574,-0.42574 0.42574,-0.42574 h 0.3726 l 0.42574,0.42574 v 0.42574 h 2.02218 v -0.42574 h 0.42574 v -0.42574 l 0.42574,-0.3726 h 0.37259 l 0.85149,0.79822 v 0.42575 l 0.79822,0.37259 h 1.22396 l 0.79828,0.42574 h 0.85142 l 0.79828,0.85148 11.4414,2.44787 1.22402,-1.64965 5.32158,1.22391 -0.42574,0.79822 v 0.42574 h -0.79822 l -0.42574,0.42574 v 0.37259 l -0.37259,0.42574 h -0.42574 l -0.42574,0.79817 0.42574,0.42574 v 1.22396 l -0.79822,0.42574 h -0.42574 l -0.42575,0.3726 h -0.79827 l -0.42574,0.42574 v 0.79822 l -0.79828,0.42574 h 0.42574 l 0.37259,0.42574 h 1.64971 l 0.42574,0.42574 h 1.22396 l 1.22396,1.22396 h 0.37259 l 0.85148,-0.42574 h 1.22397 l 0.42574,-0.42574 h 1.22402 l 0.79822,-0.79828 h 0.79822 l 0.42574,-0.42574 h 0.42574 l 0.37259,-0.42574 h 0.42574 l 0.79828,-0.37259 v -0.42574 l 0.42574,-0.42574 v -0.3726 l 0.42574,-0.42574 h 0.3726 0.85148 l 0.79822,0.79822 h 0.42574 v 0.42574 l 1.22396,1.22397 v 0.42574 l 0.42574,0.42574 h 0.3726 l 0.85142,0.79822 h 0.37259 l 0.42575,-0.42574 h 2.87366 l 0.79822,0.85142 h 2.44792 l 0.42575,-0.42574 0.37259,-0.42574 h 0.42574 l 0.42574,-0.37259 h 0.42574 l 0.37259,0.37259 h 0.85149 l 0.37259,-0.37259 0.42574,0.37259 v 0.42574 l 0.42574,0.42574 0.37259,-0.42574 h 1.22397 v 0.42574 h 0.85142 l 0.3726,0.3726 h 1.22396 l 0.85148,0.85142 v 0.37259 l 0.37259,0.42575 h 1.6497 v 0.42574 h 0.42575 l 0.79822,0.79822 v 0.42574 l -0.3726,0.37259 h 0.79828 l 0.42574,0.85143 v 0.37259 l 0.3726,0.42574 0.85148,-0.42574 v -0.37259 l 0.37259,-0.42574 h 2.87366 l 0.42575,-0.42574 0.79822,-0.3726 0.42574,-0.42574 h 0.79827 l 0.42575,-0.42574 h 1.22396 l 0.42574,-0.37259 h 1.22396 l 0.37259,-0.42574 h 0.42574 l 0.42574,-0.42574 h 1.22397 l 0.37259,-0.3726 h 1.6497 l 0.42574,-0.42574 h 1.59645 v -0.42574 l 0.42574,-0.37259 h 0.79827 v 0.37259 l 0.42575,-0.37259 0.42574,0.37259 h 0.79822 l 0.42574,0.42574 h 0.79822 l 0.42574,-0.42574 v -0.37259 l 0.42574,-0.42574 0.79822,0.42574 h 3.2462 l 0.42574,-0.42574 h 0.42574 l 0.3726,0.42574 0.85148,-0.42574 v -0.42574 h 1.22396 l 0.42574,0.42574 0.3726,-0.42574 h 0.85148 l 0.37259,-0.3726 h 0.85148 v -0.42574 h 0.79822 l 0.42574,-0.42574 v -0.42574 l 0.3726,-0.37259 v -1.64965 l 1.2239,-1.22396 v -0.42574 l 0.42574,-0.3726 v -0.85142 l -0.42574,-0.37259 v -1.22397 l 1.64971,-1.64964 h 0.42574 l 0.37259,-0.42574 h 0.42574 l 1.22402,-1.22397 h 0.42574 l 0.42574,-0.42574 h 0.37259 l 0.42575,-0.79822 h 0.42574 l 0.37259,-0.42574 v -0.37259 l -0.37259,-0.42574 v -0.42574 l -0.42574,-0.3726 -0.42575,-0.42574 v -0.42574 l -0.37259,-0.37259 v -0.42574 l -0.42574,-0.42574 -0.42574,-0.3726 v -0.42574 h -0.42574 l -0.79828,-0.42574 v -0.37259 l -0.42574,-0.42574 h -1.5965 l -0.42574,-0.42574 -0.79822,0.85148 v 0.37259 h -0.42574 l -0.42574,-0.37259 -0.79828,0.37259 h -0.42574 l -0.37259,-0.37259 h -0.85149 l -0.37259,-0.42574 h -0.42574 l -0.42574,-0.42574 h -0.37259 l -0.42574,-0.3726 -0.42575,-0.42574 v -0.42574 l -0.42574,-0.37259 h -0.37259 l -1.22402,-1.27711 h -3.29935 l -0.37259,-0.37259 h -2.87367 l -0.79822,-0.85143 -0.42574,-0.37259 -0.42574,-0.42574 -0.79822,-0.79822 h -0.42574 l -0.42574,-0.42575 h -4.04442 l -0.42574,-0.42574 -0.42574,0.42574 h -0.3726 l -0.85142,-0.79822 h -0.3726 l -0.42574,0.3726 h -0.42574 l -0.37259,-0.3726 h -1.27717 l -0.37259,-0.42574 h -0.42574 l -0.42574,0.42574 -0.3726,-0.42574 h -2.44792 l -0.85148,0.79822 h -6.11981 l -0.42574,-0.37259 h -0.37259 l -0.42575,-0.42574 v -0.42574 h -0.79827 l -0.85143,-0.79822 h -0.37259 l -0.42574,0.42574 -0.42574,-0.85143 v -0.37259 h -0.3726 l -0.85142,-0.85142 h -1.5965 l -0.42574,-0.3726 -0.42574,-0.42574 h -0.3726 l -0.85148,0.42574 h -0.42574 l -0.37259,-0.42574 h -0.42574 l -0.42574,0.42574 h -0.3726 l -0.42574,0.3726 h -0.42574 l -0.79822,-0.3726 h -0.42574 l -0.37259,0.3726 h -0.42574 l -0.79828,-0.79823 h -3.67189 l -0.42574,-0.42574 -0.42574,-0.37259 h -2.02224 l -0.85148,-0.85143 h -0.79822 l -0.42574,0.42575 v 0.42574 h -1.22402 l 3.29941,-12.2926 2.02223,-8.14188 -1.22401,-0.42574 1.6497,-7.34366 -3.29941,-1.22396 -3.24614,0.37259 -2.87367,-1.22396 z"
       style="fill:#000000;fill-opacity:1;fill-rule:evenodd;stroke:#d38d5f;stroke-width:0.747969;stroke-linecap:butt;stroke-linejoin:miter;stroke-miterlimit:4;stroke-dasharray:none;stroke-opacity:1"
       id="Lautaro" />
  </g>
</svg>
