<?xml version="1.0" encoding="UTF-8" standalone="no"?>
<!-- Created with Inkscape (http://www.inkscape.org/) -->

<svg
   width="210mm"
   height="297mm"
   viewBox="0 0 210 297"
   version="1.1"
   id="svg57"
   inkscape:version="1.1.2 (b8e25be833, 2022-02-05)"
   sodipodi:docname="vector.svg"
   xmlns:inkscape="http://www.inkscape.org/namespaces/inkscape"
   xmlns:sodipodi="http://sodipodi.sourceforge.net/DTD/sodipodi-0.dtd"
   xmlns="http://www.w3.org/2000/svg"
   xmlns:svg="http://www.w3.org/2000/svg">
  <sodipodi:namedview
     id="namedview59"
     pagecolor="#ffffff"
     bordercolor="#666666"
     borderopacity="1.0"
     inkscape:pageshadow="2"
     inkscape:pageopacity="0.0"
     inkscape:pagecheckerboard="0"
     inkscape:document-units="mm"
     showgrid="false"
     inkscape:zoom="0.74029882"
     inkscape:cx="361.34057"
     inkscape:cy="453.87078"
     inkscape:window-width="1920"
     inkscape:window-height="1017"
     inkscape:window-x="-8"
     inkscape:window-y="-8"
     inkscape:window-maximized="1"
     inkscape:current-layer="layer1" />
  <defs
     id="defs54" />
  <g
     inkscape:label="Capa 1"
     inkscape:groupmode="layer"
     id="layer1">
    <path
       inkscape:connector-curvature="0"
       id="Quilleco"
       style="fill:#000000;fill-opacity:1;fill-rule:evenodd;stroke:#d39062;stroke-width:0.404371;stroke-linecap:butt;stroke-linejoin:miter;stroke-miterlimit:4;stroke-dasharray:none;stroke-opacity:1"
       d="m 37.155454,77.690409 -6.3183,10.18509 -6.36884,-5.231546 -1.743851,11.600387 -2.881143,1.718576 -4.043706,8.693974 v 4.04371 l -1.743851,-0.58129 -3.487699,11.57512 13.31897,1.74385 -0.58129,5.78756 3.4877,13.90024 0.58129,8.6687 h 6.36884 l -1.16257,3.4877 -3.4877,2.88114 2.32513,4.65027 -8.693971,-0.58128 -2.299859,6.36883 c 0.650933,0.32546 1.132717,0.60066 1.642756,0.80875 0.510043,0.20809 1.037399,0.35382 1.819674,0.35382 1.62592,0 2.94802,-0.29182 4.1448,-0.58129 1.19677,-0.28944 2.27403,-0.58128 3.3866,-0.58128 1.75725,0 3.59347,-0.38695 4.80191,-0.35382 0.60421,0.0167 1.07071,0.14171 1.26366,0.45492 0.19293,0.31317 0.12299,0.81543 -0.278,1.61748 -0.33552,0.67103 -1.32675,1.49005 -2.17349,2.37568 -0.42337,0.44282 -0.81162,0.91301 -1.06147,1.39002 -0.24984,0.47701 -0.35203,0.9676 -0.22744,1.46584 0.083,0.33193 0.49313,1.05595 0.60655,1.99659 0.0567,0.47031 0.0201,1.0005 -0.15165,1.54166 -0.17184,0.54116 -0.47843,1.11025 -1.0362,1.66803 -1.86127,1.86127 -2.77436,2.74907 -4.65027,4.62499 -0.3618,0.3618 -0.63316,0.81672 -0.85929,1.31421 -0.22615,0.49748 -0.40036,1.04949 -0.58128,1.59221 -0.1809,0.54271 -0.35516,1.06945 -0.58128,1.56693 -0.22615,0.49748 -0.49748,0.9524 -0.85929,1.31421 -0.78113,0.78112 -1.31359,1.21457 -1.71858,1.4153 -0.405,0.20074 -0.684663,0.17346 -0.985652,0.0505 -0.301013,-0.12291 -0.617622,-0.34091 -1.086748,-0.53074 -0.469125,-0.18984 -1.087182,-0.35382 -1.996581,-0.35382 -0.770503,0 -1.523353,0.18186 -2.22404,0.4802 -0.700686,0.29834 -1.346351,0.71392 -1.946034,1.21311 -0.599683,0.49919 -1.149992,1.06553 -1.617484,1.66803 -0.467492,0.60249 -0.858429,1.23666 -1.162563,1.84494 -0.478242,0.95648 -1.015412,2.11411 -1.743852,3.03278 -0.364224,0.45934 -0.788045,0.85257 -1.2636583,1.13729 -0.475614,0.28472 -0.997915,0.45492 -1.617485,0.45492 -0.958843,0 -1.662157,0.11706 -2.198763,0.30327 -0.53661,0.18621 -0.903195,0.46083 -1.238387,0.78347 -0.670385,0.64527 -1.160717,1.50868 -2.350407,2.40095 -0.586669,0.44001 -1.154868,0.88081 -1.56693696,1.28893 -0.41206,0.40813 -0.670551,0.78785 -0.707646,1.11202 -0.01838,0.1621 0.01379,0.2983 0.126379,0.42965 0.11276,0.13135 0.312168,0.25977 0.581284,0.35382 0.53824396,0.18813 1.39028496,0.27799 2.70423196,0.27799 1.344509,0 2.212142,0.0948 2.780048,0.25272 0.567906,0.15792 0.855505,0.38603 1.061472,0.6571 0.205968,0.27106 0.322571,0.59569 0.581284,0.93511 0.258692,0.33941 0.663955,0.69844 1.390026,1.06147 0.427572,0.21378 2.2034303,0.62172 3.7151573,1.06148 0.755859,0.21988 1.433308,0.44128 1.844942,0.6571 0.2058,0.10791 0.361509,0.20396 0.404373,0.30327 0.04287,0.0993 -0.0058,0.1923 -0.176931,0.27799 -0.816513,0.40826 -1.897772,1.12034 -2.881143,1.94604 -0.983372,0.8257 -1.890377,1.78415 -2.3504073,2.70422 -0.504959,1.00994 -1.071533,1.84155 -1.592208,2.72951 -0.02632,0.0453 -0.04959,0.10607 -0.07579,0.15165 2.2956523,1e-5 4.6039123,0 6.8995773,0 0.366773,1e-5 0.622632,-0.20099 0.884557,-0.50546 0.261951,-0.30448 0.532282,-0.70212 0.884562,-1.06147 0.352275,-0.35934 0.777471,-0.69464 1.415298,-0.85929 0.63783,-0.16465 1.48457,-0.17856 2.603141,0.1011 0.658962,0.16474 1.269804,0.081 1.844938,-0.17688 0.575146,-0.2579 1.106246,-0.68776 1.592216,-1.16257 0.97194,-0.94963 1.76716,-2.12097 2.35041,-2.70423 0.97211,-0.97211 1.80878,-1.82619 2.78004,-2.4515 0.48563,-0.31267 1.0055,-0.58446 1.59221,-0.7582 0.58672,-0.17371 1.24125,-0.25271 1.99658,-0.25271 2.22268,1e-5 3.15448,0.34458 3.94262,0.30326 0.39406,-0.0205 0.76183,-0.1448 1.21312,-0.45491 0.45128,-0.31012 1.00866,-0.80648 1.79439,-1.59221 0.88522,-0.88523 1.37188,-1.98903 2.12295,-2.75478 0.37554,-0.38286 0.80756,-0.69122 1.39002,-0.83401 0.58247,-0.1428 1.32488,-0.11105 2.27459,0.12638 0.91316,0.22827 1.76453,0.35511 2.57786,0.42964 0.81334,0.0745 1.58029,0.0859 2.29986,0.0251 1.43914,-0.12132 2.69048,-0.48595 3.79098,-1.0362 1.89131,-0.94567 4.72322,-2.59694 6.95012,-3.4877 0.55041,-0.22017 0.9265,-0.65343 1.26366,-1.11202 0.33715,-0.45858 0.64298,-0.93064 1.01093,-1.23838 0.18399,-0.15387 0.36911,-0.26011 0.60655,-0.30327 0.23743,-0.0432 0.51261,-0.0405 0.83402,0.0758 0.64279,0.23233 1.49199,0.83489 2.65368,1.99659 0.52329,0.52327 1.19244,0.93711 1.92076,1.26365 0.72833,0.32654 1.5213,0.58316 2.29986,0.80875 0.77857,0.2256 1.55001,0.41139 2.22404,0.63182 0.67403,0.22043 1.25333,0.47245 1.66803,0.78347 0.54448,0.40835 1.31332,0.56 2.1735,0.55601 0.86017,-0.004 1.7997,-0.17994 2.70422,-0.40437 1.80904,-0.44884 3.43268,-1.13505 3.79098,-1.31421 1.06701,-0.5335 1.91243,-1.20147 2.57787,-2.04713 0.66544,-0.84565 1.16763,-1.86523 1.49111,-3.15914 0.1596,-0.63831 0.22201,-1.10267 0.30327,-1.46585 0.0813,-0.36318 0.1753,-0.62513 0.3791,-0.83401 0.40759,-0.41774 1.25859,-0.66216 3.36133,-1.18784 0.64035,-0.16009 1.99174,-1.11192 3.23497,-2.19877 0.62161,-0.54342 1.2089,-1.11346 1.66802,-1.64275 0.45914,-0.5293 0.79675,-1.01348 0.88457,-1.36475 0.0765,-0.30511 0.21391,-0.52827 0.40442,-0.68238 0.19051,-0.15412 0.42848,-0.2376 0.70764,-0.278 0.558326,-0.0808 1.285226,0.0263 2.047136,0.17689 0.76191,0.15053 1.5618,0.34597 2.32514,0.42965 0.76333,0.0837 1.48455,0.0539 2.0471,-0.22744 0.68178,-0.34087 1.2292,-0.53892 1.74387,-0.65711 0.51462,-0.11819 0.97949,-0.13924 1.46584,-0.12638 0.97272,0.0259 2.04806,0.20217 3.74042,0.20217 0.70613,0 1.3791,0.11518 2.04714,0.27799 0.66803,0.16281 1.31042,0.38946 1.99659,0.60656 0.68617,0.21708 1.41303,0.41846 2.17348,0.58128 0.76045,0.16281 1.56059,0.278 2.45151,0.278 1.81749,-1e-5 3.3203,0.18039 4.70078,0.48019 1.38053,0.2998 2.64934,0.72612 3.99318,1.26366 0.80942,0.32378 1.56573,0.71848 2.27458,1.18784 0.70886,0.46935 1.35538,1.00257 1.94604,1.56693 1.18129,1.12873 2.12682,2.40871 2.72951,3.61407 0.31626,0.63214 0.81673,1.10301 1.46584,1.49112 0.64911,0.38812 1.44754,0.67854 2.27458,0.90983 1.65409,0.46258 3.49338,0.70275 4.92826,1.06147 1.24066,0.31016 2.15272,0.48614 2.88117,0.55601 0.72845,0.0699 1.27737,0.0466 1.7691,-0.0505 0.98347,-0.19423 1.77308,-0.66441 3.46243,-1.08674 0.96032,-0.2401 1.61002,-0.56995 2.12297,-0.90984 0.51291,-0.33991 0.88641,-0.67606 1.28891,-0.90983 0.40232,-0.2338 0.83682,-0.35629 1.46583,-0.278 0.62906,0.0783 1.46116,0.3641 2.65368,0.96038 0.71517,0.35759 1.58892,0.56106 2.55262,0.68238 0.96366,0.12132 2.01953,0.14338 3.08333,0.12638 2.12757,-0.0338 4.30188,-0.25272 5.93918,-0.25272 1.00899,0 1.77721,0.17301 2.42624,0.40437 0.64902,0.23137 1.1761,0.54048 1.66804,0.78347 0.4919,0.24299 0.95347,0.42008 1.49111,0.45492 0.53761,0.0347 1.15986,-0.0871 1.94604,-0.48019 0.84209,-0.42106 1.5105,-0.67311 2.07238,-0.7582 0.56187,-0.0851 1.01321,0.007 1.41528,0.25272 0.40233,0.24507 0.74926,0.64368 1.11206,1.21311 0.36264,0.56944 0.74382,1.31079 1.1878,2.19877 0.27407,0.54802 0.77871,1.00729 1.4406,1.4153 0.6619,0.40801 1.4747,0.75166 2.29986,1.06147 1.65025,0.61962 3.39157,1.08925 4.34696,1.56694 1.37246,0.68623 2.91425,1.12741 4.49866,1.39002 1.5844,0.26262 3.22437,0.35382 4.77661,0.35382 0.32461,0 0.69573,-0.21737 1.11201,-0.53074 0.41653,-0.31338 0.8758,-0.73451 1.3395,-1.18784 0.92736,-0.90664 1.90347,-1.92475 2.75479,-2.3504 0.45045,-0.22523 0.641,-0.57717 0.65709,-1.0362 0.0167,-0.45903 -0.15041,-1.02564 -0.40442,-1.59221 -0.50832,-1.13315 -1.39218,-2.35331 -1.99659,-3.15915 -0.0468,-0.0627 -0.13076,-1.37014 -0.30331,-2.88114 -0.17254,-1.511 -0.4393,-3.20374 -0.8593,-4.04371 -0.34592,-0.69169 -0.33882,-1.73552 -0.32838,-2.88114 0.008,-1.14562 0.0209,-2.39408 -0.25276,-3.4877 -0.14246,-0.56935 -0.0856,-1.22594 0.0506,-1.92076 0.13619,-0.69482 0.35386,-1.43648 0.60654,-2.19877 0.25275,-0.76229 0.52561,-1.55339 0.73291,-2.32513 0.20722,-0.77174 0.35387,-1.52612 0.35387,-2.24931 0,-1.92327 0.0744,-3.20247 0.25276,-4.44808 0.0723,-0.50482 0.26738,-1.18544 0.37893,-1.71858 -0.51659,-0.17079 -1.08695,-0.33698 -1.46588,-0.53073 -0.60036,-0.30699 -1.07617,-0.64337 -1.46584,-1.01093 -0.77929,-0.73512 -1.29935,-1.57734 -2.27458,-2.55259 -0.74947,-0.74946 -1.33403,-1.26322 -1.81966,-1.56694 -0.48567,-0.30373 -0.87192,-0.40834 -1.26367,-0.3791 -0.39188,0.0293 -0.77052,0.20547 -1.2384,0.45492 -0.46783,0.24946 -1.02996,0.57818 -1.74383,0.93511 -1.25322,0.62661 -1.82843,1.17261 -2.6284,1.56694 -0.39982,0.19715 -0.83946,0.34621 -1.46584,0.45491 -0.62642,0.10871 -1.42272,0.17693 -2.50207,0.17693 -1.747,0 -2.91721,-0.0708 -3.89207,0.10111 -0.48743,0.0859 -0.92736,0.23471 -1.36474,0.48019 -0.43737,0.24545 -0.88206,0.57878 -1.36477,1.06147 -0.62003,0.62006 -1.07939,1.0034 -1.49111,1.18784 -0.41194,0.18445 -0.77817,0.1763 -1.16257,0.0758 -0.76876,-0.20095 -1.66637,-0.82727 -3.41188,-1.26365 -0.7378,-0.18446 -1.29157,-0.50407 -1.7691,-0.93511 -0.47757,-0.43105 -0.87371,-0.96757 -1.26367,-1.54167 -0.3898,-0.57409 -0.78865,-1.18079 -1.26367,-1.79439 -0.47502,-0.6136 -1.03636,-1.21956 -1.76911,-1.76913 -0.59229,-0.44421 -1.50423,-0.82963 -2.50203,-1.16256 -0.99783,-0.33293 -2.06051,-0.62606 -3.00754,-0.93511 -0.94699,-0.30903 -1.75883,-0.61307 -2.19875,-0.98565 -0.21976,-0.18629 -0.34635,-0.388 -0.35387,-0.60656 -0.008,-0.21858 0.0919,-0.47117 0.35387,-0.73292 0.36932,-0.36911 0.77887,-0.75988 1.11201,-1.18784 0.33298,-0.42796 0.59108,-0.89454 0.68237,-1.36475 0.0915,-0.47021 0.002,-0.9447 -0.35387,-1.44057 -0.35637,-0.49587 -0.98672,-1.01146 -1.99654,-1.5164 -0.9551,-0.47752 -2.27822,-1.55862 -3.66464,-2.60313 -0.69318,-0.52225 -1.38474,-1.04714 -2.07237,-1.46584 -0.68768,-0.41872 -1.36482,-0.73293 -1.97132,-0.88457 -0.79863,-0.19965 -1.44206,-0.57879 -2.02186,-1.0362 -0.5798,-0.45741 -1.08967,-1.00538 -1.59222,-1.56693 -0.50255,-0.56156 -1.00013,-1.13066 -1.56694,-1.64276 -0.56681,-0.5121 -1.19875,-0.95464 -1.97131,-1.26366 -0.91829,-0.36732 -1.83646,-0.74468 -2.75475,-1.11202 -1.5171,0 -2.61115,-0.27825 -3.66463,-0.63183 -1.05344,-0.35357 -2.08111,-0.77229 -3.51298,-1.01093 -1.84443,-0.3074 -3.50366,-1.00561 -5.18098,-1.61748 -0.83866,-0.30594 -1.67983,-0.57323 -2.55262,-0.78347 -0.87275,-0.21023 -1.77203,-0.35382 -2.72947,-0.35382 -1.24244,0 -2.10646,-0.1456 -2.75478,-0.3791 -0.64832,-0.2335 -1.08603,-0.55545 -1.46584,-0.9351 -0.37976,-0.37965 -0.70037,-0.79996 -1.13729,-1.23839 -0.43696,-0.43842 -0.97477,-0.90439 -1.79442,-1.3142 -0.92201,-0.46102 -2.46919,-0.9455 -4.01842,-1.51639 -1.54926,-0.5709 -3.11006,-1.22672 -4.09428,-1.99658 -0.48396,-0.37856 -0.82909,-0.77643 -1.08674,-1.18784 -0.25777,-0.41144 -0.42292,-0.82545 -0.58126,-1.21312 -0.15834,-0.38766 -0.29412,-0.75414 -0.4802,-1.06147 -0.18592,-0.30732 -0.41737,-0.56252 -0.7582,-0.73292 -0.43157,-0.21579 -0.83628,-0.21558 -1.23839,-0.10111 -0.40191,0.11452 -0.81155,0.34601 -1.26363,0.60656 -0.45213,0.26057 -0.96015,0.56107 -1.54167,0.78347 -0.58155,0.22238 -1.2315,0.3791 -2.02186,0.3791 -0.79233,0 -1.39958,0.12195 -1.92076,0.32854 -0.52119,0.20664 -0.95945,0.48271 -1.39006,0.7582 -0.430556,0.27548 -0.869396,0.55157 -1.389996,0.75819 -0.52061,0.20664 -1.12961,0.35383 -1.92077,0.35383 -0.69778,0 -1.33251,0.19234 -1.92076,0.48019 -0.58825,0.28785 -1.12068,0.67046 -1.64276,1.01092 -0.52207,0.34045 -1.01713,0.65086 -1.51639,0.80874 -0.49926,0.15788 -0.99658,0.1588 -1.51639,-0.1011 -1.29199,-0.646 -2.7923,-1.18793 -4.24589,-1.64276 -1.45359,-0.45482 -2.86009,-0.82243 -4.01844,-1.11202 -2.91079,-0.7277 -5.93862,-1.47836 -8.82034,-2.19876 -0.92165,-0.23041 -1.65223,-0.54568 -2.24931,-0.90984 -0.59708,-0.36414 -1.07681,-0.78901 -1.51639,-1.26366 -0.87917,-0.9493 -1.6041,-2.08429 -2.85587,-3.33605 -1.24056,-1.24057 -2.6865,-2.27812 -3.51297,-3.31079 -0.41323,-0.51633 -0.65732,-1.02462 -0.6571,-1.56694 1e-4,-0.27118 0.06,-0.54661 0.20216,-0.83401 0.14222,-0.28739 0.34697,-0.59969 0.65711,-0.90983 0.13193,-0.13194 -0.7035,-0.75501 -1.64276,-1.59222 -0.46963,-0.41859 -0.96082,-0.91049 -1.36475,-1.39002 -0.40391,-0.47953 -0.71812,-0.95174 -0.83402,-1.4153 -0.249,-0.99603 -0.59121,-2.01001 -1.0362,-2.95696 -0.44498,-0.94695 -0.9926,-1.82661 -1.71857,-2.55259 -0.61488,-0.61488 -4.36532,-7.719212 -4.42281,-7.733592 -1.02987,-0.257481 -2.69884,-0.853103 -4.17007,-1.642756 -0.73563,-0.394806 -1.4122,-0.822943 -1.94604,-1.288935 -0.53383,-0.465988 -0.91223,-0.969948 -1.0362,-1.465841 -0.14689,-0.587576 -0.48533,-1.10971 -0.9351,-1.617484 -0.44979,-0.507779 -1.01793,-0.991615 -1.56694,-1.465846 -0.54902,-0.47423 -1.09709,-0.953625 -1.54166,-1.440569 -0.44458,-0.486944 -0.77336,-0.995755 -0.90984,-1.541665 -0.17927,-0.717088 -0.16716,-1.367227 -0.0506,-1.971309 0.1166,-0.604079 0.34045,-1.166278 0.50546,-1.6933 0.16498,-0.527026 0.28685,-1.005217 0.25272,-1.491121 -0.0343,-0.4859 -0.2269,-0.959855 -0.70765,-1.44057 -0.98483,-0.984829 -1.60113,-1.799078 -2.35041,-2.502045 -0.22877,-0.214616 -0.51501,-0.409721 -0.78347,-0.606556 z" />
  </g>
</svg>
