<?xml version="1.0" encoding="UTF-8" standalone="no"?>
<!-- Created with Inkscape (http://www.inkscape.org/) -->

<svg
   width="210mm"
   height="297mm"
   viewBox="0 0 210 297"
   version="1.1"
   id="svg64"
   inkscape:version="1.1.2 (b8e25be833, 2022-02-05)"
   sodipodi:docname="vector.svg"
   xmlns:inkscape="http://www.inkscape.org/namespaces/inkscape"
   xmlns:sodipodi="http://sodipodi.sourceforge.net/DTD/sodipodi-0.dtd"
   xmlns="http://www.w3.org/2000/svg"
   xmlns:svg="http://www.w3.org/2000/svg">
  <sodipodi:namedview
     id="namedview66"
     pagecolor="#ffffff"
     bordercolor="#666666"
     borderopacity="1.0"
     inkscape:pageshadow="2"
     inkscape:pageopacity="0.0"
     inkscape:pagecheckerboard="0"
     inkscape:document-units="mm"
     showgrid="false"
     inkscape:zoom="0.74029882"
     inkscape:cx="361.34057"
     inkscape:cy="561.93525"
     inkscape:window-width="1920"
     inkscape:window-height="1017"
     inkscape:window-x="-8"
     inkscape:window-y="-8"
     inkscape:window-maximized="1"
     inkscape:current-layer="layer1" />
  <defs
     id="defs61" />
  <g
     inkscape:label="Capa 1"
     inkscape:groupmode="layer"
     id="layer1">
    <path
       style="fill:#000000;fill-opacity:1;fill-rule:evenodd;stroke:#d39062;stroke-width:0.534021;stroke-linecap:butt;stroke-linejoin:miter;stroke-miterlimit:4;stroke-dasharray:none;stroke-opacity:1"
       d="m 62.60963,229.13905 c 0.54175,-0.18745 0.86228,-0.46597 1.5353,-0.60081 1.43486,-0.28703 2.46084,-0.59841 2.97048,-1.13478 0.25508,-0.26839 0.38183,-0.586 0.36745,-1.00127 -0.016,-0.41538 -0.19118,-0.91644 -0.50059,-1.53535 -0.20396,-0.40792 -1.08099,-0.90957 -1.93581,-1.30168 -0.85478,-0.39194 -1.68857,-0.67158 -1.73554,-0.73426 -0.61832,-0.82441 -0.87724,-1.33181 -1.36845,-1.63547 -0.491,-0.30354 -1.20854,-0.43401 -2.70347,-0.43401 -0.10118,0 0.16242,-0.65348 0.73426,-1.40185 0.28597,-0.37437 0.64548,-0.77031 1.06805,-1.10139 0.42283,-0.33123 0.93055,-0.59979 1.46857,-0.73426 1.47875,-0.36958 2.63238,-0.98923 3.70475,-1.66886 1.07241,-0.67956 2.03987,-1.42043 3.20415,-2.00254 1.28464,-0.64235 2.59984,-1.25018 3.83825,-1.90248 1.23847,-0.65225 2.40237,-1.34284 3.50456,-2.16945 0.72617,-0.54462 1.43641,-1.39055 1.8023,-2.23622 0.18266,-0.42283 0.28011,-0.8471 0.2668,-1.23489 -0.0107,-0.38769 -0.15444,-0.75546 -0.43402,-1.03472 -0.20875,-0.20875 -0.0703,-0.38609 0.2668,-0.56736 0.33763,-0.18107 0.89072,-0.35787 1.46858,-0.50059 1.1557,-0.28597 2.48944,-0.49738 2.77019,-0.56741 0.89413,-0.22367 2.623,-0.0783 3.67141,-0.10012 0.52401,-0.0106 0.87277,-0.0373 0.86782,-0.20023 -0.005,-0.16509 -0.38876,-0.44467 -1.30168,-0.90116 -0.30408,-0.15177 -0.42177,-0.28384 -0.43402,-0.36692 -0.0106,-0.0831 0.0815,-0.13845 0.30035,-0.16668 0.43828,-0.057 1.30136,-0.0106 2.30295,0.0666 2.00313,0.15177 4.6484,0.46703 6.00775,0.46703 1.35833,0 2.39997,0.0554 3.30427,-0.0666 0.90424,-0.12248 1.66913,-0.43401 2.40307,-1.16816 0.12887,-0.12888 -0.0213,-0.48248 0.13366,-0.73432 0.0783,-0.12621 0.24284,-0.2407 0.53403,-0.2668 0.29129,-0.0266 0.72638,0.0373 1.36845,0.20024 0.86047,0.21514 1.27798,0.74357 1.83571,1.06805 0.27904,0.16242 0.58445,0.2897 1.00127,0.2668 0.41697,-0.0213 0.93822,-0.18532 1.63541,-0.53403 1.07887,-0.53946 1.20982,-1.40594 2.46985,-2.03599 l 17.92311,14.2851 1.23495,13.45067 6.94224,7.74328 1.63547,4.90635 c 0,0.54372 0,1.05831 0,1.60203 0,0.42975 -0.18745,0.79768 -0.40047,1.13483 -0.21301,0.33709 -0.48407,0.66609 -0.63414,0.96788 -0.15018,0.30195 -0.18905,0.5777 0,0.90116 0.18905,0.32325 0.63063,0.69916 1.43518,1.10144 0.28225,0.14112 0.6326,0.11929 1.03466,0.0319 0.40207,-0.0857 0.86127,-0.25508 1.33507,-0.40046 0.47396,-0.14539 0.97102,-0.26254 1.46852,-0.30035 0.49739,-0.0373 0.99525,-0.003 1.46857,0.23378 0.86819,0.43402 1.93007,1.05863 2.60335,1.20156 0.33657,0.0714 0.56843,0.005 0.63415,-0.23378 0.0655,-0.23858 -0.0479,-0.66163 -0.40047,-1.36846 -0.24923,-0.49845 -0.25775,-0.91484 -0.10012,-1.30168 0.15763,-0.38662 0.47875,-0.74102 0.86777,-1.03466 0.77798,-0.58728 1.85434,-1.01059 2.50324,-1.33501 0.39301,-0.19651 1.40988,-2.27302 1.63546,-2.83703 l 17.92306,-36.31342 -2.43645,-3.6714 6.54177,-15.48666 c 0.67967,-0.54372 1.35626,-1.0917 2.03593,-1.63542 0.82256,-0.65805 1.13095,-1.48119 1.43519,-2.33634 0.30407,-0.85514 0.5868,-1.75491 1.40184,-2.56996 0.19438,-0.19437 -0.34508,-1.3323 -0.96793,-2.4699 -0.62302,-1.13755 -1.31947,-2.25395 -1.46858,-2.40306 -0.34827,-0.34828 -0.25561,-1.17829 -0.0666,-2.16945 0.18905,-0.99115 0.46703,-2.14872 0.46703,-3.13737 0,-0.61663 -0.22313,-1.00218 -0.50058,-1.30168 -0.27745,-0.29982 -0.59958,-0.51709 -0.80104,-0.73431 -0.2013,-0.21728 -0.29449,-0.43136 -0.0666,-0.80104 0.22739,-0.36958 0.75929,-0.87821 1.76892,-1.63542 0.93354,-0.70018 1.53466,-1.54227 2.0026,-2.33634 0.4681,-0.79406 0.81116,-1.56001 1.26829,-2.16949 0.46863,-0.62488 0.9281,-0.9502 1.36845,-1.10139 0.44041,-0.15124 0.87176,-0.11609 1.30168,0.0319 0.85973,0.29875 1.71162,1.00601 2.63669,1.46852 0.41325,0.20662 0.81904,0.18053 1.20156,0 0.38236,-0.18053 0.73649,-0.51123 1.10144,-0.90116 0.72984,-0.78027 1.42986,-1.78165 2.16944,-2.33633 0.54649,-0.41006 0.97236,-0.65556 1.30168,-0.73426 0.32911,-0.0788 0.58563,0.004 0.83443,0.16668 0.49739,0.32431 0.94094,1.02284 1.93582,1.76897 0.753,0.56476 1.34705,1.16578 2.0026,1.66881 0.65549,0.50325 1.39242,0.92384 2.50318,1.20156 1.51453,0.37863 2.23494,0.5499 2.57001,0.43402 0.33497,-0.1161 0.2668,-0.53813 0.2668,-1.26834 0,-0.5532 0.31047,-0.82676 0.76765,-0.96789 0.45692,-0.14112 1.077,-0.14751 1.76893,-0.10011 0.69192,0.0479 1.43161,0.15497 2.1361,0.16668 0.70449,0.0106 1.37426,-0.0532 1.86904,-0.30035 1.30455,-0.6523 2.30087,-1.27286 2.83703,-2.03599 0.26786,-0.38183 0.42603,-0.79997 0.43402,-1.26828 0.0106,-0.4681 -0.13687,-1.00761 -0.43402,-1.60208 -0.35467,-0.70897 -1.09633,-1.20279 -2.0026,-1.5353 -0.90627,-0.3323 -1.95622,-0.50059 -2.87037,-0.50059 -0.73899,0 -1.24144,-0.18479 -1.56868,-0.50058 -0.32698,-0.31579 -0.48621,-0.77095 -0.53403,-1.26834 -0.0953,-0.99472 0.23858,-2.22275 0.46703,-3.13738 0.0479,-0.18798 -2.91589,-3.10473 -3.6714,-3.6714 -0.43828,-0.32858 -0.88374,-0.30301 -1.33507,-0.10012 -0.45106,0.2029 -0.89727,0.6113 -1.36845,1.06806 -0.4713,0.45691 -0.9706,0.9683 -1.46852,1.40179 -0.49792,0.43348 -1.00373,0.76829 -1.53536,0.90115 -0.23271,0.058 -0.51602,-0.0863 -0.80098,-0.36691 -0.28491,-0.28065 -0.59016,-0.70348 -0.86782,-1.13478 -0.55528,-0.8626 -1.03344,-1.83331 -1.20156,-2.16944 -0.22313,-0.44627 -0.18106,-0.84705 -0.0666,-1.23495 0.1145,-0.38769 0.32751,-0.74534 0.46704,-1.10145 0.14005,-0.35626 0.21301,-0.71716 0.0666,-1.068 -0.14644,-0.35094 -0.52401,-0.69581 -1.26828,-1.06805 -1.03254,-0.51603 -1.70002,-0.9805 -2.03599,-1.63547 -0.33603,-0.65496 -0.33763,-1.5206 0,-2.87036 0.35413,-1.41724 1.5215,-2.81498 2.03599,-4.87291 0.14964,-0.59958 0.17254,-1.14985 0.13366,-1.63547 -0.0373,-0.48567 -0.14804,-0.92874 -0.30035,-1.30168 -0.30514,-0.74587 -0.76482,-1.26546 -1.06805,-1.56869 -0.35999,-0.35999 -0.58472,-0.71194 -0.73426,-1.10139 -0.14964,-0.38928 -0.20449,-0.80237 -0.20023,-1.23495 0.0106,-0.8651 0.25402,-1.81642 0.53402,-2.93709 0.1374,-0.54894 0.14166,-1.04978 0.0666,-1.46857 -0.0751,-0.41857 -0.23751,-0.76169 -0.43402,-1.10144 -0.39247,-0.67947 -0.93326,-1.26573 -1.26828,-1.93582 -0.50271,-1.00591 -0.88018,-1.51837 -1.20156,-2.03594 -0.32112,-0.51762 -0.58398,-1.03423 -0.83443,-2.03599 -0.18426,-0.73649 -0.70146,-1.33836 -1.26829,-1.86904 -0.56683,-0.53093 -1.16556,-0.99871 -1.56869,-1.40184 -0.30035,-0.30035 -5.19882,-0.74699 -5.30682,-0.80099 -1.03881,-0.51922 -2.14414,-0.95324 -3.27088,-1.23495 -0.66961,-0.16721 -1.11454,-0.11769 -1.43518,0 -0.32059,0.11769 -0.52136,0.31367 -0.73432,0.43402 -0.21301,0.12035 -0.42123,0.15923 -0.76765,0 -0.34668,-0.15923 -0.81387,-0.51336 -1.53529,-1.23495 -0.79966,-0.7996 -1.65438,-1.47326 -2.53658,-2.069331 -0.88225,-0.59601 -1.79741,-1.1156 -2.77025,-1.60207 -0.46437,-0.23219 -0.96468,-1.12275 -1.40184,-2.06933 -0.43721,-0.94653 -0.83438,-1.96916 -1.068,-2.43646 -0.51283,-1.02598 -2.2572,-3.31284 -2.43651,-3.6714 -0.62999,-1.25998 -1.03839,-1.43891 -1.63542,-2.03594 -0.40792,-0.67967 -0.79374,-1.35631 -1.20155,-2.03598 -0.2503,-0.41751 -0.27905,-0.84056 -0.13367,-1.26829 0.14538,-0.42763 0.46224,-0.86132 0.80104,-1.30168 0.67786,-0.8807 1.5329,-1.79278 1.76892,-2.73686 0.0575,-0.22899 0.0905,-3.23216 0.40047,-4.47244 0.18053,-0.72292 0.25402,-1.58094 0.20023,-2.43645 -0.0532,-0.85552 -0.22633,-1.72116 -0.60081,-2.46985 -0.74741,-1.49493 -1.16204,-2.32414 -2.03593,-4.07192 -0.41964,-0.83891 -1.03099,-1.3405 -1.63542,-1.83571 -0.60448,-0.49525 -1.21024,-0.98519 -1.63547,-1.8357 -0.29502,-0.58994 -0.39886,-1.06741 -0.43401,-1.50191 -0.0373,-0.43455 0.004,-0.8119 0.0319,-1.16817 0.0266,-0.35626 0.0373,-0.71269 -0.0666,-1.06805 -0.10331,-0.3552 -0.33603,-0.70316 -0.76765,-1.13483 -0.58158,-0.58153 -0.62152,-1.11801 -0.70092,-1.13478 -0.0793,-0.016 -0.16935,0.47182 -0.90116,1.93582 -0.17786,0.35573 -0.46756,0.41697 -0.80104,0.30035 -0.33336,-0.11663 -0.71503,-0.41751 -1.13477,-0.73426 -0.41964,-0.31686 -0.86442,-0.65518 -1.30168,-0.90116 -0.43721,-0.24603 -0.88241,-0.39674 -1.26834,-0.30035 -0.30621,0.0767 -0.93135,0.80738 -1.8357,1.50191 -0.45212,0.34721 -0.9903,0.67888 -1.56869,0.93455 -0.57833,0.25561 -1.21344,0.43401 -1.90243,0.43401 -0.97204,0 -1.66907,-0.0927 -2.16944,-0.23378 -0.50059,-0.14059 -0.78778,-0.34562 -0.90116,-0.60081 -0.11343,-0.25508 -0.0554,-0.55735 0.13367,-0.90115 0.18852,-0.34402 0.49472,-0.72851 0.90115,-1.13478 0.18746,-0.18799 0.19757,-0.39514 0.10012,-0.60081 -0.0975,-0.20609 -0.27905,-0.4223 -0.53403,-0.63414 -0.50963,-0.4239 -1.22669,-0.82618 -1.60207,-1.20151 -0.56545,-0.5655 -0.70695,-1.29859 -0.73426,-2.03599 -0.0213,-0.62865 0.004,-1.21498 -0.0666,-1.73558 -4.48065,7.0865 -1.89375,-0.34189 -30.67286,19.82559 -5.3073,8.15099 -14.42196,11.64698 -16.98852,16.28765 -2.55467,4.61921 6.80932,10.67211 1.7022,19.525141 -0.60368,6.35692 -9.62084,10.16045 -14.75233,14.61884 -2.01394,16.28008 -12.29203,7.05428 -13.98469,26.96806 -3.8926,3.09691 -11.07161,2.61954 -10.74719,8.77799 -2.12098,0.41219 -2.85716,1.20454 -3.73815,4.63929 -6.0112,3.02235 -2.73821,6.39623 -1.76895,20.45974 4.88969,9.02663 1.07871,15.43484 -5.54047,21.56107 -1.92098,1.77798 -4.82886,5.64855 -5.57385,8.21058 0.7323,1.34103 -1.83944,5.79159 -4.70606,3.63807 -3.90259,-2.93182 -12.17375,5.07319 -16.087399,15.05269 -4.1064107,1.03376 -9.0682387,3.54253 -11.84859972,6.87557 0.410318,0.27798 0.76702102,0.55037 1.33505502,0.83437 1.201905,0.60097 1.744548,0.712 2.369718,0.76765 0.625175,0.0554 1.33825,0.0676 2.937118,0.46704 1.111061,0.27798 1.887034,0.79656 2.703485,1.2015 0.4082407,0.20236 0.8151247,0.38289 1.3016757,0.46703 0.486577,0.0847 1.035999,0.10012 1.702195,-0.0319 0.576385,-0.11503 1.172771,-0.0666 1.73557,0.0666 0.562802,0.13313 1.096912,0.3536 1.602062,0.56736 0.50516,0.21408 0.965,0.40739 1.36843,0.53403 0.40345,0.12674 0.74364,0.16242 1.00129,0.0319 0.64623,-0.32325 1.11093,-1.37367 1.53531,-2.23622 0.21217,-0.43135 0.41959,-0.82719 0.63415,-1.03466 0.21456,-0.20769 0.44547,-0.22207 0.7009,0.0319 0.51795,0.51815 1.18046,1.21812 1.90246,1.80231 0.722,0.58419 1.49734,1.03466 2.16946,1.03466 1.09475,0 1.82791,-0.14005 2.33634,-0.3339 0.50841,-0.19384 0.78777,-0.42549 1.0013,-0.6008 0.21354,-0.17521 0.35733,-0.28864 0.56739,-0.23379 0.21003,0.0554 0.50335,0.26947 1.00129,0.76765 0.4027,0.4026 0.79352,0.72122 1.20155,0.93455 0.40803,0.21355 0.81191,0.311 1.20155,0.30035 0.38965,-0.0106 0.7539,-0.131 1.10142,-0.40047 0.34753,-0.26999 0.68623,-0.67158 0.96791,-1.23495 0.16786,-0.33549 0.12057,-0.77984 0,-1.23489 -0.12056,-0.45532 -0.31664,-0.94781 -0.50063,-1.40185 -0.18399,-0.45425 -0.34471,-0.86883 -0.36713,-1.2015 -0.0224,-0.33284 0.1031,-0.57653 0.46724,-0.66754 0.82252,-0.20556 3.41329,-1.37069 4.47243,-1.63547 0.8259,-0.20662 2.0442,-0.24549 3.10401,-0.46703 0.52992,-0.11077 1.01168,-0.25295 1.4018,-0.50058 0.39014,-0.24763 0.68288,-0.59543 0.80103,-1.06806 0.0552,-0.221 -0.12168,-0.81195 0.13351,-1.36845 0.1276,-0.27852 0.37528,-0.53941 0.80103,-0.73426 0.42577,-0.19491 1.01315,-0.3339 1.90246,-0.3339 0.8299,0 1.44181,0.0809 1.90245,0.23378 0.46064,0.15284 0.78681,0.37651 1.06804,0.60076 0.56248,0.44839 0.95185,0.95558 1.93583,1.20156 1.08277,0.27052 2.13062,0.46277 3.104,0.33389 0.48668,-0.0644 0.96703,-0.21887 1.4018,-0.46703 0.43477,-0.24869 0.83509,-0.61279 1.20153,-1.10144 0.62253,-0.82996 2.18542,-2.09702 3.47117,-2.93709 0.64287,-0.42017 1.21242,-0.74523 1.56869,-0.83443 0.1784,-0.0426 0.31739,-0.0106 0.36691,0.0666 0.0479,0.0799 0.016,0.23538 -0.10011,0.46704 -0.0213,0.0479 -0.20024,0.41804 -0.30035,0.6008 z"
       id="Constitucion"
       inkscape:label="#path2756" />
  </g>
</svg>
