<?xml version="1.0" encoding="UTF-8" standalone="no"?>
<!-- Created with Inkscape (http://www.inkscape.org/) -->

<svg
   width="210mm"
   height="297mm"
   viewBox="0 0 210 297"
   version="1.1"
   id="svg64"
   inkscape:version="1.1.2 (b8e25be833, 2022-02-05)"
   sodipodi:docname="vector.svg"
   xmlns:inkscape="http://www.inkscape.org/namespaces/inkscape"
   xmlns:sodipodi="http://sodipodi.sourceforge.net/DTD/sodipodi-0.dtd"
   xmlns="http://www.w3.org/2000/svg"
   xmlns:svg="http://www.w3.org/2000/svg">
  <sodipodi:namedview
     id="namedview66"
     pagecolor="#ffffff"
     bordercolor="#666666"
     borderopacity="1.0"
     inkscape:pageshadow="2"
     inkscape:pageopacity="0.0"
     inkscape:pagecheckerboard="0"
     inkscape:document-units="mm"
     showgrid="false"
     inkscape:zoom="0.74029882"
     inkscape:cx="361.34057"
     inkscape:cy="453.87078"
     inkscape:window-width="1920"
     inkscape:window-height="1017"
     inkscape:window-x="-8"
     inkscape:window-y="-8"
     inkscape:window-maximized="1"
     inkscape:current-layer="layer1" />
  <defs
     id="defs61" />
  <g
     inkscape:label="Capa 1"
     inkscape:groupmode="layer"
     id="layer1">
    <path
       style="fill:#000000;fill-opacity:1;fill-rule:evenodd;stroke:#d39062;stroke-width:2.10169;stroke-linecap:butt;stroke-linejoin:miter;stroke-miterlimit:4;stroke-dasharray:none;stroke-opacity:1"
       d="m 23.134286,188.61968 c 0.11598,-0.0953 6.42864,-5.59484 15.12217,-10.68146 4.38609,-2.56634 9.31273,-4.9063 14.28207,-6.48099 2.4846,-0.78799 5.0118,-1.42504 7.44105,-1.68018 2.42925,-0.25578 4.84132,-0.22719 7.08099,0.23989 4.47941,0.93414 8.05197,0.90554 10.92158,0.23988 2.86964,-0.66406 5.01449,-1.88734 6.60096,-3.24041 3.17291,-2.70631 4.08058,-5.8808 4.08058,-5.8808 0,0 3.6017,0.29232 7.80113,-0.36063 2.09968,-0.32727 4.296194,-0.90554 6.360994,-1.92023 2.06464,-1.01516 3.97422,-2.38762 5.28059,-4.44066 1.30589,-2.05305 1.89878,-2.79543 2.40033,-2.76048 0.50202,0.0318 0.86106,0.79433 1.56008,1.68034 0.7006,0.88648 1.81919,1.89878 3.72067,2.40033 1.90133,0.50202 4.65513,0.51949 8.76122,-0.60052 16.42435,-4.47943 35.76503,-10.44156 35.76503,-10.44156 0.0318,0.0159 5.95165,1.03899 12.0018,0.95955 3.025,-0.0318 6.07366,-0.30026 8.52118,-1.19944 1.22327,-0.4496 2.30135,-1.03105 3.12047,-1.80013 0.81976,-0.77051 1.3186,-1.72133 1.56008,-2.88059 0.35268,-1.69321 1.91197,-2.86168 4.08051,-3.48046 2.1687,-0.618 5.04054,-0.76733 7.80118,-0.60052 2.76048,0.1684 5.43327,0.65453 7.56098,1.32019 2.12787,0.66565 3.69033,1.52353 3.96073,2.40032 0.63229,2.04876 -9.36667,-6.81064 -20.40303,-15.60221 -5.5181,-4.3957 -11.36411,-8.80713 -16.20226,-11.76159 -2.41907,-1.47747 -4.5614,-2.5225 -6.36089,-3.12047 -1.79949,-0.59735 -3.20054,-0.74668 -4.08067,-0.1271 -14.24993,0.54492 -35.05934,-0.69266 -55.20786,0.60052 -10.074264,0.64659 -19.905064,1.98235 -28.804134,4.44066 -4.44951,1.22964 -8.6573,2.67549 -12.48177,4.56077 -0.23623,0.11121 -0.36651,0.36063 -0.60004,0.47978 0.38382,0.45118 0.68011,0.57192 1.08014,1.0803 -1.96962,0.20335 -3.05561,0.9389 -3.84057,1.92039 -0.78497,0.9818 -1.20851,2.19952 -1.56024,3.48047 -0.35173,1.28047 -0.65024,2.62004 -1.32019,3.72051 -0.66994,1.10095 -1.74077,1.96011 -3.48051,2.40033 -1.82692,2.35982 -3.94958,4.19426 -6.24087,5.76085 -2.2913,1.56643 -4.6799,2.89329 -7.08103,4.20061 -2.40109,1.30748 -4.80462,2.61862 -6.961,4.20062 -2.15632,1.58232 -4.08376,3.49047 -5.64077,5.88079 -9.54876,0.19382 -19.11881,0.15887 -28.6841235,0.1271 v 29.4043 l 9.7213635,7.56097 z"
       id="El_Olivar"
       inkscape:label="#path2002" />
  </g>
</svg>
