<?xml version="1.0" encoding="UTF-8" standalone="no"?>
<!-- Created with Inkscape (http://www.inkscape.org/) -->

<svg
   width="210mm"
   height="297mm"
   viewBox="0 0 210 297"
   version="1.1"
   id="svg64"
   inkscape:version="1.1.2 (b8e25be833, 2022-02-05)"
   sodipodi:docname="vector.svg"
   xmlns:inkscape="http://www.inkscape.org/namespaces/inkscape"
   xmlns:sodipodi="http://sodipodi.sourceforge.net/DTD/sodipodi-0.dtd"
   xmlns="http://www.w3.org/2000/svg"
   xmlns:svg="http://www.w3.org/2000/svg">
  <sodipodi:namedview
     id="namedview66"
     pagecolor="#ffffff"
     bordercolor="#666666"
     borderopacity="1.0"
     inkscape:pageshadow="2"
     inkscape:pageopacity="0.0"
     inkscape:pagecheckerboard="0"
     inkscape:document-units="mm"
     showgrid="false"
     inkscape:zoom="0.74029882"
     inkscape:cx="361.34057"
     inkscape:cy="669.99972"
     inkscape:window-width="1920"
     inkscape:window-height="1017"
     inkscape:window-x="-8"
     inkscape:window-y="-8"
     inkscape:window-maximized="1"
     inkscape:current-layer="layer1" />
  <defs
     id="defs61" />
  <g
     inkscape:label="Capa 1"
     inkscape:groupmode="layer"
     id="layer1">
    <path
       style="fill:#000000;fill-opacity:1;fill-rule:evenodd;stroke:#d38d5f;stroke-width:1.50913;stroke-linecap:butt;stroke-linejoin:miter;stroke-miterlimit:4;stroke-dasharray:none;stroke-opacity:1"
       d="m 141.3661,7.9989992 c -6.32516,-0.60511 -9.13764,-2.34318 -13.99498,-3.73856 -4.36785,0.2407 -8.97961,0.59359 -13.40772,1.57739 -6.20478,3.78134 -6.06413,1.31313 -11.83036,-0.39414 -2.0573,0 -4.302193,1.26739 -4.732153,2.76037 -0.50256,1.74502 -3.02844,4.8128798 -9.21498,7.2193198 -3.54954,3.80581 -4.62933,8.59959 -0.57216,15.4481 l -4.00506,6.29371 c -1.49675,7.77892 -0.097,16.28206 -13.159489,21.1696 0.14579,6.3386 -1.017789,13.98656 3.432905,16.02025 l -4.00506,9.15446 c 6.937804,22.519071 0.25844,30.247681 -10.870888,33.184811 2.899621,4.56944 13.760202,7.54666 2.860761,14.87595 -0.603401,8.96994 -5.156336,18.72985 1.1443,26.31901 -6.360036,8.0101 -8.887905,16.0202 -9.154433,24.03035 2.017052,10.05309 -0.417747,22.3321 -1.1443,33.75696 -1.074924,4.7073 -4.067232,8.45585 0.57215,16.02025 -6.76743,9.419 -4.647321,17.8505 2.2886,25.74686 -3.432905,6.75075 -3.847544,13.74643 -7.280461,13.15951 -3.883341,5.756 -2.103248,8.68029 0,11.44305 3.470026,3.62364 2.275812,7.24727 -1.873966,10.87085 l 67.513944,-55.49871 1.71646,-14.87596 -5.72152,-6.2937 2.2886,-2.2886 v -21.74175 c -0.11664,-8.57427 10.27716,-3.46849 18.30887,-12.01521 l 21.16963,0.57215 c 6.05425,8.84195 5.55105,1.29032 5.72151,-4.5772 -7.00788,-6.7702 -3.39475,-10.5058 0,-14.3038 8.7333,-6.67512 8.22456,-13.35024 1.71646,-20.02536 l -8.01013,-8.0101 -2.2886,-20.0253 -10.29874,-2.2886 -3.43291,-4.00511 h -9.15444 l 14.3038,-29.179761 z"
       id="Tocopilla"
       sodipodi:nodetypes="ccccsccccccccccccccccccccccccccccccccc"
       inkscape:label="#path1939" />
  </g>
</svg>
