<?xml version="1.0" encoding="UTF-8" standalone="no"?>
<!-- Created with Inkscape (http://www.inkscape.org/) -->

<svg
   width="210mm"
   height="297mm"
   viewBox="0 0 210 297"
   version="1.1"
   id="svg53"
   inkscape:version="1.1.2 (b8e25be833, 2022-02-05)"
   sodipodi:docname="vector.svg"
   xmlns:inkscape="http://www.inkscape.org/namespaces/inkscape"
   xmlns:sodipodi="http://sodipodi.sourceforge.net/DTD/sodipodi-0.dtd"
   xmlns="http://www.w3.org/2000/svg"
   xmlns:svg="http://www.w3.org/2000/svg">
  <sodipodi:namedview
     id="namedview55"
     pagecolor="#ffffff"
     bordercolor="#666666"
     borderopacity="1.0"
     inkscape:pageshadow="2"
     inkscape:pageopacity="0.0"
     inkscape:pagecheckerboard="0"
     inkscape:document-units="mm"
     showgrid="false"
     inkscape:zoom="0.74029882"
     inkscape:cx="149.26405"
     inkscape:cy="451.16916"
     inkscape:window-width="1920"
     inkscape:window-height="1017"
     inkscape:window-x="-8"
     inkscape:window-y="-8"
     inkscape:window-maximized="1"
     inkscape:current-layer="layer1" />
  <defs
     id="defs50" />
  <g
     inkscape:label="Capa 1"
     inkscape:groupmode="layer"
     id="layer1">
    <path
       d="m 119.68267,293.0584 54.54816,-33.68273 5.3518,-22.03972 c -3.36834,-1.2985 -4.46239,-5.23429 -7.55197,-6.86067 -1.96358,-1.90253 -1.23648,-4.78648 -2.41088,-7.06085 -0.68589,-2.95262 1.41322,-5.79782 0.17249,-8.68587 0.0445,-2.41835 1.88599,-4.68065 0.0592,-7.12322 -1.70449,-2.67643 2.01552,-5.96859 -0.1484,-8.40379 1.91744,-0.0577 2.845,1.60145 4.37374,-4.76291 2.55324,-3.63677 4.02572,-4.95046 6.00829,-6.0222 0.60801,0.19927 6.20866,-1.35822 7.25598,-4.46065 -1.14793,-1.11312 -4.40092,-1.71606 -5.02176,-3.24638 -0.88277,-2.17589 -1.58206,-2.63156 -3.82637,-2.45871 -4.13857,-0.39595 -2.69715,-5.36694 -6.82709,-5.42316 -7.34472,1.20847 -5.42008,-1.79533 -9.49553,-4.50527 -1.68274,-1.04494 -3.91632,-4.28038 -6.08509,-4.43537 l -3.84282,0.11302 -13.22379,-11.4154 V 135.97 l 1.46931,0.33906 c 0.43287,-0.0641 4.22296,-0.58909 5.69332,-0.79344 1.60412,-0.22334 3.51181,0.0452 4.80992,-1.08301 1.59463,0.99972 1.07319,-5.24709 0.22727,-7.72664 -0.60288,-1.61961 -1.49752,-0.77329 -2.8938,-2.71673 -1.50462,-1.10999 -2.07641,-2.11508 -1.59484,-3.86962 0.68634,-2.18577 -1.15292,-3.7108 -2.23334,-5.30908 -1.21246,-1.91608 1.96007,-3.09733 1.07762,-4.94907 -0.72469,-2.70378 -0.34025,-4.35724 1.6199,-6.05161 -1.5958,-2.11916 -0.27443,-5.341457 -1.94904,-6.697797 -1.7566,-0.17592 -5.33316,-0.0423 -6.26815,-2.00675 -0.44342,0.25784 -2.6422,1.95744 -4.02697,0.74121 l 2.59956,-9.26797 10.28516,-0.90419 8.25076,-3.39071 h 11.75447 l 7.23354,-19.21408 -4.63397,-5.08607 3.27769,-10.73727 -11.29506,-2.5628 c -0.23341,-1.88827 -5.49333,-10.49705 -8.80032,-11.16063 -1.56238,-3.42587 -5.74018,-1.24958 -7.16907,-3.5939 2.28112,-1.75071 1.56368,-1.77518 1.46523,-1.79093 l -20.76268,-4.11785 -4.65491,-6.10957 c -9.27488,-0.59518 -2.73668,-8.6620899 -11.47175,-13.8269249 0.11064,2.790785 -1.91979,4.688285 -3.53975,6.7225949 l 2.6827,5.3654 v 14.389 l -6.82868,9.99914 -10.974672,6.09703 0.48776,3.90211 4.87763,6.09703 0.73165,2.6827 c 5.649942,2.72952 2.542572,7.51958 2.176772,11.66456 l 1.4423,9.23071 c -2.107102,1.9056 -5.177532,1.64371 -5.913422,6.63456 v 4.90382 l 4.471122,2.45191 c -0.5511,4.39266 2.50878,3.89377 4.75958,14.422957 l -4.75958,3.60573 -0.721142,3.46152 -3.8942,3.74999 c -1.35449,6.47991 -8.80647,5.33795 -14.42298,6.49033 l -5.3365,-3.8942 -16.44219,-2.74036 h -9.519157 l -7.932635,3.74997 -12.836445,-0.4327 -3.173053,-3.17304 -3.749975,0.14422 0.865381,83.50902 3.461507,-1.73075 10.673003,0.28845 7.644177,-4.47112 h 3.173053 l 2.451902,2.16343 13.269137,1.00961 9.663395,-2.30766 12.40375,-0.14423 7.49995,-3.31729 5.62496,-0.86538 2.451902,-1.58653 h 2.01922 l 0.14422,2.16344 2.30768,2.88461 0.57692,5.3365 -1.58653,4.90379 0.72115,4.03844 -2.01922,2.16346 2.74037,3.60574 -1.4423,49.75926 6.63456,9.23073 3.02883,9.66339 z"
       style="fill:#000000;fill-opacity:1;fill-rule:evenodd;stroke:#d38d5f;stroke-width:0.650079px;stroke-linecap:butt;stroke-linejoin:miter;stroke-opacity:1"
       id="Pica" />
  </g>
</svg>
