<?xml version="1.0" encoding="UTF-8" standalone="no"?>
<!-- Created with Inkscape (http://www.inkscape.org/) -->

<svg
   width="210mm"
   height="297mm"
   viewBox="0 0 210 297"
   version="1.1"
   id="svg64"
   inkscape:version="1.1.2 (b8e25be833, 2022-02-05)"
   sodipodi:docname="vector.svg"
   xmlns:inkscape="http://www.inkscape.org/namespaces/inkscape"
   xmlns:sodipodi="http://sodipodi.sourceforge.net/DTD/sodipodi-0.dtd"
   xmlns="http://www.w3.org/2000/svg"
   xmlns:svg="http://www.w3.org/2000/svg">
  <sodipodi:namedview
     id="namedview66"
     pagecolor="#ffffff"
     bordercolor="#666666"
     borderopacity="1.0"
     inkscape:pageshadow="2"
     inkscape:pageopacity="0.0"
     inkscape:pagecheckerboard="0"
     inkscape:document-units="mm"
     showgrid="false"
     inkscape:zoom="0.74029882"
     inkscape:cx="361.34057"
     inkscape:cy="453.87078"
     inkscape:window-width="1920"
     inkscape:window-height="1017"
     inkscape:window-x="-8"
     inkscape:window-y="-8"
     inkscape:window-maximized="1"
     inkscape:current-layer="layer1" />
  <defs
     id="defs61" />
  <g
     inkscape:label="Capa 1"
     inkscape:groupmode="layer"
     id="layer1">
    <path
       style="fill:#000000;fill-opacity:1;fill-rule:evenodd;stroke:#d39062;stroke-width:0.915065;stroke-linecap:butt;stroke-linejoin:miter;stroke-miterlimit:4;stroke-dasharray:none;stroke-opacity:1"
       d="m 26.061608,214.97302 35.16755,3.60563 21.52906,-4.23266 v -6.63639 l 3.1875,-3.44882 c 0.16739,-1.56622 0.85045,-2.88523 1.6199,-4.23266 0.91097,-0.8041 1.42359,-1.8209 1.82892,-2.87402 0.40534,-1.05311 0.65504,-2.14531 1.04509,-3.23979 1.26997,-1.46198 2.74723,-2.79454 4.02363,-4.28495 1.144,-1.10285 2.07254,-2.35081 2.92631,-3.65778 0.8537,-1.30704 1.59645,-2.64929 2.35144,-4.02363 0.533992,-1.06771 0.834332,-2.39661 1.097382,-3.44889 1.76578,-0.24694 2.72544,-0.29743 3.34431,-0.78377 0.61907,-0.48626 0.87389,-1.44157 1.14961,-3.50111 0.22687,-1.3309 0.40948,-2.35974 0.83606,-3.1875 0.42608,-0.82783 1.09579,-1.42283 2.3515,-1.82893 0.84388,-0.71577 1.68056,-1.16517 2.50825,-1.46315 0.82762,-0.29813 1.67966,-0.47451 2.45595,-0.67925 0.77623,-0.20475 1.50501,-0.45307 2.1947,-0.88836 0.68963,-0.43508 1.31327,-1.04765 1.88115,-2.03795 0.14457,-0.36176 6.19447,0.78383 7.15897,0.78383 1.48972,0.0713 2.86717,0.13834 4.18037,-0.0553 1.31319,-0.19091 2.58641,-0.61354 3.81459,-1.51538 1.20183,-0.78633 2.48141,-0.95095 3.71015,-1.09732 1.22867,-0.14664 2.39149,-0.2919 3.44875,-1.04516 1.18987,-0.39012 2.42691,-0.30781 3.50112,-0.41779 0.53676,-0.0553 1.01763,-0.15563 1.46315,-0.36591 0.44546,-0.21027 0.83745,-0.52984 1.14961,-1.04516 0.23518,-0.94147 -0.27253,-3.97756 0,-5.06871 0.41156,-1.38818 0.95413,-2.42193 1.67212,-3.29202 0.71798,-0.87016 1.64092,-1.58828 2.87402,-2.29921 1.42746,-1.03652 2.5182,-2.39599 3.71014,-3.55334 0.59625,-0.57895 1.19042,-1.11253 1.88115,-1.51545 0.69101,-0.40257 1.46364,-0.69412 2.35151,-0.78377 0.94915,1.04918 1.86739,1.74447 2.87395,2.14241 1.0067,0.39773 2.10014,0.50702 3.50112,0.52293 1.48466,0.0208 2.59056,-0.33202 3.71007,-0.62738 1.11959,-0.29466 2.23365,-0.51531 3.71015,-0.15701 1.19519,0.83246 2.30869,1.45347 3.44882,1.82892 1.14007,0.3756 2.34425,0.52224 3.7623,0.31335 0.95137,-0.91997 1.84546,-1.65089 2.8218,-2.247 0.97634,-0.59624 2.03782,-1.09987 3.29208,-1.51538 1.00345,-0.48834 2.21109,-0.59486 3.29202,-0.83605 1.08092,-0.24141 2.04231,-0.57827 2.56054,-1.51545 -0.0553,-1.5701 -0.10376,-2.92071 0.10444,-4.18037 0.2082,-1.25966 0.64467,-2.45242 1.46316,-3.81459 1.23358,-0.0207 2.34597,-0.27461 3.3443,-0.73161 0.99841,-0.45722 1.89298,-1.12582 2.76951,-1.82886 1.75311,-1.40623 3.38449,-3.09447 5.33004,-4.33718 0.80396,-0.40187 1.76225,-0.54229 2.82172,-0.5748 0.0692,-0.002 0.14111,0.001 0.2089,0 -0.21512,-0.24348 -0.3417,-0.48696 -0.57481,-0.73154 3.12061,-2.08901 3.86426,-4.66587 0,-8.15177 l -0.78383,-8.9879 -7.05439,-0.47035 -4.5462,-4.70295 c -0.1086,-4.674096 5.18049,-12.261786 -4.44162,-11.861846 l -4.75524,-4.9642 c 0.0415,-2.9068 -1.22148,-5.01912 -2.97854,-6.84542 -0.60662,0.5084 -1.15776,1.07809 -1.35857,1.88122 -0.20128,1.23296 -0.0553,2.34106 0.2089,3.39653 0.26699,1.05547 0.66611,2.0417 1.04509,3.03083 0.37905,0.98906 0.75312,1.99687 0.88835,3.03076 0.13557,1.03388 0.0484,2.10215 -0.41779,3.29208 -1.46661,2.41438 -2.58488,4.8805 -3.13534,7.681406 -0.93712,0.96603 -1.88323,1.81177 -2.61269,2.8218 -0.72954,1.01002 -1.24458,2.14275 -1.35864,3.65785 0.0208,1.6798 0.0484,3.17332 -0.15702,4.54614 -0.20474,1.37289 -0.61492,2.6369 -1.51538,3.9714 -0.4662,1.95585 -1.07207,4.03525 -1.93344,5.95707 -0.86138,1.92182 -2.02579,3.70662 -3.50105,5.12094 -0.27322,0.27322 -1.39931,0.98574 -2.61276,1.51545 -1.21345,0.52984 -2.48756,0.8777 -3.03076,0.47035 -2.77566,-1.12339 -4.71318,-1.57458 -6.58416,-1.72441 -1.87092,-0.1501 -3.66685,-0.0207 -6.16604,0 -4.06388,0 -6.43939,-1.41093 -10.50327,-1.41093 -1.90017,0 -4.63184,0.5748 -5.95707,0.5748 -1.64044,0.7108 -3.43015,1.18254 -5.12094,1.88122 -0.8454,0.34931 -1.64044,0.73687 -2.40373,1.25413 -0.76329,0.51739 -1.47215,1.18661 -2.09018,1.98566 -0.3673,1.37241 -0.95801,1.83294 -1.6199,2.247 -0.66196,0.41433 -1.41937,0.76135 -2.09025,1.98566 -0.47036,2.08949 -0.43231,4.28897 -0.5748,6.42736 -0.0712,1.06916 -0.16394,2.12048 -0.41779,3.13527 -0.25455,1.01487 -0.63983,2.01016 -1.25413,2.92625 -0.44891,0 -1.76259,0.0623 -2.92631,0 -1.16365,-0.0623 -2.1947,-0.24348 -2.1947,-0.83606 -0.39219,-0.78785 -0.75513,-1.40644 -1.25412,-1.82893 -0.49872,-0.42263 -1.12851,-0.65781 -2.14241,-0.73154 -4.0728,-0.44684 -8.10943,-0.0955 -12.175392,-0.31334 -1.59658,-0.62461 -2.7852,-1.57812 -3.91918,-2.50825 -1.1339,-0.93006 -2.23938,-1.82436 -3.7623,-2.29922 -0.96015,0.23449 -1.80396,0.66819 -2.61276,1.2019 -0.80881,0.53331 -1.56394,1.16448 -2.35151,1.72441 -0.78743,0.56028 -1.61194,1.0451 -2.50818,1.35864 -0.89623,0.31334 -1.89574,0.4669 -3.03082,0.26147 -3.2133,0 -6.40156,0 -9.61486,0 -1.52389,0.30711 -3.0116,0.7195 -4.49391,0.99287 -1.48239,0.27322 -2.97902,0.42332 -4.59843,0.15701 -1.89236,0 -3.43188,-0.0207 -4.70295,-0.10445 -1.27107,-0.0858 -2.2658,-0.25662 -3.13534,-0.67925 -0.86947,-0.42263 -1.6116,-1.07829 -2.29922,-2.09018 -0.68755,-1.01182 -1.3125,-2.38014 -2.03789,-4.23259 -0.78611,-0.89527 -1.50998,-1.83681 -2.3515,-2.61276 -0.84153,-0.77595 -1.79587,-1.36604 -3.03076,-1.61996 -3.12296,-0.91817 -6.29753,-0.64951 -9.35367,-1.72435 -1.60993,-0.9773 -3.08305,-1.93053 -4.65065,-2.56054 -0.78384,-0.31472 -1.58573,-0.5748 -2.45599,-0.67925 -0.87028,-0.10444 -1.80033,-0.0851 -2.82176,0.10445 -1.09167,0.55267 -1.72297,1.48799 -2.40373,2.35151 -0.68077,0.86345 -1.42852,1.6874 -2.71726,1.93337 -1.41121,0 -2.78554,-0.10652 -4.07589,0.0553 -1.29033,0.1584 -2.47071,0.55336 -3.55332,1.61989 -1.2984702,0.34793 -2.4605102,0.71494 -3.5010902,1.25413 -0.44767,0.23172 -0.80267,0.71805 -1.20185,1.04509 0.48709,1.5391 0.9993,3.10345 1.09734,4.44169 0.0581,0.79511 0.002,1.50811 -0.26126,2.1424 -0.26347,0.63429 -0.74167,1.16234 -1.46313,1.56768 l -4.65069696,5.48678 -0.418064,3.91911 H 14.199728 l 8.20401,1.5676 c 3.1265,-1.481 4.68915,-1.93642 5.74806,-2.03789 1.05886,-0.10168 1.63055,0.17292 2.87402,0.10445 l -1.72441,10.86904 -3.34433,8.25629 3.50107,5.48671 -6.94989,28.47893 c 0.0907,0.13903 0.10977,0.33962 0.20903,0.47036 0.49561,0.65365 1.07641,1.24679 1.56765,1.82885 0.49125,0.58242 0.90164,1.14816 1.14962,1.82893 0.24797,0.68063 0.33865,1.4543 0.10451,2.40373 0.28367,0.17431 0.30235,0.47728 0.52258,0.67925 z"
       id="Codegua"
       inkscape:label="#path2099" />
  </g>
</svg>
