<?xml version="1.0" encoding="UTF-8" standalone="no"?>
<!-- Created with Inkscape (http://www.inkscape.org/) -->

<svg
   width="210mm"
   height="297mm"
   viewBox="0 0 210 297"
   version="1.1"
   id="svg64"
   inkscape:version="1.1.2 (b8e25be833, 2022-02-05)"
   sodipodi:docname="vector.svg"
   xmlns:inkscape="http://www.inkscape.org/namespaces/inkscape"
   xmlns:sodipodi="http://sodipodi.sourceforge.net/DTD/sodipodi-0.dtd"
   xmlns="http://www.w3.org/2000/svg"
   xmlns:svg="http://www.w3.org/2000/svg">
  <sodipodi:namedview
     id="namedview66"
     pagecolor="#ffffff"
     bordercolor="#666666"
     borderopacity="1.0"
     inkscape:pageshadow="2"
     inkscape:pageopacity="0.0"
     inkscape:pagecheckerboard="0"
     inkscape:document-units="mm"
     showgrid="false"
     inkscape:zoom="0.74029882"
     inkscape:cx="361.34057"
     inkscape:cy="345.8063"
     inkscape:window-width="1920"
     inkscape:window-height="1017"
     inkscape:window-x="-8"
     inkscape:window-y="-8"
     inkscape:window-maximized="1"
     inkscape:current-layer="layer1" />
  <defs
     id="defs61" />
  <g
     inkscape:label="Capa 1"
     inkscape:groupmode="layer"
     id="layer1">
    <path
       sodipodi:nodetypes="cccccccccccccccccccccssssssssssc"
       d="m 173.7244,72.233011 c 1.29686,-4.54096 -0.46765,-10.01051 -0.46765,-10.01051 L 150.31487,50.252841 H 98.446712 l 0.99808,-43.8886696 h -8.97735 L 75.505482,28.308611 h -17.95449 l -11.09217,14.64955 -25.70599,25.70578 22.35299,58.117549 -1.11716,29.05878 h 16.76458 l 5.58819,10.05879 -2.16071,63.32037 7.47827,-0.76209 c 16.09039,0.15155 24.71874,12.33425 27.62358,18.3141 1.37913,5.51783 -0.34425,27.12669 0,28.84444 l 8.699358,3.20491 c 5.19805,24.68777 22.67753,3.17092 35.40711,2.28932 20.451,9.50172 19.06278,2.97802 32.17276,-1.88575 3.49655,-6.46547 0.0173,-26.67853 11.70076,-31.05192 6.36675,-2.38328 4.53317,-13.59431 2.88427,-20.18968 -0.93962,-3.76133 -2.34452,-9.01524 -5.76854,-15.86327 -7.42501,-14.85003 -5.20346,-4.76505 -18.74754,-11.53708 -5.87679,-2.9384 -16.28827,-9.66995 -10.09495,-15.86328 3.59094,-3.59072 10.66804,-7.88855 5.76854,-14.42113 -12.71854,-16.95814 5.52043,-16.85616 4.32641,-21.63182 -1.71038,-6.8437 -12.25696,-19.2888 -2.88427,-21.63203 4.84039,-1.21026 12.58691,-6.42628 14.42135,-10.09473 3.6035,-7.20743 6.63673,-12.39032 4.32619,-21.631809 -1.3813,-5.52433 -7.06605,-18.53299 -5.76832,-23.07417 z"
       style="fill:#000000;fill-opacity:1;fill-rule:evenodd;stroke:#d38d5f;stroke-width:5.72834;stroke-linecap:butt;stroke-linejoin:miter;stroke-miterlimit:4;stroke-opacity:1"
       id="Rinconada" />
  </g>
</svg>
