<?xml version="1.0" encoding="UTF-8" standalone="no"?>
<!-- Created with Inkscape (http://www.inkscape.org/) -->

<svg
   width="210mm"
   height="297mm"
   viewBox="0 0 210 297"
   version="1.1"
   id="svg1283"
   inkscape:version="1.1.2 (b8e25be833, 2022-02-05)"
   sodipodi:docname="vector.svg"
   xmlns:inkscape="http://www.inkscape.org/namespaces/inkscape"
   xmlns:sodipodi="http://sodipodi.sourceforge.net/DTD/sodipodi-0.dtd"
   xmlns="http://www.w3.org/2000/svg"
   xmlns:svg="http://www.w3.org/2000/svg">
  <sodipodi:namedview
     id="namedview1285"
     pagecolor="#ffffff"
     bordercolor="#666666"
     borderopacity="1.0"
     inkscape:pageshadow="2"
     inkscape:pageopacity="0.0"
     inkscape:pagecheckerboard="0"
     inkscape:document-units="mm"
     showgrid="false"
     inkscape:zoom="0.52347032"
     inkscape:cx="155.69173"
     inkscape:cy="611.30496"
     inkscape:window-width="1920"
     inkscape:window-height="1017"
     inkscape:window-x="-8"
     inkscape:window-y="-8"
     inkscape:window-maximized="1"
     inkscape:current-layer="layer1" />
  <defs
     id="defs1280" />
  <g
     inkscape:label="Capa 1"
     inkscape:groupmode="layer"
     id="layer1">
    <path
       d="m 201.59334,182.06858 c -0.53966,-0.52917 -1.00745,-1.00745 -1.56155,-1.56154 -1.53162,-1.53162 -2.61215,-2.75469 -3.33129,-3.85176 -0.71955,-1.09706 -1.05609,-2.06877 -1.2492,-3.07106 -0.3864,-2.00456 -0.0484,-4.144 -0.0484,-7.80764 0,-0.66066 0.3509,-1.24138 0.83288,-1.76975 0.48239,-0.52836 1.10158,-1.02849 1.71763,-1.50951 0.6163,-0.48077 1.2117,-0.93888 1.61358,-1.4574 0.40172,-0.51869 0.62839,-1.07682 0.46867,-1.71772 -0.41785,-1.67085 -0.98098,-4.18555 -0.93694,-6.40227 0.0242,-1.10836 0.19118,-2.14234 0.62436,-2.96692 0.43318,-0.82457 1.09182,-1.45708 2.13412,-1.71771 2.02804,-0.50659 3.0763,-0.76553 3.43535,-0.98898 0.35896,-0.22344 0.0403,-0.41785 -0.57274,-0.62436 -0.61629,-0.2065 -1.5488,-0.42914 -2.44637,-0.88483 -0.8975,-0.45577 -1.75297,-1.11159 -2.23818,-2.08209 -0.0565,-0.1097 -2.70024,-2.27197 -5.04901,-4.47635 -1.17434,-1.10223 -2.30618,-2.19704 -2.96692,-3.07106 -0.32992,-0.43721 -0.50658,-0.85918 -0.57273,-1.14514 -0.0645,-0.28637 0.0242,-0.44851 0.31218,-0.5203 2.41274,-0.60339 3.10147,-1.14547 4.00792,-1.71764 0.90653,-0.57192 2.02812,-1.1837 5.2051,-1.97794 2.07136,-0.51788 4.56993,-0.35252 6.35032,-0.93695 0.89016,-0.29201 1.60825,-0.75262 1.97794,-1.61357 0.36946,-0.86088 0.39769,-2.10629 -0.0484,-3.90386 -0.19198,-0.76714 -1.82701,-3.3225 -3.85175,-5.2051 -1.01244,-0.9413 -2.0816,-1.7182 -3.17512,-2.02998 -0.54692,-0.15568 -1.09367,-0.16698 -1.61365,-0.0484 -0.5195,0.11536 -1.04786,0.37107 -1.50944,0.83281 -1.52113,1.52121 -2.71185,2.54664 -3.85183,3.01903 -1.13998,0.4727 -2.19591,0.38558 -3.48738,-0.26056 -0.67518,-0.33799 -1.51814,-0.83635 -2.29029,-1.50943 -0.77198,-0.67276 -1.50411,-1.49016 -2.082,-2.44646 -0.57838,-0.9563 -1.00027,-2.03973 -1.09312,-3.22715 -0.0928,-1.18749 0.15004,-2.48534 0.83281,-3.85183 1.12296,-2.24584 1.95084,-3.50771 3.22723,-4.37229 1.2763,-0.86451 2.99838,-1.33512 5.98587,-2.08201 2.17759,-0.5445 3.31362,-1.08811 3.85175,-1.66569 0.53804,-0.57757 0.47028,-1.21483 0.26055,-1.873805 -0.20973,-0.65905 -0.55741,-1.34536 -0.62436,-2.13412 -0.0645,-0.78892 0.17827,-1.68779 1.14514,-2.65458 0.73084,-0.73083 1.32584,-1.37351 1.71772,-2.02997 0.39204,-0.65663 0.57354,-1.32447 0.36461,-1.92592 -0.20892,-0.60177 -0.80102,-1.15192 -1.87388,-1.71771 -1.07247,-0.56548 -2.64288,-1.11619 -4.84073,-1.66561 -2.50655,-0.62678 -4.64672,-1.7699 -6.71461,-2.86286 -2.06789,-1.09295 -4.07028,-2.12363 -6.19407,-2.65457 -3.30338,-0.82587 -6.51544,-1.78338 -9.8377,-2.49849 -3.32233,-0.71552 -6.72824,-1.19718 -10.41027,-1.19718 -2.85423,0 -5.61964,0.21861 -8.11998,0 -1.2501,-0.1097 -2.42597,-0.29201 -3.5395,-0.72842 -1.11352,-0.4364 -2.17824,-1.08512 -3.123,-2.02997 -2.46034,-2.46025 -3.5424,-4.23565 -4.52847,-5.98587 -0.98607,-1.75022 -1.85816,-3.46649 -3.74769,-5.98587 -0.71551,-0.95437 -1.66101,-1.95834 -2.81075,-2.91489 -1.14982,-0.95654 -2.48703,-1.90849 -3.90386,-2.70669 -1.41691,-0.7986 -2.95942,-1.44651 -4.47644,-1.92583 -1.51693,-0.47916 -3.0262,-0.78085 -4.47635,-0.78085 -1.38093,0 -2.31545,0.37268 -3.01903,0.88483 -0.70341,0.51223 -1.14829,1.16983 -1.6656,1.71771 -0.51708,0.54773 -1.1036,0.98559 -1.92592,1.09304 -0.82231,0.10728 -1.92099,-0.12746 -3.53949,-0.93687 -2.98822,-1.4941 -5.04554,-2.41895 -7.28718,-2.96692 -2.24157,-0.54772 -4.66802,-0.72841 -8.38022,-0.72841 -1.08319,0 -2.24777,-0.1928 -3.43535,-0.57274 -1.18765,-0.37994 -2.37757,-0.93525 -3.53949,-1.56154 -2.32384,-1.25259 -4.44142,-2.82777 -5.88181,-4.26816 -0.80876,-0.80876 -1.58736,-1.41102 -2.39434,-1.82185 -0.80699,-0.41059 -1.68142,-0.63727 -2.60255,-0.78085 -1.84219,-0.28718 -4.03269,-0.20812 -7.02695,-0.20812 -1.77515,0 -2.8698,0.22667 -3.64356,0.57273 -0.77359,0.34525 -1.19781,0.84054 -1.61357,1.30131 -0.41543,0.46061 -0.8082,0.90363 -1.50952,1.24921 -0.70099,0.34525 -1.70093,0.57273 -3.33129,0.57273 -1.67657,0 -4.54725,-0.35009 -7.2871,-0.41624 -1.36996,-0.0323 -2.70652,0.008 -3.85183,0.20812 -1.1453,0.19763 -2.1129,0.55176 -2.70661,1.14514 -0.72438,0.72439 -1.57905,1.3114 -2.49849,1.76975 -0.91943,0.45819 -1.92204,0.77359 -2.96691,0.98897 -1.01987,0.20974 -2.10145,8e-5 -3.17512,0 1.37722,1.09408 2.71072,2.12525 4.58049,3.64355 1.36077,1.10497 2.67071,2.23963 3.69566,3.27926 1.02487,1.03955 1.74232,2.02457 1.92584,2.75872 0.80344,3.21449 1.75385,4.8767 2.13411,6.4543 0.19038,0.78892 0.21861,1.53839 0.0484,2.44646 -0.16617,0.90806 -0.55982,2.00368 -1.24928,3.38332 -0.42915,0.85789 -1.1203,1.61793 -2.02998,2.34232 -0.90967,0.72438 -1.99996,1.36843 -3.12309,2.02997 -2.24624,1.3231 -4.64567,2.6157 -6.14204,4.11198 -0.86361,0.8637 -11.34713,6.10389 -11.34713,6.61056 0,2.98757 -0.19602,5.57454 -0.5203,8.01584 -0.32428,2.44138 -0.81385,4.764985 -1.40537,7.131095 -0.5558,2.22455 -0.3751,5.24761 -0.62436,7.85968 -0.12504,1.30607 -0.35655,2.49066 -0.83281,3.43543 -0.47593,0.94468 -1.17797,1.64777 -2.29028,1.92583 -2.29876,0.57435 -4.28163,0.46545 -5.88173,0.98898 -0.80021,0.26216 -1.5371,0.68243 -2.13412,1.40537 -0.59693,0.72277 -1.08246,1.77918 -1.45748,3.27926 -0.28153,1.12546 -1.50629,3.40203 -2.65458,5.56947 -1.14829,2.16743 -2.1796903,4.18966 -2.0299803,4.78869 0.8301403,3.32056 1.4985503,7.35172 1.9779503,10.09793 1.26977,0.16134 2.42306,0.30654 3.59152,0.57274 1.21928,0.27749 2.25189,0.69534 2.96692,1.2492 0.71471,0.55337 1.08561,1.28647 0.88483,2.29029 -0.24038,1.2004 -0.23635,2.20074 -0.10406,3.12309 0.1323,0.92234 0.38075,1.73062 0.6768,2.60254 0.29604,0.87193 0.63242,1.81371 0.88483,2.86278 0.25248,1.04915 0.41624,2.24165 0.41624,3.69566 0,2.45598 -0.71148,4.80403 -1.30124,7.02696 -0.29524,1.11142 -0.54369,2.19429 -0.67679,3.22715 -0.1331,1.03285 -0.13068,2.02618 0.10406,2.96691 0.36542,1.46297 0.80586,3.69123 1.04108,6.09001 0.23555,2.39871 0.25733,4.95987 -0.10406,7.13102 -0.41866,0 -0.72842,0.20812 -0.98897,0.57273 -0.26055,0.36461 -0.44125,0.88031 -0.57273,1.50943 -0.26298,1.25824 -0.33719,2.96934 -0.26056,4.68464 0.15408,3.43051 0.77198,6.93926 0.88492,7.39124 0.34444,1.37819 0.80182,2.24802 1.19717,2.86286 0.39527,0.61468 0.75827,0.98752 0.93686,1.35334 0.17828,0.36542 0.15004,0.72197 -0.15568,1.35327 -0.30654,0.63081 -0.91993,1.55622 -1.97803,2.96692 l -12.2840803,13.22102 -3.79972,-0.93695 v 17.95769 c 0.3146,1.25993 0.67437,2.48776 0.98897,3.74769 0.32993,1.31858 0.14843,2.2627 -0.26055,3.01895 -0.40898,0.75585 -1.06972,1.32866 -1.71771,1.92592 -0.64776,0.59693 -1.27809001,1.24041 -1.66561001,2.08208 -0.16053,0.34929 0.003,0.96453 -0.0484,1.40538 0.32347,-0.0403 0.59935001,-0.12262 0.93694001,-0.15569 1.03334,-0.10325 2.10314,-0.19763 3.07098,-0.41624 0.96784,-0.21861 1.84679,-0.59774 2.49849,-1.2492 1.45547,-1.45555 2.76066,-2.43114 4.1120603,-3.27926 1.35141,-0.84813 2.72888,-1.5726 4.3723,-2.39435 1.73046,-0.86523 3.00039,-1.72764 4.00792,-2.55052 1.00753,-0.82288 1.77999,-1.59042 2.60255,-2.18615 0.82255,-0.59532 1.68738,-1.01349 2.86286,-1.19717 1.17547,-0.18392 2.6703,-0.15327 4.73666,0.26055 1.55074,0.31057 2.70798,0.41947 3.64355,0.36462 0.93565,-0.0565 1.63753,-0.26701 2.23818,-0.62436 1.20137,-0.71471 1.99698,-1.94488 3.53949,-3.48746 1.2492,-1.24921 2.7976,-1.99739 4.4244,-2.65458 1.62673,-0.65743 3.35574,-1.23541 5.04893,-2.08209 2.57689,-1.28841 3.58571,-1.91502 4.73666,-2.02997 1.15104,-0.11536 2.46009,0.28959 5.67361,1.09311 2.51688,0.6292 5.10531,0.87201 7.54741,0.8328 2.44211,-0.0403 4.72174,-0.36058 6.61047,-0.8328 0.44206,-0.11051 1.84703,-1.95326 3.27926,-3.90386 1.43224,-1.95068 2.88779,-4.04124 3.33129,-4.63261 1.07093,-1.42788 2.56085,-2.32683 4.11199,-2.91481 1.55122,-0.58806 3.14358,-0.8328 4.37237,-0.8328 3.9425,0 9.05765,0.93686 14.20991,0.93686 1.49088,0 2.64934,-0.15972 3.59161,-0.46867 0.94218,-0.30815 1.66028,-0.77117 2.2902,-1.30131 1.25985,-1.06029 2.11113,-2.47542 3.53949,-3.90379 1.38594,-1.38601 2.26609,-3.02346 3.07098,-4.68463 0.80505,-1.66117 1.53856,-3.3179 2.60263,-4.73666 1.24574,-1.66101 2.34377,-2.87763 3.74769,-3.64356 1.40384,-0.76633 3.13753,-1.09311 5.72556,-1.09311 2.29956,0 5.30754,0.0645 7.91178,-0.36461 1.3022,-0.21619 2.50648,-0.54612 3.43543,-1.09304 0.92896,-0.54691 1.61761,-1.31744 1.87381,-2.34231 0.26781,-1.07222 0.726,-1.59801 1.35334,-1.82178 0.62759,-0.22344 1.42329,-0.15568 2.29029,0 0.86701,0.15569 1.82331,0.40334 2.81075,0.46868 0.98744,0.0645 1.97835,-0.0242 2.96692,-0.5203 1.59195,-0.79618 3.79294,-1.05577 6.14204,-1.09304 2.34909,-0.0403 4.83806,0.15569 7.07898,0.15569 3.0354,0 5.92343,-0.12826 8.48436,-0.41624 2.56084,-0.28879 4.82257,-0.77359 6.6625,-1.50952 3.20012,-1.28001 8.13127,-2.70951 12.28407,-3.74769 1.65803,-0.41462 2.79317,-1.3969 4.3723,-2.23817 0.78972,-0.42108 1.69133,-0.80344 2.81083,-1.09312 1.10553,-0.28556 2.45823,-0.46383 4.11198,-0.46867 z"
       style="fill:#000000;fill-opacity:1;fill-rule:evenodd;stroke:#d39062;stroke-width:0.832819;stroke-linecap:butt;stroke-linejoin:miter;stroke-miterlimit:4;stroke-dasharray:none;stroke-opacity:1"
       id="San_Nicolas"
       inkscape:connector-curvature="0" />
  </g>
</svg>
