<?xml version="1.0" encoding="UTF-8" standalone="no"?>
<!-- Created with Inkscape (http://www.inkscape.org/) -->

<svg
   width="210mm"
   height="297mm"
   viewBox="0 0 210 297"
   version="1.1"
   id="svg64"
   inkscape:version="1.1.2 (b8e25be833, 2022-02-05)"
   sodipodi:docname="vector.svg"
   xmlns:inkscape="http://www.inkscape.org/namespaces/inkscape"
   xmlns:sodipodi="http://sodipodi.sourceforge.net/DTD/sodipodi-0.dtd"
   xmlns="http://www.w3.org/2000/svg"
   xmlns:svg="http://www.w3.org/2000/svg">
  <sodipodi:namedview
     id="namedview66"
     pagecolor="#ffffff"
     bordercolor="#666666"
     borderopacity="1.0"
     inkscape:pageshadow="2"
     inkscape:pageopacity="0.0"
     inkscape:pagecheckerboard="0"
     inkscape:document-units="mm"
     showgrid="false"
     inkscape:zoom="0.74029882"
     inkscape:cx="361.34057"
     inkscape:cy="561.93525"
     inkscape:window-width="1920"
     inkscape:window-height="1017"
     inkscape:window-x="-8"
     inkscape:window-y="-8"
     inkscape:window-maximized="1"
     inkscape:current-layer="layer1" />
  <defs
     id="defs61" />
  <g
     inkscape:label="Capa 1"
     inkscape:groupmode="layer"
     id="layer1">
    <path
       style="fill:#000000;fill-opacity:1;fill-rule:evenodd;stroke:#d39062;stroke-width:0.794502;stroke-linecap:butt;stroke-linejoin:miter;stroke-miterlimit:4;stroke-dasharray:none;stroke-opacity:1"
       d="m 62.720216,51.015707 c -2.79671,0.0555 -5.66956,0.21312 -6.00842,0.2979 -1.51415,0.37871 -2.87847,1.11927 -3.8732,1.78765 -0.99472,0.66869 -1.63457,1.28905 -1.63861,1.29103 -1.71341,0.85679 -2.9173,0.69643 -4.17118,0.94354 -0.6267,0.1236 -1.28145,0.3494 -1.9862,0.84411 -0.70513,0.49518 -1.47247,1.26806 -2.38352,2.48281 -0.74397,0.99147 -1.90594,1.88414 -2.97942,2.78078 -1.07347,0.89672 -2.07295,1.76245 -2.53248,2.68143 -1.08829,2.17658 -1.36916,3.38388 -2.43312,5.51189 -0.98863,1.97725 -1.85531,2.91833 -2.58216,3.72425 -0.72653,0.80584 -1.30879,1.46138 -1.6883,2.97933 -0.12914,0.51658 0.17431,0.99472 0.64572,1.44007 0.47142,0.44527 1.12989,0.89695 1.58902,1.29104 0.45953,0.39456 0.76139,0.7297 0.59581,1.09249 -0.16559,0.36208 -0.83231,0.74158 -2.2345,1.09241 -1.12015,0.27968 -2.36254,1.07126 -3.47595,1.9366 -1.1134,0.86534 -2.09767,1.79977 -2.63183,2.33385 -1.62055,1.62055 -3.20331,3.43894 -4.86633,4.27045 -0.20679,0.10379 0.57362,0.9971 0.79451,2.03595 0.11092,0.51975 0.0792,1.08822 -0.2979,1.58894 -0.37476,0.50073 -1.07839,0.92762 -2.33386,1.24145 -1.32043,0.33038 -2.45594,1.23938 -3.37666,2.28417 -0.92073,1.0448 -1.64131,2.23989 -2.13523,3.227723 -0.26066,0.52053 -0.69405,0.9223 -1.29104,1.19168 -0.59739,0.26938 -1.36472,0.39773 -2.13522,0.49677 -1.54109,0.19728 -3.26369,0.14895 -4.51876,0.14895 -0.0792,0 -0.16955,0.0475 -0.24799,0.0475 l 2.73111,4.22077 5.46222,20.16049 -12.21547003,5.5119 2.48280003,6.70357 h 5.46222 l 27.50962,-10.97403 10.37823,1.19177 c -0.41041,0 -0.60214,0.22818 -0.64572,0.5958 -0.0396,0.36763 0.0475,0.90179 0.14895,1.43999 0.099,0.53797 0.23214,1.07649 0.24799,1.58902 0.0159,0.51261 -0.0555,1.0009 -0.34782,1.29104 -0.56411,0.56411 -0.69246,1.09011 -0.5958,1.58902 0.0967,0.49914 0.39615,0.94196 0.54589,1.39039 0.14974,0.44844 0.15529,0.87865 -0.24799,1.29104 -0.40327,0.41279 -1.21767,0.80101 -2.78078,1.19177 -1.52746,0.38188 -2.65711,0.86256 -3.67457,1.39039 -1.01746,0.52766 -1.90768,1.12767 -3.02909,1.68829 -0.90789,0.45399 -1.68568,1.22473 -2.38345,2.03595 -0.69801,0.81123 -1.31037,1.65795 -1.887,2.2345 l -0.64572,14.64868 h 4.27045 c 0.8144,0.8144 1.66841,1.61881 2.48281,2.43313 0.0158,0.0158 -0.14737,1.39847 -0.14895,3.07876 -6.4e-4,0.54906 0.20678,1.01413 0.24798,1.58894 1.44387,-0.0238 2.90335,-0.0713 4.17118,0.24799 0.48488,0.12122 1.53625,-0.50073 2.78078,-1.14209 1.24446,-0.64096 2.66733,-1.29104 3.9228,-1.29104 3.4612,0 6.9171,0 10.37822,0 1.33002,0 6.70334,0.59581 10.37815,0.59581 1.79842,0 3.24982,-0.0238 4.51875,-0.19887 1.26902,-0.17193 2.36024,-0.51024 3.42635,-1.04281 1.0093,-0.50469 1.84287,-1.42977 2.68143,-2.38353 0.83856,-0.95368 1.69685,-1.916 2.83038,-2.48281 1.96488,-0.98236 3.99244,-2.75099 5.51189,-4.27045 0.32484,-0.32484 0.99512,-0.19173 1.88692,0.19887 0.89181,0.3906 2.00664,1.02079 3.07869,1.73797 2.14418,1.43444 4.22101,3.11608 4.76706,3.52562 0.55064,0.41357 0.64017,0.68057 0.49677,0.89378 -0.1442,0.21313 -0.49756,0.37713 -0.89379,0.5958 -0.39614,0.21868 -0.83571,0.51262 -1.04281,0.94346 -0.20679,0.43101 -0.17589,1.03822 0.24799,1.887 0.31691,0.63304 0.93902,1.13425 1.73797,1.53935 0.79886,0.40486 1.749144,0.67028 2.780704,0.89378 2.06321,0.44685 4.36228,0.5958 5.85947,0.5958 1.13417,0 2.25811,0.21313 3.37667,0.54589 1.11848,0.33356 2.20621,0.79927 3.22764,1.34072 2.04284,1.08298 3.8499,2.45951 5.01528,3.62497 0.84862,0.84854 1.59924,1.14724 2.28426,1.09241 0.68454,-0.0555 1.2736,-0.49518 1.78756,-1.09241 1.028,-1.19422 1.73694,-3.07441 2.03595,-4.27045 0.0927,-0.37 0.68217,-0.39456 1.58902,-0.19887 0.90647,0.1957 2.11954,0.58551 3.32699,1.04274 2.41475,0.9147 4.92275,2.05005 5.46214,2.1849 0.46032,0.11488 1.16633,1.87599 1.78765,3.72425 0.62116,1.84817 1.13337,3.7885 1.24144,4.22077 0.0808,0.32484 0.0895,0.73366 0.74475,1.24144 0.65523,0.50786 1.97313,1.13876 4.76698,1.83725 0.96747,0.24164 1.33145,0.5546 1.44007,0.94346 0.10855,0.38901 -0.0396,0.84379 -0.099,1.24144 -0.0555,0.39773 -0.0238,0.77486 0.44685,1.04281 0.47458,0.2678 1.38001,0.39694 3.07868,0.39694 0.8018,0 1.3576,0.15925 1.73798,0.44685 0.3803,0.2876 0.6164,0.73683 0.84418,1.24144 0.45557,1.00954 0.87477,2.36444 2.33385,3.82352 0.85576,0.85568 1.39975,1.53111 1.6883,2.08555 0.28839,0.55461 0.32167,1.01421 0.14895,1.39039 -0.34544,0.75268 -1.52587,1.25951 -3.07877,2.03596 -0.0317,0.0158 -2.20574,3.87953 -3.62489,6.356 0.95519,-0.57125 2.13927,-1.19581 2.43321,-1.48967 0.75981,-0.75981 1.32107,-1.19066 1.83724,-1.39039 0.51658,-0.19966 0.96462,-0.16322 1.44007,-0.0475 0.95091,0.22739 2.01623,0.84419 4.02215,0.84419 1.95696,0 3.06284,-0.0634 3.97255,-0.39694 0.90963,-0.33039 1.60819,-0.91304 2.73103,-2.03595 0.40723,-0.40724 0.83428,-0.83421 1.24144,-1.24137 0.40724,0.8144 0.8342,1.61873 1.24144,2.43313 0.91652,1.83313 1.37629,2.3657 1.68829,2.78079 0.31217,0.41516 0.46666,0.74237 0.74476,2.13522 0.21788,1.08766 1.4449,2.30803 2.78078,3.42627 1.33581,1.11831 2.77991,2.13443 3.32699,2.68143 1.73362,1.73353 3.77828,3.1328 5.51182,4.86633 0.87571,0.87572 1.56192,2.24789 2.23457,3.62497 0.67266,1.377 1.32662,2.77849 2.03588,3.72417 1.15603,1.54132 1.66761,1.76704 1.78764,2.03595 0.12043,0.26858 -0.18143,0.57599 -0.5958,2.2345 -0.14103,0.56332 -0.0159,1.07696 0.2979,1.53942 0.31296,0.4627 0.80877,0.88285 1.39031,1.24136 1.16317,0.71703 2.6976,1.20817 3.8236,1.48967 2.01124,0.5031 3.62933,1.23875 5.01529,2.08563 1.38587,0.8468 2.52939,1.78447 3.52561,2.7807 1.04757,1.04765 1.77902,2.31397 2.63176,3.52562 0.85282,1.21165 1.82679,2.4031 3.47594,3.22772 1.00272,0.50152 1.56818,0.52845 1.83732,0.2979 0.26938,-0.23056 0.22422,-0.76139 0.099,-1.3904 -0.24957,-1.25847 -0.90892,-2.96847 -0.69484,-3.82351 0.16797,-0.67187 0.0317,-1.27496 -0.2979,-1.83733 -0.32959,-0.56253 -0.86463,-1.07181 -1.43999,-1.58894 -1.15072,-1.03426 -2.55878,-2.03888 -3.17804,-3.27739 -1.02,-2.03999 -2.09569,-2.81581 -2.68143,-3.52554 -0.29315,-0.35495 -0.46349,-0.70831 -0.44685,-1.19176 0.0158,-0.4833 0.23531,-1.06651 0.69484,-1.98628 0.41199,-0.82454 0.39852,-1.78654 0.19886,-2.73111 -0.19966,-0.94457 -0.57124,-1.88644 -0.79451,-2.78078 -0.18698,-0.74872 -0.62432,-1.3549 -1.19176,-1.83725 -0.56728,-0.4825 -1.29049,-0.86114 -2.03595,-1.19176 -1.49094,-0.66077 -3.13019,-1.14352 -4.12143,-1.88692 -2.35881,-1.76903 -5.5988,-3.76149 -7.29953,-5.46222 -2.28505,-2.28505 -4.48327,-3.29149 -6.1077,-4.91601 -1.36005,-1.36005 -2.14877,-2.42932 -2.73111,-3.47594 -0.58233,-1.04662 -0.95328,-2.05544 -1.53934,-3.22764 -0.67979,-1.3587 -1.55234,-1.96432 -2.33385,-2.68143 -0.3906,-0.35891 -0.75347,-0.70514 -1.09249,-1.24144 -0.33831,-0.53638 -0.6584,-1.24445 -0.89379,-2.1849 -0.42229,-1.68972 -0.4413,-2.90502 -0.5958,-4.07182 -0.1545,-1.16681 -0.40011,-2.28981 -1.19177,-3.8732 0.20362,-1.01794 0.39219,-2.01107 0.59581,-3.02901 0.17192,-0.86098 -0.19966,-2.13198 -0.64572,-3.37667 -0.44606,-1.24461 -0.9719,-2.49754 -1.19169,-3.37666 -0.13865,-0.5554 -0.11012,-1.08497 0.0475,-1.58894 0.16004,-0.5039 0.43972,-0.95376 0.74475,-1.44007 0.61086,-0.97262 1.36211,-1.97257 1.63862,-3.07869 0.18461,-0.73762 0.18698,-1.35046 0.0475,-1.9366 -0.13707,-0.58629 -0.41991,-1.1287 -0.69484,-1.63869 -0.54985,-1.01984 -1.19169,-1.96386 -1.19169,-3.12837 0,-1.60003 -0.31216,-2.69569 -0.69484,-3.67456 -0.38267,-0.9788 -0.84125,-1.82568 -1.14208,-3.02901 -0.54035,-2.16042 -0.0792,-2.94075 -0.099,-3.6249 -0.0238,-0.68454 -0.50073,-1.3068 -2.92973,-3.12836 -2.44842,-1.83629 -6.8267,-4.34382 -7.94502,-5.46221 -0.66474,-0.66474 -0.69643,-1.65676 -0.99314,-2.83039 -0.14816,-0.58708 -0.33514,-1.23351 -0.74476,-1.887 -0.40961,-0.65364 -1.03037,-1.35624 -1.93659,-2.03587 -0.76219,-0.57124 -1.46273,-1.93374 -1.83725,-2.4332 -1.028,-0.7709 -2.43891,-2.35184 -3.72424,-4.02215 -1.28534,-1.67031 -2.42988,-3.41977 -2.97942,-4.51876 -0.5031,-1.0066 -0.3803,-1.77481 -0.49676,-2.68143 -0.0555,-0.45319 -0.15846,-0.93609 -0.44685,-1.48966 -0.2884,-0.55382 -0.75268,-1.19922 -1.48967,-1.9366 -2.52804,-2.52805 -3.80078,-5.04222 -6.10778,-7.34914 -0.95986,-0.95994 -1.07577,-1.87694 -1.48966,-2.88014 -0.20679,-0.50152 -0.47221,-1.05992 -0.99314,-1.58894 -0.52133,-0.52925 -1.29769,-1.07094 -2.43313,-1.63869 -1.98286,-0.9914 -4.41441,-1.1642 -6.20705,-1.6883 -0.89631,-0.26225 -1.60058,-0.60531 -2.03595,-1.19176 -0.43496,-0.5863 -0.59897,-1.37756 -0.2979,-2.58216 0.26146,-1.0467 0.0317,-2.061383 -0.5958,-3.128363 -0.63067,-1.0669 -1.67451,-2.22072 -3.07869,-3.62489 -0.83555,-0.83555 -1.64741,-2.29519 -2.38353,-3.82352 -0.73604,-1.52841 -1.39126,-3.13019 -1.88692,-4.1215 -0.68295,-1.36655 -1.50052,-2.24417 -2.28425,-3.27732 -0.78358,-1.03322 -1.52865,-2.19195 -1.9862,-4.02214 -0.17985,-0.71861 -0.66949,-1.09099 -1.34071,-1.29112 -0.67187,-0.19966 -1.54022,-0.25354 -2.43321,-0.24799 -0.89291,0.005 -1.78804,0.0555 -2.63176,-0.0475 -0.84379,-0.10299 -1.6112,-0.32008 -2.13522,-0.84418 -1.26299,-1.26299 -2.783084,-2.03096 -4.220854,-2.78079 -1.4377,-0.74951 -2.7979,-1.496 -3.72417,-2.73111 -0.89965,-1.19945 -1.81284,-2.40523 -2.88014,-3.32691 -0.534,-0.46111 -1.10334,-0.87144 -1.73797,-1.14216 -0.63462,-0.27097 -1.31053,-0.39694 -2.08555,-0.39694 -0.63304,0 -1.51518,-0.42942 -2.4828,-1.04282 -0.96763,-0.61323 -2.04649,-1.42731 -3.17804,-2.28417 -1.13147,-0.85694 -2.30113,-1.7512 -3.42626,-2.48288 -1.12514,-0.73129 -2.17984,-1.30222 -3.12837,-1.53935 -0.81748,-0.20441 -1.59108,-0.68929 -2.28417,-1.34071 -0.69326,-0.65127 -1.30443,-1.44776 -1.83733,-2.28418 -1.06571,-1.67284 -1.77616,-3.47982 -1.98619,-4.32013 -0.0792,-0.31691 -2.81446,-0.35574 -5.61125,-0.2979 z"
       id="Rio_Claro"
       inkscape:label="#path2876" />
  </g>
</svg>
