<?xml version="1.0" encoding="UTF-8" standalone="no"?>
<!-- Created with Inkscape (http://www.inkscape.org/) -->

<svg
   width="210mm"
   height="297mm"
   viewBox="0 0 210 297"
   version="1.1"
   id="svg64"
   inkscape:version="1.1.2 (b8e25be833, 2022-02-05)"
   sodipodi:docname="vector.svg"
   xmlns:inkscape="http://www.inkscape.org/namespaces/inkscape"
   xmlns:sodipodi="http://sodipodi.sourceforge.net/DTD/sodipodi-0.dtd"
   xmlns="http://www.w3.org/2000/svg"
   xmlns:svg="http://www.w3.org/2000/svg">
  <sodipodi:namedview
     id="namedview66"
     pagecolor="#ffffff"
     bordercolor="#666666"
     borderopacity="1.0"
     inkscape:pageshadow="2"
     inkscape:pageopacity="0.0"
     inkscape:pagecheckerboard="0"
     inkscape:document-units="mm"
     showgrid="false"
     inkscape:zoom="0.74029882"
     inkscape:cx="361.34057"
     inkscape:cy="561.93525"
     inkscape:window-width="1920"
     inkscape:window-height="1017"
     inkscape:window-x="-8"
     inkscape:window-y="-8"
     inkscape:window-maximized="1"
     inkscape:current-layer="layer1" />
  <defs
     id="defs61" />
  <g
     inkscape:label="Capa 1"
     inkscape:groupmode="layer"
     id="layer1">
    <path
       d="m 205.12594,204.40452 3.65222,-0.90247 c -6.95785,-10.41773 -7.8744,-26.84485 -3.30577,-37.07683 9.30709,-23.22068 -17.42028,-35.29062 -13.61193,-54.97487 L 142.45292,61.779183 V 20.260341 L 65.3465,83.52715 17.237362,76.936853 0.75297052,96.0487 v 20.26832 l 10.55312748,6.09284 v 42.17788 l 17.793795,29.65631 0.659015,20.4299 -8.567374,19.77089 c 5.24335,3.73628 13.864968,7.29099 6.590296,13.18058 -0.186405,8.7115 -9.612288,8.82617 4.613203,19.77087 6.269861,6.06896 25.116898,2.01847 28.338248,9.88545 2.80566,0.43964 5.643479,0.27941 8.469276,0.20366 4.103124,0.39506 6.135804,-2.52624 4.236579,-6.00181 -4.210016,-1.79307 -6.031873,-3.9979 -7.767056,-8.12009 -2.776899,-5.90803 1.756988,-10.69223 4.589622,-15.53411 2.116394,-4.28595 -2.595691,-6.03619 -2.82438,-10.23839 1.855819,-5.75124 2.212453,-11.62492 4.236567,-17.29933 10.419067,-0.38027 23.07151,-3.23612 25.419439,-9.53229 7.878142,-3.84284 17.867952,-5.79861 26.125542,-2.1183 3.23554,1.29423 2.79744,-1.22892 4.94267,-1.76523 7.10457,0.20291 14.30282,-1.2576 21.18286,0.70611 1.43423,0.2868 5.77534,4.74287 6.0018,5.64876 5.40759,1.51385 9.44094,-2.80842 17.65239,-3.88353 4.18092,-1.65431 7.74161,-0.0296 13.41582,-3.17743 6.21286,-0.73103 12.53082,-0.91287 18.71153,-1.76524 z"
       style="fill:#000000;fill-opacity:1;fill-rule:evenodd;stroke:#d38d5f;stroke-width:1.50594;stroke-linecap:butt;stroke-linejoin:miter;stroke-miterlimit:4;stroke-dasharray:none;stroke-opacity:1"
       id="General_Lagos" />
  </g>
</svg>
