<?xml version="1.0" encoding="UTF-8" standalone="no"?>
<!-- Created with Inkscape (http://www.inkscape.org/) -->

<svg
   width="210mm"
   height="297mm"
   viewBox="0 0 210 297"
   version="1.1"
   id="svg1283"
   inkscape:version="1.1.2 (b8e25be833, 2022-02-05)"
   sodipodi:docname="vector.svg"
   xmlns:inkscape="http://www.inkscape.org/namespaces/inkscape"
   xmlns:sodipodi="http://sodipodi.sourceforge.net/DTD/sodipodi-0.dtd"
   xmlns="http://www.w3.org/2000/svg"
   xmlns:svg="http://www.w3.org/2000/svg">
  <sodipodi:namedview
     id="namedview1285"
     pagecolor="#ffffff"
     bordercolor="#666666"
     borderopacity="1.0"
     inkscape:pageshadow="2"
     inkscape:pageopacity="0.0"
     inkscape:pagecheckerboard="0"
     inkscape:document-units="mm"
     showgrid="false"
     inkscape:zoom="0.74029882"
     inkscape:cx="361.34057"
     inkscape:cy="561.93525"
     inkscape:window-width="1920"
     inkscape:window-height="1017"
     inkscape:window-x="-8"
     inkscape:window-y="-8"
     inkscape:window-maximized="1"
     inkscape:current-layer="layer1" />
  <defs
     id="defs1280" />
  <g
     inkscape:label="Capa 1"
     inkscape:groupmode="layer"
     id="layer1">
    <path
       d="m 17.804791,82.166348 -0.39264,0.78521 v 0.73615 l 0.39264,0.39263 v 0.34362 l 0.39263,0.39264 v 0.39263 l -0.39263,0.39263 v 1.86488 h -0.39264 v 0.39263 l -0.34361,-0.39263 h -1.12879 l -0.39263,-0.39263 h -1.12878 l -0.39263,-0.34362 h -1.12878 l -0.73615,-0.78522 h -0.39263 l -0.39264,-0.34362 h -0.73615 l -1.1288303,1.12873 h -0.39263 l -0.34362,-0.39263 h -0.39263 v -0.39263 l -1.12878,-1.12878 h -0.39264 l -0.34362,-0.39264 -0.39263,0.39264 h -0.73615 l -0.39263,0.39263 h -0.78527 l -0.34362,0.39263 h -1.12878 l -0.39263,0.34362 h -0.39263 l -0.34362,0.39263 0.34362,0.39264 v 0.34362 l 1.12878,1.12873 v 0.78521 l 0.78526,0.73615 v 0.73615 l 0.34362,0.39263 v 0.39263 h 0.39264 l 0.39263,0.34362 h 1.12878 l 0.39263,0.39263 0.34362,-0.39263 h 0.39264 l 0.39263,0.39263 v 0.39264 l 0.34362,0.34362 v 0.39263 l 0.78521,0.73615 h 0.34362 l 0.39263,0.78521 v 0.39263 h 0.39264 l 0.3436203,0.34362 v 0.39264 l -0.3436203,0.73614 v 1.52137 l -0.39264,0.39263 v 2.993662 h 0.39264 l 0.7362003,0.73614 h 0.39263 l 0.34362,0.39264 h 0.78527 l 0.34361,0.73614 v 0.78522 l 0.39264,0.39263 v 0.73615 l 0.39263,0.39263 -1.12873,1.12878 h -0.39263 l -0.39263,0.34362 v 0.39264 l -0.34362,0.39263 v 0.34362 l -0.39264,0.39263 H 9.9033707 l -0.39263,0.39263 h -0.39263 l -0.34362,0.34362 h -0.78522 l -0.34362,-0.34362 h -1.12878 l -0.39263,0.34362 h -0.39263 l -0.73615,0.78522 v 0.34362 l 0.39263,0.39263 v 0.73615 l 0.34362,0.39263 v 0.39263 l 0.39264,0.34362 v 0.78522 l 0.73614,0.73614 v 0.39264 l -0.34362,0.39263 v 0.34362 l -0.39263,0.39263 v 0.39264 l -0.73615,0.73614 h -0.39263 l -0.39263,0.39264 h -0.39264 l -0.73614,0.73614 v 0.39264 l -0.73615,0.73614 v 0.39264 l -0.39263,0.34362 v 0.78521 h 0.73614 l 0.78527,0.73615 0.34362,-0.39263 0.39263,0.39263 h 0.39263 l 0.73615,0.73615 -0.34362,0.39263 v 0.78521 l -0.39263,0.34362 v 0.39264 l -0.39263,0.39263 v 0.34362 l -0.39264,0.39263 v 0.73615 l -0.34362,0.39263 v 0.39264 l -0.39263,0.34361 v 0.39264 l -0.39263,0.39263 v 0.73615 l -0.34362,0.73615 v 0.39263 h 0.73615 l 0.73615,-0.39263 h 1.91404 l 0.73615,-0.34362 h 0.78527 v 0.34362 h 0.34362 l 0.39263,0.39263 v 1.12878 0.73615 l -0.73615,0.78521 h -0.39263 l -0.39264,0.39263 v 0.34362 l -0.34361,0.39264 v 0.73614 h -0.39264 l -0.39263,0.39264 h -0.73615 l -0.39263,0.39263 -0.39263,-0.39263 h -0.34362 l -0.78527,-0.39264 h -1.86493 l -0.73615004,0.78527 1.12878004,1.12873 h 0.34362 l 1.12878,1.12878 h 0.39264 l 0.39263,0.34362 h 0.73615 l 0.39263,-0.34362 h 0.39263 l 0.34362,0.34362 h 0.39264 l 0.73614,0.78521 h 7.9505903 v 0.73615 l -0.39263,0.39263 0.39263,0.34362 v 1.914 l -0.39263,0.39263 v 0.34362 l -0.78527,0.78521 -0.34362,0.34362 v 0.78522 l -0.78521,0.73615 v 0.39263 h -0.34362 l -0.39264,0.34362 v 0.78521 l -0.39263,0.34362 v 0.78521 l -0.34362,0.34362 -0.78521,0.78522 0.39263,0.34362 h 0.39263 l 0.34362,0.39263 h 0.78527 l 0.34362,0.39263 v 0.34362 l 0.78521,0.39264 0.34362,0.39263 v 0.73615 l 0.39264,0.39263 v 0.39263 l 0.39263,0.34362 h 0.39263 l 1.12883,1.12878 v -0.34362 l 0.34362,-0.78521 V 151.907 l 0.39264,-0.34362 v -0.39263 l 1.12878,-1.12878 v -0.39264 l 0.39263,-0.39263 0.34362,-0.34362 v -1.52136 l 0.39263,-0.39263 v -0.34362 l 0.39264,-0.39263 v -0.73615 l 1.47234,-0.39264 0.78522,1.12879 1.12878,-0.39264 1.52141,4.51502 2.99376,-1.86488 -1.12878,-2.99365 h 0.73615 l 0.39263,-0.39264 v -0.39263 -0.34362 l 0.39264,0.34362 0.7362,0.78527 v 0.34362 l 0.39263,0.39263 v 0.39263 l 0.34362,0.34362 v 0.39263 l 0.39263,0.39264 v 0.34362 l 1.12878,1.12878 v 1.52136 l 0.39264,0.39263 v 0.39264 l 0.34362,0.34361 v 0.39264 l 0.78526,0.73615 h 0.34362 0.39263 l 0.78527,0.78521 v 0.34362 h 0.34362 l 0.39263,0.39263 -0.39263,0.39263 0.39263,0.34362 h 1.12878 l 0.39264,0.39264 h 0.34362 l 0.39263,0.39263 h 0.39263 l 0.34362,0.34362 0.39263,0.39263 v 0.39264 l 0.7362,0.73614 v 0.39264 l 0.39264,0.34362 h 0.39263 l 0.7362,0.78521 v 0.34362 l 0.39263,0.39263 v 0.39263 l -0.39263,0.39264 v 0.34362 h 0.73615 l 0.39263,0.39263 0.39263,-0.39263 h 1.12878 v 0.39263 l 0.39264,0.39263 h 0.34362 l 0.78526,0.34362 0.34362,-0.34362 h 0.78527 l 0.34362,0.34362 v 0.39263 l 0.39263,0.39264 h 0.39263 l 0.73615,0.73615 v 0.39263 h 0.39263 l 0.34362,0.34362 v 0.39263 l 0.39264,0.39263 v 1.12873 l 0.39263,0.34362 0.73615,0.39263 h 1.12878 l 0.39263,0.39264 v 0.34362 l 0.34362,0.39263 v 1.12878 l 0.39263,0.39263 0.78522,-0.78521 h 0.7362 l 1.52136,1.52136 0.34362,-0.34362 h 0.39263 v 0.34362 l 0.39263,0.39263 v 0.39264 h 0.34362 l 0.78527,0.34362 h 0.34362 l 0.39263,-0.34362 h 0.39263 l 0.34362,0.34362 0.39264,0.39263 h 0.73614 l 0.39264,-0.39263 1.12878,1.12873 h 0.39263 l 1.12878,1.12878 h 0.39264 l 0.34361,-0.34362 h 1.12879 l 1.12878,-1.12878 h 1.52141 l 0.73615,0.34362 h 0.78521 l 0.34362,0.39263 v 0.39263 l 0.39263,0.34362 v 0.78521 l 0.39264,0.73615 v 0.39264 h 0.34362 l 0.39263,0.34361 h 0.39263 l 0.73615,-0.34361 0.39263,0.34361 v 0.39264 h 0.73615 l 0.39263,0.39263 0.39264,0.34362 h 1.12878 l 0.34362,0.39263 h 1.52141 l 0.39263,0.39264 h 0.34362 l 0.39264,0.34362 h 0.39263 v 0.39263 h 0.34362 l 0.39263,0.39263 h 1.91405 l 0.34362,0.39263 v 0.34362 h 1.12878 v 0.39264 l 0.39263,0.39263 h 0.39263 l 0.34362,0.34362 0.39264,-0.34362 h 0.39263 l 0.34362,-0.39263 h 1.12878 l 0.39263,0.39263 h 0.39264 l 0.34362,0.34362 h 1.12883 l 1.52136,1.52136 0.78527,0.39263 v 0.73615 l 0.34362,0.39263 h 0.39263 l 0.39263,0.34362 0.34362,0.39264 v 0.39263 l 0.39263,0.34362 h 0.39264 l 1.12878,1.12878 h 0.34362 l 0.39263,-0.34362 0.73615,0.34362 h 1.12878 l 0.39263,0.39263 h 0.39263 v 0.39264 l 0.34362,0.73614 h 0.78527 l 0.34362,-0.39263 h 0.39263 l 0.39263,0.39263 0.39264,0.39264 h 0.34362 l 0.392629,0.39263 h 0.39263 l 1.12878,1.12878 h 0.34362 l 0.39264,-0.39263 h 1.12878 l 0.7362,0.39263 h 0.78521 l 0.34362,0.34362 h 0.78521 l 0.34362,0.39263 h 0.39264 l 0.73614,0.73615 v 0.39263 h 0.39264 l 0.78521,0.39264 h 0.34362 v 0.34362 l 1.12878,1.12872 h 0.78527 l 0.34362,0.39264 h 0.39263 l 0.39263,0.39263 0.34362,0.34362 v 0.39263 h 1.12878 l 0.39264,0.73615 h 0.73614 l 0.39264,0.39263 v 0.39264 l 0.39263,0.34362 h 0.34362 l 1.12883,1.17784 h 0.78522 l 0.39263,0.34362 v 0.39263 l 0.34362,0.39264 h 2.25756 l 0.78521,0.73615 h 0.34362 v 0.73614 h 0.39264 l 0.7362,0.39264 v 0.39263 l 0.39263,0.34362 v 0.39263 l 0.73615,0.73615 h 0.39263 l 0.73615,0.39263 v 0.39264 h 0.39263 l 0.73615,0.73614 h 0.39263 l 0.39263,0.39264 0.39264,0.34362 v 0.39263 h 1.47229 l 0.39264,-0.39263 h 0.39263 l 0.34362,-0.34362 h 0.39263 l 0.39263,0.34362 h 0.73615 l 0.39264,-0.34362 h 0.34361 l 0.78527,-0.39264 h 1.47235 l 0.78521,-0.73614 h 1.12878 l 0.39264,0.34362 h 1.86498 l 0.39263,0.39263 v 0.39263 l 1.12883,1.12878 h 1.12878 v 0.34362 h 1.4723 v -0.34362 h 0.78527 v 0.34362 h 1.12878 v -1.12873 h 0.73614 l 0.39264,-0.34362 h 0.39263 v -0.39263 h 0.34362 v -0.39263 h 0.78527 v 0.39263 h 0.34362 v 0.39263 h 1.52136 v 0.34362 h 0.39263 v 0.78522 h 0.34362 v 1.52136 h -0.34362 v 1.86493 h 0.34362 v 0.73614 h 0.39263 l 0.39264,0.39264 h 0.7362 v 0.39263 h 0.39263 v 0.34362 h 1.12878 v 0.39263 h 0.73615 l 0.73615,0.39264 0.39263,0.34362 h 0.78526 l 0.73615,0.78521 h 0.73615 l 0.39263,-0.39263 h 1.86498 l 0.39264,0.39263 h 1.86498 l 0.39263,-0.39263 h 0.39263 l 0.7362,-0.73615 h 1.12878 l 0.78522,-0.39263 h 0.34362 l 0.78526,-0.73615 h 0.34362 l 0.39264,-0.39264 h 1.12878 l 0.73614,0.73615 h 0.39264 l 0.39263,-0.34362 h 1.12878 l 0.34362,-0.39263 h 0.78527 l 0.34362,-0.39263 0.39263,0.39263 h 0.39263 l 0.34362,0.39263 h 0.78522 l 0.7362,0.73615 h 1.52141 l 0.39263,0.39263 -0.39263,0.34362 -0.39263,0.39264 0.39263,0.73609 h 0.39263 l 0.34362,0.39263 0.39263,-0.39263 h 0.39264 l 0.34362,-0.34362 0.39263,-0.39263 h 0.73615 l 0.39263,-0.39263 h 0.39263 l 0.7362,-0.73615 h 1.12878 l 0.73615,-0.39263 h 0.78527 l 0.39263,0.39263 h 1.4723 l 0.39263,0.39263 h 0.7362 l 0.39263,-0.39263 h 2.99377 l 0.78521,0.73615 h 1.86498 l 0.39263,-0.34362 0.39264,0.34362 h 1.86498 l 0.39263,-0.34362 h 0.34362 l 0.39263,-0.39264 h 2.99371 l 0.78527,-0.73614 h 0.73615 l 0.39263,0.34362 h 1.12878 v 0.78526 h 0.39263 l 0.34362,0.34362 h 1.52136 v 0.39263 l 0.39264,0.39264 v 0.34362 h 0.34362 v -0.34362 l 0.78521,-0.78522 v -0.34362 h 0.34362 v -1.52141 h -0.34362 v -1.12873 l -0.39263,-0.39263 v -0.73615 l 0.39263,-0.39263 v -0.34362 l 0.34362,-0.39263 -0.34362,-0.39264 v -1.12878 h 0.34362 l 0.39263,-0.39263 h 0.73615 v -0.34362 h 0.39263 v -0.78521 h 0.39264 l 0.34362,-0.34362 h 0.39263 v -4.17151 h -0.39263 l -0.34362,-0.34362 h -1.12878 v -0.39263 l -0.39264,-0.39263 v -0.73615 l -0.39263,-0.39263 h -0.73615 v -0.39264 h -1.12883 v -0.34362 h -0.73615 v -1.12878 l -0.39263,-0.39263 h -0.39264 l -0.34361,-0.39263 V 194.901 l 0.34361,-0.39264 v -0.39263 h 0.39264 v -0.34362 l 0.7362,-0.78521 v -0.34362 h 0.39263 v -0.39263 l -0.39263,-0.39264 v -0.34362 l 0.39263,-0.39263 v -0.39263 h 0.7362 v -0.73615 h 0.39263 v -0.7362 l -0.39263,-0.39263 v -1.52137 h 0.39263 v -0.39263 l -0.39263,-0.34362 v -0.78526 l 0.39263,-0.34362 h -0.39263 v -0.39264 l 0.39263,-0.39263 v -0.34362 h 0.39264 v -0.78526 l -0.39264,-0.34362 h -0.39263 v -1.12878 h 0.39263 v -1.52137 l 0.39264,-0.39263 v -1.86488 l 0.34362,-0.39263 v -0.39263 h 0.39263 v -1.86493 l 0.39263,-0.39263 v -0.34362 l -0.39263,-0.39264 v -0.39263 h -0.39263 v -0.73615 l 0.39263,-0.39263 v -0.73615 h -0.39263 v -1.12873 l -0.34362,-0.39263 v -0.34362 l -0.39264,-0.39263 h -0.39263 l -0.34362,-0.39263 h -0.78521 v -0.73615 h -0.7362 l -0.39264,-0.39264 v -0.73614 l -0.7362,-0.78522 h -0.39263 v -0.34362 l -0.39263,-0.39263 v -0.39263 h -0.7362 v -0.73615 h -0.39263 v -0.39263 l -0.34362,-0.34362 h -0.39264 l -0.39263,-0.39264 h -0.34362 v -0.39263 l -0.78527,-0.73615 h -0.34361 v -0.39263 h -0.78527 v -0.34362 l -0.34362,-0.39263 h -1.12878 v -0.39263 l -0.39263,-0.34362 h -0.7362 l -0.39264,-0.39264 v -0.39263 h -1.12878 l -0.39263,-0.39263 -0.39263,-0.34362 -0.34362,0.34362 h -0.39264 l -0.7362,-0.73615 h -0.39263 v -0.39263 h -1.86493 l -0.39263,0.39263 h -0.39263 v 0.39263 h -1.12873 l -0.34362,0.34362 h -0.39263 v 0.39263 l -0.39264,0.39264 h -0.73615 l -0.39263,0.39263 h -1.52141 l -0.34362,0.34362 h -0.39263 l -0.39264,0.39263 v 0.39264 h -1.12878 l -0.34362,0.34362 v 0.39263 h -2.25756 l -0.39263,0.39263 h -0.39264 l -0.34361,0.34362 h -0.78522 v 0.39263 h -0.34362 v 0.39264 l -0.39263,0.34362 v 0.39263 l -0.39263,0.39263 v 0.34362 H 173.8272 V 165.503 h -0.7362 v 0.34362 h -0.39263 v 0.39263 h -1.47235 l -0.39263,0.39264 v 0.34362 l -0.39263,0.39263 h -0.73615 v 1.12878 l -0.39264,0.39263 h -1.12878 l -0.34362,0.34362 v 0.39264 h -1.12872 l -0.39264,0.39263 v 1.12878 l -0.39263,0.39263 v 0.34362 h -0.34362 l -0.39263,0.39263 v 0.73615 l -0.39264,0.39264 v 0.39263 h -1.52141 l -0.34362,-0.39263 h -0.78521 v -0.39264 h -0.7362 l -0.39264,0.39264 h -0.7362 v -0.39264 l -0.39263,-0.34362 h -0.7362 l -0.39263,-0.39263 0.39263,-0.39263 v -0.34362 l -0.39263,-0.39264 h -0.34362 v -0.39263 l -0.39263,-0.34362 h 0.39263 v -0.78521 h -0.78527 l -0.34362,-0.39263 v -0.73615 h -0.39263 l -0.39263,-0.39264 h -0.73615 l -0.39263,-0.34361 h -0.39264 l -0.34362,-0.39264 h -0.39263 l -0.39263,-0.39263 v -1.12878 l -0.73615,-0.73615 h -0.73615 l -0.39263,-0.39263 v -0.73615 h -1.12878 v -0.39263 h -0.39263 l -0.34362,-0.34362 v -1.52142 l 0.34362,-0.39263 v -0.34362 l 0.39263,-0.39263 v -0.78522 l -0.39263,-0.34361 v -0.39264 h -0.7362 l -0.39264,-0.39263 h -0.34362 v -1.12878 h -1.12878 v -0.34362 l -0.39263,-0.39263 v -0.39264 l -0.39263,-0.34362 h -0.73615 l -0.39263,-0.39263 v -1.12878 l -0.73615,-0.73615 v -0.39263 h -0.39264 v -0.39263 l -0.73614,-0.73615 v -0.73615 l -0.39264,-0.39263 v -0.78527 h -0.39263 l -0.34362,-0.34362 h -1.12878 l -0.39263,-0.39263 -0.39264,-0.39263 v -1.12878 h -2.60112 v -0.34362 h -1.52142 l -0.39263,0.34362 v 0.39263 h -0.39263 v 0.73615 h -1.12879 l -0.34361,-0.34362 -0.39264,-0.39264 h -0.39263 v 0.39264 l -0.34362,0.34362 v 0.78521 l -0.39263,0.34362 h -0.73615 v 0.39263 l -0.78521,0.78522 v 0.34362 h -0.34362 l -0.78527,0.78521 h -1.4723 v -0.39263 h -0.39263 l -0.39263,-0.39264 h -0.73615 v 0.39264 l -0.39263,0.39263 v 0.34362 l -0.73615,0.78521 h -0.78527 l -0.34362,-0.39263 h -0.78526 l -0.73615,0.73615 v 0.39263 H 123.325 l -0.34362,-0.39263 h -1.12878 l -0.39264,0.39263 h -0.39263 v 0.39263 h -0.7362 v -0.39263 h -0.39263 l -0.34362,-0.39263 h -0.39263 l -0.39264,-0.34362 v -0.39264 h -1.86498 l -0.39263,-0.39263 v -0.34362 h -0.39263 v -0.78521 l -0.34362,-0.34362 h -0.39264 v -0.39263 h -0.39263 l -0.34362,0.39263 h -1.12878 l -0.39263,-0.39263 h -0.39263 l -0.34362,-0.39264 h -0.78522 l -0.34362,-0.39263 h -3.77903 v -0.34362 l -0.78521,-0.78521 -0.34362,-0.34362 h -0.78521 l -0.34362,-0.39263 v -1.86493 l -0.39263,-0.39264 v -0.73614 h -1.12879 l -0.39263,-0.39264 H 103.006 v -1.52136 l -0.78526,-0.73615 h -0.34362 l -0.39264,-0.39263 v -1.12873 h -0.39263 v -1.12878 h -0.34362 l -1.128779,-1.12878 v -0.39263 l 0.736149,-0.73615 h 0.73615 V 136.841 l -0.34362,-0.39264 h -2.650199 -0.78526 v -1.12878 h -0.34362 v -0.73614 h -0.39264 l -0.39263,-0.39264 -0.34362,-0.34362 -0.39263,-0.39263 h -0.39263 v -0.39263 h -1.47235 l -0.39263,0.39263 -0.39264,-0.39263 h -0.7362 v -0.34362 l -0.39263,-0.39263 h -0.34362 l -0.39263,-0.39264 -0.39264,-0.39263 h -0.34361 v -0.34362 h -0.39264 l -0.39263,-0.39263 v -0.39264 h -0.39263 v -0.34362 h -0.34362 v -0.39263 l -0.39264,-0.39263 h -1.86492 l -0.39264,-0.34362 h -0.39263 v -0.39263 h -0.34362 v -0.39264 l -0.39263,-0.34362 v -0.39263 l -0.39264,-0.39263 h -0.34362 l -0.39263,-0.34362 h -0.39263 v -0.39263 h -0.34362 v -1.86488 l -0.39263,-0.39263 h -0.7362 v -1.12878 h -0.39264 v -0.39264 h -0.39263 l -0.34362,-0.39263 -0.39263,-0.34362 v -0.39263 l -0.39263,-0.39264 h -1.12884 -0.39263 v -0.34361 h -0.34362 l -0.39263,-0.39264 h -1.12884 v -1.12878 h -0.39263 v -0.39263 h -0.7362 v -0.34362 h -0.39263 l -0.34362,-0.39263 v -0.39264 l -0.39263,-0.34362 h -0.73615 l -0.78527,-0.78526 v -0.34362 l -0.34362,-0.39263 -0.39263,-0.39264 v -0.34362 h -0.39263 v -0.39263 l -0.73615,-0.73615 h -0.39263 l -0.39264,-0.39263 h -0.34362 l -0.78526,0.73615 v 0.39263 h -0.34362 v 0.73615 l -0.39263,0.39263 h -1.12879 v -0.39263 h -0.39263 l -0.34362,0.39263 h -0.78521 v -0.39263 h -0.34362 l -0.39263,-0.34362 -0.39264,0.34362 h -0.34362 l -0.39263,0.39263 v -0.39263 l -0.39263,-0.34362 h -1.12884 l -1.52141,-1.52136 -0.34362,0.39263 -0.39263,0.34362 h -0.39263 l -0.34362,-0.34362 h -0.39264 v 0.34362 h -1.12878 l -0.39263,-0.34362 h -1.12878 l -0.34362,0.34362 h -0.78527 v 0.39263 h -0.34362 l -0.78521,0.73615 h -0.34362 v 0.39263 h -0.78521 l -0.34362,-0.39263 v -0.34362 h -0.39263 v -0.78521 h -0.39264 v -0.34362 l -0.39263,-0.39263 v -0.78522 h -0.7362 v -0.34362 h -0.73615 v -0.39263 l -0.39263,-0.39263 v -0.34362 l -0.39263,-0.39264 v -0.39263 h -0.34362 l -0.39264,-0.34362 h -1.52136 v -0.39263 l -0.7362,-0.73615 h -0.73615 l -0.78526,-0.78521 v -0.34362 l -0.73615,-0.78522 h -2.25704 l -0.39263,0.39264 h -0.7362 l -0.78522,-0.73615 h -0.34362 l -0.39263,-0.39263 h -3.38639 v -0.39264 l -0.39264,-0.34362 v -0.39263 h -0.34362 v -0.39263 h -1.12878 l -0.39263,-0.34362 v -0.78522 h -0.39263 v -0.39263 h -0.39264 l -0.7362,-0.73615 v -2.25756 l -0.39263,-0.392632 v -0.73615 l -0.34362,-0.39263 h -0.39263 l -0.39264,-0.34362 h -0.34361 v -0.39263 l -0.39264,-0.39264 v -0.73614 l -0.39263,-0.39264 h -0.34362 l -0.78527,-0.73615 v -0.73614 l -0.34361,-0.39264 v -0.39263 h -0.39264 l -0.39263,-0.39263 h -0.34362 v -0.34362 h -0.39263 v -0.39263 h -0.39264 v -2.65015 l -0.34362,-0.34362 h -0.39263 l -0.39263,-0.39263 v -0.73615 l -0.34362,-0.39263 h -0.78527 v -0.39263 h -0.39263 l -0.73615,-0.73615 v -0.39263 l -0.39263,-0.34362 h -0.34362 l -0.39263,-0.39264 h -0.39264 v -0.73614 h -0.34361 v -0.39264 h -0.39264 l -0.39263,-0.39263 h -0.34362 v -0.7361 l 0.34362,-0.39263 v -0.39263 l -0.34362,-0.34362 v -0.39263 h -1.52141 z"
       style="fill:#000000;fill-opacity:1;fill-rule:evenodd;stroke:#d38d5f;stroke-width:0.689804;stroke-linecap:butt;stroke-linejoin:miter;stroke-miterlimit:4;stroke-dasharray:none;stroke-opacity:1"
       id="Collipulli" />
  </g>
</svg>
