<?xml version="1.0" encoding="UTF-8" standalone="no"?>
<!-- Created with Inkscape (http://www.inkscape.org/) -->

<svg
   width="210mm"
   height="297mm"
   viewBox="0 0 210 297"
   version="1.1"
   id="svg1283"
   inkscape:version="1.1.2 (b8e25be833, 2022-02-05)"
   sodipodi:docname="vector.svg"
   xmlns:inkscape="http://www.inkscape.org/namespaces/inkscape"
   xmlns:sodipodi="http://sodipodi.sourceforge.net/DTD/sodipodi-0.dtd"
   xmlns="http://www.w3.org/2000/svg"
   xmlns:svg="http://www.w3.org/2000/svg">
  <sodipodi:namedview
     id="namedview1285"
     pagecolor="#ffffff"
     bordercolor="#666666"
     borderopacity="1.0"
     inkscape:pageshadow="2"
     inkscape:pageopacity="0.0"
     inkscape:pagecheckerboard="0"
     inkscape:document-units="mm"
     showgrid="false"
     inkscape:zoom="0.74029882"
     inkscape:cx="361.34057"
     inkscape:cy="561.93525"
     inkscape:window-width="1920"
     inkscape:window-height="1017"
     inkscape:window-x="-8"
     inkscape:window-y="-8"
     inkscape:window-maximized="1"
     inkscape:current-layer="layer1" />
  <defs
     id="defs1280" />
  <g
     inkscape:label="Capa 1"
     inkscape:groupmode="layer"
     id="layer1">
    <path
       d="m 200.82315,38.285582 v 0.7406 l -0.74059,0.74059 v 0.64815 h -5.64681 v 0.74059 h -1.38864 l -0.7406,0.74059 h -1.38854 l -0.7406,0.64815 v 0.74059 h -0.74059 l -0.64814,-0.74059 -0.7406,0.74059 h -0.74059 v 0.7406 h -0.7406 l -0.64814,0.64814 h -0.7406 l -0.74059,0.7406 v 0.74059 h -1.38854 l -0.7406,0.64814 h -2.12923 v -0.64814 l -0.64815,-0.74059 v -0.7406 h -1.48119 l -0.64814,-0.64814 -0.74059,0.64814 h -0.7406 l -0.64814,-0.64814 h -0.7406 v -0.7406 l -0.74059,-0.74059 -0.64815,0.74059 -0.74059,-0.74059 h -1.38864 l -1.48109,1.48119 v 0.64814 l -2.12914,2.12904 -0.74059,-0.64814 h -2.77718 l -0.7406,-0.7406 h -2.12923 l -0.7406,-0.74059 h -2.77718 l -0.74059,-0.64815 h -1.38855 l -0.74059,-0.74059 h -2.12914 v 0.74059 l -0.74059,0.64815 v 0.74059 l -0.7406,0.7406 h -0.64814 l -0.7406,-0.7406 -0.74059,0.7406 v 0.64814 h -0.64814 l -0.7406,-0.64814 h -6.38741 v 1.38854 l -0.74059,0.74059 v 3.51758 l -2.77718,2.86973 -1.4811,-1.38864 -0.64814,0.64815 h -1.48119 v -0.64815 l 0.7406,-0.74059 h -0.7406 l -0.74059,-0.7406 v -1.38854 h -0.64815 l -0.74059,-0.74059 v -2.12914 h -2.12914 l -0.74059,-0.74059 v -0.64815 l -0.64815,-0.74059 h -1.48119 l -0.64814,0.74059 -0.74059,-0.74059 h -1.38599 l -0.74059,-0.7406 h -0.7406 l -0.64814,-0.64814 h -0.7406 l -0.74059,-0.7406 h -1.38854 v 0.7406 h -2.86973 l -0.7406,0.64814 h -1.38854 l -0.7406,0.7406 -0.64814,0.74059 h -0.74059 v 0.64815 l -1.38854,1.48119 v 0.74059 h -2.12914 l -1.48109,0.64814 -0.64815,0.7406 h -0.74059 l -0.7406,-0.7406 h -1.38854 l -0.74059,-0.64814 h -1.38854 l -2.129137,-2.22169 h -1.48119 l -0.64814,-0.64814 h -2.12914 l -0.74059,-0.74059 h -1.38864 l -0.7406,-0.7406 h -2.86973 l -1.38864,1.48109 v 0.64815 h -8.51655 l -0.74059,0.74059 h -1.38785 l -0.7406,0.7406 v 0.74059 h -0.74059 l -1.38854,1.38854 v 0.7406 l -0.7406,-0.7406 v -1.38854 l -0.64814,-0.74059 h -2.12914 v -0.7406 l -0.74059,-0.74059 h -0.7406 v 0.74059 l -1.38854,1.48109 v 0.64815 h -0.7406 l -0.64814,0.74059 v 2.12914 l -0.74059,0.74059 v 4.25827 l 0.74059,0.64815 v 3.61023 l -0.74059,0.64814 0.74059,0.74059 v 0.7406 l 0.64814,0.64814 v 2.86963 l 0.7406,0.7406 h 0.74059 v 2.12904 l -1.48109,1.38854 h -0.64814 l -0.7406,0.74059 v 0.7406 l -0.74059,0.64814 h -1.38864 v 1.48109 l -0.7406,0.64815 v 0.74059 h -0.74059 l -0.64814,0.7406 v 1.38854 l -0.7406,0.74059 h -0.74059 v 1.38854 h -1.38864 l -0.7406,0.7406 v 2.12904 l -2.12913,2.12913 h -1.38864 l -0.7406,0.7406 h -2.77708 l -0.7406,-0.7406 v -0.74059 l -0.74059,-0.64814 h -0.64815 l -1.48118,-1.4811 h -0.64815 l -1.48119,-1.38854 h -1.38854 v 0.64815 l -0.74059,-0.64815 h -1.38855 l -0.74059,-0.74059 -0.7406,-0.7406 h -2.12913 v -0.64814 l -0.64815,-0.7406 v -0.74059 h -0.74059 l -0.7406,-0.64814 v -0.7406 h -0.64814 v -0.74059 l -2.12913,-2.12904 h -1.4811 v -0.64814 h -1.38726 l -0.74059,-0.7406 h -0.64815 l -0.74059,-0.74059 h -0.7406 l -1.38854,-1.38855 h -0.74059 l -0.7406,-0.74059 h -0.64814 l -0.7406,-0.64814 h -0.74059 l -1.38854,-1.4811 h -0.7406 l -1.38854,0.7406 h -0.7402 v 0.74059 h -0.64814 v 0.64815 l -0.7406,0.74059 v 0.7406 l -0.74059,0.64814 v 0.7406 l -0.64815,0.74059 v 0.64814 l -2.86973,2.86964 v 0.74059 l -0.74059,0.64815 v 0.74059 l -0.64815,0.74059 v 0.64815 h -0.74059 l -0.7405999,0.74059 v 0.7406 l -0.74059,0.64814 h -0.64814 l -0.7406,0.7406 h -3.51778 l -0.74059,0.74059 h -0.7406 l -0.64814,0.7406 v 2.12913 l 0.64814,0.64815 v 0.74059 l 0.7406,0.7406 v 2.12913 l -0.7406,0.64815 h -1.38864 l 0.7406,1.48109 0.64814,0.64814 v 0.74059 l 0.7406,1.38855 v 0.74059 l 1.38864,1.38854 v 0.7406 l 0.74059,0.74059 v 1.388538 l 0.7406,0.7406 v 1.38854 l 0.64814,0.7406 v 1.38854 l 0.7406,0.74059 h 0.74059 v 8.51635 l 0.64814,0.7406 v 0.64814 l 0.7406,0.74059 v 0.7406 l 1.4810899,1.38864 v 1.48109 l 0.64814,0.64814 v 0.7406 l 0.7406,0.74059 v 0.64815 l 0.74059,0.74059 v 3.51768 l 0.64815,1.48109 v 0.64814 l 1.48119,1.48109 v 1.38855 l 0.64814,1.38854 v 1.48109 l 0.74059,0.64814 v 0.7406 l 0.7406,0.74059 v 2.12914 l 0.64814,0.74059 v 1.38855 l 0.7406,0.74059 v 0.64814 l 0.74059,0.7406 v 0.74059 0.64815 l 0.64815,0.74059 v 0.7406 l 0.74059,0.64814 v 2.12904 l 0.7406,0.74059 v 0.7406 l 0.64814,0.64814 v 0.7406 l 0.74059,0.74059 v 2.12914 l 0.7406,0.64814 v 0.7406 l 0.64814,0.74059 v 2.12914 l 0.7406,0.74059 v 0.64814 l 0.74059,0.7406 v 0.74059 l 0.64814,0.64815 v 4.99867 l 0.7406,0.74059 v 0.64815 l 0.74059,0.74059 v 0.7406 l 0.7406,1.38854 v 2.12904 l 0.64814,0.74059 v 1.38854 l 0.7406,0.7406 v 0.74059 0.64815 l 0.74059,1.48109 v 1.38854 l 0.64815,0.74059 v 0.64815 l 0.74059,0.74059 v 1.38854 l 0.7406,0.7406 v 2.86963 l 0.64814,0.64814 v 4.35083 l 0.74059,0.64814 v 1.48109 l 1.38855,1.38854 v 0.7406 l 0.74059,0.64814 v 1.48119 l 0.7406,1.38844 v 0.7406 l 0.64814,0.64814 v 0.7406 l 0.74059,0.74059 v 0.64815 l 0.7406,1.48109 v 0.64814 l 0.64814,0.7406 v 1.38854 l 0.7406,1.48119 v 0.74059 l 0.74059,0.64814 v 0.7406 l 0.64814,0.74059 v 0.64815 l 1.48119,1.48109 v 3.51768 l 0.64815,0.74059 v 2.12914 l 0.74059,0.64814 v 3.61023 l 0.7406,0.64814 -0.7406,1.48109 1.48119,1.38855 v 2.12903 l 0.64815,0.7406 v 2.86963 l 0.74059,0.64814 v 1.4811 l 0.7406,0.64814 v 1.48109 l 0.64814,1.38854 v 1.38854 l 0.74059,0.7406 v 0.74059 l 0.7406,0.64815 v 0.74059 l 0.64814,0.7406 v 1.38854 l 0.7406,0.74059 v 0.7406 l 0.74059,0.64814 v 0.7406 l 0.64815,1.38854 v 2.12913 l 0.74059,0.7406 v 0.74059 l 0.74059,1.38855 v 0.74059 l 1.38855,1.38854 v -1.38854 h 0.74059 v -1.48119 l 0.64814,-0.64814 v -0.7406 h 0.7406 v -0.74059 l 1.38864,-1.38854 v -2.12914 l 0.74059,-1.38854 v -0.7406 l 0.7406,-1.38854 v -2.22168 l -0.7406,-0.64815 v -0.74059 l -2.12923,-2.12914 v -0.74059 l -2.12914,-2.12914 -1.38854,-0.64814 v -0.7406 h -0.74059 v -0.74059 h -0.7406 l -1.38854,-0.64815 v -1.48109 l -0.74059,-0.64814 v -0.7406 l 1.48119,-2.86963 h 0.64814 l 0.74059,-0.64814 h 0.7406 v -0.7406 h 0.64814 l 0.7406,0.7406 h 4.25837 v -0.7406 l 0.74059,-1.48109 v -3.51768 l 0.64815,-0.74059 h 0.74059 v -0.64815 h 0.7406 v -0.74059 h 0.74059 l 1.38864,-1.38854 h 0.7406 l 1.38863,-0.7406 h 1.38855 l 0.74059,0.7406 h 1.38854 v -0.7406 h 2.12914 l 0.74059,-0.74059 h 0.7406 v -0.64814 l 0.64814,-1.4811 v -0.64814 l 0.7406,-0.74059 v -0.7406 l 0.74059,-0.64814 v -0.7406 l 1.38854,-2.86963 v -0.74059 h 0.7406 v -1.38855 l 0.64814,-0.74059 0.7406,-1.38854 h 0.74059 v -1.38854 l -2.12913,-2.12914 v -0.7406 l -0.7406,-0.74059 v -0.64814 h 0.7406 v -0.7406 h 0.64814 v -0.74059 h 0.74059 l 2.86973,-2.77709 v -1.48109 l -0.74059,-0.64814 v -1.48119 h -0.64814 v -0.7406 h -0.7406 l -0.74059,-1.38854 h -0.7406 l -1.38864,-1.38854 h -0.74059 v -0.74059 l -0.64815,-0.7406 v -0.64814 l -0.74059,-0.7406 -1.38854,-0.74059 -0.7406,-1.38854 -0.74059,-0.7406 h -0.64815 l -1.48119,-1.38864 v -1.38854 l -0.64814,-0.74059 v -0.7406 l -0.74059,-1.38854 1.38854,-1.38854 v -0.7406 l 2.86973,-2.86963 v -0.7406 l 0.74059,-0.64814 v -2.12913 l 0.64815,-0.7406 v -0.74059 h 2.86973 l 0.74059,-0.64815 h 1.38854 l 0.7406,-0.74059 v -0.7406 l 0.74059,-0.64814 v -0.7406 l -0.74059,-0.74059 v -2.12914 l 0.74059,-0.64814 h 0.64815 l 0.74059,-0.7406 h 1.38864 l 0.7406,-0.74059 h 1.38864 l 2.12913,-2.12904 v -0.74059 l 0.7406,-0.64815 v -0.74059 l 0.74059,-1.38854 v -0.7406 l 0.64815,-0.74059 v -2.12914 l 0.74059,-0.64814 v -0.7406 l 0.7406,-0.74059 h 0.64814 l 1.48119,-1.38854 v -1.38855 l 0.64814,-0.74059 v -0.74059 l 0.7406,-0.64815 v -2.12904 l 0.74059,-0.74059 v -1.38854 l 0.64815,-0.7406 v -4.99867 l 0.74059,-0.74059 v -0.64815 l 1.48119,-1.48109 v -2.12913 l 0.648137,-0.64815 v -1.48109 l 1.48119,-1.38854 0.64815,-0.7406 h 1.48119 l 0.64814,-0.64814 h 2.12924 l 1.48109,-1.48109 h 0.64814 l 2.12914,-2.12904 h 0.74059 l 2.86973,-2.86973 v -0.64814 l 0.64815,-0.7406 h 0.74059 l 1.48109,-0.74059 0.64815,-0.64815 h 1.48109 l 0.64814,0.64815 0.7406,-0.64815 h 2.86973 l 2.12913,2.12914 h 0.64815 l 1.48119,1.38854 h 0.64814 l 0.74059,0.7406 h 0.7406 l 1.38854,0.64814 h 4.99887 l 0.74059,0.74059 h 1.38854 l 1.38864,-1.38863 h 2.12914 l 0.7406,0.64814 h 1.38854 l 0.74059,-0.64814 0.7406,0.64814 h 0.64814 l 0.7406,-0.64814 h 7.128 l 0.74059,-0.7406 h 3.51768 l 0.7406,-0.74059 v -0.64815 h 0.64814 l 0.74059,-0.74059 h 0.7406 l 0.64814,-0.7406 v -0.64814 l 0.7406,-0.7406 h 0.74059 l 1.38854,-0.74059 h 2.86974 l 0.64814,0.74059 h 0.74059 l 1.4811,0.7406 0.64814,0.64814 h 3.61032 l 0.64815,0.7406 h 0.74059 l 0.7406,0.74059 h 2.12913 l 0.64815,0.64815 h 1.48119 l 0.64814,0.74059 h 4.25827 l 0.7406,-0.74059 h 0.74059 l 1.38854,0.74059 h 1.48119 l 0.64815,0.7406 0.74059,-0.7406 0.7406,-0.74059 v -1.38855 l 0.64814,-0.74059 v -1.38854 l 0.7406,-0.7406 v -2.12904 l 0.74059,-0.64814 v -2.12904 l 0.64814,-0.74059 v -4.25818 l 0.7406,-0.74059 v -0.7406 l 0.74059,-1.388438 v -2.12914 l 0.64815,-1.38854 v -1.48109 l 0.74059,-0.64814 v -2.12904 l 0.7406,-0.74059 v -1.38855 l 0.64814,-0.74059 v -1.38854 l 0.7406,-0.7406 v -1.38854 l 0.74059,-0.74059 v -2.12904 l 0.64814,-0.7406 v -2.12903 l 0.7406,-0.7406 v -1.38854 l 0.74059,-0.7406 v -2.12903 l 0.64815,-0.64815 v -2.86963 l 0.74059,-0.7406 v -2.12913 l 0.7406,-0.64814 v -2.22169 l 0.74059,-1.38854 v -1.38854 l 0.64814,-0.7406 v -1.38854 l 0.7406,-0.7406 v -4.25817 l 0.74059,-0.74059 v -1.38855 l 0.64815,-0.74059 v -1.38854 h -0.64815 l -0.74059,-0.7406 v -0.64814 l -0.7406,-0.7406 h -0.64814 l -0.74059,-0.74059 v -0.7406 l -0.7406,-0.64814 v -3.61023 l 0.7406,-0.64814 v -1.48109 l -0.7406,-0.64814 h -1.38854 l -0.7406,-0.7406 h -1.38854 z"
       style="fill:#000000;fill-opacity:1;fill-rule:evenodd;stroke:#d38d5f;stroke-width:1.30113;stroke-linecap:butt;stroke-linejoin:miter;stroke-miterlimit:4;stroke-dasharray:none;stroke-opacity:1"
       id="Teodoro_Schmidt" />
  </g>
</svg>
