<?xml version="1.0" encoding="UTF-8" standalone="no"?>
<!-- Created with Inkscape (http://www.inkscape.org/) -->

<svg
   width="210mm"
   height="297mm"
   viewBox="0 0 210 297"
   version="1.1"
   id="svg64"
   inkscape:version="1.1.2 (b8e25be833, 2022-02-05)"
   sodipodi:docname="vector.svg"
   xmlns:inkscape="http://www.inkscape.org/namespaces/inkscape"
   xmlns:sodipodi="http://sodipodi.sourceforge.net/DTD/sodipodi-0.dtd"
   xmlns="http://www.w3.org/2000/svg"
   xmlns:svg="http://www.w3.org/2000/svg">
  <sodipodi:namedview
     id="namedview66"
     pagecolor="#ffffff"
     bordercolor="#666666"
     borderopacity="1.0"
     inkscape:pageshadow="2"
     inkscape:pageopacity="0.0"
     inkscape:pagecheckerboard="0"
     inkscape:document-units="mm"
     showgrid="false"
     inkscape:zoom="0.74029882"
     inkscape:cx="361.34057"
     inkscape:cy="21.612894"
     inkscape:window-width="1920"
     inkscape:window-height="1017"
     inkscape:window-x="-8"
     inkscape:window-y="-8"
     inkscape:window-maximized="1"
     inkscape:current-layer="layer1" />
  <defs
     id="defs61" />
  <g
     inkscape:label="Capa 1"
     inkscape:groupmode="layer"
     id="layer1">
    <path
       id="Tierra_Amarilla"
       style="fill:#000000;fill-opacity:1;fill-rule:evenodd;stroke:#d38d5f;stroke-width:1.22047;stroke-linecap:butt;stroke-linejoin:miter;stroke-miterlimit:4;stroke-opacity:1"
       d="m 103.4345,267.19573 c -0.8062,0.67659 -2.06494,1.17218 -5.253075,0.896 -1.99795,0.51262 -4.28537,0.22729 -5.9497,1.62265 -3.53948,0.71673 -6.9297,2.13852 -10.63732,1.08176 -3.48212,-0.35239 -6.20901,-2.71583 -9.58017,-3.41524 -3.47516,0.0748 -6.99406,0.27302 -8.99016,-3.25564 -1.96316,-3.00462 -4.25762,-0.81933 -6.59274,-0.12155 -1.5608,0.58851 -3.51866,0.52096 -3.46005,-0.66466 0.14927,-3.01688 -3.50775,-3.44979 0.49721,-12.37531 2.27972,-2.73172 -0.86353,-4.50198 -0.63337,-10.12198 -0.35785,-4.59167 -1.18328,-9.26454 -2.89502,-13.24953 -2.80803,-5.77329 -1.9429,-7.43842 -0.0945,-13.79129 1.58472,-3.04869 -1.62804,-5.75973 -3.829,-7.4205 -2.19498,-1.62501 -4.24251,-2.44801 -3.00314,-16.77195 3.08773,-3.23355 0.64272,-0.51893 2.42543,-4.85091 1.47003,-4.58215 2.59258,-7.86104 -3.63814,-4.04242 -4.71762,0.63158 -1.38026,-7.20391 -6.16647,-9.04935 0.98465,-6.074 1.97613,-12.74004 -6.05422,-12.39081 -6.20133,-5.14937 2.73449,-14.18422 -7.98849,-15.20056 -9.86023,7.89731 -6.93133,1.57168 -11.8885595,-5.14614 -8.36959,2.14808 7.5621395,-8.88632 -5.93574,-13.24765 -5.08855,-4.90646 4.68151,-9.96987 -2.90142,-12.79429 1.36543,-7.41488 0.98813,-14.754757 -0.2431,-21.57436 1.89815,-8.259422 4.1097,-16.506773 12.8354695,-20.582173 6.14052,-8.165006 15.60799,0.359903 16.21538,7.712128 3.85416,3.117701 8.08462,5.812439 12.11378,8.114954 2.69458,1.539847 6.08227,9.302554 12.67611,0.08043 4.6862,-4.193905 5.88839,-4.962737 11.18763,0.697949 9.07518,-3.152375 7.65878,6.473782 7.44013,11.714116 -7.97093,3.385066 8.9934,2.925976 10.88764,5.549586 5.56167,-5.640996 6.35603,5.97611 15.60134,-2.57519 3.915825,-3.985464 7.841855,-8.285135 12.280935,-1.66235 9.6885,0.11118 8.43534,-11.023491 14.42623,-15.855858 -1.68903,-14.391133 5.47961,-17.93662 2.91976,-24.852969 -0.8958,-7.995605 9.15799,-7.468792 7.99478,-16.783952 4.84531,-5.779265 8.94502,-12.018537 14.55272,-16.978151 2.64109,-0.910028 6.82304,7.472734 13.33997,1.212715 6.54262,-1.122413 12.54681,1.735671 12.35631,8.147443 4.14492,5.898774 8.22593,9.161064 6.23882,16.511312 4.43642,3.864125 12.7607,7.259836 8.52966,13.827291 2.69373,5.330171 -3.88085,7.666178 4.2068,9.324691 2.92001,3.588227 5.4227,7.965766 9.09259,10.804346 3.66988,2.83858 3.87086,-0.372961 3.87086,-1.161735 0,1.841145 -6.24515,11.416896 -7.44592,11.416896 -0.50052,0 -2.66501,1.476728 -4.80999,3.281612 -3.8516,3.240879 -3.88988,3.380329 -3.08474,11.238729 0.73302,7.15499 0.55987,8.14974 -1.71778,9.86777 -1.50593,1.13593 -2.80941,3.87817 -3.21475,6.76312 -0.87796,6.24854 -6.31037,24.41295 -8.86926,29.6562 -2.53528,5.19482 -4.33182,6.65393 -8.3796,6.80574 -2.27442,0.0853 -4.11315,1.37536 -6.0419,4.23902 -1.52487,2.26402 -2.46779,4.6094 -2.0954,5.21196 0.3724,0.60255 -0.7353,2.77408 -2.46154,4.8256 -1.72624,2.05153 -3.13862,4.80821 -3.13862,6.12596 0,3.91408 -4.55711,11.66492 -8.51562,14.48364 -2.02898,1.44475 -3.68904,3.43047 -3.68904,4.41271 0,2.80413 -3.16538,3.31101 -6.60454,1.05761 -3.6219,-2.37317 -6.82058,-1.63955 -6.82058,1.5643 0,4.42907 -7.82788,17.9547 -11.36157,19.63141 -1.88575,0.89475 -4.02095,2.92696 -4.74498,4.51599 -0.724,1.58904 -2.9498,3.45857 -4.94622,4.15453 -2.60054,0.90655 -3.41712,1.81971 -2.87964,3.22033 0.41903,1.09199 -0.31702,3.31155 -1.66717,5.02815 -1.7756,2.25731 -2.10837,3.65052 -1.25351,5.24787 2.35687,4.40384 1.04777,16.17131 -2.21272,19.88995 z"
       sodipodi:nodetypes="cccccccscccccccccccccccccscccccccccccccccsssssssssssssssssssssssc"
       inkscape:label="#path9997" />
  </g>
</svg>
