<?xml version="1.0" encoding="UTF-8" standalone="no"?>
<!-- Created with Inkscape (http://www.inkscape.org/) -->

<svg
   width="210mm"
   height="297mm"
   viewBox="0 0 210 297"
   version="1.1"
   id="svg57"
   inkscape:version="1.1.2 (b8e25be833, 2022-02-05)"
   sodipodi:docname="vector.svg"
   xmlns:inkscape="http://www.inkscape.org/namespaces/inkscape"
   xmlns:sodipodi="http://sodipodi.sourceforge.net/DTD/sodipodi-0.dtd"
   xmlns="http://www.w3.org/2000/svg"
   xmlns:svg="http://www.w3.org/2000/svg">
  <sodipodi:namedview
     id="namedview59"
     pagecolor="#ffffff"
     bordercolor="#666666"
     borderopacity="1.0"
     inkscape:pageshadow="2"
     inkscape:pageopacity="0.0"
     inkscape:pagecheckerboard="0"
     inkscape:document-units="mm"
     showgrid="false"
     inkscape:zoom="0.74029882"
     inkscape:cx="361.34057"
     inkscape:cy="453.87078"
     inkscape:window-width="1920"
     inkscape:window-height="1017"
     inkscape:window-x="-8"
     inkscape:window-y="-8"
     inkscape:window-maximized="1"
     inkscape:current-layer="layer1" />
  <defs
     id="defs54" />
  <g
     inkscape:label="Capa 1"
     inkscape:groupmode="layer"
     id="layer1">
    <path
       inkscape:connector-curvature="0"
       id="Lebu"
       style="fill:#000000;fill-opacity:1;fill-rule:evenodd;stroke:#d39062;stroke-width:0.308354;stroke-linecap:butt;stroke-linejoin:miter;stroke-miterlimit:4;stroke-opacity:1"
       d="m 58.900162,290.73194 c 0.21695,1.50107 0.36764,3.03982 2.50536,2.50537 1.14591,-0.28641 -1.44891,-1.97722 -2.50536,-2.50537 z M 48.242652,255.3483 c -0.70027,0.77113 -3.9213,0.93905 -1.79231,2.2548 1.76128,0.9084 4.00436,2.90391 1.5996,4.54824 -2.06706,2.21408 2.08872,2.11172 2.58246,3.681 0.3787,2.17642 -1.85236,3.64085 -1.75376,5.74308 -0.0564,2.58431 3.41874,1.55523 4.33622,3.50753 0.88614,1.75338 0.61296,3.97594 1.44541,5.82018 1.78253,1.58766 3.4449,1.06366 5.51183,1.86938 1.59043,0.99764 4.03217,3.49759 4.39405,0.19274 -1.48234,-5.07419 2.31928,-1.10914 3.9508,-8.9808 0.0287,-2.14276 -3.55289,-5.33008 -5.22274,-6.07069 -0.77919,-4.86227 -1.59983,-2.05734 -3.14135,-2.94867 0.82442,-2.06183 0.18828,-1.64729 -1.05999,-2.83296 -3.54716,-1.84797 -6.34871,-6.44394 -10.85022,-6.7838 z M 160.02106,38.883597 c -0.0255,-0.0503 -0.0325,-0.10417 -0.0577,-0.15419 -0.17777,-0.35092 -0.35611,-0.6898 -0.44325,-0.98289 -0.0873,-0.2931 -0.0898,-0.54608 0.0771,-0.71305 0.3867,-0.3867 0.58288,-0.70547 0.65526,-1.00217 0.0723,-0.2966 0.0389,-0.56758 -0.0385,-0.84797 -0.0774,-0.28035 -0.18828,-0.56803 -0.2504,-0.90579 -0.0624,-0.33776 -0.0787,-0.72605 0.0386,-1.19488 0.12552,-0.50211 -0.41805,-2.14358 -0.32763,-3.25699 0.0401,-0.49479 0.18191,-0.94285 0.38545,-1.36831 0.20357,-0.42547 0.47051,-0.82007 0.73232,-1.17561 0.52366,-0.71104 1.06761,-1.28774 1.19488,-1.71521 -0.16407,-1.52598 -0.13858,-2.73863 0,-3.70024 0.13858,-0.96164 0.37949,-1.66297 0.67453,-2.17777 0.29501,-0.51479 0.63879,-0.83596 0.94435,-1.0214 0.30552,-0.18542 0.5815,-0.2383 0.7516,-0.21218 -1.70799,-0.77036 -4.55226,-2.42661 -5.55038,-3.16062 -1.30769,-0.96171 -1.71847,-1.26102 -2.04285,-1.36832 -0.32438,-0.10736 -0.54971,-0.0223 -1.50323,-0.21185 -1.29876,-0.25965 -2.91898,-0.33493 -4.14351,-0.59744 -0.61225,-0.13126 -1.11721,-0.2966 -1.44541,-0.57816 -0.16407,-0.14082 -0.28704,-0.30425 -0.34691,-0.5011 -0.0599,-0.19689 -0.0663,-0.42815 0,-0.69378 0.1131,-0.45267 0.45953,-1.52751 0.55889,-2.54394 0.0497,-0.50821 0.0433,-1.0115 -0.0962,-1.40686 -0.0698,-0.19753 -0.16789,-0.36335 -0.30839,-0.50107 -0.14049,-0.13763 -0.31316,-0.25168 -0.53961,-0.30839 -0.34605,-0.0867 -0.82679,-0.3606 -1.36834,-0.71308 -0.54153,-0.35248 -1.1614,-0.77056 -1.79229,-1.15633 -0.63092,-0.38577 -1.27452,-0.73866 -1.88868,-0.92507 -0.30711,-0.093 -0.60352,-0.13508 -0.88652,-0.13476 -0.2829,2.6e-4 -0.54452,0.0507 -0.79015,0.17331 -0.48255,0.24117 -0.75564,0.41693 -0.92507,0.57817 -0.16948,0.1612 -0.24721,0.31093 -0.30838,0.48182 -0.0612,0.17076 -0.11214,0.3658 -0.26984,0.63599 -0.1577,0.27015 -0.40807,0.60078 -0.86725,1.05995 -0.60731,0.60732 -0.92306,1.04403 -1.1756,1.50323 -0.25263,0.45918 -0.4498,0.95744 -0.80942,1.67667 -0.24021,0.48052 -0.50263,0.82159 -0.79018,1.05996 -0.28768,0.2383 -0.5924,0.3657 -0.96359,0.44327 -0.74239,0.15515 -1.69221,0.0771 -2.98718,0.0771 -0.44127,0 -2.07882,0.11118 -3.62318,0.11564 -0.77218,0.002 -1.51046,-0.0398 -2.08139,-0.11564 -0.57093,-0.0758 -0.96974,-0.19816 -1.02141,-0.40473 -0.12011,-0.48087 -0.25901,-0.84695 -0.40473,-1.11778 -0.14591,-0.27079 -0.30743,-0.44117 -0.48179,-0.53961 -0.17426,-0.0984 -0.35331,-0.11342 -0.55889,-0.0771 -0.16566,0.0287 -0.35206,0.11756 -0.53961,0.21186 -0.0382,2.28831 3.52836,6.05956 0.88652,6.62964 -0.82086,0 -1.86941,1.84054 -1.86941,2.197 0,1.2332 0.55267,2.13298 1.56105,3.14135 1.37863,2.22527 -0.13986,3.2254 1.86938,5.31912 -0.1526,3.02695 -2.93491,2.26229 -1.56102,6.26346 0.19306,0.77176 -0.81054,2.67991 -1.2527,3.12207 -2.97008,0.11055 -3.65863,1.51458 -5.82018,4.68313 -1.26898,1.82723 -4.19784,1.51834 -3.89299,4.41333 0.16121,0.64519 0.0475,1.60839 1.2527,2.81372 -0.16662,4.3785 -0.69371,8.76191 -5.9551,7.2078 -0.60075,1.69161 0.68973,4.70368 -0.92507,6.57178 -1.23365,1.23365 0.53439,1.3771 1.2527,2.81372 3.0855,3.48156 2.76195,8.23889 4.06642,12.52692 0.88171,2.06521 0.31444,3.31144 -0.30839,5.33836 0.4522,1.80878 1.2527,1.11898 1.2527,2.19704 0,0.57962 -3.39176,0.77093 0.94434,2.50536 1.17124,0.46847 -2.32141,0.99691 -3.44971,1.56105 7.503,8.01688 14.28779,16.212633 20.54408,25.188693 0.65351,-0.17394 1.22027,-0.32107 1.58033,-0.5011 0.47803,-0.23893 0.70215,-0.48727 1.05995,-0.6745 0.3578,-0.18733 0.85323,-0.30839 1.90796,-0.30839 0.3428,0 0.6185,-0.0838 0.84797,-0.21185 0.22938,-0.12807 0.41365,-0.3068 0.55889,-0.52038 0.29055,-0.42731 0.44971,-0.97018 0.57816,-1.48395 0.16567,-0.66256 0.34117,-2.15486 0.73233,-3.71952 0.16757,-0.67042 0.29596,-1.15084 0.3469,-1.59957 0.051,-0.44875 0.0287,-0.85049 -0.0962,-1.34907 -0.0513,-0.20548 0.0128,-0.42425 0.1542,-0.63598 0.14017,-0.21186 0.35366,-0.41837 0.59743,-0.61671 0.48756,-0.39667 1.08917,-0.75756 1.46469,-0.98286 0.52066,-0.31253 0.72194,-0.5696 0.90579,-0.86725 0.18382,-0.29755 0.35573,-0.625543 0.8287,-1.098503 0.52126,-0.52127 0.88671,-0.74953 1.21415,-1.04072 0.32744,-0.29118 0.61015,-0.64213 1.00213,-1.42613 0.1577,-0.31572 0.15515,-0.75221 0.11565,-1.19488 -0.0395,-0.44263 -0.11565,-0.90751 -0.11565,-1.29121 0,-1.06432 0.48552,-2.88639 0.75163,-3.95081 0.11692,-0.46771 0.0898,-0.99279 0.11565,-1.54177 0.0255,-0.54895 0.0924,-1.10995 0.36618,-1.6574 0.37895,-0.75787 0.64869,-1.24572 0.71308,-1.63812 0.0322,-0.19624 0.0159,-0.36681 -0.0577,-0.53964 -0.0726,-0.17268 -0.20995,-0.3449 -0.40473,-0.53962 -0.27112,-0.27111 -0.40922,-0.50597 -0.46252,-0.73232 -0.0532,-0.22652 -0.0191,-0.45373 0.0577,-0.67454 0.15643,-0.44159 0.49145,-0.90589 0.65526,-1.56105 0.16822,-0.67291 0.18351,-1.25525 0.1542,-1.71522 -0.0287,-0.45997 -0.10322,-0.79795 -0.1542,-1.00213 -0.13858,-0.55411 -0.25359,-0.98563 -0.52037,-1.36835 -0.26665,-0.38268 -0.69438,-0.71337 -1.46468,-1.0985 -0.36984,-0.18478 -0.64118,-0.40915 -0.84797,-0.65526 -0.20676,-0.24595 -0.33783,-0.52598 -0.4047,-0.80942 -0.0669,-0.28354 -0.0691,-0.57023 -0.0191,-0.86725 0.0497,-0.29692 0.14559,-0.59976 0.28895,-0.88652 0.36156,-0.72312 0.80343,-1.1742 1.32976,-1.56102 0.52633,-0.38685 1.14461,-0.7099 1.88869,-1.15636 0.34031,-0.20421 0.57657,-0.4327 0.7516,-0.6745 0.1749,-0.2418 0.2743,-0.49164 0.32763,-0.75163 0.10672,-0.51996 0.0223,-1.06601 -0.0962,-1.54175 -0.0564,-0.22587 -0.18797,-0.40189 -0.36615,-0.55889 -0.17809,-0.15706 -0.39797,-0.28991 -0.61671,-0.424 -0.21887,-0.13412 -0.43853,-0.26697 -0.61671,-0.424 -0.17809,-0.15706 -0.32897,-0.33295 -0.38546,-0.55889 -0.087,-0.3477 -0.50648,-0.83755 -0.94434,-1.27194 -0.43783,-0.43442 -0.88378,-0.80668 -1.02141,-0.94434 -0.82914,-0.82915 -0.87763,-0.90729 -0.75163,-0.98289 0.0631,-0.0379 0.18319,-0.0771 0.25041,-0.21186 0.0675,-0.13476 0.0844,-0.3679 0,-0.79015 -0.16025,-0.8019 -0.39944,-1.54535 -0.79015,-2.17777 -0.19529,-0.31635 -0.41728,-0.61018 -0.69378,-0.86724 -0.27653,-0.2571 -0.60948,-0.46854 -0.98289,-0.65526 -0.33511,-0.16757 -0.58004,-0.41021 -0.77087,-0.6745 -0.19083,-0.26443 -0.3189,-0.5623 -0.424,-0.86725 -0.21027,-0.60992 -0.32155,-1.24053 -0.53962,-1.6767 -0.29182,-0.58351 -0.66857,-1.05355 -1.00216,-1.48395 -0.33356,-0.43038 -0.61009,-0.82153 -0.71305,-1.2334 -0.58346,-2.33371 -0.5011,-1.61199 -0.5011,-2.21631 0,-0.26028 0.14591,-0.37169 0.36618,-0.38542 0.22046,-0.0127 0.52349,0.0695 0.84797,0.21186 0.64895,0.28513 1.38558,0.7881 1.75376,1.15632 0.56408,0.56405 1.789,2.84568 2.21632,3.70024 0.22969,0.45924 0.64032,0.87117 1.0985,1.27197 0.45819,0.40078 0.96072,0.80653 1.36831,1.21415 0.29724,0.29724 0.54876,0.46746 0.75163,0.53962 0.20294,0.072 0.36969,0.0334 0.46252,-0.0771 0.0927,-0.11055 0.12935,-0.30807 0.0962,-0.55889 -0.0328,-0.25104 -0.1338,-0.55675 -0.30838,-0.90579 -0.0965,-0.19338 0.12679,-0.53187 0.42397,-0.9058 0.29691,-0.37392 0.66596,-0.77297 0.80945,-1.05995 0.0892,-0.17841 -0.006,-0.36277 -0.17331,-0.53962 -0.16725,-0.17681 -0.41846,-0.34601 -0.6745,-0.53961 -0.25614,-0.1937 -0.51706,-0.40731 -0.69381,-0.63599 -0.17681,-0.22874 -0.26315,-0.46952 -0.19274,-0.75163 0.0854,-0.34165 0.33926,-0.57947 0.6745,-0.73232 0.33528,-0.15292 0.74249,-0.23321 1.13705,-0.23129 0.3946,0.002 0.77731,0.0698 1.04072,0.19274 0.26346,0.12297 0.42444,0.3103 0.36617,0.52034 -0.1287,0.4644 -0.12169,0.81006 0.0191,1.05999 0.14113,0.24976 0.40192,0.39351 0.7516,0.48179 0.69935,0.17649 1.76412,0.0952 2.92936,-0.0577 0.49929,-0.0656 0.80611,-0.23638 0.98289,-0.44324 0.17682,-0.20708 0.21951,-0.4571 0.17331,-0.73236 -0.0921,-0.55051 -0.52187,-1.15785 -0.90579,-1.54178 -0.10513,-0.10513 -0.0771,-0.34209 0.0385,-0.63595 0.11564,-0.29373 0.31189,-0.64163 0.52034,-0.98289 0.41715,-0.68253 0.9014,-1.32537 0.92507,-1.34904 0.46726,-0.46729 0.80464,-0.70728 1.07923,-0.98289 0.27462,-0.27557 0.47268,-0.58014 0.63598,-1.23342 0.0879,-0.35165 0.10068,-0.60553 0.0577,-0.79015 -0.043,-0.18446 -0.13859,-0.31285 -0.26984,-0.44328 -0.26251,-0.26092 -0.6602,-0.53018 -1.02144,-1.25266 -0.0822,-0.16471 -0.0392,-0.31763 0.0771,-0.46255 0.11628,-0.14496 0.31475,-0.26666 0.53961,-0.36618 0.44971,-0.1988 1.02647,-0.29087 1.36834,-0.15419 0.22301,0.0892 0.36816,0.006 0.4818,-0.17331 0.11373,-0.18128 0.19401,-0.4667 0.26984,-0.77091 0.0758,-0.30425 0.14113,-0.62624 0.2504,-0.90579 0.10959,-0.2794 0.26697,-0.50935 0.48179,-0.61672 0.0424,-0.0223 0.35213,0.2434 0.48183,0.30839 z" />
  </g>
</svg>
