<?xml version="1.0" encoding="UTF-8" standalone="no"?>
<!-- Created with Inkscape (http://www.inkscape.org/) -->

<svg
   width="210mm"
   height="297mm"
   viewBox="0 0 210 297"
   version="1.1"
   id="svg64"
   inkscape:version="1.1.2 (b8e25be833, 2022-02-05)"
   sodipodi:docname="vector.svg"
   xmlns:inkscape="http://www.inkscape.org/namespaces/inkscape"
   xmlns:sodipodi="http://sodipodi.sourceforge.net/DTD/sodipodi-0.dtd"
   xmlns="http://www.w3.org/2000/svg"
   xmlns:svg="http://www.w3.org/2000/svg">
  <sodipodi:namedview
     id="namedview66"
     pagecolor="#ffffff"
     bordercolor="#666666"
     borderopacity="1.0"
     inkscape:pageshadow="2"
     inkscape:pageopacity="0.0"
     inkscape:pagecheckerboard="0"
     inkscape:document-units="mm"
     showgrid="false"
     inkscape:zoom="0.74029882"
     inkscape:cx="361.34057"
     inkscape:cy="453.87078"
     inkscape:window-width="1920"
     inkscape:window-height="1017"
     inkscape:window-x="-8"
     inkscape:window-y="-8"
     inkscape:window-maximized="1"
     inkscape:current-layer="layer1" />
  <defs
     id="defs61" />
  <g
     inkscape:label="Capa 1"
     inkscape:groupmode="layer"
     id="layer1">
    <path
       id="Quilpue"
       style="fill:#000000;fill-opacity:1;fill-rule:evenodd;stroke:#d38d5f;stroke-width:1.6637;stroke-linecap:butt;stroke-linejoin:miter;stroke-miterlimit:4;stroke-opacity:1"
       d="m 49.589198,176.69915 -4.68404,-1.48334 c -1.03073,-0.84807 -2.02569,-1.74952 -2.6196,-2.97505 -4.83369,-0.55523 -8.82021,-3.90121 -13.43597,-5.45416 -6.6321,0.42507 -11.70654,-4.4106 -17.40311,-6.93498 -1.135294,-4.2048 -4.8178874,-6.60147 -7.8843924,-9.52194 3.48696,-0.91327 5.181025,-5.03468 -2.469114,-12.69386 l 2.469114,-3.36169 c 1.339302,-2.51898 5.131281,-1.67588 6.5488374,-3.82217 0.746419,-2.86664 0.164055,-5.9594 -0.1221134,-8.79661 -1.58544,-2.48282 -5.358668,-3.04164 -5.715299,-6.41767 -0.118466,-3.03252 1.408075,-6.07051 -0.252526,-8.98293 -0.452171,-3.29945 3.799612,-3.84229 5.35526,-5.93236 1.2114104,-2.401705 2.4025334,-5.189305 5.4605734,-2.768735 2.19228,1.35155 4.42278,2.564565 5.77561,-0.44205 1.56343,-2.74811 4.83294,-1.25005 6.8936,-0.0189 2.47799,1.46385 6.00582,-3.83518 2.41467,-4.7123 l 7.35809,2.55432 c 0.66016,3.28284 0.90222,6.652585 0.72504,9.992585 1.07748,2.30135 0.85845,4.90716 1.6833,7.26712 2.69589,3.11571 -3.52289,4.84202 -1.32582,7.81524 2.32037,2.57199 6.16479,2.72378 8.9522,4.62785 2.86432,1.17925 4.44587,3.6634 5.42682,6.47539 1.26174,2.35285 1.70134,5.75919 4.96216,6.05404 2.81512,0.64112 5.29225,2.17565 8.03996,2.95882 2.90275,-0.12764 5.55544,0.92126 7.66526,2.91556 2.57515,0.97848 2.53641,2.54734 5.7013,2.06719 2.53425,0.16663 6.28625,1.72857 8.45221,0.35213 1.89075,-1.74889 6.04071,-0.2182 7.05138,-1.99443 1.01067,-1.77649 0.63616,5.26501 2.8745,5.25445 2.23841,-0.0126 6.085602,0.58604 4.223282,3.6766 0.63377,3.25417 5.54244,2.53067 5.85364,5.82955 1.51478,-2.02701 1.15668,-5.88728 4.93369,-4.63093 3.36874,0.43387 7.05056,2.20369 7.92969,5.78453 0.64578,1.66487 2.32468,8.53591 4.15461,4.51649 0.14337,-3.07868 2.13447,-5.47164 5.40996,-4.82649 0.49423,-1.4663 -3.33177,-5.89797 1.16554,-5.20497 3.30234,-0.75544 6.20118,1.81982 9.27821,1.27741 1.84195,-2.8789 6.48395,-1.1226 8.05998,-2.72956 -3.36484,-2.48005 -0.38231,-6.19092 1.09021,-8.8793 1.66683,-2.49779 4.36501,-5.56256 6.53664,-1.69405 3.05484,0.73393 6.43194,-3.85776 9.81533,-3.92184 4.04125,-1.20654 1.33533,-4.06721 5.46982,-5.38316 3.92164,-2.99718 4.8932,3.55323 8.5327,2.90833 2.16239,-1.01363 7.5536,-2.42485 7.85926,-3.1796 l 5.23006,-5.10001 c 2.14503,1.79271 5.3155,2.47232 4.78712,5.67361 -3.09879,9.52407 -0.30497,8.54176 0.31,17.68578 3.15344,3.30284 0.19304,5.10907 1.50705,8.37739 2.21438,1.2178 2.97297,3.43948 3.98924,5.23037 1.54786,2.72774 2.86884,5.24269 4.38815,7.93421 3.46293,3.04491 -2.02619,1.83881 -1.28539,5.8066 0.22511,2.40246 0.0503,3.48582 -3.32441,5.36336 -6.12214,-1.12876 -5.69229,2.8745 -9.30827,1.77297 1.66167,8.67123 -1.41191,6.16137 -5.23037,1.81736 -2.08064,1.696 -4.12487,0.18801 -6.20551,-0.75355 -1.48536,1.72228 -0.80858,5.60236 -1.06381,8.55477 -5.01343,5.82144 -8.49189,3.99415 -11.43588,-0.53196 -4.6679,0.0126 -12.0748,-2.70517 -11.7018,2.3492 -2.01065,3.83292 -5.79798,5.0211 -11.96778,2.61518 l -4.96445,-2.08322 c -5.58941,4.04256 -6.40792,1.78863 -8.02281,0.53197 l -5.23036,-0.53197 c -2.14189,1.94117 -4.61937,3.41993 -8.82076,2.61512 0.15594,2.781 -1.92457,4.21611 -5.23037,4.92012 2.83375,-1.69386 4.48203,3.73709 -17.446282,-5.45095 -6.53739,-1.49259 -9.36712,-7.39055 -14.57221,-10.94435 -4.99488,-6.05787 -13.74229,-1.87231 -20.19744,-4.41104 2.6947,-4.4892 -7.48136,-3.02139 -7.36047,-7.64075 4.10149,-3.89982 -3.29035,-1.01425 -5.054,0.63176 z"
       sodipodi:nodetypes="cccccccccccccccccccccccccccccccccccccccccccccccccscccccccccccccccccccc" />
  </g>
</svg>
