<?xml version="1.0" encoding="UTF-8" standalone="no"?>
<!-- Created with Inkscape (http://www.inkscape.org/) -->

<svg
   width="210mm"
   height="297mm"
   viewBox="0 0 210 297"
   version="1.1"
   id="svg57"
   inkscape:version="1.1.2 (b8e25be833, 2022-02-05)"
   sodipodi:docname="vector.svg"
   xmlns:inkscape="http://www.inkscape.org/namespaces/inkscape"
   xmlns:sodipodi="http://sodipodi.sourceforge.net/DTD/sodipodi-0.dtd"
   xmlns="http://www.w3.org/2000/svg"
   xmlns:svg="http://www.w3.org/2000/svg">
  <sodipodi:namedview
     id="namedview59"
     pagecolor="#ffffff"
     bordercolor="#666666"
     borderopacity="1.0"
     inkscape:pageshadow="2"
     inkscape:pageopacity="0.0"
     inkscape:pagecheckerboard="0"
     inkscape:document-units="mm"
     showgrid="false"
     inkscape:zoom="0.74029882"
     inkscape:cx="361.34057"
     inkscape:cy="561.93525"
     inkscape:window-width="1920"
     inkscape:window-height="1017"
     inkscape:window-x="-8"
     inkscape:window-y="-8"
     inkscape:window-maximized="1"
     inkscape:current-layer="layer1" />
  <defs
     id="defs54" />
  <g
     inkscape:label="Capa 1"
     inkscape:groupmode="layer"
     id="layer1">
    <path
       inkscape:connector-curvature="0"
       id="Concepcion"
       style="fill:#000000;fill-opacity:1;fill-rule:evenodd;stroke:#d39062;stroke-width:1.15845;stroke-linecap:butt;stroke-linejoin:miter;stroke-miterlimit:4;stroke-dasharray:none;stroke-opacity:1"
       d="m 16.644534,101.20383 -15.63908,20.4176 c 3.15376,0.73607 6.20687,1.63277 9.19522,3.83742 12.11022,9.96864 19.68524,21.78395 24.61708,35.69462 l 24.03778,3.6926 v 6.66108 l 5.14058,0.94075 -1.23087,2.09967 h 7.31279 l 7.89183,-8.47112 h 4.85105 l 1.52051,16.36307 5.71974,0.28965 3.62019,-4.27177 18.245506,2.17209 0.28964,-8.54353 11.80166,0.36146 -0.57928,18.1731 4.27176,11.22249 3.90983,-0.28964 10.93285,-5.21299 c 0.85457,2.04905 1.67886,4.10516 2.53402,6.15421 0.41412,0.99101 0.92279,1.74456 1.52051,2.31691 0.59724,0.57211 1.31333,1.00537 2.02727,1.30328 1.42775,0.59604 2.99901,0.79592 4.48899,1.15857 1.48999,0.36265 2.8956,0.88928 3.90971,2.17209 0.50748,0.64152 0.94434,1.44666 1.23087,2.53414 0.28725,1.08676 0.43447,2.44916 0.43447,4.12694 0,1.79005 0.62596,3.33078 1.66521,4.70623 1.04008,1.37533 2.47166,2.55712 3.98224,3.62007 3.02103,2.12601 6.40112,3.7224 7.89195,5.21311 1.71811,1.71811 3.08015,2.69931 4.27176,3.1133 1.19089,0.41412 2.25168,0.27289 3.25813,-0.14482 2.01279,-0.83542 3.99134,-2.87082 7.31267,-4.19935 1.47909,-0.59126 4.09462,-0.94433 6.87831,-1.4481 2.78358,-0.50269 5.69653,-1.1466 7.89196,-2.2445 1.49393,-0.74685 3.04855,-1.32613 4.56128,-1.73762 0.5374,-0.14602 1.05924,-0.12567 1.59292,-0.21663 0.0718,-2.15294 0.6511,-6.37312 0.6511,-9.99163 0,-3.25131 0.21903,-4.73244 -0.14482,-5.9371 -0.36385,-1.20453 -1.2542,-2.12313 -3.47524,-4.34417 -0.74206,-0.74206 -1.1885,-1.57748 -1.4481,-2.46161 -0.25972,-0.88449 -0.37582,-1.82643 -0.50628,-2.75138 -0.13166,-0.92518 -0.29443,-1.88675 -0.6511,-2.75125 -0.35667,-0.86415 -0.87252,-1.61387 -1.81003,-2.31691 -2.04031,-1.53021 -3.23815,-2.83576 -3.6926,-4.19936 -0.45481,-1.36372 -0.19389,-2.79805 0.72411,-4.63382 0.49551,-0.98981 0.69299,-1.95282 0.6523,-2.82378 -0.0359,-0.87133 -0.3459,-1.6475 -0.72411,-2.3892 -0.75643,-1.48353 -1.98981,-2.71392 -2.89608,-3.62019 -1.38646,-1.38646 -2.59075,-2.39542 -3.6926,-3.47536 -1.10232,-1.07958 -2.07418,-2.26593 -2.89607,-3.90971 -0.46798,-0.93596 -0.56253,-1.9217 -0.36146,-2.8962 0.20108,-0.97426 0.69778,-1.94085 1.30328,-2.82367 1.2104,-1.76574 2.95927,-3.21731 4.19935,-3.83741 2.12565,-1.06283 3.63694,-2.23241 4.77864,-3.47537 1.14182,-1.24283 1.94851,-2.52133 2.60655,-3.8373 0.90484,-1.80931 1.93284,-3.07584 3.33055,-3.90983 1.39759,-0.83422 3.10505,-1.23074 5.43022,-1.23074 l -2.17209,-34.53641 c -1.794,0.32914 -3.16921,0.35427 -4.19947,0.14482 -1.03051,-0.20945 -1.70016,-0.70975 -2.02727,-1.30328 -0.32675,-0.59365 -0.31598,-1.27718 0,-2.09967 0.31597,-0.82226 0.91321,-1.78167 1.81015,-2.67897 1.5417,-1.54169 2.78621,-2.51918 3.76489,-3.54765 0.97904,-1.02812 1.6761,-2.070239 2.09968,-3.765009 0.29922,-1.19867 0.20706,-2.0372 -0.21664,-2.60643 -0.42369,-0.56972 -1.16456,-0.85338 -2.02738,-1.01376 -1.72673,-0.31956 -4.0148,-0.0718 -5.79216,-0.0718 -4.47834,0 -7.51146,1.4481 -11.80178,1.4481 -0.69658,0 -1.12865,-0.45003 -1.5928,-0.86893 l -0.14482,0.94074 -6.15421,-3.76489 -9.91921,7.45749 -7.3852,-7.45749 -12.30841,4.99576 -32.14697,-32.14697 -6.15433,7.45748 -24.689366,7.3852 -8.61594,7.38507 -1.23086,-6.15421 -13.61182,11.07767 -6.1542,-7.38519 -8.61594,2.46173 -7.3852,-7.38507 -25.92023,22.227629 z" />
  </g>
</svg>
