<?xml version="1.0" encoding="UTF-8" standalone="no"?>
<!-- Created with Inkscape (http://www.inkscape.org/) -->

<svg
   width="210mm"
   height="297mm"
   viewBox="0 0 210 297"
   version="1.1"
   id="svg1283"
   inkscape:version="1.1.2 (b8e25be833, 2022-02-05)"
   sodipodi:docname="vector.svg"
   xmlns:inkscape="http://www.inkscape.org/namespaces/inkscape"
   xmlns:sodipodi="http://sodipodi.sourceforge.net/DTD/sodipodi-0.dtd"
   xmlns="http://www.w3.org/2000/svg"
   xmlns:svg="http://www.w3.org/2000/svg">
  <sodipodi:namedview
     id="namedview1285"
     pagecolor="#ffffff"
     bordercolor="#666666"
     borderopacity="1.0"
     inkscape:pageshadow="2"
     inkscape:pageopacity="0.0"
     inkscape:pagecheckerboard="0"
     inkscape:document-units="mm"
     showgrid="false"
     inkscape:zoom="0.52347032"
     inkscape:cx="155.69173"
     inkscape:cy="611.30496"
     inkscape:window-width="1920"
     inkscape:window-height="1017"
     inkscape:window-x="-8"
     inkscape:window-y="-8"
     inkscape:window-maximized="1"
     inkscape:current-layer="layer1" />
  <defs
     id="defs1280" />
  <g
     inkscape:label="Capa 1"
     inkscape:groupmode="layer"
     id="layer1">
    <path
       d="m 48.354417,96.530359 c -6.93348,7.295111 -13.45999,15.071221 -20.64538,22.068521 -1.99303,2.37092 -4.08221,0.59418 -5.29173,-0.5148 -1.72678,-0.86072 -1.50823,-3.18206 -3.98597,-3.39544 -1.54019,1.6021 -4.6447,-0.94678 -2.92424,-2.28826 -1.02895,-3.26945 -1.32363,2.79755 -2.87876,2.80498 -2.8772596,0.069 -0.10425,-1.83611 -2.21441,-2.21444 -0.7330096,-2.49474 -3.1121286,0.15524 -5.5866196,-0.59054 -1.500631,0.7156 -2.684746,1.226 -3.84714401,2.59856 -2.19344299,0.71689 0.93459901,2.84733 1.20449501,2.75196 1.564595,-1.53159 1.550518,1.13499 3.016763,-1.36454 1.787814,2.56147 2.171249,-0.88413 2.924266,-0.11937 2.8957596,-0.63945 1.78251,3.01504 3.3954496,2.92428 -0.1554,0.96475 -1.31932,2.568 -1.10721,3.98594 0.32652,1.2218 1.06304,1.58986 2.21441,2.80494 0.16884,2.97698 2.23805,1.79384 2.28824,3.39548 2.04849,-1.66977 1.52574,2.79294 3.74735,2.28819 1.01279,1.02499 2.1361,1.2295 3.51478,0.59053 -0.41079,2.95638 3.1271,0.69587 3.51475,1.57845 0.15948,0.6873 -0.73653,1.70397 -1.10722,3.27611 0.5986,2.51978 3.03841,2.24016 2.80496,4.7413 1.14216,0.9201 1.75864,3.29318 2.16892,3.98595 0.56146,1.68068 2.25965,1.98253 3.98597,3.39547 1.58287,-1.71281 3.68799,-2.28946 5.68367,-1.69775 1.03269,1.178 3.56621,1.24486 4.50269,2.28825 1.99305,1.01231 3.13614,1.51691 4.97658,2.59855 2.26667,0.70094 5.43442,-0.25358 6.43631,0.79692 2.50052,-0.56947 3.63606,0.91577 5.09316,1.69773 0.61308,1.19136 3.50473,1.69147 4.57648,2.75942 2.04846,0.30305 1.54993,1.57909 3.75008,1.43297 2.74452,-0.87974 4.33032,0.66537 7.02681,0.31027 0.85138,-0.0278 3.02265,-0.68996 3.98597,-0.0455 0.55395,2.116 3.46948,1.1503 2.80491,4.03143 -1.86298,1.69497 0.75039,4.17146 0,6.69385 1.54524,0.73943 1.0707,4.25832 2.28826,5.14477 -0.0445,2.60545 4.70395,-0.10359 5.40346,2.09783 2.2603,0.45177 1.95081,2.88225 2.49464,4.22186 1.38975,1.13224 5.31647,0.63606 7.21662,0.59051 1.702433,0.42156 3.476503,0.8481 4.667463,2.21443 1.26877,0.65038 1.92421,1.91413 3.46926,2.28826 0.3167,2.80525 2.63127,1.81158 4.24537,3.13812 1.7109,1.56759 4.38218,0.43319 4.2433,3.06223 0.92093,1.75957 2.87928,2.06733 3.86664,3.46929 0.26719,1.31741 1.75348,3.29067 2.80497,3.91216 3.23683,0.9624 3.04572,-2.46375 3.51475,-4.21856 2.28433,-1.93101 -2.01114,-4.61034 0.35461,-5.17088 2.39068,-0.48282 4.50554,-1.55812 4.61925,-3.60189 2.16078,0.33949 3.99398,1.00653 6.3935,1.10725 1.95542,-0.92767 3.97877,-1.91262 6.20042,-2.28826 1.97789,-0.94699 1.6996,-2.11891 3.39544,-3.39544 2.48809,-0.41912 4.4615,-1.85225 6.74539,0 1.73935,1.09915 3.18009,2.21722 3.44097,3.82112 -2.19261,2.93696 4.69315,3.00613 4.10528,1.86258 -0.0315,-1.91302 4.76264,-0.74714 5.30707,0.33318 1.46699,1.14195 2.50918,1.69429 4.67027,2.15432 2.70165,-1.15756 -2.24539,-3.54289 -1.82219,-5.69347 -1.19628,-3.52854 5.95342,2.28553 4.79063,-2.19359 -0.24431,-2.69894 4.4696,-4.18136 2.28825,-7.07505 -1.73022,-2.96142 1.13236,-5.51037 0.51672,-8.5564 -0.61639,-2.88964 1.99824,-4.98406 0.5905,-7.78486 0.8533,-2.42525 2.21388,-4.88034 3.57524,-7.18591 0.87352,-2.3309 0.9876,-4.93331 3.21564,-7.10573 1.43422,-2.24944 4.81469,0.23658 6.53768,1.57956 2.81635,-0.87293 4.54404,0.63983 5.50121,3.44196 0.91521,3.60368 4.49858,0.76426 5.7813,-0.86651 4.12597,-0.52015 7.40282,-4.45358 6.53851,-8.67987 1.02307,-1.99939 0.22327,-5.25394 -1.57842,-5.66149 -2.42924,-0.81066 -4.16558,-1.37763 -7.16501,-1.10722 -2.78969,0.20997 -3.47207,-1.68749 -6.55833,-1.18101 -1.17318,1.24174 -3.60477,1.50547 -4.43494,0 -1.23704,2.13905 -3.03291,-2.20856 -3.98597,-2.21444 -3.17798,0.58231 -4.38843,-0.89996 -7.14278,-1.18103 -2.31389,0.16977 -4.02256,-1.10292 -5.803,-1.69772 -2.51815,0.33101 -4.2698,-0.64209 -5.72922,-1.69776 -2.95316,0.30028 -5.27602,-0.92099 -8.27219,-0.51668 -2.08546,-1.51573 -5.00414,-0.0217 -6.01945,0.98791 -2.14931,0.45697 -2.94283,-1.40756 -4.85452,-1.57841 -0.86904,-0.74525 -1.75975,-2.33007 -3.04358,-2.87876 -1.69667,-1.69234 -1.95186,-2.56311 -2.87876,-4.50266 -1.2576,-0.57974 -2.84919,-2.25356 -3.86664,-2.80494 -1.64332,-0.34008 -2.98798,-2.26998 -5.09322,-3.39544 -1.02128,-0.76294 -2.64472,-2.51747 -4.62194,-1.18104 -2.90313,0.55024 -3.80794,-1.40552 -5.6837,-1.69772 -0.43028,-1.63244 -3.67475,-1.40734 -4.92836,-2.28826 -1.74312,-1.00727 -2.14146,-1.7287 -3.89349,-2.54761 -1.30062,-0.90052 -2.85469,-1.56592 -4.12396,-2.54555 -2.03684,-0.49389 -3.49353,-1.372701 -4.03146,-2.804941 -1.18651,0.83821 -2.94092,1.35517 -4.57648,0 -2.168893,-0.22049 -5.180003,-1.48827 -4.502663,2.288221 -2.40821,-0.10638 -2.26194,3.27796 -4.92837,2.80494 -2.1152,1.16518 -1.07985,3.06094 -3.04355,1.10722 0.6324,-3.53454 -3.64785,-2.92851 -5.79694,-3.39544 -2.45272,-0.38049 -4.60314,0.89842 -6.08714,1.69772 -1.75564,0.6869 -1.8538,2.77204 -3.27617,3.39544 -0.67415,1.67571 -2.50998,2.83114 -2.92425,3.98598 -2.1717,0.43808 -3.59138,1.6282 -6.64832,1.18104 -2.38693,-0.0594 -4.02321,-0.2842 -5.05225,-2.03094 -0.77042,-2.32449 -2.34652,-2.68585 -1.95504,-5.49205 0.80688,-1.34976 0.45882,-3.951281 -1.10722,-4.434911 -1.03681,-1.53617 -3.0905,-2.00471 -5.39957,-2.21444 -0.7741,-0.0247 -1.52989,0.23193 -1.98185,-0.59053 z"
       style="fill:#000000;fill-opacity:1;stroke:#d39062;stroke-width:0.409106;stroke-miterlimit:4;stroke-dasharray:none;stroke-opacity:1"
       id="Lago_Ranco" />
  </g>
</svg>
