<?xml version="1.0" encoding="UTF-8" standalone="no"?>
<!-- Created with Inkscape (http://www.inkscape.org/) -->

<svg
   width="210mm"
   height="297mm"
   viewBox="0 0 210 297"
   version="1.1"
   id="svg57"
   inkscape:version="1.1.2 (b8e25be833, 2022-02-05)"
   sodipodi:docname="vector.svg"
   xmlns:inkscape="http://www.inkscape.org/namespaces/inkscape"
   xmlns:sodipodi="http://sodipodi.sourceforge.net/DTD/sodipodi-0.dtd"
   xmlns="http://www.w3.org/2000/svg"
   xmlns:svg="http://www.w3.org/2000/svg">
  <sodipodi:namedview
     id="namedview59"
     pagecolor="#ffffff"
     bordercolor="#666666"
     borderopacity="1.0"
     inkscape:pageshadow="2"
     inkscape:pageopacity="0.0"
     inkscape:pagecheckerboard="0"
     inkscape:document-units="mm"
     showgrid="false"
     inkscape:zoom="0.74029882"
     inkscape:cx="361.34057"
     inkscape:cy="561.93525"
     inkscape:window-width="1920"
     inkscape:window-height="1017"
     inkscape:window-x="-8"
     inkscape:window-y="-8"
     inkscape:window-maximized="1"
     inkscape:current-layer="layer1" />
  <defs
     id="defs54" />
  <g
     inkscape:label="Capa 1"
     inkscape:groupmode="layer"
     id="layer1">
    <path
       inkscape:connector-curvature="0"
       id="Coronel"
       style="fill:#000000;fill-opacity:1;fill-rule:evenodd;stroke:#d39062;stroke-width:0.490408;stroke-linecap:butt;stroke-linejoin:miter;stroke-miterlimit:4;stroke-opacity:1"
       d="m 8.1386617,140.91606 c -0.304968,-0.0152 -0.738408,0.0897 -1.348623,0.30654 -1.66273,-0.0922 -1.52155,2.26438 -2.94245,2.91181 -1.060582,1.86689 -0.797831,3.99235 0.09191,5.85428 -0.614729,2.4443 -0.457477,5.75836 -0.919519,7.38676 0.551556,2.86525 -3.35112401,6.00785 -2.69724501,7.32546 2.60718801,2.21665 2.79988201,7.4576 3.61676401,8.36759 4.231938,2.58556 3.640486,7.98327 6.1913983,11.2794 0.854655,2.26241 3.792221,0.58541 3.003753,-1.47123 0.08071,-3.03732 1.180903,-5.9731 1.440574,-8.36759 3.115829,-4.59929 6.186007,-3.70319 9.746859,-2.36009 2.175922,0.83251 5.719993,4.44587 8.061091,4.90405 0.91782,0.13073 1.44341,-0.75084 1.37927,-1.56314 -1.52969,-1.13936 -6.111627,-2.77572 -5.854251,-5.08798 1.478336,-2.21807 0.619238,-3.36402 -0.950168,-4.65888 -3.951017,-4.09556 -10.249293,-4.61915 -14.405737,-8.24502 -1.362166,-1.21582 -5.2694023,-1.84359 -3.0956993,-4.19912 1.3747013,-1.37902 3.0749353,-4.32123 0.5517083,-5.48643 -4.0122643,-1.6657 0.265143,-6.79979 -1.8696823,-6.89636 z M 178.43287,128.13482 c -0.28728,0.19254 -0.59681,0.3567 -0.82755,0.58233 -0.35518,0.34707 -0.68563,0.73295 -1.04213,1.04212 -0.3567,0.30908 -0.73554,0.54402 -1.25665,0.67434 -0.63639,0.15909 -1.75579,1.07704 -2.72789,1.93094 -0.97216,0.85395 -1.80787,1.65571 -1.83903,1.6245 -0.51321,-0.51321 -0.82254,-1.22387 -1.16475,-1.90034 -0.342,-0.67641 -0.69946,-1.33053 -1.34861,-1.6551 -0.56799,-0.28374 -0.98934,-0.57822 -1.28731,-0.91952 -0.29793,-0.34149 -0.48033,-0.7215 -0.64368,-1.13409 -0.3263,-0.82517 -0.50668,-1.81009 -1.10344,-3.00377 -0.41345,-0.82699 -1.04365,-1.6285 -1.62445,-2.51331 -0.5808,-0.88481 -1.14002,-1.86284 -1.44058,-3.06508 -0.15504,-0.62073 0.23307,-2.186 0.58237,-3.6474 0.3491,-1.46136 0.65817,-2.79726 0.42916,-2.91176 -0.53414,-0.26702 -1.09214,-0.43068 -1.68581,-0.52107 -0.59362,-0.0907 -1.19808,-0.1064 -1.83901,-0.12261 -1.28188,-0.0304 -2.6483,-0.0203 -4.04587,-0.36785 -1.17726,-0.29438 -2.49474,-0.90183 -3.61676,-1.44058 -1.12201,-0.53875 -2.04268,-1.02156 -2.45204,-1.10344 -0.80669,-0.16112 -1.35298,-0.42054 -1.74707,-0.73559 -0.39409,-0.31515 -0.64316,-0.67215 -0.88887,-1.01147 -0.24574,-0.33948 -0.49669,-0.65453 -0.85821,-0.88886 -0.36152,-0.23409 -0.85225,-0.39825 -1.59383,-0.39825 -1.2636,0 -3.50269,-0.13984 -5.51709,-0.33694 -1.09073,-0.10691 -1.45372,-0.24219 -2.20684,-0.36785 -2.53913,5.44043 -1.49795,17.04106 -3.89261,25.89972 -0.95055,4.01803 -1.61509,5.48694 -2.94245,9.74686 -0.10017,2.37038 -2.70577,3.60099 -2.94245,5.88488 1e-5,1.36007 3.57526,3.29942 4.41367,4.13781 2.27402,2.20323 1.58713,5.45552 2.63595,8.24497 2.98702,2.4474 6.01605,-1.48329 7.96913,-3.24895 2.06684,-0.51671 2.35628,1.42538 2.66659,2.66663 -0.83589,2.48317 -0.30542,4.81595 0.27589,7.35612 0.61088,2.44359 1.76746,4.4032 2.36008,6.77374 0.19695,2.2394 0.55066,4.44627 0.98082,6.65117 0.60374,0.1216 1.9618,0.13174 3.52481,0.0304 1.67173,-0.10792 3.42067,-0.3263 4.32172,-0.55172 1.15702,-0.28931 4.80223,-2.45225 5.57841,-3.03437 0.84012,-0.6301 1.40704,-1.46921 1.93099,-2.29884 0.52395,-0.82958 1.0169,-1.62992 1.62445,-2.23748 1.11033,-1.11032 1.47818,-1.92673 2.14557,-2.29878 0.3339,-0.18595 0.73746,-0.25182 1.34862,-0.21433 0.61115,0.0355 1.4273,0.20369 2.57461,0.49047 0.48743,0.1221 0.91531,0.57198 1.28736,1.19534 0.3719,0.62337 0.69567,1.39721 0.95017,2.17617 0.50896,1.55793 0.77055,3.08231 0.7969,3.1877 0.0456,0.17784 -0.19304,0.29286 -0.55172,0.39825 -0.35872,0.10589 -0.85587,0.20773 -1.28731,0.39824 -0.43118,0.19051 -0.80759,0.45652 -0.98082,0.88886 -0.17328,0.4327 -0.13984,1.03828 0.27563,1.86969 0.38102,0.76244 1.71145,1.71413 2.97312,2.57461 1.26162,0.86054 2.46467,1.64072 2.60528,1.9923 0.27917,0.69815 0.72566,1.28979 1.2567,1.83903 0.53105,0.54924 1.13551,1.03265 1.77772,1.47123 1.28432,0.87711 2.67048,1.57379 3.55544,2.23748 0.36025,0.27006 0.96851,0.56591 1.44058,0.85821 0.16366,-0.1287 0.29134,-0.27361 0.45956,-0.39825 0.87918,-0.65285 1.79869,-1.26806 2.14551,-1.96164 0.33491,-0.66947 0.95311,-1.28235 1.6245,-1.99225 0.67135,-0.70995 1.377,-1.52793 1.90034,-2.57467 0.18848,-0.37747 0.1596,-0.7096 -0.0304,-1.04213 -0.19051,-0.33238 -0.53986,-0.66324 -0.91951,-0.98077 -0.75936,-0.63517 -1.70694,-1.26831 -2.08426,-2.02295 -0.17835,-0.35721 -0.22902,-0.65503 -0.18393,-0.91952 0.0456,-0.26448 0.18089,-0.48894 0.39825,-0.67433 0.43523,-0.37139 1.17214,-0.59772 1.9923,-0.73559 1.64021,-0.27563 3.64897,-0.21432 4.38299,-0.21432 2.15438,0 3.79596,-0.38356 6.4366,-0.45956 -0.0456,-2.15185 0.0304,-4.30755 0.27614,-6.58982 1.82408,-2.6573 3.27261,-3.25234 2.97307,-6.19141 -0.11451,-2.89753 -0.62595,-5.93195 -1.19535,-8.82735 -0.59849,-2.50201 1.64127,-4.47541 1.19535,-6.77379 -0.32782,-0.65599 -2.27736,-1.66433 -2.97307,-2.36009 2.90542,-2.62701 5.76996,-5.00484 7.96914,-8.27563 -1.16652,-3.2144 -4.2203,-4.00866 -7.35617,-3.52479 -2.67783,1.32187 -5.3703,1.55463 -8.27562,1.77772 -1.6506,0.41244 -2.46184,1.55828 -4.41365,0.58238 -4.12515,-0.9146 -6.47521,-2.11071 -8.82735,-5.60905 -1.09441,-1.34011 -1.72396,-2.18767 -2.4214,-3.12634 z" />
  </g>
</svg>
