<?xml version="1.0" encoding="UTF-8" standalone="no"?>
<!-- Created with Inkscape (http://www.inkscape.org/) -->

<svg
   width="210mm"
   height="297mm"
   viewBox="0 0 210 297"
   version="1.1"
   id="svg64"
   inkscape:version="1.1.2 (b8e25be833, 2022-02-05)"
   sodipodi:docname="vector.svg"
   xmlns:inkscape="http://www.inkscape.org/namespaces/inkscape"
   xmlns:sodipodi="http://sodipodi.sourceforge.net/DTD/sodipodi-0.dtd"
   xmlns="http://www.w3.org/2000/svg"
   xmlns:svg="http://www.w3.org/2000/svg">
  <sodipodi:namedview
     id="namedview66"
     pagecolor="#ffffff"
     bordercolor="#666666"
     borderopacity="1.0"
     inkscape:pageshadow="2"
     inkscape:pageopacity="0.0"
     inkscape:pagecheckerboard="0"
     inkscape:document-units="mm"
     showgrid="false"
     inkscape:zoom="0.74029882"
     inkscape:cx="361.34057"
     inkscape:cy="561.93525"
     inkscape:window-width="1920"
     inkscape:window-height="1017"
     inkscape:window-x="-8"
     inkscape:window-y="-8"
     inkscape:window-maximized="1"
     inkscape:current-layer="layer1" />
  <defs
     id="defs61" />
  <g
     inkscape:label="Capa 1"
     inkscape:groupmode="layer"
     id="layer1">
    <path
       style="fill:#000000;fill-opacity:1;fill-rule:evenodd;stroke:#d39062;stroke-width:0.260628;stroke-linecap:butt;stroke-linejoin:miter;stroke-miterlimit:4;stroke-dasharray:none;stroke-opacity:1"
       d="m 193.98458,119.83864 c -0.31155,-0.13645 -0.59827,-0.2643 -0.7493,-0.40724 -0.0774,-0.0733 -0.12709,-0.14711 -0.13021,-0.22794 -0.003,-0.0811 0.0377,-0.1679 0.13021,-0.26063 0.0884,-0.0884 0.27477,-0.18869 0.40724,-0.27693 0.13255,-0.0884 0.21858,-0.17231 0.13021,-0.26063 -0.53311,-0.53314 -1.24239,-0.88403 -1.77553,-1.41717 -0.38096,-0.38097 -0.57995,-0.65958 -0.76559,-0.99364 -0.18557,-0.33405 -0.34581,-0.72419 -0.63529,-1.30315 -0.20974,-0.41936 -0.21052,-2.00669 -0.35835,-2.11759 -0.22222,-0.1666 -0.3157,-0.33135 -0.34208,-0.4887 -0.0263,-0.15724 0.005,-0.30993 0.0652,-0.43981 0.059,-0.12995 0.14555,-0.24145 0.17933,-0.32578 0.0338,-0.0842 0.0208,-0.14243 -0.0814,-0.16296 -0.60305,-0.1206 -0.74685,-0.0325 -0.86334,-0.0489 -0.11644,-0.0156 -0.21234,-0.13099 -0.73301,-0.65157 -0.25418,-0.25419 -0.50998,-0.56891 -0.79819,-0.81446 -0.2882,-0.24561 -0.6017,-0.42354 -0.96104,-0.42354 -0.58112,0 -0.98511,0.0346 -1.35202,0.1141 -0.3669,0.0795 -0.69994,0.21156 -1.12397,0.42351 -0.55448,0.27724 -0.69244,0.48485 -0.86333,0.52126 -0.17101,0.0364 -0.37025,-0.0985 -1.07509,-0.52126 -0.50101,-0.3006 -0.99155,-0.56729 -1.35201,-0.92848 -0.18011,-0.18063 -0.31966,-0.38224 -0.42351,-0.63528 -0.10397,-0.25315 -0.16296,-0.5485 -0.16296,-0.91221 0,-0.38008 -0.065,-0.61444 -0.16296,-0.7656 -0.098,-0.15126 -0.23314,-0.22715 -0.39095,-0.29322 -0.15776,-0.066 -0.34156,-0.11955 -0.52126,-0.24431 -0.17959,-0.12475 -0.35768,-0.30811 -0.52126,-0.63528 -0.28429,-0.56859 -0.35443,-0.90147 -0.22794,-1.14025 0.12631,-0.23885 0.44321,-0.39263 0.92848,-0.63528 0.15178,-0.0759 0.28168,-0.19415 0.37465,-0.34206 0.0931,-0.14788 0.14919,-0.31981 0.16296,-0.50499 0.013,-0.18505 -0.0104,-0.38263 -0.0977,-0.57012 -0.086,-0.18739 -0.2334,-0.36636 -0.43981,-0.52124 -0.75377,-0.56534 -1.01487,-0.80671 -1.09139,-1.09138 -0.0764,-0.28468 0.0325,-0.615874 0.0325,-1.384614 0,-0.51952 -0.0619,-0.8759 -0.16296,-1.23797 -0.10084,-0.36207 -0.23209,-0.73303 -0.35838,-1.238 -0.1523,-0.60921 -0.0943,-0.85233 -0.0489,-1.15652 0.0455,-0.30419 0.0756,-0.65893 -0.13021,-1.48233 -0.0897,-0.359 -0.23314,-0.76796 -0.43981,-1.12398 -0.20662,-0.35599 -0.47841,-0.67086 -0.79819,-0.83073 -0.2074,-0.1037 -0.73501,-0.0452 -1.25427,-0.0156 -0.51926,0.0289 -1.03329,0.0418 -1.2217,-0.14659 -0.19649,-0.19648 -0.41473,-0.41683 -0.58639,-0.65157 -0.1718,-0.2347 -0.29322,-0.48787 -0.29322,-0.7656 0,-0.44009 -0.0442,-0.92505 -0.13022,-1.38458 -0.086,-0.45954 -0.20532,-0.8994 -0.39094,-1.27057 -0.31386,-0.62774 -0.6206,-0.82217 -0.79817,-1.00993 -0.0889,-0.0938 -0.14242,-0.18895 -0.16296,-0.32579 -0.0208,-0.13697 -0.005,-0.32064 0.0652,-0.60271 0.0356,-0.14191 -0.18401,-0.79393 -0.50497,-1.23797 -0.16062,-0.22196 -0.35099,-0.39373 -0.53753,-0.42352 -0.18661,-0.0299 -0.36711,0.0827 -0.53756,0.42352 -0.11773,0 -0.30569,-0.10526 -0.35835,0 -0.13359,0.26718 -0.511,0.48846 -0.86335,0.68414 -0.35235,0.19571 -0.68637,0.36732 -0.733,0.55383 -0.086,0.34429 -0.0969,0.5919 -0.0652,0.78189 0.0317,0.18999 0.1167,0.31958 0.21182,0.43981 0.19025,0.24041 0.45289,0.42697 0.57013,0.89591 0.0647,0.25886 0.0722,0.4388 0.0325,0.57012 -0.0395,0.13126 -0.131,0.21494 -0.27693,0.26064 -0.29174,0.0912 -0.80248,0.0489 -1.53117,0.0489 -0.24275,0 -0.50536,-0.0938 -0.78189,-0.22794 -0.27654,-0.13411 -0.56534,-0.29722 -0.83076,-0.43981 -0.26544,-0.14268 -0.5073,-0.26767 -0.71673,-0.29322 -0.20948,-0.026 -0.38011,0.0437 -0.48867,0.26063 -0.059,0.11774 -0.0613,0.29949 -0.17908,0.35838 -0.14762,0.0738 -0.78878,0.13957 -1.40087,0.24431 -0.30607,0.0525 -0.60043,0.10448 -0.83076,0.17908 -0.23027,0.0748 -0.39682,0.16997 -0.42354,0.27692 -0.0515,0.20559 -0.0676,0.64724 -0.13021,1.0588 -0.0626,0.41158 -0.16348,0.78865 -0.39095,0.87961 -0.0824,0.033 -0.55907,0.18869 -0.99363,0.39095 -0.21728,0.1011 -0.42253,0.21104 -0.57012,0.32579 -0.14763,0.11462 -0.23886,0.23313 -0.21183,0.34208 0.0673,0.26916 0.0819,0.4854 0.0489,0.66785 -0.033,0.18245 -0.10812,0.33696 -0.17934,0.4724 -0.1419,0.27087 -0.292,0.4934 -0.21182,0.81446 0.0182,0.0769 0.24795,0.55975 0.35836,1.02623 0.0551,0.23313 0.0788,0.46517 0.0325,0.63528 -0.0463,0.16997 -0.16062,0.27693 -0.39094,0.27693 -0.94202,0 -1.89233,0 -2.83435,0 -0.25835,0 -0.4815,0.0634 -0.66785,0.16295 -0.18635,0.0993 -0.33088,0.22586 -0.4561,0.35836 -0.25055,0.26494 -0.38505,0.53756 -0.45611,0.53756 -0.61246,0 -1.0203,0.0424 -1.35201,0.13021 -0.33172,0.0879 -0.58798,0.2126 -0.94478,0.39094 -0.17465,0.0873 -0.56521,0.45996 -1.02623,0.68415 -0.23053,0.11202 -0.48589,0.18583 -0.733,0.17907 -0.24717,-0.008 -0.48963,-0.0988 -0.71674,-0.32579 -0.0897,-0.0897 -0.16607,-0.53818 -0.29319,-0.89591 -0.0637,-0.17881 -0.14893,-0.332 -0.24431,-0.40722 -0.0954,-0.0751 -0.19987,-0.0769 -0.34206,0.0652 -0.41824,0.41824 -0.85625,0.81729 -1.41718,1.23797 -0.55133,0.41351 -1.19916,0.95795 -1.75923,1.238 -0.35659,0.17829 -1.62026,1.019964 -1.77553,1.058794 -0.28428,0.071 -0.47528,0.16868 -0.60271,0.27693 -0.12736,0.10838 -0.19415,0.22196 -0.24431,0.34208 -0.10007,0.24015 -0.12346,0.48527 -0.39095,0.61899 -0.29439,0.1471 -0.73178,0.0772 -1.12395,0.0489 -0.19597,-0.013 -0.37764,-0.0234 -0.52126,0.0156 -0.14373,0.04 -0.25341,0.11722 -0.29323,0.27691 -0.11747,0.47019 -0.10837,0.78321 -0.16295,1.05882 -0.0546,0.27557 -0.16712,0.52552 -0.53756,0.89591 -0.12372,0.12371 -0.50596,0.30739 -0.86332,0.50496 -0.35737,0.19753 -0.69657,0.40808 -0.73301,0.55383 -0.0613,0.24509 0.10578,0.67853 0.22794,1.0588 0.0611,0.19025 0.1115,0.37769 0.11409,0.50499 0.003,0.12735 -0.0372,0.19545 -0.16295,0.19545 -0.72043,0 -0.93301,0.005 -1.07509,-0.0814 -0.14217,-0.0871 -0.223,-0.26092 -0.70044,-0.61902 -0.25367,-0.19025 -0.20039,-0.59603 -0.34209,-0.87961 -0.10968,-0.2191 -0.37961,-0.39797 -0.70044,-0.55383 -0.32082,-0.15594 -0.68973,-0.2907 -1.02623,-0.40724 -0.33649,-0.11644 -0.64167,-0.22456 -0.79816,-0.32579 -0.0782,-0.0507 -0.11747,-0.0954 -0.1141,-0.14659 0.003,-0.0512 0.0533,-0.10812 0.16296,-0.16296 0.26331,-0.13151 0.60849,-0.24872 0.89592,-0.40721 0.14372,-0.0793 0.28332,-0.1705 0.37465,-0.27693 0.0912,-0.1063 0.14658,-0.22742 0.14658,-0.37465 0,-0.49343 0.19545,-0.90241 0.35836,-1.20541 0.16296,-0.30299 0.28469,-0.49293 0.16296,-0.55382 -0.22638,-0.11332 -0.33226,-0.36654 -0.43981,-0.61901 -0.1076,-0.25237 -0.21338,-0.505754 -0.43981,-0.618994 -0.49948,-0.24977 -0.78382,-0.44893 -0.92848,-0.61899 -0.14477,-0.16997 -0.15386,-0.31536 -0.1141,-0.4398 0.0398,-0.1245 0.12502,-0.22924 0.17908,-0.34209 0.0543,-0.11306 0.0852,-0.23911 -0.0156,-0.37465 -0.24535,-0.32717 -0.68484,-0.45057 -1.10768,-0.58642 -0.2113,-0.0678 -0.42517,-0.12891 -0.60269,-0.22793 -0.17751,-0.099 -0.31578,-0.24067 -0.40724,-0.42354 -0.19181,-0.38336 -0.17881,-0.89386 -0.21182,-1.36829 -0.0156,-0.23729 -0.0418,-0.46169 -0.1141,-0.65158 -0.0722,-0.18999 -0.19935,-0.34398 -0.39092,-0.43981 -0.24977,-0.12501 -0.50047,-0.25704 -0.7656,-0.35835 -0.26515,-0.10136 -0.53522,-0.17933 -0.81448,-0.17933 -0.41003,0 -0.78444,0.27562 -1.15652,0.52126 -0.18609,0.12293 -0.38164,0.23599 -0.57015,0.30949 -0.18843,0.0736 -0.37122,0.0985 -0.57012,0.0489 -0.53883,-0.13463 -0.87832,-0.74493 -1.41715,-0.87964 -0.48311,-0.12085 -1.0078,-0.1653 -1.54749,-0.17907 -0.53969,-0.013 -1.09154,0 -1.62892,0 -0.52085,0 -0.93329,-0.0325 -1.31945,-0.1141 -0.38614,-0.0816 -0.74917,-0.2035 -1.15654,-0.40724 -0.45062,-0.22534 -0.90467,-0.32636 -1.36829,-0.35836 -0.46362,-0.032 -0.94514,0 -1.46604,0 -0.93536,0 -1.94963,0.17908 -2.81805,0.17908 -1.10256,0 -1.79078,0.34208 -2.65514,0.34208 -1.2406,0 -1.93038,0.17907 -2.81806,0.17907 -0.60316,0 -1.25102,0.003 -1.84068,-0.13021 -0.29484,-0.0668 -0.57343,-0.16088 -0.83076,-0.30949 -0.2573,-0.14866 -0.48708,-0.35625 -0.68414,-0.61899 -0.17284,-0.23027 -0.3772,-0.40032 -0.58642,-0.53755 -0.20922,-0.13723 -0.42084,-0.236 -0.65158,-0.34209 -0.46148,-0.21182 -0.95917,-0.42164 -1.41715,-0.87961 -0.57898,-0.57896 -0.95608,-0.89444 -1.40088,-1.0588 -0.44482,-0.16426 -0.95447,-0.17907 -1.775553,-0.17907 -0.69828,0 -1.09596,-0.16426 -1.44974,-0.35838 -0.35378,-0.19389 -0.66941,-0.41405 -1.20541,-0.52124 -0.28688,-0.0574 -1.04096,-0.0366 -1.74293,-0.0977 -0.351,-0.0307 -0.68365,-0.084 -0.9448,-0.17908 -0.26116,-0.0951 -0.44644,-0.23755 -0.48867,-0.4398 -0.0608,-0.29151 -0.11826,-0.57184 -0.17908,-0.86335 0,-0.15672 -0.66673,-0.52883 -0.84705,-0.61899 -0.54398,-0.3473 -1.14212,-0.45563 -1.72667,-0.58642 -0.29226,-0.0652 -0.58774,-0.13411 -0.86332,-0.2443 -0.25782,-0.10319 -0.50491,-0.24171 -0.73303,-0.43981 -0.0933,0.0629 -0.2586,0.058 -0.57012,-0.0977 -0.54099,-0.2705 -0.86049,-0.66135 -1.14025,-1.05882 -0.27973,-0.39747 -0.51968,-0.81287 -0.86332,-1.15654 -0.3268,-0.3268 -0.70192,-0.6344 -1.15654,-0.91218 -0.45465,-0.27781 -0.98545,-0.51921 -1.64522,-0.68417 -0.36937,-0.0923 -0.87273,-0.25341 -1.25429,-0.48867 -0.19077,-0.11774 -0.35342,-0.25549 -0.45608,-0.40722 -0.10266,-0.15178 -0.14398,-0.32028 -0.0977,-0.50499 0.13593,-0.54408 0.23495,-0.64479 0.19545,-0.733 -0.0395,-0.0881 -0.20715,-0.16218 -0.58642,-0.66788 -0.23262,-0.31022 -0.44719,-0.76996 -0.66785,-1.22167 -0.22066,-0.45174 -0.44576,-0.90187 -0.73303,-1.18914 -0.56867,-0.56867 -1.2394,-1.02768 -1.8081,-1.59635 -0.17959,-0.17933 -0.65319,-0.51276 -1.09138,-0.87962 -0.43823,-0.36682 -0.84084,-0.76715 -0.91221,-1.12395 -0.0915,-0.45691 -0.14191,-0.56427 -0.24431,-0.70044 -0.1024,-0.13619 -0.25315,-0.31087 -0.55383,-0.91221 -0.13359,-0.26715 -0.27368,-0.531 -0.40724,-0.79816 -0.13359,0.13359 -0.27365,0.27365 -0.40724,0.40722 -0.36834,0.36836 -0.59749,0.5596 -0.89589,0.66787 -0.29842,0.10838 -0.66119,0.13021 -1.30315,0.13021 -0.65803,0 -1.00749,-0.20246 -1.31943,-0.27692 -0.15594,-0.0372 -0.30305,-0.0491 -0.4724,0.0156 -0.16946,0.0655 -0.35339,0.20688 -0.60269,0.4561 -0.1536,0.15361 -0.67515,0.56342 -1.27056,0.78187 -0.29772,0.10916 -0.61038,0.17544 -0.91221,0.13021 -0.30183,-0.0452 -0.5957,-0.19155 -0.83076,-0.50496 -0.16425,-0.2191 -0.39157,-0.5904 -0.66787,-0.94478 -0.27628,-0.35435 -0.5951,-0.69664 -0.92848,-0.86332 -0.38528,-0.19259 -0.99803,-0.58803 -1.53119,-0.91221 -0.53314,-0.32417 -0.98828,-0.5755 -1.07509,-0.48867 -0.29585,0.29582 -0.44654,0.58788 -0.66786,0.81446 -0.11067,0.11332 -0.24236,0.21052 -0.42352,0.27693 -0.18116,0.0665 -0.40566,0.1141 -0.71673,0.1141 -0.44797,0 -1.12421,0.0816 -1.77554,0.0977 -0.32566,0.008 -0.64606,-0.005 -0.92848,-0.0489 -0.28243,-0.0437 -0.52399,-0.12839 -0.70044,-0.26063 -0.043,-0.0322 -1.21179,-0.4217 -2.31308,-0.68415 -0.55065,-0.13125 -1.08454,-0.22195 -1.44975,-0.22793 -0.18261,-0.003 -0.32724,0.013 -0.40723,0.0652 -0.08,0.051 -0.0927,0.14035 -0.0326,0.26064 -0.0668,0.13359 -0.27855,0.2573 -0.21176,0.39094 0.21964,0.43929 0.45521,0.73329 0.66786,1.04253 0.21265,0.30923 0.40559,0.6287 0.53754,1.15654 0.15007,0.60027 0.0573,2.3772 0,2.60628 -0.15625,0.62507 -0.31645,1.01516 -0.35836,1.35199 -0.0419,0.33686 0.0345,0.62694 0.35836,1.05882 0.22659,0.30211 0.47406,0.66533 0.66786,1.07509 0.19381,0.40977 0.34208,0.87252 0.34208,1.33572 0,0.52698 -0.0775,0.98135 -0.21177,1.38459 -0.13427,0.40326 -0.33832,0.74555 -0.60271,1.00993 -0.56929,0.56929 -1.09701,1.11329 -1.59635,1.61265 -0.22263,0.22273 -0.52452,0.44069 -0.79817,0.70044 -0.27365,0.25964 -0.51739,0.55463 -0.6027,0.89591 -0.10547,0.4219 -0.26372,0.60887 -0.29321,0.79816 -0.0295,0.18921 0.0649,0.37439 0.48868,0.79819 0.17413,0.17413 0.31943,0.38471 0.40723,0.58642 0.0878,0.20168 0.11719,0.40454 0.0977,0.58639 -0.0195,0.18194 -0.0967,0.34149 -0.24433,0.45611 -0.14763,0.11461 -0.35491,0.17933 -0.65157,0.17933 -0.42073,0 -0.76966,-0.0452 -1.04252,-0.1141 -0.27286,-0.0689 -0.47508,-0.16556 -0.63528,-0.26063 -0.32039,-0.19025 -0.45656,-0.38302 -0.53755,-0.42351 -0.32308,-0.16166 -0.59812,-0.42541 -0.87962,-0.66785 -0.2815,-0.24249 -0.558,-0.46671 -0.9122,-0.53756 -0.7865,-0.15724 -1.41696,-0.23911 -1.85698,-0.34208 -0.44002,-0.10292 -0.69114,-0.22352 -0.7493,-0.45608 -0.15293,-0.61176 -0.3063,-1.0176 -0.52126,-1.36831 -0.21497,-0.35071 -0.48986,-0.65275 -0.87962,-1.04253 -0.44387,-0.44386 -0.72415,-0.61508 -1.07509,-0.7167 -0.35095,-0.10163 -0.77411,-0.12554 -1.5312,-0.27693 -0.30617,-0.0613 -0.56008,-0.0395 -0.76559,0.0325 -0.20551,0.072 -0.36912,0.18375 -0.52126,0.32579 -0.30428,0.28436 -0.55397,0.65979 -0.92849,0.84705 -0.34393,0.17205 -0.93716,0.31625 -1.54748,0.42351 -0.61033,0.10734 -1.22462,0.16296 -1.64522,0.16296 -1.13832,0 -2.5187,-0.1167 -3.61622,-0.39095 -0.26716,-0.0668 -0.53102,-0.12865 -0.79818,-0.19545 -0.85081,-0.2126 -1.29081,-0.24301 -1.59635,-0.37465 -0.30554,-0.13177 -0.48306,-0.37972 -0.81446,-1.04252 -0.11373,-0.22742 -0.42624,-0.49647 -0.73302,-0.65155 -0.15339,-0.0774 -0.30402,-0.11644 -0.42352,-0.1141 -0.1195,0.002 -0.21349,0.0559 -0.24434,0.17933 -0.0791,0.31651 -0.1629,0.56371 -0.27691,0.7493 -0.11402,0.18558 -0.24751,0.30017 -0.40724,0.34206 -0.15973,0.0418 -0.35381,0.0156 -0.57012,-0.0977 -0.21632,-0.11462 -0.46556,-0.31895 -0.74931,-0.60272 -0.42552,-0.42551 -0.5881,-0.79928 -0.81446,-0.97734 -0.11319,-0.0891 -0.23911,-0.12059 -0.42352,-0.0977 -0.18443,0.0234 -0.42926,0.10864 -0.7656,0.27693 -0.32844,0.16426 -0.742339,0.32597 -1.221696,0.39094 -0.479358,0.065 -1.020841,0.0281 -1.580061,-0.19544 -0.540555,-0.21624 -0.973746,-0.65322 -1.352012,-0.99367 -0.189131,-0.17023 -0.363711,-0.30967 -0.537545,-0.39092 -0.173823,-0.0813 -0.345882,-0.10396 -0.521257,-0.0156 -0.300656,0.15022 -0.657461,0.24691 -1.091383,0.30949 -0.433921,0.0626 -0.930214,0.0977 -1.498615,0.0977 -0.486003,0 -1.088607,0.0897 -1.466033,0.30952 -0.188716,0.10993 -0.320851,0.243 -0.358365,0.42351 -0.03753,0.18063 0.01533,0.40599 0.211769,0.66784 0.324434,0.43259 0.480296,0.80758 0.504966,1.18914 0.02469,0.38156 -0.08673,0.75988 -0.309496,1.20541 -0.364886,0.72975 -0.394164,0.82623 -0.472389,0.86332 -0.07823,0.0372 -0.192329,0.0294 -0.716728,0.55385 -0.551387,0.55136 -0.962112,0.94581 -1.61264,1.59635 -0.192016,0.19207 -0.442833,0.45795 -0.618993,0.76557 -0.176162,0.30765 -0.274359,0.66179 -0.179177,1.04253 0.09975,0.39895 0.05497,0.82924 -0.06516,1.27056 -0.120127,0.44132 -0.317277,0.89518 -0.537545,1.33572 -0.08413,0.16842 -0.7111259,2.18165 -0.7981759,2.19907 -0.645012,0.12891 -1.219767,0.504 -1.80811,0.79816 -0.359667,0.17985 -0.602958,0.58902 -0.863331,0.94477 -0.130186,0.17804 -0.272964,0.33393 -0.423523,0.45611 -0.150562,0.12215 -0.320198,0.19545 -0.521257,0.19545 -1.042139,0 -1.446185,-0.013 -1.514903,0.13021 -0.06872,0.14294 0.206077,0.44472 0.521257,1.07509 0.162907,0.32581 0.341866,0.80692 0.390944,1.28686 0.02443,0.23989 0.0104,0.47346 -0.04884,0.70044 -0.05913,0.22689 -0.162466,0.43939 -0.342074,0.61898 -0.284309,0.28431 -0.528405,0.67585 -0.70044,1.026234 -0.17203,0.35037 -0.280129,0.66442 -0.309495,0.78189 -0.116073,0.46427 -0.36498,0.88466 -0.586415,1.30313 -0.221437,0.4185 -0.407226,0.83666 -0.407232,1.30316 0,0.31495 -0.05518,0.55798 -0.130315,0.76559 -0.07514,0.20767 -0.176734,0.37723 -0.276917,0.53753 -0.200359,0.32067 -0.390943,0.59955 -0.390943,1.09139 0,0.39115 -0.04049,0.9441 -0.130316,1.41717 -0.08982,0.47308 -0.23056,0.87273 -0.47239,0.99364 -0.295684,0.14789 -0.78961698,0.42375 -1.14024998,0.70044 -0.17533,0.13827 -0.317087,0.28498 -0.374653,0.40724 -0.05757,0.12216 -0.03384,0.21936 0.11402,0.2932 0.98270398,0.49137 1.76859398,0.60854 2.21534198,0.84705 0.223387,0.1193 0.353328,0.26643 0.390944,0.50497 0.0307,0.19466 -0.06513,0.51536 -0.179177,0.86334 0.0564,0.013 0.165948,0.0156 0.211769,0.0325 0.08384,0.0327 0.119243,0.0811 0.162881,0.13021 0.08587,0.013 0.159529,0.0104 0.228039,0.0325 0.332037,0.11072 6.406496,2.81803 6.662319,2.81803 0.3790369,0.16244 2.0196139,0.40555 3.1764099,0.60271 0.578396,0.0985 1.038573,0.18064 1.156538,0.24431 0.11797,0.0637 -0.100583,0.1141 -0.879622,0.1141 -0.08855,0 0.440718,0.14632 1.205408,0.29322 0.76469,0.14685 1.75621,0.2932 2.606286,0.2932 0.595844,0 1.175561,-0.14633 1.759244,-0.2932 0.583683,-0.14684 1.179693,-0.29322 1.775532,-0.29322 0.650987,0 1.270796,0.0689 1.873268,0.17907 0.602468,0.1102 1.186614,0.26032 1.775528,0.40724 0.58891,0.14685 1.1815,0.29705 1.79182,0.40725 0.61032,0.1102 1.23915,0.17907 1.90585,0.17907 1.10383,0 2.34288,0.2932 3.51848,0.2932 0.34806,0 0.64763,0.12007 0.9122,0.32579 0.26457,0.20584 0.49577,0.50452 0.70044,0.83075 0.40935,0.65249 0.7312,1.44613 1.04251,2.06875 0.23041,0.46079 0.5126,0.94873 0.9285,1.40088 0.41588,0.45213 0.95952,0.87884 1.71037,1.25427 0.4898,0.24483 0.75401,0.51442 0.9122,0.84705 0.15818,0.33262 0.20769,0.72373 0.26063,1.2054 0.0317,0.28915 0.0969,0.51565 0.17918,0.68415 0.0823,0.16841 0.18817,0.2861 0.30949,0.37465 0.24267,0.17699 0.54927,0.22455 0.87962,0.32579 0.33036,0.10136 0.68337,0.25158 1.00994,0.60269 0.16327,0.17569 0.31091,0.40139 0.4561,0.70044 0.14518,0.29907 0.29157,0.67702 0.40723,1.14024 0.0654,0.2618 0.14006,0.50237 0.26063,0.71674 0.12057,0.21442 0.28613,0.3989 0.48868,0.55385 0.20254,0.1549 0.43799,0.27485 0.7493,0.35836 0.31132,0.0834 0.69339,0.13021 1.14025,0.13021 1.09746,0 2.84353,-0.29322 4.70761,-0.29322 0.26721,0 0.45601,-0.13567 0.63528,-0.3095 0.17928,-0.17387 0.33939,-0.38213 0.53755,-0.52123 0.19815,-0.13905 0.44172,-0.21832 0.76559,-0.1141 0.32388,0.10422 0.73043,0.38835 1.28686,0.94477 0.28559,0.28561 0.673,0.38877 1.09138,0.43984 0.41838,0.0509 0.86245,0.0486 1.25427,0.14658 0.44019,0.10994 0.66719,0.27852 0.7656,0.4724 0.0984,0.19389 0.0712,0.40665 0.0326,0.63528 -0.0386,0.22872 -0.0944,0.46983 -0.0652,0.68415 0.0292,0.21442 0.13795,0.40293 0.43981,0.55383 0.098,0.0491 0.0531,0.15048 -0.0326,0.26063 -0.0857,0.1102 -0.21166,0.22793 -0.26063,0.32579 -0.10066,0.20142 -0.11435,0.37096 -0.0651,0.50496 0.0492,0.13411 0.17652,0.24145 0.34207,0.32579 0.33112,0.16894 0.85453,0.24899 1.44975,0.32579 0.59522,0.0769 1.24972,0.15022 1.84069,0.27693 0.59096,0.12683 1.1151,0.31692 1.43346,0.63528 0.43129,0.43128 0.89993,0.74829 1.40087,1.00993 0.50095,0.26164 1.04327,0.46463 1.58007,0.61899 1.0736,0.30871 2.17845,0.46317 3.1927,0.71673 0.98774,0.24691 1.78127,0.18869 2.55742,0.21182 0.38809,0.0104 0.77412,0.0517 1.17284,0.14659 0.39869,0.0949 0.81888,0.25028 1.27056,0.52126 0.46027,0.27617 0.89831,0.35583 1.30313,0.30949 0.40485,-0.0463 0.7769,-0.21884 1.10768,-0.43981 0.66154,-0.44201 1.14729,-1.08213 1.40088,-1.33572 0.271,-0.271 0.55996,-0.45129 0.83076,-0.58642 0.27079,-0.13515 0.52191,-0.22325 0.733,-0.32579 0.21104,-0.10266 0.38053,-0.21753 0.4724,-0.39092 0.092,-0.17335 0.10318,-0.40196 0.0156,-0.74932 -0.085,-0.33954 0.0234,-0.61304 0.22793,-0.81446 0.20507,-0.20143 0.51991,-0.34102 0.87962,-0.43981 0.71944,-0.19753 1.60932,-0.22794 2.13391,-0.22794 1.24171,0 2.2742,0.2932 3.51846,0.2932 0.41704,0 0.7716,0.16244 1.09139,0.40724 0.31978,0.24483 0.61589,0.57104 0.89591,0.92848 0.28002,0.35745 0.54928,0.75336 0.84705,1.09139 0.29777,0.338 0.62065,0.62795 0.99364,0.81446 0.47495,0.23755 0.80583,0.54405 1.04252,0.87961 0.23677,0.33556 0.38326,0.69275 0.45611,1.04253 0.14554,0.69955 0.0307,1.34315 -0.0325,1.59635 0.098,0.48976 0.19519,0.99254 0.29322,1.48233 0.11072,0.55365 0.44428,1.13861 0.7656,1.66148 0.32129,0.5229 0.62707,0.97714 0.70044,1.27059 0.0507,0.20247 -0.0429,0.41333 -0.17934,0.63528 -0.13618,0.22196 -0.30419,0.45536 -0.37465,0.68415 -0.0351,0.11436 -0.045,0.22845 -0.0156,0.34206 0.0286,0.11383 0.0879,0.23053 0.21182,0.34208 0.24795,0.223 0.72856,0.43056 1.54749,0.63528 0.30599,0.0764 0.50853,0.18817 0.65158,0.3095 0.14295,0.12137 0.22715,0.25054 0.24431,0.40724 0.0343,0.31326 -0.16062,0.69625 -0.40724,1.09138 -0.24665,0.39511 -0.55071,0.80685 -0.78187,1.20541 -0.23132,0.39856 -0.3904,0.78408 -0.30952,1.10765 0.19025,0.76092 0.51437,1.75017 0.87964,2.7529 0.36524,1.00273 0.7833,2.0227 1.18911,2.83435 0.82462,1.64924 1.35124,2.52881 1.72667,2.94834 0.18765,0.20974 0.32831,0.29949 0.4561,0.30949 0.12788,0.0104 0.23937,-0.0613 0.34206,-0.17907 0.20558,-0.23599 0.40163,-0.64396 0.71674,-0.96107 0.1575,-0.15854 0.3491,-0.30349 0.58642,-0.37465 0.23729,-0.0712 0.51133,-0.0717 0.86332,0.0156 -0.19597,0.48979 -0.39051,0.97628 -0.5864,1.46604 -0.12579,0.31464 -0.16685,0.6391 -0.16296,0.97737 0.005,0.33823 0.0621,0.69204 0.13022,1.04249 0.13644,0.70091 0.32578,1.42001 0.32578,2.10132 0,0.20637 0.0473,0.3819 0.13022,0.53756 0.0829,0.15568 0.21234,0.27789 0.35835,0.39095 0.29195,0.22611 0.6831,0.38468 1.10768,0.48867 0.849133,0.20792 1.807863,0.23625 2.231643,0.34208 -0.39184,0.098 -0.78101,0.19519 -1.17284,0.2932 -0.14425,0.0361 -0.10189,0.19519 0.0489,0.40724 0.15074,0.21208 0.403,0.47648 0.68417,0.7493 0.5623,0.54559 1.22302,1.09274 1.31942,1.18911 0.458,0.458 0.96546,1.11881 1.40088,1.80812 0.43542,0.68932 0.79354,1.41486 0.94477,2.01987 0.073,0.2921 0.0837,0.51214 0.0489,0.68414 -0.0348,0.17206 -0.1076,0.29114 -0.21182,0.37465 -0.20819,0.16712 -0.51121,0.19285 -0.7656,0.19545 -0.25445,0.003 -0.46367,-0.0104 -0.45611,0.0814 0.008,0.0915 0.22066,0.2835 0.79817,0.71673 0.38892,0.29169 0.77243,0.47045 1.14024,0.60269 0.36782,0.13229 0.72753,0.2191 1.04253,0.32579 0.315,0.10682 0.58397,0.24119 0.81446,0.4561 0.23053,0.21494 0.42328,0.50398 0.53755,0.96107 0.1297,0.51864 0.059,0.90171 -0.0652,1.18911 -0.12423,0.28741 -0.30009,0.48059 -0.40724,0.63529 -0.10708,0.15464 -0.14815,0.2704 0.0325,0.39094 0.1809,0.1206 0.57969,0.25497 1.31943,0.43981 0.27706,0.0691 0.5274,0.2126 0.7656,0.39095 0.23833,0.17829 0.45748,0.38333 0.68414,0.58642 0.22664,0.20298 0.45798,0.39388 0.70044,0.53753 0.24249,0.14372 0.49631,0.24431 0.78189,0.24431 0.44477,0 0.90501,0.0915 1.33572,0.22793 0.43071,0.13645 0.83304,0.32389 1.20541,0.52126 0.74475,0.39475 1.33442,0.82569 1.58005,1.00994 0.10007,0.0751 1.36411,1.86483 1.75926,2.65514 0.37055,0.74109 0.65291,1.25567 0.70044,1.66151 0.0234,0.20299 -0.003,0.37912 -0.1141,0.53756 -0.11045,0.15854 -0.30608,0.29964 -0.58639,0.43981 -0.32917,0.16452 -0.39646,0.29382 -0.29322,0.40721 0.10318,0.11332 0.37184,0.20949 0.73303,0.29323 0.72235,0.16737 1.78473,0.29551 2.49226,0.47237 0.58198,0.14555 1.11278,0.25107 1.58006,0.30952 0.46725,0.0582 0.87335,0.0717 1.2054,0.0156 0.33203,-0.0556 0.58931,-0.17829 0.7656,-0.37465 0.17622,-0.19622 0.2769,-0.46681 0.2769,-0.83075 0,-0.27451 0.44337,-0.87 0.96107,-1.46604 0.51773,-0.59601 1.10454,-1.18596 1.38461,-1.46603 0.21624,-0.21624 0.62008,-0.33411 1.10766,-0.37465 0.4876,-0.0406 1.06404,-0.005 1.66151,0.0489 1.19495,0.10812 2.44602,0.32579 3.11125,0.32579 0.63055,0 0.89425,-0.21624 1.27056,-0.35836 0.18817,-0.0709 0.4094,-0.12839 0.71673,-0.13021 0.30734,-0.002 0.70593,0.0585 1.25427,0.19545 0.87359,0.21832 1.6999,0.54421 2.52486,0.91221 0.82493,0.36797 1.63728,0.77352 2.45967,1.14024 0.48319,0.23236 0.98605,0.41252 1.48233,0.55383 0.49629,0.14139 0.99169,0.23963 1.4986,0.30949 1.01389,0.13957 2.05332,0.16036 3.09498,0.13022 1.04167,-0.0301 2.07777,-0.10215 3.12755,-0.14659 1.04975,-0.0444 2.10563,-0.0642 3.14382,0.0325 1.23729,0.2061 2.22417,0.43079 3.14384,0.7493 0.91964,0.31851 1.77516,0.7263 2.7366,1.30315 0.40594,0.24353 0.72697,0.36717 1.00993,0.40722 0.28295,0.04 0.52529,-0.003 0.76559,-0.0977 0.48062,-0.18947 0.95094,-0.57912 1.74297,-0.89592 0.3918,0.48977 0.78101,0.97625 1.17281,1.46604 0.18843,0.23547 0.27352,0.44197 0.30949,0.63528 0.0359,0.19337 0.0234,0.37738 0.0652,0.57013 0.0416,0.19284 0.13697,0.40162 0.34208,0.63528 0.20533,0.23365 0.532,0.49836 1.0588,0.81446 0.18401,0.1102 0.29239,0.21182 0.34208,0.32578 0.0496,0.11384 0.0374,0.22898 -0.0156,0.34209 -0.10734,0.22586 -0.39713,0.45621 -0.73301,0.65155 -0.67174,0.39074 -1.55588,0.68019 -1.66151,0.73303 -0.23157,0.11566 -0.55486,0.17388 -0.9285,0.19545 -0.37364,0.0208 -0.79499,0.013 -1.22168,-0.0156 -0.85339,-0.058 -1.71653,-0.17908 -2.24792,-0.17908 -0.1783,0 -0.32148,0.0892 -0.42354,0.22794 -0.10214,0.13879 -0.17206,0.32365 -0.21182,0.53755 -0.0795,0.42778 -0.0377,0.94093 0.0489,1.28686 0.0234,0.0962 -0.0837,0.15751 -0.19545,0.21182 -0.11176,0.0541 -0.23521,0.10085 -0.26063,0.17934 -0.026,0.0782 0.0431,0.18973 0.32579,0.35835 0.28264,0.16868 0.78358,0.40792 1.59635,0.73301 0.79541,0.31817 1.49447,0.76565 2.05246,1.2054 0.55796,0.43979 0.96756,0.8666 1.17281,1.14028 0.12605,0.16789 0.17361,0.41049 0.17933,0.70044 0.005,0.28994 -0.0182,0.61994 -0.0652,0.96104 -0.0917,0.68222 -0.2295,1.39529 -0.1141,1.85698 0.0704,0.28122 0.0374,0.63513 -0.0652,0.99366 -0.1024,0.35854 -0.27406,0.72443 -0.47237,1.07509 -0.39661,0.70133 -0.90436,1.30734 -1.2217,1.46604 -0.47206,0.23599 -0.79673,0.42876 -1.00993,0.61899 -0.21312,0.19025 -0.31306,0.38172 -0.3095,0.58642 0.003,0.2048 0.0988,0.42096 0.2769,0.70044 0.1783,0.27944 0.43844,0.6117 0.74933,1.02622 0.10058,0.13437 -0.60409,0.51438 -0.91221,0.96107 -0.0769,0.11176 -0.1393,0.22378 -0.14658,0.34206 -0.008,0.11826 0.0299,0.23859 0.13021,0.35838 0.20064,0.23963 0.65519,0.4855 1.5149,0.70044 0.75941,0.18973 1.5289,0.25081 2.31308,0.2769 0.78418,0.026 1.58874,0.0156 2.39452,0.0156 0.21234,0 0.57231,0.26952 1.00996,0.68414 0.43762,0.41462 0.9495,0.96601 1.44974,1.54749 0.27794,0.32309 0.36077,0.45049 0.61898,0.7656 0.39248,0.0476 0.78182,0.28797 1.07509,0.79816 1.29481,2.25256 5.65376,1.28564 6.02705,2.52486 0.43672,1.44984 2.89759,1.30801 2.93208,2.55742 0.034,1.23158 1.49753,2.65301 1.53117,2.7203 1.40667,2.8133 2.42845,-0.83112 3.22529,-0.26063 1.3103,0.9381 4.13171,0.37751 5.34288,-0.86332 1.5043,-1.54112 1.61499,-2.81865 3.17641,-3.209 0.58325,-0.14581 0.41686,-4.1478 0.35836,-4.38181 1.24909,-1.35056 -0.29856,-7.10911 -0.0489,-7.36278 0.80175,0.13775 1.67817,-2.43529 1.33572,-3.40444 0.64282,-3.73788 0.83801,-3.53089 3.84429,-3.66511 -0.19597,-0.82243 3.9263,-2.3956 2.86691,-3.7628 -0.50944,-2.37905 -0.46031,-3.7413 -1.53119,-6.56458 -0.47243,-1.88973 0.87551,-3.29058 0.78189,-3.6651 -0.41236,-1.64935 -2.80997,-0.39711 -4.17007,-1.41718 -1.21105,-0.90828 -2.2779,-1.31355 -1.971,-2.54112 0.42263,-1.69044 1.22749,-3.12755 2.86691,-3.12755 1.56763,0 2.66705,-1.84552 3.09496,-2.16648 -0.0985,-2.75354 5.12617,-4.05433 0.24431,-3.43703 -2.73653,-1.09461 -3.48726,-0.0452 -4.57732,-1.49861 -1.04663,-1.39552 -2.22547,-0.737 -3.09495,-2.47596 -0.34162,-0.68329 -0.33291,-2.6918 0,-4.02346 0.41837,-1.67347 1.238,-1.52337 1.238,-3.09496 -3e-5,-1.43466 3.02033,-1.54749 4.64244,-1.54749 0.4841,0 1.87531,-2.80381 2.16648,-3.09495 0.91163,-0.91169 3.12185,-0.61901 4.93564,-0.61901 0.66267,0 2.40031,-2.09079 2.78546,-2.47597 l 1.18913,-1.75923 c -0.34323,-5.20477 -2.46775,-1.96667 -4.74019,-4.62618 -0.151,0.19675 -3.18504,-1.00593 -4.26779,-1.44974 -1.8533,-0.75964 -1.2721,-4.12573 0.83075,-4.59358 1.90039,-1.32842 1.06976,-3.16939 0.89591,-4.41438 -0.31006,-2.22069 0.0993,-4.63657 -2.37824,-4.08861 1.70917,-2.52049 -1.63552,-3.13849 -0.14659,-5.14741 1.6501,1.20231 -6.9397,-4.20945 -3.32302,-6.30396 -0.57274,-0.64833 -1.37767,-1.28135 -1.36831,-2.11761 0.0276,-2.45952 -1.07511,-3.05989 -2.15018,-4.23523 0.25731,-0.0494 0.50764,-0.21572 0.7656,-0.32576 z"
       id="San_Clemente"
       inkscape:label="#path2927" />
  </g>
</svg>
