<?xml version="1.0" encoding="UTF-8" standalone="no"?>
<!-- Created with Inkscape (http://www.inkscape.org/) -->

<svg
   width="210mm"
   height="297mm"
   viewBox="0 0 210 297"
   version="1.1"
   id="svg1283"
   inkscape:version="1.1.2 (b8e25be833, 2022-02-05)"
   sodipodi:docname="vector.svg"
   xmlns:inkscape="http://www.inkscape.org/namespaces/inkscape"
   xmlns:sodipodi="http://sodipodi.sourceforge.net/DTD/sodipodi-0.dtd"
   xmlns="http://www.w3.org/2000/svg"
   xmlns:svg="http://www.w3.org/2000/svg">
  <sodipodi:namedview
     id="namedview1285"
     pagecolor="#ffffff"
     bordercolor="#666666"
     borderopacity="1.0"
     inkscape:pageshadow="2"
     inkscape:pageopacity="0.0"
     inkscape:pagecheckerboard="0"
     inkscape:document-units="mm"
     showgrid="false"
     inkscape:zoom="0.52347032"
     inkscape:cx="155.69173"
     inkscape:cy="611.30496"
     inkscape:window-width="1920"
     inkscape:window-height="1017"
     inkscape:window-x="-8"
     inkscape:window-y="-8"
     inkscape:window-maximized="1"
     inkscape:current-layer="layer1" />
  <defs
     id="defs1280" />
  <g
     inkscape:label="Capa 1"
     inkscape:groupmode="layer"
     id="layer1">
    <path
       d="m 20.133073,87.282435 c -0.05658,1.979314 -4.000457,4.333042 -5.3746,2.067147 -2.904777,-0.287176 -5.5933011,0.05023 -7.7654981,1.472484 -3.730555,0.17361 -2.846494,3.376135 -2.845847,6.632279 -1.233067,2.365973 -3.69376695,4.091045 -3.16962195,7.169805 -0.656336,2.14653 -1.278556,3.74568 1.10249195,4.84566 -0.186312,2.95491 2.185551,3.35167 2.06713,6.23871 -2.239926,0.39433 1.887746,3.86994 -0.647497,6.21514 -0.912612,2.06152 3.167087,3.89833 0.647497,4.98841 0.528625,2.61745 -1.186566,6.1643 1.102492,8.05256 1.028729,2.72468 -0.537112,2.78718 1.102486,5.72842 0.74078,2.24218 -5.345455,2.32792 -2.18633,3.78045 2.543303,0.35565 4.049446,1.7485 7.5944521,1.10248 3.16543,-0.75978 5.600022,0.99775 7.151199,2.06714 -0.119974,0.83057 -4.487265,3.27023 0.119166,3.16964 0.404725,2.76746 3.07523,2.05089 3.169621,-1.10248 1.031767,-1.57206 3.076146,-2.58786 3.169666,1.10248 3.33431,-0.58787 3.77558,2.77083 6.73032,2.06714 2.06124,1.76473 2.32036,2.69866 2.719,4.21257 1.93499,1.81234 3.69004,3.8114 4.33164,5.2963 2.17021,0.44757 -0.43798,6.08328 3.53962,5.69834 0.57291,2.67972 2.33748,4.55963 5.74952,3.94835 3.9319,0 7.86384,0 11.79574,0 0.49468,-2.49494 5.55233,-0.4269 7.86644,-1.10247 2.82651,-0.44214 4.37662,2.37896 5.91453,3.16963 0.5359,1.79639 2.82721,3.29037 5.62789,3.16962 0.69924,2.18231 5.54477,0.21838 7.05063,1.59413 0.6238,1.45499 4.06746,3.18789 4.27212,5.1176 -0.0617,2.582 3.17219,1.86839 3.66126,3.89962 1.84451,1.12674 5.56393,0.8735 5.8476,3.16962 4.0366,-0.62676 1.80965,3.69417 0.40715,4.8296 -1.9221,2.55445 1.58367,5.50451 -0.40715,7.23808 -1.08556,3.30924 0.1433,2.78045 1.47249,5.20669 2.77628,0.24418 4.91514,2.03804 6.66457,1.04809 1.28933,1.84977 1.00644,-2.86275 4.81334,-1.37185 1.62163,-0.93222 2.50872,-2.59892 4.00023,-3.66127 -1.33367,-3.07225 4.17119,-3.39912 1.41964,-6.58761 1.18802,-2.4914 -1.19993,-3.75742 0.64749,-6.10953 1.83175,-0.85242 0.56488,-4.80348 2.20493,-5.8476 0.65243,-2.19564 -1.72559,-7.42171 2.08582,-6.45843 3.45651,-0.93623 3.23707,1.80348 5.35591,2.20496 0.2527,-2.98979 6.0298,0.72632 7.30392,-2.20496 1.97537,-0.23203 3.48312,-2.68772 4.27212,-4.13428 2.48781,0.15663 3.08485,2.20405 4.27211,3.66127 2.45042,1.90016 2.59632,-1.84148 4.76377,-2.69661 0.37297,-1.95624 5.64669,1.06704 4.39747,-2.41479 -0.83335,-2.58471 -3.22117,-2.12456 -3.92445,-4.90777 -2.04169,-3.44343 0.003,-1.49789 1.10246,-4.25347 2.07045,-2.13006 2.77863,-3.65959 4.27207,-4.76375 1.23416,-1.05963 2.25694,-3.97418 4.62599,-1.57549 1.19594,1.85217 3.30582,2.53774 4.12809,4.48195 2.25785,1.97198 3.85915,-0.97382 5.9916,-0.83931 2.11583,-1.37626 3.95915,-0.60059 5.25543,-1.5755 0.92878,-1.10329 3.87508,1.07806 4.25348,-2.08578 0.0803,-2.76329 1.26077,-5.32253 2.69659,-6.32061 1.05604,-1.32032 4.1622,-2.35748 6.81226,-2.20496 0.16223,-2.87365 3.85851,-1.26645 6.02209,-2.80716 2.60098,-0.86735 3.17625,-2.86035 5.6322,-4.57504 1.37543,-1.58074 4.52432,-0.0836 6.39876,-2.12668 3.34322,0.0156 2.63516,-5.55758 -0.49133,-5.23677 -3.39051,0.72946 -5.27632,-1.85712 -8.67832,-1.10248 -2.89416,-0.0271 -6.28756,0.44497 -7.66149,-1.10247 -0.85368,-1.30062 -2.38118,-3.46193 -5.25537,-3.16964 -0.85968,-1.26585 -2.33424,-3.49955 -4.37265,-5.23677 -2.98596,-0.64286 -4.47772,-1.49985 -6.28969,-4.21921 -1.81266,0.78145 -4.63125,0.78783 -5.42418,-1.01756 -2.9754,-0.69018 -4.16261,-0.80547 -6.83085,0.96467 -3.11685,0.70012 -5.25196,-1.91326 -7.79561,0 -2.93925,-0.18458 -5.43013,-1.5624 -8.66337,-0.96467 -2.04317,-2.26851 -6.12595,-0.98939 -8.28724,0 -2.41019,2.2554 -3.26304,-0.71098 -4.39127,-2.69661 -0.90625,-2.1467 0.68392,-3.90437 -0.96464,-6.8309 0.32557,-2.90672 -0.26454,-5.52407 -2.20497,-7.4231 0.29826,-2.699108 -1.79641,-4.909243 -5.01708,-4.272098 -2.08665,1.611817 -4.04237,3.539958 -6.95004,3.169618 -0.63115,2.20448 -5.68751,-0.0162 -6.4398,2.06715 -2.84466,-0.2698 -4.03048,3.28078 -6.83093,3.16963 -2.49785,-2.56275 -7.28495,0.72634 -9.62802,-2.06714 -3.03255,-0.66322 -4.60181,2.84251 -6.33927,3.16962 -0.31414,2.16646 -2.2031,2.75805 -3.16963,4.2721 -2.58502,-0.74415 -6.10345,1.01171 -7.44172,0.47303 -1.45647,-1.38167 -2.16806,-2.39945 -4.5602,-4.06857 -1.55035,-1.93432 -2.8662,-3.1804 -3.84622,-5.91332 -1.58257,-0.62009 -2.8546,-3.960081 -5.72218,-3.51728 -2.05078,-1.376931 -5.05492,-0.452356 -7.0941,-1.857307 -1.51231,-1.988869 -6.24784,-0.932063 -6.33924,1.102481 -2.64999,2.332426 -4.72434,2.481306 -3.16967,6.238706 -2.89971,1.20067 -4.99419,-1.13331 -7.32256,-1.9666 -1.57245,3.01949 -3.5043,-1.39687 -5.29637,-2.14543 -2.71872,2.50305 -0.95926,-2.232742 -4.33164,-0.05953 -2.0879,-1.15364 -6.012343,3.03407 -4.13431,0 -0.0636,-2.89539 3.33077,-2.972819 0.3172,-5.976786 -2.979372,-0.738482 -3.103226,-3.608497 -3.486809,-5.990348 0.360384,-1.487293 -2.329525,-0.362232 -3.169616,-0.71137 z"
       style="fill:#000000;fill-opacity:1;stroke:#d39062;stroke-width:0.763793;stroke-miterlimit:4;stroke-dasharray:none;stroke-opacity:1"
       id="Lanco" />
  </g>
</svg>
