<?xml version="1.0" encoding="UTF-8" standalone="no"?>
<!-- Created with Inkscape (http://www.inkscape.org/) -->

<svg
   width="210mm"
   height="297mm"
   viewBox="0 0 210 297"
   version="1.1"
   id="svg1283"
   inkscape:version="1.1.2 (b8e25be833, 2022-02-05)"
   sodipodi:docname="vector.svg"
   xmlns:inkscape="http://www.inkscape.org/namespaces/inkscape"
   xmlns:sodipodi="http://sodipodi.sourceforge.net/DTD/sodipodi-0.dtd"
   xmlns="http://www.w3.org/2000/svg"
   xmlns:svg="http://www.w3.org/2000/svg">
  <sodipodi:namedview
     id="namedview1285"
     pagecolor="#ffffff"
     bordercolor="#666666"
     borderopacity="1.0"
     inkscape:pageshadow="2"
     inkscape:pageopacity="0.0"
     inkscape:pagecheckerboard="0"
     inkscape:document-units="mm"
     showgrid="false"
     inkscape:zoom="0.74029882"
     inkscape:cx="361.34057"
     inkscape:cy="561.93525"
     inkscape:window-width="1920"
     inkscape:window-height="1017"
     inkscape:window-x="-8"
     inkscape:window-y="-8"
     inkscape:window-maximized="1"
     inkscape:current-layer="layer1" />
  <defs
     id="defs1280" />
  <g
     inkscape:label="Capa 1"
     inkscape:groupmode="layer"
     id="layer1">
    <path
       d="m 166.44923,83.002709 -1.60313,6.96999 -7.52776,-1.60313 -2.64863,7.45786 -1.60313,-0.55763 -2.16075,7.527541 -18.1921,-4.809231 -17.1466,-4.80931 -0.48802,1.0455 0.48802,0.55763 v 0.48802 H 113.964 l 0.55763,0.55762 -0.55763,0.55763 v 1.0455 l 0.55763,0.55763 v 0.48802 l 1.0455,1.11518 v 0.488021 h 1.11526 l 0.48801,0.55763 h 0.55763 l 0.55763,0.55763 v 2.16068 l 0.48802,0.48802 v 1.60312 l 0.55763,0.55763 v 0.55763 h -0.55763 l -0.48802,0.48802 0.48802,0.55763 v 0.55763 l 0.55763,0.48801 h 0.55763 v 0.55763 l 1.04549,1.0455 v 0.55763 h 0.55763 l 0.55763,0.55763 v 1.0455 l -20.91048,-5.36687 -13.382724,-3.69412 h -1.60313 l -0.55762,-0.55763 h -3.20626 l -0.48802,-0.55763 h -0.55762 l -0.55763,-0.48801 v -0.55763 l -0.48802,-0.55763 h -0.55763 l -1.11526,-0.55763 h -1.0455 l -0.55762,-0.488021 h -1.0455 v 2.160761 h -0.55763 l -1.0455,1.04542 v 1.0455 h -0.55763 l -1.60312,-0.48802 -1.04558,1.60313 -7.52773,-1.60313 -1.04552,4.80931 -2.16074,-0.55763 -0.48795,2.64863 h -2.71835 l -1.04551,1.60305 -35.8963,-6.90023 -5.29731,17.63402 1.04552,0.55763 0.55763,0.48802 h 0.48794 l 0.55763,0.55763 v 2.16068 l 1.04551,1.0455 v 2.71831 h 0.55763 l 1.60312,1.60305 h 1.04553 l 0.55763,0.48802 v 0.55763 l -0.55763,0.55763 v 0.48802 l -1.04553,1.11518 v 2.09107 l -0.55763,0.55763 v 0.55763 l -1.04551,1.04549 v 1.0455 l -0.55763,0.55763 h -0.48787 l -0.55763,0.55763 h -2.16075 l -1.60313,1.60305 -0.48795,1.0455 v 4.32144 l 1.04552,1.0455 v 1.60305 l 0.55763,1.0455 -0.55763,0.55763 h -0.55763 l -1.04551,0.55763 h -0.55763 l -0.55763,0.48801 v 0.55763 l -0.48787,0.55763 v 0.55763 l -1.11524,1.0455 v 0.55763 l -0.4878695,1.04549 v 0.55763 l -0.557624,0.48802 h -0.557629 l -1.045535,0.55763 h -1.045528 l -0.557629,0.55763 h -1.603141 l -0.557629,0.48802 h -0.48787 l -1.115235,1.11518 v 0.48802 l -1.045513,1.11518 v 1.0455 l -0.55762801,0.55763 v 1.0455 l 1.60311901,1.60312 v 0.55763 l 0.557629,0.55763 -0.557629,0.48802 v 3.20618 l -1.045513,1.11518 v 1.0455 l -0.55762901,0.55763 v 0.48801 l 0.55762901,0.55763 v 2.64863 l 0.557629,0.55763 v 1.60305 h 0.487869 l 0.557629,0.55763 v 4.25168 h 1.045513 v -2.64863 l 1.115235,-1.04542 v -0.55763 l 2.648648,-2.71831 -0.557629,-0.48802 1.11522,-1.11518 0.487944,0.55763 h 2.7183565 l 0.48787,-0.55763 -1.04552,-0.48802 v -0.55763 l 0.55763,-0.55763 v -0.48802 l 0.48787,-0.55762 v -1.60313 l -0.48787,-0.55763 v -1.0455 l 1.04552,-0.55763 h 3.20627 l 1.11522,1.11519 v 0.48801 l 1.04553,1.11519 h 0.55763 l 0.48787,0.48802 v 1.11518 l 1.11523,1.0455 h 0.48787 l 0.55763,0.55763 h 2.16075 l 1.04553,-1.11519 h 0.55763 l 1.04552,-1.0455 h 5.36701 l 0.55763,0.55763 h 2.09104 l 1.11522,-1.11518 v -0.48802 l 1.04553,-1.11518 h 1.04551 l 1.11524,1.11518 v 1.0455 l 0.48787,0.55763 v 1.0455 l 0.55763,1.04557 v 0.55763 l 0.55763,0.55763 1.04551,0.48801 h 0.55763 l 0.55763,0.55763 v 0.55763 l 0.48787,0.48802 v 0.55763 l -0.48787,0.55763 h -1.11517 v 1.0455 l -0.48787,1.11518 v 1.0455 h 1.04551 l 0.55763,-0.55763 1.60312,-0.48802 h 1.04554 v -0.55763 h 1.60314 v 1.0455 h 2.64864 l 0.55763,1.11526 1.60314,1.60305 h 1.04548 v -0.55763 l 0.55763,-1.0455 h 1.11521 l 0.48795,1.0455 h 0.55762 l 0.55763,0.55763 2.09104,1.0455 h 1.60315 v -2.16068 l -0.48787,-0.48802 v -0.55763 l 1.60312,-1.60313 h 0.48794 l 0.55763,-0.55763 v -0.48801 l 0.55763,-1.11526 0.48794,-0.55763 1.11524,-0.48802 h 1.60314 l 1.0455,0.48802 1.60314,0.55763 1.11524,0.55763 0.48802,0.55763 h 3.76388 l 0.55763,0.48801 h 1.6032 l 0.48802,0.55763 0.55763,1.0455 0.55762,0.55763 1.04558,0.55763 1.0455,0.48802 v 0.55763 l 0.55762,0.55762 v 1.60313 l 5.92464,5.85481 h 1.0455 l 0.55763,-0.55763 h 1.60313 l 0.48801,-0.48802 h 3.20626 l 2.16075,-2.16076 v -0.55762 l 1.11519,-1.0455 h 0.48801 l 1.60313,-1.60313 h 0.55763 l 0.55763,-0.55763 h 1.603134 l 0.48801,0.55763 h 0.55763 l 0.55763,0.55763 h 8.57326 l 1.60313,-1.60313 h 0.48802 l 0.55763,-0.55763 h 1.60312 l 0.55763,-0.55763 h 1.04557 l 1.0455,-0.48801 h 1.60313 l 0.55763,-0.55763 h 2.16075 l 0.55763,-0.55763 h 0.48802 l 1.11526,-0.48802 0.48802,-0.55763 h 0.55762 l 0.55763,-0.55763 0.48802,-0.48801 h 0.55763 l 0.55763,-0.55763 h 1.0455 l 0.55762,0.55763 0.48802,0.48801 0.55763,0.55763 v 0.55763 l 0.55763,1.0455 v 0.55763 l 0.48802,0.48802 v 0.55763 l 0.55763,0.55762 v 0.48802 l 0.55762,1.11518 v 0.48802 l 0.48802,0.55763 -0.48802,0.55763 v 2.09092 l 0.48802,0.55763 v 0.55763 l 0.55763,1.0455 v 1.11518 l -0.55763,0.48802 v 1.11518 l 0.55763,0.48802 v 0.55763 l 0.55763,0.55763 v 0.48801 l 1.60313,1.60313 h 0.55763 l 1.04557,-0.48802 h 0.55763 l 0.48801,-0.55762 h 0.55763 l 0.55763,-0.55763 h 2.64863 l 0.55763,0.55763 h 3.69419 v 0.55762 h 2.71831 l 0.55763,0.48802 h 3.20626 l 0.48801,-0.48802 h 1.60313 l 0.55763,0.48802 h 1.0455 l 1.11525,0.55763 h 0.48802 l 0.55763,-0.55763 h 0.55763 l 0.48802,-0.48802 0.55763,-0.55762 h 2.71838 l 0.48802,0.55762 h 0.55763 l 1.04549,0.48802 0.55763,0.55763 h 3.76389 l 1.60312,1.60305 v 0.55763 l 0.48802,0.48802 h 1.60313 l 0.55763,0.55763 h 0.55762 l 1.04558,1.0455 h 0.55763 l 0.55762,0.55763 1.04558,1.04549 v 0.55763 l 1.04549,1.11519 h 0.55763 l 1.0455,0.48801 h 0.55763 l 2.16076,2.16068 h 0.48801 v 0.55763 l 0.55763,0.48802 h 6.41258 l 0.55763,0.55763 h 2.16076 l 0.48802,0.55763 h 2.16075 l 0.55763,0.48802 h 4.80938 l 0.55763,-0.48802 h 0.48802 v -0.55763 l 0.55763,-1.0455 1.04549,-1.11518 v -0.48802 h 0.55763 l 2.6487,-2.71831 h 1.11519 l 1.04549,-0.55763 h 0.55763 l -1.11518,-1.0455 h -1.04557 l -0.55763,-0.55763 v -0.48801 l -0.48802,-0.55763 -1.11526,0.55763 -1.0455,-1.11519 h -1.04549 l -0.55763,-0.48801 v -0.55763 l -0.55763,-0.55763 h -0.48802 v -1.0455 h -0.55763 l -1.11525,-1.0455 h -2.64863 l -0.55763,-0.55763 h -0.48802 l -1.11525,-1.04549 v -3.20618 l -1.0455,-1.11519 v -0.55763 l -1.04557,-1.04549 h -0.55763 l -0.55763,-0.55763 h -0.48802 v -1.0455 l 0.48802,-0.55763 v -1.0455 l 1.11518,-1.0455 v -0.55763 l 1.04557,-1.04549 v -0.55763 l -0.55762,-1.0455 v -3.20618 l 0.55762,-0.55763 v -0.55763 l 1.0455,-1.0455 v -2.16068 l 0.55763,-0.55763 -0.55763,-0.48801 v -2.16069 l 0.55763,-0.55762 h -2.16075 l -0.48802,-0.48802 v -1.60313 l 0.48802,-0.55763 v -1.0455 l 0.55762,-0.55762 v -1.0455 l 0.55763,-0.55763 v -4.32144 l -0.55763,-0.48802 h -1.04831 l -0.55763,-0.55762 h -0.55763 l -0.48801,-0.55763 h -1.60313 l -0.55763,-0.48802 -1.0455,0.48802 h -0.55763 l -0.55762,-0.48802 h -1.0455 l -0.55763,-0.55763 v -1.0455 l -1.0455,-1.11526 v -0.48801 h -1.60313 v -1.11519 l -0.55762,-0.48801 v -0.55763 l -0.55763,-0.55763 v -1.0455 l -1.0455,-1.11518 h -0.55763 l -1.0455,-1.0455 h -0.55763 l -1.0455,1.0455 -0.55762,-0.48802 h -1.0455 v -0.55763 l -0.55763,-0.55763 -1.04557,0.55763 h -4.32144 l -0.48802,-0.55763 v -0.48802 h -0.55763 l -0.55763,-0.55762 h -1.04557 l -0.55763,-0.55763 -0.48801,0.55763 -0.55763,0.55762 -0.55763,-0.55762 h -0.48802 l -0.55763,0.55762 h -0.55763 v -0.55762 l -0.48801,-1.04543 h -1.11526 l -0.48802,-0.55763 v -0.55763 l 0.48802,-0.48801 h 0.55763 2.16075 l 0.48802,0.48801 0.55763,-0.48801 h 1.60313 l 0.55762,-0.55763 h 0.48802 l 0.55763,-0.55763 0.55763,0.55763 h 1.0455 l 0.55763,-0.55763 h 0.48801 l 0.55763,-0.48802 1.0455,1.0455 h 0.55763 l 0.55763,-0.55763 h 1.6032 l 0.55763,-0.48802 0.48802,-0.55763 h 0.55762 v -1.04549 l 1.0455,-1.11526 -0.48801,-0.48802 1.04549,-1.11518 h 3.76389 l 0.48801,-0.48802 0.55763,-0.55763 h 0.55763 l 0.48802,-0.55763 h 0.55763 v -1.0455 l 0.55763,-0.55762 h 0.48801 l 0.55763,0.55762 1.11526,-0.55762 h 0.48802 v -0.55763 l 0.55763,-0.48802 v -0.55763 l 1.04557,-1.0455 h 0.55763 l 0.55763,-1.11518 h -1.60313 l -0.55763,-0.48802 v -0.55763 l 0.55763,-0.55763 v -2.09099 l -0.55763,-0.55763 0.55763,-0.55763 v -1.60305 l -0.55763,-0.48802 0.55763,-0.55763 v -2.71823 l 0.48802,-0.48802 v -3.20618 h -0.48802 v -0.55763 l -0.55763,-0.55763 -0.55763,-0.48802 h -1.0455 l -0.55763,-0.55763 -0.55762,0.55763 -1.04558,-1.11525 h -0.55763 l -0.48801,-0.48802 h -0.55763 l -0.55763,-0.55763 h -0.48802 l -0.55763,-0.55763 -0.55763,0.55763 v -1.0455 l -0.48801,-0.55763 -1.11526,-0.55763 h -0.48802 l -0.55763,-0.48801 h -0.55763 v -0.55763 l -1.04549,-1.11519 v -0.48801 l -0.55763,1.04549 v 1.11519 h -1.0455 l 0.55763,-1.11519 -0.55763,-0.55762 v -1.0455 l 1.0455,-1.0455 -0.48802,-0.55763 v -0.55763 l -0.55763,-1.0455 v -0.55762 h -0.55763 l -0.48801,-0.48802 v -0.55763 l -0.55763,-0.55763 1.04557,-1.0455 h 2.16075 l 0.55763,0.55763 0.48802,-0.55763 h 1.11526 l 0.48802,-0.55763 h 1.60312 l 0.55763,-0.48801 0.55763,-0.55763 0.48802,-0.55763 h 0.55763 l 0.55762,0.55763 h 0.48802 l 0.55763,-0.55763 v -0.48802 l 1.04557,-1.11518 v -0.48802 l -0.48801,-0.55763 3.20625,-12.336851 z M 14.987826,122.5922 v -0.55763 l -0.55763,-0.48802 h -1.60312 z m -2.16075,-1.0455 -1.11523,-0.55763 0.55762,0.55763 z"
       style="fill:#000000;fill-opacity:1;fill-rule:evenodd;stroke:#d38d5f;stroke-width:0.979679;stroke-linecap:butt;stroke-linejoin:miter;stroke-miterlimit:4;stroke-dasharray:none;stroke-opacity:1"
       id="Loncoche" />
  </g>
</svg>
