<?xml version="1.0" encoding="UTF-8" standalone="no"?>
<!-- Created with Inkscape (http://www.inkscape.org/) -->

<svg
   width="210mm"
   height="297mm"
   viewBox="0 0 210 297"
   version="1.1"
   id="svg64"
   inkscape:version="1.1.2 (b8e25be833, 2022-02-05)"
   sodipodi:docname="vector.svg"
   xmlns:inkscape="http://www.inkscape.org/namespaces/inkscape"
   xmlns:sodipodi="http://sodipodi.sourceforge.net/DTD/sodipodi-0.dtd"
   xmlns="http://www.w3.org/2000/svg"
   xmlns:svg="http://www.w3.org/2000/svg">
  <sodipodi:namedview
     id="namedview66"
     pagecolor="#ffffff"
     bordercolor="#666666"
     borderopacity="1.0"
     inkscape:pageshadow="2"
     inkscape:pageopacity="0.0"
     inkscape:pagecheckerboard="0"
     inkscape:document-units="mm"
     showgrid="false"
     inkscape:zoom="0.74029882"
     inkscape:cx="361.34057"
     inkscape:cy="345.8063"
     inkscape:window-width="1920"
     inkscape:window-height="1017"
     inkscape:window-x="-8"
     inkscape:window-y="-8"
     inkscape:window-maximized="1"
     inkscape:current-layer="layer1" />
  <defs
     id="defs61" />
  <g
     inkscape:label="Capa 1"
     inkscape:groupmode="layer"
     id="layer1">
    <path
       id="Casablanca"
       style="fill:#000000;fill-opacity:1;fill-rule:evenodd;stroke:#d38d5f;stroke-width:1.64768;stroke-linecap:butt;stroke-linejoin:miter;stroke-miterlimit:4;stroke-opacity:1"
       d="m 3.9245647,70.051975 4.859799,1.44113 c 5.8901953,-0.80594 11.2307113,0.38112 14.5354713,5.06602 3.59208,0.35745 6.63387,-6.23464 11.75897,-3.49274 9.9144,2.37841 16.90102,11.3255 27.13587,13.06778 5.35051,3.21736 6.90103,12.59463 15.39318,10.38567 5.1726,0.12704 3.44018,-8.95375 9.56287,-4.16249 6.30303,0.74355 12.51155,-3.87272 19.389285,-1.99885 6.44499,2.32025 18.00364,7.32261 20.57466,-2.59762 3.86974,-1.08785 5.52615,-1.78295 6.78333,-6.25705 1.74665,-1.63026 9.06727,-4.48799 5.0053,-0.62566 -0.11957,4.57486 9.95834,3.12114 7.28961,7.5671 6.393,2.51429 15.05617,-1.63094 20.00293,4.36861 5.155,3.51951 7.95743,9.360755 14.43189,10.838945 21.71719,9.09953 20.08476,3.72084 17.27834,5.39843 -2.63124,1.7652 -0.8141,4.28927 0.52683,6.71651 0.4602,2.57245 -0.0249,9.58594 1.09751,10.00878 0.3506,0.13202 0.32569,3.35966 3.55576,7.24322 -1.1969,6.89392 4.37272,11.23507 5.79448,11.50135 1.03206,0.19305 -1.12908,0.86754 -1.66806,6.54084 -2.5775,0.51313 -4.24998,1.92163 -2.06324,7.19931 l -2.06318,4.87272 c -5.26971,3.9297 1.27473,6.66743 -4.12643,11.85258 -2.23232,-2.57576 -7.5384,2.92772 -8.7797,4.6532 -2.08697,-0.21173 -3.71038,-2.58423 -6.40918,0.26341 l -6.9359,9.35037 c -0.11645,-0.002 -0.2821,0.13513 -0.61464,0.52683 -2.20006,2.67228 -7.81657,2.6508 -15.18882,1.18525 -3.9109,-3.02655 -5.36505,-1.21427 -6.18967,1.93154 -6.44506,2.7315 -0.45709,9.01783 -0.39482,13.60851 -0.26279,-2.02501 -14.71554,3.65775 -19.16467,5.84268 -10.05941,-3.14568 -13.08976,7.77261 -20.83702,10.49134 -2.39834,9.8201 -14.2295,1.70175 -18.892605,-2.07669 -0.10941,-2.21756 -7.63447,1.0158 -5.59643,-0.81703 -3.60581,4.6172 -10.55255,-3.65789 -15.32898,-6.19267 -3.74238,-1.7378 -7.90668,-1.49475 -11.66855,-0.0623 -4.29006,0.35185 -8.90316,1.1827 -12.95249,-0.72953 -3.7403,-1.6769 -6.40463,-4.6958 -9.0162,-7.77174 4.60009,0.53805 7.45903,-4.4637 9.55987,-7.77478 2.94612,-3.49398 1.40628,-7.41752 -0.16335,-10.90739 0.47434,-2.87996 2.87048,-10.06483 6.59139,-6.26559 2.78126,2.80244 8.01808,4.19798 11.28117,1.49799 1.28756,-4.10762 -5.10333,-7.81825 -2.23213,-12.32062 1.85413,-3.75833 6.03136,-6.29193 6.44942,-10.72176 1.10316,-5.10262 5.97236,-8.7993 6.05896,-14.1646 0.0448,-4.99365 -6.2581,-7.06506 -6.15268,-11.85874 0.90436,-4.0126 1.02261,-8.08933 0.92916,-12.18058 -1.30207,-4.44608 -7.66527,-3.01821 -11.17882,-2.49922 -3.69112,0.24287 -6.14577,5.93554 -10.02107,2.26078 -2.18546,-4.74207 -7.86001,-3.23972 -11.01387,-0.35496 -3.0688,-0.21173 -2.80934,5.98361 -6.12832,2.6356 -4.32212,-1.43379 -9.47683,0.20114 -12.52628,3.4436 4.36897,4.06646 -5.25406,1.70766 -3.41406,3.33338 -3.68048,-3.56529 -1.97868,-8.40344 -9.5773173,-11.83882 -3.471449,-2.74358 -3.479781,-2.87155 -0.513819,-7.89248 l 3.0148343,-5.10369 c 0.598573,-5.815155 -3.0356523,-5.583435 -5.8688163,-6.496115 -0.397492,-2.62888 -0.50317,-5.36723 -4.900943,-6.496 l 2.987496,-5.82861 c 5.683248,-0.69578 7.9440693,-4.60936 4.342531,-7.95793 z"
       sodipodi:nodetypes="ccccccccccccccccscscccccccccccccccccccccccccccccccccccccccccc" />
  </g>
</svg>
