<?xml version="1.0" encoding="UTF-8" standalone="no"?>
<!-- Created with Inkscape (http://www.inkscape.org/) -->

<svg
   width="210mm"
   height="297mm"
   viewBox="0 0 210 297"
   version="1.1"
   id="svg64"
   inkscape:version="1.1.2 (b8e25be833, 2022-02-05)"
   sodipodi:docname="vector.svg"
   xmlns:inkscape="http://www.inkscape.org/namespaces/inkscape"
   xmlns:sodipodi="http://sodipodi.sourceforge.net/DTD/sodipodi-0.dtd"
   xmlns="http://www.w3.org/2000/svg"
   xmlns:svg="http://www.w3.org/2000/svg">
  <sodipodi:namedview
     id="namedview66"
     pagecolor="#ffffff"
     bordercolor="#666666"
     borderopacity="1.0"
     inkscape:pageshadow="2"
     inkscape:pageopacity="0.0"
     inkscape:pagecheckerboard="0"
     inkscape:document-units="mm"
     showgrid="false"
     inkscape:zoom="0.74029882"
     inkscape:cx="361.34057"
     inkscape:cy="561.93525"
     inkscape:window-width="1920"
     inkscape:window-height="1017"
     inkscape:window-x="-8"
     inkscape:window-y="-8"
     inkscape:window-maximized="1"
     inkscape:current-layer="layer1" />
  <defs
     id="defs61" />
  <g
     inkscape:label="Capa 1"
     inkscape:groupmode="layer"
     id="layer1">
    <path
       style="fill:#000000;fill-opacity:1;fill-rule:evenodd;stroke:#d39062;stroke-width:0.74194;stroke-linecap:butt;stroke-linejoin:miter;stroke-miterlimit:4;stroke-dasharray:none;stroke-opacity:1"
       d="m 99.321768,219.72758 c -0.18645,-0.69844 -0.40101,-1.38305 -0.51051,-2.13306 -0.15908,-1.09228 -0.15538,-2.19314 0.3248,-3.1532 0.40398,-0.80869 0.61928,-1.39038 0.64887,-1.80848 0.0296,-0.41803 -0.11542,-0.68143 -0.37067,-0.92743 -0.51126,-0.49202 -1.48249,-0.87972 -2.59682,-1.99397 -0.51051,-0.51052 -0.85478,-0.91722 -1.02014,-1.29841 -0.16499,-0.38104 -0.17683,-0.69696 -0.0444,-0.97382 0.26117,-0.55417 1.07489,-0.96428 2.22584,-1.25202 1.27266,-0.31815 1.85221,-0.60892 2.364942,-1.06653 0.51273,-0.45725 0.96302,-1.05573 1.94757,-2.04036 0.50164,-0.50163 1.07031,-0.94253 1.57668,-1.48389 0.50608,-0.54159 0.94475,-1.18247 1.15924,-2.04029 0.29003,-1.15975 0.7162,-1.89186 1.29841,-2.55042 0.58228,-0.65849 1.31979,-1.27348 2.22584,-2.17946 0.27597,-0.27597 0.8678,-1.61958 1.5766,-2.9214 0.3544,-0.65109 0.71324,-1.29115 1.11292,-1.76208 0.39954,-0.47057 0.80299,-0.78834 1.20563,-0.78834 1.01563,0 2.34385,0.037 3.47786,-0.0925 1.13401,-0.13169 2.08801,-0.41951 2.41133,-1.06653 0.31149,-0.62223 0.98722,-1.3829 1.25202,-2.13306 0.13244,-0.37512 0.17683,-0.74202 0,-1.11292 -0.17683,-0.37068 -0.56675,-0.7236 -1.25202,-1.06653 -0.62075,-0.31001 -1.81025,-1.00187 -2.68952,-1.66938 -0.43949,-0.33369 -0.79774,-0.66737 -0.97383,-0.92744 -0.17609,-0.2597 -0.16721,-0.48018 0.1391,-0.55639 0.61928,-0.15463 1.22346,-0.37289 1.76209,-0.74194 0.53863,-0.3692 1.03205,-0.85841 1.39119,-1.57668 0.46168,-0.92418 0.82962,-2.04775 1.39111,-3.01411 0.28041,-0.48314 0.61188,-0.93712 1.02014,-1.2984 0.40841,-0.36106 0.87957,-0.63704 1.4839,-0.78834 0.44096,-0.11024 1.44431,-0.44541 2.27223,-0.97375 0.41359,-0.26414 0.7799,-0.56527 1.02014,-0.92744 0.24046,-0.3618 0.34552,-0.79699 0.23158,-1.25202 -0.15167,-0.60669 -0.17165,-0.96043 -0.0925,-1.25201 0.0784,-0.29152 0.24934,-0.49646 0.51051,-0.74195 0.52162,-0.49054 1.36012,-1.1437 2.31855,-3.0605 0.76533,-1.53065 1.44831,-2.3144 2.04028,-3.10689 0.59191,-0.79248 1.09243,-1.63372 1.4839,-3.19959 0.11838,-0.47426 1.99397,-3.78091 1.99397,-3.89522 0,-1.22997 0.34996,-1.80175 0.74194,-2.41133 0.3914,-0.60966 0.78834,-1.26615 0.78834,-2.68953 0,-1.38149 0.30927,-1.91132 0.603,-2.41133 0.29373,-0.50015 0.603,-0.95355 0.603,-2.27216 0,-1.52126 0.29891,-2.13802 0.74195,-2.64313 0.44244,-0.50533 0.99757,-0.92862 1.5766,-2.08675 0.4417,-0.88356 0.22862,-2.10857 0.0925,-3.24598 -0.0666,-0.56896 -0.13317,-1.12246 -0.0444,-1.5766 0.0873,-0.45428 0.30039,-0.79929 0.74195,-1.02022 1.00741,-0.50385 1.48116,-1.29019 2.04035,-1.94757 0.27968,-0.32851 0.55417,-0.62002 0.97375,-0.83466 0.41951,-0.2153 0.98781,-0.37067 1.71578,-0.37067 0.79943,0 2.15955,0.16203 3.38508,0.13909 0.61261,-0.0148 1.18091,-0.0932 1.62299,-0.23158 0.44245,-0.13835 0.74809,-0.34922 0.83473,-0.69548 0.15241,-0.60966 -0.094,-1.367 -0.37068,-2.08667 -0.27671,-0.7199 -0.58894,-1.38024 -0.41729,-1.80848 0.52975,-1.32386 0.9247,-1.92294 1.62299,-2.17945 0.69844,-0.25674 1.70904,-0.18571 3.47786,-0.18571 1.43662,0 2.51321,-0.10211 3.47786,0.0444 0.96458,0.14871 1.81078,0.55861 2.78223,1.53028 0.69697,0.69697 1.3465,0.99336 2.13314,1.11293 0.78656,0.11986 1.71925,0.0444 2.96772,0.0444 0.70806,0 1.87677,-0.15464 3.01418,-0.23158 1.13733,-0.077 2.2578,-0.077 2.87501,0.23158 0.60522,0.30261 1.00401,0.42839 1.29841,0.41729 0.29447,-0.0148 0.47278,-0.17017 0.60299,-0.41729 0.26044,-0.49498 0.34701,-1.34362 0.83473,-2.31862 0.24934,-0.49868 1.0686,-1.04878 1.8548,-1.57661 0.78619,-0.52753 1.53864,-1.05343 1.66938,-1.5766 0.0444,-0.17239 0.43727,-5.01532 0.78834,-4.31251 0.55046,1.1016 1.20858,2.16791 1.94757,3.1532 1.17086,1.56114 2.32077,2.69174 4.31252,4.68349 0.48388,0.48388 0.9904,0.76762 1.48389,0.92743 0.4935,0.15982 0.99403,0.19755 1.39119,0.0925 0.39732,-0.10506 0.68661,-0.33887 0.88105,-0.64887 0.19458,-0.31001 0.25303,-0.70289 0.13909,-1.15924 -0.31222,-1.24891 -0.14945,-1.6551 0.1391,-2.08675 0.28855,-0.43134 0.73322,-0.89288 1.06653,-2.22584 0.2708,-1.08325 1.66043,-4.02537 1.94758,-4.31252 1.50661,-1.50653 2.43138,-2.01401 3.94161,-3.52417 0.99787,-0.99787 1.64808,-1.68359 2.41126,-2.22585 0.76325,-0.54232 1.62802,-0.9403 3.06057,-1.2984 0.55121,-0.13762 1.83267,-0.66959 2.96771,-1.34473 1.13505,-0.6755 2.13307,-1.49418 2.13307,-2.17945 0,-0.90812 0.69918,-1.60427 1.39119,-2.13314 0.69252,-0.52901 1.37224,-0.8638 1.34472,-0.97375 -0.28337,-1.13275 -0.15019,-2.00736 0.0444,-2.689524 0.19681,-0.68217 0.43653,-1.17618 0.32481,-1.62307 -0.17461,-0.69844 -0.72804,-1.51615 -2.36494,-3.1532 -0.41137,-0.41137 -1.04937,-1.17448 -1.8548,-1.85487 -0.8055,-0.68069 -1.76223,-1.25202 -2.82869,-1.25202 -0.52235,0 -1.0544,0 -1.5766,0 -0.13022,-0.26117 -2.37589,-3.91291 -2.31855,-3.94154 0.66811,-0.33442 1.07437,-0.79906 1.11292,-1.39119 0.037,-0.5919 -0.29077,-1.31069 -1.11292,-2.13306 -0.55121,-0.55121 -0.81616,-0.97649 -0.92744,-1.34472 -0.11098,-0.36846 -0.0999,-0.68439 -0.0444,-0.97383 0.0518,-0.28929 0.15094,-0.566 0.0925,-0.88104 -0.0592,-0.31519 -0.25082,-0.66811 -0.69549,-1.11293 -1.3314,-1.3314 -3.22356,-1.97717 -4.72988,-3.10688 -1.10752,-0.83066 -2.06173,-1.3411 -3.1532,-1.62299 -1.09154,-0.2819 -2.31892,-0.37068 -3.89522,-0.37068 -1.4182,0 -3.03512,-0.14502 -4.68349,-0.23158 -1.64837,-0.0866 -3.29519,-0.11542 -4.68349,0.23158 -1.66768,0.41729 -5.29352,1.11654 -7.04843,1.99396 -0.74335,0.37142 -1.80019,0.63334 -2.96779,0.78834 -1.16753,0.15464 -2.46497,0.20717 -3.70967,0 -1.63386,-0.27227 -2.87833,-0.6829 -4.03432,-1.29841 -1.15598,-0.61483 -2.20135,-1.4594 -3.38508,-2.64313 -1.09812,-1.09812 -2.04553,-1.489 -3.06049,-2.22584 -0.0222,0.0222 -0.0222,0.11616 -0.0444,0.13909 -0.61483,0.54011 -1.58873,0.68217 -3.33876,0.97383 -1.70246,0.28337 -2.53622,0.84767 -3.29238,1.39111 -0.75607,0.54381 -1.43203,1.0652 -2.73591,1.39112 -2.81219,0.70288 -5.59243,0.7489 -8.34676,1.4375 -0.87801,0.21975 -1.86183,0.2819 -2.78231,0.51052 -0.92055,0.22788 -1.77555,0.62075 -2.31854,1.34472 -0.49794,0.66367 -1.11825,1.67257 -1.94765,2.55043 -0.41433,0.43875 -0.86973,0.87157 -1.39112,1.15931 -0.52161,0.28781 -1.11817,0.4639 -1.76209,0.4639 -1.52681,0 -2.80768,-0.1243 -3.94154,0 -1.13393,0.1243 -2.11789,0.49498 -3.01418,1.39112 -0.67699,0.67698 -1.24995,1.5712 -1.7157,2.55042 -0.46612,0.9793 -0.82333,2.0414 -1.06653,3.01418 -0.30187,1.20704 -1.00268,1.78577 -1.66938,2.36494 -0.66663,0.57933 -1.29782,1.1568 -1.57668,2.27216 -0.35514,1.42094 -0.53789,2.17213 -0.88104,2.8287 -0.3433,0.65627 -0.84531,1.21621 -1.90119,2.27216 -0.77309,0.773024 -1.83015,1.455924 -2.73591,2.179454 -0.90576,0.7236 -1.65828,1.48582 -1.90126,2.45764 -0.32776,1.31077 -0.64073,1.95276 -0.97375,2.17946 -0.33294,0.2264 -0.69918,0.0444 -1.11292,-0.2782 -0.41359,-0.31962 -0.86795,-0.78434 -1.437512,-1.11292 -0.5697,-0.3285 -1.23995,-0.52457 -2.04035,-0.3248 -0.57859,0.14427 -0.91848,0.32776 -1.06653,0.55638 -0.14798,0.22937 -0.1132,0.5009 -0.0444,0.83466 0.13318,0.66811 0.48906,1.56913 0.18571,2.7823 -0.18645,0.74572 -1.01444,2.2493 -2.13306,3.57057 -0.55935,0.66071 -1.19016,1.26689 -1.85487,1.71577 -0.66441,0.44911 -1.3553,0.74195 -2.04035,0.74195 -1.71326,0 -3.07523,-0.34774 -4.35891,-0.69548 -1.28361,-0.34775 -2.48532,-0.69549 -3.98793,-0.69549 -1.68374,0 -2.92843,-0.45724 -4.17342,-0.74195 -0.62224,-0.14205 -1.26963,-0.25155 -1.94758,-0.23158 -0.67772,0.0222 -1.42877,0.17239 -2.27215,0.50978 -1.33755,0.53493 -5.96252,2.66318 -7.41941,3.24598 -1.07504,0.42987 -2.05389,0.77976 -3.15327,1.02014 -1.09931,0.24046 -2.31619,0.37068 -3.80245,0.37068 -1.51186,0 -2.36731,0.46316 -3.0605,0.92744 -0.69326,0.4639 -1.22205,0.92743 -2.04035,0.92743 -0.8058,0 -1.76061,0.0296 -3.1532,0 -0.0444,0.14724 0.0222,0.35218 -0.0925,0.4639 -0.50238,0.50238 -1.49226,1.20134 -2.45765,1.94765 -0.96546,0.74624 -1.90436,1.53791 -2.17945,2.22577 -0.28707,0.71768 -0.63925,1.19882 -1.06653,1.57668 -0.42765,0.37807 -0.93187,0.65701 -1.4375,0.88104 -1.01134,0.44837 -2.11279,0.76799 -3.06058,1.7157 -0.60151,0.60152 -1.42788,1.24528 -2.22576,1.94765 -0.79796,0.70214 -1.56543,1.4614 -1.94765,2.22577 -0.10285,0.20568 -1.51705,5.94386 -1.8548,6.02828 -1.03309,0.25822 -1.66982,0.19755 -2.08674,-0.0444 -0.41656,-0.24342 -0.58969,-0.65257 -0.78827,-1.06653 -0.19829,-0.41433 -0.40989,-0.85951 -0.78834,-1.11292 -0.37807,-0.25304 -0.94534,-0.33147 -1.90126,-0.0925 -1.17766,0.29448 -1.86175,0.52532 -2.27215,0.74195 -0.41064,0.21679 -0.53715,0.43135 -0.55639,0.69549 -0.0222,0.26487 0.0518,0.58302 0.0444,1.02014 -0.006,0.43726 -0.0962,0.9807 -0.4639,1.71577 -0.48906,0.97775 -1.03102,1.44986 -1.80848,1.66938 -0.77746,0.21974 -1.78813,0.18571 -3.29237,0.18571 -1.19772,0 -2.34097,-0.0858 -3.24599,0.0925 -0.4528,0.0895 -0.84124,0.22937 -1.15924,0.50978 -0.31814,0.28115 -0.55268,0.68143 -0.69548,1.25202 -0.13392,0.53641 -0.81009,1.72161 -1.76216,2.45772 -0.47574,0.36772 -1.05669,0.62445 -1.62299,0.64887 -0.56601,0.0222 -1.13527,-0.20791 -1.7157,-0.78827 -1.0072,-1.00719 -1.5388703,-1.72657 -2.1331403,-2.13313 -0.59412,-0.40619 -1.24898,-0.49942 -2.50403,-0.18571 -1.40488,0.35144 -2.71624,1.4287 -3.89516,2.45772 -0.69844,0.60966 -1.22138,0.87979 -1.80847003,1.29841 0.48609003,0.26561 1.16700003,0.55047 1.48389003,0.78826 0.89658,0.67255 1.64423,1.60886 2.27216,2.59682 0.62815,0.98795 1.14873,2.01919 1.5766,2.87501 0.97479,1.9495 1.70445,5.63475 2.73591,7.69767 0.63926,1.27769 1.4332903,2.37004 2.1330703,3.57057 0.69992,1.20052 1.31764,2.48835 1.71577,4.08071 0.39879,1.59591 0.98537,2.61287 1.39111,3.61696 0.4062,1.00401 0.60966,2.01194 0.23159,3.52417 -0.38992,1.55988 -0.81379,2.28415 -1.3448,3.01411 -0.50608,0.69548 -1.08629,1.47028 -1.80848,2.87508 0.64813,0.61632 1.16863,0.99891 1.85487,1.8548 0.62223,0.77576 1.18328,1.63083 1.53028,2.50411 0.347,0.87327 0.4972,1.76645 0.2782,2.64313 -0.43431,1.73671 -0.83873,3.05103 -0.92744,4.4053 -0.0888,1.35419 0.13836,2.75729 0.92744,4.72988 0.4713,1.17884 1.19615,2.12951 1.80847,3.24598 0.61262,1.11647 1.08932,2.40326 1.02022,4.17342 -0.0222,0.53567 0.11542,0.94452 0.37068,1.29841 0.25525,0.35366 0.65109,0.62963 1.11285,0.83465 0.92336,0.40989 2.19846,0.58894 3.52425,0.603 2.65156,0.0296 5.51422,-0.4935 6.39926,-0.4639 1.50224,0.0518 3.68643,0.64147 5.33265,1.5766 0.82312,0.4676 1.55019,1.02354 1.94765,1.62299 0.39732,0.5993 0.475,1.2754 0.1391,1.94765 -1.03361,2.06707 -1.72857,2.63588 -1.66938,2.68952 0.0592,0.0518 0.89118,-0.41729 2.82862,-0.41729 3.04207,0 6.09317,0 9.13517,0 0.82415,0 1.35671,-0.0977 1.7157,-0.27819 0.35884,-0.18053 0.52087,-0.44467 0.64887,-0.78834 0.25748,-0.68808 0.27598,-1.68077 1.02014,-2.9214 0.64295,-1.07104 1.77275,-2.55797 3.10689,-3.66335 0.66737,-0.55268 1.40377,-1.01807 2.13306,-1.29833 0.72952,-0.28041 1.46163,-0.36476 2.17946,-0.18571 1.32785,0.33221 2.85606,0.42839 4.2198,0.74195 0.68217,0.15685 1.35427,0.3618 1.90126,0.69548 0.54677,0.33369 0.98226,0.80536 1.29834,1.43751 0.85544,1.71074 4.59078,7.02475 4.59078,7.97586 l 21.37716,8.76413 c 1.77704,-0.58155 4.69629,-1.69499 4.82266,-1.94758 0.45207,-0.90383 1.01008,-1.79494 1.66931,-2.59682 0.55195,-0.67106 1.23012,-1.18165 1.94765,-1.62299 z"
       id="Sagrada_Familia"
       inkscape:label="#path2910" />
  </g>
</svg>
