<?xml version="1.0" encoding="UTF-8" standalone="no"?>
<!-- Created with Inkscape (http://www.inkscape.org/) -->

<svg
   width="210mm"
   height="297mm"
   viewBox="0 0 210 297"
   version="1.1"
   id="svg1283"
   inkscape:version="1.1.2 (b8e25be833, 2022-02-05)"
   sodipodi:docname="vector.svg"
   xmlns:inkscape="http://www.inkscape.org/namespaces/inkscape"
   xmlns:sodipodi="http://sodipodi.sourceforge.net/DTD/sodipodi-0.dtd"
   xmlns="http://www.w3.org/2000/svg"
   xmlns:svg="http://www.w3.org/2000/svg">
  <sodipodi:namedview
     id="namedview1285"
     pagecolor="#ffffff"
     bordercolor="#666666"
     borderopacity="1.0"
     inkscape:pageshadow="2"
     inkscape:pageopacity="0.0"
     inkscape:pagecheckerboard="0"
     inkscape:document-units="mm"
     showgrid="false"
     inkscape:zoom="0.52347032"
     inkscape:cx="155.69173"
     inkscape:cy="611.30496"
     inkscape:window-width="1920"
     inkscape:window-height="1017"
     inkscape:window-x="-8"
     inkscape:window-y="-8"
     inkscape:window-maximized="1"
     inkscape:current-layer="layer1" />
  <defs
     id="defs1280" />
  <g
     inkscape:label="Capa 1"
     inkscape:groupmode="layer"
     id="layer1">
    <path
       d="m 23.830893,127.32042 c -0.05167,0.3624 -0.122291,0.68144 -0.122291,1.12519 0,0.4105 0.189236,0.88477 0.489213,1.41874 0.299965,0.53393 0.70078,1.12927 1.100727,1.71222 0.399943,0.58291 0.800762,1.15483 1.100723,1.71222 0.299965,0.55744 0.489205,1.08364 0.489213,1.54103 0,0.96104 -0.116301,1.6228 -0.34246,2.07914 -0.22612,0.45633 -0.55974,0.70891 -0.953963,0.9295 -0.394219,0.22062 -0.8411,0.40652 -1.345328,0.66043 -0.504235,0.25398 -1.058206,0.59349 -1.614394,1.14967 -0.97117,0.97116 -1.877088,1.44452 -2.690664,1.98129 -0.406793,0.26839 -0.797646,0.54921 -1.149651,0.90505 -0.352012,0.35596 -0.667,0.79588 -0.953959,1.36977 -0.54073,1.08147 -0.881154,1.79763 -1.14964,2.2504 -0.268502,0.45273 -0.468682,0.6464 -0.733817,0.70933 -0.530278,0.12586 -1.318823,-0.29341 -3.448939,-0.29341 -0.571029,0 -1.013057,0.083 -1.394251,0.22025 -0.381206,0.13685 -0.708624,0.31956 -1.051811,0.56255 -0.6863685,0.48594 -1.4412015,1.16093 -2.8863405,1.88349 -0.711027,0.35558 -1.417054,0.72075 -2.128069,1.07625 l 1.58994,4.79428 -4.794274,6.38422 2.666205,1.07624 1.051799,8.53674 h -2.666197 l 1.076261,2.66621 -3.74246598,1.0518 2.83742698,14.60295 c 0.934046,-0.72374 1.839078,-1.52326 2.494975,-1.78562 1.255164,-0.50209 2.571186,-0.66998 3.644627,-1.02734 0.536711,-0.17854 1.0107155,-0.41789 1.3942525,-0.75827 0.383529,-0.34041 0.673149,-0.78469 0.831653,-1.41874 0.05842,-0.23351 0.191018,-0.43022 0.366911,-0.58704 0.175892,-0.15694 0.394655,-0.27294 0.660435,-0.36695 0.531548,-0.18764 1.231672,-0.27711 1.956846,-0.29341 1.450337,-0.0341 3.064977,0.17135 3.962609,0.17135 0.50789,0 1.043665,0.14177 1.589933,0.34231 0.546275,0.20053 1.087236,0.46456 1.614394,0.7583 1.05432,0.58746 2.008867,1.24903 2.641739,1.56545 0.791327,0.39568 1.518783,0.81979 2.176993,1.17412 0.65821,0.35444 1.253409,0.63306 1.810082,0.75827 0.556666,0.1251 1.078798,0.0959 1.565475,-0.1956 0.486672,-0.29189 0.946006,-0.84023 1.394251,-1.73672 0.132564,-0.26497 0.318654,-0.46532 0.538129,-0.61149 0.219487,-0.14632 0.473966,-0.23427 0.758283,-0.2934 0.568618,-0.11828 1.236919,-0.0864 1.932381,-0.0489 0.695461,0.0379 1.409024,0.0872 2.054686,0.0228 0.645663,-0.0629 1.219626,-0.2411 1.638853,-0.66043 0.996063,-0.99607 1.41584,-1.79733 2.10361,-2.34821 0.343901,-0.27559 0.7524,-0.49166 1.345328,-0.63598 0.592933,-0.14443 1.362201,-0.22024 2.421597,-0.22024 0.552364,0 1.133715,-0.1304 1.712243,-0.31805 0.578519,-0.18764 1.154806,-0.42824 1.663314,-0.68488 1.017004,-0.51327 1.796932,-1.04523 1.956846,-1.12518 0.444061,-0.22214 0.675424,-0.2627 0.782737,-0.14671 0.107318,0.116 0.08639,0.39125 0.07331,0.73383 -0.01289,0.34268 -0.03412,0.76509 0.04894,1.22302 0.08313,0.45792 0.264711,0.9323 0.660435,1.39425 0.2428,0.28355 0.694969,0.58048 1.247488,0.83166 0.552517,0.25133 1.217397,0.46725 1.883467,0.66043 1.33213,0.38632 2.69288,0.63598 3.30217,0.63598 1.31994,0 2.99046,0.16187 4.62305,0.4403 0.33071,0.0565 0.57968,0.15505 0.90504,0.22025 0.10167,-0.6607 0.18465,-1.29452 0.41583,-2.07914 0.33476,-1.1361 0.74211,-2.33251 1.00288,-3.37558 0.12346,-0.49386 -0.0364,-0.97613 -0.26907,-1.4187 -0.23253,-0.44254 -0.55173,-0.85543 -0.73382,-1.19857 -0.0911,-0.17173 -0.14454,-0.32715 -0.14678,-0.46475 -0.002,-0.13761 0.0583,-0.24451 0.19568,-0.34231 0.2748,-0.19561 0.86763,-0.31805 2.00577,-0.31805 1.27368,0 2.70553,0.0189 4.03599,0.0978 1.33046,0.0789 2.55429,0.2229 3.42448,0.4403 0.60826,0.15201 1.92224,1.19425 3.22879,2.34821 1.30654,1.15399 2.61514,2.41947 3.17988,2.98418 1.33663,1.33663 2.21578,2.10491 2.98418,2.49498 0.3842,0.19485 0.72317,0.29834 1.10072,0.31805 0.37757,0.0189 0.78629,-0.0303 1.24749,-0.1467 0.58989,-0.14746 1.00877,-0.35937 1.36979,-0.58704 0.36104,-0.22783 0.65673,-0.47961 1.00289,-0.70937 0.34614,-0.22973 0.7511,-0.43318 1.29641,-0.58705 0.5453,-0.1539 1.24301,-0.2445 2.20145,-0.2445 1.56468,0 2.58519,0.38006 3.57124,0.51369 0.49302,0.0667 0.97765,0.0766 1.51655,-0.0732 0.5389,-0.15012 1.12275,-0.44459 1.83455,-0.97844 1.04853,-0.7864 1.81977,-1.1513 2.54389,-1.541 0.724121,-0.38973 1.396001,-0.80895 2.250371,-1.66332 0.14758,-0.14746 0.58726,-0.20053 1.14965,-0.1956 0.56239,0.004 1.246,0.0591 1.95684,0.12244 1.42169,0.12585 2.88487,0.28203 3.30217,0.0732 0.74945,-0.37453 1.43343,-0.60725 2.07915,-0.78272 0.64572,-0.17552 1.24667,-0.29189 1.81008,-0.41585 0.56342,-0.12396 1.08739,-0.26953 1.58994,-0.4892 0.50255,-0.21987 0.98005,-0.51532 1.44318,-0.97844 0.5876,-0.58761 1.43419,-1.20206 2.29929,-1.76116 0.86508,-0.55907 1.76803,-1.06745 2.51943,-1.44316 1.49569,-0.74784 2.23347,-1.15676 2.76405,-1.71226 0.53057,-0.55546 0.84392,-1.24755 1.49208,-2.54388 0.25497,-0.50994 0.39725,-1.10282 0.48922,-1.73671 0.092,-0.63386 0.14632,-1.30707 0.17123,-1.95685 0.025,-0.64974 0.0197,-1.27696 0.0733,-1.83451 0.0538,-0.55755 0.1638,-1.06146 0.34246,-1.41874 0.69492,-1.38982 0.81991,-2.24415 1.17411,-2.86186 0.17711,-0.30895 0.38938,-0.56198 0.78273,-0.78276 0.39336,-0.22062 0.9506,-0.40887 1.76116,-0.61149 0.45434,-0.11372 0.90323,-0.34799 1.32087,-0.66043 0.41765,-0.31236 0.80622,-0.70952 1.19858,-1.10073 0.7847,-0.78246 1.52293,-1.60536 2.27483,-1.98133 0.66428,-0.33208 1.44262,-0.5237 2.27483,-0.63594 0.8322,-0.11221 1.73509,-0.13875 2.64174,-0.12245 1.8133,0.0341 3.68429,0.24451 5.23455,0.24451 0.84462,0 1.70944,0.19333 2.56836,0.51365 0.85893,0.32032 1.71467,0.75357 2.5439,1.22302 1.65847,0.93898 3.2006,2.0092 4.47628,2.51947 0.46131,0.18462 0.94562,0.26498 1.44317,0.26915 0.49756,0.004 1.00974,-0.0717 1.51656,-0.1956 1.01363,-0.24792 2.02203,-0.70524 2.9108,-1.14964 0.26187,-0.13078 0.54443,-0.12888 0.85612,-0.0227 0.31168,0.10424 0.66125,0.32942 1.00288,0.61153 0.68327,0.56433 1.39541,1.4187 2.07915,2.3482 1.36748,1.85904 2.56914,3.99625 2.98419,4.54967 0.51022,0.68029 1.09958,1.03174 1.68778,1.17412 0.58819,0.14253 1.17693,0.0648 1.7367,-0.14671 0.55976,-0.21152 1.09162,-0.54803 1.51655,-0.9295 0.42494,-0.38146 0.74582,-0.80671 0.9295,-1.17408 0.32597,-0.65198 0.63257,-1.09137 0.95396,-1.41874 0.32139,-0.32752 0.66066,-0.54826 1.02735,-0.70933 0.73338,-0.32222 1.59909,-0.46934 2.81296,-1.07628 0.45071,-0.22555 1.07688,-0.31881 1.78562,-0.34231 0.70874,-0.0228 1.51264,0.0227 2.29929,0.12244 1.57331,0.19561 3.10935,0.55717 3.91369,0.75827 0.8312,0.20774 1.5813,0.26574 2.25037,0.22025 0.66907,-0.0455 1.26289,-0.18954 1.78562,-0.41581 0.52273,-0.22631 0.9776,-0.52184 1.36979,-0.85612 0.3922,-0.33434 0.72542,-0.70633 1.00289,-1.07628 0.27555,-0.36732 0.69721,-0.61388 1.19856,-0.78272 0.50136,-0.16907 1.07475,-0.27672 1.71224,-0.31804 1.27498,-0.083 2.7301,0.0227 4.01154,0.0227 0.91665,0 1.57651,0.26422 2.10358,0.61149 0.52711,0.34724 0.91927,0.78962 1.3209,1.17412 0.4016,0.3845 0.8295,0.69561 1.36976,0.80721 0.27029,0.0557 0.55073,0.0705 0.90505,0 0.35444,-0.0705 0.77598,-0.22896 1.24751,-0.46475 0.24678,-0.1232 0.27484,-0.58287 0.17135,-1.22302 -0.10387,-0.64019 -0.34989,-1.46321 -0.61149,-2.2993 -0.52332,-1.67219 -1.17412,-3.40784 -1.17412,-3.93814 0,-0.85076 0.40724,-1.88311 0.80721,-2.98422 0.39992,-1.10107 0.80721,-2.25586 0.80721,-3.4 -4e-5,-0.35709 0.71388,-1.37893 1.4676,-2.39714 0.75372,-1.0182 1.55199,-2.0521 1.73671,-2.42159 0.37339,-0.74682 0.55937,-1.30881 0.63598,-1.78561 0.0766,-0.47685 0.0436,-0.87147 -0.0978,-1.24751 -0.28279,-0.75206 -0.93238,-1.44892 -1.61442,-2.81296 -0.15846,-0.31729 -0.0967,-0.72954 0.0732,-1.19857 0.17021,-0.46903 0.45201,-0.99937 0.75831,-1.54099 0.3063,-0.54167 0.63101,-1.10384 0.88056,-1.63887 0.24944,-0.53504 0.41581,-1.04293 0.41581,-1.4921 0,-0.41118 -3.68184,-4.72199 -4.2561,-5.87052 -0.68758,-1.37508 -1.36431,-2.17353 -1.85901,-3.03313 -0.24753,-0.42976 -0.44454,-0.88496 -0.58708,-1.4187 -0.0732,-0.2737 -0.0841,-0.67078 -0.12244,-1.00289 -0.33093,-0.10008 -0.66479,-0.16831 -0.9784,-0.29341 -0.78924,-0.31501 -1.48584,-0.71058 -2.00578,-1.17412 -0.26005,-0.23162 -0.49034,-0.49056 -0.63598,-0.75827 -0.14557,-0.26763 -0.22025,-0.55327 -0.22025,-0.85611 0,-0.54349 -0.72857,-2.52618 -1.56547,-4.18276 -0.41845,-0.82828 -0.86142,-1.56298 -1.24749,-2.00574 -0.19303,-0.22138 -0.3834,-0.37377 -0.53814,-0.41585 -0.15474,-0.0421 -0.27059,0.003 -0.36691,0.1956 -0.21786,0.87154 -0.51329,1.46499 -0.83165,1.88346 -0.31839,0.41846 -0.67097,0.67673 -1.05181,0.9295 -0.38084,0.25284 -0.79324,0.48162 -1.19857,0.85615 -0.40532,0.37453 -0.80676,0.87969 -1.19856,1.66328 -0.27984,0.55975 -0.65636,0.90979 -1.07627,1.14967 -0.4199,0.23996 -0.88137,0.38568 -1.34533,0.51365 -0.46395,0.12813 -0.93333,0.24072 -1.34533,0.46475 -0.41199,0.22404 -0.76331,0.54823 -1.02734,1.07628 -0.40157,0.80316 -0.80205,2.00958 -1.36979,3.00864 -0.28386,0.49955 -0.61627,0.94751 -1.00289,1.27196 -0.38662,0.32449 -0.83963,0.53814 -1.36978,0.53814 -2.92072,0 -4.35731,0.51365 -7.46047,0.51365 -0.82583,0 -1.34411,0.14254 -1.73671,0.34231 -0.39259,0.20015 -0.65246,0.46718 -0.92949,0.73382 -0.27703,0.26649 -0.57264,0.53386 -1.05181,0.73382 -0.47917,0.20016 -1.15356,0.34231 -2.15253,0.34231 -1.13526,0 -2.57751,0.24716 -3.88923,0.51369 -1.31171,0.26649 -2.48275,0.53814 -3.0331,0.53814 -0.87894,0 -1.542,0.14443 -2.07915,0.36695 -0.53716,0.22252 -0.95163,0.51604 -1.29641,0.88056 -0.68955,0.72908 -1.14029,1.67841 -1.95684,2.49498 -0.93854,0.93853 -1.35464,1.72095 -2.05469,2.15253 -0.35,0.21569 -0.76708,0.33889 -1.36979,0.3423 -0.60271,0.003 -1.38247,-0.10121 -2.44605,-0.36694 -1.05935,-0.26498 -2.81634,-0.77241 -4.42736,-0.95396 -0.80551,-0.0906 -1.57061,-0.0853 -2.20145,0.0489 -0.31543,0.0671 -0.59899,0.16907 -0.83167,0.31804 -0.23267,0.14898 -0.41423,0.33928 -0.53813,0.58704 -0.32619,0.6524 -0.66066,1.1209 -1.0518,1.4432 -0.39114,0.32221 -0.84295,0.508 -1.34533,0.61153 -1.00478,0.20697 -2.28382,0.0735 -4.01153,0.0735 -0.60302,0 -2.52357,-0.21494 -4.4029,-0.31805 -0.93967,-0.0516 -1.87299,-0.0629 -2.61728,-0.0228 -0.74429,0.0387 -1.28614,0.13647 -1.49209,0.34231 -0.91318,0.91317 -1.11641,1.72769 -1.58994,2.29931 -0.23677,0.28582 -0.55779,0.50315 -1.0518,0.66043 -0.49402,0.15731 -1.18094,0.2445 -2.17699,0.2445 -0.96182,0 -1.75961,0.14254 -2.44605,0.34231 -0.68646,0.20015 -1.25012,0.46718 -1.76116,0.73382 -0.51106,0.26649 -0.95862,0.53386 -1.39425,0.73382 -0.43565,0.20016 -0.86067,0.31805 -1.32087,0.31805 -0.60465,0 -2.76548,-0.2047 -4.9655,-0.51365 -2.20002,-0.30895 -4.43383,-0.71259 -5.16117,-1.07628 -1.74679,-0.87336 -3.2264,-1.4435 -4.7209,-1.90791 -1.49449,-0.46444 -3.018091,-0.8279 -4.892101,-1.29641 -0.841,-0.21039 -1.6706,-0.24564 -2.47052,-0.1956 -0.79992,0.05 -1.56915,0.19181 -2.29929,0.34231 -0.73015,0.15087 -1.39854,0.29947 -2.03023,0.39139 -0.63168,0.0921 -1.20769,0.12624 -1.71223,0 -0.65249,-0.163 -1.3657,-0.59469 -2.07916,-1.12522 -0.71345,-0.53052 -1.44059,-1.15979 -2.17698,-1.78561 -0.73639,-0.62578 -1.48018,-1.23879 -2.20145,-1.68777 -0.72127,-0.44898 -1.41105,-0.73382 -2.07915,-0.73382 -0.75905,0 -1.4332,0.11789 -2.03022,0.31805 -0.59702,0.20015 -1.12266,0.46717 -1.58994,0.73382 -0.46729,0.26649 -0.87762,0.53381 -1.24749,0.73378 -0.36987,0.20015 -0.69811,0.34231 -1.00288,0.34231 -0.81596,0 -1.59022,0.14253 -2.29929,0.34231 -0.70907,0.20015 -1.34489,0.46717 -1.93238,0.73382 -1.17501,0.53325 -2.09012,1.05179 -2.69067,1.05179 -3.15424,0 -5.80533,-0.53814 -9.07486,-0.53814 -0.81709,0 -1.57747,-0.18916 -2.25037,-0.4892 -0.67291,-0.29985 -1.25637,-0.70077 -1.76116,-1.10073 -1.00958,-0.7999 -1.665542,-1.58994 -1.859013,-1.58994 -0.549937,0 -1.145257,0.1903 -1.736692,0.46475 -0.591443,0.27446 -1.188033,0.6278 -1.761159,0.95396 -0.573133,0.326 -1.119374,0.62741 -1.614398,0.78276 -0.495031,0.15542 -0.939278,0.16489 -1.296411,-0.0736 -1.066539,-0.71103 -2.113357,-1.41707 -3.179869,-2.12807 -1.159143,0.232 -2.269814,0.36505 -3.400022,0.4403 -1.130212,0.0754 -2.294306,0.0735 -3.546779,0.0735 -1.670217,0 -3.225881,-0.0459 -4.720884,-0.26914 -0.74751,-0.11145 -1.479844,-0.2483 -2.201451,-0.46475 -0.721603,-0.21646 -1.420431,-0.50232 -2.128065,-0.85615 -0.775463,-0.38772 -1.647405,-0.474 -2.543903,-0.58704 z"
       style="fill:#000000;fill-opacity:1;fill-rule:evenodd;stroke:#d39062;stroke-width:0.391369;stroke-linecap:butt;stroke-linejoin:miter;stroke-miterlimit:4;stroke-dasharray:none;stroke-opacity:1"
       id="Yungay"
       inkscape:connector-curvature="0" />
  </g>
</svg>
