<?xml version="1.0" encoding="UTF-8" standalone="no"?>
<!-- Created with Inkscape (http://www.inkscape.org/) -->

<svg
   width="210mm"
   height="297mm"
   viewBox="0 0 210 297"
   version="1.1"
   id="svg1283"
   inkscape:version="1.1.2 (b8e25be833, 2022-02-05)"
   sodipodi:docname="vector.svg"
   xmlns:inkscape="http://www.inkscape.org/namespaces/inkscape"
   xmlns:sodipodi="http://sodipodi.sourceforge.net/DTD/sodipodi-0.dtd"
   xmlns="http://www.w3.org/2000/svg"
   xmlns:svg="http://www.w3.org/2000/svg">
  <sodipodi:namedview
     id="namedview1285"
     pagecolor="#ffffff"
     bordercolor="#666666"
     borderopacity="1.0"
     inkscape:pageshadow="2"
     inkscape:pageopacity="0.0"
     inkscape:pagecheckerboard="0"
     inkscape:document-units="mm"
     showgrid="false"
     inkscape:zoom="0.52347032"
     inkscape:cx="155.69173"
     inkscape:cy="458.47872"
     inkscape:window-width="1920"
     inkscape:window-height="1017"
     inkscape:window-x="-8"
     inkscape:window-y="-8"
     inkscape:window-maximized="1"
     inkscape:current-layer="layer1" />
  <defs
     id="defs1280" />
  <g
     inkscape:label="Capa 1"
     inkscape:groupmode="layer"
     id="layer1">
    <path
       d="m 45.992273,4.0314856 c -6.399656,1.0851 -0.771621,6.3745204 1.860676,2.50788 -0.394173,-1.00799 -1.10932,-1.75685 -1.860676,-2.50788 z m 6.795502,3.15511 c 2.429304,3.2753104 0.531152,3.5780604 -0.566313,7.5005304 -0.661327,3.49293 -5.413791,2.13041 -5.51426,6.66992 -2.271868,1.72709 -1.763287,5.84425 -5.730662,5.73065 -2.931929,2.05465 -2.171564,3.25215 -4.934845,5.58204 -2.248997,3.02675 -4.115316,3.77664 -7.340709,5.46544 -2.927732,1.64032 -5.539046,3.3839 -4.470544,6.34581 1.518068,1.78277 -4.28745,4.7399 0,6.79544 0.159392,3.59245 -4.287705,-2.32262 -2.507886,2.50787 -2.302293,-0.10865 -1.716428,1.90433 -3.721331,3.27082 0.0043,3.70664 -2.527414,2.99826 -5.582007,4.8191 0.456446,2.99954 -4.9729578,2.21179 -6.2292238,4.28764 -1.9147,1.80488 4.1784888,6.14843 5.5820148,4.36858 0.90145,-3.60496 4.113781,1.17503 5.662911,2.50779 2.4469,-0.1731 7.356296,1.08421 4.287636,3.72142 -2.381854,1.73893 -0.133389,7.81377 -1.155571,8.08984 2.890607,-3.04562 4.288025,2.40813 7.639358,1.86071 2.606549,-2.06664 2.62915,3.62025 6.621839,1.21346 1.693325,3.18075 2.077794,3.90247 5.639904,5.01575 4.243364,-0.20983 4.101191,4.4268 7.384841,4.9348 2.170971,4.359064 3.780094,-1.24277 2.507862,-4.3685 2.344257,0.81705 5.85912,-0.21882 8.00898,0 2.41528,0.35146 5.38487,0.82386 3.15507,3.72134 -1.0094,2.60536 0.0712,2.45938 -1.1556,4.368504 3.38039,0.64522 4.75824,1.86281 8.5983,0.64747 0.92995,-2.04993 -2.25188,-6.338404 -0.64716,-8.795014 0.3968,-2.3849 7.77513,-3.49001 3.25703,0.58826 -2.41319,1.27057 -1.05676,5.58347 0.46432,6.992984 1.00665,3.71294 4.91248,3.2466 6.8764,1.21346 2.03105,-2.766934 4.38743,2.78964 6.69351,-1.7441 0.41568,-3.331964 3.0259,-5.320514 3.25706,-8.403154 -0.0992,-4.15935 -0.70472,-8.82528 3.07417,-9.10668 -2.54628,-4.7318 3.32024,-2.48951 5.58201,-3.86012 1.82872,-2.85049 3.879511,0.95733 6.229241,-0.50808 4.849,-0.31474 3.41995,3.77957 2.50784,6.9343 -2.1438,2.54077 0.3537,4.98817 -0.64716,8.85286 -1.51411,2.19462 -1.26574,6.570404 -2.35924,9.547384 0.36458,4.49402 -0.76053,6.35084 -3.22279,8.9436 1.00939,3.12881 3.80872,4.2337 1.21349,7.95106 -0.28972,4.30653 -1.09698,5.11466 0,9.38432 0.11278,1.45574 1.36547,6.27207 3.15504,7.44267 2.62979,0.65496 5.91246,0.44513 9.30339,0 2.20695,0.51408 5.40863,-1.04643 8.65619,0.56654 3.61624,3.49195 -3.19388,3.27403 -4.93486,1.86063 -1.85874,2.24858 -7.56583,1.38035 -8.73707,-0.56653 -3.78721,-2.71912 -4.2547,2.8815 -4.28765,4.9348 -2.33353,2.36332 -1.47724,7.38063 0,9.95055 0.65039,3.02089 3.75622,5.48538 1.86068,8.73708 -1.77005,2.33139 1.26459,4.79146 3.07417,3.72142 2.09714,-1.61274 5.62196,-4.00363 7.97329,-3.25711 2.83594,0.53207 5.28873,4.0743 0.11661,3.82333 -2.47678,1.69038 -6.65645,1.51007 -8.73708,3.15511 -2.98786,0.95905 -5.1698,2.51836 -4.93481,5.58197 -3.23333,2.05023 -1.47223,6.51121 -0.64723,8.79501 -0.84403,3.98856 2.91765,6.64684 2.35921,8.44962 2.55238,1.74282 3.42423,4.21623 5.16437,6.37788 0.44828,2.90692 6.22161,2.56153 3.72136,6.99215 0.37169,4.27685 -1.97891,6.65119 0,9.95055 0.48724,3.79523 0.85634,6.67636 1.21347,9.10675 -0.18959,4.14728 4.71103,3.47801 4.36854,7.44268 -2.64589,3.68041 4.37652,1.29439 3.82336,2.39133 -1.89485,1.91669 -5.90069,1.70319 -6.97843,-0.53056 -5.19462,-0.0899 0.72953,4.44209 -0.56623,7.52361 -1.36018,2.44583 1.17294,6.33892 2.32496,7.32616 0.58129,1.92604 -1.40567,6.39788 0.10191,8.77274 2.21849,1.78375 0.67564,6.61919 5.01573,6.87637 1.95553,-0.21207 5.09385,-0.22256 6.7955,2.50788 2.79952,0.99089 1.67049,3.68708 4.36854,5.58204 3.34095,1.21024 4.23079,3.61687 5.43339,6.64684 1.13903,4.57391 3.97228,-0.81585 5.73067,-1.71203 3.16688,1.64308 4.07353,3.88373 7.37494,4.86706 1.33117,3.04899 2.92247,3.67705 5.73068,4.43632 3.463,2.70743 -0.29682,-5.90863 4.93483,-4.36858 2.23376,-0.98153 3.09522,-5.62236 6.08058,-5.0834 1.18546,0.77305 3.07127,6.90514 1.36212,7.59128 -1.39947,1.53922 0.55318,6.40973 3.15506,6.87644 3.2431,-0.11915 6.72435,-1.53908 7.44268,-5.01574 2.24213,-3.13698 0.41254,-5.41396 0.41059,-9.43895 1.50262,-4.38573 -3.05461,-9.08022 2.34818,-10.43711 1.56617,-3.62048 4.44756,-5.47466 5.62928,-9.32018 3.3763,1.5952 6.86328,-1.48975 5.28387,-6.21511 2.16944,-2.78515 4.34514,-5.42371 5.58202,-8.73648 -1.6974,-4.24583 3.98518,-6.21026 2.66357,-10.02818 -2.32351,-2.74093 -2.9687,-6.19617 -5.02279,-9.01915 -3.02915,-1.04419 1.65473,-6.08893 0.49857,-9.19817 1.62136,-4.47769 0.4844,-6.95918 -4.2199,-8.19513 -3.54032,-0.85212 -5.34219,-5.56751 -8.20539,-0.8124 -3.61146,2.00609 -6.80678,1.42876 -8.68934,-1.84407 -1.57134,-3.11847 -1.07412,-6.70454 -1.86065,-9.95062 -0.98037,-2.61346 -1.69131,-7.40401 1.83559,-8.98798 0.2269,-2.81743 -3.18986,-6.85178 -4.04863,-10.33692 -2.04524,-2.88159 -4.26673,-4.36685 -5.87685,-8.01895 0.61036,-2.93516 4.44271,-5.12709 1.86067,-9.30331 -4.27907,-2.98598 0.85926,-6.60989 -0.54502,-10.13369 -0.92163,-3.94436 -6.4593,-3.30192 -6.45913,-7.953 0.68434,-5.81054 -4.669,-1.54171 -6.02057,-4.88866 -1.87478,-2.22093 -5.67431,-2.60805 -6.22921,-5.58204 -0.0985,-4.05728 -2.51295,-5.00832 -6.08058,-6.08054 -4.32143,-0.36045 -1.39443,-5.03978 -2.65651,-7.84583 -1.97325,-3.07403 0.10005,-4.9193 1.86068,-7.1882 3.02408,-2.05719 -0.5337,-5.7203 -4.36854,-3.72133 -3.75212,-1.80578 -5.98301,0.96183 -9.30338,-1.2944 0.18809,-3.749074 1.45626,-6.417914 3.72135,-8.089924 1.60615,-2.16158 1.3641,-4.63243 3.72135,-6.85337 1.57746,-2.34038 5.58816,-2.24738 6.22922,-5.52411 2.65172,0.76115 5.7519,2.40543 7.44269,3.72134 -0.35738,3.78638 1.45513,4.81034 6.22924,4.3685 2.74667,-1.1781 6.9254,-1.63118 6.2292,-5.58197 -2.44143,-0.71491 -4.30929,-5.51588 -1.2135,-6.87645 0.36301,-3.20269 2.63047,-4.87268 3.07418,-8.85279 1.29489,-4.36579 -4.34193,-5.1492 -5.58204,-4.81909 -2.88181,1.98196 -4.8552,-2.6295 -6.87638,-3.72134 0.55432,-2.75359 5.78662,-1.68138 6.2292,-5.58205 3.06227,-4.76417 -3.80557,-3.49607 -4.93483,-5.58204 -3.46853,-1.49449 -5.51288,-2.5694 -7.44271,0.56653 -2.74004,1.24839 -6.02063,-1.32483 -7.52359,-3.07418 -1.52533,-2.96716 -2.55963,-4.61737 -6.14832,-5.58197 1.22291,-3.20045 1.22993,-5.72113 0,-9.55795 -1.32799,-2.52427 -6.64296,-1.06149 -7.4427,-4.11401 -3.49707,-0.34996 -5.7146,-0.31399 -8.73708,-1.86063 -1.77202,-2.44102 -3.87606,-4.47859 -5.58202,-6.22921 -3.87209,0.0674 -3.85021,4.02394 -6.22922,5.58197 0.60752,4.15365 -5.16247,2.18871 -5.58203,6.22921 -2.708371,1.81581 -5.601331,2.59105 -7.442691,4.42643 -0.95145,2.81047 -2.89408,4.91989 -5.58203,4.87695 -4.76578,3.48086 -2.61566,-4.54521 -6.28708,-4.28764 -3.0925,-1.39467 -2.72304,-5.19028 -8.03201,-3.8022 -1.69684,3.42676 -3.6439,-4.29821 -1.86068,-6.79551 -2.73664,-1.70956 -5.69979,-1.62024 -5.58203,-6.28714 -3.20593,-1.3802 -4.81824,-4.27341 -1.86068,-6.73758 -2.06304,-3.7770204 -2.97445,-4.6929904 -7.44269,-5.0157504 0.0817,-1.1754 -3.081256,-0.25778 -3.155072,-1.21346 z M 118.63949,236.45408 c 1.98767,0.33422 -0.33415,-1.98765 0,0 z M 16.140571,49.415796 c -1.028013,5.13505 5.869964,-0.50733 0.795832,0.14838 l -0.148752,-0.14838 z m 83.244998,26.69661 c 1.987641,-0.33422 -0.33415,1.98765 0,0 z m 0,7.52361 c -1.57949,2.45376 -3.57604,2.32195 -3.07417,6.14835 -0.39927,3.09988 -3.92771,3.96017 -3.6536,7.37494 -1.68248,2.25143 -1.82619,5.237554 -3.22282,8.296444 1.58328,3.02966 5.4637,2.29527 7.52361,4.22972 1.07202,-2.83805 1.20704,-6.6132 2.42698,-9.30339 2.560461,-3.246004 0.20615,-7.623204 1.294371,-10.147184 -1.158321,-1.25821 1.72494,-5.91702 -1.294371,-6.59888 z m -36.64725,21.114644 c -3.46295,3.24863 3.69855,3.79553 0.64724,1.21347 1.45057,0.92308 -0.47585,-1.89323 -0.64724,-1.21347 z m 6.22924,0.56653 c -1.44767,4.68137 7.6033,-1.10796 0,0 z m -8.73707,4.36857 c -2.66368,3.75971 3.0512,6.02703 4.36853,2.50787 3.39113,-3.4511 -1.11357,-2.30822 -4.36853,-2.50787 z m 29.85169,1.21348 c -1.23479,3.23139 -7.34026,-1.80144 -7.4427,3.21296 -2.45572,1.36866 -0.65931,6.24126 -3.72136,5.52411 1.39652,-2.44859 2.10829,-8.5887 -1.35224,-6.87636 -2.91043,0.83225 -3.65785,4.91381 -3.66348,8.54103 0.0472,3.93573 -4.71889,3.10618 -4.28765,6.99155 -4.35825,3.1384 5.30474,2.42972 4.93483,1.94157 2.86458,-0.7915 3.27946,2.47032 6.99215,1.21346 1.2698,1.93228 3.79327,4.20349 5.46628,6.22921 2.16375,0.74189 4.79455,4.82878 8.14777,2.42694 1.73161,-1.54477 2.79652,-5.62633 2.53404,-8.52327 -0.51152,-2.77601 -0.19979,-5.00863 -2.02562,-7.77219 -2.68184,-3.18336 -0.32779,-6.00312 1.86067,-7.24612 -1.56206,-3.25514 -3.22492,-4.60867 -6.69352,-5.54629 l -0.10192,-0.11691 z m -18.04046,25.48321 c -4.88428,2.52982 4.61891,3.22135 0.64724,0 z"
       style="fill:#000000;fill-opacity:1;stroke:#d39062;stroke-width:0.991364;stroke-miterlimit:4;stroke-dasharray:none;stroke-opacity:1"
       id="Hornopiren" />
  </g>
</svg>
