<?xml version="1.0" encoding="UTF-8" standalone="no"?>
<!-- Created with Inkscape (http://www.inkscape.org/) -->

<svg
   width="210mm"
   height="297mm"
   viewBox="0 0 210 297"
   version="1.1"
   id="svg1283"
   inkscape:version="1.1.2 (b8e25be833, 2022-02-05)"
   sodipodi:docname="vector.svg"
   xmlns:inkscape="http://www.inkscape.org/namespaces/inkscape"
   xmlns:sodipodi="http://sodipodi.sourceforge.net/DTD/sodipodi-0.dtd"
   xmlns="http://www.w3.org/2000/svg"
   xmlns:svg="http://www.w3.org/2000/svg">
  <sodipodi:namedview
     id="namedview1285"
     pagecolor="#ffffff"
     bordercolor="#666666"
     borderopacity="1.0"
     inkscape:pageshadow="2"
     inkscape:pageopacity="0.0"
     inkscape:pagecheckerboard="0"
     inkscape:document-units="mm"
     showgrid="false"
     inkscape:zoom="0.74029882"
     inkscape:cx="361.34057"
     inkscape:cy="561.93525"
     inkscape:window-width="1920"
     inkscape:window-height="1017"
     inkscape:window-x="-8"
     inkscape:window-y="-8"
     inkscape:window-maximized="1"
     inkscape:current-layer="layer1" />
  <defs
     id="defs1280" />
  <g
     inkscape:label="Capa 1"
     inkscape:groupmode="layer"
     id="layer1">
    <path
       d="m 186.15508,40.382264 -0.52724,0.60245 h -4.06638 l -1.20489,1.12952 h -0.52724 l -1.20481,0.60245 v 0.52723 h -0.52724 l -0.60244,0.60245 h -2.33442 l -0.52723,1.12952 -0.60245,0.60245 -0.60244,0.60244 -0.52724,0.52724 -0.60245,-0.52724 h -1.1296 l -0.60244,0.52724 h -1.12889 l -0.60244,0.60244 h -0.60245 l -0.52724,-0.60244 h -7.00315 l -0.52724,0.60244 h -0.60245 l -1.12952,0.60245 0.52724,1.12952 v 0.60245 l 0.60244,0.52724 h 0.60245 v 2.93669 h 0.52724 v 1.12953 h 0.60244 l 0.60245,0.60244 -0.60245,0.60245 v 1.12952 l 0.60245,0.60244 0.52723,0.52724 0.60245,0.60245 v 0.60244 l 0.60244,0.52724 v 0.60244 h 1.12953 v 1.731885 h -0.60245 l -0.52724,0.60245 h -1.73196 l -1.73197,0.52724 h -0.60245 l -1.12952,0.60244 h -1.20489 l -1.73197,0.60245 -0.52724,0.52723 h -1.73196 l -0.60245,0.60245 -0.60244,1.1296 -1.12953,1.20481 -0.60244,1.12952 -0.60245,0.60245 -1.12952,0.60244 h -1.73197 -1.73205 l -1.73196,-1.80725 v -1.12952 l -0.60245,-0.60245 h -0.52724 v -0.52724 h -1.73196 l -0.60245,-0.60244 h -1.12952 l -1.20489,-0.60245 h -0.60245 l -0.52724,-0.52723 H 135.852 l -0.60244,-0.60245 h -7.45504 l -1.73196,-1.73197 h -4.06638 l -0.60245,-0.60244 v -0.52724 l -0.60244,-0.602445 v -0.60244 h -0.52724 l -1.20481,-1.12952 -0.52724,-0.60245 -19.654166,13.328345 h -0.60245 l -0.60244,0.60244 h -1.73189 l -1.1296,-0.60244 h -1.20481 l -0.52724,-0.60245 h -1.20489 l -1.12952,1.20489 0.60244,0.52724 1.12953,3.46386 -1.12953,1.73196 -0.60244,1.73189 v 1.20489 l -0.60245,0.52724 v 1.20481 l -0.52724,0.52724 h -0.60244 l -1.12952,1.20489 h -1.20489 l -0.52724,-0.60245 h -6.40072 v -0.60244 l -1.1296,-0.52724 h -1.73197 l -0.60244,0.52724 h -0.60245 l -0.52723,0.60244 h -0.60245 l -0.60244,0.60245 v 0.60244 l -0.52724,0.52724 v 0.60245 h 0.52724 v 1.12952 l -1.73205,1.73197 -0.52724,1.20481 v 0.52723 l 0.52724,0.60245 v 1.12952 l -0.52724,1.20481 h -0.60245 v 2.25905 l -0.60244,0.60244 v 2.9367 h -1.12952 l -0.60245,0.52724 h -0.52724 l -1.20489,1.204811 h -1.73196 l -0.60245,-0.602451 -0.52724,0.602451 -1.73196,0.52724 -0.60245,-0.52724 v -0.602451 l -1.1296,-0.60244 -0.60245,-0.52724 h -0.60244 l -0.52724,-0.60244 v -2.33434 l -1.20481,-0.60244 h -0.52724 v -0.52724 h -0.60244 v -3.46386 l -1.12953,-0.60244 -0.60244,-0.60245 h -1.73197 l -1.12952,-0.52723 h -2.93686 v 0.52723 l -0.60244,0.60245 v 0.60244 l -0.52724,0.52724 v 0.60245 l -0.60245,0.60244 -1.12952,1.12953 -0.60245,0.60244 v 2.25905 l -0.60244,0.60244 v 0.60245 h -0.52724 l -1.20489,0.60244 h -4.59354 l -0.60244,0.52724 h -1.73197 l -1.1296,1.204811 v 0.52724 l -0.60245,0.60244 v 1.73197 l 0.60245,0.60244 1.1296,1.12953 v 2.33433 l -0.60244,0.52724 h -0.52724 l -0.60245,0.60244 h -0.60244 l -1.12961,0.60245 -0.60244,-0.60245 h -0.52724 l -1.20489,1.12953 h -2.86149 l -0.60244,0.60244 h -2.25905 l -0.60245,-0.60244 h -0.60244 l -0.52724,0.60244 -0.60244,-0.60244 h -0.60245 l -0.60244,0.60244 h -2.86149 l -0.60245,0.60245 h -0.52724 l -1.20481,-0.60245 -0.52724,0.60245 v 0.52724 l -0.60244,0.60244 -0.60245,0.60244 h -1.73204 l -0.52724,0.60245 h -1.20481 l -0.52724,-0.60245 -1.2048901,1.12953 h -1.12952 l -0.60245,0.60244 v 1.12953 l -1.12952,1.2048 0.52724,1.73197 -2.86149,19.05125 -1.73197,11.59646 -1.73197001,10.39157 v 1.73196 l 0.60245001,0.60245 v 0.52724 l -0.60245001,0.60244 v 1.12952 l 0.60245001,1.20481 -0.60245001,0.52724 v 1.20489 l 0.60245001,1.12944 0.52723,0.60245 -0.52723,0.52724 1.12952,1.20489 v 0.60244 h 1.12952 v 0.52724 l 1.20489,1.20481 h 1.73197 v 1.12952 h 1.73197 v 0.60245 l 0.60244,0.52724 h 1.12953 l 0.6024401,0.60244 h 1.12952 v 0.60245 h 2.33442 l 0.52723,0.52723 0.60245,0.60245 h 1.1296 l 0.60245,0.60244 v 1.12953 h 0.60244 l 1.73197,1.73189 v 0.60244 l 2.86157,2.86149 v 1.73189 l 1.73197,1.73197 v 0.60244 l 0.60244,0.60245 v 2.86141 l 0.60245,1.1296 v 0.60245 h 0.52724 l 0.60244,0.60244 1.12953,1.12952 v 0.60245 l 0.60244,0.52724 v 0.60244 l 2.33441,2.33433 h 0.52724 l 1.73205,1.73197 v 1.12953 l 0.60244,0.60244 v 9.78928 h 2.33442 l 0.52724,0.60245 h 2.33441 l 0.60244,0.60244 h 1.12961 l 1.2048,0.60245 h 4.59354 l 1.12953,0.52724 h 1.20489 l 0.52724,0.60244 1.20488,-0.60244 0.52724,-0.52724 1.20489,0.52724 h 1.12953 l 0.60244,0.60244 h 0.60245 l 0.52723,0.60244 h 1.73205 l 0.60245,0.52724 h 0.60244 l 0.52724,0.60245 h 1.20481 l 0.52724,0.60244 h 2.33441 l 0.60245,0.52724 h 1.73196 l 1.12953,0.60245 h 1.73196 l 0.60245,0.60244 h 1.73197 l 0.60244,0.52724 h 0.52724 l 1.20489,1.20489 h 0.52724 l 0.60244,0.52724 h 1.12961 3.46393 l 1.20481,1.20481 0.52724,0.52724 v 0.60244 l 0.60244,0.60244 v 0.52724 l 0.60245,0.60245 v 0.60244 l 0.60244,0.52724 v 1.20481 l 0.52724,0.60245 h 0.60245 l 0.60244,0.52723 v 2.33434 l 0.52724,0.60244 v 0.52724 l 1.20481,1.20481 v 0.52724 l 3.46402,3.46385 h 0.52723 l 0.60245,0.60245 h 0.60244 l 1.12953,0.60244 h 0.60244 v 0.52724 l 1.73197,1.73189 h 0.52724 l 0.60244,-0.52724 0.60245,0.52724 h 1.1296 v 1.80725 l 0.60245,1.12953 v 0.60244 h 0.60244 l 0.52724,0.52724 h 0.60244 l 1.12961,1.20481 h 1.731966 l 1.2048,0.52724 h 2.25913 l 1.20489,1.20481 h 0.52724 l 2.33441,2.25904 h 0.60245 l 0.60244,0.60245 h 1.12952 l 0.60245,0.60244 h 1.73197 l 0.52724,0.52724 h 0.60244 l 0.60244,0.60245 v 0.60244 l 1.12953,1.12945 v 0.60244 l 0.60244,1.12952 h 1.12953 v -0.60244 l 1.1296,-1.1296 v -0.60245 l 0.60244,-1.12952 v -0.60245 h 0.60245 l 1.1296,-1.12952 h 2.33433 l 0.60245,-0.60245 h 2.86157 l 0.60244,-0.52723 h 1.12961 l 0.60244,-0.60245 h 1.12961 l 0.60244,-0.60244 h 1.12952 l 0.60245,-0.52724 -1.20489,-1.20481 v -0.52724 l -1.73197,-1.73189 v -2.33441 l 1.73197,-1.73189 v -0.60244 l 0.60244,-0.60245 h 0.60245 l 0.52724,-0.52724 0.60244,-0.60244 v -8.05732 l 0.60245,-0.60244 v -0.60245 l 0.52724,-0.52723 v -0.60245 l -1.12953,-1.20481 v -0.52724 l -0.60244,-0.60244 0.60244,-1.12953 v -0.60244 l -0.60244,-0.60244 v -1.12953 l -1.12953,-1.12952 v -0.60245 l -0.60244,-0.60244 v -0.52724 l -1.12952,-0.60244 -0.60245,-1.12953 v -0.60244 l -0.52724,-0.60245 h -0.60244 l -0.60245,-0.52723 v -2.93678 l -1.12952,-1.12953 v -0.60244 l 0.60244,-0.60244 -0.60244,-0.52724 -0.60244,-0.60245 h -1.12953 l -0.60244,-0.60244 h -0.52724 v -2.25897 l 0.52724,-0.60244 h 0.60244 l 0.60245,-0.60245 v -0.52724 l 0.52724,-0.60244 v -1.12953 l 0.60244,-0.60244 v -0.60244 l -0.60244,-0.52724 h -1.73197 l -1.12961,-1.20489 h -1.2048 l -0.52724,-0.52724 v -1.80725 l 0.52724,-0.52724 v -1.73197 l -1.12953,-1.20481 v -1.73189 l -0.60244,-0.52724 v -1.73197 l 0.60244,-0.60244 v -0.60244 l 0.60245,-1.12953 v -0.60244 h 9.78944 v -1.73197 l -1.12952,-1.12952 h -0.60245 l -0.52724,-0.60245 v -1.1296 l 0.52724,-0.60245 -1.12952,-1.12952 -0.60245,0.52724 -0.52724,-0.52724 v -0.60244 h -0.60244 l -1.1296,-0.60245 0.52724,-0.52724 v -1.73189 l -0.52724,-0.60244 -0.60245,-0.60245 h -1.1296 v -1.12944 h -2.33441 v -0.60244 l -0.60245,-1.12953 0.60245,-0.60244 h -0.60245 l -0.60244,-0.52724 0.60244,-0.60244 0.60245,0.60244 h 3.46401 l 1.12953,1.12952 h 0.60244 l 0.60244,0.60245 h -1.73196 v 1.12952 l 0.52724,0.60245 h 1.2048 v 0.52723 h 2.25913 l 0.60245,0.60245 h 0.60244 l 1.12952,-1.12952 h 1.12953 l 0.60244,-0.60245 h 1.12953 l 0.60244,0.60245 0.60244,-0.60245 0.52724,0.60245 v 0.52723 h -0.52724 l -0.60244,0.60245 v 0.60244 h 0.60244 l 1.12953,0.52724 h 1.73197 l 1.20489,1.20481 h 1.12952 l 1.1296,-0.60244 h 0.60245 l 0.60244,0.60244 h 2.25913 l 1.20489,0.52724 h 1.73189 l 0.52723,0.60245 h 1.73197 l 0.60245,0.60244 0.60244,-0.60244 v -0.60245 l 0.60245,-0.52724 1.12952,1.12953 v 0.60244 h 0.60244 l 0.52724,-0.60244 h 1.73197 l 0.60245,-0.60245 h 0.60244 l 0.52724,-0.52724 h 1.20481 l 0.52724,-0.60244 h 0.60244 v -1.12953 l 0.60245,-1.20489 v -1.12944 l 1.1296,-1.12952 h 0.60244 l 0.52724,-0.60245 v -0.60244 l 0.60245,-0.52724 v -1.73197 h 1.1296 v -1.20481 l 1.20481,-1.12952 h 0.60244 l 1.12961,-1.20481 -0.60245,-0.52724 v -1.20489 l 0.60245,-1.12952 v -1.73189 l -1.12961,-1.12952 h -0.60244 l -0.60245,-0.60245 h -2.33441 l -1.12952,-1.12952 v -1.20481 l 0.60244,-0.52724 v -1.73197 l 0.52724,-0.60244 v -0.60245 l -0.52724,-1.12952 0.52724,-0.60244 v -5.19583 l -1.73197,-1.73189 h -0.52723 l -0.60245,-0.60244 h -0.60244 l -1.73197,-1.73189 v -0.52724 l -1.1296,-1.20481 h -0.60245 l -0.52724,-0.52723 v -1.20489 l 1.73197,-1.73189 v -0.60245 l 0.52724,-0.52724 -0.52724,-0.60244 v -0.60244 l 0.52724,-0.52724 0.60244,-0.60245 h 1.12961 l 1.20481,1.12953 h 1.1296 l 1.73189,-1.73197 h 0.60244 l 0.52724,-0.52724 0.60244,-0.60245 v -2.33433 l 0.60245,-0.52724 v -1.20481 h 1.73205 v -0.52724 l 1.73197,-1.73196 h 4.59345 l 0.60245,-0.60245 h 0.60244 l 1.12953,-1.20489 h 1.73197 l 0.60244,-0.52724 h 1.12952 l 1.20489,-0.60244 h 1.12953 l 0.60244,0.60244 h 2.25913 v 0.52724 h 2.33441 l 0.60244,-0.52724 v -0.60244 l 1.12961,-1.12944 h 0.60244 l 0.52724,-0.60245 h 0.60245 l 1.12952,-1.12952 h 1.20489 l 0.52724,-0.60245 v -0.60244 l 1.20489,-1.12952 h 1.73196 l 0.60245,0.60244 h 1.73197 l 0.52724,0.52724 h 0.60244 l 0.60244,-0.52724 h 0.52724 l 0.60245,-0.60244 1.1296,-1.12953 v -1.73197 l 0.60245,-0.60244 v -3.46386 l 0.60244,-0.60244 v -1.12952 l -0.60244,-0.60245 v -2.33433 l -0.60245,-0.52724 0.60245,-0.60244 h 0.60244 l 0.52724,-0.60245 0.60244,-0.52724 h 0.60245 l 1.73197,-1.73197 v -0.60244 l -0.60245,-0.60244 v -1.12953 l 0.60245,-0.60244 v -1.731971 l 0.52724,-0.52724 -0.52724,-0.60244 h -0.60245 l -0.60244,-0.60245 -0.52724,-0.60244 v -1.12953 l -0.60245,-0.60244 v -0.52724 l -0.60244,-0.60244 -1.1296,-1.12953 -1.12953,1.12953 v 0.60244 l -1.20489,1.12952 h -0.52724 l -0.60244,0.60245 -0.60244,-0.60245 h -0.52724 l -1.73197,-1.73196 h -0.60245 v -0.60245 l 0.60245,-0.52724 -0.60245,-1.20481 v -0.52724 h -0.60244 l -0.52724,-0.60244 v -0.60269 l -1.20481,-1.12952 h -0.60244 l -0.52724,-0.60244 h -0.60245 v -1.12953 h -1.12952 l -0.60244,-0.60244 0.60244,-0.52724 v -2.33433 l 1.12952,-1.20489 v -0.52724 l 0.60245,-0.60245 -0.60245,-0.60244 v -0.52724 l -0.60244,-0.60244 v -1.73197 l 0.60244,-0.60245 h 0.60245 l 0.52724,-0.52723 h 0.60244 l 0.60245,-0.60245 0.60244,-0.60244 -0.60244,-0.52724 v -1.20489 l -0.60245,-1.12953 v -0.60244 l 0.60245,-0.52724 v -0.60244 l 0.60244,-0.60245 h 0.52724 l 1.73197,-1.73189 v -0.60244 l 0.60244,-0.52724 v -0.60244 l 0.60245,-0.60245 -0.60245,-0.52724 v -0.60244 l -0.60244,-0.60245 h -0.52724 l -0.60245,-1.12952 0.60245,-0.60244 v -0.52724 l 1.12952,-1.20481 v -1.129525 l 1.12953,-1.12952 0.60244,-0.60244 v -2.33434 l -1.12952,-1.12952 v -3.46386 l 1.12952,-1.2048 v -1.12953 l -0.60244,-1.12952 v -1.20489 l -0.52724,-0.52724 v -1.20481 l -0.60245,-0.52724 -0.60244,-0.60244 -1.12953,-1.12953 h -0.60244 l -1.12952,-1.2048 h -0.60245 l -0.60244,-0.52724 v 0.52724 l -0.52724,0.60244 -1.20489,-0.60244 -1.73197,-0.52724 h -2.25913 l -0.60244,-0.60245 z"
       style="fill:#000000;fill-opacity:1;fill-rule:evenodd;stroke:#d38d5f;stroke-width:1.05841;stroke-linecap:butt;stroke-linejoin:miter;stroke-miterlimit:4;stroke-dasharray:none;stroke-opacity:1"
       id="Pucon" />
  </g>
</svg>
