<?xml version="1.0" encoding="UTF-8" standalone="no"?>
<!-- Created with Inkscape (http://www.inkscape.org/) -->

<svg
   width="210mm"
   height="297mm"
   viewBox="0 0 210 297"
   version="1.1"
   id="svg1283"
   inkscape:version="1.1.2 (b8e25be833, 2022-02-05)"
   sodipodi:docname="vector.svg"
   xmlns:inkscape="http://www.inkscape.org/namespaces/inkscape"
   xmlns:sodipodi="http://sodipodi.sourceforge.net/DTD/sodipodi-0.dtd"
   xmlns="http://www.w3.org/2000/svg"
   xmlns:svg="http://www.w3.org/2000/svg">
  <sodipodi:namedview
     id="namedview1285"
     pagecolor="#ffffff"
     bordercolor="#666666"
     borderopacity="1.0"
     inkscape:pageshadow="2"
     inkscape:pageopacity="0.0"
     inkscape:pagecheckerboard="0"
     inkscape:document-units="mm"
     showgrid="false"
     inkscape:zoom="0.52347032"
     inkscape:cx="155.69173"
     inkscape:cy="611.30496"
     inkscape:window-width="1920"
     inkscape:window-height="1017"
     inkscape:window-x="-8"
     inkscape:window-y="-8"
     inkscape:window-maximized="1"
     inkscape:current-layer="layer1" />
  <defs
     id="defs1280" />
  <g
     inkscape:label="Capa 1"
     inkscape:groupmode="layer"
     id="layer1">
    <path
       d="m 170.75509,37.169306 c -0.50866,-0.3813 -0.24357,1.53996 -0.86011,1.69414 -1.4986,0.37484 -3.07572,-0.55818 -3.07552,1.19892 -1.01288,1.30399 -2.36642,2.50659 -3.62287,3.62287 -4.17588,1.21311 0.99115,3.01941 -2.73662,6.90689 -0.716,0.95447 -1.43357,1.83212 -1.43357,3.20582 0,0.92935 -3.04849,-0.36434 -3.20582,-0.4431 -0.9121,-0.45595 -2.21931,0.65161 -3.20586,0.65161 -2.24508,0.0363 -3.61022,1.85793 -4.69145,3.62287 -1.3243,1.90119 -1.1536,2.76409 -1.77233,4.95206 0,0.68526 -0.23145,3.68895 -0.36515,4.22233 -0.88221,2.07734 -2.79111,3.88466 -4.89991,4.69145 -2.49819,0.16723 -2.73606,2.75076 -4.0398,4.48299 -2.38093,1.46802 -4.26855,0.31264 -6.1772,-1.27713 -1.04463,-0.78353 -2.56678,-1.06639 -2.86701,-2.26754 -0.25649,-1.0254 -2.59691,-3.03997 -3.36222,-3.80532 -1.80162,-0.7799 -1.71676,1.71792 -3.80524,2.42394 -0.50051,2.46769 -1.01769,3.61188 -2.97127,5.34306 -1.69861,1.51758 -1.27716,3.69081 -1.27716,5.76007 -0.40909,1.59675 -2.47549,1.9127 -3.90958,2.71061 -1.5076,1.79556 -0.22619,4.50467 -1.22493,6.46383 -2.18567,3.48133 -0.71022,5.82405 -2.7628,8.939834 -0.58864,1.17728 -1.58758,1.84153 -1.92865,3.20582 -0.40191,1.6081 0.29001,2.49875 -0.62556,3.41437 -1.51923,1.50457 -3.41474,0.68501 -5.13456,0 -0.18212,-0.0909 1.32925,-2.1242 0,-2.78885 -0.72483,-0.36232 0.0226,-1.85951 -0.62552,-2.34571 -1.390157,-1.69688 -0.666267,-4.359874 -2.528157,-5.447314 -2.09982,-0.0202 -5.32465,-0.18782 -5.78614,-0.93831 -2.42235,-0.0868 -4.82986,0.0921 -7.24572,0.20842 -1.77213,-1.10073 -2.75038,-2.99594 -3.88352,-4.6654 -1.08584,-1.08586 -1.27537,-1.40654 -2.31962,-1.92869 -0.28291,-0.14137 0.21525,-3.88259 0.1564,-4.11808 -1.70925,-3.72818 -5.08217,-4.77797 -4.84787,-9.12229 0.48387,-1.93564 -1.92158,-1.43595 -1.48563,-3.17977 -1.4378,-4.25186 0.70863,-3.68346 -0.62553,-5.13455 -1.26233,-0.94676 -2.01927,-1.36308 -2.5803,-2.11115 -1.33475,-2.27081 -3.32814,-3.73334 -5.29093,-5.36911 -0.56156,-0.74875 -1.23314,-1.66808 -2.3718,-1.66808 -2.52327,-0.48839 -3.46439,0.50486 -3.62285,1.48563 -0.14562,1.11903 -1.6682,1.68347 -5.76007,1.48563 -1.2835,-1.01074 -1.81907,-2.34082 -3.41435,-3.20582 -0.82689,-1.10255 -3.45135,-0.62556 -4.69146,-0.62556 -1.66667,0 -3.2022,-1.5564 -4.69147,-1.92869 -2.24403,-0.0901 -4.61025,-0.20075 -6.82868,0.20842 -2.6818,1.00488 -2.90838,-0.52861 -2.97126,-1.90264 -1.89719,-1.48955 -4.057649,-2.31008 -5.96859,-3.83137 -0.924541,-0.69338 -1.536049,-0.35425 -2.997323,-0.65161 -1.278797,-0.26013 -1.691781,-2.0092 -3.414345,-1.6941 -1.453862,0.26578 -2.165518,-2.21988 -2.554238,-2.99735 -0.164962,-0.15147 -0.372256,-0.16682 -0.547337,-0.28679 -0.03272,0.24316 0.0307,0.52825 -0.02585,0.75586 -0.221713,0.8869 -0.294864,2.12201 -0.104252,3.23192 0.09529,0.55491 0.2451,1.08497 0.495214,1.51168 0.250109,0.42666 0.577069,0.76253 1.016485,0.93827 0.788596,0.31547 1.583199,0.62285 2.371795,0.93832 l -14.178644,11.36374 -1.433508,2.84095 0.469145,6.15103 c 0.0923,0 0.908759,0.008 1.642014,0.078 0.73325,0.0719 1.385279,0.20479 1.198933,0.391 -0.72562,0.7256 -1.673414,1.05428 -2.554242,1.45957 -0.440414,0.20277 -0.84954,0.44214 -1.224999,0.72977 -0.375447,0.2876 -0.69696201,0.63808 -0.93829001,1.12073 -0.238517,0.47707 -0.377143,0.86464 -0.417019,1.17287 -0.03999,0.30819 0.01979,0.54021 0.130306,0.72981 0.221067,0.37928 0.69171101,0.57636 1.22498701,0.78187 0.533288,0.2056 1.130291,0.4007 1.589891,0.83407 0.229792,0.2165 0.408314,0.51116 0.547337,0.86007 0.13903,0.34899 0.234558,0.7719 0.234558,1.30322 0,0.33647 -0.347899,1.57805 -0.521275,2.89306 -0.08668,0.65747 -0.143191,1.35258 -0.0782,1.9287 0.06499,0.57611 0.252695,1.05185 0.599467,1.32927 0.788596,0.63084 1.583182,1.2457 2.371794,1.87659 L 2.513943,100.45156 c -0.157732,0 -0.34176,0.0691 -0.521276,0.10421 0.06875,0.32516 0.130831,0.6361 0.260652,1.04253 0.24805,-0.24801 2.2801,-0.33082 4.613275,-0.33889 2.333183,-0.008 4.960689,0.0521 6.437736,0.0521 0.526826,0 1.367819,-0.68695 2.554235,-1.25107 0.593214,-0.281944 1.295172,-0.528014 2.059036,-0.651574 0.763856,-0.1236 1.589843,-0.13047 2.528177,0.10421 2.145274,0.536294 3.522876,0.44032 4.561141,0.625524 0.519134,0.0925 0.940504,0.24437 1.355314,0.59946 0.41481,0.35505 0.82563,0.89542 1.25106,1.74628 0.82211,1.64422 0.90175,2.29498 1.04254,3.02337 0.14081,0.7284 0.33146,1.54913 1.32925,3.54467 0.21533,0.43063 0.58672,0.7921 1.04255,1.12073 0.45583,0.32879 0.9874,0.61307 1.56382,0.91222 0.57642,0.29931 1.19524,0.62212 1.77233,0.96437 0.57709,0.34212 1.13205,0.71502 1.58989,1.17287 1.09358,1.09358 1.72699,2.16632 2.29361,3.17977 0.56661,1.01344 1.06626,1.97849 1.87658,2.78881 0.38643,0.38655 0.86049,0.64829 1.40744,0.86011 0.54695,0.21166 1.16168,0.35747 1.77233,0.52126 0.61064,0.164 1.22084,0.33082 1.79839,0.57341 0.57756,0.24236 1.11617,0.56885 1.56382,1.01648 0.67028,0.67027 1.27963,1.0611 1.82446,1.35532 0.54483,0.29406 1.02373,0.4944 1.45956,0.72977 0.43585,0.23549 0.82954,0.5228 1.17287,1.01647 0.34334,0.49372 0.64493,1.1984 0.91223,2.26755 0.18342,0.73365 0.61187,1.27878 1.19893,1.69413 0.58708,0.4154 1.32389,0.69467 2.13723,0.91227 1.62666,0.4351 3.53698,0.59752 5.00423,0.96432 2.08703,0.52179 3.3634,0.82134 4.76965,1.17288 0.99842,0.24962 1.27347,0.33687 1.22499,0.33889 -0.0485,0.002 -0.43313,-0.0618 -0.78191,-0.13047 -0.69755,-0.13733 -1.25146,-0.25407 1.32924,0.391 1.76405,0.44104 2.64463,0.58254 3.38829,0.91222 0.74366,0.3296 1.36134,0.86613 2.58031,2.08513 0.4671,0.4671 0.84588,0.75154 1.17283,0.93828 0.32698,0.18661 0.61349,0.27022 0.83406,0.26053 0.44108,-0.0202 0.69473,-0.35222 0.91218,-0.65161 0.21751,-0.29971 0.38821,-0.56186 0.65165,-0.46916 0.26344,0.0929 0.62005,0.53641 1.1989,1.69418 0.4582,0.91634 0.54726,1.50748 0.5213,1.90264 -0.0258,0.39504 -0.18322,0.59401 -0.20854,0.78191 -0.025,0.18783 0.0872,0.35707 0.54733,0.65157 0.46016,0.29446 1.28015,0.71826 2.71065,1.43353 2.0594,1.02968 3.61149,1.93479 5.1345,2.94516 1.52308,1.01038 3.02795,2.11458 5.00422,3.59682 0.56095,0.42065 0.92133,0.60932 1.17287,0.65157 0.25161,0.0424 0.37315,-0.044 0.46915,-0.20842 0.0961,-0.1644 0.16629,-0.4007 0.26069,-0.59947 0.0943,-0.19873 0.22276,-0.35545 0.46915,-0.41701 0.44498,0.33364 0.92992,0.50988 1.45951,0.59947 0.52967,0.0897 1.11297,0.0691 1.69417,0 1.16231,-0.13774 2.37505,-0.49776 3.544627,-0.75587 0.58487,-0.12885 1.15723,-0.22983 1.69417,-0.26053 0.53694,-0.0323 1.05573,0.003 1.51167,0.15632 0.45601,0.15349 0.85713,0.43717 1.19898,0.86012 0.34172,0.42294 0.61344,0.99413 0.80797,1.77233 0.0885,0.35384 0.24477,0.64535 0.4431,0.88617 0.19833,0.24074 0.45094,0.42868 0.72977,0.57337 0.55766,0.28961 1.2257,0.40917 1.92873,0.41705 0.70303,0.008 1.41996,-0.0982 2.03295,-0.23468 0.61295,-0.13653 1.14589,-0.29931 1.43348,-0.44306 0.74993,-0.37484 1.39322,-0.44396 1.95479,-0.28679 0.56158,0.15713 1.04221,0.53221 1.45958,1.01647 0.83479,0.96861 1.40581,2.39454 1.92865,3.44042 0.19995,0.39948 1.22074,1.34668 2.26755,2.39785 1.04693,1.05117 2.1233,2.18741 2.50214,2.94521 0.29729,0.5947 0.71366,0.92515 1.14682,1.14678 0.43317,0.22175 0.87458,0.3397 1.25103,0.54736 0.37646,0.20761 0.68054,0.51625 0.80797,1.06862 0.12764,0.55236 0.0796,1.35023 -0.23468,2.60635 -0.13975,0.56 0.0461,1.17377 0.391,1.79839 0.34536,0.62467 0.86298,1.26945 1.43353,1.90264 1.14104,1.26638 2.46332,2.4767 2.94524,3.44042 0.40433,0.80878 0.69855,1.62826 0.88613,2.45 0.18742,0.82174 0.26498,1.66182 0.31264,2.5021 0.0957,1.68057 -8e-5,3.3985 0,5.18666 0,1.60152 0.11148,2.9236 0.31264,4.22234 0.20155,1.29873 0.50013,2.57384 0.8862,4.11808 0.3086,1.23459 0.88132,2.48926 1.53774,3.70103 0.65634,1.21177 1.3924,2.37289 2.03295,3.44042 0.53398,0.88992 0.88011,1.70116 1.06866,2.44995 0.18823,0.74884 0.22296,1.45482 0.13046,2.0851 -0.0925,0.63032 -0.31627,1.18576 -0.62555,1.72023 -0.309,0.53447 -0.71159,1.0504 -1.17279,1.51168 -0.48851,0.48842 -0.79682,1.06135 -0.99042,1.69414 -0.19389,0.63278 -0.27144,1.30879 -0.26053,2.00689 0.0202,1.3962 0.35585,2.85659 0.65148,4.03988 0.34374,1.3758 0.76556,2.85021 1.40743,4.06594 0.32112,0.60786 0.6916,1.1349 1.14682,1.56383 0.45523,0.42892 0.98655,0.75489 1.61598,0.91222 0.79601,0.19913 1.22894,0.52704 1.45954,0.91222 0.23064,0.38534 0.27184,0.83632 0.28678,1.30318 0.0162,0.46689 0.008,0.93738 0.15632,1.38137 0.14905,0.44404 0.43535,0.85628 1.06854,1.17288 0.90774,0.45388 4.18275,3.77894 4.76965,4.17018 0.64236,0.32112 1.24396,0.8106 1.77238,1.40743 0.52833,0.59688 0.99959,1.29672 1.43348,2.03299 0.86767,1.47254 1.55692,3.08804 2.16329,4.30049 0.40029,0.8007 0.5407,1.56521 0.59943,2.29364 0.0586,0.7284 0.0424,1.43539 0.0784,2.0851 0.0363,0.64971 0.13774,1.25987 0.46915,1.82444 0.33163,0.56456 0.87842,1.06478 1.82445,1.53773 1.56633,0.78325 2.8649,1.65649 4.09198,2.63245 1.22704,0.97596 2.40444,2.06563 3.67498,3.33617 1.18959,1.18964 2.34437,2.0428 3.51858,2.91911 1.17412,0.87632 2.36004,1.76063 3.62291,3.02341 0.89356,0.8936 1.63092,1.41487 2.31961,1.69414 0.68865,0.27911 1.31073,0.33525 1.98084,0.26053 0.67015,-0.0747 1.37746,-0.27548 2.21544,-0.44311 0.8379,-0.16762 1.83131,-0.31263 3.02341,-0.31263 0.37686,0 0.74471,-0.21206 1.17279,-0.54736 0.42812,-0.33526 0.90673,-0.77816 1.48571,-1.22498 0.57886,-0.44682 1.25552,-0.91593 2.08505,-1.25107 0.82946,-0.33526 1.81762,-0.54732 2.99728,-0.54732 0.20034,0 0.39907,0 0.5995,0 -0.10098,-0.82085 -0.29365,-1.60741 -0.5995,-2.34574 -1.42484,-3.44014 1.2129,-0.15632 -5.52543,-0.15632 -5.1653,0 -9.47112,-1.84706 -10.21701,-3.51858 -0.65593,-1.47004 -0.66514,-3.90642 1.17288,-7.79305 1.28318,-2.7132 2.72503,-7.65104 3.20582,-8.13187 1.24824,-1.24817 2.72022,-1.58625 1.30322,-4.32655 -1.48673,-2.87492 -3.79523,-3.98551 -8.21007,-3.70107 -3.08149,0.19873 -5.35991,-0.9573 -5.60371,-3.07551 -0.13007,-1.12937 -0.20116,-6.62095 1.17287,-8.49673 5.75526,0.59102 2.7138,1.59408 7.89731,-3.38832 5.21368,-5.27217 -0.57119,-14.10391 5.31696,-23.24878 1.65149,-3.61516 0.85604,-2.37055 0.78192,-12.56271 l -0.75578,-13.44887 c 4.62516,1.24214 8.01921,-3.5807 9.5132,1.17287 2.16697,7.45408 1.98157,12.44448 8.70524,8.96593 1.75125,-0.90604 3.60538,-2.44689 5.73406,-3.41437 2.1286,-0.96747 5.88731,-2.56128 6.33348,-3.12762 3.25696,-4.13787 1.75226,-7.09705 -4.01379,-12.14569 -3.28083,-2.8725 -4.86982,-9.55732 -5.317,-12.3542 -0.30658,-1.91763 -3.43618,-3.12968 -4.11809,-3.88349 -0.98799,-1.0916 1.89554,-1.97991 2.47602,-5.68187 0.45841,-2.92295 -0.9136,-6.53512 -1.45954,-9.20049 -0.63598,-3.10439 -0.60698,-5.24527 0.13047,-8.00156 0.58496,-2.18741 1.44919,-4.30615 1.14677,-6.88079 -0.3195,-2.71708 -2.14527,-5.45584 -1.56383,-6.54199 0.43317,-2.013524 2.07779,-2.795764 3.62283,-3.987734 -1.48522,-3.82229 -1.36756,-10.75685 1.64207,-10.92072 l 1.09468,-1.25103 c -1.32103,-1.75574 -3.73916,-3.33318 -5.62973,-4.35264 -1.69708,-1.80546 -3.73168,-2.45747 -6.1772,-2.76276 -1.67297,0 -1.90761,-2.31351 -2.29356,-3.85743 -0.30415,-1.21593 -0.41309,-2.48392 0.15632,-3.62287 0.84715,-1.69417 0.83596,-1.60196 -0.65157,-2.3457 -0.8671,-0.43357 -0.73037,-2.44956 -0.41697,-2.76276 -0.31021,-2.16454 0.13087,-1.61444 0.18258,-3.85743 0.23952,-0.95903 0.0121,-4.11961 0.26053,-5.1085 -0.35101,-2.07806 -1.24473,-2.06877 -0.57337,-4.32654 0.10381,-0.92701 -0.0364,-3.30628 0.13046,-4.19628 0.71317,-1.42638 -1.56007,-2.53184 -2.13728,-2.76272 -2.25579,-0.9037 -3.3837,-3.02729 -5.52543,-4.06593 -0.92979,-0.23266 -2.24181,0 -3.20594,0 -2.32712,0.23831 -3.48404,-1.63185 -5.10846,-2.97127 z"
       style="fill:#000000;fill-opacity:1;fill-rule:evenodd;stroke:#d39062;stroke-width:0.417019;stroke-linecap:butt;stroke-linejoin:miter;stroke-miterlimit:4;stroke-dasharray:none;stroke-opacity:1"
       id="San_Fabian"
       inkscape:connector-curvature="0" />
  </g>
</svg>
