<?xml version="1.0" encoding="UTF-8" standalone="no"?>
<!-- Created with Inkscape (http://www.inkscape.org/) -->

<svg
   width="210mm"
   height="297mm"
   viewBox="0 0 210 297"
   version="1.1"
   id="svg1283"
   inkscape:version="1.1.2 (b8e25be833, 2022-02-05)"
   sodipodi:docname="vector.svg"
   xmlns:inkscape="http://www.inkscape.org/namespaces/inkscape"
   xmlns:sodipodi="http://sodipodi.sourceforge.net/DTD/sodipodi-0.dtd"
   xmlns="http://www.w3.org/2000/svg"
   xmlns:svg="http://www.w3.org/2000/svg">
  <sodipodi:namedview
     id="namedview1285"
     pagecolor="#ffffff"
     bordercolor="#666666"
     borderopacity="1.0"
     inkscape:pageshadow="2"
     inkscape:pageopacity="0.0"
     inkscape:pagecheckerboard="0"
     inkscape:document-units="mm"
     showgrid="false"
     inkscape:zoom="0.52347032"
     inkscape:cx="155.69173"
     inkscape:cy="305.65248"
     inkscape:window-width="1920"
     inkscape:window-height="1017"
     inkscape:window-x="-8"
     inkscape:window-y="-8"
     inkscape:window-maximized="1"
     inkscape:current-layer="layer1" />
  <defs
     id="defs1280" />
  <g
     inkscape:label="Capa 1"
     inkscape:groupmode="layer"
     id="layer1">
    <path
       d="m 137.10851,26.817635 c -2.66223,1.09624 -4.59417,2.07638 -7.93192,1.77851 -2.6858,-0.56506 -0.92452,2.85823 1.40193,1.7785 2.22272,0.15572 3.18435,0.88207 2.54558,3.557 1.5897,1.99919 -2.4091,2.31523 -2.25045,4.4849 -1.72315,1.03159 -1.4712,3.96447 -2.84072,5.64481 -1.49118,0.82683 -3.14418,4.89128 -1.40193,5.91546 1.71745,-0.22845 5.31763,-1.38733 3.65238,1.50785 0.3893,2.53501 1.62903,3.56976 2.84072,4.71691 1.57685,-1.81464 3.07274,-0.45226 0.84853,0.61859 -2.03246,3.10547 -3.01523,0.49563 -3.39411,-1.50784 -2.31143,-0.90268 -0.91146,-5.00024 -3.94752,-2.93841 -1.9593,0.6119 -1.12445,4.60215 -0.29511,6.22476 -2.20504,1.90888 -2.16188,-4.65137 -1.40191,-5.64481 -0.44298,-1.63608 -3.37783,-1.18039 -3.68927,0.88925 -2.76365,1.08134 -3.25847,2.45961 -1.99221,5.33551 -0.51354,1.73531 0.9041,5.01622 2.25045,5.9541 2.39983,-0.46189 3.68828,1.83959 0.84853,0.88926 -2.54087,-1.75116 -2.52865,0.97616 -0.25825,1.19854 2.08328,-0.30563 4.94331,-0.50874 3.68926,2.35846 2.4399,-1.26084 2.53514,-0.0509 3.65237,0.57996 3.03336,-1.3375 2.01566,1.82111 -0.55338,1.19854 -1.14173,-1.34931 -4.24164,0.35205 -3.68927,-2.0878 -0.37221,-2.80455 -3.98341,-1.58418 -3.68927,0.30921 -0.42936,1.93306 0.94201,4.20496 3.13588,4.44626 -0.10503,3.92654 -2.24077,5.17171 -1.14367,0.88925 -1.49762,-1.15933 -3.50624,-1.48357 -3.39412,-4.21254 0.27047,-3.41173 -4.45976,0.81826 -3.39413,-1.70292 2.08009,0.15215 4.02898,-1.97612 1.99221,-2.97705 0.43253,-1.26927 0.79565,-2.36167 -0.59029,-4.75556 -0.17763,-1.6019 0.25286,-5.55463 -2.84072,-5.06485 -1.28209,-1.34044 -3.54951,0.0616 -5.38633,-0.27084 -0.69986,4.10408 3.59488,0.0268 1.9922,4.28804 -1.83883,2.54747 2.04118,3.40589 0.29511,6.11232 -1.67684,0.8296 -1.20484,4.70465 -0.55339,6.80472 0.69653,1.53555 2.34388,1.78591 3.94752,3.28635 -0.62073,2.07847 -2.80297,-2.54894 -4.24266,-0.61864 -1.1144,-1.81808 -1.35711,-4.29335 -1.4388,-6.95575 0.1766,-1.77917 2.6663,-4.55584 0.29515,-5.80302 -0.18508,-2.25441 0.12364,-5.71531 -2.25045,-5.91547 -0.19431,-2.2329 -4.86411,1.06568 -1.43882,1.15991 3.14186,0.55341 -0.24857,2.90482 0,4.75556 -1.54774,4.05196 -2.05461,1.8088 -0.84853,-0.88926 0.26482,-2.00779 -0.34802,-3.48896 -1.9553,-4.13696 -1.61579,-0.14634 -1.99841,3.982 -2.84073,5.33551 -1.671035,0.96296 -1.790545,3.78537 -3.689255,5.02621 -2.2638,0.12895 -3.3439,0.21998 -3.13588,3.28635 1.60049,1.89059 -1.4081,3.37697 -1.95531,5.02617 -1.34574,0.54377 -3.1464,2.97446 -2.54559,3.86635 0.48784,3.71643 -1.89955,2.39584 -2.58248,4.28804 0.40063,2.20943 0.18615,2.97754 1.69706,4.02447 -0.0312,3.97834 3.59027,-0.0535 0.88542,-0.57991 1.67717,-1.62318 2.9795,-2.19671 2.80384,-5.33551 1.40491,1.18307 0.0467,3.84725 2.54559,3.55701 0.36119,2.13942 2.36546,-0.60798 3.98441,0 1.155635,1.7296 2.261545,0.32349 3.947505,0 0.6376,-3.15428 2.95783,-4.66516 4.53778,-6.22476 1.78824,-1.27284 -0.22769,3.20358 2.84074,0.57995 -1.31494,1.96582 -4.06866,2.04613 -4.79604,4.44622 -1.50973,1.82089 -2.98852,4.23846 -6.234845,3.557 -1.00723,-0.62279 -2.90715,-0.77226 -4.5378,0.30921 -1.71626,-1.63559 -1.81342,1.91575 -2.54559,2.97705 1.16172,0.73715 3.8278,0.9581 3.39413,2.97705 0.87504,1.66513 3.29036,1.58566 4.53779,2.35842 3.336735,0.0857 0.119925,-1.76758 0,-2.97706 -2.24963,0.86976 -4.31447,0.1883 -1.14367,-0.8892 1.298335,-1.7839 2.369385,2.24619 4.537775,1.1985 1.56316,-1.24352 3.51192,0.42209 4.79605,-1.1985 1.93889,-1.41178 3.06579,-2.27948 5.38632,-2.66776 0.7876,-0.0134 4.11669,1.42718 3.9844,-1.7785 1.04873,-0.0486 3.90702,-2.64892 4.5378,-1.46921 -1.49548,1.39996 -3.58212,2.09767 -4.24266,3.90321 -1.19339,3.41132 -6.43278,-0.61717 -7.67366,2.32155 -1.75324,1.89603 -4.75342,1.08576 -6.78825,3.55697 -1.68328,1.85872 1.04012,4.416365 1.14368,6.375885 1.21064,2.30197 3.88492,1.07303 4.50089,-0.42165 2.03303,0.4714 2.80908,-2.24387 4.83293,-1.19855 1.01621,1.24478 5.25771,0.79721 5.38633,-1.50789 1.06679,-1.152195 2.98771,-1.212915 4.24265,-2.358455 1.71912,-1.57139 1.82705,-4.17279 3.9844,-4.75551 1.40993,-1.57148 3.18209,-1.02226 5.09118,-2.08785 1.94065,1.20199 4.10158,-0.72907 1.69707,-1.7785 -2.87417,-1.72536 1.26977,-0.83567 2.25045,0.61864 2.05375,1.85426 -1.19911,3.4385 -2.80384,2.35846 -1.34432,1.10096 -3.75321,-0.30207 -4.5378,1.77845 -2.74645,0.62475 -1.84235,2.32071 -3.9844,3.55701 -0.56213,1.31902 -2.21308,2.487895 -3.94751,2.977055 -1.44396,0.72755 -1.39779,3.70041 1.10678,3.28639 1.54663,-0.43949 2.74554,1.35784 4.5378,0.88921 0.19177,-1.6935 1.29654,-2.24825 3.68926,-1.77846 3.41281,-0.89545 1.64873,0.18695 0,1.77846 -1.94813,0.64487 -4.36823,1.28948 -6.23485,0.57995 -1.8182,0.9357 -4.7643,-0.8225 -6.49311,-1.19854 -1.94466,0.37658 -2.82036,3.37839 -5.9766,2.66775 -0.30952,-1.79407 -3.63524,0.56313 -3.39412,1.19855 1.61034,0.44217 -3.78221,1.79082 0.55338,1.50789 2.20221,0.92441 2.74444,-0.54573 4.83293,0 1.24962,-0.87529 3.35315,0.14412 4.83294,-1.19859 1.87623,0.57986 4.2784,0.81402 5.93972,0.3092 0.48727,1.0634 -2.37333,2.2781 -3.13588,3.55701 -2.22764,0.32973 -3.21005,0.002 -5.09119,-0.88925 -2.20086,-0.0906 -4.146,1.21488 -6.23484,0.27083 -1.32799,-1.75829 -4.63168,-0.15438 -3.09898,2.3971 0.90656,2.36671 -0.0294,4.9504 3.09898,5.02621 -0.52954,2.88255 3.94808,0.55238 4.24265,2.66776 1.42232,-0.20079 2.50357,-2.33629 3.9844,-0.88926 1.45091,0.5651 4.9293,-1.86832 4.24266,0.6186 -2.12008,1.06991 -5.00523,0.21372 -7.08339,1.4692 0.12198,2.85449 -1.9494,-0.27217 -3.09899,-0.88925 -2.16008,0.20525 -3.52974,-0.88876 -4.53778,-1.85404 -1.89314,0.23693 -3.48299,-1.82241 -2.84074,-3.79076 -0.54499,-1.70172 0.12766,-4.52492 -0.84853,-5.33551 -1.04385,0.56643 -0.72677,3.96968 -2.84072,1.7785 -1.998225,0.71667 -2.758335,3.05192 -5.681455,2.35846 -1.13401,0.94971 -2.57504,1.5766 -4.50091,1.81714 -1.54349,0.94396 -3.80771,0.8039 -4.83293,-0.61859 -2.96507,1.27766 -2.67054,0.39487 -2.84074,-1.77851 1.00719,-1.48036 -0.0343,-1.61622 -2.25044,-1.7785 1.05857,-0.638 3.71204,-1.456 4.53779,-0.88925 2.32773,0.13698 -2.00777,3.71237 -0.29515,3.55701 1.79207,-1.14224 3.42506,2.16713 5.38632,0.57995 1.8817,-1.50187 3.73524,-2.41691 4.79604,-4.71687 2.22561,-1.13947 2.72717,-4.11871 1.73395,-6.60964 0.52906,-3.73521 -1.3496,-6.831225 -4.53779,-6.767815 -2.89949,-0.21016 -1.72714,3.031125 -3.39412,3.866345 0.65731,1.98308 0.68868,5.0902 1.10678,6.22472 -2.1568,0.49665 -1.23077,-4.74476 -2.5456,-5.64481 -0.7375,-1.3486 1.39217,-2.79933 0.5534,-4.446255 -1.37613,0.88822 -2.35523,-1.49719 -3.65237,0.57995 -2.5278,-0.0179 -1.9537,2.374035 -3.68927,2.706445 -0.60885,2.01904 -2.0386,2.01583 -2.84073,3.55696 -1.91038,1.67066 0.0483,2.50887 0.29515,3.86635 1.43503,0.3913 2.83317,1.42873 4.5378,1.15986 1.20754,-1.03493 -0.22996,2.76502 -1.73395,1.19855 -2.20972,-1.43199 -2.73882,0.66018 -3.94752,-0.30921 -1.79918,0.51852 -2.82117,2.41566 -2.54559,5.28978 -1.90572,0.32482 -3.3228,1.85029 -3.9844,3.02278 -1.69578,1.65031 1.11948,3.23397 1.9922,4.1756 2.05754,1.6587 3.20175,-0.32572 4.24265,-1.7785 2.01624,-0.61467 2.84754,-2.50204 4.83294,-2.3971 0.15585,1.50187 -2.85646,2.20207 -3.68927,3.8663 -2.17437,0.78784 3.24127,4.13612 -0.55338,2.3971 -3.10877,-1.49482 -1.18499,2.02248 0.55338,1.7785 2.09519,0.75477 3.12453,0.51151 5.09118,0.27084 1.32243,1.3577 4.1996,0.41808 4.5378,-2.04916 1.78416,-1.39759 3.28384,-2.39879 4.53779,-4.4849 0.9349,-1.50691 -2.28671,1.10739 -3.09898,1.50785 -1.44734,1.94247 -3.89939,4.02363 -2.28734,0 1.6535,-0.82117 3.2439,-2.3685 4.83293,-3.55701 1.59657,-0.40871 3.64671,1.77471 1.95531,2.35846 -1.34897,1.46809 -1.98168,3.25886 -4.24265,3.8663 -0.0682,1.57366 -3.47854,2.65143 -1.9922,4.13696 3.28722,0.95426 3.33728,-3.71308 5.38632,-3.82766 1.94623,-0.32259 2.98125,-2.73348 4.83293,-1.7785 1.76756,-0.8085 2.709185,-0.60124 4.796045,-1.19855 1.52556,1.10119 2.61997,1.31152 3.68925,2.97705 -2.26838,0.58437 -3.35735,-2.16682 -5.64456,-1.19855 -0.6978,1.50892 -3.873445,1.88394 -0.29516,2.0878 0.9107,2.21438 2.63864,2.25485 4.83294,2.04916 1.60492,-0.77119 3.09305,-3.44604 5.38631,-2.35846 0.67645,-2.30223 2.68267,0.39488 3.94751,1.19855 2.78852,-0.11958 4.87138,-0.72581 7.37853,-1.50784 1.1731,-0.21239 2.75372,1.17976 4.24266,0 2.53412,-1.97871 0.36342,-2.83963 2.84072,0.88925 2.03737,0.38327 -2.46902,2.84181 0.84853,3.28635 1.66687,0.63465 3.54419,0.60333 5.09118,1.19854 1.74778,0.0223 3.65448,1.32853 4.5378,0.88926 0.84917,-2.13586 3.17355,-1.66116 4.5378,-3.28635 3.18145,0.0312 5.12303,-1.50022 7.0834,-3.86631 1.51498,-1.19149 0.6521,-4.78759 -0.84856,-5.6448 -1.09842,-3.66744 1.21131,-5.30722 1.10681,-8.89251 0.20569,-2.05358 3.46081,-2.09066 3.13585,-4.1756 0.41362,-2.41941 -2.56129,-4.30116 -3.13585,-5.02617 -0.47693,-3.594535 2.40397,-2.114225 0.84852,-5.411095 1.35899,-2.12332 0.41495,-4.58034 3.431,-4.40936 1.72496,-0.93459 3.29371,-0.45426 1.40192,1.19859 0.47617,1.82669 -4.56222,1.90156 -2.84074,3.28635 3.72165,-0.0446 0.86386,0.65795 0,2.35841 -0.19275,3.011595 2.95385,-0.86805 3.39415,-1.7785 1.41566,1.11832 -2.11074,3.923375 -1.40192,5.335515 -0.95801,1.56897 -0.0879,5.53071 1.40192,2.97705 1.35052,-0.87988 4.86594,-0.99803 5.12807,1.19855 -2.33494,0.0955 -5.27639,0.20346 -5.12807,2.66775 -1.07572,1.97385 -3.66789,2.06389 -3.39415,4.79246 -1.09374,1.10244 -1.67597,3.75408 -0.84852,4.98931 1.1003,1.45417 1.04297,2.89187 1.99223,4.44626 1.1704,1.43203 2.25302,2.74159 3.94751,2.39709 1.70765,-1.07714 3.79799,1.7093 5.12808,0.30921 1.75182,-1.08044 6.14516,-1.90054 6.23484,0.88925 -0.16955,1.96367 -4.20143,-0.24942 -4.53782,1.7785 3.73491,-0.72617 -0.34534,2.40482 2.84075,2.35846 1.61252,1.80211 3.8087,2.03051 3.09899,4.1756 2.32191,-0.43414 3.93979,-3.61697 2.54559,0.88925 -2.25088,0.86976 -0.82946,2.62073 -1.69708,3.86631 -2.94479,-1.33906 -1.60649,3.41435 0.84852,2.93841 1.15571,0.55389 3.07142,1.71697 4.53781,2.39709 1.53127,0.046 2.77663,0.36543 4.24267,-1.19854 1.31968,0.25968 2.90075,0.1285 4.53777,-0.88926 1.1405,0.41094 4.01613,0.28869 5.09117,1.19855 1.14139,1.32014 2.84748,1.23558 4.27956,2.04916 1.49196,0.71381 -2.32383,2.40339 -3.13585,1.19855 -1.22625,-0.59646 -2.71348,-2.24941 -4.24266,-1.15991 -2.80259,0.30073 -3.99199,-1.14188 -6.52999,0.27084 -0.6248,0.90661 -2.96894,2.28782 -4.53782,1.19855 2.16267,-1.37368 -1.22278,-1.36221 -2.80384,-1.19855 -1.88023,-1.08303 -4.48633,-1.48536 -5.12803,-3.8663 -2.33584,-0.9963 0.70488,-2.63992 0,-4.44626 -2.26565,0.19632 -3.55585,-0.62957 -5.09122,-1.19855 -0.39756,-1.90527 -4.33909,-0.6103 -3.94751,1.54474 2.1715,1.24348 0.46475,1.3163 0.25834,3.82941 2.06286,1.62296 -1.09896,3.33708 -0.25834,5.02621 3.05817,-0.0357 0.25076,3.88584 2.80384,4.75555 2.47652,1.31264 2.70175,-2.06174 5.38633,-1.4692 0.3574,-1.36788 4.40851,-2.74196 3.98441,-0.88925 -1.63635,0.39532 -2.86332,1.94426 -4.83293,2.04916 -2.77189,0.62198 -0.97523,4.14726 0.59027,5.37414 2.68234,1.27717 1.10462,5.37206 3.9475,5.33551 1.62564,0.99433 1.6119,4.49106 3.98441,4.13692 2.99936,0.91236 5.64936,2.38755 8.19017,3.86635 1.02191,2.35653 2.96983,-0.5245 3.98441,-0.88926 1.10802,-1.62474 2.75762,-2.84087 1.99218,-5.44794 1.54662,-2.29457 0.0937,-4.28804 -0.29537,-6.11232 0.63077,-2.12439 -0.24808,-3.23785 1.99222,-4.75556 2.50548,-2.08329 1.03083,0.21953 0,1.7785 -1.54108,3.02306 1.39041,3.76569 1.69708,6.53406 -1.77676,1.59106 0.15616,4.55437 -1.43882,6.84336 -1.63166,1.16825 -2.68288,3.3443 -4.50092,4.13696 -2.71924,0.96019 0.0223,2.98838 -0.29537,4.44621 0.40157,2.2126 -3.5314,1.10221 -4.24262,0 -3.33886,0.0179 -1.56683,-5.19742 -5.38633,-4.44621 -0.53962,-0.83861 -3.10225,-1.60958 -3.68926,0.57991 -1.67213,1.75757 -2.49222,3.86027 -3.6893,5.95414 0.29047,0.40469 1.94418,3.05888 -1.40192,2.0878 -1.50258,-0.97452 -0.59717,-6.03174 -2.28733,-4.44625 -0.21774,2.2789 -2.05728,3.46468 -2.54559,5.3355 -2.07428,2.00887 -2.14197,0.26504 -0.84851,-1.19854 0.92811,-1.99924 2.05549,-3.51596 3.13585,-5.02622 1.48745,-1.30674 -0.38953,-3.88834 0,-6.3003 -0.53744,-2.84618 -2.04765,-2.19216 -3.43101,-3.2108 -1.43418,-2.13327 -2.96067,0.95912 -4.53777,0 -1.39018,-1.01222 -2.50717,-4.26123 -5.09122,-2.3971 -2.80379,0.39264 -3.02211,3.89869 -2.84069,6.84335 -2.0779,0.83678 -0.69806,-5.11973 -0.84856,-6.53405 2.09801,-1.44967 3.83658,-3.60689 3.68925,-6.84336 -2.31285,-3.31298 -1.16856,3.39294 -3.94751,1.19855 -1.96028,0.10575 -3.75846,3.10033 -3.3941,5.06485 -1.00664,0.86971 -3.44354,4.40722 -2.58249,1.46921 1.50865,-0.70128 -0.11779,-2.71113 1.14367,-4.44626 -0.43057,-2.16878 -2.61515,-2.27484 -3.39412,-4.44626 -2.40397,-1.34918 -2.42583,2.14911 -4.24266,2.35846 -1.70323,0.17446 -2.97776,-0.94369 -4.53779,-2.0878 -0.80507,-2.09034 -1.81347,2.40946 -3.9844,-0.57995 -0.54264,-0.76535 -4.58688,-3.01061 -1.10679,-2.0878 0.15933,1.58628 5.28417,2.67623 2.25046,0 -0.54378,-0.1468 1.25793,-1.4506 -1.14367,-2.35846 -1.86164,1.2487 -2.99819,1.40763 -4.5009,-0.30921 -1.83071,-0.73813 -2.57742,1.4821 -4.53779,1.46921 0.53959,0.89322 4.51667,1.13719 3.09897,2.97705 -1.28629,-0.85213 -2.77312,-1.64813 -4.24265,-2.04916 -0.832,0.0999 1.40269,3.70746 0.29515,4.44626 -0.84691,3.00565 4.19181,3.44617 1.69706,5.6448 -1.42089,1.25994 -0.90143,-2.74213 -3.13587,-2.97705 -1.77941,-2.27814 2.36523,-5.47606 -0.55339,-5.9541 -0.46172,-2.4485 -3.16414,-0.75625 -4.24265,0.3092 0.18436,1.84231 -0.39582,5.68639 -1.43881,1.19855 -0.3652,-1.21644 -4.42172,-0.47969 -3.68926,1.77851 1.65036,1.83615 1.11622,5.42122 3.13586,6.80467 0.40581,2.55295 2.663,3.80343 2.54559,6.26344 -0.0829,2.48098 4.63158,0.53895 2.25045,2.35846 -2.24744,0.0848 -1.43225,2.89642 0,3.55696 1.765,1.35511 3.66925,1.53957 2.58249,3.86635 0.79403,2.67984 3.2964,-0.14145 4.24265,-0.57996 0.84007,-1.68842 4.40502,-2.19582 1.99221,0.27039 -2.06479,0.0683 -3.12434,2.20649 -4.83294,2.70644 -1.15562,2.20827 -2.12961,-1.65839 -3.13588,-2.3971 -1.16546,-0.6206 -1.80505,-5.15003 -3.09898,-1.7785 -0.19257,1.51833 0.81454,7.81573 -1.14366,6.53401 -0.4303,-2.28564 -0.15081,-4.18068 -1.10679,-6.53401 2.06916,2.65731 1.48257,-0.77043 0.84853,-2.35846 0.85456,-2.58775 0.74813,-4.44875 -1.14367,-6.84335 -0.9052,-1.97251 -2.99308,-3.16012 -2.84072,-5.0649 0.55828,-2.90963 -2.51477,-2.69479 -2.54559,-5.33546 -2.63871,-2.67561 0.72953,0.0919 1.69706,-1.19855 -1.35604,-0.9349 -2.01424,-3.47687 -4.53779,-2.93841 -1.79755,-1.39612 -2.66561,-1.871 -4.537795,-2.97705 -1.65159,-0.61324 -3.49376,0.45921 -4.79603,-1.19855 -2.09148,-0.33732 -3.41693,-1.89215 -5.68147,-2.0878 -0.93618,1.78171 -2.38348,3.86849 -3.94751,5.6448 -1.94524,0.32617 -2.77394,0.17759 -3.98441,1.19855 -2.26794,1.61587 -0.33272,2.53707 -0.55338,5.06485 0.82987,1.98286 0.41803,3.9128 1.69706,5.02622 1.72677,1.25106 2.72361,2.03341 4.24265,2.66775 2.10702,-0.23246 2.38159,-2.19105 3.9844,-2.9771 0.1327,-1.06844 4.13032,-3.26876 2.54559,-1.15986 -1.27519,-0.009 -3.22122,3.4895 -1.69706,2.66775 1.29913,-0.8946 2.58214,-2.70184 3.94751,-3.28634 0.2799,-2.86207 0.73365,-4.45719 2.84074,-5.91547 2.42623,-0.90353 3.569015,-0.43994 1.14367,1.15991 -0.85828,0.40737 -4.16335,3.53492 -1.69707,3.8663 1.29951,-2.42079 3.12669,-0.0674 0.5534,0.6186 -1.49704,0.94426 -2.71445,1.7549 -3.68927,3.24771 -2.60538,0.13118 -2.3035,2.49744 -1.14367,4.44625 1.5414,2.67713 4.18338,4.8605 6.23485,6.53402 1.34495,1.55697 3.183095,1.12167 4.537795,2.97709 1.33563,0.63939 4.07514,0.28199 4.83293,1.77846 0.88989,-2.56174 2.44132,-3.85818 2.25045,0.61864 -1.30521,2.14036 1.18544,3.54219 2.54559,4.71687 0.26749,0.89112 3.08741,2.59618 1.69706,3.59569 0.29056,1.47773 -3.20062,3.36389 -0.84853,4.71687 1.50733,-0.51557 2.55241,-2.89121 4.27954,-2.93841 1.94352,-1.72737 5.55582,-1.19462 8.48531,-2.08776 2.22591,0.0692 3.51232,0.88965 5.9397,0.30921 1.81151,0.52489 4.3805,-0.35427 5.93972,-0.30921 1.1893,2.39246 -3.88453,1.17169 -5.64458,1.46916 -2.65286,1.03989 -6.42446,-1.24111 -8.22705,1.50785 -2.48339,0.26503 -4.33568,-0.52967 -6.4931,0.57995 -0.43266,1.02574 -3.59713,3.02837 -1.43882,3.24771 1.68074,-0.66335 3.3424,-0.33999 4.5378,-0.88925 3.26178,-0.84294 2.12277,2.04836 3.68927,2.3971 1.86031,1.40321 3.53877,2.54465 6.23484,2.0878 1.41784,1.16972 3.15963,2.48316 5.38633,1.4692 1.46556,-1.73294 2.71665,2.00593 4.24265,-0.30921 0.8263,-0.77855 3.34409,-2.00083 3.94751,-0.57995 0.53967,1.84231 -2.58674,1.28774 -3.09897,3.28635 -2.29217,0.22086 -3.75711,0.3507 -5.68148,-0.30921 -1.29477,1.40857 -3.00534,2.12528 -2.54559,4.5218 1.79469,2.17904 0.55087,4.46575 0,7.03847 -3.0135,0.49571 0.26111,2.97491 1.69706,2.97705 0.80354,2.69926 4.22338,1.17352 4.5378,4.75555 1.92648,0.48836 0.0538,2.68976 -1.99221,1.19855 -0.36217,-2.70737 -2.99107,-3.96482 -5.34942,-5.33551 -0.87375,0.25745 -2.89328,-0.51137 -3.68927,-3.28634 -0.0929,0.39621 -1.30334,0.88104 -2.84072,-1.19855 -1.76875,-0.79265 -3.87789,-2.22326 -5.68147,-2.93841 -1.72562,0.22577 -2.0871,2.58815 -4.24265,2.35845 -0.90589,2.44663 -2.5983,4.34761 0.55338,5.33551 3.09656,-0.95662 1.54918,1.82219 -0.55338,0.6186 -1.36424,-1.12346 -3.50427,-0.98425 -4.79605,0.27083 -1.71915,1.12337 -2.45114,3.57021 -4.53778,4.44626 -0.005,2.1952 -3.98406,2.19105 -2.28734,4.75555 0.56251,1.72113 4.55655,1.84262 2.28734,4.4849 -2.81639,2.48544 2.01514,0.3565 1.10677,2.66775 1.61834,0.52213 3.79459,-0.087 3.9844,-2.39709 -1.38203,-4.03148 3.51416,-1.00241 0.84853,0.61859 0.54343,3.15856 2.49486,-0.50968 4.24265,-0.30921 1.00612,-3.24726 2.71725,-0.81166 0.29516,0.88926 -1.52005,1.78782 -3.13334,2.20809 -5.38633,3.2477 -2.03985,2.14215 3.96224,4.41409 4.79604,1.77851 1.86565,-1.03293 3.24051,-1.56594 4.83294,-2.66776 2.71311,0.64568 5.9503,-0.27306 7.93192,1.7785 2.20117,0.15394 1.97646,3.51654 4.53778,4.1756 7.24085,5.09573 14.38658,10.27061 21.5453,15.42653 4.44938,3.11417 8.85173,6.37214 13.31825,9.51111 12.15213,-33.36607 24.37102,-66.69488 36.52369,-100.05993 1.30951,-1.48745 5.48034,-0.92084 4.83292,-4.28803 0.0669,-2.70104 -1.37207,-4.09462 -3.3941,-4.91378 -2.05139,-1.90767 0.56005,-4.77938 -0.59031,-6.22476 -0.14367,-2.1288 -3.02501,-1.25829 -3.94751,-2.97705 -1.75137,-2.30371 0.75406,-3.27814 2.54559,-2.39709 2.73651,-1.56804 1.81175,-6.3468 2.84074,-9.23872 -0.26012,-1.56344 0.96497,-6.53695 -1.99218,-5.87856 -2.19381,0.6492 -3.78639,-0.2048 -5.68148,-0.61859 -1.59476,1.00936 -3.6595,1.52618 -6.23485,1.50784 -1.88188,-1.31687 2.56232,-2.81432 0,-4.1756 0.004,-1.26686 -3.29554,-3.07293 -1.40192,-3.8663 2.25691,-1.81366 2.99522,-5.51095 2.25044,-8.89251 -1.21738,-1.52199 -2.71452,1.12707 -4.50092,-0.57996 -2.54483,-0.53346 -4.01421,1.15915 -5.97659,0.27084 -2.23401,-0.25924 -4.01738,-0.2222 -5.93969,-1.15991 -0.10842,-4.03594 0.65362,-7.62905 -0.29537,-11.13139 -0.89854,-3.17155 0.16509,-5.487085 -0.25835,-8.546325 -1.01471,-2.66718 -2.45697,-4.79589 -2.28733,-8.23698 1.30095,-1.77676 1.05148,-4.37268 -0.84856,-5.37415 -0.81193,-3.11238 0.48532,-5.84826 1.14371,-8.00326 1.13983,-2.68587 2.31491,-4.44077 3.09895,-7.18955 -0.19721,-2.56268 -1.71229,-4.15762 -2.25043,-6.76781 -1.63037,-1.8374 -2.61377,-4.48664 -3.1359,-7.73261 -0.79872,-1.42365 1.93945,-2.19899 3.1359,-1.4692 0.93338,1.30139 3.75016,1.18386 3.68925,-1.54475 1.0215,-2.01253 1.20275,-5.01764 2.54559,-5.87856 2.32446,-1.15188 0.92352,-5.08743 -0.84851,-5.95411 -2.24169,-1.13626 1.16633,-4.25908 -1.14367,-3.82766 -3.46496,0.44637 -5.27813,-1.11301 -8.48532,-1.50784 -2.38269,-1.19904 -4.87366,-0.80252 -7.08336,-0.30921 -2.25454,0.77708 -4.62264,1.90375 -7.93192,1.50784 -2.68234,-0.009 -5.02648,0.58835 -7.0834,-0.3092 -2.47991,-1.11454 -4.68403,-3.94078 -7.08337,-5.02622 -1.29472,-1.27863 -2.93787,-1.92793 -5.38633,-2.39709 z m -14.16677,4.1756 c -4.32973,2.10543 1.64838,3.06924 -0.45631,4.89459 -2.36517,2.48495 -0.83002,-0.89956 -1.53589,-1.95618 -0.56513,-2.42699 -3.05303,-1.09534 -4.86814,-2.04916 -1.99761,-0.19632 -4.19033,1.50388 -4.20744,2.97706 -0.81764,1.74927 -1.01446,4.9757 -2.25045,6.22476 -0.2516,2.2561 -0.0542,3.35207 0,5.91546 1.3809,0.6028 6.195,1.28118 4.24264,3.28635 -1.48321,2.59364 2.36171,2.9186 3.39413,0.30921 1.56583,0.24138 0.61287,2.11541 1.69706,1.4692 1.23087,-1.34026 3.67014,-2.72112 4.24265,-4.44626 1.52375,-3.30098 0.32273,2.84119 2.28735,0 -0.3528,-2.25347 -0.19891,-4.79254 1.99219,-5.33546 0.78836,-1.99441 1.9894,-3.69135 2.25046,-6.26344 3.19842,-1.31496 0.063,-1.32335 -1.69706,-2.35846 0.0535,-2.97545 -3.60605,-0.94842 -4.86814,-2.66776 z m -22.39381,5.64481 c -1.418655,1.65491 -3.483955,-0.70721 -4.832925,1.4692 -2.16629,1.32893 -5.2291,1.43695 -6.19797,3.24771 -0.83881,1.04854 -3.60789,2.63648 -2.28734,3.86631 -0.0884,2.61434 4.29016,2.56406 2.84073,5.37414 0.78526,1.8689 0.38952,4.29219 -0.84853,5.33551 0.32813,2.49191 2.32203,-2.57758 3.68926,-2.66775 1.3408,-1.69699 0.96688,-3.80745 3.17108,-4.1756 1.94797,-1.11119 1.70726,-3.80085 3.91231,-4.13696 2.119035,-0.50178 2.878695,-2.69533 4.242635,-3.8663 1.96903,-1.79417 -0.18989,-4.15727 -2.39462,-3.86631 -0.2297,-0.1865 -0.66626,-0.78096 -1.29463,-0.57995 z m 7.63677,13.06811 c -2.98682,1.59097 0.0406,2.93806 1.69706,3.55701 2.54589,1.83111 2.6956,-0.54886 0.59028,-2.0878 0.0447,-0.8955 -0.4836,-1.95671 -2.28734,-1.46921 z m -7.63677,52.852415 c -1.965075,0.94342 -2.155445,0.40202 -1.992205,3.24767 2.201305,0.86912 -1.29388,4.4314 1.43882,5.33551 -2.41688,-0.37837 -4.0654,3.13388 0,1.50789 1.260745,-1.48358 2.981045,-1.93155 3.689255,-3.94189 -1.13825,-1.31117 -2.28248,-2.70265 -2.58248,-4.79246 0.0744,-0.70207 0.0205,-1.33124 -0.55339,-1.35672 z m -61.758255,17.78499 c 0.0463,2.81713 -4.29681,1.04399 -2.84073,2.97705 1.65092,-0.19811 1.916,2.3535 0,2.39709 -0.55919,-0.60681 -5.767803,1.01428 -1.22254,1.15991 1.94618,0.87752 -4.213665,1.07224 -3.610398,1.77851 -0.207521,2.25721 -3.127028,-3.18623 -1.955309,0 -3.205949,-1.34298 -3.075569,1.45956 -3.984399,2.70639 -1.809397,2.4257 -2.989219,-1.08477 -0.848533,-1.81714 1.370956,-1.7151 -0.05078,-2.65022 -2.840732,-1.46921 -1.0759,-0.70533 -5.013914,1.72237 -4.242653,2.0878 -0.449747,1.30443 1.460077,2.10538 1.143672,4.13696 0.299214,2.12796 3.156838,-0.0312 3.689265,-0.88925 1.493527,-0.98326 2.043212,2.15397 4.572992,1.7785 2.102122,-0.64804 2.09062,1.96082 2.768642,3.28635 -1.778753,2.44845 4.490493,3.44185 1.697055,1.19855 -1.13954,-0.37078 -2.94223,-5.1022 -0.553388,-4.1756 1.095189,-0.3748 4.903746,-0.30832 3.689266,2.0878 2.02315,2.02904 -2.17598,2.23263 -1.69706,4.44626 2.65807,-0.47586 5.27789,0.39041 6.4931,-2.0878 1.67649,-1.15206 4.27389,-1.10084 4.83293,-3.24771 -0.3959,-2.41628 4.69498,-2.3283 2.54559,-3.55701 -2.08822,1.75869 -2.06389,-2.0281 -3.68926,-1.19855 -1.17104,1.21421 -1.31506,-1.21769 -3.17107,1.19855 -0.84762,0.92682 -5.76816,1.5543 -3.54508,0 2.07174,-0.6538 4.59574,-2.23312 6.45791,-3.28635 0.39996,-1.71782 -1.12021,-3.80013 -2.28735,-5.02621 0.29533,-2.47982 -3.11233,0.32617 -0.84853,-2.70639 -0.0543,-0.51285 1.14767,-2.30353 -0.55339,-1.7785 z m 3.68927,0 c -1.55702,1.2155 -1.71717,3.41975 -0.29516,4.48489 1.16083,1.03128 0.65068,3.38201 1.99221,4.44626 2.34357,0.44083 4.25816,1.53047 5.38632,2.97705 2.26632,-0.12805 6.00813,1.16808 4.79604,-3.58676 -0.12966,-2.70609 -0.80923,-3.14451 -1.40192,-4.7258 -0.32148,-1.60163 -5.11879,-3.03648 -3.13587,0 1.82057,0.69565 1.38529,2.32946 2.28734,3.24771 2.32732,1.43195 -1.42739,1.66731 -1.9922,-0.57995 1.30035,-2.21934 -3.25149,-1.83258 -1.9922,-4.1756 0.46334,-2.11591 -3.84327,-0.62516 -4.79605,-2.0878 h -0.62547 z m 13.02309,6.53405 c -0.89445,2.58834 1.22713,5.30798 2.54559,2.66776 0.67565,-3.5032 -1.60791,-0.6501 -2.54559,-2.66776 z m 64.894125,0.6186 c -3.45536,1.09472 -2.31783,2.54581 1.25095,2.66775 2.0043,0.61726 3.11519,2.63929 6.09068,2.35846 2.99604,2.12425 -2.77852,0.28824 -4.05481,0 -2.05471,-0.36231 -3.6869,-1.7897 -5.83242,-2.35846 -0.58334,-0.85739 -5.40408,-2.84855 -4.83294,-0.88925 4.01688,1.95171 -3.38303,-0.46546 -2.54558,0 -2.68251,-1.25544 -3.73608,1.23411 -5.68146,1.7785 -3.87215,0.0955 0.65225,2.75887 2.28734,2.35846 0.4627,2.59735 3.80854,1.79167 4.24264,3.8663 2.03617,0.63792 1.40241,3.18145 4.24266,3.55701 2.43939,1.38081 -4.20386,0.33018 -3.39413,-1.7785 -1.78536,-1.13787 -3.68333,-2.96398 -6.30693,-3.55701 -1.26707,-0.82826 -2.87488,-2.97598 -4.5378,-2.35846 -1.614065,1.18949 -2.849245,2.3697 -4.170545,3.82767 -1.12424,0.6032 -4.04674,2.37666 -1.43881,3.28634 1.80745,0.0446 5.345955,1.59811 4.27954,2.35846 -1.78754,0.71386 -2.38005,-2.25668 -5.12808,-1.7785 -1.44949,-2.23437 -3.46823,1.5828 -4.24265,2.3971 -0.77136,0.7599 2.3489,3.2017 3.46622,2.66775 1.58504,1.35935 3.44461,2.31433 5.31423,0.88925 3.472935,-0.80073 3.051605,2.86769 4.537785,4.13696 3.06496,1.39045 4.31781,-0.12716 7.66519,-0.27083 2.21103,-0.22042 4.57224,-1.53096 6.79671,-1.19855 1.62087,-0.72296 2.8989,-3.52323 5.19848,-2.66776 1.34974,0.27128 3.88834,1.98295 5.83242,0.57996 0.88261,0.94275 3.97221,0.72157 3.43101,-0.88925 -0.60422,-1.91549 3.18925,-1.65121 3.94751,-3.24771 0.32313,-2.00057 4.67794,-2.40178 3.06377,-0.30921 -1.86317,-0.25031 -3.46909,4.25533 -0.22305,2.97705 2.18966,-0.48313 3.32095,0.52485 5.38636,0.30921 1.83588,-1.52284 3.73713,-1.31059 3.09895,-4.4849 -0.13922,-2.28367 1.21197,-3.59399 1.99222,-5.33551 -1.02364,-0.92124 -3.66556,-2.31236 -5.38633,-1.7785 -2.28719,-0.39978 -2.10427,3.29014 -4.24266,2.66775 -0.72832,-1.40067 -4.31078,-0.93909 -5.09119,-2.97705 -1.57954,-1.09771 -2.84952,-2.86729 -5.45841,-1.4692 -0.89522,-2.1869 -3.6843,-0.52481 -4.17056,-3.28635 2.96475,-1.68784 -1.53801,-1.97282 -3.20798,-1.46921 -0.95133,0.29359 -1.39423,-0.4469 -2.17834,-0.57995 z m -23.795745,0.27083 c -0.94898,2.29711 -3.35735,1.80693 -5.12807,2.66776 -0.25513,1.90209 -2.10781,3.97709 -1.40192,5.37415 -0.63187,2.1454 -1.64514,5.30092 -1.14367,7.4233 1.49118,-1.45292 2.94483,-1.6508 3.39412,-3.94184 1.231,-1.01182 2.30033,-1.53078 3.39413,-3.21081 1.31957,-0.86377 2.53442,-2.49775 3.98439,-3.557 0.594025,-3.38679 -2.33294,-2.7474 -3.09898,-4.75556 z m 62.606795,0 c 0.93529,3.15624 -1.87024,0.93807 -3.98441,2.3971 -2.332,0.10753 -3.84047,1.43712 -1.10677,3.01395 1.85712,0.9158 3.17793,-1.96617 5.12638,-0.65549 1.83191,-0.96694 3.99592,-2.88367 1.66187,-4.13696 -0.44703,-0.12895 -0.96662,-0.66973 -1.69707,-0.6186 z m 6.78825,2.3971 c -3.24678,0.4842 -1.39586,3.48999 0.84851,3.24771 0.0134,2.10056 3.91275,3.45103 4.24266,2.0878 -1.21648,-1.4809 -0.79849,-2.95617 -2.80384,-3.8663 -0.44895,-0.95672 -2.17307,-0.29672 -2.28733,-1.46921 z m -93.485925,0.27084 c -4.16044,-0.1004 0.68502,5.25242 1.10678,1.50784 2.49579,0.16688 -1.20666,-1.32593 -1.10678,-1.50784 z m 70.538685,1.81714 c -1.00799,1.24897 -5.28355,1.90584 -1.40191,2.93841 -0.49204,-0.24228 5.37771,-2.85596 2.14316,-2.93841 h -0.62551 z m -68.583375,1.15991 c -0.64664,2.95501 -2.77248,0.19141 -3.65237,3.28635 -1.16186,1.38523 1.00252,3.0338 0.25825,4.75555 -0.74448,1.56625 3.01653,4.067 1.43882,1.15991 -0.15947,-3.91882 1.41394,1.20292 3.09898,0.30921 0.99617,1.12042 3.87057,1.24526 3.13587,-0.88926 -2.45223,-0.95684 -1.19835,-4.62883 -3.39412,-5.6448 2.33012,-2.52323 2.20503,1.81081 3.09898,1.7785 0.057,0.82402 1.24658,2.64942 3.09898,4.1756 3.08729,0.86275 4.3812,0.3217 3.9844,-2.0878 -0.30599,-1.93775 1.13211,-3.63286 -0.29515,-5.9541 -1.36657,-2.05585 -2.41955,0.98755 -3.68926,0 -2.46417,0.27351 -2.39345,0.0933 -4.573,-0.57996 -0.8101,-0.19319 -1.55264,-0.44351 -2.51039,-0.3092 z m -13.57649,0.88925 c -0.43628,2.62987 2.97063,-0.0491 0,0 z m 1.14368,1.19855 c 0.62187,2.2797 -3.22417,0.64269 -4.27955,0 0.0639,1.0526 -0.94401,2.62554 0.69758,3.28635 1.16917,0.73902 4.63254,2.56178 1.51767,2.04916 -1.94483,-1.94355 -3.32109,0.17624 -0.77644,0.88925 -1.57099,-1.04881 -3.27797,3.98664 -3.13587,0.88925 2.17641,-2.04689 -1.6052,-0.88274 -2.54559,-1.15991 1.75345,2.81058 0.6148,1.86765 -1.14367,3.82766 2.93334,2.2922 1.29053,1.13488 0.59028,2.97705 -0.20185,1.23483 2.73185,1.91455 3.68926,2.66776 -2.11799,0.4995 2.43926,2.2196 0,2.39709 -0.79875,-1.27872 -2.92923,-2.80915 -4.27954,-2.39709 -0.64658,0.78556 -2.32859,3.28184 0,3.8663 -0.0433,2.42432 2.13634,-0.0134 3.13587,2.0878 2.88479,-0.67579 3.91626,2.66829 6.01181,2.0878 1.13886,-0.41585 4.6139,1.61859 4.76084,-0.88925 -0.65024,-2.48968 0.0303,-4.52648 -1.43881,-6.53406 -0.75173,-0.4038 -6.55772,2.11841 -3.65238,0.27084 1.83381,-0.56015 4.47141,-1.37439 3.09898,-3.82766 -3.57429,-0.81175 -0.87873,-3.59654 0.5534,-0.30921 1.9808,-0.18874 1.83801,-2.35699 2.28734,-3.28635 -1.60286,-0.94199 0.11993,-3.21429 -0.84853,-5.33551 -0.83694,-2.61894 -0.93342,-3.37978 -4.24265,-3.55701 z m 90.645175,1.19855 c -0.81541,1.80545 -2.52216,3.62741 -1.40192,5.3355 -1.13024,2.64469 -0.7417,4.29233 2.25043,2.97706 2.05871,-0.17179 3.5397,-1.6451 1.36672,1.19854 -0.72925,0.0357 -5.55749,-0.71773 -3.61715,1.46921 0.17044,2.63478 4.1619,0.37257 4.24266,3.24771 3.5347,-0.55296 -1.04073,2.75592 2.8407,0.61859 1.13345,-0.96394 2.81584,-1.86577 1.69707,-3.28635 0.94065,-0.81536 -2.18083,-4.16002 -1.43882,-4.44625 2.81071,1.33347 1.21979,-3.22036 0.59031,-4.5218 -0.60267,-2.16981 -3.88027,-0.30028 -5.68149,-2.01226 -0.058,-0.32126 -0.31233,-0.81768 -0.84851,-0.57995 z m -100.569295,1.4692 c -0.22176,1.56697 -2.14113,4.47597 0.55339,2.66776 1.72282,-0.24496 0.155,-2.49575 -0.55339,-2.66776 z m -3.68927,2.97705 c -1.91297,0.65474 1.51817,2.96514 1.14368,2.97705 2.48579,-0.59334 -0.2708,-2.66628 -1.14368,-2.97705 z m -4.83293,0.30921 c -0.65349,1.34918 0.069,3.26846 -0.84853,4.44626 0.27382,2.07142 2.33924,3.86844 1.9922,0.57995 0.65646,-0.6583 1.50619,-3.05536 0.55339,-4.44626 0.11432,-0.6396 -1.3266,-0.15438 -1.69706,-0.57995 z m -1.95531,1.46921 c -0.33602,3.97597 -3.05303,-0.7765 -2.84073,2.0878 -1.57787,3.45215 -0.23911,-1.1998 -2.84073,-0.30921 0.99332,2.48575 -0.22934,1.70729 -1.9922,2.66775 0.98514,1.34967 -0.2774,0.98603 -0.84853,2.66776 2.41296,0.2454 3.5383,-0.17759 5.38632,-1.77851 0.96188,-1.56134 3.18793,-1.70207 3.39412,-4.28804 -0.3296,-0.0941 0.41835,-1.31714 -0.25825,-1.04746 z m 32.57619,1.4692 c -2.30855,0.95939 -0.68186,2.43494 0.55339,3.28635 0.0954,3.55219 2.81235,-0.39755 1.9922,-1.46921 -1.03819,-0.61319 -0.69584,-1.91646 -2.54559,-1.81714 z m -26.08309,0.30921 c -0.72986,0.92214 -2.1722,4.45933 -0.25825,4.75555 0.86423,0.50745 1.81409,4.48561 2.54559,3.21081 1.40403,-1.35953 1.34551,-4.1975 -0.59028,-4.98931 -0.0822,-1.64389 -1.53042,-1.36743 -1.69706,-2.97705 z m 35.41692,0 c -1.12476,2.08432 -3.87029,0.43102 -5.09118,2.66775 -0.89195,2.12069 3.16682,3.58516 0,4.2125 -0.0925,3.18498 2.76445,2.81536 3.98441,1.12301 -0.0237,-3.22009 1.71786,-3.80522 3.94751,-4.71691 -0.11262,-0.76039 -1.26307,-3.41316 -2.84074,-3.28635 z m -41.94691,2.0878 c -1.34454,1.07014 -1.18583,2.42141 -3.42932,2.97705 -1.60602,0.92557 -2.51,2.11903 -5.05598,2.35846 -0.51062,1.62046 -3.47255,2.15339 -3.689263,3.28635 2.239151,-0.65273 0.54566,0.95296 1.438811,0.88925 1.367922,0.42745 2.099332,-1.65915 3.726152,-1.81719 1.47451,-0.85324 2.16965,-2.12488 3.91062,-2.35841 1.47101,-1.01419 2.3182,-2.56437 3.68926,-3.55701 0.0486,-0.87756 0.13136,-1.70921 -0.59028,-1.7785 z m 97.507195,0.88925 c -2.62737,1.45136 1.05728,1.35128 0.55339,3.24771 2.1927,1.1782 3.60427,-0.64938 4.53779,-2.04916 -3.21766,1.66495 -2.69185,0.0848 -5.09118,-1.19855 z m -72.272635,0.30921 c -0.8488,3.2581 0.92258,5.48833 1.14367,8.34946 -1.93519,3.09444 5.41584,3.33471 3.09898,5.29861 -0.30751,-1.87569 -4.59076,-1.19895 -1.40192,0 1.13044,0.90946 1.42948,2.68953 3.09898,3.24766 0.61403,-2.19314 -0.53998,-4.41444 -0.25825,-6.80467 2.08027,-1.18846 -0.0112,-2.73294 -0.59029,-4.75555 -0.5801,-2.42516 -1.73066,-3.96942 -3.39412,-4.75556 -0.97966,4.19876 -0.50757,-0.0843 -1.69705,-0.57995 z m -21.5453,0.57995 c 0.1111,1.57625 -1.80412,1.44739 -3.09898,2.66776 -2.63322,0.37524 0.3362,1.45622 -1.04349,1.79148 -1.77874,-1.03207 -4.11018,2.72822 -4.34283,1.18557 -1.08714,-0.33286 -2.82187,1.8046 -4.24265,2.0878 3.34117,-0.0268 0.075,0.57045 -0.29515,1.23723 -4.460674,0.78119 -0.0612,3.35604 0.59028,2.31977 0.008,-1.37274 4.75162,-0.35828 3.39412,-2.39709 -0.0205,-1.73407 5.58971,-2.46171 2.4735,-1.15991 -2.83176,1.12287 1.20663,2.25713 0.62548,3.24771 -1.71766,-1.11351 -3.562,0.57054 -4.79604,1.50784 -2.174,0.56898 -2.29302,2.79613 -3.135872,1.15991 -0.960651,0.8474 -3.819913,1.77775 -2.250454,3.28635 -0.635384,2.27386 2.427568,-1.10284 3.394126,-0.30921 1.85907,-0.22755 3.114,-1.66383 3.68926,-3.24771 1.11083,0.54609 1.92764,0.74929 4.31475,-0.61859 1.59173,-1.19757 -0.54758,-2.0642 2.76863,-2.35846 1.05567,-2.20381 4.43572,0.0571 5.64458,0.57996 0.37596,-2.34472 3.00596,0.22621 2.28734,0.88925 0.78985,0.3275 3.56732,3.43702 1.95531,2.66775 -0.85718,-1.81058 -3.61222,-2.19314 -5.34943,-2.04916 1.39962,-0.96497 -3.69773,-3.55044 -3.98441,-0.30921 0.57595,1.58656 4.76087,0.6588 4.5378,2.35846 -2.34805,-1.11672 -0.85428,1.8034 -3.13588,-0.88925 -1.36263,-1.16433 -7.06923,0.1584 -3.09898,0.61859 1.50359,1.48616 -0.005,2.85975 -1.69706,3.55701 -0.34187,1.42539 -4.23045,2.00231 -0.84853,2.35846 0.27981,-2.55648 2.63621,0.2396 0.29516,0.88925 2.87118,0.004 6.82342,-1.29506 8.78044,0.30921 0.98631,1.51565 4.17864,0.38461 3.94751,2.35845 -0.25986,1.83116 3.43107,1.19681 4.24265,2.97701 1.2369,2.43708 2.42655,-0.87243 3.39412,-1.46916 -0.6516,-2.25383 -3.85958,-1.40545 -5.64456,-2.3971 -0.66708,-2.22139 -2.57001,-3.30857 -4.64509,-4.13696 -1.24225,-0.71158 -7.17751,-1.42994 -3.58197,-1.50789 1.76172,-0.27976 4.37814,0.6094 5.68146,1.50789 2.16368,0.65505 3.02445,2.35235 5.64458,2.35846 1.28089,0.52918 3.97217,0.94498 5.38632,-0.57996 0.80056,-1.3705 2.13393,-3.00038 3.68926,-3.557 0.56989,-1.89581 -1.16454,-4.59122 -3.09898,-4.1756 -2.49209,-0.53748 -3.71949,-0.24897 -5.68146,-1.46921 -1.11298,-0.97657 -4.07162,-1.65027 -4.5378,-2.39709 -3.22399,0.2396 -0.86365,-2.27971 -3.68926,-2.66776 -0.94841,-1.18579 -2.169,-3.68439 -3.39412,-4.75555 -0.4171,-0.30029 -0.39715,-1.47804 -1.14367,-1.46921 z m -8.4853,5.33551 c 0.80305,0.34178 -0.30171,-0.75365 0,0 z m 124.955315,2.3971 c -0.76347,2.00833 -0.94109,2.86635 0.55337,4.13696 1.12131,1.17588 2.56321,2.26239 4.24266,2.97705 0.59102,1.27757 3.3759,2.72018 3.13589,1.46916 -1.00419,-1.51601 0.0312,-4.62045 -2.54559,-4.75551 -2.44501,-0.0357 -2.36809,-4.0715 -5.38633,-3.82766 z m -94.076185,5.91546 c 1.59786,1.95002 -0.74599,3.11341 0.84853,5.06485 0.23201,1.68681 1.71422,5.74971 3.13587,3.24771 2.44787,-1.37377 0.67241,-3.74079 -0.59028,-4.79245 -0.63457,-1.6397 -2.15769,-2.91758 -3.39412,-3.52011 z m -46.447819,0.88925 c -1.601688,1.52761 -3.962845,0.91321 -3.135872,4.44622 -1.308204,2.12148 -1.897055,4.03183 -1.992204,6.84335 -1.599471,0.31858 -1.54877,2.84476 -2.803837,3.86635 -0.778236,-2.34093 1.68491,-3.35538 1.955309,-5.33551 2.063929,-3.26886 -0.528871,-2.81486 -0.848533,0.27083 -0.941111,-1.64451 1.891027,-3.36809 -1.106776,-2.35841 0.09995,-4.39195 -0.948006,1.53502 -1.697061,0.57996 0.517796,-4.25721 -2.8538322,4.3505 -1.9922042,-0.34625 0.215821,-2.65209 -1.518469,0.12761 -1.438811,0.96484 0.577835,0.31947 -3.072393,2.60457 -3.947514,3.24766 -0.01785,1.72371 0.437799,3.40803 1.143677,4.7556 0.934816,1.83468 2.177903,2.70162 0.848528,4.1756 0.22876,0.70244 0.867348,5.02032 2.250448,2.66776 3.0782202,0.21774 1.6172732,2.64508 0.295153,4.44625 1.9401342,1.26187 1.4338372,2.21126 3.0071472,4.26364 -0.06095,1.97629 -2.3110052,1.84382 -3.5974302,4.04888 -0.152329,1.30612 0.232508,3.96616 -0.258254,5.02621 0.67103,3.44238 5.9052372,-1.32553 1.697061,-0.27084 -1.205353,-2.62675 2.4224092,-2.99427 1.9922042,-0.3092 2.521387,-2.72483 0.683554,0.13073 2.545588,-0.57996 3.3605,-2.10413 0.593969,1.19761 -1.143672,1.46921 1.372852,1.56362 4.62989,-3.09984 3.098981,0.30921 -1.797051,1.46269 2.849919,-0.91924 2.582483,-2.35846 1.769307,0.86449 1.227216,0.34401 2.545593,1.15991 2.876918,-0.75192 0.755145,2.19256 -1.143672,1.7785 -1.874326,0.34758 -4.190908,1.70502 -5.681464,1.7785 -2.553914,-0.77141 -5.2335462,0.85499 -5.3863202,3.28635 -3.439525,-0.22175 0.672747,3.78706 0.848527,5.02621 1.2541932,2.44025 3.7213862,0.31947 4.5377932,-1.4692 -0.745967,0.46515 0.0071,3.8725 2.287344,1.4692 1.386768,-1.53368 2.572131,-2.73829 3.39412,-3.8663 1.156732,2.87246 2.789903,-0.88577 5.091185,-0.57995 1.478054,-1.4287 0.993503,-5.05682 2.28734,-5.91547 -0.777031,-0.89077 4.521105,-1.88585 1.955313,0.27084 -0.981322,1.17999 -4.045929,4.78888 -1.955313,5.6448 2.933847,-1.96072 0.353469,0.51896 1.40192,2.0878 2.873014,-0.22086 2.755653,3.93051 1.401921,5.02622 -1.264058,1.7312 -1.644834,4.71994 0,5.37414 1.082923,1.82719 1.757358,3.7913 1.143672,4.75556 0.223272,2.52676 1.162689,4.38142 1.143669,7.11401 1.19838,-0.9983 2.6663,0.31635 3.09898,-1.7785 2.09131,-1.46684 0.98457,0.93793 0.29516,2.0878 -2.13839,0.21194 -4.821758,0.82888 -2.25045,2.35845 -0.11387,3.35417 2.5382,1.66241 3.09898,0.30921 1.85184,-1.3863 4.00356,-2.60002 5.93971,-2.0878 -1.46631,1.81103 -5.11081,0.73648 -5.09118,3.55701 -2.32207,-0.11244 -4.43026,3.65351 -1.14368,2.97705 1.26592,0.1932 -1.30354,3.33967 0.29516,5.02616 2.28443,-0.058 3.56937,-2.05585 4.53779,-3.557 1.58122,-1.1256 2.19859,-1.33968 3.94751,-2.97701 -1.39464,-1.90245 2.10852,-0.97933 2.28734,-3.557 0.86925,-1.70988 3.93386,-3.6172 3.09898,-6.80472 -0.13211,-1.78858 -1.66548,-4.62709 -2.25045,-5.6448 1.52403,-1.11123 0.58892,-3.81366 -1.40192,-4.1756 -1.63964,-0.65581 -3.05482,1.96117 -3.68926,3.557 -1.80795,0.46257 0.74204,-2.56401 1.10678,-3.24771 -0.42156,-0.61721 -2.54517,-0.59744 0.29515,-2.0878 1.07897,-4.42403 0.23555,-0.30608 1.9922,0.6186 2.33082,0.85543 2.02467,-1.02222 1.14368,-2.97705 -1.41398,-1.20457 -1.70672,-1.79028 -2.58249,-4.1756 -0.99614,-0.8275 -1.45424,-4.71589 -3.09898,-2.35846 -1.17203,1.55599 -2.31581,2.30648 -3.13587,4.44626 -1.18502,0.92512 -2.74127,0.3922 -0.25825,-0.88925 3.49628,-1.91598 -1.61907,-3.28885 0.84853,-3.55701 2.32197,-0.31992 1.79298,-2.62305 1.40192,-4.1756 -0.73497,-0.80376 -1.60159,-3.72062 -2.54559,-3.24771 -2.1792,1.0605 0.59969,-3.56954 -1.69706,-4.75555 -1.249,0.95073 -3.21746,0.97746 -4.24266,1.7785 0.45224,-2.64812 3.82193,-0.94699 2.84074,-3.97874 0.37698,-2.63871 -1.71198,-2.69314 -2.28735,-4.33382 -0.95868,-1.43962 -1.740508,-4.52019 -2.84073,-1.46916 -0.841344,3.46081 -2.393215,0.32706 -0.848528,0 1.661673,-1.20667 0.864711,-3.20969 1.9922,-4.17564 1.153148,-0.84134 0.377564,-4.20331 -0.848532,-2.66776 -0.337853,2.72638 -4.269134,3.16499 -1.69706,0.88925 0.952137,-1.78011 1.94199,-3.01431 1.992204,-5.06485 -0.512835,-0.41228 -4.913755,1.18494 -1.438812,-0.88925 0.803646,-3.75449 -4.453498,-0.78217 -1.697064,-3.24766 -1.013925,-2.47117 -0.781881,-2.57598 -2.766603,-4.51265 -0.68894,-2.6235 -0.537384,-3.3129 -0.922657,-4.99846 0.04979,-0.99063 -3.817936,1.40134 -1.697061,-0.57996 1.576764,-0.66482 -0.680203,-1.81009 -1.106781,-2.39709 z m -7.673665,7.15265 c 0.906435,0.15974 -0.152373,-0.94993 0,0 z m 24.939414,-6.53405 c -1.51394,0.95287 -3.75129,0.63599 -4.79604,2.35845 -2.088576,-0.51922 -5.102059,2.14737 -3.063781,2.66776 2.456591,-1.10574 1.975111,-0.57206 4.170561,-1.46921 1.78647,-1.70573 5.25756,-1.14982 1.14367,0 -2.48752,1.36989 -0.57252,1.68476 0.29515,1.19855 0.60084,2.04479 1.91614,-2.20992 3.68927,-2.70644 2.85931,-0.74995 -0.30328,-1.87082 -1.43882,-2.04911 z m 28.0384,2.66775 c -1.99516,1.04207 -3.00051,4.03648 -0.25826,3.8663 0.76783,-1.17856 1.81974,1.44315 1.69706,2.66776 3.21422,1.62399 1.17129,-1.72916 0.55339,-3.28635 -0.96419,-0.39934 -0.55421,-2.78952 -1.99219,-3.24771 z m -32.83444,4.13696 c -1.970189,-0.32304 -5.077402,1.90567 -2.287344,3.28635 0.580825,1.68409 1.715774,5.30494 3.135874,2.35841 0.95816,-0.38417 -1.49877,4.08739 1.17887,4.17565 2.20173,-1.07875 4.28049,-2.05255 1.92011,0.57995 -3.37613,-0.83321 -3.47052,4.49708 -0.55339,2.66771 1.6993,-2.63527 2.99716,-0.49527 0.55339,0.30921 -2.70098,1.97 -1.45937,2.86573 0,0.88925 3.09784,-0.66143 -2.93038,2.61207 -0.84853,4.44626 3.07476,-0.89541 1.75961,-0.77146 1.40192,1.7785 1.58839,1.73991 2.25433,-0.83852 3.43101,-1.7785 0.65824,-1.65616 3.69928,-3.17949 1.40192,-0.88925 0.6087,1.52047 -4.36968,3.32583 -0.84853,2.97709 1.20253,-0.95747 5.44362,0.25388 2.54559,0.57991 -2.04058,-0.7429 -3.46212,0.61623 -4.53779,1.50785 -1.38127,2.36292 1.73439,-0.47867 2.84073,-0.6186 2.0332,0.004 3.6148,-0.94984 5.93972,-0.57995 -2.73796,1.08914 2.94461,2.37844 0.59028,2.66775 -1.47329,-0.77012 -4.89173,-3.009 -4.27955,0.57996 -1.46249,0.85561 -0.5708,-2.90522 -3.39412,-1.15991 -1.76283,0.55157 -2.06411,3.02118 -0.55339,4.44625 0.74986,0.86967 1.7276,5.45094 2.84074,2.35846 1.56077,-0.73313 5.27256,0.59017 1.9553,0.88925 -2.85267,-0.55635 0.002,3.004 0.59028,4.1756 0.16799,2.25691 2.05237,3.39103 3.94752,2.0878 -0.24898,0.61744 -3.41088,2.37582 -1.10678,4.44626 1.24118,0.97612 1.11827,4.84542 3.39412,3.8663 0.80485,-2.16164 3.3553,-2.26708 3.39412,-5.06485 1.00868,-1.47612 2.4796,-2.38402 3.94751,-3.24771 0.72104,-1.8204 1.80619,-3.16329 2.58249,-4.75555 2.38819,-2.29662 -0.98468,1.99727 0.25825,3.24771 1.85984,-0.12806 2.19195,-1.31559 3.68927,-2.35846 0.8331,-2.07183 -0.0508,-4.47173 0.29515,-5.64481 2.16238,-3.30856 -2.35458,1.60262 -1.43881,-1.50784 0.72343,-2.23174 1.63108,-3.5023 0.59028,-4.13696 -2.92312,0.57058 -0.36525,-1.81549 0.55339,-2.35841 0.46995,-2.42534 -3.00159,-0.0223 -3.09898,1.46916 -0.42437,1.57058 -2.57047,5.63789 -2.28735,2.66775 1.43209,-1.28506 1.07012,-4.45763 3.13588,-4.75555 0.42812,-2.90058 2.79912,-1.25049 3.68926,-2.0878 1.03395,-1.90602 -3.7809,-3.25503 -0.59028,-2.66776 1.93103,1.75727 3.3716,-1.68484 1.69706,-2.66775 0.35941,-3.17846 -1.86705,-0.54096 -3.09898,0 -0.54877,2.58039 -2.2899,2.54425 -3.68926,3.8663 -0.58483,1.91107 -3.27522,2.21229 -4.24266,4.17565 -2.01138,2.38616 -2.11568,0.62261 -0.59028,-0.92794 1.46445,-1.13773 2.97904,-1.78711 3.68926,-3.557 0.86633,-1.15358 1.6702,-2.90107 3.13588,-3.55701 1.52773,-0.8656 1.14337,-3.61671 3.39412,-3.8663 1.12558,-2.06059 -0.75355,-3.62675 -2.28734,-3.24767 -0.68622,1.37364 -2.32328,2.38809 -3.09898,3.55701 -1.28813,2.02667 1.57146,2.81986 -0.55339,4.75551 -0.99741,1.52172 -2.19867,3.1557 -3.43102,4.13696 -2.44905,1.30336 -1.71127,-2.30907 -3.94751,-2.35846 -0.22577,-1.89545 2.02506,1.41633 2.5456,0.57996 0.32705,-0.72916 2.09153,2.03831 2.84072,-0.57996 1.55205,-1.66829 1.60943,-3.45286 0,-3.55696 2.21649,-1.20395 -0.71631,-3.30125 -1.69706,-2.0878 -1.41345,1.58704 -3.73106,0.16732 -5.12807,0 0.66873,-1.31139 5.10128,0.91205 3.98441,-1.7785 -1.40809,1.17771 -0.71448,-2.81893 -2.84074,-2.66776 -2.24181,-0.23023 -1.45623,-3.03362 -3.94751,-3.28635 -1.02363,-1.69439 -3.72254,-1.03693 -5.9766,-1.1599 0.65136,2.86314 4.40889,1.12894 5.38632,3.557 1.65681,-0.0179 4.07746,1.07264 0.84853,0.88925 -2.36914,-0.97103 -4.64689,-2.30821 -7.34163,-2.39714 -1.08457,-0.20435 -3.47074,2.43409 -3.13588,0.30921 2.13651,-0.87198 1.16663,-3.10395 -1.14367,-1.46921 -2.84506,0.66719 -2.91074,-1.59788 -5.34943,-1.50784 z m 50.98561,0.6186 c -1.22691,2.66824 1.53065,0.92967 3.39412,1.7785 -2.29587,1.81571 5.32377,2.06964 1.9922,2.97705 -2.72472,-0.009 -4.45019,-3.37599 -5.53346,-0.15527 -0.7194,1.14072 2.25179,3.00551 2.39759,0.15527 0.10249,1.16562 2.64853,1.895 2.58248,3.24771 -1.46861,0.0638 -2.94506,-2.16316 -4.53779,0 -0.49991,2.20166 -0.38791,3.99119 0.55339,6.3003 -0.126,2.06607 -0.22791,6.18505 1.9922,5.29861 0.18905,-2.17325 2.30912,-2.32277 2.25045,-4.75556 0.90471,-1.44221 1.58685,-4.60532 3.98441,-4.1756 1.094,-1.78479 3.46861,-1.75824 0.84852,-0.30921 -0.65325,1.59651 -2.78491,1.64371 -3.39412,3.28635 -0.65054,2.11332 -1.25419,2.10677 -1.9922,4.7556 -0.82783,1.04885 -1.1068,3.22884 0.55339,3.86626 0.2189,2.4937 0.95797,4.78094 2.54559,5.64485 1.34261,1.08736 2.96589,-1.60056 5.38632,-1.50789 0.37672,-1.88595 3.049985,-2.0215 4.242655,-3.24771 1.07399,-1.45198 1.98099,-3.079 2.84073,-4.75551 2.11711,-2.29354 -2.70237,-2.95956 -2.25044,-4.17564 -0.54997,-2.71661 -1.91651,-3.3672 -3.984415,-2.97705 -0.90607,-1.86011 -0.95648,-2.59967 -2.25045,-4.44626 -0.94984,-1.20404 -2.27967,-2.90571 -4.24265,-3.24767 -1.2294,-1.18172 -2.51454,-3.35283 -4.60988,-2.66775 -1.61104,0.45587 -1.47142,-1.16392 -2.76864,-0.88925 z m -22.94721,1.4692 c -0.97567,1.41669 -2.24861,2.94189 -2.84074,4.83109 1.04213,1.94868 3.14435,2.56607 3.68926,0.50437 0.81389,-1.35435 2.16402,-2.33677 2.84074,-4.13691 -1.34701,-1.16642 -1.97592,-0.87618 -3.68926,-1.19855 z m 11.32603,1.77846 c -0.0393,2.04729 -2.45044,3.23013 -1.69706,5.0649 1.06542,2.83083 -0.10066,4.53817 -0.55339,7.11396 -2.72775,1.46599 2.132,2.65 0,3.24771 -1.61857,0.13073 -3.16879,1.67432 -2.54559,3.8663 -0.76918,1.99848 1.64379,5.35956 -0.29515,7.1527 0.25847,1.6562 2.03982,1.97808 2.84073,3.82762 -1.01919,2.67489 2.95815,2.52033 2.54559,4.1756 -2.29321,-2.08928 -1.83244,0.27306 0,1.4692 1.3586,2.11154 2.54743,-0.48884 3.09898,1.19855 1.1708,0.74643 0.73217,2.36854 1.14367,4.1756 0.15219,1.04073 -1.64573,0.40246 -2.84073,1.7785 0.12462,1.74067 -1.91103,5.06722 0,7.11401 -1.19601,3.3523 -1.95867,-2.11537 -1.69706,-3.2477 0.67122,-2.31567 -2.50885,-5.52166 -2.84074,-3.21081 1.36634,1.75302 -0.11498,3.42234 -0.25825,6.14922 -1.8702,-1.61176 0.99415,-3.82472 -0.59028,-5.64481 -0.49017,-1.72183 0.30189,-3.56035 -0.25825,-5.60616 -0.37819,-1.35695 -0.20266,-2.88933 0,-5.37415 -1.3675,0.22845 -1.69644,-1.05305 -3.43102,-0.27084 -1.02493,1.28266 -2.03383,2.32053 -2.25045,3.82767 -0.6515,-4.22634 -1.44,0.0616 -3.39412,0 -1.69101,1.29947 -1.43996,3.63379 -3.9844,4.1756 -0.67529,1.85533 -0.97181,3.93706 -3.09898,4.44625 -2.30244,1.39679 1.06897,1.79515 -0.29515,3.8663 1.69839,0.66728 1.28989,3.43297 1.43881,4.75556 -1.20078,2.1044 1.81398,1.81585 -0.29515,4.13696 1.32629,1.05015 2.99919,1.94065 3.94751,2.97705 2.33399,-0.78681 -0.76457,-4.90204 0.84853,-6.22476 1.51573,0.2811 -0.061,3.29938 0.84853,5.33551 -0.52954,3.15606 2.93118,1.65522 3.98441,1.19855 1.9117,0.17624 2.15019,-0.8914 4.24265,0 1.46273,0.56719 2.88498,1.72054 4.83293,0.88925 1.17055,0.30519 4.44397,0.76967 4.24265,-1.31099 1.31567,-0.57331 2.27869,2.39638 2.84074,3.66945 1.36779,0.74236 4.19766,-0.31724 4.79604,1.50784 0.879,0.9208 1.49594,3.30152 3.9844,2.0878 1.54265,-0.57973 2.77187,-1.52525 4.24265,-2.3971 3.34613,1.01343 3.16794,-1.70586 3.68926,-3.8663 2.32317,-2.23401 -0.98495,-4.1814 -0.29515,-7.11401 0.52615,-1.3515 -1.89634,-1.65678 -2.84073,-2.97705 1.02888,3.92444 -0.1053,3.37492 -1.10678,0.88925 -1.39395,-0.37212 -0.17638,5.05664 1.40192,3.55701 0.94491,1.40669 1.45588,4.36117 -0.84853,2.97705 -1.73841,-0.1343 -1.55327,-2.48183 -3.39412,-2.66776 0.36101,-2.39138 -4.422,0.55676 -1.43882,-2.0878 2.6e-4,-1.39585 -1.13225,-1.94247 -1.69706,-3.8663 -0.0847,-2.32285 -0.15335,-4.08551 0.29516,-6.80471 0.38751,-2.26525 -0.40385,-3.10618 -1.40192,-4.44626 -2.30303,0.41406 0.0406,-4.44809 -3.13588,-3.59565 -0.77106,1.88996 -4.57362,-1.18654 -2.25044,-1.4692 0.74249,0.47934 3.53254,1.02891 3.39412,-1.46921 1.32647,1.177 3.82287,1.62689 3.68926,-1.19855 1.69043,-1.76105 -1.34542,-2.74579 -1.14367,-4.75555 0.0511,-0.19989 2.15587,-0.0223 0,-1.7785 0.34218,-3.85109 -3.33223,0.30742 -2.54559,-3.55701 -0.80462,-0.7997 -3.63368,-1.87974 -3.39412,-2.66775 1.30732,-0.79007 -1.7333,-2.18141 0,-3.28635 1.45846,-1.31768 -0.3321,-2.74512 -0.59029,-4.44626 -1.52997,-2.61251 -2.05763,3.47964 -2.25045,4.868 -2.45743,0.5721 1.14443,-5.07659 -0.29515,-6.33716 -1.27114,-0.38506 -2.76913,-2.7909 -0.55339,-0.88925 1.57494,0.90527 3.35226,-1.99874 2.84073,-3.28635 -1.45708,-1.28511 -0.94087,-3.9227 -2.84073,-4.44626 -0.85177,-1.12903 -1.45845,-1.33182 -2.84073,-1.19859 z m 32.871325,15.42657 c -1.30435,1.6877 -1.27646,3.35207 -3.13587,4.1756 -0.0631,2.91579 -2.908385,2.81625 0,4.75555 1.87331,0.81871 3.75636,1.77007 4.53778,3.55701 1.37161,0.774 3.42917,1.257 4.5378,2.66775 2.60197,0.59553 2.01773,3.76587 0.29511,1.19855 -1.54216,-0.8295 -2.99913,-2.23557 -4.86812,-2.66775 -2.39816,-0.40559 -2.64729,-2.44569 -4.50259,-3.28635 -0.81284,-1.66941 -2.977285,-3.17699 -4.796045,-1.7785 0.0532,1.73763 -5.51803,0.81322 -2.28734,3.28635 1.31025,1.20475 2.82021,2.48187 4.681975,3.2477 2.69143,0.18116 4.80456,0.80046 6.09066,2.3971 2.16332,0.92513 3.2304,-0.14903 4.27954,1.7785 3.11805,1.67807 -0.9429,1.45408 -1.73395,0 -2.45684,-1.30907 0.67135,1.71296 1.43882,2.04916 1.70369,0.77119 3.40119,2.94136 4.79604,0.6186 2.75688,-0.32884 3.66005,-1.53823 3.68925,-4.44626 -1.62543,-1.52306 -4.67699,-0.99857 -5.38631,-3.28635 0.16625,-1.42731 -1.31418,-3.46839 -1.95532,-4.75555 -1.4139,-0.78315 -2.62751,-4.62986 -0.59027,-5.33551 -0.65693,-1.77052 -1.26234,-4.44496 -3.39412,-3.8663 -0.1431,2.1985 -1.10076,-0.98456 -1.69707,-0.30921 z m 14.16676,8.62186 c -1.51226,0.69926 -3.54365,0.41897 -5.09118,1.50789 -1.27405,3.48976 0.64758,3.48517 1.40191,5.33546 1.33378,0.0223 4.31668,1.02355 3.68927,2.66776 -1.21679,2.59957 3.77769,1.31281 3.94751,3.557 2.20078,0.58473 3.80958,1.45859 6.23486,2.66776 2.50883,2.88915 2.26601,-1.65313 1.99219,-4.44626 -0.58722,-2.06192 0.58286,-4.39347 -1.14366,-5.64481 -0.27878,-2.41423 -4.43926,0.86605 -5.64457,-1.7785 -1.77486,-1.02048 -3.27293,-2.38233 -4.31476,-3.8663 h -0.62546 z m -26.931605,5.33551 c 2.89646,2.99284 0.15429,1.6471 0.84853,5.14043 -0.61849,2.06701 2.43871,3.52394 3.9844,4.10002 0.53276,1.40397 1.77718,4.48355 0.84854,5.60616 0.34423,2.14942 3.204555,3.72455 5.386305,2.97705 0.97371,-1.50485 3.07888,-2.2797 4.5378,-3.24771 1.47922,-0.92748 3.44512,-3.65686 2.54558,-4.44625 -0.37248,-2.39237 -3.38148,-2.2454 -5.09117,-3.59565 -2.25106,-0.73755 -2.35167,-3.08538 -4.90503,-2.93841 -1.544655,-0.84883 -4.106665,-0.63675 -4.723945,-2.3971 -1.44727,-0.31857 -2.17442,-1.10395 -3.43101,-1.19854 z m -90.6451822,4.75555 c -0.686825,2.72384 0.157326,1.93418 0.848533,2.97705 2.537418,-0.60556 0.488414,-2.96906 -0.848533,-2.97705 z m 92.9325322,5.9541 c -2.48462,0.4921 -2.83157,1.57808 -1.14368,3.55701 2.62459,0.40157 1.4314,-2.30938 1.14368,-3.55701 z m -71.682377,1.19855 c -2.410875,0.37257 -1.716318,2.08535 -3.135876,3.55701 1.046733,3.07249 -2.750062,0.76637 0,-1.19855 0.768665,-3.51234 -2.958164,-1.43387 -3.947509,0.57995 -2.738002,-0.62301 -3.701923,3.38411 -0.590283,1.50785 1.496726,0.59932 -3.184002,1.74629 -3.947509,2.35845 -1.847176,3.55371 0.0597,-0.20792 -2.5455932,-0.57995 -0.337719,-3.28363 -2.570927,-2.29916 -5.091181,-2.3971 -1.221571,1.95355 0.975661,4.18511 -1.733955,4.75556 -2.36732303,-1.54939 -3.45523903,1.15482 -1.401921,2.66775 1.044235,1.96323 0.133946,3.2354 0.848533,5.48659 -0.143583,2.07664 -3.599688,2.14482 -0.553389,2.86461 -0.566747,2.4083 0.754146,3.09034 1.955309,4.79246 -0.632872,2.12599 1.407257,1.89665 3.431012,2.01226 1.921122,1.40865 3.8475362,-0.0357 4.7960412,-1.19855 1.172504,-1.49598 3.176541,-3.26739 4.832936,-4.44626 0.952191,-1.40134 3.413552,-2.83133 4.684936,-4.32985 0.739993,0.94525 -1.098723,2.60342 -2.300515,3.61827 -3.013572,1.08317 -3.359992,3.00351 -6.368825,5.77643 -2.185033,2.34458 3.027511,2.93757 3.689265,0.57996 1.516555,-1.40442 1.953867,-3.32941 3.984404,-3.86631 -0.478621,-2.08561 3.695703,-4.40712 2.545588,-2.35845 -1.314406,1.29131 -1.741867,3.12853 -3.394121,3.8663 -0.788582,0.75664 -3.281993,2.90838 -2.215249,3.557 2.809254,0.48291 -1.720516,1.57036 -3.975944,1.19855 -3.018056,0.004 -5.2828492,-0.82187 -6.8687962,1.77851 -1.476603,1.53086 1.747346,2.43801 3.135872,3.2477 1.6550922,0.50375 4.3027412,2.51338 5.9397132,0.30921 1.03507,-1.31848 2.391002,-2.57646 4.019604,-3.28639 2.710557,-0.38015 2.460116,-3.00851 4.760841,-3.82762 1.320193,-2.29595 3.288789,-3.49971 4.537793,-5.9541 -0.02588,-3.12983 0.398088,-1.96492 1.992204,-0.30921 0.538914,-2.91168 0.570718,-5.16765 -1.438811,-5.91546 0.914974,-3.60765 -3.616996,-1.95979 -2.250453,0.57995 -1.157107,-1.54863 -4.265922,-0.27128 -2.545593,-2.35846 1.756608,-1.80969 1.842856,-0.0482 3.394125,-1.81714 0.120961,-2.59052 -1.710218,-4.44777 0.553388,-6.80471 2.378371,-2.47424 -2.342693,-5.45143 -2.803841,-1.77851 -0.270434,2.01592 -2.085417,5.00882 -0.295153,6.53406 0.147822,1.57201 -6.010295,-0.38818 -1.69706,-1.19855 0.819789,-2.38268 0.08638,-4.04549 1.40192,-6.53405 0.970801,-2.0986 0.437889,-1.15085 -1.40192,-1.46921 z m 64.008707,6.53406 c -0.38341,2.89267 -0.63356,3.33998 0.84853,5.33551 -0.29212,-0.311 0.90867,-5.60211 -0.84853,-5.33551 z M 30.26748,237.33803 c -2.672707,2.0231 -3.662989,3.75552 -6.234853,6.53401 -1.633537,3.0646 -4.341773,2.97197 -6.788246,5.64485 -1.73574,0.89903 -1.787239,2.29479 -1.143671,3.28635 -2.681894,-0.0357 -3.583572,-1.84815 -6.2348532,-2.39709 -2.474162,1.7897 -3.861756,-1.59932 -5.939713,-1.1986 -0.05586,2.16414 0.15679,3.36769 1.438816,5.06485 -0.843433,1.4212 0.290379,3.29751 -0.295153,4.17565 -0.329599,1.25231 2.475264,4.04179 3.689264,2.93836 0.657654,2.49723 4.6901082,0.51316 6.2348532,-1.46916 0.654874,-1.49597 3.655426,-2.16628 3.947509,-3.86634 0.07969,-1.74892 3.221995,-4.72856 1.143672,-1.19855 -0.10249,1.17111 -1.296679,2.37456 1.474015,0.88925 1.744066,-0.95984 3.285644,-3.54246 2.473498,-5.91542 1.623029,-1.03765 2.382676,-3.22549 3.68926,-4.75555 0.573177,-1.79716 1.861213,-2.92458 3.39412,-4.1756 -0.318443,-1.40844 -0.141441,-2.79461 -0.848527,-3.55701 z m 1.992195,3.55701 c -1.21844,1.80032 -2.819538,2.03823 -3.689256,4.1756 -1.412415,1.94412 -3.527512,4.09568 -3.39412,7.7326 1.667246,0.47251 2.758013,-1.70207 4.242653,-2.66775 -0.03034,0.96073 -1.893593,2.63157 -2.803842,3.24771 1.317966,2.53894 3.805675,-1.1671 4.500897,-2.0878 2.011188,-1.28069 4.218008,-1.13827 2.840738,-4.28809 -0.78015,-1.72871 -0.18512,-5.21441 -1.69707,-6.11227 z"
       style="fill:#000000;fill-opacity:1;stroke:#d39062;stroke-width:0.59027;stroke-miterlimit:4;stroke-dasharray:none;stroke-opacity:1"
       id="Tortel" />
  </g>
</svg>
