<?xml version="1.0" encoding="UTF-8" standalone="no"?>
<!-- Created with Inkscape (http://www.inkscape.org/) -->

<svg
   width="210mm"
   height="297mm"
   viewBox="0 0 210 297"
   version="1.1"
   id="svg57"
   inkscape:version="1.1.2 (b8e25be833, 2022-02-05)"
   sodipodi:docname="vector.svg"
   xmlns:inkscape="http://www.inkscape.org/namespaces/inkscape"
   xmlns:sodipodi="http://sodipodi.sourceforge.net/DTD/sodipodi-0.dtd"
   xmlns="http://www.w3.org/2000/svg"
   xmlns:svg="http://www.w3.org/2000/svg">
  <sodipodi:namedview
     id="namedview59"
     pagecolor="#ffffff"
     bordercolor="#666666"
     borderopacity="1.0"
     inkscape:pageshadow="2"
     inkscape:pageopacity="0.0"
     inkscape:pagecheckerboard="0"
     inkscape:document-units="mm"
     showgrid="false"
     inkscape:zoom="0.74029882"
     inkscape:cx="361.34057"
     inkscape:cy="561.93525"
     inkscape:window-width="1920"
     inkscape:window-height="1017"
     inkscape:window-x="-8"
     inkscape:window-y="-8"
     inkscape:window-maximized="1"
     inkscape:current-layer="layer1" />
  <defs
     id="defs54" />
  <g
     inkscape:label="Capa 1"
     inkscape:groupmode="layer"
     id="layer1">
    <path
       inkscape:connector-curvature="0"
       id="Penco"
       style="fill:#000000;fill-opacity:1;fill-rule:evenodd;stroke:#d39062;stroke-width:1.43852;stroke-linecap:butt;stroke-linejoin:miter;stroke-miterlimit:4;stroke-dasharray:none;stroke-opacity:1"
       d="m 37.898685,141.83688 0.89903,12.22743 h -9.17052 l -6.11372,13.75588 -21.4879337,7.73201 7.642154,3.05689 2.4274997,15.46402 3.77613,-3.23658 9.17058,9.17053 10.699,-3.05689 7.64215,9.17068 16.90263,-13.75588 1.52838,7.64209 10.69913,-9.17053 30.658435,-9.17069 7.64209,-9.26046 39.91903,39.91903 15.28432,-6.20356 9.17054,9.26046 12.31735,-9.26046 7.64224,4.67512 3.05675,-23.01634 -7.64209,-6.11379 18.34122,-36.77222 -12.22758,-1.5283 -10.69899,-4.67526 1.52845,-22.92641 -23.01633,-24.544791 -16.9027,23.016341 -15.28418,-9.26046 c 2.04328,-2.04328 4.07036,-4.07051 6.11365,-6.113791 0.92146,-0.92147 1.01658,-1.99141 0.71933,-3.23658 -0.29724,-1.24547 -0.9497,-2.65175 -1.70828,-4.04584 -0.75947,-1.39409 -1.60201,-2.76856 -2.06795,-4.13575 -0.46519,-1.36734 -0.58261,-2.70124 0,-3.86616 0.34332,-0.68515 0.43398,-1.19196 0.26901,-1.52829 -0.16497,-0.33738 -0.60341,-0.55883 -1.16818,-0.62868 -1.13103,-0.13377 -2.93651,0.19321 -5.03479,0.62868 -2.09827,0.43546 -4.43627,0.98983 -6.65314,1.34801 -2.21702,0.35819 -4.26744,0.5514 -5.75412,0.17984 l -32.546555,-0.89918 c -0.56625,6.70071 -4.28007,15.12322 -6.29362,19.150341 -4.55696,8.25977 -8.52417,18.10223 -18.97045,15.55408 0.1669,5.65662 10.94149,13.8776 2.78709,20.94838 -3.91699,3.39665 -13.98406,4.22567 -18.2512,4.22567 -1.93275,-0.0743 -3.90507,-0.52613 -5.84399,-0.71934 z" />
  </g>
</svg>
