<?xml version="1.0" encoding="UTF-8" standalone="no"?>
<!-- Created with Inkscape (http://www.inkscape.org/) -->

<svg
   width="210mm"
   height="297mm"
   viewBox="0 0 210 297"
   version="1.1"
   id="svg1283"
   inkscape:version="1.1.2 (b8e25be833, 2022-02-05)"
   sodipodi:docname="vector.svg"
   xmlns:inkscape="http://www.inkscape.org/namespaces/inkscape"
   xmlns:sodipodi="http://sodipodi.sourceforge.net/DTD/sodipodi-0.dtd"
   xmlns="http://www.w3.org/2000/svg"
   xmlns:svg="http://www.w3.org/2000/svg">
  <sodipodi:namedview
     id="namedview1285"
     pagecolor="#ffffff"
     bordercolor="#666666"
     borderopacity="1.0"
     inkscape:pageshadow="2"
     inkscape:pageopacity="0.0"
     inkscape:pagecheckerboard="0"
     inkscape:document-units="mm"
     showgrid="false"
     inkscape:zoom="0.74029882"
     inkscape:cx="361.34057"
     inkscape:cy="561.93525"
     inkscape:window-width="1920"
     inkscape:window-height="1017"
     inkscape:window-x="-8"
     inkscape:window-y="-8"
     inkscape:window-maximized="1"
     inkscape:current-layer="layer1" />
  <defs
     id="defs1280" />
  <g
     inkscape:label="Capa 1"
     inkscape:groupmode="layer"
     id="layer1">
    <path
       d="m 170.72693,49.093824 -1.206,0.603 v 0.52772 l -0.52772,0.603 -0.603,-0.603 -1.13056,0.603 v 1.13056 l -0.603,0.603 -0.603,-0.603 h -0.52773 l -0.603,-0.52772 h -2.8642 l -0.603,-0.603 h -2.33648 l -0.603,0.603 v 0.52772 l -0.52772,0.603 v 0.603 l -0.603,1.13056 v 0.603 l -0.603,0.52773 v 2.33656 l -0.52773,0.603 v 0.52772 l -0.603,0.603 v 0.603 l -0.603,1.13056 v 0.603 l 0.603,0.603 v 1.73356 l -0.603,1.13057 v 0.603 l 0.603,0.52772 v 2.33648 l -1.73364,1.73356 v 0.603 h -1.13056 l -0.603,0.52773 v 1.20591 l -2.33656,2.33649 v 0.52772 h -2.26113 l -0.603,-0.52772 -1.206,1.13056 -0.52772,-0.603 -1.206,0.603 h -0.52772 v 0.603 l -1.206,0.52772 h -1.13056 l -0.603,0.603 -0.52773,-0.603 h -1.20591 l -0.52773,0.603 h -1.20592 l -0.52772,-0.603 0.52772,-0.52772 v -2.9394 h 0.603 l 0.603,-1.13057 v -0.60299 h -2.33656 v -0.603 h -1.13056 l -0.603,-0.52773 h -1.13057 l -1.20599,-1.20592 h -0.603 l -0.52773,0.603 h -0.603 l -1.13056,1.13057 h -1.73356 l -0.603,0.603 h -0.603 v 0.60299 l -0.52772,1.13057 h -0.603 l -0.603,0.603 h -0.52773 l -1.73364,1.73356 h -2.33648 l -1.13064,1.13056 h -0.603 l -1.20592,1.20592 v 0.52772 l -1.13056,1.206 h -0.603 l -1.13065,1.13057 v 2.33648 l -0.60299,0.52772 v 2.93948 l 0.60299,0.52773 v 1.80891 h -0.60299 l -0.52773,0.52773 -0.603,1.20592 h -0.603 l -1.13064,1.13056 h -1.13056 l -1.206,-0.603 h -3.99469 l -1.206,-1.13056 h -1.13056 l -1.73356,-1.73349 h -0.602995 l -0.603,-0.60299 h -3.99477 v 1.20591 h 0.52772 l 0.603,0.52773 v 1.20592 l 0.603,0.52772 h 0.52773 v 0.603 l 0.603,0.603 v 0.52772 l 0.603,0.603 v 1.13056 l -0.603,1.206 v 0.52773 l -1.13065,1.20591 h -0.603 v 0.52773 0.603 h -1.13064 l -0.603,0.602996 v 1.13056 l -1.13056,1.13056 h -0.603 v 1.20592 l -0.603,0.603 v 0.52772 h -1.73364 l -0.52773,-0.52772 h -2.93956 l -0.603,-0.603 h -0.52772 v -0.603 h -0.603 l -1.13056,-1.13056 h -0.603 l -0.603,0.52772 -0.52772,0.603 h -0.603 v 0.603 h -0.603 v -0.603 l -0.52773,-0.603 -0.603,-0.52772 h -2.8642 l -0.603,0.52772 0.603,0.603 v 1.73356 l -0.603,0.603 v 0.603 l 0.603,0.52773 v 1.73348 l 0.52772,0.603 v 0.603 h -0.52772 l -0.603,0.52772 v 1.20592 h 0.603 v 1.13056 l -0.603,0.603 v 0.52773 l -0.603,0.60299 v 0.603 h -0.52772 v 2.26113 l -0.603,0.603 h -0.603 v 0.603 h -0.603 l -0.52773,0.603 h -1.20591 l -0.52773,0.52772 h -0.603 v 0.603 l -0.603,0.603 -0.52772,-0.603 h -1.20592 v -0.603 h -2.2612 v 1.20592 h -0.603 l -0.603,0.52772 v -0.52772 l -0.52773,0.52772 h -0.603 v 1.20592 h -0.60299 l -1.13057,1.13057 h -0.603 l -0.52772,-0.603 v 0.603 h -0.603 l -0.603,0.60299 h -1.73356 v 0.52773 h -0.603 l -0.52772,0.603 h -2.33657 v 0.603 h -2.33656 l -0.52772,0.52772 v 0.603 l 0.52772,0.603 v 0.52772 l 0.603,0.603 v 1.73348 l -0.603,0.603 v 0.52773 l -1.13056,1.206 v 1.13056 h -0.603 v 0.603 h -1.13064 v 0.603 h -1.13057 v 1.13056 l -1.20591,1.13056 h -0.52773 l -1.206,1.20592 v 0.52773 l -0.603,0.60299 v 4.59761 l -0.52772,0.603 v 0.603 l -0.603,0.52772 h -0.603 v 0.603 h -1.73364 l -0.52772,0.603 h -0.603 l -0.603,-0.603 h -0.52773 l -0.603,0.603 h -0.60299 v 0.603 h -1.73357 l -0.52772,0.52773 v 0.60299 h -0.603 v 0.603 h -2.86421 l -0.60299,0.52773 h -0.603 v 0.603 l -0.603,0.603 h -1.13057 l -1.73356,1.73348 v 0.52772 h -0.603 v 0.603 l -0.52772,0.603 v 1.13056 l -1.20592,1.13057 h -0.52772 v 0.603 h -1.20592 v 1.13056 l -1.13064,1.20592 v 0.52772 l -0.603,0.603 v 0.603 l -1.13057,1.13056 v 0.603 h -0.603 v 0.603 h -0.52772 v 0.52773 l -1.206,1.20591 h -0.52772 v 0.52773 h -0.603 l -0.603,0.603 h -0.603 l -0.52772,0.603 h -0.603 v 0.52772 h -1.13057 v 0.603 l -1.20599,1.13056 v 0.603 h -0.52773 v 1.13056 l -1.206,1.20592 v 0.52773 h -0.52772 v 0.603 l -1.20592,1.13064 v 0.603 h -0.52772 v 0.603 h -0.603 v 0.603 l -1.13065,1.13056 v 0.603 h -0.60299 v 1.13056 l -0.603,0.603 v 0.52772 l -0.52773,0.603 v 0.603 h -0.603 v 1.13057 l -0.603,0.60299 v 0.52773 l -0.52772,0.603 v 1.13056 l -0.603,0.603 v 0.603 h -0.603 v 1.13056 l -0.603,0.603 v 1.13048 l -0.52772,0.603 v 2.33649 h 3.46712 l 0.603,0.52772 h 1.73356 l 0.52773,0.603 v 0.603 l 0.603,0.52772 v 0.603 h 1.13056 l 0.603,-0.603 h 1.73356 l 1.13056,1.20592 v 1.73356 l 1.206,1.13057 v 0.60299 h 0.52773 v 1.13057 l 0.603,0.603 v 2.26112 l 0.603,0.603 v 2.33648 h -0.603 v 0.603 l -1.13057,1.13065 v 1.13056 h -0.603 v 3.46704 l 1.13057,1.20592 h 0.603 v 0.52772 h 0.603 l 0.52772,0.603 v 1.13057 l 0.603,0.603 v 0.603 l 0.603,0.52772 v 0.603 h 4.59769 l 0.60299,0.603 v 0.603 l 0.603,0.52772 v 1.73348 l 1.13057,1.206 h 0.603 v 0.52773 h 0.52772 l 1.20592,1.20591 v 1.13057 l -1.73356,1.73356 h -0.603 l -1.13057,1.13056 -0.603,0.603 v 0.603 l -0.60299,0.52772 v 1.206 h 0.60299 v 1.13049 l 0.603,0.60299 v 1.13057 l 0.52773,0.603 v 1.73348 h 0.603 l 1.13064,1.13056 h 0.603 v 0.603 l 0.603,0.603 v 0.52772 l 0.52772,0.603 h 1.73356 l 1.20592,-1.13064 h 0.52773 l 0.603,-0.603 v -0.603 h 1.20591 l 0.52773,-0.52772 h 1.20592 l 0.52772,0.52772 h 1.206 l 0.52772,-0.52772 h 1.206 l 0.52773,0.52772 1.20599,-1.13056 v -0.603 h 1.73357 l 1.13056,-1.13056 h 1.13064 l 0.603,0.603 h 1.13064 l 0.603,-0.603 h 0.603 v -0.603 l 0.603,-0.52773 h 0.52773 l 0.60299,-0.603 -0.60299,-0.60299 0.60299,-0.603 h 0.603 v -0.52773 l -0.603,-0.603 1.13065,-1.13056 -0.52773,-0.603 0.52773,-0.603 v -1.13056 l 0.603,-0.603 h 0.603 l -0.603,-0.52772 v -1.206 h 0.603 v -0.52773 l 0.52772,-0.603 v -1.73348 h -0.52772 l -0.603,-0.603 v -1.13056 l -0.603,-0.603 v -2.33648 l -0.52773,-0.52773 0.52773,-0.60299 v -1.73357 l 0.603,-0.603 -0.603,-0.52772 v -1.20592 l 0.603,-0.52772 h 1.13064 l 0.603,-0.603 v -0.603 h 0.603 l 0.52772,-0.52772 h 1.73356 l 0.603,-0.603 0.603,0.603 h 0.52773 l 0.603,0.52772 h 1.13056 v 0.603 l 0.603,0.603 v 1.13056 h 2.33656 l 0.603,0.603 h 0.52772 l 0.603,0.52772 h 4.07013 l 0.52772,0.603 1.206,-1.13056 h 0.52772 l 0.603,0.52772 h 1.13064 l 0.603,-0.52772 v -0.603 h 0.603 l 0.52773,-0.603 h 0.603 l 0.60299,-0.52772 h 0.52773 l 0.603,0.52772 h 1.20592 l 0.52772,-0.52772 h 0.603 l 0.603,-0.603 h 1.13064 l 0.603,0.603 v 1.13056 l -0.603,0.603 v 1.73348 h 0.603 v 0.52773 l -0.603,0.603 v 0.60299 l 0.603,0.52773 v 0.603 l 0.52772,0.603 v 0.603 l 0.603,0.52772 v 2.93948 l 0.603,0.52772 v 1.20592 l -0.603,0.52773 0.603,0.603 1.13057,0.603 h 0.603 v 0.52772 h 0.52772 l 0.603,0.603 v 1.73348 l 0.603,0.603 -0.603,0.52772 h -1.13056 l -0.603,-0.52772 -0.603,0.52772 0.603,0.603 v 0.603 l 0.603,0.52773 v 1.20591 l 0.52772,0.603 v 0.52773 h -0.52772 v 0.603 l 1.13056,1.13056 -0.603,0.603 0.603,0.603 v 0.52772 l -0.603,0.603 v 0.603 l 0.603,0.52772 v 0.603 l -0.603,0.603 0.603,0.52773 v 2.33656 h 0.603 l 0.52772,0.603 v 0.52772 h 2.33656 l 1.13065,-1.13056 -0.52773,-0.603 0.52773,-0.52772 v -0.603 l 0.603,-0.603 -0.603,-0.52773 v -0.603 l 0.603,-0.603 v -1.73356 l 0.60299,-0.52772 v -1.20592 l 0.603,-0.52772 v -1.20592 l -0.603,-0.52773 0.603,-0.603 v -0.60299 l 1.13057,-1.13049 h 1.73356 l 0.603,0.52773 0.52772,0.603 h 0.603 v 0.60299 h 1.13064 l 0.603,0.603 h 3.46713 l 0.602995,0.52773 v 0.603 h 0.52772 l 0.603,0.603 v 0.52772 h 1.13056 v 0.603 l 0.603,0.603 v 0.52772 h 0.603 l 0.603,0.603 v 1.13057 l 0.52772,0.60299 h 1.206 v 1.13049 l 0.52773,0.603 h 0.603 v 0.603 l 0.603,0.52772 v 1.73356 l 0.52772,0.603 h 0.603 l 0.603,0.603 h 1.13056 l 0.603,0.52772 h 5.20069 l 0.52772,0.603 0.603,-0.603 h 0.603 v -0.52772 l 0.603,0.52772 0.52772,-0.52772 h 1.73356 l 1.20592,1.13056 0.52773,-0.603 h 1.73356 l 0.603,0.603 0.603,-0.603 h 0.52772 l 0.603,0.603 h 2.33656 l 0.52773,-0.603 h 0.60299 v 0.603 h 0.603 l 0.52773,0.603 h 0.603 l 0.603,-0.603 h 1.73356 l 0.603,-0.603 h 2.8642 l 1.13057,-1.13056 v -0.603 h 0.603 v -1.73356 l 1.13056,-1.13056 v -3.46705 l -0.52773,-0.603 v -2.26112 l 0.52773,-0.603 v -2.93948 l 0.603,-0.52773 v -0.603 l 0.603,-0.60299 v -0.52773 l 0.52772,-0.603 v -1.73348 l -0.52772,-0.603 v -1.13056 h 0.52772 l 0.603,-0.603 v -0.52773 l 0.603,-0.60299 -0.603,-0.603 v -1.73357 l -0.603,-0.52772 v -1.73356 l 0.603,-0.603 -0.603,-0.603 h -2.26121 l -0.60299,0.603 -2.86421,-2.93948 h -0.603 l -1.13056,-1.13057 h -0.603 v -0.60299 l 1.73356,-1.73349 h 0.603 l 0.52772,-0.52772 h 0.603 l 0.603,-0.603 h 2.86421 l 0.603,-0.603 v -0.52772 h 0.52772 v -0.603 l 0.603,-0.603 v -2.26121 l 0.603,-0.603 v -0.603 h 1.13056 l 0.60301,-0.52772 h 0.52773 l 0.60299,-0.603 h 1.206 v -0.603 h 2.86413 l 1.13056,-0.603 h 0.603 v -0.52772 l -0.603,-0.603 h -0.52772 l -0.603,-0.603 v -2.26113 l -0.603,-0.60299 v -0.603 l -0.52774,-0.52773 v -0.603 l 0.52774,-0.603 v -0.52772 l 0.603,-0.603 h 0.603 v -0.603 l -0.603,-0.52772 v -0.603 l -0.603,-0.603 v -2.86413 h 0.603 v -0.603 l 0.603,-0.60299 h 1.13056 l 0.603,0.60299 h 0.52772 l 0.603,0.603 h 3.46713 l 1.13064,1.13057 0.603,-0.52773 h 1.73356 l 0.603,-0.603 h 0.603 l 0.52772,-0.603 h 0.603 l 0.603,-0.60299 h 0.52773 l 2.33656,-2.26113 h 0.603 l 0.52772,0.52772 h 1.73356 l 0.603,-0.52772 h 1.73356 l 1.13057,-1.20592 v -0.52772 l 0.603,-0.603 v -1.13057 l 0.603,-0.60299 0.52772,-1.13057 v -0.603 l -0.52772,-0.603 v -1.13056 l -0.603,-0.603 h -1.13057 l 0.52773,-0.52772 v -3.5424 -0.52773 l 0.603,-0.60299 h 0.603 l 0.52772,-0.603 h 1.80892 l 0.52772,-0.52773 v -0.603 h -2.86412 l -0.603,-0.603 v -0.52772 l 0.603,-0.603 v -2.33648 l 0.52772,-0.52772 h -1.73364 l -0.52773,0.52772 h -0.603 l -0.60299,-0.52772 v -1.73357 l -0.52773,-1.20591 0.52773,-0.52773 h 0.60299 l 0.603,-0.603 h 1.73357 l 0.52772,-0.603 -0.52772,-0.52772 v -4.07004 h -0.603 l -0.603,-0.603 v -0.603 l 0.603,-0.52773 v -2.93948 h 1.13064 l 0.603,0.603 v -1.73348 h -2.33656 l -0.52773,-0.603 1.73357,-1.73348 v -0.52773 l 0.52772,-0.60299 0.603,0.60299 h 1.206 v 0.52773 l 1.13056,-1.13056 h 2.86421 l 0.60299,-0.603 h 0.603 l 1.13065,-1.13057 0.603,0.603 h 1.13064 l 0.603,-0.603 h 1.73356 l 1.13056,-1.20591 h 0.603 l 0.52773,0.60299 0.603,-0.60299 1.20599,1.20591 h 1.73357 l 0.52772,0.603 0.603,-0.603 h 1.13056 v -0.603 l 1.206,-0.603 h 1.13056 l 0.603,-0.52772 h 2.26121 l 0.603,-0.603 h 0.603 v 0.603 l -0.603,0.52772 v 1.20592 h 4.07012 l 0.603,-0.603 v -1.13056 l -0.603,-1.20592 0.603,-0.52772 -1.80892,-1.73356 v -5.80353 l -0.52772,-0.603 v -0.52772 l -1.73364,-1.73356 v -1.80892 l 0.52772,-0.52773 v -0.603 l 0.603,-1.13056 h 0.603 v -1.73348 l -0.603,-0.603 0.603,-0.603 v -0.52772 l 0.52772,-0.603 v -1.13056 l -0.52772,-0.603 v -2.86413 l -0.603,-0.603 v -3.46704 l -2.33656,-2.33648 0.603,-0.603 h 1.13056 l 0.603,-0.52773 -1.13064,-0.603 h -1.73356 l -0.603,-0.603 0.603,-0.52772 v -4.67296 l -0.603,-0.52773 h -1.13057 v -1.20591 h -0.603 v -0.52773 l 1.73357,-1.80892 h 0.603 l 1.13064,-1.13056 h 2.33656 l 0.52772,0.603 h 1.80892 l 0.52773,-0.603 h 1.20599 l 0.52773,0.603 1.20592,-0.603 v -1.13441 l 0.52772,-0.602986 v -4.07005 l -0.52772,-1.13056 v -1.13056 l 0.52772,-0.603 v -4.07005 l -0.52772,-0.603 v -1.13056 l -0.603,-0.603 v -1.13056 l -0.603,-0.603 v -2.26113 l -0.52773,-0.603 v -2.33656 l -0.603,-0.52772 v -1.20592 l 1.13057,-1.13056 v -2.93948 h -4.07013 l -0.52772,0.603 h -0.603 l -1.13064,-1.13057 h -2.33656 v 1.13057 l -0.603,0.603 v 0.60299 l -0.52773,0.52773 h -0.603 l -0.603,-0.52773 -1.13064,0.52773 h -0.603 l -0.52772,-0.52773 -0.603,0.52773 h -0.603 l -2.26113,2.33648 -0.603,-0.603 -0.60299,0.603 h -0.603 l -0.52773,0.603 h -1.206 l -0.52772,0.52772 -0.603,-0.52772 -0.603,0.52772 H 185.199 l -0.603,-0.52772 h -1.73356 l -1.13065,-1.20592 v -0.52772 l -1.20592,-1.20592 v -0.52773 h -0.52772 l -2.33656,-2.33648 v -0.603 l -1.73356,-1.73348 h -0.603 l -0.603,-0.603 h -0.52774 l -1.73356,-1.73356 h -0.603 l -0.603,-0.52772 h -1.13064 v -2.33648 l 0.603,-0.603 v -0.52773 l 1.73356,-1.73356 v -1.20592 l 0.52773,-0.52772 v -2.33648 l 0.603,-0.603 v -0.603 l 1.13065,-1.13056 v -1.13057 l 0.603,-0.603 v -0.603 l -1.13056,-1.13056 h -0.603 l -2.86413,-2.86412 z"
       style="fill:#000000;fill-opacity:1;fill-rule:evenodd;stroke:#d38d5f;stroke-width:1.05939;stroke-linecap:butt;stroke-linejoin:miter;stroke-miterlimit:4;stroke-dasharray:none;stroke-opacity:1"
       id="Lumaco" />
  </g>
</svg>
