<?xml version="1.0" encoding="UTF-8" standalone="no"?>
<!-- Created with Inkscape (http://www.inkscape.org/) -->

<svg
   width="210mm"
   height="297mm"
   viewBox="0 0 210 297"
   version="1.1"
   id="svg1283"
   inkscape:version="1.1.2 (b8e25be833, 2022-02-05)"
   sodipodi:docname="vector.svg"
   xmlns:inkscape="http://www.inkscape.org/namespaces/inkscape"
   xmlns:sodipodi="http://sodipodi.sourceforge.net/DTD/sodipodi-0.dtd"
   xmlns="http://www.w3.org/2000/svg"
   xmlns:svg="http://www.w3.org/2000/svg">
  <sodipodi:namedview
     id="namedview1285"
     pagecolor="#ffffff"
     bordercolor="#666666"
     borderopacity="1.0"
     inkscape:pageshadow="2"
     inkscape:pageopacity="0.0"
     inkscape:pagecheckerboard="0"
     inkscape:document-units="mm"
     showgrid="false"
     inkscape:zoom="0.52347032"
     inkscape:cx="155.69173"
     inkscape:cy="458.47872"
     inkscape:window-width="1920"
     inkscape:window-height="1017"
     inkscape:window-x="-8"
     inkscape:window-y="-8"
     inkscape:window-maximized="1"
     inkscape:current-layer="layer1" />
  <defs
     id="defs1280" />
  <g
     inkscape:label="Capa 1"
     inkscape:groupmode="layer"
     id="layer1">
    <path
       d="m 104.02647,3.9133761 c -1.16343,1.060212 -1.86548,3.054887 -3.6824,3.634597 -2.512246,1.024819 -4.317746,1.727281 -6.217036,2.5824779 -1.82547,1.014944 -3.59393,-0.1324339 -5.54751,0.382744 -1.81845,0.325601 -3.15476,0.616968 -4.73452,1.817306 -1.35176,2.422246 5.09328,4.739553 -0.29995,3.299786 -1.831761,-1.977317 -3.734452,-0.661311 -4.147615,1.734669 -1.874427,2.316341 -2.006108,3.586665 -3.634581,5.630157 -2.827713,0.938799 -3.898082,1.388755 -2.582461,4.951846 1.039274,2.221801 4.650557,1.909181 4.782344,-0.169663 2.874821,-1.759886 -0.234876,1.378604 1.434698,2.582491 0.668453,2.51093 2.048723,3.936488 2.582461,5.834455 0.752704,2.197081 1.097344,3.909476 2.965064,4.782321 1.879,0.916289 2.72532,2.855933 5.28662,2.582477 3.02886,1.141468 -1.11309,4.504998 2.03035,6.599613 0.60788,2.148969 2.7754,4.975502 3.2998,5.882263 1.77697,1.342811 3.51636,3.094535 4.447596,4.699736 1.19383,1.42285 2.93589,3.56252 5.03448,3.76502 0.99137,2.24819 5.80359,0.7207 6.68225,3.29983 2.00593,1.02389 6.02596,-1.06653 2.96505,1.81729 -0.97629,1.71165 4.63019,4.20717 4.01715,0.46519 -0.12608,-3.14075 2.90611,-1.4113 1.48252,1.43898 1.14338,3.19342 -0.39315,2.97338 -2.58245,1.77822 -1.84313,-0.85387 -3.01941,2.33508 -5.49968,1.09991 -1.41479,-1.2503 -3.36653,-2.38795 -2.58246,-4.06495 -2.5806,-2.07146 -4.03008,1.88697 -5.88229,-1.05212 0.42878,-1.22622 -2.66298,-1.79488 -3.63457,-2.58248 -2.428906,-0.26226 -2.309956,-1.99796 -4.317126,-2.19987 -3.04,1.48182 -3.55621,-1.80694 -5.71061,-1.04839 -2.41668,0.22016 -4.52281,0.58948 -6.18439,-0.43415 -1.02085,0.19669 -2.638984,-1.87891 -4.399765,-1.48252 0.453893,0.97689 -2.652624,1.44053 -2.199865,2.58248 -1.121828,2.80133 -0.943442,4.51497 -1.09994,7.69957 -1.418009,2.0889 -0.317892,3.66108 -1.434702,5.54749 -0.607319,1.3397 -1.139245,4.82099 -1.482535,5.88226 2.197352,0.71988 1.433163,4.40129 2.917237,5.83447 0.381774,2.89365 0.238952,2.58763 -2.369412,3.29983 -1.420801,2.28847 0.879443,3.66734 2.034636,5.16493 1.530123,2.43749 -1.202616,-3.2915 1.09994,-4.31716 0.741671,-2.32808 2.044188,0.19845 3.682406,-0.0829 -2.41458,2.14692 0.949728,3.09082 -0.765168,4.78231 1.420787,1.31516 -3.988711,2.699258 -4.017178,1.09995 -1.684103,-1.6898 -1.018782,6.546408 0.334772,6.134428 1.829295,1.47305 -3.68906,4.19037 -0.547811,4.14762 -1.466452,-0.2751 -1.238798,2.4856 0.213035,4.78236 2.066674,2.51856 0.264955,4.36987 1.09994,7.10391 1.200591,1.31721 4.145498,2.02152 5.117102,3.89543 -1.009208,2.6089 1.373848,3.93305 2.965058,5.11714 3.41622,-1.51013 3.72601,1.11904 5.4997,2.24766 1.40555,0.44255 3.68108,2.61287 3.2998,4.01716 -1.8804,2.20156 0.63503,4.2225 -1.48254,4.06502 0.92418,1.2974 0.32574,6.83235 -1.43469,2.99983 -1.7259,2.31239 -0.85858,-3.87918 -3.34763,-2.28248 -0.95811,2.45374 -1.87016,-1.59771 -4.39976,-1.48254 -1.539615,2.86463 0.80095,5.59641 0.76518,6.59961 0.89571,0.39603 3.69136,-1.35591 2.19989,1.86515 -1.81757,2.64906 1.09092,1.13229 2.53464,3.29978 -0.73336,2.03051 3.09703,2.93613 2.24768,6.13441 0.0663,2.18414 1.43656,4.14294 2.53464,5.63016 0.49149,1.76972 0.98029,3.71274 2.96505,4.39974 2.44707,2.57824 1.23284,2.79614 -0.3826,0.38275 -1.36985,-2.15291 -3.38809,-1.10624 -4.39976,-2.58248 -1.88511,-1.32487 -3.93919,-2.54196 -4.39975,-4.95189 -0.97864,-2.317 -1.53354,-4.06068 -4.06499,-4.2302 -2.025276,0.8754 -3.580477,-0.90013 -5.499683,0.33489 -2.36252,0.59539 -2.408671,3.10075 -2.199882,6.26489 -0.642415,2.22791 -2.9013,2.46801 -2.917221,5.03447 -0.842023,1.90802 -0.270049,4.26068 -1.86512,5.96488 -1.634997,1.66384 -0.299376,3.09848 0.382615,5.41708 2.255412,1.2771 1.373567,5.31531 2.582461,6.73007 0.02879,2.70727 1.249269,5.18644 2.199866,6.59964 0.831417,2.25418 -1.273682,4.13806 -3.299804,4.78232 -1.470598,1.30993 -4.125879,-0.42883 -5.882284,1.48252 0.556202,-0.0478 4.159675,-0.75176 4.782331,2.19987 -2.252896,-1.2449 -2.877426,-2.17342 -5.547494,-1.48253 -1.14676,1.30077 -3.080633,3.14057 -4.399762,4.01717 -0.817113,1.87897 -3.483952,2.71937 -4.017164,4.44758 -1.266336,1.48639 -4.092242,1.48581 -4.78234,3.55193 -0.241875,2.87752 -0.262164,5.64483 1.09994,7.83003 1.417579,3.25922 0.615762,4.93993 0,8.12126 -0.778812,1.75611 -4.082116,2.33033 -3.682402,4.36066 0.414998,2.9912 -0.438388,4.87237 1.482524,6.98223 1.474961,1.05012 2.236114,2.64002 2.917233,4.78231 1.815938,2.22206 0.651898,4.63722 2.199883,6.21703 2.069088,-0.82521 3.181857,2.65611 3.682387,4.39979 -0.06954,2.42712 1.803105,6.50862 3.682402,5.16492 2.793416,-1.9055 3.892638,1.85124 4.399761,1.48253 1.879584,-1.08901 2.369735,0.9656 4.399743,0 2.619908,2.68778 1.170442,-3.83217 3.682393,-3.6824 2.100975,-3.22061 -0.460206,3.02106 1.482536,4.01717 2.070456,-0.17366 -0.665725,4.79737 -1.099944,4.39974 -1.405893,0.0965 0.443793,-4.23582 -1.482522,-3.6346 -0.585911,1.56089 -1.718959,4.89639 -3.682402,4.01716 -2.837326,1.54358 1.051374,2.98345 -2.582463,2.19987 1.786454,2.19576 -1.392196,4.57314 -1.099938,6.98224 -0.863983,1.46789 -2.243691,3.25175 -4.399761,3.68239 -1.449666,1.13495 -3.246158,1.93212 -4.782328,3.29983 -2.219201,2.01885 -0.356921,6.04179 0.382615,1.48252 1.547803,-2.19596 3.136423,-0.28219 5.164925,-1.86514 2.340631,-0.81746 5.058246,1.05916 4.399733,-2.91721 2.063454,-0.94597 4.950148,-1.15577 5.117104,1.48252 2.024674,0.55003 1.214865,3.95131 3.29983,4.73451 1.235988,0.27643 5.514482,1.58491 5.164922,-1.60421 2.19756,-1.14634 0.36441,-2.97601 1.48253,-5.71274 -0.78356,-1.76714 1.83087,-4.62544 1.09994,-6.59965 0.19651,-2.25816 0.63738,-4.93793 3.63458,-4.44758 2.88243,1.51145 -0.56122,6.09415 2.96504,6.98222 3.19416,0.90074 -0.30164,3.38356 0,6.05185 0.88452,2.43492 -2.66608,3.17934 -1.81729,5.33011 2.20397,0.94097 4.28269,0.80865 3.63457,3.68241 1.10387,1.5818 3.0663,1.75062 5.16493,0.76519 1.657596,-0.74974 3.809976,-0.57861 5.499696,-0.38276 0.41204,1.48089 5.25676,2.58931 4.39974,-0.38275 -0.88574,-2.09425 3.09517,-1.14651 4.78235,-2.19987 2.0147,0.46896 4.10712,0.9761 4.78235,2.58249 2.04207,0.62187 3.97094,1.73109 6.21702,2.19987 0.99412,1.27923 4.20653,2.95788 4.78235,0.38275 0.68407,-2.57872 2.02319,-3.45719 1.09993,-5.88227 1.38353,-1.40926 -0.6723,-4.41139 3.29983,-4.06501 1.37881,-1.85053 3.97588,-1.02882 4.44757,-2.8346 1.23927,-1.35671 0.16985,-4.34228 2.19987,-5.58232 2.60582,0.98834 3.47554,-1.28613 5.49969,-1.48252 0.1113,-2.15761 5.22827,-2.87437 5.1171,0.38275 1.69219,-0.51224 3.07199,-3.00519 4.44758,-3.6824 3.65132,1.13124 2.21129,-3.48132 5.11711,-3.29982 1.96831,-0.7429 3.10866,-4.01694 0.71733,-4.78235 -0.73042,-1.31597 -3.68805,-3.0907 -1.43468,-4.6997 0.0758,-2.15198 4.006,-1.66287 5.11709,-2.99987 0.35869,-2.23637 2.14926,-6.1256 0.38258,-6.98218 -2.7998,1.4649 -2.56935,-3.13366 -4.06499,-3.68245 -0.23386,-2.86391 -4.74027,-2.53658 -3.63458,-5.16491 -1.37143,-1.69419 3.40203,-3.02774 0,-5.49966 -2.91134,1.74404 -2.91135,-1.73605 -4.06499,-4.01721 -3.79531,-0.88644 0.27479,-5.35803 -2.19988,-7.36479 -1.39704,-3.39844 3.68892,-2.54045 4.78235,-1.09991 1.81032,2.55121 3.76873,2.75414 5.05076,-0.9578 1.86311,-3.79949 4.99587,-6.92761 4.84868,-11.14156 1.70337,-2.07786 1.75871,-5.26872 -0.33477,-7.74736 -2.76431,-2.09373 -1.30536,-5.34562 -3.34765,-7.31699 -1.8456,0.0221 -4.30587,-3.14722 -1.81728,-4.06497 2.37004,0.15018 3.35385,-3.24463 5.16493,-2.19987 0.43165,-2.69287 2.82768,-3.79208 2.19985,-7.19083 0.0355,-3.2678 -0.9346,-5.58475 1.09995,-7.49096 -0.64166,-1.76219 -1.71527,-4.37218 -2.96505,-5.4997 -2.85223,-1.86061 0.95703,-3.84475 1.09995,-6.13441 -0.63,-2.26406 -4.89618,0.0265 -5.11711,-2.96506 -1.93333,-0.78171 -2.45542,-3.16453 -4.06498,-4.86497 -0.3855,-2.38783 -1.97837,-5.35403 1.48252,-5.49965 2.53316,-0.93813 -0.28152,-3.66185 -1.8173,-4.06502 2.05355,-1.79447 2.26239,-2.22958 1.8173,-5.49969 2.30508,-0.98216 3.26127,-1.87285 4.06498,-3.6824 0.19717,-1.84688 -3.00005,-2.57318 -2.96504,-4.65189 -1.40088,-3.0731 3.21875,-0.51649 4.39974,-0.46518 1.37286,1.30266 5.08331,-2.68898 2.68119,-4.96748 -0.52282,-1.95574 -1.17003,-5.47622 -3.01595,-6.79711 -1.4605,-4.4544 1.14044,-4.56138 2.19987,-7.69955 3.11878,-2.90097 -2.50535,-6.50043 0.43413,-8.545208 1.13215,-2.30752 -0.62569,-6.42338 -4.11652,-5.80181 -3.96659,-1.61281 1.695,-5.38314 -0.89764,-7.11468 1.8444,-0.75814 0.73378,-6.61512 -1.30224,-5.36724 -0.96168,2.23774 -2.67228,2.22725 -4.39976,3.6824 0.45655,3.5117 -1.85347,1.09397 -3.68239,1.09995 0.41145,-2.87783 -3.4004,-2.15087 -4.065,-4.06497 -2.03461,-2.34136 -3.81094,4.21307 -4.78232,-0.33491 -0.0693,-2.39734 -2.8722,-2.73823 -4.01716,-4.78235 -0.1916,-1.47317 -2.35014,-2.80827 -4.31714,-3.68239 -0.78276,1.73401 -3.79727,-0.69476 -3.38245,-2.45202 -1.46974,-1.39353 -0.9336,-4.57933 -0.76515,-6.34746 -1.83848,-1.12029 -1.47418,-4.668946 -1.81731,-6.899599 -0.33658,-3.235281 -3.51898,-1.028989 -3.2998,1.569439 -2.41614,-0.350859 2.20308,-4.616234 -0.38256,-4.951888 -1.17935,-1.704385 -1.09984,-3.503076 -1.81731,-6.603908 1.11527,-2.200837 -0.0591,-4.990209 0,-6.260575 -0.35289,-2.355062 -2.44126,-3.525847 -3.93453,-5.164927 -2.41619,-0.911249 -2.65925,-3.23466 -4.14762,-5.117078 1.09704,-2.700728 -1.62357,-5.398695 -1.86511,-7.616947 -0.84346,-3.03293 -0.0355,-5.660288 0.38262,-7.830027 2.04015,-3.673582 -3.61067,-2.286885 -2.58247,-6.2170479 -1.11927,-2.295999 -2.62879,-3.21969 -5.03448,-4.065012 -1.70299,-0.359711 -0.33864,-2.001884 -2.66508,-1.434686 z M 86.044884,150.82685 c -0.66901,1.39588 1.01591,0.24985 0,0 z M 76.480187,98.651512 c -0.197487,1.175 1.175018,-0.19759 0,0 z M 47.833993,80.287322 c -1.981154,1.43123 -4.148077,2.69266 -1.482531,4.78236 1.948035,1.0378 3.604026,2.32435 5.499695,0 -2.273473,1.17734 0.113846,4.88233 1.099938,4.48239 -0.247678,-2.94383 0.404057,-4.45241 0,-6.34749 0.567211,-2.68827 -1.136264,-2.25778 -3.551951,-2.53464 -1.316737,0.56526 -0.30013,-0.90473 -1.565151,-0.38275 z m -5.164925,10.28204 c -1.236226,2.32746 0.394577,4.0799 1.865094,5.16493 0.494897,-2.15335 0.800851,-4.53427 -1.865094,-5.16493 z m 0,6.59962 c -2.962542,1.56217 -0.427579,4.439558 0.382571,1.09995 0.985226,0.32163 0.246881,-1.53723 -0.382571,-1.09995 z m 7.747391,0.38274 c -1.601918,2.643748 1.198878,4.874198 1.482523,7.151758 1.140881,-2.15052 1.798025,1.32265 3.299805,2.03034 0.312443,1.51983 1.60168,4.21243 3.29983,4.78235 0.690076,2.28152 1.215273,3.15611 3.299809,4.78231 2.2656,2.87978 2.43191,-5.37416 1.099926,-0.76519 -2.005005,1.28186 0.745609,-3.24543 -1.482523,-4.01712 -1.273456,-1.26825 -4.481591,-4.9767 -0.717342,-4.06501 1.259798,2.28811 2.1837,3.84985 2.917206,5.88226 3.871105,0.66113 1.655907,-2.4036 1.482537,-5.11712 -0.947124,-1.89287 -1.843547,-3.96166 -0.717341,-5.88226 -2.009232,-1.40603 -4.332364,-0.90411 -3.682402,2.19991 -2.669028,2.86069 -4.045578,-1.41219 -4.782332,-3.29982 -0.244223,-2.553118 -2.702483,-3.904378 -5.499696,-3.682408 z m -6.264867,3.682408 c 0.285156,2.70731 1.323182,4.36318 1.865106,6.13441 1.330705,2.7424 1.803637,-2.96851 1.434702,-3.21721 0.797569,-3.09525 -2.671995,-1.15555 -3.299808,-2.9172 z m -1.099939,2.19987 c -2.218732,1.75332 -0.05839,3.98376 1.482509,4.7823 1.108055,1.88335 0.50575,-3.53028 -1.099926,-4.06497 -0.632061,0.26535 -0.363167,-0.37034 -0.38257,-0.71733 z M 163.184,112.99869 c 0.61066,2.92581 -1.16908,1.80419 0,0 z m -69.056966,27.16367 c 4.68493,0.64837 2.28894,1.70274 0,0 z m -3.68239,1.8173 c 0.26398,2.52038 3.71367,2.17209 1.03368,0.3163 -0.18383,-0.4935 -0.65081,-0.30345 -1.03368,-0.3163 z M 64.380889,262.112 c -4.435733,1.08161 1.206567,3.00413 0.717341,0.33491 L 64.715659,262.112 Z m -4.447584,4.73451 c -3.173081,1.11892 2.866205,7.49965 0.248344,2.36183 -0.584453,-0.61541 0.911515,-1.73016 -0.248344,-2.36183 z"
       style="fill:#000000;fill-opacity:1;stroke:#d39062;stroke-width:0.586047;stroke-miterlimit:4;stroke-dasharray:none;stroke-opacity:1"
       id="Chaiten" />
  </g>
</svg>
