<?xml version="1.0" encoding="UTF-8" standalone="no"?>
<!-- Created with Inkscape (http://www.inkscape.org/) -->

<svg
   width="210mm"
   height="297mm"
   viewBox="0 0 210 297"
   version="1.1"
   id="svg1283"
   inkscape:version="1.1.2 (b8e25be833, 2022-02-05)"
   sodipodi:docname="vector.svg"
   xmlns:inkscape="http://www.inkscape.org/namespaces/inkscape"
   xmlns:sodipodi="http://sodipodi.sourceforge.net/DTD/sodipodi-0.dtd"
   xmlns="http://www.w3.org/2000/svg"
   xmlns:svg="http://www.w3.org/2000/svg">
  <sodipodi:namedview
     id="namedview1285"
     pagecolor="#ffffff"
     bordercolor="#666666"
     borderopacity="1.0"
     inkscape:pageshadow="2"
     inkscape:pageopacity="0.0"
     inkscape:pagecheckerboard="0"
     inkscape:document-units="mm"
     showgrid="false"
     inkscape:zoom="0.52347032"
     inkscape:cx="155.69173"
     inkscape:cy="458.47872"
     inkscape:window-width="1920"
     inkscape:window-height="1017"
     inkscape:window-x="-8"
     inkscape:window-y="-8"
     inkscape:window-maximized="1"
     inkscape:current-layer="layer1" />
  <defs
     id="defs1280" />
  <g
     inkscape:label="Capa 1"
     inkscape:groupmode="layer"
     id="layer1">
    <path
       d="m 118.42188,57.523604 c -0.63497,2.648704 2.17557,7.886327 -1.3235,8.213074 -2.51854,-0.08595 -2.59105,-2.700007 -3.92541,-2.117559 -2.36525,-0.550917 -4.2896,0.380816 -6.88565,1.241661 -2.32955,0.848596 -4.01915,-0.111777 -6.03907,0.451553 -1.057816,0.763445 -3.494396,-4.516531 -3.104216,-0.863674 -0.10607,3.692072 -0.92594,4.007343 -0.8466,7.444368 -0.39921,2.427251 -0.77735,5.908259 -4.28941,5.553887 -1.87625,1.106123 -4.7391,0.547013 -5.24893,3.21139 -2.24837,3.112625 4.72466,1.117002 3.04776,3.787167 -0.39692,1.128671 1.74942,3.208451 2.14471,5.29966 -1.30804,1.60957 -2.69207,3.01592 -4.74095,3.33564 -1.88071,1.13549 -3.37666,2.38521 -4.34588,3.04776 0.78885,-0.28321 1.8568,3.78492 2.14472,3.44284 3.0831,-1.93739 4.20385,2.277919 3.04776,4.057989 -0.86841,2.44195 -3.37695,1.44605 -4.7974,3.04776 -1.74054,0.77778 -1.19149,4.28409 -2.59623,4.63376 -1.01537,2.03477 -2.79696,2.38699 -1.29812,3.44283 -1.69161,1.08477 -2.23235,2.16304 -4.00154,0 -3.00409,-1.36806 -0.33648,4.23528 -3.33565,4.34587 1.14632,0.63758 5.28732,1.59282 1.32529,3.01671 -1.95776,3.94931 2.43011,0.26204 3.41566,2.62727 1.51983,2.1676 -0.88447,4.72731 -2.53978,4.28942 -0.8313,1.33378 -2.39903,-1.47453 -3.10421,2.20119 -1.23137,2.2363 0.11319,3.66679 -1.29812,5.46329 -0.0193,1.53235 -1.15532,3.9801 -1.29811,5.08528 -2.15229,1.1715 0.26386,4.17356 -1.29812,5.02885 -0.74669,1.20558 -4.79756,2.35015 -2.59626,4.34585 0.21279,2.07219 -1.90856,6.01827 1.29814,6.09554 1.72772,0.94332 3.83996,1.65665 4.34587,3.89434 1.46157,2.15778 2.87984,-2.54351 5.19247,-0.45155 1.8094,0.92631 2.96832,2.86545 4.28942,4.28944 0.83342,2.05187 1.54315,4.15915 3.49929,1.80609 2.01567,1.2705 2.59843,0.87114 4.34588,1.29812 2.2323,-1.27917 4.05718,-0.13896 6.03905,-0.0564 1.80916,1.08136 1.31469,3.6868 3.95081,3.49929 1.50577,-1.61752 3.900886,-1.03399 6.039076,-0.39509 2.43805,-0.511 3.7871,4.15612 3.89435,0 1.20153,-0.13463 -1.49696,-2.01718 -2.14472,-3.60648 -0.4951,-0.43205 -2.51722,-4.6706 -0.4515,-2.48903 0.93159,2.09532 1.68269,3.35754 3.89433,4.74092 1.57827,1.91644 -0.38776,6.29777 -1.69317,3.95083 -3.97021,0.79518 3.57891,1.46318 1.29811,3.44283 -0.0193,0.76272 2.41714,-0.0646 3.04776,2.59624 2.59118,1.43952 4.99673,-0.75414 2.59624,-2.14472 -0.045,-2.49502 2.14581,-3.48459 3.89435,-4.34588 1.9895,-2.67228 -2.93714,-3.08647 -2.59623,-5.19247 -2.27226,0.69589 -4.74446,-3.27373 -2.59624,-2.20116 -0.99866,1.73016 4.84227,0.43555 4.74095,2.75987 0.82082,1.9593 1.21783,2.93007 4.34588,2.03753 3.45734,0.7314 2.15367,1.99397 2.11754,3.86331 2.02657,-0.61852 2.56075,2.16007 2.22833,3.0788 2.6901,2.22472 2.24169,-0.0812 2.59624,-2.20116 2.57949,-0.66324 0.50702,-3.47228 2.59623,-4.74095 1.87046,0.6825 0.48402,-4.02178 1.29812,-1.74964 2.48588,2.78559 -3.44374,2.29467 -0.8466,3.89434 3.25785,-0.78249 4.76746,1.46299 6.88567,0.45155 2.78238,0.53993 1.84519,3.49238 1.74964,4.74095 3.13962,-0.17937 3.50348,2.29579 4.79739,2.65268 0.15204,2.64241 1.71377,3.64459 3.89436,3.44283 1.59271,0.82772 4.39394,0.82173 4.74095,-0.84659 3.19587,0.63048 -2.46587,-3.92149 1.29812,-4.34589 0.80223,-1.58552 -1.88632,-3.01589 -2.99131,-4.34586 -1.88014,1.26588 -3.77311,-0.0877 -4.34588,-0.4515 -0.36408,-2.10871 0.92205,-0.82126 2.2519,0 2.39709,-1.07891 4.3538,0.73042 5.08529,2.20115 2.09351,1.40643 -0.78178,5.24371 2.59623,5.19248 3.27303,-0.38081 0.2898,-3.11883 0.4515,-5.64401 3.35784,-1.00477 -2.65285,-4.42863 0,-5.19245 1.17015,-2.48009 -1.56965,-3.13506 -1.74963,-5.75119 -2.10625,-1.36346 -0.2899,-2.43509 -1.29812,-4.2387 0.21879,-1.42847 -2.43082,-2.48151 -4.28943,-3.04775 0.25999,1.62369 -0.20427,4.73099 0.84659,5.80763 0.93249,3.79074 -1.82099,2.39803 -1.29811,-0.27082 -1.5756,-1.78346 -0.1409,-4.15974 0,-5.5368 -0.19946,-2.7525 -3.05418,-2.09731 -4.7974,-2.59623 1.25723,-1.62646 4.23188,-1.27225 5.24892,0 1.11344,0.70692 4.58756,1.8432 4.28943,3.04776 1.50563,2.17334 3.73422,1.66466 5.19247,1.29811 2.22697,-0.9787 3.59374,0.52004 5.24892,1.74965 1.79184,-0.75018 4.35188,-1.22862 6.88567,-0.45156 1.32124,1.49287 4.46906,0.0552 5.64399,-0.95377 -0.48857,-1.59542 -0.79909,-4.3653 -0.8466,-5.5368 -1.13967,-1.56548 -3.20802,-2.85452 -1.74964,-5.01176 -1.28344,-0.971 -2.42217,-2.91371 -3.89435,-4.07506 -1.71074,-1.03356 -4.65136,-0.40858 -3.89436,-3.49929 -2.29846,-0.79643 -2.63292,-2.36708 -3.44283,-3.89434 -2.48285,-2.48155 0.98239,-4.15097 0.39509,-6.86861 0.15161,-2.8467 -2.09558,-3.98572 -2.96415,-5.68647 -0.59788,-2.13068 0.0816,-4.34877 1.48532,-4.77199 0.71676,-1.76721 -0.57339,-3.03007 2.38187,-3.04775 0.84904,-1.14605 -1.33653,-5.13658 0.84659,-5.19247 0.56221,2.10153 1.75964,3.261 2.14472,5.19247 1.07474,1.08052 -0.82651,2.92592 -0.39509,5.94844 1.31865,2.44079 4.65514,1.40085 5.136,-0.24797 1.38742,-1.31403 3.45037,-2.27754 5.91484,-1.3546 1.84286,2.02999 4.84489,-0.52363 2.77695,-1.74964 -2.09162,0.58188 -4.45128,-3.42245 -0.84659,-2.9913 1.80904,1.12036 5.00906,0.14696 6.09551,-0.4515 2.34384,1.25357 2.46921,-2.66826 4.28943,-0.45155 2.29775,1.30067 2.94681,-0.55602 1.74962,-3.15494 1.90494,-0.82661 0.85596,4.31145 2.59626,4.90457 1.46658,-0.52056 4.27927,1.66784 5.64398,2.59624 1.86093,2.58824 3.16001,-1.34541 2.17576,-3.41568 0.83771,-1.62401 -0.30898,-4.87666 -0.87764,-6.57418 -0.91597,-1.73682 -4.04236,-1.29328 -4.74097,-3.44284 -2.94999,-0.41475 -3.32858,-1.83642 -5.64398,-1.74964 -2.39155,0.28786 -2.78949,-2.94125 -5.57046,-2.59623 -2.47065,0.0972 -4.85157,1.79802 -5.266,0 0.53262,-2.61431 1.48036,-2.36449 3.89436,-2.59623 0.93514,-2.688989 4.81648,-0.768349 5.19246,1.01022 0.78303,2.89967 2.96127,2.29939 4.7974,3.78717 2.20522,1.25761 3.30351,0.0897 2.14472,-3.04776 -2.40015,-1.18751 -2.88254,-3.181459 -4.34589,-4.345889 -0.70163,-1.69368 -0.10911,-5.01085 -0.84659,-7.212897 -2.27843,-1.348592 1.5929,-6.101449 -3.04775,-4.921683 -1.2945,0.0345 -5.54099,-0.568908 -6.9421,-0.4515 -0.0764,-0.908019 4.1332,-3.28267 0.63223,-3.894375 -1.32499,-2.630875 -2.5431,-0.291415 -5.35611,-1.298104 -4.14061,-1.264231 6.23802,0.428392 2.57917,-3.442817 0.0788,-1.407497 0.54083,-3.191454 -2.59627,-3.499286 0.44612,-0.774372 -3.37464,-2.946486 -3.04775,-3.894374 -0.99224,-1.893409 -2.27167,-3.017029 -4.79739,-3.442817 -1.56178,-0.622658 -4.62322,-0.182514 -6.03907,-1.749651 -2.68759,-0.280489 -2.3607,-3.315361 -5.16531,-0.877644 0.085,1.393063 -3.40247,3.624871 -2.22832,4.320492 -1.28784,1.062651 -4.74794,2.105445 -5.98262,0.05641 -1.91078,-0.968508 -3.70714,-0.450925 -5.24893,-1.749651 -1.06949,-1.520994 -4.85024,-1.617694 -5.19247,-3.318566 -0.30475,-2.312531 -2.83348,-2.461924 -5.24891,-3.228475 -1.32286,0.841057 -2.75226,-1.18742 -5.16142,-0.02719 -2.3419,-0.122024 -4.28157,2.095203 -5.16707,1.381743 -2.82903,0.126782 -3.76379,-0.294186 -5.24893,-2.201166 -0.96011,0.527386 0.0434,-0.90861 -0.8466,-0.451552 z M 74.624514,128.63792 c 0.23312,-1.38671 -1.38671,0.23307 0,0 z M 205.11364,98.724761 c -2.47619,1.797329 2.44498,1.488819 2.99132,3.442829 1.77228,3.11965 2.293,10e-4 0.11293,-1.63673 -1.04437,-1.139189 -1.11955,-2.103399 -3.10419,-1.806099 z M 165.6621,118.25297 c -1.93145,1.70431 3.42929,-0.34093 0.18074,0 z m 25.11577,1.69318 c -1.70195,0.14623 -4.86596,2.701 -2.14471,4.79739 0.39891,1.98842 0.47383,5.47138 3.26212,5.64401 -0.10561,2.06531 -1.7523,3.86592 -4.16517,3.89435 1.64641,1.74708 4.02183,-0.37585 5.19249,-1.29812 2.69131,0.0423 4.66073,-0.93332 5.64398,-2.59623 2.66693,-0.55298 0.27531,-4.52876 -1.29812,-1.74963 -1.3711,-1.79843 -5.12157,-1.60753 -4.34586,-5.19248 0.33998,-0.76815 -0.44549,-4.37477 -2.14473,-3.49929 z m 9.08683,9.14328 c 2.54894,-0.97887 1.28041,-3.26447 0.0564,-5.19245 -0.0734,-2.17514 -3.24274,-4.4182 -3.49928,-1.74966 -1.46752,1.98461 0.81853,3.41842 2.1447,0.84659 1.78918,2.21727 -0.72574,3.427 1.29812,5.46329 v 0.55869 z m -33.356,-5.24892 c -1.28384,2.28047 2.97941,0.98692 0.4515,0 z m 16.93198,2.65268 c -2.21204,1.50127 -0.99043,3.17903 -3.04776,4.74096 -0.78892,1.62023 2.31425,3.17613 2.14473,6.30987 2.18332,1.2067 0.39713,3.35827 0.4515,5.82471 2.44162,0.26292 2.36616,2.78451 5.19248,3.04775 -0.84485,1.45072 1.94615,4.56181 2.59623,1.93037 -2.17951,-1.76417 1.78377,-3.47699 -0.39503,-5.37319 -1.4574,-0.89474 -3.26823,-1.95676 -3.91977,-4.31872 1.02679,-2.87009 -0.81124,-3.64914 -1.72426,-5.38326 -0.90584,-1.37677 0.83388,-3.10488 -0.90303,-4.63376 1.24932,-0.90241 -0.0632,-1.40083 -0.39509,-2.14473 z m -16.08539,3.44283 c -1.42929,2.09019 0.47461,4.43664 -2.59623,4.74097 -0.98694,1.26648 0.88503,3.52155 2.30834,4.34587 2.12036,1.24191 3.7838,2.02064 5.08529,2.30835 1.00673,0.83849 2.82385,3.94682 4.34587,3.33564 0.1248,-1.51903 0.4641,-4.18605 -0.90303,-5.19247 2.45384,0.1272 0.24065,-2.65764 1.29811,-4.45307 -0.30417,-2.95238 -2.74243,-1.42587 -5.01176,-2.48904 -1.78354,-0.54142 -2.30481,-2.5673 -4.52659,-2.59625 z m 8.69175,16.02895 c -1.69704,1.75766 2.43257,2.77701 0,0 z m -112.258996,3.04775 c -0.24206,1.33317 1.26117,-0.19323 0,0 z m 0,5.644 c -0.46807,3.04006 1.3575,0.36717 0,0 z m 98.374786,5.19246 c -2.00822,0.37972 -3.42434,1.68312 -4.90458,0.84659 -2.74854,0.78625 0.25362,3.75119 1.01022,4.79741 -0.65179,1.94505 4.76104,3.93161 2.14472,3.44283 -1.80779,1.93598 1.77201,1.81272 1.74964,4.05799 -0.40037,2.0109 1.39494,-0.14366 2.59623,2.03752 1.46398,1.4095 2.94295,1.6513 5.19247,2.14473 0.99908,0.92953 3.27112,-4.25909 4.34588,-2.48905 1.38958,2.64721 4.20664,-0.76261 2.59623,-2.5227 1.32673,-1.52535 2.21348,-2.55007 1.74965,-4.52659 -0.057,-1.335 -2.72975,-1.17245 -5.11895,-1.74965 -0.8138,-2.93314 -2.48505,-2.15947 -4.33704,-3.80652 -1.16876,1.34881 -3.43388,0.54329 -4.82332,-0.48292 -0.49066,-1.53009 -1.25498,-1.15654 -2.20115,-1.74964 z m -54.57741,11.68307 c -0.56165,0.79747 1.29332,0.51429 0,0 z m 10.83646,0 c -1.16963,3.43346 4.58845,0.46107 4.28944,0.4515 -1.46073,-0.12307 -3.50928,0.34704 -4.28944,-0.4515 z m -29.913146,0.90305 c -1.77069,1.7173 -2.98455,1.4857 -3.49928,3.89434 1.77813,1.45512 0.10765,3.09472 0,4.9046 0.24907,2.37223 0.5696,3.01437 -0.4515,5.93186 1.15256,0.8331 3.73583,3.11876 4.7974,0.84659 -0.21838,-2.16112 3.36638,-2.21397 3.04775,-3.44281 -1.84602,-0.40487 -3.05757,-4.29627 -1.74963,-6.09551 -1.20538,-2.02137 0.39022,-5.36329 -2.14472,-6.03907 z m 8.6353,0.39503 c -2.17437,0.81586 0.53786,4.25822 1.29812,2.59626 -0.94913,-0.7933 -0.0746,-2.48892 -1.29812,-2.59626 z m 16.028936,8.24024 c -1.79417,2.73377 0.21352,2.7126 1.46174,4.34587 -0.61648,-1.22544 1.40621,-3.67073 -1.46174,-4.34587 z m -22.519516,5.64399 c -0.76012,4.99875 2.55179,-0.30757 0,0 z m -3.89436,3.44283 c -1.77296,4.53702 2.2459,0.42066 0,0 z m 3.04776,0 c -3.32036,3.08249 1.2572,2.5779 0,0 z m 0.8466,1.35456 c -1.36876,2.59069 1.14953,1.86816 0,0 z m 6.49058,0.84661 c 2.45277,0.94563 -0.26538,0.16155 0,0 z m -0.39509,4.34587 c -2.20783,3.06249 3.08758,0.23631 0,0 z m -82.402281,8.24023 c -0.520929,3.07803 -0.764951,3.71526 -0.846598,6.88567 0.349081,-0.67615 1.76258,3.67653 -1.224587,3.04776 -1.64559,1.16557 -3.2282502,2.77221 -4.8709232,1.74962 -1.826238,-1.5287 -3.517156,-1.05718 -5.965539,-1.74962 -2.491786,-0.93366 0.01516,2.07984 0.377993,3.49927 1.029259,0.27557 -1.41232303,1.93335 0.846599,4.28942 0.343121,3.34232 0.502997,2.66801 1.298119,5.80763 1.058615,1.97402 2.269388,3.05715 3.154937,4.18229 0.709418,2.1521 1.280694,4.44233 2.489057,6.09551 0.200446,1.91015 1.5028162,-0.0868 2.5962342,-0.4517 2.169903,0.59757 3.471248,-1.13597 4.345875,-3.04773 0.599372,-2.12858 4.114812,-1.34107 4.740952,-3.44287 1.010631,1.07192 5.092679,-2.56813 6.095515,0 1.540464,-0.63773 2.569147,-0.45276 5.192473,-1.74964 2.511152,1.19808 3.834994,-1.48421 5.751171,-0.84661 1.266283,1.12404 6.256363,-1.2854 3.516373,-1.74963 1.56037,-1.24247 -2.53638,-1.72137 -1.8993,-5.16532 -0.3885,-2.51916 -4.660876,-0.63204 -2.175776,-3.07491 -1.325096,-0.89271 -2.487635,-2.55087 -4.345869,-2.14472 -0.926563,-1.69616 -3.020281,-2.28642 -3.894359,-4.34587 -1.271106,-1.01148 -2.416768,0.14445 -4.740952,-0.90303 0.218483,0.45683 -1.893931,-3.61152 -3.047755,-2.99132 -1.494895,-0.13912 -3.075678,-1.83266 -5.570461,-2.20116 -2.249678,0.71266 -0.633568,-1.70666 -1.823168,-1.6932 z m 14.335738,6.88567 c 1.213372,0.20395 -0.203949,-1.21337 0,0 z m 10.384943,17.77858 c -1.386701,-0.23307 0.23313,1.3867 0,0 z"
       style="fill:#000000;fill-opacity:1;stroke:#d39062;stroke-width:0.691638;stroke-miterlimit:4;stroke-dasharray:none;stroke-opacity:1"
       id="Quellon" />
  </g>
</svg>
