<?xml version="1.0" encoding="UTF-8" standalone="no"?>
<!-- Created with Inkscape (http://www.inkscape.org/) -->

<svg
   width="210mm"
   height="297mm"
   viewBox="0 0 210 297"
   version="1.1"
   id="svg64"
   inkscape:version="1.1.2 (b8e25be833, 2022-02-05)"
   sodipodi:docname="vector.svg"
   xmlns:inkscape="http://www.inkscape.org/namespaces/inkscape"
   xmlns:sodipodi="http://sodipodi.sourceforge.net/DTD/sodipodi-0.dtd"
   xmlns="http://www.w3.org/2000/svg"
   xmlns:svg="http://www.w3.org/2000/svg">
  <sodipodi:namedview
     id="namedview66"
     pagecolor="#ffffff"
     bordercolor="#666666"
     borderopacity="1.0"
     inkscape:pageshadow="2"
     inkscape:pageopacity="0.0"
     inkscape:pagecheckerboard="0"
     inkscape:document-units="mm"
     showgrid="false"
     inkscape:zoom="0.74029882"
     inkscape:cx="361.34057"
     inkscape:cy="345.8063"
     inkscape:window-width="1920"
     inkscape:window-height="1017"
     inkscape:window-x="-8"
     inkscape:window-y="-8"
     inkscape:window-maximized="1"
     inkscape:current-layer="layer1" />
  <defs
     id="defs61" />
  <g
     inkscape:label="Capa 1"
     inkscape:groupmode="layer"
     id="layer1">
    <path
       sodipodi:nodetypes="ccscccccccccccccccccccccccccccccccccccccccccccccccccccc"
       d="m 193.99968,183.40529 1.07821,-3.08966 c 1.7721,-1.61111 3.9187,-5.03417 5.01983,-6.1353 0.90095,-0.90095 -0.96418,-6.64662 -1.11547,-7.25075 1.80665,-4.75157 1.19213,-8.64363 1.11547,-13.94401 4.10543,-4.88412 1.90002,-10.35385 3.34651,-16.17483 0.40193,-0.80386 3.90639,-7.81707 4.46209,-10.03965 2.14581,-6.24277 -1.84944,-5.56096 -6.13529,-10.03953 -0.58822,-2.02184 3.4182,-7.2406 -5.57756,-9.48192 -6.71199,-2.90134 -0.69321,-11.41953 1.6732,-16.73267 1.71554,-3.43108 -2.98873,-4.66193 -5.57756,-7.25076 -2.64878,-3.83583 -3.20877,-8.97228 -3.34651,-12.27069 -0.13774,-3.29831 2.78878,-7.25076 2.78878,-7.25076 l -5.57756,-8.92407 h -7.25075 l -4.4621,3.34651 c -1.13285,3.90425 -2.92877,7.8086 1.67332,11.71285 l -5.01983,9.4818 h -19.52145 c -7.49395,-2.74373 3.06516,-2.90856 -23.42581,-8.36633 l -0.55773,-7.25076 -11.15512,-1.11547 v -6.69313 h -8.36634 l -18.405873,14.50162 -5.57756,-3.34651 -24.54127,-0.55773 -6.13529,21.7525 -12.27059,5.01971 c -12.17653,-1.25818 -17.00894,3.49249 -12.82842,15.6172 -6.313,0.47419 -12.96075,0.55774 -10.59739,11.15512 l -16.1748205,7.8086 0.55773,12.27058 17.2904105,-0.55773 c -1.90691,5.00165 4.22567,6.78764 9.4818,8.92407 l 1.11547,15.05936 -24.5412805,17.84825 -0.55773,13.9439 11.7128505,1.6732 3.96069,25.06141 11.65651,-3.38411 c 4.55479,-0.58708 7.5898,1.86627 10.15233,5.26415 3.40827,11.8962 7.16258,21.83096 13.53654,16.92076 l 10.15244,-10.90447 24.91103,-22.86175 23.651273,0.31951 3.51576,-5.43339 2.23725,3.19613 7.35113,0.63902 4.79413,5.11376 c 8.10328,1.03192 4.33914,-4.40451 15.02188,-9.908 l 0.63902,-6.71188 20.21467,0.1129 c -1.01386,-6.22279 17.33963,-10.31569 19.79196,-15.89969 z"
       style="fill:#000000;fill-opacity:1;fill-rule:evenodd;stroke:#d38d5f;stroke-width:2.98718;stroke-linecap:butt;stroke-linejoin:miter;stroke-miterlimit:4;stroke-opacity:1"
       id="Nogales" />
  </g>
</svg>
