<?xml version="1.0" encoding="UTF-8" standalone="no"?>
<!-- Created with Inkscape (http://www.inkscape.org/) -->

<svg
   width="210mm"
   height="297mm"
   viewBox="0 0 210 297"
   version="1.1"
   id="svg1283"
   inkscape:version="1.1.2 (b8e25be833, 2022-02-05)"
   sodipodi:docname="vector.svg"
   xmlns:inkscape="http://www.inkscape.org/namespaces/inkscape"
   xmlns:sodipodi="http://sodipodi.sourceforge.net/DTD/sodipodi-0.dtd"
   xmlns="http://www.w3.org/2000/svg"
   xmlns:svg="http://www.w3.org/2000/svg">
  <sodipodi:namedview
     id="namedview1285"
     pagecolor="#ffffff"
     bordercolor="#666666"
     borderopacity="1.0"
     inkscape:pageshadow="2"
     inkscape:pageopacity="0.0"
     inkscape:pagecheckerboard="0"
     inkscape:document-units="mm"
     showgrid="false"
     inkscape:zoom="0.74029882"
     inkscape:cx="361.34057"
     inkscape:cy="561.93525"
     inkscape:window-width="1920"
     inkscape:window-height="1017"
     inkscape:window-x="-8"
     inkscape:window-y="-8"
     inkscape:window-maximized="1"
     inkscape:current-layer="layer1" />
  <defs
     id="defs1280" />
  <g
     inkscape:label="Capa 1"
     inkscape:groupmode="layer"
     id="layer1">
    <path
       d="m 103.66296,99.280536 -0.48584,0.48584 h -0.4252 l -0.48584,0.485854 h -0.48584 l -0.91091,0.91091 v 0.48584 l -0.48585,0.4252 v 0.97162 h -3.218644 l -0.97162,0.4252 h -0.4252 l -0.48584,0.48584 h -0.48584 l -0.4252,0.48584 h -0.48584 l -1.88254,1.82182 v 0.48585 l -0.48584,0.48584 v 0.4252 l -0.4252,0.97162 -0.48584,0.4252 h -0.91091 l -0.48584,0.48584 h -0.48585 l -1.39669,1.39675 h -0.42519 l -2.36845,2.36838 h -1.39675 l -0.42519,-0.97169 h -0.48585 l -0.48584,0.48585 h -0.4252 l -0.48584,0.48584 h -1.39676 l -0.48584,-0.48584 h -0.48584 l -1.82189,-1.88254 h -0.48584 l -0.91091,-0.91091 h -0.48585 l -0.48584,-0.48584 h -0.4252 l -0.48584,0.48584 h -1.88253 l -0.4252,0.4252 h -3.27935 l -0.48584,0.48584 h -0.48585 l -1.39675,1.39669 h -0.4252 l -0.97169,0.97169 v 0.4252 l -1.82182,1.88253 v 0.48584 h -0.48584 l -0.91097,0.4252 h -0.97163 l -1.39675,1.39675 v 0.97163 l -0.4252,0.91091 v 0.48584 l -0.97162,0.91091 h -0.48585 l -1.39675,1.39669 h -0.42519 l -0.97163,0.97162 h -0.42519 l -0.48585,0.4252 h -0.48584 l -0.91091,0.48584 h -3.27935 l -0.4252,-0.48584 h -1.39682 l -1.45747,-1.39676 h -0.91091 l -0.48584,-0.48584 h -0.42519 l -0.97163,-0.91084 h -0.91091 l -0.91097,-0.48585 h -2.36845 l -0.42519,-0.42519 h -0.97169 l -0.91091,-0.97169 h -2.36838 l -0.91097,0.48584 h -0.48584 l -0.4252,0.48585 v 0.42519 l -0.97169,0.97163 h -1.39675 l -0.4252,0.42519 h -0.48584 l -0.48585,-0.42519 h -1.39675 l -0.91097,-0.48585 -0.48585,0.48585 -0.42519,-0.48585 h -0.97163 l -0.91097,-0.48584 h -0.48585 l -0.48584,0.48584 h -2.79351 l -0.42519,-0.48584 h -0.97169 l -0.4252,-0.4252 h -1.39675 l -0.48584,-0.48584 h -0.48585 l -0.42519,-0.48585 h -2.36845 l -0.42519,-0.42519 -0.97162,-0.48585 H 9.8953856 l -0.42519,-0.48584 h -1.88254 l -0.91097,0.48584 h -0.48585 l -0.48584,0.48585 v 0.42519 l -0.42519,0.48585 h -0.48585 l -0.48584,0.48584 h -0.4252 v 0.4252 l -0.48584,0.48584 h -2.30767 l -0.48584,0.48585 1.8826,1.88253 h 0.91091 l 0.48584,0.42519 h 1.39676 l 0.42519,-0.42519 v -0.48585 l 0.48585,0.48585 v 2.30766 h 0.48584 l 0.91097,-0.91091 v 1.39669 l -0.48584,0.4252 h -0.42519 v 0.48584 l -0.48585,0.48585 v 0.91091 l -0.48584,0.48584 0.48584,0.42519 -0.91097,0.97163 0.42519,0.42519 -0.42519,0.48585 v 0.48584 l 0.42519,0.4252 v 1.88253 h 1.39676 v 5.16182 h 0.48584 l -0.91097,0.4252 h -0.48585 v 0.48584 l -0.48584,0.91091 0.48584,0.48584 -0.48584,0.48585 h -0.4252 l -0.48584,0.42519 v 0.97163 l 0.91097,0.91091 v 0.91091 h -0.42519 v 2.36838 l 0.91097,0.91091 -0.48584,0.48584 v 0.91085 h 0.48584 v 0.48584 l -0.48584,0.91091 h 0.97162 v 0.48584 l -0.97162,0.91091 v 0.48585 l -0.4252,0.91091 v 1.39675 l 1.39676,1.39669 v 0.48585 l 1.39675,1.39675 v 1.39669 l 0.91098,0.97162 v 1.39676 h 0.48584 v 1.82182 l 0.9109704,0.97162 v 1.39676 l 0.48585,0.42519 h 0.91091 l 0.48584,-0.42519 0.48585,0.42519 h 0.42519 v 0.48584 l 0.48585,0.91091 h 0.48584 l 0.42519,0.48585 h 1.8826 v 0.48584 l 0.91091,0.91091 h 0.97169 v 0.48585 h 1.39676 l 0.42519,-0.48585 h 0.48584 l 0.48585,-0.48584 h 1.8826 v -0.91091 l 0.42519,-0.48585 h 0.48585 l 0.48584,-0.42519 h 1.82188 l 0.48585,-0.48585 h 1.8826 v -0.48584 h 1.39675 l 0.91091,-0.91091 h 0.48585 l 0.42519,0.48585 0.48584,-0.48585 h 0.91098 l 0.48584,-0.48584 0.48585,0.48584 h 0.91091 l 0.97169,-0.48584 0.42519,0.48584 0.48584,-0.48584 h 3.27936 l 0.91097,-0.91091 h 1.39676 v -0.48585 h 0.48584 l 0.42519,0.48585 h 1.39676 l 0.48584,0.48584 h 0.48585 l 0.91091,0.91091 h 0.97169 l 0.42519,0.48585 h 0.97169 l 0.91091,0.9109 h 0.91091 l 0.48584,0.48585 h 0.48585 l 0.42519,0.42519 h 1.8826 v -1.82182 l 0.48584,-0.97162 v -0.42519 l -0.48584,-0.48585 v -3.27929 l 0.48584,-0.91091 v -2.79344 l 0.4252,-0.48584 v -0.48585 l -0.4252,-0.42519 v -0.48585 l 1.39676,-6.07279 6.98383,1.39675 0.48585,-1.82182 3.21864,0.4252 4.67617,-16.76073 2.7935,-9.35196 v 0.48585 l 0.48585,0.48584 0.48584,-0.48584 h 1.82189 l 0.48584,-0.48585 -0.48584,-0.42519 0.48584,-0.48585 0.48585,0.48585 h 0.42519 l 0.48585,-0.48585 h 0.48584 l 0.42519,0.48585 h 0.97169 l -0.97169,0.91091 h -0.42519 v 0.48584 l 0.42519,0.4252 h 0.48585 l 0.97162,-0.4252 h 0.4252 l 0.48584,0.4252 v 0.48584 h -0.91097 l -0.48585,0.48585 v 0.91097 h 0.91091 l 0.97169,-0.48584 h 0.4252 l 0.48584,0.48584 h 0.48584 l 0.4252,0.48584 h 0.97169 v 1.82182 l 0.42519,0.48585 v 0.48584 l 1.39682,-4.19019 1.88253,0.42519 -0.48584,3.27929 11.659944,2.79344 13.0567,3.76507 v 0.42519 l 9.83805,2.79345 -1.39675,5.58688 h 0.4252 l 27.08501,7.46949 -0.97169,6.55851 10.74897,2.79351 0.48584,0.48584 -1.88259,6.98365 8.86643,2.79344 -1.39676,5.58695 h 1.39676 l -0.48585,0.91091 14.9393,4.25091 -1.8826,6.4978 0.48584,0.48584 19.1295,5.10105 7.46968,1.8826 0.91091,0.48584 h 0.91097 v -1.88253 l 0.48584,-0.48585 0.97169,0.48585 v -1.88254 h -0.48584 l -0.48585,0.48585 h -0.91091 v -0.48585 l 0.4252,-0.48584 -0.4252,-0.4252 0.4252,-0.97168 h -0.91098 l -0.48584,-0.4252 v -0.97162 l -0.42519,-0.4252 0.42519,-0.48584 v -1.88254 l -0.42519,-0.42519 v -0.48584 l -0.48585,-0.48585 v -0.42519 l -1.8826,-1.88254 v -0.91091 l -0.42519,-0.97169 v -0.91091 l 0.91091,-0.97162 -0.91091,-0.91091 h -0.97169 l -0.42519,-0.48584 v -0.91091 l 0.42519,-0.91091 v -0.48585 l 0.48584,-0.48584 v -0.91091 l -0.48584,-0.48585 v -1.39675 -0.42519 l 0.97169,-0.97163 -0.48585,-0.42519 v -0.48585 l -0.48584,-0.48584 v -1.39669 l -0.42519,-0.48585 v -0.91091 l -0.97169,-0.91091 h -0.91091 l -0.48585,-0.48584 v -0.48584 l -1.82188,-1.82182 v -0.48585 h 1.82188 v -0.91091 l -0.42519,-0.48584 -0.48585,-0.48585 v -1.39675 l -0.48584,-0.4252 v -0.48584 l -0.42519,-0.48584 -0.48585,-0.48585 -0.97169,-0.91091 h -0.42519 l -0.48585,-0.48584 v -0.4252 l -0.48584,-0.48584 -0.4252,-0.48585 v -1.82181 l -0.48584,-0.48585 -0.48584,-0.48584 h -4.6154 l -0.48584,-0.4252 h -0.48585 l -0.42519,-0.48584 -0.48584,-0.48585 -0.91098,-0.91091 v -0.91091 l -0.48584,-0.48584 v -0.48584 h -2.36845 l -0.42519,-0.4252 -0.48584,-0.48584 h -1.39676 l -0.48584,-0.48585 -0.4252,-0.48584 h -1.39675 l -0.97163,-0.4252 h -0.42519 v -0.48584 l -0.48584,-0.91091 v -0.48585 l -0.48585,-0.48584 v -0.42519 l -0.42519,-0.48585 v -0.48584 h -1.39676 l -0.48584,-0.4252 h -0.97163 l -0.91097,-0.48584 -0.48584,-0.48585 h -0.4252 l -0.48584,-0.42519 h -0.91091 l -0.97169,-0.48584 h -0.4252 l -0.48584,-0.48585 h -2.30773 l -1.39675,-1.39675 h -0.48585 l -0.91097,-0.91091 h -0.48585 l -0.48584,0.48584 h -1.8826 l -0.42519,-0.48584 h -0.48585 l -0.91091,-0.48585 h -0.48584 l -0.48585,-0.42519 h -2.30766 l -1.39675,-1.39669 h -0.48585 l -1.82182,-1.8826 h -0.48584 l -0.48585,-0.48584 v -0.48585 l -0.91091,-0.91091 v -0.48584 l -0.97168,-0.91091 -0.4252,-0.48585 -0.97162,-0.91091 v -0.48584 l -0.4252,-0.4252 v -0.48584 l -0.48584,-0.91097 v -0.48585 l -0.48585,-0.48584 v -0.4252 l -0.91097,-0.97162 v -0.4252 l -0.48584,-0.48584 v -0.97169 l -0.4252,-0.42519 v -0.97163 l 0.4252,-0.91091 v -0.91091 l 0.48584,-0.48584 -0.48584,-0.48585 v -0.42519 l -0.4252,-0.97162 v -0.4252 l 0.4252,-0.48584 v -0.48585 l -0.4252,-0.91084 -0.48584,-0.48585 v -0.42519 l -0.48585,-0.48585 -0.42519,-0.48584 h -0.48585 l -0.91091,-0.91091 h -0.97169 l -0.9109,-0.48584 h -3.7652 l -0.4252,-0.48585 h -0.97168 l -0.4252,-0.42519 -0.48584,-0.48585 h -0.48585 l -1.82182,-1.88253 h -0.48584 l -0.48585,-0.4252 h -0.42519 l -0.48585,-0.48584 -0.48584,0.48584 h -1.39675 l -0.48585,-0.48584 h -0.42519 l -1.8826,-1.88253 h -0.91091 l -0.97162,0.48584 h -0.4252 l -0.48584,0.48584 h -0.48585 l -0.42519,0.4252 h -2.79351 l -0.48584,-0.4252 -0.48585,-0.48584 h -0.42519 l -0.97169,-0.91091 -0.48585,-0.48584 h -0.91091 l -0.48584,-0.48585 h -0.91091 l -0.48584,-0.42519 h -1.39676 l -1.39675,-1.39676 v -0.48584 l -0.4252,-0.48585 -0.48584,-0.42519 h -0.48585 l -0.42519,-0.485844 h -0.48584 l -0.91091,-0.48585 z"
       style="fill:#000000;fill-opacity:1;fill-rule:evenodd;stroke:#d38d5f;stroke-width:0.853563;stroke-linecap:butt;stroke-linejoin:miter;stroke-miterlimit:4;stroke-dasharray:none;stroke-opacity:1"
       id="Pitrufquen" />
  </g>
</svg>
