<?xml version="1.0" encoding="UTF-8" standalone="no"?>
<!-- Created with Inkscape (http://www.inkscape.org/) -->

<svg
   width="210mm"
   height="297mm"
   viewBox="0 0 210 297"
   version="1.1"
   id="svg1283"
   inkscape:version="1.1.2 (b8e25be833, 2022-02-05)"
   sodipodi:docname="vector.svg"
   xmlns:inkscape="http://www.inkscape.org/namespaces/inkscape"
   xmlns:sodipodi="http://sodipodi.sourceforge.net/DTD/sodipodi-0.dtd"
   xmlns="http://www.w3.org/2000/svg"
   xmlns:svg="http://www.w3.org/2000/svg">
  <sodipodi:namedview
     id="namedview1285"
     pagecolor="#ffffff"
     bordercolor="#666666"
     borderopacity="1.0"
     inkscape:pageshadow="2"
     inkscape:pageopacity="0.0"
     inkscape:pagecheckerboard="0"
     inkscape:document-units="mm"
     showgrid="false"
     inkscape:zoom="0.52347032"
     inkscape:cx="155.69173"
     inkscape:cy="611.30496"
     inkscape:window-width="1920"
     inkscape:window-height="1017"
     inkscape:window-x="-8"
     inkscape:window-y="-8"
     inkscape:window-maximized="1"
     inkscape:current-layer="layer1" />
  <defs
     id="defs1280" />
  <g
     inkscape:label="Capa 1"
     inkscape:groupmode="layer"
     id="layer1">
    <path
       d="m 15.535635,71.786193 c -1.538966,3.08676 -5.5712363,5.4543 -10.1607043,7.0869 -5.17118103,4.54115 3.349966,12.48552 -2.860364,16.47907 1.005361,9.174567 1.672696,19.003997 -1.323451,27.920617 -1.94834203,5.88925 2.520603,16.00994 1.579605,19.85177 1.825958,7.6553 10.7309173,7.99751 16.7779643,9.86187 1.739973,1.08917 -0.921384,8.67063 9.178784,13.10642 5.002384,0.36082 8.106594,-4.90503 13.021064,-4.65343 5.43019,-3.22051 9.65946,-6.3142 15.45451,-9.17874 11.23963,-6.71434 23.97432,-8.47236 36.75783,-9.1788 6.659927,-1.46902 13.530877,-0.48341 20.278707,-0.76848 6.64188,-0.17925 2.92774,-0.0983 10.50223,0.98191 2.74856,5.90608 4.91121,11.73652 5.12305,18.40027 1.89353,7.13073 -3.59474,10.34556 -8.53841,13.44799 -6.1674,2.3931 -11.36594,6.2854 -16.99142,9.64838 -2.88538,1.51915 -5.300157,3.70547 -7.769947,5.84883 0.80247,0.88315 1.60133,1.75357 2.43345,2.60422 1.071827,1.09571 2.176377,2.13868 3.372667,3.0738 1.19629,0.93519 2.47947,1.77884 3.88497,2.43347 2.5918,0.94698 5.03727,2.20702 7.42841,3.54345 2.39114,1.33642 4.72991,2.72275 7.21496,3.88495 0.69931,0.4094 1.27317,0.66949 1.75037,0.76848 0.47722,0.0989 0.8523,0.0648 1.15268,-0.0856 0.60075,-0.30068 0.90209,-1.0772 1.0673,-2.00654 0.1652,-0.92929 0.20683,-2.05015 0.29883,-3.11648 0.0921,-1.06639 0.25917,-2.0631 0.64038,-2.77503 3.3549,-1.98851 7.5446,-4.41474 10.1607,-6.01953 1.05281,0.26484 2.02778,0.7006 2.94575,1.23807 0.91797,0.53718 1.76128,1.19343 2.60421,1.87841 1.68588,1.37002 3.29304,2.88952 5.03767,4.09844 2.01582,1.7194 4.30346,3.60388 6.78803,4.8242 1.24227,0.61015 2.5536,1.04557 3.88497,1.23806 1.33136,0.19256 2.69671,0.12143 4.09843,-0.29895 -0.0451,0.83383 0.30422,1.55148 0.81115,2.17731 0.50694,0.62582 1.14444,1.17932 1.75037,1.75038 0.60595,0.5713 1.15672,1.12347 1.40884,1.79307 0.25211,0.66954 0.21297,1.42669 -0.34156,2.34805 0.41326,0.91212 1.09411,1.79509 1.92114,2.60422 0.82702,0.80907 1.79909,1.55853 2.86036,2.26265 2.12254,1.40824 4.54932,2.60988 6.53188,3.58612 4.05518,0.35446 8.16265,0.2365 12.2526,0.21337 2.04494,-0.0116 4.06889,0.0116 6.10493,0.12779 2.0361,0.11565 4.04687,0.29201 6.06226,0.68308 2.307,0.69863 4.81026,1.01914 7.21498,1.49417 0.32382,0.0642 0.61808,0.18503 0.93924,0.25616 l 0.46953,-148.610887 -27.3229,2.26265 -25.91402,-2.7323 -4.05575,7.51382 -27.96327,0.68307 -14.30182,7.51382 -10.203397,-13.66148 -26.59713,-0.68308 -2.04921,4.09845 -5.42188,-2.7323 -6.83073,2.04922 -0.68307,-6.78801 -10.88646,2.68957 -7.81265,-2.56149 c -1.69165,1.93231 -3.35763,3.95707 -2.6896,7.08685 -6.283177,4.38502 -15.15731,5.40486 -22.840224,7.47114 -1.319559,-3.17095 5.115896,-7.23834 0.939228,-10.97186 1.220114,-2.02783 1.740304,-5.88665 0.85384,-6.06226 z"
       style="fill:#000000;fill-opacity:1;fill-rule:evenodd;stroke:#d39062;stroke-width:1.36614;stroke-linecap:butt;stroke-linejoin:miter;stroke-miterlimit:4;stroke-dasharray:none;stroke-opacity:1"
       id="Porvenir" />
  </g>
</svg>
