<?xml version="1.0" encoding="UTF-8" standalone="no"?>
<!-- Created with Inkscape (http://www.inkscape.org/) -->

<svg
   width="210mm"
   height="297mm"
   viewBox="0 0 210 297"
   version="1.1"
   id="svg1283"
   inkscape:version="1.1.2 (b8e25be833, 2022-02-05)"
   sodipodi:docname="vector.svg"
   xmlns:inkscape="http://www.inkscape.org/namespaces/inkscape"
   xmlns:sodipodi="http://sodipodi.sourceforge.net/DTD/sodipodi-0.dtd"
   xmlns="http://www.w3.org/2000/svg"
   xmlns:svg="http://www.w3.org/2000/svg">
  <sodipodi:namedview
     id="namedview1285"
     pagecolor="#ffffff"
     bordercolor="#666666"
     borderopacity="1.0"
     inkscape:pageshadow="2"
     inkscape:pageopacity="0.0"
     inkscape:pagecheckerboard="0"
     inkscape:document-units="mm"
     showgrid="false"
     inkscape:zoom="0.52347032"
     inkscape:cx="155.69173"
     inkscape:cy="611.30496"
     inkscape:window-width="1920"
     inkscape:window-height="1017"
     inkscape:window-x="-8"
     inkscape:window-y="-8"
     inkscape:window-maximized="1"
     inkscape:current-layer="layer1" />
  <defs
     id="defs1280" />
  <g
     inkscape:label="Capa 1"
     inkscape:groupmode="layer"
     id="layer1">
    <path
       id="Melipilla"
       style="fill:#000000;fill-opacity:1;fill-rule:evenodd;stroke:#d38f61;stroke-width:0.663516;stroke-linecap:butt;stroke-linejoin:miter;stroke-miterlimit:4;stroke-opacity:1"
       d="m 203.19641,54.842753 c 0.55035,-0.62283 -2.11493,1.62432 -2.31134,-2.20773 -0.19658,-3.83205 -4.76814,-3.26648 -7.36194,-4.48766 -7.89894,4.32892 -6.10534,-1.73656 -9.71896,-2.59577 -5.93441,-2.65941 -10.01229,2.47629 -14.68455,5.07294 -4.33617,2.44823 -9.4431,2.48288 -14.50671,2.51917 -5.40437,-1.00204 -10.8239,-2.15134 -16.34473,-2.84643 -1.77444,4.13839 -4.67474,-0.63459 -7.69963,0.453 -4.16002,1.99254 -13.29096,-2.11384 -13.94866,4.12955 -1.74248,-1.057 -7.64691,-1.05058 -10.87095,-2.30366 -5.07349,0.22897 -11.907084,-8.54061 -14.253954,-0.6633 -1.06458,4.98119 -5.56646,5.90904 -8.49542,9.54902 0.0631,5.16315 -5.75014,2.27504 -7.1658,4.44231 3.99381,2.90458 -0.37119,3.74968 -3.46257,3.95861 -4.52555,-5.12686 -6.48877,3.34402 -11.41488,2.87696 -5.33799,-1.6219 -17.37038,0.35581 -15.68171,-2.81464 l -2.41254,3.21674 c -0.9653,5.54823 -2.14974,10.43888 -5.22723,9.65027 l -5.22724,4.82514 c -6.07146,-0.17406 -14.20695,-2.41221 -10.05237,7.63977 -8.17579,2.83386 -4.94582,8.926457 -6.43347,13.671207 l -6.0314402,-5.22723 -6.03143,4.82513 0.40194,2.0105 c -8.750315,11.67987 -0.81002,10.5208 3.61883,12.06281 -0.3591,3.37218 -4.66397,4.77165 2.8147002,12.06281 l 7.23767,4.82513 c 2.17539,10.01081 5.8386,4.77792 13.26911,12.06287 l -0.40193,7.23767 c 0.078,3.21674 -1.28526,6.43354 -4.42304,9.65028 -5.90069,1.13096 -13.2908,-1.46157 -17.2900402,4.42303 5.5106702,0.71064 0.87245,6.38181 -0.005,7.88621 1.7809202,4.54603 5.2368402,7.95588 8.0323202,11.70118 0.1757,2.97041 2.29009,6.03544 3.37119,7.74981 -1.94092,5.37752 5.92019,7.34497 5.14811,12.45052 2.07414,3.86418 7.18217,6.35694 11.32994,7.5075 1.89931,-5.13301 3.91057,-5.41079 4.69907,-5.13877 1.77982,0.61416 -0.15979,-3.82848 -1.61296,-5.20665 -0.0439,-3.4842 5.83667,-1.44284 7.8732,-3.4367 3.84583,0.45684 7.86709,0.35636 11.15856,-0.86504 4.51276,0.46618 3.79065,4.82063 2.53005,7.805 0.90397,3.42243 4.71856,3.83737 4.82706,7.49827 2.66133,2.40722 -3.73882,4.51655 0.15429,6.72779 5.31245,-0.0999 9.74686,2.16754 12.93735,6.4768 3.12054,3.22212 5.60556,6.09167 10.62249,6.40822 2.69971,-0.49363 -0.52438,4.71395 2.53466,5.52945 2.25434,1.37334 5.08386,5.17508 7.673704,5.35084 0.89765,-0.57819 2.17401,-0.74078 3.76176,-0.21799 3.20181,0.61921 4.60446,-3.76874 6.02243,0.31738 10.20963,4.22646 6.12571,-10.17889 12.51603,-6.69227 4.71988,1.03559 5.88883,-1.53482 15.1341,-1.80415 4.44428,-0.25697 3.76132,-5.97235 7.57838,-7.4969 1.83567,-3.69142 3.56574,-6.72235 2.51187,-10.9917 0.43543,-5.49453 0.0329,-8.58498 9.37501,-7.37895 5.55741,0.43378 15.34451,6.72361 16.71993,0.98578 2.25846,-3.07754 5.2716,-3.88817 7.8224,-0.60993 6.51244,-0.09 8.64077,7.94792 13.8892,11.03898 0.89776,1.00824 2.50215,1.00247 3.713,1.55266 1.2108,0.55019 -0.64578,-3.63652 0.14496,-2.75605 -0.79058,-0.88047 -3.78109,-3.09182 -3.64607,-4.31289 0.72821,-0.79613 -1.29475,-3.55114 0.49858,-5.1105 -0.42829,-2.19587 -1.36076,-2.68242 -0.0439,-4.86478 1.25467,-2.36169 -3.07414,-1.9116 -2.04756,-4.36329 1.28366,-1.02043 0.5134,-5.12505 -0.16253,-6.28429 -1.50363,-2.28197 -1.52993,-2.04608 -0.74918,-4.5496 -0.12519,-1.97086 1.04338,-4.73262 -0.557,-6.31548 -1.59258,-0.62624 -4.11565,-2.44719 -3.19126,-4.41464 -0.20481,-1.45234 0.40523,-3.18813 1.14667,-4.67369 -0.48979,-1.76143 -0.86114,-3.85605 0.52108,-5.50716 -1.34049,-1.08232 -0.0582,-3.00567 0.69065,-4.46828 0.74896,-1.46262 -1.23403,-1.57749 0.41896,-1.25649 -1.40386,-3.38278 1.68148,-9.75844 -4.40075,-10.02233 -2.2002,1.22529 -4.14563,1.68631 -4.66804,-2.12186 -1.95531,0.0763 -5.29482,2.45933 -5.72888,0 -2.30305,-2.30975 -3.49107,-6.29203 -7.85079,-5.51677 1.12196,-1.66627 -0.98309,-2.36438 -5.51672,-2.33396 -4.69401,-2.64288 -5.73075,-1.62855 -5.94116,0.21195 -8.70726,4.61796 -6.93562,-1.41309 -9.76036,-2.33402 -4.17694,-4.58815 -7.39906,-2.75237 -11.45788,-3.81926 -5.32733,-4.30372 -1.32034,-8.97609 0.42445,-9.76042 2.38591,-1.45119 5.53577,-3.17264 5.94116,-5.9411 2.48793,-4.14174 -1.00956,-5.06855 -3.06069,-5.2386 l 1.09319,-4.81004 -4.81004,-1.96778 -0.21854,-2.40501 3.27961,0.21853 2.62367,-24.268867 c 3.67781,0.72749 4.50809,-1.08792 6.9964,-3.06097 1.15968,-0.57984 2.30048,-0.51779 3.49826,-0.21853 1.45625,1.68164 2.46893,2.33588 4.59139,2.84231 1.33973,0.33494 0.7539,1.19114 1.31183,1.74913 2.68648,-0.0879 4.87307,0.24324 7.4337,1.09318 0.93631,0.18724 1.66254,0.79827 2.84232,1.09319 0.0598,-2.32403 -0.47716,-2.87477 1.74913,-5.02869 0.60422,-0.60422 1.03179,-1.84494 1.31183,-2.40501 2.42934,-0.56139 3.3785,1.15979 5.90322,-0.65595 2.38701,-0.43707 2.29525,-3.12531 4.15414,-4.37274 4.42255,-0.81781 9.57802,1.37663 13.0128,4.02594 5.88362,-2.71498 4.96751,-6.04813 5.65442,-9.2356 l 1.69637,-3.20416 c 3.6833,1.86328 4.33013,-3.10533 6.21988,-5.27748 1.88975,-2.1722 0.37008,-0.38656 -0.23501,-0.38656 -0.60488,0 -0.34373,-0.84928 -0.56419,-1.28965 -0.19383,-0.38766 -1.62932,-1.74874 -1.20905,-1.85379 0.40029,-0.0999 0.64485,-1.72518 0.64485,-2.25681 0,-0.80415 -1.12371,0.16582 -1.69262,-0.40304 -0.79591,-0.76504 -0.0955,-0.54854 -0.96723,-1.20898 -0.35855,-0.44532 0.33934,-1.46284 -0.0807,-1.85379 -0.47936,-0.47936 -1.53136,-0.0846 -1.53136,-0.7254 -0.0582,-1.14837 -0.47002,-2.92364 0.0807,-3.54647 z"
       sodipodi:nodetypes="ccccccccccccccccccccccccccccccccccccsccccccccccccccccccccssccccccccccsccccccccccccccccccccccccccccccsssssccccc" />
  </g>
</svg>
