<?xml version="1.0" encoding="UTF-8" standalone="no"?>
<!-- Created with Inkscape (http://www.inkscape.org/) -->

<svg
   width="210mm"
   height="297mm"
   viewBox="0 0 210 297"
   version="1.1"
   id="svg64"
   inkscape:version="1.1.2 (b8e25be833, 2022-02-05)"
   sodipodi:docname="vector.svg"
   xmlns:inkscape="http://www.inkscape.org/namespaces/inkscape"
   xmlns:sodipodi="http://sodipodi.sourceforge.net/DTD/sodipodi-0.dtd"
   xmlns="http://www.w3.org/2000/svg"
   xmlns:svg="http://www.w3.org/2000/svg">
  <sodipodi:namedview
     id="namedview66"
     pagecolor="#ffffff"
     bordercolor="#666666"
     borderopacity="1.0"
     inkscape:pageshadow="2"
     inkscape:pageopacity="0.0"
     inkscape:pagecheckerboard="0"
     inkscape:document-units="mm"
     showgrid="false"
     inkscape:zoom="0.74029882"
     inkscape:cx="361.34057"
     inkscape:cy="561.93525"
     inkscape:window-width="1920"
     inkscape:window-height="1017"
     inkscape:window-x="-8"
     inkscape:window-y="-8"
     inkscape:window-maximized="1"
     inkscape:current-layer="layer1" />
  <defs
     id="defs61" />
  <g
     inkscape:label="Capa 1"
     inkscape:groupmode="layer"
     id="layer1">
    <path
       style="fill:#000000;fill-opacity:1;fill-rule:evenodd;stroke:#d39062;stroke-width:0.324078;stroke-linecap:butt;stroke-linejoin:miter;stroke-miterlimit:4;stroke-dasharray:none;stroke-opacity:1"
       d="m 35.676006,68.600201 c -0.317877,-0.0129 -0.603979,0.0291 -0.830451,0.14188 -0.843543,0.42178 -0.919047,0.76334 -1.822943,1.21527 -0.193389,0.0966 -0.748561,0.2705 -1.27606,0.48612 -0.527495,0.21556 -1.026263,0.47268 -1.154529,0.72919 -0.252789,0.50554 -0.703543,0.74398 -1.114019,0.9925 -0.205249,0.12443 -0.40432,0.26501 -0.567136,0.42534 -0.162817,0.16029 -0.278482,0.34428 -0.344335,0.60767 -0.09055,0.36221 -0.238925,0.88027 -0.465863,1.29629 -0.113467,0.20813 -0.246874,0.39327 -0.405098,0.52665 -0.158228,0.13347 -0.336809,0.20263 -0.546883,0.20263 -0.257669,0 -0.986009,0.0194 -1.660902,0.0811 -0.674893,0.0601 -1.295024,0.15932 -1.377334,0.32408 -0.274538,0.54904 -0.712301,1.50138 -0.607646,1.82294 0.09078,0.2789 0.02747,0.57332 -0.121515,0.8507 -0.149017,0.27729 -0.38118,0.53777 -0.648156,0.76968 -0.142295,0.12377 -0.235564,0.12184 -0.384846,0.22299 -0.06809,0.0892 -0.122387,0.18777 -0.202535,0.26339 -0.328576,0.3096 -0.766652,0.54969 -1.276059,0.93172 -0.561817,0.42139 -0.876287,0.81243 -1.215293,1.17481 -0.339006,0.36234 -0.701397,0.69502 -1.417844,1.05323 -0.323015,0.16159 -1.043787,0.27438 -1.721669,0.38484 -0.677883,0.11053 -1.33175,0.21782 -1.539371,0.42537 -0.401631,0.40164 -0.737396,0.79262 -1.134276,1.13428 -0.396881,0.34166 -0.853733,0.63317 -1.498864,0.89123 -1.160473,0.46417 -2.176395,1.19462 -3.2407874,1.62037 -0.531519,0.21265 -0.918352,0.41764 -1.336824,0.56714 -0.418468,0.14963 -0.867357,0.24303 -1.498861,0.24303 -0.457996,0 -1.101027,-0.0792 -1.741922,-0.12151 -0.640898,-0.0423 -1.278186,-0.0478 -1.701415,0.12151 -0.651285,0.26048 -1.074217,0.50093 -1.377334,0.83044 -0.303107,0.32951 -0.485547,0.74715 -0.648157,1.39761 -0.180332,0.72126 -0.302267,1.0967 -0.546883,1.33682 0.44336,0.32188 0.857181,0.49258 1.336824,0.97224 0.517057,0.51705 0.97367,0.88583 1.478611,1.15452 0.504941,0.26856 1.048511,0.44818 1.762176,0.56714 0.54368,0.0905 1.110402,0.0676 1.620395,0 0.509988,-0.0675 0.971624,-0.18195 1.296313,-0.34434 0.766549,-0.38326 2.3502964,-0.68885 3.0787464,-0.87096 0.606421,-0.15157 1.325748,-0.13929 2.045747,-0.10116 0.719999,0.0378 1.426269,0.10116 2.045744,0.10116 0.688511,0 1.224642,0.0388 1.701412,0.16191 0.476773,0.12313 0.893545,0.34609 1.377334,0.70892 0.657958,0.49346 1.48445,0.77552 2.066,1.35708 0.194294,0.19423 0.278514,0.34855 0.303819,0.48612 0.02521,0.13768 -0.01713,0.25854 -0.04049,0.38484 -0.02327,0.12636 -0.02844,0.26436 0.02036,0.42537 0.04861,0.16094 0.164238,0.34651 0.405095,0.58737 0.359217,0.35921 0.502954,0.67308 0.486119,0.93172 -0.01681,0.25854 -0.194229,0.46172 -0.486119,0.60767 -0.02488,0.0129 0.955708,1.607579 1.012749,1.721659 0.228098,0 0.460559,0 0.688666,0 0.465837,0 0.88373,0.24981 1.23555,0.54688 0.351817,0.29732 0.630382,0.63039 0.810194,0.8102 0.715074,0.71506 0.95672,1.07217 1.033002,1.37732 0.0488,0.19519 -0.05588,0.41095 -0.141777,0.70895 -0.04596,0.15932 -0.0139,0.41615 -0.02036,0.6279 0.333043,0 0.478695,0 0.769687,0 0.235175,0 0.437436,0.12313 0.627903,0.30378 0.19048,0.18066 0.360219,0.42337 0.506373,0.68866 0.292313,0.53059 0.490233,1.1243 0.607646,1.41784 0.484406,1.21101 1.067605,2.24492 1.114019,2.43058 0.166921,0.66768 0.293348,0.8709 0.425356,0.97225 0.132017,0.10147 0.262096,0.0995 0.445605,0.34434 0.653499,0.87132 0.891444,0.89142 1.539375,1.53936 0.146399,0.36606 0.299197,0.72773 0.445609,1.09379 0.196717,0.49178 0.231103,1.09418 0.263324,1.68113 0.03232,0.58699 0.04835,1.1657 0.162041,1.62041 0.298906,1.19559 0.445609,1.56369 0.445609,2.18752 -7e-6,0.47542 0.112982,0.55686 0.222798,0.64816 0.109815,0.0911 0.222798,0.19132 0.222798,0.66843 1.3e-5,0.10115 2.95524,2.08426 3.058492,2.18751 0.336841,0.33685 0.512978,0.5973 0.587393,0.81021 0.07443,0.21297 0.04983,0.38122 0.04049,0.52661 -0.0094,0.14543 -0.0045,0.27083 0.08102,0.40511 0.08564,0.13444 0.248329,0.28633 0.607646,0.46586 0.317974,0 0.605777,0.0814 0.850707,0.22266 0.24493,0.14123 0.46032,0.33339 0.6279,0.56715 0.33517,0.46754 0.50637,1.07469 0.50637,1.6204 0,0.44634 0.24711,0.90377 0.56714,1.37732 0.32004,0.47355 0.71496,0.96407 0.97224,1.47863 0.27512,0.55021 0.63216,0.89924 0.99249,1.23554 0.36032,0.33629 0.73227,0.65433 0.99249,1.17478 0.27454,0.54907 0.31584,0.96057 0.46586,1.27606 0.075,0.15771 0.18098,0.29021 0.34434,0.4051 0.16336,0.11505 0.37753,0.22105 0.70892,0.30379 0.5029,0.12571 1.07079,0.34563 1.57988,0.64816 0.50909,0.30249 0.96019,0.69286 1.27606,1.11402 0.51677,0.68901 1.30024,1.12601 1.76218,1.74192 0.17167,0.22881 0.49302,0.33798 0.8507,0.38484 0.35769,0.0469 0.75719,0.0381 1.07351,0.0608 0.31633,0.0226 0.5601,0.0863 0.60765,0.24303 0.0476,0.15674 -0.0983,0.4021 -0.54688,0.8507 -0.20942,0.20942 -0.20907,0.61041 -0.10129,1.05326 0.10778,0.44285 0.30909,0.94229 0.52663,1.37735 0.10691,0.21394 0.33395,0.38358 0.60765,0.52662 0.2737,0.14316 0.60008,0.26048 0.95198,0.34434 0.7038,0.16773 1.47969,0.22267 1.96472,0.22267 0.42688,0 0.82815,0.17128 1.19504,0.42533 0.36689,0.25402 0.69065,0.58938 0.9925,0.89123 0.10483,0.10471 1.48542,0.62121 1.53937,0.64816 0.14294,0.14284 0.20367,0.32983 0.2228,0.52662 0.0191,0.19681 0.0107,0.40688 -0.0204,0.6279 -0.0618,0.4421 -0.16056,0.91446 0.0204,1.27606 0.086,0.17193 0.045,0.25466 -0.0405,0.32408 -0.0855,0.0692 -0.22299,0.11893 -0.30381,0.18227 -0.0808,0.0633 -0.1,0.14931 0,0.30379 0.1,0.1548 0.33298,0.38645 0.78994,0.72918 0.47217,0.35414 1.03326,0.56727 1.53937,0.87096 0.43255,0.25951 0.53432,0.38998 0.58739,0.52662 0.0531,0.1367 0.0499,0.27502 0.28356,0.56714 0.31694,0.19003 1.41211,3.05761 1.76218,3.52437 0.49855,0.66474 1.1889,2.37781 1.31657,2.63312 0.21497,0.43002 0.11889,0.75432 0.1823,1.033 0.0317,0.13929 0.0937,0.26727 0.26332,0.38484 0.16957,0.11731 0.44637,0.23818 0.87096,0.34434 0.24694,0.0617 0.43613,0.19714 0.5874,0.38484 0.15128,0.18777 0.2545,0.41296 0.36458,0.64816 0.22018,0.47042 0.4278,0.96333 0.8102,1.15452 0.68826,0.34415 1.35212,0.52044 1.92422,0.76971 0.28604,0.12475 0.53858,0.2747 0.76968,0.46586 0.23111,0.191 0.42852,0.43167 0.5874,0.74941 0.19077,0.38158 0.59335,0.65133 1.07351,0.83047 0.48016,0.17904 1.03552,0.26339 1.55962,0.26339 0.36441,0 0.71069,0.0918 1.01275,0.24303 0.30207,0.15157 0.56057,0.3565 0.8102,0.5874 0.49925,0.46182 0.90685,1.00812 1.2558,1.35709 0.28821,0.28827 0.82988,0.61475 1.4381,0.89122 0.60822,0.27632 1.29014,0.50484 1.86345,0.64813 0.43818,0.10956 1.08096,0 1.53937,0 0.17355,0.0433 0.33935,0.25758 0.50638,0.54692 0.16702,0.28924 0.32479,0.66338 0.46586,1.05323 0.28213,0.77969 0.50544,1.61575 0.56714,1.92422 0.0391,0.1952 -0.0448,0.34687 -0.14178,0.46586 -0.097,0.11893 -0.20476,0.20231 -0.24306,0.26339 -0.0766,0.12184 0.15225,0.14188 1.47861,0.14188 0.63471,0 1.25875,-0.0162 1.8837,0 0.62496,0.0162 1.2441,0.073 1.8432,0.22267 0.82819,0.20715 1.59824,0.34628 2.34957,0.52664 0.75133,0.18034 1.48993,0.40061 2.26855,0.78995 0.32597,0.16288 0.46192,0.42972 0.66841,0.76967 0.20648,0.33995 0.4887,0.76147 1.09377,1.21528 0.44348,0.33264 0.46736,0.45173 0.58739,0.62793 0.12003,0.17613 0.32111,0.39114 1.15453,0.89119 0.41545,0.24917 1.00018,0.31122 1.60014,0.30379 0.59996,-0.006 1.22231,-0.0811 1.70141,-0.0811 0.708643,0 1.201983,1.6e-4 1.600143,-0.0811 0.39816,-0.0811 0.69875,-0.23301 1.033,-0.56711 0.36325,-0.36325 0.59453,-1.61443 0.89122,-2.20778 0.14834,-0.29668 0.47127,-0.53301 0.8507,-0.74945 0.37943,-0.21652 0.80344,-0.41185 1.11402,-0.56714 0.44234,-0.22105 1.12406,-0.24626 1.76218,-0.26339 0.63813,-0.0162 1.23982,-0.0129 1.53937,-0.16191 0.77658,-0.3883 1.25653,-0.74718 1.80269,-0.93175 0.27308,-0.0921 0.56919,-0.14349 0.91147,-0.14187 0.34229,0.001 0.73954,0.0582 1.23555,0.18227 0.76439,0.19099 1.16675,0.52852 1.62039,0.8102 0.22684,0.14091 0.47203,0.27082 0.76969,0.36458 0.29768,0.0937 0.6465,0.14187 1.11402,0.14187 0.84824,0 1.57426,0.17839 2.26855,0.4051 0.69429,0.22655 1.35968,0.49689 2.12677,0.68866 0.50782,0.12701 1.12101,0.13315 1.74192,0.10115 0.62091,-0.0323 1.25988,-0.10115 1.78246,-0.10115 1.39095,0 2.78155,0 4.1725,0 1.46418,0 2.93115,0 4.3953,0 1.24455,0 2.48238,0 3.7269,0 0.91921,0 1.52323,0.0488 2.06601,0.20263 0.54277,0.15383 1.01758,0.42895 1.6609,0.91146 0.38125,0.28601 1.22943,0.4549 2.10653,0.60767 0.8771,0.15286 1.78594,0.28504 2.2888,0.48609 0.56281,0.22525 1.15907,0.3222 1.72166,0.42536 0.56259,0.10309 1.09861,0.2049 1.57988,0.4456 0.6037,0.30184 0.93569,1.01474 1.53939,1.31659 0.19843,0.0992 0.26113,0.18841 0.26339,0.26339 0.003,0.0747 -0.0676,0.14607 -0.10116,0.24302 -0.0336,0.097 -0.0291,0.2188 0.0608,0.38488 0.0908,0.16579 0.27276,0.36661 0.64816,0.64813 0.75087,0.56316 1.21195,0.95149 1.66091,1.19504 0.44895,0.24367 0.89297,0.34434 1.64063,0.34434 0.18195,0 0.37741,0.10762 0.56715,0.26339 0.1897,0.15545 0.369,0.36406 0.54688,0.58738 0.35572,0.44666 0.66073,0.94432 0.85069,1.13428 0.27761,0.27761 0.40378,0.45807 0.4456,0.58738 0.0417,0.12927 0.0129,0.19422 0,0.26338 -0.0226,0.13832 0.0162,0.26049 0.87096,0.68866 0.86088,0.43044 1.24872,0.52125 1.41787,0.62793 0.16903,0.10665 0.12152,0.22784 0.12152,0.68866 0,0.23721 1.71849,1.69823 1.98498,1.96472 0.38064,0.38064 0.85448,0.55832 1.37735,0.6279 0.52283,0.0695 1.09867,0.0404 1.7014,0.0404 0.58569,0 1.15626,0 1.74192,0 0.4707,0 0.79899,-0.0798 1.033,-0.18227 0.23398,-0.10245 0.38322,-0.22946 0.54688,-0.34435 0.16353,-0.11505 0.3278,-0.2259 0.5874,-0.26339 0.25952,-0.0375 0.61239,-0.01 1.13426,0.12152 0.78231,0.19552 1.2918,0.46227 1.53939,0.78994 0.12377,0.16385 0.18227,0.34803 0.18227,0.54688 -1.6e-4,0.19875 -0.0646,0.41295 -0.18227,0.64816 -0.11796,0.23592 -0.002,0.39767 0.24302,0.52662 0.24497,0.12894 0.61753,0.22751 0.99248,0.32408 0.37495,0.0966 0.76105,0.18518 1.033,0.32408 0.27212,0.13897 0.42863,0.33132 0.36461,0.58741 -0.0482,0.19196 0.002,0.34505 0.10115,0.50635 0.0995,0.16126 0.26048,0.31477 0.42537,0.46586 0.32945,0.30217 0.69392,0.60838 0.78994,0.99251 0.0818,0.3265 0.6205,0.75371 1.19504,1.13428 0.57451,0.38054 1.18234,0.72282 1.43811,0.8507 0.41412,0.20716 0.6491,0.39011 0.76967,0.54688 0.12055,0.15674 0.13929,0.27632 0.0811,0.38484 -0.11634,0.21685 -0.48499,0.34909 -0.6279,0.38484 -0.24141,0.0604 -0.30023,0.19358 -0.24303,0.38484 0.0572,0.19099 0.2356,0.43913 0.46586,0.68869 0.46043,0.49908 1.14107,1.03807 1.53939,1.33682 0.41241,0.30928 0.72324,0.81502 0.97221,1.37731 0.24885,0.56233 0.4381,1.18519 0.56714,1.70143 0.18906,0.75565 0.43248,1.05126 0.58741,1.31656 0.1548,0.26532 0.21039,0.49471 0.0608,1.09375 -0.0634,0.25434 -0.0346,0.50736 0.0404,0.74945 0.075,0.24206 0.19294,0.47417 0.34432,0.70892 0.30249,0.46948 0.69735,0.92881 0.93172,1.39758 0.3339,0.66778 0.11181,1.54003 0.44562,2.20778 0.11538,0.23107 2.25655,0.90548 2.63315,1.09379 0.89058,0.44531 1.70621,1.05808 2.41032,1.76216 1.13923,1.13923 2.25228,2.32726 3.52437,3.28131 0.87846,0.65886 1.75462,1.32609 2.63311,1.98498 0.22267,0.16676 0.88625,1.58024 1.09379,2.41031 -0.1464,0.2928 -0.2789,0.57814 -0.42536,0.87097 -0.11925,0.2385 -0.0695,0.50451 0.0404,0.76971 0.10988,0.26532 0.26565,0.53133 0.38487,0.76967 0.2246,0.44945 0.48851,0.85994 0.72915,1.27607 0.24076,0.41612 0.45703,0.83554 0.5874,1.35708 0.10342,0.41363 0.13509,0.61504 0.26339,0.83043 0.1283,0.21556 0.36888,0.44993 0.8507,0.93172 0.25111,0.25079 0.53221,0.41784 0.8507,0.52665 0.31865,0.10891 0.66994,0.16256 1.033,0.18227 0.72611,0.0391 1.52223,-0.0404 2.2888,-0.0404 0.0811,0 0.16191,0 0.24303,0 -0.0129,-1.22988 -0.19875,-2.47444 -1.11402,-3.44332 7.68802,-2.34946 1.68653,-2.2317 6.01571,-1.31659 6.59164,0.0908 2.59494,-2.71475 -1.31656,-4.69915 0.32285,-5.7902 -8.44525,-2.37254 -5.65113,-5.69163 -5.62557,-1.75394 -4.06463,-3.08566 -6.44104,-5.12448 0.39088,-0.59704 -0.58259,-2.57326 0.48609,-3.24078 1.04363,-0.65185 2.16463,-1.27633 2.12679,-2.20779 -2.70829,-1.39011 -3.48986,-2.6728 -0.64816,-6.0157 -1.76468,-1.56854 -2.2232,-5.16692 -0.52665,-7.75763 3.34378,-0.99216 1.22232,-3.83298 3.13953,-4.73965 0.65728,-3.79949 -1.93347,-4.03369 -1.21531,-5.73215 -1.74738,-1.20626 -0.38196,-6.39673 -2.066,-5.44856 -8.12744,1.35698 -2.45294,-2.09619 -9.39827,-0.32409 -1.88855,2.36592 -2.85879,-0.48993 -4.43582,-1.19504 -3.4704,-1.73184 -3.8098,-0.24141 -7.29177,-1.74192 -3.57589,-1.29969 -3.96028,-2.58642 -6.72463,-4.78017 0.01,-1.40624 0.0924,-2.26411 0.18227,-3.09898 -0.39188,-0.01 -0.79951,0.0469 -1.17481,0 -0.97884,-0.12248 -1.80307,-0.33759 -2.63312,-0.52664 -0.83004,-0.18906 -1.66113,-0.34432 -2.63314,-0.34432 -1.17136,0 -2.35302,0 -3.52437,0 -0.19229,0 -1.05327,0.0472 -1.8837,0.0404 -0.83041,-0.006 -1.62038,-0.0701 -1.62038,-0.26339 0,-0.60411 0.0527,-0.65075 0,-0.76968 -0.0527,-0.11893 -0.22008,-0.31833 -0.66843,-1.21527 -0.18518,-0.37042 -0.71528,-0.61694 -1.15451,-0.87096 -0.21976,-0.12701 -0.40821,-0.24335 -0.52665,-0.38487 -0.11828,-0.14155 -0.15319,-0.30088 -0.0608,-0.48609 0.10471,-0.20974 0.26921,-0.4868 0.22267,-0.70895 -0.0226,-0.11118 -0.0898,-0.2133 -0.26339,-0.28343 -0.17354,-0.0701 -0.45174,-0.12152 -0.85073,-0.12152 -0.48606,0 -1.03652,0.0634 -1.49886,0.20264 -0.4623,0.13896 -0.83092,0.36654 -0.91146,0.68865 -0.14575,0.5824 -0.31865,0.95632 -0.64816,1.19505 -0.32957,0.23882 -0.807,0.34434 -1.53939,0.34434 -0.81149,0 -1.55037,-0.0162 -2.20778,-0.16191 -0.65737,-0.1464 -1.25001,-0.41958 -1.76215,-0.93172 -0.21297,-0.21297 -0.4974,-0.81156 -0.89122,-1.27606 -0.19682,-0.23237 -0.41635,-0.44485 -0.66843,-0.54688 -0.25208,-0.10213 -0.53686,-0.0963 -0.8507,0.0608 -0.29894,0.1493 -0.78661,0.5906 -1.2558,0.99247 -0.46919,0.4019 -0.9143,0.76971 -1.15452,0.76971 -0.95918,0 -1.37482,-0.0873 -1.64067,-0.26339 -0.26597,-0.17613 -0.37624,-0.45726 -0.76967,-0.8507 -0.35944,-0.35943 -0.6195,-0.79895 -0.78994,-1.17477 -0.17032,-0.37583 -0.26727,-0.67606 -0.32409,-0.78995 -0.13993,-0.27987 -0.2957,-0.55958 -0.42536,-0.85073 -0.1296,-0.29118 -0.22267,-0.59871 -0.22267,-0.91145 0,-0.37948 0.13218,-0.69467 0.28343,-0.97225 0.15124,-0.2776 0.31121,-0.52273 0.36457,-0.78994 0.073,-0.36603 0.14963,-0.72773 0.22267,-1.09376 0,-0.62602 0.1464,-1.00776 0.32408,-1.39757 0.17775,-0.38985 0.39967,-0.78855 0.56714,-1.45837 0.0714,-0.28633 0.31025,-0.52927 0.52662,-0.76968 0.21621,-0.24044 0.40223,-0.4803 0.34435,-0.76971 -0.14834,-0.74159 -0.40617,-1.17969 -0.74945,-1.53935 -0.34325,-0.35967 -0.78028,-0.6385 -1.23554,-1.09376 -0.26985,-0.26985 -0.52833,-0.44353 -0.78994,-0.54688 -0.26177,-0.10342 -0.51291,-0.14349 -0.78994,-0.16191 -0.55405,-0.0372 -1.16631,0.0258 -1.92423,-0.16191 -0.72,-0.18001 -1.22616,-0.47604 -1.74192,-0.76971 -0.51572,-0.29377 -1.05139,-0.58693 -1.78241,-0.76968 -0.38323,-0.0957 -0.679,-0.11053 -0.93172,-0.0811 -0.25273,0.0291 -0.44553,0.0892 -0.64817,0.16191 -0.20263,0.0727 -0.41521,0.14802 -0.64816,0.18227 -0.23301,0.0343 -0.48684,0.0453 -0.83047,-0.0404 -0.47696,-0.11926 -1.41513,-0.33808 -2.30905,-0.60764 -0.89392,-0.26953 -1.74637,-0.59183 -2.08626,-0.93172 -0.7041,-0.7041 -1.53998,-1.31688 -2.43059,-1.76218 -0.2853,-0.14252 -1.27806,-0.41328 -2.22804,-0.72919 -0.47499,-0.15803 -0.94146,-0.33106 -1.29632,-0.50635 -0.35485,-0.17516 -0.60431,-0.35126 -0.64815,-0.52665 -0.0602,-0.24109 -0.10827,-0.35763 -0.18231,-0.42533 -0.074,-0.0679 -0.1623,-0.0869 -0.26332,-0.12152 -0.10103,-0.0346 -0.22338,-0.0811 -0.36459,-0.22267 -0.1412,-0.14187 -0.31183,-0.3806 -0.50637,-0.76967 -0.26397,-0.52794 -0.4536,-1.12204 -0.87096,-1.53939 -0.50248,-0.50248 -0.68889,-1.05398 -0.87096,-1.62038 -0.18208,-0.56643 -0.365,-1.1347 -0.89122,-1.6609 -0.39573,0 -0.60192,0.006 -0.76969,-0.0404 -0.16776,-0.0472 -0.2959,-0.15416 -0.54688,-0.40511 -0.43528,-0.43525 -1.0324,-0.60069 -1.64065,-0.76967 -0.60825,-0.16903 -1.21452,-0.34357 -1.64065,-0.76968 -0.17293,-0.1729 -0.49462,-0.43713 -0.99249,-0.66843 -0.49787,-0.23139 -1.17588,-0.42536 -2.08625,-0.42536 -0.970123,0 -1.560193,-0.17161 -1.964733,-0.36458 -0.40453,-0.19294 -0.62433,-0.39961 -0.89122,-0.50638 -0.42677,-0.17064 -0.77699,-0.39722 -1.05325,-0.6279 -0.27625,-0.23075 -0.48805,-0.48286 -0.64816,-0.70892 -0.3202,-0.4521 -0.44453,-0.82456 -0.50637,-0.87097 -0.44016,-0.33009 -1.12372,-0.8239 -1.82294,-1.23553 -0.69922,-0.41163 -1.40737,-0.72919 -1.90396,-0.72919 -0.80962,0 -1.50474,0.0162 -2.16728,-0.0608 -0.66254,-0.0756 -1.29213,-0.25111 -2.00523,-0.60764 -0.43602,-0.21814 -0.71862,-0.5727 -0.97224,-0.91149 -0.25363,-0.33878 -0.48344,-0.66681 -0.78994,-0.8507 -1.20893,-0.72537 -2.62896,-0.9904 -3.72691,-1.53938 -0.38759,-0.19391 -3.11029,-1.34813 -3.30155,-1.53936 -0.28808,0 -1.01385,0.0979 -1.72167,0.14188 -0.70781,0.0436 -1.38456,0.0333 -1.55962,-0.14188 -0.32431,-0.32434 -0.72263,-0.58967 -1.13428,-0.8102 -0.41165,-0.22041 -0.85135,-0.39512 -1.29631,-0.50639 -0.47607,-0.11893 -0.77813,-0.25919 -1.01275,-0.4051 -0.23462,-0.14575 -0.3866,-0.29021 -0.52662,-0.42533 -0.14004,-0.13509 -0.27357,-0.2579 -0.46587,-0.34435 -0.19229,-0.0863 -0.4593,-0.14187 -0.8507,-0.14187 -0.76938,0 -1.4337,-0.18906 -1.96473,-0.34435 -0.53103,-0.15512 -0.91251,-0.26242 -1.09377,-0.0811 -0.443,0.44301 -0.69429,0.58116 -1.03299,0.64816 -0.33871,0.0669 -0.78271,0.0553 -1.6204,0.22267 -0.29557,0.0591 -0.89333,0.34234 -1.47861,0.54688 -0.29263,0.10244 -0.56823,0.17063 -0.81019,0.20263 -0.24196,0.0323 -0.45791,0.0291 -0.56714,-0.0811 -0.43593,-0.43593 -0.95428,-0.7022 -1.49886,-0.97224 -0.54458,-0.27018 -1.09912,-0.55225 -1.55963,-1.01274 -0.15093,-0.15093 -0.22458,-0.46851 -0.30382,-0.72919 -0.0793,-0.2608 -0.17368,-0.46004 -0.36459,-0.36457 -0.58281,0.2915 -0.96012,0.46783 -1.27606,0.4051 -0.31594,-0.0627 -0.5618,-0.37417 -0.91147,-1.07353 -0.54824,-1.09647 -0.74626,-1.60761 -0.89122,-2.18752 -0.10005,-0.40022 -0.15622,-0.82794 -0.16204,-1.2153 -0.006,-0.38733 0.0387,-0.7458 0.16204,-0.99248 0.1019,-0.20392 0.11454,-0.40668 0.081,-0.6279 -0.0335,-0.22137 -0.10374,-0.46143 -0.1823,-0.68869 -0.0786,-0.22719 -0.16934,-0.44656 -0.20253,-0.66839 -0.0332,-0.2217 -10e-4,-0.44314 0.10128,-0.64816 0.18318,-0.36632 0.35483,-0.81596 0.34433,-1.2558 -0.005,-0.21976 -0.0581,-0.43144 -0.1823,-0.6279 -0.12423,-0.19649 -0.31742,-0.38151 -0.60765,-0.52665 -0.49181,-0.24594 -0.81725,-0.45407 -1.033,-0.648129 -0.21575,-0.19423 -0.32282,-0.37847 -0.36459,-0.56715 -0.0835,-0.37737 0.081,-0.78363 0.081,-1.41784 0,-0.55631 0.33842,-1.18366 0.56714,-1.74192 0.11437,-0.27922 0.20596,-0.54161 0.20253,-0.76971 -0.003,-0.22816 -0.10651,-0.42443 -0.34433,-0.56711 -0.51984,0 -0.99016,0.0404 -1.45835,0 -0.4682,-0.0404 -0.93508,-0.16805 -1.39759,-0.44563 -0.53778,-0.32253 -0.83053,-0.55573 -0.99249,-0.72918 -0.16198,-0.17355 -0.18169,-0.27793 -0.16204,-0.36458 0.0197,-0.0866 0.0739,-0.14058 0.081,-0.20263 0.007,-0.062 -0.0434,-0.14317 -0.24306,-0.24303 -0.74659,-0.3733 -1.3745,-0.9289 -1.96473,-1.51912 -0.37329,-0.3733 -0.65511,-0.8444 -0.89122,-1.31659 -0.18408,-0.36813 -0.2193,-0.87393 -0.46586,-1.27603 -0.12329,-0.20102 -0.29383,-0.3786 -0.56714,-0.50639 -0.27331,-0.12765 -0.64157,-0.20263 -1.15453,-0.20263 -1.09813,0 -2.20343,0 -3.30155,0 -0.58907,0 -0.93126,0.0291 -1.13427,0.0811 -0.20302,0.0514 -0.24869,0.1157 -0.26333,0.22267 -0.0145,0.10697 0.004,0.25854 -0.0204,0.42533 -0.0239,0.16676 -0.0932,0.3565 -0.32408,0.58741 -0.0806,0.0805 -0.536839,0.69224 -1.012742,1.27606 -0.475904,0.58382 -0.982962,1.13425 -1.19504,1.13425 -0.381342,0 -0.646725,0.0792 -0.850708,0.20263 -0.203989,0.12346 -0.345401,0.3012 -0.465862,0.46586 -0.120448,0.16482 -0.213555,0.32221 -0.344332,0.4456 -0.130789,0.12345 -0.291699,0.20263 -0.526629,0.20263 -0.36604,0 -0.72771,0 -1.093766,0 l 0.202535,-1.74192 3.969961,-2.20775 6.805653,-13.3885 -0.12152,-3.13953 c -0.14245,-0.10794 -0.28103,-0.19843 -0.42535,-0.30379 -0.537,-0.39266 -1.08714,-0.74776 -1.6609,-0.89119 -0.64249,-0.16062 -1.13557,-0.24981 -1.57988,-0.38487 -0.44431,-0.13476 -0.83863,-0.3151 -1.25581,-0.6279 -0.45851,-0.34386 -0.70265,-0.95896 -1.215295,-1.21527 -0.06118,-0.0291 -0.604191,-0.25499 -1.235549,-0.40511 -0.315679,-0.0753 -0.654372,-0.12991 -0.972235,-0.14187 z"
       id="Curico"
       inkscape:label="#path2917" />
  </g>
</svg>
