<?xml version="1.0" encoding="UTF-8" standalone="no"?>
<!-- Created with Inkscape (http://www.inkscape.org/) -->

<svg
   width="210mm"
   height="297mm"
   viewBox="0 0 210 297"
   version="1.1"
   id="svg64"
   inkscape:version="1.1.2 (b8e25be833, 2022-02-05)"
   sodipodi:docname="vector.svg"
   xmlns:inkscape="http://www.inkscape.org/namespaces/inkscape"
   xmlns:sodipodi="http://sodipodi.sourceforge.net/DTD/sodipodi-0.dtd"
   xmlns="http://www.w3.org/2000/svg"
   xmlns:svg="http://www.w3.org/2000/svg">
  <sodipodi:namedview
     id="namedview66"
     pagecolor="#ffffff"
     bordercolor="#666666"
     borderopacity="1.0"
     inkscape:pageshadow="2"
     inkscape:pageopacity="0.0"
     inkscape:pagecheckerboard="0"
     inkscape:document-units="mm"
     showgrid="false"
     inkscape:zoom="0.74029882"
     inkscape:cx="361.34057"
     inkscape:cy="669.99972"
     inkscape:window-width="1920"
     inkscape:window-height="1017"
     inkscape:window-x="-8"
     inkscape:window-y="-8"
     inkscape:window-maximized="1"
     inkscape:current-layer="layer1" />
  <defs
     id="defs61" />
  <g
     inkscape:label="Capa 1"
     inkscape:groupmode="layer"
     id="layer1">
    <path
       id="Calama"
       style="fill:#000000;fill-opacity:1;fill-rule:evenodd;stroke:#d38d5f;stroke-width:0.909648px;stroke-linecap:butt;stroke-linejoin:miter;stroke-opacity:1"
       d="m 188.93013,188.74153 c 1.48977,4.38729 2.09246,-0.87106 -1.42105,0.70397 -3.51354,1.57507 -5.69628,4.78407 -9.43904,5.67721 -3.63972,-1.78135 -10.78136,-4.97825 -8.84681,3.41886 -3.39768,6.14241 -4.59835,5.81531 -5.80256,0.39355 -2.74707,-2.12529 -6.38586,-2.18615 -9.33357,-0.76531 -2.93502,2.1899 -2.26398,8.82856 -6.54438,8.65634 -2.81813,-0.11345 -1.4993,5.48348 -1.7916,8.04994 0.30942,4.90004 -7.30096,4.07814 -4.71084,8.37883 0.78906,6.11518 -7.07388,7.20586 -10.257,6.91201 -0.46815,4.48287 -2.29572,5.97632 -8.12011,9.96266 -2.30352,1.57655 -3.868,5.6451 -7.70661,8.70984 4.47864,8.61942 -5.59562,6.84827 -2.96298,15.0192 0.1028,5.19437 -4.21762,9.31534 -1.51947,14.08419 -1.55029,4.69024 -6.62316,6.45197 -10.678472,4.62602 -4.18255,-0.89478 -4.56434,4.12063 -8.16085,4.4753 -5.1648,-0.38626 -9.97926,-2.52417 -16.8987,5.86283 l -9.6564,-5.86283 2.75896,-12.07049 c 6.08375,-6.73238 -3.28949,-11.70502 -5.8628,-11.72565 l -1.37948,-4.13845 -2.75899,-3.19879 -10.00127,-17.49349 c -9.78481,-6.99896 -24.67343,-8.89408 -27.93459,-22.41666 l 6.55257,-20.00254 -6.2077,-17.93332 9.31153,-24.83076 23.1064,-45.8679 -5.17308,-19.312799 2.06922,-28.62433 7.45749,-26.2089 6.26677,-2.17329 43.498402,-26.8597204 7.51825,22.1342704 -5.423,7.93205 2.41409,10.78593 -2.75896,25.42554 7.93205,8.96666 14.48458,9.6564 4.82822,13.450009 -3.00891,15.61415 25.08067,7.49222 12.07053,8.62179 1.03457,1.81931 c 2.236,1.28562 5.68914,4.18375 7.34837,6.11844 0.71952,0.60609 4.7815,2.09081 5.86998,6.11876 0.63886,2.364 5.81662,4.43879 2.15218,8.27348 -2.61315,6.39105 4.37822,11.24391 2.94008,17.44164 -0.26095,4.95818 -1.8255,10.31654 -0.33555,14.70383 z"
       sodipodi:nodetypes="ccccccscccsccccccccccccccccccccccccccccccccccsccc"
       inkscape:label="#path8173" />
  </g>
</svg>
