<?xml version="1.0" encoding="UTF-8" standalone="no"?>
<!-- Created with Inkscape (http://www.inkscape.org/) -->

<svg
   width="210mm"
   height="297mm"
   viewBox="0 0 210 297"
   version="1.1"
   id="svg64"
   inkscape:version="1.1.2 (b8e25be833, 2022-02-05)"
   sodipodi:docname="vector.svg"
   xmlns:inkscape="http://www.inkscape.org/namespaces/inkscape"
   xmlns:sodipodi="http://sodipodi.sourceforge.net/DTD/sodipodi-0.dtd"
   xmlns="http://www.w3.org/2000/svg"
   xmlns:svg="http://www.w3.org/2000/svg">
  <sodipodi:namedview
     id="namedview66"
     pagecolor="#ffffff"
     bordercolor="#666666"
     borderopacity="1.0"
     inkscape:pageshadow="2"
     inkscape:pageopacity="0.0"
     inkscape:pagecheckerboard="0"
     inkscape:document-units="mm"
     showgrid="false"
     inkscape:zoom="0.74029882"
     inkscape:cx="361.34057"
     inkscape:cy="453.87078"
     inkscape:window-width="1920"
     inkscape:window-height="1017"
     inkscape:window-x="-8"
     inkscape:window-y="-8"
     inkscape:window-maximized="1"
     inkscape:current-layer="layer1" />
  <defs
     id="defs61" />
  <g
     inkscape:label="Capa 1"
     inkscape:groupmode="layer"
     id="layer1">
    <path
       style="fill:#000000;fill-opacity:1;fill-rule:evenodd;stroke:#d39062;stroke-width:1.25852;stroke-linecap:butt;stroke-linejoin:miter;stroke-miterlimit:4;stroke-dasharray:none;stroke-opacity:1"
       d="m 132.79554,6.5428478 c -1.58012,3.9294302 3.24738,5.8818302 2.29978,10.4208802 -0.46386,2.20612 -1.91765,3.90299 -3.30594,5.60567 l -5.67758,7.76175 c -3.66988,-1.65587 -6.67692,-4.31206 -6.25253,-11.42701 -9.60661,-2.33064 -12.7717,0.95038 -11.35516,8.26481 -11.350208,3.98852 -6.24826,24.48059 -9.342868,36.72468 -0.75078,0.16458 -1.31899,0.30823 -1.79669,0.3596 -3.34401,0.35675 -1.28868,-2.46754 -11.64265,-13.29559 l -19.11692,-0.50325 c -4.88287,-2.58522 -4.05913,-5.17663 -3.59342,-7.76185 l -5.82131,0.3596 c -0.1329,-0.51561 -0.33363,-1.04883 -0.50306,-1.50927 -1.18623,-3.22318 -3.27026,-5.04058 -6.611868,-5.03078 1.142615,5.66189 -6.599984,7.75061 -11.85825,10.85212 -5.879708,-4.10002 -9.801851,-3.26628 -12.936269,-0.50325 l -5.677581,-7.25869 H 9.7572892 l 0.5030598,4.67137 c -6.8247998,0.72777 -8.0857218,0.67354 -7.7617678,-0.71825 -4.74106,10.27524 0.479467,17.20944 4.887041,24.43521 5.0515718,19.53142 4.5817608,15.25751 0.50306,26.73493 -3.951977,6.031392 2.3530398,11.973732 1.796697,21.991642 5.0936008,11.83931 -2.920809,7.13568 -4.671424,12.21755 0.458347,6.3106 1.741825,13.23519 -2.012314,13.58309 -1.804241,0.16743 5.633049,2.83303 2.946599,6.61188 -2.209067,3.1074 5.5982588,8.55724 6.7555998,11.71449 5.92482,10.18373 10.102641,5.31115 14.517369,2.65914 3.712651,2.49723 2.091654,8.37792 3.737148,12.43322 2.151959,5.30334 12.475106,-5.54107 15.236045,-5.31827 8.61607,0.69541 2.384434,3.17875 16.81714,11.49892 -4.29466,4.90017 -4.23444,6.33353 -5.60571,12.43322 4.1403,10.79152 2.50876,9.81889 3.23407,15.09226 3.4412,2.36651 6.77097,4.87601 10.42088,6.89938 3.4593,1.00155 7.33615,1.05635 10.92396,1.5811 4.59289,-2.13572 6.15626,7.02475 10.63648,11.78632 1.3381,1.98864 3.77823,2.97402 5.46198,4.09649 -0.32678,6.44017 0.21158,9.31288 0,15.52359 3.117888,3.11853 5.700768,6.0409 7.402418,10.06148 4.64415,4.54599 9.75108,8.21438 15.23605,11.78641 4.80732,1.5009 12.25254,-0.5375 17.17649,-0.5746 1.29514,2.05619 2.11241,2.9942 4.9589,3.809 6.67813,0.18932 14.30012,-1.13464 20.69803,0.79055 3.14846,2.16655 5.55589,3.72757 5.46198,7.68993 -1.40394,1.87191 2.40409,5.80554 3.52153,6.25247 10.55273,-2.44642 13.63254,-1.20875 19.4044,1.07804 3.27415,-0.60124 8.85266,-4.60906 14.15803,-9.77399 5.30539,-5.16501 3.86296,-4.22273 -2.2279,-4.24023 -6.09087,-0.019 -9.53385,-9.20681 -2.29979,-8.91171 -3.49585,-7.80237 8.45853,-12.78236 0.57498,-22.92593 -4.56558,-7.80056 7.16987,-7.90264 -0.28749,-21.05734 -9.00646,-4.56664 2.36715,-15.39583 -11.93011,-20.19497 -10.00957,-6.5685 0.59201,-13.34706 -11.2833,-21.34483 -8.95415,-6.46139 3.03387,-13.86049 -4.31209,-20.62611 -2.58644,-5.14894 -6.73366,-22.15612 4.02462,-15.45167 3.31836,0.82004 13.30996,7.82035 15.45165,6.68371 0.68334,-0.36246 0.60485,-1.54666 -0.79055,-4.02467 -4.16402,-3.25324 -9.12168,-12.38784 -11.13956,-16.88903 -1.43711,-3.20548 0.56461,-8.65789 -0.79055,-11.78631 -5.11214,-0.49564 -5.15458,-3.51191 -6.97122,-8.26481 -2.19782,-4.80513 -3.22393,-8.11688 2.37166,-10.1334 1.5925,-6.342942 -5.14949,-11.886302 -4.09649,-22.710362 2.7973,-5.92788 -2.76927,-16.06137 -7.9055,-15.88291 -2.09282,-2.51263 -2.73877,-8.46782 -4.38396,-11.21143 -3.07114,-5.12164 -6.46318,-7.36667 -8.91165,-12.86436 l -0.35931,-13.87057 c -0.10275,-3.85105 -3.56795,-6.73556 -5.53385,-9.27093 -3.19218,-0.87332 -4.31357,-5.61832 -4.3121,-8.6242202 -1.61216,0.48137 -4.63434,0.18361 -8.19296,-0.50325 z"
       id="Paredones"
       sodipodi:nodetypes="cccccccsccccscccccccccccssccssccccccccccccccccsscccccccscscccccsccccc"
       inkscape:label="#path1873" />
  </g>
</svg>
