<?xml version="1.0" encoding="UTF-8" standalone="no"?>
<!-- Created with Inkscape (http://www.inkscape.org/) -->

<svg
   width="210mm"
   height="297mm"
   viewBox="0 0 210 297"
   version="1.1"
   id="svg1283"
   inkscape:version="1.1.2 (b8e25be833, 2022-02-05)"
   sodipodi:docname="vector.svg"
   xmlns:inkscape="http://www.inkscape.org/namespaces/inkscape"
   xmlns:sodipodi="http://sodipodi.sourceforge.net/DTD/sodipodi-0.dtd"
   xmlns="http://www.w3.org/2000/svg"
   xmlns:svg="http://www.w3.org/2000/svg">
  <sodipodi:namedview
     id="namedview1285"
     pagecolor="#ffffff"
     bordercolor="#666666"
     borderopacity="1.0"
     inkscape:pageshadow="2"
     inkscape:pageopacity="0.0"
     inkscape:pagecheckerboard="0"
     inkscape:document-units="mm"
     showgrid="false"
     inkscape:zoom="0.52347032"
     inkscape:cx="155.69173"
     inkscape:cy="611.30496"
     inkscape:window-width="1920"
     inkscape:window-height="1017"
     inkscape:window-x="-8"
     inkscape:window-y="-8"
     inkscape:window-maximized="1"
     inkscape:current-layer="layer1" />
  <defs
     id="defs1280" />
  <g
     inkscape:label="Capa 1"
     inkscape:groupmode="layer"
     id="layer1">
    <path
       id="San_Pedro"
       style="fill:#000000;fill-opacity:1;fill-rule:evenodd;stroke:#d39062;stroke-width:0.666467px;stroke-linecap:butt;stroke-linejoin:miter;stroke-opacity:1"
       d="m 209.67144,166.31461 c -1.82326,1.04201 -3.16222,3.43512 -3.84397,5.72453 5.31281,2.42272 5.23598,11.70779 -1.00886,11.97169 -1.09893,1.67887 -2.94315,4.04429 -4.34184,5.97934 -2.01503,2.78784 -4.45711,4.68252 -7.66014,2.34435 -2.0811,2.0362 -4.44806,1.18105 -6.23337,2.31357 0.84456,-1.6134 -3.99845,-3.64988 -15.54441,7.28504 -0.13292,5.4625 -2.83819,6.93183 -6.73478,7.57283 -3.80723,0.37283 -5.41721,4.82619 -10.13398,3.0973 -2.33117,2.27441 3.10623,8.23593 -3.1733,6.66362 -4.82222,-1.22104 -11.06696,-3.97153 -14.57554,1.63 0.0386,5.16666 -7.6089,-2.75507 -9.4203,-4.58048 -3.16155,-3.01545 -4.51645,-9.89842 -2.16543,-12.06115 -6.46601,0.32651 -11.40725,-4.44381 -14.91015,-9.14233 -1.95976,3.93056 -10.487402,-0.53554 -13.806262,-2.51571 -7.1477,-1.73622 -14.97936,-1.55091 -21.50086,1.87196 -4.99584,-2.21286 -7.49258,-10.43247 -13.50435,-12.79678 -0.55291,5.07195 -1.59277,10.21605 -5.45428,13.69766 3.73372,2.31004 6.19637,7.7438 -0.13512,8.27239 -4.14538,6.09273 -6.67173,-7.75765 -10.97877,-9.28898 -3.50075,-5.64505 -10.66356,-1.06556 -13.10928,-4.7963 -2.61047,-3.98207 -9.83721,-2.3813 -12.27929,-2.32592 -1.5605,-2.54015 -1.00252,-6.47313 0.78963,-8.8712 -3.35839,-4.22204 -11.2893299,-0.0441 -15.5920599,-4.29164 -5.61538,-0.60972 3.14572,-6.18208 -2.89517,-8.2505 -4.16032,-4.96032 4.21901,-8.70402 8.29264,-9.8623 3.3165899,-3.33705 7.6354799,-5.85739 11.3429999,-8.87588 9.77124,-7.32844 19.54248,-14.65688 29.31372,-21.98533 2.513,2.23581 2.82771,5.42687 4.20616,4.02609 l 5.89092,-0.39104 0.80772,-49.273708 c 4.35033,-8.39312 9.39085,-5.23891 14.94369,1.21161 l 3.23104,-2.42327 h 8.48154 l 8.0777,6.0582 h 9.693142 c 0.003,-0.011 7.62214,-0.60497 12.11653,3.23111 5.53519,0.71379 0.87627,6.41019 -0.006,7.92128 1.78885,4.566258 5.2602,7.991278 8.06811,11.753228 0.17649,2.98363 2.30028,6.06229 3.38619,7.78429 -1.94956,5.40144 5.94647,7.37758 5.17101,12.5059 2.08336,3.88137 7.21406,6.38522 11.38028,7.5409 1.90781,-5.15584 3.92802,-5.43492 4.71997,-5.16164 1.78774,0.61689 -0.16049,-3.84551 -1.62007,-5.2298 -0.0441,-3.4997 5.86263,-1.44926 7.90821,-3.45199 3.86289,0.45887 7.9021,0.35794 11.20821,-0.86889 4.53283,0.46825 3.80751,4.84202 2.54124,7.83972 0.90799,3.43759 4.73955,3.85444 4.84853,7.53163 2.67323,2.41792 -3.75544,4.53663 0.15553,6.75771 5.33609,-0.10038 9.79016,2.17713 12.9949,6.50561 3.13442,3.23646 5.63049,6.11877 10.66969,6.43673 2.71178,-0.49583 -0.52672,4.73491 2.54599,5.55405 2.26432,1.37938 5.10642,5.19809 7.84352,5.36256 z"
       sodipodi:nodetypes="cccsccccccccccccccccscccccccccccccccccccccscccccccccc"
       inkscape:label="#path6566" />
  </g>
</svg>
