<?xml version="1.0" encoding="UTF-8" standalone="no"?>
<!-- Created with Inkscape (http://www.inkscape.org/) -->

<svg
   width="210mm"
   height="297mm"
   viewBox="0 0 210 297"
   version="1.1"
   id="svg64"
   inkscape:version="1.1.2 (b8e25be833, 2022-02-05)"
   sodipodi:docname="vector.svg"
   xmlns:inkscape="http://www.inkscape.org/namespaces/inkscape"
   xmlns:sodipodi="http://sodipodi.sourceforge.net/DTD/sodipodi-0.dtd"
   xmlns="http://www.w3.org/2000/svg"
   xmlns:svg="http://www.w3.org/2000/svg">
  <sodipodi:namedview
     id="namedview66"
     pagecolor="#ffffff"
     bordercolor="#666666"
     borderopacity="1.0"
     inkscape:pageshadow="2"
     inkscape:pageopacity="0.0"
     inkscape:pagecheckerboard="0"
     inkscape:document-units="mm"
     showgrid="false"
     inkscape:zoom="0.74029882"
     inkscape:cx="361.34057"
     inkscape:cy="345.8063"
     inkscape:window-width="1920"
     inkscape:window-height="1017"
     inkscape:window-x="-8"
     inkscape:window-y="-8"
     inkscape:window-maximized="1"
     inkscape:current-layer="layer1" />
  <defs
     id="defs61" />
  <g
     inkscape:label="Capa 1"
     inkscape:groupmode="layer"
     id="layer1">
    <path
       sodipodi:nodetypes="ccssssssssscccccccccccccccccccccccccccccccccccccccccssccscscccsccccc"
       d="m 153.63273,71.395514 c 3.54165,-3.68794 10.84664,-3.949 9.10626,-8.2095 1.32554,4.30055 3.47501,8.7251 6.40702,13.15397 1.17058,1.76822 2.48548,4.66169 2.92189,6.42991 0.43647,1.76822 4.5499,6.39778 9.14101,10.28792 4.95059,4.1947 8.60724,8.381226 8.98587,10.287926 1.66129,8.36645 2.5178,9.58836 8.18924,11.6834 7.78475,2.87563 11.78635,7.71243 10.83769,13.09973 -1.19907,6.80937 -4.60186,15.54064 -7.1912,18.45204 -2.72213,3.06076 -3.07505,5.50988 -1.7429,12.09688 1.26142,6.23734 -2.59664,11.04688 -10.44721,13.02367 -4.48292,1.12883 -6.12885,7.42294 -8.07851,10.72745 l -2.36222,-0.32614 c -5.29962,1.9155 -7.08991,5.5945 -10.55267,8.42843 -1.63301,0.1079 -3.28478,0.0243 -3.42617,6.09862 -5.36616,3.37756 -4.43145,5.63027 -11.30643,5.96156 l -5.92734,3.63176 -1.74732,4.41978 c -3.05158,0.51317 -5.67733,3.08973 -8.22288,6.13289 -0.81636,0.56425 -0.45396,1.78354 2.29558,4.38552 -1.35926,2.77263 -3.33129,4.32636 -5.17358,6.13289 l -0.27413,5.99582 c -10.29172,1.01579 -2.4272,-4.8263 -7.19499,-8.49695 l -0.92509,-3.04929 0.10256,-8.73681 h -4.8652 l -4.59111,-4.8652 -0.20559,-1.71305 -2.91228,-1.54183 -3.25488,0.2056 c -0.94786,-2.25704 -1.89585,-2.73049 -2.84373,-2.84374 l -3.56323,-1.81591 c -1.40153,3.74924 -5.3434,4.32535 -9.97021,4.04291 l -3.11779,-4.69386 c -4.54547,-1.42625 -3.33122,-6.98303 -7.195,-9.18218 -3.25805,-3.61504 3.63374,-6.28745 0.85654,-10.10726 1.48429,-5.4883 -3.95682,-6.79046 -8.08581,-7.6404 -0.45377,-1.03649 0.75211,-7.5154 3.7178,-8.28645 1.22951,-3.86784 -4.42158,-6.2197 -7.4729,-7.2121 -2.79097,-3.108 -5.63737,-6.24517 -9.2704,-8.50848 -4.07658,-2.65724 -0.46082,-7.96964 -4.52858,-10.4333 -0.30907,-7.17681 -5.10213,-8.8819 -9.45635,-8.38569 -3.39748,-1.11737 0.64334,-6.82249 -3.32938,-7.95935 -2.18841,-3.27806 -6.25775,-3.77067 -9.55303,-5.34623 -3.15948,-2.99033 -7.94686,-3.53756 -11.02937,-6.65912 -6.026414,-1.86553 -20.8749136,-7.449 -22.6406686,-7.90967 -1.76575,-0.46077 -3.01897296,-1.59981 -3.01897296,-1.59981 l 0.67177396,-2.687136 1.567494,-1.79146 2.239277,0.22407 0.671789,-3.3589 3.134982,-0.22406 c 6.4269356,-0.60989 5.8648806,1.57584 8.6088456,2.43915 2.743965,0.86331 3.042351,1.5079 5.549823,4.40817 2.507467,2.900266 5.453077,0.11957 8.268487,0.27267 8.20764,1.974306 13.3536,8.120606 20.86904,11.705956 4.0354,0.38057 8.47659,-0.43112 12.92899,-0.69762 3.79846,-0.22747 4.36757,0.58952 7.93731,2.23405 2.49642,0.41653 4.49141,-1.07926 6.67001,0.37911 4.81777,3.2246 11.54028,12.43789 15.39388,15.83071 2.26179,-0.22212 -2.93114,-3.72149 7.21304,-4.40457 -0.57939,-1.44194 2.20538,-5.83529 2.98236,-8.53107 5.74187,-0.13901 6.95726,-4.70772 8.66747,-9.43512 0.76994,-2.12828 4.02263,-2.84238 5.74181,-4.17277 1.12544,-10.413856 10.15198,4.48209 10.1306,-4.370986 3.40065,-2.44543 1.41701,-10.93455 7.93868,-8.48475 6.03437,2.20391 -2.38166,-6.4548 6.47866,-4.48409 -0.28968,-8.45661 11.19527,-3.46242 9.25105,-14.00776 z"
       style="fill:#000000;fill-opacity:1;fill-rule:evenodd;stroke:#d38d5f;stroke-width:1.28599;stroke-linecap:butt;stroke-linejoin:miter;stroke-miterlimit:4;stroke-opacity:1"
       id="Los_Andes" />
  </g>
</svg>
