<?xml version="1.0" encoding="UTF-8" standalone="no"?>
<!-- Created with Inkscape (http://www.inkscape.org/) -->

<svg
   width="210mm"
   height="297mm"
   viewBox="0 0 210 297"
   version="1.1"
   id="svg1283"
   inkscape:version="1.1.2 (b8e25be833, 2022-02-05)"
   sodipodi:docname="vector.svg"
   xmlns:inkscape="http://www.inkscape.org/namespaces/inkscape"
   xmlns:sodipodi="http://sodipodi.sourceforge.net/DTD/sodipodi-0.dtd"
   xmlns="http://www.w3.org/2000/svg"
   xmlns:svg="http://www.w3.org/2000/svg">
  <sodipodi:namedview
     id="namedview1285"
     pagecolor="#ffffff"
     bordercolor="#666666"
     borderopacity="1.0"
     inkscape:pageshadow="2"
     inkscape:pageopacity="0.0"
     inkscape:pagecheckerboard="0"
     inkscape:document-units="mm"
     showgrid="false"
     inkscape:zoom="0.52347032"
     inkscape:cx="155.69173"
     inkscape:cy="458.47872"
     inkscape:window-width="1920"
     inkscape:window-height="1017"
     inkscape:window-x="-8"
     inkscape:window-y="-8"
     inkscape:window-maximized="1"
     inkscape:current-layer="layer1" />
  <defs
     id="defs1280" />
  <g
     inkscape:label="Capa 1"
     inkscape:groupmode="layer"
     id="layer1">
    <path
       d="m 2.6304752,98.394547 c -0.236635,2.768643 0.999634,4.964753 2.546814,7.220323 0.485901,2.84621 -2.394829,4.12474 -0.616122,7.21541 1.068489,2.01369 1.880738,6.83245 -1.871215,5.95745 -4.271376,-0.32416 0.0029,4.20723 -0.904175,6.54764 0.6273,2.59684 1.335069,5.16025 2.775401,7.42041 -0.305043,2.96313 3.375103,4.27564 3.436984,7.08675 1.233307,2.14123 3.6140178,3.80717 2.9585608,6.73074 1.138888,2.60208 4.232466,3.11258 5.550803,2.36713 -0.819336,3.13873 2.585154,4.41927 4.676394,5.08301 3.685098,-0.42364 7.825649,0.9747 11.131372,-0.96577 1.060888,-1.20553 4.057141,-3.27019 6.516187,-2.77546 1.998933,-3.58942 6.521386,-0.40687 9.291556,-2.77545 2.561949,1.18954 4.389023,-0.002 6.72632,0.33086 1.961006,2.1267 4.758003,2.47131 7.618581,2.44459 0.79798,1.69311 1.68942,4.467 3.27294,6.0186 -0.16857,2.65764 2.58657,4.10428 1.81006,7.01376 -2.70467,1.4577 -1.83104,4.45213 -0.96532,6.51623 -1.80854,1.95702 -0.0637,5.40035 -1.81006,7.3311 -2.03556,1.65599 -3.05316,3.90285 -2.77541,6.57737 -0.898702,3.10599 1.16526,5.09587 3.21568,6.34488 2.37025,2.15866 -0.0481,3.94432 1.72184,5.9987 2.1228,1.56109 4.71125,1.71289 7.56918,1.50196 2.10952,-0.88081 4.3677,-1.08648 6.42364,0.96577 2.31022,0.0112 5.96272,0.5846 6.38959,-2.25077 1.8253,-1.73816 4.96301,-3.3699 7.41327,-1.79505 1.94996,0.6472 5.493574,-1.58904 5.277844,-3.87379 0.2809,-2.71901 -2.753124,-5.71434 0.68855,-7.73205 1.9885,-2.72616 0.32986,-3.69506 -0.5011,-5.1702 0.26626,-2.76886 3.40846,-4.22064 4.39797,-1.03395 -0.45528,2.6401 5.30422,1.7727 6.54315,0.47059 1.51385,-1.08201 -2.30388,-6.70279 2.31203,-5.52375 1.46191,-1.07419 4.70929,-2.50473 5.63516,-1.27349 -1.2582,-2.44012 4.69168,0.72768 4.0928,-3.4326 1.96885,-4.2572 3.92542,1.19479 6.28113,-0.7914 1.46123,-2.22908 0.0648,-4.22712 3.85518,-1.98406 0.60852,-4.32068 2.44619,-2.31314 2.30572,0.85734 1.24417,2.68268 0.11714,5.54868 -0.37502,8.02781 -0.55486,3.11191 0.76345,5.44808 0.84471,8.29653 1.35993,3.75083 2.31985,0.52647 5.03689,0.1006 1.88476,-2.00888 4.16718,-2.78239 7.03013,-2.44471 1.27822,1.72508 -2.30027,3.94611 2.03019,2.36266 2.08102,-3.10565 1.28274,1.18999 4.45624,0.41246 2.56512,0.22691 5.55984,2.17175 7.85845,0 2.45731,0.6785 4.92359,1.33844 7.85836,0.96577 1.67378,2.40402 5.47402,1.52041 5.8816,4.91624 2.54896,1.42808 3.08984,4.42273 6.68465,3.41002 2.79525,-0.14308 3.81446,3.48603 6.72523,3.61223 3.2595,0.75562 5.1369,1.39242 4.29561,-1.89073 3.56126,-2.98862 2.76028,2.94771 5.98337,0.26268 2.02134,0.82604 4.53897,0.39905 6.63056,1.75671 3.44131,-0.29957 2.05349,-1.38986 0.12854,-4.44912 2.20558,2.29749 4.22985,-1.69512 0.50613,-2.39787 -0.75506,-2.72694 -5.8642,-2.00307 -5.00997,-4.58548 0.50714,-1.09767 -5.37957,-0.12408 -5.54384,-3.69987 1.10627,-2.14793 0.25486,-5.0032 -0.64585,-7.42298 0.31353,-3.4174 -3.88566,-3.78749 -4.27737,-5.75759 -0.41839,-2.75142 0.86952,-6.27703 -0.70409,-8.50421 -1.32803,-2.92613 2.05,-5.45501 -1.61139,-7.25028 -2.63706,-1.601 -4.56815,1.73704 -5.70695,-1.96618 -1.77093,-1.43334 -4.79739,-1.63476 -5.85459,-3.54695 0.57711,-2.99779 -0.32237,-5.25191 -2.77541,-7.01376 -2.94938,0.18779 -4.38982,-2.7303 -5.69042,-4.62047 -2.33343,-2.03638 -4.2759,-5.00577 -6.84439,-6.48114 -3.10805,0.54995 -5.51944,-0.75562 -8.38737,-0.84504 -3.17384,-0.39011 -4.57985,-0.1129 -7.26065,-0.3521 -1.95416,-1.28959 -4.17172,-2.25513 -5.87713,-4.12977 -2.98193,0.2012 -5.44096,-0.9054 -7.25892,-3.53208 -2.24754,-1.7566 -2.56118,-4.31409 -5.01841,-5.98372 1.06681,-4.80983 -2.813,-0.73439 -5.14415,-0.84505 -2.88912,1.69467 -6.87192,0.47841 -10.26033,0.84505 -2.5229,0.57677 -5.06923,1.09878 -6.79033,3.61167 -1.63256,2.91551 -5.20685,2.13429 -7.186214,0.43258 -1.64931,-2.03314 -4.57234,-3.83735 -6.6801,-3.60429 -2.3034,1.26086 -4.84532,1.07642 -6.65602,3.30048 -3.25456,1.0373 -4.1566,-2.48361 -7.0571,-0.30404 -2.94799,0.70532 -6.43797,0.1006 -9.59535,0.30404 -2.21622,-2.89272 -5.03301,1.2584 -7.77933,-0.20903 -3.221969,-0.49629 -4.190338,-2.93832 -5.247505,-5.40012 -2.062791,-1.95411 -5.636928,-0.41917 -8.33509,-0.90653 -3.749248,0.23362 -7.923232,-0.46835 -11.406347,0.35211 -2.374877,1.22844 -4.402615,3.33546 -7.114001,3.38867 -2.409494,-0.73997 -4.631559,-2.92122 -7.360885,-2.77546 -2.889818,-1.18977 -5.766491,2.89025 -7.640511,-0.41246 -1.49802,-2.26485 -0.904399,-5.0943 -3.296289,-6.73767 -0.27341,-2.53748 -3.7873748,-3.24101 -5.2776268,-4.916463 -1.090957,0 -2.181948,0 -3.272949,0 z"
       style="fill:#000000;fill-opacity:1;stroke:#d39062;stroke-width:1.47874;stroke-miterlimit:4;stroke-dasharray:none;stroke-opacity:1"
       id="San_Pablo" />
  </g>
</svg>
