<?xml version="1.0" encoding="UTF-8" standalone="no"?>
<!-- Created with Inkscape (http://www.inkscape.org/) -->

<svg
   width="210mm"
   height="297mm"
   viewBox="0 0 210 297"
   version="1.1"
   id="svg57"
   inkscape:version="1.1.2 (b8e25be833, 2022-02-05)"
   sodipodi:docname="vector.svg"
   xmlns:inkscape="http://www.inkscape.org/namespaces/inkscape"
   xmlns:sodipodi="http://sodipodi.sourceforge.net/DTD/sodipodi-0.dtd"
   xmlns="http://www.w3.org/2000/svg"
   xmlns:svg="http://www.w3.org/2000/svg">
  <sodipodi:namedview
     id="namedview59"
     pagecolor="#ffffff"
     bordercolor="#666666"
     borderopacity="1.0"
     inkscape:pageshadow="2"
     inkscape:pageopacity="0.0"
     inkscape:pagecheckerboard="0"
     inkscape:document-units="mm"
     showgrid="false"
     inkscape:zoom="0.74029882"
     inkscape:cx="361.34057"
     inkscape:cy="453.87078"
     inkscape:window-width="1920"
     inkscape:window-height="1017"
     inkscape:window-x="-8"
     inkscape:window-y="-8"
     inkscape:window-maximized="1"
     inkscape:current-layer="layer1" />
  <defs
     id="defs54" />
  <g
     inkscape:label="Capa 1"
     inkscape:groupmode="layer"
     id="layer1">
    <path
       inkscape:connector-curvature="0"
       id="Alto_Biobio"
       style="fill:#000000;fill-opacity:1;fill-rule:evenodd;stroke:#d39062;stroke-width:0.409444;stroke-linecap:butt;stroke-linejoin:miter;stroke-miterlimit:4;stroke-dasharray:none;stroke-opacity:1"
       d="m 98.721926,42.779224 c -0.32912,0.581165 -0.68399,1.139157 -1.10038,1.663366 -0.49346,0.621216 -1.03197,1.211104 -1.61219,1.791317 -0.24426,0.244213 -0.55472,0.414269 -0.89566,0.511806 -0.34092,0.09755 -0.72169,0.131942 -1.12597,0.127965 -0.80855,-0.008 -1.69725,-0.163964 -2.55902,-0.307074 -0.86177,-0.143109 -1.68062,-0.262064 -2.32872,-0.179151 -0.32403,0.04146 -0.59829,0.115782 -0.81888,0.281481 -0.22061,0.165699 -0.40243,0.407035 -0.48622,0.742118 -0.23431,0.93725 -0.66153,2.760591 -0.89566,4.529472 -0.11705,0.88444 -0.19002,1.756926 -0.15355,2.507842 0.0364,0.750921 0.19387,1.375937 0.48621,1.765729 0.8326,1.110133 1.27316,1.822753 1.48423,2.354301 0.21105,0.531548 0.18605,0.869868 0.0512,1.202738 -0.13486,0.33288 -0.38335,0.66302 -0.58858,1.17716 -0.20525,0.51413 -0.38385,1.22783 -0.38385,2.30312 0,0.68035 0.35395,1.40272 0.81889,2.14958 0.46492,0.74686 1.04252,1.52 1.561,2.22635 0.51848,0.70635 0.96531,1.36045 1.12597,1.91927 0.0803,0.27941 0.0863,0.51966 0,0.74211 -0.0862,0.22247 -0.25872,0.43645 -0.56298,0.58858 -0.34993,0.17496 -2.13737,0.80686 -3.88972,1.38188 -1.752345,0.57501 -3.475442,1.07722 -3.736174,0.94683 -2.198746,-1.09937 -2.91684,-1.38922 -3.608224,-1.40746 -0.691388,-0.0182 -1.359527,0.23034 -3.429094,0.23029 -1.130722,0 -2.881412,-0.15872 -4.427113,-0.0254 -0.772851,0.0666 -1.480779,0.2064 -2.047219,0.48621 -0.283215,0.1399 -0.52368,0.32172 -0.716528,0.5374 -0.192858,0.2157 -0.332795,0.4612 -0.409447,0.76771 -0.141671,0.56667 -0.400055,1.19807 -0.716529,1.79132 -0.316465,0.59324 -0.69127,1.1591 -1.151559,1.61218 -0.46029,0.45308 -0.987917,0.77506 -1.561006,0.92125 -0.573089,0.1462 -1.213199,0.0971 -1.868089,-0.2303 -1.704424,-0.85221 -2.622846,-1.20403 -3.1476,-1.25392 -0.26236,-0.025 -0.435809,0.0258 -0.537395,0.12797 -0.101568,0.10199 -0.148905,0.25525 -0.179151,0.43503 -0.06045,0.35957 -0.04683,0.82652 -0.35826,1.20274 -0.155716,0.18812 -0.389522,0.36761 -0.742118,0.48621 -0.352591,0.11862 -0.845352,0.17916 -1.484235,0.17916 -1.033764,0 -1.78537,0.10639 -2.354301,0.30707 -0.568931,0.20068 -0.948516,0.50066 -1.253923,0.89566 -0.610815,0.78999 -0.898743,1.95101 -1.663366,3.48027 -0.453563,0.90712 -0.835568,2.16813 -1.279512,3.37791 -0.221961,0.60489 -0.446875,1.21165 -0.716524,1.74014 -0.269637,0.52849 -0.570522,0.97996 -0.921252,1.33069 -0.77871,0.77872 -1.700732,1.76961 -2.917285,2.43108 -0.608281,0.33072 -1.29494,0.58413 -2.072811,0.69094 -0.777872,0.10681 -1.648243,0.0677 -2.635795,-0.17916 -0.769043,-0.19226 -1.522739,-0.58343 -2.251942,-1.0236 -0.729203,-0.44018 -1.441653,-0.93451 -2.0984,-1.35629 -0.656747,-0.42179 -1.265231,-0.7586 -1.816907,-0.89565 -0.275812,-0.0685 -0.524251,-0.10377 -0.767706,-0.0512 -0.243451,0.0526 -0.48395,0.17687 -0.69094,0.38385 -1.019293,1.0193 -2.298585,1.96523 -3.198779,2.91729 -0.450103,0.47604 -0.795499,0.97145 -0.972429,1.45864 -0.176909,0.48719 -0.181732,0.96724 0.07674,1.48424 0.317734,0.63545 0.552014,1.20577 0.690935,1.74013 0.138922,0.53437 0.17691,1.03972 0.102373,1.53542 -0.07458,0.4957 -0.26583,0.990376 -0.588577,1.509826 -0.322726,0.51944 -0.776255,1.05775 -1.381871,1.66336 -0.219043,0.219 -1.255332,1.35888 -2.226353,2.53344 -0.971021,1.17455 -1.868097,2.40558 -1.868089,2.76374 0,0.70832 0.09556,1.39955 0.255888,2.07281 0.160327,0.67326 0.368667,1.3123 0.61417,1.91927 0.490971,1.21394 1.077911,2.2582 1.458642,3.01965 0.346542,0.69311 0.587561,1.28573 0.716529,1.79131 0.12898,0.5056 0.145224,0.93599 0.05119,1.35631 -0.09404,0.42048 -0.291634,0.81665 -0.614165,1.25393 -0.322557,0.43724 -0.748637,0.90214 -1.305101,1.45863 -0.688178,0.68818 -1.528662,1.7309 -2.507847,2.5846 -0.489597,0.42688 -1.026792,0.79766 -1.586595,1.07478 -0.559797,0.27709 -1.163006,0.46064 -1.791317,0.46064 -1.242384,0 -3.002622,0.11379 -4.606243,-0.0512 -0.801815,-0.0825 -1.574056,-0.24409 -2.20076,-0.51178 -0.626704,-0.26777 -1.107218,-0.65344 -1.381876,-1.20274 -0.328902,-0.65785 -0.756403,-1.24442 -1.2027413,-1.71457 -0.446334,-0.47015 -0.92563,-0.83014 -1.356283,-0.9724 -0.430653,-0.14214 -0.818503,-0.0698 -1.100378,0.25593 -0.281862,0.32573 -0.460624,0.90861 -0.460624,1.84248 0,2.34361 0.160538,3.38679 0.307074,4.35035 0.146536,0.96357 0.281482,1.85582 0.281482,3.86413 0,1.27001 0.466432,2.73143 0.69094,4.09446 0.11227,0.68149 0.160961,1.31912 0.07674,1.91927 -0.08418,0.6001 -0.318665,1.16315 -0.767706,1.61219 -0.39096,0.39087 -1.752848,1.89723 -3.224371,2.99405 -0.216632,0.16159 -0.422053,0.19416 -0.639758,0.33249 0.03215,0.0296 0.07043,0.0465 0.102372,0.0766 0.551202,0.51888 1.061358,1.1247 1.433053,1.86808 0.168703,0.33758 0.236852,0.65061 0.255888,0.97241 0.01904,0.32192 -0.03003,0.64418 -0.127965,0.94686 -0.195776,0.60535 -0.581778,1.18151 -1.0492,1.68897 -0.934831,1.01488 -2.157831,1.79955 -2.610202,2.25193 -0.66752595,0.66749 -1.07836395,1.10913 -1.27951195,1.43304 -0.201149,0.32404 -0.194,0.51554 0,0.74212 0.387999,0.45318 1.50379595,0.9664 3.04523695,2.50786 0.591673,0.59164 0.938118,1.02579 1.151564,1.38185 0.213458,0.35619 0.285076,0.63488 0.307074,0.94686 0.04404,0.62392 -0.09201,1.34658 0.307074,2.94286 0.322726,1.29086 0.48628,2.17875 0.639754,2.81494 0.153473,0.63619 0.279916,1.02313 0.537394,1.27952 0.257453,0.25636 0.644826,0.3858 1.279512,0.53737 0.634691,0.15145 1.529791,0.31854 2.8149303,0.63979 0.524276,0.13113 1.119811,0.62299 1.740136,1.27948 0.620324,0.65653 1.259156,1.47496 1.868088,2.32871 1.217873,1.70759 2.312849,3.49 2.840518,4.01769 0.84122,0.84122 1.798336,1.5599 2.763747,2.20074 0.965412,0.64089 1.935752,1.20482 2.840514,1.79135 0.904767,0.58648 1.720609,1.18988 2.379894,1.86808 0.659285,0.67815 1.152905,1.43841 1.381872,2.3543 0.216547,0.86623 0.436803,1.52793 0.69094,2.02164 0.254111,0.49367 0.54451,0.80299 0.895659,0.998 0.351153,0.19502 0.771915,0.26016 1.279512,0.23013 0.507592,-0.0296 1.119025,-0.15187 1.842495,-0.3325 0.850628,-0.21278 1.597881,-0.31642 2.251942,-0.30712 0.654061,0.008 1.216596,0.14468 1.663365,0.38369 0.44677,0.23901 0.769272,0.59828 0.998019,1.07478 0.228772,0.47653 0.35826,1.06979 0.35826,1.79134 -9e-6,0.63297 -0.444092,1.30723 -0.588576,2.22634 -0.07221,0.45953 -0.06172,0.99047 0.102372,1.5866 0.164091,0.59613 0.492731,1.27115 1.074789,2.04723 0.6481,0.86411 1.009402,1.47374 1.22833,1.97045 0.218916,0.49668 0.277674,0.87981 0.281481,1.25389 0.0041,0.37396 -0.02834,0.75764 -0.02538,1.25393 0.0025,0.4963 0.04019,1.10715 0.255888,1.97046 0.13761,0.55039 1.276106,2.02455 2.610206,3.3523 0.667047,0.6639 1.372962,1.27665 2.047218,1.74016 0.674256,0.46351 1.304462,0.76771 1.791318,0.76771 1.055626,0 1.799596,0.29569 2.559024,0.58855 0.759428,0.29316 1.53051,0.5886 2.712566,0.5886 0.38618,0 0.740831,0.0846 1.0492,0.23012 0.308385,0.14553 0.5716,0.35365 0.818888,0.6142 0.494568,0.52129 0.90343,1.22355 1.253919,2.02159 0.350477,0.79808 0.657915,1.67763 0.998023,2.50786 0.340112,0.83023 0.713758,1.63407 1.177148,2.25194 0.294553,0.39257 0.670047,0.50475 1.125971,0.48622 0.455924,-0.0169 0.969828,-0.18274 1.509828,-0.38368 0.539997,-0.20136 1.116593,-0.43322 1.663366,-0.5886 0.546769,-0.15525 1.084764,-0.22124 1.561001,-0.10237 0.360249,0.0901 0.703805,0.48847 1.023612,1.07478 0.319807,0.58631 0.611775,1.33926 0.87007,2.12397 0.516577,1.56946 0.879614,3.23699 1.023607,3.81298 0.289265,1.15706 0.410166,1.87688 0.409446,2.3543 -7.15e-4,0.47739 -0.110325,0.73463 -0.255888,0.94682 -0.145605,0.21236 -0.340873,0.38072 -0.486212,0.74211 -0.145352,0.36127 -0.255888,0.91755 -0.255888,1.84249 0,0.53953 0.08084,0.99068 0.230337,1.3819 0.149497,0.3913 0.370274,0.70641 0.639754,0.97241 0.538934,0.53203 1.282524,0.82815 2.123989,0.99804 0.841465,0.16963 1.779414,0.21236 2.686977,0.20474 0.907567,-0.008 1.796191,-0.0512 2.533435,-0.0512 0.745341,0 1.429669,0.22928 2.02163,0.5886 0.591956,0.35957 1.078063,0.85611 1.458642,1.40744 0.380596,0.55137 0.656485,1.13896 0.767707,1.71457 0.111213,0.57561 0.06256,1.12876 -0.153559,1.561 -0.08033,0.16075 1.333266,1.07288 2.866107,2.07283 1.532845,0.9999 3.18599,2.08132 3.582636,2.61019 0.356526,0.4754 0.523236,1.03777 0.588576,1.63779 0.06536,0.59997 0.03173,1.25211 0,1.89367 -0.03173,0.64152 -0.06536,1.26806 0,1.86808 0.06536,0.59998 0.23203,1.16239 0.588577,1.63778 0.671963,0.89593 1.20849,1.84465 1.868086,2.78931 2.40763,-0.9719 4.31633,-3.98385 6.5511,-5.65543 3.20901,-3.01279 2.12015,-0.17767 5.11805,-0.58856 2.14787,-0.29442 6.174474,-0.15651 7.088504,0.3325 0.88495,0.47362 5.1272,-0.58508 7.77943,-0.71652 5.40835,-0.2682 4.54761,2.00176 5.62986,5.34835 1.49971,4.64347 4.93748,3.49318 8.49596,-1.25393 0.75919,-1.01526 3.41108,-2.409 10.54326,-1.53541 4.57374,0.5603 7.82398,1.82599 8.87977,1.56101 1.1512,-0.28893 6.23305,-0.17768 8.1377,0.79329 3.27801,1.67125 6.50156,2.82184 9.82666,2.58461 2.423,-0.17302 3.21749,-3.11622 5.80902,-5.09247 1.81695,-1.38587 5.11666,-2.40545 7.16527,-2.40545 2.73542,0 5.84752,1.36587 11.4388,6.80699 6.61039,6.4329 4.30481,8.0294 8.31687,5.93695 1.28999,-0.67282 4.03081,-4.27082 5.27159,-4.27357 2.45781,-0.004 6.50599,0.45492 7.57472,-1.22834 1.10697,-1.74469 0.57191,-5.87777 -0.74216,-7.75385 -0.67698,-0.96648 -3.49198,-1.55305 -5.06687,-2.07282 -1.57505,-0.51977 -3.53145,-4.83184 -3.53145,-5.24598 0,-1.19399 -6.35629,-4.60137 -7.98416,-5.11806 -1.08421,-0.34392 2.12567,-3.4194 0.99806,-6.37199 -4.21924,-11.04286 -0.76255,-12.33635 -2.6102,-14.84231 -1.30179,-1.76562 -4.3248,-4.41388 -4.3248,-6.55114 0,-3.28847 1.83488,-4.13545 -2.27749,-5.19479 -1.06029,-0.27327 -5.91401,-2.06339 -7.1909,-3.1732 -2.26332,-1.96702 -2.96208,-5.17652 -3.17319,-14.17697 -0.23224,-9.90197 2.85104,-4.87562 -2.43103,-12.56483 -3.41223,-4.96708 -4.81367,-9.30491 -7.08854,-8.98218 -13.11801,1.33185 -12.91476,0.39807 -11.4388,-1.12597 0.69048,-0.71313 1.46212,1.55437 6.34638,-3.27557 1.28672,-1.27267 1.45836,-3.1188 3.73618,-3.65938 6.23247,-1.47945 6.88578,-5.37103 1.94486,-8.18888 -1.33021,-0.75857 -4.1941,-3.40197 -4.93896,-5.27157 -0.71792,-1.80159 -3.32141,-5.6611 -4.1968,-6.60229 -1.47015,-1.58059 1.43657,-2.22608 2.58465,-4.42713 2.22648,-4.26942 0.99323,-4.71106 -3.01965,-8.64952 -2.75572,-2.70442 -4.20376,-4.88847 -4.93895,-8.06092 -0.6439,-2.77837 0.30314,-4.48909 -1.81687,-6.16725 -4.94297,-3.911616 -7.39529,-7.396786 -2.27758,-10.952626 1.14473,-0.79542 0.4174,-5.05087 -0.12792,-8.62391 -1.44443,0 -3.34515,0.19599 -5.11805,0.15356 -0.88685,-0.0211 -1.73023,-0.1138 -2.48229,-0.30708 -0.75215,-0.19328 -1.39547,-0.49943 -1.86805,-0.97243 -0.56642,-0.56643 -0.70023,-0.95853 -0.97251,-1.50982 -0.27285,-0.55128 -0.6832,-1.24622 -1.81686,-2.37989 -0.70654,-0.70643 -1.82875,-1.44031 -2.84056,-2.25194 -0.50648,-0.40581 -0.99651,-0.81904 -1.38188,-1.27951 -0.38592,-0.46048 -0.65978,-0.9502 -0.79325,-1.48424 -0.29413,-1.17673 -0.87482,-2.33716 -1.43306,-3.45468 -0.55831,-1.11752 -1.09436,-2.20202 -1.35632,-3.24996 -0.30775,-1.22883 -0.71505,-1.99022 -1.15152,-2.50785 -0.43655,-0.51763 -0.90225,-0.7942 -1.40751,-1.02361 -0.50582,-0.2294 -1.0476,-0.42911 -1.56096,-0.7933 -0.51344,-0.36418 -0.99765,-0.89496 -1.45868,-1.8169 -0.25543,-0.50978 -0.39422,-1.087191 -0.46063,-1.688961 -0.0671,-0.601767 -0.0671,-1.232557 -0.10237,-1.816907 -0.0351,-0.58435 -0.0957,-1.129088 -0.25589,-1.586595 -0.16066,-0.457501 -0.42762,-0.827953 -0.87007,-1.0492 -1.66122,-0.829866 -2.90519,-1.648123 -4.01777,-2.481758 -1.11259,-0.833635 -2.08284,-1.677279 -3.22438,-2.533436 -0.58477,-0.43858 -1.08734,-0.939531 -1.53541,-1.458642 -0.44807,-0.519111 -0.85042,-1.065487 -1.25392,-1.612184 -0.40348,-0.546701 -0.80288,-1.090842 -1.25392,-1.612187 -0.45105,-0.521345 -0.9447,-1.0156 -1.53542,-1.458642 -1.06747,-0.800606 -1.75218,-1.131648 -2.22635,-1.177153 -0.23706,-0.02284 -0.43934,0.0313 -0.58858,0.127965 -0.14924,0.09666 -0.25656,0.239644 -0.35826,0.409446 -0.20339,0.339647 -0.35902,0.77118 -0.61416,1.125971 -0.12759,0.177417 -0.28521,0.348827 -0.48621,0.460624 -0.20098,0.111806 -0.42739,0.179151 -0.74212,0.179151 -0.497854,0 -0.914814,-0.09032 -1.228334,-0.230295 -0.22552,-0.10068 -0.36287,-0.258891 -0.51181,-0.409446 z" />
  </g>
</svg>
