<?xml version="1.0" encoding="UTF-8" standalone="no"?>
<!-- Created with Inkscape (http://www.inkscape.org/) -->

<svg
   width="210mm"
   height="297mm"
   viewBox="0 0 210 297"
   version="1.1"
   id="svg64"
   inkscape:version="1.1.2 (b8e25be833, 2022-02-05)"
   sodipodi:docname="vector.svg"
   xmlns:inkscape="http://www.inkscape.org/namespaces/inkscape"
   xmlns:sodipodi="http://sodipodi.sourceforge.net/DTD/sodipodi-0.dtd"
   xmlns="http://www.w3.org/2000/svg"
   xmlns:svg="http://www.w3.org/2000/svg">
  <sodipodi:namedview
     id="namedview66"
     pagecolor="#ffffff"
     bordercolor="#666666"
     borderopacity="1.0"
     inkscape:pageshadow="2"
     inkscape:pageopacity="0.0"
     inkscape:pagecheckerboard="0"
     inkscape:document-units="mm"
     showgrid="false"
     inkscape:zoom="0.74029882"
     inkscape:cx="361.34057"
     inkscape:cy="345.8063"
     inkscape:window-width="1920"
     inkscape:window-height="1017"
     inkscape:window-x="-8"
     inkscape:window-y="-8"
     inkscape:window-maximized="1"
     inkscape:current-layer="layer1" />
  <defs
     id="defs61" />
  <g
     inkscape:label="Capa 1"
     inkscape:groupmode="layer"
     id="layer1">
    <path
       id="La_Serena"
       style="fill:#000000;fill-opacity:1;fill-rule:evenodd;stroke:#d38d5f;stroke-width:1.5359;stroke-linecap:butt;stroke-linejoin:miter;stroke-miterlimit:4;stroke-dasharray:none;stroke-opacity:1"
       d="m 8.257449,81.870797 c -2.20229,11.330451 -1.0593,23.312563 -5.88294,34.095083 -2.46130996,6.09998 -2.28634996,7.17114 1.89875,11.62596 2.53538,2.69881 4.60979,6.54468 4.60979,8.54636 0,2.00171 1.73278,10.41673 6.51202,9.58725 7.56446,-1.31288 7.11765,5.39918 6.79031,17.59577 -0.26529,9.88556 3.44485,13.60086 -0.54509,16.40025 -2.69246,1.88904 -2.27752,7.41804 -2.27752,10.34181 l 11.48659,0.98688 13.85793,11.85648 v 3.39282 h 14.05599 l 7.27038,8.23972 -1.45408,24.71918 11.14787,-5.33159 0.96937,7.27034 -2.90817,7.75503 6.78566,7.27035 9.76861,3.55923 c 5.95486,-3.39735 8.12215,-10.17808 12.269521,-15.42327 -1.0943,-6.57767 3.98616,-11.65978 5.0974,-17.81049 -3.96102,-6.0426 5.52274,-4.24888 4.36935,-8.61595 -7.93366,-6.15045 6.17167,-9.31536 1.93874,-15.99475 -7.92094,-5.52635 4.83218,-10.96662 -0.67134,-17.42913 5.67988,-2.77923 8.43126,-11.15539 4.23333,-15.98362 -6.53129,-0.12852 -3.20376,-5.13125 0.61533,-6.89789 7.05682,-2.5411 -4.39558,-6.11518 2.35763,-8.79783 6.61048,-3.04753 13.78171,-5.1133 20.90546,-6.45658 8.98633,-1.63939 -0.4435,-11.46388 6.45948,-15.10538 5.05701,-5.77071 5.47688,-8.216 11.39134,-12.4868 -2.61148,-5.77114 -0.0174,-10.39386 5.92038,-12.07343 1.44758,-6.46077 8.4669,-4.8118 11.59329,-9.304262 3.05185,-6.6465 13.34888,-2.65031 18.69828,-6.78785 5.34946,-4.13754 13.35766,5.04476 13.67333,-2.97014 0.31579,-8.014892 -1.2299,-20.754948 -11.11287,-21.994711 -8.97565,-1.567367 -22.93737,2.975102 -26.49884,-8.575724 -6.5368,-6.178972 -11.60983,-13.548864 -19.68008,-17.017446 -6.11188,-8.672627 -15.66699,4.345122 -20.34435,8.835293 -4.33591,7.529946 -17.12856,14.5969 -23.89676,4.705786 -2.3931,-6.451336 -7.16043,-9.760769 -11.190011,-2.480129 -6.54511,0.741655 -9.82846,5.05947 -14.76554,9.459223 -2.59343,10.304504 -16.03978,1.718319 -19.28296,10.938738 -6.23925,3.731792 -9.42142,13.85414 -19.17157,10.784639 -1.34287,10.296121 -17.62808,-0.02148 -17.94312,9.553191 -2.51913,11.724642 -12.72984,-2.82175 -11.70974,-9.18387 -2.81785,1.11711 -5.24816,1.71754 -5.34104,-0.798541 z"
       sodipodi:nodetypes="ccsssssccccccccccccccccccccccccccccccccccccccc" />
  </g>
</svg>
