<?xml version="1.0" encoding="UTF-8" standalone="no"?>
<!-- Created with Inkscape (http://www.inkscape.org/) -->

<svg
   width="210mm"
   height="297mm"
   viewBox="0 0 210 297"
   version="1.1"
   id="svg1283"
   inkscape:version="1.1.2 (b8e25be833, 2022-02-05)"
   sodipodi:docname="vector.svg"
   xmlns:inkscape="http://www.inkscape.org/namespaces/inkscape"
   xmlns:sodipodi="http://sodipodi.sourceforge.net/DTD/sodipodi-0.dtd"
   xmlns="http://www.w3.org/2000/svg"
   xmlns:svg="http://www.w3.org/2000/svg">
  <sodipodi:namedview
     id="namedview1285"
     pagecolor="#ffffff"
     bordercolor="#666666"
     borderopacity="1.0"
     inkscape:pageshadow="2"
     inkscape:pageopacity="0.0"
     inkscape:pagecheckerboard="0"
     inkscape:document-units="mm"
     showgrid="false"
     inkscape:zoom="0.74029882"
     inkscape:cx="361.34057"
     inkscape:cy="561.93525"
     inkscape:window-width="1920"
     inkscape:window-height="1017"
     inkscape:window-x="-8"
     inkscape:window-y="-8"
     inkscape:window-maximized="1"
     inkscape:current-layer="layer1" />
  <defs
     id="defs1280" />
  <g
     inkscape:label="Capa 1"
     inkscape:groupmode="layer"
     id="layer1">
    <path
       d="m 85.296421,90.251127 c -2.43736,0.60622 -3.7627,1.8876 -4.22216,3.97143 -0.31459,2.77244 -4.03673,1.74893 -4.95651,3.09612 3.59452,0.15729 1.92713,1.48842 2.10457,2.747953 1.0196,0.92004 3.81329,2.26425 4.96298,2.851 -2.19377,0.22276 -0.75586,1.84746 -2.84539,3.32891 -1.03677,1.34634 -0.76436,5.09824 -1.86031,6.58402 -0.29928,2.56779 -4.73647,2.67406 -6.99613,4.04294 -5.49215,2.17081 -10.98439,4.3417 -16.47663,6.51252 -2.01862,-2.11751 -1.56562,-3.4051 -4.21298,-4.85551 -1.11559,0.85168 -2.60061,0.79242 -4.27267,-0.78476 -1.64911,-1.63142 -2.92029,-2.02296 -4.7562,-2.80406 -1.70505,-1.51376 -4.05254,0.65978 -5.11542,1.12604 -0.7414,1.87043 -2.23407,1.98818 -4.22216,3.83038 -1.39566,-0.57646 -3.73082,-2.48914 -5.64027,-1.51902 -1.47702,0.73715 -4.57101,2.78297 -4.91519,1.51902 -2.22004,0.7261 -3.413,-4.07448 -4.95642,-1.46852 -1.91736,2.64133 -2.07304,-0.14284 -4.77958,0 -2.4302998,0.25422 -4.8933298,-3.50261 -4.3990998,1.04094 -2.34349,0.88917 0.1794,4.01496 -1.37678,5.29227 -1.75054,1.01908 -1.88538,3.63975 -2.84538,4.95651 0.0425,2.03196 -2.63257,3.40398 -2.11112,6.15635 2.2151,1.86541 2.16264,2.50895 2.84538,3.75658 0.034,3.09331 1.06466,1.86456 2.75364,4.22216 -0.93346,3.09349 1.46733,4.87872 2.83884,6.97012 0.4905898,2.57501 0.3009798,4.7925 -0.0425,5.64596 0.8597598,2.24393 -2.70484,3.82103 -0.68358,5.49046 -0.64193,1.35501 -0.23042,4.1964 0,5.11541 -0.55095,2.1476 -1.0497,3.36165 -2.11113,5.69077 0.22871,2.93662 0.0425,4.88246 -1.37678,6.81682 -1.24814,1.03643 -2.20278,3.95426 0.48378,2.27003 0.37836,1.59223 -2.91884,1.67827 -3.32891,3.329 -0.48803,1.14339 -2.39774,4.58521 0,5.84968 -2.19385,0.83577 -1.71942,2.33915 -2.11104,4.06325 1.11984,1.07886 -1.290821,2.90499 0.7346,4.45496 0.80772,1.6844 1.20877,3.77605 2.59465,4.88263 0.18705,2.53862 -0.24656,3.48884 1.62752,1.37678 -0.50759,-3.37355 2.25175,-2.5774 4.17174,-4.17166 1.8359898,-0.51695 1.8737398,-3.05735 3.8629398,-1.42729 1.05642,0.56626 2.50479,3.49649 3.73864,2.11104 0.76351,1.28088 5.67198,1.23666 5.84968,-0.48378 2.13757,0.15134 4.26017,-1.53076 5.59903,-0.25082 1.65489,-1.47302 3.94116,-0.22956 5.43995,-1.37678 2.48149,-0.034 3.35731,-1.67683 5.44004,-2.11112 0.63597,-2.04022 4.91434,-0.7397 6.10049,-1.86031 0.91587,-0.90881 -2.18254,-3.09918 0.64278,-3.73864 2.36747,-1.25315 3.46104,-2.80874 6.71368,-2.11112 1.28428,1.18267 4.19581,1.6406 6.68707,1.37678 1.69256,-1.48281 5.09774,-0.74566 6.1743,-2.11104 1.53152,-1.8524 4.54721,0.49653 5.84976,-0.7346 2.61293,0.30353 6.0074,0.068 5.59895,-2.82736 0.34604,-2.66233 -1.45985,-5.53663 0,-7.31829 -1.14986,-1.57488 2.24546,-2.91535 0.3707,-5.68464 0.43872,-0.53565 3.62828,-3.65345 3.85172,-1.55984 -2.08443,2.41483 3.92747,2.10194 1.79271,-0.59686 -2.18875,-1.47286 0.0425,-2.76495 -0.66573,-4.20015 0.738,-1.8217 -2.07499,-1.80886 0.34179,-3.14594 0.42087,-0.0255 1.07682,-3.59061 3.23717,-3.57973 1.96429,0.62152 -0.79581,2.14174 1.71934,1.95214 0.84598,2.76818 2.97955,-2.45063 4.22217,-0.48379 1.68643,-1.29456 3.86175,1.98801 4.86468,-1.21778 1.90409,-0.35115 1.88624,3.41427 5.820429,1.8603 1.58143,1.27561 4.17668,1.19152 4.82677,3.07818 0.51694,1.744 1.10555,4.2265 3.4879,4.4729 2.0715,-0.45062 3.46614,0.81962 4.95651,-0.48378 3.02708,-0.48378 1.83846,4.22038 5.59894,2.84538 0.8998,1.82162 4.12694,1.31599 6.78757,1.37678 2.34494,-0.5739 1.18455,-2.81766 1.9075,-3.4879 -0.11818,-1.08592 1.64009,-2.48616 3.32891,-3.57965 2.66301,0.22957 3.40662,-1.46027 4.22225,-3.07818 0.5433,-1.14908 3.88224,-3.07894 4.22216,-3.25511 3.30936,-0.29758 4.21962,0.017 7.83973,0 2.68537,0.12754 1.21056,-3.90417 3.44999,-4.22216 0.65213,-2.06453 2.10228,-2.33712 3.434,-4.89895 0.48123,-1.00208 4.29605,-3.22612 4.61803,-1.09238 2.57782,1.6878 3.61221,0.051 6.62254,0.39281 1.29975,-1.89041 3.2455,-1.12494 4.80874,0 1.49522,1.94949 3.21353,0.29248 4.95651,1.37678 2.63351,0.40811 3.25987,-2.16869 4.4729,-3.48791 0.068,-2.28882 3.82,-0.89172 3.4879,-3.57964 0.44297,-1.72027 2.99061,-4.08281 1.6276,-0.64278 -0.57221,0.97479 3.019,3.53136 3.97143,1.37678 1.35731,-0.3979 2.56549,-3.1944 4.79743,-1.37678 2.73299,-0.085 3.23879,2.05654 5.83183,2.11113 2.49406,-0.93339 5.09569,2.39867 6.35123,1.62751 1.11269,-1.88471 0.95651,-5.80988 0,-7.06755 -1.6935,-1.68312 0.81452,-6.49764 -2.43575,-6.58402 -1.803,-0.58666 -3.98418,-1.54402 -5.70803,-3.18726 -2.08111,-0.68444 -4.12422,-1.10258 -5.98486,-2.40607 -0.40726,1.28342 -2.52026,4.74233 -2.85185,2.10542 -2.05815,-1.26361 -3.98299,-2.84904 -6.28278,-3.52922 -2.34494,-0.48888 -4.27965,-2.72312 -5.64945,-2.16154 -1.60184,-1.05395 -2.87243,-2.38745 -3.48791,-3.97135 -2.1249,-1.09612 -3.69595,-1.98291 -6.71377,-1.6276 -2.03392,-0.7482 -1.62989,-3.37865 -3.68277,-4.22216 -0.82133,-1.18438 -2.60265,-2.68027 -4.45496,-2.84539 -1.15598,-1.57463 -2.97292,-1.72588 -3.45534,-4.17175 0.52289,-2.3775 1.5322,-3.72511 1.32636,-6.3837 1.85724,-0.85262 -1.22298,-3.760493 -0.32394,-5.320413 2.38685,-2.85576 -0.7142,-0.50419 -3.1638,-1.0128 -1.71661,1.14135 -4.21289,1.50313 -7.19729,1.37678 -2.62611,-0.68954 -6.05612,0.99265 -7.58033,0.25082 -2.06461,-0.55435 -3.03906,-2.19955 -6.23024,-1.62751 -2.66326,0.15899 -4.29001,-1.40467 -5.79382,-2.11113 -2.12804,-0.68443 -4.45325,-1.59359 -5.28053,-1.09824 -0.39621,-1.18344 -5.71789,0.562 -6.49271,-1.01288 -2.86298,1.07324 -2.07295,1.73183 -0.25082,3.07818 -1.92517,0.91289 -4.95523,-1.09298 -2.27003,1.7865 0.3741,1.80368 2.15627,4.979983 -0.13263,6.716493 -0.50164,2.51354 1.09849,5.64792 1.36878,8.38941 0.83408,3.89856 1.66824,7.79721 2.50232,11.69578 -2.70697,1.50151 -2.74302,0.94274 -4.22216,-0.64277 -2.48098,-0.66489 -3.78694,-1.08677 -5.29839,-2.45301 -1.86533,-1.35612 -4.21987,-1.03941 -5.09808,-2.50342 -0.78306,-1.41138 -2.60766,-1.78174 -3.73863,-2.84547 -0.172599,-2.49203 -0.595169,-0.87293 -2.111129,-2.59457 -1.31658,-1.13395 -2.82566,-2.16196 -4.17166,-3.68822 -1.84857,-2.11503 -0.39281,-2.19402 -0.051,-4.82999 -2.60809,0.9225 -1.80088,-1.15181 -1.37678,-3.487913 -3.36777,-0.95982 1.92373,-2.67882 -1.46861,-3.02223 -0.76096,-2.08519 -0.61472,-4.61386 -1.37678,-5.44003 -1.72707,-0.67849 -3.25928,2.07941 -4.22216,-0.89326 z"
       style="fill:#000000;fill-opacity:1;stroke:#d39062;stroke-width:1.12479;stroke-miterlimit:4;stroke-dasharray:none;stroke-opacity:1"
       id="Dalcahue" />
  </g>
</svg>
