<?xml version="1.0" encoding="UTF-8" standalone="no"?>
<!-- Created with Inkscape (http://www.inkscape.org/) -->

<svg
   width="210mm"
   height="297mm"
   viewBox="0 0 210 297"
   version="1.1"
   id="svg57"
   inkscape:version="1.1.2 (b8e25be833, 2022-02-05)"
   sodipodi:docname="vector.svg"
   xmlns:inkscape="http://www.inkscape.org/namespaces/inkscape"
   xmlns:sodipodi="http://sodipodi.sourceforge.net/DTD/sodipodi-0.dtd"
   xmlns="http://www.w3.org/2000/svg"
   xmlns:svg="http://www.w3.org/2000/svg">
  <sodipodi:namedview
     id="namedview59"
     pagecolor="#ffffff"
     bordercolor="#666666"
     borderopacity="1.0"
     inkscape:pageshadow="2"
     inkscape:pageopacity="0.0"
     inkscape:pagecheckerboard="0"
     inkscape:document-units="mm"
     showgrid="false"
     inkscape:zoom="0.74029882"
     inkscape:cx="361.34057"
     inkscape:cy="453.87078"
     inkscape:window-width="1920"
     inkscape:window-height="1017"
     inkscape:window-x="-8"
     inkscape:window-y="-8"
     inkscape:window-maximized="1"
     inkscape:current-layer="layer1" />
  <defs
     id="defs54" />
  <g
     inkscape:label="Capa 1"
     inkscape:groupmode="layer"
     id="layer1">
    <path
       inkscape:connector-curvature="0"
       id="San_Rosendo"
       style="fill:#000000;fill-opacity:1;fill-rule:evenodd;stroke:#d39062;stroke-width:1.54304;stroke-linecap:butt;stroke-linejoin:miter;stroke-miterlimit:4;stroke-dasharray:none;stroke-opacity:1"
       d="m 207.66972,181.75919 c -0.90233,-0.89755 -2.07839,-1.84261 -2.79675,-2.7003 -1.67585,-2.00108 -2.8669,-3.93519 -3.37546,-5.88286 -0.50856,-1.94751 -0.31725,-3.94922 0.57871,-6.07576 0.89595,-2.12638 2.47711,-4.40597 5.0148,-6.94366 1.62276,-1.62276 2.24929,-3.02186 2.12176,-4.33981 -0.12754,-1.31842 -0.93263,-2.51489 -2.31466,-3.7611 -2.7636,-2.49257 -7.53863,-5.07538 -12.34427,-8.67961 -2.72039,-2.04029 -4.50943,-4.32243 -5.78641,-6.65447 -1.27697,-2.33203 -2.11888,-4.71174 -2.8932,-7.23301 -0.77479,-2.52127 -1.48741,-5.10727 -2.7003,-7.71526 -1.21321,-2.60784 -2.905,-5.31596 -5.49722,-7.90801 -1.52089,-1.52089 -3.96325,-5.59781 -6.65431,-9.64412 -1.34552,-2.02308 -2.77698,-4.03962 -4.1469,-5.68996 -1.36944,-1.65018 -2.64179,-2.96032 -3.85771,-3.5682 -0.84813,-0.42406 -1.60204,-0.38261 -2.21805,-0.0957 -0.61537,0.28536 -1.08886,0.83218 -1.54321,1.6395 -0.90871,1.61495 -1.6352,4.07708 -2.3145,6.65431 -0.67914,2.57722 -1.40292,5.2906 -2.41111,7.32946 -0.50378,1.0203 -1.04422,1.90398 -1.73596,2.5074 -0.6903,0.60421 -1.4635,0.86885 -2.41095,0.86885 -6.3361,0 -12.37121,-0.97407 -18.51647,-2.0253 -6.14543,-1.0506 -12.4573,-2.1216 -19.38454,-2.1216 -1.85233,0 -3.66991,0.42087 -5.5935,1.06016 -1.92376,0.64088 -3.9285,1.47785 -5.88286,2.41095 -3.908894,1.86588 -7.785264,3.97154 -11.572824,4.91851 -2.98679,0.7461 -5.57836,1.55916 -7.71527,2.1216 -2.1369,0.56276 -3.85197,0.84813 -5.2077,0.5787 -1.35509,-0.26942 -2.34623,-1.049 -2.98966,-2.79675 -0.64406,-1.74839 -0.9645,-4.4184 -0.9645,-8.29381 0,-1.14147 -0.32204,-2.23989 -0.96451,-3.18256 -0.64248,-0.94218 -1.57988,-1.74249 -2.7003,-2.50756 -2.24021,-1.53046 -5.32791,-2.72262 -8.48672,-3.66465 -6.3176,-1.88406 -13.0792,-2.76343 -15.14117,-3.27901 -2.86913,-0.7174 -5.18108,-1.8654 -7.23301,-3.18255 -2.05193,-1.31683 -3.91718,-2.8457 -5.88286,-4.24336 -1.7087,-1.2148 -3.62671,-2.27369 -5.78641,-3.18255 -3.54078,2.13004 -15.16461,8.35391 -15.62327,8.58332 -1.7082201,0.8545 -2.9770701,2.18457 -3.8577201,3.85755 -0.88001,1.67298 -1.37103,3.62464 -1.6395,5.68996 -0.53566,4.13048 -0.0478,8.627 0.5787,11.76572 0.54523,2.72581 0.35233,4.64063 -0.1929,6.07576 -0.54522,1.4348 -1.41408,2.42785 -2.3145,3.47191 -0.90074,1.04422 -1.79302,2.11203 -2.31466,3.66465 -0.11159,0.31884 0.0797,0.98523 0,1.35031 1.5464,-0.26464 3.27279,-0.36348 4.53271,-0.86726 4.14005,-1.65592 6.3445501,6.76495 7.4259101,11.09056 1.1606,4.64287 5.10648,4.62916 -5.5935001,4.62916 -0.90234,-0.55479 -1.39655,-0.45116 -2.21821,-0.86726 0.18334,0.26783 0.29493,0.72697 0.48146,0.96451 0.94059,1.18929 1.9389,1.98035 2.98965,2.5074 2.1013501,1.05379 4.4655901,0.93262 7.0401101,0.28856 3.64983,-0.9119 6.85247,-0.87364 9.74057,-0.96451 2.88795,-0.0957 5.49291,-0.28696 8.00446,-1.54321 2.8441,-1.42205 4.22454,-2.09386 5.97931,-1.92886 1.75477,0.1658 3.85389,1.15582 7.90817,3.18256 3.62192,1.81088 7.31447,3.51367 10.60831,5.49705 3.29399,1.98338 6.20935,4.32498 8.39042,7.23301 2.06261,2.75037 2.9388,4.93159 4.1469,7.23302 1.20843,2.30158 2.75275,4.6816 5.97931,7.90816 2.33108,2.33108 5.71866,4.73757 9.06526,6.94366 3.34676,2.20609 6.58767,4.1933 8.58332,5.68996 1.32002,0.99001 2.36041,2.35292 3.08595,3.85771 0.72537,1.50495 1.17494,3.16183 1.54321,4.91835 0.73813,3.5132 0.99958,7.27749 1.735954,10.22267 0.14348,0.56435 0.32204,1.01552 0.48146,1.54321 6.36846,-0.0319 12.74362,-0.12754 19.09518,0 10.87455,0.20884 21.73092,0.77639 32.50041,2.12176 0.97247,0.12754 2.15683,-0.56436 3.5682,-1.73596 1.41089,-1.17175 3.03062,-2.8111 4.82206,-4.5327 1.79143,-1.72161 3.77034,-3.48594 5.88286,-5.01497 2.11251,-1.52886 4.37631,-2.78176 6.75075,-3.3753 7.259,-1.81486 10.93449,-1.87289 13.88748,-2.50756 1.47625,-0.31725 2.82896,-0.85131 4.24336,-1.73579 1.41408,-0.8848 2.89001,-2.21502 4.91835,-4.24352 1.63009,-1.62993 3.23006,-2.76773 4.82206,-3.66465 1.59263,-0.89755 3.22831,-1.54799 5.11141,-1.92885 0.28537,-0.0638 0.86248,-0.0478 1.15741,-0.0957 z" />
  </g>
</svg>
