<?xml version="1.0" encoding="UTF-8" standalone="no"?>
<!-- Created with Inkscape (http://www.inkscape.org/) -->

<svg
   width="210mm"
   height="297mm"
   viewBox="0 0 210 297"
   version="1.1"
   id="svg1283"
   inkscape:version="1.1.2 (b8e25be833, 2022-02-05)"
   sodipodi:docname="vector.svg"
   xmlns:inkscape="http://www.inkscape.org/namespaces/inkscape"
   xmlns:sodipodi="http://sodipodi.sourceforge.net/DTD/sodipodi-0.dtd"
   xmlns="http://www.w3.org/2000/svg"
   xmlns:svg="http://www.w3.org/2000/svg">
  <sodipodi:namedview
     id="namedview1285"
     pagecolor="#ffffff"
     bordercolor="#666666"
     borderopacity="1.0"
     inkscape:pageshadow="2"
     inkscape:pageopacity="0.0"
     inkscape:pagecheckerboard="0"
     inkscape:document-units="mm"
     showgrid="false"
     inkscape:zoom="0.52347032"
     inkscape:cx="155.69173"
     inkscape:cy="611.30496"
     inkscape:window-width="1920"
     inkscape:window-height="1017"
     inkscape:window-x="-8"
     inkscape:window-y="-8"
     inkscape:window-maximized="1"
     inkscape:current-layer="layer1" />
  <defs
     id="defs1280" />
  <g
     inkscape:label="Capa 1"
     inkscape:groupmode="layer"
     id="layer1">
    <path
       d="m 209.46659,94.280653 c -0.24998,-0.0554 -0.47933,-0.14954 -0.73161,-0.19954 -1.87314,-0.37024 -3.82303,-0.61972 -5.62005,-1.16391 -1.56988,-0.30449 -3.13615,-0.44186 -4.72216,-0.53208 -1.58595,-0.0901 -3.16249,-0.10855 -4.75539,-0.0995 -3.18583,0.018 -6.38531,0.10945 -9.54407,-0.1662 -1.54429,-0.76044 -3.43464,-1.69649 -5.08798,-2.79339 -0.82664,-0.54847 -1.58383,-1.13225 -2.22806,-1.76252 -0.64419,-0.63026 -1.17451,-1.31805 -1.49646,-2.02853 0.43195,-0.71769 0.46244,-1.30742 0.26619,-1.829 -0.19638,-0.52158 -0.6254,-0.95186 -1.09739,-1.39669 -0.47199,-0.44501 -0.96857,-0.87597 -1.36345,-1.36346 -0.39501,-0.48743 -0.66679,-1.04649 -0.63184,-1.69599 -1.09185,0.32745 -2.15537,0.38285 -3.19245,0.23287 -1.03704,-0.14999 -2.05849,-0.48911 -3.02616,-0.96439 -1.93535,-0.9506 -3.71728,-2.41846 -5.28751,-3.75781 -1.35895,-0.94164 -2.61083,-2.12528 -3.92402,-3.19241 -0.65661,-0.5336 -1.3135,-1.0446 -2.02853,-1.46321 -0.71504,-0.41844 -1.47448,-0.75823 -2.2946,-0.96439 -2.03777,1.25004 -5.30129,3.13998 -7.9146,4.68891 -0.29682,0.55451 -0.42699,1.33089 -0.49879,2.16154 -0.0716,0.83066 -0.10405,1.7037 -0.23287,2.42761 -0.12881,0.72386 -0.36348,1.32872 -0.83137,1.56294 -0.23377,0.1171 -0.52618,0.14368 -0.8979,0.0667 -0.3716,-0.077 -0.81868,-0.27926 -1.36341,-0.5986 -1.9357,-0.90525 -3.7575,-1.98516 -5.62005,-3.02616 -1.86256,-1.041 -3.76746,-2.0225 -5.78631,-2.76015 -1.09477,-0.50987 -2.09434,-1.16707 -3.02615,-1.89552 -0.93187,-0.72841 -1.79222,-1.54083 -2.62712,-2.39432 -0.64818,-0.6626 -1.27044,-1.34061 -1.89551,-2.02853 -1.16163,1.00812 -2.2959,2.05078 -3.65801,2.82667 -3.92062,2.78045 -8.82478,2.87009 -13.40162,2.72685 -2.85649,2.05282 -9.293534,2.42112 -11.506104,6.48467 -2.56857,5.14104 -8.11367,5.82243 -13.13557,6.65092 -5.30292,-0.44095 -5.18515,6.092 -6.28513,9.57731 0.0974,5.293277 2.75155,9.906477 4.09032,14.898067 0.17012,5.07694 4.29033,7.00485 5.15447,12.27097 -0.13283,4.29263 6.43056,10.31022 1.829,12.76976 2.83831,1.16856 3.16023,5.25166 6.58442,4.48938 2.6512,-0.7276 3.97389,0.77097 5.62003,2.56061 2.36126,3.79181 6.351424,4.42987 10.109414,5.85282 3.99121,1.21203 7.47675,4.2653 11.90515,3.89078 3.26575,1.1541 5.35883,4.41042 8.77924,5.22098 3.78723,1.05024 5.88895,5.06636 9.81009,5.75307 4.69796,2.03664 10.04038,2.65145 14.36598,5.487 2.34815,2.91869 4.78945,5.89913 8.64622,6.78392 0.76318,1.98088 0.218,4.86854 3.658,4.38961 4.25817,-0.0878 8.10391,2.12159 11.04052,5.05474 -1.52623,2.26811 3.70989,4.29309 0.4324,5.85278 -4.07643,2.06128 -7.3591,-4.89398 -10.5085,-3.0594 -1.05194,2.72416 -6.06028,6.37432 -2.22802,8.54645 -1.24603,2.49733 -0.62279,4.7544 2.26131,5.42047 -1.82405,0.80544 -3.52589,2.2219 -2.46084,3.62476 -1.06893,-0.93073 -2.3513,-2.33279 -2.49413,-3.69124 -1.40016,-3.81015 -5.87778,-4.70724 -7.34924,-0.36573 -2.30032,3.35302 -2.73028,8.29732 -6.35167,10.50845 -2.07587,2.8309 0.75184,6.82721 -0.29907,10.17591 -1.6369,-0.11891 -3.70845,-5.06888 -4.2566,-7.41577 -1.34913,0.40357 -3.39005,4.80093 -6.31838,3.59152 -0.4742,-4.6041 6.88838,-3.24691 6.38486,-6.6842 -3.3496,-3.85961 3.66291,-3.35181 3.35874,-6.78393 0.30358,-3.68723 5.34467,-4.41298 6.91694,-7.58206 0.35853,-3.17628 3.86857,-3.30911 4.09035,-6.41814 2.01237,-4.87732 -3.76006,-6.7361 -6.71744,-9.04524 -2.61065,-2.63412 -6.1411,-2.12852 -9.07852,-3.62476 -2.27293,-3.29055 -4.69671,-6.92797 -8.94552,-7.78159 -5.32498,-0.98087 -1.61694,5.42588 -3.15916,8.18061 0.72665,3.13723 5.39881,4.77895 5.38723,7.51558 -3.91311,1.72631 -5.96994,-4.00004 -8.71269,-5.65329 -3.94938,0.67441 -2.64106,-2.71096 -1.96203,-4.98821 -1.88095,-4.05684 -6.51865,-5.37084 -9.74361,-8.08085 -3.42634,-1.20892 -5.8461,-5.15798 -9.87662,-4.02383 -0.10301,2.63002 -0.79202,6.23271 0.36579,8.77922 1.40275,3.16795 3.01767,6.33621 3.9573,9.67712 1.96324,2.77145 3.67165,5.89584 5.95257,8.64617 2.6764,3.4958 -2.19236,6.71497 -0.96438,9.94314 2.95957,1.48317 -1.38366,7.72448 -0.89787,3.05944 0.15791,-3.52198 -2.98294,-3.27817 -3.82429,-0.4324 -3.67198,3.18975 -1.44197,-2.22433 0.49882,-2.99292 5.06851,-2.33143 1.7658,-7.25862 -1.0974,-9.94313 -2.95849,-1.57078 -1.98155,5.57136 -5.52027,4.68891 -4.491984,1.20787 -1.98581,-2.49048 -0.69835,-4.62239 4.35272,-0.63157 4.21021,-4.88268 1.36344,-7.48229 -0.24912,-0.39006 -2.38593,4.86173 -1.76249,0.63184 1.82874,-3.27154 -2.843734,-9.249 -5.154474,-4.38961 -2.44401,4.72607 -1.88107,-5.35516 1.33019,-3.99059 -0.44659,-2.29324 -5.29179,-3.00967 -4.75541,-4.62238 2.44179,-0.90556 4.7828,-4.03982 0.69834,-4.42285 -1.60862,-2.2587 1.82702,-2.50971 2.95966,-1.86229 -2.37577,-2.2359 -5.99032,-3.47698 -9.27803,-3.4917 -3.37574,-0.18963 -7.46102,1.80508 -5.68655,5.7863 -1.10882,2.26829 -6.14023,-2.9141 -7.14974,1.5297 -2.50842,2.6787 0.28079,4.48654 2.99292,4.12359 1.75927,1.57344 2.06578,4.89372 5.35399,3.75777 2.58232,-0.24683 5.95789,2.26887 4.05706,4.62238 -1.98643,-1.94016 -5.99421,-2.67528 -7.51554,-0.29952 1.41993,1.78296 6.00257,3.83857 4.3231,6.28513 -3.55062,-1.34444 -5.911,-4.43924 -9.17828,-6.21861 -2.17502,-1.21161 2.05487,-4.78705 -1.72923,-4.62238 -3.55662,0.76985 -4.15872,-3.65512 -6.75069,-5.15451 -1.72117,-3.25744 -5.71313,-1.51551 -8.11413,-3.72448 -2.28257,-2.23063 -6.09796,-0.41168 -7.98111,-3.05944 -2.08873,-2.78438 -5.27424,-3.54598 -8.51319,-3.49175 -2.0551,-2.31563 -3.63339,-5.12902 -6.08559,-7.14971 -2.13318,-2.82694 -5.97168,-2.34878 -8.91224,-2.99292 -1.806624,-3.57247 -5.808665,-2.43593 -8.579695,-4.19008 -1.350956,-1.22895 -4.893556,-2.48381 -2.194805,0.29908 1.115336,3.18376 4.34974,4.77017 6.251869,7.24952 -1.556508,-0.84034 -3.554689,-3.34839 -4.622389,-1.72923 -2.377308,-2.09101 -1.208553,4.01 -0.332541,5.15446 1.230453,2.78261 1.565981,8.31245 5.786306,7.48229 5.232735,-0.59387 10.255775,1.71847 15.496655,1.49646 3.39709,0.61473 8.11613,-0.68598 10.20917,2.82662 0.97433,2.91482 3.14588,6.53309 0.59858,9.21153 -0.96821,3.92086 3.98897,4.02198 6.05234,3.19245 -0.98198,2.97896 1.35242,4.61919 3.32547,6.75069 1.63988,3.31573 5.23123,3.01044 8.24714,4.02383 3.65126,1.31269 6.24009,4.28705 10.0429,5.25422 1.72053,1.03997 3.6333,1.49016 5.58677,1.86224 0.47992,0.0959 -4.6215,-0.7298 -3.45848,1.59623 0.5409,1.08181 2.76841,1.23026 2.92641,1.86229 -5.305,1.67221 -9.89853,-9.14735 -14.33274,-6.38491 0.36628,1.46511 0.29079,2.70988 1.06415,4.2566 0.74737,1.49475 2.49541,1.79842 3.45848,3.72453 2.25665,0.95479 4.15567,-0.25719 4.22334,2.66033 -0.24471,0.24458 -4.51873,-0.79804 -5.28749,-0.79809 -1.75515,-1.74306 -5.4203,-3.46004 -4.78867,-6.11884 0.16359,-0.40898 -3.15819,-1.4461 -3.45848,-1.59623 -0.30092,-0.15043 -0.15611,-2.57786 -1.33018,-3.45846 -2.41931,-1.14595 -5.12804,-0.57329 -7.68182,-1.29697 -0.82607,-0.41303 1.02209,-1.76437 0.79811,-2.66033 -0.42069,-1.68276 -2.06311,-1.7795 -3.45848,-2.12831 -3.10481,-0.39771 -6.35675,-6.56907 -6.61767,-6.91697 -0.26093,-0.34772 -3.30672,2.17892 -3.62475,4.05706 -0.31804,1.87814 -3.91751,2.31523 -2.16155,4.78868 0.94941,2.17492 -0.82814,3.6262 -1.96202,5.12122 -0.67955,1.60397 0.32483,3.52526 -1.06416,4.8884 -1.31447,1.97142 1.24111,3.41964 2.39434,4.65567 0.94891,1.85193 2.9603,2.61615 4.22333,4.15684 -0.30966,1.70774 -3.86411,2.1519 -4.6889,0.29907 -1.20021,-1.88994 -2.29732,-4.22656 -4.58913,-4.95492 -0.84362,1.01415 -0.46779,2.75172 -1.82901,4.0903 -0.80034,0.75463 1.30266,4.55032 -0.23277,3.59152 -0.7315,-2.45404 -2.50175,-4.95668 -1.29693,-7.58206 1.15285,-2.44733 2.74694,-4.70485 2.99291,-7.48229 0.78669,-2.52116 2.74665,-4.36655 2.72688,-7.183 -0.0198,-2.81644 -2.17163,0.0523 -2.46084,-1.62946 -0.28926,-1.68167 3.66834,-2.17078 3.25895,-4.82192 1.23897,-3.38685 4.96727,-5.50389 5.78631,-8.87899 -1.67239,-3.66813 -6.12458,-0.88885 -7.78159,1.36345 -3.52789,2.31671 -2.54611,-1.82697 -3.39197,-3.75781 -3.635486,-0.39591 -8.621274,-1.1155 -11.838643,0.49884 0.933418,4.3152 -6.864167,3.57251 -4.38961,7.41576 3.115881,2.74537 0.434245,6.13763 -0.7316,9.07852 0.336505,2.91158 1.641862,7.52513 0.199534,9.77689 -2.918631,-2.41183 -0.180977,-8.50194 -5.2209774,-8.94551 -1.810583,0.38871 -4.629352,-0.61112 -6.916961,-0.83138 0.0663,0.0581 0.133458,0.10765 0.199534,0.16621 1.006993,0.8911 1.979818,1.78923 2.760135,2.69361 0.780317,0.90439 1.355618,1.79784 1.596221,2.69362 0.872103,1.98034 1.443837,4.16787 2.228059,6.18537 0.392131,1.00875 0.830782,1.9625 1.396697,2.85991 0.5659144,0.89736 1.2580764,1.72198 2.1282964,2.42756 1.140618,0.65787 2.40409,1.03212 3.658005,1.26368 1.25392,0.23152 2.516127,0.31259 3.691264,0.36574 1.175142,0.0536 2.254899,0.0761 3.159189,0.19953 0.904293,0.12342 1.620435,0.35628 2.061788,0.79814 -0.13044,0.52104 -1.035968,1.51686 -1.330184,2.62709 -0.147105,0.55514 -0.142556,1.1277 0.199534,1.69599 0.34209,0.56829 1.010146,1.13748 2.19481,1.62947 3.365229,1.50524 4.247019,2.19555 4.954939,2.29459 0.70791,0.0991 1.24896,-0.39321 3.9573,-1.26368 2.79413,-1.20121 5.59294,-1.99561 7.68182,-2.66038 1.04444,-0.3324 1.90234,-0.62945 2.49409,-0.9311 0.59175,-0.30177 0.9098,-0.62445 0.86462,-0.96438 1.024,-0.11531 1.95385,-0.49676 2.79339,-0.99767 0.83954,-0.5009 1.59265,-1.1064 2.32782,-1.69599 0.73518,-0.58955 1.45065,-1.1486 2.16155,-1.5297 0.71091,-0.38105 1.42808,-0.59 2.19481,-0.46555 2.00922,-0.25764 4.25239,-0.19908 6.51791,0 2.26552,0.19908 4.54193,0.55334 6.55116,0.86462 1.34551,0.30763 2.61109,0.82525 3.79102,1.46317 1.17994,0.63797 2.27694,1.38363 3.32547,2.09506 1.04852,0.71143 2.04164,1.40057 2.99291,1.92877 0.95128,0.5282 1.87198,0.90948 2.76013,0.99762 1.85787,0.39276 4.0644,0.49095 6.28513,0.4324 2.22073,-0.0586 4.43799,-0.29998 6.31838,-0.53207 1.07409,0.1653 2.09507,0.055 3.09268,-0.23287 0.99761,-0.28781 1.96569,-0.72715 2.9264,-1.2304 0.960724,-0.50325 1.929744,-1.08225 2.893164,-1.56298 0.96341,-0.48069 1.92071,-0.87705 2.9264,-1.09739 0.59442,-0.0482 1.17479,0.0225 1.69599,0.1662 0.5212,0.14188 0.99394,0.35267 1.4632,0.63184 0.93855,0.55861 1.80186,1.33562 2.66037,2.1283 0.85851,0.79273 1.71162,1.58898 2.66037,2.19483 0.47438,0.30313 0.9676,0.55433 1.49646,0.73161 0.52886,0.17701 1.09137,0.30043 1.69599,0.29907 0.43591,0.42294 0.94278,0.73769 1.49645,0.99767 0.55368,0.25989 1.17465,0.46443 1.79575,0.59856 1.24222,0.26845 2.54779,0.31169 3.75778,0.29953 1.21002,-0.0135 2.31754,-0.0703 3.09271,-0.0667 0.77516,0.004 1.22612,0.0824 1.16392,0.39907 0.33916,-0.0576 1.96151,2.83469 3.82424,5.75306 0.93142,1.45921 1.92702,2.9195 2.85991,4.02383 0.46645,0.55217 0.91079,1.00407 1.33022,1.33017 0.41933,0.3261 0.78989,0.52365 1.13063,0.53207 3.25704,0.0806 11.2138,0.24908 16.09526,0.13287 1.88886,-0.64179 3.52923,-1.41457 4.98817,-2.32783 1.45894,-0.91326 2.74415,-1.95025 3.89077,-3.15917 1.14667,-1.20891 2.17402,-2.59484 3.12598,-4.12359 0.9519,-1.52871 1.81873,-3.21515 2.69361,-5.08793 0.76819,-0.57613 1.48462,-1.37264 2.16154,-2.26131 0.67693,-0.88872 1.30477,-1.85382 1.96201,-2.82667 0.65729,-0.97281 1.3194,-1.93161 2.02854,-2.7601 0.70917,-0.82854 1.46195,-1.53947 2.29459,-1.99529 0.48352,-0.26485 0.87849,-0.12972 1.2304,0.23286 0.35177,0.36258 0.69175,0.93835 1.06415,1.56299 0.37249,0.62459 0.78516,1.30696 1.33021,1.829 0.54505,0.52198 1.19193,0.90979 2.06178,0.96438 1.68833,0.10585 3.20087,0.44006 4.55585,0.86462 1.35503,0.42429 2.57944,0.9374 3.75782,1.29692 1.17833,0.35943 2.30004,0.58739 3.45846,0.49884 0.57919,-0.0451 1.15888,-0.17071 1.76248,-0.39907 0.6036,-0.22836 1.21468,-0.57095 1.86228,-1.03091 1.46696,-1.04181 2.20213,-1.88778 3.02616,-2.49408 0.41213,-0.30313 0.85755,-0.56937 1.42993,-0.73161 0.57244,-0.16215 1.28121,-0.23287 2.22807,-0.23287 2.30712,0 3.34641,0 4.62239,0 z"
       style="fill:#000000;fill-opacity:1;fill-rule:evenodd;stroke:#d39062;stroke-width:1.06415;stroke-linecap:butt;stroke-linejoin:miter;stroke-miterlimit:4;stroke-dasharray:none;stroke-opacity:1"
       id="Timaukel" />
  </g>
</svg>
