<?xml version="1.0" encoding="UTF-8" standalone="no"?>
<!-- Created with Inkscape (http://www.inkscape.org/) -->

<svg
   width="210mm"
   height="297mm"
   viewBox="0 0 210 297"
   version="1.1"
   id="svg1283"
   inkscape:version="1.1.2 (b8e25be833, 2022-02-05)"
   sodipodi:docname="vector.svg"
   xmlns:inkscape="http://www.inkscape.org/namespaces/inkscape"
   xmlns:sodipodi="http://sodipodi.sourceforge.net/DTD/sodipodi-0.dtd"
   xmlns="http://www.w3.org/2000/svg"
   xmlns:svg="http://www.w3.org/2000/svg">
  <sodipodi:namedview
     id="namedview1285"
     pagecolor="#ffffff"
     bordercolor="#666666"
     borderopacity="1.0"
     inkscape:pageshadow="2"
     inkscape:pageopacity="0.0"
     inkscape:pagecheckerboard="0"
     inkscape:document-units="mm"
     showgrid="false"
     inkscape:zoom="0.52347032"
     inkscape:cx="155.69173"
     inkscape:cy="611.30496"
     inkscape:window-width="1920"
     inkscape:window-height="1017"
     inkscape:window-x="-8"
     inkscape:window-y="-8"
     inkscape:window-maximized="1"
     inkscape:current-layer="layer1" />
  <defs
     id="defs1280" />
  <g
     inkscape:label="Capa 1"
     inkscape:groupmode="layer"
     id="layer1">
    <path
       d="m 62.75155,24.710018 c -0.0885,0.23954 -0.28706,0.50807 -0.34459,0.73846 -0.36556,1.46242 -1.85193,3.77926 -2.51048,5.90706 -0.32926,1.0639 -0.43682,2.05716 -0.0985,2.90426 0.16921,0.42339 0.45734,0.8107 0.88605,1.13217 0.42874,0.32117 0.97294,0.60038 1.72289,0.78767 0.76411,0.19072 2.69283,-0.13884 4.57796,-0.34482 0.94255,-0.10299 1.88054,-0.17699 2.65816,-0.148 0.77762,0.0305 1.40701,0.17623 1.72289,0.49205 0.85627,0.85625 1.61201,2.66052 2.55971,4.47951 0.47382,0.90942 0.97176,1.82952 1.57521,2.60894 0.60343,0.77935 1.31249,1.41917 2.11668,1.82128 0.83238,0.41653 3.98198,2.42525 5.90703,4.33181 0.96254,0.95337 1.6182,1.87079 1.52598,2.55974 -0.0458,0.34482 -0.31178,0.63776 -0.78759,0.83687 -0.47581,0.19835 -1.14981,0.34482 -2.16593,0.34482 -4.46816,0 -8.97027,0 -13.43849,0 -1.06167,0 -4.0712,-0.37457 -6.98998,-0.54164 -1.45941,-0.0831 -2.88309,-0.11214 -4.03647,-0.0458 -1.15339,0.061 -2.02895,0.25709 -2.36282,0.59046 -0.86605,0.86609 -2.05508,2.44409 -3.44577,4.03651 -1.39068,1.59242 -2.96402,3.18026 -4.57796,3.98722 -1.50897,0.75448 -2.75252,1.92534 -3.98724,3.10123 -1.2347,1.17589 -2.49078,2.35292 -4.08569,3.15043 -1.48203,0.74074 -3.60671,2.2423 -5.75935,3.69184 -2.15266,1.4496 -4.33316,2.83597 -5.85781,3.44581 -1.61537,0.64615 -4.131175,1.4268 -6.891549,1.87056 -1.380179,0.222 -2.823882,0.38678 -4.233364,0.39364 -1.409488,0.007 -2.768979,-0.12587 -4.036482,-0.44323 -0.652941,-0.16325 -3.271536,-1.87902 -5.857792,-2.90432 -1.293143,-0.51265 -2.597531,-0.82856 -3.64268,-0.73846 -0.522567,0.0458 -0.959921,0.19453 -1.329082,0.49205 -0.369154,0.29828 -0.632802,0.70947 -0.787596,1.32907 -0.353286,1.41315 -0.445898,2.74565 -0.344589,3.98723 0.101309,1.24165 0.377469,2.40586 0.689178,3.59343 0.311709,1.18763 0.65729,2.39152 0.935273,3.64271 0.27799,1.25118 0.49228,2.55493 0.49228,3.98722 0,1.60379 0.214291,2.62367 0.590692,3.24884 0.3764,0.62556 0.92119,0.85327 1.624435,0.93528 1.406468,0.16402 3.391757,-0.30896 5.808579,0.29523 1.703851,0.42568 4.058072,1.01638 6.251602,1.87056 1.096772,0.42721 2.171513,0.89828 3.101194,1.47677 0.929688,0.57826 1.694757,1.25874 2.26437,2.01825 0.836809,1.115702 1.714576,3.079262 2.608928,5.020922 0.894353,1.94173 1.809023,3.82732 2.756623,4.77488 0.56605,0.56606 1.41773,0.97625 2.36281,1.32908 0.94508,0.35321 1.97252,0.66522 2.9043,1.03377 0.93176,0.36846 1.78743,0.81406 2.31357,1.42748 0.52615,0.61335 0.76406,1.37409 0.49228,2.46125 -0.27471,1.099 -1.36638,3.01083 -2.16591,5.02099 -0.39975,1.00509 -0.75189,2.02062 -0.88606,3.00274 -0.13427,0.98212 -0.0511,1.9155 0.34459,2.70743 0.47748,0.95489 2.27011,4.02087 3.93802,6.98996 1.66792,2.9691 3.19965,5.87533 3.19965,6.44856 0,1.01759 -0.25891,2.10316 -0.63997,3.19963 -0.38098,1.0964 -0.84556,2.19783 -1.32908,3.24884 -0.48351,1.05093 -0.97227,2.02314 -1.27985,2.90425 -0.30759,0.8812 -0.44216,1.67725 -0.29538,2.26443 0.45818,1.83273 0.96512,2.87847 1.5752,3.49495 0.61007,0.6164 1.31587,0.76401 2.06746,0.83687 0.75158,0.0763 1.57849,0.0458 2.46127,0.2464 0.88277,0.20216 1.80225,0.6698 2.80584,1.67367 1.54878,1.54878 2.70892,3.37624 3.34732,5.36558 0.31919,0.99463 0.49785,2.00688 0.54149,3.05194 0.0435,1.04506 -0.0313,2.14405 -0.29539,3.19964 -0.2271,0.90858 -0.97379,3.25753 -1.62443,5.56247 -0.65065,2.30494 -1.23176,4.52413 -1.08295,5.1194 0.56529,2.26115 1.1722,3.10985 1.42754,4.08571 0.25533,0.97587 0.20071,2.10149 -0.49228,4.8733 -0.18599,0.7438 -0.61221,1.38675 -1.13217,1.91977 -0.51998,0.53324 -1.16698,0.97685 -1.82134,1.32907 -1.30871,0.7049 -2.69875,1.06848 -3.34732,1.23067 -2.92309,0.73083 -3.68657,0.70336 -4.23337,1.18138 -0.54683,0.47832 -0.86549,1.4657 -2.9043,4.1842 -2.08205,2.77609 -2.84515,3.78262 -3.15041,4.38101 -0.30522,0.5981 -0.12244,0.78462 -0.39379,1.87056 -0.2709,1.08374 -1.21935,2.22347 -2.36281,3.34733 -0.63731,0.62632 -1.35441,1.17246 -2.06747,1.77208 0.63364,0.0152 1.38423,-0.0809 1.82135,0.14723 0.40142,0.20979 0.68841,0.53706 0.83681,0.98449 0.14838,0.44704 0.13679,1.02827 -0.0488,1.77215 -0.27654,1.10616 -0.84978,3.65346 -1.1814,6.10396 -0.16578,1.22517 -0.27204,2.41372 -0.24611,3.39653 0.0259,0.98273 0.18683,1.762 0.54149,2.11666 1.39257,1.39263 7.9095,6.32039 8.07295,7.13766 0.72412,3.62051 1.16727,6.13783 1.77211,8.36831 0.6048,2.23049 1.33344,4.19282 2.65816,6.84227 0.34772,0.69574 0.20651,1.50332 -0.19689,2.36285 -0.40348,0.85952 -1.07779,1.75269 -1.67367,2.60894 -0.59588,0.85625 -1.1487,1.6771 -1.37831,2.36284 -0.11488,0.34253 -0.13068,0.66675 -0.0488,0.93521 0.0817,0.26853 0.29226,0.51493 0.6399,0.68887 1.69448,0.84724 2.80028,1.50964 3.59346,2.11666 0.79316,0.60725 1.26102,1.12936 1.57519,1.72295 0.62838,1.18718 0.72244,2.57705 1.96902,5.07019 0.50563,1.01126 1.1269,1.81342 1.82134,2.41205 0.69444,0.59885 1.46879,1.01767 2.31359,1.18138 0.84478,0.16402 1.75066,0.0961 2.70738,-0.19682 0.95672,-0.2937 1.97252,-0.85182 3.00274,-1.62446 1.70109,-1.27582 9.88987,-6.016 10.73111,-7.13765 1.45471,-1.9396 2.65244,-4.05016 4.13493,-5.0702 0.74128,-0.51036 1.53774,-0.73846 2.46126,-0.54164 0.9235,0.19759 1.977,0.84481 3.19963,2.06746 1.34871,1.34876 3.40602,2.65144 4.97176,4.08571 0.78288,0.7171 1.40521,1.46388 1.82133,2.26436 0.41614,0.80055 0.62509,1.63453 0.39379,2.55974 -0.16188,0.64767 -2.15461,2.56538 -3.88879,4.4795 -0.86709,0.95702 -1.68382,1.91145 -2.16591,2.70735 -0.48214,0.79591 -0.66767,1.45594 -0.2461,1.77215 2.31831,1.73874 3.78153,3.40859 5.2671,4.03643 0.74281,0.31354 1.48881,0.3349 2.36281,0 0.87401,-0.3349 1.8697,-1.03285 3.1012,-2.26435 0.65981,-0.65989 1.82224,-1.26568 3.15041,-1.82136 1.32816,-0.55537 2.84481,-1.07725 4.13492,-1.52597 1.29011,-0.44857 2.35867,-0.84244 2.9043,-1.18138 0.2728,-0.16936 0.43956,-0.30134 0.39379,-0.44323 -0.0458,-0.14113 -0.28577,-0.28074 -0.73838,-0.39364 l 0.7876,-0.148 c -0.13716,-0.27387 -0.46039,-0.68048 -0.49228,-0.88607 -0.074,-0.47756 0.12595,-0.81872 0.39379,-1.18139 0.26777,-0.36312 0.59359,-0.74456 0.88606,-1.37835 0.29248,-0.63395 0.54148,-1.51567 0.54148,-2.80584 -1e-5,-0.87906 0.19545,-1.51636 0.443,-2.06746 0.24755,-0.55079 0.54034,-1.00028 0.73839,-1.42749 0.19804,-0.4272 0.29622,-0.82146 0.14753,-1.32907 -0.14853,-0.50807 -0.53683,-1.1276 -1.32908,-1.91984 -0.69032,-0.6904 -1.12404,-1.32473 -1.37831,-1.96897 -0.25426,-0.64463 -0.33429,-1.27491 -0.29538,-1.91977 0.0778,-1.28986 0.5913,-2.66051 0.98451,-4.2334 0.49876,-1.99514 1.31759,-3.7888 2.11667,-5.46399 0.7991,-1.67519 1.6077,-3.23114 1.96903,-4.6764 0.17302,-0.69193 0.57757,-1.4014 1.13217,-2.11674 0.55461,-0.71558 1.25652,-1.44946 1.96902,-2.11666 1.425,-1.33442 2.92793,-2.48491 3.64266,-3.19964 1.0617,-1.06169 2.14169,-1.70601 3.34732,-2.11666 1.20564,-0.41043 2.53311,-0.59047 4.0857,-0.59047 2.49187,0 3.38057,0.59428 3.88879,0.29524 0.50823,-0.29905 0.64219,-1.48562 1.52598,-5.02099 0.19507,-0.78027 0.64898,-1.34533 1.23064,-1.82128 0.58169,-0.47604 1.29285,-0.84229 2.01823,-1.18146 0.72542,-0.33872 1.4414,-0.6637 2.06746,-1.03369 0.62609,-0.37 1.14375,-0.81071 1.42754,-1.37836 0.31476,-0.62937 0.78988,-0.99997 1.32908,-1.18138 0.5392,-0.18157 1.14405,-0.17165 1.82133,-0.0984 1.3546,0.14571 2.8937,0.59046 4.2826,0.59046 0.84034,0 2.8584,0.77775 4.82408,1.57525 1.96569,0.79743 3.9144,1.63079 4.67641,1.82128 l 0.6399,-13.53692 h -3.34792 l -4.08568,-4.72561 v -12.15864 l -7.43303,-8.12222 3.39654,-7.43296 c 0.90147,-0.6759 1.80597,-1.3422 2.7074,-2.01825 1.16028,-0.87021 2.0016,-1.87316 2.90429,-2.75664 0.90269,-0.88348 1.83677,-1.64055 3.15042,-1.96897 0.49495,-0.12358 0.7097,-0.48671 0.73838,-0.98456 0.029,-0.49816 -0.10482,-1.11898 -0.2461,-1.77207 -0.14136,-0.65302 -0.28058,-1.33068 -0.29538,-1.91977 -0.0145,-0.58894 0.0841,-1.12142 0.49228,-1.42756 0.89069,-0.66828 1.53431,-1.29078 2.01823,-1.96897 0.48389,-0.6782 0.83386,-1.41734 1.03373,-2.16595 0.39975,-1.49728 0.34459,-3.17636 0.34459,-5.31637 0,-4.37255 -0.0979,-3.79193 0.63997,-6.74386 0.12771,-0.51112 -0.029,-1.04819 -0.34458,-1.62438 -0.31545,-0.57597 -0.79195,-1.2238 -1.23063,-1.91984 -0.43865,-0.69574 -0.84103,-1.44313 -1.08295,-2.31356 -0.24191,-0.87044 -0.27486,-1.85416 0,-2.95354 0.0778,-0.31125 6.6982,5.36917 6.74385,5.41479 1.63966,1.63964 2.9783,2.57476 3.74113,2.46125 0.38144,-0.0534 0.62456,-0.36389 0.6891,-0.98449 0.0649,-0.62097 -0.0765,-1.58608 -0.39379,-2.85504 -0.27136,-1.08549 -0.81843,-1.87476 -1.42754,-2.55974 -0.60915,-0.68506 -1.27654,-1.23723 -1.72289,-1.72287 -0.44636,-0.48595 -0.65996,-0.94009 -0.443,-1.42756 0.21696,-0.48748 0.88366,-1.03247 2.26438,-1.72287 1.50652,-0.75295 3.48823,-0.77851 5.36555,-0.78759 1.87731,-0.008 3.64955,0.0229 4.77484,-0.54164 1.26498,-0.63242 3.02669,-0.6553 4.77486,-0.59046 1.6378,0.061 3.18948,0.1335 4.38104,-0.0984 -1.48245,-0.11367 -2.94537,-0.09 -3.34731,-1.42756 -1.07546,-3.57779 -4.76894,0.4684 -3.64267,-4.03643 2.07132,-3.50143 -2.08691,-4.1179 -0.7876,-8.02373 0.39204,-1.56823 5.26662,-0.83687 6.8423,-0.83687 3.11599,0 5.03911,1.4567 7.87604,2.16595 2.42431,0.60648 8.13106,0.22352 8.22063,0.2464 1.9534,0.48824 3.07242,2.74222 4.8733,3.64271 1.65147,-1.92571 2.61757,-3.86722 6.00548,-5.21788 1.88658,-1.88658 3.53072,-0.83222 4.0365,-2.85513 0.59275,-2.3723 4.18412,0.44476 4.18412,-2.26435 0,-2.80538 -0.61258,-3.39112 0.19683,-5.41479 -0.56682,-9.018662 2.27328,-9.620342 0.83687,-12.453952 -1.79931,-1.79931 -1.89277,-2.33576 -3.9873,-4.4303 -7.34226,-2.65876 -7.38185,-8.48122 -11.71557,-8.86052 -2.9416,2.57065 -5.06123,7.67823 -8.86059,6.84235 -2.84755,1.2939 -5.4397,2.10033 -8.02371,4.03643 -4.68707,0.68811 -9.35884,-0.16784 -13.68463,-2.01826 -3.30632,-2.70201 -4.09716,-6.85745 -7.08843,-10.18959 -3.19563,-1.04292 -7.26917,-0.15181 -10.63266,-1.08298 -1.13291,-0.43712 -0.45208,-3.90262 -6.84231,-2.41204 -4.13411,-1.31748 -6.7916,-1.35959 -10.48498,0.83687 -1.3837,1.38362 -5.92436,-1.77276 -6.84232,-2.46125 -2.60312,-1.95242 -3.38126,-0.57521 -5.71013,-2.90433 -1.42594,-1.42581 -2.7626,-5.11353 -1.52607,-6.35007 4.09491,-1.62537 4.30558,-4.521 5.21788,-8.41752 1.43635,-3.82107 -2.96338,-4.58211 -0.7876,-10.09119 -0.46405,-2.96581 -2.36791,-6.08924 -4.8733,-8.46672 -1.83796,-2.52793 1.86109,-0.30363 1.23063,-9.25432 0.22718,-0.45391 3.85154,-2.62092 4.43027,-3.19971 1.2286,-1.22815 -0.29683,-5.51465 -1.23045,-6.44825 -3.72985,-1.12371 -8.27746,0.90896 -11.66639,2.80584 -1.85109,2.80737 -6.62918,-2.41601 -10.04195,-3.64263 -2.26969,-2.2697 -2.73787,-0.23878 -4.4795,0.19682 -2.24102,0.55995 -3.04633,2.65815 -6.39929,2.65815 -4.55363,-0.0305 -8.37411,0.17012 -15.30905,-0.44323 -1.24135,-0.24793 -5.2362,2.24124 -6.05471,2.85512 -0.21093,0.15792 -0.72228,-0.31735 -1.08296,-0.44323 z"
       style="fill:#000000;fill-opacity:1;fill-rule:evenodd;stroke:#d39062;stroke-width:0.787604;stroke-linecap:butt;stroke-linejoin:miter;stroke-miterlimit:4;stroke-dasharray:none;stroke-opacity:1"
       id="Quirihue"
       inkscape:connector-curvature="0" />
  </g>
</svg>
