<?xml version="1.0" encoding="UTF-8" standalone="no"?>
<!-- Created with Inkscape (http://www.inkscape.org/) -->

<svg
   width="210mm"
   height="297mm"
   viewBox="0 0 210 297"
   version="1.1"
   id="svg64"
   inkscape:version="1.1.2 (b8e25be833, 2022-02-05)"
   sodipodi:docname="vector.svg"
   xmlns:inkscape="http://www.inkscape.org/namespaces/inkscape"
   xmlns:sodipodi="http://sodipodi.sourceforge.net/DTD/sodipodi-0.dtd"
   xmlns="http://www.w3.org/2000/svg"
   xmlns:svg="http://www.w3.org/2000/svg">
  <sodipodi:namedview
     id="namedview66"
     pagecolor="#ffffff"
     bordercolor="#666666"
     borderopacity="1.0"
     inkscape:pageshadow="2"
     inkscape:pageopacity="0.0"
     inkscape:pagecheckerboard="0"
     inkscape:document-units="mm"
     showgrid="false"
     inkscape:zoom="0.74029882"
     inkscape:cx="361.34057"
     inkscape:cy="21.612894"
     inkscape:window-width="1920"
     inkscape:window-height="1017"
     inkscape:window-x="-8"
     inkscape:window-y="-8"
     inkscape:window-maximized="1"
     inkscape:current-layer="layer1" />
  <defs
     id="defs61" />
  <g
     inkscape:label="Capa 1"
     inkscape:groupmode="layer"
     id="layer1">
    <path
       id="Caldera"
       style="fill:#000000;fill-opacity:1;fill-rule:evenodd;stroke:#d38d5f;stroke-width:1.77323;stroke-linecap:butt;stroke-linejoin:miter;stroke-miterlimit:4;stroke-opacity:1"
       d="m 79.818254,4.4781268 c -1.46903,-0.678649 3.04392,2.511387 -0.85341,6.9617862 -3.89733,4.450395 -10.71309,10.592862 -3.70482,15.869195 7.11221,7.497354 -5.82351,2.944516 -6.29805,7.265714 -1.37939,8.876111 -6.57121,16.625744 -10.07543,24.713833 -6.91129,6.364647 5.7067,13.05921 4.80775,19.694008 -7.18425,5.445999 6.25596,1.453096 2.79554,7.316489 -8.29621,6.204847 -3.14265,16.798008 -10.43079,22.637268 -6.41434,2.5226 -3.63501,9.6783 -8.41622,12.8895 -5.57104,10.8609 -13.87345,-9.64796 -17.42625,-1.73026 -0.43944,6.57933 -11.94052,15.77047 -3.20141,20.57511 9.32126,2.38785 -0.61692,8.90734 3.12318,14.49637 5.96184,5.0988 9.42143,15.56873 0.56491,19.98061 -7.73915,7.70266 6.34922,13.49157 6.25473,20.39329 1.16524,7.6294 12.14634,12.66317 9.11646,21.4638 -2.79709,8.58679 -4.04134,17.72789 -3.72078,26.42561 -8.34975,-0.22039 -0.9794,10.45 -8.02578,9.98873 -7.04638,-0.46128 -3.5147,-2.30658 -2.42215,4.21142 1.09259,6.51799 14.63619,14.00891 5.80744,19.96668 0.0945,11.10665 11.8897,18.87487 21.79194,13.03072 4.64932,-8.15902 14.81816,6.07176 18.28503,-5.49308 9.56933,-3.72545 0.70935,-8.4605 -2.1478,-12.27917 6.47336,-10.56899 -0.86291,-22.10562 -1.19323,-32.62351 11.48481,-7.65526 -6.53605,-17.2812 2.5924,-30.84364 0.10121,-8.83816 2.81191,-13.52191 1.92333,-21.16284 -0.88863,-7.64093 -4.11131,-13.50857 -4.11131,-13.50857 l 29.953726,-37.58902 40.5257,-28.19175 h 5.28591 l 35.58137,-33.184859 c -0.55293,-4.028105 -0.0635,-7.708726 -4.96932,-13.187787 -9.26358,-0.260253 -9.19252,-1.854039 -11.84989,-3.058041 -7.39028,-8.027359 -16.88618,-23.424568 -22.17079,-24.082081 -3.67384,0.295675 -5.01156,-1.04167 -6.59352,-3.913232 -1.14305,-3.123811 -5.4195,-1.657047 -8.02073,-2.204749 -3.47168,0.667108 -6.56682,-1.205298 -9.10046,-3.365587 -2.55837,-1.422908 -4.66687,-4.266602 -7.87923,-3.964498 -2.79792,-0.112621 -6.47904,0.833613 -8.44999,-1.679333 -0.86332,-2.562761 -3.2011,-4.907504 -6.12579,-4.092631 -3.081296,0.648963 -4.799686,-2.27718 -5.592626,-4.753159 -1.53275,-2.3169002 -4.63682,-0.72566 -6.57596,-1.8749622 0.0516,-1.680573 0.38831,-3.603145 -1.65797,-4.555688 -4.45419,0.813928 -5.92663,0.13689 -7.39571,-0.541686 z"
       sodipodi:nodetypes="ccccccccccccccccccccccccscccccccccccccccccc"
       inkscape:label="#path9977" />
  </g>
</svg>
