<?xml version="1.0" encoding="UTF-8" standalone="no"?>
<!-- Created with Inkscape (http://www.inkscape.org/) -->

<svg
   width="210mm"
   height="297mm"
   viewBox="0 0 210 297"
   version="1.1"
   id="svg57"
   inkscape:version="1.1.2 (b8e25be833, 2022-02-05)"
   sodipodi:docname="vector.svg"
   xmlns:inkscape="http://www.inkscape.org/namespaces/inkscape"
   xmlns:sodipodi="http://sodipodi.sourceforge.net/DTD/sodipodi-0.dtd"
   xmlns="http://www.w3.org/2000/svg"
   xmlns:svg="http://www.w3.org/2000/svg">
  <sodipodi:namedview
     id="namedview59"
     pagecolor="#ffffff"
     bordercolor="#666666"
     borderopacity="1.0"
     inkscape:pageshadow="2"
     inkscape:pageopacity="0.0"
     inkscape:pagecheckerboard="0"
     inkscape:document-units="mm"
     showgrid="false"
     inkscape:zoom="0.74029882"
     inkscape:cx="361.34057"
     inkscape:cy="453.87078"
     inkscape:window-width="1920"
     inkscape:window-height="1017"
     inkscape:window-x="-8"
     inkscape:window-y="-8"
     inkscape:window-maximized="1"
     inkscape:current-layer="layer1" />
  <defs
     id="defs54" />
  <g
     inkscape:label="Capa 1"
     inkscape:groupmode="layer"
     id="layer1">
    <path
       inkscape:connector-curvature="0"
       id="Contulmo"
       style="fill:#000000;fill-opacity:1;fill-rule:evenodd;stroke:#d39062;stroke-width:0.696804;stroke-linecap:butt;stroke-linejoin:miter;stroke-miterlimit:4;stroke-dasharray:none;stroke-opacity:1"
       d="m 169.22126,20.954621 c -0.27428,-0.35139 -0.56153,-0.69141 -0.78391,-1.08876 -0.31029,-0.55477 -0.59394,-1.12596 -1.0017,-1.65491 -0.40747,-0.52892 -0.91761,-1.02495 -1.65487,-1.39361 -0.80048,-0.400272 -1.79037,-0.353405 -2.87435,-0.13059 -1.08398,0.22281 -2.26723,0.65109 -3.48397,1.0452 -1.2168,0.39416 -2.45938,0.75718 -3.65826,0.87101 -1.19888,0.11389 -2.36666,-0.0353 -3.39693,-0.65325 -1.50636,-0.9038 -2.42663,-2.31458 -3.48404,-3.484022 -0.52842,-0.584717 -1.09348,-1.098652 -1.78554,-1.480712 -0.69184,-0.38206 -1.4867,-0.609698 -2.5259,-0.609698 -1.21112,0 -2.26609,-0.331522 -3.39694,-0.566144 -1.13077,-0.234621 -2.35427,-0.380404 -3.87596,0 -0.45139,0.112884 -0.74843,0.431231 -1.00162,0.871007 -0.25341,0.439798 -0.46363,0.994293 -0.65297,1.52426 -0.18934,0.529932 -0.34988,1.053787 -0.60977,1.437158 -0.25989,0.383356 -0.62345,0.609698 -1.08873,0.609698 -1.30507,0 -3.23142,-0.252979 -5.13892,-0.391995 -1.90749,-0.138944 -3.76581,-0.163925 -4.87765,0.391995 -0.93475,0.467371 -1.3055,0.840283 -1.74199,1.393603 -0.43627,0.55333 -0.95108,1.29949 -2.17753,2.52592 -1.70484,1.70483 -3.21616,3.78234 -5.00826,5.57443 -0.82553,0.82556 -2.14859,2.66298 -3.35337,3.78887 -0.60257,0.56298 -1.16188,0.95878 -1.65495,0.95811 -0.49314,-6.7e-4 -0.88478,-0.40351 -1.13229,-1.39361 -0.24117,-0.96569 -0.69472,-1.62999 -1.21939,-2.13396 -0.52482,-0.50394 -1.15187,-0.82407 -1.6985,-1.17586 -0.54642,-0.35175 -1.04345,-0.7102 -1.34999,-1.2194 -0.30669,-0.5092 -0.41324,-1.20142 -0.21742,-2.17751 0.0929,-0.46514 -0.76455,-1.28237 -1.78554,-2.00332 -1.02099,-0.72095 -2.18229,-1.30651 -2.656567,-1.30651 -0.56801,0 -1.08894,0.28416 -1.52428,0.74035 -0.43555,0.45621 -0.80379,1.07898 -1.17584,1.61137 -0.3722,0.53237 -0.75368,0.99077 -1.13236,1.21941 -0.37868,0.22864 -0.76434,0.19373 -1.2194,-0.26133 -0.60617,-0.60646 -2.70897,-1.89036 -4.4421,-3.09208 -0.86657,-0.60084 -1.63609,-1.16707 -2.09043,-1.61135 -0.45427,-0.44427 -0.59465,-0.78691 -0.17422,-0.87101 1.05425,-0.210865 1.78194,-0.44923 2.22109,-0.69681 0.43915,-0.247579 0.60401,-0.50603 0.56586,-0.783911 -0.0756,-0.555776 -0.97888,-1.1468 -2.13398,-1.785561 -1.15504,-0.638783 -2.57191,-1.289171 -3.70175,-1.95976 -1.12984,-0.670604 -1.95976,-1.35202 -1.95976,-2.0033152 0,-0.59566 0.86362,-1.265983 1.56784,-1.785562 0.35204,-0.259746 0.67312,-0.473706 0.8274,-0.653253 0.15478,-0.179548 0.11807,-0.289983 -0.17422,-0.348368 -1.75811,-0.351608 -2.59034,-1.045126 -3.48404,-1.654911 -0.44707,-0.304885 -0.89486,-0.620785 -1.48073,-0.827459 -0.58601,-0.206688 -1.30298,-0.304813 -2.26457,-0.304813 -1.35978,0 -3.89368,-0.298982 -5.57447,-0.08711 -0.84036,0.1059 -1.47396,0.340089 -1.65495,0.783904 -0.18069,0.443829 0.11735,1.118831 1.08881,2.090418 0.18718,0.18725 2.1555,1.433867 4.00663,3.004965 0.92552,0.7855522 1.8193,1.6531832 2.43879,2.4823702 0.61985,0.829179 0.95173,1.636877 0.78392,2.308164 -0.25197,1.009123 -0.61049,1.811644 -1.04525,2.482362 -0.43483,0.67075 -0.92689,1.21837 -1.48065,1.74201 -1.10752,1.04725 -2.4095,1.96421 -3.61471,3.57113 -1.01624,1.35496 -1.76365,2.40359 -2.65657,3.26626 -0.89291,0.86267 -1.93219,1.57582 -3.48397,2.35172 -1.04697,0.52352 -2.18898,1.22656 -3.26634,2.09041 -1.07728,0.86386 -2.09093,1.87333 -2.87427,2.91787 -0.3722,0.49646 -0.48954,1.18642 -0.52266,1.95976 -0.036,0.77335 0.0504,1.61238 0.0871,2.39527 0.036,0.78289 0.0288,1.52175 -0.1303,2.04686 -0.15695,0.52511 -0.46795,0.871 -1.08881,0.87101 -1.31241,0 -3.17887,-0.19013 -4.83403,-0.13059 -0.82762,0.0295 -1.60009,0.11792 -2.22109,0.30488 -0.62129,0.18696 -1.08693,0.47536 -1.30651,0.91456 -0.65008,1.2997 -1.55415,2.67798 -2.17753,4.09372 -0.31172,0.7079 -0.52626,1.46353 -0.65297,2.17752 -0.12742,0.71401 -0.13246,1.38555 0.0432,2.09041 0.16054,0.64123 0.37076,1.04731 0.65296,1.3065 0.28293,0.25917 0.62849,0.38869 0.95814,0.47904 0.32973,0.0904 0.65729,0.16997 0.95807,0.30481 0.30093,0.13491 0.54426,0.34779 0.74036,0.74036 0.47443,0.94916 0.86534,1.56371 1.2194,2.00331 0.3542,0.43958 0.70408,0.67233 1.13236,0.7839 0.85663,0.22311 2.03276,2e-5 4.355,0 1.67596,0 3.81678,-0.35376 5.4438,-0.30481 0.81351,0.0245 1.5237,0.13988 1.95976,0.43548 0.43627,0.2956 0.62057,0.78487 0.43555,1.52426 -0.71992,2.87919 -1.39772,4.49391 -2.78723,7.2729 -0.32973,0.65922 -0.87838,1.72888 -1.48066,2.74366 -0.60257,1.01479 -1.26252,1.95951 -1.87272,2.26462 -0.75383,0.37695 -1.64739,1.33853 -2.5259,2.22106 -0.87845,0.88253 -1.77021,1.69845 -2.52591,1.69846 -2.06623,0 -3.83579,-0.57413 -5.61795,-1.1323 -1.78223,-0.55816 -3.56273,-1.13233 -5.53091,-1.13231 -0.67744,0 -3.09586,-0.1419 -5.40025,-0.21778 -2.30438,-0.0758 -4.50812,-0.0857 -4.65988,0.21778 -0.40747,0.81553 -0.40459,1.57505 -0.1303,2.22106 0.27356,0.64598 0.82293,1.20089 1.56783,1.69846 1.48987,0.99515 3.72349,1.69298 5.83573,2.22107 0.85072,0.21266 1.30449,0.60451 1.56783,1.08876 0.26349,0.48421 0.31389,1.06124 0.43555,1.69845 0.12167,0.6372 0.31461,1.33171 0.74037,2.00332 0.42547,0.67161 1.08974,1.32879 2.26464,1.91621 1.21342,0.60675 2.18402,1.73547 3.26627,2.70012 0.54138,0.48234 1.13423,0.93914 1.78554,1.26296 0.65152,0.32382 1.36424,0.52258 2.22109,0.52258 1.73327,0 3.17088,-0.24419 4.09367,-0.0871 0.46146,0.0786 0.79565,0.24996 0.95814,0.6097 0.1627,0.35975 0.15694,0.89631 -0.0432,1.69846 -0.44275,1.77065 0.30381,7.03633 0,7.7955 -0.86988,2.174619 -1.71333,2.869559 -1.9162,3.440449 -0.10151,0.28581 -0.0288,0.56442 0.26133,0.95807 0.29372,0.39307 0.81422,0.90126 1.65494,1.74205 0.9297,0.92971 1.78691,2.44549 2.61302,3.78886 0.8261,1.34337 1.64947,2.52317 2.43879,2.9179 1.05799,0.52914 2.39891,1.9383 3.78893,3.26626 1.38994,1.32789 2.81034,2.57522 4.00663,2.87428 1.61592,0.40387 3.54314,0.52482 5.35662,0.82747 0.90673,0.15118 1.76977,0.34412 2.56953,0.65296 0.79968,0.30885 1.54544,0.71776 2.1339,1.30651 0.69688,0.69688 0.98168,1.30341 1.08881,1.8291 0.10726,0.52554 0.0216,0.98852 -0.0871,1.43717 -0.10943,0.44851 -0.22174,0.88398 -0.17422,1.35006 0.0504,0.46579 0.24981,0.94633 0.82747,1.52428 0.35924,0.35924 1.25734,5.89044 1.13229,6.14054 -0.46291,0.9261 -0.51186,1.47295 -0.30453,1.82917 0.20734,0.35636 0.67312,0.5313 1.2194,0.69688 0.54642,0.16558 1.18772,0.34196 1.74198,0.69688 0.55434,0.35492 1.03229,0.9063 1.26295,1.82909 0.22678,0.90695 0.81574,2.27177 1.13229,3.44049 0.15838,0.58457 0.24477,1.14265 0.17422,1.52421 -0.072,0.38155 -0.31604,0.60977 -0.78392,0.60977 -0.59609,0 -2.50581,-0.15262 -4.22433,-0.0871 -0.85929,0.036 -1.65401,0.12022 -2.22109,0.30452 -0.5673,0.18502 -0.89083,0.44347 -0.78392,0.87103 0.23541,0.94223 0.27789,2.36774 0.0432,3.52753 -0.11735,0.58025 -0.28149,1.10471 -0.56586,1.48072 -0.28509,0.3758 -0.6904,0.60977 -1.17584,0.60977 -1.6412,0 -2.65686,0.35636 -3.7453,0.60977 -1.08852,0.25342 -2.23102,0.36788 -4.05019,-0.0871 -0.93819,-0.23469 -2.67233,-0.70983 -4.35507,-1.39354 -1.68266,-0.68392 -3.30319,-1.54444 -4.00663,-2.48242 -0.35275,-0.47083 -1.0099,-0.95396 -1.65487,-1.2194 -0.64505,-0.26565 -1.28246,-0.329 -1.6985,0.0871 -1.03582,1.03589 -1.52673,1.68 -1.91621,2.4388 -0.38947,0.75879 -0.68176,1.62507 -1.43717,3.13567 -0.47154,0.94288 -0.60545,2.06307 -0.34844,3.22271 0.25701,1.15964 0.88694,2.36759 2.00332,3.48397 1.49836,1.49844 2.41352,2.47162 3.04849,3.48404 0.63497,1.01242 1.01026,2.081 1.43717,3.78886 0.21526,0.86123 0.36788,1.95544 0.17422,3.13567 -0.0965,0.59033 -0.3146,1.18758 -0.60977,1.78554 -0.29517,0.59825 -0.7048,1.18405 -1.26295,1.74199 -0.71416,0.71415 -1.26439,1.72225 -1.91621,2.65656 -0.65224,0.93438 -1.3821,1.82334 -2.52597,2.39531 -1.32278,0.66161 -2.62857,1.09039 -3.78886,1.91621 -0.58025,0.41251 -1.12127,0.93517 -1.61132,1.61132 -0.23829,0.329 -0.44203,0.84547 -0.65296,1.26295 0.38227,0.0648 0.91969,0.0144 1.26295,0.13031 0.63929,0.21525 1.22854,0.53561 1.74198,1.00169 0.51331,0.46651 0.9441,1.06065 1.35007,1.87265 0.76188,1.5237 1.20903,3.28354 1.43717,4.8341 0.22821,1.55049 0.26133,2.8809 0.26133,3.52753 -0.25053,1.79713 -0.0734,2.85166 0.21741,3.57115 0.29085,0.7192 0.67745,1.1127 0.87103,1.61132 0.19366,0.4989 0.1951,1.13013 -0.34844,2.26464 -0.54354,1.13452 -1.60851,2.77305 -3.52752,5.40025 0.27213,1.08844 0.15694,2.08632 -0.0871,2.96138 -0.24406,0.87477 -0.61049,1.65272 -0.91459,2.30813 -0.3038,0.65512 -0.5277,1.18203 -0.43555,1.61139 0.0922,0.42907 0.49315,0.76081 1.43717,0.95814 0.76348,0.1591 1.56266,1.02739 2.26458,2.26457 0.70192,1.23711 1.27562,2.80984 1.61139,4.39856 0.23181,1.09621 0.9076,2.01706 1.74198,2.83086 0.83439,0.81358 1.84753,1.54883 2.74368,2.22094 0.94345,0.70768 1.35129,1.17764 1.52428,1.56784 0.17278,0.39019 0.11519,0.70912 0.0432,1.04518 -0.072,0.3362 -0.12311,0.67456 0.0871,1.21939 0.2095,0.54498 0.68104,1.29096 1.69843,2.30827 0.30596,0.30597 1.04921,0.46507 2.00331,0.52266 0.95411,0.0576 2.1108,-0.0144 3.30983,-0.0864 2.39804,-0.15334 4.87686,-0.43555 5.83572,-0.43555 0.92358,-1.4e-4 1.69224,0.23182 2.35176,0.60977 0.65944,0.37724 1.22105,0.89925 1.74198,1.48066 1.04187,1.16245 1.9378,2.55297 3.17916,3.48404 1.60901,1.20644 3.36309,1.77474 4.61633,2.5259 0.62632,0.37508 1.1582,0.78212 1.43717,1.34999 0.27933,0.56802 0.32828,1.30039 0.0871,2.26479 -0.21958,0.18862 -0.29949,0.44923 -0.26133,0.74044 0.036,0.29085 0.20445,0.59033 0.43555,0.95807 0.46218,0.73474 1.23826,1.599 2.09035,2.48227 0.85217,0.88327 1.75106,1.78986 2.48242,2.61301 0.73129,0.82323 1.29369,1.57929 1.39362,2.13406 0.1123,1.50527 0.47586,2.77262 0.87095,3.83241 0.39452,1.05972 0.80221,1.8928 1.04525,2.61301 0.24333,0.72013 0.29949,1.29916 -0.0432,1.78554 -0.3434,0.48666 -1.07542,0.90414 -2.43887,1.26302 -1.03344,0.25845 -1.78374,1.02553 -2.30813,1.8291 -0.5241,0.80328 -0.8274,1.65466 -1.04524,2.09042 -0.71632,1.4325 -1.05843,2.29064 -1.39355,3.00487 -0.33548,0.71416 -0.65944,1.26943 -1.39362,2.00331 -0.31172,0.31245 -0.3146,0.6904 -0.17422,1.08888 0.14039,0.39811 0.41972,0.81804 0.74037,1.26288 0.32108,0.44491 0.68536,0.89759 0.91451,1.35013 0.22893,0.45211 0.30884,0.886 0.17422,1.30651 -0.1987,0.62129 -0.77327,0.97844 -1.52428,1.21939 -0.75095,0.24118 -1.65077,0.3866 -2.39524,0.60978 -0.74447,0.22317 -1.34481,0.5205 -1.52428,1.08865 -0.17926,0.56874 0.0576,1.38001 1.00169,2.65664 0.25413,0.34341 0.35204,0.62201 0.34844,0.82741 -0.003,0.20589 -0.0986,0.37867 -0.30452,0.47946 -0.41252,0.19942 -1.19413,0.20518 -2.09043,0.17422 -0.8963,-0.0288 -1.93183,-0.12382 -2.87434,-0.13102 -0.94245,0 -1.80045,0.0727 -2.35169,0.34844 -0.51906,0.25917 -0.72934,0.57809 -0.82747,0.91458 -0.0979,0.33692 -0.0921,0.68464 -0.1303,1.04525 -0.036,0.36068 -0.0958,0.71272 -0.43555,1.04518 -0.33981,0.33188 -0.95757,0.66376 -1.95976,0.91451 -1.10868,0.27716 -1.5839,0.67312 -1.65495,1.17591 -0.072,0.5025 0.30092,1.09996 0.82747,1.69843 1.05245,1.19665 2.81618,2.46752 3.61471,3.26634 0.13822,0.13822 0.21237,0.25485 0.34844,0.39163 5.98813,-7.92154 9.04663,-9.1256 14.45868,-11.45367 3.78756,-1.62953 10.428587,-3.48397 11.584407,-3.48397 2.58804,0 2.30813,-7.34784 2.30813,-10.8876 0,-1.43818 7.04389,-5.93371 9.36332,-8.10037 2.31943,-2.1666 -0.79551,-6.24025 0,-8.40526 0.86354,-2.35003 3.65279,0.17134 8.14393,-1.2194 3.09471,-0.95813 7.27786,-5.96912 11.01819,-6.83734 5.65654,-1.31292 10.3265,0.66088 11.36664,-5.5744 0.68104,-4.08452 -0.0648,-14.27323 2.09043,-16.07014 3.03841,-2.53145 9.295,0.29804 16.24422,2.26464 1.7422,0.49315 2.22015,1.44819 6.00994,-2.65649 7.23302,-7.83516 5.9841,-8.95636 2.09043,-15.72178 l -3.04856,-9.49399 5.13898,-3.26627 1.04518,-8.44873 -0.1303,-7.53423 c -2.88443,-10.75485 -2.74894,-10.94052 -8.53585,-10.97464 -1.98906,-0.0144 -5.81456,-2.39524 -7.2729,-4.00663 -4.24348,-4.68897 -8.45378,-6.22319 -15.93941,-6.35839 -6.6087,-0.1195 -9.15217,-0.38155 -11.80211,-5.44373 -2.6056,-4.97744 -1.6024,-6.84425 -6.40187,-6.22772 -3.91117,3.25446 -4.79444,5.26411 -8.71007,-2.61301 -1.96185,-2.36817 -6.14889,-1.0536 -6.14061,-1.48073 0.0216,-1.12336 -4.51943,-5.94133 -1.87265,-8.40518 3.27023,-3.04417 8.26365,-15.24649 8.75362,-19.46701 0.17206,-1.48432 2.0134,-2.14146 2.4388,-5.31313 l 1.78561,-8.361579 7.27289,-1.00166 c 10.62232,-4.12946 9.77246,-1.20855 13.32633,-6.79384 2.19474,-3.44917 10.60431,-7.20615 9.40688,-8.71006 -2.02132,-2.5386 -3.86366,-11.81615 3.09204,-11.93277 2.23542,-0.80498 -2.75728,-23.75295 -2.96138,-23.60426 -7.01149,5.10757 -6.19187,-5.34577 -4.96477,-9.3633 1.26281,-4.13417 2.06998,-11.61736 5.96639,-11.62793 7.14994,-0.0194 12.19757,1.8843 14.80713,-2.96141 0.0648,-0.12289 0.19149,-0.34564 0.26133,-0.47904 z" />
  </g>
</svg>
