<?xml version="1.0" encoding="UTF-8" standalone="no"?>
<!-- Created with Inkscape (http://www.inkscape.org/) -->

<svg
   width="210mm"
   height="297mm"
   viewBox="0 0 210 297"
   version="1.1"
   id="svg64"
   inkscape:version="1.1.2 (b8e25be833, 2022-02-05)"
   sodipodi:docname="vector.svg"
   xmlns:inkscape="http://www.inkscape.org/namespaces/inkscape"
   xmlns:sodipodi="http://sodipodi.sourceforge.net/DTD/sodipodi-0.dtd"
   xmlns="http://www.w3.org/2000/svg"
   xmlns:svg="http://www.w3.org/2000/svg">
  <sodipodi:namedview
     id="namedview66"
     pagecolor="#ffffff"
     bordercolor="#666666"
     borderopacity="1.0"
     inkscape:pageshadow="2"
     inkscape:pageopacity="0.0"
     inkscape:pagecheckerboard="0"
     inkscape:document-units="mm"
     showgrid="false"
     inkscape:zoom="0.74029882"
     inkscape:cx="361.34057"
     inkscape:cy="561.93525"
     inkscape:window-width="1920"
     inkscape:window-height="1017"
     inkscape:window-x="-8"
     inkscape:window-y="-8"
     inkscape:window-maximized="1"
     inkscape:current-layer="layer1" />
  <defs
     id="defs61" />
  <g
     inkscape:label="Capa 1"
     inkscape:groupmode="layer"
     id="layer1">
    <path
       style="fill:#000000;fill-opacity:1;fill-rule:evenodd;stroke:#d39062;stroke-width:1.68627;stroke-linecap:butt;stroke-linejoin:miter;stroke-miterlimit:4;stroke-dasharray:none;stroke-opacity:1"
       d="m 136.34124,247.92897 h 32.64394 l 0.48182,-9.34059 c 0.86294,-2.72484 1.92512,-5.05314 2.59992,-7.70367 -0.20012,-1.0006 3.30788,-3.17773 4.71854,-3.17773 2.21027,0.27533 4.56609,-0.51751 6.54806,-1.54068 1.98185,-1.02228 3.59786,-2.27272 4.33321,-2.59992 -0.10197,-1.29544 0.0637,-2.19013 0.48183,-2.8889 0.41554,-0.69851 1.04904,-1.13062 1.73341,-1.63704 1.36962,-1.01336 3.00374,-2.04405 3.948,-4.71841 0.73421,-2.45105 1.89976,-3.80525 2.8889,-5.19986 0.98913,-1.39473 1.85998,-2.83765 1.82952,-5.68141 2.55455,-2.73938 5.78186,-4.33551 8.28147,-7.31847 1.03757,-0.97002 1.66305,-1.822 2.02212,-2.69629 0.35946,-0.87442 0.3722,-1.77076 0.19248,-2.59993 -0.35946,-1.65833 -1.60009,-3.22514 -3.2741,-5.00737 -1.41513,-1.41501 -5.24689,-3.22477 -6.74053,-4.71842 -2.1139,-4.37145 -2.83268,-9.5843 -3.6593,-14.4442 -0.6692,-1.95597 -1.77267,-3.79135 -3.08137,-5.48882 -1.30882,-1.69746 -2.79686,-3.30111 -4.14073,-4.91101 -2.29936,-2.29923 -6.12118,-3.30137 -8.76279,-4.62218 0.5634,-1.86814 1.41284,-3.19391 2.11849,-4.62217 0.70616,-1.42826 1.2428,-2.94332 0.96237,-5.19985 -1.12935,-2.25781 -6.0438,-5.97204 -6.25922,-6.25923 -1.07454,-4.18879 -1.00316,-8.67317 -1.54068,-12.90352 -1.10386,-2.17903 -1.99128,-4.3341 -2.59993,-6.54806 -0.60929,-2.21396 -0.87697,-4.50605 -0.96237,-6.93326 -0.99169,-3.03204 -1.4832,-5.8665 -2.31109,-8.47395 -0.82853,-2.607307 -2.00198,-4.957657 -4.42957,-7.029497 0.15041,-3.12075 -0.73803,-5.84954 -1.54081,-8.76278 -0.80304,-2.91324 -1.53036,-6.05222 -1.05925,-9.91839 0.17463,-4.85531 -0.20904,-8.04311 -0.86676,-10.8814 -0.65773,-2.83816 -1.62481,-5.29532 -2.79253,-8.76278 -0.82088,-1.641 -2.84326,-2.36182 -4.14061,-3.65917 -0.11472,-1.08984 -1.93137,-1.68039 -4.14074,-2.02225 -2.20937,-0.34161 -4.75372,-0.44613 -6.16285,-0.57742 -4.58279,1.09875 -8.13973,2.34372 -11.94065,2.98525 -3.80078,0.64116 -7.89626,0.69087 -13.48119,-0.38494 -4.54684,2.00733 -7.89398,5.1597 -12.90352,7.2221 -0.79539,0.79539 -2.23767,1.2275 -3.46657,1.73328 -0.051,2.92076 0.11472,5.246 0.6743,7.4147 0.60419,2.33901 1.58096,4.56405 2.98512,7.41471 2.5195,5.1328 2.79228,9.79513 5.58506,14.2516 -0.051,2.76576 -0.98531,4.81184 -2.40733,6.54806 -1.42214,1.73634 -3.3716,3.18538 -5.68141,4.622167 -5.207634,5.29992 -10.656174,10.61538 -16.755294,14.82941 -1.69556,0.67812 -2.80209,2.82312 -3.94814,4.62217 -0.5736,0.89991 -1.17396,1.6656 -1.82952,2.21485 -0.65645,0.54938 -1.32909,0.89609 -2.21485,0.6743 -2.40822,-1.00316 -4.30491,-2.86442 -6.25922,-4.62218 -1.95419,-1.75775 -3.96038,-3.40818 -6.74054,-4.04437 -2.02531,-1.46866 -4.15629,-2.57252 -6.25922,-3.37033 -2.10294,-0.79794 -4.18267,-1.31099 -6.35546,-1.73328 -4.34557,-0.8451 -8.8074,-1.29174 -13.38496,-2.40733 -1.19691,-1.1969 -2.95785,-2.77595 -4.62217,-3.65929 -0.83236,-0.44104 -1.70486,-0.72401 -2.40733,-0.6743 -0.70234,0.051 -1.22877,0.43466 -1.63705,1.25172 -1.85539,2.12677 -4.21951,3.69167 -6.25922,5.48882 -1.01973,0.89863 -2.04723,1.86827 -2.79253,2.98512 -0.74567,1.11661 -1.28358,2.41268 -1.54068,3.94814 -2.83281,4.11754 -6.84608,6.52805 -9.91839,10.49607 -1.2109296,2.17508 -2.3678096,3.94877 -3.7555296,5.29621 -1.38773,1.34757 -3.0026,2.30663 -4.91102,2.79253 0.98277,1.31048 2.28139,2.95785 3.75554,4.33334 1.47401,1.37548 3.11998,2.40732 4.9110096,2.40732 3.43024,-0.1657 7.89946,-1.09493 12.03688,-1.44444 2.06877,-0.17463 4.00651,-0.19248 5.77765,0.10197 1.77127,0.28807 3.36842,0.9305 4.52594,2.02225 0.20267,0.81068 1.46854,2.67793 3.08137,4.33334 1.61283,1.65527 3.61047,3.08136 5.00738,3.08136 2.85804,0 3.56739,0.0765 3.5628,0.48182 -0.003,0.26131 -0.44486,1.01208 -0.7699,1.63705 1.5825,0.0382 3.20998,-0.0892 4.71842,0.28935 1.2753,0.31866 2.0355,1.46675 2.79252,2.79253 0.75715,1.32577 1.48664,2.80004 2.50369,3.5628 1.29149,0.96874 6.74972,0 8.47395,0 5.65911,1.75546 10.0159,5.3755 15.98501,6.93326 1.12808,0.2817 2.4782,1.68906 3.75541,3.17773 1.27734,1.48881 2.49795,3.07563 3.17773,3.75554 3.83163,3.97209 8.02972,7.24262 12.71104,10.11099 2.667874,0.53026 4.897004,1.71862 6.836904,2.98513 1.93991,1.26701 3.67867,2.58106 5.48882,3.37033 0.67939,-0.16953 1.14592,0.0255 1.54068,0.38495 0.39515,0.36327 0.65263,0.87314 0.96237,1.44431 0.62076,1.14338 1.3129,2.38158 2.79253,2.40746 1.85336,0.0382 3.22515,0.35053 4.23697,0.76989 1.01208,0.42064 1.60824,0.99424 2.02212,1.63705 0.82726,1.28511 0.775,2.86454 0.6743,4.04437 2.86021,1.67121 7.37799,1.7909 10.59243,2.31109 1.60709,0.26003 2.89284,0.56722 3.46657,1.25172 0.5736,0.68449 0.43721,1.69147 -0.7699,3.27396 2.37457,0.26768 4.00754,0.85275 5.19998,1.63705 1.19181,0.78392 1.88128,1.82608 2.31109,2.98513 0.85912,2.31835 0.63733,5.22305 0.96237,8.1851 0.69469,3.47562 1.28448,5.71546 2.11849,9.05175 -0.98022,3.29054 -1.79345,5.47506 -2.59993,6.93327 -0.80686,1.45808 -1.53584,2.16437 -2.21472,2.59992 -1.3579,0.8706 -2.53734,0.478 -3.6593,2.11849 -0.72401,0.72401 -1.10258,2.29528 -1.25172,3.85177 -0.14913,1.55649 -0.0637,3.10966 0.19248,4.14074 z"
       id="Nancagua"
       inkscape:label="#path2125" />
  </g>
</svg>
