<?xml version="1.0" encoding="UTF-8" standalone="no"?>
<!-- Created with Inkscape (http://www.inkscape.org/) -->

<svg
   width="210mm"
   height="297mm"
   viewBox="0 0 210 297"
   version="1.1"
   id="svg64"
   inkscape:version="1.1.2 (b8e25be833, 2022-02-05)"
   sodipodi:docname="vector.svg"
   xmlns:inkscape="http://www.inkscape.org/namespaces/inkscape"
   xmlns:sodipodi="http://sodipodi.sourceforge.net/DTD/sodipodi-0.dtd"
   xmlns="http://www.w3.org/2000/svg"
   xmlns:svg="http://www.w3.org/2000/svg">
  <sodipodi:namedview
     id="namedview66"
     pagecolor="#ffffff"
     bordercolor="#666666"
     borderopacity="1.0"
     inkscape:pageshadow="2"
     inkscape:pageopacity="0.0"
     inkscape:pagecheckerboard="0"
     inkscape:document-units="mm"
     showgrid="false"
     inkscape:zoom="0.74029882"
     inkscape:cx="361.34057"
     inkscape:cy="453.87078"
     inkscape:window-width="1920"
     inkscape:window-height="1017"
     inkscape:window-x="-8"
     inkscape:window-y="-8"
     inkscape:window-maximized="1"
     inkscape:current-layer="layer1" />
  <defs
     id="defs61" />
  <g
     inkscape:label="Capa 1"
     inkscape:groupmode="layer"
     id="layer1">
    <path
       id="Las_Cabras"
       style="fill:#000000;fill-opacity:1;fill-rule:evenodd;stroke:#d39062;stroke-width:0.694459;stroke-linecap:butt;stroke-linejoin:miter;stroke-miterlimit:4;stroke-dasharray:none;stroke-opacity:1"
       d="m 209.65944,148.23618 c -6.26186,10.78865 -14.32331,-9.27823 -23.86486,-6.35508 -10.42024,-0.0667 -30.61018,-1.58575 -34.75291,-13.42119 -12.71161,-2.67548 -6.58063,-15.1451 -15.28773,-20.48735 -5.28589,-1.15724 -10.12128,-0.74952 -9.19929,-13.287914 -1.86931,-13.54644 -8.2858,-3.49171 -14.1767,-15.7321 -0.12945,5.32341 -2.77993,6.75257 -6.57729,7.3772 -3.71031,0.36326 -5.2692,4.70686 -9.86591,3.022 -2.2718,2.21652 3.0088,8.02072 -3.11088,6.48841 -4.69941,-1.18989 -10.7574,-3.85902 -14.1767,1.59987 0.0367,5.035114 -7.43403,-2.7096 -9.19929,-4.48858 -3.08109,-2.93864 -4.37989,-9.62475 -2.08874,-11.7324 -6.30137,0.31812 -11.11853,-4.35383 -14.53223,-8.93265 -0.8816,1.76817 -3.12938,1.79431 -5.61234,1.12012 2.89601,0.78632 -0.66463,2.66672 -2.48184,3.11392 -1.81721,0.44725 -4.141267,1.4637 -5.729921,2.41054 -1.009131,1.00784 -4.597863,2.85748 -4.685224,4.33887 0.476334,1.72565 0.267931,4.11724 0.122102,5.87423 -1.368403,3.03176 -3.071489,-2.69832 -5.119054,1.48953 -0.567816,3.47843 -1.528443,10.923244 -5.432309,10.966294 -2.006824,1.4837 -3.168305,-1.10963 -4.907838,-1.55525 -2.24361,-0.371144 -3.840154,-1.590854 -5.821035,-0.913884 -1.856018,0.41681 -0.943324,4.455834 -2.685619,3.991314 -3.1747665,0.55927 -4.0851715,-2.20991 -8.2402765,-1.46003 -0.885932,1.64481 -2.75003395,3.89293 -1.43999995,5.70257 2.45175595,0.44463 0.85546495,2.46052 2.51556295,3.98102 1.660099,1.52055 5.893451,1.51819 7.6982095,2.19951 -1.8047585,-0.68132 5.026202,-0.86222 5.47306,0.62868 0.446885,1.49089 1.978619,3.97388 2.269648,5.47317 -2.599685,8.26718 8.221887,1.47876 7.071131,7.72534 -1.233287,8.61312 0.83421,3.53539 2.82223,5.67464 1.022675,1.10044 3.706666,1.44853 5.948125,0.50237 2.328766,0.71219 1.812311,4.11635 4.20005,5.10235 2.098064,0.86642 0.448984,4.1111 -1.596922,4.29011 -1.448304,4.65242 2.496618,6.80668 2.562131,10.96991 5.172049,2.99401 -0.1189,8.74047 3.215209,12.69319 1.20193,2.32976 2.47909,3.35623 4.03702,5.76263 1.10251,1.70297 0.84881,5.28697 3.12342,5.84326 2.24282,0.54846 3.72954,2.7233 0.84222,3.84752 0.33802,1.90271 0.32248,3.88154 0.1829,5.78719 2.18501,1.95495 3.36121,4.12275 3.49649,5.86746 0.222,2.86304 3.67357,4.55058 8.28179,5.44015 8.79572,0.10341 19.03112,-1.07283 25.29385,1.28217 2.29219,1.92051 3.006,4.06648 7.22681,5.7115 -0.56637,1.58297 0.21607,3.72317 5.41465,7.28591 1.48999,1.02112 2.27019,3.65697 4.14339,4.37026 1.35964,1.68407 0.19255,4.87033 3.37041,3.88658 1.07117,-0.33176 2.16295,2.53763 4.08953,3.22368 1.36186,-6.45476 -1.82255,-6.56484 2.09587,-16.13846 1.19109,-2.91007 6.00062,-4.36711 8.04499,-10.0879 7.33889,-0.23517 3.95905,-5.29374 5.71151,-8.04277 10.7784,-1.05188 24.9134,0.58154 28.55758,-6.17775 l 5.59496,5.36183 c 5.75889,-0.43045 7.22571,-2.08733 8.7421,-3.72999 1.44474,-0.43045 2.34531,0.16694 3.49686,0.93251 1.26476,1.25929 2.36229,0.9753 3.72996,0.23308 0.81612,-0.82653 1.42142,-1.70455 2.33123,-2.44781 1.51437,-0.36379 2.10465,0.28189 2.79747,1.5153 2.10568,0.48032 2.14634,-0.88159 3.84654,-2.0981 0.83531,-0.62647 1.59043,-0.38741 2.44779,-0.81592 3.3344,0.0814 2.69876,-3.86558 3.72998,-6.52747 2.47325,-1.81515 6.42527,-2.76272 5.59493,-4.89557 -0.31974,-0.42731 -0.10362,-1.68749 1.25705,-2.10503 2.12664,-0.65255 1.38503,-5.47143 1.30732,-5.58802 0.83614,0.56001 0.80258,-1.4709 1.63186,-3.38028 0.65925,-1.86313 2.64135,-3.15643 3.0306,-5.1287 1.37168,-2.50724 2.67462,-4.75074 3.23646,-7.55625 z"
       sodipodi:nodetypes="ccccccccccccccsccccccccccscsccscscccssccscccscscscccccccccccccscccc"
       inkscape:label="#path1952" />
  </g>
</svg>
