<?xml version="1.0" encoding="UTF-8" standalone="no"?>
<!-- Created with Inkscape (http://www.inkscape.org/) -->

<svg
   width="210mm"
   height="297mm"
   viewBox="0 0 210 297"
   version="1.1"
   id="svg64"
   inkscape:version="1.1.2 (b8e25be833, 2022-02-05)"
   sodipodi:docname="vector.svg"
   xmlns:inkscape="http://www.inkscape.org/namespaces/inkscape"
   xmlns:sodipodi="http://sodipodi.sourceforge.net/DTD/sodipodi-0.dtd"
   xmlns="http://www.w3.org/2000/svg"
   xmlns:svg="http://www.w3.org/2000/svg">
  <sodipodi:namedview
     id="namedview66"
     pagecolor="#ffffff"
     bordercolor="#666666"
     borderopacity="1.0"
     inkscape:pageshadow="2"
     inkscape:pageopacity="0.0"
     inkscape:pagecheckerboard="0"
     inkscape:document-units="mm"
     showgrid="false"
     inkscape:zoom="0.74029882"
     inkscape:cx="361.34057"
     inkscape:cy="453.87078"
     inkscape:window-width="1920"
     inkscape:window-height="1017"
     inkscape:window-x="-8"
     inkscape:window-y="-8"
     inkscape:window-maximized="1"
     inkscape:current-layer="layer1" />
  <defs
     id="defs61" />
  <g
     inkscape:label="Capa 1"
     inkscape:groupmode="layer"
     id="layer1">
    <path
       style="fill:#000000;fill-opacity:1;fill-rule:evenodd;stroke:#d39062;stroke-width:0.794592;stroke-linecap:butt;stroke-linejoin:miter;stroke-miterlimit:4;stroke-dasharray:none;stroke-opacity:1"
       d="m 204.96199,145.57384 c -0.03,-0.36459 -0.018,-0.644 -0.0481,-1.04366 0.78959,-1.05057 1.26458,-1.96654 1.58814,-2.94936 0.32374,-0.98282 0.46249,-2.02631 0.63523,-3.31245 1.19388,-0.67103 1.99964,-1.23833 2.31413,-1.9511 0.31473,-0.71283 0.15256,-1.57186 -0.54478,-2.81326 -3.17454,-0.17178 -6.34397,-0.38921 -9.52884,-0.27208 -0.684,0 -1.13928,0.15856 -1.45197,0.36278 -0.31293,0.20482 -0.49553,0.48231 -0.63529,0.7714 -0.2787,0.57841 -0.40483,1.21286 -1.17977,1.40662 -0.53877,0.13455 -1.09214,-0.024 -1.67884,-0.13634 -0.58682,-0.11172 -1.19052,-0.17599 -1.81506,0.13634 -1.03381,0.62857 -2.02672,1.28176 -3.08552,1.67884 -1.05874,0.39702 -2.19863,0.50754 -3.44849,0.048 -1.20692,-0.90522 -2.47287,-1.97375 -3.49389,-2.99477 -0.41625,-0.41624 -1.29281,-0.65956 -2.08727,-0.95291 -0.79446,-0.29311 -1.51216,-0.64898 -1.6789,-1.31587 -0.33395,-1.33689 -1.09039,-2.63739 -1.49738,-4.26529 -0.12133,-0.48591 -0.16097,-1.21767 -0.0907,-1.9511 0.0703,-0.7335 0.24867,-1.4739 0.58983,-1.815 0.52855,-0.77284 1.08438,-0.58802 1.72424,-0.99826 0.32014,-0.20542 0.66358,-0.53817 1.0436,-1.22517 0.38021,-0.68707 0.76341,-1.71644 1.22518,-3.26698 -0.39282,-1.57216 -0.67073,-2.62754 -0.99826,-4.26529 -0.15316,-1.39582 -0.048,-2.76449 -0.45348,-3.85692 -0.20241,-0.54598 -0.52735,-1.037 -1.08901,-1.40663 -0.56159,-0.36939 -1.33137,-0.64544 -2.45023,-0.77139 0.5694,-0.74569 0.63331,-1.22044 0.36278,-1.54274 -0.27028,-0.32254 -0.8762,-0.46729 -1.63348,-0.58982 -1.51469,-0.24506 -3.64352,-0.30152 -4.99128,-1.08901 0.048,-0.55619 0.0727,-1.3002 -0.31774,-1.90576 -0.19521,-0.30272 -0.4763,-0.5736 -0.95291,-0.77139 -0.4769,-0.19821 -1.12319,-0.34777 -1.99651,-0.36279 -0.69722,-0.012 -1.02348,-0.59583 -1.31587,-1.13436 -0.14595,-0.26908 -0.26788,-0.50934 -0.45408,-0.68064 -0.1862,-0.17118 -0.40543,-0.26127 -0.72599,-0.18139 -0.85296,-0.371786 -1.67229,-0.991406 -2.58639,-1.588196 -0.91411,-0.59643 -1.9645,-1.15694 -3.22163,-1.40663 -2.2059,-1.35155 -4.18409,-2.89272 -5.98954,-4.76436 -0.32014,-0.32013 -0.89554,-1.06811 -1.49738,-1.76965 -0.60184,-0.70154 -1.23809,-1.36446 -1.76965,-1.49738 -2.81272,-0.73404 -4.86563,-2.43984 -7.53227,-3.26704 -0.81254,0 -3.38452,0.45649 -3.99302,0 -0.47931,-0.35918 -0.82305,-1.05417 -1.17977,-1.67889 -0.35678,-0.62472 -0.715,-1.16566 -1.31593,-1.31587 -0.71079,-0.17779 -1.47769,-0.11893 -2.22337,-0.13635 -0.0877,0.16878 -0.11893,0.20482 -0.1814,0.45348 -0.48351,0.77884 -0.66202,1.3241 -0.68064,1.76965 -0.018,0.44567 0.12614,0.79765 0.36279,1.13436 0.23665,0.33696 0.57901,0.68202 0.86215,1.13442 0.2829,0.45228 0.51594,1.02258 0.63523,1.815 0.14235,0.79747 0.13334,1.45126 0,1.99651 -0.13334,0.54538 -0.40182,0.983 -0.72599,1.40663 -0.6485,0.84726 -1.59444,1.57799 -2.49564,2.7225 -0.26368,0.62118 -0.6243,1.07015 -1.08901,1.40669 -0.46489,0.33635 -1.01537,0.56099 -1.58814,0.77133 -1.14553,0.42105 -2.42939,0.76545 -3.44855,1.63355 -0.67349,0.79248 -1.26758,2.035796 -1.90575,2.904006 -0.31894,0.43426 -0.63986,0.77458 -0.99826,0.9075 -0.35858,0.13274 -0.75007,0.0643 -1.17977,-0.31773 -0.48291,-0.48291 -0.96816,-1.12842 -1.45197,-1.49739 -0.24206,-0.18439 -0.48111,-0.30332 -0.72599,-0.31773 -0.24506,-0.012 -0.4763,0.11292 -0.72605,0.36278 -1.3423,1.25263 -2.88287,1.93501 -4.40139,2.63175 -1.51853,0.69679 -3.01765,1.37323 -4.35599,2.58639 -0.50153,0.76443 -1.10913,1.46369 -1.81506,2.04192 -0.70587,0.57841 -1.52844,1.0731 -2.35948,1.36122 -0.83109,0.28831 -1.70946,0.3784 -2.58639,0.27209 -0.87693,-0.10571 -1.74292,-0.43967 -2.5864,-1.04361 -1.184868,0.63812 -1.744358,1.59403 -2.314118,2.49564 -0.28471,0.45108 -0.58743,0.89267 -0.95291,1.27053 -0.36579,0.3778 -0.80401,0.69517 -1.40663,0.9075 -0.77284,-0.30933 -1.61541,-0.58983 -2.40488,-0.58983 -0.39462,-6e-5 -0.80287,0.0421 -1.13442,0.22704 -0.33155,0.1868 -0.59343,0.50634 -0.81675,0.95285 -0.13334,1.1668 -0.4715,1.90354 -0.86209,2.40495 -0.39041,0.50153 -0.85266,0.77361 -1.31587,1.0436 -0.46309,0.27029 -0.91861,0.52556 -1.27052,0.99826 -0.35198,0.4727 -0.57902,1.15958 -0.6353,2.26878 0.58382,0.87548 0.57301,1.69355 0.27209,2.40488 -0.30092,0.71133 -0.89507,1.30434 -1.58814,1.815 -1.38614,1.02138 -3.08552,1.63349 -3.08552,1.63349 l 0.31773,-3.81151 -11.1169,-5.26349 -4.67366,0.58982 c 0.005,-0.002 0.0601,0.718 -0.86209,5.26355 -0.3808,1.88101 -1.32482,3.91788 -2.17803,5.49041 -0.85326,1.57252 -1.63354,2.67715 -1.63354,2.67715 h -2.31413 l -0.58983,-3.22163 h -4.94587 l -5.26354,-2.90401 h -6.89704 c 0.10511,0.7738 -0.13454,3.53288 -0.31773,4.26523 -2.27239,9.83012 -3.82425,3.51222 -4.17448,9.98262 0.40363,1.61493 0.12193,3.04666 -2.40488,2.90401 -1.87531,0 -2.81638,-0.74293 -4.67369,0 -0.40194,4.74724 -1.92264,2.77758 -0.95287,4.03837 -1.33598,1.336 -2.79219,2.76815 -4.17452,4.17454 -1.34437,1.345 -3.06893,3.10943 -4.53754,4.35605 -1.48296,1.60898 -2.59666,2.08708 -4.99129,1.58807 -0.41299,-0.41263 -0.84619,-1.76959 -1.90576,-1.76959 -0.27953,1.11809 -0.90566,1.45198 -2.087261,1.45198 -1.062968,0 -2.7348673,-0.30512 -3.5392623,0.49913 -0.849688,1.3656 -1.386548,2.71042 -1.452023,4.35604 -1.025639,1.23761 -0.820348,3.17929 -0.998244,4.80977 -0.57685,1.53324 -1.470704,2.27233 -2.541018,3.53931 -1.176488,1.60429 -1.875586,3.31568 -2.58639,5.17279 -0.930071,0.93008 -0.07484,2.41845 -0.635262,3.53924 0.212505,2.15021 1.418821,2.82575 1.089018,5.3089 -0.209802,1.6873 -0.348368,2.87638 0.998244,4.03843 0.913777,-0.36579 1.785845,-1.19599 2.22339,-1.63355 0.469396,0.67127 1.077131,1.3038 1.31589,2.08727 1.184639,1.18325 2.502294,2.49678 3.856895,3.22168 1.7103093,-0.12553 2.9818833,-0.25587 4.1745233,1.13436 0.31215,0.85843 1.0295,1.39294 0.54448,2.49564 0,0 2.21813,-2.2513 3.76615,2.67716 0.91653,2.91794 4.31766,-0.13335 3.17628,-1.5428 -1.06723,-1.31767 1.22511,-3.08546 1.22513,-3.08552 0.61745,0.048 2.71933,5.77036 9.02972,3.99308 3.19376,-0.89957 3.49846,3.4211 9.98256,6.80628 1.95843,1.0224 5.7127,-0.2901 8.34907,2.04186 2.41023,2.13196 5.79277,4.31395 8.2129,2.40489 1.93826,-0.33035 2.00631,-2.71956 2.22338,-4.62826 0.24866,-1.80034 1.13352,-2.84521 2.58639,-3.81151 2.12157,-0.75464 3.74322,-0.85783 5.44506,-2.40488 0.58922,2.36998 0.90642,1.03393 2.81326,3.04011 0.41924,2.60496 1.53666,2.30122 2.81325,4.21988 0.99019,2.11634 1.19183,3.82875 0.77138,4.80983 1.24091,0.93063 1.31131,1.40657 2.45023,1.40663 0.8484,-2.00234 0.97916,-2.86587 3.17628,-3.63006 2.33383,-1.40158 5.37767,-1.70004 7.26006,0.40843 3.02114,0.71025 3.13123,2.96276 5.03669,4.62832 2.32157,1.69559 4.85968,1.99507 7.623018,1.815 l 1.17977,-5.03669 c -0.16397,-0.40963 -1.58682,-1.81368 -1.769648,-1.99651 -1.6849,-2.01249 -3.16373,0.37239 -5.03669,-1.40663 -0.65079,-0.86774 -0.93975,-2.52351 -1.63349,-3.44849 -1.60796,-1.68166 -0.75301,-5.12834 -0.58982,-7.21471 -3.22001,-3.87806 -2.01291,-4.6372 -0.58983,-5.445 1.60803,-1.21959 2.23076,-3.05699 2.81326,-4.99128 0.32855,-1.63072 -0.11112,-3.14618 -0.81674,-4.62831 -1.2295,-1.95561 -0.51174,-1.73884 0.99825,-2.99471 0.87002,-1.57751 -0.46609,-2.60946 0.81675,-4.4468 1.48981,-0.3724 1.50369,-1.60076 1.99651,-2.5864 3.152248,0.40603 4.767358,1.44771 5.445058,-2.04192 0.39822,-1.5918 1.57829,-0.80143 2.40488,-0.18139 2.53877,1.94143 4.54459,2.10481 7.21471,0.58982 2.28608,-1.95717 5.51654,-2.50765 7.66837,-4.40139 3.63979,-2.49558 2.986,-6.94911 4.21995,-10.48169 1.2095,-0.72569 2.79325,-3.17628 4.21988,-3.17622 2.31311,0.58562 5.14084,0.0805 7.30541,-0.8168 1.89981,-0.7875 3.2597,-1.8899 3.31238,-2.81326 1.44315,1.7031 3.22019,2.85981 5.17279,3.90227 0.93801,0.3754 1.67854,0.99693 1.90576,1.90576 1.90455,4.4856 -0.53457,8.03385 0.18139,12.43285 2.43576,1.57282 5.58218,1.36062 8.39442,1.90575 2.4369,1.28152 1.99753,-0.8693 4.53756,-1.04366 4.84448,-0.048 3.71583,1.32302 4.5375,2.76791 3.26427,-1.00373 3.1418,2.9684 7.1693,1.76965 0.33515,0.22584 1.79668,-3.58081 6.80628,-6.80628 2.48573,-2.43648 1.94317,-5.52867 2.94942,-8.75744 0.77932,-1.53042 2.75187,-1.01274 4.35605,-1.54274 1.92978,-1.08907 3.97818,-1.15508 6.12564,-1.04366 2.43755,0.20001 5.39833,0.0883 7.1693,-1.58814 -0.17839,-3.85632 3.23304,-5.66195 5.94419,-5.03663 z"
       id="Chepica"
       inkscape:label="#path2118" />
  </g>
</svg>
