<?xml version="1.0" encoding="UTF-8" standalone="no"?>
<!-- Created with Inkscape (http://www.inkscape.org/) -->

<svg
   width="210mm"
   height="297mm"
   viewBox="0 0 210 297"
   version="1.1"
   id="svg64"
   inkscape:version="1.1.2 (b8e25be833, 2022-02-05)"
   sodipodi:docname="vector.svg"
   xmlns:inkscape="http://www.inkscape.org/namespaces/inkscape"
   xmlns:sodipodi="http://sodipodi.sourceforge.net/DTD/sodipodi-0.dtd"
   xmlns="http://www.w3.org/2000/svg"
   xmlns:svg="http://www.w3.org/2000/svg">
  <sodipodi:namedview
     id="namedview66"
     pagecolor="#ffffff"
     bordercolor="#666666"
     borderopacity="1.0"
     inkscape:pageshadow="2"
     inkscape:pageopacity="0.0"
     inkscape:pagecheckerboard="0"
     inkscape:document-units="mm"
     showgrid="false"
     inkscape:zoom="0.74029882"
     inkscape:cx="361.34057"
     inkscape:cy="345.8063"
     inkscape:window-width="1920"
     inkscape:window-height="1017"
     inkscape:window-x="-8"
     inkscape:window-y="-8"
     inkscape:window-maximized="1"
     inkscape:current-layer="layer1" />
  <defs
     id="defs61" />
  <g
     inkscape:label="Capa 1"
     inkscape:groupmode="layer"
     id="layer1">
    <path
       sodipodi:nodetypes="cssssscscccccccccccccccc"
       d="m 124.18482,248.43001 c -4.64893,-10.33674 -10.02995,2.39662 -20.11899,-7.6924 -10.088995,-10.08903 -7.319765,4.23961 -13.482365,4.23961 -11.55518,0 -10.8595,3.23357 -16.10522,5.85644 -0.63488,0.31726 -20.61648,5.46203 -22.57628,1.54239 -0.22577,-0.45136 -1.84922,-8.0991 -8.17002,-11.79119 -6.01873,-3.51562 -8.36311,-12.94156 -23.60836,-16.70391 -2.37694,-0.32114 -14.7033918,-9.76039 -17.5984388,-16.62833 -2.89506704,-6.86794 47.3953088,-7.52229 52.5637288,-38.75114 -5.73592,-25.77668 4.23489,-55.41152 -10.15731,-78.472958 -2.32708,-1.931323 -8.16945,-6.188641 -13.62379,-11.00413 -5.44993,-4.81499 23.05264,2.171388 10.11215,-9.873125 9.03221,-9.603087 24.29999,-14.446299 37.10175,-10.19966 9.83052,9.9166 9.06203,-8.433625 18.15151,-7.806267 9.341485,-8.544868 26.149085,-12.994717 32.622055,1.050823 11.47845,10.884475 18.74881,-5.977278 29.68165,-6.695995 10.40678,-1.537407 29.25409,-5.766559 33.11061,7.40228 0.27668,12.117961 -0.0738,24.192927 -2.75202,36.077759 -0.31173,14.198523 18.35684,20.334083 18.22367,35.124673 -0.25639,15.89156 -14.67869,26.84065 -17.94607,41.95431 -1.23768,13.12083 -13.6109,20.62506 -19.10259,31.75684 -8.50434,13.3357 10.42504,24.32618 6.61131,36.49265 -9.66491,7.99729 -25.17603,3.86368 -33.41385,-4.43692 -11.021,-11.25294 -18.11798,10.02807 -19.52313,18.55818 z"
       style="fill:#000000;fill-opacity:1;fill-rule:evenodd;stroke:#d38d5f;stroke-width:4.88029;stroke-linecap:butt;stroke-linejoin:miter;stroke-miterlimit:4;stroke-opacity:1"
       id="Algarrobo" />
  </g>
</svg>
