<?xml version="1.0" encoding="UTF-8" standalone="no"?>
<!-- Created with Inkscape (http://www.inkscape.org/) -->

<svg
   width="210mm"
   height="297mm"
   viewBox="0 0 210 297"
   version="1.1"
   id="svg64"
   inkscape:version="1.1.2 (b8e25be833, 2022-02-05)"
   sodipodi:docname="vector.svg"
   xmlns:inkscape="http://www.inkscape.org/namespaces/inkscape"
   xmlns:sodipodi="http://sodipodi.sourceforge.net/DTD/sodipodi-0.dtd"
   xmlns="http://www.w3.org/2000/svg"
   xmlns:svg="http://www.w3.org/2000/svg">
  <sodipodi:namedview
     id="namedview66"
     pagecolor="#ffffff"
     bordercolor="#666666"
     borderopacity="1.0"
     inkscape:pageshadow="2"
     inkscape:pageopacity="0.0"
     inkscape:pagecheckerboard="0"
     inkscape:document-units="mm"
     showgrid="false"
     inkscape:zoom="0.74029882"
     inkscape:cx="361.34057"
     inkscape:cy="561.93525"
     inkscape:window-width="1920"
     inkscape:window-height="1017"
     inkscape:window-x="-8"
     inkscape:window-y="-8"
     inkscape:window-maximized="1"
     inkscape:current-layer="layer1" />
  <defs
     id="defs61" />
  <g
     inkscape:label="Capa 1"
     inkscape:groupmode="layer"
     id="layer1">
    <path
       style="fill:#000000;fill-opacity:1;fill-rule:evenodd;stroke:#d39062;stroke-width:0.922756;stroke-linecap:butt;stroke-linejoin:miter;stroke-miterlimit:4;stroke-dasharray:none;stroke-opacity:1"
       d="m 2.3323412,150.69075 c 0.12901,0.13619 0.344334,0.2006 0.461382,0.34599 0.750783,0.93335 1.286379,2.03527 1.672499,3.17198 0.772223,2.27342 1.049825,4.6084 1.672499,5.70959 0.597295,4.70254 0.927201,8.67757 1.384139,12.16886 0.456966,3.4912 1.008307,6.53822 1.960859,9.40056 -0.557727,1.28274 -0.780689,2.78937 -0.74977,4.49844 0.03129,1.70906 0.294276,3.60659 0.807374,5.5365 0.5130968,1.93 1.2450428,3.87951 2.1338718,5.82498 0.888811,1.94537 1.956212,3.89654 3.114306,5.65189 1.158095,1.75526 2.42779,3.36937 3.748703,4.72913 1.320904,1.35967 2.717484,2.41329 4.094731,3.17189 1.377257,0.75824 2.709919,1.2014 4.037059,1.15346 1.32716,-0.046 2.6358,-0.55488 3.80638,-1.61475 0.96736,-1.97077 1.96854,-4.04561 3.1143,-5.99798 1.14578,-1.95236 2.42959,-3.80921 3.92172,-5.2482 1.49214,-1.4389 3.18401,-2.45295 5.19051,-2.8836 1.00324,-0.21532 2.12398,-0.30274 3.28732,-0.17299 1.16334,0.12974 2.4043,0.44445 3.7487,0.98046 0.79486,1.91197 1.8564,3.1325 3.05663,3.80636 1.20023,0.67358 2.54019,0.81161 3.92172,0.57696 1.38153,-0.23465 2.75596,-0.85946 4.09474,-1.67245 1.33877,-0.81252 2.61911,-1.82215 3.69102,-2.88368 2.0721,0.0368 4.31648,-0.2641 6.45931,-0.92277 2.14282,-0.65886 4.16799,-1.65275 5.94024,-2.9412 1.77225,-1.28854 3.2497,-2.87154 4.21008,-4.72913 0.48025,-0.92884 0.84363,-1.9393 1.0381,-2.99899 0.19453,-1.05969 0.2617,-2.16207 0.1153,-3.34498 0.4255,-1.4181 1.29961,-2.52426 2.36456,-3.46037 1.06496,-0.9361 2.31716,-1.71965 3.46035,-2.59521 1.14319,-0.87602 2.16573,-1.82004 2.82594,-3.05668 0.66023,-1.23664 0.96068,-2.76756 0.57668,-4.78682 -0.0166,-1.14049 0.13692,-2.10033 0.46138,-2.9413 0.32446,-0.84105 0.79044,-1.58557 1.38414,-2.19152 1.18746,-1.21189 2.84152,-1.9934 4.67146,-2.6529 1.82993,-0.65978 3.816776,-1.16395 5.709556,-1.78784 1.89277,-0.62389 3.69922,-1.37495 5.07516,-2.47991 0.66253,-0.5153 1.35708,-0.82817 2.0762,-0.98046 0.71913,-0.15183 1.44263,-0.14263 2.19155,0 1.49788,0.28526 3.042,1.07552 4.49845,2.13392 2.91286,2.11671 5.51666,5.25814 6.97834,7.20904 -0.30891,1.05131 -0.36476,2.06987 -0.28838,2.99889 0.0764,0.92912 0.31663,1.77403 0.69207,2.53761 0.75087,1.52724 1.97267,2.68115 3.40267,3.28737 0.71498,0.30275 1.49374,0.45366 2.24921,0.46102 0.75548,0.007 1.53946,-0.13159 2.24923,-0.46102 0.70974,-0.33034 1.32532,-0.84565 1.90318,-1.55723 0.57788,-0.71131 1.08205,-1.63196 1.44181,-2.76821 1.5117,-1.46733 3.32426,-2.40905 5.30586,-2.94129 1.9816,-0.53279 4.12047,-0.64597 6.28628,-0.46101 2.1658,0.18403 4.39498,0.64413 6.4593,1.32645 2.06432,0.68278 3.97474,1.57509 5.65188,2.5376 0.55359,0.86682 1.52906,1.33308 2.65293,1.44176 1.12386,0.10858 2.37981,-0.13711 3.57569,-0.57696 1.19587,-0.43893 2.34465,-1.06807 3.1143,-1.84553 0.76965,-0.77756 1.1929,-1.68966 1.0381,-2.59521 0.0488,-0.68923 0.29473,-1.24806 0.69207,-1.67254 0.39734,-0.42421 0.95238,-0.74443 1.61482,-0.98046 1.32488,-0.47206 3.07769,-0.62941 4.95982,-0.80701 1.88213,-0.17759 3.88343,-0.36991 5.65189,-0.86497 0.88421,-0.24753 1.69222,-0.53923 2.42224,-0.98047 0.72998,-0.44169 1.35357,-1.018 1.84551,-1.73014 0.69842,-0.49046 1.62675,-0.68462 2.59525,-0.74995 0.96851,-0.0644 2.01719,0.004 3.05663,0.0552 1.03946,0.0552 2.03,0.0736 2.9413,-0.0552 0.91126,-0.13251 1.72286,-0.41316 2.30689,-1.03806 0.81216,-0.86866 1.27117,-2.26891 1.61482,-3.80637 0.34369,-1.53754 0.56178,-3.19287 0.98044,-4.67152 0.41859,-1.47856 1.03909,-2.76811 2.07619,-3.46028 0.51853,-0.34599 1.12812,-0.56408 1.90319,-0.57696 0.77508,-0.009 1.72641,0.16564 2.82595,0.57696 0.80424,-0.68462 1.2882,-1.38654 1.55715,-2.13392 0.26897,-0.74719 0.27385,-1.51831 0.1153,-2.30691 -0.3171,-1.57721 -1.33023,-3.23401 -2.7106,-4.84443 -2.76074,-3.22075 -6.81034,-6.35105 -8.65085,-8.65088 -0.85155,-1.44286 -1.84623,-2.62245 -2.94129,-3.57567 -1.09505,-0.95323 -2.30436,-1.67125 -3.57568,-2.01853 -1.27132,-0.34691 -2.59908,-0.37452 -3.97939,0 -1.38031,0.37452 -2.788,1.15125 -4.21008,2.36461 -2.91309,-0.60456 -7.13709,-2.96328 -10.84239,-3.86406 -0.92632,-0.22544 -1.81586,-0.35979 -2.65293,-0.34599 -0.8371,0.0184 -1.61457,0.16288 -2.30689,0.51899 -0.69235,0.35611 -1.29577,0.8705 -1.78785,1.67244 -0.49211,0.80149 -0.85945,1.87949 -1.09577,3.22968 -0.72833,1.00393 -1.41761,1.69876 -2.0762,2.19152 -0.65858,0.49323 -1.2908,0.76652 -1.90319,0.86498 -1.22477,0.19692 -2.39468,-0.24293 -3.57568,-0.92276 -0.27753,-0.16012 -0.58358,-0.34323 -0.86507,-0.51899 -0.77544,0.24753 -1.30491,0.50242 -2.3069,0.74995 -1.75531,0.43433 -3.45921,0.92047 -3.86404,1.73014 -0.84961,1.69932 -1.21223,3.69024 -2.01853,5.24821 -0.40314,0.7794 -0.92898,1.4251 -1.67249,1.90314 -0.74351,0.47849 -1.73864,0.74995 -3.05664,0.74995 -1.48479,0 -2.21958,0.12514 -2.59525,0.28802 -0.37563,0.16287 -0.39541,0.3782 -0.346,0.69198 0.0497,0.31379 0.15211,0.7021 -0.058,1.15337 -0.20971,0.45089 -0.69262,0.98073 -1.84551,1.55723 -1.27957,0.63953 -2.21628,0.96832 -2.94129,1.09576 -0.72502,0.12699 -1.26543,0.0736 -1.73017,-0.11502 -0.92947,-0.369 -1.63337,-1.20131 -3.28732,-1.61484 -2.24569,-0.56132 -6.01147,-0.57696 -9.1699,-0.57696 -3.66044,0 -7.29729,0 -10.95774,0 -0.57962,0 -1.15774,-0.37728 -1.6725,-0.92276 -0.51475,-0.54568 -0.98733,-1.25339 -1.4418,-1.90323 -0.45448,-0.64966 -0.86995,-1.24373 -1.2688,-1.55715 -0.39881,-0.31286 -0.74802,-0.34875 -1.09577,0.11503 -0.62812,0.83737 -1.27331,1.37366 -1.90319,1.73014 -0.62987,0.35703 -1.25064,0.53187 -1.96086,0.63401 -1.420426,0.2052 -3.092586,0.13895 -5.305836,0.69198 -0.58285,0.14631 -6.15308,4.68514 -6.11327,4.84452 0.30918,1.23692 0.55533,2.02018 0.28839,2.7683 -0.26695,0.74811 -1.02878,1.4492 -2.7106,2.7106 -0.66539,0.49874 -2.68521,2.06775 -4.67146,2.9412 -0.99313,0.43709 -1.96362,0.68554 -2.76827,0.57696 -0.80461,-0.10951 -1.45982,-0.59077 -1.73017,-1.67254 -0.63649,-2.54579 -1.3004,-5.65741 -2.42224,-7.90111 -0.46065,-0.9212 -1.00241,-2.54074 -1.84551,-4.03705 -0.42154,-0.74812 -0.90133,-1.49494 -1.49948,-2.07623 -0.59821,-0.58156 -1.30504,-1.00383 -2.13388,-1.21106 -1.97044,-0.4923 -3.28139,-0.56591 -4.21008,-0.69198 -0.92868,-0.12699 -1.48761,-0.32207 -1.90318,-1.15346 -0.6918,-1.3835 -0.63704,-2.1468 -0.57668,-2.94129 0.0607,-0.79412 0.13527,-1.63278 -0.63438,-3.17198 -0.96069,-1.92136 -1.80932,-4.87268 -2.42223,-7.32434 -0.74048,-2.96181 -1.34494,-4.42004 -2.47991,-6.69005 -0.47215,-0.9443 -0.67616,-1.72839 -0.74977,-2.47991 -0.0736,-0.7518 -0.0184,-1.44948 0.1729,-2.19152 0.38197,-1.48408 1.15127,-3.16325 1.78785,-5.70959 -1.08804,-0.27238 -2.64422,-0.33219 -4.15241,-0.51899 -1.50819,-0.1868 -2.93851,-0.51623 -3.7487,-1.32645 -0.43562,-0.43525 -1.57564,-1.928718 -2.7106,-3.345068 -1.13496,-1.41627 -2.25302,-2.7106 -2.76827,-2.7106 -3.1628,0 -6.35176,-0.0736 -9.1699,-0.63401 -1.24004,-0.24754 -1.92068,-0.62941 -2.30689,-1.09577 -0.3862,-0.46653 -0.46543,-1.03935 -0.46138,-1.55714 0.004,-0.51807 0.069,-0.98138 0,-1.38415 -0.069,-0.40304 -0.31645,-0.74351 -0.92276,-0.86498 -0.80304,-0.16011 -2.72317,0.30275 -4.72912,0.57696 -1.00299,0.13711 -2.06407,0.23557 -2.9413,0.173 -0.877212,-0.0644 -1.609038,-0.2825 -2.0762,-0.74996 -0.869671,-0.86957 -2.042967,-1.98724 -3.344989,-2.94129 -1.089043,-0.7978 -2.269085,-1.24216 -3.344997,-1.55714 -8.2108378,8.5377 -19.2409048,14.67223 -15.1101488,31.373748 0.276241,11.93872 1.019799,23.13843 0.980434,34.31505 z"
       id="Licanten"
       inkscape:label="#path2774" />
  </g>
</svg>
