<?xml version="1.0" encoding="UTF-8" standalone="no"?>
<!-- Created with Inkscape (http://www.inkscape.org/) -->

<svg
   width="210mm"
   height="297mm"
   viewBox="0 0 210 297"
   version="1.1"
   id="svg1283"
   inkscape:version="1.1.2 (b8e25be833, 2022-02-05)"
   sodipodi:docname="vector.svg"
   xmlns:inkscape="http://www.inkscape.org/namespaces/inkscape"
   xmlns:sodipodi="http://sodipodi.sourceforge.net/DTD/sodipodi-0.dtd"
   xmlns="http://www.w3.org/2000/svg"
   xmlns:svg="http://www.w3.org/2000/svg">
  <sodipodi:namedview
     id="namedview1285"
     pagecolor="#ffffff"
     bordercolor="#666666"
     borderopacity="1.0"
     inkscape:pageshadow="2"
     inkscape:pageopacity="0.0"
     inkscape:pagecheckerboard="0"
     inkscape:document-units="mm"
     showgrid="false"
     inkscape:zoom="0.74029882"
     inkscape:cx="361.34057"
     inkscape:cy="561.93525"
     inkscape:window-width="1920"
     inkscape:window-height="1017"
     inkscape:window-x="-8"
     inkscape:window-y="-8"
     inkscape:window-maximized="1"
     inkscape:current-layer="layer1" />
  <defs
     id="defs1280" />
  <g
     inkscape:label="Capa 1"
     inkscape:groupmode="layer"
     id="layer1">
    <path
       d="m 71.358036,81.106333 -0.64722,0.64723 0.64722,0.56643 -0.64722,0.64722 h -2.42706 l -0.64723,0.64723 -0.64723,-0.64723 v -0.64722 l -3.72143,12.4584 -6.22945,22.328137 -4.28769,-0.56643 -0.64723,2.42697 -9.30366,-1.86071 -1.86071,8.09 v 0.64722 l 0.56643,0.56644 v 0.64722 l -0.56643,0.64723 v 3.72134 l -0.64723,1.21349 v 4.36857 l 0.64723,0.64723 v 0.56643 l -0.64723,1.29437 v 2.42697 h -2.50794 l -0.56643,-0.56643 h -0.64723 l -0.64723,-0.64722 h -1.21349 l -1.21348,-1.21349 h -1.29446 l -0.56643,-0.64723 h -1.29445 l -1.21349,-1.21349 h -0.64723 l -0.64723,-0.64722 h -1.86071 l -0.56643,-0.64723 h -0.64723 v 0.64723 h -1.86071 l -1.21358,1.21348 h -4.36865 l -0.64723,0.64723 -0.56643,-0.64723 -1.29437,0.64723 h -1.21357 l -0.64723,-0.64723 -0.64723,0.64723 h -1.21357 l -0.64723,0.64723 -0.5664301,-0.64723 h -0.64723 l -1.21349,1.21349 h -1.86071 v 0.64723 h -2.50794 l -0.64723,0.64722 H 0.56854592 v 1.86072 l 1.21356998,0.56643 h 0.64723 l 0.56643,0.64723 v 0.64722 l 1.86072,1.86063 v 0.64723 l 0.64722,0.56643 v 1.86072 l 0.64723,0.64722 v 0.64723 l 0.56643,0.56643 1.29446,0.64723 0.56643,0.64723 h 2.5079401 v 0.56643 l 0.64723,0.64723 h 0.56643 l 1.29437,1.21348 h 0.64723 v 0.64723 l 1.86071,1.86071 v 1.21349 l 0.56643,0.64723 v 1.29445 l 2.50794,2.42698 h 0.64723 l 0.56643,0.64723 v 1.21348 l 0.64723,0.64723 -0.64723,1.21349 v 0.64722 h -1.21357 v 1.21349 l -0.64723,1.29446 v 0.56643 l -1.21357,1.29437 v 1.21348 l 0.64723,0.64723 h 1.86071 v 0.56643 l 0.56643,1.29437 0.64723,0.64723 h 1.21357 l 0.64723,0.56643 h 0.64723 l 0.56643,0.64723 h 0.64723 l 1.86071,1.86071 v 1.86063 l 0.64723,1.21349 v 0.64723 l 0.56643,0.64722 v 4.28769 l 0.64723,1.29437 -0.64723,0.56643 1.94168,1.94151 h 0.56644 l 1.29445,1.21349 v 0.64723 l -0.64723,1.21348 0.64723,0.64723 -0.64723,0.56643 0.64723,0.64723 v 1.21357 l 0.56643,0.64723 -0.56643,0.64723 0.56643,0.56643 v 1.29437 l -1.21349,1.21349 h -0.64722 l -0.56643,0.64722 v 0.56644 l 0.56643,0.64722 v 0.64723 l -1.21349,1.21349 v 1.29445 l -0.64723,0.56643 v 0.64723 l -0.64722,0.64723 v 0.56643 l 0.64722,0.64723 v 1.86071 l -0.64722,0.64723 v 1.2134 l 0.64722,0.64723 h 2.50794 l 0.64723,0.56643 v 0.64723 l 6.14841,-20.46752 41.66408,8.00903 1.21349,-1.86063 h 3.15517 l 0.56643,-3.0742 2.50794,0.64723 1.21349,-5.58206 8.73731,1.86063 1.21349,-1.86063 1.86071,0.56643 h 0.647234 v -1.21348 l 1.21349,-1.21349 h 0.64723 v -2.50786 h 1.21357 l 0.64723,0.56644 h 1.21348 l 1.29446,0.64722 h 0.64723 l 0.56643,0.64723 v 0.64723 l 0.64722,0.56643 h 0.64723 l 0.56643,0.64723 h 3.72143 l 0.64723,0.64722 h 1.86071 l 15.53295,4.28769 24.27034,6.2292 v -1.21348 l -0.64723,-0.64723 h -0.64722 v -0.64723 l -1.21358,-1.21349 v -0.64722 h -0.64723 l -0.64722,-0.56644 v -0.64722 l -0.56643,-0.64723 0.56643,-0.56643 h 0.64722 v -0.64723 l -0.64722,-0.64723 v -1.86071 l -0.56643,-0.56643 v -2.50786 l -0.64723,-0.64723 h -0.64723 l -0.56643,-0.64722 h -1.29446 v -0.56644 l -1.21348,-1.29436 v -0.56644 l -0.64723,-0.64722 v -1.21349 l 0.64723,-0.64723 -0.64723,-0.64723 h 1.86071 v -0.56643 l -0.56643,-0.64722 0.56643,-1.21349 19.90169,5.58197 21.11517,5.58206 2.50795,-8.73706 1.86071,0.64723 3.0742,-8.65617 8.7374,1.86071 1.86072,-8.08991 -0.64723,-0.64723 2.50794,-8.65617 -19.90169,-5.66294 0.64723,-1.21349 h -1.86071 l 1.86071,-7.44277 -11.81151,-3.72134 2.50785,-9.30341 -0.64722,-0.64722 -14.31946,-3.72143 1.29445,-8.73706 -36.08185,-9.95062 h -0.56644 l 1.86072,-7.44269 -13.10597,-3.721337 v -0.56644 l -17.39374,-5.01571 -15.532954,-3.72134 0.64723,-4.36857 -2.50794,-0.56643 -1.86072,5.58205 v -0.64722 l -0.56643,-0.64723 v -2.42697 h -1.29445 l -0.56643,-0.64723 h -0.64723 l -0.64723,-0.64723 h -0.56643 l -1.29446,0.64723 h -1.21348 v -1.21357 l 0.64722,-0.64723 h 1.21349 v -0.64723 l -0.64723,-0.56643 h -0.56643 l -1.29445,0.56643 h -0.64723 l -0.56643,-0.56643 v -0.64723 h 0.56643 l 1.29446,-1.21349 h -1.29446 l -0.56643,-0.64722 h -0.64723 l -0.64723,0.64722 h -0.56643 z"
       style="fill:#000000;fill-opacity:1;fill-rule:evenodd;stroke:#d38d5f;stroke-width:1.13709;stroke-linecap:butt;stroke-linejoin:miter;stroke-miterlimit:4;stroke-dasharray:none;stroke-opacity:1"
       id="Gorbea" />
  </g>
</svg>
