<?xml version="1.0" encoding="UTF-8" standalone="no"?>
<!-- Created with Inkscape (http://www.inkscape.org/) -->

<svg
   width="210mm"
   height="297mm"
   viewBox="0 0 210 297"
   version="1.1"
   id="svg64"
   inkscape:version="1.1.2 (b8e25be833, 2022-02-05)"
   sodipodi:docname="vector.svg"
   xmlns:inkscape="http://www.inkscape.org/namespaces/inkscape"
   xmlns:sodipodi="http://sodipodi.sourceforge.net/DTD/sodipodi-0.dtd"
   xmlns="http://www.w3.org/2000/svg"
   xmlns:svg="http://www.w3.org/2000/svg">
  <sodipodi:namedview
     id="namedview66"
     pagecolor="#ffffff"
     bordercolor="#666666"
     borderopacity="1.0"
     inkscape:pageshadow="2"
     inkscape:pageopacity="0.0"
     inkscape:pagecheckerboard="0"
     inkscape:document-units="mm"
     showgrid="false"
     inkscape:zoom="0.74029882"
     inkscape:cx="361.34057"
     inkscape:cy="561.93525"
     inkscape:window-width="1920"
     inkscape:window-height="1017"
     inkscape:window-x="-8"
     inkscape:window-y="-8"
     inkscape:window-maximized="1"
     inkscape:current-layer="layer1" />
  <defs
     id="defs61" />
  <g
     inkscape:label="Capa 1"
     inkscape:groupmode="layer"
     id="layer1">
    <path
       style="fill:#000000;fill-opacity:1;fill-rule:evenodd;stroke:#d39062;stroke-width:0.349374;stroke-linecap:butt;stroke-linejoin:miter;stroke-miterlimit:4;stroke-dasharray:none;stroke-opacity:1"
       d="m 17.846605,27.990219 -1.48484,10.830598 -2.751323,0.39305 -7.8827533,11.81322 2.358277,0.78607 -3.537415,14.5864 -2.751323,1.96523 -1.59401901,6.35422 c 0.160892,0.0826 0.333665,0.0996 0.502225,0.21845 0.42116601,0.29649 0.88857801,0.71388 1.48484001,1.31013 0.55807,0.55807 0.965314,1.25944 1.375662,1.96523 0.410347,0.70579 0.817598,1.40716 1.375661,1.96523 1.18496,1.18495 2.619811,1.83371 3.952295,3.16621 0.502239,0.50225 1.086478,1.4289 1.7031983,2.31461 0.616723,0.8857 1.257971,1.72079 1.834217,2.00888 0.550998,0.27559 1.129519,0.42606 1.725035,0.50226 0.595513,0.0763 1.201827,0.0773 1.812377,0.0874 0.610553,0.0104 1.216278,0.0314 1.812379,0.10905 0.596102,0.0766 1.194698,0.20416 1.74687,0.48041 1.346054,0.67301 2.358729,1.68121 3.471909,2.31461 0.55659,0.31669 1.14112,0.55214 1.79054,0.58956 0.64942,0.0373 1.36245,-0.12438 2.20542,-0.54591 0.72563,-0.36283 1.4021,-0.55413 2.05258,-0.67691 0.65047,-0.12264 1.27566,-0.16236 1.89972,-0.17455 0.62406,-0.0104 1.25334,-0.0139 1.89972,-0.0436 0.64639,-0.0314 1.31329,-0.10452 2.03074,-0.28395 1.11793,-0.27942 2.10477,-0.75659 3.1007,-1.17913 0.49796,-0.21113 0.99967,-0.40491 1.52851,-0.54591 0.52884,-0.1411 1.08073,-0.24005 1.68136,-0.24005 1.96966,0 3.94786,0 5.91752,0 0.69841,0 1.27936,0.0711 1.79055,0.1965 0.51118,0.12542 0.94635,0.30764 1.33198,0.54588 0.77129,0.47633 1.34789,1.15666 1.98707,2.00892 0.15239,0.20311 1.02838,1.30518 1.92156,2.29276 0.44659,0.49379 0.9009,0.97082 1.26648,1.28832 0.36559,0.31739 0.63531,0.47829 0.74242,0.37119 0.66505,-0.66503 1.17749,-1.25672 1.85605,-1.68136 0.33928,-0.21217 0.73535,-0.38456 1.20098,-0.50222 0.46562,-0.11776 1.00742,-0.17455 1.68136,-0.17455 1.19707,0 2.31355,0.0279 3.4064,0 1.09285,-0.0279 2.16885,-0.11114 3.29722,-0.39303 0.66927,-0.16723 1.65316,-0.51518 2.77315,-0.74244 0.55999,-0.11358 1.15239,-0.19755 1.74687,-0.21845 0.59448,-0.0209 1.19187,0.007 1.76872,0.15295 1.37385,0.34352 2.52779,0.74007 3.69027,1.04813 1.16244,0.30799 2.33847,0.54588 3.79943,0.54588 0.65632,0 1.29166,0.14981 1.89973,0.37122 0.60806,0.22158 1.18596,0.51246 1.72504,0.80794 0.53905,0.29545 1.03549,0.58633 1.48482,0.80791 0.44933,0.22159 0.86212,0.37122 1.20098,0.37122 0.65753,0 1.12363,-0.11009 1.48485,-0.26199 0.36119,-0.15191 0.60685,-0.34771 0.82975,-0.56776 0.22298,-0.21984 0.41241,-0.45069 0.65507,-0.65507 0.24284,-0.20451 0.5403,-0.37526 0.96079,-0.48037 1.22289,-0.30555 2.1042,-0.61807 2.88233,-0.69876 0.38909,-0.0404 0.75094,-0.0411 1.11363,0.0655 0.36268,0.10661 0.74265,0.31879 1.13547,0.63326 0.65657,0.52521 1.30867,1.04691 1.96523,1.57216 l 4.323503,-1.17913 c 0.57284,0.28639 0.98744,0.50177 1.26647,0.69876 0.27907,0.19684 0.42721,0.36714 0.48041,0.56772 0.10627,0.40122 -0.17838,0.9041 -0.56775,1.87788 -0.36377,0.90947 -0.56643,1.92395 -0.82976,2.83868 -0.13169,0.457383 -0.27906,0.876643 -0.45853,1.266473 -0.17977,0.38983 -0.40059,0.74994 -0.67691,1.02629 -0.67001,0.67001 -1.09091,1.23979 -1.48485,1.89973 -0.39394,0.65994 -0.75474,1.40026 -1.266483,2.4238 -0.56517,1.13032 -2.12845,3.79712 -2.35829,4.71652 -0.14773,0.59096 -0.56009,1.51736 -0.9171,2.4238 -0.35701,0.90644 -0.67691,1.80413 -0.67691,2.31461 0,0.73652 -0.14529,1.5615 -0.41488,2.33642 -0.26966,0.77495 -0.66033,1.49008 -1.15732,1.98707 -0.59629,0.59629 -0.9325,1.02277 -1.13544,1.35382 -0.20312,0.33098 -0.26165,0.56493 -0.28395,0.80794 -0.0209,0.24284 -0.0104,0.49766 -0.0655,0.82976 -0.0543,0.33203 -0.18117,0.75547 -0.48041,1.35382 -0.35251,0.70509 -0.70788,1.38664 -1.28829,1.89973 -0.29022,0.25642 -0.63715,0.46306 -1.06997,0.61141 -0.43282,0.14842 -0.93964,0.24005 -1.57217,0.24005 -0.50156,0 -0.93263,0.0732 -1.28832,0.1965 -0.35572,0.12333 -0.63193,0.30938 -0.87344,0.54587 -0.48303,0.47313 -0.78819,1.14384 -1.00444,2.00892 -0.16445,0.65824 -0.6133,1.64718 -0.69876,2.46746 -0.0429,0.41013 0.0209,0.78164 0.24005,1.04813 0.22089,0.26653 0.59747,0.43668 1.24463,0.43668 0.68308,0 1.20331,0.12125 1.61585,0.30555 0.41258,0.18466 0.73311,0.4307 1.02629,0.67691 0.29336,0.24632 0.54853,0.49226 0.87345,0.67691 0.32505,0.18466 0.71502,0.30555 1.22282,0.30555 0.32087,0 0.80338,0.18849 1.35382,0.43672 0.55044,0.24841 1.16335,0.55236 1.79054,0.82979 0.62719,0.27733 1.26135,0.52403 1.81238,0.61138 0.27559,0.0436 0.53647,0.0449 0.76426,0 0.22785,-0.045 0.42864,-0.14494 0.58956,-0.30555 0.43798,-0.43798 1.05451,-0.94497 1.50667,-1.48485 0.22611,-0.27002 0.41198,-0.55079 0.50222,-0.82976 0.0902,-0.27907 0.0948,-0.55274 -0.0436,-0.82975 -0.27872,-0.55741 -0.76927,-1.16039 -1.09179,-1.81239 -0.16131,-0.3261 -0.27489,-0.67151 -0.30555,-1.02629 -0.0314,-0.35477 0.0244,-0.72666 0.21845,-1.11363 0.21984,-0.43954 0.40161,-0.80575 0.58957,-1.09179 0.18814,-0.28603 0.37167,-0.47748 0.61141,-0.58956 0.2397,-0.11219 0.52016,-0.12577 0.89525,-0.0435 0.37509,0.0822 0.847143,0.24876 1.441173,0.54591 0.24109,0.12055 1.5437,0.36492 2.72948,0.69875 0.59291,0.16689 1.16892,0.35374 1.55035,0.56773 0.19058,0.10695 0.33308,0.23133 0.41488,0.34937 0.0819,0.11811 0.10801,0.24284 0.0435,0.37123 -0.16932,0.33864 -0.83557,0.93319 -1.41935,1.594 -0.29196,0.33029 -0.56051,0.67221 -0.74241,1.00445 -0.18187,0.33237 -0.28883,0.65729 -0.21845,0.93894 0.20904,0.83627 0.83272,1.56972 1.28832,2.31461 0.22786,0.37244 0.40805,0.73753 0.48038,1.13547 0.0725,0.39795 0.0314,0.8108 -0.1965,1.26648 -0.0655,0.13065 -0.67343,1.05008 -1.26648,1.96523 -0.59305,0.91515 -1.16578,1.83904 -1.09178,1.98708 0.0909,0.18186 1.64376,2.97775 2.35826,3.93046 0.4362,0.58158 1.03078,1.00831 1.68139,1.35382 0.6506,0.34561 1.37813,0.61301 2.11807,0.87344 0.73994,0.26026 1.47938,0.52522 2.18357,0.8516 0.70419,0.32645 1.35637,0.72311 1.89974,1.26647 0.64499,0.645 1.02799,1.08064 1.22282,1.41932 0.19475,0.33865 0.21566,0.57835 0.15294,0.80795 -0.0627,0.22959 -0.22158,0.44644 -0.34937,0.76425 -0.12787,0.31774 -0.24005,0.72875 -0.24005,1.33198 0,0.11845 -0.003,1.19543 -0.15295,2.24911 -0.0749,0.52681 -0.18396,1.05342 -0.34938,1.44116 -0.16549,0.3877 -0.38578,0.65507 -0.67691,0.65507 -1.19258,0 -2.28043,-0.13693 -2.92602,0.0436 -0.32296,0.0902 -0.5389,0.24423 -0.58956,0.54587 -0.0505,0.30137 0.0596,0.75227 0.37119,1.37567 0.26165,0.52312 0.27279,0.96423 0.15294,1.35382 -0.12019,0.38961 -0.37345,0.7269 -0.63325,1.02628 -0.25991,0.29928 -0.5194,0.55543 -0.67691,0.80795 -0.15748,0.25259 -0.20835,0.49351 -0.0209,0.74241 0.66577,0.88766 0.96024,1.47684 1.04814,1.89973 0.0878,0.42285 -0.0463,0.67569 -0.262,0.89525 -0.21566,0.21949 -0.49745,0.3991 -0.74241,0.67691 -0.24493,0.27768 -0.43672,0.66893 -0.43672,1.26651 0,0.46157 0.40244,1.33849 0.80791,2.16173 0.4055,0.82328 0.81045,1.58398 0.76425,1.76873 -0.15887,0.63493 -0.19685,1.14614 -0.15295,1.57217 0.0443,0.42602 0.16758,0.7622 0.30555,1.02628 0.27628,0.52822 0.63322,0.77628 0.63322,0.93895 0,0.80923 -0.17106,1.69271 -0.45853,2.46745 -0.28778,0.77474 -0.68855,1.4528 -1.11363,1.87789 -0.57793,0.57792 -0.96487,1.05436 -1.31017,1.59404 -0.34526,0.53964 -0.64367,1.1345 -1.04813,1.94338 -0.17559,0.35095 -0.57894,1.38515 -0.9826,2.35827 -0.40369,0.97315 -0.82498,1.89732 -1.00447,1.98707 -0.41523,0.20765 -1.04939,0.27385 -1.74686,0.28395 -0.48901,0.007 -0.98758,-0.039 -1.48485,-0.0655 -7e-4,0.002 -0.0209,0.0655 -0.0209,0.0655 -0.437,0.437 -1.527393,0.85459 -2.663983,1.20094 -1.13659,0.34631 -2.30837,0.63169 -2.92602,0.7861 -0.56291,0.14075 -0.84585,0.32645 -0.9826,0.54591 -0.13692,0.21949 -0.13692,0.46947 -0.15295,0.72057 -0.0174,0.25119 -0.0394,0.50692 -0.24004,0.74244 -0.20068,0.23552 -0.5756,0.43867 -1.26648,0.61141 -0.60796,0.1519 -1.10565,0.15399 -1.52851,0.10905 -0.42285,-0.0446 -0.76645,-0.12786 -1.02629,-0.10905 -0.2599,0.0174 -0.44884,0.13797 -0.56772,0.48038 -0.1188,0.34248 -0.17455,0.9079 -0.17455,1.83419 0,0.29545 -0.0983,0.54497 -0.28394,0.7861 -0.1857,0.2411 -0.44554,0.47571 -0.74241,0.69876 -0.59375,0.44609 -1.33135,0.89459 -1.92158,1.48485 -0.33934,0.33935 -0.71488,0.57706 -1.11363,0.76426 -0.39875,0.18709 -0.81969,0.31321 -1.26648,0.39303 -0.89358,0.15991 -1.8859,0.15295 -2.90417,0.15295 -0.79028,0 -1.2654,0.0509 -1.50666,0.131 -0.24145,0.0801 -0.24876,0.18116 -0.10905,0.32749 0.27907,0.29266 1.1499,0.72489 1.94338,1.20098 0.42784,0.25677 0.71558,0.56375 0.89529,0.9171 0.17978,0.35335 0.26722,0.74129 0.30555,1.13547 0.077,0.7883 -0.0244,1.61077 0.131,2.22727 0.0787,0.31565 -0.0314,0.62116 -0.1965,0.93894 -0.16479,0.31774 -0.39861,0.64583 -0.61141,1.00444 -0.21287,0.35861 -0.39338,0.74105 -0.45853,1.17914 -0.0651,0.43811 -0.0174,0.92859 0.262,1.48485 0.1526,0.30555 0.53023,0.68158 1.00447,1.09179 0.47421,0.4102 1.06117,0.8517 1.65951,1.28832 1.19673,0.87323 2.43913,1.71852 2.94786,2.22726 0.25434,0.25433 0.31182,0.7629 0.24005,1.37566 -0.0488,0.41666 -0.20416,0.91345 -0.34937,1.39748 0.39223,0.13971 0.81543,0.34352 1.28832,0.61141 1.13383,0.64259 2.3755,1.47276 3.12251,1.65954 0.2613,0.0651 0.36255,0.21427 0.37122,0.43672 0.007,0.22229 -0.0773,0.5286 -0.19649,0.89526 -0.11881,0.36666 -0.27106,0.79021 -0.39304,1.28832 -0.12194,0.49811 -0.21844,1.06461 -0.21844,1.68135 0,0.8085 0,1.6153 0,2.4238 0.83668,0.80704 1.62616,1.61805 2.92601,1.48482 0.68096,3e-5 1.61419,-0.1641 2.27096,0 1.51286,0.7337 2.31513,2.22221 3.908613,2.86052 0.4077,0.16305 2.01046,0.95768 1.50667,1.96523 -0.11672,0.62865 -0.0139,2.31485 -0.0874,2.96967 -0.47421,1.59484 0.16688,1.58913 0.41488,3.05702 -0.17455,0.69851 -0.0279,2.92549 -0.1965,3.60293 -0.0366,1.58435 -0.35011,1.20052 -0.131,2.72948 -0.22124,0.22124 -0.30694,1.63718 0.30555,1.94339 1.05071,0.52539 1.05691,0.46281 0.45853,1.65954 -0.40227,0.80449 -0.32402,1.69588 -0.10905,2.5548 0.27245,1.09056 0.43418,2.70764 1.61585,2.70764 1.72745,0.21566 3.16854,0.6899 4.36718,1.96523 1.33578,0.72014 3.03096,1.8305 3.95231,3.07886 2.75049,-0.23935 5.02225,0.78989 5.02225,2.72948 0,1.16645 3.20655,-0.51215 3.05702,0.61141 -0.26793,2.01269 3.10558,1.72714 3.90865,1.7687 0.71286,0.0369 0.16479,1.17418 3.10067,2.64214 1.31382,0.65695 3.39636,-3.14471 4.76021,-3.69024 2.09595,-0.83839 1.28303,-0.27314 1.92158,-1.55035 0.90992,-1.81988 1.60449,-3.66843 4.32349,-3.66843 3.01587,-3e-5 3.39507,0.23587 3.73397,-0.96079 0.37115,-1.31086 0.94563,-3.20829 0.34934,-4.41083 -0.81774,-1.64923 -0.19127,0.58064 0.69875,-5.06594 0.33273,-2.11031 -0.80348,-2.06463 -0.8516,-4.78206 -0.0348,-1.94482 -1.03813,-2.61075 0.8516,-3.49374 4.06251,-1.8982 2.38969,-1.3896 4.14884,0.82975 1.14231,1.44113 -0.52267,2.64437 4.97856,2.07442 0.99936,-0.10347 1.50374,-1.91861 2.4893,-2.90417 1.60188,-1.60188 2.76474,-1.28731 4.78206,-0.48038 3.27132,1.68376 1.95537,4.75273 5.76469,6.41973 3.2824,0.65001 2.05484,-2.17692 4.03961,-3.4064 2.21065,-1.36932 2.88941,-2.78969 4.89125,-1.28832 2.16177,1.62132 -1.21968,4.59054 3.38455,4.43268 1.26202,-0.0432 1.69954,-0.91647 4.49822,-2.77314 1.17429,-0.77902 2.75889,-1.90823 3.10067,-3.27539 0.34387,-1.37539 0.73029,-1.87542 1.5722,-3.55924 0.82401,-1.64808 -0.98814,-2.25984 -0.10905,-4.01781 0.48069,-0.96134 -3.49991,-4.74269 -4.56368,-5.76465 -1.70226,-1.6354 -1.96495,-4.36478 -1.79054,-5.02229 0.46936,-1.7695 1.86147,-2.13999 1.61585,-3.12251 -0.46365,-1.85465 2.60079,-3.01034 2.77314,-3.95231 0.32506,-1.77553 0.48564,-8.03349 -0.54588,-7.83908 -3.10708,0.58563 -3.23999,-3.81705 -0.91713,-5.50262 1.45883,-1.05862 1.1629,-0.98821 2.11811,-1.94342 1.64522,-1.64519 2.57396,-3.00239 5.10959,-3.66843 3.71118,-0.97479 4.85763,1.57655 5.63366,-1.26648 0.52759,-1.93279 0.94859,-2.23043 0.48038,-3.88677 -0.28604,-1.01217 0.007,-1.74904 4.25799,-4.71656 2.66991,-1.86409 -1.56429,-3.39556 4.89125,-2.57664 0.94427,0.11985 0.34178,-4.70673 2.5548,-4.54187 0.54434,0.0404 0.92978,-3.00629 0.74241,-3.75577 -0.60267,-2.41077 -1.98704,-4.21364 -1.98704,-5.21875 -4e-5,-2.04665 0.11601,-3.38998 0.34934,-4.32353 0.38366,-1.5346 1.1562,-2.07996 1.92157,-1.98707 -0.34596,-0.4224 -0.45717,-0.59316 -0.82975,-1.02629 -0.6706,-0.77948 -1.35675,-1.51858 -1.94342,-2.07438 -0.58664,-0.55581 -1.06904,-0.9171 -1.35382,-0.9171 -1.08019,0 -2.1587,0.0139 -3.20986,-0.0209 -1.0512,-0.0348 -2.08271,-0.11671 -3.10071,-0.37122 -1.15248,-0.28813 -1.76187,-0.61761 -2.03073,-0.93894 -0.13448,-0.16062 -0.18465,-0.32158 -0.17455,-0.48038 0.0104,-0.15852 0.0934,-0.30903 0.1965,-0.45857 0.41303,-0.59879 1.35783,-1.10826 1.22279,-1.28832 -0.41673,-0.55566 -0.76548,-1.00102 -1.00445,-1.37566 -0.239,-0.3746 -0.36641,-0.66454 -0.37118,-0.93894 -0.003,-0.27454 0.1289,-0.53111 0.41487,-0.78607 0.28569,-0.25503 0.72102,-0.51337 1.35382,-0.82979 0.4254,-0.21252 1.10604,-1.0251 1.6377,-1.96523 0.26583,-0.47006 0.49578,-0.96054 0.63322,-1.44116 0.13727,-0.48062 0.18152,-0.95501 0.0874,-1.33198 -0.15469,-0.61893 0.0314,-1.57481 0.15295,-2.48929 0.0617,-0.45725 0.0948,-0.89965 0.0874,-1.28832 -0.007,-0.38868 -0.0714,-0.71381 -0.24005,-0.93895 -0.27524,-0.36686 -0.82422,-0.93897 -1.57216,-1.52851 -0.74799,-0.58953 -1.68509,-1.18934 -2.75133,-1.61585 -1.08953,-0.43581 -1.76107,-0.75652 -2.13992,-0.98263 -0.37889,-0.22611 -0.47097,-0.37533 -0.43673,-0.48038 0.0348,-0.10522 0.19964,-0.16758 0.34938,-0.24005 0.14981,-0.0728 0.2944,-0.15504 0.262,-0.28394 -0.11602,-0.46369 -0.17211,-1.15158 -0.0655,-1.72505 0.0533,-0.28673 0.14703,-0.53451 0.28395,-0.72056 0.13692,-0.18605 0.32889,-0.30555 0.56775,-0.30555 0.71235,0 1.86939,0.1627 3.01333,0.2404 0.57201,0.0387 1.13684,0.0509 1.6377,0.0209 0.50086,-0.0279 0.93427,-0.10696 1.24467,-0.262 0.14145,-0.0707 1.32674,-0.45884 2.22722,-0.98259 0.45028,-0.262 0.83868,-0.57051 0.98264,-0.87345 0.0721,-0.15155 0.0885,-0.30589 0.0209,-0.45853 -0.0665,-0.1526 -0.21218,-0.28882 -0.45857,-0.43672 -0.70617,-0.42373 -1.14422,-0.77858 -1.41932,-1.09182 -0.27523,-0.31322 -0.40278,-0.59323 -0.45856,-0.8516 -0.0557,-0.25817 -0.039,-0.50512 -0.0874,-0.76426 -0.0481,-0.25921 -0.16236,-0.53605 -0.41488,-0.8516 -0.52521,-0.65652 -1.04695,-1.30866 -1.5722,-1.96523 -1.06168,0.42471 -1.69215,0.94693 -2.33641,1.20098 -0.32228,0.12717 -0.64699,0.18465 -1.02629,0.131 -0.37934,-0.0537 -0.80965,-0.21949 -1.35382,-0.54591 -1.28881,-0.77328 -2.43564,-1.31992 -3.66843,-1.74685 -1.23282,-0.42697 -2.55574,-0.72802 -4.21434,-1.00448 -1.39169,-0.12995 -2.80711,-0.10313 -4.21434,-0.0435 -1.40719,0.0596 -2.7961,0.15608 -4.19249,0.1965 -1.39636,0.0404 -2.78972,0.0139 -4.14881,-0.17455 -0.67955,-0.0934 -1.34361,-0.22542 -2.00888,-0.41491 -0.66531,-0.18953 -1.33936,-0.43105 -1.98708,-0.74241 -1.10241,-0.4916 -2.19137,-1.03521 -3.2972,-1.52851 -1.10586,-0.4933 -2.21357,-0.93006 -3.38459,-1.22282 -0.73506,-0.18361 -1.26936,-0.26444 -1.68135,-0.262 -0.41198,0.003 -0.70854,0.0794 -0.96079,0.17455 -0.50445,0.19023 -0.85794,0.48041 -1.70319,0.48041 -0.89174,0 -2.56881,-0.29196 -4.17065,-0.43672 -0.80091,-0.0725 -1.57367,-0.11985 -2.22727,-0.0655 -0.6536,0.0543 -1.19509,0.21252 -1.48485,0.50222 -0.37544,0.37544 -1.16203,1.16624 -1.85604,1.96523 -0.69398,0.79896 -1.28832,1.59721 -1.28832,1.96523 0,0.48787 -0.13483,0.85041 -0.37119,1.11363 -0.23622,0.26339 -0.5812,0.4277 -1.02629,0.50222 -0.44512,0.0746 -0.98949,0.0564 -1.61585,-0.0209 -0.62639,-0.078 -1.33793,-0.21984 -2.11811,-0.41488 -0.94842,-0.23726 -2.37255,-0.40888 -3.34086,-0.63325 -0.48418,-0.11219 -0.84425,-0.2411 -0.98263,-0.39303 -0.13832,-0.15191 -0.0481,-0.32541 0.39303,-0.54592 0.37578,-0.18778 0.63803,-0.37718 0.7861,-0.58956 0.14807,-0.21253 0.18465,-0.44857 0.15295,-0.72057 -0.0638,-0.54406 -0.4422,-1.23383 -0.93895,-2.22726 -0.52967,-1.05942 -2.22409,-3.45862 -2.35826,-3.55924 -0.32924,-0.24702 -1.11976,-0.8247 -2.11807,-1.35385 -0.49916,-0.26444 -1.03849,-0.51574 -1.61586,-0.69872 -0.57737,-0.18291 -1.19435,-0.30555 -1.79054,-0.30555 -0.38282,0 -0.72311,-0.13483 -1.04813,-0.3275 -0.32506,-0.19267 -0.63507,-0.44836 -0.93894,-0.7206 -0.30381,-0.2721 -0.59779,-0.54709 -0.9171,-0.78606 -0.31949,-0.23901 -0.65489,-0.43122 -1.02629,-0.52407 -0.99162,-0.24806 -1.52631,-0.42798 -1.7687,-0.58957 -0.24248,-0.16165 -0.18744,-0.31669 -0.0436,-0.52406 0.14354,-0.2073 0.37941,-0.46634 0.54591,-0.8516 0.16654,-0.38526 0.26131,-0.89881 0.0875,-1.59404 -0.15329,-0.6127 -0.41163,-1.00016 -0.7206,-1.28829 -0.30903,-0.28813 -0.66952,-0.46843 -1.09178,-0.61141 -0.42227,-0.14284 -0.90446,-0.25956 -1.39751,-0.43672 -0.49306,-0.17734 -1.00716,-0.41693 -1.52851,-0.80795 -0.77429,-0.58071 -1.05981,-0.83808 -1.06994,-0.96075 -0.0105,-0.12264 0.27036,-0.10556 0.61141,-0.10905 0.34108,-0.003 0.74714,-0.0383 1.02628,-0.262 0.13936,-0.11183 0.23726,-0.27175 0.28395,-0.50222 0.0467,-0.23064 0.0314,-0.52553 -0.0655,-0.9171 -0.20277,-0.81101 -0.6828,-1.78364 -1.26647,-2.70767 -0.58368,-0.92403 -1.26394,-1.809843 -1.87789,-2.423763 -0.12926,-0.12926 -1.01493,-0.86265 -1.7687,-1.59405 -0.3769,-0.36568 -0.71506,-0.72011 -0.91713,-1.00444 -0.20207,-0.28429 -0.25886,-0.49755 -0.0655,-0.54587 0.52525,-0.13135 1.04695,-0.26165 1.5722,-0.39307 -0.56807,-0.14215 -1.85326,-0.17978 -2.99152,-0.45857 -0.56915,-0.13936 -1.09349,-0.35195 -1.48485,-0.65506 -0.19581,-0.15156 -0.36921,-0.31531 -0.48038,-0.52407 -0.11114,-0.20869 -0.17455,-0.444 -0.17455,-0.72056 0,-0.91331 -0.25398,-1.8773 -0.43672,-2.81683 -0.0913,-0.46979 -0.16932,-0.9441 -0.17455,-1.39751 -0.007,-0.45341 0.0498,-0.88839 0.21845,-1.31017 0.26269,-0.65653 0.52347,-1.30867 0.7861,-1.96523 -0.47184,-0.11811 -0.8392,-0.11706 -1.15729,-0.0209 -0.31809,0.0955 -0.5749,0.28987 -0.7861,0.50222 -0.4224,0.42505 -0.6852,0.97207 -0.96079,1.28832 -0.13796,0.15817 -0.28743,0.25364 -0.45853,0.24005 -0.17141,-0.0139 -0.35979,-0.13379 -0.61141,-0.41488 -0.50327,-0.56239 -1.2092,-1.74149 -2.31461,-3.95231 -0.54399,-1.08798 -1.1044,-2.45525 -1.59404,-3.79942 -0.48961,-1.34421 -0.92414,-2.67029 -1.17913,-3.69028 -0.10835,-0.43379 0.10487,-0.95057 0.41488,-1.48485 0.30972,-0.53427 0.71746,-1.08618 1.04813,-1.61585 0.33063,-0.52964 0.59197,-1.04308 0.54591,-1.46301 -0.0244,-0.21009 -0.13588,-0.38307 -0.3275,-0.54588 -0.19162,-0.1627 -0.46327,-0.31251 -0.87344,-0.41487 -1.09778,-0.27455 -1.74208,-0.5526 -2.07442,-0.8516 -0.16619,-0.14947 -0.24563,-0.30625 -0.28395,-0.45857 -0.0383,-0.1526 -0.0244,-0.3052 0.0209,-0.45857 0.0944,-0.30659 0.31949,-0.61956 0.50223,-0.91709 0.18256,-0.29754 0.30798,-0.58013 0.24004,-0.8516 -0.0983,-0.39335 -0.50821,-1.00225 -0.93894,-1.7032 -0.43069,-0.70095 -0.87783,-1.48506 -1.02625,-2.22726 -0.13135,-0.65657 -0.26165,-1.33052 -0.39307,-1.98708 0.085,-0.33934 0.23901,-1.20213 0.0435,-2.13992 -0.0975,-0.46888 -0.29405,-0.94765 -0.61141,-1.39747 -0.31739,-0.44983 -0.76084,-0.8608 -1.397513,-1.17913 -0.50002,-0.25016 -0.93281,-0.6387 -1.33197,-1.09183 -0.39917,-0.45309 -0.76011,-0.98385 -1.13548,-1.46297 -0.37537,-0.47916 -0.7723,-0.91654 -1.20098,-1.24467 -0.42867,-0.32819 -0.90396,-0.54587 -1.46301,-0.54587 -1.66793,0 -3.05203,-0.39307 -4.71652,-0.39307 -0.70322,0 -1.89611,0.0408 -2.86052,0.30555 -0.48219,0.13239 -0.9041,0.31948 -1.17913,0.58956 -0.27489,0.27002 -0.41951,0.63664 -0.30555,1.09179 0.11637,0.46564 0.10139,0.77216 -0.0209,1.00444 -0.12334,0.23239 -0.35029,0.38663 -0.63326,0.52407 -0.2829,0.13762 -0.6196,0.25573 -0.9826,0.43672 -0.36303,0.18117 -0.75035,0.42282 -1.11363,0.7861 -0.34004,0.34004 -0.9911,1.19798 -1.87788,1.79054 -0.44342,0.29614 -0.94219,0.52745 -1.48486,0.58957 -0.54267,0.062 -1.12987,-0.0446 -1.74685,-0.41488 -0.60552,-0.36331 -1.16875,-0.57155 -1.70323,-0.69875 -0.53445,-0.12717 -1.05193,-0.18117 -1.57217,-0.1965 -1.04045,-0.0314 -2.10418,0.047 -3.42823,-0.28395 -1.35962,-0.34004 -2.84068,-0.54696 -4.27984,-0.96075 -0.71958,-0.20695 -1.44656,-0.47902 -2.11808,-0.82979 -0.67152,-0.35074 -1.29973,-0.77565 -1.87789,-1.35382 -0.42675,-0.42676 -1.12936,-0.68175 -1.92155,-0.8516 -0.7922,-0.16967 -1.66956,-0.26827 -2.46746,-0.37119 -0.79789,-0.10312 -1.49953,-0.21043 -1.94339,-0.43672 -0.22193,-0.11323 -0.39259,-0.25712 -0.45855,-0.43672 -0.066,-0.17978 -0.0476,-0.407 0.0873,-0.67691 0.0657,-0.13135 0.23447,-0.28883 0.34937,-0.43672 0.11491,-0.14773 0.17501,-0.2836 0.0437,-0.34938 -0.40462,-0.20242 -0.55038,-0.45515 -0.58957,-0.74241 -0.0392,-0.28743 0.0356,-0.61064 0.0873,-0.91712 0.0517,-0.30649 0.0883,-0.59171 -0.0436,-0.8516 -0.13191,-0.25987 -0.43622,-0.48573 -1.02628,-0.63324 -0.52525,-0.13131 -1.12053,-0.12811 -1.68137,-0.19653 -0.56084,-0.0684 -1.08017,-0.20674 -1.463,-0.58957 -0.7459,-0.7459 -1.29088,-1.12663 -1.72504,-1.26648 -0.43416,-0.13985 -0.76065,-0.0335 -1.02629,0.15284 -0.26562,0.18646 -0.48026,0.46566 -0.72058,0.69875 -0.24033,0.23308 -0.4934,0.41488 -0.8516,0.41488 -2.4988,0 -4.83943,0.39305 -6.31057,0.39305 -0.59903,0 -1.11119,-0.0627 -1.52851,-0.17469 -0.41732,-0.11191 -0.73294,-0.27266 -1.00445,-0.48039 -0.27151,-0.20772 -0.49347,-0.45504 -0.65508,-0.74242 -0.16162,-0.28736 -0.26175,-0.60986 -0.34937,-0.96078 -0.15504,-0.62096 -0.35128,-1.12763 -0.5459,-1.52851 -0.19462,-0.40089 -0.39252,-0.70359 -0.6114,-0.93894 -0.43777,-0.47071 -0.91099,-0.67209 -1.35383,-0.80793 -0.44284,-0.13584 -0.85383,-0.19936 -1.17914,-0.43672 -0.16267,-0.1187 -0.30461,-0.27635 -0.41488,-0.50222 -0.11027,-0.22587 -0.19761,-0.52949 -0.24019,-0.91711 -0.0709,-0.64568 -0.13734,-1.16997 -0.34937,-1.61586 -0.21204,-0.44588 -0.56623,-0.80718 -1.22281,-1.13547 -1.00652,-0.50326 -1.73527,-1.07525 -2.29277,-1.68136 -0.5575,-0.60611 -0.9358,-1.260189 -1.24464,-1.877885 -0.41732,-0.83461 -0.84877,-1.898497 -1.3975,-2.773157 -0.27437,-0.437324 -0.58429,-0.837798 -0.93894,-1.113628 -0.35466,-0.27583 -0.75625,-0.436718 -1.22281,-0.436718 -1.57591,0 -3.23686,-0.393046 -4.716557,-0.393046 -0.725703,0 -1.401742,-0.09452 -2.074409,-0.196534 z"
       id="Colbun"
       inkscape:label="#path2841" />
  </g>
</svg>
