<?xml version="1.0" encoding="UTF-8" standalone="no"?>
<!-- Created with Inkscape (http://www.inkscape.org/) -->

<svg
   width="210mm"
   height="297mm"
   viewBox="0 0 210 297"
   version="1.1"
   id="svg64"
   inkscape:version="1.1.2 (b8e25be833, 2022-02-05)"
   sodipodi:docname="vector.svg"
   xmlns:inkscape="http://www.inkscape.org/namespaces/inkscape"
   xmlns:sodipodi="http://sodipodi.sourceforge.net/DTD/sodipodi-0.dtd"
   xmlns="http://www.w3.org/2000/svg"
   xmlns:svg="http://www.w3.org/2000/svg">
  <sodipodi:namedview
     id="namedview66"
     pagecolor="#ffffff"
     bordercolor="#666666"
     borderopacity="1.0"
     inkscape:pageshadow="2"
     inkscape:pageopacity="0.0"
     inkscape:pagecheckerboard="0"
     inkscape:document-units="mm"
     showgrid="false"
     inkscape:zoom="0.74029882"
     inkscape:cx="361.34057"
     inkscape:cy="345.8063"
     inkscape:window-width="1920"
     inkscape:window-height="1017"
     inkscape:window-x="-8"
     inkscape:window-y="-8"
     inkscape:window-maximized="1"
     inkscape:current-layer="layer1" />
  <defs
     id="defs61" />
  <g
     inkscape:label="Capa 1"
     inkscape:groupmode="layer"
     id="layer1">
    <path
       inkscape:label="#path2202"
       sodipodi:nodetypes="cccccccccccccccccccccccccccccccccccccccccccccccc"
       d="m 177.28459,135.83419 c -6.30569,3.54909 -3.90542,13.31928 -14.68012,18.35003 l 1.22277,37.31182 20.79688,6.11677 c 8.38294,0.92537 14.51377,10.8598 21.40841,17.7385 l -8.56337,0.61205 -1.83508,9.17501 -6.11663,-0.61205 -4.28168,4.89333 -1.83508,7.34007 -14.06834,-7.34007 H 137.5255 l 0.61205,-26.91351 h -5.50498 l -9.17501,13.45682 h -11.0101 l -6.80209,8.98343 c -7.530319,-2.75594 -10.205409,-13.60379 -12.336549,-25.35857 1.43599,-8.25707 0.0266,-20.06933 8.224409,-19.87549 l 5.48294,-0.68507 6.16827,-4.11214 v -7.53895 l -17.819489,-25.35857 -13.70735,0.68507 -6.85361,8.90975 -13.70735,-0.68507 -17.13403,18.50483 -28.00421,17.45837 -4.12692,-30.6571 -5.3060697,-0.58948 -4.716458,-6.48519 0.589478,-6.48518 32.4258697,-58.366508 0.58947,-24.761615 7.66423,0.589611 c 15.3247,-1.76453 1.1139,8.728084 19.21246,17.591034 l 18.35002,0.61165 v 10.39836 l 9.17502,9.78673 h 12.233389 l 10.39844,15.291678 -4.89333,12.84517 17.73837,-13.45682 c 3.45854,-3.05015 2.35168,-5.29601 31.80685,-4.89333 l 12.84504,-7.34006 12.2334,0.61204 c -0.6094,4.82682 0.83111,11.02005 -4.28168,12.84518 z"
       style="fill:#000000;fill-opacity:1;fill-rule:evenodd;stroke:#d38d5f;stroke-width:3.51274;stroke-linecap:butt;stroke-linejoin:miter;stroke-miterlimit:4;stroke-opacity:1"
       id="San_Felipe" />
  </g>
</svg>
