<?xml version="1.0" encoding="UTF-8" standalone="no"?>
<!-- Created with Inkscape (http://www.inkscape.org/) -->

<svg
   width="210mm"
   height="297mm"
   viewBox="0 0 210 297"
   version="1.1"
   id="svg1283"
   inkscape:version="1.1.2 (b8e25be833, 2022-02-05)"
   sodipodi:docname="vector.svg"
   xmlns:inkscape="http://www.inkscape.org/namespaces/inkscape"
   xmlns:sodipodi="http://sodipodi.sourceforge.net/DTD/sodipodi-0.dtd"
   xmlns="http://www.w3.org/2000/svg"
   xmlns:svg="http://www.w3.org/2000/svg">
  <sodipodi:namedview
     id="namedview1285"
     pagecolor="#ffffff"
     bordercolor="#666666"
     borderopacity="1.0"
     inkscape:pageshadow="2"
     inkscape:pageopacity="0.0"
     inkscape:pagecheckerboard="0"
     inkscape:document-units="mm"
     showgrid="false"
     inkscape:zoom="0.52347032"
     inkscape:cx="155.69173"
     inkscape:cy="611.30496"
     inkscape:window-width="1920"
     inkscape:window-height="1017"
     inkscape:window-x="-8"
     inkscape:window-y="-8"
     inkscape:window-maximized="1"
     inkscape:current-layer="layer1" />
  <defs
     id="defs1280" />
  <g
     inkscape:label="Capa 1"
     inkscape:groupmode="layer"
     id="layer1">
    <path
       d="m 47.602226,137.14604 c 0.009,0.18334 -0.37004,1.09461 -0.0882,1.30596 0.67038,0.50276 1.95894,0.77889 1.95894,-0.49415 0,-0.82835 -1.39906,-0.81442 -1.8707,-0.81181 z m 108.024154,58.80353 c -1.18534,1.57999 -2.04544,4.1245 -2.15307,6.24743 1.4172,1.00065 4.99243,1.72886 4.69438,-0.42354 -0.88918,-0.53646 -1.87873,-1.10852 -1.3236,-2.18838 0.90034,-0.10302 2.07706,0.0693 2.22366,-1.05887 -0.77504,-1.38977 -2.06365,-2.03454 -3.44137,-2.57664 z m 9.47702,-16.99514 c -0.22565,0.56436 -0.77127,1.75109 -0.49413,1.95896 0.72714,0.54535 0.56993,2.52888 0.65297,2.6119 3.53048,0.64871 0.42337,-2.84788 -0.15896,-4.57086 z m -77.263454,37.80229 c -0.79056,0.3339 -3.01406,0.95109 -3.90024,1.39419 -0.47954,0.23977 -0.65298,0.92864 -0.65298,1.4648 0.90284,-0.91859 2.35704,-0.0318 3.58257,-0.15872 0.46466,-0.92932 0.91381,-1.59352 0.97065,-2.70015 z M 122.5185,195.06718 c -0.63272,0.0191 -1.11561,0.93282 -1.18242,1.20006 1.22287,1.34765 -0.0268,2.57134 0.49415,4.2532 0.16541,0.66175 1.12071,0.80521 1.78245,0.97065 -0.5563,-2.52628 -1.89307,-3.89604 -0.8118,-6.37097 -0.0954,-0.0382 -0.19195,-0.0555 -0.28238,-0.0528 z m 9.75942,0.22947 c -0.50506,0 -1.10348,0.65297 -2.13543,0.65297 1.1155,0.68581 3.76652,1.51492 2.13543,-0.65297 z m -3.01785,1.80009 c -0.80669,0.0478 -1.49759,0.43944 -1.55303,1.28832 0.2579,0.34387 0.17163,1.80012 0.653,1.80012 1.13027,0 1.47718,0.002 2.11776,-0.31768 0.19553,-0.0978 1.39336,-1.41888 0.98829,-1.95893 -0.47403,-0.55006 -1.39931,-0.85961 -2.20602,-0.81183 z m -41.208354,-2.13541 c 0.33687,0.17474 -1.16574,1.79201 -1.8354,2.29425 -0.93453,0.70087 0.29333,1.4648 1.30596,1.4648 1.06218,0 0.79808,-0.54512 0.98829,-1.30596 0.14103,-0.56403 0.71595,0.8423 1.12948,-0.81181 0.295,-1.18004 -0.42534,-1.60129 -1.58833,-1.64128 z m 13.853784,2.31191 c -0.64202,0.10207 -1.921094,1.33613 -2.135434,1.76481 -0.44379,0.88756 0.2156,1.14713 2.453084,1.14713 1.2839,-0.67755 -1.15047,-1.98685 0,-2.77076 -0.0605,-0.12119 -0.16947,-0.1647 -0.31765,-0.14127 z m -13.906724,-2.32955 c -0.0366,-0.002 -0.0844,0.002 -0.14118,0.0167 0.0674,0 0.1293,-0.002 0.19412,0 -0.0165,-0.01 -0.0273,-0.0167 -0.0529,-0.0167 z m -7.16514,-1.606 c -0.11598,0.0167 -0.17576,0.0973 -0.30002,0.0705 0.20777,0.12979 0.35466,0.14796 0.30002,-0.0705 z m 1.64128,-1.41185 c -0.20232,-5.5e-4 0.0604,0.36312 -0.49415,0.91772 -0.43889,0.43889 1.58653,1.75575 1.46479,1.14713 0.1073,-0.53649 0.66681,-1.43808 0.15884,-1.64128 -0.7231,-0.28923 -1.00808,-0.42309 -1.12948,-0.42357 z m 3.72375,1.78248 c -0.1761,0.11258 -1.08202,0.39373 -1.94129,1.25301 -0.76727,0.76725 1.06024,0.51586 1.14712,0.49416 0.40863,-0.10207 0.68109,-1.19838 0.79417,-1.74717 z m 22.395474,-5.61211 c -0.6447,0.16111 -0.67725,1.17138 -1.14715,1.64128 -0.70483,0.70486 -0.98525,0.63836 -0.15871,1.4648 1.0118,1.01178 1.33469,-0.62677 1.46477,-1.14715 0.21489,-0.85918 0.20366,-1.05268 -0.15872,-1.95893 z m -41.331904,-5.11795 c -0.15509,0.005 -0.317,0.0303 -0.4765,0.0705 -0.0918,1.65445 -1.30542,3.01176 -2.29426,4.27084 1.34797,0.32456 2.79873,0.18047 4.16496,0.14127 0.62453,-0.29107 1.22812,-1.12078 1.99423,-0.65299 1.33477,1.89903 -0.67755,2.00654 0.1412,3.51198 1.02191,0.74777 2.61216,1.66157 3.75905,1.64128 -0.0496,-0.66997 -0.23332,-1.66356 0.56474,-1.9766 0.86836,-0.26222 0.67389,0.84759 1.50009,0.88242 0.895,0.0423 2.07863,-1.34786 1.3942,-1.8707 -1.57376,-1.48832 0.50953,-1.5564 -0.51179,-3.38845 -1.66126,0.11306 -0.33484,2.14277 -1.30596,3.3002 -2.041,-0.8926 -0.36886,-2.70073 -1.41185,-4.34143 -0.53589,-0.41229 -1.10178,-0.83026 -1.74717,-1.0589 -0.91216,-0.3574 -1.74704,0.47958 -2.66486,0.37063 -1.04351,-0.23043 -2.02057,-0.94199 -3.10607,-0.90006 z m 13.34198,5.2062 c -0.05,0.002 -0.092,0.0325 -0.1059,0.0882 -0.15209,0.60842 -0.68653,1.12246 -0.81181,1.62364 -0.13352,0.53407 -0.23971,1.41773 -0.33531,1.80009 -0.0864,0.34543 0.30583,0.91737 0.70592,1.32363 1.23872,0.48292 0.69815,-0.26825 0.61768,-0.67063 -0.11791,-0.58963 -0.73477,-1.57679 -0.17647,-1.80012 0.63332,-0.25333 2.28243,-0.48832 1.8001,-0.97064 -0.23174,-0.23163 -1.34418,-1.40423 -1.69421,-1.39419 z m 5.48856,-12.05368 c -0.52201,0.0688 -1.02847,0.3432 -0.68828,1.02359 0.28915,0.57831 0.85759,0.87718 1.62363,0.49415 0.47314,-0.23664 -0.0898,-1.13343 -0.15884,-1.30596 0.27799,-0.13912 -0.25451,-0.28058 -0.77651,-0.21178 z m 28.413484,36.58455 c 0.0246,0.47663 -1.55267,-0.0885 -2.15307,0.21178 -1.12628,0.56314 2.67825,1.94045 2.77076,1.95895 0.34557,0.0691 -0.4676,-1.84388 -0.61769,-2.17073 z m 91.29372,-33.00199 c -0.88679,0.0557 -2.15953,1.37268 -2.77076,1.90601 -1.57153,1.79359 -3.47211,-0.74894 -5.20621,-0.90006 -2.28987,1.33689 -0.18501,2.6049 1.14715,4.04142 1.31311,2.2412 4.4896,4.02019 6.82982,2.66487 1.29059,-0.79317 1.71504,-5.28879 0.88239,-6.82982 -0.14629,-0.68411 -0.47931,-0.90768 -0.88239,-0.88242 z m -71.61608,-12.6184 c -0.17115,-0.002 -0.35993,0.0167 -0.56474,0.0528 -1.20865,0.37805 -3.01754,0.93431 -2.77076,1.65892 0.16446,0.48275 2.05803,1.13727 2.64723,1.51774 0.61859,2.0249 -2.78412,-1.52126 -3.65315,0.3706 0.0731,3.11764 -4.00059,1.85449 -1.90601,3.44139 0.84228,0.51741 2.80731,3.00576 0.51179,1.9766 -0.91672,-0.88835 -2.92441,-0.90563 -1.04123,0.19409 1.40774,0.44389 2.31366,3.23047 0.14127,1.57069 -2.26057,-1.23095 -2.21199,-4.64918 -5.47091,-4.34145 -1.83224,-1.21857 -3.93937,-1.24453 -4.21789,1.32363 -0.23473,0.82373 1.13782,1.94738 0.0705,2.36483 0.83825,1.47814 2.34887,2.95878 3.24725,3.81201 -2.21926,0.3276 -3.41278,4.12525 -0.45885,4.71203 1.00581,1.36044 3.04646,2.60946 2.84135,-0.14127 0.20605,-1.08808 0.78178,-4.82769 1.53539,-1.90601 -0.91696,1.22053 2.2139,2.3896 3.14135,3.10608 2.78606,0.42013 -3.06147,0.0437 -3.82963,0.88242 -0.31344,2.77088 3.65442,1.03958 5.24149,1.71186 -0.01,0.52179 -2.14347,1.36845 -4.23554,1.3236 -0.93259,-0.0191 0.86748,2.03894 2.43544,2.55898 1.3881,1.0315 2.55788,2.02555 4.09437,0.70594 0.98809,0.2015 4.67038,1.66678 3.38842,2.43542 -1.40076,0.57937 -2.11557,3.14769 -0.30001,4.30614 -0.27214,0.49951 -4.32319,3.38357 -1.34127,3.47668 1.82216,0.3204 0.54065,-1.67881 2.17074,-1.41183 -1.01028,2.70768 4.07361,1.49219 4.34143,1.44713 -1.42476,-0.73923 -3.23043,-1.22404 -3.19431,-3.07077 -1.43929,-1.06085 2.3497,0.49942 1.76481,-1.57069 1.09607,-0.74849 0.48797,-1.01343 -0.24706,-1.57067 1.92776,0.22446 5.38215,2.59519 4.81791,-0.953 -0.048,-1.50283 -2.8558,-1.72848 -2.66486,-3.82963 -0.85417,-2.22349 -2.99768,-3.44414 -4.16495,-5.3121 -0.14127,-0.0607 -0.27233,-0.0985 -0.40591,-0.12358 0.005,0.0167 0.0144,0.0349 0.0167,0.0528 -1.41867,0.23306 -0.85644,-0.21035 -0.0167,-0.0528 -0.62337,-2.44445 -3.58796,-3.86073 -2.85898,-6.72395 0.0191,-0.88349 0.78267,-2.77205 1.51772,-1.34124 -1.30611,2.07979 1.97086,2.46023 1.81775,4.41204 1.09323,1.61135 2.48892,2.72486 3.52965,4.5179 1.80174,3.4578 3.77487,-1.69286 5.5768,-2.61192 1.66241,-0.88153 0.90964,-4.11728 -0.9177,-2.45308 -0.74633,0.99926 -0.8103,1.57788 -0.86477,0.10589 -0.34115,-1.22617 -4.2091,-2.47051 -1.18243,-2.15307 1.59851,0.76964 2.86561,0.14222 2.20602,-1.72953 1.0559,-3.61952 -5.82201,1.24422 -3.35315,-2.02952 0.9554,-1.68825 3.32193,-1.77781 2.5237,-4.05908 3.0097,0.80053 -0.5336,-4.98543 -1.95895,-2.75309 -1.11182,0.62531 -2.55685,-1.97335 -1.65892,0.22947 -0.74947,1.63996 -1.65139,3.11733 -1.55303,4.83558 -2.06351,2.12243 0.51641,-2.79115 -0.86478,-3.67082 -2.29713,-1.0446 -1.3137,-5.25406 -3.88257,-5.29443 z m 13.00667,6.28274 c -0.12358,-0.01 -0.25132,0.0239 -0.3706,0.12358 -0.39218,1.51787 -0.73314,3.38792 -0.17641,4.95912 -0.41118,0.97234 -0.054,1.98345 0.15896,3.10607 0.37691,1.45175 3.75092,2.12496 1.8707,3.8473 -1.02488,1.73816 -3.06594,2.11631 -4.2532,3.60021 0.54498,1.10493 0.56018,2.27134 0.5118,3.60023 -0.0428,1.60525 0.40047,3.49156 2.04718,4.1473 -1.03999,-1.27326 0.3706,-1.85358 0.81183,-2.77076 1.27931,-0.77619 2.41491,-2.26479 4.21789,-2.06484 -1.91026,0.21585 -1.92855,1.92757 -2.10012,3.37081 -1.09354,1.19564 0.35996,0.82409 0.93534,1.57066 0.11497,1.33364 0.80638,2.3138 2.17073,2.66487 0.19984,-2.11322 -0.12238,-3.04448 0.22948,-5.10029 -0.70649,-1.22007 1.36897,-2.40688 2.15307,-3.05313 -0.37892,-1.37939 -1.55865,-2.78381 -2.4178,-4.09436 0.71545,-0.3857 2.01715,0.74089 2.77076,1.23535 1.47584,1.69033 0.42277,-0.83337 0.93533,-1.7295 1.6517,-1.31849 -0.25428,2.37241 1.41186,1.81775 1.44414,-0.18214 0.84099,0.70683 -0.0882,1.02359 -0.86575,0.92851 -3.36593,2.4643 -1.94131,3.7061 0.8539,1.478 2.65636,1.64415 3.72377,2.85901 1.20449,1.66946 2.05141,-0.002 1.71186,-1.28832 -0.31012,-1.15372 -0.17641,3.53868 3.67082,2.08249 -0.32738,-1.40299 0.26936,-2.49155 1.28829,-3.45903 1.21322,-1.3374 -0.23353,0.60881 0.5118,1.20006 1.27364,0.97462 0.13195,1.7024 -0.68827,2.48839 -1.54177,0.38992 0.38355,2.3706 -0.42355,2.41778 -1.09513,-1.0304 -2.05918,-0.63009 -2.68251,0.56474 -0.44226,-0.67417 -1.92656,-0.84171 -2.06484,-1.30596 -1.84054,0.43373 -1.49179,3.71413 0.61768,2.54134 1.58501,-0.85347 0.96835,0.55202 1.65892,1.05887 1.66339,0.45644 2.83645,2.31464 3.95319,3.58259 1.60657,1.95936 -0.23784,-2.14985 1.64128,-1.76483 0.57069,1.21708 0.16684,2.31518 1.44713,3.35316 1.16493,-0.60482 3.04257,-2.0075 2.45309,-3.49434 -2.92188,-0.91459 -2.48454,-2.53612 -4.5885,-1.95893 -0.9438,-1.85657 2.00841,-2.24754 2.50604,-0.5471 1.46429,0.002 3.47841,2.81647 3.14135,0.5471 -0.86654,-1.74729 0.63803,-2.60417 1.74717,-2.48839 1.34344,-0.93309 1.55183,-2.64051 -0.31767,-2.89429 -1.65185,-0.79844 -0.22374,-2.08982 0.5824,-1.74717 2.11552,0.1972 1.4927,-1.83932 1.37655,-3.10607 -0.002,-2.87288 -1.57906,-1.01009 -2.18838,0.33531 -0.0751,0.60889 -3.52006,0.34285 -2.66487,0.0528 2.91827,-1.11074 1.21814,-1.81996 2.13544,-3.21197 2.07548,-1.10828 0.55699,-1.94024 -0.12358,-3.37078 1.22899,-1.91825 -2.17509,-1.86399 -2.24133,-3.68846 -0.2626,0.45734 -1.78047,1.1525 -1.78245,2.13543 -0.58556,1.59467 1.58984,5.50865 -0.68827,5.98271 -0.29588,-0.67874 -2.15002,-3.06224 -0.77653,-3.54727 0.96754,-1.21173 1.30869,-1.22146 0.37062,-2.71781 -1.30763,-1.24419 -2.86599,1.09222 -2.31191,2.3825 0.0978,1.44852 1.13883,3.67007 0.24707,4.71205 -2.34856,0.0648 -0.35399,-2.65517 -1.23535,-3.75907 -1.14691,-0.19434 -0.89588,-1.46485 -1.83542,-1.35889 -0.39403,1.68149 -3.0267,-0.15585 -0.98829,-0.65299 1.79656,0.0215 1.00791,-1.18582 1.12948,-2.31191 -0.39357,-0.17091 -1.5611,-1.79966 -0.60004,-4.6591 -0.19099,-1.8174 -2.57798,-1.08287 -3.68846,-1.97657 -0.69179,-0.5809 -3.98092,-2.16546 -3.00019,-0.14127 0.76933,1.38171 0.35621,2.92154 1.53539,4.18261 1.09927,1.25969 -0.38649,1.78092 -0.67061,2.92958 -0.71691,1.44866 -1.73938,-0.11546 -1.0942,-1.07654 -0.012,-1.46762 0.21656,-3.77738 -1.48244,-4.32379 -1.67316,-0.24847 -0.71839,-2.14576 0.14127,-2.89429 0.50818,-1.55506 -3.05579,-1.95023 -3.52962,-0.60002 0.84862,0.47472 1.56866,1.44261 1.25301,2.55897 -0.69504,1.00378 -1.15914,-2.17489 -2.04718,-2.43544 -0.43349,-0.74251 -1.35004,0.0246 -2.36485,-0.12358 -0.54278,-0.0794 -1.10556,-0.9787 -1.64128,-1.02359 z m -1.85306,25.50153 c -0.73037,0 -1.30568,0.66167 -1.95893,0.98829 -1.84599,0.72936 0.12668,2.1389 0.65296,3.42373 0.89798,-0.81719 4.04783,-0.89004 5.38269,-1.14712 0.26461,-1.05852 -1.63731,-0.97459 -1.95893,-0.65297 -1.34165,-0.109 -2.06296,-1.31921 -2.11779,-2.61193 z M 51.431866,158.05906 c -1.36917,1.69962 -0.0717,3.02987 2.11778,2.2766 -0.57976,-0.752 -1.67738,-1.02571 -2.11778,-2.2766 z m -9.47704,-15.84801 c 0.11878,0.78948 1.12765,0.94509 1.37656,1.65891 0.0938,0.90523 0.29934,1.80225 0.28237,2.71782 -0.46482,0.65576 -2.73912,1.2398 -1.25302,1.76481 0.72068,0.0918 1.47251,0.0832 2.15307,0.37062 -0.50079,1.13228 -1.55915,1.97019 -1.76481,3.17666 0.86663,1.29244 1.37719,0.67425 2.84135,0.35296 0.75302,-0.89869 2.59648,-1.77346 2.15307,-2.91193 -0.45797,-0.25084 -1.25609,-1.11282 -0.5118,-1.4648 1.44746,0.53541 2.01542,2.02586 3.51198,2.45308 0.5379,0.11211 1.56472,-0.0767 1.34125,-0.82947 -1.10581,-1.17915 -2.22618,-1.39875 -2.38249,-3.28253 -0.72431,-0.69934 -1.82958,-0.16469 -2.64722,-0.63533 -0.85124,-0.85801 -1.57997,-1.82849 -2.43544,-2.68253 -0.82511,-0.4142 -1.74353,-0.6447 -2.66487,-0.68827 z m 11.61247,10.2359 c -0.71306,-0.0908 -0.65952,2.09458 -1.48245,2.50603 -0.37022,0.18525 1.02504,1.99569 1.14713,2.11779 2.22502,0.88715 0.87004,-3.17494 0.49415,-4.57087 -0.0549,-0.0275 -0.11129,-0.0469 -0.15884,-0.0528 z m -9.47704,-15.30091 c -1.56352,0.50611 -3.55371,0.24231 -4.2532,1.64128 -0.516455,1.03289 2.39084,-0.0215 3.42374,0.49415 0.26147,0.13075 0.81337,-2.055 0.82946,-2.13543 z m 3.49432,-0.0354 c -0.0122,-0.007 -0.0321,-0.002 -0.0706,0.0354 0.0182,0 0.0654,1.2e-4 0.0883,0 -5.7e-4,-0.0143 -0.0112,-0.0311 -0.0177,-0.0354 z m 3.12372,-1.80009 c -0.24069,0.0119 -0.49624,0.17091 -0.74122,0.21179 1.78127,0.89063 0.38372,2.11779 3.2649,2.11779 1.07117,-3e-5 -1.89557,-2.09492 -2.29425,-2.29427 -0.0741,-0.037 -0.14921,-0.0394 -0.22943,-0.0354 z m 9.97119,-0.0354 c -0.66951,0.005 -1.37924,0.14056 -1.97659,0.12358 -2.04131,0.28546 -0.34372,1.71873 0.4765,2.3825 -2.15822,0.0191 -3.4736,-3.65767 -4.46498,-1.28829 -0.36685,2.91102 1.88004,2.4787 3.01783,3.6002 -1.23415,0.55664 -2.49136,-0.10613 -3.7414,-0.1764 -0.62903,0.0815 -2.74197,-0.73465 -2.18837,0.31765 1.28751,1.89102 3.73466,2.19579 5.40033,3.61787 1.20836,0.53895 -0.16133,0.77688 -0.79417,0.70591 -1.40242,-0.1427 -2.05236,-1.88494 -3.56492,-1.81775 -1.30153,-0.0469 -5.3395,-0.55554 -4.09436,-1.97657 -0.781,-0.81556 -2.0991,-2.36103 -3.19431,-1.9766 -0.48083,1.1264 2.48737,2.40772 0.19412,2.80605 0.71013,0.57707 1.87053,1.8243 3.07077,2.08248 1.18268,0.24845 2.82299,0.26158 3.14137,1.72951 0.63943,1.23334 2.24935,1.17143 3.35314,1.78247 1.26821,0.6725 2.65635,-1.14064 3.7414,-0.0167 0.70661,0.66525 2.17512,3.89343 0.49415,4.09436 0.79912,0.0191 2.23262,-1.24231 3.03548,-2.55898 1.11951,-0.40984 3.1895,0.57366 3.37079,-1.16478 0.34013,-1.70477 -1.86036,-2.26002 -2.61193,-3.52962 -1.23242,-0.73752 -0.98878,-2.61895 -2.2766,-3.21195 0.0764,0.91624 -0.1134,1.87525 -1.44715,1.72951 -1.81418,0.68332 -1.06543,-1.63693 -0.0177,-1.94129 1.6054,-0.13553 0.94034,-2.52277 2.77076,-2.32955 1.9192,0.012 0.2947,-1.3765 0,-2.25897 -0.39788,-0.60332 -1.02471,-0.72853 -1.69422,-0.72358 z m 17.73636,-0.93534 c -0.79863,0.0655 -1.61632,0.47014 -2.41779,0.52944 -0.5326,0.47219 -0.48799,1.65768 -1.67657,1.42949 -1.96993,-0.44582 -0.39118,2.21284 0.74122,2.29425 0.95107,0.60641 2.41717,1.77903 1.04124,2.80607 -1.21927,0.91681 0.18104,1.40704 0.84711,1.97659 1.05634,1.15145 2.30927,2.14291 3.24725,3.38842 -1.40827,0.0841 -3.13124,-0.1231 -3.98848,-1.41185 -0.44306,-1.47756 -2.04353,-1.87995 -3.21195,-2.6472 -1.30863,-0.57225 -2.77765,0.6189 -1.83541,1.94129 1.13184,2.18182 -2.77576,0.97827 -1.20007,-0.15896 0.36151,-1.16615 -1.39392,-1.73849 -2.06483,-2.50603 -1.13284,-1.20741 -2.64511,-2.2992 -4.39438,-2.06482 -1.1032,0.43793 0.41882,2.47696 0.90005,3.14135 0.0718,1.3238 4.64727,5.62708 3.93553,4.67675 1.30713,0.38513 1.68909,-0.49547 2.8237,0.21178 -0.19024,0.82029 -2.04928,1.52609 -1.99424,2.66487 0.45055,1.23385 1.01426,2.01068 2.02954,2.85899 1.32674,0.41934 3.0222,2.63272 0.93535,2.20602 -1.70484,-0.65539 -3.24361,-1.7641 -4.55322,-3.03547 -0.96612,-0.89188 -1.38823,-3.90619 -3.17666,-2.64723 -1.31541,0.44767 -2.75785,0.4033 -3.45903,1.87071 -1.59262,1.30024 -2.05142,-1.39479 -2.87664,-2.27661 -1.00964,-1.75836 -1.22407,1.04508 -1.50009,1.80012 -0.25706,1.3868 -1.83302,2.34286 -1.50009,3.82963 -0.43268,1.55097 1.23615,3.81923 2.57662,2.0119 1.22364,0.0887 3.49967,-0.19051 3.7414,-1.04126 -0.0367,1.16773 0.72388,3.94145 -0.31766,4.62382 -1.51856,0.99489 -4.26769,1.7069 -4.07672,2.47073 5.09524,0.4937 9.43632,-3.57685 14.5244,-3.75905 2.4343,0.21059 -4.67238,0.48799 0.49415,3.91789 1.37827,0.68913 -0.34368,1.66587 0.49415,2.29424 1.44032,1.25223 -3.20881,1.27381 -1.95894,3.74141 1.00226,1.37862 1.18838,3.00152 2.92959,3.75904 1.40455,1.52418 -0.53832,2.39302 -0.97065,3.91789 0.11502,2.31908 -1.7705,0.34007 -3.2649,0.33531 0.1966,0.39321 0.13658,2.10106 0.15883,2.11779 0.7975,0.59811 1.25669,0.91235 2.29426,0.65297 0.45566,-0.11402 2.41333,0.43461 2.61192,0.33532 0.34859,-0.17426 1.54714,-0.76711 2.11777,-0.65299 2.19787,0.5884 2.54332,2.0723 3.26491,3.58256 0.32663,-0.32661 0.69417,0.42591 1.14713,0.33532 0.94006,-0.55819 2.38336,-2.97164 3.10606,-3.42373 -1.22529,-0.98582 -2.35027,-2.05452 -3.75905,-2.7884 -1.68939,-1.45275 1.21002,-3.62538 0.31767,-5.87681 -0.43339,-1.6322 0.53302,-1.91089 0.49415,-3.42375 -0.40774,-1.36063 0.6698,-1.41018 1.80011,-1.8001 0.73159,1.2517 0.82991,2.33226 -0.65298,3.6708 -0.25413,1.62839 1.45045,1.86298 2.08248,0.51179 1.16905,-1.78532 1.77269,0.78578 3.08841,0.81183 1.89426,-0.19481 2.47534,-2.36395 3.40609,-3.70612 0.0148,-1.72532 1.83912,-1.248 2.98253,-1.00593 1.65936,-0.0693 0.40156,1.19403 -0.37061,1.46478 -1.65636,1.02772 0.9178,1.90283 1.78246,1.00595 1.41163,-0.64219 -1.20897,3.58424 1.906,1.09418 0.87006,-0.39998 3.522504,-1.94294 3.317844,-0.0528 -0.621204,1.96065 -2.840204,1.21126 -4.235544,2.06482 -1.49894,0.98135 -2.51428,2.55161 -3.98848,3.60021 -1.56292,0.9377 -0.20686,2.64816 1.27067,2.10013 1.60718,-0.65386 2.76634,1.76005 0.90005,2.20601 -0.436,0.43963 -2.72131,-0.13457 -2.15307,0.5471 1.69969,-0.19553 3.273,0.32695 4.12965,1.94129 0.89793,1.1914 -4.3195,-0.84381 -5.73563,-0.49415 -0.86672,-0.11856 -3.35374,-1.69669 -2.94723,0.15896 0.90843,0.9257 2.59416,0.11927 3.54727,1.34126 1.16314,0.72533 3.28592,0.17259 3.47668,2.10013 -1.12048,-0.3073 -2.23603,-0.63014 -3.37079,-0.88242 -1.29366,-0.34978 -2.66352,-0.46611 -3.91789,0.10589 -1.59045,0.58533 -3.42446,-0.92539 -4.67675,0.81181 -1.23287,0.88118 -0.37805,2.10747 0.953,1.78248 0.70611,0.22206 2.89076,-2.13034 2.18837,-1.04126 1.26216,0.24088 2.21919,0.36132 3.51197,0.45885 0.49344,1.21546 1.62409,-0.54256 2.06483,0.26473 0.93101,1.81164 -1.26539,1.62529 -2.36484,1.88834 -0.38583,1.30814 1.81356,1.25546 2.71781,1.07654 1.35297,0.23258 2.86107,0.19888 3.12371,-1.50008 0.36942,-1.78903 1.7219,-0.7956 2.84134,-0.68827 2.433464,-0.79066 -2.37079,-1.73142 0.65299,-2.50603 1.35078,0.70378 2.471164,-0.32619 2.982524,-1.55306 0.22828,-1.03243 0.54653,-2.28456 0.47652,-3.42372 -0.53845,0.0119 -0.84236,0.0167 -0.0167,-0.33532 0.0144,0.10733 0.012,0.22565 0.0167,0.33532 0.51648,-0.012 1.2517,-0.0258 1.41185,0.31767 1.9442,0.90764 0.28486,2.88928 -0.24709,4.20026 -0.56379,1.67479 2.25971,1.47197 3.37081,1.41182 -0.11115,-0.59387 -0.81578,-2.03969 0.0882,-2.84134 1.84309,-1.28079 -1.56622,-2.21812 -0.74122,-3.33548 2.23566,0.62761 -0.95327,-2.63198 0.82947,-1.8707 1.89585,1.34662 1.18982,-1.60717 1.92365,-2.55898 -0.12454,1.16388 2.3176,1.79914 0.79416,3.05311 -0.64314,1.39634 0.75516,2.93108 1.07652,4.34145 0.67673,1.44142 1.4429,-0.2501 1.34126,-1.07654 0.0397,-1.4637 1.09681,-0.49355 1.90601,-0.28237 2.30773,0.5342 1.3684,-2.60255 0.1941,-3.35314 -0.77627,-1.12965 -3.97239,-1.36199 -2.32955,-3.17666 1.79641,-1.36431 0.14437,-3.23786 -1.39422,-3.86494 -0.92365,-0.76656 4.57929,0.94631 5.06503,2.31191 -0.2223,-1.18527 -1.19947,-2.34482 -1.14714,-3.70612 -0.0645,-1.93457 -2.39582,-2.61529 -3.93553,-3.22961 0.99233,-0.0765 2.04792,0.13816 3.05313,0.49415 1.45935,0.68565 0.94304,-0.45115 0.77653,-1.37654 0.81458,-0.33071 1.65858,1.73005 2.62956,2.06482 1.20143,1.54965 2.35102,0.0519 3.40609,-0.70592 2.14136,-0.67895 -1.13603,-1.72443 -1.94129,-2.0119 -1.90089,-0.53154 0.16278,-0.81634 0.93534,-0.38824 1.33907,0.71194 3.28989,0.3128 4.04141,-1.00595 -0.48303,-1.49546 -4.30851,-1.13782 -2.82368,-3.30019 -0.82242,-0.59792 -1.41766,0.2604 -1.81775,0.52943 -0.9896,0.22135 -3.53244,0.22016 -3.31786,-0.58238 1.03372,-0.3106 4.67844,-1.37932 2.48839,-2.54133 -1.18375,-1.89411 -3.11873,0.43901 -4.41204,-0.65297 -0.64353,-1.20284 -4.5153,-2.6359 -3.54726,-0.10589 0.99806,1.30534 0.40724,3.71418 -1.51775,2.55897 -1.98931,-0.35391 0.61943,-0.87553 0.31768,-1.64127 -1.4038,-0.91916 -1.94206,-2.31839 -2.17072,-3.74141 0.96348,-1.00817 3.00447,-0.83992 4.27084,-1.53538 -0.16445,-1.47731 -3.89541,-1.47044 -2.52369,-3.31784 0.46129,-2.37669 -3.01003,-1.52836 -4.46496,-1.90601 -0.31108,1.15253 -0.99995,-0.3412 -1.80012,-0.28237 -1.50763,-0.52869 -2.885734,-1.63033 -4.076724,-2.6472 0.27262,0.38295 -0.2467,2.1394 0.98831,2.34719 1.568374,0.96878 0.73252,2.85581 0.74122,4.30614 0.937614,1.36517 -0.0605,1.94968 -0.81183,2.92958 -0.13625,1.53971 -0.96206,0.47984 -1.02359,-0.38826 -0.87809,-0.92124 -0.71406,-1.43086 0.42357,-1.8001 1.7863,-1.38326 -0.80213,-2.21495 -1.88834,-2.7884 -1.54095,-0.29611 -1.44112,-1.61443 -0.42357,-2.4531 -1.24392,-0.49911 -0.84228,-1.87061 -0.30001,-2.7884 0.31466,-1.91502 -2.71243,-0.64898 -3.63552,-1.76482 1.42422,-0.51043 0.74567,-1.63745 -0.58238,-2.18835 -0.48527,-0.395 -3.64645,-1.56548 -2.17072,-0.14127 -0.0268,1.25548 1.1154,2.2729 1.07653,3.45904 1.04062,1.43955 0.17337,2.96346 0.42356,4.53557 1.87409,1.00948 -0.79327,1.69776 -0.28237,2.96488 0.37584,2.25473 -1.70657,-0.0806 -2.06483,-0.93534 1.21781,-0.33434 -0.49885,-0.52631 -1.12948,-1.11185 0.36637,-0.96108 3.08094,-1.39167 1.14712,-2.48839 1.08612,-0.10111 0.74972,-0.9765 0.5118,-1.76481 0.85444,-0.55114 0.48567,-0.93089 -0.40591,-1.23535 -1.27861,-0.81795 -2.13519,-0.23305 -2.54132,0.67061 -0.0499,-0.0963 -0.10702,-0.18764 -0.17648,-0.30001 -0.11737,-1.3088 1.22714,-2.59354 0.10589,-3.86493 1.078,-0.62254 -1.63322,-2.39161 -0.56474,-2.47073 -0.43833,-0.64778 -1.44761,-2.27285 -2.41779,-2.32955 -0.26796,0.69413 -0.73824,1.66035 -0.65298,2.52367 0.42906,1.27223 1.71071,2.4309 0.56474,3.79435 -1.0405,0.50835 -2.88327,-1.29893 -1.3942,-1.95895 -0.1335,-0.92475 -2.04437,-1.13436 -2.25896,-2.29425 -0.43414,-1.19139 2.52493,-1.68105 1.05888,-2.66487 -0.44702,-0.35255 -0.91502,-0.44525 -1.3942,-0.4059 z m 7.12984,9.98882 c 0.40327,0.78625 0.17284,1.09499 -0.22943,1.72953 -0.0995,-0.53737 -0.009,-1.19022 0.22943,-1.72953 z m 36.602194,13.73024 c 0.58379,0.6648 5.10667,3.05294 3.91789,1.4648 -0.98317,-1.4571 -2.34863,-1.4648 -3.91789,-1.4648 z m 2.29427,7.1828 c -0.59519,0.74395 -0.92233,1.58066 -1.80011,1.80009 -1.31584,0.32896 -0.46939,1.75771 -1.64128,2.9296 -1.06568,1.06569 0.85815,1.81446 2.13543,2.45309 3.33942,1.66972 2.27661,0.47347 2.27661,-1.4648 0,-1.03045 0.2396,-0.89258 1.14712,-1.8001 0.23043,-0.23042 1.6834,-1.73751 1.4648,-2.61192 -0.40566,-1.62258 -2.54645,-0.81221 -3.58257,-1.30596 z m -33.513794,4.42968 c -0.14256,0.002 -0.24566,0.0827 -0.30001,0.30001 -0.63196,1.50859 -1.38807,2.98606 -1.80011,4.57085 -0.54733,2.43222 0.28492,1.17189 2.13542,0.653 1.66871,-0.59233 2.374,-1.65689 2.77076,-3.42373 -0.86856,-0.4343 -2.18827,-2.10735 -2.80606,-2.10013 z m -4.57086,2.71779 c -0.63055,-0.0143 -2.57977,1.00428 -2.59427,1.02359 -0.29209,0.38951 -0.27208,0.73498 1.30596,1.12948 1.00504,0.25125 1.86549,0.13506 2.45309,-0.15872 0.6101,-0.30505 -0.80521,-1.13837 -0.97065,-1.80011 0.0343,-0.13721 -0.0486,-0.19075 -0.19412,-0.1941 z m -4.12966,2.45311 c 0.002,-0.005 -0.0237,0.002 -0.0883,0.0354 0.003,0.002 -0.003,0.0143 0,0.0167 -0.3094,0.20963 -1.34122,0.90013 -1.14713,1.28832 0.49909,0.9982 1.33094,0.49415 1.95895,0.49415 1.04912,0 -0.0469,-1.03623 -0.79417,-1.78247 0.0388,-0.0263 0.0685,-0.0488 0.0706,-0.0528 z m 33.725554,9.12406 c -0.30029,-0.001 -0.63073,0.0602 -0.98828,0.21179 -1.20597,0.51136 -1.60884,1.68693 -2.61192,2.29424 -1.24809,0.75568 1.70976,0.97065 2.61192,0.97065 1.05543,2e-5 3.03224,-0.24382 1.95893,0.82947 -0.13051,0.13051 -3.88196,0 -4.0767,0 -1.61948,0 -1.79134,2.17771 -1.14715,2.45308 2.50912,1.0725 1.45049,0.31051 2.45309,0.81183 0.41886,0.2094 -1.68653,0.51631 -1.80009,0.97065 -0.097,0.38859 -1.73637,1.08334 -1.95896,1.30596 -0.67493,0.67493 -1.28086,0.94894 -1.80009,1.64127 -0.57887,0.7718 0.86447,1.33228 1.80009,1.8001 0.0643,-0.0856 -2.2101,0.59225 -2.45308,0.65299 -0.83253,0.2082 1.22844,1.03604 1.80011,1.46477 0.66335,0.49753 1.69028,0.40199 2.27661,0.98831 1.51899,0.0586 0.26765,-2.63895 1.97659,-3.97083 -1.32988,1.25515 3.67446,2.90481 3.24725,2.64723 0.22756,0.0454 -0.33945,-2.6619 -0.31767,-2.77076 0.15394,-0.76909 1.20162,-1.42856 0.31767,-1.95895 -1.33481,-0.80088 2.00065,-0.14677 2.61193,0.15896 1.00315,0.50158 -1.43476,-3.2048 -1.4648,-3.2649 -0.60435,-1.20867 -0.35906,-2.17666 1.14712,-1.80011 2.64799,0.66198 1.65344,1.22201 1.95895,0 0.1843,-0.73699 -1.06678,-1.04914 -1.80011,-1.78245 -0.72313,-0.72313 -1.91124,-1.7858 -2.11777,-2.61192 -0.11235,-0.44951 -0.72272,-1.03734 -1.62364,-1.04126 z m -14.38321,3.47668 c -0.16326,0.21776 -0.33082,0.43523 -0.49415,0.65299 -0.50783,0.67711 -0.43806,0.79259 -1.147134,1.14712 -0.91483,0.45742 1.970174,0.69229 2.788404,1.30596 0.42637,0.31978 0.15107,0.45352 0.12359,0.49416 0.066,0.0119 0.35006,0 1.18242,0 1.60327,0 1.18102,-0.22661 1.80012,-1.4648 0.37648,-0.75296 -0.25634,-0.98829 -1.30596,-0.98829 -0.75298,-2e-5 -1.22259,-0.18405 -1.95896,0 -0.77757,0.19434 -0.81032,-0.25732 -0.98828,-1.14714 z M 50.990666,133.98698 c -0.40938,-0.1188 2.23083,1.86355 2.89429,1.20009 1.5547,-1.55472 -2.52907,-1.18742 -2.77075,-1.14715 -0.056,-0.028 -0.0962,-0.0449 -0.12354,-0.0528 z m 17.66577,0.21178 c -0.52526,-0.0167 -0.98248,0.20892 -1.55304,0.49416 -0.88784,0.44391 1.32944,1.9824 1.48245,2.1354 1.18927,1.18932 1.57095,-1.23465 1.14712,-2.29424 -0.40756,-0.22947 -0.76138,-0.32578 -1.07653,-0.33532 z m -46.361611,-5.47091 c -0.111629,0.0289 -0.104673,0.15585 0.07059,0.42355 0.210589,1.42817 0.601335,3.72806 2.276608,1.95895 0.69621,-0.73522 -1.8635,-2.50799 -2.3472,-2.3825 z m 9.194669,-1.85306 c -0.339882,-0.007 -0.733055,0.19123 -1.288311,0.63533 -1.787019,1.68975 -3.541807,4.02322 -5.717992,4.74735 0.626635,0.62663 1.072746,1.78245 1.958942,1.78245 1.889823,0.0351 5.706375,-2.57386 5.400323,-4.23553 -2.870791,-2.1531 2.141518,-0.0528 1.305961,-1.30596 -0.677964,-1.01695 -1.092449,-1.61241 -1.658923,-1.62364 z m 15.530342,0.22947 c -0.19502,0.0167 -0.38673,0.1396 -0.65298,0.40591 -1.18737,1.1874 0.71029,1.56954 1.4648,2.13543 0.53871,0.40401 0.49414,-1.30321 0.49414,-1.9766 -0.65361,-0.33993 -0.98093,-0.59376 -1.30596,-0.56474 z m -5.01206,4.11203 c -0.007,0.002 -0.0325,0.0143 -0.0529,0.0354 -0.002,-4.6e-4 0.005,0.0143 0,0.0167 0.0108,0.007 0.0244,0.012 0.0353,0.0167 0.0143,-0.0351 0.0287,-0.0755 0.0177,-0.0705 z m -0.0177,0.0705 c -0.15011,0.36388 -1.39251,2.6773 1.76481,3.24725 0.55949,0.10088 1.915,-0.87809 2.45309,-1.14712 -0.27678,-1.37248 -2.81576,-1.33278 -4.2179,-2.10013 z M 19.41814,119.0214 c 0.440835,0.88168 -0.960232,0.98104 -0.4765,1.4648 0.572252,0.57224 0.973176,1.64128 1.782461,1.64128 0.753408,0 1.920409,-1.82821 0.988295,-2.29427 -0.72385,-0.36193 -1.494437,-0.6884 -2.294256,-0.81181 z m 4.517917,0.81181 c -0.255854,0.0275 -0.623161,0.1764 -0.9177,0.1764 -0.56047,-0.56048 -0.09251,1.71615 -0.652981,2.27661 -0.388389,0.3884 0.931381,0.21298 1.800108,-1.95893 0.174758,-0.43693 0.02644,-0.52172 -0.229424,-0.49416 z M 2.8465968,89.549055 c -0.549758,0.58305 0.07969,2.66164 -2.17071799,1.53539 -0.887461,-0.44415 -0.141413,2.01878 1.02358999,2.66486 0.276017,1.06201 0.107159,3.50441 1.958942,2.29425 -1.200966,0.80688 1.039104,2.51758 2.62957,1.0589 2.463496,-1.56008 0.81969,2.66809 2.682513,2.982545 2.0219782,0.60903 -1.043062,0.48976 -1.958941,0.31765 -2.878457,0.13243 1.966887,1.55441 0.441204,2.62956 1.225117,0.64504 0.593348,2.94029 2.311903,3.0708 1.7540092,0.83248 1.5469912,-1.00301 1.5177382,-2.08249 1.764672,-0.26365 0.366133,1.92489 0.282371,2.82371 0.08598,1.80057 1.834041,0.79997 2.594271,-0.56474 0.113494,1.02481 1.156556,3.1186 2.470737,2.73545 -1.370227,0.72055 -0.478581,1.95398 -0.529443,3.07077 -0.620744,1.00249 -0.330954,1.76744 1.358905,1.87071 1.676611,2.11019 1.021695,-0.5564 1.747165,-1.69423 1.34352,-0.13386 1.495691,2.19541 0.441203,2.8943 0.873573,0.67407 0.185682,3.62564 1.8707,2.70015 1.202715,-0.86084 0.905635,0.16756 1.747165,0.63535 2.178867,1.54361 0.46749,-1.65436 1.605977,-2.45311 1.957379,-1.33414 -0.901979,-2.02753 -1.200071,-3.38842 -0.945295,-1.83559 1.247651,0.46642 1.623627,1.14712 1.517929,0.83002 0.428953,3.36861 2.329552,3.14136 1.159392,1.21515 1.716707,0.10206 2.100127,-1.00593 0.90595,0.46667 2.842142,1.88201 4.147307,1.09418 1.55884,-1.6124 -1.087486,-1.38219 -2.047183,-1.62364 1.73234,-1.23688 -0.72077,-1.81357 -1.464794,-2.71781 1.687636,-1.31789 3.438656,1.27075 5.047363,1.83542 1.36321,-0.0777 4.918669,1.16854 4.376735,-1.12948 -1.164353,-1.49091 -2.963508,-2.26686 -4.306144,-3.52963 1.45275,-0.48777 3.247346,0.62376 4.200254,1.81776 1.887844,0.88806 1.222564,4.79856 3.759054,3.42373 -0.41644,-0.83284 -0.60303,-2.06783 -1.14713,-2.61192 -0.68131,-0.81104 -0.11089,-1.20913 -0.33532,-2.61192 -0.29449,-1.41812 -2.57145,-0.29485 -3.582565,-1.30597 -1.237406,-1.2374 -1.80388,-1.9687 -3.106069,-2.29424 -1.315578,-0.32891 -0.221369,2.53414 -0.988295,1.95893 -3.684187,-0.76493 -0.740978,-3.20002 -4.076714,-3.26489 -0.756284,0 -2.29717,-1.82357 -1.958942,-1.14715 0.808611,1.61723 -0.319609,1.89817 1.464795,2.61192 1.35176,0.54072 0.386348,1.62756 -0.4765,1.80012 -1.901542,0.3803 -1.011569,-0.41755 -1.482442,-0.65297 -1.618309,-0.80915 -0.536007,-1.95895 -1.305961,-1.95895 -0.71316,0 -3.858383,0.15871 -1.623627,0.15895 2.469228,0 -0.700121,1.19426 -0.988295,1.48244 -1.773,1.77301 -0.874957,-0.4004 -0.811814,-0.65297 0.401147,-1.60458 -2.450586,-0.68062 -2.294256,-1.30596 0.175212,-0.70089 0.393161,-1.26874 0.176479,-2.13543 -0.05443,-0.21776 -0.122051,-0.43523 -0.176479,-0.65299 -1.034693,-0.38788 -0.854954,0.89018 -1.182423,1.48246 -1.746486,2.40255 2.07875,1.75332 0.194119,3.17664 -1.824408,-0.40172 -1.52303,-2.97836 -3.829641,-2.22366 0.389426,-0.24678 -0.312002,-0.0605 -0.900053,-0.31765 0.110744,-0.75484 0.937624,-1.75838 1.535385,-2.48839 1.486812,-0.65529 0.99145,-1.74879 -0.458851,-1.78245 -1.452315,0.18286 0.149802,-0.606745 -0.564739,-1.235375 -1.755122,-1.98747 -1.535947,2.249425 -2.876645,1.553025 0.45818,-0.806865 0.271856,-2.833395 -1.217719,-2.558975 -2.0965582,-0.42735 0.592242,-0.72899 0.829461,-1.58834 -0.623139,-1.29568 -2.3064492,-1.00255 -3.7414022,-1.18242 0.25715,-0.13315 0.322304,-0.44169 -0.0353,-1.02359 0.137755,-2.14411 -1.497984,-1.07221 -2.664866,-0.82945 -1.719007,-0.5761 -1.903366,-2.81474 -2.964884,-3.95319 z M 44.090256,112.49162 c -1.56509,1.07257 0.16885,2.50541 0.97064,3.42373 0.21975,1.27077 -0.48142,2.93077 0.74122,3.86493 0.59891,0.54283 3.39558,0.83808 1.97659,-0.28237 -0.92102,-0.62705 -1.06969,-2.26417 0.38826,-1.62361 1.31542,0.77272 -0.35491,3.00795 1.62363,3.31784 1.09099,0.16971 1.78463,2.78713 2.84134,1.5001 -0.20779,-0.54724 -0.82622,-2.31196 0.38827,-1.41185 0.19784,1.32773 2.1627,1.87997 1.62362,3.31783 -0.84959,0.92942 -2.23687,2.56711 -0.31766,3.31787 1.30343,0.65851 2.82616,0.68574 4.12966,1.35888 1.37407,-0.22469 1.6766,1.42913 0.0706,0.953 -1.27777,-0.13099 -2.77901,0.30279 -3.84729,-0.58238 -0.37389,-0.39895 -1.53738,-1.31562 -0.953,-0.0882 0.56835,1.05624 0.0575,2.77439 1.78246,2.70017 1.79464,0.33864 3.64296,0.0638 5.41798,-0.26473 1.47716,-0.218 -0.54688,-3.26322 1.32361,-2.48839 0.95299,0.97347 1.44363,2.65 3.07077,2.64723 1.27523,0.37851 2.51197,-0.0825 3.49433,-0.79417 -0.61403,1.72657 1.50039,1.92102 2.55897,2.59428 1.29853,-0.0461 3.66072,0.95298 4.62381,-0.0354 0.55703,-0.48778 1.88937,-1.09915 0.17648,-1.87071 -2.23206,-1.09969 -4.79946,-0.89083 -7.11219,-1.67655 0.68199,-0.58542 3.72568,-0.012 2.59427,-1.44716 -0.88261,-0.85376 -1.56419,-3.11576 -2.91194,-1.80009 -1.21507,0.12907 -1.93288,-1.78119 -3.28255,-0.75889 -0.503,0.22063 -2.62089,0.63052 -2.13542,-0.0354 0.57145,-0.13601 1.8706,-0.005 0.68827,-0.5824 -0.74766,-0.37469 -1.26117,-0.74617 -0.14119,-1.04123 0.44553,-0.76699 3.12406,-1.60963 1.07653,-2.10013 -1.29053,-0.17402 -2.12591,-1.72456 -3.44138,-0.63533 0.44315,-0.53276 2.71021,-2.04902 0.75887,-1.65892 -1.4284,0.47998 -1.52939,-0.94057 -0.31767,-1.34126 1.06691,-0.0973 -0.77584,-1.19345 -1.25301,-1.53539 -1.08425,-0.5448 -2.8152,-1.09279 -3.22961,0.44121 -1.2022,1.11172 0.56893,2.36182 1.27067,2.85899 -0.84673,0.20748 -1.67852,1.28093 -0.28237,1.39421 1.26779,0.36653 2.53629,1.14636 3.2649,2.2413 -1.08241,0.77803 -2.05346,-0.90804 -3.17666,-0.9177 -1.28492,0.16135 0.70686,1.99189 -0.30002,2.77076 0.27945,1.65672 -1.92665,1.17263 -2.41779,0.42355 1.39698,-0.70984 1.07589,-2.33273 0.15883,-3.3002 -0.23203,-1.06666 -0.69297,-2.00384 -1.11183,-2.9296 0.18609,-0.90606 2.06163,-0.0834 1.60598,-1.57067 -0.28028,-1.17757 -2.13157,-1.49728 -1.8707,-2.89429 0.87983,-1.28261 -1.11902,-1.90292 -1.32361,-1.09418 -2.31656,-0.32738 0.37001,-2.11676 -1.57068,-2.02954 -1.32703,0.43827 -0.39191,2.5722 0.45885,3.22961 1.21341,0.47927 -0.16032,1.60693 -0.58239,2.59426 -0.37107,-1.20576 0.45048,-1.95914 -1.09418,-2.45308 -1.40138,-0.27109 -1.087,-2.46461 -2.75311,-2.13541 -1.17096,-0.74684 -2.22342,-1.43652 -3.65316,-1.57069 z m -4.606163,3.05313 c -0.09251,0.005 -0.194501,0.0265 -0.300018,0.0528 -0.746603,0.18669 -0.346288,0.2901 -1.464794,0.47652 0.492973,-0.49296 -1.617738,1.01771 -1.305961,1.64128 0.395302,0.7906 1.27481,1.13493 1.958941,1.30596 1.107353,0.27685 -0.03805,1.99701 1.147128,0.8118 0.446047,-0.44606 -0.487428,-1.22045 1.782457,-0.65296 0.79642,0.19911 1.76777,3.35512 1.80011,3.44136 0.32435,0.86502 0.5996,1.4648 2.45309,1.4648 0.71603,-2e-5 0.74729,-1.54494 0.31766,-2.11776 -0.88319,-1.1776 -2.46731,-2.30936 -3.74139,-3.26492 -1.24521,-0.9339 -1.25964,-3.22533 -2.647223,-3.159 z m -3.247254,2.98252 c 0.376777,0.61472 -2.84923,0.49415 -4.076717,0.49415 -0.487578,3e-5 2.210991,3.4892 2.294256,3.60021 0.295766,0.39438 -0.282086,-1.26198 0.158838,-1.48244 0.217736,-0.10876 0.435223,-0.20891 0.65298,-0.31765 0.936293,-0.46817 0.328376,1.94822 1.623628,0.65297 1.482997,-1.48299 0.456648,-1.71139 -0.652981,-2.94724 z M 181.93972,81.836825 c -0.62775,-0.28531 -1.4893,-0.60526 -1.76481,-0.79417 -0.14557,-0.0313 -0.25486,-0.16876 -0.33532,-0.33532 -0.0806,-0.16636 -0.13505,-0.3667 -0.19409,-0.56474 -0.059,-0.19792 -0.11259,-0.38575 -0.1941,-0.51179 -0.0815,-0.12597 -0.18788,-0.19075 -0.33531,-0.14127 -0.78382,0.26325 -1.36642,0.41078 -1.78245,0.47649 -0.41607,0.0657 -0.67238,0.0538 -0.81184,-0.0354 -0.13935,-0.0892 -0.15202,-0.25751 -0.10589,-0.45885 0.0459,-0.20126 0.15968,-0.43504 0.30001,-0.70594 -0.52255,0.20772 -1.01352,0.71663 -1.53538,1.20007 -0.26093,0.24174 -0.51849,0.46504 -0.81181,0.653 -0.29334,0.18788 -0.62323,0.33591 -0.97067,0.38826 -0.56498,0.1176 -0.81089,0.57062 -1.28829,0.63533 -0.2388,0.0323 -0.53491,-0.0239 -0.95301,-0.28237 -0.41809,-0.25885 -0.96259,-0.71178 -1.69422,-1.44716 -0.21011,-0.30393 -0.33297,-0.41879 -0.4059,-0.40591 -0.0729,0.012 -0.0873,0.15824 -0.1059,0.35298 -0.0191,0.19458 -0.0414,0.44705 -0.0882,0.68828 -0.0469,0.24121 -0.12454,0.46494 -0.28237,0.61769 -0.4801,-0.3773 -1.02412,-0.61824 -1.58833,-0.82948 -0.56424,-0.2113 -1.14684,-0.38737 -1.67658,-0.67063 -0.30463,-0.18955 -0.49944,-0.22756 -0.65297,-0.21178 -0.15346,0.0167 -0.27104,0.0798 -0.37062,0.0705 -0.0997,-0.01 -0.19267,-0.0884 -0.33532,-0.35298 -0.1427,-0.26442 -0.33472,-0.7149 -0.61769,-1.46477 -0.10852,0.52857 -0.35272,1.01565 -0.60002,1.50008 -0.24731,0.48442 -0.49616,0.97222 -0.56474,1.51774 0.0925,0.6055 0.31923,0.99983 0.52943,1.41185 0.21011,0.412 0.4138,0.83129 0.45885,1.50008 0.36412,0.35177 0.52922,0.69091 0.58241,1.0236 0.0531,0.33268 -0.002,0.66006 -0.14127,0.98828 -0.15705,0.37218 -0.41272,0.77827 -0.65297,1.16479 0.23712,0.0292 0.48424,0.0445 0.75886,-0.0167 1.33089,0.0779 1.91251,1.55962 1.95893,2.70015 0.71799,1.26429 0.47671,1.93799 1.41185,2.84134 1.24286,0.29789 -0.25703,2.10541 -0.82944,2.48839 -1.19723,0.31502 -1.57175,1.39854 -2.10013,2.32955 -1.55523,0.13099 -1.66846,1.79108 -2.80607,2.50603 -1.1376,0.714955 -1.41964,5.435065 -2.18835,5.912125 -0.76873,0.47709 -1.16914,1.39978 -1.8707,1.9766 0.20366,1.84806 -1.30639,2.28026 -2.71782,2.92959 -1.53254,1.51636 -3.96693,0.89248 -5.48857,1.95893 0.60217,1.59484 -0.97346,1.49755 -2.08246,1.34127 -2.12358,-0.0249 -0.86162,3.92709 -3.40609,3.31784 -1.57296,0.44563 -4.81744,-0.31864 -4.46498,2.31191 0.75044,1.91722 -1.58042,3.30677 -1.11182,5.11795 0.15346,1.77659 0.51019,3.46776 1.74714,4.92383 -0.49671,1.54065 -0.97451,3.09972 -1.53538,4.60616 1.59034,1.22466 0.99992,2.96354 0.63533,4.6238 -0.74141,2.16141 -2.86674,3.46171 -4.81792,4.41203 -1.83265,0.91527 -3.69852,1.90063 -5.55916,2.73546 -0.55556,-0.5733 -3.53914,-2.18907 -1.18243,-2.02954 1.45646,-0.59718 2.04027,-3.09221 4.18261,-2.61192 0.56826,-1.4147 2.53419,-1.20249 3.37079,-2.32955 2.05179,-0.15083 1.88126,-2.02056 1.99423,-3.54727 2.21233,-0.40858 0.75169,-2.67493 -0.72358,-3.05313 -1.49009,-0.64472 0.01,-0.54081 0.5118,-1.14712 -0.92987,-0.98742 -1.5215,-2.20234 -0.93534,-3.63551 0.58616,-1.43318 -0.72659,-2.24517 -0.65299,-3.75905 0.0736,-1.51387 -0.39427,-3.03329 -1.30597,-4.23556 -1.58639,-1.29374 -2.56373,1.84078 -4.2532,0.49416 -1.65332,-0.96202 -4.03625,-0.0662 -4.44731,1.85306 -0.41886,1.65983 0.75491,2.82182 0.86475,4.35907 0.48509,1.50859 0.0325,3.27682 1.02359,4.60615 1.45674,0.70343 0.1678,1.24559 -0.84709,0.93537 -1.6958,-0.15179 -2.02191,2.06092 -3.26491,2.80604 -1.51077,0.75016 -2.72826,2.30823 -4.53557,2.29427 -1.02085,-0.13458 -3.88939,-1.50587 -2.70015,-2.25897 1.4445,0.9515 3.30643,0.94758 4.58849,-0.31767 1.26695,-0.64518 -0.67243,-3.54686 1.39421,-2.77076 1.81611,0.67223 0.68161,-1.19983 0.75886,-2.10013 0.49614,-1.70354 1.55169,-4.05741 -0.52943,-5.15323 -1.13702,-0.10589 -0.42701,-3.81759 -1.20007,-2.64723 -1.83385,1.76558 -4.52073,0.1243 -6.58276,0.45885 -1.65848,1.43889 -3.45614,2.74229 -5.45326,3.67082 1.21936,0.92852 -1.43299,2.1678 -0.86476,4.28848 3.18085,2.12071 -2.72897,0.75147 -1.18242,3.93555 0.80731,6.64375 7.26316,11.57526 11.87718,15.88329 3.14774,1.47144 4.88547,5.79791 8.71818,6.45922 2.23229,1.42359 2.91318,-4.07175 4.05906,0.21178 -0.58231,2.13582 5.48147,-4.39229 2.91193,-0.90006 -0.45421,2.24226 1.52441,4.68994 4.81794,3.82964 0.70441,1.0527 4.56504,3.56299 6.61806,3.67081 4.35455,-0.56588 6.65955,2.67802 10.80064,2.77076 1.74708,2.01558 5.11865,4.94647 7.46515,2.52367 2.17389,-0.0404 4.17585,-0.75931 4.8003,-2.47072 0.64618,-1.77107 1.67964,-2.10916 2.94724,-2.25896 0.36531,-1.16816 2.50947,-2.37679 2.15305,-1.8354 3.35409,0.0239 2.00879,-5.22289 1.83542,-7.57106 0.50696,-1.74614 0.29654,-3.69621 1.09417,-5.27679 0.72444,-1.43559 1.22333,-2.74308 0.81181,-4.2532 0.0447,-1.76871 0.75979,-4.06281 -0.58238,-4.97676 -2.48074,-1.68923 -1.14172,-3.3049 -2.02954,-4.94147 -0.48204,-2.90629 0.62588,-5.82695 1.5001,-8.13578 -0.71545,-1.38142 0.76747,-2.67624 -0.9177,-6.14154 0.32251,-2.82674 2.68416,-3.6762 1.95893,-6.54747 -0.43595,-0.71596 2.0326,-2.08072 0.79417,-2.6472 -1.67527,-0.76635 -1.10065,-2.59507 -0.44121,-3.52963 2.03188,-2.13172 1.82555,-3.90925 3.42375,-6.1592 -0.24761,-0.68911 0.19434,-3.104125 -1.12948,-4.270845 1.13539,-1.74411 -3.05447,-1.42058 -2.40016,-2.94724 0.2807,-0.65498 2.3264,-0.74834 1.81776,-1.72951 0.147,-1.27359 1.35675,-2.62413 0.91772,-3.56492 -0.51777,-1.10945 -2.15441,-3.15907 1.57067,-2.27661 1.71019,-0.49977 3.25657,-2.92792 2.54133,-2.85901 -1.22911,0.11832 -3.65272,0.81396 -3.8473,-0.10589 0.37813,-0.25835 0.85364,-1.08904 1.34127,-2.04721 z m 7.39456,5.52388 c -1.14402,1.01209 -8.94276,4.13836 -5.55916,6.22977 1.30648,-0.52444 7.17077,-4.75809 5.55916,-6.22977 z m 7.71223,55.803345 c -0.20461,-0.01 -0.45708,0.0466 -0.74122,0.17641 -2.03501,0.25321 -2.7218,1.61137 -2.15307,3.58256 -0.72552,1.52671 -2.51836,2.58687 -3.49434,4.07672 -0.81981,2.74218 -4.72013,2.54349 -3.07077,4.04142 1.74306,1.80561 -1.96756,5.33543 0.953,5.96506 1.86937,0.41234 4.01747,1.9303 3.38845,4.12967 -0.22995,2.41888 -3.37662,2.00968 -3.98849,0.0528 -1.44716,-2.02032 -4.34007,-1.1259 -6.38861,-0.81183 -1.47123,-0.21848 -1.47376,1.41228 -0.37062,1.85306 -0.27559,1.20215 -3.09234,1.3488 -1.09418,2.6472 1.31982,0.33465 2.26515,3.82911 0.14127,1.9766 -1.0834,1.68712 1.22536,4.48573 1.30596,6.56511 -0.65122,1.7366 -2.13916,5.08673 0.86475,5.32973 0.63887,0.26562 1.22696,0.63218 1.90599,0.79417 0.96206,1.82858 -2.88359,0.842 -1.14713,2.87663 0.83832,2.01668 3.77487,0.84092 5.1709,2.4178 1.82555,1.00294 3.60403,2.02885 5.27679,3.28256 1.66148,1.45189 2.87897,3.63874 5.34738,3.52962 0.55159,0.0442 -1.58919,-2.32693 0.4059,-0.90006 1.76187,0.97736 2.90213,2.86248 5.13562,2.84135 1.833,0.91473 4.43393,0.97258 4.55321,-1.65892 0.41967,-1.16078 1.63148,-4.50832 -0.82947,-3.19433 -0.85856,0.8359 -2.27293,1.05545 -1.11182,-0.42355 0.39682,-3.19944 -4.5715,0.0961 -5.01206,-3.05313 -1.55475,-1.50426 -3.87581,-1.83059 -5.73564,-2.01187 -0.33852,-1.39794 -3.44871,-2.17028 -1.16479,-3.37078 0.69925,-2.17543 -2.38572,-3.57514 -2.54133,-5.718 -0.84513,-1.87694 -2.57354,-3.27383 -3.38843,-5.1709 -1.10029,-0.86091 0.2393,-3.94516 0.97065,-1.51775 1.21663,1.74665 3.12023,2.98229 5.11795,3.74141 1.35907,1.31182 1.65182,3.82997 4.02378,3.95319 1.8871,0.0741 4.86192,0.74894 4.80027,-2.04718 0.11354,-2.24372 -1.65739,-3.99019 -2.82368,-5.718 -0.46511,-1.70776 -3.81689,-4.14542 -1.0942,-5.11795 -1.51875,-1.59747 -1.39909,-3.51048 -1.30596,-5.55917 -0.0664,-2.34145 0.30787,-4.76026 -0.67061,-6.97101 -1.54368,-1.92456 0.0889,-4.06575 -0.0354,-6.17685 -0.12573,-1.20411 0.23186,-4.34317 -1.20007,-4.41201 z m -86.55102,3.39944 c -0.75095,1.2981 -1.19964,5.26422 5.31924,8.68812 1.88213,-1.30025 3.10385,-2.60052 1.24116,-3.9008 -3.30364,-1.89128 -5.1338,-2.89603 -6.5604,-4.78732 z m -9.57467,56.56142 c -0.13577,-0.0366 -2.102444,0.74973 0.35461,1.24113 1.48531,0.29707 2.95403,0.23593 1.06387,-0.70921 -0.81532,-0.40767 0.076,-0.53192 -1.41848,-0.53192 z m 6.2058,2.65961 c -0.99742,-0.4987 1.83951,1.27438 2.83692,1.77308 -1.69425,-2.8679 0.005,-2.18661 2.83695,-1.9504 -0.2137,-3.00731 0.0923,-2.63174 2.305,-0.3546 5.24522,2.08736 -0.86073,0.0423 0.17737,2.83692 0.29635,0.59269 -1.47955,-0.45854 -2.48232,-0.70921 -1.49176,-0.37297 0.37454,1.67546 0.53192,2.305 -3.82882,1.70252 -1.86953,3.17391 -3.54616,2.48232 -1.46793,-0.73398 -1.55841,-1.25985 -0.53192,-1.77308 1.18964,-1.92236 -2.4124,-2.38554 -2.12771,-4.61003 z m 10.63851,-5.49656 c -4.01881,1.30462 -0.45534,4.01892 2.305,4.2554 0.0755,-1.72745 -0.81611,-3.0679 -2.305,-4.2554 z m -0.35463,8.33351 c 0.29829,-1.19314 1.91425,1.57769 3.01426,2.12768 0.18645,0.89019 0.21919,1.84539 0.53192,2.83695 -2.15788,-1.42129 -0.93254,1.47422 -2.83695,1.24116 -2.2908,-0.81723 -0.86542,-2.69434 -2.65961,-4.2554 -0.31146,-0.31146 1.27087,-1.10099 1.95038,-1.95039 z m 8.31672,-0.96517 c -1.01462,-0.19984 -2.04582,-0.40132 -2.98053,-0.86172 -2.20784,-0.18693 0.15752,2.64935 1.72804,2.87761 -0.50672,0.57786 -1.42949,0.90718 -2.10517,1.44608 0.25278,0.93522 1.51414,0.89234 2.40361,1.05237 0.47101,-0.24573 0.63905,-0.78441 0.84326,-1.23669 0.6556,-0.91172 1.12872,0.44458 1.6909,1.13417 -0.965,0.80179 -0.49707,1.35752 0.45613,1.75575 -0.29765,-1.26052 0.80109,-1.36254 1.40186,-2.2354 -0.27303,-1.51908 -2.0931,-3.19024 -3.4381,-3.93217 z m 5.51334,-1.69447 c 0.97798,2.14865 2.12393,3.30147 4.43271,2.65964 1.60767,-0.40191 -1.32902,-1.77308 -1.77308,-1.77308 -0.33725,-1.74634 -1.08194,-1.41477 -2.65963,-0.88656 z"
       style="fill:#000000;fill-opacity:1;fill-rule:evenodd;stroke:#d39062;stroke-width:0.564739;stroke-linecap:butt;stroke-linejoin:miter;stroke-miterlimit:4;stroke-opacity:1"
       id="Punta_Arenas" />
  </g>
</svg>
