<?xml version="1.0" encoding="UTF-8" standalone="no"?>
<!-- Created with Inkscape (http://www.inkscape.org/) -->

<svg
   width="210mm"
   height="297mm"
   viewBox="0 0 210 297"
   version="1.1"
   id="svg64"
   inkscape:version="1.1.2 (b8e25be833, 2022-02-05)"
   sodipodi:docname="vector.svg"
   xmlns:inkscape="http://www.inkscape.org/namespaces/inkscape"
   xmlns:sodipodi="http://sodipodi.sourceforge.net/DTD/sodipodi-0.dtd"
   xmlns="http://www.w3.org/2000/svg"
   xmlns:svg="http://www.w3.org/2000/svg">
  <sodipodi:namedview
     id="namedview66"
     pagecolor="#ffffff"
     bordercolor="#666666"
     borderopacity="1.0"
     inkscape:pageshadow="2"
     inkscape:pageopacity="0.0"
     inkscape:pagecheckerboard="0"
     inkscape:document-units="mm"
     showgrid="false"
     inkscape:zoom="0.74029882"
     inkscape:cx="361.34057"
     inkscape:cy="453.87078"
     inkscape:window-width="1920"
     inkscape:window-height="1017"
     inkscape:window-x="-8"
     inkscape:window-y="-8"
     inkscape:window-maximized="1"
     inkscape:current-layer="layer1" />
  <defs
     id="defs61" />
  <g
     inkscape:label="Capa 1"
     inkscape:groupmode="layer"
     id="layer1">
    <path
       style="fill:#000000;fill-opacity:1;fill-rule:evenodd;stroke:#d39062;stroke-width:1.08238;stroke-linecap:butt;stroke-linejoin:miter;stroke-miterlimit:4;stroke-dasharray:none;stroke-opacity:1"
       d="m 166.64916,213.73271 c 0.0573,-0.0573 0.12436,-0.12846 0.18572,-0.18573 0.85376,-0.79363 1.70343,-1.45618 2.34873,-2.10147 0.70771,-0.70772 1.99969,-1.42469 2.96685,-2.28696 0.48354,-0.43117 0.8977,-0.93525 1.11255,-1.42157 0.21436,-0.48599 0.21436,-0.99269 -0.0654,-1.54528 0.12763,-1.646 0.5359,-2.30037 1.05077,-2.96677 0.51463,-0.66681 1.13023,-1.33567 1.73068,-2.90509 0.66845,-2.31248 1.42092,-4.09928 2.59598,-5.2538 0.58745,-0.57681 1.3202,-0.97035 2.16333,-1.23618 0.84304,-0.2659 1.84383,-0.36899 3.02862,-0.30927 1.32626,0.66354 3.19914,0.468 4.63568,1.5452 0.23318,0.17509 0.41154,0.41154 0.61772,0.61772 0.32973,0.32972 1.12425,-0.14482 1.91616,-0.74208 0.79199,-0.59727 1.57523,-1.313 1.79245,-1.42157 1.26465,-0.63245 2.20178,-1.13039 3.21402,-1.42158 1.01233,-0.29127 2.08888,-0.37308 3.58499,-0.12354 1.8462,0.30763 4.82255,0.0327 6.18087,-0.30927 -0.44999,-1.49954 -1.04243,-2.87636 -1.54519,-4.2648 -0.50318,-1.38844 -0.91169,-2.77467 -0.92716,-4.38843 0.10391,-1.83532 0.52036,-3.1831 1.23618,-4.32665 0.7159,-1.14356 1.72544,-2.13281 3.09048,-3.15226 0.61363,-2.92324 0.93067,-5.75984 1.8543,-8.65331 -0.6439,-1.28829 -1.17285,-2.45975 -1.54528,-3.70852 -0.37227,-1.24886 -0.58499,-2.56276 -0.61772,-4.01764 -0.15545,-1.84718 -0.56454,-3.86954 -1.23617,-5.81008 -0.67172,-1.94054 -1.60059,-3.78151 -2.78146,-5.31558 -0.93075,-1.24092 -1.21294,-8.06832 -2.16333,-9.64223 -0.40908,-0.67745 0.002,-2.04494 0,-3.39951 -9.8e-4,-0.67744 -0.13336,-1.37461 -0.49417,-1.91607 -0.36163,-0.54163 -0.94818,-0.97199 -1.97793,-1.17432 -0.7879,-0.15464 -1.74934,0.51299 -2.78138,1.11255 -1.03212,0.59972 -2.12585,1.12752 -3.09048,0.74126 -0.78053,-0.31254 -2.09943,0.66599 -3.46135,1.60705 -0.68072,0.47045 -1.41061,0.93067 -2.03971,1.23618 -0.62917,0.30599 -1.16131,0.42545 -1.60697,0.24709 -1.72028,-0.68809 -3.40817,-2.17192 -4.94478,-3.70853 -1.58316,-1.58316 -3.18162,-3.10521 -5.6246,-4.32666 -2.02751,-1.40995 -4.34212,-1.84096 -6.55184,-2.41058 -1.10478,-0.28472 -2.16619,-0.63408 -3.15225,-1.11254 -0.98606,-0.47864 -1.90004,-1.09807 -2.65775,-2.03971 -0.64717,-0.86235 -1.5623,-1.60509 -2.59598,-2.16332 -1.03376,-0.558 -2.17642,-0.92716 -3.27596,-0.92716 -0.70117,-0.22172 -1.19019,-0.55226 -1.5452,-0.98892 -0.35508,-0.4369 -0.5989,-0.99064 -0.6799,-1.5452 -0.16199,-1.10928 0.17755,-2.33703 0.6799,-3.33773 3.85482,-3.59104 4.99003,-4.73672 5.19196,-5.74823 0.20209,-1.01159 -0.53672,-1.87173 -0.55636,-5.06841 0.57518,-0.34527 0.16036,-0.99416 -0.37063,-1.66882 -0.53099,-0.675 -1.1744,-1.43082 -1.1744,-2.101481 0,-0.77235 0.71753,-1.50396 1.73067,-2.10155 1.01315,-0.59727 2.31347,-1.05602 3.52305,-1.29803 1.37551,-0.27491 2.94877,-0.0851 4.45028,0 -0.20536,-0.57027 -0.49663,-1.0777 -0.74208,-1.66883 -1.43761,-0.36327 -2.98322,-0.69626 -4.51205,-0.80344 -1.52892,-0.10718 -3.08206,0.007 -4.45028,0.55635 -1.15747,0.38454 -2.22257,0.35264 -3.39951,0.12355 -1.17694,-0.22909 -2.46998,-0.6799 -4.0794,-1.11255 -1.79131,0.0409 -3.37013,0.0245 -4.82116,-0.43281 -1.45094,-0.459 -2.74726,-1.32765 -3.83215,-2.90509 -0.81163,-2.88438 -0.71999,-5.10383 -0.49418,-7.97333 -0.19145,-0.76662 -0.0245,-1.16851 0.24709,-1.54528 0.27163,-0.37717 0.67908,-0.74044 0.98892,-1.3598 -0.13172,-1.4093 -0.26345,-2.49837 -0.0654,-3.52313 0.20209,-1.02467 0.71917,-1.96475 1.73068,-2.96677 -0.38372,-1.1843 -0.7519,-2.34087 -0.8653,-3.46136 -0.11291,-1.12048 0.0246,-2.19073 0.61772,-3.27587 0.4549,-0.11373 1.22055,-0.306 1.79253,-0.55636 0.5719,-0.25036 0.94941,-0.59563 0.61772,-0.92715 -1.50576,-0.86195 -2.63353,-1.87402 -3.70852,-3.02863 -1.075,-1.1546 -2.08929,-2.43774 -3.27588,-3.70852 -0.0246,-0.252 -0.0941,-0.43036 -0.12355,-0.67991 -1.03302,-0.55062 -1.88015,-1.29565 -2.59597,-2.10155 -0.76336,-0.85949 -1.38108,-1.82199 -2.0397,-2.78138 -0.65863,-0.95947 -1.34598,-1.9254 -2.16333,-2.78145 -0.81736,-0.85605 -1.78902,-1.55216 -3.02863,-2.10148 -1.20386,-0.36817 -1.71006,-0.84999 -1.91616,-1.35988 -0.20618,-0.50972 -0.0998,-1.10085 0.12355,-1.7306 0.22336,-0.62999 0.53345,-1.31161 0.61854,-2.0397 0.0491,-0.41154 -0.23237,-0.85998 -0.37064,-1.29803 -16.75484,6.9957 -13.53804,7.62446 -19.46986,11.37292 -6.93818,3.84999 -3.5674,13.13861 -8.90057,17.92466 -1.44579,8.79543 -8.31745,4.53979 -10.26028,16.37939 5.51202,5.12642 1.08809,18.667001 11.80556,17.553791 3.7073,6.8985 -0.71753,14.21459 -2.22518,10.07497 -0.002,2.04175 -0.46554,4.06631 -1.91607,5.56283 -1.72954,0.63572 -3.72702,-0.0409 -5.43921,0.80345 -1.72855,0.98835 -3.17712,2.83995 -5.37735,2.65774 -2.14263,0.19555 -2.45771,-2.58165 -4.32665,-2.59597 -2.10426,0.0164 -4.24214,-0.23155 -6.30459,0.24708 -2.00567,-0.0875 -1.79769,1.33796 -4.01755,-2.10147 -0.80508,2.43709 -5.4595,7.51671 -5.81008,9.76578 -0.53509,3.43362 -3.83068,5.72074 -8.83871,6.79901 -3.38772,0 -5.83561,-1.42158 -8.52969,-1.42158 -3.89842,-0.4279 -7.27542,1.46077 -10.3839,3.77038 -3.74183,4.63004 -0.0736,8.56831 -2.84323,14.15429 1.14961,4.13905 3.84377,8.67458 2.34872,12.79449 -3.47559,2.92815 -7.93348,5.80362 -9.88948,8.96233 -0.0573,-0.0982 -0.13009,-0.14972 -0.18573,-0.24709 -0.0933,1.4764 -0.45981,2.97872 -1.42157,4.45029 -0.44345,1.73984 -1.14356,3.23439 -1.91616,4.69745 -0.77235,1.46313 -1.63356,2.89968 -2.47235,4.45028 -0.76663,5.04002 -1.60673,9.96026 -1.97785,14.71056 -3.20756,2.91024 -6.83762,4.63347 -9.95126,7.16988 -0.4475403,1.4287 -0.8761003,2.84111 -1.4835103,4.20303 -0.60708,1.36201 -1.37436,2.63476 -2.47235,3.70853 -1.42042,1.18299 -2.47709,2.41745 -3.27587,3.77038 -0.79854,1.35293 -1.36406,2.82089 -1.91608004,4.57391 -0.26427,0.66108 -0.37391,1.26129 -0.30927,1.73068 0.0654,0.46963 0.32318,0.84459 0.67990004,1.17432 0.71263,0.65944 1.93252,1.07033 3.5849,1.48343 1.44874,0.36245 2.32525,1.01616 3.09048,1.8543 0.76499,0.83805 1.4786,1.84939 2.5342103,2.905 1.42231,1.20607 3.15446,2.85886 4.51205,4.51205 0.67908,0.82668 1.26645,1.61777 1.66882,2.41058 0.40255,0.79281 0.60382,1.56312 0.55636,2.2251 -0.30927,0 -0.25854,0.14973 -0.49417,0.18573 0.82627,0.82905 1.74573,1.83115 3.21402,3.02862 0.98156,0.80017 1.98578,1.5191 2.90508,1.97793 0.91922,0.459 1.70973,0.65945 2.28687,0.37063 0.61445,-0.30681 1.50307,-1.16744 2.47244,-2.03978 0.96937,-0.87225 2.07881,-1.73714 3.15225,-1.91608 1.18209,-0.19718 1.75702,-1.00676 2.34872,-1.60697 0.29618,-0.30027 0.55063,-0.51954 0.92716,-0.61772 0.37717,-0.0982 0.8729,-0.0573 1.48342,0.24709 2.38276,1.19134 3.91798,2.37278 5.93363,4.38843 2.47358,2.4735 2.39781,2.75585 3.58498,5.13018 0.42709,0.85466 1.55715,1.19805 2.59598,1.5452 1.03891,0.3469 1.97588,0.73145 2.16333,1.66882 -0.004,0.153 0.0654,0.22337 0.0654,0.37064 0.78872,-0.324 1.71464,-0.60218 2.2251,-1.11255 3.2155,-1.32381 5.36401,-3.34723 8.28243,-4.63568 3.58482,0.69053 6.21361,0.65863 8.65331,0.24709 2.43963,-0.41154 4.72274,-1.21065 7.66431,-1.91616 0.90457,0.0851 2.53764,0.15136 3.95578,0.37063 1.41813,0.21927 2.58804,0.5989 2.65783,1.29803 0.50399,0.50399 1.03638,0.976 1.60705,1.42157 0.33218,-0.33299 0.88534,-0.904 1.17432,-1.17432 1.00382,-0.93902 1.80873,-1.52237 2.90508,-2.0397 2.19262,-1.03483 5.48666,-1.77257 13.78341,-4.26489 -0.0573,-2.31149 0.43691,-2.99581 0.8653,-3.77029 0.42791,-0.77481 0.85336,-1.62653 0.6799,-4.14126 0.9778,-1.22227 1.74688,-2.09665 2.78146,-2.65775 1.03458,-0.56127 2.32369,-0.80345 4.14118,-0.80345 1.81822,0 2.58239,-0.0892 3.2141,-0.43281 0.63163,-0.34363 1.12221,-0.93689 2.22518,-2.03978 1.27111,-0.88199 2.51334,-1.48867 3.7703,-1.91608 1.25704,-0.42708 2.53036,-0.67826 3.77038,-0.8653 2.48004,-0.37472 4.89807,-0.47372 7.29351,-1.1744 0.60381,-1.20721 1.75449,-2.58649 3.21403,-3.64667 1.45961,-1.06027 3.21435,-1.79254 5.19195,-1.79254 3.10652,0 4.43776,-0.22417 5.4392,-0.61771 1.00153,-0.39355 1.72062,-1.01486 3.52313,-1.91608 1.29083,-0.64554 3.10734,-0.93501 5.00656,-1.1744 1.8993,-0.23973 3.86463,-0.42545 5.37743,-0.80345 1.44481,-0.36163 2.11743,-0.99882 2.78138,-1.73068 0.66435,-0.73144 1.31063,-1.5515 2.65783,-2.2251 0.63981,-0.3199 1.12515,-0.23727 1.48343,0.0655 0.26754,0.22336 0.37226,0.67499 0.49417,1.11255 z"
       id="San_Vicente"
       inkscape:label="#path2149" />
  </g>
</svg>
