<?xml version="1.0" encoding="UTF-8" standalone="no"?>
<!-- Created with Inkscape (http://www.inkscape.org/) -->

<svg
   width="210mm"
   height="297mm"
   viewBox="0 0 210 297"
   version="1.1"
   id="svg64"
   inkscape:version="1.1.2 (b8e25be833, 2022-02-05)"
   sodipodi:docname="vector.svg"
   xmlns:inkscape="http://www.inkscape.org/namespaces/inkscape"
   xmlns:sodipodi="http://sodipodi.sourceforge.net/DTD/sodipodi-0.dtd"
   xmlns="http://www.w3.org/2000/svg"
   xmlns:svg="http://www.w3.org/2000/svg">
  <sodipodi:namedview
     id="namedview66"
     pagecolor="#ffffff"
     bordercolor="#666666"
     borderopacity="1.0"
     inkscape:pageshadow="2"
     inkscape:pageopacity="0.0"
     inkscape:pagecheckerboard="0"
     inkscape:document-units="mm"
     showgrid="false"
     inkscape:zoom="0.74029882"
     inkscape:cx="361.34057"
     inkscape:cy="453.87078"
     inkscape:window-width="1920"
     inkscape:window-height="1017"
     inkscape:window-x="-8"
     inkscape:window-y="-8"
     inkscape:window-maximized="1"
     inkscape:current-layer="layer1" />
  <defs
     id="defs61" />
  <g
     inkscape:label="Capa 1"
     inkscape:groupmode="layer"
     id="layer1">
    <path
       id="Navidad"
       style="fill:#000000;fill-opacity:1;fill-rule:evenodd;stroke:#d39062;stroke-width:1.41335;stroke-linecap:butt;stroke-linejoin:miter;stroke-miterlimit:4;stroke-dasharray:none;stroke-opacity:1"
       d="m 93.22161,37.64924 c -4.55942,-4.85012 1.6958,14.5337 -7.1896,13.76277 -5.09766,10.59232 -13.85679,13.02913 -10.22182,27.36625 -0.18269,12.7864 -9.19288,17.82797 -16.29904,23.51344 -3.85164,4.13892 1.52988,13.89439 -11.72745,9.72909 2.52313,0.62178 -4.04608,8.26555 0.30982,10.26871 3.52301,11.19124 -2.41662,14.06843 -0.61858,22.10813 -9.5683,18.82143 -21.99391,23.90285 -21.46337,26.46669 -5.89059,14.20721 -12.75542,14.83135 -21.9343,17.54924 -0.422,17.80917 0.33439,28.89977 -3.16095003,33.65139 2.40690003,2.58393 7.93778003,2.45786 10.08614003,4.44511 2.18318,2.01951 0.95083,6.16377 -0.87819,10.25888 7.1973,8.79546 18.11696,6.89015 28.16132,16.37309 6.03802,1.25457 9.49512,-3.98176 13.8227,-9.65933 4.10591,-4.11284 3.85645,0.3376 6.67669,1.99377 3.72002,2.18521 9.78721,11.1515 13.77292,14.16202 2.3803,1.79793 2.88264,-1.93554 4.84628,-1.06515 13.81395,-6.69956 16.83419,-16.63014 25.13349,-16.01487 8.88146,1.00319 18.53106,5.61026 26.69618,0.52884 5.26604,-7.85659 4.80728,-20.165 17.07852,-20.23359 4.08433,-13.45306 -3.22558,-22.2656 8.56683,-26.09833 6.09828,-5.53034 17.94495,-11.05737 14.83839,-20.51489 5.26144,-8.45037 17.01388,-7.48212 17.01175,-18.96299 3.90858,-4.22908 12.09026,-6.89923 16.91388,-10.80962 3.6963,-2.99653 7.91727,-10.04992 4.23593,-15.76241 7.846,-0.35684 -23.12552,-6.65362 -9.4558,-11.6235 -0.24359,0.11218 14.00208,-8.79235 5.94582,-10.77191 -11.13739,-1.20927 6.19283,-12.26825 -6.07456,-16.31721 -14.97803,-1.14047 -12.7863,4.70044 -18.57945,7.21428 -5.30856,2.30359 1.00104,-9.73923 -4.18208,-16.23922 -5.41838,-6.79538 -5.32148,3.20518 -19.54365,1.91279 -3.8198,-0.34722 5.13527,-18.75648 2.38222,-19.17699 -8.9807,-1.37176 -15.79692,27.95823 -23.11772,8.80529 -3.38754,-8.86255 -15.12151,-7.1301 -20.72215,-14.93754 -3.02932,-4.223 -3.60367,-10.11904 -17.20779,6.07552 -4.25376,5.06369 -7.18768,-2.16448 -11.46078,-4.84264 4.43207,-6.79474 14.34214,-11.03312 7.35872,-23.15511 z"
       sodipodi:nodetypes="ccccccccccscccsscccccccsccccssssssscc" />
  </g>
</svg>
