<?xml version="1.0" encoding="UTF-8" standalone="no"?>
<!-- Created with Inkscape (http://www.inkscape.org/) -->

<svg
   width="210mm"
   height="297mm"
   viewBox="0 0 210 297"
   version="1.1"
   id="svg1283"
   inkscape:version="1.1.2 (b8e25be833, 2022-02-05)"
   sodipodi:docname="vector.svg"
   xmlns:inkscape="http://www.inkscape.org/namespaces/inkscape"
   xmlns:sodipodi="http://sodipodi.sourceforge.net/DTD/sodipodi-0.dtd"
   xmlns="http://www.w3.org/2000/svg"
   xmlns:svg="http://www.w3.org/2000/svg">
  <sodipodi:namedview
     id="namedview1285"
     pagecolor="#ffffff"
     bordercolor="#666666"
     borderopacity="1.0"
     inkscape:pageshadow="2"
     inkscape:pageopacity="0.0"
     inkscape:pagecheckerboard="0"
     inkscape:document-units="mm"
     showgrid="false"
     inkscape:zoom="0.52347032"
     inkscape:cx="155.69173"
     inkscape:cy="305.65248"
     inkscape:window-width="1920"
     inkscape:window-height="1017"
     inkscape:window-x="-8"
     inkscape:window-y="-8"
     inkscape:window-maximized="1"
     inkscape:current-layer="layer1" />
  <defs
     id="defs1280" />
  <g
     inkscape:label="Capa 1"
     inkscape:groupmode="layer"
     id="layer1">
    <path
       d="m 159.28772,79.280244 c -0.13451,-0.01568 -0.2875,-0.01742 -0.43222,0.03032 -1.15722,0.966113 -0.6207,3.214396 -1.32539,4.408642 -0.63998,1.54712 0.12301,3.376974 -0.66274,4.167078 0.0509,1.910532 -2.49721,1.793218 -3.31352,0.69451 -0.59987,-0.845219 -0.78522,-2.632074 -1.87288,-3.019618 -2.252,-1.278327 -1.17646,2.121618 -3.31356,1.630594 -1.3677,0.336036 -2.72143,0.469513 -3.45762,0.936081 -1.3815,1.998293 1.55271,1.124649 2.30507,2.325108 1.904,-0.362806 1.45719,-0.566372 2.13222,0.69451 -0.78491,1.670084 2.46557,2.028724 0.89321,0.362356 -0.0314,-2.116855 2.70801,-0.128378 3.31356,-1.056866 0.98981,-0.812978 2.99659,-0.311956 3.97626,0.905886 1.492,-0.709377 0.54386,-2.463011 1.09491,-3.895308 0.19271,-1.60731 0.56878,-3.462361 0.23034,-5.223941 -0.58683,-2.695647 1.02097,-0.824283 0.89322,0.875686 0.65022,1.763636 -0.58788,2.632823 0,4.318056 -0.1488,1.518357 -0.7149,2.854722 -0.6627,4.408645 1.89536,1.65422 -0.55571,1.55148 0.6627,2.53648 0.003,1.96659 2.35037,1.31469 3.08304,1.63059 2.56855,0.30809 1.51277,1.56567 -0.20177,1.14746 -1.76615,1.16384 -2.64783,-3.05766 -4.52375,-1.6004 -2.18857,1.27857 -1.44816,-1.6333 -2.65082,-1.87216 -0.18191,-1.31379 -2.92794,-1.17419 -2.79492,0.48313 -2.19338,-0.0965 -1.35268,1.82455 -3.31352,1.84197 -0.161,1.25459 -0.4533,2.25534 0.66269,3.01962 1.28184,0.12138 2.30758,1.893717 3.54408,0.69451 2.43742,0.279827 -1.4665,3.104517 1.09491,2.778047 -0.0725,-1.66024 2.62933,-2.15279 2.88134,-0.24156 1.1046,1.0818 1.2572,2.07796 2.65083,3.01962 0.62426,0.85898 1.59072,1.34918 2.53558,1.87216 1.74242,0.15386 0.66378,2.62708 1.90171,2.77805 1.3784,0.44787 1.63989,1.23398 2.88134,1.84197 2.51903,1.22083 -0.48403,0.49387 -1.12373,-0.21139 -0.74313,-1.23777 -3.45703,-0.0895 -3.08304,-2.56667 -1.80919,-0.16957 -2.56151,-1.68611 -3.31356,-2.77805 -1.09334,-0.38515 -3.46678,-1.25096 -3.11186,-3.26119 -1.42771,-2.56948 -1.74576,2.00698 -3.54404,0 -0.58178,-1.74828 -0.14392,-2.23842 -2.07458,-2.08354 -2.01016,0.4712 -1.9399,-1.422567 -3.22711,-2.083537 0.49969,-1.47226 -0.0174,-2.81335 -1.32543,-3.23099 0.0763,-1.05716 0.002,-4.433431 -1.12373,-2.08354 0.51864,2.40311 -0.41782,2.08761 -0.86439,3.56315 1.54667,0.55928 -0.5201,4.016337 -0.23069,1.99296 -0.0279,-0.22752 -3.76327,-0.016 -2.88135,0.48313 0.41755,1.612737 2.23206,0.0885 1.98813,1.600397 0.79285,0.33308 1.85769,2.20777 -0.43218,0.69452 -1.76054,-0.20954 -3.07255,-1.879607 -2.21864,0.7851 0.54787,1.25333 1.77308,1.38145 1.55591,3.38197 -1.47887,1.86095 -1.69175,3.08822 -2.88134,1.17765 1.7e-4,0.9986 -3.00488,1.69335 -1.32544,2.77805 -0.61833,1.23762 0.95096,2.32645 0.89325,3.80472 -0.44716,0.65361 2.09278,4.02882 0.20177,2.59688 -0.71768,-0.83177 -1.26573,-1.88709 -1.52709,-3.38198 0.12998,-1.55866 -2.40355,-1.73307 -1.55595,0.0906 0.35716,1.85574 1.05313,2.70672 0.66273,4.31806 -0.0721,1.02482 1.18698,2.12749 1.09492,3.80472 1.08766,-0.0261 2.61179,2.75992 1.32539,2.89883 -0.42723,-0.93625 -2.20951,-1.22417 -2.65082,-0.36235 -1.13339,1.10044 -1.64934,-1.67752 -1.98813,-2.65727 -1.24438,-0.0653 -3.04757,-2.26966 -3.77457,-0.45294 -1.16201,0.88411 0.1203,2.80357 0,4.40865 0.82357,1.64056 -0.23964,3.51819 2.3339,2.77806 0.73549,1.15624 -1.3868,1.62174 -2.5356,0.48313 -0.65145,-0.84795 -0.63836,-3.01617 -2.44914,-2.11372 -0.65621,-1.71973 -2.75158,-0.51941 -1.52712,0.93608 2.19909,0.62795 -2.0979,1.97443 1.29662,1.87215 1.21531,2.0873 -0.32423,1.55379 -1.18136,0.45295 -1.31683,0.27564 -0.30391,2.01217 0.31693,2.53646 0.0975,1.37731 2.56661,1.48604 2.42034,-0.45292 0.32081,1.6094 3.07504,1.37655 4.20675,1.38903 1.56159,-0.97277 2.473,-2.38734 2.88134,-4.16708 0.007,-1.44353 1.29686,-3.69594 2.65083,-3.47257 -1.2426,1.06411 -0.52652,2.67811 -1.75761,3.35178 0.0756,2.2711 0.0359,2.55855 1.41185,1.05686 2.59573,-1.06055 -1.15158,1.84445 1.9017,0.69452 0.83015,-1.0716 3.54847,0.53724 1.55592,0.45295 -1.19221,-0.24533 -2.36407,0.41287 -3.54404,1.17764 -1.73005,0.73758 -0.42225,2.90424 -0.54746,3.47257 -2.15111,0.0519 -0.35203,-3.70643 -2.21864,-2.11376 -0.9119,0.94044 -1.89188,1.17963 -2.76607,2.56671 -1.46071,0.70869 0.29028,2.03959 0.43221,3.01961 1.48539,-0.42601 2.78653,-1.18447 4.00508,0.69452 1.38091,0.61781 3.07729,0.12196 3.08304,-1.38903 -1.30836,-1.16342 0.83178,-3.01272 1.32543,-0.69451 0.3536,1.03678 1.77814,2.63479 3.31352,2.53645 1.19036,-0.17075 2.97401,0.14915 3.7746,1.63063 1.85539,-0.53551 2.07298,0.93928 3.31352,1.14743 0.76166,-0.69243 0.8554,-2.30211 2.65086,-2.08354 2.29364,-0.21118 1.79169,1.32919 0,1.17767 -2.09881,-0.16274 -0.43466,3.30119 -2.65086,3.23097 0.0941,1.3354 -1.25378,3.50641 0.43221,4.40865 1.08823,-1.09004 2.51952,0.41137 3.34238,-0.2415 1.05264,-0.8485 2.11208,0.45327 3.31352,-0.45295 0.65378,0.69549 3.85029,-0.79693 2.65086,0.69452 -1.14042,0.12127 -3.06892,0.26588 -2.42034,1.87219 0.26449,1.57027 2.55541,1.13282 3.08304,2.53645 0.69406,0.87614 3.75525,-0.78425 3.54408,1.38903 -1.03749,-0.49317 -3.21707,-0.19619 -2.44917,1.38903 1.41266,0.091 2.47279,1.35487 2.01695,2.56666 0.29725,0.43915 2.58256,0.61792 3.08304,0 0.17773,-1.87598 0.299,-3.50424 1.09492,-4.89177 -1.20915,-0.47619 -0.82607,-2.21993 0.69151,-2.9894 1.99022,-0.62109 0.61252,-2.80179 1.98813,-3.71414 0.93859,-1.05428 0.90893,-1.4507 1.98813,-2.80826 -0.0105,-1.5663 1.79469,-3.00241 1.09491,-0.21118 0.22477,1.24922 0.0927,2.47376 -0.89321,3.23097 -0.86607,0.16169 -0.83997,3.25404 -1.09488,3.95569 0.46953,1.58836 -1.01376,3.0751 -0.66273,4.62004 -0.0209,2.35496 1.47405,1.77768 2.65082,3.01961 0.90248,0.83105 2.85071,2.84779 0.66273,2.08354 -0.78606,-1.01615 -2.29935,-0.77379 -3.97625,-0.69451 -0.57443,1.03811 -1.50166,2.01189 -2.65086,2.32511 -1.096,0.64175 0.47682,2.71264 -1.3254,3.47256 -0.4725,0.84666 -1.52497,2.1969 -0.89325,3.74431 2.11944,1.22451 -0.87088,1.04637 -0.6627,2.74788 -1.37805,1.05731 -2.18804,2.17742 -1.98812,4.16705 1.53305,0.86275 0.64287,2.61932 1.75761,3.50278 1.63846,0.57411 -0.38848,2.36065 -0.43218,3.47256 -1.39356,2.55005 -0.36949,-0.87906 -1.78647,-0.93611 -1.97906,-0.24114 -2.57137,1.72813 -3.51522,2.80827 -0.64005,1.15924 -1.44645,1.84919 -2.21864,2.53649 -1.00564,0.61896 -1.6845,1.42217 -2.65083,2.3251 -0.46839,1.79225 -1.70266,2.39275 -2.88134,3.23097 -0.93043,2.08536 -2.03625,0.80899 -3.97629,0.93611 -0.64887,0.81081 -2.72694,1.26152 -2.88134,2.41568 -0.18086,1.3754 -2.14794,1.56731 -2.88135,2.92905 -1.0187,1.23646 -1.98914,2.93044 -2.88134,3.47257 -1.7849,1.51413 -2.01137,0.18225 -2.30507,-0.93612 -1.3072,0.1941 -1.88658,1.75605 -3.65931,1.38903 -0.97685,1.34982 -2.30863,1.84605 -4.2068,1.63059 -1.21804,-0.85628 -3.65879,0.83105 -4.20677,-0.93608 -1.09255,1.17782 -2.93161,0.52495 -4.23557,1.87216 -0.38233,1.77047 -1.23383,1.89599 -0.86442,4.0463 0.56106,1.64561 0.21463,3.67548 1.55593,4.98237 0.89617,0.99727 1.7159,2.86831 3.77456,1.6306 0.6036,-1.90802 3.31927,-1.0369 0.86442,0 0.28895,1.64721 2.40868,1.02908 3.11185,-0.45295 0.0837,-2.35358 1.95539,-0.92092 2.42033,0 0.70532,0.61394 1.95311,2.09106 2.65086,0.45295 0.40741,-1.22971 1.36558,-1.86557 2.01695,-3.26119 0.53348,-1.44335 2.09936,-1.85727 3.51526,-1.14746 1.03365,0.55471 2.70679,0.57213 3.86097,1.14746 2.10313,0.92496 3.66929,-1.32442 5.87797,-0.9059 1.76583,-0.29899 2.46031,-1.03535 4.00507,-1.38899 1.61655,0.48891 3.04649,0.10942 3.97626,-0.93611 1.09041,-0.9666 1.61884,-1.82079 3.54407,-1.63059 1.72433,-0.75473 3.21498,0.11186 3.08304,1.96276 0.37054,1.12038 2.58545,2.17651 3.54404,1.05686 0.59203,-1.59299 2.4837,0.65747 3.54408,-0.2415 1.68777,-0.35673 3.14109,0.0244 3.77456,1.38903 0.56191,1.40457 2.13689,1.95133 3.51525,2.11372 1.84783,0.78735 2.46666,-0.59778 2.67965,-2.20429 0.47281,-1.36425 1.77597,-1.29173 2.18982,-3.01965 -0.43981,-2.10842 0.30248,-2.82642 0.6627,-4.28787 0.23139,-1.69631 1.88229,-0.89513 3.11186,0 1.15816,1.22664 3.23271,1.03373 4.20677,0 0.84952,-0.0652 2.67222,-1.7844 3.08304,-0.24149 0.96152,0.92764 3.31893,2.51642 3.86102,2.02315 0.19758,-1.90798 -0.69664,-3.23334 -0.31677,-4.89177 0.37367,-1.88892 0.34743,-4.77071 0,-6.88475 -0.68047,-1.56737 -2.70825,-1.30954 -3.08304,-2.9894 -1.3125,-1.90185 0.6666,-4.81765 -0.95085,-6.09963 -1.04787,-1.42335 0.73615,-4.90575 -2.33392,-4.10669 -1.83689,-0.2164 -3.50791,0.30492 -5.24405,0.45295 -1.6953,-1.46559 1.0862,-2.6748 1.52713,-3.71413 1.6737,-1.4612 -0.34569,-4.23849 0.34569,-5.79767 0.79282,-2.16383 1.87135,2.40779 3.57286,-0.42278 1.97882,0.96114 1.68376,-1.21966 0.43221,-1.90233 -0.13974,-1.64906 -0.48961,-3.03498 -2.01695,-3.92552 -1.0993,-1.31187 -1.22012,-4.01504 0.46104,-4.40864 0.66845,-1.36892 -0.41465,-3.47522 0.6627,-4.65021 -0.0843,-1.97266 -2.69073,-2.32803 -3.19832,-3.59335 -0.90701,-1.87804 1.51866,-3.53334 -0.11535,-4.83138 -1.69694,-1.73444 1.05885,-2.89786 2.18983,-3.38197 2.20192,-0.11848 4.446,-1.56145 4.03389,-4.22747 -0.93712,-1.60797 0.32444,-2.27374 1.49831,-2.95923 0.72201,-0.88035 1.5403,-1.72945 2.01695,-2.80826 1.36784,-1.46339 3.18699,-1.03118 4.63895,-2.53646 1.52647,-1.10192 1.24013,-3.1603 0.23035,-4.37847 -0.55251,-1.703 0.32129,-3.82118 0.43218,-5.64667 0.89311,-1.60983 1.60909,-3.12807 1.98812,-4.8314 0.94925,-1.14086 3.45968,0.604 3.54408,-1.6004 0.37618,-1.72334 -0.75665,-3.23913 -1.98813,-3.50276 -1.37435,-1.33198 -0.75218,-3.84062 0.43222,-4.86159 0.81062,-0.86321 1.23022,-3.28788 0,-3.47256 -0.36803,1.83631 -1.98876,0.21456 -2.65086,-0.45294 -0.80708,-1.38421 1.14387,-2.17891 1.55594,-3.26119 0.57576,-1.07385 -1.55629,-1.12166 -1.98812,-1.84197 -0.77223,-1.848357 -1.70207,1.18148 -2.44917,0 -1.29974,-0.789927 -2.6611,2.46092 -2.42034,-0.664307 -0.77512,-1.14522 -1.13154,-2.15239 -1.1237,-3.29139 -1.15997,-0.0547 -1.97485,-0.78153 -3.08304,0.24156 -1.3171,0.37394 -2.93765,-0.87312 -1.78646,-1.63059 0.64444,-0.68471 2.98731,-1.69959 1.32543,-2.77805 -0.84847,-0.64868 -2.70721,-0.0645 -3.31356,-1.17765 -0.6788,-0.991983 1.00745,-2.151149 0.46103,-3.110205 -0.0505,-1.363591 -2.12027,-1.554009 -0.69155,-2.898836 0.0209,-0.565671 -1.67338,-1.167619 -1.52709,-2.325108 0.86467,-1.247462 -0.89851,-2.793488 -1.78643,-1.630594 -1.11899,0.685725 -1.84581,1.920049 -3.31356,1.389027 -0.9582,0.677037 -0.61865,2.65907 -1.55595,3.714132 -1.19457,0.25254 -2.57144,0.893901 -3.31352,1.509809 -0.003,1.376541 0.13486,2.521321 -0.43221,3.351775 -0.062,1.23029 -0.86179,2.6693 -2.21865,1.63059 -1.05787,-1.047105 -2.302,-1.176044 -3.54404,-1.63059 -0.63402,-1.04116 -1.84706,-1.707883 -3.08304,-1.389024 -2.20753,-0.299724 -1.47608,1.345119 -2.67968,2.083534 -1.30246,-0.53596 -2.29336,-1.056361 -3.97625,-0.905882 -0.75867,1.028862 -2.4538,0.709756 -2.88135,-0.241564 0.4732,-1.407489 -1.09393,-1.221037 -1.98813,-2.08354 0.24359,-0.806019 1.29006,-2.194294 1.32544,-3.593347 1.5764,-2.330384 -1.38307,-1.640567 -1.09492,-3.683936 0.44372,-0.668594 -0.18225,-2.15456 -1.12373,-2.264713 z m -14.95421,10.176115 c -0.24602,-0.01638 -0.0659,0.761431 0.14392,0.06039 -0.0533,-0.04147 -0.10872,-0.05806 -0.14392,-0.06039 z m -9.1627,12.803181 c -1.5549,0.7444 -2.27868,0.79459 -3.54403,1.87217 -1.06761,1.25697 -2.91115,1.24552 -4.49491,1.63059 -0.7899,0.18536 1.28849,1.28811 -0.57627,2.53648 -0.72442,1.40375 -1.79389,3.12499 0,3.9557 0.29192,1.52093 1.64666,1.57397 2.88135,2.77805 -0.4794,2.5095 3.8062,-0.0661 2.18983,1.6306 -2.16205,0.87073 -0.12524,1.29119 0.89321,0.21138 0.76009,-2.3032 2.65591,2.03373 2.88134,-0.45294 0.12127,-1.1494 0.44413,-2.61473 0.23034,-4.62002 1.55571,-1.13764 1.04798,-2.90574 1.32543,-4.19727 0.0314,-1.65735 -0.42653,-3.84747 -0.77797,-4.86158 -0.65712,0.29265 -0.64688,-0.49098 -1.00849,-0.48314 z m -8.61521,13.46751 c -1.04029,1.75294 1.03884,2.71597 0.97966,0.93608 0.68128,0.843 1.32552,3.97194 2.10339,1.50981 -0.65145,-1.5393 -0.85658,-1.81076 -2.42033,-2.44589 -0.2209,0 -0.44182,0 -0.66272,0 z m -65.723541,1.84196 c -0.49291,0.54797 -3.04488,0.84045 -1.03729,1.6306 1.19391,0.93979 2.59865,-0.14737 3.68813,0.24156 0.31446,0.44303 3.54505,-0.50398 1.84406,-0.93608 -1.93591,0.36999 -2.72049,-1.01496 -4.4949,-0.93608 z m -3.02542,1.84197 c -0.22679,-0.006 -0.4803,0.005 -0.74915,0.0303 -0.53744,0.72119 -2.51757,1.17868 -1.09491,1.84197 1.17019,0.20434 1.30525,1.67812 2.88135,0.93608 1.02784,0.86637 1.96463,0.11747 3.08304,-0.24157 0.43025,-0.54165 2.98208,-1.72239 1.26779,-1.38902 -1.11726,-0.37919 -2.6363,-0.33733 -3.54405,-0.93608 -0.63388,-0.0851 -1.16367,-0.2232 -1.84407,-0.24157 z m 10.31522,2.56668 c -0.6926,1.19397 -2.57255,0.39798 -3.08303,1.38902 -0.58472,1.03864 -3.32842,-0.21375 -3.31355,1.38904 1.0494,0.18852 2.15273,0.24184 3.08304,0.24149 0.92633,0.47762 1.17903,-1.31304 2.44914,-1.38903 0.12378,-0.20093 2.62615,-1.49185 0.8644,-1.63059 z m 2.65084,2.32511 c -0.95999,0.52783 -2.23925,0.79501 -3.28473,1.35881 -1.74893,0.94671 1.02262,0.33698 1.46949,0.96629 -0.47209,0.64346 -1.10818,1.95447 0.48982,0.9059 1.30278,0.31154 2.01083,-0.57711 2.82373,-1.14746 0.5179,-1.8049 -0.28499,-1.83358 -1.49831,-2.08354 z m -11.26606,1.14746 c -1.34031,1.1475 -2.68575,-0.15995 -4.20677,0.48313 -0.85764,-0.55471 -1.85444,1.09073 -2.88135,0.21152 -1.28443,-0.14984 -1.69011,0.78714 -0.4322,1.63059 1.0965,-0.38761 2.59322,-0.99657 3.74575,-0.45295 0.57833,0.63503 2.92587,0.80774 3.77457,0.45295 0.52884,0.32757 3.23365,1.32752 3.31355,0 2.43968,-0.48901 0.81573,-0.96451 -0.23052,-1.84197 -1.06346,0.0683 -1.72202,-0.51763 -3.08304,-0.48313 z m 22.90671,0.87569 c -0.0997,0.007 -0.20685,0.0244 -0.34575,0.0603 -1.03727,0.52282 -2.30619,0.69316 -2.42034,2.08354 -0.0883,1.34582 -1.17569,1.63021 -2.21864,2.77806 -0.18026,0.43939 0.89802,1.94112 1.38305,2.56667 0.57419,0.83369 1.04434,2.26279 2.7661,1.38902 1.1765,-0.90283 2.3669,0.73466 3.74575,0 1.38117,0.22094 1.4331,1.34272 2.93897,1.38903 0.90846,-0.72103 1.83618,-1.20911 2.21864,-2.26471 -0.95137,-0.59931 -0.12078,-1.95196 -1.09491,-2.59688 -2.32262,-0.11709 0.22616,1.36839 0,2.3251 -1.56542,-1.36554 -1.58925,1.38415 -2.44914,-0.0906 0.95627,-2.17241 -0.99802,-0.71117 -1.93051,-0.63413 -0.64224,-0.53404 1.10559,-1.67303 1.93051,-1.84197 0.0398,-0.47456 1.6861,-2.86838 0.66271,-2.53649 -1.34622,-1.66865 -1.00133,1.1844 -1.98813,0.39255 1.27911,-1.99436 -1.27951,-1.66975 -1.98813,-2.26471 -0.64843,-0.19131 -0.51226,-0.79933 -1.21017,-0.7549 z m -26.68128,1.93254 c -0.99687,0.81976 -2.45296,0.70549 -3.83219,0.9059 -2.21672,-0.13904 -1.75407,0.3443 -1.7,1.81177 0.27261,1.74649 1.36527,0.15263 2.67966,0.96629 0.95226,-0.47432 2.60431,-0.72738 4.03388,-0.9059 1.38679,0.83209 1.82783,-0.45801 3.08305,0.69451 1.47969,-0.0704 2.22757,0.75888 3.48643,0 0.70682,-1.60358 0.36581,-1.91896 -1.32542,-1.87215 -1.24503,-0.21885 -2.6448,-0.62078 -3.77457,-0.9059 -1.02339,-0.0822 -2.09339,-0.26763 -2.65084,-0.69452 z m 10.92031,0.42274 c -0.081,-4e-5 -0.18351,0.003 -0.28812,0.0314 -0.9,1.23201 -0.684,1.06864 -0.89321,2.08354 -1.38079,0.94922 -0.73637,2.60072 0.46101,1.14747 1.10689,-0.7034 0.99765,-1.11844 1.32542,-2.08355 -0.0226,-0.58958 -0.0382,-1.17729 -0.60508,-1.17767 z m 5.30167,0.24149 c -0.16047,0.007 -0.34586,0.0666 -0.48983,0.0314 -0.77271,0.72221 -1.4969,1.33372 -2.44914,2.08354 -1.46168,0.33314 -1.86808,1.00054 -2.42033,2.29489 -0.52854,1.25587 -1.1986,2.63201 0.95085,2.5667 1.45681,0.17877 1.013,-2.06692 2.30507,-2.08354 0.87631,-0.80867 1.31911,-2.08211 2.10338,-2.56667 0.55023,-0.22581 2.27957,-2.31001 0.37458,-2.08354 -0.0785,-0.19898 -0.2141,-0.24742 -0.37458,-0.24149 z m 27.60332,1.63059 c 0.30513,1.5817 -1.6296,1.17057 -1.32542,3.01962 -0.55344,-0.99758 -0.85532,-2.26635 -1.98813,-0.69451 0.0465,1.31574 -0.55643,2.61246 1.46949,2.3251 1.3431,-0.40604 1.18558,0.58245 2.07456,-0.24149 1.682301,-0.17285 0.775751,-1.83571 0.864421,-2.53649 0.75692,-0.68845 -0.40119,-1.87676 -1.094921,-1.87216 z m -23.9152,0.48313 c -1.37631,0.51582 -2.22644,0.88496 -2.85253,1.84198 -0.19755,1.37794 2.31194,-1.12826 1.52713,1.23803 -0.77473,1.38938 0.79849,1.94767 1.55592,2.23454 0.6666,0.74615 0.83061,2.35894 1.55593,2.77802 1.11681,1.40028 -1.43026,0.37461 -1.12373,-0.90587 -0.72851,-0.74159 -1.37922,-1.69042 -2.18983,-2.08354 -1.10741,8.7e-4 -0.90788,-2.50603 -2.21864,-1.17764 -0.28024,0.7134 -2.46867,1.0608 -1.78643,2.56667 0.37446,1.44381 0.1772,2.64452 0.89322,3.71413 2.41033,-0.46839 0.94265,1.26065 1.32542,2.4761 0.48426,0.32687 -0.96601,2.20436 0.46101,2.83841 1.23055,0.4334 1.19256,1.87867 2.47796,2.08354 1.02611,-0.28471 4.8801,0.59067 2.16102,0.69451 -2.10581,0.17668 -0.75338,1.35429 0.66271,0.69452 1.05583,-0.30736 3.21804,-0.43002 2.42033,-1.69099 -1.0262,-0.22929 -0.5261,-2.63294 -1.75762,-2.68745 -0.53463,-0.94984 -0.5528,-2.50655 -1.38305,-3.01961 -0.81165,-0.64036 -2.04768,-0.12511 -2.82372,-1.17764 -1.23486,-1.192 1.56181,-0.0962 1.84406,-0.21153 0.92998,0.79735 2.08056,1.02354 3.45762,1.14746 0.73883,-0.5792 1.46035,-1.5978 2.59321,-1.84197 1.12329,-0.48818 2.44806,-1.04174 3.37118,-0.27182 1.24113,0.35043 2.0272,-2.31796 0.23052,-1.84197 1.18142,-0.55443 -0.0819,-2.63901 -1.09491,-1.60038 -1.50295,-0.1488 -2.37029,-0.0279 -4.12034,-0.24149 -1.68246,0.29306 -2.10927,-0.86482 -2.50677,-2.08355 -0.64954,-0.57885 -1.43336,-1.69084 -2.07456,-2.3251 -1.02553,-0.0415 0.73099,-1.34878 -0.6051,-1.14746 z m -18.58468,1.14747 c -0.98439,0.093 -2.55231,0.95283 -3.54406,0.45294 -0.63853,0.22721 -4.42104,0.57921 -2.24745,1.17765 0.18159,1.33456 1.91873,1.80765 3.28474,1.63059 1.13543,1.60787 -2.66713,-0.58973 -2.36271,1.08707 0.5669,1.03989 -0.98372,2.55715 0.66271,1.44942 1.24939,0.51867 2.52257,-0.3728 2.50678,-1.14747 0.98514,-0.65025 2.99619,-0.33628 3.68812,-0.9059 1.86483,-0.3192 0.15647,-1.95268 0,-2.80823 -0.50862,-0.57359 -1.08481,-0.76462 -1.98813,-0.93607 z m 71.255741,2.3251 c -1.83022,2.26862 2.32571,2.93727 0.8644,0.6643 -0.23853,-0.30248 -0.51311,-0.5254 -0.8644,-0.6643 z m 9.30675,1.84198 c 0.71887,0.2631 0.35182,0.46284 0,0 z m -6.4254,0.48312 c -2.15747,0.89702 0.87277,4.25197 0.89319,1.50981 0.12476,-1.01915 0.0362,-1.18294 -0.89319,-1.50981 z m 7.08809,0 c 0.61301,0.12336 0.32931,0.43013 0,0 z m -43.364271,0.21153 c -0.5485,1.03247 -1.83419,2.03197 0.23052,2.08351 1.00883,-0.67431 1.39248,-1.5187 -0.0289,-2.08351 z m -30.31178,0.24149 c -1.21294,0.22651 -0.74364,1.69513 0.66271,1.63059 0.33416,0.50028 3.91424,0.65221 2.18982,0 -0.1243,-1.88316 -0.99456,-1.15774 -2.21863,-1.63059 -0.24334,-0.0244 -0.46062,-0.0314 -0.6339,0 z m 23.45417,0.2415 c -0.0566,0.774 -0.5592,2.8482 0.28812,3.231 0.21885,-0.95455 2.01597,-1.00602 2.1322,-2.14393 -0.42442,-0.85 -1.58559,-0.81868 -2.42033,-1.08707 z m 39.820241,0.69451 c -2.10398,1.14799 2.85704,3.15957 1.03728,0.99647 -0.4275,-0.24324 -0.46116,-0.93235 -1.03728,-0.99647 z m -28.323661,0.45295 c -0.91563,0.53704 -1.53733,1.50748 -2.73728,1.63059 -1.35912,-0.86568 -2.30891,0.34465 -2.1322,1.44942 -0.18002,1.50497 0.37409,0.98337 1.09491,2.26471 0.90829,1.39739 2.63938,1.6682 3.54406,0.21118 0.58821,-0.8184 0.958821,-2.02304 2.218641,-2.29489 0.60219,-0.80868 0.66158,-2.54733 -0.60509,-2.56667 -0.47006,-0.23174 -0.63385,-0.78958 -1.383041,-0.69451 z m -44.02699,0.18121 c -0.15417,0.007 -0.31179,0.0244 -0.46102,0.0603 -1.58222,1.67146 2.17033,0.36258 2.65084,1.38902 0.63489,0.99616 1.4884,1.35195 2.42033,2.05333 2.50563,0.62788 1.58688,-1.32648 0.17288,-1.35881 -1.72095,-0.003 0.0976,-2.28434 -1.69999,-2.08354 -0.8397,0.40952 -2.004,-0.1164 -3.08304,-0.0603 z m 57.655771,2.08354 c -0.10368,-0.0105 -0.20892,0.007 -0.34576,0.0603 -1.38859,1.11059 -0.95252,2.02503 0.66271,2.08354 0.3758,-0.56746 0.40878,-2.06724 -0.31698,-2.14394 z m -30.455851,0.0603 c -1.2739,0.38778 -0.78597,1.60672 0,2.08354 1.18262,0.0861 1.1511,2.50833 2.73728,1.38902 0.6715,0.26763 2.63449,-0.48699 1.90169,-1.38902 1.03683,-0.90921 0.0603,-1.96318 -1.09491,-1.38903 -0.80775,-0.58224 -1.94912,-0.65008 -3.54406,-0.69451 z m -15.3864,0.21152 c -0.0961,-0.007 -0.20041,-0.003 -0.31694,0.0314 -1.02181,0.93524 -0.67138,1.74577 -1.2966,2.74785 -1.0536,-0.24847 -1.42164,-1.35513 -2.67966,-1.35882 0.65059,1.28905 0.92025,2.10895 1.75763,2.77806 -0.37659,0.62028 1.39455,1.48022 1.84406,2.08354 1.04525,-0.34256 2.03042,1.06041 2.59321,0.24149 1.47816,-0.41688 0.11151,-2.09382 0.8644,-2.5667 0.36905,-1.80644 -0.69843,-1.76943 -1.32542,-2.77802 -0.54324,-0.16344 -0.76849,-1.1207 -1.44067,-1.17768 z m -12.27454,0.48316 c -0.31603,0.72717 -1.63721,1.66171 -2.62202,1.41921 -1.10064,-0.7403 -1.98569,-0.36869 -2.24746,0.9059 -0.14186,0.69556 -3.09291,1.0625 -0.8644,1.63059 -0.18469,0.93757 3.15824,0.96043 1.32542,1.60041 -0.14204,1.67973 2.15981,0.9734 2.65084,1.87216 1.4732,0.30526 2.41104,0.60147 3.60168,0 1.3233,0.54115 2.6961,-0.31084 3.91864,0.21152 1.50585,-0.32757 -0.927,-1.61613 0,-2.77802 0.64285,-1.96425 -0.99334,-1.95122 -1.78644,-2.77805 -0.86193,-0.74281 -1.89602,-0.95406 -3.05423,-1.60041 -0.35003,-0.13974 -0.59386,-0.30109 -0.92203,-0.48313 z m 34.97956,0 c 0.15239,1.4589 -2.82364,1.16712 -1.55593,3.01962 -0.55722,0.81059 -1.82752,1.15262 -2.88134,0.93608 -0.98828,1.22451 -2.00527,-0.35869 -2.21864,-1.17764 -0.81993,-0.39371 -1.22797,-1.65415 -2.42033,-2.08354 -0.19557,0.82345 -2.53476,0.87763 -1.78644,2.08354 0.7329,0.73723 0.86327,2.13807 1.55593,3.08001 -0.0849,1.63526 1.83101,1.33055 3.11185,1.5702 1.74039,1.59226 1.5127,-2.38184 2.65084,-1.08708 -1.34306,1.58195 -0.0614,1.3737 1.29661,1.50981 0.80922,0.57231 1.72511,1.67834 3.11185,0.96629 1.34097,-0.24428 1.78309,-1.08759 1.98813,-1.87219 0.21128,-0.69134 0.93668,-1.11892 0,-2.38549 -1.32199,-0.51826 0.91927,-2.07344 -0.8644,-2.2345 0.97183,-1.81306 -1.51043,-1.42656 -1.78644,-2.32511 z m 45.784631,0.69452 c 0.60436,1.94422 -2.21663,-1.00992 -0.66274,1.63059 0.0359,2.20962 1.4858,2.16609 1.12374,0.21117 0.88586,0.91719 2.50105,0.1603 3.54407,0 -0.876,-1.28486 -2.26743,-1.22444 -3.34238,-1.84194 -0.22093,0 -0.44179,0 -0.66269,0 z m 6.85759,0.45295 c -0.62743,0.5861 -3.08858,1.39937 -1.52709,2.0835 -0.16413,1.89171 -1.66195,-0.2042 -2.44916,0.72473 -1.62948,-0.51146 -2.16132,1.18189 -1.32543,2.77805 1.09986,1.03209 2.29503,1.06415 1.32543,-0.69451 1.18653,-0.93123 2.0505,-0.21083 3.11186,0 1.89508,1.41377 1.79479,-1.56403 3.19832,0 0.78013,-1.9645 1.8626,0.32687 2.76606,-1.26825 -1.09369,-1.23615 -0.35234,-1.3786 -1.09491,-3.1404 -1.32571,-0.0976 -2.80234,0.47662 -4.00508,-0.48312 z m -12.64911,0.87568 c -0.11406,7e-4 -0.25184,0.0279 -0.40338,0.0603 -0.91422,1.54166 -2.38501,1.6984 -3.31355,2.3251 0.19744,1.65408 -1.28654,3.6389 0.461,4.62 0.85386,1.56706 2.61477,0.757 3.97627,0.24149 0.87481,-1.03748 4.50556,-1.03609 1.75762,-0.24149 0.81951,1.16419 3.45566,-0.25543 2.65082,-2.29489 -1.66516,-0.2171 -1.1883,-1.90875 -1.98812,-2.56667 -0.61583,-3.02279 -1.75318,0.55457 -2.88133,-0.93608 0.45076,-0.46337 0.5392,-1.21294 -0.25934,-1.20785 z m -29.9372,2.35529 c -0.0865,-0.0174 -0.187441,-0.002 -0.316971,0.0314 -0.16319,1.42565 -2.27172,0.66186 -1.12372,2.08354 0.62397,1.0248 1.960051,-0.39566 2.449141,-0.93611 -0.70883,0.13172 -0.40301,-1.05606 -1.00847,-1.17764 z m 4.32202,0.48316 c -1.53121,1.1606 0.52222,1.41575 0.66271,2.50628 1.48397,0.1704 0.48888,-2.28266 -0.0576,-2.50628 -0.19922,-4e-5 -0.40586,0 -0.60508,0 z m -32.443981,0.90586 c -0.0942,3.2e-4 -0.19755,0.007 -0.31694,0.0314 0.65331,0.84885 -0.0458,2.54213 0.89321,3.23096 0.14218,1.40865 0.584,2.22342 1.32542,3.01962 0.37105,1.16844 -0.40445,2.65072 1.49831,2.56671 1.52172,-0.0404 1.97272,0.88701 3.14066,1.38899 1.47658,0.0732 2.85267,0.2516 3.31356,1.38903 0.27223,0.84993 1.77328,2.52439 2.21864,0.69451 1.25751,-0.75895 -0.20647,-1.97886 0,-3.47253 0.24285,-1.26672 -1.50663,-2.43268 0,-3.01966 -0.41266,-1.34756 2.17898,-1.78134 0.89322,-2.56667 -0.91933,0.92566 -1.9714,-2.14055 -2.65084,0 -0.92101,1.25166 -2.61808,0.57384 -1.32543,-0.45294 -0.9869,0.20734 -3.12246,0.43169 -3.57287,0.66433 1.12025,1.179 -1.47203,-0.18713 -1.75763,-0.66433 -0.50591,-0.91416 -1.36604,-1.3761 -2.18982,-2.32511 -0.68881,0.0244 -0.81044,-0.48529 -1.46948,-0.48313 z m 24.69315,0.48313 c -0.57024,0.44089 -1.77633,2.17303 -0.66271,2.32514 -1.61183,1.29292 1.2364,0.38019 1.09492,-0.45295 0.37812,-0.3567 0.12339,-1.58006 -0.43221,-1.87219 z m 48.896471,0.24149 c 0.55749,1.96611 -2.46875,0.039 -2.18983,1.6306 -1.06798,0.0366 -3.04687,-1.01306 -3.77456,-0.48317 -0.40214,1.87355 -0.72793,1.67011 0.43222,3.01962 1.37672,-0.34983 2.14302,1.10011 3.54404,0.69451 0.86603,1.26546 -0.21675,2.81214 0.23034,3.71414 1.1705,0.50253 1.31195,1.48677 1.75761,2.5667 1.62335,1.78674 -1.22095,0.28784 -1.75761,0 -0.58896,-1.28989 -0.94088,-3.12245 -1.98813,-4.40865 -1.30793,0.24638 -1.1491,-3.6307 -1.98812,-0.69451 -1.45158,-1.17823 -1.9759,-0.21362 -0.89322,1.38903 2.09529,1.71046 -0.79202,1.94725 -1.09491,0 -0.84987,-3.05963 -0.35492,1.054 -1.12373,0.69451 -1.13297,-1.15279 0.42043,-2.5965 -0.89322,-3.01962 -0.50811,-1.98471 -1.9078,0.0456 -3.31356,-0.24149 -1.097,0.91499 -2.65241,1.17886 -3.54405,2.77805 0.0585,1.17151 -0.44354,2.25778 -0.86441,3.50278 0.51849,1.19437 1.20301,2.50457 1.52712,2.98941 0.88803,1.06498 1.99608,1.93613 3.34238,1.87215 1.5249,0.26101 2.47899,1.14004 3.97625,1.63063 2.05901,-0.2286 0.68445,1.23901 0.89322,2.29489 -0.0394,1.33202 -1.91042,-2.50624 -1.55595,-0.45295 1.88021,1.1689 -0.34116,2.14254 -0.89321,0.36235 -0.31712,-1.0624 -2.00841,-1.0968 -2.88135,-1.05686 -0.19131,-1.59731 -2.15925,-0.0105 -2.65083,-1.63059 -1.01467,0.2286 -2.91894,0.66667 -2.42034,0.93607 0.68633,1.24922 -0.37672,2.03054 0.66271,3.47257 0.13852,1.70559 1.92335,1.57884 2.85254,2.56667 0.71373,0.2976 2.05728,2.42501 -0.20169,2.08354 -1.70084,0.007 -1.47977,-2.78886 -3.54405,-2.08354 -1.45901,0.83453 -1.72854,-0.81035 -3.31356,-0.48313 -1.9427,-0.0279 -0.31725,3.04523 -1.55593,3.01962 -1.98607,-0.46142 0.72671,-2.75857 -0.89322,-3.01962 -0.55233,-0.45521 1.79646,-1.99694 -1.09491,-1.60037 -1.2448,2.53725 0.14765,-0.73585 -1.12373,-0.93612 -0.23159,1.59616 -2.55907,2.44798 -1.52711,3.80474 -0.56888,1.11829 -1.63227,1.70475 -1.98813,3.1404 0.23613,3.57965 1.99057,-3.22891 1.75762,0.6643 -1.19918,1.35348 -0.2102,2.18007 -0.23052,3.95573 -0.2102,1.22444 1.10434,2.68045 -0.2017,3.26118 0.99259,0.57663 2.75694,0.69849 3.08305,1.87216 0.76145,-0.65507 1.62587,-2.50719 2.65084,-0.93608 -0.21909,0.93998 -2.89678,0.5829 -2.65084,2.41571 0.53465,1.2527 1.24405,2.93786 2.65084,3.1404 2.18533,0.75103 0.25815,-1.86846 2.65084,-1.60042 0.37676,-1.43192 2.7404,-0.83191 2.21864,-3.01961 1.72172,-1.34153 -0.2762,2.09528 0.89322,2.3251 0.28021,1.28731 2.11066,0.59387 3.31357,1.14746 0.33628,2.11665 2.96989,0.55398 4.20677,1.38903 -0.32165,0.90611 -2.66553,0.62527 -3.74577,0.45295 -1.50849,-0.23452 -2.95062,0.7371 -3.34237,-0.69451 -0.85765,-1.45573 -2.46103,-0.0387 -3.31355,0.69451 0.002,1.25176 -1.7767,1.9184 -3.08304,1.17764 -1.16537,-0.76745 -3.36125,-0.47696 -2.44915,1.02668 0.29059,1.55766 0.60269,2.61337 2.21864,2.68745 1.36032,0.12859 3.55197,1.25445 3.08304,2.77806 0.79512,0.78644 0.70613,3.58265 2.01694,2.68745 -1.16936,-2.24583 1.10455,-0.93545 0.86441,0.66433 1.18538,0.60015 2.16302,1.03111 3.54408,1.29843 1.5588,-0.0972 2.4525,-1.13503 3.31352,-1.87216 1.09181,-0.69246 2.10727,-0.67765 3.34238,-0.93608 0.92687,-0.8085 1.52263,-1.44896 2.42034,-2.08354 1.04421,-1.6716 1.78981,-0.57561 2.88134,-1.14746 1.29546,-0.94395 0.41577,-2.74502 1.75761,-3.71413 0.21536,-1.54445 1.70046,-1.86574 2.88135,-2.56667 2.03266,0.50083 0.0209,-2.73244 1.78646,-2.98944 0.11778,-0.91789 2.64633,-0.30178 2.18983,-1.38903 0.10071,-1.20478 1.70286,0.21223 1.32539,-1.87215 1.54351,1.2104 2.93076,0.16622 3.54408,-1.38903 1.19747,-0.70134 1.82946,-1.33268 1.98812,-2.77805 -0.23487,-1.82299 1.49727,-1.64122 1.55595,-3.47257 0.19689,-0.89788 -0.44629,-1.17834 -1.98816,-1.63059 -1.47928,0.1826 -2.59594,-0.76881 -4.20674,0 -1.35927,-0.93834 -1.28929,-0.77275 -0.89325,-1.63059 -2.02632,0.64569 -1.73722,-1.72402 -3.51522,-1.63059 -2.7723,0.63858 -0.52899,-0.79763 -1.32543,-2.53649 -1.28079,-1.47158 0.18992,-2.04535 1.09491,-0.36235 -0.88987,2.51004 1.53724,0.42915 2.42035,1.05686 1.15485,0.49787 -0.74543,2.86716 2.01694,2.08354 0.77815,1.07641 2.32866,0.54247 3.51522,0.93608 1.36976,0.40068 2.92323,0.20246 2.88138,-1.38903 0.93489,-0.63457 1.969,-1.46262 2.44913,-2.65727 1.37568,-0.38643 0.3192,-3.16654 2.42034,-3.14037 0.53624,-1.19172 1.34676,-2.4041 1.55591,-3.95573 0.45072,-1.18963 -1.71203,-1.91582 -2.65082,-2.3251 -0.40831,-0.95368 -0.33349,-3.11883 -2.44916,-2.53646 0.51334,-1.06884 -1.63126,-3.70782 -1.3254,-1.63062 -0.65886,-0.44124 -1.84637,-0.86997 -2.88138,-1.14743 -1.10153,-0.0397 -1.84863,-1.84839 -3.08304,-0.93608 0.25788,2.0848 -1.74377,1.44409 -1.78643,3.26118 -0.53177,1.1413 -0.7173,2.69028 -1.98812,3.47257 -0.96117,0.67322 -0.9257,1.84201 -1.75762,3.23097 -1.41098,0.39643 -0.70786,3.83234 -2.21864,3.26118 -0.0941,-1.80166 1.4391,-2.56844 1.55591,-3.95569 -0.62053,-1.54142 1.68764,-2.09508 1.75765,-3.56314 1.278,-0.853 1.55783,-2.61389 2.21861,-3.38196 -0.0958,-1.10621 0.29969,-2.18701 -0.43218,-3.59335 -0.19027,-1.27881 -2.7544,-2.0993 -1.78643,-0.2415 0.3199,0.73909 1.91198,2.36163 0,1.75138 -0.84332,-1.13879 -0.86269,-2.87013 -1.52713,-4.1973 0.17215,-2.50453 -1.53152,-0.44127 -2.21865,-1.84194 -0.37457,0 -0.74915,0 -1.12373,0 z m -78.315031,0.2415 c 0.0498,1.27957 -1.20003,1.17628 -0.89322,2.77805 -1.62485,0.46745 0.29969,1.7098 -1.32541,2.08354 -0.59963,0.77313 -0.90821,1.90272 -0.23052,2.77802 1.3654,0.22826 1.85298,1.00564 3.11186,1.17768 1.38209,-0.16971 2.07878,1.5879 3.08304,1.38903 0.88001,-0.19898 1.99635,0.65726 1.12372,-1.17768 -0.53487,-0.64601 -1.64051,-1.99802 -1.12372,-3.23097 -0.0364,-1.3294 -0.63755,-2.37556 -1.32542,-3.08001 -0.29366,-1.02222 -0.91562,-1.91836 -1.55594,-2.71766 -0.28812,0 -0.57626,0 -0.86439,0 z m 33.193131,0.21118 c -2.112701,1.16565 0.29007,1.65212 1.09491,1.93258 0.75108,2.00356 -0.70012,0.62088 -1.959321,0.42273 -0.68139,-0.74964 -3.091,-0.88785 -3.14067,0.6643 -1.46396,-0.82843 -2.07224,2.14031 -2.65084,0.18121 -0.38039,0.15333 -2.54313,-0.77571 -1.98813,0.51331 -0.10321,1.4898 1.86101,0.75466 2.44915,1.87219 0.19515,1.27992 1.41649,1.28549 2.18982,2.53645 0.31628,1.29916 2.15645,1.00128 3.34236,1.38903 0.616591,1.20451 2.014981,-0.71305 1.527131,-2.08354 -0.60825,-1.238 -2.658831,-0.66597 -3.313561,-1.38899 -1.0997,-0.54411 -2.11378,-1.85494 -0.23051,-1.14747 1.05932,0.50038 2.01,-0.32094 2.881351,0 0.71091,0.085 1.91186,-0.78435 2.42033,-1.60041 -0.19814,-0.54111 -0.0629,-2.79833 -0.83559,-2.38549 -0.80412,-3.5e-4 -1.04838,-0.58262 -1.78644,-0.9059 z m -40.943951,1.87219 c -0.68137,1.24907 -3.75798,-0.62252 -2.44915,0.93607 -0.71661,0.89287 1.16924,0.5353 2.50677,0.21153 1.00286,-0.16588 1.19486,-1.11903 -0.0576,-1.14743 z m -4.81185,0.63412 c -0.0838,0.003 -0.1702,0.0244 -0.28812,0.0603 -1.23896,0.66472 -1.28896,1.7105 -2.42034,2.32511 0.66971,0.46908 1.9335,1.33989 1.55593,2.50628 -1.78442,0.40364 -0.74018,1.79838 0.4322,1.20785 1.32357,-0.18539 1.78049,-1.2757 2.70847,-1.63059 0.89912,-0.72452 2.58609,-0.52066 3.31355,0.21118 1.39645,-0.60897 0.1879,-2.81709 -0.77796,-2.77806 -1.46662,0.0819 -2.87294,-0.0829 -3.68813,-1.14743 -0.3917,-0.11987 -0.24864,-0.78619 -0.83559,-0.7549 z m 32.24228,0.0603 c -0.22484,1.13482 -2.1962,0.7977 -1.98813,2.53646 1.62145,1.31578 -0.0139,0.87349 -0.43221,2.38553 0.0706,1.35418 1.13282,2.45432 0.23052,3.62353 -1.12911,1.31212 0.52199,0.14287 1.29661,0.96629 1.18681,0.29028 2.32078,-0.0139 3.6305,0 0.99241,0.36694 2.82291,0.14287 3.2271,-0.9059 2.10955,-0.15194 1.62437,-0.6728 1.15254,-2.08354 0.34642,-1.35307 -1.49995,-0.7939 -1.35423,-2.35528 -1.37378,-1.0676 -1.45855,0.89244 -1.98813,1.93254 0.38538,1.36544 -2.53676,1.93265 -1.03728,0.84548 0.824,-1.09108 0.7213,-2.76935 -0.89322,-1.6306 -0.8145,0.625 -1.73664,1.13642 -2.27627,2.11376 -1.6511,0.46866 0.6953,-0.78895 0.43221,-1.87219 1.25078,-0.0784 1.54723,-1.52521 2.73728,-1.63059 1.65307,-0.0314 0.36733,-2.62037 -0.69153,-2.29489 -1.01584,0.50536 -1.37992,1.63125 -2.70846,1.60037 0.85408,-0.5969 1.70506,-1.27086 2.21863,-2.0835 0.0324,-0.71211 -0.95265,-1.07463 -1.55592,-1.14747 z m -37.8321,3.71414 c 1.21516,1.17116 -1.32767,1.57929 0.23052,2.38549 -1.15138,1.50375 0.49275,1.36676 1.38305,1.08707 1.70463,0.5408 1.99332,-1.83584 0.14406,-1.63062 -0.99996,-0.32931 -0.38756,-2.09368 -1.75763,-1.84194 z m 55.754081,1.84194 c -1.66469,0.9757 0.69391,1.14537 1.12373,1.93258 0.59836,1.98896 -0.2386,0.51271 -1.41186,-0.0603 -0.83061,-0.91322 -2.64339,-0.97444 -2.79491,0.30213 -0.85114,1.60794 1.22595,1.55877 1.32542,2.68745 1.97971,-0.36018 -0.20892,2.25085 2.21864,1.17768 1.27349,-0.1826 2.19387,-0.74323 2.42033,-2.02315 0.14632,-1.08491 0.22212,-2.34581 0.23052,-3.08001 -1.41368,-0.23487 -1.89029,0.22442 -3.11187,-0.93611 z m -46.677831,0.24149 c -0.31847,1.07132 -2.70045,0.32165 -2.88135,1.63059 -0.62241,-0.0808 -2.97537,0.16135 -2.21864,1.38903 1.35148,1.97126 -1.11557,0.88168 -1.09491,2.08354 -1.00651,0.9196 -1.25928,1.56341 -1.78644,2.77802 -0.66196,0.26449 0.0892,-2.118 0.23052,-3.01962 -1.27729,0.40911 -2.4083,-0.0659 -3.39999,-0.45291 -1.47056,0.24567 -0.90778,1.23165 -2.42033,0 -0.58383,0.96458 -1.46194,1.69631 -2.53559,2.3251 -1.60478,-0.65963 -0.26944,1.87393 -1.81525,2.83845 -0.2516,1.29128 1.48214,2.16627 1.09491,2.71766 0.0799,0.60684 1.29382,1.40237 2.44915,0.93608 0.80463,1.06424 1.62052,1.42279 3.05423,1.35881 1.2395,0.49393 2.64135,-0.10071 3.80338,0.2415 0.51446,1.39843 3.14567,0.52501 1.98813,-1.14747 -0.44317,-1.15387 -0.53274,-2.4317 -2.30508,-2.0835 -0.77353,-0.22616 -3.34837,-1.56644 -1.23898,-1.17768 1.33396,0.14636 2.62385,0.22965 3.97626,0.69451 1.20566,-0.50145 2.60698,0.98041 3.11185,-0.45295 0.63857,0.0174 1.58354,-0.92924 2.42034,-1.38902 1.0837,-1.16883 2.73119,0.36067 4.35083,0 0.19724,-0.68943 1.63994,-1.11359 0.95085,-2.77802 -1.12034,-0.69072 -1.77139,-1.55271 -2.18983,-2.5667 -0.39034,-0.74944 -0.82665,-2.02992 -1.55593,-2.98941 -0.43325,-0.39078 -1.16781,-0.69343 -1.98812,-0.93608 z m 7.75082,2.08354 c -0.28756,0.83014 0.79127,1.88547 1.52711,2.53646 0.88409,0.4717 0.48049,2.84207 2.50678,2.3251 1.52148,-0.12858 2.92874,0.80519 3.88982,-0.42273 1.45008,-0.90301 1.7581,0.91917 3.19829,0.21152 1.29535,-0.19863 2.87257,-0.47448 3.45762,0.69451 1.0804,0.45881 -2.00136,1.19894 0.2017,2.05333 0.41267,0.50812 -1.5118,0.83108 -2.39152,1.17764 -1.23081,0.58513 -2.46133,-0.57164 -3.77457,0 -1.00052,0.82941 -2.72398,0.41323 -3.31354,-0.30178 0.54673,-0.69928 2.4253,0.63374 3.68813,-0.15089 1.28539,-0.5026 3.0637,-0.053 4.03388,-0.9059 0.22306,-1.06121 -1.61876,-0.52407 -2.65085,-0.96629 -0.88805,1.22406 -2.07642,-0.0244 -3.08304,0.48317 -1.18321,0.55425 -4.15761,-1.21539 -3.31354,0.69451 0.75561,0.71319 -0.36622,2.11738 1.09491,2.77805 -0.10346,1.77898 1.67958,1.20263 2.88134,1.63059 0.68352,1.55759 2.53329,0.44867 3.48643,0.69452 0.84459,-0.59067 1.4204,-1.20113 2.47796,-1.63059 0.93762,-0.95915 2.7601,-0.22686 3.34237,-1.14747 -0.0254,-0.93008 1.12375,-2.51774 0,-3.50278 -0.84245,0.57593 -0.14656,-1.80563 -0.89321,-2.29489 -0.76456,-0.91503 -1.91796,-1.55622 -2.65085,-2.56667 -1.68388,-0.98197 -1.24718,0.36723 -0.23051,0.93608 0.28853,1.4566 -1.61846,-1.12223 -2.42033,-0.24149 -1.65756,-0.39856 -2.7095,1.09871 -3.54406,-0.2415 -1.9841,0.52202 -2.73158,-0.61513 -4.00508,-0.90586 -0.49611,-1.10303 -2.23934,-0.84279 -3.51524,-0.93608 z m 33.85583,3.01962 c -1.93128,1.08439 0.898261,1.51277 1.757631,1.63059 1.11038,1.69569 0.0843,0.40085 -1.09491,0.69452 -2.185941,-0.36664 -0.797651,1.50782 0.0576,1.60037 1.52192,0.13347 2.02135,1.0079 3.02541,0 0.31726,0.86328 2.76413,1.50925 2.65085,-0.15089 1.62897,-1.29326 -0.21554,-2.38539 -1.15255,-1.23806 -0.74368,-0.78543 -2.04673,-0.78251 -3.02541,-1.84195 -0.60285,-0.85443 -1.20521,-0.70629 -2.218645,-0.69451 z m -8.21184,0.45292 c -0.71218,0.49023 -2.91114,0.58847 -1.98813,2.08354 0.32426,1.07348 0.81634,1.18137 1.55593,0.93607 1.36003,0.82565 1.86607,-0.1258 2.21864,-1.14742 0.0908,-0.35827 -1.39494,-1.073 -1.78644,-1.87219 z m -3.51524,0.15089 c -0.13744,0.003 -0.28889,0.0422 -0.46101,0.0906 -0.74137,0.72333 -3.33937,-0.14775 -3.54406,1.38899 1.27659,0.19654 0.43769,1.55379 1.41186,2.08354 0.64303,0.43466 2.39072,1.40893 2.59321,0 2.38874,-0.07 0.22853,-1.02096 0.66271,-1.84194 0.43362,-0.79379 0.29938,-1.75541 -0.66271,-1.72119 z m 5.96439,0.0906 c -0.009,1.66296 0.51539,1.57414 0.89322,3.01962 1.0358,0.39346 2.31361,1.47966 2.93897,0.45291 1.50554,-1.3172 -0.46799,-1.44994 -1.18135,-2.53645 0.3537,-1.21016 -1.94041,-0.74341 -2.65084,-0.93608 z m 29.447381,0.39252 c -0.0642,-0.001 -0.14862,0.0244 -0.23051,0.0603 -0.97602,1.09547 -1.76942,1.66774 -2.21865,2.77805 2.16684,2.2222 0.10145,0.61054 -0.23051,2.32514 2.01662,-0.51672 0.40373,1.0906 2.67966,1.17765 1.1925,0.63262 1.6358,-1.61248 1.09491,-2.56671 -2.87662,-0.78825 0.57113,-1.67519 0,-3.23097 -0.58093,0.24707 -0.64576,-0.53324 -1.09491,-0.54355 z m -58.001531,1.23807 c 0.0354,1.49134 -0.47752,1.66335 -1.75763,2.29489 -0.92992,0.98365 -2.89963,0.38723 -4.00507,0 -1.72038,-0.3675 -1.88776,1.8102 -3.31355,1.63059 -1.00408,0.95608 -3.40332,-0.70169 -2.65084,2.02315 0.0573,1.26682 1.08241,2.08431 1.78644,2.83845 0.96751,0.57195 0.74975,2.15968 2.65084,1.4192 0.98471,-0.0906 2.07948,-0.55878 3.54406,-0.48312 1.27751,-0.37347 1.30676,-2.10027 2.85253,-1.14747 0.83354,-0.68855 2.52607,-0.18225 3.91863,-0.48313 2.13888,1.19389 -0.12821,-1.68683 1.84406,-0.69451 1.5983,0.50006 -0.27373,-1.36233 -0.4322,-1.84198 -1.56637,-0.33418 -0.49047,-2.57182 -1.78644,-2.77801 0.12915,2.68375 -0.57273,0.73681 -1.09491,-0.2415 0.36742,-1.49768 -1.12064,-1.489 -1.55592,-2.53645 z m 33.42364,2.53646 c -0.44931,1.0594 -1.59858,1.23472 -2.65085,1.87219 -1.02293,0.64701 -2.94061,-0.79554 -3.54406,0.21117 -0.57096,0.86848 -1.34928,1.32386 -1.55593,2.56667 -0.16197,1.2787 2.05867,1.34202 1.09491,3.01962 0.5672,1.3954 0.37236,2.11786 0.23052,2.77805 1.29397,1.52368 -0.93133,2.30354 -0.66271,0 -1.19789,-0.24219 0.44105,-1.96035 -0.89322,-2.56666 -0.0275,-1.4896 -0.90113,-2.88145 -2.42033,-2.32511 -0.57588,0.63141 -3.2103,0.42713 -1.78643,1.87216 0.64149,0.80735 0.63184,2.29705 2.01694,2.3251 1.00759,-0.43089 2.35655,1.22834 0.66271,1.84198 0.50181,1.00546 1.6893,1.41488 2.39152,2.53649 0.37669,0.7794 1.05005,2.70996 2.01694,1.87215 0.75319,0.0781 1.79251,2.23137 1.26779,2.53649 -0.77964,0.2983 0.91102,2.28611 2.04576,1.87216 0.85135,-0.40218 2.25835,0.3084 3.342361,-0.45295 1.32431,-0.1826 1.80089,-0.98699 2.42033,-2.11372 1.34985,-0.2286 2.14977,-1.02581 3.54406,-1.20786 0.73265,0.19829 2.02622,-0.8691 0.66271,-1.5702 -0.12297,-0.83603 -1.12063,-0.64872 -1.55593,-1.44941 0.54412,-1.54773 -2.23419,0.0484 -1.98813,1.05686 0.0394,1.37362 -1.44643,1.14791 -2.21863,2.02315 -0.62984,0.88105 -1.711961,1.61755 -2.708461,2.08354 -1.60496,0.55975 0.83225,-1.44026 1.38304,-1.84198 0.660551,-1.28915 1.746551,-1.26274 2.449141,-2.08354 0.58774,-1.143 -0.10405,-2.52206 1.52713,-2.80823 1.02453,-0.73665 1.75262,-1.50211 0.23048,-2.08354 1.19201,0.12649 2.96807,-1.15067 1.35424,-2.50628 -0.90472,-1.11129 2.34107,-1.75465 -0.0289,-2.11376 -0.94794,1.45524 -1.38565,0.45393 -2.21863,-0.48312 -1.33906,0.11465 -1.94474,-1.36126 -2.85254,-1.84198 -1.581771,-1.39652 0.60754,-0.44396 1.09491,0 1.17829,0.81599 1.71261,1.54034 2.59321,0.24149 1.16783,-0.42618 -0.93987,-1.61682 -1.44066,-1.87219 -1.62516,0.0969 -1.93158,-1.56389 -3.601691,-1.38902 z m -14.60844,4.10669 c -0.11287,-0.0105 -0.26209,0.007 -0.43221,0.0603 -0.81994,0.46902 -1.66502,1.67499 -2.73728,2.08354 -1.28347,-0.0955 -3.3427,1.31219 -0.80677,1.17765 1.03267,-0.7707 1.75035,1.3824 2.93896,1.14746 0.81208,0.13974 2.01508,2.32019 2.36272,0.7549 -0.30091,-0.63558 -0.0438,-2.35315 -0.89322,-3.08001 -0.1312,-0.65105 0.35783,-2.08458 -0.4322,-2.14393 z m -3.91863,3.98591 c -0.16706,-0.003 -0.33918,0.003 -0.51865,0.0314 -1.341,0.53989 -2.50873,0.65691 -3.74575,0.93611 -1.53241,0.10629 -2.59714,-0.56519 -4.14915,-0.69451 -1.85055,-0.31921 -2.58878,0.76842 -4.12032,0.69451 -1.31673,-0.60806 -3.01918,0.061 -4.35083,0.21118 -0.85314,0.90332 -2.72206,0.0244 -3.37118,0.69451 -0.88238,-0.11988 -4.46359,0.42598 -2.16101,0.69451 1.12229,0.0533 1.13144,2.08124 0.66271,1.87216 -0.94943,-1.23267 -2.04907,0.003 -3.08304,-0.48313 -1.4254,-0.0554 -2.34415,0.32269 -3.34237,0.2415 -1.66636,-0.22164 -2.71853,1.43143 -0.72033,1.63059 -0.68442,1.42547 1.31715,0.15054 1.84406,-0.2415 0.74765,-0.96437 1.7971,-0.54599 1.75762,0.48313 -1.41641,0.15891 -2.57168,0.58363 -3.83219,0.9059 -1.27359,0.91921 -0.18923,1.83361 0.28812,2.77805 -1.10301,0.2063 -0.26136,1.76709 0.46101,2.32511 1.38252,0.66472 2.04557,-0.81213 3.65931,-0.45295 0.84812,-0.68664 2.18483,-0.2171 3.39999,-0.45295 1.06869,-0.30039 2.45664,0.48466 3.34237,0.69451 0.17859,0.70779 4.5571,0.41155 1.75762,0.9059 0.11448,0.41061 2.62474,1.20061 3.31355,0.69452 1.22877,0.10837 1.79791,0.82644 3.08304,0.0314 0.87534,1.28856 -1.94887,1.19621 -2.93897,1.14746 -1.25351,0.0519 -2.08035,-1.10976 -3.02542,-0.69451 -1.16358,-0.45724 -2.32963,-0.57457 -3.37118,-1.17764 -1.24842,0.76678 -2.34776,-0.66298 -3.861,0 -0.81727,0.81331 -3.69333,-0.62622 -3.60169,1.3286 -0.20142,1.74918 0.16117,3.10984 1.32543,3.56317 0.0767,1.2411 0.8826,1.82521 1.98812,2.29489 1.27617,0.66301 2.06707,0.89545 3.54406,1.17768 1.14458,0.50727 2.53174,0.0105 3.54406,-0.48317 0.33834,-0.91778 1.64564,-1.60166 2.44914,-2.08354 1.71588,0.0843 2.0369,-1.28497 3.80338,-1.14742 2.13607,0.67959 2.0243,-1.41349 3.91864,-0.93612 0.21205,-1.09244 0.0781,-2.40678 2.13219,-2.0835 0.37644,-1.12649 0.91383,-1.28212 1.64237,-2.08354 1.28357,-0.16065 2.01308,-2.23464 0.89322,-2.6271 -0.20097,-1.36038 0.43798,-3.57603 1.32542,-2.92901 -0.50598,0.51111 -0.91918,1.89505 0,2.9894 1.08556,0.51571 2.01388,-1.02459 3.88982,-0.45291 1.46247,0.21571 1.71111,-0.86942 2.30507,-0.69451 0.90765,0.54515 3.26816,0.0209 1.98813,-1.14747 -1.09627,-0.69754 -1.02949,-1.3225 -1.75762,-2.29492 1.15663,-1.18367 -0.74857,-1.20315 -1.12372,-2.20433 -0.46914,-0.94507 -1.90033,-0.88976 -2.21864,-1.99293 -0.96433,-0.25265 -1.85594,-0.93971 -3.02541,-0.96629 z m -55.379511,0.0314 c -1.015886,0.10628 -3.17614,0.87356 -1.786437,1.84197 -0.167652,1.75692 -1.32029,1.61338 0,2.86866 0.749904,0.89517 -0.171346,2.14941 0.864403,3.1404 0.764219,1.32073 -0.705344,2.63717 1.123725,2.80824 0.412404,1.32417 0.759776,2.14232 1.786436,0.69451 1.063369,-0.37538 2.734875,-0.20316 3.083045,-1.44942 -0.243934,-0.8008 -2.36941,-1.36153 -0.662712,-2.26471 -0.07314,-1.51946 -0.866915,-2.91173 0.230517,-3.77453 -0.845895,-0.63077 -0.582388,-2.43201 -1.55593,-2.92901 -1.51413,0.41497 -1.562474,-1.16625 -3.08304,-0.93611 z m 11.266069,5.25415 c -0.174169,0.003 -0.400968,0.0279 -0.662708,0.0906 1.176937,0.86868 -1.305487,1.04511 -0.201699,1.84194 -0.06917,1.34191 0.97317,3.52888 -0.518644,2.3251 -1.763493,-0.28714 -2.286835,-0.34081 -2.132198,1.38903 -0.58704,1.50841 2.149343,0.65353 2.881349,0.45295 -0.03171,0.71162 1.985821,2.6611 1.757621,0.93608 0.500081,-0.83081 2.220691,-0.15926 1.988131,0.45295 0.76547,0.34534 2.46392,-0.0105 3.31355,0.24149 1.66226,-0.14392 3.25602,-0.34858 5.15761,-0.24149 1.67982,0.14078 1.0199,-2.26935 0.60509,-3.01962 -1.12043,-0.47877 0.24794,-2.09313 -0.89322,-2.77806 -1.30399,-0.14566 -1.80117,-0.0746 -3.11186,-0.45295 -0.71199,-1.11484 -1.45844,-0.007 -2.7949,-0.69451 -0.91232,-0.65353 -2.00831,0.046 -2.93898,0.45295 -1.856893,0.20072 -1.229956,-1.01807 -2.449142,-0.99647 z m 51.576122,4.95217 c -0.80162,0.70294 -2.91795,0.13102 -3.77456,0.93607 -0.84478,0.42093 0.95414,1.59564 1.61356,1.84198 1.26929,0.115 2.40116,-1.27055 3.11185,-0.45295 1.24985,-0.1934 2.94844,0.17807 1.46948,-1.38903 0.10081,-1.26295 -1.62756,-0.76379 -2.42033,-0.93607 z m 16.596571,0.45295 c -0.85678,0.35363 -1.86924,1.41669 -2.88135,1.87215 -1.2893,0.44114 -2.398151,0.74902 -3.889821,0.45295 -1.3244,-0.22442 -1.31598,1.71558 -0.74914,2.3251 0.25919,0.81467 -0.86913,2.71094 0.86439,3.23101 0.85141,1.10178 1.29727,1.76148 2.420341,2.29489 0.0202,1.41617 2.80948,0.6428 3.77457,0.48316 0.62641,-1.07944 1.73748,-1.36982 2.88134,-1.84197 -0.0841,-0.88597 -0.49917,-1.2886 -0.66271,-2.62706 -1.71678,-0.89228 1.35493,-0.68748 0.89322,-2.26472 -0.33409,-1.21489 0.10451,-3.22494 -1.18135,-3.44239 -1.2868,0.57258 -0.55781,-0.41057 -1.46949,-0.48312 z m -57.252381,3.20079 c -0.0842,0.003 -0.18271,0.0244 -0.28812,0.0603 0.52131,1.21862 -0.58004,1.79859 -1.7,0.69452 -0.23267,1.12286 -0.85201,1.91923 -2.13219,2.08354 -1.53434,0.63565 0.38207,1.30567 0.14406,2.3251 1.65749,0.0732 2.32552,0.0505 2.13219,1.38903 1.55845,0.0798 0.911,1.6638 1.98814,2.38549 -0.04,0.57168 0.9089,1.3867 1.12372,2.53649 0.84644,0.73912 2.22688,-0.63279 2.88135,0.63413 0.26174,0.89279 1.75333,1.9132 2.42033,0.93607 1.12264,-0.6382 2.26006,-0.24707 3.54406,-0.69451 0.15535,-1.13833 2.32361,-0.93723 1.32542,-2.5667 -1.66726,0.41378 -0.91955,-2.17944 -2.27626,-2.32507 -1.1747,0.0523 -3.837,0.0878 -2.82373,-1.14747 -1.78032,-0.47096 0.21648,-0.98172 -1.09491,-1.63059 -0.3638,-1.26685 -1.50296,-1.4269 -1.98813,-2.77805 -0.71727,-0.6527 -0.60288,-2.7353 -1.98813,-1.38903 -0.55232,0.0993 -0.67856,-0.54759 -1.26779,-0.51334 z m 43.07614,1.6608 c -0.41266,1.32846 -2.72933,-0.74048 -3.31354,0.93608 -1.35103,0.1718 -2.48276,0.94172 -2.42034,2.56667 -0.18034,2.03071 0.75159,2.34228 2.39152,2.50627 0.30868,0.50177 3.11681,1.14182 1.95932,1.41924 -2.02703,-0.16448 0.43608,1.40269 0.28812,2.32511 0.77432,1.46085 2.07686,1.24368 3.68813,1.38902 0.0101,1.06725 -2.14239,0.23453 -3.25592,0.93608 -0.24993,-0.97998 -2.06001,-1.16886 -2.21864,-2.08354 -0.18072,-0.90426 -1.93651,-1.71489 -2.85254,-0.69451 0.69689,0.74483 0.85998,1.7758 1.32542,2.98944 0.59607,0.61429 0.98453,2.18453 2.42034,2.56667 0.56328,1.08912 1.04528,1.74827 2.21863,2.3251 0.95839,1.07899 2.57723,-0.0962 3.48644,-0.24149 0.94042,0.69782 1.49007,-1.1552 2.47796,-1.14747 0.45966,-0.79125 -0.81545,-1.89289 -1.09491,-2.77805 -1.29594,-1.71367 1.47422,0.4686 1.75762,-0.30213 -0.12779,-1.19259 -1.91319,-1.32742 -2.18982,-2.26471 -0.38678,-0.86213 2.64606,1.23907 2.21863,-0.21153 -0.53365,-1.00117 -2.50981,-0.63022 -3.31355,-1.38903 -0.28247,-1.21196 -1.2947,-2.0866 -1.12372,-3.50274 0.53066,-0.88234 -0.45356,-2.28144 -0.89322,-3.23101 -1.0794,-0.25752 -0.5047,-1.83431 -1.55594,-2.11371 z m -11.49657,1.17764 c -0.63204,0.66535 -1.68428,1.62153 -2.73728,1.84198 -1.0152,0.0502 -1.57147,1.19419 -2.5644,1.63059 -1.80427,-0.18434 -2.29027,1.02661 -4.23559,0.69451 -0.95597,-0.24428 -2.41879,0.17459 -3.14066,0.93608 -1.54636,1.0019 1.24205,0.82801 1.61355,1.84198 0.99468,0.53393 2.63361,-0.77916 3.60169,0 1.26439,0.46995 2.2629,-0.42406 3.02542,0.69451 0.32641,1.00396 2.13727,1.14914 3.11185,1.38903 1.30514,-0.11186 1.49536,-1.46235 2.65084,-1.60042 0.77888,-0.92942 1.4116,-1.05661 2.42033,-1.84197 1.15384,-0.0965 1.02713,-2.56566 0.69153,-3.50275 -0.0643,-1.63362 -2.52174,-0.75936 -3.54406,-1.38903 -0.6069,-0.2164 -0.17414,-0.81703 -0.89322,-0.69451 z m 18.1525,3.23101 c -1.45924,0.77786 1.91886,1.3532 0.20169,2.3251 -0.57479,1.29842 1.36428,2.06072 1.93051,0.93608 -0.62784,1.86825 2.998131,1.23211 1.411851,0 -0.0415,-1.41551 -1.197011,-1.96659 -2.391511,-2.32511 -0.71948,0.15194 -0.61364,-0.52163 -1.15254,-0.93607 z M 3.8966172,198.5256 c -1.291729,0.14253 -0.265469,2.06643 -1.930504,1.84198 0.07583,1.57574 -1.74056991,1.61306 -1.09490891,2.77805 1.41579291,-0.099 1.01421591,1.51964 2.18982191,2.17411 0.361945,0.87238 0.844153,1.87264 1.786437,2.68749 0.915214,0.55139 0.910098,2.31475 -0.518645,2.3251 -1.171152,0.51097 0.114161,2.2896 1.383048,1.41921 0.53543,0.76152 2.486498,0.78578 2.881349,-0.0314 0.25052,-1.70234 2.0517558,-1.19151 2.4491448,-2.2345 -0.310702,-1.46384 -1.0870308,-2.39699 -0.230517,-3.77452 0.528043,-1.96819 -1.6523288,-1.4713 -2.2186378,-2.3251 -0.668803,-1.05387 -0.860531,-2.18094 -1.527115,-3.01962 -0.274878,-1.2594 -1.867948,-1.09432 -2.679655,-1.63059 v -0.21153 h -0.201698 c -0.108271,-0.007 -0.202012,-0.0104 -0.28812,0 z m 64.1964318,2.95923 c -0.0546,0.002 -0.10545,0.003 -0.17288,0.0314 -0.79611,0.7785 -1.90825,1.00515 -2.67965,1.63059 -0.58596,0.85161 -1.50853,1.5709 -1.75762,2.71767 -0.68723,1.15063 -0.60841,1.5972 -1.75762,1.93254 -0.57632,1.12851 -1.1287,1.65882 -1.75763,2.98941 -1.58473,-0.39239 -1.4608,1.62731 -2.91016,1.63062 -1.04625,0.44455 -1.95339,2.49649 -2.88135,1.17764 -1.15095,-0.22023 -0.77348,2.56688 0.23052,1.63059 0.33112,0.2408 2.23834,0.11953 0.46102,1.20786 1.06238,0.58938 2.25804,-1.38199 2.85253,0.39256 0.88867,0.89565 1.9196,-0.32234 3.11186,0.24149 1.36996,0.65845 2.91304,0.002 3.54406,-0.69451 1.05912,-0.52739 1.61333,-1.15161 2.18982,-2.29493 1.08665,0.96657 1.66712,-0.71744 2.67965,0.21153 0.79971,1.2505 2.50106,-0.60733 3.08304,0 1.37201,-0.17982 2.55396,-0.53241 3.77457,-0.2415 0.88491,-0.0951 2.16241,-2.29677 0.23051,-2.29492 -1.33837,0.0105 -1.64862,-0.97957 -2.67965,-1.41921 0.1458,-0.92531 2.28714,1.14314 2.65083,0.39256 0.39266,-1.26392 1.07809,1.61198 2.21865,1.29842 0.55897,1.48106 1.85515,-0.84439 2.88135,0.18121 0.42486,-0.9941 1.91828,-1.09345 2.44914,-1.87215 0.6298,-0.70616 2.85427,0.30909 2.21864,-1.60042 -0.82372,-0.65088 -0.24498,-1.70638 -1.35423,-2.3251 -1.3163,0.0589 -1.0313,-1.96398 -1.98814,-2.32511 -0.18657,-1.80319 -2.14367,-0.22546 -3.54406,-0.69451 -1.11998,1.26553 -3.46401,-0.13312 -3.97626,0.24149 -1.10234,0.0244 -0.0185,-2.04925 -1.75762,-2.11371 0.34834,1.64494 -0.84592,1.60093 -0.8644,0.27181 -1.36582,0.42775 -2.2793,-0.68316 -3.51524,-0.0314 -0.48675,0.17947 -0.59711,-0.284 -0.97966,-0.27181 z m -7.4915,1.90237 c -1.20403,0.76947 -1.33048,1.79298 -0.66271,2.95922 -0.61124,1.48291 1.19688,0.40145 1.32542,-0.42273 0.73276,-0.10524 0.10932,-2.61866 -0.66271,-2.53649 z m 52.671041,0.45295 c -0.95566,0.41597 -2.53508,1.46025 -0.60508,2.08354 1.13402,0.64464 1.21895,-2.17983 0.60508,-2.08354 z m -54.889681,1.87215 c -0.41394,0.90722 -1.15639,2.31294 -1.98813,0.9059 -1.07943,-0.0955 -1.8837,1.87839 -2.88135,1.17764 -0.2424,-0.98086 -1.52344,-0.91879 -2.70846,-1.38903 -0.93535,0.27844 -2.25389,-0.56923 -1.93051,0.9059 -0.0818,1.37154 -0.17242,2.43808 1.12373,2.56667 0.79125,0.17842 2.6335,1.1407 1.75762,1.63059 1.15023,1.38318 1.95214,-0.20664 3.39999,0 0.42642,-0.69333 1.68688,-2.74955 1.23898,-0.69451 0.72485,-0.22093 2.37389,-1.46189 2.21864,-1.87216 -0.9371,-0.87708 1.83525,-2.69564 -0.23052,-3.231 z m -22.128752,4.8616 c -1.161646,0.72483 -0.680484,2.0528 0.83559,2.08354 1.625022,0.7579 1.461262,-1.24936 0.345759,-1.63063 -0.619319,0.28505 -0.67241,-0.52714 -1.181349,-0.45291 z m 2.016942,3.44235 c -0.165943,0.0139 -0.367439,0.0808 -0.461012,0.0314 0.160403,0.7341 0.188281,1.72859 1.411862,1.63059 1.6944,-0.26484 1.30269,-1.97756 -0.74915,-1.38902 0.0946,-0.24603 -0.0358,-0.28541 -0.2017,-0.27181 z"
       style="fill:#000000;fill-opacity:1;stroke:#d39062;stroke-width:0.461006;stroke-miterlimit:4;stroke-dasharray:none;stroke-opacity:1"
       id="Cisnes" />
  </g>
</svg>
