<?xml version="1.0" encoding="UTF-8" standalone="no"?>
<!-- Created with Inkscape (http://www.inkscape.org/) -->

<svg
   width="210mm"
   height="297mm"
   viewBox="0 0 210 297"
   version="1.1"
   id="svg64"
   inkscape:version="1.1.2 (b8e25be833, 2022-02-05)"
   sodipodi:docname="vector.svg"
   xmlns:inkscape="http://www.inkscape.org/namespaces/inkscape"
   xmlns:sodipodi="http://sodipodi.sourceforge.net/DTD/sodipodi-0.dtd"
   xmlns="http://www.w3.org/2000/svg"
   xmlns:svg="http://www.w3.org/2000/svg">
  <sodipodi:namedview
     id="namedview66"
     pagecolor="#ffffff"
     bordercolor="#666666"
     borderopacity="1.0"
     inkscape:pageshadow="2"
     inkscape:pageopacity="0.0"
     inkscape:pagecheckerboard="0"
     inkscape:document-units="mm"
     showgrid="false"
     inkscape:zoom="0.74029882"
     inkscape:cx="361.34057"
     inkscape:cy="453.87078"
     inkscape:window-width="1920"
     inkscape:window-height="1017"
     inkscape:window-x="-8"
     inkscape:window-y="-8"
     inkscape:window-maximized="1"
     inkscape:current-layer="layer1" />
  <defs
     id="defs61" />
  <g
     inkscape:label="Capa 1"
     inkscape:groupmode="layer"
     id="layer1">
    <path
       id="Peumo"
       style="fill:#000000;fill-opacity:1;fill-rule:evenodd;stroke:#d39062;stroke-width:2.08008;stroke-linecap:butt;stroke-linejoin:miter;stroke-miterlimit:4;stroke-dasharray:none;stroke-opacity:1"
       d="m 164.02894,269.12612 c -3.85451,-0.16824 -3.44298,2.64766 -7.70908,-3.96214 -3.0263,-19.00832 -15.77761,-2.31873 -24.51475,-12.71141 -7.68051,-6.2653 -17.49059,-9.76454 -26.3307,-15.43518 -13.134534,-8.26878 -35.599534,-12.44837 -21.790894,-24.51481 4.96913,-9.51611 -10.41721,-3.77409 -12.71137,-16.34321 -3.75881,-9.4128 -5.20634,-20.04999 -16.34317,-21.79088 -0.43145,-0.86322 -5.00208,-3.40899 -7.26366,-4.53966 -6.28702,-7.48811 -11.69084,-12.05717 -20.882984,-15.43534 -10.791575,-3.89342 -13.263826,-11.15433 -25.1543564,-9.32853 4.079103,-19.33363 -5.458988,-19.66335 6.277657,-48.338719 3.5676224,-8.71642 17.9733754,-13.08061 24.0967734,-30.2158 21.9818,-0.70441 11.85833,-15.85609 17.10739,-24.09012 32.28403,-3.15065 74.621884,1.74184 85.537114,-18.50391 l 16.75832,16.06003 c 0,0 4.42366,4.60176 1.30661,9.43655 -3.11694,4.83478 -1.80733,14.35183 -5.80382,18.60847 -4.26277,5.03652 2.16503,8.8573 2.87554,13.29868 -1.92041,4.34438 -0.78617,8.64881 -0.61227,13.138 -0.12893,4.99893 -2.55228,9.539379 -5.36043,13.500569 -2.97142,3.68981 -2.92612,9.97791 2.2305,13.68296 2.87716,5.1686 2.2157,9.32696 6.1878,13.76347 3.5477,3.93572 5.53863,8.39283 5.79638,13.7325 -0.98145,3.51119 -6.03133,8.41154 -0.66132,11.43923 5.06343,0.76888 12.70662,10.16879 14.54103,11.06738 1.83447,0.89781 2.23521,3.55286 4.04076,6.06105 1.8055,2.5082 0.84151,18.44244 2.39167,22.05898 0.21462,3.63084 -0.65803,10.27948 2.15407,13.29711 2.40082,2.41401 7.11823,4.76136 4.84754,8.7683 0.82988,6.38936 4.91442,11.54962 9.47199,16.7517 4.57357,6.16939 9.70977,11.90607 14.44839,17.75784 -0.003,3.92377 -0.85315,7.85399 -3.64121,10.7298 -3.32379,1.22171 -7.18882,-0.0629 -10.47916,1.5519 -3.32184,1.89938 -6.12453,5.44532 -10.35299,5.09532 -4.11755,0.37579 -4.69098,-5.00853 -8.28272,-5.03605 -4.04396,0.0315 -8.21121,-0.47484 -12.17467,0.44655 z"
       sodipodi:nodetypes="ccccccccccsccccccccccsccsscccccccccc"
       inkscape:label="#path1902" />
  </g>
</svg>
