<?xml version="1.0" encoding="UTF-8" standalone="no"?>
<!-- Created with Inkscape (http://www.inkscape.org/) -->

<svg
   width="210mm"
   height="297mm"
   viewBox="0 0 210 297"
   version="1.1"
   id="svg57"
   inkscape:version="1.1.2 (b8e25be833, 2022-02-05)"
   sodipodi:docname="vector.svg"
   xmlns:inkscape="http://www.inkscape.org/namespaces/inkscape"
   xmlns:sodipodi="http://sodipodi.sourceforge.net/DTD/sodipodi-0.dtd"
   xmlns="http://www.w3.org/2000/svg"
   xmlns:svg="http://www.w3.org/2000/svg">
  <sodipodi:namedview
     id="namedview59"
     pagecolor="#ffffff"
     bordercolor="#666666"
     borderopacity="1.0"
     inkscape:pageshadow="2"
     inkscape:pageopacity="0.0"
     inkscape:pagecheckerboard="0"
     inkscape:document-units="mm"
     showgrid="false"
     inkscape:zoom="0.74029882"
     inkscape:cx="361.34057"
     inkscape:cy="453.87078"
     inkscape:window-width="1920"
     inkscape:window-height="1017"
     inkscape:window-x="-8"
     inkscape:window-y="-8"
     inkscape:window-maximized="1"
     inkscape:current-layer="layer1" />
  <defs
     id="defs54" />
  <g
     inkscape:label="Capa 1"
     inkscape:groupmode="layer"
     id="layer1">
    <path
       inkscape:connector-curvature="0"
       id="Tirua"
       style="fill:#000000;fill-opacity:1;fill-rule:evenodd;stroke:#d39062;stroke-width:0.846292;stroke-linecap:butt;stroke-linejoin:miter;stroke-miterlimit:4;stroke-dasharray:none;stroke-opacity:1"
       d="m 167.96374,141.01587 c -0.16525,-0.16613 -0.25531,-0.30778 -0.42319,-0.47566 -0.96976,-0.97002 -3.11195,-2.51362 -4.3901,-3.96708 -0.63916,-0.72659 -1.09121,-1.45223 -1.00499,-2.06271 0.0874,-0.61118 0.66364,-1.09156 2.00999,-1.42819 1.21711,-0.30428 1.96758,-0.70736 2.38019,-1.1107 0.4127,-0.40396 0.48265,-0.83152 0.52899,-1.2694 0.0437,-0.43806 0.0437,-0.86038 0.15826,-1.26949 0.11892,-0.40921 0.37423,-0.79568 1.005,-1.1108 0.66976,-0.33488 1.71148,-0.43106 2.85619,-0.42319 1.14472,0 2.40241,0.11979 3.49099,0.15914 1.08859,0.035 2.03762,0.0262 2.53881,-0.2116 0.25094,-0.12154 0.36636,-0.33226 0.36985,-0.58233 0.003,-0.25007 -0.11454,-0.58757 -0.42319,-1.0049 -1.14682,-1.5506 -1.43448,-2.53619 -1.21659,-3.22658 0.21772,-0.69075 0.94711,-1.05125 1.85129,-1.32222 0.90418,-0.27105 1.99705,-0.44767 2.9091,-0.74059 0.91205,-0.29291 1.6097,-0.72659 1.85129,-1.48108 0.16351,-0.51063 0.07,-1.03752 -0.21159,-1.5868 -0.27805,-0.5491 -0.72135,-1.09951 -1.1108,-1.63978 -0.38996,-0.54036 -0.72834,-1.05037 -0.89911,-1.53381 -0.1705,-0.48352 -0.167,-0.94344 0.2116,-1.32239 0.89133,-0.89133 1.28558,-1.56564 1.6926,-2.43309 0.40745,-0.86737 0.82277,-1.9097 1.69259,-3.64951 0.26493,-0.52899 0.63217,-1.56328 1.26949,-2.5389 0.63654,-0.97579 1.54815,-1.90777 2.8033,-2.22158 1.65596,-0.43543 2.54545,-0.94327 2.962,-1.53399 0.41707,-0.59019 0.34799,-1.293967 0.0525,-2.168507 -0.29554,-0.87471 -0.78955,-1.88653 -1.2694,-3.17359 -0.47916,-1.28724 -0.92167,-2.82647 -1.0579,-4.65459 -0.12153,-0.67326 -0.80441,-1.59204 -1.69259,-2.59188 -0.88827,-0.99984 -1.98,-2.10084 -3.0149,-3.17359 -1.0349,-1.07276 -1.97755,-2.12252 -2.53889,-3.01481 -0.28067,-0.4468 -0.48265,-0.81054 -0.52899,-1.16369 -0.0437,-0.35325 0.0525,-0.66977 0.31739,-0.89929 0.29292,-1.17121 0.23346,-2.0607 -0.10579,-2.7504 -0.33926,-0.68987 -0.98445,-1.18363 -1.7455,-1.63961 -1.52209,-0.91231 -3.65257,-1.60236 -5.60669,-3.06779 -1.50766,-1.13082 -2.59581,-2.81957 -3.86119,-4.23149 -0.63304,-0.70649 -1.31478,-1.3397 -2.11579,-1.79839 -0.80091,-0.45904 -1.73447,-0.74059 -2.8562,-0.74059 -1.16456,0 -4.17517,0.34275 -7.08768,0.52899 -1.45634,0.0936 -2.86118,0.17575 -4.01989,0.10493 -1.1588,-0.07 -2.06149,-0.26319 -2.4331,-0.63479 -1.23538,-1.23539 -1.80801,-2.14123 -2.06288,-2.80339 -0.25532,-0.66189 -0.19236,-1.07258 -0.1058,-1.481 0.0874,-0.40833 0.15738,-0.79567 -0.0525,-1.26949 -0.20985,-0.4739 -0.70562,-1.04478 -1.85121,-1.9041 -1.08841,-0.81666 -2.3189,-1.70921 -3.33229,-2.6975 -1.01339,-0.98847 -1.8345,-2.10696 -2.1157,-3.43818 -0.40745,-1.92972 -1.1045,-3.83942 -1.95709,-5.3421 -0.8525,-1.50286 -1.82314,-2.55682 -2.75049,-2.75049 -1.14673,-0.23958 -1.63375,-0.64179 -1.7454,-1.16361 -0.11192,-0.52199 0.15913,-1.16115 0.52899,-1.95717 0.36898,-0.79568 0.81403,-1.7406 1.11079,-2.80322 0.29641,-1.06287 0.43631,-2.27483 0.1058,-3.59687 2.33079,-3.19082 3.62459,-5.18078 4.28438,-6.55869 0.66015,-1.378 0.6584,-2.14491 0.4232,-2.75049 -0.23521,-0.60594 -0.70387,-1.08317 -1.0579,-1.95709 -0.35324,-0.87349 -0.56833,-2.15452 -0.26493,-4.3372 0,-0.78518 -0.0437,-2.40127 -0.31739,-4.28439 -0.27718,-1.88311 -0.82016,-4.0205 -1.7455,-5.8711804 -0.49314,-0.98619 -1.0161,-1.70816 -1.63969,-2.2744 -0.62342,-0.56658 -1.33953,-0.95463 -2.11579,-1.2165 -1.55235,-0.52374 -3.41754,-0.58145 -5.7124,-0.58145 -1.75528,0 -3.98806,-0.23346 -6.18857,-0.36986 -2.20043,-0.13727 -4.38477,-0.17837 -6.0298,0.36986 -2.27632,0.75895 -3.5688,1.43413 -4.76039,2.32729 -1.19167,0.89308 -2.25,2.03832 -4.01989,3.8083004 -0.22558,0.22559 -0.56921,0.33838 -0.68725,0.63479 -0.40745,1.01872 -0.86562,1.80696 -1.37529,2.32729 -0.50975,0.52025 -1.07494,0.80354 -1.69259,0.84639 -0.6173,0.0437 -1.27867,-0.16788 -2.0099,-0.58145 -0.73097,-0.41445 -1.5297,-1.0537 -2.380198,-1.90419 -1.52008,-1.52009 -1.79288,-1.1052 -6.08278,-5.3951004 -0.43018,-0.43018 -0.98042,-1.12224 -2.0628,-1.69259 -1.08237,-0.57009 -2.69785,-1.005 -5.39509,-1.005 -2.82218,0 -4.21181,-0.15563 -5.13068,0.2116 -0.91878,0.36811 -1.36786,1.25471 -2.3273,3.17359 -0.40395,0.80879 -0.97806,1.35431 -1.58679,1.7455 -0.60856,0.39084 -1.27386,0.58145 -1.90419,0.7405804 -1.26049,0.31827 -2.39445,0.39871 -2.64461,0.8992 -0.46778,0.93522 -0.83414,2.51179 -1.58679,3.7554 -0.37598,0.62167 -0.863,1.16439 -1.481,1.481 -0.61818,0.31651 -1.35404,0.4022 -2.32738,0.15825 -1.02004,-0.25531 -1.72504,-0.54298 -2.1686,-0.89919 -0.44331,-0.35587 -0.6243,-0.74758 -0.74059,-1.2694 -0.23258,-1.04321 -0.0525,-2.50541 -0.47565,-4.6017004 -0.4232,-2.11744 -0.80092,-3.81861 -1.37529,-4.81329 -0.28679,-0.49751 -0.61643,-0.7843 -1.05781,-0.89919 -0.44155,-0.11454 -0.96661,-0.0175 -1.63969,0.31739 -0.64878,0.32439 -1.41534,0.54298 -2.11579,0.84639 4.38826,43.0778404 -3.45733,72.4007004 -13.06458,99.8097474 -5.61875,-2.09542 -9.02746,0.7231 -13.75227,3.43818 -4.03676,2.99985 -10.44306,19.48381 -8.56877,22.32095 1.0412,1.0411 2.99286,3.49955 5.13069,7.77519 2.39514,4.79004 3.43808,4.49555 3.43808,8.56869 -0.12153,6.51025 -2.00815,10.17786 4.3372,12.90597 5.65128,2.82559 0.73709,15.00838 -0.8992,17.19044 -2.13467,7.54507 -8.69214,7.96511 -2.5388,18.88277 2.3628,2.36289 -3.68921,5.63275 -5.18358,8.62176 -1.36742,2.73467 -7.50852,7.76585 -7.72239,8.6215 6.15334,28.7519 1.7747,20.50533 0.84639,37.8188 0.60768,3.64461 10.93585,30.78619 5.97689,38.50631 2.25866,4.32128 6.05716,2.1157 7.24638,2.1157 2.22823,0 3.14422,-6.03863 7.08769,-9.89116 1.23014,-1.20173 6.80614,-0.89911 8.56877,-0.89911 3.49615,0 4.86619,-9.08456 4.86619,-14.17537 0,-2.42715 4.25159,-0.26319 11.58358,-2.64469 10.5395,-3.42323 13.01255,0.28854 10.89606,-4.70758 -1.43046,-3.37653 -1.38647,-10.74673 5.7124,-12.74719 0.45292,-0.12853 -2.34557,-9.45258 12.11257,-11.10757 7.104208,-0.81316 6.745988,-12.58858 8.833178,-12.58858 0.91468,0 3.02189,5.10891 7.19349,4.2314 12.34821,-2.59738 15.08864,4.26725 19.51765,10.15557 5.43811,7.22986 16.84664,14.8621 16.71426,29.67304 -0.0953,10.63674 -5.31106,16.95752 9.78528,25.33594 5.30949,2.94678 18.78449,-3.8257 18.67135,-5.924 -0.27455,-5.0971 -2.1672,-8.49917 -3.38519,-15.33906 -9.45179,-6.24768 -8.53231,-13.68135 -4.443,-16.82006 1.79752,-1.38018 4.6546,-2.55349 4.6546,-4.28447 0,-4.89207 -8.3598,-10.42531 -13.54067,-12.16547 -5.40672,-1.8158 -14.8691,-6.24393 -0.26494,-19.35896 -12.50533,-27.01733 -7.92663,-15.10184 -16.87296,-18.03647 -3.1297,-1.02677 -9.63331,-2.54073 -9.89107,-4.60178 -0.44767,-3.57712 0.80616,-8.7607 4.86619,-15.60347 9.07363,-15.29255 15.81463,-22.28117 18.72425,-23.22024 1.62256,-0.52374 8.41969,-9.01085 13.54067,-15.81498 0.0437,-0.0612 0.0612,-0.0997 0.1058,-0.15913 z" />
  </g>
</svg>
