<?xml version="1.0" encoding="UTF-8" standalone="no"?>
<!-- Created with Inkscape (http://www.inkscape.org/) -->

<svg
   width="210mm"
   height="297mm"
   viewBox="0 0 210 297"
   version="1.1"
   id="svg64"
   inkscape:version="1.1.2 (b8e25be833, 2022-02-05)"
   sodipodi:docname="vector.svg"
   xmlns:inkscape="http://www.inkscape.org/namespaces/inkscape"
   xmlns:sodipodi="http://sodipodi.sourceforge.net/DTD/sodipodi-0.dtd"
   xmlns="http://www.w3.org/2000/svg"
   xmlns:svg="http://www.w3.org/2000/svg">
  <sodipodi:namedview
     id="namedview66"
     pagecolor="#ffffff"
     bordercolor="#666666"
     borderopacity="1.0"
     inkscape:pageshadow="2"
     inkscape:pageopacity="0.0"
     inkscape:pagecheckerboard="0"
     inkscape:document-units="mm"
     showgrid="false"
     inkscape:zoom="0.74029882"
     inkscape:cx="361.34057"
     inkscape:cy="561.93525"
     inkscape:window-width="1920"
     inkscape:window-height="1017"
     inkscape:window-x="-8"
     inkscape:window-y="-8"
     inkscape:window-maximized="1"
     inkscape:current-layer="layer1" />
  <defs
     id="defs61" />
  <g
     inkscape:label="Capa 1"
     inkscape:groupmode="layer"
     id="layer1">
    <path
       style="fill:#000000;fill-opacity:1;fill-rule:evenodd;stroke:#d39062;stroke-width:1.40493;stroke-linecap:butt;stroke-linejoin:miter;stroke-miterlimit:4;stroke-dasharray:none;stroke-opacity:1"
       d="m 209.21047,67.0325 c -0.62626,-0.0981 -1.31275,-0.0701 -1.93173,-0.17512 -3.29001,-0.59404 -6.48433,-1.40312 -9.6589,-2.19526 -3.17457,-0.79158 -6.32336,-1.60109 -9.57106,-2.19512 -3.24757,-0.59403 -6.58872,-0.9653 -10.09799,-0.9653 -3.21184,0 -6.42466,0.78877 -9.57106,1.58049 -3.14627,0.79158 -6.27125,1.58049 -9.48322,1.58049 -4.58232,0 -9.92721,-0.78877 -14.04928,-1.58049 -4.12208,-0.79158 -6.97512,-1.58049 -6.49779,-1.58049 4.19941,0 5.37753,-0.2704 4.74161,-0.61505 -0.63606,-0.34325 -3.11643,-0.78597 -6.2344,-1.31696 -6.23565,-1.06337 -15.07931,-2.37318 -17.12255,-3.24882 -1.37861,0 -34.123649,-14.59414 -35.913449,-15.19083 -0.36987,-0.12609 -0.76636,-0.0981 -1.22869,-0.17513 0.12609,0.14571 0.39088,0.26479 0.43851,0.43852 -1.07037,3.32126 -5.65031,5.06861 -8.42951,7.46379 -2.12436,2.05235 -3.83753,4.26779 -5.44422,6.40994 -1.21608,1.62238 -3.28469,4.05105 -4.82945,6.84903 -0.77196,1.39962 -1.39822,2.86424 -1.75604,4.39037 -0.35866,1.52613 -0.47354,3.11152 -0.0841,4.65391 0.0981,0.4203 1.01013,3.50549 1.75618,6.93672 0.74534,3.43138 1.40424,7.20278 0.9653,8.95644 -1.14183,4.56984 -1.44908,7.27171 -0.79018,9.48336 0.65848,2.21165 2.25957,3.92776 4.74161,6.40994 2.303,2.30286 5.97423,4.57937 7.72718,6.32224 0.87704,0.87143 1.27773,1.59772 0.79018,2.10727 -0.12609,0.1261 -0.90086,0.0841 -1.14183,0.17513 0.23537,0.12609 0.46934,0.22557 0.70191,0.35166 5.41032,2.9116 10.02401,5.62663 11.94187,6.58563 1.38561,0.6921 2.14608,1.18946 2.3708,1.75618 0.22417,0.56601 -0.0841,1.22729 -0.61505,2.19511 -0.53238,0.96811 -1.30855,2.22916 -2.19525,4.12699 -0.88685,1.89782 -1.88311,4.45958 -2.72204,7.81488 -0.48335,1.93313 -0.79158,6.75586 -1.2287,11.06385 -0.21856,2.15407 -0.48055,4.1543 -0.79017,5.61977 -0.30963,1.46546 -0.67389,2.36086 -1.14183,2.28296 -6.39089,-1.06478 -11.51288,-1.05637 -16.24454,-0.79018 -4.7318,0.2662 -9.09346,0.79018 -13.87373,0.79018 -3.11195,0 -5.32107,0.37407 -7.02457,1.14183 -1.7035,0.76776 -2.8571,1.93943 -3.68805,3.42451 -1.66161,2.97016 -2.12618,7.36306 -3.51221,12.90773 -1.98707,7.94826 -3.07398,9.13479 -4.74161,15.80546 -2.10517,8.42055 -4.28642,12.49177 -6.32224,20.63491 -1.14463,4.58105 -1.38841,7.44264 -1.22869,9.74675 0.15831,2.30398 0.71872,4.01476 1.22869,6.05871 0.18774,0.75375 0.75095,4.35115 0.61505,7.72704 -0.0701,1.68809 -0.28861,3.25933 -0.87844,4.47822 -0.58983,1.21889 -1.49167,2.01971 -2.89773,2.01971 -3.60847,0 -5.32626,0.39369 -5.97086,1.05357 -0.64447,0.65988 -0.27741,1.63078 0.17512,2.63433 0.45253,1.00313 1.01995,2.04381 0.70191,3.07328 -0.31663,1.02975 -1.43702,2.0714 -4.39037,2.80988 -3.72937,0.93168 -8.8800804,0.63466 -13.2591104,1.05357 -0.23397,0.028 -0.38388,0.14851 -0.61503996,0.17513 0.39227996,1.22028 0.81398996,2.43903 1.31694996,3.33666 0.6865,1.22449 1.48551,2.09313 2.37081,2.80989 1.77075,1.43366 3.92776,2.03876 6.3222404,2.10741 4.78896,0.1401 10.57657,-1.58049 16.50793,-1.58049 4.09728,0 8.88596,0.45673 13.6102,0.70191 4.72438,0.24518 9.41135,0.28161 13.34681,-0.70191 4.91912,-1.23009 8.75371,-1.66763 12.82003,-1.75618 4.06631,-0.0841 8.3037,0.17513 14.04928,0.17513 12.14487,0 24.295629,0 36.440369,0 9.14641,0 13.91856,-0.43011 17.56163,0.35166 1.0928,0.23397 2.01607,0.90926 2.98544,1.40494 l 6.40994,-25.55207 11.06385,-7.90273 14.22497,-58.65591 -9.48336,-3.16098 31.69876,-47.50422 11.06385,-1.58049 z"
       id="Yerbas_Buenas"
       inkscape:label="#path2869" />
  </g>
</svg>
