<?xml version="1.0" encoding="UTF-8" standalone="no"?>
<!-- Created with Inkscape (http://www.inkscape.org/) -->

<svg
   width="210mm"
   height="297mm"
   viewBox="0 0 210 297"
   version="1.1"
   id="svg64"
   inkscape:version="1.1.2 (b8e25be833, 2022-02-05)"
   sodipodi:docname="vector.svg"
   xmlns:inkscape="http://www.inkscape.org/namespaces/inkscape"
   xmlns:sodipodi="http://sodipodi.sourceforge.net/DTD/sodipodi-0.dtd"
   xmlns="http://www.w3.org/2000/svg"
   xmlns:svg="http://www.w3.org/2000/svg">
  <sodipodi:namedview
     id="namedview66"
     pagecolor="#ffffff"
     bordercolor="#666666"
     borderopacity="1.0"
     inkscape:pageshadow="2"
     inkscape:pageopacity="0.0"
     inkscape:pagecheckerboard="0"
     inkscape:document-units="mm"
     showgrid="false"
     inkscape:zoom="0.74029882"
     inkscape:cx="361.34057"
     inkscape:cy="453.87078"
     inkscape:window-width="1920"
     inkscape:window-height="1017"
     inkscape:window-x="-8"
     inkscape:window-y="-8"
     inkscape:window-maximized="1"
     inkscape:current-layer="layer1" />
  <defs
     id="defs61" />
  <g
     inkscape:label="Capa 1"
     inkscape:groupmode="layer"
     id="layer1">
    <path
       id="Pichidegua"
       style="fill:#000000;fill-opacity:1;fill-rule:evenodd;stroke:#d39062;stroke-width:1.21485;stroke-linecap:butt;stroke-linejoin:miter;stroke-miterlimit:4;stroke-dasharray:none;stroke-opacity:1"
       d="m 118.85535,115.13857 c -3.37027,-1.20014 -5.28018,-6.21954 -7.15403,-5.63935 -5.55918,1.72092 -3.51752,-3.85295 -5.89602,-6.79899 -3.27689,-1.2478 -4.64172,-5.858816 -7.248232,-7.645116 -9.09411,-6.23248 -10.46291,-9.97643 -9.47212,-12.7456 -7.38368,-2.87771 -8.63237,-6.63176 -12.64222,-9.9914 -10.95571,-4.11973 -28.86102,-2.06207 -44.2478,-2.24298 -8.06139,-1.55617 -14.09941,-4.50826 -14.48775,-9.51673 -0.23665,-3.05209 -2.29424,-6.84435 -6.11659,-10.26423 -0.208732,2.85007 -0.57624,5.60665 -0.85155,8.10648 -0.295512,2.68358 0.609024,3.97757 -0.223517,6.92737 -7.7788166,2.35831 -9.3188596,9.6059 -5.8740106,8.66591 3.099152,-0.84576 7.2647736,5.39039 3.888587,8.30732 -2.519477,-0.58497 -8.43882499,-1.15065 -7.88915199,1.30372 0.52949799,2.36419 -0.03765,6.88118 1.45762499,8.70136 3.410689,2.15666 8.5155496,3.23604 7.839297,3.75865 0.9338946,-0.72179 -0.09211,13.983296 -0.516458,19.605556 l 2.9337636,1.79089 c 0.790849,0.11663 -0.333806,0.23326 -3.0999316,0.34988 l -0.594147,30.10865 c 4.2890246,-1.76021 8.9630336,-1.74828 13.5259836,-1.8796 4.47535,-1.03796 8.47094,-6.29603 12.72677,-0.53078 -0.86146,8.42523 1.76979,12.24072 1.59082,16.96901 -0.6171,5.48249 1.98752,6.6808 5.83312,9.5451 1.05345,6.43818 -0.48175,8.08416 6.36341,9.54511 2.49682,0.62445 1.50042,9.36428 2.6514,11.66621 0.49974,5.99731 6.32418,7.88159 9.01481,12.19655 1.1431,0.8577 9.08323,-0.52987 10.60568,-0.52987 9.15359,1.85242 14.90966,9.95633 22.80214,3.712 6.17923,2.94429 10.076422,7.07273 16.438752,9.5451 3.07206,2.19706 4.62427,7.62547 13.2571,11.66622 1.53013,1.3389 5.99642,0.52987 7.95425,0.52987 4.46828,0.38385 6.65202,5.84734 10.24886,5.27927 10.82845,-1.71026 13.78155,3.08424 18.38642,11.1595 2.19531,-3.54532 7.23491,-6.7888 11.13589,-10.07534 1.67803,-4.62415 -1.36102,-9.67192 -2.65134,-14.31766 3.10903,-6.26958 -1.01804,-10.71172 3.18167,-15.90844 3.48894,-2.59221 7.29056,-4.72288 11.66622,-4.24232 3.02381,0 5.74274,1.59088 9.5451,1.59088 5.62089,-1.21024 9.30846,-3.78565 9.90912,-7.63952 0.39304,-2.52444 5.62649,-8.185 6.52965,-10.92037 -1.76747,-11.10164 -9.21479,-1.35423 -14.31765,-7.42399 -4.48577,-3.65919 -10.2152,-5.70289 -15.37822,-9.01478 -7.67111,-4.8293 -20.79156,-7.27036 -12.72677,-14.31766 2.90222,-5.5578 -6.08409,-2.20422 -7.424,-9.5451 -2.19522,-5.49747 -3.04071,-11.71002 -9.54501,-12.72678 -0.25162,-0.50415 -2.92142,-1.99099 -4.24232,-2.65134 -3.67186,-4.37337 -6.82791,-7.04189 -12.19652,-9.01488 -6.30273,-2.27392 -7.74662,-6.51458 -14.69118,-5.44824 z"
       sodipodi:nodetypes="cscscccscscscscsccccccccccccccccsccccccsccccccccc"
       inkscape:label="#path1883" />
  </g>
</svg>
