<?xml version="1.0" encoding="UTF-8" standalone="no"?>
<!-- Created with Inkscape (http://www.inkscape.org/) -->

<svg
   width="210mm"
   height="297mm"
   viewBox="0 0 210 297"
   version="1.1"
   id="svg1283"
   inkscape:version="1.1.2 (b8e25be833, 2022-02-05)"
   sodipodi:docname="vector.svg"
   xmlns:inkscape="http://www.inkscape.org/namespaces/inkscape"
   xmlns:sodipodi="http://sodipodi.sourceforge.net/DTD/sodipodi-0.dtd"
   xmlns="http://www.w3.org/2000/svg"
   xmlns:svg="http://www.w3.org/2000/svg">
  <sodipodi:namedview
     id="namedview1285"
     pagecolor="#ffffff"
     bordercolor="#666666"
     borderopacity="1.0"
     inkscape:pageshadow="2"
     inkscape:pageopacity="0.0"
     inkscape:pagecheckerboard="0"
     inkscape:document-units="mm"
     showgrid="false"
     inkscape:zoom="0.74029882"
     inkscape:cx="361.34057"
     inkscape:cy="561.93525"
     inkscape:window-width="1920"
     inkscape:window-height="1017"
     inkscape:window-x="-8"
     inkscape:window-y="-8"
     inkscape:window-maximized="1"
     inkscape:current-layer="layer1" />
  <defs
     id="defs1280" />
  <g
     inkscape:label="Capa 1"
     inkscape:groupmode="layer"
     id="layer1">
    <path
       d="m 148.53406,73.269095 -0.35702,0.40807 h -1.98929 l -0.35708,0.40808 h -0.81612 l -0.76511,0.76509 -0.40807,0.40807 -0.76511,0.7651 h -0.40807 l -0.76512,0.7651 v 0.40807 l -0.40807,0.40807 v 0.7651 l -0.76512,0.76509 h -0.40807 l -1.58124,1.58119 h -0.35702 l -0.40807,0.40807 v 0.35713 l -0.76511,0.8161 v 0.35713 l -0.40807,0.40807 v 1.58124 l -0.40808,0.40807 -0.7651,0.7651 v 0.40807 h -0.40808 l -0.76511,0.7651 v 0.40807 l -0.40808,0.7651 -0.76512,0.40807 h -0.40807 v 1.17311 l -0.35708,0.35714 v 1.17316 h -0.81613 l -0.7651,-0.35713 h -0.40808 l -0.40807,-0.40807 h -0.35702 l -0.40808,0.40807 h -1.17317 l -0.40807,0.35713 h -0.35708 l -0.40807,0.40808 h -1.17318 l -0.40807,0.40807 -0.35708,-0.40807 h -1.17298 l -0.40807,-0.40808 h -0.40807 l -0.35708,-0.35713 h -0.40807 l -0.81612,0.35713 v 0.40808 l -0.35708,0.40807 v 0.35713 l -0.81611,0.81609 h -0.76505 l -0.40807,-0.40807 -0.76511,0.40807 h -0.76511 l -0.81612,0.7651 v 0.40807 l 0.40807,0.7651 v 0.40807 l 0.40807,0.40807 v 0.35713 l 1.17318,1.17312 v 1.58118 l -0.40808,0.40808 0.76511,0.765085 v 1.17312 l 0.81613,0.76509 v 0.40808 l 0.76511,0.81609 v 1.17317 l -0.76511,0.76509 h -0.40807 l -0.40807,-0.40807 h -0.35703 l -0.81613,-0.7651 h -0.35702 l -0.81612,-0.76509 v -0.40808 l -0.35708,-0.40807 h -3.51952 l -0.81613,-0.40807 h -0.40807 l -0.35702,-0.35713 v -0.40808 l -0.40808,-0.40807 h -1.17317 l -0.40807,-0.76509 -0.35708,-0.408075 H 107.83 l -0.40808,-0.76509 h -0.7651 l -0.40807,-0.40807 h -0.76511 l -0.40807,-0.35714 h -1.58123 l -0.35708,-0.40807 -0.40807,0.40807 h -0.40808 l -0.76512,-0.40807 h -1.17316 l -0.816126,-0.40807 -0.35703,0.40807 h -0.81612 l -0.35703,0.40807 h -0.81612 l -0.35707,0.35714 h -0.81612 l -0.76512,0.81609 h -0.40807 l -0.76512,0.35713 h -0.76511 l -0.40807,0.408065 h -0.40807 l -0.40807,0.40807 h -0.35703 l -0.81613,0.35713 h -0.7651 l -0.40808,0.40808 h -0.35707 l -0.40808,0.40807 h -1.93828 l -0.40807,0.35713 h -1.58123 l -0.35708,0.40807 h -0.40807 l -0.40808,0.40808 h -0.35707 l -0.40808,0.40807 v 0.35713 h -1.17317 v 0.40807 l -0.81612,0.40808 h -0.35702 l -0.40808,0.35713 v 0.40807 l -0.40807,0.40807 -0.35708,0.35714 h -0.40807 l -0.76512,0.81609 h -0.81611 l -0.76513,0.76509 h -0.40807 l -0.76512,0.7651 h -0.7651 l -0.40808,0.40807 -0.40807,-0.40807 -0.35702,0.40807 h -1.22419 l -0.35708,0.40807 v 0.35713 l -0.40807,-0.35713 h -0.76512 l -0.40807,0.35713 -0.40808,-0.35713 h -0.76512 l -0.40807,-0.40807 -0.35703,0.40807 -0.40807,-0.40807 v -0.40807 h -0.40807 l -0.35708,-0.35713 -0.40807,-0.40808 h -0.76475 v -0.40807 h -0.81611 l -0.35708,0.40807 h -1.17316 v 0.40808 h -0.81613 l -0.40807,0.35713 h -0.35708 l -0.40807,-0.35713 h -2.7544 l -0.35708,-0.40808 -0.81611,0.40808 h -0.35708 l -0.81612,-0.81615 -0.35702,0.40807 h -0.408075 l -1.173164,-1.17316 v -0.40808 h -0.765122 l -0.408073,-0.35713 h -1.581236 l -0.408073,-0.40807 h -0.357077 l 0.357077,-0.40807 -0.357077,-0.35714 h -0.816118 l -0.765118,-0.81609 h -0.764993 l -0.816129,-0.76509 h -0.357077 l -0.408073,-0.40808 h -3.11146 l -0.408073,0.40808 h -0.816118 l -0.357023,0.40807 h -0.408073 l -0.408073,0.35713 h -2.346342 l -0.357077,0.40807 h -0.408073 l -0.408073,0.40808 h -0.357077 l -0.408073,-0.40808 h -2.346342 l -0.408073,0.40808 -0.357077,-0.81609 h -0.408073 l -0.408073,0.40807 h -1.173179 v 0.40807 h -0.408073 l -0.357077,0.35713 v 1.17317 h -1.173163 l -0.408073,0.40807 -0.408073,-0.40807 h -0.357077 l -0.408073,0.40807 v 1.17317 l -0.408072,0.40808 h -0.765107 v 0.35713 l -0.408073,0.40807 h -0.357077 v 1.17311 h -0.408073 l -0.408072,-0.40807 h -1.173174 l -0.765123,0.81609 v 0.35713 h -1.173163 l -0.408073,0.40808 v 0.40807 h -0.408073 l -0.357077,-0.40807 v -0.40808 l -0.816129,0.81609 -0.765107,-0.40807 h -0.408073 v 0.40807 l -0.765117,-0.40807 -0.408073,0.40807 h -0.357023 l -0.408073,0.35714 v 0.40807 l -0.408072,0.40807 -0.357078,-0.40807 -0.408072,0.40807 h -1.17318 l -0.765117,0.7651 0.357077,0.40807 v 0.40807 h -0.357077 l -0.408073,0.35713 h -1.173174 l -0.408073,0.40808 h -0.765122 l -0.408073,0.40807 H 9.8949629 9.4868899 l -0.765117,0.7651 v 0.40807 l -0.408073,0.35713 v 0.40807 l -0.408073,0.7651 h -0.765117 l -0.408073,0.40807 0.408073,0.40807 h 0.408072 l -0.408072,0.35714 h -0.764587 l -0.408072,0.40807 -0.408073,-0.40807 h -0.765107 v -0.7651 h -2.754399 v 0.7651 l 0.408073,0.40807 v 0.40807 l -0.408073,0.35713 h 0.408073 l 0.765123,0.40807 v 0.40808 l 0.408073,0.35713 h 0.357023 v 1.22416 h 0.408072 l 0.81613,0.7651 h 0.357077 l 0.408073,-0.40807 1.173179,1.17316 -0.765107,3.16238 1.530224,0.76509 -5.457818,19.58647 5.100757,1.93826 h 0.357078 l -0.765118,3.16238 -2.754415,10.5583 -2.754399,-0.35714 -1.17317898,4.69257 H 2.4484099 l 0.357077,0.35713 v 0.40807 l 0.408073,0.7651 v 0.81615 l 0.408073,0.35713 v 0.40807 l 1.581236,1.58124 0.357077,0.40807 h 0.408073 l 0.765117,0.7651 h 0.408073 l 0.765117,0.7651 h 0.408073 l 0.765107,0.40807 h 0.816129 l 0.3570771,0.40807 h 0.408073 l 0.408073,0.76515 v 0.76504 l 0.357077,0.40807 h 3.570528 0.357077 l -2.346353,9.79321 -1.938286,-0.7651 0.357077,1.17317 v 0.35713 h 0.408073 l 0.408073,0.40808 h 1.173179 v 0.76509 l -0.816118,0.81609 0.408072,0.35713 h 0.408073 l 0.357077,0.40808 h 0.816113 l 0.408073,-0.40808 0.357077,0.40808 v 0.40807 l 0.408073,0.40807 h 0.408073 l 0.357077,0.35713 v 0.40808 l 0.408073,0.40807 h 0.408072 l 0.765107,0.7651 v 0.76509 l 0.408073,-0.35713 0.765106,0.35713 h 0.408073 l 1.17318,1.17312 0.357023,0.40807 0.408072,0.76509 v 0.40808 l 0.765107,-0.40808 v 1.58119 h 0.408073 l 0.408072,0.40807 v 1.17317 l 0.357078,0.35713 v 1.58119 l 0.816113,0.40807 v 0.40808 l 0.408072,0.35713 h 0.765107 l 0.408073,-0.7651 h 3.111476 l 0.408073,0.40807 0.357077,0.35714 0.816129,-0.7651 h 0.357023 l 0.816119,-0.81614 v -0.35714 l 1.173174,-1.17311 h 2.346358 l 0.408073,0.76504 0.357077,-0.40807 h 0.408073 l 0.765117,-0.7651 h 0.408073 l 0.408073,-0.40807 h 0.357077 l 0.408073,-0.35713 h 0.408073 l 0.765117,-0.40807 h 0.408073 l 0.357077,0.40807 h 0.408073 l 0.408073,0.35713 0.357077,0.40807 h 0.408073 l 0.765117,0.40808 h 0.408073 l 0.408073,0.35713 0.408072,0.40807 h 0.765101 l 0.408073,0.40807 0.765118,-0.40807 0.408072,0.40807 h 1.938303 l 0.408072,-0.40807 0.357023,-0.40807 h 1.581236 l 0.765123,-0.7651 h 0.408073 l 0.408073,-0.40807 0.357023,0.40807 h 2.754415 l 0.408073,0.40807 h 1.938293 1.17318 l 0.40808,0.35713 h 0.40807 l 0.35708,0.40808 h 0.40807 l 1.17316,1.17317 h 0.76512 l 0.81612,-0.40808 0.40807,0.40808 v 0.40807 l 0.35708,0.40807 h 1.58123 l 0.40808,0.35713 v 0.40808 l 0.76512,0.40807 h 0.76511 l 0.81612,0.76509 v 0.40808 h 1.17317 l 0.76512,0.76515 h 0.40807 l 1.17318,1.17311 h 0.35707 l 0.40808,0.40807 h 1.17214 l 0.40807,-0.40807 h 1.58124 l 0.35702,-0.40807 h 1.17318 l 1.17317,1.17317 v 0.40807 l 0.81612,0.7651 h 0.35708 l 0.40807,0.40807 0.40808,0.40807 h 0.35702 l 0.81612,0.7651 v 0.40807 l 0.76512,0.76515 h 0.81611 l 0.35708,-0.40807 h 0.40807 l 0.76512,-0.35713 h 1.17317 l 0.81612,-0.8161 h 1.17318 l 0.76511,-0.76509 h 1.17317 l 0.76511,-0.40807 h 0.40807 l 0.40808,-0.35714 h 0.7651 l 0.81613,-0.40807 h 0.35703 l 0.40807,-0.40807 h 0.76512 l 0.40807,-0.35713 v -0.40808 l 0.76512,-0.76509 0.40807,-0.40807 h 1.17318 l 0.76511,-0.76515 v -0.8161 h 1.58123 l 0.408066,0.40808 h 1.17317 l 0.35707,-0.40808 h 1.58124 l 0.40807,0.40808 v 1.58118 l 0.76511,0.7651 h 0.40807 v 0.7651 l 0.76511,0.81609 h 1.17318 l 0.40807,0.35713 h 0.40807 l 0.35708,0.81609 h 1.17317 l 1.17317,1.17311 h 1.58123 l 0.40808,0.35714 v 0.40807 l 0.40807,0.40807 v 0.40807 h 0.76511 l 0.40807,0.35714 v 0.81609 l 1.17316,1.17317 h 0.35708 v 0.35713 l 0.40807,0.81609 -0.76512,0.76509 0.76512,0.40808 v 2.34628 h 0.40807 v 0.35713 h 0.35708 l 0.81612,0.40807 v 1.58119 l 0.35702,0.40807 h 0.40808 l 0.40807,0.35714 0.7651,0.40807 v 0.40807 l 0.40808,0.35713 1.17316,-0.35713 0.35708,-0.40807 0.40807,0.40807 h 1.17317 l 0.81612,-0.81614 h 0.35703 l 0.40807,-0.35714 h 0.76511 v -1.98926 l 0.40807,-0.40807 v -1.53019 h 0.40807 l 0.35708,-0.81615 v -0.76509 l -0.35708,-0.40807 v -0.35714 l 0.35708,-0.81609 1.17317,-1.17311 v -0.7651 h -0.35708 v -0.40807 l 0.35708,-0.35713 v -0.40807 l 0.40807,-0.40808 h 0.40808 l 0.35707,-0.40807 h 0.40808 l 0.40807,-0.35713 h 1.17317 l 0.76511,0.35713 v 0.40807 h 4.33565 l 0.35702,0.40808 h 0.81613 l 0.76511,-0.8161 h 0.40807 l 0.35703,-0.35713 v -0.81609 l 0.40807,-0.35713 v -0.81609 l 0.40807,-1.17317 0.76512,-1.17317 -0.76512,-2.34628 -0.40807,-0.35713 0.76512,-0.81609 h 0.81612 l 0.35707,0.40807 h 0.81612 l 0.76512,0.40807 h 1.17316 l 0.40807,-0.40807 h 0.40808 l 13.31298,-9.02811 1.17317,1.17311 h 0.35707 v 0.40808 l 0.40808,0.40807 v 0.35713 l 0.40807,0.40807 h 2.75441 l 1.17318,1.17312 h 5.04974 l 0.40808,0.40807 h 0.40807 l 0.35702,0.35713 h 0.40808 l 0.81612,0.40808 h 0.76511 l 0.40807,0.40807 h 1.17318 v 0.35713 h 0.35702 l 0.40807,0.40807 v 0.7651 l 1.17317,1.22416 h 2.34635 l 0.76512,-0.40807 0.40808,-0.40807 0.40807,-0.7651 0.76512,-0.81609 0.40807,-0.7651 0.40808,-0.40807 h 1.17318 l 0.35702,-0.35713 1.17317,-0.40807 h 0.81612 l 0.76512,-0.40808 h 0.40807 l 1.17318,-0.35713 h 1.17318 l 0.35702,-0.40807 h 0.40808 v -1.17317 h -0.76511 v -0.40807 l -0.40807,-0.35713 v -0.40807 l -0.40808,-0.40808 -0.35707,-0.35713 -0.40808,-0.40807 v -0.7651 l 0.40808,-0.40807 -0.40808,-0.40807 h -0.40807 v -0.7651 h -0.35708 v -1.98926 h -0.40807 l -0.40807,-0.35713 v -0.40807 l -0.35708,-0.7651 0.76512,-0.40807 h 0.40807 l 0.35708,-0.40807 h 4.7437 l 0.35702,0.40807 h 0.40808 l 0.40807,-0.40807 h 0.76512 l 0.40807,-0.35714 h 0.76512 l 0.40808,0.35714 0.35702,-0.35714 0.40807,-0.40807 0.40807,-0.40807 0.35703,-0.7651 h 1.58123 l 0.40808,-0.40807 h 0.35707 v -0.35713 l 0.81612,-0.40807 h 0.35707 l 0.81613,-0.7651 h 2.75441 l 0.35702,-0.40807 h 1.58124 l 0.40807,0.40807 h 1.53023 l 1.17318,0.35713 0.81612,0.40807 0.35707,-0.40807 v -0.76509 l -0.35707,-0.40808 h -1.17317 v -0.35713 l -0.40807,-0.40807 0.40807,-0.40807 v -2.34629 l -0.40807,-0.40807 v -0.35713 l -0.40807,-0.40807 v -1.17312 l -0.35708,-0.40807 h -1.17318 l -0.40807,-0.35713 -0.40808,-0.40807 -0.35707,-0.40808 v -0.35713 l 0.35707,-0.40807 v -0.40807 l -0.35707,-0.35714 h -1.17317 v -0.81609 l -0.40807,-0.35713 -0.40808,-0.40807 h -0.35702 v -0.81609 l 0.35702,-0.35713 h 0.40808 l 1.17317,-1.17317 v -0.81609 l -0.40807,-0.35714 v -0.40807 l -0.76512,-0.76509 v -0.81615 l 0.40807,-0.76509 h -0.40807 l -0.40807,-0.40808 h -0.35703 l -0.40807,-0.35713 v -0.40807 l 0.40807,-0.40807 h 0.76511 v -1.93821 l -0.40807,-0.40808 h -0.7651 l -0.40808,0.40808 h -0.35702 l -0.40807,0.40807 h -1.98954 l -0.35708,-0.40807 h -0.81611 l -0.35708,0.40807 h -1.17316 l -0.40807,0.35713 h -0.40807 l -0.35703,-0.35713 h -0.40807 l -1.17318,-1.22411 v -0.35713 l -0.40807,-0.40808 h -0.35708 l -0.40807,-0.40807 h -0.40807 l -0.35703,0.40807 h -1.58123 l -0.40807,-0.40807 h -1.58117 l -0.76511,0.40807 -0.40807,-0.40807 h -0.35708 l -0.40807,-0.35713 h -1.17317 l -1.17318,1.17317 h -0.40808 l -0.35702,0.35713 h -0.81613 l -1.17316,1.22411 h -0.40808 l -0.35707,0.35713 -0.40808,0.40807 v 0.40808 h -0.40807 l -0.35708,0.35713 h -0.40807 l -1.17317,1.17317 h -0.40807 l -0.35703,-0.35713 h -0.81613 l -0.7651,0.76504 h -1.9383 l -0.40807,0.40807 h -0.40808 l -0.35702,0.35713 h -0.81613 l -0.40807,-0.35713 v -0.40807 l -0.35702,-0.40808 h -0.40808 v -0.35713 l -0.7651,-0.40807 h -0.40808 l -0.40807,-0.40807 v -0.7651 l -0.76511,-0.76509 v -0.40808 l -1.17317,-1.17317 h -0.76512 l -0.40807,-0.40807 h -0.76511 l -0.81613,-0.76509 v -0.40808 l 0.40807,-0.40807 v -0.35713 l 0.40807,-0.40807 v -1.17312 l -0.40807,-0.40807 v -0.35713 l -0.40807,-0.40808 -0.35702,-0.40807 h -0.40808 l -0.40807,-0.35713 h -0.35702 l -0.40808,-0.40807 v -0.76515 l 0.40808,-0.81609 -0.40808,-0.35713 v -0.40808 h -0.40807 l -0.40807,-0.40807 -0.35702,-0.40807 -0.40808,-0.35713 v -1.58119 l -0.40807,-0.40807 v -0.35714 l -0.76512,-0.81614 h -0.40807 v -0.35713 l -0.35702,-0.81609 v -0.35714 l -0.40808,-0.40807 h -0.7651 l -0.81613,-0.40807 h -1.53022 l -0.40808,-0.35713 h -0.40807 l -0.35708,-0.40808 -0.40807,-0.40807 v -1.53019 l -0.40807,-0.40807 v -1.17312 l -0.35708,-0.81614 v -3.87648 l -0.40807,-0.40807 v -0.40807 l -0.81612,-0.7651 -0.35702,-0.40807 v -0.35713 l -0.40807,-0.40807 v -0.40808 l -1.58124,-1.58118 v -0.35714 h -0.35702 l -0.81594,-0.81603 h -0.76512 l -0.7651,-0.35713 h -0.40808 v -0.40808 l -1.17316,-1.17317 v -0.40807 l -0.76512,-0.76509 h -0.40808 l -0.76511,-0.7651 h -1.22416 l -0.35708,-0.40807 h -0.40807 l -1.17318,-1.17317 v -2.34628 l -0.40807,-0.40808 h -1.17318 v 1.17312 h -0.76511 v 0.40807 l 0.40807,0.40807 v 0.35713 h -1.98929 l -0.35708,-0.35713 h -0.40807 l -0.40807,0.35713 v 0.40808 h -4.28464 l -0.40807,0.40807 v -0.40807 h -1.58124 l -0.35708,-0.40808 0.35708,-0.35713 v -0.40807 l 0.81612,-0.7651 v -0.40807 l 0.35708,-0.40807 h 0.40807 l 0.40807,-0.40807 h 0.35702 l 0.81613,-0.7651 h 0.35703 l 1.22418,-1.17311 v -0.40808 l 0.35708,-0.35713 h 0.40807 l 0.40807,-0.40807 v -1.17317 l -0.40807,-0.40807 0.40807,-0.35713 v -0.40808 l -0.40807,-0.40807 v -0.35713 l 0.76512,-0.81609 v -0.35713 l 0.40808,-0.40808 0.40807,-0.40807 v -0.76509 l 0.76512,-0.8161 h 0.40807 v -1.17316 h 0.35702 l 0.81613,-0.7651 v -1.58119 h 0.35703 v -1.17317 l 0.81612,-0.76509 0.35703,-0.76504 v -0.81615 l 0.81611,-0.76509 v -0.7651 l 0.35708,-0.40807 v -1.17317 l 0.40807,-0.40807 v -1.17312 l 0.40807,-0.765085 v -5.10064 l -0.40807,-0.40808 v -0.35713 l 0.40807,-0.40807 v -1.17311 l -0.40807,-0.40808 v -0.40807 l 0.40807,-0.35713 v -1.58119 l 0.35708,-0.40807 -0.35708,-0.35713 v -2.75436 l 0.35708,-0.40807 v -0.35713 l 0.81612,-0.81609 v -0.35713 l 0.40807,-0.81615 v -0.40807 l 0.76512,-0.7651 0.40807,-0.40807 0.76513,-0.7651 v -0.40807 l 0.40807,-0.35713 v -0.40807 l 0.35708,-0.40808 v -0.35713 l 1.17317,-1.17317 h 0.40808 l 1.17317,-1.17317 v -0.40807 l 0.40807,-0.40807 h 0.35703 l 0.40807,-0.35713 v -0.40807 l 0.76511,-0.7651 v -0.81609 z"
       style="fill:#000000;fill-opacity:1;fill-rule:evenodd;stroke:#d38d5f;stroke-width:0.716929;stroke-linecap:butt;stroke-linejoin:miter;stroke-miterlimit:4;stroke-dasharray:none;stroke-opacity:1"
       id="Cunco" />
  </g>
</svg>
