<?xml version="1.0" encoding="UTF-8" standalone="no"?>
<!-- Created with Inkscape (http://www.inkscape.org/) -->

<svg
   width="210mm"
   height="297mm"
   viewBox="0 0 210 297"
   version="1.1"
   id="svg1283"
   inkscape:version="1.1.2 (b8e25be833, 2022-02-05)"
   sodipodi:docname="vector.svg"
   xmlns:inkscape="http://www.inkscape.org/namespaces/inkscape"
   xmlns:sodipodi="http://sodipodi.sourceforge.net/DTD/sodipodi-0.dtd"
   xmlns="http://www.w3.org/2000/svg"
   xmlns:svg="http://www.w3.org/2000/svg">
  <sodipodi:namedview
     id="namedview1285"
     pagecolor="#ffffff"
     bordercolor="#666666"
     borderopacity="1.0"
     inkscape:pageshadow="2"
     inkscape:pageopacity="0.0"
     inkscape:pagecheckerboard="0"
     inkscape:document-units="mm"
     showgrid="false"
     inkscape:zoom="0.52347032"
     inkscape:cx="155.69173"
     inkscape:cy="611.30496"
     inkscape:window-width="1920"
     inkscape:window-height="1017"
     inkscape:window-x="-8"
     inkscape:window-y="-8"
     inkscape:window-maximized="1"
     inkscape:current-layer="layer1" />
  <defs
     id="defs1280" />
  <g
     inkscape:label="Capa 1"
     inkscape:groupmode="layer"
     id="layer1">
    <path
       d="m 208.80533,175.71045 c 0.34906,-1.37144 0.68367,-2.56209 0.85318,-3.83925 0.089,-0.67217 0.12737,-1.37558 0.0851,-2.13294 -0.0441,-0.75736 -0.13971,-1.5833 -0.36978,-2.50264 -0.16307,-0.65162 -0.17717,-1.32908 -0.11371,-2.01918 0.0635,-0.69006 0.19701,-1.38162 0.31292,-2.07605 0.11592,-0.69442 0.20451,-1.38298 0.19922,-2.04761 -0.004,-0.66463 -0.0978,-1.30467 -0.39799,-1.90539 -0.80919,-1.61838 -1.4308,-2.8245 -1.84853,-4.18056 -0.41782,-1.35606 -0.6541,-2.86165 -0.6541,-5.11902 0,-1.19964 0.1569,-3.35898 -0.0851,-5.28967 -0.1212,-0.96534 -0.33672,-1.86814 -0.71095,-2.58795 -0.18732,-0.36009 -0.43677,-0.66508 -0.711,-0.91008 -0.27414,-0.24505 -0.58926,-0.41738 -0.96693,-0.51187 -1.40828,-0.35215 -2.7784,-0.95737 -4.03833,-1.70635 -1.25994,-0.74899 -2.39228,-1.6529 -3.38425,-2.64486 -0.58219,-0.58217 -1.59537,-1.85867 -2.73015,-3.1283 -0.56739,-0.63479 -1.17181,-1.27924 -1.76323,-1.82007 -0.59141,-0.54087 -1.16698,-0.98165 -1.70634,-1.25133 -3.54324,-1.77163 -6.27155,-2.52432 -9.92523,-4.35117 -1.64646,-0.82325 -3.30173,-1.67202 -4.9484,-2.44578 -1.64667,-0.77375 -3.28995,-1.45526 -4.97683,-1.87696 -1.00886,-0.2521 -1.60608,-0.60663 -1.99074,-1.02383 -0.38468,-0.41738 -0.56135,-0.90752 -0.68254,-1.45037 -0.1212,-0.54286 -0.20816,-1.13397 -0.42659,-1.76321 -0.21843,-0.62928 -0.57492,-1.28594 -1.25131,-1.96234 -0.28983,-0.28956 -2.48009,-1.82239 -4.66401,-3.21358 -1.09196,-0.69561 -2.1622,-1.368 -3.01454,-1.82011 -0.85234,-0.4521 -1.48376,-0.67763 -1.62102,-0.54034 -0.6832,0.68319 -1.30104,0.97663 -1.90543,1.05226 -0.60438,0.0758 -1.18099,-0.074 -1.76322,-0.25607 -0.58224,-0.18158 -1.17492,-0.4231 -1.79165,-0.51191 -0.61674,-0.089 -1.25441,-0.0397 -1.9623,0.31292 -0.78703,0.39358 -2.10119,1.59185 -3.32737,2.70171 -1.22619,1.10986 -2.3641,2.14806 -2.87235,2.27512 -1.04093,0.26048 -2.35117,0.13663 -3.66864,0.0851 -0.65873,-0.0265 -1.32157,-0.0441 -1.96229,0.0264 -0.64073,0.0705 -1.2555,0.22962 -1.8201,0.51192 -0.49125,0.24549 -0.9176,0.67141 -1.3082,1.16596 -0.39058,0.4946 -0.74514,1.04979 -1.10913,1.56418 -0.364,0.51438 -0.72616,0.9746 -1.13756,1.27976 -0.41138,0.30499 -0.86068,0.44603 -1.39351,0.31292 -1.32369,-0.33099 -3.53465,-1.0069 -5.77313,-1.42199 -1.11925,-0.20758 -2.23209,-0.3473 -3.27049,-0.34113 -1.03841,0.004 -2.00741,0.16484 -2.7586,0.54035 -1.31068,0.65533 -2.16193,1.04115 -2.95766,1.5357 -0.79573,0.49459 -1.52999,1.075 -2.61639,2.16141 -0.70912,0.7091 -1.34702,1.16456 -1.9623,1.42195 -0.61527,0.25739 -1.20596,0.33099 -1.84854,0.28427 -1.28514,-0.0934 -2.7419,-0.65643 -4.86308,-1.08068 -1.37784,-0.27546 -3.57875,-0.96354 -5.801567,-1.39352 -1.1114,-0.21508 -2.21131,-0.36714 -3.24205,-0.36978 -1.03074,-0.003 -1.97468,0.16263 -2.73015,0.54034 -1.77501,0.88751 -3.1439,1.61142 -4.46493,2.21827 -1.32104,0.60681 -2.5881,1.07359 -4.20898,1.4788 -0.92354,0.23095 -2.57383,0.26312 -4.09523,0.45502 -0.7607,0.0961 -1.5109,0.23579 -2.10449,0.45506 -0.5936,0.21904 -1.03587,0.53602 -1.25132,0.96688 -0.37379,0.74767 -0.81347,1.2212 -1.3082,1.53575 -0.49473,0.31468 -1.05709,0.4663 -1.70634,0.51187 -1.29852,0.0912 -2.9154,-0.19921 -5.03372,-0.19921 -1.05013,0 -1.92561,0.056 -2.64483,0.17056 -0.71921,0.11459 -1.29534,0.29089 -1.79166,0.56877 -0.49632,0.27767 -0.89831,0.64837 -1.27976,1.13759 -0.38146,0.48921 -0.73452,1.09932 -1.10912,1.84853 -0.45169,0.90338 -1.31275,2.67998 -2.24669,4.26584 -0.46697,0.79297 -0.9551,1.53006 -1.42195,2.10452 -0.46686,0.57445 -0.92192,0.98412 -1.3082,1.08068 -0.25743,0.0643 -1.77221,-0.6578 -3.32737,-1.33662 -1.55517,-0.67887 -3.12764,-1.33697 -3.46957,-1.16601 -0.87263,0.43633 -1.73901,1.36888 -2.64483,2.1898 -0.45292,0.41032 -0.93354,0.80011 -1.42196,1.08068 -0.48841,0.28075 -0.993651,0.45502 -1.535708,0.45502 -0.777229,0 -1.554731,0.11018 -2.303564,0.28427 -0.748819,0.17453 -1.472759,0.42179 -2.132929,0.6541 -1.320326,0.46497 -2.3819,0.9385 -2.986101,0.9385 -1.176329,0 -2.423616,-0.31557 -3.839274,-0.62567 -1.415653,-0.30984 -3.022003,-0.62567 -4.863081,-0.62567 -0.775056,0 -1.461595,0.19701 -2.132929,0.42664 -0.671334,0.22962 -1.301251,0.50142 -1.962298,0.65409 -0.661033,0.1525 -1.360305,0.17409 -2.104484,-0.0568 -0.744187,-0.23095 -1.553436,-0.72872 -2.474199,-1.64946 -0.468943,-0.46894 -1.01948,-0.94705 -1.649468,-1.39352 -0.629993,-0.44646 -1.325637,-0.84141 -2.076052,-1.16601 -0.750415,-0.32438 -1.558659,-0.57921 -2.388882,-0.68252 -0.830219,-0.10313 -1.690108,-0.0754 -2.559513,0.14236 -0.910292,0.22742 -1.557477,0.49269 -2.0760519,0.76785 -0.518574,0.27502 -0.913892,0.57163 -1.336637,0.82475 -0.422754,0.25298 -0.856029,0.46427 -1.478828,0.62566 -0.622809,0.16131 -1.44078,0.25607 -2.559518,0.25607 -0.655493,0 -1.434829,0.31337 -2.218246,0.76785 -0.480054,0.27855 -0.889635,0.6838 -1.33663801,1.05226 0.60158701,0.0516 1.20804901,0.0996 1.73478101,0.25607 0.707941,0.21023 1.320146,0.52386 1.820103,1.02383 0.536204,0.5362 1.294059,0.89694 2.104484,1.13754 0.81043,0.24064 1.694229,0.38388 2.531081,0.45501 1.6737219,0.14192 3.1483759,0.0648 3.4411259,0.28428 0.326409,0.24461 1.11389,1.15107 2.047611,2.16137 0.933721,1.0103 2.002079,2.11297 2.900784,2.78704 0.425839,0.31953 1.322895,0.59569 2.417327,0.8247 1.094422,0.22918 2.405427,0.41782 3.668642,0.59724 1.263203,0.17938 2.480503,0.34113 3.412686,0.51192 0.932174,0.17056 1.576561,0.3376 1.677899,0.54034 0.336987,0.67397 0.69884,1.23203 1.109126,1.70631 0.410281,0.47432 0.861643,0.86503 1.365074,1.22291 1.006862,0.71567 2.226947,1.29832 3.72552,2.04762 0.611922,0.30587 1.204928,0.79341 1.820099,1.36504 0.615179,0.57164 1.229164,1.23719 1.848539,1.82011 0.61938,0.58292 1.252466,1.08214 1.87698,1.42195 0.624515,0.3398 1.246389,0.49891 1.876976,0.34113 0.679218,-0.16969 1.402916,-0.2477 2.16137,-0.22742 0.758449,0.022 1.560373,0.1331 2.360443,0.34113 0.80007,0.20802 1.61323,0.51614 2.41732,0.91007 0.8041,0.39402 1.58995,0.87253 2.36044,1.45038 0.46076,0.34553 1.1822,0.64625 1.99074,0.91007 0.80853,0.264 1.71986,0.51157 2.61639,0.73943 0.89653,0.22786 1.7779,0.44492 2.50264,0.68252 0.72473,0.23756 1.29942,0.47467 1.59259,0.76785 0.49152,0.49151 0.90364,1.17932 1.30819,1.90543 0.40456,0.72607 0.78841,1.49551 1.19444,2.1898 0.40605,0.69425 0.84068,1.31027 1.33664,1.70635 0.248,0.1979 0.50925,0.35303 0.79629,0.42664 0.28705,0.0736 0.60132,0.056 0.93849,-0.0265 1.15186,0.2878 2.66929,1.35606 4.15211,2.27513 0.74141,0.45951 1.4657,0.88513 2.13293,1.16601 0.66723,0.28075 1.27478,0.40636 1.76322,0.28427 1.43671,-0.3592 2.68578,-0.96534 3.72552,-1.33662 0.51987,-0.18555 0.98009,-0.30939 1.39352,-0.31292 0.41341,-0.003 0.77851,0.12429 1.08068,0.42663 0.92379,0.92378 1.59176,1.38272 2.10449,1.5926 0.51273,0.20979 0.87477,0.16572 1.19444,0.0569 0.31966,-0.10842 0.59388,-0.28119 0.93849,-0.31293 0.34461,-0.0309 0.74909,0.0714 1.33663,0.51192 0.6887,0.51654 1.38379,0.89478 2.07606,1.16601 0.69226,0.27105 1.38959,0.43677 2.13293,0.54034 1.48666,0.20671 3.11465,0.14236 5.09059,0.14236 1.76196,0 3.33435,-0.25695 4.83464,-0.62567 1.500287,-0.36889 2.928037,-0.83863 4.464927,-1.22286 1.2034,-0.30103 2.09864,-0.26841 2.81547,-0.0569 0.71683,0.21155 1.26556,0.60495 1.79167,1.08069 0.5261,0.47568 1.01823,1.01611 1.64946,1.50727 0.63123,0.49111 1.41358,0.93639 2.44576,1.19444 2.05166,0.51293 3.69443,0.97142 5.40342,1.30819 1.70899,0.33672 3.47231,0.54034 5.74469,0.54034 1.73188,0 3.43363,0.022 5.09059,-0.0569 1.65697,-0.0771 3.27435,-0.25695 4.83465,-0.56877 3.45306,-0.69064 5.09261,-0.95323 8.67391,-1.84858 1.30455,-0.32615 3.27096,-0.25827 5.31811,-0.22742 1.02357,0.0132 2.07273,0.0176 3.07142,-0.0264 0.99869,-0.0463 1.92515,-0.16131 2.75859,-0.36977 2.30526,-0.57631 3.32159,-0.785 4.09522,-0.5972 0.77363,0.18775 1.30994,0.78336 2.73015,1.84853 0.92871,0.69654 2.4615,2.02911 4.1521,2.98608 0.84531,0.47851 1.7388,0.85935 2.61639,1.02383 0.4388,0.0824 0.85267,0.10049 1.27976,0.0568 0.42712,-0.0441 0.8491,-0.14015 1.25133,-0.34113 0.52173,-0.26091 2.39409,-0.8076 4.12365,-1.39351 0.86479,-0.29309 1.68759,-0.5853 2.30357,-0.88161 0.61599,-0.29617 1.02381,-0.57701 1.02381,-0.82475 0,-1.26518 0.0598,-2.14832 0.17065,-2.78699 0.11084,-0.63867 0.26823,-1.05023 0.5119,-1.36509 0.48732,-0.62973 1.26659,-0.89686 2.41733,-2.04762 0.96012,-0.96014 1.67992,-1.40776 2.50263,-1.84854 0.82272,-0.44078 1.74238,-0.88019 3.07142,-1.87696 0.7809,-0.58569 1.67314,-1.71631 2.6164,-2.75861 0.47162,-0.52113 0.95308,-1.02921 1.45039,-1.42195 0.49731,-0.39269 0.99422,-0.69367 1.50727,-0.79632 1.57238,-0.31424 2.93894,-0.62179 4.37962,-0.85313 1.44068,-0.23139 2.95502,-0.36978 4.91995,-0.36978 0.50364,0 0.99829,0.11239 1.47884,0.31292 0.48054,0.20054 0.97019,0.47459 1.42195,0.82475 0.90346,0.70029 1.72032,1.6506 2.47416,2.64482 1.25244,1.65174 2.10213,3.12464 2.75861,4.0668 z"
       style="fill:#000000;fill-opacity:1;fill-rule:evenodd;stroke:#d39062;stroke-width:0.455025;stroke-linecap:butt;stroke-linejoin:miter;stroke-miterlimit:4;stroke-dasharray:none;stroke-opacity:1"
       id="El_Carmen"
       inkscape:connector-curvature="0" />
  </g>
</svg>
