<?xml version="1.0" encoding="UTF-8" standalone="no"?>
<!-- Created with Inkscape (http://www.inkscape.org/) -->

<svg
   width="210mm"
   height="297mm"
   viewBox="0 0 210 297"
   version="1.1"
   id="svg1283"
   inkscape:version="1.1.2 (b8e25be833, 2022-02-05)"
   sodipodi:docname="vector.svg"
   xmlns:inkscape="http://www.inkscape.org/namespaces/inkscape"
   xmlns:sodipodi="http://sodipodi.sourceforge.net/DTD/sodipodi-0.dtd"
   xmlns="http://www.w3.org/2000/svg"
   xmlns:svg="http://www.w3.org/2000/svg">
  <sodipodi:namedview
     id="namedview1285"
     pagecolor="#ffffff"
     bordercolor="#666666"
     borderopacity="1.0"
     inkscape:pageshadow="2"
     inkscape:pageopacity="0.0"
     inkscape:pagecheckerboard="0"
     inkscape:document-units="mm"
     showgrid="false"
     inkscape:zoom="0.74029882"
     inkscape:cx="361.34057"
     inkscape:cy="561.93525"
     inkscape:window-width="1920"
     inkscape:window-height="1017"
     inkscape:window-x="-8"
     inkscape:window-y="-8"
     inkscape:window-maximized="1"
     inkscape:current-layer="layer1" />
  <defs
     id="defs1280" />
  <g
     inkscape:label="Capa 1"
     inkscape:groupmode="layer"
     id="layer1">
    <path
       d="m 115.846,76.147105 c -0.15234,1.82633 -4.36637,3.67423 -6.13325,2.09967 -1.52558,-0.54394 -5.06324,-2.42708 -6.92828,-0.39559 -3.07093,0.57129 -2.93303,2.74102 -5.85083,3.52105 -0.76751,1.39381 -3.8173,3.10399 -5.22466,4.3159 -0.79359,1.54259 -3.0886,2.75828 -5.50701,3.52095 -1.04042,1.62685 -2.70334,3.61878 -4.33754,6.4768 -7.4854,12.322565 -15.61153,24.231965 -23.6028,36.228805 -1.35202,4.17461 -4.80364,7.72774 -6.97581,11.65964 -2.0216,3.12198 -4.05285,6.23776 -6.08572,9.35239 -3.45735,-1.26483 -4.30877,2.72524 -7.37946,1.31785 -2.21706,-1.31564 -3.25363,-2.56679 -6.65823,-2.22644 -3.15114,-1.10965 -3.99637,-0.41347 -6.974373,0 -1.300254,1.81276 -4.375918,0.62389 -5.367813,3.7342 -2.1585,1.20676 -1.724763,4.98641 -3.494346,5.91993 -1.505812,0.73331 -3.080873,3.75809 -4.561823,2.06611 -1.7379679,0.77224 -5.2167529,2.58921 -6.5658449,0.54604 -1.674746,0.49658 -5.825127,1.46725 -1.817274,3.40731 1.915635,0.62284 5.04463,0.64599 6.133286,2.61236 1.425968,1.19223 4.3225349,2.07915 5.2246009,3.52083 2.295483,0.16834 4.259009,2.15985 6.249858,2.61236 3.059736,0.18306 5.125757,-0.62705 6.01664,-2.61236 3.071149,-0.39453 3.509399,-2.39057 6.019669,-2.61224 0.89891,-1.90388 4.00037,-1.46105 6.36342,-2.61236 2.79307,0.68176 3.08326,2.71273 4.99443,3.52095 2.1715,0.61126 2.39587,3.17049 3.52093,4.82869 1.4536,1.44516 3.7554,2.04212 6.59679,2.09967 1.44887,3.00142 4.1833,-1.92607 6.34486,0.77119 2.47949,2.34817 4.43944,-1.36731 1.02853,-1.56668 -1.93332,-0.85114 -5.00825,-4.73695 -1.98304,-4.42964 2.86424,-0.94899 -3.1456,-2.44107 -3.24159,-3.52084 -2.99773,0.21463 -1.47955,-4.08686 -4.03355,-4.31601 -2.85479,-0.51026 -6.63834,1.02685 -8.9081,-0.77118 0.0694,-1.14447 -0.12309,-4.35831 2.60905,-4.453 1.53727,2.09252 4.41161,-0.94794 7.39181,0 3.61052,-0.63967 3.74273,2.19815 7.20766,1.70366 2.85825,1.18024 3.96568,0.55656 7.04187,0 0.97918,1.91955 3.83582,1.96184 6.87913,1.81729 2.76506,0.24408 3.35607,2.66253 7.32436,1.70365 3.50664,-0.69122 3.91125,1.7206 6.74409,1.70366 1.31001,2.54313 4.95316,-0.11678 5.73727,-1.70366 0.41569,-1.22684 4.72493,-3.06349 2.09969,-4.31601 -1.061,-1.92575 -2.28972,-3.59227 -3.3373,-5.9496 -0.53699,-2.41466 -3.48963,-1.94059 -2.79594,-5.4083 -1.80714,-1.10796 -1.84204,-3.98828 -1.70372,-7.04178 3.34665,0.43031 0.0894,-5.74296 2.72896,-6.01967 3.22531,-0.21568 5.93749,0.0842 7.32432,1.70366 2.87274,1.08566 -0.2139,6.44735 3.2385,6.13319 3.14186,-0.6523 4.72333,1.44548 6.41567,2.61236 2.00096,1.13289 2.96383,2.83003 5.62059,4.31601 0.44872,2.14343 1.65629,4.96147 0,7.55447 -1.43742,1.70418 -0.42873,3.0395 0.51269,4.71202 0.93384,1.49218 2.36153,-3.78292 5.34128,-2.61236 1.69634,1.08987 3.9701,0.18307 4.59532,-1.93385 -0.89723,-4.558 2.81545,-0.98161 5.22462,-1.58709 2.79789,-1.72428 2.13761,-1.61265 0,-3.52094 -2.11054,-0.92164 -4.42585,-1.6378 -7.39179,-1.70366 -1.29845,-1.61886 -3.01318,-2.19183 -3.96608,-4.94222 -2.86946,-3.29537 0.92574,-4.29686 0.90859,-6.76256 1.47301,-1.14078 0.75162,-4.46498 3.63762,-4.87772 4.1928,0.727 0.45104,2.0499 0.6784,4.66289 -1.14675,1.93312 -2.8308,4.54999 -0.9087,6.299 2.24087,1.65768 1.23499,3.91642 4.42959,4.71202 2.38973,0.59443 5.41282,2.00456 4.82862,-0.90901 1.97423,0.99844 4.89292,0.18411 6.16192,-2.24496 0.75867,-2.40699 1.52613,-3.84205 2.58365,-5.59189 1.01159,-1.62707 4.01523,-2.42161 2.09965,-4.43269 2.22742,-2.43423 -1.31472,-4.13905 -0.90859,-6.92521 -4.06914,-0.21673 -1.41377,-3.42057 -0.79507,-3.40742 2.07788,0.63231 5.81525,1.96879 3.40735,3.92 2.31624,0.69754 3.83087,1.94522 6.13325,3.00836 -0.49228,3.59796 4.41462,1.38866 4.42958,-0.79538 2.44451,0.0737 2.40308,-4.59534 4.94525,-4.42953 -0.3251,-0.96793 -1.69099,-3.62216 -3.24158,-4.8287 -0.95636,-2.32208 -0.2686,-6.27365 -3.33728,-3.19195 -3.37548,-0.13783 -5.24733,0.75856 -7.97142,1.09228 -2.71412,0.51132 -5.51702,0.83326 -8.0027,1.70377 -3.05973,0.18306 -5.12575,-0.62705 -6.01662,-2.61236 -2.8611,0.84273 -7.22326,-1.03316 -3.80336,-2.61235 -0.82221,-0.75856 1.47373,-3.90464 -0.11678,-6.13319 -2.03093,-0.0947 -3.92383,-4.18187 -1.30462,-1.70366 3.24419,-0.10521 3.34767,-2.52734 5.10474,-4.29255 1.02674,-1.99088 0.5027,-5.21187 2.44978,-6.15676 1.6745,-1.337 3.9123,-3.839515 1.19103,-4.942215 -2.66282,-0.21463 -0.76182,-4.99272 -2.61231,-6.01967 1.07072,-2.1125 -0.75551,-2.89831 -2.61228,-4.82554 -2.35185,-0.64073 -0.26734,-5.71856 -3.75424,-5.2246 -2.52487,-0.79223 -4.3161,-2.35733 -5.89997,-3.12493 -1.22094,1.4561 -1.07835,-1.98899 -3.40735,-1.19108 z M 45.99515,161.67184 c -4.31006,-0.54078 0.11825,2.38237 0,0 z M 173.43036,109.3121 c -1.47926,4.67488 4.5339,1.59897 1.70369,0.28196 0.15592,-0.68386 -1.32905,-0.0842 -1.70369,-0.28196 z m 0.79507,2.61235 c -1.09734,2.1307 0.54677,3.98418 -0.43262,5.58705 3.32532,2.97953 1.33524,3.19711 -0.36245,2.76249 -1.62823,1.38624 -2.10752,3.92137 -1.81724,7.226 -1.12281,4.05435 3.89002,1.9731 2.61229,6.18243 1.24782,1.61212 2.24639,3.47349 5.91836,2.66138 2.05275,-0.20095 5.86722,2.68652 6.34812,0.6786 1.1232,-2.54165 -0.79685,-4.8792 -1.81727,-6.41568 -0.82284,-2.6557 -0.39411,-4.53379 -2.33294,-4.71191 -2.04615,-0.65967 -3.79588,-1.61497 -4.59532,-3.52095 2.28004,0.19148 4.23,2.20204 6.24985,2.61236 4.16795,-1.29166 3.4766,2.27599 5.108,3.52083 1.44107,0.34825 4.08768,3.72348 5.22462,2.89474 1.95647,-1.32901 6.31526,2.02539 6.13324,-1.82023 0.13772,-2.74723 -2.30169,-3.81248 -4.03357,-5.50404 -1.88464,-0.81642 -4.61074,-4.29013 -1.19105,-2.89473 0.29069,1.41443 6.34991,1.15625 3.40739,3.40742 2.6472,-0.0842 4.84314,1.9428 7.27517,2.09966 2.52562,-1.44726 0.61547,-3.82278 -1.14193,-4.31601 -0.98686,-1.29439 -1.60323,-5.83681 -4.66289,-5.2246 -1.06163,-1.4441 -5.34203,-0.73541 -6.69498,-2.21634 -0.66493,-0.75856 -3.30115,5.08499 -4.316,0.51237 -0.49817,-1.33206 -6.19234,-1.70092 -4.42959,-3.12504 2.10844,-0.85956 2.67523,2.18173 5.15457,2.94134 1.44282,2.52166 2.78916,-2.11303 -0.72499,-2.42866 -2.19954,-0.69227 -3.28858,-3.46539 -6.59676,-2.72587 -1.96586,-1.68051 -5.48861,0.80591 -2.1488,1.42128 3.91732,1.66862 -1.37262,0.7291 -2.21631,1.30459 -1.67147,1.39287 -2.52109,0.64704 -3.91693,-0.90901 z m -17.37752,23.51076 c -0.31405,2.79626 2.15592,-0.57234 0,0 z m 0,0.90901 c -2.84652,-0.92584 -4.51089,4.1703 -1.93715,2.74934 -0.20463,-2.40825 2.92255,0.49132 1.93715,-2.74934 z m -63.7176,3.52094 c -0.78644,2.33892 0.99791,2.89537 0,6.48312 0.101,2.52671 2.54399,3.18554 2.61231,6.29911 0.78339,1.17098 0.21894,2.86759 0.90859,5.96748 1.13538,0.93952 4.10561,3.93831 0.79507,4.36515 0.98476,3.57828 -1.69508,4.17061 -1.70366,7.32427 -2.17273,1.08576 0.39349,4.78924 3.52094,3.52083 1.88337,1.85664 2.65309,-2.19677 5.22459,-1.70365 3.15044,-0.7028 3.46459,-2.278 5.22462,-3.52095 1.60769,-2.16553 3.86857,-1.59803 5.22463,0 2.86476,-0.0947 4.93991,2.01992 7.15852,0 1.35597,-1.15131 1.5905,-7.13857 -2.39744,-5.2246 -4.77199,-2.02118 -2.48149,4.16777 -5.6697,3.52094 -1.22187,-1.60023 -3.10627,-2.53786 -3.40739,-5.05879 0.50322,-2.17236 2.50881,-5.02954 0.97866,-7.024 -0.70533,-2.06715 -2.85091,-2.59289 -4.10367,-4.4997 -0.75687,-2.14407 -1.86843,-3.30769 -4.42952,-4.42954 -1.52738,0.94268 -5.81993,1.89798 -6.13324,-0.79538 -1.37634,-1.90861 -1.89987,-4.11054 -3.40738,-5.2246 z m 58.49295,2.61236 c -1.13768,1.27987 -3.74955,2.59194 -4.42952,4.3159 -2.91262,-0.97213 -5.08622,3.46571 -2.61231,4.31601 0.5131,-1.01842 3.17156,-4.45362 4.42955,-2.61224 -1.43711,1.46167 -3.65856,2.13901 -3.52096,5.17546 -3.00001,0.19359 1.39659,6.53247 0.90869,2.94082 2.11026,-0.40085 2.56893,2.71346 4.316,3.75419 2.34337,1.63854 -3.3989,1.68599 -5.17551,2.09967 0.30837,-1.92134 -5.30686,-3.86813 -2.66142,-1.19108 0.79149,1.67305 3.70327,2.62498 4.316,4.31602 2.72067,0.40926 3.46755,1.5612 5.83201,3.59564 2.07321,1.10628 2.09756,3.48433 3.82217,4.63721 -0.58402,3.48297 3.24183,2.55586 2.61231,6.08417 -2.87161,0.42925 -1.88156,-3.41679 -4.42958,-3.47181 -0.63778,-2.46075 -3.5057,-2.84855 -4.31598,-4.8287 -2.46641,-0.27775 -2.39405,-3.09442 -5.22465,-3.00826 -1.1842,-1.32511 -4.70313,-2.64833 -4.42952,0.62916 1.39026,1.65094 1.93031,2.95596 4.06223,5.13675 1.0239,2.19025 2.77392,2.66506 4.40091,3.88823 2.38309,3.02193 -0.18938,0.0526 -2.95918,0 -0.38212,-2.32335 -2.95475,-2.45612 -3.68672,-4.42964 -2.23953,0.11783 -4.1201,-3.07538 -6.13325,-0.90901 0.1514,2.80646 2.12714,3.24014 3.8585,4.81533 1.86113,1.20318 3.73637,1.97868 4.88703,3.93021 3.44711,-0.62494 3.71429,1.92997 4.316,4.1502 1.5474,1.15805 1.41793,3.99302 4.42958,3.68676 1.23696,2.97648 3.31013,-0.16834 4.82863,1.81728 1.73817,0.84589 2.01166,3.54483 3.52096,5.2246 1.68219,1.19518 4.04447,1.71018 6.41564,2.21635 3.27418,2.04212 3.70684,-2.16427 6.99275,-1.42128 3.10406,-1.64295 2.94161,-3.59617 1.7528,-5.85396 -1.78562,-2.25296 0.62979,-3.31095 0,-6.87913 -0.42104,-2.47169 -0.94383,-4.84153 -2.61231,-6.06575 -1.15996,-1.19118 -3.16233,-2.72314 -4.82862,-3.80333 -1.22394,-1.67577 -2.93916,-2.23801 -3.91693,-4.94222 -1.6061,-1.25483 -2.79851,-2.92335 -2.61235,-5.97053 -1.03694,-3.09432 0.52689,-3.2797 -0.90858,-5.78632 -1.13181,-2.11745 -3.51917,-3.42867 -2.61232,-6.92531 -0.61011,-1.73102 -3.79798,-2.50304 -4.316,-4.31601 -2.16523,-0.87324 0.44735,-5.67701 -4.31601,-4.31591 z m -13.17508,12.15286 c 0.30774,3.87592 5.34289,-0.23988 0.39601,0 z m -9.5406,4.42953 c -0.97919,1.88178 -2.85586,2.86612 -2.61231,5.97054 -0.70606,2.09346 -2.12959,3.4696 -3.12497,5.27384 -0.58181,1.75289 -4.59242,3.17943 -5.62059,0 -2.76114,0.81011 -5.06185,-0.62284 -3.80335,1.81718 0.35297,2.35353 2.31253,3.10031 4.71194,3.40742 0.83,-2.42919 4.78143,2.94597 5.22466,0 1.01295,-1.26115 2.13282,-4.61839 3.52093,-6.53236 0.35456,-2.46748 3.96911,-1.67493 3.40736,-5.05879 0.95909,-2.17489 4.43029,1.41886 1.81726,-3.17407 1.92837,-1.58098 -1.85512,-1.95742 -3.52093,-1.70376 z m -66.32992,15.67391 c -2.01407,1.73533 1.10761,2.16511 3.33728,3.33725 0.37822,-0.94268 0.79696,1.95447 2.79597,2.91262 1.21577,2.21971 -4.29504,5.46679 -0.16581,5.90299 1.51911,-1.06241 2.73407,-3.67129 2.77811,-5.97054 -0.9674,-2.73923 -1.97694,-3.54893 -4.31601,-4.08265 -0.65546,-2.41035 -1.98384,-2.24781 -4.42954,-2.09967 z m 4.42955,12.15286 c -2.70368,-0.3777 0.55887,2.4719 0,0 z m -0.90859,0.90901 c -5.89616,-0.83431 -0.622,2.87369 0,0 z m -2.61234,0.90901 c -2.46686,-0.76382 0.86966,1.83717 0,0 z m 71.55457,-10.4492 c -3.11059,2.68358 2.48482,3.18532 2.21632,5.2246 3.23577,-0.39138 4.35715,1.95753 5.6206,3.12493 -1.90931,1.36394 -4.44909,-0.85851 -2.61231,2.89474 1.55862,1.22653 2.31683,3.66361 2.61231,4.42953 1.63211,2.41646 2.63322,-2.57037 3.52093,-3.52094 -2.47403,-2.77722 2.02053,-2.10419 0,-5.05879 -0.79602,-2.17805 -3.93145,-1.06241 -4.29256,-4.36188 -3.11006,0.0526 -5.02166,-0.76909 -6.27024,-2.44981 0.22168,-0.58076 -0.53004,-0.18832 -0.79507,-0.28196 z m -13.97017,1.70366 c -0.30911,3.09232 0.61737,4.94905 2.21634,6.13329 3.23015,0.5776 1.01685,4.97 5.62059,3.40732 -3.05817,-1.88388 4.6666,-2.67611 0.67839,-4.31601 -0.93268,-1.90577 -1.15223,-4.52464 -4.99442,-3.52094 -1.67072,-0.79223 -1.6553,-1.96732 -3.5209,-1.70366 z m 80.18649,17.37756 c -0.67997,2.14102 -4.52045,1.12154 -5.2246,3.23856 -3.78483,0.42295 0.53973,2.42456 1.81724,3.40732 1.05584,0.91427 1.68945,5.25732 4.31601,4.71192 0.46166,1.89524 4.87316,2.00403 6.13325,2.09966 2.81339,-1.74932 -1.09865,-3.92379 -1.81728,-5.50698 1.93452,-0.19779 -3.06198,-4.82039 0.23031,-5.2246 1.93476,-1.53364 -2.90749,-1.92292 -4.66284,-2.72588 h -0.51258 z m -85.41111,5.33813 c 0.90532,2.49557 4.43134,1.97404 5.73727,3.40742 2.46581,0.021 4.14674,2.25338 5.62059,3.12493 1.45491,1.18224 3.21605,3.33799 5.97056,3.00826 1.8386,0.28407 6.18226,0.89428 3.96601,3.52094 -1.53309,0.96372 -4.76428,1.89651 -7.50534,1.70366 -1.64189,-1.82002 -6.157,0.003 -4.2485,0.90901 1.29637,1.26662 3.60915,2.44213 6.48013,2.61225 2.48308,-0.59654 4.58713,-0.56498 7.30639,-1.63359 2.6407,-0.51553 5.01799,-1.2723 6.94619,-1.88735 0.933,-1.62212 3.17598,-2.8333 4.95782,-2.06611 3.47191,-1.44537 3.13937,-2.04632 1.34119,-4.06708 -1.64025,-1.2621 -4.26857,-2.9626 -2.61232,0.74278 2.21109,1.03631 -1.86019,2.59046 -3.40735,2.77816 -1.2271,2.26169 -5.94795,0.65125 -6.36345,-0.90901 -0.79623,-1.91019 -3.16171,-2.25117 -4.712,-3.40732 -0.0852,-1.67904 -3.65482,-5.62503 -4.71197,-2.61235 1.58294,1.0845 5.53628,3.64814 1.47038,3.40742 -0.94889,-2.09399 -3.37435,-2.57101 -4.0827,-4.31601 -3.43612,0.35771 -2.88553,-3.44635 -5.34125,-3.52094 -3.29551,0.52815 -3.56621,-1.33669 -6.81165,-0.79539 z"
       style="fill:#000000;fill-opacity:1;stroke:#d39062;stroke-width:1.39184;stroke-miterlimit:4;stroke-dasharray:none;stroke-opacity:1"
       id="Calbuco" />
  </g>
</svg>
