<?xml version="1.0" encoding="UTF-8" standalone="no"?>
<!-- Created with Inkscape (http://www.inkscape.org/) -->

<svg
   width="210mm"
   height="297mm"
   viewBox="0 0 210 297"
   version="1.1"
   id="svg64"
   inkscape:version="1.1.2 (b8e25be833, 2022-02-05)"
   sodipodi:docname="vector.svg"
   xmlns:inkscape="http://www.inkscape.org/namespaces/inkscape"
   xmlns:sodipodi="http://sodipodi.sourceforge.net/DTD/sodipodi-0.dtd"
   xmlns="http://www.w3.org/2000/svg"
   xmlns:svg="http://www.w3.org/2000/svg">
  <sodipodi:namedview
     id="namedview66"
     pagecolor="#ffffff"
     bordercolor="#666666"
     borderopacity="1.0"
     inkscape:pageshadow="2"
     inkscape:pageopacity="0.0"
     inkscape:pagecheckerboard="0"
     inkscape:document-units="mm"
     showgrid="false"
     inkscape:zoom="0.74029882"
     inkscape:cx="361.34057"
     inkscape:cy="561.93525"
     inkscape:window-width="1920"
     inkscape:window-height="1017"
     inkscape:window-x="-8"
     inkscape:window-y="-8"
     inkscape:window-maximized="1"
     inkscape:current-layer="layer1" />
  <defs
     id="defs61" />
  <g
     inkscape:label="Capa 1"
     inkscape:groupmode="layer"
     id="layer1">
    <path
       style="fill:#000000;fill-opacity:1;fill-rule:evenodd;stroke:#d39062;stroke-width:1.05691;stroke-linecap:butt;stroke-linejoin:miter;stroke-miterlimit:4;stroke-dasharray:none;stroke-opacity:1"
       d="m 209.41998,163.17308 c -1.40194,-0.53541 -2.81326,-0.87795 -4.22763,-1.58537 -1.08335,-0.54174 -2.15343,-1.10973 -3.23678,-1.65146 -2.16324,-1.08159 -4.3785,-2.73568 -6.47356,-4.4918 -2.09506,-1.75612 -4.03661,-3.6403 -5.68088,-5.28459 -1.20107,-1.20099 -6.59619,-4.94468 -9.7764,-8.12492 -1.84283,-1.84287 -2.3568,-2.90821 -3.17073,-3.89736 -0.81387,-0.98968 -1.92753,-1.85551 -4.95425,-3.3689 -2.26326,-1.13165 -3.35621,-2.22208 -4.16158,-3.17076 -0.80534,-0.94857 -1.29657,-1.81461 -2.31198,-2.57621 -1.23162,-0.92327 -1.93884,-1.50928 -2.24593,-1.98167 -0.30713,-0.47217 -0.20637,-0.77888 0,-0.99072 0.41262,-0.42264 1.38719,-0.53437 1.38719,-1.05692 0,-1.11784 0.28299,-1.69415 0,-2.51023 -0.28299,-0.81577 -1.11867,-1.84529 -3.23678,-3.96334 -1.14075,-1.14071 -1.54757,-1.82726 -1.58536,-2.246 -0.038,-0.41843 0.31576,-0.56388 0.66052,-0.72619 0.34475,-0.16336 0.71954,-0.35308 0.7266,-0.72618 0.006,-0.37416 -0.33611,-0.99705 -1.38719,-2.04775 -0.12236,-0.12226 -1.56796,-1.03921 -2.44409,-2.17992 -0.43803,-0.5702 -0.71502,-1.1756 -0.66053,-1.78353 0.0548,-0.60813 0.45226,-1.21701 1.45326,-1.71743 1.49884,-0.74937 2.23058,-1.60867 2.37804,-2.44405 0.14756,-0.83579 -0.26549,-1.59296 -0.99083,-2.246 -0.72534,-0.65346 -1.78698,-1.18519 -2.9065,-1.38713 -1.11952,-0.20236 -2.33382,-0.1212 -3.3689,0.3963 -1.85053,0.92538 -3.37191,1.22091 -5.08637,1.123 -1.71445,-0.0949 -3.60841,-0.58917 -6.27539,-1.123 -2.14116,-0.42792 -5.89268,0.14123 -8.8516,0.32989 -1.47946,0.0949 -2.77439,0.13596 -3.56707,-0.13175 -0.39629,-0.13385 -0.67938,-0.371 -0.79269,-0.66084 -0.1133,-0.28984 -0.0464,-0.63448 0.19805,-1.123 0.27086,-0.54174 1.38024,-1.50454 0.79268,-1.65135 -0.84401,-0.2108 -3.69931,-1.99917 -6.53961,-3.56715 -1.42014,-0.78415 -2.80195,-1.55597 -3.96341,-1.98167 -1.16146,-0.4258 -2.04651,-0.53015 -2.44409,-0.13175 -1.01202,1.01181 -1.79772,1.55945 -2.51016,1.8495 -0.71248,0.28984 -1.35448,0.30038 -2.04777,0.32989 -0.6933,0.0316 -1.48954,0.0949 -2.44409,0.3299 -0.95458,0.23292 -2.07083,0.62184 -3.56707,1.51929 -2.04701,1.22819 -4.13419,1.91643 -6.07722,2.64229 -1.943015,0.72619 -3.728275,1.54839 -5.284535,3.10467 -0.83369,0.83369 -1.59654,2.41464 -2.24593,3.83128 -0.64935,1.41664 -1.2182,2.64219 -1.84959,2.64229 -3.3813,0 -6.37654,-0.57968 -9.38006,-1.18908 -3.00352,-0.60919 -6.02139,-1.25507 -9.314,-1.25507 -1.62148,0 -2.70653,0.22345 -3.50101,0.52804 -0.79448,0.3046 -1.2684,0.7167 -1.78353,1.123 -0.51518,0.40578 -1.06617,0.81788 -1.84959,1.1229 -0.78341,0.3046 -1.83558,0.46269 -3.43495,0.46269 -3.34677,0 -4.57246,-0.28457 -5.28454,-0.72724 -0.71206,-0.44161 -0.86414,-1.04659 -1.98171,-1.71743 -2.00457,-1.20279 -4.97185,-2.80166 -7.66258,-3.63313 -1.34536,-0.41527 -2.61942,-0.68403 -3.69918,-0.52804 -1.07976,0.15493 -1.98742,0.67243 -2.51015,1.71754 -0.69456,1.38913 -1.218679,2.29881 -1.783531,2.77436 -0.564821,0.47534 -1.147401,0.5312 -1.849596,0.39629 -1.4044,-0.26876 -3.379861,-1.42296 -6.935955,-2.31198 -2.219697,-0.55439 -3.384393,-0.74726 -4.029463,-0.66084 -0.645028,0.0843 -0.732823,0.40473 -0.726605,0.85899 0.0063,0.4532 0.133854,1.03921 -0.132062,1.58537 -0.265916,0.54701 -0.916635,1.08791 -2.378044,1.45332 -2.58517,0.64608 -4.101838,0.43107 -5.746933,0.0632 -1.645105,-0.36468 -3.451288,-0.85899 -6.473559,-0.85899 -1.8293171,0 -3.2776891,0.36257 -4.4918691,0.99073 -1.21417,0.62817 -2.164163,1.535 -2.972545,2.44404 -0.845387,0.95068 -1.411989,1.5759 -2.04776303,2.44415 2.04065903,2.26719 3.61031103,4.46903 6.67173703,7.53049 2.7014111,2.70142 3.3913801,5.37312 7.0020071,8.9837 0.863936,0.86425 2.587847,1.92043 4.22764,3.10467 1.639793,1.18423 3.148736,2.52119 3.69917,3.89736 0.570829,1.42717 1.230285,2.41822 1.915648,3.17075 0.685395,0.75253 1.41142,1.22155 2.179878,1.65135 1.536894,0.86004 3.207315,1.42381 4.888192,3.10467 1.565035,1.56504 3.120754,3.26193 4.888203,4.82222 1.76745,1.56019 3.74839,2.99706 6.07723,4.16148 1.81622,0.90852 4.01354,1.69794 6.27539,1.98178 1.1309,0.14228 2.30775,0.1465 3.43495,0 1.12718,-0.14651 2.19006,-0.46797 3.23677,-0.99073 0.98019,-0.4901 3.00776,-0.31092 4.75609,0.39629 0.87416,0.35308 1.65157,0.84844 2.24593,1.45321 0.59433,0.60497 0.99084,1.35582 0.99084,2.17992 0,1.49305 0.29574,2.75085 0.79268,3.89736 0.49695,1.1465 1.21908,2.18666 1.91565,3.10467 1.39316,1.8359 2.82922,3.32389 3.23679,4.95427 0.40493,1.61953 0.94614,3.4353 1.71747,5.08634 0.7714,1.65104 1.80966,3.08475 3.30283,3.83127 0.49263,0.24663 0.74579,0.98336 0.92475,1.91569 0.17907,0.93171 0.3006,2.09118 0.3963,3.23674 0.0959,1.14555 0.15366,2.28426 0.39629,3.17075 0.24251,0.88639 0.63543,1.49653 1.25507,1.65136 0.79764,0.1992 1.48268,0.86425 2.04776,1.65146 0.56514,0.78731 1.03753,1.74368 1.51931,2.64229 0.48187,0.89903 0.97133,1.71143 1.5193,2.2459 0.54796,0.53436 1.15222,0.76834 1.91565,0.46269 2.30643,-0.92222 5.7213,-2.92729 9.11583,-4.68994 1.69727,-0.88112 3.43998,-1.70869 4.95426,-2.31209 1.51427,-0.60287 2.803355,-0.99073 3.831285,-0.99073 1.66666,0 3.67649,0.52382 5.61482,0.66084 0.96912,0.0632 1.92829,0.0422 2.84044,-0.19815 0.91221,-0.23819 1.73832,-0.68191 2.51016,-1.45331 1.48569,-1.48567 3.91215,-3.25117 6.73779,-4.62396 1.41283,-0.68614 2.93282,-1.22946 4.49186,-1.65146 1.55905,-0.42159 3.17666,-0.66084 4.75609,-0.66084 3.53683,0 6.78619,0.32251 10.04062,0.85898 3.25443,0.53647 6.52922,1.26898 9.90851,2.11384 3.68493,0.92116 6.68104,2.17033 9.51218,3.56704 2.83114,1.39672 5.45814,2.8942 8.38921,4.35974 1.4003,0.69983 2.86003,2.47071 4.49185,4.16158 0.81588,0.84529 1.66943,1.69215 2.57621,2.37796 0.90684,0.68614 1.88683,1.19836 2.90651,1.45332 1.06931,0.26771 3.68643,0.33516 6.34144,0.52804 2.65502,0.19393 5.33805,0.50274 6.60569,1.45321 1.17742,0.88322 3.0672,1.38659 5.15242,1.65146 2.08522,0.26454 4.3631,0.28878 6.40751,0.39629 1.68435,0.0843 2.95954,0.26138 4.02946,0.52804 0.46248,-1.41116 0.85118,-2.71112 0.7266,-3.50097 -0.15261,-0.96754 -0.67949,-1.56419 -1.58536,-2.04775 -1.81167,-0.96754 -4.99863,-1.44246 -8.98372,-3.43498 -0.5995,-0.29933 -0.69583,-0.69351 -0.46238,-1.18898 0.23346,-0.49537 0.8084,-1.09044 1.51931,-1.65146 1.42189,-1.12216 3.4249,-2.24095 4.62397,-2.84044 0.98061,-0.4901 1.55142,-2.11099 1.91565,-4.02942 0.36425,-1.91843 0.52846,-4.16075 0.52846,-5.74697 0,-1.99452 0.77287,-3.12543 1.58536,-4.42582 0.4062,-0.65029 0.8183,-1.33801 1.12296,-2.17991 0.3047,-0.84212 0.52846,-1.82748 0.52846,-3.10467 2e-5,-1.89166 0.75348,-3.58739 1.65142,-5.28449 0.34813,-0.65767 0.58105,-1.37753 0.92475,-2.04775 z"
       id="Maule"
       inkscape:label="#path2885" />
  </g>
</svg>
