<?xml version="1.0" encoding="UTF-8" standalone="no"?>
<!-- Created with Inkscape (http://www.inkscape.org/) -->

<svg
   width="210mm"
   height="297mm"
   viewBox="0 0 210 297"
   version="1.1"
   id="svg64"
   inkscape:version="1.1.2 (b8e25be833, 2022-02-05)"
   sodipodi:docname="vector.svg"
   xmlns:inkscape="http://www.inkscape.org/namespaces/inkscape"
   xmlns:sodipodi="http://sodipodi.sourceforge.net/DTD/sodipodi-0.dtd"
   xmlns="http://www.w3.org/2000/svg"
   xmlns:svg="http://www.w3.org/2000/svg">
  <sodipodi:namedview
     id="namedview66"
     pagecolor="#ffffff"
     bordercolor="#666666"
     borderopacity="1.0"
     inkscape:pageshadow="2"
     inkscape:pageopacity="0.0"
     inkscape:pagecheckerboard="0"
     inkscape:document-units="mm"
     showgrid="false"
     inkscape:zoom="0.74029882"
     inkscape:cx="361.34057"
     inkscape:cy="561.93525"
     inkscape:window-width="1920"
     inkscape:window-height="1017"
     inkscape:window-x="-8"
     inkscape:window-y="-8"
     inkscape:window-maximized="1"
     inkscape:current-layer="layer1" />
  <defs
     id="defs61" />
  <g
     inkscape:label="Capa 1"
     inkscape:groupmode="layer"
     id="layer1">
    <path
       id="Illapel"
       style="fill:#000000;fill-opacity:1;fill-rule:evenodd;stroke:#d38d5f;stroke-width:1.19242px;stroke-linecap:butt;stroke-linejoin:miter;stroke-opacity:1"
       d="m 77.857599,235.1581 c -6.6776,-1.63579 -12.64574,1.00069 -17.70102,4.34033 -6.21935,-3.51923 -12.24595,-9.70442 -17.16119,-14.76403 0.1595,-7.35191 -10.85874,-3.26356 -12.05907,-10.90111 -2.25831,-6.26545 -6.73027,-8.09855 -12.99575,-11.44093 l -0.44744,-11.61512 c -0.18221,-7.96713 -5.66128,-7.10624 -9.1334674,-9.59013 l -7.76345097,-7.76342 v -15.52694 l 14.61354837,2.28338 c 9.76593,-7.41046 11.59413,2.708 23.29035,-1.8267 l -5.0234,-9.59013 4.56672,-3.65339 0.45668,-5.02342 c 0.0284,-4.58379 1.2139,-9.8618 -4.56673,-10.96015 h -5.93677 c -6.84825,-6.03169 -2.42703,-10.65468 0,-15.52689 h 6.85011 c 4.63957,-9.0942 7.94824,-2.21749 11.41685,2.74004 5.82752,-2.49023 6.66321,-7.47634 7.76344,-12.33021 l 7.76342,0.91335 -0.45667,-11.873502 c 1.01353,-6.76057 -4.58744,-17.30086 12.19586,-15.05007 3.32332,7.80912 10.10417,5.63824 7.64932,12.14886 11.23348,5.53404 9.22642,-2.17246 11.6989,-5.39947 0.68697,-3.33932 3.89118,-6.16896 7.401391,-5.73085 2.43778,-0.42364 2.38212,-3.85053 4.81751,-4.32785 2.74766,-1.3286 5.38964,-0.84782 8.33849,-0.75547 2.76776,-0.51617 5.50488,1.52416 3.8617,4.37295 -0.40246,3.22336 1.73607,6.8165 5.15164,7.18263 3.41562,0.36596 -1.42284,11.38654 2.37626,11.40745 3.7991,0.0225 7.98448,1.13301 10.01534,4.624932 3.57322,3.61414 4.79272,-1.908542 7.13693,-3.443022 4.90133,-0.73682 2.34507,-5.11554 2.88044,-8.28193 1.03003,-3.73294 5.92077,-4.62691 6.0141,-8.98143 3.97641,0.11267 3.29745,-5.42246 6.27303,-6.98875 3.84385,-0.81763 4.90791,-7.68149 9.35216,-3.69238 3.14219,1.81989 0.0703,8.88521 4.60298,7.88857 2.92542,-2.41096 7.58473,-1.87577 9.727,-5.38058 2.49073,-3.50328 6.721,-4.82233 9.85016,-7.47616 -1.38679,-3.55695 2.50317,-7.95807 3.50878,-7.75698 l 12.6433,4.54299 c -2.52052,3.91876 -1.74044,13.36845 2.48294,21.15973 0.90284,1.66549 -6.50986,12.76557 -8.18274,18.187262 8.99166,10.11318 -6.01929,1.78695 1.58364,33.77838 -2.85438,-3.6278 -3.34121,7.98926 -7.1171,-2.2982 -5.11283,-5.74195 -7.87916,3.62761 -5.90635,7.05491 -4.44443,3.31939 -2.65144,11.12216 -7.83202,13.55534 -3.17621,4.54471 -10.13486,1.53628 -11.97647,7.12026 -2.93055,1.13644 -6.24139,-4.78434 -10.48035,-3.25446 -1.50564,-3.67101 -3.75386,-3.0785 -6.78004,-1.55876 -2.06615,4.86964 -6.86563,7.16681 -12.11493,5.83437 -3.72303,3.38101 -6.43414,-1.76824 -10.13139,-0.5423 -0.6959,5.65212 -6.31746,9.21953 -11.6263,10.1491 -2.81346,-2.34998 -7.70294,-3.81722 -6.9659,1.83968 -4.0723,4.38994 -11.04699,-0.68526 -14.496911,-3.89731 -3.158,-0.2677 -9.06818,2.47185 -6.51846,6.92052 5.03897,3.48416 -2.32885,2.20887 -4.73706,2.75064 -5.0761,1.34266 -10.33771,6.71446 -10.08226,12.02551 1.35754,5.46455 3.71383,11.06849 0.009,16.30094 2.80513,3.53987 -2.19554,6.22133 -0.5328,9.89433 -1.59887,4.09182 0.85238,7.41739 1.89584,11.25196 l 0.54023,6.93363"
       sodipodi:nodetypes="cccccccccccccccccccccccccccccsscccccccccccscccccccccccccccccccc" />
  </g>
</svg>
