<?xml version="1.0" encoding="UTF-8" standalone="no"?>
<!-- Created with Inkscape (http://www.inkscape.org/) -->

<svg
   width="210mm"
   height="297mm"
   viewBox="0 0 210 297"
   version="1.1"
   id="svg1283"
   inkscape:version="1.1.2 (b8e25be833, 2022-02-05)"
   sodipodi:docname="vector.svg"
   xmlns:inkscape="http://www.inkscape.org/namespaces/inkscape"
   xmlns:sodipodi="http://sodipodi.sourceforge.net/DTD/sodipodi-0.dtd"
   xmlns="http://www.w3.org/2000/svg"
   xmlns:svg="http://www.w3.org/2000/svg">
  <sodipodi:namedview
     id="namedview1285"
     pagecolor="#ffffff"
     bordercolor="#666666"
     borderopacity="1.0"
     inkscape:pageshadow="2"
     inkscape:pageopacity="0.0"
     inkscape:pagecheckerboard="0"
     inkscape:document-units="mm"
     showgrid="false"
     inkscape:zoom="0.52347032"
     inkscape:cx="155.69173"
     inkscape:cy="611.30496"
     inkscape:window-width="1920"
     inkscape:window-height="1017"
     inkscape:window-x="-8"
     inkscape:window-y="-8"
     inkscape:window-maximized="1"
     inkscape:current-layer="layer1" />
  <defs
     id="defs1280" />
  <g
     inkscape:label="Capa 1"
     inkscape:groupmode="layer"
     id="layer1">
    <path
       id="Alhue"
       style="fill:#000000;fill-opacity:1;fill-rule:evenodd;stroke:#d38f61;stroke-width:0.674351;stroke-linecap:butt;stroke-linejoin:miter;stroke-miterlimit:4;stroke-opacity:1"
       d="m 140.17169,86.687602 c -0.80349,-0.89479 1.08342,3.36029 -0.14732,2.80112 -1.23063,-0.55918 -2.86122,-0.5536 -3.77365,-1.57808 -5.33413,-3.14147 -7.49722,-11.31071 -14.11604,-11.21925 -2.59242,-3.33177 -5.65477,-2.50785 -7.9501,0.61989 -1.39791,5.83159 -11.34481,-0.56068 -16.99298,-1.00188 -9.49396,-1.22572 -9.08581,1.9152 -9.52812,7.49952 1.07111,4.33906 -0.68726,7.41948 -2.55291,11.17119 -3.87937,1.54945 -3.18526,7.357988 -7.70213,7.619328 -9.3962,0.27345 -10.5843,2.88611 -15.38123,1.83356 -6.49466,-3.5435 -2.34404,11.09709 -12.72042,6.80155 -1.44113,-4.1529 -2.86669,0.30693 -6.12077,-0.32256 -1.6137,-0.53183 -2.91089,-0.36609 -3.96054,0.23383 -1.84479,1.05434 -2.92493,3.4513 -3.61479,5.7678 5.37568,2.45138 5.29795,11.84628 -1.02079,12.11331 -1.1119,1.69867 -2.97794,4.09207 -4.39317,6.05007 -2.03889,2.82082 -4.50984,4.73786 -7.75077,2.37208 -2.105713,2.0603 -4.500662,1.19503 -6.307084,2.34094 0.854537,-1.63254 -4.045789,-3.69305 -15.72831935,7.37122 6.11628395,12.70876 12.81193235,2.27141 14.75275635,16.33619 -0.957247,13.01809 4.05396,12.62142 9.542107,13.82297 9.04025,5.54665 2.6505,18.46005 15.84849,21.23784 4.30125,12.28832 25.27332,13.87856 36.09228,13.94781 9.90665,-3.035 18.2637,17.81024 24.76514,6.6088 7.28314,-2.32007 10.68429,-7.68691 11.06769,-7.59349 2.5826,0.62954 4.62255,4.56245 13.59469,3.49796 5.2108,0.53853 10.50376,2.22565 11.5086,2.39094 2.10432,0.346 10.44812,-9.84999 12.75719,-8.77746 5.48783,-5.72205 14.36262,-6.03679 10.81678,-7.91482 -1.29866,-0.68787 -5.29586,-6.17285 -6.19913,-7.87894 -7.42339,-9.49647 -3.25409,-28.13844 11.53818,-24.73395 12.03038,1.33537 -1.71603,-18.6821 9.42475,-19.08424 7.55064,-4.98591 15.27181,-7.18376 23.63458,-2.98633 9.87495,-3.39031 4.78613,-12.44301 6.02636,-13.13483 3.67743,-2.05142 5.87824,-5.38197 2.18139,-9.1118 -1.18085,-5.14557 2.92109,-8.77038 -5.77808,-10.02216 -1.17074,-0.84769 -3.04364,-3.12925 -4.28264,-3.88458 -1.239,-0.75533 -0.57681,-1.96822 -1.18219,-3.87382 -0.60544,-1.90554 -1.46055,-2.6304 -2.28999,-1.6548 -0.63747,0.78356 -1.82502,1.48979 -3.40521,1.48979 -1.57121,0 -1.60632,0.44588 -2.12827,1.48979 -0.30916,0.61855 -1.11583,2.01883 -1.48979,2.76673 -0.59299,1.18599 -1.05434,1.1034 -0.63847,2.76674 0.39901,1.59527 -0.74177,1.27695 -1.91548,1.27695 -0.58172,0 -1.31378,0.97616 -1.91542,1.27695 -0.0625,0.0335 -1.83947,1.76357 -1.91542,1.91548 -0.35827,0.71615 -1.22617,1.48979 -2.12827,1.48979 -0.79467,0 -1.91999,0.7483 -2.3411,1.0641 -0.86036,0.64528 -0.65963,1.06416 -2.34111,1.06416 -0.64059,0 -0.9261,1.0641 -2.34111,1.0641 -1.34313,0 -1.4803,0.21765 -3.19237,-0.63847 -2.00052,-1.00026 -0.91214,-0.9324 -2.12826,-2.55389 -0.6647,-0.88626 -0.85723,-0.96221 -2.12827,-1.91548 -0.85131,-0.63847 -2.20438,0.3951 -3.19242,0 -1.16835,-0.4671 -2.43475,-0.85126 -3.8309,-0.85126 -0.48997,0 -2.08674,0.8305 -2.55389,1.0641 -0.954,0.47714 -2.55245,-1.27695 -3.8309,-1.27695 -1.78104,0 -2.42939,-0.42579 -4.04369,-0.42579 -1.35122,0 -2.94197,-0.34433 -4.46937,-1.48979 -0.28349,-0.21262 -0.56754,-0.4258 -0.85132,-0.63848 -1.44832,-1.0862 -0.55415,-1.57406 0.21262,-2.34105 1.36724,-1.36724 2.12827,-1.0588 2.12827,-2.55395 0,-0.0882 -1.7177,-1.73283 -1.91542,-2.12827 -0.33707,-0.67452 1.30686,-0.97102 1.48979,-1.70257 0.30804,-1.23158 0.92347,-2.20422 1.27694,-3.61806 0.40292,-1.612618 1.38114,-1.518078 0,-2.553948 -1.67177,-1.25379 -1.8441,-0.78117 -1.06416,-2.34111 0.61007,-1.22008 0.47882,-2.66048 0,-3.61805 -0.2807,-0.56146 -0.66514,-1.5432 -1.0641,-2.34105 -0.33651,-0.67313 -1.15183,-1.46485 -1.48979,-1.91548 -0.33818,-0.45035 -0.0502,-0.59495 -0.85132,-1.48979 z"
       sodipodi:nodetypes="ccccccccccccsccsccccccccscscsccccsccsscsssssssssssssssssssssssssssssssc" />
  </g>
</svg>
