<?xml version="1.0" encoding="UTF-8" standalone="no"?>
<!-- Created with Inkscape (http://www.inkscape.org/) -->

<svg
   width="210mm"
   height="297mm"
   viewBox="0 0 210 297"
   version="1.1"
   id="svg64"
   inkscape:version="1.1.2 (b8e25be833, 2022-02-05)"
   sodipodi:docname="vector.svg"
   xmlns:inkscape="http://www.inkscape.org/namespaces/inkscape"
   xmlns:sodipodi="http://sodipodi.sourceforge.net/DTD/sodipodi-0.dtd"
   xmlns="http://www.w3.org/2000/svg"
   xmlns:svg="http://www.w3.org/2000/svg">
  <sodipodi:namedview
     id="namedview66"
     pagecolor="#ffffff"
     bordercolor="#666666"
     borderopacity="1.0"
     inkscape:pageshadow="2"
     inkscape:pageopacity="0.0"
     inkscape:pagecheckerboard="0"
     inkscape:document-units="mm"
     showgrid="false"
     inkscape:zoom="0.74029882"
     inkscape:cx="361.34057"
     inkscape:cy="561.93525"
     inkscape:window-width="1920"
     inkscape:window-height="1017"
     inkscape:window-x="-8"
     inkscape:window-y="-8"
     inkscape:window-maximized="1"
     inkscape:current-layer="layer1" />
  <defs
     id="defs61" />
  <g
     inkscape:label="Capa 1"
     inkscape:groupmode="layer"
     id="layer1">
    <path
       style="fill:#000000;fill-opacity:1;fill-rule:evenodd;stroke:#d39062;stroke-width:0.622169;stroke-linecap:butt;stroke-linejoin:miter;stroke-miterlimit:4;stroke-dasharray:none;stroke-opacity:1"
       d="m 75.913845,235.69474 c 0.27176,-0.27175 0.54475,-0.54474 0.81662,-0.81662 0.44672,-0.44671 3.59395,-5.38726 3.69415,-5.98834 0.36358,-2.18258 0.78672,-3.57267 1.43874,-4.8218 0.65202,-1.24919 1.51889,-2.37516 2.68308,-3.92749 1.48347,-1.9779 3.20177,-5.04243 4.12188,-6.88271 0.27299,-0.5466 0.65748,-0.98637 1.12771,-1.36099 0.47029,-0.37475 1.02161,-0.6594 1.63318,-0.85552 1.22319,-0.39212 2.70641,-0.44113 4.16078,-0.0776 0.50131,0.12533 0.9206,0.23825 1.47763,0.54413 0.55716,0.30649 1.2307,0.80297 2.17762,1.74988 0.39273,0.39274 0.771945,0.50255 1.166535,0.42748 0.3946,-0.0751 0.79404,-0.32201 1.20545,-0.69998 0.82283,-0.75581 1.70453,-1.97671 2.68309,-2.95527 0.46471,-0.46471 0.98593,-0.74731 1.51653,-0.93326 0.53048,-0.18613 1.06399,-0.24011 1.55544,-0.27237 0.98296,-0.0639 1.78872,0.0372 1.98317,-0.15573 2.03535,-2.03535 2.94975,-3.88301 5.05514,-5.98841 0.54909,-0.54908 1.12256,-1.57361 1.78872,-2.52754 0.33318,-0.47711 0.70042,-0.91657 1.08881,-1.28325 0.38839,-0.36668 0.7833,-0.66244 1.24435,-0.77772 0.90994,-0.2277 2.06488,-0.81358 3.03307,-1.63318 0.9682,-0.81953 1.74964,-1.86553 2.02207,-2.95527 0.0496,-0.2066 1.23604,-1.11337 2.372,-2.09987 1.13596,-0.98643 2.25535,-2.0454 2.25535,-2.48864 0,-1.83643 0.18241,-2.71311 0.62218,-3.38306 0.43989,-0.66995 1.1403,-1.1403 2.13871,-2.13871 0.76109,-0.76109 1.53285,-1.52957 2.02207,-2.52754 0.24445,-0.49883 0.40949,-1.06914 0.46657,-1.71098 0.0558,-0.64185 0.0186,-1.33723 -0.1942,-2.17762 -0.0918,-0.36792 -0.43058,-0.7323 -0.85552,-1.0499 -0.425,-0.31767 -0.93593,-0.58756 -1.39983,-0.85546 -0.46409,-0.26803 -0.87953,-0.52055 -1.08881,-0.73882 -0.20909,-0.21839 -0.22274,-0.41383 0.11664,-0.58321 0.38778,-0.19358 0.54599,-0.7395 0.93327,-0.93326 1.04568,-0.52303 2.12425,-1.84357 3.14971,-2.83869 0.51248,-0.49759 1.0035,-0.9033 1.4777,-1.08875 0.47401,-0.18551 0.90875,-0.14146 1.32209,0.27237 0.65357,0.65357 1.23808,1.89383 1.82762,2.99418 0.29471,0.55032 0.58942,1.06696 0.89437,1.43879 0.30463,0.37164 0.63979,0.62218 0.97216,0.62218 1.42105,0 2.39836,-0.0738 3.22746,-0.38902 0.82909,-0.31518 1.51703,-0.86911 2.29425,-1.90536 0.94567,-1.26092 1.65353,-1.88613 2.4109,-2.4498 0.75743,-0.56398 1.56437,-1.09774 2.64424,-2.17761 0.48767,-0.48767 1.04495,-1.06412 1.78873,-1.63318 0.74378,-0.56895 1.6668,-1.10227 2.79978,-1.55544 1.27004,-0.50814 1.64286,-1.00896 2.09981,-1.47764 0.45665,-0.46843 0.99084,-0.90881 2.48871,-1.28325 1.18205,-0.29533 2.16048,-0.78665 2.99417,-1.47763 0.83368,-0.69099 1.52268,-1.60663 2.06091,-2.68309 0.68769,-1.37532 1.39778,-1.887 2.09981,-2.37206 0.70208,-0.48518 1.38208,-0.93648 2.02207,-2.21645 0.21901,-0.43865 0.65747,-0.7717 1.1666,-1.0499 0.50938,-0.27796 1.08385,-0.50814 1.63318,-0.73882 0.54909,-0.2308 1.0599,-0.44237 1.3999,-0.73888 0.34,-0.29657 0.50752,-0.65189 0.38901,-1.12765 -0.39087,-1.56307 -0.73813,-2.84706 -0.69991,-4.00523 0.0186,-0.57887 0.13339,-1.11847 0.38901,-1.67208 0.25562,-0.55343 0.66579,-1.09353 1.24435,-1.67208 1.42719,-1.4272 2.20615,-2.49268 2.87753,-2.72199 0.33566,-0.11478 0.67175,-0.0434 1.011,0.31084 0.33938,0.35675 0.69533,1.00176 1.16661,1.94427 0.51559,1.03116 0.81377,1.42793 1.01101,1.47763 0.1973,0.0496 0.30835,-0.24941 0.46657,-0.62211 0.15821,-0.37289 0.34,-0.81383 0.73881,-1.04997 0.39895,-0.23577 0.98644,-0.26493 1.90537,0.1942 1.2137,0.60679 2.31281,0.69787 3.46086,0.66107 1.148,-0.0372 2.38031,-0.19419 3.92744,-0.19419 0.77406,0 2.23854,0.24073 3.5386,0.77772 0.64997,0.26865 1.27184,0.60927 1.71092,1.011 0.43927,0.40204 0.69998,0.86495 0.69998,1.39989 0,0.0124 -0.0186,1.25149 0.31084,2.37206 0.16504,0.56026 0.42314,1.08682 0.81656,1.43874 0.39336,0.35178 0.91378,0.52985 1.63324,0.34992 1.04289,-0.26058 2.42771,0.0813 3.65525,0.27238 0.61361,0.0955 1.18677,0.17 1.67208,0.0776 0.48518,-0.0924 0.88729,-0.33566 1.12764,-0.81656 0.64923,-1.29845 1.14906,-1.91541 1.59434,-2.5276 0.44548,-0.61237 0.80068,-1.21947 1.12765,-2.52754 0.31704,-1.26811 0.1458,-2.11334 -0.1942,-2.95527 -0.34,-0.842 -0.83194,-1.69479 -1.16654,-3.03307 -0.3338,-1.33531 -0.85193,-2.41524 -1.43874,-3.42197 -0.58693,-1.00672 -1.25303,-1.92273 -1.78878,-2.99417 -0.86489,-1.7299 -1.47683,-4.82024 -2.29426,-6.45503 -0.35861,-0.71767 -0.79552,-1.58243 -1.32209,-2.4109 -0.52675,-0.82847 -1.15352,-1.6137 -1.90536,-2.17762 -0.83344,-0.62502 -2.58047,-1.40014 -3.8886,-2.09981 -0.654,-0.34992 -1.18981,-0.70146 -1.43873,-0.9721 -0.2488,-0.27051 -0.23329,-0.45664 0.27237,-0.58321 0.61299,-0.15325 1.09495,-0.86402 1.28325,-1.63318 0.18799,-0.76916 0.0968,-1.61432 -0.34993,-2.06091 -0.8593,-0.8593 -1.68436,-1.3474 -2.44979,-1.94426 -0.7655,-0.59686 -1.4643,-1.29548 -2.13872,-2.64425 -0.27609,-0.55219 -0.17992,-1.27239 -0.11664,-1.94426 0.0633,-0.67188 0.0869,-1.31322 -0.34993,-1.74989 -0.0124,-0.0124 -0.031,-0.70705 -0.27237,-1.51653 -0.1216,-0.40453 -0.29409,-0.82258 -0.54412,-1.20545 -0.25066,-0.38281 -0.58445,-0.71984 -1.01101,-0.93327 -0.28664,-0.14332 -1.72481,-0.4647 -3.11081,-0.816549 -1.38606,-0.35241 -2.73427,-0.72449 -2.87753,-1.01107 -0.59562,-1.19056 -1.92888,-3.16578 -2.29425,-4.62735 l -3.22752,-5.48287 c -0.36482,-1.45896 -0.87687,-2.20305 -1.51654,-2.95533 -0.63967,-0.75229 -1.38562,-1.5269 -2.13871,-3.03308 -0.75327,-1.50654 -1.20644,-2.36194 -1.47764,-3.26636 -0.27113,-0.90441 -0.34992,-1.84735 -0.34992,-3.6164 0,-1.09675 0.0838,-2.50992 -0.0372,-3.73299 -0.062,-0.61175 -0.1762,-1.15973 -0.38901,-1.63318 -0.21281,-0.4734 -0.52738,-0.86651 -0.97217,-1.08881 -0.81041,-0.40514 -1.59068,-0.72876 -2.52754,-0.97216 -0.93692,-0.24321 -2.04465,-0.38902 -3.4608,-0.38902 -0.76959,0 -2.26175,0.14953 -3.69415,0.11665 -0.71623,-0.0186 -1.42024,-0.0732 -1.98317,-0.23329 -0.56274,-0.16007 -1.0084,-0.42252 -1.20545,-0.81662 -0.77294,-1.54588 -2.93368,-4.80014 -4.12188,-5.9884 -0.65934,-0.65934 -1.24875,-1.03452 -1.78872,-1.24429 -0.53978,-0.20971 -1.01956,-0.24446 -1.55544,-0.1942 -1.0718,0.0999 -2.25827,0.54412 -4.00523,0.54412 -0.87513,0 -1.65843,-0.13897 -2.3331,-0.34992 -0.67473,-0.21095 -1.23138,-0.51 -1.78878,-0.81662 -0.37661,-0.20723 -0.73367,-0.33752 -1.08875,-0.54413 -0.47587,0.49325 -0.90149,1.06747 -1.12771,1.86647 -0.2823,0.99698 -0.42934,2.11308 -0.66107,3.14977 -0.23143,1.03663 -0.54102,1.98057 -1.08881,2.56644 -0.39398,0.42128 -0.94096,0.61114 -1.55538,0.69992 -0.61423,0.0893 -1.28232,0.0757 -1.98316,0.0372 -0.70085,-0.0372 -1.40796,-0.0825 -2.06097,-0.0372 -0.65302,0.0434 -1.27891,0.17496 -1.74983,0.50566 -0.33193,0.48022 -0.75215,0.8688 -1.24435,1.16655 -0.492,0.29781 -1.037,0.49386 -1.63317,0.66107 -1.19242,0.3338 -2.54175,0.46347 -3.8108,0.58321 -1.26904,0.11975 -2.45085,0.22584 -3.34416,0.54413 -0.44671,0.15945 -0.8209,0.37474 -1.0888,0.66107 -0.26803,0.28603 -0.43369,0.66288 -0.46657,1.12771 0.10423,0.61051 -0.18117,1.22562 -0.69992,1.74982 -0.51868,0.52427 -1.29355,0.94809 -2.09987,1.24435 -0.80626,0.29657 -1.6531,0.46223 -2.4109,0.38902 -0.75774,-0.0732 -1.4154,-0.38778 -1.78872,-0.9721 -1.13081,-0.64898 -2.4189,-1.25074 -3.81079,-1.71099 -1.39183,-0.46036 -2.8949,-0.77008 -4.35517,-0.89436 -1.46032,-0.12408 -2.90247,-0.0496 -4.238515,0.31084 -1.33611,0.35862 -2.55825,0.99382 -3.57751,1.98317 -0.24259,0.76612 -0.58259,1.38668 -0.9721,1.86646 -0.38963,0.4796 -0.80471,0.8273 -1.28325,1.04997 -0.47836,0.22274 -1.00716,0.31642 -1.51654,0.31084 -0.50938,-0.005 -1.03445,-0.10671 -1.51653,-0.31084 -0.96416,-0.40887 -1.78798,-1.18677 -2.29426,-2.21651 -0.25314,-0.51497 -0.41507,-1.08453 -0.46657,-1.71099 -0.0496,-0.62639 -0.0124,-1.31315 0.1942,-2.022 -0.98557,-1.31539 -2.74116,-3.43351 -4.70515,-4.8607 -0.98203,-0.71363 -2.02313,-1.24621 -3.03308,-1.4388 -0.50503,-0.0962 -0.99282,-0.10237 -1.47763,0 -0.48456,0.10238 -0.95318,0.31395 -1.3999,0.66108 -0.92774,0.74502 -2.14572,1.25142 -3.42196,1.67208 -1.27618,0.42066 -2.61583,0.76078 -3.84963,1.20545 -1.23387,0.44485 -2.3491,0.97161 -3.14978,1.78872 -0.40018,0.40887 -0.7145,0.91068 -0.93326,1.47764 -0.21902,0.56708 -0.32263,1.2142 -0.31084,1.98317 0.25872,1.36149 0.0558,2.39371 -0.38902,3.22751 -0.44547,0.83381 -1.13459,1.47057 -1.90536,2.06098 -0.77083,0.59003 -1.61512,1.11864 -2.33316,1.74982 -0.71803,0.63117 -1.30738,1.377 -1.59434,2.33315 0.0987,0.79758 0.0558,1.54086 -0.0776,2.25536 -0.13091,0.71449 -0.37599,1.3958 -0.69992,2.02207 -0.64755,1.25247 -1.64372,2.31981 -2.83869,3.18861 -1.1949,0.86874 -2.56042,1.53919 -4.00517,1.98311 -1.44482,0.44423 -2.95813,0.64414 -4.35523,0.62217 -0.72275,0.71574 -1.58602,1.39624 -2.48864,1.94433 -0.90267,0.54785 -1.82942,0.96962 -2.76088,1.12765 -0.93153,0.15821 -1.83501,0.0658 -2.64425,-0.38902 -0.80924,-0.45416 -1.52497,-1.27729 -2.06091,-2.56644 -0.90646,-0.36171 -1.74318,-0.5739 -2.5276,-0.66107 -0.78436,-0.0875 -1.54005,-0.031 -2.21645,0.11664 -1.35287,0.29036 -2.49367,0.97409 -3.49971,1.94426 -1.0061,0.97025 -1.87167,2.22223 -2.64424,3.53861 -0.77251,1.31638 -1.44754,2.715349 -2.09981,4.044139 -0.78926,0.71462 -1.67159,1.05648 -2.56644,1.08874 -0.89486,0.031 -1.79338,-0.26616 -2.72199,-0.77772 -0.92861,-0.51124 -1.87025,-1.22189 -2.76089,-2.13865 -0.89063,-0.916819 -1.74671,-2.005129 -2.52754,-3.188609 -0.78088,-1.18355 -1.50052,-2.49913 -2.09981,-3.81079 -0.59934,-1.31173 -1.09283,-2.62619 -1.43879,-3.9275 -0.3462101,-1.30124 -0.5236501,-2.58065 -0.5441301,-3.73299 -0.0186,-1.15234 0.12968,-2.16818 0.5056601,-3.03307 -0.6422101,-1.92994 -1.0139801,-3.98439 -1.3220901,-6.33833 -0.30836,-2.35401 -0.53047,-5.03418 -0.93326,-8.20486 -0.42004,-0.74248 -0.60679,-2.31684 -1.12765,-3.8497 -0.26058,-0.76642 -0.62149,-1.5094 -1.12771,-2.13871 -0.0788,-0.098 -0.22397,-0.14146 -0.31084,-0.23328 -0.0248,7.78891 -0.61919,15.56158 -2.72198,23.87569 4.06145,9.53905 1.8056,29.336849 -1.08881,43.435249 -0.63166998,1.04947 -0.81909998,1.13242 -1.28324998,1.86646 0.0825,0.60679 0.0496,1.28965 0.0776,2.02207 0.031,0.85906 0.19667,1.71322 0.85545998,2.37206 0.4374,0.43741 1.27264,0.90584 1.86652,1.39983 0.29719,0.24694 0.50876,0.49883 0.62218,0.73882 0.11354,0.24011 0.10237,0.48146 -0.11665,0.69998 -0.47339,0.47339 -0.82996,0.92153 -1.0499,1.32209 -0.22026,0.4008 -0.28788,0.75253 -0.15573,1.0499 0.13215,0.29719 0.46719,0.53606 1.0499,0.69998 0.58322,0.1638 1.39506,0.27238 2.52754,0.27238 0.80273,0 1.54266,-0.20785 2.21652,-0.50566 0.67379,-0.29781 1.30081,-0.68422 1.8276201,-1.08881 1.05357,-0.80917 1.78196,-1.66066 2.13865,-1.74982 0.44982,-0.1123 0.9682,0.0633 1.4777,0.34993 0.50938,0.28664 1.02744,0.68062 1.51654,1.0499 0.4889,0.36916 0.93375,0.7199 1.32209,0.85546 0.38839,0.13526 0.72603,0.0645 0.93326,-0.34992 0.85298,-1.7059 0.9574,-2.2749 1.0499,-2.25536 0.0924,0.0186 0.13898,0.64457 0.81663,1.32209 0.50317,0.50318 0.77381,0.90814 0.89436,1.32216 0.12036,0.41383 0.11105,0.82921 0.0775,1.24435 -0.031,0.41507 -0.08,0.85477 -0.0372,1.36099 0.0434,0.50628 0.16194,1.0625 0.50566,1.74982 0.49573,0.9909 1.20117,1.56177 1.90543,2.13871 0.7042,0.57701 1.41671,1.16134 1.90536,2.13871 1.01814,2.03628 1.50122,3.00236 2.37206,4.74406 0.43617,0.87227 0.6375,1.88079 0.69992,2.87753 0.0627,0.99673 -0.0248,1.99638 -0.23329,2.83862 -0.36109,1.445 -0.40018,4.94396 -0.46657,5.21069 -0.27485,1.09991 -1.27121,2.16254 -2.06097,3.18862 -0.3946,0.5131 -0.76363,1.0182 -0.93326,1.51653 -0.16938,0.49822 -0.13588,0.99153 0.15573,1.47764 0.47526,0.79186 0.92476,1.58019 1.39989,2.37206 0.69558,0.69557 1.17139,0.90404 1.90537,2.37199 0.20909,0.41756 2.24102,3.08209 2.83869,4.27743 0.27237,0.54412 0.73503,1.73586 1.24435,2.83863 0.50938,1.10282 1.09185,2.14026 1.63318,2.41089 1.13341,0.56646 2.19964,1.17213 3.22752,1.86653 1.02788,0.69445 2.02368,1.47931 2.95527,2.4109 0.8405,0.84057 1.38494,1.25303 1.78872,1.43879 0.4039,0.18551 0.64625,0.14022 0.89442,0 0.24818,-0.14022 0.48208,-0.36854 0.85546,-0.50566 0.37351,-0.13711 0.89194,-0.19481 1.67208,0 1.31273,0.32822 2.60051,0.83363 3.81079,1.4388 0.12595,0.0627 5.83311,0.58383 6.18279,0.9332 0.46967,0.46967 1.16723,1.01491 1.82763,1.63324 0.66039,0.61796 1.26315,1.31949 1.47763,2.17755 0.29161,1.16711 0.59748,1.769 0.97217,2.37206 0.37412,0.60307 0.81389,1.20005 1.39989,2.372 0.39026,0.78069 1.02019,1.46373 1.47764,2.25535 0.22894,0.39584 0.41817,0.79534 0.50565,1.28325 0.0875,0.48767 0.0819,1.07144 -0.0776,1.71099 -0.32635,1.30564 -0.61299,2.414 -0.62218,3.4219 -0.005,0.50379 0.062,0.98507 0.23329,1.43879 0.17434,0.45354 0.43617,0.86359 0.85546,1.28319 0.35303,0.35303 0.88902,0.95864 1.24435,1.82763 0.17744,0.4343 0.30401,0.95082 0.34992,1.51653 0.0434,0.56584 0.0186,1.20688 -0.15573,1.90543 -0.59934,2.39762 -1.95928,4.02608 -2.37205,5.67726 -0.39336,1.57256 -0.3915,2.58108 0,3.34416 0.39149,0.76307 1.16909,1.30397 2.37205,1.90542 0.86738,0.43369 1.30721,0.83555 1.47764,1.24435 0.17062,0.40887 0.085,0.82947 -0.0776,1.24429 -0.16317,0.41507 -0.41135,0.83133 -0.54412,1.28325 -0.13339,0.45168 -0.18241,0.91875 0.0776,1.4388 0.19605,0.39149 0.7529,1.52255 1.39983,2.52754 0.32325,0.50255 0.679,0.99512 1.01106,1.32209 0.33194,0.32697 0.66213,0.49573 0.93327,0.42748 0.61919,-0.15511 1.20861,-0.54474 1.78872,-1.0499 0.58011,-0.50504 1.16202,-1.10103 1.71098,-1.63318 0.54909,-0.53234 1.06846,-1.00821 1.59428,-1.24435 0.52613,-0.23639 1.04469,-0.26617 1.55544,0.11664 0.20412,0.15325 0.60616,0.59872 1.011,0.97216 z"
       id="Curepto"
       inkscape:label="#path2779" />
  </g>
</svg>
