<?xml version="1.0" encoding="UTF-8" standalone="no"?>
<!-- Created with Inkscape (http://www.inkscape.org/) -->

<svg
   width="210mm"
   height="297mm"
   viewBox="0 0 210 297"
   version="1.1"
   id="svg64"
   inkscape:version="1.1.2 (b8e25be833, 2022-02-05)"
   sodipodi:docname="vector.svg"
   xmlns:inkscape="http://www.inkscape.org/namespaces/inkscape"
   xmlns:sodipodi="http://sodipodi.sourceforge.net/DTD/sodipodi-0.dtd"
   xmlns="http://www.w3.org/2000/svg"
   xmlns:svg="http://www.w3.org/2000/svg">
  <sodipodi:namedview
     id="namedview66"
     pagecolor="#ffffff"
     bordercolor="#666666"
     borderopacity="1.0"
     inkscape:pageshadow="2"
     inkscape:pageopacity="0.0"
     inkscape:pagecheckerboard="0"
     inkscape:document-units="mm"
     showgrid="false"
     inkscape:zoom="0.74029882"
     inkscape:cx="361.34057"
     inkscape:cy="345.8063"
     inkscape:window-width="1920"
     inkscape:window-height="1017"
     inkscape:window-x="-8"
     inkscape:window-y="-8"
     inkscape:window-maximized="1"
     inkscape:current-layer="layer1" />
  <defs
     id="defs61" />
  <g
     inkscape:label="Capa 1"
     inkscape:groupmode="layer"
     id="layer1">
    <path
       id="La_Cruz"
       style="fill:#000000;fill-opacity:1;fill-rule:evenodd;stroke:#d38d5f;stroke-width:4.7806;stroke-linecap:butt;stroke-linejoin:miter;stroke-miterlimit:4;stroke-opacity:1"
       d="m 2.7287481,162.65021 c 9.4236899,0.35776 57.3496799,-4.27878 70.5038699,-0.54205 6.86872,1.95085 13.26386,5.53328 18.83924,11.71684 16.436682,-8.29883 14.262322,16.74638 23.540832,21.40279 19.27993,1.81371 39.36625,-2.94949 54.18039,14.01822 10.58214,1.72915 26.82206,-11.34409 36.4697,-4.82662 -4.01607,-16.96103 -10.01732,-28.47713 -11.06385,-38.89882 -1.32441,-13.19611 -21.02823,-17.65865 -30.91655,-27.86298 -10.17397,0.7137 -15.58764,-17.17189 -47.53933,-31.89351 l -16.24768,17.45122 c -10.200722,7.85815 -16.209202,-8.041 -21.663522,-27.079353 -4.101,-5.43788 -8.95815,-9.36361 -16.2475,-8.42478 l -18.65477,5.41602 c -12.00395,6.61937 -12.83943,13.238753 -7.22123,19.858123 L 2.4078181,142.47174 Z"
       sodipodi:nodetypes="csccccsccccccccc"
       inkscape:label="#path1949" />
  </g>
</svg>
