<?xml version="1.0" encoding="UTF-8" standalone="no"?>
<!-- Created with Inkscape (http://www.inkscape.org/) -->

<svg
   width="210mm"
   height="297mm"
   viewBox="0 0 210 297"
   version="1.1"
   id="svg64"
   inkscape:version="1.1.2 (b8e25be833, 2022-02-05)"
   sodipodi:docname="vector.svg"
   xmlns:inkscape="http://www.inkscape.org/namespaces/inkscape"
   xmlns:sodipodi="http://sodipodi.sourceforge.net/DTD/sodipodi-0.dtd"
   xmlns="http://www.w3.org/2000/svg"
   xmlns:svg="http://www.w3.org/2000/svg">
  <sodipodi:namedview
     id="namedview66"
     pagecolor="#ffffff"
     bordercolor="#666666"
     borderopacity="1.0"
     inkscape:pageshadow="2"
     inkscape:pageopacity="0.0"
     inkscape:pagecheckerboard="0"
     inkscape:document-units="mm"
     showgrid="false"
     inkscape:zoom="0.74029882"
     inkscape:cx="361.34057"
     inkscape:cy="561.93525"
     inkscape:window-width="1920"
     inkscape:window-height="1017"
     inkscape:window-x="-8"
     inkscape:window-y="-8"
     inkscape:window-maximized="1"
     inkscape:current-layer="layer1" />
  <defs
     id="defs61" />
  <g
     inkscape:label="Capa 1"
     inkscape:groupmode="layer"
     id="layer1">
    <path
       style="fill:#000000;fill-opacity:1;fill-rule:evenodd;stroke:#d39062;stroke-width:0.609563;stroke-linecap:butt;stroke-linejoin:miter;stroke-miterlimit:4;stroke-dasharray:none;stroke-opacity:1"
       d="m 151.41919,212.80448 c -0.23463,-1.20157 -0.4638,-2.46557 -0.7239,-3.50502 -0.15136,-0.60483 -0.12219,-1.10869 -0.0365,-1.52386 0.0845,-0.41517 0.22978,-0.74227 0.38114,-1.06675 0.15136,-0.3246 0.29299,-0.6196 0.34283,-0.95246 0.0486,-0.33251 0.0304,-0.70264 -0.19026,-1.14291 -0.0638,-0.12766 5.52253,-5.0256 5.6004,-5.18128 0.73746,-1.47499 2.29354,-3.2079 3.2764,-4.19076 0.78445,-0.78451 1.27288,-1.70695 1.60009,-2.66683 0.32703,-0.95994 0.51243,-1.97241 0.76196,-2.97162 0.15683,-0.62768 0.794,-1.62695 1.48581,-2.55255 0.69181,-0.9256 1.43451,-1.7774 1.79059,-2.13349 0.4243,-0.42429 0.6562,-0.82944 0.80002,-1.25719 0.14406,-0.42794 0.21275,-0.865 0.22856,-1.29537 0.0304,-0.86062 -0.0486,-1.72676 0.38113,-2.5906 0.53127,-1.06304 1.25257,-1.77631 1.94298,-2.51445 0.69042,-0.73813 1.33488,-1.48951 1.7906,-2.62878 0.31123,-0.77813 0.0991,-2.20248 -0.15258,-3.65735 -0.25105,-1.45493 -0.53006,-2.94773 -0.30454,-3.84786 0.14467,-0.57808 0.42733,-0.96018 0.76196,-1.25725 0.33433,-0.29725 0.7309,-0.50635 1.10486,-0.72385 0.37384,-0.21761 0.72817,-0.46137 0.99052,-0.80007 0.2626,-0.33858 0.41882,-0.78634 0.41882,-1.4477 0,-1.31597 0.14893,-2.31068 0.11428,-3.23829 -0.0365,-0.92766 -0.26746,-1.79181 -1.06668,-2.85734 -0.44375,-0.59145 -0.38661,-0.97909 -0.11428,-1.25725 0.27232,-0.2784 0.75934,-0.43584 1.29536,-0.60957 0.53614,-0.17324 1.10079,-0.37019 1.4477,-0.64762 0.34709,-0.27718 0.48507,-0.62981 0.19026,-1.21913 -0.68902,-1.37798 -1.30576,-2.34078 -1.44776,-2.93351 -0.0711,-0.29664 -0.0365,-0.47353 0.19026,-0.60957 0.22552,-0.13616 0.62878,-0.22856 1.25726,-0.22856 1.77843,0 2.78877,0.0122 3.42879,-0.34283 0.63996,-0.355 0.90949,-1.04748 1.25719,-2.43828 0.21397,-0.85533 0.49055,-1.47487 0.83819,-1.94298 0.3477,-0.46806 0.7833,-0.81473 1.25719,-1.10486 0.94785,-0.57991 2.13872,-1.00997 3.54307,-2.13343 0.73114,-0.58477 1.61827,-1.51657 2.59067,-2.36205 0.9724,-0.84555 2.00699,-1.57803 3.00973,-1.82871 0.7709,-0.19269 1.43943,-0.27597 2.01915,-0.22856 0.57991,0.0486 1.102,0.22491 1.56204,0.45712 0.92007,0.46441 1.64446,1.22546 2.51444,2.09538 0.44192,0.44192 1.08194,0.45347 1.75248,0.34283 0.6706,-0.11063 1.39432,-0.34283 2.01915,-0.34283 1.97982,0 2.48867,-0.12401 2.6669,-0.5331 0.1781,-0.4091 0.0243,-1.11033 0.6095,-2.28589 0.8481,-1.69601 1.4263,-3.38101 1.86682,-5.14316 0.37202,-1.48836 0.54465,-2.07404 0.41882,-2.70494 -0.12582,-0.63091 -0.56592,-1.32218 -1.37153,-2.93351 -0.84031,-1.68063 -1.19707,-2.18638 -1.18102,-2.66683 0.0182,-0.48022 0.40484,-0.92408 1.18102,-2.47639 0.63212,-1.26418 1.25884,-1.89606 1.63821,-2.47633 0.3793,-0.58051 0.54221,-1.10881 0.26685,-2.20966 -0.14407,-0.57504 0.33372,-1.79448 0.91429,-3.08595 0.53006,-1.17914 1.07124,-2.33318 1.29537,-3.16207 l -0.80008,-0.30454 c 0,-0.78147 -3.06888,-5.14729 -3.77169,-6.5528 -0.25956,-0.51912 -0.61735,-0.90664 -1.06669,-1.18103 -0.44921,-0.27475 -1.00182,-0.44253 -1.56203,-0.57139 -1.12042,-0.25774 -2.37597,-0.33676 -3.46691,-0.60951 -0.58963,-0.14771 -1.19136,-0.0778 -1.79059,0.15257 -0.59936,0.23038 -1.20443,0.61273 -1.75248,1.06675 -1.09611,0.90815 -2.02456,2.12978 -2.55256,3.00973 -0.61157,1.01927 -0.62665,1.83491 -0.83812,2.40016 -0.10577,0.28266 -0.23829,0.49967 -0.5331,0.64768 -0.29482,0.14832 -0.73248,0.22856 -1.40959,0.22856 -2.49924,0 -5.00596,0 -7.50527,0 -1.59176,0 -2.2753,0.38661 -2.32393,0.34284 -0.0486,-0.0426 0.52215,-0.51122 1.37153,-2.20966 0.27597,-0.55255 0.21214,-1.10759 -0.11428,-1.60015 -0.32643,-0.49237 -0.9239,-0.94942 -1.60015,-1.33341 -1.35251,-0.76798 -3.14699,-1.25415 -4.3812,-1.29531 -0.72713,-0.0243 -3.07903,0.40363 -5.2575,0.38114 -1.08924,-0.0122 -2.13684,-0.15805 -2.89546,-0.49542 -0.37931,-0.16837 -0.70433,-0.39511 -0.91429,-0.68579 -0.20971,-0.29056 -0.32217,-0.62659 -0.30454,-1.06669 0.0547,-1.454316 -0.33493,-2.511516 -0.83819,-3.428786 -0.50331,-0.91733 -1.09835,-1.69832 -1.48581,-2.66683 -0.64823,-1.62064 -0.83484,-2.7734 -0.76196,-3.88598 0.0729,-1.11263 0.40545,-2.19245 0.76196,-3.6193 0.17993,-0.72026 0.0547,-1.45407 -0.22855,-2.1716 -0.28509,-0.71747 -0.74628,-1.41992 -1.25726,-2.05726 -0.56349,-0.70319 -0.99143,-1.01727 -1.52392,-1.52387 -0.0304,0.0547 -0.0486,0.0547 -0.076,0.11428 -0.23525,0.4711 -0.62939,0.70944 -1.10486,0.80002 -0.47535,0.0906 -1.03684,0.0182 -1.6382,-0.076 -1.20261,-0.18661 -2.55936,-0.52215 -3.58119,-0.26685 -0.70482,0.17628 -1.21464,0.002 -1.60009,-0.34284 -0.38538,-0.34466 -0.63856,-0.86068 -0.80001,-1.40964 -0.32278,-1.09787 -0.30454,-2.31087 -0.30454,-2.32394 0,-0.52398 -0.25531,-0.97775 -0.6858,-1.37153 -0.43037,-0.39389 -1.03945,-0.72761 -1.67631,-0.99052 -1.27366,-0.5258 -2.70847,-0.76196 -3.46685,-0.76196 -1.51578,0 -2.72312,0.1544 -3.84786,0.19027 -1.12479,0.0365 -2.20163,-0.0547 -3.39074,-0.64769 -0.90037,-0.45043 -1.4759,-0.42186 -1.86676,-0.19026 -0.39086,0.2316 -0.56896,0.66355 -0.72385,1.02863 -0.155,0.36533 -0.26381,0.65832 -0.45711,0.60957 -0.1933,-0.0486 -0.48508,-0.43766 -0.99058,-1.44769 -0.46198,-0.92341 -0.81053,-1.55547 -1.14291,-1.90488 -0.33251,-0.34952 -0.66167,-0.41699 -0.99052,-0.30454 -0.65777,0.22491 -1.42095,1.26856 -2.81923,2.66684 -0.56653,0.56653 -0.96863,1.09586 -1.21914,1.6382 -0.25044,0.54221 -0.36228,1.07082 -0.38113,1.6382 -0.0365,1.1347 0.30272,2.39268 0.6858,3.92408 0.11671,0.46624 -0.0486,0.81406 -0.38114,1.1048 -0.33311,0.29056 -0.83326,0.49784 -1.37146,0.72385 -0.53857,0.22613 -1.10134,0.45104 -1.60015,0.72391 -0.49906,0.27232 -0.92803,0.59875 -1.14291,1.02863 -0.62702,1.25403 -1.29324,1.69631 -1.9811,2.17154 -0.68787,0.47536 -1.38351,0.97654 -2.05727,2.32394 -0.52702,1.05471 -1.20236,1.9518 -2.01915,2.62878 -0.81682,0.67698 -1.7754,1.15817 -2.93354,1.4477 -1.46746,0.36654 -1.99059,0.798 -2.43826,1.25725 -0.44763,0.45894 -0.81295,0.94997 -2.05727,1.44769 -1.10999,0.44375 -2.01432,0.96639 -2.74303,1.52393 -0.72873,0.55741 -1.27493,1.12254 -1.7525,1.60008 -1.05798,1.057996 -1.8486,1.581186 -2.59065,2.133496 -0.74204,0.55255 -1.43554,1.16479 -2.36205,2.40016 -0.76148,1.01526 -1.435492,1.55778 -2.247772,1.86676 -0.81228,0.30879 -1.76979,0.38113 -3.16211,0.38113 -0.32563,0 -0.65375,-0.24497 -0.95244,-0.60951 -0.29871,-0.36411 -0.58744,-0.87059 -0.87625,-1.40964 -0.57759,-1.07811 -1.15026,-2.29318 -1.79059,-2.93351 -0.40496,-0.40484 -0.83073,-0.4486 -1.29532,-0.26685 -0.46459,0.18175 -0.94537,0.5793 -1.44772,1.06674 -1.00467,0.97496 -2.0614,2.26893 -3.0859,2.78118 -0.37968,0.18965 -0.53468,0.72451 -0.91435,0.91429 -0.3322,0.16595 -0.31931,0.35743 -0.11422,0.5714 0.20503,0.21396 0.61224,0.46137 1.06673,0.72384 0.45451,0.2626 0.95535,0.52702 1.37152,0.83813 0.41621,0.31123 0.74807,0.66829 0.83815,1.02863 0.20583,0.82336 0.24643,1.50466 0.19051,2.13349 -0.0559,0.62884 -0.2175,1.18741 -0.45718,1.67632 -0.4793,0.97775 -1.23543,1.73066 -1.98108,2.47633 -0.97815,0.97812 -1.66455,1.439 -2.09538,2.09537 -0.43079,0.65638 -0.60956,1.5153 -0.60956,3.31452 1e-5,0.43402 -1.0967,1.47177 -2.20966,2.43822 -1.11297,0.9665 -2.27342,1.85508 -2.32396,2.05732 -0.26692,1.06766 -1.03252,2.09246 -1.98108,2.89539 -0.94857,0.80299 -2.08013,1.37725 -2.97163,1.60009 -0.4517,0.11306 -0.83861,0.40302 -1.21912,0.76196 -0.38053,0.35925 -0.7404,0.78992 -1.06674,1.25725 -0.65267,0.9346 -1.21443,1.93831 -1.7525,2.47633 -2.06269,2.06268 -2.95859,3.87296 -4.95269,5.86707 -0.19051,0.19026 -0.97995,0.09 -1.94299,0.15258 -0.48149,0.0304 -1.00404,0.0845 -1.5239,0.26685 -0.51985,0.18236 -1.0308,0.45955 -1.48581,0.91435 -0.95875,0.95873 -1.82258,2.15489 -2.62875,2.89539 -0.40307,0.37019 -0.79441,0.61225 -1.18103,0.6858 -0.3866,0.0735 -0.75831,-0.0365 -1.14293,-0.41882 -0.92771,-0.92773 -1.58772,-1.41426 -2.13347,-1.71443 -0.54574,-0.30028 -0.95652,-0.41031 -1.44771,-0.5331 -1.42488,-0.35621 -2.87808,-0.30819 -4.07646,0.076 -0.59917,0.19208 -1.1394,0.47109 -1.6001,0.83818 -0.4607,0.36715 -0.83721,0.79813 -1.10483,1.33342 -0.90151,1.80299 -2.58499,4.80543 -4.03836,6.74325 -1.14065,1.52088 -1.98996,2.62404 -2.62874,3.84786 -0.63879,1.22388 -1.05323,2.5858 -1.40962,4.72416 -0.0981,0.58902 -3.18174,5.42946 -3.61928,5.86701 -0.26637,0.26624 -0.53371,0.5337 -0.80005,0.80007 1.31401,1.21294 3.24144,3.07338 3.20021,3.23829 -0.26102,1.04401 -0.64234,2.44575 -0.53335,3.58119 0.0547,0.56774 0.23604,1.08717 0.60957,1.44769 0.37347,0.36047 0.94704,0.5714 1.79059,0.5714 1.04346,0 2.24195,0.19208 3.2764,0.57139 1.03445,0.37931 1.88122,0.94323 2.28586,1.75248 0.33931,0.67856 0.50447,1.29409 0.49529,1.82871 -0.01,0.53431 -0.18929,1.01216 -0.49529,1.4477 -0.61199,0.87107 -1.74923,1.57942 -3.2383,2.32393 -0.56483,0.28266 -1.32934,0.35621 -2.13347,0.34284 -0.80414,-0.0122 -1.64847,-0.13677 -2.43825,-0.19026 -0.78979,-0.0547 -1.49745,-0.0486 -2.01919,0.11427 -0.52173,0.16109 -0.87624,0.47353 -0.87624,1.1048 0,0.83351 0.0777,1.3153 -0.30479,1.4477 -0.3824,0.13251 -1.20476,-0.0632 -2.93352,-0.49541 -1.26789,-0.3167 -2.10909,-0.79734 -2.85733,-1.37153 -0.74824,-0.57444 -1.42633,-1.26023 -2.28586,-1.90488 -1.13562,-0.85174 -1.64173,-1.64908 -2.20967,-2.01921 -0.284,-0.18479 -0.5765,-0.28022 -0.95244,-0.19026 -0.37591,0.09 -0.86204,0.37019 -1.48581,0.83813 -0.844189,0.63315 -1.643248,1.77618 -2.476354,2.66683 -0.416571,0.44557 -0.820602,0.82269 -1.25722,1.02863 -0.436631,0.20607 -0.899607,0.23585 -1.371518,0 -1.055962,-0.52823 -2.028336,-1.3353 -3.009719,-1.67631 -0.49067,-0.17081 -0.983176,-0.21093 -1.4858086,-0.0365 -0.502645,0.17263 -1.027058,0.54404 -1.562012,1.25719 -0.521793,0.6957 -0.913563,1.56999 -1.447708,2.47639 -0.534132,0.90639 -1.220274,1.86761 -2.285865,2.66683 -1.152448,0.86432 -1.759452,1.44459 -2.019175,1.86676 -0.259742,0.42186 -0.15373,0.66634 0.07616,0.91435 0.229896,0.24801 0.597837,0.49602 0.914342,0.83813 0.316516,0.34223 0.571455,0.78202 0.571455,1.48581 0,1.12856 -0.317671,2.44982 -0.533342,3.58118 -0.215732,1.13137 -0.321258,2.07897 0.07617,2.47639 0.170203,0.17021 0.965153,1.44454 1.676297,2.743 0.711143,1.29853 1.326627,2.59748 1.104834,2.81923 -0.93034,0.93034 -1.252801,1.95745 -1.600106,2.93356 -0.347274,0.97612 -0.69929,1.9157 -1.638201,2.66684 -0.775815,0.62063 -1.548134,1.24612 -2.32396004,1.86676 l -0.419064,1.02863 c 0.492251,0.1775 1.04744004,0.40362 1.48581504,0.5331 1.000573,0.29603 1.816617,0.41274 2.400157,0.26685 1.415253,-0.35378 2.254809,-0.75248 2.704934,-1.21914 0.450126,-0.46684 0.528844,-1.00468 0.49529,-1.52392 -0.03343,-0.51912 -0.192815,-1.05051 -0.228558,-1.56197 -0.03586,-0.51122 0.05167,-1.00426 0.49529,-1.4477 1.005011,-1.00505 2.12675,-2.53906 3.0859146,-3.84792 0.95916,-1.3088 1.763513,-2.39335 2.095372,-2.47633 0.557475,-0.1392 0.985772,-0.14345 1.371518,-0.0365 0.385753,0.10516 0.703752,0.33554 0.990538,0.64768 0.573583,0.62465 1.023653,1.62824 1.638201,2.85734 0.560575,1.12109 1.145835,1.70045 1.752498,1.9811 0.606651,0.28084 1.232035,0.2705 1.866785,0.19026 0.63475,-0.0802 1.29817,-0.22916 1.94298,-0.19026 0.64482,0.0365 1.26801,0.2395 1.90489,0.87624 0.75265,0.7526 1.80201,1.54715 2.78113,2.40016 0.97912,0.85296 1.89574,1.77224 2.40016,2.78112 0.60561,1.21123 1.13916,1.6788 1.6382,1.75248 0.49906,0.0735 0.98393,-0.24133 1.48581,-0.60957 0.50185,-0.36776 1.02404,-0.76221 1.6382,-0.87624 0.30709,-0.0547 0.63487,-0.0608 0.99054,0.076 0.35566,0.13677 0.72499,0.38235 1.14293,0.80002 0.74588,0.74591 1.45334,1.19907 2.13347,1.44769 0.68013,0.24862 1.33296,0.29846 1.98108,0.34284 0.64812,0.0426 1.29308,0.0547 1.94298,0.19026 0.64991,0.13252 1.33374,0.39998 2.01919,0.91435 1.83006,1.37257 2.55526,2.22388 3.61928,2.743 1.06401,0.51912 2.45103,0.6858 5.56226,0.6858 1.36387,0 2.22717,0.21214 2.74304,0.5331 0.51583,0.32095 0.6749,0.75175 0.68575,1.18102 0.0219,0.85855 -0.63108,1.73759 -0.57145,1.75248 0.39353,0.0985 1.43748,0 5.75275,0 2.56096,0 4.02749,-0.21518 5.33368,-0.68573 1.3062,-0.47049 2.47096,-1.2164 4.45743,-2.20966 1.09559,-0.54769 1.62565,-0.62391 1.86679,-0.45711 0.24114,0.16655 0.16777,0.60859 0.15239,1.10485 -0.0152,0.49602 0.017,1.04517 0.3429,1.48581 0.326,0.44071 0.98246,0.7619 2.24776,0.7619 0.6271,0 1.49058,-0.32095 2.51445,-0.7619 1.02387,-0.4407 2.17141,-0.98936 3.3145,-1.48581 1.14309,-0.49662 2.29164,-0.9383 3.27641,-1.10485 0.49237,-0.0833 0.93265,-0.10942 1.33341,-0.0365 0.40077,0.0717 0.7542,0.22066 1.02864,0.49541 0.25537,0.25531 0.53219,0.58295 0.76196,0.83813 0.36666,-0.50088 0.69346,-0.86135 1.18103,-1.40958 0.46623,-0.52459 1.01413,-1.04717 1.71439,-1.40964 0.70027,-0.36229 1.5356,-0.5714 2.59064,-0.5714 1.74307,0 2.78478,0.28509 3.73358,0.49541 0.9488,0.21032 1.823522,0.33433 3.314502,-0.0365 0.84287,-0.21093 1.21815,-0.52277 1.37152,-0.83813 0.15336,-0.31548 0.0797,-0.65272 0.0762,-0.91435 -0.004,-0.26138 0.0468,-0.44557 0.41907,-0.49541 0.37201,-0.0486 1.04376,0.0608 2.32396,0.38113 2.05095,0.51243 3.19028,1.17811 4.00025,1.33342 0.40496,0.0778 0.74096,0.0486 1.06674,-0.22856 0.32576,-0.27415 0.62806,-0.79892 1.02863,-1.60009 0.30151,-0.603 0.82498,-0.90092 1.44772,-0.99058 0.62274,-0.0893 1.35755,0.065 2.13347,0.30454 1.55185,0.47961 3.26324,1.40174 4.41934,2.09538 0.64458,0.3866 0.73224,0.73576 1.14291,0.99058 0.41092,0.2547 1.11763,0.41882 3.04785,0.41882 0.92243,0 1.52921,-0.0912 1.98103,-0.26685 0.45165,-0.17568 0.76968,-0.41335 1.06675,-0.64768 0.29725,-0.23403 0.57018,-0.47171 1.02863,-0.64769 0.45833,-0.17567 1.08401,-0.30454 2.01921,-0.30454 1.89898,0 3.63949,0.37262 5.37178,0.72391 1.73224,0.35135 3.45974,0.68574 5.40984,0.68574 0.36411,0 0.69224,-0.70689 1.06674,-1.52393 0.37445,-0.81703 0.81454,-1.72883 1.29537,-2.20965 0.89751,-0.89752 1.92718,-1.37202 3.04778,-1.7906 1.1206,-0.41882 2.32442,-0.81551 3.50502,-1.52392 0.68531,-0.41092 1.16626,-0.54282 1.6382,-0.68573 z"
       id="Pencahue"
       inkscape:label="#path2888" />
  </g>
</svg>
