<?xml version="1.0" encoding="UTF-8" standalone="no"?>
<!-- Created with Inkscape (http://www.inkscape.org/) -->

<svg
   width="210mm"
   height="297mm"
   viewBox="0 0 210 297"
   version="1.1"
   id="svg64"
   inkscape:version="1.1.2 (b8e25be833, 2022-02-05)"
   sodipodi:docname="vector.svg"
   xmlns:inkscape="http://www.inkscape.org/namespaces/inkscape"
   xmlns:sodipodi="http://sodipodi.sourceforge.net/DTD/sodipodi-0.dtd"
   xmlns="http://www.w3.org/2000/svg"
   xmlns:svg="http://www.w3.org/2000/svg">
  <sodipodi:namedview
     id="namedview66"
     pagecolor="#ffffff"
     bordercolor="#666666"
     borderopacity="1.0"
     inkscape:pageshadow="2"
     inkscape:pageopacity="0.0"
     inkscape:pagecheckerboard="0"
     inkscape:document-units="mm"
     showgrid="false"
     inkscape:zoom="0.74029882"
     inkscape:cx="361.34057"
     inkscape:cy="561.93525"
     inkscape:window-width="1920"
     inkscape:window-height="1017"
     inkscape:window-x="-8"
     inkscape:window-y="-8"
     inkscape:window-maximized="1"
     inkscape:current-layer="layer1" />
  <defs
     id="defs61" />
  <g
     inkscape:label="Capa 1"
     inkscape:groupmode="layer"
     id="layer1">
    <path
       style="fill:#000000;fill-opacity:1;fill-rule:evenodd;stroke:#d39062;stroke-width:0.912169;stroke-linecap:butt;stroke-linejoin:miter;stroke-miterlimit:4;stroke-dasharray:none;stroke-opacity:1"
       d="m 91.672249,226.74889 c -0.48119,-0.92964 -0.8969,-1.91432 -1.48224,-2.79357 -1.02943,-1.54582 -2.23488,-2.98304 -3.70566,-4.33275 0.81867,-0.27289 1.4283,-0.72043 1.8813,-1.25429 0.453,-0.53395 0.76682,-1.1656 0.96921,-1.8813 0.40388,-1.43149 0.42116,-3.15478 0.51303,-4.84588 0.0919,-1.69118 0.26835,-3.34926 0.96922,-4.67487 0.3502,-0.66312 0.80684,-1.25611 1.48224,-1.71038 0.67586,-0.4539 1.56402,-0.74498 2.6795,-0.91217 0.60036,-2.38915 0.94629,-4.46502 1.08328,-6.32813 0.13736,-1.8631 0.0364,-3.55502 -0.17101,-5.13095 -0.41388,-3.15196 -1.38064,-5.96973 -2.45146,-9.40677 -0.25105,-1.18107 -0.34111,-2.09388 -0.28471,-2.79348 0.0546,-0.6995 0.26834,-1.15023 0.57034,-1.48233 0.60399,-0.66403 1.63779,-0.74863 2.85051,-0.62674 1.21281,0.12189 2.60937,0.46028 3.933791,0.45573 0.66221,-0.002 1.2844,-0.0819 1.8813,-0.28472 0.59672,-0.20466 1.18388,-0.56215 1.65334,-1.08319 1.04117,-3.28395 2.16866,-5.61852 3.36364,-7.12632 0.59763,-0.75408 1.20353,-1.30678 1.82426,-1.65335 0.62128,-0.34656 1.24747,-0.49211 1.88139,-0.45572 0.40661,0.0273 0.4812,0.32656 0.57034,0.85505 0.091,0.5285 0.18375,1.2965 0.57034,2.10935 0.3866,0.81321 1.09492,1.69027 2.39442,2.56552 1.29959,0.87507 3.21491,1.73539 6.04314,2.45146 1.46878,1.51981 3.15096,2.7831 4.95994,3.70565 1.80899,0.92255 3.73277,1.50726 5.58705,1.59631 1.85419,0.091 3.64043,-0.33019 5.24493,-1.31123 0.8023,-0.49029 1.53892,-1.07937 2.22341,-1.88139 0.68405,-0.80229 1.35153,-1.76432 1.88139,-2.90755 2.07169,0.17283 4.08243,-0.24287 5.92907,-1.08318 1.84664,-0.8405 3.50936,-2.1078 4.78894,-3.64863 1.27957,-1.54091 2.19494,-3.37455 2.56543,-5.30205 0.18556,-0.96376 0.22013,-1.9629 0.1137,-2.96449 -0.10642,-1.00169 -0.35748,-2.02129 -0.79774,-3.02161 1.2169,-1.46142 2.72989,-2.62847 4.38988,-3.53465 1.65989,-0.90599 3.4616,-1.51926 5.359,-1.99537 3.79471,-0.9522 7.83374,-1.21372 11.3451,-1.19725 1.33388,0.49484 3.65772,1.32897 5.359,2.28044 0.8505,0.47574 1.54019,0.95939 1.8813,1.48225 0.34111,0.52303 0.34111,1.071 -0.22832,1.59631 -0.45209,0.41752 -0.71497,0.90326 -0.85505,1.36827 -0.14009,0.46482 -0.151,0.94701 0,1.4253 0.302,0.95657 1.16678,1.8752 2.50849,2.6795 1.3417,0.80411 3.14532,1.44658 5.359,1.82435 2.21359,0.3775 4.83523,0.49393 7.75342,0.17101 0.92018,-0.5385 1.63597,-1.19843 2.22341,-1.99536 0.58762,-0.79684 1.05963,-1.70984 1.4253,-2.6795 0.73135,-1.93934 1.14377,-4.15574 1.65326,-6.27118 0.50939,-2.11544 1.10529,-4.15283 2.28044,-5.75806 0.58763,-0.80229 1.30305,-1.50607 2.22342,-2.0524 0.92036,-0.54669 2.05649,-0.93583 3.42066,-1.14022 0.47756,-1.33852 0.25743,-2.69142 -0.34202,-4.04777 -0.59945,-1.35626 -1.58303,-2.73672 -2.6795,-4.10471 -1.09647,-1.36799 -2.29327,-2.73117 -3.3066,-4.1048 -1.01333,-1.37364 -1.81635,-2.73144 -2.16638,-4.1048 -0.28835,-3.25221 -0.72224,-5.29469 -1.25429,-6.49914 -0.26652,-0.60217 -0.60308,-0.9794 -0.91217,-1.19725 -0.30837,-0.21831 -0.63038,-0.30928 -0.96913,-0.22832 -0.67767,0.16282 -1.38364,0.8596 -2.10943,1.71029 -0.72589,0.8505 -1.43412,1.87893 -2.10934,2.73653 -1.9901,0.55306 -3.79926,0.60036 -5.30206,0.22832 -1.50271,-0.37204 -2.71552,-1.14832 -3.64862,-2.22341 -0.9331,-1.07509 -1.54319,-2.49266 -1.82436,-4.04777 -0.28108,-1.5551 -0.22468,-3.26139 0.22832,-5.07392 -1.98227,-1.15269 -3.53765,-2.73317 -4.7319,-4.50386 -1.19426,-1.77069 -2.03394,-3.76914 -2.6795,-5.70102 -1.29113,-3.86384 -1.74777,-7.581139 -2.28045,-9.349729 -2.86597,-0.0364 -5.73495,-0.35294 -8.55153,-1.14023 -2.81658,-0.78683 -5.58878,-2.0141 -8.09554,-3.81972 -1.14058,-0.8214 -2.63957,-1.63543 -3.9337,-2.62247 -0.64675,-0.49393 -1.24383,-1.04225 -1.71038,-1.65334 -0.46664,-0.61127 -0.77227,-1.27294 -0.91208,-2.0524 1.21745,-0.82686 1.94715,-1.68009 2.33738,-2.5084 0.39024,-0.82868 0.40752,-1.64707 0.17101,-2.45146 -0.2365,-0.80411 -0.70405,-1.58176 -1.36826,-2.33748 -0.66403,-0.7559 -1.5038,-1.48442 -2.39442,-2.16637 0.94528,-1.00142 1.55237,-1.94416 1.88139,-2.79357 0.32928,-0.8496 0.37112,-1.62597 0.1137,-2.28036 -0.25652,-0.65493 -0.78501,-1.17961 -1.59631,-1.59631 -0.81139,-0.41661 -1.91368,-0.71952 -3.24957,-0.85505 -1.48443,-0.34748 -2.46055,-0.69496 -3.07855,-1.02625 -0.61764,-0.33201 -0.88326,-0.62946 -0.85506,-0.96912 0.0546,-0.6804 1.1848,-1.41957 2.5084,-2.28044 1.3237,-0.86051 2.87498,-1.84037 3.70575,-3.07856 0.4157,-0.61946 0.66494,-1.30214 0.62673,-2.0524 -0.0364,-0.75045 -0.37204,-1.60241 -1.08319,-2.50849 -1.54537,-0.79866 -3.55047,-1.4424 -5.81509,-2.0524 -2.26461,-0.61036 -4.76683,-1.18279 -7.29733,-1.71029 -1.73357,-0.36112 -2.99587,-0.77501 -4.67487,-1.14022 0.0455,1.74713 -0.10824,3.72275 -0.57034,5.359 -3.37837,1.08692 -3.86775,12.51934 -4.90291,21.77802 -0.44117,3.94407 -8.75329,5.0067 -12.65633,5.58705 -7.49309,0.59308 -9.98184,6.3817 -15.677951,11.63018 0.83777,5.628519 -16.4062,5.747689 -15.73489,15.506849 -3.82336,5.97036 -2.04258,16.45686 -12.08627,15.67794 -5.6499,4.20777 -5.88704,12.65834 -9.12169,18.64244 1.76723,2.87198 3.54029,5.80663 -1.93833,8.60866 -4.93612,6.3243 -12.22344,14.1574 -16.36208,17.38823 -3.41931,0.30655 -6.74756,0.69132 -8.15248,4.27581 -3.83119,5.81482 -10.6113,9.05793 -16.30505,11.63009 -2.02411,15.03966 -15.72661047,3.46761 -2.79357,34.49149 -5.0002405,9.43396 -9.7092205,9.94563 -12.77031047,15.2788 2.14654997,-0.28471 4.97877997,-0.32292 6.84124997,-1.2542 1.89057,-0.94529 4.4353605,-2.4742 5.5300105,-3.93379 2.42835,-2.55006 5.35363,0.71042 9.06475,-5.87203 -1.06282,-5.78244 10.88528,-0.7459 16.87511,-0.79775 -0.62583,3.59559 3.52782,4.26208 7.4114,3.36363 1.52109,-0.35202 2.88762,4.50386 3.19253,4.50386 5.37292,1.90686 5.34145,-1.38682 7.12633,-5.13096 3.95362,1.92933 6.88563,6.58564 8.60865,1.59632 3.54511,-0.13827 7.31626,1.77323 7.06929,5.87212 0.28654,1.16151 2.15055,1.41093 6.32822,1.59622 3.39683,0.15009 0.92555,3.32006 1.53927,3.93379 1.68328,1.68336 2.22678,3.08529 3.42058,5.47298 1.78224,3.56448 3.72412,-0.091 3.19262,-0.79775 -1.98254,-2.64339 -0.55214,-3.66654 1.2542,-5.47307 2.63593,-2.61791 1.04417,-5.73167 2.0524,-9.23566 -0.0637,-2.95076 0.26289,-3.59241 1.31124,-3.13559 z"
       id="Pelluhue"
       inkscape:label="#path2736" />
  </g>
</svg>
