<?xml version="1.0" encoding="UTF-8" standalone="no"?>
<!-- Created with Inkscape (http://www.inkscape.org/) -->

<svg
   width="210mm"
   height="297mm"
   viewBox="0 0 210 297"
   version="1.1"
   id="svg1283"
   inkscape:version="1.1.2 (b8e25be833, 2022-02-05)"
   sodipodi:docname="vector.svg"
   xmlns:inkscape="http://www.inkscape.org/namespaces/inkscape"
   xmlns:sodipodi="http://sodipodi.sourceforge.net/DTD/sodipodi-0.dtd"
   xmlns="http://www.w3.org/2000/svg"
   xmlns:svg="http://www.w3.org/2000/svg">
  <sodipodi:namedview
     id="namedview1285"
     pagecolor="#ffffff"
     bordercolor="#666666"
     borderopacity="1.0"
     inkscape:pageshadow="2"
     inkscape:pageopacity="0.0"
     inkscape:pagecheckerboard="0"
     inkscape:document-units="mm"
     showgrid="false"
     inkscape:zoom="0.52347032"
     inkscape:cx="155.69173"
     inkscape:cy="611.30496"
     inkscape:window-width="1920"
     inkscape:window-height="1017"
     inkscape:window-x="-8"
     inkscape:window-y="-8"
     inkscape:window-maximized="1"
     inkscape:current-layer="layer1" />
  <defs
     id="defs1280" />
  <g
     inkscape:label="Capa 1"
     inkscape:groupmode="layer"
     id="layer1">
    <path
       d="m 182.86857,222.71943 c 0.0694,-0.5571 -0.13785,-1.33561 0.0653,-1.77762 0.49016,-1.06461 1.28723,-1.87802 2.10683,-2.63358 0.81963,-0.75504 1.65545,-1.47938 2.17266,-2.43594 0.51721,-0.95605 0.74617,-2.15085 0.32916,-3.81869 -0.39834,-1.59355 -0.85259,-3.1467 -1.25092,-4.74025 v -22.71419 l 4.80618,1.18511 15.53777,-16.72292 c 1.33833,-1.78445 2.11474,-2.95457 2.50186,-3.75277 0.38712,-0.7979 0.42313,-1.24909 0.19733,-1.71181 -0.22559,-0.46221 -0.68515,-0.93361 -1.18509,-1.71181 -0.49996,-0.77749 -1.07845,-1.87782 -1.51426,-3.62116 -0.14285,-0.57138 -0.92442,-5.00982 -1.11925,-9.34898 -0.0969,-2.16953 -0.004,-4.33396 0.32915,-5.92537 0.16652,-0.79586 0.39477,-1.44815 0.72423,-1.90934 0.32947,-0.46119 0.72148,-0.72444 1.25094,-0.72444 0.45772,-2.74622 0.42925,-5.98577 0.13173,-9.01982 -0.29753,-3.03406 -0.85412,-5.85252 -1.31675,-7.70309 -0.29753,-1.18991 -0.29998,-2.44635 -0.13173,-3.75278 0.16826,-1.30643 0.48272,-2.67612 0.85586,-4.08194 0.74637,-2.81172 1.64594,-5.7817 1.64596,-8.8882 0,-1.83904 -0.20774,-3.3474 -0.52669,-4.67444 -0.31896,-1.32704 -0.74454,-2.518284 -1.11925,-3.621164 -0.37467,-1.10287 -0.68873,-2.12524 -0.85586,-3.29189 -0.16713,-1.16665 -0.17182,-2.43186 0.13173,-3.95031 0.25396,-1.2696 -0.21478,-2.19667 -1.11926,-2.89682 -0.90442,-0.69995 -2.2105,-1.22909 -3.75278,-1.58019 -3.08458,-0.70199 -6.96837,-0.88565 -9.48069,-1.51427 -2.17829,-0.54486 -3.78266,-0.47956 -5.13538,-0.0612 -1.35272,0.41425 -2.44189,1.13328 -3.48942,2.04097 -1.04753,0.90809 -2.09506,1.96066 -3.35776,2.89682 -1.26267,0.93666 -2.74213,1.80486 -4.74035,2.30441 -1.3835,0.3459 -2.66652,0.1704 -3.95029,-0.32956 -1.28374,-0.49894 -2.56812,-1.34204 -3.81861,-2.23851 -1.25047,-0.89687 -2.46902,-1.85404 -3.75277,-2.69928 -1.28374,-0.84484 -2.63261,-1.56345 -4.01612,-1.90935 -0.39844,-1.99199 -0.78667,-3.99918 -1.18509,-5.99128 -0.13673,-0.68362 -0.45027,-1.13787 -0.85596,-1.44846 -0.40558,-0.31018 -0.89911,-0.49588 -1.51426,-0.52649 -1.23026,-0.0612 -2.83138,0.35814 -4.54284,0.85606 -1.71148,0.49792 -3.54992,1.07216 -5.26706,1.38255 -1.71713,0.31018 -3.29561,0.36017 -4.54283,-0.26325 -1.72161,-0.86116 -2.952,-1.07747 -3.95029,-0.98768 -0.99829,0.0918 -1.80032,0.51119 -2.56769,0.98768 -0.76739,0.47547 -1.53886,0.95299 -2.56769,1.25093 -1.02884,0.29793 -2.2993,0.37956 -4.08197,-0.0612 -3.09837,-0.77443 -5.09453,-0.69995 -6.97884,-0.78974 -1.88431,-0.0918 -3.67685,-0.32446 -6.18879,-1.58008 -2.6185,-1.30919 -5.07892,-3.34169 -7.17637,-5.5304 -2.09744,-2.18871 -3.79635,-4.56414 -4.74035,-6.45216 -0.40201,-0.80403 -0.46996,-1.74834 -0.39507,-2.83101 0.0755,-1.08268 0.306,-2.28748 0.5267,-3.48943 0.2208,-1.20195 0.42548,-2.3936 0.46088,-3.55524 0.0357,-1.16175 -0.11142,-2.26402 -0.59251,-3.22609 -0.69892,-1.39785 -1.96163,-2.36451 -3.4894,-2.96273 -1.5278,-0.59792 -3.30237,-0.82341 -5.20123,-0.92136 -3.46352,-0.1806 -6.99925,0.19182 -9.54653,0.26325 0.52302,0.18263 1.44768,0.33568 1.77763,0.52649 0.83391,0.48363 1.12336,1.00808 1.25091,1.7118 0.12765,0.70403 0.12918,1.58764 0.26335,2.69939 0.13407,1.11175 0.39732,2.44074 1.25092,4.14785 0.77076,1.54152 1.4973,3.53677 1.77764,5.59621 0.13998,1.02972 0.19396,2.04801 0.0653,3.09436 -0.12836,1.04645 -0.42783,2.10647 -0.92177,3.09446 -2.45343,4.90687 -2.9053,5.8317 -3.42358,6.18871 -0.51822,0.35712 -1.11123,0.12346 -3.81861,2.83111 -0.76208,0.76219 -2.07887,2.13474 -3.35774,3.75278 -1.27888,1.61794 -2.51063,3.52453 -2.96272,5.33286 -1.13306,4.53221 -0.80453,7.82665 -1.77763,11.719214 -0.31752,1.26991 -0.88299,2.16535 -1.58011,2.83101 -0.69719,0.66526 -1.55316,1.10339 -2.43603,1.58009 -0.88289,0.47649 -1.8248,0.94278 -2.69935,1.646 -0.87462,0.703 -1.69792,1.61824 -2.37017,2.96273 -0.66159,1.32306 -0.84188,2.29728 -0.79005,3.02855 0.052,0.73157 0.37293,1.2698 0.72423,1.77762 0.3513,0.50812 0.75076,0.99278 0.98758,1.64599 0.23682,0.65302 0.29171,1.46693 0,2.63348 -0.3416,1.36632 -0.84065,2.35859 -1.44843,3.09436 -0.60781,0.73565 -1.30902,1.17633 -1.97515,1.58018 -0.66607,0.40405 -1.32702,0.74892 -1.84346,1.1192 -0.51649,0.37038 -0.89462,0.81321 -1.05342,1.44846 -0.52435,2.09729 -0.73657,3.86849 -1.0534,5.59631 -0.31681,1.72773 -0.72464,3.35853 -1.64595,5.20114 -1.57332,3.1466 -2.26037,3.9345 -3.0944,4.21366 -0.83402,0.27957 -1.82331,0.0918 -4.14781,1.25093 -2.53602,1.26806 -3.65504,1.94311 -4.93786,2.30431 -1.28281,0.3612 -2.74183,0.39487 -5.92543,0.39487 -4.917085,0 -8.881224,-0.92136 -13.562675,-0.92136 -3.020393,0 -5.949692,0.26529 -8.690637,-0.0612 -1.370457,-0.16529 -2.681419,-0.49894 -3.950293,-1.05349 -1.268873,-0.55404 -2.474975,-1.35571 -3.621092,-2.50185 -0.624137,-0.62444 -2.8155735,-1.99342 -5.0036935,-2.63348 -1.09407,-0.32038 -2.205985,-0.42445 -3.094398,-0.19692 -0.888402,0.22651 -1.55845298,0.83463 -1.84346198,1.97516 -0.295284,1.18113 -0.190598,2.03423 0.197332,2.69928 0.38823598,0.66526 1.00778098,1.11359 1.84348298,1.58019 1.671271,0.9336 4.013491,1.77497 6.057102,3.81859 0.23386,0.23365 8.2257035,6.19698 8.1639425,6.32044 -0.442313,0.88462 -1.074673,2.68847 -1.843482,4.477 -0.04183,0.10204 -0.08877,0.1653 -0.131725,0.26325 0.132745,0 0.262225,0 0.39497,0 1.574136,0 2.851141,0.4367 3.818608,1.1193 0.967478,0.6826 1.669792,1.62161 2.172662,2.7652 1.00574,2.28707 1.185084,5.29409 1.185084,8.09806 0,1.69059 0.379257,3.21741 1.05341,4.54282 0.674132,1.32551 1.700187,2.43583 2.896882,3.35781 1.196705,0.92237 2.580152,1.62661 4.147808,2.10677 1.567647,0.48058 3.282547,0.72444 5.069545,0.72444 4.051259,0 6.587009,0.42344 8.624789,1.38265 2.03779,0.95911 3.58757,2.46828 5.72792,4.60863 4.40945,4.40946 9.2088,10.74215 11.91672,14.35269 1.62284,2.16381 2.63306,4.00429 3.75277,5.72793 1.11972,1.72365 2.40965,3.30506 4.67451,5.0037 2.33671,1.75252 4.76051,2.84458 7.50555,3.68697 2.74505,0.84279 5.80106,1.45019 9.21734,2.30431 3.10859,0.7775 5.66184,1.37429 8.4273,1.77762 2.76544,0.40303 5.7227,0.59282 9.48069,0.59282 0.56343,0 1.33213,0.59179 2.17266,1.51437 0.84055,0.92238 1.76814,2.21943 2.63353,3.55524 1.7308,2.67153 3.2387,5.64672 3.55526,6.91295 0.35722,1.42907 1.01503,2.42267 1.90931,3.16027 0.89422,0.7377 2.06203,1.20307 3.2919,1.58008 2.45976,0.75403 5.37243,1.139 7.96642,2.43604 1.3724,0.68668 2.5995,2.65449 4.21364,4.80617 0.80709,1.07584 1.69667,2.18759 2.76521,3.22608 0.0122,-0.0102 0.0531,0.0102 0.0653,0 0.78484,-0.73362 1.54492,-1.51917 2.436,-2.04097 1.32367,-0.77545 2.6373,-1.25092 3.62112,-1.25092 5.97616,0 11.99767,0 17.97382,0 0.74137,0 1.406,-0.53262 2.10681,-1.31674 0.70086,-0.78463 1.4426,-1.78527 2.30434,-2.83111 0.86177,-1.04574 1.80448,-2.11249 3.02855,-2.89682 1.2241,-0.78464 2.68916,-1.31674 4.47701,-1.31674 0.52843,-1e-4 6.99218,-7.99317 8.36143,-10.73164 0.52139,-1.04277 1.42914,-1.65487 2.50187,-2.04096 0.72259,-0.26019 1.59186,-0.351 2.43599,-0.46119 z"
       style="fill:#000000;fill-opacity:1;fill-rule:evenodd;stroke:#d39062;stroke-width:1.05341;stroke-linecap:butt;stroke-linejoin:miter;stroke-miterlimit:4;stroke-dasharray:none;stroke-opacity:1"
       id="Portezuelo"
       inkscape:connector-curvature="0" />
  </g>
</svg>
