<?xml version="1.0" encoding="UTF-8" standalone="no"?>
<!-- Created with Inkscape (http://www.inkscape.org/) -->

<svg
   width="210mm"
   height="297mm"
   viewBox="0 0 210 297"
   version="1.1"
   id="svg64"
   inkscape:version="1.1.2 (b8e25be833, 2022-02-05)"
   sodipodi:docname="vector.svg"
   xmlns:inkscape="http://www.inkscape.org/namespaces/inkscape"
   xmlns:sodipodi="http://sodipodi.sourceforge.net/DTD/sodipodi-0.dtd"
   xmlns="http://www.w3.org/2000/svg"
   xmlns:svg="http://www.w3.org/2000/svg">
  <sodipodi:namedview
     id="namedview66"
     pagecolor="#ffffff"
     bordercolor="#666666"
     borderopacity="1.0"
     inkscape:pageshadow="2"
     inkscape:pageopacity="0.0"
     inkscape:pagecheckerboard="0"
     inkscape:document-units="mm"
     showgrid="false"
     inkscape:zoom="0.74029882"
     inkscape:cx="361.34057"
     inkscape:cy="345.8063"
     inkscape:window-width="1920"
     inkscape:window-height="1017"
     inkscape:window-x="-8"
     inkscape:window-y="-8"
     inkscape:window-maximized="1"
     inkscape:current-layer="layer1" />
  <defs
     id="defs61" />
  <g
     inkscape:label="Capa 1"
     inkscape:groupmode="layer"
     id="layer1">
    <path
       sodipodi:nodetypes="ccccccccccccccccsccccscccccccccccsccsccccccccccccccccccccccccccccccscscccsccc"
       d="m 10.051554,130.69195 c -0.31031,1.69358 -0.37053,3.42038 0.4471,5.06958 1.82093,2.81781 -3.6034,3.83051 -0.77882,6.34037 0.61852,2.79675 4.63201,4.18702 5.28947,6.83178 l -3.43083,-0.31339 c -7.38714,3.22051 -8.33896,6.44103 -10.10077,9.66158 l -0.87834003,13.83362 5.70915003,4.61122 -1.53707,1.97621 2.41536,3.73289 6.14829,0.21977 9.44199,7.02658 h 2.41541 c 8.10627,5.99912 2.55096,9.45821 0.4391,11.19866 l -0.38064,4.99182 2.17142,3.4743 c 0,0 -1.13933,1.53875 -1.08571,2.82282 0.0536,1.28407 0.27164,3.28381 1.30289,4.77715 1.00786,1.00786 2.8393,1.48705 2.17141,2.82281 l 2.43246,-1.22478 c 3.6845,3.19568 4.78801,-1.77288 5.08615,-4.64348 4.01397,-0.0668 7.97353,1.4402 8.36674,4.05107 0.44398,2.94795 6.08961,1.57769 9.44427,0.58745 5.09617,0.25273 8.10702,-5.91037 13.51073,-3.62599 3.09081,-2.90409 6.11625,-6.6281 9.26503,-1.76098 4.00589,0.91016 8.19234,1.36829 11.09326,4.41703 2.24113,-2.44806 8.2638,2.84757 5.58884,-1.65544 -0.16658,-5.05089 9.245646,-2.15893 5.781056,-6.93283 -3.885756,-1.62942 -5.200686,-8.18565 0.31295,-7.97757 3.72384,-3.08694 7.67473,-9.08961 2.15507,-12.73221 -3.328896,-3.18782 -11.370816,0.4896 -12.398686,-6.50995 -0.13274,-2.91644 -1.92708,-5.98478 -3.21647,-7.52929 4.64225,-2.79574 2.18882,-9.80382 7.18455,-11.08582 4.23186,-2.1836 4.23498,-5.95446 4.23383,-7.88712 -8.3e-4,-1.37462 2.541556,-1.09353 4.573376,-0.37273 6.38481,1.58309 -2.52973,-6.76835 3.83569,-4.55614 2.87812,0.1512 5.36315,3.25233 8.16429,2.49329 1.18755,-0.32174 1.40403,-1.64968 6.4714,3.75174 3.54481,3.85332 5.56177,-6.85982 8.54344,-0.44152 2.90369,1.73131 11.00165,9.34679 10.18494,2.1683 4.42459,1.72977 5.99362,-0.56063 5.99714,-5.22253 -1.74476,-3.51769 8.55407,-8.14407 3.15128,-12.38828 4.77561,-1.72488 -1.37954,-5.44388 1.2941,-9.05242 -0.0439,-3.26551 -0.15076,-5.93233 4.12324,-4.44043 2.20795,2.65258 6.28666,6.70154 7.26117,1.42961 1.87002,-0.34043 4.13805,-0.74504 6.06012,-0.79526 l 6.97779,-6.02629 h 7.61218 l 1.26869,2.22022 h 5.70911 l 3.17172,-2.22022 0.95156,-5.07478 7.77073,0.15859 c 0.56116,-0.56117 2.17827,-4.43122 2.37879,-5.23337 1.08567,-3.52914 3.4525,-2.52133 4.44046,-6.02629 0.98791,-3.50496 2.18153,-5.710011 -3.66287,-7.943471 -5.84435,-2.23346 -3.354,-11.834596 -3.88167,-17.512343 0,-2.719283 -6.87863,-1.461344 -8.53161,-2.833159 0.88097,5.895768 -0.78155,-0.68698 -2.68885,2.980142 0.087,1.007923 1.03024,2.585566 -4.04298,3.724437 -6.2725,-1.027364 -8.2609,10.849803 -13.5316,5.579753 -5.84172,1.14328 -12.50067,-3.262064 -17.36783,1.65408 -3.97907,4.15178 -5.0265,-2.943693 -16.14411,2.8743 -9.71529,-1.63724 -9.88289,3.49928 -15.36598,3.81955 -4.94479,0.22535 -11.95084,-0.22667 -14.70593,3.592141 -5.81292,2.48172 -11.748076,-5.943311 -15.656866,-4.083201 -5.54911,-3.10696 -5.7186,3.708001 -7.39167,7.443361 -4.27031,4.389 -9.73186,8.50079 -10.9915,7.87765 -5.0079,-2.47741 -4.1991,1.92279 -6.26547,2.41953 -0.39866,3.23868 -1.19318,7.31049 -3.76515,6.47863 -3.121,-1.00942 -5.44239,0.14333 -7.51074,-0.64854 -3.32345,-3.47817 -6.77147,-8.28127 -13.85286,-5.78928 -6.15616,1.46939 -9.65108,6.98404 -11.39329,12.69685 -0.96677,3.99081 -2.59478,5.64814 -7.59816,8.60218 -0.8459,0.49936 -2.01257,-1.34694 -3.07828,-2.2654 -1.6561,-2.95302 -5.08983,0.33088 -6.25637,-2.07932 -5.76031,-2.98442 -5.00316,-0.72919 -4.85653,-1.52698 z"
       style="fill:#000000;fill-opacity:1;fill-rule:evenodd;stroke:#d38d5f;stroke-width:1.16295;stroke-linecap:butt;stroke-linejoin:miter;stroke-miterlimit:4;stroke-opacity:1"
       id="Cabildo" />
  </g>
</svg>
