<?xml version="1.0" encoding="UTF-8" standalone="no"?>
<!-- Created with Inkscape (http://www.inkscape.org/) -->

<svg
   width="210mm"
   height="297mm"
   viewBox="0 0 210 297"
   version="1.1"
   id="svg64"
   inkscape:version="1.1.2 (b8e25be833, 2022-02-05)"
   sodipodi:docname="vector.svg"
   xmlns:inkscape="http://www.inkscape.org/namespaces/inkscape"
   xmlns:sodipodi="http://sodipodi.sourceforge.net/DTD/sodipodi-0.dtd"
   xmlns="http://www.w3.org/2000/svg"
   xmlns:svg="http://www.w3.org/2000/svg">
  <sodipodi:namedview
     id="namedview66"
     pagecolor="#ffffff"
     bordercolor="#666666"
     borderopacity="1.0"
     inkscape:pageshadow="2"
     inkscape:pageopacity="0.0"
     inkscape:pagecheckerboard="0"
     inkscape:document-units="mm"
     showgrid="false"
     inkscape:zoom="0.74029882"
     inkscape:cx="361.34057"
     inkscape:cy="453.87078"
     inkscape:window-width="1920"
     inkscape:window-height="1017"
     inkscape:window-x="-8"
     inkscape:window-y="-8"
     inkscape:window-maximized="1"
     inkscape:current-layer="layer1" />
  <defs
     id="defs61" />
  <g
     inkscape:label="Capa 1"
     inkscape:groupmode="layer"
     id="layer1">
    <path
       style="fill:#000000;fill-opacity:1;fill-rule:evenodd;stroke:#d39062;stroke-width:1.33455;stroke-linecap:butt;stroke-linejoin:miter;stroke-miterlimit:4;stroke-dasharray:none;stroke-opacity:1"
       d="m 165.77815,229.59031 c 2.84157,1.39778 5.5635,3.01881 8.23066,4.64882 0.70312,-0.21083 0.94221,-0.76567 0.91497,-1.52428 -0.0303,-0.75862 -0.30365,-1.73301 -0.53365,-2.74352 -0.23001,-1.01041 -0.40049,-2.08326 -0.30466,-3.04838 0.10088,-0.96541 0.42269,-1.81552 1.37176,-2.43876 0.77274,-1.28651 2.38399,-2.41293 4.03911,-3.50556 1.65513,-1.09272 3.39157,-2.19473 4.42014,-3.4295 1.05338,-1.26452 1.44328,-2.67865 1.52429,-4.19154 0.0807,-1.51289 -0.17452,-3.09447 -0.229,-4.72499 0.14527,-1.64625 0.85546,-3.01327 1.75278,-4.2678 0.89783,-1.25454 1.99762,-2.431 3.12464,-3.58183 1.12713,-1.15083 2.21531,-2.32295 3.04848,-3.65809 0.83326,-1.33514 1.43218,-2.76511 1.44792,-4.57256 0.71826,-1.28955 1.70295,-1.98925 2.81978,-2.3625 1.11684,-0.37325 2.32991,-0.48422 3.58183,-0.53365 1.25201,-0.0504 2.53469,-0.0605 3.65809,-0.38133 1.12339,-0.31777 2.08871,-0.87966 2.81978,-2.05763 1.20006,-1.32273 1.70083,-2.86538 1.82905,-4.4964 0.12811,-1.63102 -0.0908,-3.3607 -0.30466,-5.02985 -0.21286,-1.64767 -0.39242,-3.30179 -0.91397,-4.72499 -0.52155,-1.42321 -1.37105,-2.64304 -2.89605,-3.58183 0.34199,-1.38467 0.20983,-2.5128 -0.15232,-3.50566 -0.36115,-0.99265 -0.96038,-1.81845 -1.67662,-2.66735 -0.71624,-0.84941 -1.56343,-1.71445 -2.28623,-2.66736 -0.7223,-0.95331 -1.2959,-2.04846 -1.67662,-3.35323 -3.53804,-2.22177 -6.36337,-4.26448 -8.68794,-6.17301 -2.32456,-1.90854 -4.20031,-3.66173 -5.94442,-5.10612 -1.86536,-1.76035 -2.84793,-4.34871 -4.03911,-6.70646 -0.59519,-1.17878 -1.23466,-2.29037 -2.05764,-3.20081 -0.82318,-0.90993 -1.81028,-1.618 -3.12464,-1.98147 -1.52045,-0.4358 -3.05786,-0.60629 -4.4964,-0.53365 -1.43844,0.0706 -2.76944,0.34097 -4.11527,0.68598 -2.69167,0.69102 -5.21164,1.68539 -7.46861,2.05773 -4.99085,0.0807 -8.94874,0.55484 -12.19353,1.06691 -3.24483,0.51246 -5.81512,1.07517 -8.07826,1.60045 -2.26313,0.52558 -4.20337,0.94726 -6.24922,1.0669 -2.04583,0.11904 -4.18976,-0.0605 -6.78267,-0.76265 -1.37173,-1.94768 -1.99622,-4.13818 -2.59114,-6.32534 -0.59488,-2.18717 -1.16927,-4.33167 -2.4387,-6.17302 -2.36688,0.42571 -3.97541,0.24917 -5.18228,-0.30465 -1.20688,-0.55383 -1.99483,-1.54265 -2.59113,-2.59109 -0.5963,-1.04854 -0.98903,-2.22006 -1.52419,-3.27707 -0.53517,-1.05702 -1.18666,-1.93507 -2.2101,-2.51493 -1.21196,-1.45044 -1.51228,-2.69015 -1.29558,-3.81052 0.21668,-1.12026 0.93364,-2.17405 1.75283,-3.35323 0.58197,0 0.74156,-0.30768 0.60971,-0.76164 -0.13185,-0.45496 -0.51025,-1.05217 -0.99073,-1.67661 -0.96098,-1.24899 -2.2745,-2.52461 -2.43871,-2.74362 l 0.45729,-30.331529 c 0,0 -1.21153,0.69405 -3.58185,-0.0807 -1.18517,-0.38536 -2.64244,-1.11492 -4.420167,-2.51492 -1.77773,-1.39991 -3.87889,-3.43878 -6.24922,-6.40161 -0.22849,-0.28549 -0.84819,-0.4933 -1.14314,-0.76164 -0.83216,0.39645 -1.45074,0.87967 -2.43871,1.21943 -15.4786,-7.76903 -29.84529,-3.74142 -43.82068,5.48703 -20.62039,0.74449 4.89121,37.833119 -17.37585,35.361479 -27.378957,-6.30144 -35.078621,28.22506 -21.338749,45.80209 1.671845,3.15783 9.027719,13.2829 11.431469,14.5561 1.79649,0.95129 1.65428,1.6518 0.60971,2.43866 1.34387,0.71422 2.62872,1.56494 3.81049,2.59119 2.20744,2.49364 4.30262,4.30018 6.09679,5.18227 0.89712,0.44085 1.71826,0.66177 2.43873,0.60932 0.72048,-0.0504 1.33405,-0.38637 1.82904,-0.99064 2.1499,1.73654 4.62208,3.09347 7.08751,4.4964 2.46541,1.40293 4.9144,2.83814 6.93509,4.87742 1.34669,0.20983 2.07521,0.73037 2.51494,1.37176 0.43973,0.64159 0.57673,1.45397 0.60971,2.28633 0.0333,0.83226 0.0262,1.65533 0.15243,2.43876 0.1262,0.78383 0.42309,1.48727 1.14312,1.98147 1.66203,1.16395 2.35887,2.5916 2.97221,4.11528 0.61335,1.52368 1.13156,3.11425 2.3625,4.72499 1.70254,2.22792 6.24916,4.47592 8.45929,6.24928 1.92077,1.60086 3.58632,1.86466 5.56332,2.66736 0.98852,0.4015 2.02373,0.92304 3.20081,1.82894 0.9753,0.75054 2.09842,1.96654 3.27701,3.35333 0.1484,-0.0807 0.23092,-0.23101 0.38103,-0.30465 2.42851,-1.19714 5.10041,-2.11555 7.92581,-2.89595 5.65083,-1.56101 11.89331,-2.4092 18.290367,-2.81978 12.79413,-0.82116 26.00791,-0.0303 35.05655,-0.38133 0.55887,-0.39847 1.44847,-0.30364 2.59114,0.0807 1.14264,0.37931 2.503,1.04339 4.03912,1.98147 3.07221,1.87606 6.78435,4.67728 10.28832,7.46851 7.00789,5.58257 13.35704,11.20821 12.95564,9.90727 -0.1715,-0.55584 -1.16385,-1.1013 -2.51493,-1.52419 -0.2986,-0.0908 -0.73743,-0.0706 -1.0669,-0.15232 z"
       id="Rancagua"
       inkscape:label="#path2009" />
  </g>
</svg>
