<?xml version="1.0" encoding="UTF-8" standalone="no"?>
<!-- Created with Inkscape (http://www.inkscape.org/) -->

<svg
   width="210mm"
   height="297mm"
   viewBox="0 0 210 297"
   version="1.1"
   id="svg1283"
   inkscape:version="1.1.2 (b8e25be833, 2022-02-05)"
   sodipodi:docname="vector.svg"
   xmlns:inkscape="http://www.inkscape.org/namespaces/inkscape"
   xmlns:sodipodi="http://sodipodi.sourceforge.net/DTD/sodipodi-0.dtd"
   xmlns="http://www.w3.org/2000/svg"
   xmlns:svg="http://www.w3.org/2000/svg">
  <sodipodi:namedview
     id="namedview1285"
     pagecolor="#ffffff"
     bordercolor="#666666"
     borderopacity="1.0"
     inkscape:pageshadow="2"
     inkscape:pageopacity="0.0"
     inkscape:pagecheckerboard="0"
     inkscape:document-units="mm"
     showgrid="false"
     inkscape:zoom="0.52347032"
     inkscape:cx="155.69173"
     inkscape:cy="611.30496"
     inkscape:window-width="1920"
     inkscape:window-height="1017"
     inkscape:window-x="-8"
     inkscape:window-y="-8"
     inkscape:window-maximized="1"
     inkscape:current-layer="layer1" />
  <defs
     id="defs1280" />
  <g
     inkscape:label="Capa 1"
     inkscape:groupmode="layer"
     id="layer1">
    <path
       style="fill:#000000;fill-opacity:1;stroke:#d38d5f;stroke-width:2.1345;stroke-miterlimit:4;stroke-dasharray:none;stroke-opacity:1"
       id="Penalolen"
       d="m 137.23027,109.56964 -56.97335,-3.48246 -2.50705,9.75089 -10.58605,-3.90056 -11.70082,0.55818 -20.47648,-0.69773 -11.99652,-5.08017 -5.33435,16.69055 -5.19517,32.02186 -11.3913396,22.37201 0.0707,9.46597 39.6869896,3.11876 27.10225,0.57408 4.87598,-1.5774 3.58473,-3.58562 h 6.45249 l 2.16667,-3.59639 2.56252,0.28439 12.24434,-10.81992 11.67521,-0.28439 4.2708,-3.70167 7.11843,-0.28439 v -3.70167 l 12.81347,5.97909 7.68844,0.85494 11.67415,-9.96586 h 9.39691 l 4.55572,-3.70167 4.27187,-0.56878 11.67433,5.12503 7.40334,-0.28439 9.96586,-5.41013 6.54823,0.28439 -0.28439,-5.40996 -1.99339,-4.83994 -9.68076,-1.13933 -3.13166,-2.56252 -4.84082,-0.28439 -6.83438,-8.54267 h -2.56252 l -2.84744,-2.56234 -14.80686,-0.56878 -6.83439,-4.84101 -0.56878,-3.98676 -6.26419,-6.83439 z" />
  </g>
</svg>
