<?xml version="1.0" encoding="UTF-8" standalone="no"?>
<!-- Created with Inkscape (http://www.inkscape.org/) -->

<svg
   width="210mm"
   height="297mm"
   viewBox="0 0 210 297"
   version="1.1"
   id="svg1283"
   inkscape:version="1.1.2 (b8e25be833, 2022-02-05)"
   sodipodi:docname="vector.svg"
   xmlns:inkscape="http://www.inkscape.org/namespaces/inkscape"
   xmlns:sodipodi="http://sodipodi.sourceforge.net/DTD/sodipodi-0.dtd"
   xmlns="http://www.w3.org/2000/svg"
   xmlns:svg="http://www.w3.org/2000/svg">
  <sodipodi:namedview
     id="namedview1285"
     pagecolor="#ffffff"
     bordercolor="#666666"
     borderopacity="1.0"
     inkscape:pageshadow="2"
     inkscape:pageopacity="0.0"
     inkscape:pagecheckerboard="0"
     inkscape:document-units="mm"
     showgrid="false"
     inkscape:zoom="0.52347032"
     inkscape:cx="155.69173"
     inkscape:cy="458.47872"
     inkscape:window-width="1920"
     inkscape:window-height="1017"
     inkscape:window-x="-8"
     inkscape:window-y="-8"
     inkscape:window-maximized="1"
     inkscape:current-layer="layer1" />
  <defs
     id="defs1280" />
  <g
     inkscape:label="Capa 1"
     inkscape:groupmode="layer"
     id="layer1">
    <path
       d="m 52.427342,31.980966 c -3.50192,1.86044 -3.7036,4.02394 -4.92472,6.63768 -3.4785,1.3983 -0.32449,4.14393 -0.28204,6.17633 -0.56904,4.39087 3.15548,3.84642 5.39503,5.17173 1.31539,1.34475 4.29759,4.97241 1.31083,5.5585 3.38098,0.33322 -0.35245,7.78111 3.42592,7.71685 0.71343,3.54256 6.02431,5.09418 4.92466,0 2.67296,-0.956 4.23514,-3.02172 7.45944,-3.42574 2.4104,-1.09881 2.77816,-4.23974 2.39003,-8.13654 1.61231,-4.27662 -4.06162,-5.98989 -4.92474,-7.90507 -2.51076,-0.80328 -1.58971,-5.36968 -6.19196,-5.15606 -0.91535,-2.01772 -3.78921,-4.3399 -5.37042,-6.1922 0.13091,-1.02939 -2.53763,-0.13884 -3.21173,-0.44627 z m 90.357868,16.48708 c 1.07084,3.92278 -3.37473,5.01802 -6.63771,4.9246 -1.4344,3.25398 -1.85369,6.88957 -1.49886,10.81572 0.24039,3.41464 3.48342,7.8537 0,10.59616 -4.31836,1.08493 -3.93974,-3.5261 -8.35057,-3.42594 -1.82295,-2.2468 -8.39041,-2.74067 -8.56988,0.46214 -4.20421,3.09907 -2.11959,4.58028 0.0654,7.51969 2.30313,1.65813 0.77968,6.20707 5.2935,5.29332 2.88109,3.63479 6.08495,-1.74738 9.99395,0 3.08571,-0.0793 5.96197,6.49725 8.29015,0.94013 1.03038,-4.2667 7.69308,-4.37837 8.05244,-8.84461 -3.41402,-2.52904 -0.20886,-6.09422 1.71287,-8.5822 -2.33725,-2.78788 -4.05171,-5.834 -3.42584,-9.84941 2.93707,-1.82076 2.65104,-8.9765 -1.71287,-8.35054 0.82708,-2.53757 -1.86937,-1.14046 -3.21176,-1.49946 z m -88.859048,29.54821 c -0.0456,3.58739 -6.92915,0.33917 -7.69088,3.21174 -2.01794,3.85277 1.73925,5.02218 1.71545,8.79879 1.60993,1.39632 3.20114,-2.95607 5.97547,-2.79482 1.90844,-3.63281 6.54501,1.46574 9.80597,0.63271 1.02701,2.00106 2.83532,5.99267 4.73664,3.21173 -1.70058,-0.90245 2.25531,-4.96487 -0.82153,-6.42346 -1.49073,-1.98936 -3.34353,-7.08751 -6.40625,-6.63768 -2.43822,0 -4.87652,0 -7.31475,0 z m 13.27531,16.48708 c -0.6337,4.18063 4.58096,-0.70808 0,0 z m 1.71307,1.49946 c -0.78424,9.336894 4.24959,-0.73981 0,0 z m 32.760018,3.42594 c -4.757238,1.233684 -1.45364,7.973104 -4.924658,8.136334 0,7.1373 0,14.27459 0,21.41188 2.1379,3.84702 7.503168,-0.35106 9.849388,3.21173 0.89987,-2.58358 4.80335,0.11901 8.09303,-1.49945 2.72749,3.51757 4.9516,-3.21828 8.39406,-3.42574 2.10354,-0.7418 4.35497,-5.64677 8.315,-2.31742 3.8685,2.79046 5.40759,-2.77915 6.45919,-4.10625 1.68669,-3.6094 2.96315,-4.83951 4.92472,-7.90487 -1.96377,-1.10872 -3.95033,-4.75423 -6.19208,-5.37047 -1.41397,-2.37811 -2.1661,-6.19994 -5.37029,-8.136344 -2.04807,1.124594 -4.91808,2.677214 -7.76776,4.555894 -3.74755,1.69383 -6.18336,-2.87753 -10.36279,-1.34475 -3.39173,-0.42643 -5.67074,-3.971184 -9.6614,-3.211734 -0.5855,0 -1.171,0 -1.75631,0 z m 70.65902,0 c 0.12099,2.611554 1.65655,7.171804 3.42584,6.003974 0.28323,-3.67684 5.68996,5.67592 4.92475,-0.40263 -0.0169,-3.49814 -2.64611,-3.77145 -5.5584,-5.601944 -0.93062,0 -1.86143,0 -2.79219,0 z M 16.241458,104.35334 c -4.17071,1.26343 -4.254112,3.58342 -6.8256804,4.9248 -2.948474,-2.0314 -6.630076,-2.01534 -7.948447,2.34657 -0.53948697,4.09594 0.410764,7.63216 1.498861,11.1168 0.377245,3.13696 6.47779,2.5705 8.3506434,3.65741 2.006832,1.31301 4.718805,4.41863 4.924702,7.69086 1.830685,1.92391 1.631355,5.87604 1.498865,9.76253 -0.535325,4.19273 2.13496,5.17967 6.1486,4.82345 4.30427,-0.17851 4.18737,3.77284 6.30993,5.82091 1.68987,-1.75135 3.84351,0.36098 7.1969,0.81716 4.30485,1.02939 4.08266,-3.52789 8.58203,-3.21173 4.76202,-1.05716 5.9881,1.4221 9.618,1.49945 1.04267,2.25494 2.42116,4.17409 4.96813,4.92481 0.50002,3.16829 5.32762,2.64983 6.2689,6.26875 1.44571,2.35887 3.76584,2.93009 4.84785,5.29352 -0.80051,2.38644 3.00607,8.42889 3.65742,4.9248 3.90569,-0.0397 5.24157,4.93591 6.63759,6.192 -2.71607,2.77856 -5.48229,-4.38769 -6.63759,-1.71366 -1.89951,1.51136 -9.16564,-1.41219 -4.1832,-3.50766 2.37009,-0.95798 -6.57092,-5.19196 -5.66624,-0.97187 -4.76885,1.31302 0.76877,5.26615 0,8.0929 0.35582,4.14711 0.0952,7.67757 -2.98027,8.39418 0.0615,3.7889 0.80784,3.95134 1.02026,6.35523 1.93482,0.0397 5.68951,-3.76887 8.59758,0.28165 2.96936,2.89657 2.85886,-1.13054 7.0857,0.44825 0.11306,4.94186 6.82132,0.85485 7.68847,4.03108 3.23438,-0.0397 -0.0456,8.22697 5.37279,4.92222 4.18991,-1.01551 2.94845,-5.77568 1.26482,-7.45682 -1.94592,-0.97385 -3.14112,-5.35719 -3.42586,-8.53877 -0.97505,-4.28337 1.20155,-7.26106 1.71307,-10.92858 0.83462,-4.68877 -0.85148,-6.85684 -1.71307,-9.8496 -2.13367,-1.28921 -2.3211,-4.52475 -6.38013,-3.88887 -1.0516,-2.73809 -4.15115,-1.90803 -6.39881,-4.67767 -3.44304,-0.9441 -5.84639,-2.76784 -6.91997,-4.94027 -1.26284,-2.87733 0.50299,-4.10565 -3.58443,-7.24182 -1.76444,-3.52947 -3.95952,-3.25695 -5.00002,-6.71304 -2.21495,-2.80751 -0.57062,-6.86894 -3.61154,-7.68848 -1.22793,-1.67598 -1.8537,-6.74259 -4.29105,-7.27117 -1.1236,-2.37097 -3.90477,-3.084 -4.92472,-5.5585 -1.76087,-1.67003 -4.20106,-2.66233 -4.92472,-5.37028 -3.27308,0.77551 -5.30994,-3.74308 -7.05716,0 -4.95604,1.18806 -5.58544,-1.95167 -9.80597,-1.49945 -4.33706,-0.30545 -4.07406,-4.12331 -6.04751,-5.55831 -0.12694,-1.50937 -5.891893,-2.54153 -4.924704,-6.00397 z m 129.755562,1.71367 c -0.3943,4.0995 -0.0456,7.45364 2.98023,8.13633 0.23206,2.50147 5.93741,2.7738 2.40562,6.35543 1.55082,0.71998 3.33355,5.26635 4.67773,6.47424 3.26726,0.0992 1.85408,4.86669 4.92472,5.15627 -1.03653,4.8048 1.40762,6.12873 1.49866,9.80597 0.69717,3.46898 3.44341,4.07967 4.92472,1.12261 2.01152,-1.61648 2.62379,-4.63305 6.59424,-4.29111 -0.40382,-3.89779 3.08317,-3.90553 1.75631,-8.72659 0.24276,-3.89998 0.22472,-7.53953 -1.71307,-9.25935 -1.08909,-2.57605 -2.54884,-4.09871 -5.37274,-5.37265 -2.61415,-2.58993 -7.84953,-1.3507 -8.95576,0.44825 -3.44454,1.72755 -3.98478,1.62441 -3.65736,-3.42594 -3.36533,-0.13884 -5.72634,-1.26145 -7.27133,-3.21173 -2.79776,0.0793 5.25462,-4.58048 -2.79225,-3.21173 z m 41.11067,75.5837 c -2.04283,1.96555 -1.4584,4.9363 0,8.13633 -4.66117,1.20195 2.13385,4.15683 -0.41731,7.11468 -0.63052,1.14641 0.63429,6.00061 2.13024,7.42807 -0.42961,3.42435 -1.39989,6.30822 -2.98027,8.582 -3.48816,0.006 -1.39473,5.59401 -3.65738,6.8257 -2.63799,6.35801 4.61926,2.8208 4.92466,6.23564 2.39223,-2.79978 4.99835,-0.47999 6.63771,-0.63271 -1.04168,-2.66272 2.19702,-10.00828 3.4258,-6.23564 1.82355,4.54419 -3.41882,5.61364 -1.07917,8.58221 4.37496,-0.29553 1.51354,3.02688 1.07917,3.84543 -2.72375,1.66606 -1.73587,6.23088 1.2674,2.79224 4.96459,1.11071 6.85734,-0.85088 8.1364,-3.42594 0.26855,-3.09134 2.82502,-3.89561 1.94453,-8.13653 -3.89746,0.19834 -2.03912,-5.37186 -4.47903,-6.63767 -3.19226,-2.67126 -0.0892,-2.50703 -0.44547,-7.01373 -0.1924,-3.31566 -1.87948,-5.13802 -3.21174,-7.31461 -3.30354,-0.119 -1.85329,-5.01009 -4.92474,-5.37047 -1.17338,-2.39219 -2.13315,-4.99819 -4.05952,-6.63768 -0.95164,-2.61988 -3.29981,-3.84324 -2.57813,-8.13633 -0.57083,0 -1.14205,0 -1.71307,0 z m -44.3224,22.91054 c -2.28544,3.07388 -5.36653,2.35589 -6.63771,4.9248 -2.08682,1.40822 -5.07921,1.91002 -6.42355,4.05944 -0.74358,2.70696 0.77215,11.54324 1.49887,4.96824 0.50914,-5.89072 3.86494,0.75369 7.22783,-0.67634 3.04275,0.68626 6.50233,3.15203 7.54627,2.57803 -1.36379,-5.05273 5.65825,-1.67201 6.63766,-0.44627 1.41932,2.39814 2.71108,-2.48699 4.69321,1.07898 2.86793,1.36657 4.30422,2.34359 6.86916,0 0.75667,3.55129 3.59267,3.84721 3.84543,0 2.64186,-2.68752 -1.26363,-4.60151 1.07937,-7.4594 -2.48186,-1.01352 -2.2254,-4.76335 -6.38005,-4.10288 -0.44765,-2.8325 -5.18829,-2.60025 -7.57725,-4.10803 -3.09471,-0.52561 -3.82867,1.12261 -8.27622,-0.81717 -1.36756,0 -2.73532,0 -4.10296,0 z m -11.56237,16.48708 c -0.62775,4.69254 4.5729,-0.67436 0,0 z m 59.31069,-16.48708 c 3.98744,-0.28164 7.67878,-0.26776 8.13645,2.98027 -1.53178,2.03954 -1.18786,5.95538 -2.13242,8.582 -6.0746,0.0793 -0.30306,-3.53344 -1.07937,-6.38002 -4.83434,0.57122 -3.03687,-2.90986 -4.92472,-5.18225 z m -64.23542,31.26128 c -0.0892,3.61734 -7.17283,0.23801 -7.69084,3.42574 -3.47451,-0.34313 -4.27071,5.05115 -2.15868,6.1922 3.1323,0.26776 6.20604,1.83465 9.1852,2.89816 4.10932,0.5851 5.38049,2.2595 9.39104,2.25791 2.37007,1.20988 3.15322,4.00728 5.81587,4.9248 0.0113,3.35037 4.5251,2.19563 5.15624,4.9248 3.66988,0.70213 8.68207,-1.55499 11.31538,1.43004 4.80421,-0.62874 4.91346,2.76864 9.60739,1.99531 4.48885,-0.76956 6.66052,0.77948 9.66142,1.49945 3.98834,0.26975 7.63519,0.19834 9.02762,-2.13236 -1.18767,-4.95614 1.95108,-5.58547 1.49886,-9.80616 -0.97921,-4.62194 4.59651,-2.68931 3.42592,-7.50264 -1.62005,-2.15715 -0.95461,-6.59939 -6.1486,-5.18245 -4.26278,1.15038 -6.8672,-2.11332 -10.9287,-1.49945 -4.00474,1.44193 -6.23054,-4.76137 -7.54627,1.26739 -3.73644,1.24162 -5.62863,-1.35863 -8.35064,-1.9001 -1.22853,-2.68593 -5.99535,-3.20301 -9.54839,-2.79224 0.32052,2.67343 -8.15488,2.54273 -8.43757,0.44627 -3.41527,-1.02146 -9.12415,-0.15868 -13.27525,-0.44627 z"
       style="fill:#000000;fill-opacity:1;stroke:#d39062;stroke-width:2.62389;stroke-miterlimit:4;stroke-dasharray:none;stroke-opacity:1"
       id="Quinchao" />
  </g>
</svg>
