<?xml version="1.0" encoding="UTF-8" standalone="no"?>
<!-- Created with Inkscape (http://www.inkscape.org/) -->

<svg
   width="210mm"
   height="297mm"
   viewBox="0 0 210 297"
   version="1.1"
   id="svg57"
   inkscape:version="1.1.2 (b8e25be833, 2022-02-05)"
   sodipodi:docname="vector.svg"
   xmlns:inkscape="http://www.inkscape.org/namespaces/inkscape"
   xmlns:sodipodi="http://sodipodi.sourceforge.net/DTD/sodipodi-0.dtd"
   xmlns="http://www.w3.org/2000/svg"
   xmlns:svg="http://www.w3.org/2000/svg">
  <sodipodi:namedview
     id="namedview59"
     pagecolor="#ffffff"
     bordercolor="#666666"
     borderopacity="1.0"
     inkscape:pageshadow="2"
     inkscape:pageopacity="0.0"
     inkscape:pagecheckerboard="0"
     inkscape:document-units="mm"
     showgrid="false"
     inkscape:zoom="0.74029882"
     inkscape:cx="361.34057"
     inkscape:cy="453.87078"
     inkscape:window-width="1920"
     inkscape:window-height="1017"
     inkscape:window-x="-8"
     inkscape:window-y="-8"
     inkscape:window-maximized="1"
     inkscape:current-layer="layer1" />
  <defs
     id="defs54" />
  <g
     inkscape:label="Capa 1"
     inkscape:groupmode="layer"
     id="layer1">
    <path
       inkscape:connector-curvature="0"
       id="Los_Angeles"
       style="fill:#000000;fill-opacity:1;fill-rule:evenodd;stroke:#d39062;stroke-width:0.451807;stroke-linecap:butt;stroke-linejoin:miter;stroke-miterlimit:4;stroke-dasharray:none;stroke-opacity:1"
       d="m 187.83198,48.584307 c -0.1237,-0.13397 -0.39117,-0.0868 -0.90361,0.16944 -0.18439,0.0924 -1.08497,0.7064 -2.25905,1.29895 -0.58704,0.29641 -1.25232,0.57425 -1.92016,0.79066 -0.66789,0.21659 -1.339,0.3669 -1.97669,0.3669 -1.22295,0 -2.11102,0.0877 -2.79553,0.25393 -0.68451,0.16665 -1.15611,0.41638 -1.55307,0.73417 -0.79402,0.63596 -1.2786,1.56096 -2.4285,2.71086 -0.48397,0.48398 -1.14653,0.68983 -1.89191,0.76242 -0.74538,0.0724 -1.56913,0.014 -2.37201,-0.028 -0.80284,-0.042 -1.57436,-0.0803 -2.23081,0.0565 -0.32816,0.0682 -0.62201,0.16992 -0.87538,0.33889 -0.25347,0.16898 -0.46815,0.40005 -0.62121,0.70594 -0.51749,1.03493 -1.04772,1.66813 -1.60955,2.00492 -0.56184,0.33656 -1.16461,0.37064 -1.80724,0.22593 -0.64264,-0.1447 -1.32976,-0.46633 -2.0896,-0.87538 -0.75985,-0.40891 -1.59966,-0.89862 -2.51318,-1.35543 -0.73062,-0.36503 -1.83258,-1.12898 -3.0497,-1.80719 -0.60856,-0.33936 -1.23308,-0.64389 -1.86372,-0.87538 -0.63064,-0.23153 -1.24914,-0.39537 -1.83548,-0.39537 -1.03624,0 -2.90019,-0.2362 -4.57453,-0.19746 -0.83715,0.0187 -1.64541,0.1223 -2.25905,0.3389 -0.30669,0.10829 -0.55936,0.24273 -0.76242,0.42338 -0.20305,0.18111 -0.35616,0.40798 -0.42338,0.67774 -0.18298,0.73193 -0.5173,1.24484 -0.9601,1.63779 -0.44252,0.39304 -0.98993,0.6691 -1.60955,0.87538 -1.2392,0.41264 -2.75848,0.60636 -4.20745,1.18598 -0.8393,0.33563 -1.97958,1.37984 -3.19091,2.28729 -0.60562,0.45373 -1.22981,0.86114 -1.83543,1.1295 -0.60567,0.26841 -1.17889,0.39024 -1.72252,0.25441 -1.81653,-0.4542 -3.22741,-0.82637 -4.54634,-0.90362 -0.65944,-0.0373 -1.28111,-9.4e-4 -1.9484,0.14097 -0.66728,0.14237 -1.38283,0.3809 -2.14608,0.76246 -1.23126,0.61561 -2.39134,1.54597 -3.58624,2.31548 -0.59745,0.38464 -1.17795,0.73824 -1.80724,0.98835 -0.62923,0.2502 -1.28835,0.39537 -1.97664,0.39537 -0.22079,0 -2.14473,-0.40238 -4.12272,-0.67774 -0.989,-0.1377 -1.97654,-0.2418 -2.79558,-0.25393 -0.81904,-0.014 -1.45136,0.0677 -1.69428,0.31041 -0.39677,0.39678 -0.86674,0.72153 -1.38367,0.98835 -0.51688,0.267 -1.10088,0.49737 -1.69427,0.70593 -1.18673,0.41731 -2.468134,0.76815 -3.699164,1.38367 -1.15484,0.57742 -2.50182,0.99908 -4.03804,1.12955 -1.53617,0.13023 -3.26112,-0.0233 -5.19575,-0.50829 -1.05234,-0.26328 -1.81564,-0.37437 -2.42849,-0.42339 -0.61281,-0.0495 -1.08357,-0.0373 -1.55307,0.028 -0.939,0.13164 -1.8956,0.39538 -4.03805,0.39538 -3.07808,0 -6.1557,0 -9.23379,0 -0.94539,0 -1.73932,0.028 -2.42845,0.11296 -0.68917,0.0854 -1.26977,0.22686 -1.75075,0.48005 -0.48099,0.253 -0.86516,0.62667 -1.18603,1.12955 -0.32069,0.50283 -0.58186,1.14159 -0.79066,1.97664 -0.18298,0.73188 -0.40097,1.28489 -0.67769,1.72251 -0.27681,0.43739 -0.59624,0.76947 -0.9601,1.07307 -0.72769,0.60716 -1.62183,1.08529 -2.65438,2.11784 -0.16384,0.16385 -1.4521,1.44123 -2.73905,2.65433 -1.287,1.21315 -2.59509,2.37878 -2.82382,2.28729 -0.071,-0.028 -0.20773,-0.0836 -0.28241,-0.11296 l 0.67769,5.53463 h 6.89006 l 6.01469,14.655513 9.48796,7.7372 5.16754,15.53089 c -1.03922,0.18438 -2.06696,0.35243 -3.10618,0.53653 -1.56894,0.27821 -2.81173,0.69963 -3.84036,1.24247 -1.02863,0.54278 -1.8416,1.22038 -2.62614,2.00487 -1.11858,1.11863 -2.10659,1.78218 -2.96498,2.48494 -0.42898,0.35149 -0.81731,0.70252 -1.18598,1.12954 -0.36877,0.42712 -0.70542,0.93074 -1.01659,1.55307 -0.53139,1.06285 -1.31944,2.02477 -2.14608,2.88026 -0.82665,0.85549 -1.71057,1.59765 -2.40021,2.28729 -0.24787,0.24787 -0.81843,0.45046 -1.55307,0.59302 -0.73468,0.14284 -1.63242,0.23106 -2.54141,0.31041 -1.81807,0.15918 -3.67983,0.23527 -4.32041,0.39538 -3.47477,0.8687 -6.6372,1.18631 -9.68565,1.9484 -0.6993,0.17504 -1.30926,0.0527 -1.89191,-0.22593 -0.5827,-0.27868 -1.14804,-0.70719 -1.72252,-1.12955 -0.57453,-0.42245 -1.16073,-0.8455 -1.83548,-1.10126 -0.67475,-0.2558 -1.43203,-0.36223 -2.31553,-0.14144 -1.17259,0.29315 -2.08647,0.32489 -2.88026,0.19746 -0.79378,-0.12697 -1.46676,-0.41825 -2.11784,-0.73418 -0.65109,-0.31602 -1.28863,-0.65836 -2.03312,-0.93186 -0.74454,-0.27354 -1.60853,-0.48005 -2.68262,-0.48005 -2.25606,0 -3.87257,0.24273 -5.42167,0.11296 -0.77455,-0.0649 -1.54826,-0.22126 -2.34377,-0.53653 -0.79547,-0.31508 -1.62146,-0.78547 -2.56966,-1.49663 -0.84382,-0.63284 -1.37765,-1.31225 -1.77899,-1.97664 -0.40145,-0.66439 -0.67728,-1.32252 -1.01654,-1.89196 -0.33936,-0.56945 -0.72601,-1.06392 -1.38367,-1.41187 -0.65767,-0.34776 -1.58023,-0.53653 -2.93675,-0.53653 -0.93999,0 -1.7814099,0.17131 -2.5414099,0.45186 -0.76001,0.28054 -1.44539,0.65453 -2.03314,1.07301 -0.9378,0.66775 -1.50834,1.31613 -2.03313,1.86373 0.0884,0.16104 0.20082,0.28241 0.28236,0.45185 0.48488,1.00571 0.81891,2.17582 0.81891,3.07795 -10e-6,0.74402 0.32806,1.52553 0.39532,2.20256 0.0336,0.33843 -0.006,0.64889 -0.16944,0.90362 -0.16417,0.25487 -0.45508,0.4668 -0.96009,0.59297 -0.3669,0.092 -0.54032,0.41171 -0.593,0.87538 -0.0527,0.46353 0.0182,1.05393 0.1412,1.66603 0.24628,1.22422 0.69975,2.54487 0.81891,3.02147 0.51952,2.07807 0.73418,3.59174 0.73418,5.90172 0,0.30995 -0.12538,0.61677 -0.33884,0.90362 -0.21347,0.28708 -0.51847,0.55651 -0.8189,0.84714 -0.60088,0.5813 -1.25038,1.21763 -1.44014,1.97668 -0.2503,1.00109 -0.21566,1.6792 -0.28237,2.42845 -0.0667,0.74925 -0.22466,1.55064 -0.818897,2.7391 -0.350936,0.70182 -0.551975,1.61315 -0.649474,2.54141 -0.09751,0.92822 -0.08468,1.88268 -0.08468,2.65438 0,0.38604 -0.144426,0.64296 -0.338846,0.87533 -0.194466,0.23246 -0.448075,0.44252 -0.67771003,0.67774 -0.229663,0.23526 -0.430897,0.50899 -0.536524,0.90362 -0.105588,0.39444 -0.121179,0.89895 0.05648,1.60955 0.262059,1.04828 0.34258,2.12083 0.45181,3.13443 0.10923,1.01359 0.23708503,1.97076 0.64947403,2.79553 0.30505,0.6101 0.662222,1.07228 1.016565,1.4684 0.354343,0.39584 0.707832,0.73114 1.073042,1.04477 0.73042,0.62733 1.46157,1.22889 2.00489,2.31554 0.24441,0.48878 1.22938,1.22309 2.17433,1.83548 0.94494,0.61234 1.84104,1.10406 1.89194,1.1295 0.6719299,0.33609 1.6609199,0.41498 2.6825999,0.42338 1.02168,0.009 2.08199,-0.0565 2.88026,-0.0565 1.01355,0 2.00367,-0.0327 2.99322,0 0.98956,0.0327 1.98112,0.12837 2.93674,0.3669 1.48609,0.37157 2.85436,0.74593 4.00981,1.29894 0.5777,0.27635 1.10756,0.594 1.55307,0.98835 0.44532,0.39444 0.82104,0.85143 1.10131,1.41191 0.40751,0.8153 0.48934,1.92114 0.48005,3.0497 -0.009,1.12852 -0.11297,2.27903 -0.11297,3.24735 0,0.54195 0.1153,1.0613 0.28241,1.55307 0.16712,0.49181 0.37671,0.96715 0.62126,1.44015 0.48948,0.94605 1.06233,1.8774 1.32719,2.93674 0.21986,0.87977 0.48308,1.52856 0.70593,2.23081 0.22266,0.7022 0.39537,1.47049 0.39537,2.59789 0,0.53075 0.12884,0.99348 0.3389,1.41191 0.21005,0.41825 0.49302,0.79453 0.79065,1.15775 0.5953,0.72642 1.25619,1.38203 1.4684,2.2308 0.11716,0.46871 1.34982,1.93725 1.86372,2.96499 0.59815,1.19634 0.78668,2.24878 1.01653,3.16262 0.11484,0.45699 0.24274,0.87057 0.42339,1.2707 0.18111,0.40005 0.40984,0.77694 0.76241,1.12955 0.2362,0.2362 0.4786,0.18952 0.73422,0 0.2558,-0.18952 0.54214,-0.51828 0.8189,-0.87538 0.27681,-0.35709 0.54759,-0.74957 0.84713,-1.01658 0.29969,-0.26701 0.60786,-0.41965 0.93187,-0.33889 1.15984,0.28988 2.21017,0.58531 3.27558,0.79065 1.06541,0.20539 2.17003,0.33889 3.41679,0.33889 1.9758,0 3.92593,0 5.90172,0 0.5665,0 0.93354,-0.58563 1.52488,-0.96005 0.29548,-0.18718 0.65935,-0.31229 1.1295,-0.31088 0.47016,0.002 1.05033,0.12976 1.80724,0.50829 0.0555,0.028 0.0882,0.056 0.14144,0.0845 0.16291,-0.1027 0.31882,-0.21286 0.48,-0.31042 1.02933,-0.62401 2.01263,-1.14561 2.7391,-1.32719 0.59059,-0.14751 1.10789,-0.44392 1.60955,-0.8189 0.50171,-0.37483 0.98396,-0.83182 1.44016,-1.29894 0.91235,-0.93424 1.77666,-1.9049 2.76729,-2.40026 1.23887,-0.61939 6.5431,-2.10893 7.76544,-2.59789 0.95889,-0.38371 1.74082,-0.67671 2.4285,-0.84714 0.68763,-0.17038 1.28079,-0.22313 1.83543,-0.14097 0.55469,0.0817 1.07797,0.30482 1.63784,0.67769 0.55983,0.37297 1.13216,0.90628 1.83544,1.60955 0.73492,0.73492 1.3958,1.27416 2.03312,1.66604 0.63736,0.3921 1.25562,0.64585 1.89196,0.76246 0.63633,0.1167 1.30128,0.091 2.03312,0 0.73188,-0.091 1.53276,-0.24927 2.45673,-0.48005 0.84542,-0.21146 1.47461,-0.23293 1.97664,-0.14144 0.50204,0.092 0.88383,0.29408 1.27071,0.45185 0.38697,0.15778 0.77082,0.29502 1.27071,0.28241 0.49989,-0.014 1.10728,-0.17224 1.94839,-0.59296 0.83132,-0.41545 1.30642,-0.47525 1.63784,-0.31089 0.331434,0.16478 0.534624,0.5328 0.790664,0.9601 0.2558,0.42712 0.58088,0.92654 1.18598,1.29895 0.60511,0.3725 1.47334,0.62126 2.85202,0.62126 0.84126,0 1.4585,-0.16525 1.97668,-0.42339 0.51815,-0.2586 0.94988,-0.59973 1.38367,-0.90362 0.43366,-0.30388 0.88028,-0.57004 1.46835,-0.70597 0.58807,-0.13584 1.30618,-0.13211 2.28729,0.11296 0.50787,0.12697 1.14435,0.53495 1.83544,1.12955 0.69113,0.5946 1.43245,1.36542 2.20256,2.14608 0.77017,0.78062 1.57048,1.57394 2.31553,2.259 0.74501,0.68507 1.44562,1.27347 2.06136,1.58136 1.34619,0.67307 3.00648,1.15023 4.63102,1.55307 1.62454,0.40285 3.22246,0.71387 4.43337,1.01659 1.34218,0.33562 2.22792,0.99016 3.30383,1.55307 0.53798,0.28147 1.11919,0.54404 1.83548,0.73417 0.7163,0.18998 1.56824,0.31088 2.62614,0.31088 0.54353,0 0.94007,0.1069 1.24246,0.28241 0.30249,0.17552 0.48654,0.41078 0.62121,0.70594 0.26934,0.58998 0.29922,1.35893 0.33889,2.0896 0.0374,0.73072 0.1111,1.41331 0.50825,1.83548 0.19839,0.21099 0.47725,0.3739 0.87538,0.42338 0.39817,0.0495 0.91011,-0.002 1.58136,-0.16944 1.77904,-0.44486 2.83927,-0.93999 3.81211,-1.24247 0.4864,-0.15124 0.94391,-0.26421 1.46835,-0.28241 0.52449,-0.0187 1.1133,0.0467 1.83548,0.22593 0.33189,0.0831 0.81614,0.54381 1.38367,1.18598 0.56753,0.64212 1.21903,1.47512 1.86372,2.34373 1.28933,1.73722 2.57222,3.58885 3.21911,4.23568 0.77772,0.77773 1.48557,1.33289 2.14608,1.779 0.66052,0.44626 1.26651,0.78445 1.80724,1.18599 0.54073,0.40144 1.02177,0.85259 1.44011,1.49663 0.41824,0.64404 0.77968,1.48086 1.07306,2.65438 0.0934,0.3739 0.28101,0.71662 0.53654,1.04477 0.25533,0.32816 0.57831,0.64955 0.96005,0.93187 0.76358,0.56463 1.74203,1.03282 2.79558,1.41191 1.05356,0.37903 2.19053,0.65626 3.24735,0.84713 0.13117,-0.61322 0.16291,-0.99497 0.33889,-1.69427 0.40751,-1.61833 0.89909,-3.34234 1.18598,-4.48986 0.21566,-0.86282 0.47781,-1.55339 0.76242,-2.14608 0.28474,-0.59269 0.57229,-1.06835 0.87538,-1.55307 0.60617,-0.96949 1.20353,-1.90564 1.58131,-3.41679 0.20118,-0.80466 0.0523,-1.76313 0,-2.85202 -0.028,-0.54447 -0.0327,-1.11928 0.0565,-1.72252 0.0906,-0.60328 0.26607,-1.23812 0.59301,-1.89196 0.28241,-0.56473 0.43412,-1.2651 0.5083,-2.06136 0.0738,-0.79626 0.0779,-1.67756 0.0565,-2.54141 -0.042,-1.72775 -0.16898,-3.41857 0.0845,-4.43338 0.34262,-1.37111 0.85838,-2.42467 1.44015,-3.41679 0.58176,-0.99212 1.21478,-1.92128 1.779,-3.0497 0.51398,-1.02802 1.52739,-2.0989 2.62613,-3.02147 1.0987,-0.92257 2.30681,-1.71817 3.21911,-2.17432 0.19138,-0.0957 0.24553,-0.19979 0.19745,-0.31042 -0.0481,-0.1111 -0.22173,-0.21846 -0.45186,-0.33889 -0.45979,-0.24134 -1.21683,-0.4885 -2.0614,-0.73418 -1.68905,-0.49134 -3.67325,-0.94712 -4.15097,-1.18603 -0.81124,-0.40564 -1.26403,-0.80676 -1.55307,-1.18598 -0.28894,-0.37904 -0.41918,-0.74197 -0.6495,-1.04478 -0.23012,-0.30295 -0.55147,-0.55777 -1.18598,-0.73422 -0.63451,-0.17645 -1.60395,-0.28241 -3.10619,-0.28241 -1.46806,0 -2.42004,-0.10036 -3.02146,-0.31042 -0.30061,-0.10502 -0.52346,-0.2488 -0.64945,-0.39537 -0.12603,-0.14657 -0.16198,-0.29922 -0.14144,-0.48005 0.042,-0.36223 0.33049,-0.7865 0.79066,-1.24247 0.46026,-0.45605 1.09528,-0.94852 1.75076,-1.44015 1.32928,-0.99693 1.87711,-1.96165 2.62613,-2.68262 0.37437,-0.36036 0.78412,-0.66732 1.38367,-0.87537 0.59955,-0.20819 1.38535,-0.3389 2.45669,-0.3389 0.69226,0 1.27584,-0.18998 1.80724,-0.50829 0.5314,-0.31835 1.00496,-0.75747 1.41191,-1.27071 0.8139,-1.02643 1.41406,-2.31987 1.9484,-3.38855 0.33982,-0.67965 0.7766,-1.38819 1.29895,-2.06136 0.52234,-0.67316 1.1372,-1.30595 1.80724,-1.86372 0.67003,-0.55772 1.39141,-1.02204 2.17432,-1.35543 0.78286,-0.33329 1.62402,-0.53648 2.48493,-0.53648 1.01607,0 1.70665,0.18345 2.23081,0.39537 0.52416,0.21192 0.87795,0.45559 1.21422,0.59297 0.3361,0.13724 0.6488,0.16804 1.10126,-0.0565 0.45233,-0.22406 1.04744,-0.7086 1.92021,-1.58136 0.40424,-0.40424 0.70742,-0.91254 0.9601,-1.46835 0.25253,-0.55586 0.44719,-1.14439 0.64945,-1.75075 0.20212,-0.60642 0.39677,-1.22314 0.6495,-1.779 0.25253,-0.55586 0.55581,-1.06415 0.96005,-1.4684 2.096,-2.09595 3.11618,-3.08793 5.19579,-5.16754 0.62322,-0.62322 0.9658,-1.25904 1.15779,-1.86368 0.19185,-0.60464 0.23293,-1.19705 0.16945,-1.72252 -0.12697,-1.05098 -0.58499,-1.85994 -0.6777,-2.2308 -0.1391,-0.5567 -0.0233,-1.10486 0.25394,-1.6378 0.27914,-0.53298 0.71298,-1.05831 1.18598,-1.55311 0.9461,-0.98951 2.05362,-1.90461 2.4285,-2.65433 0.44812,-0.89615 0.52617,-1.45733 0.31042,-1.80724 -0.21566,-0.3501 -0.73679,-0.48976 -1.41192,-0.50829 -1.35015,-0.0374 -3.4018,0.39537 -5.36518,0.39537 -1.24308,0 -2.44675,0.32629 -3.78388,0.6495 -1.33718,0.32349 -2.8144,0.64945 -4.63106,0.64945 -0.87403,0 -1.46326,-0.16291 -2.03312,-0.39538 -0.56987,-0.23246 -1.10817,-0.53998 -1.83548,-0.90362 l 2.56965,-7.11594 9.71389,0.64945 -2.5979,-5.19579 3.89684,-3.2191 1.29895,-3.89685 h -7.11599 l -0.64945,-9.68555 -3.89684,-15.53088 0.64945,-6.4665 -14.88139,-1.94844 3.89684,-12.932953 1.94844,0.64945 v -4.51805 l 4.51805,-9.71389 3.21911,-1.92015 1.94844,-12.96123 7.11595,5.84523 7.05951,-11.37987 c -0.19139,-0.14004 -0.34449,-0.28568 -0.56477,-0.42338 -0.56525,-0.35383 -1.23603,-0.70337 -2.08961,-1.04483 -1.40285,-0.56113 -3.25458,-1.00575 -5.1393,-1.32714 -1.88473,-0.32162 -3.8132,-0.50829 -5.33695,-0.50829 -0.70341,0 -2.27432,-0.28801 -3.81217,-0.73422 -0.7689,-0.22313 -1.53645,-0.47244 -2.17432,-0.76241 -0.63783,-0.28988 -1.1598,-0.63284 -1.44011,-0.96006 -0.45699,-0.53331 -0.66644,-1.08095 -0.76241,-1.6096 -0.0962,-0.5286 -0.0714,-1.0164 -0.0565,-1.41186 0.014,-0.39538 0.0374,-0.71336 -0.0845,-0.84714 z" />
  </g>
</svg>
