<?xml version="1.0" encoding="UTF-8" standalone="no"?>
<!-- Created with Inkscape (http://www.inkscape.org/) -->

<svg
   width="210mm"
   height="297mm"
   viewBox="0 0 210 297"
   version="1.1"
   id="svg1283"
   inkscape:version="1.1.2 (b8e25be833, 2022-02-05)"
   sodipodi:docname="vector.svg"
   xmlns:inkscape="http://www.inkscape.org/namespaces/inkscape"
   xmlns:sodipodi="http://sodipodi.sourceforge.net/DTD/sodipodi-0.dtd"
   xmlns="http://www.w3.org/2000/svg"
   xmlns:svg="http://www.w3.org/2000/svg">
  <sodipodi:namedview
     id="namedview1285"
     pagecolor="#ffffff"
     bordercolor="#666666"
     borderopacity="1.0"
     inkscape:pageshadow="2"
     inkscape:pageopacity="0.0"
     inkscape:pagecheckerboard="0"
     inkscape:document-units="mm"
     showgrid="false"
     inkscape:zoom="0.52347032"
     inkscape:cx="155.69173"
     inkscape:cy="611.30496"
     inkscape:window-width="1920"
     inkscape:window-height="1017"
     inkscape:window-x="-8"
     inkscape:window-y="-8"
     inkscape:window-maximized="1"
     inkscape:current-layer="layer1" />
  <defs
     id="defs1280" />
  <g
     inkscape:label="Capa 1"
     inkscape:groupmode="layer"
     id="layer1">
    <path
       d="m 30.39765,102.68863 c 0.07898,0.18696 0.327802,0.43889 0.391723,0.6267 0.290045,0.85272 0.414792,1.7345 0.391724,2.74195 -0.02307,1.00739 -0.204026,2.14783 -0.548401,3.52527 -0.262485,1.04988 -0.365075,1.93689 -0.352509,2.7811 0.01275,0.84421 0.152125,1.65722 0.352509,2.46775 0.400829,1.62098 1.094071,3.31863 1.723494,5.83634 0.226851,0.90734 0.803747,1.82403 1.566798,2.74188 0.763069,0.91785 1.720428,1.85469 2.62441,2.7811 0.903982,0.92641 1.778905,1.84802 2.428542,2.78104 0.649644,0.93308 1.057594,1.88256 1.057594,2.82025 0,1.42327 1.2e-5,2.84636 0,4.26957 l -13.670379,-4.26957 -5.953862,14.49299 -2.585232,-1.68435 -6.8156,10.22342 v 6.85478 h 3.407803 l -5.1312845,3.40781 -8.85245496,28.12416 c 1.19625396,-0.0303 2.25217796,-0.12565 2.97693696,-0.31323 0.857804,-0.22218 1.454581,-0.51295 2.036843,-0.86176 0.582274,-0.34844 1.126747,-0.75692 1.840998,-1.13595 0.714251,-0.3788 1.605643,-0.74411 2.8594205,-1.05759 1.197463,-0.29927 2.381819,-0.33812 3.525309,-0.19607 1.143496,0.14204 2.256719,0.49291 3.290292,0.94006 1.033573,0.44739 1.991709,0.99106 2.85942,1.60599 0.867705,0.61493 1.625978,1.27345 2.27187,1.91934 1.268201,1.26817 2.382808,1.95401 3.407803,2.27186 1.024984,0.31809 1.988116,0.28895 2.898587,0.0783 0.910477,-0.21003 1.778085,-0.58458 2.702736,-0.90091 0.924652,-0.31627 1.870246,-0.58761 2.937759,-0.58761 2.535782,0 4.748266,0.43464 6.698095,0.86175 1.949841,0.42675 3.667769,0.86176 5.287968,0.86176 0.832187,0 2.294332,-0.65215 4.112864,-1.29263 0.909275,-0.31992 1.906383,-0.66077 2.937759,-0.90091 1.031393,-0.24039 2.102278,-0.39155 3.172778,-0.39155 0.7466,0 1.44248,-0.24038 2.1152,-0.62677 0.67271,-0.38668 1.33469,-0.92312 1.95851,-1.48846 1.24761,-1.13068 2.44091,-2.41512 3.64281,-3.01609 0.47095,-0.23553 2.63677,0.67103 4.77877,1.60599 2.14197,0.93497 4.22835,1.9296 4.5829,1.84098 0.53207,-0.13295 1.15881,-0.69725 1.80183,-1.48847 0.64301,-0.79122 1.31532,-1.80643 1.95851,-2.89856 1.28634,-2.18432 2.47231,-4.6313 3.09443,-5.87556 0.51593,-1.03191 1.00226,-1.87223 1.52764,-2.54605 0.52539,-0.67382 1.07906,-1.18434 1.76265,-1.56677 0.6836,-0.38244 1.47712,-0.62556 2.46773,-0.78345 0.9906,-0.15783 2.19643,-0.23493 3.64281,-0.23493 2.91765,0 5.14464,0.40004 6.93312,0.27439 0.89424,-0.0625 1.6688,-0.27196 2.35021,-0.70508 0.6814,-0.43343 1.286957,-1.08545 1.801817,-2.11518 0.29672,-0.59368 0.90591,-1.03002 1.72349,-1.33178 0.81758,-0.3017 1.85085,-0.49474 2.8986,-0.62671 2.09547,-0.26407 4.36848,-0.30899 5.64049,-0.62677 2.2325,-0.55788 3.97767,-1.20104 5.79718,-2.03681 1.81951,-0.83584 3.70493,-1.8329 6.14971,-3.0553 1.04054,-0.52024 2.34066,-0.74745 3.76033,-0.74423 1.41968,0.004 2.93462,0.21307 4.46539,0.5093 3.06158,0.59248 6.09297,1.53976 7.99072,1.91935 2.92158,0.58397 4.92802,1.35965 6.69809,1.4884 0.88505,0.0643 1.69862,-0.0364 2.54606,-0.39154 0.84744,-0.35451 1.72604,-0.98183 2.70274,-1.9585 1.49634,-1.49635 2.50766,-2.29577 3.60365,-2.97693 1.09599,-0.68122 2.26845,-1.21256 4.0737,-2.11523 1.03464,-0.5172 2.36927,-0.7361 3.7995,-0.74418 1.43024,-0.006 2.96299,0.18394 4.50457,0.46985 3.08314,0.57184 6.12838,1.50267 7.95154,1.9585 0.73388,0.18333 1.3527,-0.0121 1.91933,-0.431 0.56662,-0.42007 1.06548,-1.05419 1.5668,-1.76266 0.50136,-0.70848 0.98965,-1.47317 1.52764,-2.15433 0.53802,-0.68122 1.12522,-1.26769 1.80183,-1.60599 0.77765,-0.38912 1.6244,-0.60814 2.50689,-0.70508 0.88249,-0.0971 1.79544,-0.0747 2.70274,-0.0364 1.81459,0.0704 3.61924,0.24099 5.05294,-0.11777 0.70004,-0.17483 2.26732,-1.60496 3.95619,-3.13361 1.68886,-1.52865 3.4989,-3.17919 4.58291,-3.72116 0.16972,-0.085 0.30576,-0.0182 0.47003,-0.0783 -0.41431,-1.99953 -0.78562,-4.03343 -0.47003,-4.19126 1.39799,-0.69894 4.85602,-2.17873 7.08979,-3.29028 1.11688,-0.55545 1.9039,-1.00526 1.99768,-1.21427 0.0938,-0.20882 -0.52115,-0.20275 -2.27187,0.23493 -0.71608,0.17907 -4.46909,1.91661 -8.18656,3.48612 -1.85874,0.78472 -3.70133,1.54935 -5.17046,2.03686 -1.46913,0.48746 -2.53988,0.70969 -2.85942,0.46985 -1.00313,-0.7523 -3.30219,-1.73498 -5.36631,-2.46774 -2.06412,-0.73276 -3.9007,-1.20765 -4.03452,-0.94007 -0.79911,1.59822 -1.94795,2.95265 -3.29029,4.30872 -1.34236,1.35607 -2.87004,2.71336 -4.38706,4.23041 -0.98792,0.9879 -1.92369,1.52902 -2.82025,1.72345 -0.89655,0.19426 -1.74727,0.0182 -2.6244,-0.39154 -0.87713,-0.41036 -1.77304,-1.05352 -2.70274,-1.88013 -0.92969,-0.8266 -1.92271,-1.80522 -2.97692,-2.8594 -1.25472,-1.25476 -2.73328,-2.33772 -4.34789,-3.52534 -1.61462,-1.18761 -3.33346,-2.5109 -5.01378,-4.19119 -2.18263,-2.18262 -3.77763,-4.00587 -5.40548,-5.44468 -0.81392,-0.71934 -1.62066,-1.32499 -2.54606,-1.84097 -0.92541,-0.51599 -1.96912,-0.95251 -3.17278,-1.25348 -4.12385,-1.03094 -8.41122,-1.66214 -11.94689,-2.54606 -2.44152,-0.61038 -4.64213,-1.38095 -6.73727,-2.35016 -2.09512,-0.96926 -4.08416,-2.15244 -6.07136,-3.64285 -1.05254,-0.7894 -2.08941,-1.28189 -3.09445,-1.6843 -1.00503,-0.40247 -1.96403,-0.71339 -2.85942,-1.01843 -0.89538,-0.30534 -1.74414,-0.63861 -2.46771,-1.13596 -0.72357,-0.49717 -1.35136,-1.1359 -1.841,-2.11517 -0.73158,-1.46316 -1.67373,-2.91198 -2.93777,-4.23035 -1.26403,-1.31838 -2.84176,-2.4981 -4.739577,-3.44697 -0.92675,-0.46317 -2.11322,-0.66094 -3.4078,-0.74423 -1.29458,-0.0832 -2.69347,-0.0656 -3.95619,-0.11716 -0.47106,-0.0182 -0.78584,-0.14751 -1.21427,-0.19607 -0.0255,0.0862 0.0152,0.25738 -0.0388,0.31323 -0.16875,0.17483 -0.46487,0.2155 -0.86174,0.15662 -0.79376,-0.11777 -1.99907,-0.64414 -3.32947,-1.21427 -1.33039,-0.57001 -2.78616,-1.18598 -4.15203,-1.56677 -0.68292,-0.19061 -1.36068,-0.32963 -1.95851,-0.35269 -0.59782,-0.0243 -1.11673,0.0486 -1.5668,0.27438 -1.59177,0.79589 -3.84406,1.18082 -5.95387,1.48846 -2.10979,0.30777 -4.06087,0.56152 -5.13128,1.09681 -0.60042,0.29988 -1.54326,0.22885 -2.6244,-0.0364 -1.08114,-0.2677 -2.30281,-0.74471 -3.52531,-1.29263 -2.44502,-1.09571 -4.86195,-2.45057 -5.83635,-2.93772 -2.315468,-1.15775 -4.040121,-1.45131 -5.71884,-1.84103 -0.839356,-0.19486 -1.672951,-0.41825 -2.546065,-0.78339 -0.873102,-0.36483 -1.784738,-0.86849 -2.820248,-1.64514 -0.770997,-0.57851 -1.579552,-1.00089 -2.428542,-1.25342 -0.849002,-0.25253 -1.741237,-0.33934 -2.62441,-0.35269 -1.76632,-0.0243 -3.569531,0.33448 -5.209623,0.74423 -1.532076,0.38304 -2.967808,1.09875 -4.504563,1.64514 z"
       style="fill:#000000;fill-opacity:1;fill-rule:evenodd;stroke:#d39062;stroke-width:0.626722;stroke-linecap:butt;stroke-linejoin:miter;stroke-miterlimit:4;stroke-dasharray:none;stroke-opacity:1"
       id="San_Ignacio"
       inkscape:connector-curvature="0" />
  </g>
</svg>
