<?xml version="1.0" encoding="UTF-8" standalone="no"?>
<!-- Created with Inkscape (http://www.inkscape.org/) -->

<svg
   width="210mm"
   height="297mm"
   viewBox="0 0 210 297"
   version="1.1"
   id="svg1283"
   inkscape:version="1.1.2 (b8e25be833, 2022-02-05)"
   sodipodi:docname="vector.svg"
   xmlns:inkscape="http://www.inkscape.org/namespaces/inkscape"
   xmlns:sodipodi="http://sodipodi.sourceforge.net/DTD/sodipodi-0.dtd"
   xmlns="http://www.w3.org/2000/svg"
   xmlns:svg="http://www.w3.org/2000/svg">
  <sodipodi:namedview
     id="namedview1285"
     pagecolor="#ffffff"
     bordercolor="#666666"
     borderopacity="1.0"
     inkscape:pageshadow="2"
     inkscape:pageopacity="0.0"
     inkscape:pagecheckerboard="0"
     inkscape:document-units="mm"
     showgrid="false"
     inkscape:zoom="0.52347032"
     inkscape:cx="155.69173"
     inkscape:cy="611.30496"
     inkscape:window-width="1920"
     inkscape:window-height="1017"
     inkscape:window-x="-8"
     inkscape:window-y="-8"
     inkscape:window-maximized="1"
     inkscape:current-layer="layer1" />
  <defs
     id="defs1280" />
  <g
     inkscape:label="Capa 1"
     inkscape:groupmode="layer"
     id="layer1">
    <path
       d="m 115.93326,89.940178 c -1.38115,-0.10892 -2.58768,0.75478 -3.17313,3.26009 -6.32831,4.42423 -15.613681,4.31155 -18.039271,13.475102 -2.63266,6.78471 7.951671,20.1815 -2.43425,23.25549 -6.32784,2.8804 0.26493,8.8783 -7.52,11.17125 -2.87164,5.17512 -3.44384,10.38633 -11.04085,9.43262 -6.78606,0.91733 -8.50822,7.99347 -13.99679,10.86704 -7.65735,6.37459 -15.73867,-2.46415 -20.03879,-8.56326 -5.62575,-2.75012 -2.7069,-14.04195 -11.17131,-9.3456 -8.329,3.75935 -15.35727,0.15543 -26.7328798,5.0423 -5.64024,10.73417 12.2558498,1.26175 15.5181198,8.25894 1.30308,5.66767 6.15286,11.04161 0.21725,14.64871 -2.41853,10.85657 6.73913,-4.63977 12.17107,-0.0412 4.57336,2.97767 15.50234,1.13888 8.69361,8.38935 2.12951,4.25261 -0.20312,6.62351 -2.43419,9.1718 l 7.95462,2.60805 11.08441,-2.73846 0.69549,6.9114 6.95486,-2.08647 5.52048,2.78197 2.08648,-4.17295 27.0806,0.69549 10.388861,13.90983 14.56187,-7.65041 28.47159,-0.69549 4.1295,-7.65041 26.38511,2.78197 27.8196,-2.30378 0.21725,-65.68035 c -8.62114,-1.47547 -10.5576,-8.90386 -15.43123,-15.03994 -2.05309,-5.11083 -3.51195,-6.96027 -4.86844,-0.39152 -0.38268,3.18279 -0.004,7.53978 -1.99951,9.2587 -3.96983,3.41999 -10.86622,4.06885 -15.30076,6.52024 -3.69164,4.49658 -12.90459,-0.45216 -12.51884,6.43328 -8.0056,5.79496 -17.05836,1.79946 -22.16871,-5.60738 -3.63166,-3.68076 1.10591,-10.03709 -6.56369,-11.25828 -3.86798,-4.28175 -3.5726,-12.46244 -7.17223,-17.648042 -0.35972,-2.79433 -4.30753,-7.75815 -7.34614,-7.99812 z"
       style="fill:#000000;fill-opacity:1;fill-rule:evenodd;stroke:#d39062;stroke-width:1.39098;stroke-linecap:butt;stroke-linejoin:miter;stroke-miterlimit:4;stroke-dasharray:none;stroke-opacity:1"
       id="Primavera" />
  </g>
</svg>
