<?xml version="1.0" encoding="UTF-8" standalone="no"?>
<!-- Created with Inkscape (http://www.inkscape.org/) -->

<svg
   width="210mm"
   height="297mm"
   viewBox="0 0 210 297"
   version="1.1"
   id="svg64"
   inkscape:version="1.1.2 (b8e25be833, 2022-02-05)"
   sodipodi:docname="vector.svg"
   xmlns:inkscape="http://www.inkscape.org/namespaces/inkscape"
   xmlns:sodipodi="http://sodipodi.sourceforge.net/DTD/sodipodi-0.dtd"
   xmlns="http://www.w3.org/2000/svg"
   xmlns:svg="http://www.w3.org/2000/svg">
  <sodipodi:namedview
     id="namedview66"
     pagecolor="#ffffff"
     bordercolor="#666666"
     borderopacity="1.0"
     inkscape:pageshadow="2"
     inkscape:pageopacity="0.0"
     inkscape:pagecheckerboard="0"
     inkscape:document-units="mm"
     showgrid="false"
     inkscape:zoom="0.74029882"
     inkscape:cx="361.34057"
     inkscape:cy="561.93525"
     inkscape:window-width="1920"
     inkscape:window-height="1017"
     inkscape:window-x="-8"
     inkscape:window-y="-8"
     inkscape:window-maximized="1"
     inkscape:current-layer="layer1" />
  <defs
     id="defs61" />
  <g
     inkscape:label="Capa 1"
     inkscape:groupmode="layer"
     id="layer1">
    <path
       id="Pumanque"
       style="fill:#000000;fill-opacity:1;fill-rule:evenodd;stroke:#d39062;stroke-width:1.08796;stroke-linecap:butt;stroke-linejoin:miter;stroke-miterlimit:4;stroke-dasharray:none;stroke-opacity:1"
       d="m 206.70629,180.00719 c -3.18531,-1.55449 -6.46719,-2.82937 -10.08248,-2.21989 -5.9444,-0.31745 -8.24886,5.47082 -10.69149,9.72623 -1.63368,7.0865 -10.69924,2.01988 -13.66434,7.71103 -1.74883,5.25133 3.69627,12.98103 -4.07824,15.85719 -5.23712,1.36156 -12.29035,0.32567 -14.90361,-4.65164 -6.23926,-0.72699 -10.53688,7.18199 -16.87535,3.11606 -5.1639,0.23932 -10.19708,0.68753 -14.31692,-3.41014 -11.21013,1.64643 -10.70245,9.05318 -13.40799,14.24587 1.20461,4.55007 -7.86224,8.52668 -14.202002,7.63479 -6.76595,-4.29685 -7.90321,5.66302 -13.42579,0.26646 -4.37188,-5.23044 -11.45774,2.7783 -16.93657,0.23685 -4.61557,-2.74713 -7.68847,-7.47476 -12.50604,-10.02706 -4.81758,-2.55231 -5.99792,-3.66115 -5.40719,-3.97464 0.59072,-0.31334 0.52288,-1.33705 -0.68341,-3.47923 -3.5997,-2.81235 -7.88548,-10.709 -9.62989,-14.60016 -1.24234,-2.77106 0.48809,-7.48455 -0.68341,-10.18899 -4.41933,-0.42847 -4.45601,-3.03596 -6.02645,-7.14473 -1.89997,-4.15393 -2.78701,-7.01685 2.05024,-8.76017 1.37667,-5.48324 -4.45161,-10.27534 -3.54132,-19.63248 2.4182,-5.12451 -2.39397,-13.88467 -6.834111,-13.73039 -1.809197,-2.17211 -2.367604,-7.32023 -3.789831,-9.69202 -2.654933,-4.42753 -5.587268,-6.36831 -7.7039093,-11.12093 l -0.310619,-11.99078 c -0.08882,-3.32914 -3.084405,-5.822729 -4.783878,-8.014579 -2.759566,-0.75496 -3.72898197,-4.85682 -3.72770697,-7.45535 1.05094797,-0.0822 1.00125897,-1.72432 0.96900497,-1.80179 l 3.248891,-0.47452 c 1.996794,3.82727 2.532289,7.65453 8.6113173,11.48172 h 6.150946 c -0.49278,3.749959 -3.526327,7.923289 2.050315,10.661619 7.003181,2.20254 9.696361,-7.62747 11.481761,-3.69058 5.64198,2.84713 9.69427,0.92519 14.3522,0.81993 l 6.56101,6.15094 c 4.96079,-0.097 11.91192,1.79702 13.94214,-1.23014 9.51274,-4.28567 1.04447,-9.65164 6.561,-11.071749 0,0 8.30855,1.017219 6.34111,-3.2673 -1.96745,-4.28452 -9.89957,-6.88937 8.5342,-15.70776 9.02403,-2.99813 4.22135,-10.01226 14.819952,-9.5245 2.3065,-6.07183 3.48332,-4.09734 5.9211,-1.33754 9.06595,1.08671 22.16218,6.41074 26.46765,6.78222 1.87257,1.53113 4.13643,1.64726 6.61906,1.12043 -1.9993,2.61316 -1.65086,5.7534 -1.3263,8.82858 4.03891,5.00478 6.44383,7.47706 12.93027,8.52858 4.44087,0.17846 4.6209,-3.06754 7.97829,-5.22715 1.50246,-0.75167 6.24317,0.73522 7.70313,1.10037 1.59269,2.95832 1.1075,6.58837 0.55019,8.2534 0.65232,1.630729 2.60786,2.332809 3.8516,3.576509 3.09263,1.23845 3.18479,2.53315 5.50223,4.95198 3.17985,2.5704 2.62349,1.52793 6.05246,5.50224 1.52278,1.21822 2.60878,0.40791 3.57648,1.37554 0.80833,0.80841 1.10045,3.00865 1.10045,4.1267 0,1.80171 4.16584,1.94538 5.77735,2.75116 2.36332,1.18162 3.38944,1.9698 5.50224,3.02625 2.49365,0.2237 4.29133,-0.25987 6.60269,-0.82535 1.35515,0 -0.59952,3.42922 -0.55018,3.57643 0.45314,1.36304 -0.29031,12.00945 -2.20093,9.62894 -1.30795,-1.6299 1.17006,3.16549 1.92584,4.67697 -0.87328,0.57897 -2.57653,2.95898 -3.30141,3.85153 -1.24685,3.77825 0.20996,5.6376 -2.47601,8.80358 -1.07965,1.07964 0.12468,2.69943 0.55027,4.40179 0.62132,2.48537 0.82535,6.52095 0.82535,7.97831 0,1.63542 0.0836,3.51024 0.55026,4.67689 1.0157,3.26647 2.84165,6.0354 2.40647,8.82472 z"
       sodipodi:nodetypes="cccccccccccccccscccccsccccccccccccccscccccccccccccsssccsscccsscc"
       inkscape:label="#path1877" />
  </g>
</svg>
