<?xml version="1.0" encoding="UTF-8" standalone="no"?>
<!-- Created with Inkscape (http://www.inkscape.org/) -->

<svg
   width="210mm"
   height="297mm"
   viewBox="0 0 210 297"
   version="1.1"
   id="svg57"
   inkscape:version="1.1.2 (b8e25be833, 2022-02-05)"
   sodipodi:docname="vector.svg"
   xmlns:inkscape="http://www.inkscape.org/namespaces/inkscape"
   xmlns:sodipodi="http://sodipodi.sourceforge.net/DTD/sodipodi-0.dtd"
   xmlns="http://www.w3.org/2000/svg"
   xmlns:svg="http://www.w3.org/2000/svg">
  <sodipodi:namedview
     id="namedview59"
     pagecolor="#ffffff"
     bordercolor="#666666"
     borderopacity="1.0"
     inkscape:pageshadow="2"
     inkscape:pageopacity="0.0"
     inkscape:pagecheckerboard="0"
     inkscape:document-units="mm"
     showgrid="false"
     inkscape:zoom="0.74029882"
     inkscape:cx="361.34057"
     inkscape:cy="561.93525"
     inkscape:window-width="1920"
     inkscape:window-height="1017"
     inkscape:window-x="-8"
     inkscape:window-y="-8"
     inkscape:window-maximized="1"
     inkscape:current-layer="layer1" />
  <defs
     id="defs54" />
  <g
     inkscape:label="Capa 1"
     inkscape:groupmode="layer"
     id="layer1">
    <path
       inkscape:connector-curvature="0"
       id="Hualqui"
       style="fill:#000000;fill-opacity:1;fill-rule:evenodd;stroke:#d39062;stroke-width:0.971497;stroke-linecap:butt;stroke-linejoin:miter;stroke-miterlimit:4;stroke-dasharray:none;stroke-opacity:1"
       d="m 144.36318,280.99015 c 0.0502,-0.22884 -0.0702,-0.6494 0,-0.85014 0.32823,-0.97764 0.89031,-1.64993 1.45732,-2.30726 0.56709,-0.65744 1.11393,-1.28236 1.4572,-2.18591 0.34328,-0.90336 0.46473,-2.10913 0.12145,-3.8253 -0.39547,-1.97613 -0.7016,-4.80702 -0.36436,-7.40757 0.16863,-1.30033 0.47778,-2.52909 1.03223,-3.5825 0.55406,-1.0533 1.35333,-1.891 2.42881,-2.42871 0.33525,-0.16762 11.51994,-6.04412 11.41505,-6.25399 -1.12868,-2.25739 -1.64891,-3.70495 -1.63938,-4.67535 0.01,-0.97059 0.51491,-1.41274 1.33576,-1.7001 0.82105,-0.28707 1.97222,-0.39949 3.27886,-0.60726 1.30665,-0.20777 2.78462,-0.54201 4.25027,-1.27502 1.97954,-0.98968 4.24665,-1.86553 6.19338,-3.21815 0.9736,-0.6765 1.89523,-1.49766 2.61088,-2.48943 0.71566,-0.99168 1.22655,-2.12539 1.51792,-3.58239 0.46172,-2.30666 0.31316,-4.20339 -0.18166,-5.82902 -0.49584,-1.62553 -1.29431,-3.00174 -2.18582,-4.311 -0.8913,-1.30926 -1.88459,-2.52837 -2.61098,-3.88601 -0.7267,-1.35754 -1.2143,-2.84396 -1.2143,-4.61462 0,-5.1746 0,-10.36937 0,-15.54396 0,-5.1746 0,-10.36937 0,-15.54396 0,-3.18794 -0.38444,-6.02656 0.0602,-8.07556 0.22283,-1.0246 0.65442,-1.79887 1.45721,-2.36808 0.80297,-0.56912 1.94642,-0.91039 3.64311,-0.91039 3.11756,0 4.8233,-0.41956 6.19327,-1.27502 1.37009,-0.85618 2.43815,-2.13453 4.18965,-3.88602 3.97705,-3.97706 6.72755,-8.85274 11.35442,-13.47961 0.68454,-0.68353 2.75071,-2.02541 4.37172,-3.70374 0.81,-0.83911 1.49685,-1.78632 1.88228,-2.73243 0.38543,-0.94652 0.47877,-1.89543 0,-2.85369 -1.45921,-2.91853 -2.0212,-4.79016 -2.00374,-6.01119 0.0201,-1.22104 0.58316,-1.81624 1.33586,-2.24654 0.75279,-0.4306 1.68163,-0.66748 2.42871,-1.2144 0.74677,-0.54703 1.33575,-1.40573 1.33575,-2.97524 0,-2.06797 -0.20476,-3.61983 -0.54601,-4.85753 -0.34127,-1.23758 -0.83109,-2.12156 -1.51794,-2.85378 -1.37439,-1.46422 -3.47198,-2.25205 -6.2541,-3.64311 -1.13852,-0.56912 -3.49517,-1.88459 -6.07183,-3.03586 -2.57655,-1.15138 -5.338,-2.12519 -7.34695,-2.12519 -0.91539,0 -1.97231,-0.41453 -3.09669,-1.03223 -1.12427,-0.61729 -2.30656,-1.46001 -3.46094,-2.36797 -2.30866,-1.81606 -4.53592,-3.9029 -5.88965,-4.91826 -1.77869,-1.33395 -3.0194,-2.40392 -3.76456,-3.27876 -0.74476,-0.87525 -1.00824,-1.54492 -0.78892,-2.12518 0.21881,-0.58016 0.95052,-1.06776 2.06435,-1.51793 1.11333,-0.44968 2.61561,-0.85116 4.55389,-1.33586 1.2644,-0.316174 2.13824,-0.761834 2.73234,-1.275144 0.5942,-0.51289 0.93447,-1.11432 1.2144,-1.76083 0.56008,-1.29289 0.86723,-2.74919 2.30736,-4.18953 0.57313,-0.57313 2.85439,-2.04258 5.0396,-3.52166 2.1852,-1.47909 4.25036,-3.00987 4.25026,-3.76458 0,-1.17305 0.58117,-2.58689 1.33585,-4.06819 0.75482,-1.48119 1.67874,-3.04399 2.48945,-4.43244 0.81101,-1.38845 1.47126,-2.62695 1.63948,-3.52167 0.0803,-0.44765 0.0301,-0.78389 -0.18168,-1.03223 -0.20776,-0.24891 -0.5671,-0.36434 -1.15367,-0.36434 -1.72491,0 -3.43625,1e-4 -5.16106,0 -2.48561,0 -5.45843,0.27602 -8.37917,0.42457 -2.92083,0.14956 -5.80714,0.17265 -8.19702,-0.42457 -2.29139,-0.57313 -4.21875,-0.98064 -5.88974,-1.39648 -1.671,-0.41554 -3.05393,-0.85417 -4.25026,-1.57866 -1.19644,-0.72468 -2.22898,-1.71918 -3.09669,-3.21814 -0.86723,-1.49885 -1.5618,-3.51463 -2.24664,-6.254 -0.19974,-0.79997 -0.51892,-1.38292 -0.91038,-1.82155 -0.39246,-0.43863 -0.86922,-0.71867 -1.39648,-0.85016 -1.05431,-0.26398 -2.32973,0.0301 -3.58238,0.66748 -1.25265,0.63637 -2.52667,1.63316 -3.52167,2.73234 -0.99468,1.09917 -1.72239,2.27494 -2.00373,3.40022 -0.0602,0.25092 -0.74175,3.50338 -1.57876,6.61834 -0.41855,1.55748 -0.8893,3.09187 -1.33576,4.18963 -0.44665,1.09768 -0.84915,1.78533 -1.2144,1.63939 -3.08433,-1.23378 -5.45182,-2.30203 -7.40767,-3.82528 -0.97764,-0.76183 -1.84756,-1.6715 -2.67162,-2.73234 -0.82406,-1.06084 -1.61238,-2.31399 -2.36798,-3.82529 -1.05282,-2.10551 -1.19494,-3.42751 -0.97162,-4.37173 0.22384,-0.94449 0.84816,-1.46061 1.39648,-1.943 0.54804,-0.48279 0.98968,-0.91941 0.91039,-1.63938 -0.0803,-0.71967 -0.71063,-1.74326 -2.36799,-3.40031 -1.62051,-1.62042 -2.74267,-4.34764 -3.94674,-7.10405 -0.60223,-1.37821 -1.24723,-2.72953 -1.943,-4.00737 -0.69558,-1.27795 -1.44658,-2.4789 -2.36799,-3.40032 -1.03885,-1.03875 -2.17797,-1.75902 -3.33959,-2.24653 -1.16151,-0.48781 -2.3442,-0.70261 -3.58239,-0.72871 -1.23819,-0.0301 -2.49596,0.14053 -3.76456,0.48582 -1.26851,0.34527 -2.57235,0.83107 -3.82519,1.45719 -1.84113,0.92042 -4.28399,1.46032 -6.61835,1.88229 -2.334471,0.42256 -4.527901,0.71866 -5.768311,1.2144 -2.78523,1.11413 -4.44458,2.82106 -6.13254,3.52166 -0.84413,0.35031 -1.73313,0.46875 -2.73234,0.12146 -0.9997,-0.3473 -2.14154,-1.17004 -3.58238,-2.61089 -1.25015,-1.25014 -4.08486,-2.58891 -6.61836,-4.37172 -1.2668,-0.8913 -2.46765,-1.88258 -3.33959,-3.03596 -0.87223,-1.15338 -1.39648,-2.44548 -1.39648,-3.94674 0,-1.40702 -0.12346,-2.54906 -0.36435,-3.46094 -0.2409,-0.91138 -0.60725,-1.58749 -1.03223,-2.12518 -0.85015,-1.0754 -2.02923,-1.51764 -3.27877,-1.82156 -1.24952,-0.30413 -2.56722,-0.47175 -3.76456,-0.97161 -0.59821,-0.24993 -1.19914,-0.61327 -1.70011,-1.09296 -0.50085,-0.47977 -0.92844,-1.11171 -1.27513,-1.94289 -0.71665,-1.71848 -1.40792,-3.44278 -2.12509,-5.16116 l -9.1685,4.37173 h 0.2429 l -1.03223,7.89348 -3.03585,2.24653 -0.24291,8.68281 -7.10406,0.2429 -3.33959,4.31099 -0.4858,8.68282 -9.16851,7.10405 h -3.03596 l -0.24291,-16.51547 H 9.7510791 l -1.03223,10.62571 -3.58238,0.54703 -0.72871,18.82273 h -2.79306 l -1.09296,11.23297 c 3.09137,0.96258 6.57801,1.39658 10.0186799,1.39658 10.35903,-0.17565 21.07056,-5.72724 28.6591,2.61089 4.29625,5.72835 5.33189,9.94289 4.31111,14.026034 -0.82106,3.28258 -12.73264,8.43539 -10.68655,14.99743 0.37238,1.19574 2.26801,2.95547 0.18167,13.11527 -0.68955,3.35805 2.11004,4.22005 3.64311,7.28622 7.78137,17.53033 -0.72268,4.58732 -2.00373,20.03714 -2.92776,10.33934 0.77688,6.08396 5.95048,14.9368 -3.1803,0.58919 -4.67886,22.96599 -0.12145,26.29123 -0.42458,0.9696 -0.85016,1.94522 -1.27514,2.91441 -0.40249,0.92041 -0.22784,3.03657 0.60726,6.37546 0.85115,3.40482 3.8811,7.40285 5.82892,9.35068 1.72571,1.7257 3.29543,8.14201 3.46105,8.80425 0.74576,2.98377 2.76896,4.46909 5.28249,6.98261 2.09005,2.08996 4.03778,3.43062 6.43617,5.82903 2.91341,2.9134 2.54746,2.78213 3.46094,6.43618 0.49383,1.97472 7.2268,6.61955 8.80427,8.197 2.68093,2.68095 4.38024,4.42371 6.98259,6.37545 3.37252,2.52939 7.45607,1.76083 11.65795,1.76083 3.03778,10e-5 5.45725,4.06819 9.350681,4.06819 2.84155,0 5.67115,2.61329 8.19702,4.12883 3.15902,1.89542 4.78616,5.48705 7.58986,7.58985 2.70925,2.03193 3.2093,3.86856 6.43617,4.67534 3.60908,0.90235 9.15355,0 12.81162,0 3.0993,0 5.83074,-0.19071 8.25774,-0.60725 z" />
  </g>
</svg>
