<?xml version="1.0" encoding="UTF-8" standalone="no"?>
<!-- Created with Inkscape (http://www.inkscape.org/) -->

<svg
   width="210mm"
   height="297mm"
   viewBox="0 0 210 297"
   version="1.1"
   id="svg1283"
   inkscape:version="1.1.2 (b8e25be833, 2022-02-05)"
   sodipodi:docname="vector.svg"
   xmlns:inkscape="http://www.inkscape.org/namespaces/inkscape"
   xmlns:sodipodi="http://sodipodi.sourceforge.net/DTD/sodipodi-0.dtd"
   xmlns="http://www.w3.org/2000/svg"
   xmlns:svg="http://www.w3.org/2000/svg">
  <sodipodi:namedview
     id="namedview1285"
     pagecolor="#ffffff"
     bordercolor="#666666"
     borderopacity="1.0"
     inkscape:pageshadow="2"
     inkscape:pageopacity="0.0"
     inkscape:pagecheckerboard="0"
     inkscape:document-units="mm"
     showgrid="false"
     inkscape:zoom="0.74029882"
     inkscape:cx="361.34057"
     inkscape:cy="561.93525"
     inkscape:window-width="1920"
     inkscape:window-height="1017"
     inkscape:window-x="-8"
     inkscape:window-y="-8"
     inkscape:window-maximized="1"
     inkscape:current-layer="layer1" />
  <defs
     id="defs1280" />
  <g
     inkscape:label="Capa 1"
     inkscape:groupmode="layer"
     id="layer1">
    <path
       d="m 46.838706,70.155941 c -0.82115,2.2804 -5.70862,0.57191 -6.27085,3.50822 -0.7644,2.46176 -6.64659,-0.4395 -5.74088,3.59856 -2.70599,-0.0111 -2.56802,3.29493 -6.14578,2.98305 -1.80229,2.00201 -2.91484,3.37359 -4.73738,5.37882 0.27928,3.26444 -3.8922,2.45954 -4.1678,5.17821 -2.71623,1.01475 -1.06927,5.06484 -2.36596,6.98006 2.30509,1.09486 -4.27629,1.75088 -4.77788,2.762739 -3.15128,1.38604 -5.90723,-2.727579 -7.23385,0 -3.80886,-0.635329 -2.56246,3.78549 -2.76263,6.7593 -1.67611008,1.32651 -2.21275008,4.55779 -1.70638008,5.9978 1.37002008,1.1388 1.17308008,4.59484 3.50811008,5.74088 2.06321,1.00585 1.84947,5.26678 1.80173,8.03386 0.98471,0.62642 2.14366,6.53165 0.96134,6.74049 -3.75656,1.5298 0.52518,2.84675 0,5.61872 2.25181,2.95089 -0.72211,4.87156 0.96134,6.48625 -0.38053,3.09365 -2.1767,2.91518 -0.96134,6.27296 -0.25813,1.67089 -0.22921,3.74811 -3.72352,3.72363 2.08124,2.5421 6.01427,-2.13007 3.72352,2.01514 1.82009,1.74365 -2.37709,2.89081 0.56412,4.81827 -3.08073,0.19138 -1.22404,4.80558 -5.1287,4.21732 0.34382,3.8814 -1.85091008,4.44897 1.36791,5.52536 3.74499,-0.83783 4.08413,1.73052 4.99829,3.72363 2.65181,1.38649 -1.36468,3.3757 -1.80184,5.52536 -0.0556,2.85498 -4.55,3.93159 -2.76263,4.56447 0.85564,2.34037 4.50194,-2.22176 4.56447,2.76274 2.39389,1.63872 0.72657,2.61497 2.76263,4.77787 1.04367,1.90388 2.27439,3.62027 2.44908,6.39291 3.5051,0.01 4.08758,2.39934 6.5796,2.76273 1.93481,0.90126 2.4838,3.18844 2.98305,5.52536 1.10376,2.93454 1.23394,4.82584 3.72363,5.52537 2.5007,-1.96318 3.4172,-2.2735 6.27084,-0.21586 1.03255,-1.16629 4.24503,-1.46159 3.93904,-4.46911 3.0636,-1.14771 4.77677,0.14909 6.3662,-0.84117 0.44173,-1.85392 4.4818,-2.84052 3.19657,-4.68453 -1.38248,-2.02148 1.46648,-4.96558 1.58131,-5.52536 3.56864,-0.51628 5.78639,0.31711 7.23385,1.92179 2.31378,0.65535 3.32953,2.60952 3.72363,5.18488 -1.2681,4.74406 5.23785,0.15244 4.56447,2.14232 0.53297,2.84062 2.3999,4.88981 4.68452,5.09154 -0.31933,2.93998 2.30555,4.27862 1.80174,7.75402 0.91349,2.06721 2.79756,3.16396 4.25081,4.69153 0.7477,3.38494 4.7189,0.90682 7.10667,0.96134 2.58605,-0.14687 2.73848,-3.78994 5.21871,-3.72363 1.56018,-3.31117 1.83511,4.9391 2.76263,0.22031 1.98332,-2.16891 2.96045,-2.38455 5.52536,-3.94394 1.02142,1.48117 4.16981,-1.10932 4.684634,-0.84117 3.41987,-0.25369 4.23,2.27194 4.56435,4.56447 3.27401,0.94576 5.78895,-1.12501 5.52548,-4.34405 0.0668,-3.06449 1.45947,-2.60852 1.92178,-5.86595 3.16808,-0.22921 3.43123,2.44552 5.09165,3.72363 0.77886,1.96863 3.47829,4.72213 4.56436,2.76274 1.14036,-1.9545 -0.75105,-6.23769 2.6083,-7.69995 1.81797,-1.85047 2.13575,-3.79106 3.87806,-5.15262 1.2207,-1.96796 3.25843,-2.09837 5.74367,-3.50811 1.34832,-1.40974 5.07184,-1.50821 6.26806,-2.97815 1.0281,-1.87917 3.70672,-2.10793 5.95919,-2.76273 0.2815,-1.31483 5.90367,-3.04257 6.48626,-0.96134 3.92457,-0.70765 5.38305,1.04924 8.68821,0.96134 3.20524,-0.87344 5.39952,1.72774 7.02033,2.76273 2.10148,0.80557 1.96273,3.85181 4.15746,4.56436 3.40051,0.68874 4.34338,-1.24195 5.95919,-3.60346 1.7708,-2.45153 0.68985,-3.29604 1.80173,-5.52536 -1.28958,-1.79506 -0.82782,-4.76175 -2.17448,-6.85911 -1.14626,-2.20941 0.40946,-5.10244 2.7949,-5.15262 1.98877,-2.85832 4.41337,0.71878 6.48636,0.84117 2.85899,0.26481 0.62198,-3.08552 5.74578,-1.80173 0.73436,2.71422 3.36825,-3.29581 5.64542,0 1.2582,2.14265 6.33894,0.19694 3.60347,-1.48808 0.76884,-2.39166 3.95384,-2.94321 5.52547,-4.03728 3.25386,-2.05342 -2.46633,-2.60919 -3.28992,-3.72363 0.11795,-1.88118 -4.09425,-3.95696 -1.27455,-6.48637 -0.72323,-2.30187 -0.44284,-2.26538 -1.80173,-5.18489 -0.20696,-3.97721 -2.74783,-1.04479 -2.76274,-3.94394 -1.73619,-1.24217 -0.77107,-5.18611 -2.88279,-6.05254 -3.06594,0.0111 -3.97287,-1.74654 -6.3662,-3.19645 0.32935,-2.55623 -4.148,-4.14611 -4.68452,-6.05254 -3.21048,-0.44506 -2.67784,-2.56546 -6.23914,-1.39472 -2.02003,-0.82114 -2.86666,-0.70209 -6.57961,-0.84117 -0.78776,-2.02638 -2.51483,-3.11323 -1.95572,-6.48637 1.21236,-2.55923 2.78911,-4.92074 0,-6.05254 -2.25158,-1.05146 0.68206,-6.07935 -1.80173,-7.76092 1.23349,-2.83873 1.7254,-4.34906 3.72363,-5.52536 2.10983,-1.98966 1.66621,-5.26155 1.36802,-6.48626 -0.31266,-3.25998 4.04607,-1.84868 5.11835,-3.72363 1.41575,0.0334 -0.67094,-5.012759 3.60346,-3.723629 1.74031,0.833389 6.73683,2.856759 6.38634,-0.089 -0.65091,-2.80591 0.0668,-7.12203 -1.38805,-9.04037 -2.84663,-0.76106 -7.29671,1.16307 -7.76092,0 -1.44968,1.46293 -5.25598,0.51183 -6.05254,0 -0.8701,2.95757 -4.7041,3.09487 -7.76092,2.76274 -1.33419,1.93314 -6.23279,0.30153 -8.96114,0.84117 -2.50894,-0.2726 -3.48975,-3.40819 -6.64715,-2.76274 -2.11172,-0.59304 -4.43551,-0.26258 -5.65243,-0.84117 -3.37069,0.25703 -5.16174,-1.06593 -7.42044,-1.9219 -2.09648,2.97949 -3.46038,-2.15867 -5.43201,-0.31377 -0.8434,3.35267 3.84368,4.6319 3.35089,6.21176 -0.61753,2.45309 0.4929,2.00992 -0.5886,5.15263 -1.9091,0.827819 -4.61754,2.226649 -4.51696,3.577089 1.07706,2.64713 0.006,1.34899 -2.58972,2.90927 -3.58176,-1.04812 -2.70298,5.20959 -6.57972,3.72363 -3.95673,0.69764 -5.47573,-1.04145 -8.81516,-0.96134 -5.3104,-1.23472 0.70876,4.85732 -3.32363,3.72363 0.33936,-0.73435 -4.70032,-1.71127 -6.48626,-0.43393 0.64646,2.36529 -5.801624,2.87567 -3.723624,0.86787 0.0779,-2.66271 -3.81909,-2.94165 -5.09153,-2.23556 -2.30399,-1.80885 -3.53114,-0.71099 -5.95919,-1.48807 -2.19417,-0.35049 -3.14082,-0.6854 -5.52536,1.48807 -1.25286,1.68557 -4.63835,1.2384 -6.48637,2.32891 -2.11695,2.149 -3.80986,0.20585 -5.09153,-1.48807 -0.2281,-2.6794 -3.35401,-2.46065 -3.19657,-5.52536 2.36574,-1.09486 -1.16417,-3.87562 -1.3679,-5.52536 -0.94688,-2.501819 -4.23913,-3.701269 -5.76014,-4.211759 1.46527,-2.70966 2.0374,-6.74817 4.05165,-8.64081 2.47322,0.88679 5.53159,1.71617 4.99829,-1.26765 -0.91683,-1.41564 -3.44257,-3.44769 -4.68452,-5.21872 -1.17264,-2.18393 -4.52319,-1.18376 -7.18056,-2.59505 -1.56329,-1.73364 0.19694,-6.39625 -2.68897,-6.65394 -2.68418,-1.22381 -3.26677,0.23589 -6.5796,-0.96134 -0.12128,-0.73547 0.007,-1.00695 -1.08819,-0.84117 z M 6.239156,187.26993 c -0.77775,2.53476 2.13754,-0.96467 0,0 z m 143.059234,11.05084 c -1.23505,1.70326 -5.05081,0.82559 -6.05243,2.76262 -3.19878,0.68206 -3.48073,3.7312 -5.2117,4.68464 -2.64802,3.43256 3.1031,-0.18582 3.81687,-0.96134 0.48624,-1.99266 3.74422,-2.72991 6.48637,-2.76263 0.49068,-1.86938 5.19902,-1.35043 0.96134,-3.72363 z"
       style="fill:#000000;fill-opacity:1;stroke:#d39062;stroke-width:1.47196;stroke-miterlimit:4;stroke-dasharray:none;stroke-opacity:1"
       id="Los_Muermos" />
  </g>
</svg>
