<?xml version="1.0" encoding="UTF-8" standalone="no"?>
<!-- Created with Inkscape (http://www.inkscape.org/) -->

<svg
   width="210mm"
   height="297mm"
   viewBox="0 0 210 297"
   version="1.1"
   id="svg64"
   inkscape:version="1.1.2 (b8e25be833, 2022-02-05)"
   sodipodi:docname="vector.svg"
   xmlns:inkscape="http://www.inkscape.org/namespaces/inkscape"
   xmlns:sodipodi="http://sodipodi.sourceforge.net/DTD/sodipodi-0.dtd"
   xmlns="http://www.w3.org/2000/svg"
   xmlns:svg="http://www.w3.org/2000/svg">
  <sodipodi:namedview
     id="namedview66"
     pagecolor="#ffffff"
     bordercolor="#666666"
     borderopacity="1.0"
     inkscape:pageshadow="2"
     inkscape:pageopacity="0.0"
     inkscape:pagecheckerboard="0"
     inkscape:document-units="mm"
     showgrid="false"
     inkscape:zoom="0.74029882"
     inkscape:cx="361.34057"
     inkscape:cy="453.87078"
     inkscape:window-width="1920"
     inkscape:window-height="1017"
     inkscape:window-x="-8"
     inkscape:window-y="-8"
     inkscape:window-maximized="1"
     inkscape:current-layer="layer1" />
  <defs
     id="defs61" />
  <g
     inkscape:label="Capa 1"
     inkscape:groupmode="layer"
     id="layer1">
    <path
       id="La_Estrella"
       style="fill:#000000;fill-opacity:1;fill-rule:evenodd;stroke:#d39062;stroke-width:1.05634;stroke-linecap:butt;stroke-linejoin:miter;stroke-miterlimit:4;stroke-dasharray:none;stroke-opacity:1"
       d="m 146.25435,64.666136 c -2.74521,-1.03636 7.64534,-1.31152 8.32505,0.95627 0.67976,2.2678 3.00967,6.04466 3.45237,8.32523 -3.95438,12.5752 12.50629,2.24935 10.75588,11.75099 -1.87595,13.10141 1.26891,5.37768 4.29289,8.63169 1.55558,1.67388 5.6382,2.20336 9.04767,0.76416 3.54228,1.08331 2.75671,6.261374 6.38868,7.761174 3.19137,1.31791 0.68295,6.25338 -2.42906,6.52567 -2.20302,7.07679 3.7976,10.35363 3.89725,16.68631 7.8672,4.55419 -0.18086,13.29511 4.89065,19.30759 1.82824,3.54378 3.77093,5.10515 6.14069,8.76552 1.67703,2.59038 1.29112,8.042 4.75103,8.88816 3.41155,0.83426 5.673,4.14241 1.2811,5.85246 0.51415,2.89421 0.49052,5.9042 0.2782,8.80289 -0.1815,2.47819 -0.50106,4.8751 -0.74044,7.04876 -0.25696,2.33343 0.52956,3.45858 -0.19436,6.02349 -6.76385,2.05061 -8.10295,8.35254 -5.10758,7.5352 2.69478,-0.73541 6.31688,4.68707 3.38121,7.22339 -2.19074,-0.50864 -7.33774,-1.00051 -6.85978,1.13362 0.46041,2.05572 -0.0327,5.98333 1.26743,7.56602 2.96567,1.87526 7.40446,2.81381 6.81644,3.26823 -1.00291,0.77533 -8.15757,-0.27788 -11.19014,-0.0719 -3.89391,2.3744 -6.17717,-1.63387 -13.28505,-2.56826 -4.02749,-0.5294 -8.0695,-0.30663 -11.72396,-0.62602 -0.28538,2.49121 -2.58129,3.81503 -3.80483,3.7585 -1.54599,-0.0719 -5.95803,-2.63974 -6.62283,-4.62758 -0.5607,-1.67667 3.2318,-4.37709 4.26403,-5.58345 3.3893,-7.53775 -3.63307,-8.79322 -8.97569,-7.2087 -2.38037,0.46792 -4.04144,-1.41995 -6.56934,-0.35373 -7.48352,3.1554 -2.063,9.94737 -10.62926,13.49298 -0.63129,4.59141 -0.5627,6.7653 -2.41316,7.47819 -3.23517,1.24637 -8.88308,-1.97267 -9.63648,-4.54469 -3.39444,0.25073 -9.53319,0.19483 -13.1127,-0.81151 -3.96686,-1.11493 -1.09008,-8.30255 -9.69762,-9.014 -5.782469,0.93463 -16.264539,-3.80785 -16.577219,2.74976 -10.17168,-1.39879 -10.12843,10.83712 -13.28948,17.53455 -3.91477,1.41492 -7.47318,3.14517 -10.812,6.01886 l -25.185178,-0.42 c -0.242262,-0.60207 0.309336,-2.036 -0.104123,-2.54144 -1.655767,-2.04015 -4.472357,-0.85071 -6.689878,-1.28629 -2.776266,0.0479 -2.632936,-2.90347 -3.792609,-4.55906 -2.476057,-2.88 -6.836648,-4.11862 -8.101985,-7.99322 -0.586732,-2.33918 -2.935413,-3.46505 -4.017776,-5.49018 -0.677519,-1.65759 -3.360617,-4.0248 -4.2199528,-5.60597 0.9893298,-6.44949 1.5234328,-8.62889 -3.440698,-9.84428 -0.726148,-2.42206 -2.05661,-5.01005 -4.329882,-6.27574 -2.65531802,-0.6843 -0.771262,-2.63558 -0.562297,-4.25564 l -0.09278,-3.62658 c 8.377537,-6.21466 9.7747198,-6.48543 15.5092918,-2.84878 5.236185,3.13831 5.483996,-9.4713 11.224947,-3.41339 6.527697,4.51427 4.569525,-8.7311 11.30119,-8.78324 1.8258,-1.72179 5.04176,-6.8584 4.79194,-11.26815 0.67952,-4.01417 15.7536,-1.78942 9.42217,-7.02305 -1.80631,-5.1081 0.15531,-9.74877 5.59776,-10.57785 -3.23761,-2.96024 1.96109,-4.06352 0.69429,-11.26151 -3.45224,-3.26224 7.38419,-4.35242 9.48641,-2.81508 0.80212,6.15013 6.97295,4.94353 7.91106,-2.93909 0.53938,-5.20257 -5.1957,-20.705754 0.85409,-24.052314 3.02453,5.258784 4.11967,7.057634 12.97921,4.603304 7.61252,0.63241 15.229429,-0.77533 22.816019,-0.24034 6.05461,2.38238 6.26044,7.55955 12.87305,7.01578 5.86389,0.27708 13.04762,-5.36171 10.72123,-10.158564 0.94602,0.008 -1.97199,-2.0665 1.26955,-9.59172 3.48561,-6.76234 8.87583,-7.59756 6.20439,-12.80883 0.12273,-1.70734 4.06622,-9.34027 1.32104,-10.37663 z"
       sodipodi:nodetypes="ccccscscccsscsscscscscscssccscscscccccscccccccccccccccccccccccccc"
       inkscape:label="#path1883" />
  </g>
</svg>
