<?xml version="1.0" encoding="UTF-8" standalone="no"?>
<!-- Created with Inkscape (http://www.inkscape.org/) -->

<svg
   width="210mm"
   height="297mm"
   viewBox="0 0 210 297"
   version="1.1"
   id="svg64"
   inkscape:version="1.1.2 (b8e25be833, 2022-02-05)"
   sodipodi:docname="vector.svg"
   xmlns:inkscape="http://www.inkscape.org/namespaces/inkscape"
   xmlns:sodipodi="http://sodipodi.sourceforge.net/DTD/sodipodi-0.dtd"
   xmlns="http://www.w3.org/2000/svg"
   xmlns:svg="http://www.w3.org/2000/svg">
  <sodipodi:namedview
     id="namedview66"
     pagecolor="#ffffff"
     bordercolor="#666666"
     borderopacity="1.0"
     inkscape:pageshadow="2"
     inkscape:pageopacity="0.0"
     inkscape:pagecheckerboard="0"
     inkscape:document-units="mm"
     showgrid="false"
     inkscape:zoom="0.74029882"
     inkscape:cx="361.34057"
     inkscape:cy="453.87078"
     inkscape:window-width="1920"
     inkscape:window-height="1017"
     inkscape:window-x="-8"
     inkscape:window-y="-8"
     inkscape:window-maximized="1"
     inkscape:current-layer="layer1" />
  <defs
     id="defs61" />
  <g
     inkscape:label="Capa 1"
     inkscape:groupmode="layer"
     id="layer1">
    <path
       style="fill:#000000;fill-opacity:1;fill-rule:evenodd;stroke:#d39062;stroke-width:1.04445;stroke-linecap:butt;stroke-linejoin:miter;stroke-miterlimit:4;stroke-dasharray:none;stroke-opacity:1"
       d="m 209.49344,196.96721 c -0.72555,-2.89509 -1.38699,-5.81317 -2.26641,-8.64826 -1.0682,-1.09022 -2.25734,-1.60853 -3.33999,-2.14721 -1.08264,-0.53844 -2.05538,-1.14367 -2.74359,-2.32602 -0.36238,-1.4481 -0.2108,-4.0004 -0.83505,-5.2486 -0.3308,-0.6616 -0.0632,-1.63221 0.11921,-2.50501 0.18474,-0.87287 0.32843,-1.6341 -0.35764,-1.90861 -1.93191,-0.42476 -3.946,-0.43897 -5.90468,-0.53686 -1.95875,-0.0979 -3.87171,-0.28975 -5.72577,-1.13325 -3.08995,-1.11075 -6.13686,-2.23239 -9.12544,-3.57857 -1.36994,-0.62608 -2.1787,-1.28026 -2.68391,-2.14713 -0.50528,-0.86695 -0.74844,-1.95946 -0.95434,-3.39966 -0.48713,-0.97504 -1.0903,-1.80172 -1.84893,-2.50501 -0.75871,-0.70345 -1.65961,-1.30804 -2.56462,-1.67003 -1.56139,-0.60397 -3.29616,-1.06654 -4.89072,-1.78932 -1.59463,-0.7224 -3.02228,-1.67627 -3.93652,-3.16108 -1.37405,-2.11373 -3.29727,-2.99253 -4.71182,-5.01002 -1.31065,-1.96388 -2.69867,-3.83397 -4.41354,-5.48718 -3.32854,-3.32854 -6.57978,-6.75765 -9.72183,-10.25861 -0.66003,-1.76888 -1.45055,-2.46064 -2.4454,-2.9225 -0.99485,-0.46185 -2.19094,-0.68055 -3.63826,-1.49113 -0.40027,-0.80039 -1.07459,-3.13786 -1.90854,-3.63825 -4.25359,-1.62582 -8.98893,-1.597 -13.30039,-3.28037 -1.26249,-1.30165 -2.48906,-2.43348 -3.81724,-3.39967 -1.32817,-0.96611 -2.74785,-1.80125 -4.47323,-2.44532 -1.38889,-0.55818 -2.00533,-1.54584 -2.6243,-2.38571 -0.30948,-0.42002 -0.60791,-0.80182 -1.01395,-1.07365 -0.40659,-0.27158 -0.91432,-0.43975 -1.61035,-0.41764 -2.21573,0.31106 -4.33767,0.31264 -6.38176,-0.0632 -2.04418,-0.37186 -4.025109,-1.11075 -6.083659,-2.14713 -1.53415,-0.36632 -3.33753,-0.39159 -4.71181,-0.83505 -0.68687,-0.22185 -1.27189,-0.55344 -1.67003,-1.07356 -0.39791,-0.52028 -0.59371,-1.20225 -0.53687,-2.20681 -0.0789,-1.48687 -0.004,-2.94216 -0.17921,-4.29433 -0.17527,-1.3521 -0.57239,-2.629077 -1.72967,-3.757467 0.3008,-0.92179 1.08544,-2.00659 1.61037,-3.04182 0.26212,-0.5176 0.43818,-1.02027 0.47686,-1.49107 0.0395,-0.47078 -0.10658,-0.87865 -0.47686,-1.25252 -1.58344,-0.50338 -2.32587,-1.27476 -2.80323,-2.26644 -0.47733,-0.99166 -0.69286,-2.23824 -1.07358,-3.57858 -2.52164,0.63989 -4.647,2.059 -6.9186,3.34001 -1.26746,1.37108 -2.60241,2.12995 -4.11538,2.44537 -1.51298,0.31541 -3.1988,0.18072 -5.01002,-0.23858 -1.75707,-0.52668 -3.57741,-0.58297 -5.3679,-0.71569 -1.79049,-0.13287 -3.53436,-0.3139 -5.12932,-1.19285 -0.76384,-0.76384 -1.67001,-2.32149 -1.67001,-3.87681 0,-1.32838 -0.6091,-2.75135 -1.19285,-4.055744 -0.1193,-0.266693 -0.0679,-0.458936 -0.17906,-0.715682 -1.01034,0.693023 -2.01666,1.476596 -2.86288,1.729646 -0.59907,0.17922 -1.20907,0.13579 -1.90858,-0.11929 -0.6995,-0.25493 -1.49704,-0.739845 -2.44537,-1.610372 -0.85331,0.426646 -1.05424,0.523913 -1.07357,0.715682 -0.019,0.19177 0.17906,0.465727 0.17882,1.13323 0,0.63665 -1.75335,3.76937 -2.08751,3.93644 -0.95712,0.61968 -1.63981,1.45156 -2.38572,2.14715 -0.74592,0.69562 -1.56568,1.28374 -2.74358,1.37178 -2.10148,0.42633 -3.57243,1.39801 -5.18896,2.02788 -0.80827,0.31493 -1.66187,0.54657 -2.62431,0.59646 -0.96241,0.0497 -2.03981,-0.11092 -3.34,-0.53678 -2.29621,0.53876 -4.21763,1.67741 -6.32219,2.32607 -0.95683,-0.71536 -1.83777,-1.40771 -2.56467,-2.2068 -0.72689,-0.79908 -1.28669,-1.71551 -1.61036,-2.92252 -0.2528,-0.92167 -0.42412,-1.6452 -0.83499,-2.32608 -0.41094,-0.68086 -1.07858,-1.31197 -2.20681,-2.0875 -1.02408,-1.49017 -1.45785,-3.068282 -2.02787,-4.652186 -1.44889,-0.08187 -2.967053,-0.26543 -4.2943054,0 -1.167229,0.233455 -2.422022,0.675891 -3.399668,1.252519 -0.977615,0.576647 -1.669999,1.282327 -1.669999,2.027867 0,0.64716 0.6211,1.37681 1.133218,2.02788 0.512149,0.65102 0.912828,1.27739 0.35788,1.61036 0.01895,3.08461 0.73163,3.91464 0.536782,4.89073 -0.194928,0.97611 -1.290352,2.0816 -5.010028,5.54683 -0.48451603,0.96561 -0.81234803,2.150357 -0.65607503,3.220677 0.07816,0.53528 0.313511,1.06977 0.65607503,1.49113 0.342564,0.42159 0.814646,0.74055 1.491066,0.95427 1.06101,0 2.163563,0.35606 3.161089,0.89466 0.997526,0.53844 1.880937,1.25539 2.505014,2.08752 0.731235,0.90864 1.613146,1.50637 2.5646524,1.96822 0.951529,0.46186 1.975689,0.79874 3.041819,1.07357 2.13223,0.54949 4.36577,0.96556 6.32218,2.32602 2.35735,1.17873 3.89984,2.64743 5.42754,4.17504 1.48275,1.48276 3.11145,2.91468 4.77144,3.57865 0.43012,0.17211 0.9437,0.0553 1.55072,-0.23843 0.60704,-0.29528 1.31117,-0.73898 1.96823,-1.19286 1.31415,-0.90808 2.58688,-1.85201 3.34002,-1.55074 0.93085,0.37265 1.98622,-0.13737 2.98216,-0.71607 0.99594,-0.57871 1.92339,-1.22302 2.68394,-1.07357 0.99364,0.19501 1.55994,0.61108 1.90858,1.13325 0.34864,0.52265 0.47623,1.19539 0.47717,1.84893 0.002,1.30702 -0.39482,2.62644 0,3.28038 0.91705,1.51876 1.18942,8.1069 2.08751,9.30434 1.13951,1.48031 2.03556,3.25677 2.68395,5.1293 0.64842,1.87254 1.04298,3.82395 1.19286,5.60648 0.0316,1.40381 0.23708,2.67175 0.59646,3.87677 0.35938,1.20509 0.86954,2.3355 1.49109,3.57864 -0.89126,2.79207 -1.19681,5.52927 -1.7893,8.35008 -1.31719,0.98371 -2.29113,1.9383 -2.98215,3.04178 -0.69105,1.10349 -1.09251,2.40403 -1.19288,4.17504 0.015,1.55721 0.40951,2.89486 0.89464,4.23464 0.46431,1.28207 1.00522,2.5613 1.43146,3.93645 0.0434,-0.001 0.0758,0.002 0.11929,0 2.67033,0.13343 5.27594,0.34422 7.8729,-0.17922 0.45499,-2.53855 1.47,-5.11438 2.56466,-7.63431 1.03637,-0.69791 1.78919,-1.64942 2.38573,-2.6839 0.59655,-1.03449 1.04058,-2.15787 1.55071,-3.22077 1.78082,-0.0924 2.98193,0.39159 4.05574,0.53686 0.53694,0.0711 1.03448,0.0395 1.55073,-0.17922 0.51625,-0.21553 1.07039,-0.63712 1.67,-1.37183 1.37399,-0.15001 2.34087,-0.0916 3.16109,-0.35765 0.82024,-0.26685 1.49297,-0.86631 2.14717,-2.20681 -0.44046,-0.82724 -0.56465,-1.34965 -0.47718,-1.90861 0.0876,-0.55897 0.35133,-1.15844 0.83499,-2.02784 1.22676,-0.29843 2.40966,-0.37817 3.5786,-0.53686 1.16896,-0.15869 2.34271,-0.37422 3.51896,-1.01395 1.2535,-1.14304 3.09397,-2.54038 4.35394,-4.11535 1.65661,1.1792 3.07581,2.35374 4.05574,3.81715 0.49028,0.73187 0.8229,1.55611 1.07356,2.44532 0.25027,0.88922 0.39317,1.87775 0.35765,2.98218 -0.32449,0.24317 -0.16896,0.5866 0.0632,1.01396 0.22816,0.42791 0.53686,0.90674 0.53686,1.31215 5.451569,1.0318 8.179929,1.58342 10.139309,1.72964 1.95946,0.14605 3.12327,-0.10027 5.36789,-0.53686 0.93911,0 1.19247,-0.23843 1.43145,-0.29844 0.23922,-0.0632 0.49659,0.0829 1.55073,0.71529 1.51284,2.8456 2.61301,5.80299 3.69787,8.82717 -0.0711,1.16633 0.15711,1.92149 0.59686,2.56469 0.43896,0.64344 1.0963,1.18465 1.96822,1.96823 0.0316,0.68133 0.41765,1.25791 0.89459,1.78932 0.47685,0.53133 1.06953,1.01467 1.49113,1.55074 1.6945,1.56486 5.12977,3.48651 7.63431,4.89071 1.64003,0.72634 2.87709,0.93761 4.11542,1.19286 1.23826,0.25501 2.50967,0.54554 4.17496,1.55074 0.87974,0.87974 3.31717,3.79994 4.29433,4.53283 1.0967,0.77608 1.8427,1.61895 2.32611,2.50501 0.48317,0.88614 0.71923,1.81443 0.83497,2.80328 1.33757,1.90554 3.29617,3.44443 4.95041,5.1293 1.61223,0.64897 6.16157,0.73661 10.97437,0.41765 1.31515,-0.38133 2.31276,-0.2929 3.16108,0.11921 0.84832,0.41212 1.58847,1.13096 2.38571,2.02784 1.08738,1.49792 1.73927,3.2131 2.50501,4.89071 0.0158,0.61266 0.17605,0.97575 0.41764,1.19286 0.24159,0.21711 0.56055,0.31106 0.95427,0.35764 0.78713,0.0932 1.8543,0.0711 2.80328,0.83506 0.91053,0.91053 1.2013,2.75204 1.37176,2.92249 1.35533,0.70582 2.58474,1.23123 3.69794,1.49105 1.11319,0.25975 2.10275,0.25185 2.9821,0.0632 0.87934,-0.19264 1.61271,-0.6016 2.2665,-1.25246 0.6537,-0.65134 1.23367,-1.50874 1.66995,-2.62438 1.19885,-0.90627 2.19023,-1.31815 3.16108,-1.25246 0.97093,0.0632 1.90917,0.57318 2.92257,1.61034 0.23922,0.59923 0.55976,1.14146 0.77529,1.67003 0.21553,0.52818 0.31501,1.04048 0,1.67003 -0.19895,0.3987 0.0395,0.78161 0.41765,1.13317 0.3758,0.35212 0.86576,0.71687 1.13324,1.07356 0.46423,0.88117 1.00551,1.23834 1.61035,1.37184 0.60476,0.13343 1.29494,0.0395 2.14712,0 0.78398,-1.26099 1.24244,-2.20657 2.38572,-3.33998 0.76976,-1.05391 1.36741,-2.44927 1.96822,-3.34006 0.13501,-0.54002 1.04585,-0.65529 1.72972,-0.83498 0.34185,-0.09 0.63712,-0.21474 0.71528,-0.41764 0.0789,-0.2029 -0.0237,-0.50212 -0.47685,-0.95427 -0.008,-1.1627 -0.0632,-1.80614 0.11921,-2.32603 0.18238,-0.52028 0.57476,-0.92032 1.43144,-1.61042 0.62687,-1.49318 0.76424,-2.27976 1.01396,-3.04179 0.24948,-0.76187 0.60318,-1.50518 1.72964,-2.86288 0.30238,-0.15159 0.80852,-0.23054 1.25254,-0.41765 z"
       id="Malloa"
       inkscape:label="#path2168" />
  </g>
</svg>
