<?xml version="1.0" encoding="UTF-8" standalone="no"?>
<!-- Created with Inkscape (http://www.inkscape.org/) -->

<svg
   width="210mm"
   height="297mm"
   viewBox="0 0 210 297"
   version="1.1"
   id="svg57"
   inkscape:version="1.1.2 (b8e25be833, 2022-02-05)"
   sodipodi:docname="vector.svg"
   xmlns:inkscape="http://www.inkscape.org/namespaces/inkscape"
   xmlns:sodipodi="http://sodipodi.sourceforge.net/DTD/sodipodi-0.dtd"
   xmlns="http://www.w3.org/2000/svg"
   xmlns:svg="http://www.w3.org/2000/svg">
  <sodipodi:namedview
     id="namedview59"
     pagecolor="#ffffff"
     bordercolor="#666666"
     borderopacity="1.0"
     inkscape:pageshadow="2"
     inkscape:pageopacity="0.0"
     inkscape:pagecheckerboard="0"
     inkscape:document-units="mm"
     showgrid="false"
     inkscape:zoom="0.74029882"
     inkscape:cx="361.34057"
     inkscape:cy="561.93525"
     inkscape:window-width="1920"
     inkscape:window-height="1017"
     inkscape:window-x="-8"
     inkscape:window-y="-8"
     inkscape:window-maximized="1"
     inkscape:current-layer="layer1" />
  <defs
     id="defs54" />
  <g
     inkscape:label="Capa 1"
     inkscape:groupmode="layer"
     id="layer1">
    <path
       inkscape:connector-curvature="0"
       id="Talcahuano"
       style="fill:#000000;fill-opacity:1;fill-rule:evenodd;stroke:#d39062;stroke-width:1.66955;stroke-linecap:butt;stroke-linejoin:miter;stroke-miterlimit:4;stroke-opacity:1"
       d="M 148.06989,4.3433665 C 136.6067,3.8120865 130.29811,27.770167 126.5745,38.673447 c 2.88425,5.94014 13.32871,16.16863 -1.25229,29.11268 2.42525,4.8505 20.94754,-5.55652 17.11302,-9.39121 -3.71791,-3.71774 6.4866,-22.5733 7.82601,-25.25195 -5.18997,-10.69887 -0.54852,-17.79679 -2.19135,-28.7996005 z M 69.288017,16.551897 c -6.44865,13.00615 -2.30968,38.01592 -7.40858,39.7562 -18.04466,2.00298 -10.79978,7.88603 -5.63483,23.16495 7.91329,11.81197 -11.95291,7.05497 -8.76506,19.72164 2.03335,8.079573 2.81802,15.487463 -0.41743,23.164953 -3.84574,9.12558 -0.48643,22.31819 -15.44331,22.33026 -3.32738,17.62603 -3.79967,17.23395 -19.19985,24.73015 -2.10527,1.05221 25.34078,24.12574 28.90414,24.52161 13.76184,1.52829 12.08573,-11.23982 18.46934,-0.1035 6.0621,10.57434 -9.78311,38.66173 -10.43479,39.96491 -5.17478,7.29111 -10.31835,10.90967 -16.17363,13.04324 0.29496,0.0862 0.6503,0.0134 0.93836,0.10349 2.21326,0.70205 4.32613,1.76805 6.36516,3.1304 4.07809,2.72488 8.10925,6.55146 13.14777,10.33044 1.88035,1.41099 3.71015,2.2105 5.63465,2.71297 1.92469,0.50195 3.8999,0.6572 5.84355,0.93836 1.94348,0.28289 3.90611,0.71068 5.84338,1.46102 1.93727,0.75034 3.83314,1.8505 5.73902,3.75638 1.76598,1.76598 3.72084,2.75661 5.73918,3.23476 2.01817,0.47781 4.0767,0.41226 6.05209,0 1.97521,-0.41226 3.89316,-1.07636 5.5303,-1.98264 1.63695,-0.90731 3.06572,-2.02213 4.06963,-3.02604 l 35.582203,24.93904 32.9736,-28.27816 -2.81733,-17.94756 -8.86942,-3.54783 24.93887,-8.97378 7.0955,-15.96509 h 10.64351 l -1.04358,-14.19117 c -18.54024,-1.84119 -37.25746,-7.01667 -55.82548,-4.90433 -17.41627,-0.72446 -36.45001,-2.10113 -50.295333,-13.66955 -8.52858,-8.52858 -1.64732,-8.84786 -10.7477,-17.94755 -5.14461,-5.14461 5.84354,-17.03731 5.84354,-24.3129 0,-9.01742 4.83222,-13.79857 6.46935,-20.34762 3.13334,-20.83888 0.48299,-41.384873 7.20003,-61.147223 3.349653,-10.04875 -0.99873,-10.07308 -0.10349,-17.94773 0.0133,-27.98095 -13.31853,-7.85239 -29.84319,-26.71278 z" />
  </g>
</svg>
