<?xml version="1.0" encoding="UTF-8" standalone="no"?>
<!-- Created with Inkscape (http://www.inkscape.org/) -->

<svg
   width="210mm"
   height="297mm"
   viewBox="0 0 210 297"
   version="1.1"
   id="svg57"
   inkscape:version="1.1.2 (b8e25be833, 2022-02-05)"
   sodipodi:docname="vector.svg"
   xmlns:inkscape="http://www.inkscape.org/namespaces/inkscape"
   xmlns:sodipodi="http://sodipodi.sourceforge.net/DTD/sodipodi-0.dtd"
   xmlns="http://www.w3.org/2000/svg"
   xmlns:svg="http://www.w3.org/2000/svg">
  <sodipodi:namedview
     id="namedview59"
     pagecolor="#ffffff"
     bordercolor="#666666"
     borderopacity="1.0"
     inkscape:pageshadow="2"
     inkscape:pageopacity="0.0"
     inkscape:pagecheckerboard="0"
     inkscape:document-units="mm"
     showgrid="false"
     inkscape:zoom="0.74029882"
     inkscape:cx="361.34057"
     inkscape:cy="561.93525"
     inkscape:window-width="1920"
     inkscape:window-height="1017"
     inkscape:window-x="-8"
     inkscape:window-y="-8"
     inkscape:window-maximized="1"
     inkscape:current-layer="layer1" />
  <defs
     id="defs54" />
  <g
     inkscape:label="Capa 1"
     inkscape:groupmode="layer"
     id="layer1">
    <path
       inkscape:connector-curvature="0"
       id="San_Pedro_de_la_Paz"
       style="fill:#000000;fill-opacity:1;fill-rule:evenodd;stroke:#d39062;stroke-width:2.15504;stroke-linecap:butt;stroke-linejoin:miter;stroke-miterlimit:4;stroke-dasharray:none;stroke-opacity:1"
       d="M 8.1356009,4.5776517 C 3.7111399,15.561129 28.020814,28.065599 18.506782,35.556509 c -1.542321,47.39179 17.110081,38.74306 2.559114,53.20285 -5.717856,21.420741 9.687277,54.337571 1.346831,73.810511 -1.452591,1.79481 -2.528609,4.22572 -3.636646,6.59985 3.309501,0.55329 4.904636,1.14644 9.697721,1.61624 8.852083,0.86746 18.691546,1.48154 24.244315,1.48154 3.25881,0 5.41519,0.72117 7.00393,1.75095 1.58886,1.02977 2.69158,2.41487 3.77136,3.90603 1.07986,1.49111 2.17421,3.06057 3.90603,4.44479 1.7318,1.38423 4.13242,2.52362 7.67736,3.2326 1.79882,0.3598 5.84467,2.48144 10.77526,4.84885 4.93059,2.36742 10.72014,5.03714 15.893493,6.33047 6.14148,1.53542 12.1461,1.47464 17.77918,1.61624 2.81653,0.0713 5.47267,0.14027 8.08146,0.53882 2.60877,0.39744 5.06078,1.11616 7.40799,2.28975 1.00662,0.50342 -0.35133,6.3737 -1.88564,12.79561 -1.53454,6.42193 -3.24113,13.30008 -2.55914,16.02825 1.32078,5.28312 3.77816,9.58101 6.33046,13.46921 2.55232,3.88798 5.32145,7.41036 7.13861,11.04429 2.62271,5.24549 3.41573,9.57365 4.84888,13.19978 0.7165,1.81241 1.51895,3.48364 2.82851,4.98344 1.30942,1.50069 3.16107,2.79274 5.657,4.04072 2.85268,1.42721 4.42268,4.30077 5.92638,7.27342 1.50381,2.97242 2.86305,6.0956 5.11825,8.35085 0.13806,0.13359 3.80958,-3.38611 8.08144,-7.13872 4.27188,-3.75238 9.19105,-7.78642 11.98749,-8.48555 2.29017,-0.57222 3.95573,-1.60534 5.52233,-2.96307 1.56658,-1.35819 3.01873,-3.05437 4.57946,-4.57954 1.0142,-0.99082 2.37514,-1.71444 3.63666,-2.55918 -5.77341,-7.77062 -9.28905,-15.36622 -6.19577,-30.30539 0.23156,-13.27261 2.14771,-19.12502 -2.69382,-32.32562 C 186.03635,192.56364 183.1915,183.35287 184.311,170.38182 170.87878,145.45575 171.31195,133.7 167.47467,112.06075 157.4833,93.462759 161.03081,80.271739 146.73229,62.763929 136.82492,45.706909 123.21434,28.214719 104.03532,20.066979 78.877717,16.470579 37.086755,16.172629 39.249078,4.5775397 c -7.34031,-4.4e-5 -25.500336,0 -31.1135441,0 z" />
  </g>
</svg>
