<?xml version="1.0" encoding="UTF-8" standalone="no"?>
<!-- Created with Inkscape (http://www.inkscape.org/) -->

<svg
   width="210mm"
   height="297mm"
   viewBox="0 0 210 297"
   version="1.1"
   id="svg1283"
   inkscape:version="1.1.2 (b8e25be833, 2022-02-05)"
   sodipodi:docname="vector.svg"
   xmlns:inkscape="http://www.inkscape.org/namespaces/inkscape"
   xmlns:sodipodi="http://sodipodi.sourceforge.net/DTD/sodipodi-0.dtd"
   xmlns="http://www.w3.org/2000/svg"
   xmlns:svg="http://www.w3.org/2000/svg">
  <sodipodi:namedview
     id="namedview1285"
     pagecolor="#ffffff"
     bordercolor="#666666"
     borderopacity="1.0"
     inkscape:pageshadow="2"
     inkscape:pageopacity="0.0"
     inkscape:pagecheckerboard="0"
     inkscape:document-units="mm"
     showgrid="false"
     inkscape:zoom="0.52347032"
     inkscape:cx="155.69173"
     inkscape:cy="611.30496"
     inkscape:window-width="1920"
     inkscape:window-height="1017"
     inkscape:window-x="-8"
     inkscape:window-y="-8"
     inkscape:window-maximized="1"
     inkscape:current-layer="layer1" />
  <defs
     id="defs1280" />
  <g
     inkscape:label="Capa 1"
     inkscape:groupmode="layer"
     id="layer1">
    <path
       d="m 146.228,270.43801 c -0.63822,-3.65601 -1.52808,-9.02276 -2.63322,-13.44328 -0.19932,-0.79791 1.17384,-3.48977 2.70251,-6.37514 1.52867,-2.88548 3.15946,-5.91626 3.53405,-7.41468 0.49926,-1.99693 1.14548,-3.4031 1.94026,-4.36554 0.7948,-0.96222 1.776,-1.52237 2.84112,-1.87096 2.13027,-0.69697 4.77004,-0.55199 7.83037,-1.31661 1.48081,-0.3705 2.41527,-1.30619 3.04897,-2.56395 0.63372,-1.25776 0.94246,-2.83479 1.10875,-4.57345 0.33248,-3.47752 0.0913,-7.50199 0.83152,-10.46361 0.7875,-3.14988 1.43887,-6.24337 1.87101,-9.49344 0.43171,-3.25018 0.69267,-6.6941 0.69267,-10.67152 10e-5,-0.67442 13.9566,-7.65062 15.10643,-8.80046 1.9921,-1.99209 5.18643,-3.71292 8.17683,-5.47434 1.4952,-0.88061 2.9467,-1.73823 4.15774,-2.70249 1.21094,-0.96437 2.13138,-1.9762 2.70249,-3.1183 0.91819,-1.8366 1.44161,-3.29529 1.66305,-4.50418 0.22122,-1.2089 0.18364,-2.20677 -0.0644,-3.25684 -0.50581,-2.10035 -1.7712,-4.31324 -2.84103,-8.59265 -0.24485,-0.97726 -1.19944,-2.28871 -2.56395,-3.67266 -1.3645,-1.38394 -3.10842,-2.8945 -4.91999,-4.36564 -3.62304,-2.94208 -7.49695,-5.69525 -8.86972,-7.06803 -1.6405,-1.64039 -2.46193,-3.45873 -3.25695,-5.19717 -0.79469,-1.73844 -1.51013,-3.45046 -2.97966,-4.92 -1.67723,-1.67733 -3.3812,-3.31192 -5.05853,-4.98926 -0.39949,-0.39949 -0.51118,-0.8849 -0.4156,-1.38588 0.0966,-0.50044 0.40056,-1.03846 0.76247,-1.59378 0.72381,-1.11074 1.72888,-2.27787 2.14814,-3.32621 l 10.04779,-32.707342 -1.24723,-22.65954 16.35366,10.11717 1.24724,-6.30588 8.86983,-8.80055 0.4156,-11.98803 c -2.43509,-0.57454 -5.57154,-2.31459 -6.86023,-3.60338 -1.89662,-1.89652 -0.93752,-6.10849 -2.77186,-7.48385 -2.21407,-1.66058 -7.23716,0.77 -8.86982,-2.49468 -1.04062,-2.08091 -3.67459,-8.90537 -5.82079,-9.97853 -3.262,-1.63105 -2.13139,-5.60869 -5.47424,-6.44441 -1.37815,-0.34472 -8.39935,0 -10.67153,0 -2.26747,0 -3.69183,1.87096 -5.95938,1.87096 -3.26097,0.61321 -5.77749,2.13772 -7.96897,4.57345 -2.75622,2.75618 -6.10572,0.0966 -7.276,4.78146 -0.86277,3.451 -4.29957,2.4978 -6.16725,4.36554 -1.9908,1.9907 -3.94599,2.46634 -5.05858,3.94983 -2.38989,3.1865 -1.68501,3.48333 -2.49462,6.72169 -0.25988,1.03954 -4.44961,-3.29893 -7.41458,-4.78146 -4.21222,-2.10604 -4.76349,-4.20907 -7.13742,-6.58294 -2.59519,-2.5952 -2.56626,-3.63067 -1.87097,-6.79096 0.55166,-2.50779 -3.67172,-8.34017 -4.01912,-9.00836 -0.84796,-1.63083 -2.58761,-1.8788 -4.29631,-2.0096 -1.67736,0.32647 -3.8617,0.22337 -6.16726,0.13853 -2.46093,-0.0859 -4.940929,-0.0537 -6.721659,0.83121 -1.58409,0.79254 -4.0789,0.74958 -6.72162,0.76247 -2.64273,0.0107 -5.43242,0.0537 -7.55318,1.1087 -1.94365,0.97189 -2.88222,1.73919 -3.18759,2.42531 -0.30542,0.68623 -0.004,1.32596 0.62362,2.00961 0.62834,0.68407 1.56788,1.46105 2.42534,2.42531 0.85752,0.96436 1.62754,2.07543 2.00957,3.60338 0.44653,1.78634 0.64531,3.14515 0.55435,4.0191 -0.0913,0.87416 -0.43321,1.30609 -0.97017,1.38598 -1.0738,0.16002 -2.95827,-1.15659 -5.26645,-3.46485 -0.0644,-0.0644 -9.38393,-8.06053 -9.49343,-7.62237 -0.38693,1.54749 -0.34053,2.93241 0,4.15763 0.34054,1.22532 0.90692,2.27711 1.52449,3.25694 0.61749,0.9794 1.28829,1.89136 1.73237,2.70249 0.44406,0.8108 0.66486,1.56736 0.48508,2.28667 -1.03889,4.15548 -0.9009,3.33813 -0.9009,9.49355 0,3.01241 0.0773,5.37608 -0.48508,7.48384 -0.28136,1.0535 -0.77397,2.09423 -1.4552,3.04904 -0.68118,0.9547 -1.58728,1.83144 -2.84111,2.77175 -0.57455,0.43064 -0.71372,1.18022 -0.693,2.0096 0.0204,0.82906 0.21682,1.78301 0.41582,2.70249 0.19899,0.91926 0.38682,1.79364 0.34644,2.49458 -0.0408,0.70126 -0.34268,1.21179 -1.03943,1.38598 -1.84926,0.46178 -3.16417,1.52806 -4.43492,2.77175 -1.27072,1.2437 -2.45506,2.65556 -4.0884,3.88057 -1.26895,0.95148 -2.54224,1.88932 -3.81125,2.84112 l -4.78137,10.46351 10.46359,11.433782 v 17.11592 l 5.75149,6.65232 h 4.71209 l -0.90079,19.05615 c -1.07273,-0.26847 -3.81593,-1.44129 -6.58305,-2.56384 -2.76713,-1.12266 -5.608,-2.21751 -6.79095,-2.21751 -1.95519,0 -4.12179,-0.62609 -6.02869,-0.83121 -0.95341,-0.10739 -1.80486,-0.11705 -2.56391,0.13854 -0.75903,0.25559 -1.42786,0.77643 -1.87097,1.66305 -0.39949,0.79899 -1.12822,1.41992 -2.00957,1.94034 -0.88135,0.52084 -1.88927,0.97725 -2.9104,1.45514 -1.02118,0.47789 -2.02221,0.99336 -2.84109,1.66316 -0.81885,0.67012 -1.45777,1.46545 -1.73239,2.56384 -1.24418,4.97681 -1.43271,6.64684 -2.14815,7.06814 -0.71544,0.42097 -1.96647,-0.41561 -5.47431,-0.41561 -2.18561,0 -4.05431,0.25345 -5.75152,0.83121 -1.6972,0.57776 -3.21751,1.4851 -4.71209,2.97966 -1.00614,1.00625 -3.121832,2.6257 -5.127825,4.50418 -1.003029,0.93967 -1.991131,1.97277 -2.771829,2.97977 -0.78073,1.00732 -1.350212,2.00531 -1.593774,2.97966 -0.508603,2.03452 -1.646933,4.22486 -2.771818,6.58305 -1.124896,2.35819 -2.277574,4.88316 -2.979694,7.69175 -0.553599,2.21418 -1.27630599,4.14367 -1.38590899,5.95943 -0.05477,0.90745 0.05799,1.79557 0.41581599,2.70249 0.357934,0.90745 0.96845,1.79997 1.940282,2.77175 1.11522,1.11525 1.66186,1.98791 1.870971,2.7026 0.209089,0.71414 0.07088,1.26946 -0.207694,1.87096 -0.278786,0.60138 -0.690951,1.23381 -1.039434,2.00949 -0.348483,0.77536 -0.623725,1.67293 -0.623618,2.9104 0,1.81619 -0.350523,3.05784 -0.762259,3.94983 -0.411736,0.89241 -0.870294,1.42969 -1.247321,1.94033 -0.37694199,0.51011 -0.65862699,0.99122 -0.55435099,1.66305 0.104169,0.67227 0.56186799,1.53451 1.59377399,2.9104 1.785714,2.38096 2.757621,5.09128 3.880541,7.48395 0.561439,1.19622 1.201766,2.32028 1.94026,3.3261 0.738526,1.00625 1.627763,1.87751 2.771818,2.56395 1.635152,0.98155 2.945222,1.47426 4.157716,1.73243 1.212478,0.25774 2.318158,0.29855 3.395458,0.20726 2.15461,-0.18149 4.28363,-0.7367 7.62248,-0.0644 1.43321,0.28673 2.00022,0.60676 2.8411,0.90101 2.68105,-0.0752 6.40242,-0.46715 10.04781,-0.27707 1.99856,0.10739 3.86633,0.34043 5.47432,0.96974 1.608,0.62931 2.93706,1.64705 3.67265,3.1183 0.50624,1.0127 0.66099,2.17273 0.62362,3.39548 -0.0376,1.22264 -0.25269,2.47686 -0.48508,3.74192 -0.23229,1.26506 -0.47553,2.53313 -0.55435,3.67265 -0.0795,1.13953 -0.006,2.13343 0.41571,2.97967 0.99357,1.98715 2.78167,4.48721 4.98926,6.79095 2.20758,2.30364 4.79716,4.44276 7.55317,5.82079 2.64385,1.32188 4.53052,1.56834 6.51374,1.66306 1.98326,0.0966 4.08423,0.0107 7.34531,0.8312 1.87628,0.4693 3.21346,0.38231 4.29629,0.0644 1.08287,-0.31358 1.89486,-0.81617 2.70252,-1.31661 0.80769,-0.50044 1.6518,-0.94503 2.70251,-1.03954 1.05071,-0.0967 2.34572,0.13317 4.15772,1.03954 1.31271,0.65616 2.9741,0.60354 4.78137,0.27707 1.80729,-0.32647 3.74228,-0.93108 5.54363,-1.45514 1.801349,-0.52407 3.486509,-0.96544 4.781359,-0.90101 0.64746,0.0322 1.16685,0.22767 1.5938,0.55414 0.42699,0.32646 0.75689,0.80543 0.90079,1.52451 0.41936,2.09659 0.82799,4.20929 1.24731,6.30588 1.45616,0.36405 2.87585,1.11987 4.22701,2.0096 1.35117,0.88919 2.63368,1.89759 3.94983,2.84102 1.31615,0.94396 2.66796,1.83047 4.01914,2.35604 1.35114,0.52515 2.70155,0.71093 4.1577,0.34688 2.10314,-0.52622 3.66027,-1.44001 4.98927,-2.42542 1.32897,-0.98585 2.4315,-2.09358 3.53405,-3.04893 1.10253,-0.95578 2.24889,-1.71235 3.67263,-2.14814 1.42377,-0.436 3.11239,-0.50366 5.40503,0.0644 1.37727,0.34472 3.35952,0.59816 5.19714,0.8312 z"
       style="fill:#000000;fill-opacity:1;fill-rule:evenodd;stroke:#d39062;stroke-width:1.10872;stroke-linecap:butt;stroke-linejoin:miter;stroke-miterlimit:4;stroke-dasharray:none;stroke-opacity:1"
       id="Ninhue"
       inkscape:connector-curvature="0" />
  </g>
</svg>
