<?xml version="1.0" encoding="UTF-8" standalone="no"?>
<!-- Created with Inkscape (http://www.inkscape.org/) -->

<svg
   width="210mm"
   height="297mm"
   viewBox="0 0 210 297"
   version="1.1"
   id="svg67"
   inkscape:version="1.1.2 (b8e25be833, 2022-02-05)"
   sodipodi:docname="vector.svg"
   xmlns:inkscape="http://www.inkscape.org/namespaces/inkscape"
   xmlns:sodipodi="http://sodipodi.sourceforge.net/DTD/sodipodi-0.dtd"
   xmlns="http://www.w3.org/2000/svg"
   xmlns:svg="http://www.w3.org/2000/svg">
  <sodipodi:namedview
     id="namedview69"
     pagecolor="#ffffff"
     bordercolor="#666666"
     borderopacity="1.0"
     inkscape:pageshadow="2"
     inkscape:pageopacity="0.0"
     inkscape:pagecheckerboard="0"
     inkscape:document-units="mm"
     showgrid="false"
     inkscape:zoom="0.74029882"
     inkscape:cx="361.34057"
     inkscape:cy="561.93525"
     inkscape:window-width="1920"
     inkscape:window-height="1017"
     inkscape:window-x="-8"
     inkscape:window-y="-8"
     inkscape:window-maximized="1"
     inkscape:current-layer="layer1" />
  <defs
     id="defs64" />
  <g
     inkscape:label="Capa 1"
     inkscape:groupmode="layer"
     id="layer1">
    <path
       d="m 129.71537,59.851579 c -1.68504,3.79441 -5.69531,2.46299 -9.01373,2.6567 -0.5135,1.91258 -4.1594,4.51578 -3.60038,7.76656 0,3.38637 0,6.77244 0,10.1585 -3.56687,-0.24599 -2.64133,3.99736 -7.63495,2.32462 -2.48758,1.90335 -3.89988,6.28691 -7.63464,5.31125 1.04239,4.36204 -5.121221,1.51899 -7.634941,2.32461 -2.50604,1.95871 -3.96261,6.34534 -7.76655,5.31126 -5.93116,0 -11.86231,0 -17.79346,0 -0.40281,5.726981 -2.45683,-0.69493 -4.88569,0 1.70657,4.839261 -6.3112,-0.0308 -5.40473,3.99612 0.57808,2.407641 -0.12299,9.200991 -2.32461,5.179341 -0.21524,-3.28213 -6.23526,-0.73797 -8.91994,-1.54052 -1.3591,-2.27234 -3.51706,-2.67515 -7.13805,-3.444181 -3.65788,-4.85924 -3.84822,0.993191 -6.75276,0.787171 -2.6075,4.82481 -4.07914,-0.45815 -7.63463,0 -3.18559,-0.37513 -7.73857,-0.18449 -8.06052,3.77074 -1.31912,1.81418 -2.55523,3.71262 -4.97916,4.42169 1.4329,5.10277 -1.90643,4.09728 -4.6267804,6.72478 -0.94092,2.7305 -0.80562,7.83204 3.0859504,7.98732 3.39991,0.0615 7.22015,-0.89171 9.17547,2.65671 6.21865,-1.18998 -0.39666,6.43174 0,0.42741 -4.05578,-2.60443 -4.37188,2.19547 -7.20908,2.22929 -2.07555,-2.33077 -5.9994104,-3.98075 -8.8489104,-1.86646 -3.46601005,2.41686 -1.23918,7.19339 -1.86645,10.78702 0.84251,2.6075 -1.85109005,8.74959 1.67273,8.67333 1.30376,2.05095 3.32365,3.38637 4.75378,5.31095 3.6105304,-0.0172 4.7992904,6.09166 8.8433804,4.97916 1.90643,-5.80631 6.17714,2.9273 5.31125,-2.6567 4.68029,-1.19306 1.92181,5.05081 2.6567,7.80499 0.24599,2.81044 2.35537,3.73752 3.99613,5.1409 1.27915,1.96485 3.09579,3.39314 4.75377,4.97947 4.13234,-1.60201 5.44225,3.61146 9.30738,2.65671 5.29926,1.86953 3.64313,-3.21695 7.63464,-2.65671 2.37996,-0.96859 3.74706,-2.95496 7.17094,-2.88117 -1.18075,-4.53484 1.19921,-5.51142 5.31126,-4.75377 0.35976,-2.8166 1.99867,-4.35589 4.5536,-4.97917 0.75335,-2.60135 2.85042,-3.86021 4.75378,-5.31125 3.7203,0.27674 7.88893,-0.53811 11.33557,0.39359 2.35229,1.66351 4.3442,6.44281 7.63494,4.52285 3.15515,-2.26927 4.64493,-3.28706 6.58949,-4.91706 2.213921,2.53679 5.788171,2.00791 7.797911,4.75347 4.28209,-0.21524 3.05029,3.77228 3.14346,7.24782 2.01098,1.22073 3.38299,3.08012 4.97947,4.71534 1.62354,3.92202 2.92422,-2.37689 5.31095,-1.67274 -1.01779,-4.44844 6.33304,-0.52888 7.63495,-2.6567 -0.0615,-5.47146 4.25902,1.04546 6.65159,0.55655 1.18383,2.23852 3.17236,2.51526 4.09544,5.76757 2.92422,1.64814 4.1345,5.6827 5.6375,6.84655 1.07006,2.21699 4.47028,2.10629 3.86421,6.00064 -1.58049,5.12153 3.25447,3.21203 3.0752,7.31239 2.37074,2.7551 3.22125,4.22828 4.55975,6.28476 -1.11618,4.58958 4.51486,2.43224 2.6567,7.76655 0.27674,3.67326 -0.5504,7.8056 0.39359,11.20397 2.95497,1.77114 3.33687,6.7297 0.6857,8.81755 -1.62969,1.81726 -1.91566,8.01623 0.0308,8.71361 1.81418,-1.31912 3.71262,-2.55523 4.42169,-4.97947 4.97609,-0.27674 10.40419,0.54118 15.1063,-0.39358 1.20229,-4.33283 8.14661,0.0922 7.24075,-4.49149 2.22007,-1.54667 7.25704,1.22995 9.26156,-1.94948 3.90357,-1.17153 2.51218,-6.62792 5.91424,-6.1095 -1.45442,-4.77284 2.56753,-4.07145 2.74895,-7.20938 -0.39359,-3.86728 4.47396,-2.47528 2.6567,-7.76655 4.25134,-3.43495 -1.57742,-1.57742 0,-6.51999 -0.71952,-2.66593 1.46057,-8.23424 -1.11618,-9.04355 -1.84493,0.81177 -2.40456,2.90577 -4.19599,3.77073 -0.1845,3.2969 -7.36221,-0.41511 -4.97917,5.44317 -0.39666,4.03333 -5.00284,4.05147 -8.23086,3.7323 -2.61058,0.70722 -2.97956,3.65758 -7.63464,2.32461 -3.01954,-0.39973 -7.61496,0.78102 -9.69481,-0.55655 0.43356,-3.92448 -6.2863,0.18449 -7.34437,-4.13173 -3.08842,-0.54118 -3.64651,-2.89347 -5.26943,-4.61817 -2.35844,-0.77487 -3.29167,-2.97649 -4.97948,-4.422 1.60202,-4.08898 -3.52443,-5.39028 -2.6567,-9.17515 3.95123,1.8972 3.91095,-6.87053 0,-4.97948 5.61444,-2.48143 -2.50296,-4.50625 1.971,-6.95017 -1.14078,0.003 -3.6711,-3.77719 0.6857,-5.99572 -3.95092,1.89413 -3.91095,-6.87022 0,-4.97917 1.83264,-5.30664 -3.15176,-3.79594 -2.6567,-7.76655 0.70415,-2.6813 -1.98945,-8.76281 2.6567,-7.50303 0.7595,-2.55831 -1.96177,-8.60138 2.32462,-7.63495 -1.80496,-5.23591 3.03184,-3.82977 2.6567,-7.63463 4.63878,1.20843 1.94948,-4.91091 2.6567,-7.63495 -4.68028,1.19306 -1.9218,-5.0505 -2.6567,-7.80499 -0.27674,-3.43987 0.55963,-7.35082 -0.39358,-10.51427 -2.07555,-3.016461 -3.35409,-4.193841 -4.58528,-6.257701 -1.98022,-2.46299 -2.25389,-5.63258 -4.62647,-7.93321 -0.79025,-3.35317 -0.74105,-5.89856 -3.34025,-6.7789 -0.35362,-2.79507 -3.75413,-6.34995 -6.6516,-6.51968 -0.81177,-2.47836 -4.33805,-2.23852 -3.30673,-6.55812 1.36832,-5.82015 -3.1736,-2.16165 -5.31126,-6.38808 z"
       style="fill:#000000;fill-opacity:1;stroke:#d39062;stroke-width:4.06783;stroke-miterlimit:4;stroke-dasharray:none;stroke-opacity:1"
       id="Puqueldon" />
  </g>
</svg>
