<?xml version="1.0" encoding="UTF-8" standalone="no"?>
<!-- Created with Inkscape (http://www.inkscape.org/) -->

<svg
   width="210mm"
   height="297mm"
   viewBox="0 0 210 297"
   version="1.1"
   id="svg64"
   inkscape:version="1.1.2 (b8e25be833, 2022-02-05)"
   sodipodi:docname="vector.svg"
   xmlns:inkscape="http://www.inkscape.org/namespaces/inkscape"
   xmlns:sodipodi="http://sodipodi.sourceforge.net/DTD/sodipodi-0.dtd"
   xmlns="http://www.w3.org/2000/svg"
   xmlns:svg="http://www.w3.org/2000/svg">
  <sodipodi:namedview
     id="namedview66"
     pagecolor="#ffffff"
     bordercolor="#666666"
     borderopacity="1.0"
     inkscape:pageshadow="2"
     inkscape:pageopacity="0.0"
     inkscape:pagecheckerboard="0"
     inkscape:document-units="mm"
     showgrid="false"
     inkscape:zoom="0.74029882"
     inkscape:cx="361.34057"
     inkscape:cy="561.93525"
     inkscape:window-width="1920"
     inkscape:window-height="1017"
     inkscape:window-x="-8"
     inkscape:window-y="-8"
     inkscape:window-maximized="1"
     inkscape:current-layer="layer1" />
  <defs
     id="defs61" />
  <g
     inkscape:label="Capa 1"
     inkscape:groupmode="layer"
     id="layer1">
    <path
       style="fill:#000000;fill-opacity:1;fill-rule:evenodd;stroke:#d39062;stroke-width:0.990403;stroke-linecap:butt;stroke-linejoin:miter;stroke-miterlimit:4;stroke-dasharray:none;stroke-opacity:1"
       d="m 6.4718625,236.4013 c 1.859029,0.0395 3.133519,0 4.2092155,0 1.092319,0 1.79824,-0.61827 2.723607,-1.23802 0.925425,-0.61925 2.067294,-1.23801 4.085424,-1.23801 1.984017,0 3.608312,-0.17482 5.075818,-0.49481 1.467497,-0.32099 2.774184,-0.78815 4.209217,-1.36177 1.944816,-0.77827 8.118563,-3.61884 9.904042,-4.33301 1.12581,-0.45037 2.128194,-0.65481 3.033106,-0.68049 0.904883,-0.0296 1.768867,0.11951 2.599815,0.30913 1.661895,0.38025 3.323415,0.99042 5.571025,0.99042 2.005744,0 3.609901,0.46419 5.323421,0.92839 1.713509,0.46419 3.531621,0.92839 5.818618,0.92839 0.914463,0 1.836314,-0.39111 2.723616,-0.99042 0.887303,-0.5995 1.729421,-1.40848 2.476004,-2.29035 1.493195,-1.76374 2.59854,-3.77084 2.847418,-4.76629 0.404837,-1.61945 -0.07012,-2.82201 -0.247604,-3.71405 -0.08889,-0.44642 -0.135702,-0.80889 0.06222,-1.11417 0.197727,-0.30518 0.651749,-0.55012 1.423704,-0.74271 1.068388,-0.26666 1.963306,-0.006 2.723618,0.43358 0.76029,0.43851 1.36646,1.05886 1.91891,1.48562 0.55249,0.42666 1.04077,0.67357 1.4856,0.37135 0.44484,-0.30222 0.86251,-1.15959 1.2999,-2.90931 0.32435,-1.29727 1.32881,-2.31485 2.53792,-3.28067 1.2091,-0.96592 2.62019,-1.87732 3.65212,-2.90931 1.40954,-1.40957 2.07994,-2.15673 2.53791,-3.03307 0.45797,-0.87604 0.70192,-1.8792 1.1761,-3.77597 0.37224,-1.48888 1.21465,-2.25994 2.1046,-3.03307 0.88997,-0.77333 1.8256,-1.54567 2.22841,-3.15692 0.32464,-1.29856 0.80197,-2.71633 1.42371,-4.02358 0.62172,-1.30715 1.38631,-2.50042 2.29031,-3.40452 1.19643,-1.19633 2.5099,-1.69164 4.02351,-1.85697 1.51362,-0.16593 3.223403,0 5.261533,0 0.85965,0 1.65623,-0.23506 2.35221,-0.61926 0.696,-0.38419 1.30347,-0.96197 1.85701,-1.54754 1.10707,-1.17185 1.9354,-2.5186 2.5998,-3.40452 0.72483,-0.96592 1.86624,-1.49066 3.09502,-1.79505 1.22877,-0.3042 2.54203,-0.38815 3.71401,-0.68148 3.6768,-0.9195 7.38802,-0.98073 11.14205,-1.9189 1.74045,-0.43457 2.64275,-1.13155 3.65211,-1.85698 1.00936,-0.72592 2.12228,-1.47821 4.39492,-1.85697 2.33604,-0.38913 3.63653,-0.57975 4.45682,-1.29994 0.82024,-0.72099 1.15774,-1.96927 1.7332,-4.27109 0.49699,-1.98783 1.05446,-3.26417 1.98081,-4.27118 0.92631,-1.007 2.21885,-1.74171 4.20921,-2.53786 1.29342,-0.51752 3.24101,-0.50073 5.19963,-0.37135 1.95862,0.12938 3.92376,0.37135 5.32343,0.37135 1.92991,0 3.30174,-0.28641 4.58061,-0.74271 1.27887,-0.45728 2.46106,-1.08345 4.08541,-1.73322 3.25285,-1.30113 6.35757,-3.53341 9.90404,-4.95197 1.97157,-0.78814 3.36774,-1.67949 4.58063,-2.72363 1.21289,-1.04414 2.239,-2.239 3.46641,-3.46645 0.63447,-0.63506 2.63277,-0.96296 4.70442,-1.29994 2.07165,-0.33679 4.27432,-0.68247 5.26152,-1.17609 2.18951,-1.09471 3.297,-2.1114 4.33302,-3.21875 1.03602,-1.10745 1.99706,-2.3025 3.71401,-3.59029 1.55678,-1.1675 2.89556,-1.90142 3.89972,-2.84739 0.50202,-0.47309 0.95871,-1.04069 1.238,-1.6713 0.27921,-0.63012 0.43328,-1.35999 0.43328,-2.29026 0,-1.94704 -1.53921,-7.56212 -2.47601,-9.90403 -0.84849,-2.12117 -1.35707,-3.06299 -1.6094,-4.02358 -0.25235,-0.96098 -0.2476,-1.93648 -0.2476,-4.02348 0,-1.82339 0.0119,-3.2941 0.18557,-4.58061 0.17452,-1.28661 0.5119,-2.38556 1.05231,-3.46644 0.80168,-1.60335 1.68563,-2.21461 2.41411,-2.97124 0.36425,-0.37827 0.70548,-0.76938 0.92849,-1.36177 0.22311,-0.59259 0.37135,-1.38498 0.37135,-2.476042 2e-5,-1.69124 -0.48355,-2.99928 -1.1142,-4.14733 -0.63061,-1.14804 -1.40692,-2.13292 -1.98081,-3.28066 -0.91653,-1.83308 -1.76964,-2.74813 -2.97121,-3.21885 -1.20156,-0.47111 -2.74807,-0.49481 -5.07582,-0.49481 -3.92201,0 -7.90091,0 -11.82295,0 -3.09635,0 -6.18867,0 -9.28503,0 -1.79176,0 -3.30742,0.0197 -4.70443,-0.12346 -1.39699,-0.14814 -2.6716,-0.46913 -3.96161,-1.11426 -1.76757,-0.88394 -3.7527,-0.9353 -5.32342,-1.42369 -0.78538,-0.24395 -1.44037,-0.59753 -1.91891,-1.23802 -0.47852,-0.64098 -0.80474,-1.54122 -0.80474,-2.90931 0,-0.92345 -0.25955,-1.76147 -0.74281,-2.47594 -0.48325,-0.71506 -1.16075,-1.31426 -1.857,-1.85707 -1.39251,-1.08553 -2.96759,-1.85332 -3.59021,-2.47594 -1.07542,-1.07545 -1.82808,-1.847 -2.78551,-2.35228 -0.95743,-0.50567 -2.11674,-0.74271 -4.02352,-0.74271 -0.65501,0 -0.99523,-0.40296 -1.1761,-1.05224 -0.18084,-0.64888 -0.21017,-1.58517 -0.12375,-2.53796 0.17274,-1.90556 0.68088,-4.02832 0.68088,-5.07581 0,-0.46124 -0.35674,-1.01363 -0.68088,-1.54745 -1.24994,1.12088 -3.19423,0.44839 -6.19004,0.0593 -0.67733,1.35466 -0.73807,3.0784 -2.7855,3.5902 -1.7632,2.52512 0.081,3.96027 -1.1142,6.12815 -2.07544,1.72602 -3.05148,1.39782 -1.36181,4.08541 0.96967,2.03692 1.56523,4.13469 1.1142,6.37576 -0.80058,2.65825 -1.62797,5.19483 -3.83782,6.87087 -1.95567,1.11021 -3.6205,2.16038 0.80474,7.49002 -0.2242,2.86714 -1.40513,7.592942 0.80473,9.904032 0.95338,1.2712 1.33402,3.51188 2.22841,4.70437 2.57392,2.44482 4.61732,-0.78518 6.93282,1.98082 0.25126,0.25087 2.18886,2.16048 2.41412,2.72364 l -1.60941,6.93279 c -3.79758,0.2479 -7.27062,-0.2074 -10.46114,-2.53786 -2.61862,-2.28897 -2.78091,-5.33784 -6.93283,-6.31383 -2.58695,-2.89766 -6.75857,-2.48334 -9.96594,-0.55704 -3.01948,1.05017 -3.22899,2.20029 -4.39492,4.95197 -1.56523,0 -1.63725,-0.63999 -3.3426,-1.9189 0.57777,-1.34824 0.30854,-3.71484 -1.05231,-6.62326 -1.75434,-2.63683 -3.32344,-2.2387 -3.89972,-5.81863 -2.62053,-2.75712 -3.02766,-0.88987 -3.837813,-4.147332 -2.3388,2.126112 -4.57428,2.243642 -7.48994,3.280672 -1.99667,1.32809 -3.18616,2.78734 -3.52831,5.26159 -0.29837,2.6231 -0.43131,5.92135 -3.09501,6.37566 -3.32595,2.62359 -7.95348,-0.41283 -11.26584,-3.34259 -3.62312,-3.20472 -8.760095,-1.38034 -11.451553,-2.78546 -8.911022,-4.65222 -9.352738,-10.583242 -13.741854,-9.347002 -1.924738,0.54221 -3.49175,0.46222 -4.890121,0.18567 -1.310184,1.58943 -2.896652,3.556132 -3.280719,3.652132 -1.959375,0.48987 -4.337709,1.41322 -6.437616,2.59988 -2.099917,1.18656 -3.916616,2.63356 -4.704423,4.20916 -0.775501,1.5511 -1.158333,2.66596 -1.361809,3.52837 -0.203455,0.86222 -0.178467,1.4469 -0.06222,1.98073 0.232887,1.06784 0.804735,1.86033 0.804735,3.77597 0,1.98527 -1.141128,5.61567 -2.414117,8.23274 -0.63644,1.30853 -1.289364,2.35119 -1.857005,2.84739 -0.28385,0.2479 -0.52454,0.32394 -0.74281,0.2479 -0.21827,-0.079 -0.436738,-0.32296 -0.557132,-0.80494 -0.284443,-1.13787 -0.427652,-2.58556 -0.990403,-3.65212 -0.281381,-0.53333 -0.645527,-0.99348 -1.176111,-1.23792 -0.530663,-0.24493 -1.266905,-0.28642 -2.166504,-0.0593 -1.321641,0.32988 -2.145102,0.79506 -2.661711,1.29985 -0.516638,0.50468 -0.734316,1.05895 -0.866562,1.67139 -0.132345,0.61234 -0.140641,1.26607 -0.309529,1.9189 -0.168789,0.65284 -0.488095,1.29283 -1.114195,1.9189 -1.080042,1.08 -1.951039,2.25974 -2.66172,3.5902 -0.710712,1.33046 -1.259113,2.80808 -1.671298,4.45676 -0.2890835,1.15624 -0.5041935,3.01598 0.06222,4.33311 0.28306,0.65876 0.758612,1.16157 1.547506,1.42369 0.788834,0.26173 1.853242,0.24 3.342614,-0.18567 0.87555,-0.24988 1.502815,-0.80395 1.980807,-1.54745 0.478021,-0.7437 0.803353,-1.67159 1.114205,-2.53796 0.310813,-0.86617 0.616292,-1.67179 0.990403,-2.29026 0.374121,-0.61826 0.817773,-1.05233 1.48561,-1.05233 2.376369,0 3.60366,0.27851 4.45681,0.86616 0.85313,0.58765 1.329245,1.48335 2.352211,2.84739 0.598317,0.79802 1.443813,2.05589 2.476014,3.09499 1.0322,1.03911 2.248478,1.85698 3.714009,1.85698 2.50507,0 4.281206,0.18963 5.756732,0.74271 1.475517,0.55407 2.708101,1.47011 4.209217,2.97124 2.058692,2.05865 2.989531,3.60857 5.571015,6.18998 0.847303,0.8474 1.481491,1.3674 2.104608,1.6713 0.623107,0.3042 1.202036,0.40494 1.795109,0.43358 1.186125,0.0593 2.535657,-0.18667 4.766319,0.37135 0.854216,0.21334 1.553609,0.74173 2.166514,1.36187 0.612934,0.62024 1.089227,1.38389 1.609401,2.10458 0.520194,0.72098 1.033307,1.40503 1.609412,1.9189 0.576095,0.51358 1.262046,0.80493 2.042702,0.80493 1.332574,0 3.814839,0.35457 6.190029,0.43358 1.18759,0.0395 2.29839,0.0197 3.28072,-0.12346 0.98231,-0.14518 1.82389,-0.46221 2.2903,-0.92838 0.82429,-0.82469 1.51435,-1.37955 2.16652,-1.73323 0.65214,-0.35358 1.26246,-0.51061 1.857,-0.43357 1.18908,0.15506 2.3779,1.13994 4.02352,2.78556 0.74232,0.74271 1.1684,1.47288 1.4237,2.1665 0.25531,0.69333 0.34025,1.3513 0.30953,2.04265 -0.0612,1.38291 -0.4952,2.80324 -0.4952,4.45686 0,1.21777 -0.1442,2.15574 -0.43328,2.84739 -0.28919,0.69136 -0.728,1.17165 -1.238,1.60937 -1.02002,0.87605 -2.40642,1.53985 -3.89972,3.03317 -0.61925,0.61925 -1.23773,1.23772 -1.85701,1.85697 -1.15788,1.15792 -2.62938,1.32997 -4.14731,1.60938 -0.75901,0.13925 -1.52342,0.31703 -2.29031,0.61925 -0.76691,0.30222 -1.50836,0.76543 -2.228413,1.48562 -1.318016,1.31802 -2.100114,1.79337 -3.095011,2.10458 -0.994907,0.31111 -2.199433,0.45728 -4.333019,0.99041 -1.201226,0.30025 -2.840287,0.57679 -4.518725,0.74271 -1.678438,0.16593 -3.392274,0.22025 -4.766319,-0.12345 -3.938413,-0.98469 -5.730648,-1.23792 -9.285034,-1.23792 -1.838487,0 -3.32623,0.20543 -4.518716,0.61926 -1.192486,0.41382 -2.14841,1.03416 -2.97121,1.85697 -0.56612,0.56592 -1.319102,1.41737 -2.042712,2.41411 -0.72365,0.99683 -1.416238,2.13677 -1.671308,3.15692 -0.278615,1.11456 -0.872883,2.63879 -1.795109,3.59019 -0.461132,0.47605 -0.979845,0.80494 -1.609401,0.86617 -0.629527,0.0593 -1.363527,-0.14025 -2.166514,-0.74271 -0.788538,-0.5916 -2.026347,-1.90399 -3.404511,-2.47603 -0.689082,-0.28642 -1.425195,-0.37037 -2.104608,-0.12346 -0.679403,0.24592 -1.353907,0.85037 -1.918911,1.98083 -1.320643,2.64126 -2.716298,3.57548 -4.333018,6.80894 -0.558613,1.11733 -1.6327,2.09529 -2.723606,2.78556 -1.090917,0.69037 -2.196282,1.09125 -2.847409,0.92839 -0.8406845,-0.21037 -1.4592685,-0.15802 -1.9808155,0.12346 -0.521577,0.28148 -0.909327,0.77332 -1.237997,1.36176 -0.657378,1.17669 -1.08977,2.7985 -1.733213,4.08541 -0.48296,0.96592 -1.406509,1.7027 -2.290306,2.53796 -0.883747,0.83555 -1.726023,1.76631 -2.04271202,3.03306 -0.361874,1.4474 -0.37096,2.76236 -0.06222,4.08541 0.30913402,1.32305 0.93559902,2.65055 1.91891102,3.96165 0.727699,0.96987 2.085922,2.57747 3.033106,4.14733 0.473577,0.78518 0.830809,1.55012 0.990403,2.22833 0.100246,0.42667 -0.08,0.72 -0.185579,1.05234 z"
       id="Rauco"
       inkscape:label="#path2791" />
  </g>
</svg>
