<?xml version="1.0" encoding="UTF-8" standalone="no"?>
<!-- Created with Inkscape (http://www.inkscape.org/) -->

<svg
   width="210mm"
   height="297mm"
   viewBox="0 0 210 297"
   version="1.1"
   id="svg1283"
   inkscape:version="1.1.2 (b8e25be833, 2022-02-05)"
   sodipodi:docname="vector.svg"
   xmlns:inkscape="http://www.inkscape.org/namespaces/inkscape"
   xmlns:sodipodi="http://sodipodi.sourceforge.net/DTD/sodipodi-0.dtd"
   xmlns="http://www.w3.org/2000/svg"
   xmlns:svg="http://www.w3.org/2000/svg">
  <sodipodi:namedview
     id="namedview1285"
     pagecolor="#ffffff"
     bordercolor="#666666"
     borderopacity="1.0"
     inkscape:pageshadow="2"
     inkscape:pageopacity="0.0"
     inkscape:pagecheckerboard="0"
     inkscape:document-units="mm"
     showgrid="false"
     inkscape:zoom="0.52347032"
     inkscape:cx="155.69173"
     inkscape:cy="611.30496"
     inkscape:window-width="1920"
     inkscape:window-height="1017"
     inkscape:window-x="-8"
     inkscape:window-y="-8"
     inkscape:window-maximized="1"
     inkscape:current-layer="layer1" />
  <defs
     id="defs1280" />
  <g
     inkscape:label="Capa 1"
     inkscape:groupmode="layer"
     id="layer1">
    <path
       id="Colina"
       style="fill:#000000;fill-opacity:1;fill-rule:evenodd;stroke:#d38d5f;stroke-width:0.790513px;stroke-linecap:butt;stroke-linejoin:miter;stroke-opacity:1"
       d="m 0.40212639,172.01596 c 5.94648101,-2.87011 11.21997961,2.68897 16.84811361,3.59685 3.2852,0.39317 5.77464,-3.89032 8.00263,-4.98137 5.33039,-0.20868 3.22438,-3.74849 1.49128,-6.22361 -1.25438,-9.67974 -6.13941,-7.57293 -9.14067,-16.13035 -2.04389,-4.82358 5.68586,-8.81347 1.05683,-13.84953 -4.970783,-5.80029 3.52989,-9.41166 3.82318,-15.37693 2.36859,-5.44257 -5.23364,-13.40383 -10.084321,-15.81909 -3.7614566,-1.1935 8.159541,-6.137847 2.429474,-11.180907 4.720047,-6.99928 2.892027,-7.1362 2.896627,-9.43946 3.39432,-4.12825 2.73685,-4.51605 -1.30665,-6.89814 -1.382331,-4.91412 -0.97752,-10.63348 -4.7696,-14.23491 3.531053,-2.15516 6.63387,-5.23971 9.10327,-8.75715 4.22193,-1.67386 11.61009,-2.47413 12.599,-8.69244 0.37505,-2.64429 5.19283,-1.19926 4.31237,-4.56158 l -0.56888,-4.26654 c 1.84228,8.74968 8.07064,1.12638 12.5822,0.81394 9.82304,4.5638 5.43393,-1.2877 18.88157,-1.985 4.45852,-4.08782 10.23876,-6.6158 16.32199,-5.37107 2.44502,4.04084 3.80862,0.42783 5.74594,-1.33625 5.1856,1.11049 7.11597,5.22755 8.90735,7.86641 0.8643,2.92814 -1.67333,8.75191 0.85723,9.47393 2.1852,0.62344 6.87815,0.0458 8.79256,6.20124 4.8506,5.40293 8.86816,11.64655 13.81178,16.76282 -1.37641,5.8587 -7.22281,14.17976 1.61957,17.17306 6.61874,2.58967 10.78277,9.41245 9.84859,16.094437 3.18773,2.42062 5.50407,7.87 7.18101,10.80063 1.46368,2.55787 5.79715,-0.63522 8.94137,-1.11781 8.22993,-2.1195 2.4091,-9.19447 4.87918,-9.1386 9.80012,0.22177 4.7479,-2.987337 5.61901,-6.763897 3.09915,-5.44578 4.93172,-11.66108 10.14886,-15.42488 0.0458,-5.11784 5.44376,-9.67942 10.63198,-6.64523 6.51852,1.3418 15.09157,3.39444 12.74827,12.05889 4.38443,6.03036 -6.50497,10.25124 -1.36142,15.958367 6.09983,3.47183 4.20164,12.25475 11.37755,14.5064 l 4.95148,7.41488 c -0.97801,5.04516 -0.6483,11.7 -6.89428,10.26125 -0.70947,1.37478 0.63848,4.8069 -2.72561,3.52725 -0.73027,2.78016 -2.0934,1.76297 -3.20669,2.24471 -1.82617,2.1091 -5.06426,2.1004 -8.58241,1.67164 -1.26481,2.6842 -10.49656,4.58369 -11.42309,13.2972 -1.77828,0.73106 -2.69433,0.0458 -4.64061,4.9976 -0.12233,1.50227 0.96905,5.02625 -0.44615,4.37291 -2.77938,1.44458 -3.7935,2.48179 -3.48047,3.21272 -0.80066,2.65521 -1.6564,5.14498 -3.39124,4.99759 1.45125,14.74479 -3.9768,7.05096 -3.12348,12.94028 1.31073,2.51057 2.28887,5.30454 -2.70271,13.18383 -5.68247,-2.27703 -12.78223,1.98631 -19.73964,0.99077 -0.70671,3.26243 -0.21064,7.9678 -3.73449,7.85011 -2.02392,4.23318 -3.91099,1.02589 -7.01177,3.96319 -1.88596,-0.9012 -3.57618,-1.13082 -5.86852,0.60971 h -4.49668 c -1.19389,2.08326 -2.71717,4.08409 -2.36266,6.55443 -3.03131,0.91939 -0.36569,2.7328 -5.03018,8.53609 1.61584,4.2793 1.35692,10.89163 -2.30215,12.56373 -3.1696,1.4485 -3.64225,2.61995 -6.53873,4.58454 1.72712,8.91179 -9.54618,1.85043 -4.26802,9.7555 v 4.72532 c 2.31375,5.54221 5.06907,5.03063 3.18296,8.25787 -2.97786,1.25748 -4.31384,0.51942 -4.98517,0 -0.93055,1.737 -2.22469,1.06711 -4.04203,1.2126 -1.16938,0.2342 -1.43161,1.40212 -2.29048,1.61682 -2.90457,0.60316 -3.43605,-0.55605 -4.3115,-0.67368 -0.89823,0 -1.79646,0 -2.69469,0 -0.54081,0 -0.69546,-1.59497 -1.07787,-1.2126 -0.73623,0.7478 -1.44697,1.51667 -2.15575,2.29051 -0.65806,0.65804 -0.37347,1.43325 -1.34734,0.13476 -0.31074,-0.4141 -1.24733,-0.92581 -2.02101,-0.53905 -1.66395,0.83199 -0.7689,0.42391 -2.15576,-0.26953 0.21359,-0.68755 0.65164,-1.6545 0.13476,-2.15574 -0.77376,-0.80753 -0.71614,-1.92318 -1.61681,-2.69466 -1.54772,-0.75997 -2.01118,-2.70022 -3.63783,-2.55997 -0.35476,0.17729 -1.54666,1.4175 -2.15574,0.80838 -0.39284,-0.39316 -1.14421,-1.09445 -1.61682,-1.2126 -1.38264,0.34476 -2.27509,0.82153 -2.82941,2.02105 -0.28399,-0.56784 -0.92336,-0.94314 -1.75155,-0.94314 -0.89584,0.0523 -1.79057,0.14981 -2.64747,-0.17729 v -2.29672 h -1.97533 l -0.7808,-1.60766 c -0.0717,-0.69181 0.32774,-0.55933 0.73471,-0.41345 l 0.32146,1.14836 c -0.2005,-1.13102 1.14125,-2.86952 -2.80173,-2.5264 -0.90411,-0.79144 -0.73668,-2.19506 -3.16929,-2.1127 l -1.14835,0.68899 -1.60768,-0.13803 -2.06703,-1.74557 -3.35287,0.0916 -0.78079,4.22586 -2.63505,0.73072 L 6.2358514,177.0491 c -3.757009,0.13476 -4.329311,-2.91564 -5.83371901,-5.03371 z"
       sodipodi:nodetypes="cccccccccccccccccccccsccccscscccccccccccccccccccccccccsccccccccsscssccccsccccccccccccccccccc"
       inkscape:label="#path4695" />
  </g>
</svg>
