<?xml version="1.0" encoding="UTF-8" standalone="no"?>
<!-- Created with Inkscape (http://www.inkscape.org/) -->

<svg
   width="210mm"
   height="297mm"
   viewBox="0 0 210 297"
   version="1.1"
   id="svg1283"
   inkscape:version="1.1.2 (b8e25be833, 2022-02-05)"
   sodipodi:docname="vector.svg"
   xmlns:inkscape="http://www.inkscape.org/namespaces/inkscape"
   xmlns:sodipodi="http://sodipodi.sourceforge.net/DTD/sodipodi-0.dtd"
   xmlns="http://www.w3.org/2000/svg"
   xmlns:svg="http://www.w3.org/2000/svg">
  <sodipodi:namedview
     id="namedview1285"
     pagecolor="#ffffff"
     bordercolor="#666666"
     borderopacity="1.0"
     inkscape:pageshadow="2"
     inkscape:pageopacity="0.0"
     inkscape:pagecheckerboard="0"
     inkscape:document-units="mm"
     showgrid="false"
     inkscape:zoom="0.52347032"
     inkscape:cx="155.69173"
     inkscape:cy="611.30496"
     inkscape:window-width="1920"
     inkscape:window-height="1017"
     inkscape:window-x="-8"
     inkscape:window-y="-8"
     inkscape:window-maximized="1"
     inkscape:current-layer="layer1" />
  <defs
     id="defs1280" />
  <g
     inkscape:label="Capa 1"
     inkscape:groupmode="layer"
     id="layer1">
    <path
       id="Penaflor"
       style="fill:#000000;fill-opacity:1;stroke:#d38d5f;stroke-width:2.25104;stroke-miterlimit:4;stroke-opacity:1"
       d="m 170.35301,186.62471 34.85385,-46.05701 -2.48951,-8.09109 5.79308,-8.28706 -18.88218,-17.18047 -0.59238,-7.777573 -17.98914,-0.4862 -4.37508,-2.18754 -0.27384,-7.10955 -27.34453,0.54767 c -0.57934,0.58307 -5.34339,5.91808 -7.10974,9.02363 -4.14669,-0.32786 -2.51298,-5.48888 -6.01569,-6.28934 -2.34606,3.04743 -4.9805,2.43176 -7.10955,5.74241 -4.54218,3.066993 -0.45453,-4.45202 -4.92201,-2.46101 -2.14376,2.75702 -4.95685,4.789013 -7.65649,6.836093 0.67808,5.47789 -1.62626,7.58085 -3.2814,8.75035 -0.6967,-0.69671 -2.2954,-2.73447 -3.281398,-2.73447 -9.3079,-0.56258 -18.55451,-0.18629 -27.89147,0 -4.26722,-0.64827 -9.08063,-1.74922 -13.12524,-0.27384 -0.86809,0.86808 -4.50678,1.49959 -5.46894,2.461 l -5.76551,-1.42321 c -6.41117,7.36923 -8.60561,24.22594 -21.10158,17.90437 l -5.75508,10.87064 c -2.33042,10.81364 0.77681,22.12186 -19.18321,31.3327 -2.50125,19.17893 13.17796,17.72238 12.14948,33.89039 l 33.25106,3.83672 2.55769,-12.78881 17.26504,-0.63896 -0.63895,5.11556 9.5916,0.63896 4.47624,-11.50997 h 14.70717 l 39.005948,-8.95228 21.10158,8.31277 z"
       sodipodi:nodetypes="ccccccccccccccccccccccccccccccccccc"
       inkscape:label="#path4644" />
  </g>
</svg>
