<?xml version="1.0" encoding="UTF-8" standalone="no"?>
<!-- Created with Inkscape (http://www.inkscape.org/) -->

<svg
   width="210mm"
   height="297mm"
   viewBox="0 0 210 297"
   version="1.1"
   id="svg64"
   inkscape:version="1.1.2 (b8e25be833, 2022-02-05)"
   sodipodi:docname="vector.svg"
   xmlns:inkscape="http://www.inkscape.org/namespaces/inkscape"
   xmlns:sodipodi="http://sodipodi.sourceforge.net/DTD/sodipodi-0.dtd"
   xmlns="http://www.w3.org/2000/svg"
   xmlns:svg="http://www.w3.org/2000/svg">
  <sodipodi:namedview
     id="namedview66"
     pagecolor="#ffffff"
     bordercolor="#666666"
     borderopacity="1.0"
     inkscape:pageshadow="2"
     inkscape:pageopacity="0.0"
     inkscape:pagecheckerboard="0"
     inkscape:document-units="mm"
     showgrid="false"
     inkscape:zoom="0.74029882"
     inkscape:cx="361.34057"
     inkscape:cy="561.93525"
     inkscape:window-width="1920"
     inkscape:window-height="1017"
     inkscape:window-x="-8"
     inkscape:window-y="-8"
     inkscape:window-maximized="1"
     inkscape:current-layer="layer1" />
  <defs
     id="defs61" />
  <g
     inkscape:label="Capa 1"
     inkscape:groupmode="layer"
     id="layer1">
    <path
       style="fill:#000000;fill-opacity:1;fill-rule:evenodd;stroke:#d39062;stroke-width:0.797276;stroke-linecap:butt;stroke-linejoin:miter;stroke-miterlimit:4;stroke-dasharray:none;stroke-opacity:1"
       d="m 142.07955,99.263528 c -1.52476,1.524762 -3.55939,3.299572 -5.53106,4.285362 -1.13756,0.56847 -1.99885,1.53446 -2.84034,2.49147 -0.84141,0.95709 -1.67797,1.8854 -2.69079,2.39185 -1.06975,0.53507 -2.16486,0.87369 -3.43823,1.04646 -1.27344,0.17252 -2.72983,0.19955 -4.53453,0.19955 -3.68771,0 -9.07979,-0.59788 -10.41437,-0.59788 -3.47329,0 -6.94125,0 -10.41446,0 -1.25993,0 -2.687692,0.65195 -3.936572,1.29555 -1.24879,0.6432 -2.30351,1.2678 -2.79041,1.14607 -1.57509,-0.39355 -3.38313,-0.34744 -5.18234,-0.29894 -1.79914,0.0477 -3.58412,0.0636 -5.23211,-0.34903 -1.32799,-0.33233 -2.27649,-0.45557 -2.93997,-0.44841 -0.66307,0.008 -1.03938,0.18684 -1.34539,0.44841 -0.6122,0.52235 -0.81883,1.46664 -1.84366,2.49155 -1.23321,1.23314 -1.67932,1.76217 -1.89359,2.19245 -0.21387,0.43013 -0.23613,0.72191 -0.59788,1.4451 -0.61935,1.23838 -1.17327,1.93318 -1.69419,2.64094 -0.52076,0.7076 -0.98372,1.44335 -1.3454,2.89019 -0.17332,0.69409 -0.55177,2.29645 -0.9966,3.83687 -0.44444,1.54042 -0.94588,3.03871 -1.4451,3.53792 -1.5847,1.58471 -2.43335,2.9732 -3.68739,5.48129 -0.23295,0.4659 -0.69647,0.97466 -1.29555,1.44502 -0.59947,0.47067 -1.34659,0.93331 -2.19253,1.24577 -0.84594,0.31246 -1.76773,0.50566 -2.74064,0.4985 -0.97283,-0.008 -2.00967,-0.20751 -2.98973,-0.69726 -1.02157,-0.51043 -2.43479,-1.35971 -3.73725,-1.79389 -0.65115,-0.21705 -1.27352,-0.31007 -1.79389,-0.24885 -0.51997,0.0636 -0.94055,0.28622 -1.19592,0.79728 -0.91798,1.8361 -1.32958,2.58298 -2.14268,2.89011 -0.81303,0.30689 -2.01253,0.19956 -4.5843,0.19956 -2.27244,0 -3.83957,-0.10018 -5.28197,-0.44841 -1.44239,-0.34824 -2.76958,-0.98404 -4.53453,-2.04306 -1.84811,-1.10887 -3.23016,-2.34788 -4.53453,-3.08943 -0.65194,-0.3705 -1.28552,-0.6281 -1.94335,-0.64798 -0.65752,-0.0159 -1.33499,0.19241 -2.09283,0.69727 -1.53971,1.02642 -2.88495,1.47404 -4.03619,1.59457 -1.15124,0.12085 -2.13306,-0.0716 -2.98981,-0.44842 -1.71343,-0.75132 -2.93671,-2.11699 -4.03619,-2.39185 -1.08096,-0.27032 -3.057,0.36335 -5.08265,1.19593 -1.7800504,0.73145 -3.4313004,1.56738 -4.6840004,2.19253 0.42138,2.89997 0.19241,6.65026 0.59789,8.2717 0.42535,1.70142 0.28304,5.93923 0.59788,6.72705 0.11608,0.2902 0.36652,2.32936 0.29894,4.33513 -0.0318,1.00297 -0.16537,2.00633 -0.39832,2.7905 -0.23295,0.78392 -0.56131,1.31128 -1.09623,1.44509 -1.05631,0.26396 -1.85622,0.56211 -2.44162,0.89691 -0.58516,0.33472 -0.95478,0.72747 -1.24577,1.19592 -0.58199,0.93753 -0.78313003,2.18514 -1.24578003,4.03619 -0.11528,0.46193 -0.0716,0.99851 0.0994,1.54472 0.17253,0.5462 0.50646003,1.14687 0.99661003,1.64441 0.49055,0.49771 1.10425,0.9303 1.94336,1.2457 0.8391,0.31564 1.87124,0.4985 3.08943,0.4985 1.61405,0 3.06447,-0.63286 4.3849804,-1.24577 1.32059,-0.61299 2.51596,-1.19593 3.58778,-1.19593 0.81723,0 1.64886,0.19797 2.4417,0 1.05528,-0.26396 2.73547,-0.54541 4.53445,-0.69727 1.79897,-0.15185 3.72627,-0.2091 5.28196,0.0477 0.78393,0.13039 1.7011,0.81557 2.59117,1.69419 0.89007,0.87869 1.75581,1.95218 2.49147,2.93996 1.08573,1.45782 1.1495,1.62176 1.19593,1.59457 0.1288,-0.10257 0.14231,-0.2576 0.29894,-0.34903 1.15458,-0.67183 2.998,-0.94684 4.48468,-0.94684 1.73879,0 3.25695,-0.10733 4.58438,-0.29894 1.32735,-0.19161 2.41888,-0.48657 3.3386,-0.94675 0.53667,-0.26794 1.06276,-0.19877 1.59449,0.0477 0.53189,0.24885 1.06585,0.675 1.64442,1.19585 1.15712,1.04144 2.48233,2.37817 4.13589,3.03966 1.71064,0.68454 3.36706,0.79665 4.83347,0.59788 1.4664,-0.19876 2.73253,-0.69329 3.73724,-1.19592 1.02889,-0.51441 1.77783,-0.77677 2.342,-0.84714 0.5637,-0.0715 0.9493,0.0239 1.29555,0.29894 0.69249,0.54462 1.1898,1.68807 2.49147,2.98974 0.86804,0.86804 1.6305,1.49327 2.29223,1.84374 0.66149,0.35062 1.2554,0.42694 1.74404,0.29894 0.48896,-0.12801 0.89698,-0.47863 1.24569,-1.04638 0.34903,-0.56767 0.60504,-1.32393 0.84714,-2.29215 0.0946,-0.37765 0.38163,-0.54064 0.74735,-0.54859 0.36573,-0.006 0.82638,0.11131 1.29555,0.34903 0.93848,0.47465 1.89446,1.2973 2.24238,1.99313 1.01377,2.02756 1.5568,2.78604 2.49147,3.18914 0.93467,0.40309 2.28062,0.49532 4.88332,1.14607 0.81724,0.20433 1.62438,0.39355 2.44162,0.59788 3.35737,0.83935 7.58008,1.19593 11.06227,1.19593 1.286642,0 3.165762,-0.17014 5.032792,-0.4985 1.86703,-0.32836 3.68175,-0.76962 4.73385,-1.29555 1.14568,-0.57323 1.90941,-1.7213 2.84027,-2.59117 0.4651,-0.4349 0.96583,-0.77677 1.59456,-0.9966 0.62889,-0.22023 1.40535,-0.28702 2.342,-0.0994 2.31592,0.46352 3.61044,0.53587 4.684,0.84714 1.07357,0.31087 1.93088,0.83465 3.28876,2.19245 1.19227,1.19235 2.0332,2.11628 2.69079,3.18913 0.65751,1.07285 1.12668,2.31433 1.59457,4.18574 0.17809,0.71158 0.94611,1.08048 2.29215,1.39517 1.34603,0.31484 3.2746,0.56528 5.6806,1.04645 1.08351,0.21705 1.92937,0.90271 2.79049,1.64442 0.86113,0.74179 1.70246,1.54885 2.6908,2.04298 0.24805,0.12403 0.66466,0.71396 1.64433,1.29554 0.48976,0.29099 1.10871,0.58676 1.94336,0.79729 0.83473,0.21069 1.9021,0.34903 3.18914,0.34903 0.90755,0 1.54161,-0.19718 1.9932,-0.54859 0.4516,-0.35062 0.68773,-0.83887 0.74736,-1.39525 0.0556,-0.55654 -0.0318,-1.17676 -0.29894,-1.79381 -0.26873,-0.61696 -0.71317,-1.2612 -1.2457,-1.79388 -1.29642,-1.29642 -1.5851,-1.86259 -1.49495,-2.44171 0.0906,-0.5788 0.57404,-1.151 0.89699,-2.44162 0.26078,-1.04399 1.00662,-1.94606 1.84366,-2.74064 0.83711,-0.79426 1.76065,-1.46163 2.4417,-2.14268 1.52746,-1.52754 3.14183,-3.19168 4.88332,-4.93317 0.80873,-0.80873 1.43293,-1.85582 1.84366,-3.08943 0.41104,-1.23353 0.64797,-2.62345 0.64797,-4.23551 0,-1.41695 -0.45398,-2.83255 -1.04646,-4.08604 -0.59311,-1.25349 -1.34984,-2.36458 -2.04297,-3.28875 -0.99088,-1.32115 -1.22447,-2.20851 -1.09623,-3.23899 0.128,-1.03039 0.61855,-2.22369 1.09623,-4.13581 0.17491,-0.70044 0.45874,-6.13649 0,-7.97275 -0.40389,-1.61468 -0.99391,-2.59197 -1.64442,-3.53793 -0.65036,-0.94596 -1.37108,-1.84533 -2.04298,-3.18913 -0.20433,-0.40866 0.44364,-0.78711 0.64797,-1.19593 -0.18366,-0.36811 -0.1447,-0.64161 0.0994,-0.79728 0.24488,-0.15583 0.68693,-0.2091 1.24578,-0.19956 1.11713,0.0159 2.75034,0.29656 4.43483,0.69727 3.36889,0.80284 6.94435,1.99424 7.07577,2.09282 0.53984,0.40469 1.27877,0.66388 2.14268,0.79729 0.86399,0.13357 1.84413,0.17412 2.84034,0.14947 1.99241,-0.0477 4.06107,-0.29894 5.43144,-0.29894 0.9516,0 1.63829,-0.1455 2.19252,-0.34903 0.55416,-0.20354 0.95702,-0.50089 1.29555,-0.84714 0.67739,-0.69329 1.13805,-1.58653 2.04306,-2.49147 0.26555,-0.26555 1.65777,0.50327 3.28875,1.49487 1.6309,0.99167 3.50533,2.20112 4.684,2.79049 1.01975,0.50963 1.99504,1.55696 2.84027,2.64094 0.84522,1.08406 1.54026,2.2198 2.04306,2.89012 0.71873,0.95868 1.61802,1.40645 2.54132,1.54471 0.9233,0.13834 1.87975,-0.0636 2.79041,-0.39832 0.67898,-0.24885 0.87568,-0.55654 1.4451,-0.8969 1.42402,-2.48512 3.60884,-6.3638 3.63754,-6.37819 1.55831,-0.77916 2.74319,-1.28808 3.08944,-2.04306 0.17332,-0.37765 0.13993,-0.83879 -0.14947,-1.39525 -0.28941,-0.55654 -0.83553,-1.23417 -1.69419,-2.09283 -1.46426,-1.46417 -1.88453,-2.8238 -2.342,-3.83686 -0.22898,-0.50646 -0.46511,-0.95741 -0.84714,-1.24578 -0.38162,-0.28861 -0.93944,-0.44841 -1.74403,-0.44841 -1.70461,0 -2.61352,-0.1296 -3.08944,-0.39833 -0.47624,-0.26872 -0.50406,-0.64717 -0.44841,-1.04645 0.0557,-0.39912 0.2091,-0.85548 0.0994,-1.24578 -0.10892,-0.39037 -0.47465,-0.70362 -1.44509,-0.94675 -2.80361,-0.70124 -4.12587,-1.33426 -4.78363,-1.84366 -0.65751,-0.50963 -0.66625,-0.91964 -0.74735,-1.24577 -0.10813,-0.4341 -0.62253,-2.38088 -1.24577,-4.23551 -0.62333,-1.85471 -1.33181,-3.62173 -1.79389,-3.73725 -0.54144,-0.13516 -3.05803,-1.27463 -5.48129,-2.19253 -1.21158,-0.45875 -2.4289,-0.84983 -3.3386,-1.04637 -0.90963,-0.19638 -1.50178,-0.17174 -1.59449,0.19956 -0.29974,1.20022 -1.01155,3.08697 -2.04306,4.28536 -0.51599,0.59947 -1.10648,1.0412 -1.79389,1.09622 -0.68772,0.0556 -1.44056,-0.24488 -2.29215,-1.09622 -1.16945,-1.16953 -2.98281,-2.55087 -5.03279,-3.63763 -1.02499,-0.54302 -2.11652,-1.01092 -3.2389,-1.3454 -1.12246,-0.33472 -2.25033,-0.54779 -3.38846,-0.54779 -1.50242,0 -3.80951,-0.14947 -5.87992,-0.59788 -1.03517,-0.22421 -1.98876,-0.49055 -2.79049,-0.89691 -0.80166,-0.40627 -1.42618,-0.90907 -1.74404,-1.54471 -0.42615,-0.85175 -0.45716,-1.46124 -0.24886,-1.89359 0.20751,-0.43251 0.64877,-0.72669 1.04638,-0.94676 0.39753,-0.21943 0.75292,-0.38401 0.89698,-0.59788 0.14391,-0.21387 0.0557,-0.4826 -0.4985,-0.8969 -0.54779,-0.41105 -2.63204,-2.09848 -4.78362,-3.53793 -1.07579,-0.71953 -2.19452,-1.352232 -3.08943,-1.744042 -0.89492,-0.39196 -1.56738,-0.52553 -1.89359,-0.19956 z"
       id="Pelarco"
       inkscape:label="#path2897" />
  </g>
</svg>
