<?xml version="1.0" encoding="UTF-8" standalone="no"?>
<!-- Created with Inkscape (http://www.inkscape.org/) -->

<svg
   width="210mm"
   height="297mm"
   viewBox="0 0 210 297"
   version="1.1"
   id="svg1283"
   inkscape:version="1.1.2 (b8e25be833, 2022-02-05)"
   sodipodi:docname="vector.svg"
   xmlns:inkscape="http://www.inkscape.org/namespaces/inkscape"
   xmlns:sodipodi="http://sodipodi.sourceforge.net/DTD/sodipodi-0.dtd"
   xmlns="http://www.w3.org/2000/svg"
   xmlns:svg="http://www.w3.org/2000/svg">
  <sodipodi:namedview
     id="namedview1285"
     pagecolor="#ffffff"
     bordercolor="#666666"
     borderopacity="1.0"
     inkscape:pageshadow="2"
     inkscape:pageopacity="0.0"
     inkscape:pagecheckerboard="0"
     inkscape:document-units="mm"
     showgrid="false"
     inkscape:zoom="0.52347032"
     inkscape:cx="155.69173"
     inkscape:cy="458.47872"
     inkscape:window-width="1920"
     inkscape:window-height="1017"
     inkscape:window-x="-8"
     inkscape:window-y="-8"
     inkscape:window-maximized="1"
     inkscape:current-layer="layer1" />
  <defs
     id="defs1280" />
  <g
     inkscape:label="Capa 1"
     inkscape:groupmode="layer"
     id="layer1">
    <path
       d="m 18.27537,4.4885577 c -0.0783,3.73326 1.5859,6.7286903 2.94964,8.5906203 1.57024,1.95821 1.78353,4.56907 5.35138,5.49228 3.99456,1.65908 1.45949,4.50984 0.43049,6.74395 -1.52876,1.94242 -2.30312,4.63925 -5.3279,5.08565 -0.75793,2.00635 -7.21449,1.36635 -5.51602,6.02412 0.78271,4.40522 -0.52311,5.41583 1.12711,8.05865 -3.27029,1.30634 -4.46823,2.79258 -6.47823,5.06204 1.83167,1.06449 4.8031,2.90751 6.04787,4.65516 4.13531,0.24004 0.84141,5.21246 2.05043,6.97042 -2.27481,1.37666 -7.41617,0.0783 -8.0983,2.74679 -1.7604397,1.59073 -0.46571,5.4093 -0.43049,7.60467 -0.22177,3.26755 1.51611,7.90158 4.6553,9.28685 -0.23221,3.89163 2.63707,5.56637 3.93533,8.03516 3.16058,1.64382 4.30946,2.4898 5.25459,5.87541 1.40261,3.81545 4.65451,1.40027 7.41212,2.71509 3.80919,0.27003 6.58598,1.57155 7.19793,5.038302 -0.81924,3.27942 -2.5939,4.73395 -4.22481,6.93206 -1.744,1.29669 -3.17949,6.95216 -1.1271,8.59063 4.0457,0.20481 2.98813,4.31573 5.35152,5.35138 2.51236,2.5819 1.76579,5.66903 4.36569,7.6048 -0.0783,4.98104 1.72692,4.60129 -1.1271,8.30103 -1.33374,1.35996 -3.38953,5.52358 -1.41619,7.89427 1.00579,4.01087 0.1422,9.8928 0.43049,14.62153 0.93273,4.8875 -1.35473,5.15049 -3.23911,8.19262 -1.43953,1.65426 -1.52458,6.56198 -3.23898,8.16027 -0.74096,-0.0391 -5.61242,-1.00317 -6.47809,2.68352 -2.85689,2.34486 -3.81375,2.86811 -7.60481,4.22493 -2.80144,-0.18263 -6.85601,3.98608 -3.23898,6.4781 0.62487,3.68316 4.35891,3.0356 5.35139,5.49227 4.17823,-0.0783 6.94589,-0.21003 9.7172,2.11253 0.36787,3.24589 6.11648,1.11275 6.47809,4.36556 0.14611,3.06065 4.99826,2.82897 5.49241,6.04786 0.95229,3.60425 4.0376,3.07031 4.92102,5.78175 1.3216,2.10796 3.53041,3.3286 5.92276,4.36582 0.8088,4.21137 -2.85467,7.79057 2.78501,7.60467 3.10331,0.2309 6.42565,-4.71973 6.9322,0.26612 0.88968,4.76135 -1.75992,7.44135 -6.4781,6.21224 -2.23985,1.64982 -5.25263,6.1033 0.53225,5.35138 5.19588,-1.11927 4.17549,3.16019 4.81966,5.06204 1.20276,1.71596 4.50006,3.89124 6.47809,4.65517 0.8088,2.97677 4.66378,2.10013 7.17445,4.36569 2.86549,1.40118 2.04365,6.29768 4.36569,7.60467 2.4624,-1.71296 1.87915,-6.64625 6.37295,-1.35161 4.9689,1.98482 4.18801,5.65234 4.47083,7.82983 1.27973,3.07788 4.19363,2.90438 6.2742,4.85802 3.36369,1.22494 7.26667,0.85446 10.09995,3.81049 0.0391,3.89685 0.81271,6.49557 2.36391,8.65337 3.3877,1.68491 4.44579,3.91237 8.5905,3.23911 2.07992,1.65322 5.81618,1.44515 8.30102,4.3657 1.10232,-1.18711 4.96055,-5.39796 3.66947,-7.60481 2.69578,-4.05782 -4.95611,-5.65181 -4.79748,-10.05533 -1.53503,-2.46175 -2.98304,-11.60797 1.8121,-8.16588 2.81593,1.0097 6.41795,-2.47767 9.46348,-3.46636 -0.72792,-4.65216 1.90498,-8.51079 1.1271,-13.17482 -3.00574,-2.96477 -3.35235,-6.46661 -1.45428,-10.11287 -3.2468,-2.29255 -5.4033,-6.7703 0.32744,-6.9905 2.58555,4.43352 8.21075,2.48927 11.8296,5.49227 4.02796,0.27134 5.81775,3.02817 10.2411,0.52702 4.693,-0.44745 4.57794,-5.49553 7.35682,-7.73512 2.52671,-2.89772 7.51662,-2.31865 6.20206,-7.54767 0.39918,-2.84541 6.72895,-4.84301 9.44782,-2.71013 4.11601,-2.76022 5.46488,3.74787 7.66351,6.29872 3.06496,2.94964 8.59675,1.02927 8.51131,-3.50027 0.007,-3.8735 -0.68096,-7.46 0.43049,-11.38607 -1.10493,-4.75705 -2.48171,-9.77239 -6.4781,-12.95632 0.72923,-4.74557 -0.72661,-8.97559 -3.23898,-12.95619 -3.48044,-4.95846 1.03057,-6.76104 5.35139,-7.6048 0.69661,-3.55937 0.8114,-7.70721 3.09718,-10.70186 2.81462,-3.60763 -1.0384,-6.82731 -2.98643,-9.68485 -0.99926,-3.66608 -4.64238,-4.93876 -6.81753,-8.43656 -1.34091,-6.36473 -5.5014,2.079 -9.19892,-1.4548 -4.71843,1.36479 -5.55737,-4.52288 -9.08621,-6.54345 -2.44923,-5.26033 -6.68356,-2.08448 -9.03312,-0.41092 -3.64195,-3.04578 -8.75839,-6.50979 -13.57492,-3.88941 0.73705,-3.50628 3.54163,-8.30833 -2.78514,-7.46392 -3.43479,-0.34048 -8.70699,0.27656 -10.17117,-3.23911 0.7227,-5.16523 -2.86681,-10.72638 -8.56689,-9.85796 -3.62825,-0.27917 -8.70712,0.0913 -9.21249,-4.55433 -3.16736,-4.17223 4.38135,-6.50966 0.78923,-10.53083 -2.69682,-3.043962 1.58825,-7.597372 -1.24581,-11.345372 -2.3596,-2.70035 -5.6235,-6.28555 -9.47482,-5.96007 -3.63099,0.81141 -6.98999,4.09474 -9.22515,-0.76053 -3.08922,-2.41518 -8.10952,1.9509 -10.37807,-3.31986 -4.64864,-1.05275 -1.98169,-7.23707 -7.40117,-7.0423 -3.67547,-1.18711 -6.96755,-6.33042 -3.72765,-9.43817 2.06309,-5.71808 -4.29447,-4.57272 -6.87545,-7.90667 -0.30786,-3.65356 -3.17897,-6.76352 -2.84176,-10.64328 -2.33064,-2.04848 -3.78335,-6.03678 -6.47809,-8.48913 -5.2418,1.27059 -6.24954,-2.43293 -8.26241,-5.5802 -3.56811,-1.08405 -10.5277,-2.02056 -6.11335,-6.77083 -0.5766,-4.7727 -6.01903,-8.12087 -8.47165,-12.12312 0.18785,-6.0302503 -3.94525,-3.0742203 -5.31838,-4.6773403 -2.00478,-1.52172 -6.5308,-1.20929 -9.71721,-2.25316 0.51789,-2.06987 -3.22019,-0.49311 -4.36556,-0.98621 z"
       style="fill:#000000;fill-opacity:1;stroke:#d39062;stroke-width:1.72577;stroke-miterlimit:4;stroke-dasharray:none;stroke-opacity:1"
       id="Futaleufu" />
  </g>
</svg>
