<?xml version="1.0" encoding="UTF-8" standalone="no"?>
<!-- Created with Inkscape (http://www.inkscape.org/) -->

<svg
   width="210mm"
   height="297mm"
   viewBox="0 0 210 297"
   version="1.1"
   id="svg72"
   inkscape:version="1.1.2 (b8e25be833, 2022-02-05)"
   sodipodi:docname="dibujo.svg"
   xmlns:inkscape="http://www.inkscape.org/namespaces/inkscape"
   xmlns:sodipodi="http://sodipodi.sourceforge.net/DTD/sodipodi-0.dtd"
   xmlns="http://www.w3.org/2000/svg"
   xmlns:svg="http://www.w3.org/2000/svg">
  <sodipodi:namedview
     id="namedview74"
     pagecolor="#ffffff"
     bordercolor="#666666"
     borderopacity="1.0"
     inkscape:pageshadow="2"
     inkscape:pageopacity="0.0"
     inkscape:pagecheckerboard="0"
     inkscape:document-units="mm"
     showgrid="false"
     inkscape:zoom="0.74029882"
     inkscape:cx="361.34057"
     inkscape:cy="561.93525"
     inkscape:window-width="1920"
     inkscape:window-height="1017"
     inkscape:window-x="-8"
     inkscape:window-y="-8"
     inkscape:window-maximized="1"
     inkscape:current-layer="layer1" />
  <defs
     id="defs69" />
  <g
     inkscape:label="Capa 1"
     inkscape:groupmode="layer"
     id="layer1">
    <path
       d="m 34.875831,44.129537 c -2.24274,2.887983 -3.56971,3.158107 -5.19984,6.443104 -2.50706,2.61119 -4.80636,2.572778 -7.55617,3.651382 -2.77489,0.933583 -5.56469,4.787786 -1.2413,4.749603 3.60264,-0.518909 4.54863,5.837276 1.46055,6.633534 -1.18886,1.516303 -6.76183,3.334188 -5.20069,5.200677 -1.55081,1.90489 -4.55352,3.845556 -6.07871,5.479866 -2.40013,-1.88809 -4.35862,-2.32303 -7.18836,-0.55486 -2.33422,2.31143 0.45795,7.88097 -2.16312,8.94084 2.07322,4e-4 -4.775665,6.98735 1.24142,6.03476 2.15176,0.79532 3.30129,4.42635 3.22897,7.78718 1.53842,1.942587 2.03087,4.731577 3.31681,7.831057 -0.48212,3.27609 0.5957,7.37328 0.22112,9.65398 0.0242,3.15858 -1.24081,7.5188 0.78854,10.20271 -1.24897,1.05759 1.80492,5.92473 -2.16311,7.78719 -1.88086,-3.28023 -0.94798,5.646 -1.15364,7.82784 0.74909,3.36078 -3.96386,4.72397 -2.16311,6.44866 2.36206,2.81112 -2.72311,3.84512 1.75241,5.62407 0.3341,1.96241 -1.61902,7.19126 3.36067,6.63352 3.07733,0.0695 1.45245,6.94846 0.36672,7.83106 -1.51981,3.628 -2.67459,4.20599 -1.00942,7.5991 3.48779,0.53963 7.5285,-0.12506 7.64299,-3.31677 2.81095,-0.40158 3.98035,-3.5197 8.01913,-3.31675 3.22825,-0.42744 6.16692,-1.30827 8.7089,-3.31678 1.50417,-2.18453 6.42948,-1.10473 7.48029,-4.16354 0.36672,-3.2988 4.53853,-2.37495 7.94984,-2.46998 2.86726,0.85903 5.90972,4.11717 7.7872,2.71801 0.85113,-3.39021 4.37124,-3.80623 4.47044,-7.18842 1.1079,-1.47348 3.51256,-5.74742 1.00942,-7.2323 -1.45498,-1.60138 -4.07152,-3.4239 -5.47986,-5.47986 0,-3.88628 0,-7.77257 0,-11.65883 2.85807,-0.97548 -0.32746,-7.09725 2.16311,-9.3954 1.22885,-1.9258 4.78963,-4.39626 4.47039,-7.27616 0.67792,-4.27154 -2.05842,-5.1289 -1.15364,-9.62736 2.18819,0.18052 2.01692,4.72737 3.31676,6.58643 1.93934,1.65432 0.90399,6.28331 1.15363,9.62736 -2.41904,1.97538 -1.96411,4.85581 0,6.95645 -0.67514,4.04663 1.85053,5.36494 4.47045,7.59909 2.57594,1.1041 4.84061,1.86618 7.05689,3.74016 2.79477,1.91193 2.90823,8.24313 0.73031,3.40437 -2.68964,-0.77832 -3.26425,-5.54514 -6.5253,-4.04865 -1.90509,3.02497 -2.38231,4.6889 -3.56923,8.05194 -1.36002,1.57943 -2.90049,4.72588 -4.32618,6.58965 2.37693,2.60553 -2.84212,2.56909 -2.30733,6.26672 -0.43015,2.62554 6.18625,3.25825 2.30733,5.99087 -1.07104,3.68377 1.49644,7.08606 4.32618,4.88111 2.62838,-1.57223 5.37197,2.21119 7.23228,2.76187 2.31277,1.13445 5.87553,1.0123 8.4989,3.53587 2.75059,1.29756 5.34145,4.02628 7.63036,2.08821 2.85771,-0.72136 5.78285,-1.37523 8.429829,-2.30731 2.8431,0.37735 3.57243,-4.94947 2.5299,-6.63352 -3.40157,-0.85282 -5.493279,-0.59757 -5.479869,-3.31678 -2.71785,-0.78944 -1.55992,-7.67196 0,-2.52991 0.97529,3.42163 4.038719,1.27173 5.667949,3.68357 1.01582,1.76012 7.89691,0.27229 5.74286,4.16355 1.48151,1.57185 2.17332,3.78578 5.17302,3.62364 2.22679,-3.53506 8.77354,0.33186 4.47044,2.1631 -1.32286,2.21221 -4.48343,3.34653 -2.16312,7.27617 2.28722,2.74296 3.98078,4.11651 5.47987,5.99087 2.01438,3.3065 -0.0362,4.74889 -1.15369,8.42984 -0.38545,2.40376 -3.25706,-0.62835 -2.16306,4.83722 -2.37354,-1.29156 -1.59297,-5.93521 -4.21803,-7.42211 -0.12566,-3.71468 -0.25495,-6.83015 -4.85445,-5.84495 -4.64088,-0.10518 -1.18354,-3.39199 -2.03153,-6.95323 -0.81742,-2.54822 -3.19985,-4.75042 -5.7118,-5.16015 -3.551769,0.25852 -5.776569,2.77583 -7.978599,1.43284 -2.54621,3.24449 -3.5366,0.21128 -7.40767,-0.42339 -3.8127,-0.4243 -4.75802,-3.90748 -8.42984,-3.31676 -3.61611,0.35791 -5.06463,-4.41995 -8.94083,-3.31676 -3.77796,2.53791 -4.68547,-1.2436 -6.95643,-2.1631 0.38062,-2.97273 2.45451,-7.0576 0,-8.79664 -1.8072,1.7238 -4.64963,2.41237 -5.47986,5.11306 -3.89922,-0.94131 -4.28208,3.88766 -2.16312,6.44544 1.46145,1.46116 4.69259,3.51862 5.17296,6.88154 3.23283,0.45801 4.71905,2.3243 6.94041,4.22241 2.00737,1.79875 2.87469,3.54614 6.32665,4.71844 2.45994,1.44052 0.21569,6.79631 3.66753,6.9404 4.02953,-0.69924 4.99093,3.27145 6.58964,4.92498 2.08524,2.77228 1.67242,6.02003 6.49866,5.02529 2.78105,1.61844 5.19972,-3.21251 4.60529,2.99385 1.51057,1.77091 5.06663,3.1421 8.705699,2.48603 1.9142,-1.51019 6.40882,-0.44 5.71501,-4.55817 3.02875,-3.78067 1.27621,4.87706 3.91553,4.55817 2.36919,2.8254 -1.4382,6.27772 -1.75242,8.42981 -1.27917,2.36799 -1.09817,5.26504 1.75242,7.14456 0.1021,0.30933 0.4797,5.39565 3.36067,5.47987 0.72601,-1.19375 5.1494,2.33935 4.83717,4.55817 0.3927,2.69611 -5.30032,5.63834 0.83071,5.39215 3.21375,1.00278 3.83699,0.13472 7.37988,0.42351 1.46212,2.978 6.31983,0.80993 7.96252,2.89342 1.41379,3.04204 6.11315,-3.04452 4.8811,3.59261 0.0423,3.5557 3.2364,5.03358 4.47044,2.03147 1.45137,-2.065 2.69762,-4.33511 3.91553,-6.63356 -1.469,-2.38134 1.10815,-3.41185 2.71804,-5.62402 -0.11902,-1.30715 -1.27701,-5.94501 0.59872,-6.63357 4.07768,-0.0779 4.98808,-2.7779 6.6335,-4.47038 3.36665,-0.14983 3.18704,-3.84569 6.22286,-4.32624 1.74516,-0.37397 5.84109,-3.30811 6.44543,-2.30733 4.75682,0.72263 6.92918,-0.59449 3.31681,-3.31677 -3.61103,0.20131 -6.95781,-1.0893 -6.63356,-4.47041 -1.74269,0.0175 -4.80624,-5.85174 -2.1192,-6.63354 2.52495,-0.77799 4.51485,-3.46784 6.58964,-4.3262 -0.73199,-4.38839 0.92146,-6.39123 5.34503,-5.62408 1.56657,-3.08176 3.94459,-3.09477 6.76835,-3.91553 2.53914,-0.67516 5.6706,0.73689 7.7872,0.18807 2.51582,0.34788 5.86218,-0.11122 6.6335,-0.59877 2.9165,1.61954 6.20105,2.24344 6.63357,5.11305 2.69211,5.08515 2.13387,0.10096 1.15363,-2.94994 -2.71338,-3.0652 -3.36267,-3.77556 -5.47987,-6.63353 -0.9803,-2.59877 -0.4513,-6.70707 -4.1036,-6.63352 -3.6836,0.68404 -7.31191,-0.76713 -4.83723,-3.31676 -1.55558,-2.59857 -0.73641,-4.37238 0,-7.42038 0.57092,-2.93051 1.11768,-5.88577 2.30727,-8.19786 -0.3051,-2.91554 -4.0705,-3.30678 -3.31676,-7.83106 0.7703,-3.99979 -2.67187,-4.1427 -0.73024,-5.81551 0.82757,-1.59515 -3.73271,-3.60186 -3.31675,-5.47986 1.47831,-2.68615 -3.91499,-2.7211 -4.33892,-5.20069 -1.80232,-3.29926 1.50676,-4.93062 -0.55462,-8.42982 -2.09787,-2.85724 2.64904,-3.38578 0,-7.00033 -4.101,-1.55947 -1.72546,-6.42403 -6.31064,-5.62408 -3.43535,-0.47843 -7.15501,0.75512 -8.70884,2.30731 -2.71537,3.53405 -6.17332,1.16085 -3.12874,-1.15365 1.67786,-1.77582 5.35934,-1.54798 7.04421,-3.31676 1.9165,-1.92988 6.65954,-0.63191 2.30733,-5.06919 -3.53588,-0.56216 -3.1091,-5.66851 -4.47039,-7.18841 -2.48767,-1.29971 -0.90683,-5.254077 -3.31675,-7.642977 0.67859,-4.27229 -2.74703,-4.4403 -2.16312,-8.6179 -2.04669,-1.74561 -1.4223,-4.92996 -3.15411,-7.80324 -0.44345,-3.03035 0.60416,-7.565428 -1.91511,-9.103499 -3.01322,-0.02477 -8.13622,-0.889697 -8.34206,3.316759 -2.22244,1.24585 -6.41371,0.52284 -8.2417,2.16312 -2.38563,1.11611 -4.7744,2.22906 -6.03479,4.4704 -4.23911,0.64544 -0.89729,-6.29005 -6.31058,-4.4704 -2.0505,-1.282 -2.54887,-5.207659 -4.20734,-7.056923 -3.84406,-1.931817 -4.4937,2.871465 -3.90278,6.047463 -3.65151,1.40847 -4.48313,3.90069 -7.42036,4.47041 -4.11526,0.42859 -6.91637,-0.45704 -8.75276,-2.30731 -3.35288,-2.569 -4.78932,-0.1772 -6.07864,2.30731 -3.234349,0.20717 -4.442539,2.23629 -5.435949,5.47988 -1.7883,-0.0956 -4.79017,6.43081 -5.18734,2.90723 3.39076,-2.69202 2.76848,-4.10259 1.87053,-7.37766 -2.8051,-2.37427 -2.35585,-6.2732 -2.30733,-9.903191 -1.48139,-0.809357 -1.69146,-6.862159 -3.91547,-4.517504 -3.08415,-0.384183 -6.67241,-0.264198 -8.19791,-2.206992 -2.25023,-1.561874 -1.77954,-4.441743 -3.31675,-7.743307 0.93143,-3.998015 -4.55491,-3.20737 -5.62408,-5.479863 -2.36992,2.598623 -5.41045,0.06761 -8.4737,0 -3.75495,0.267882 -5.57557,-1.39862 -8.15398,-2.307312 -3.33856,0.317786 -3.75573,3.557007 -8.66178,2.307312 -3.18836,-0.878974 -6.21283,-1.204088 -6.72449,-3.915531 -0.99292,-0.390103 -0.72982,-1.759747 -2.30732,-1.708539 z M 137.98387,246.88463 c -5.94519,-0.65653 -1.6082,5.74915 0,0 z M 68.187691,132.81687 c -3.03123,-0.65097 -2.16512,-4.53916 -3.74021,-7.05692 -2.26159,-2.79944 -5.86991,-2.15252 -5.20063,2.26358 -1.71308,3.12048 0.56851,5.56619 0,9.26376 1.62137,1.58202 1.86587,5.61498 4.47039,7.23229 1.8724,3.06 3.1468,1.88211 5.47987,-0.59878 -0.49601,-3.67823 2.32896,-5.57862 1.88394,-8.21058 -1.24662,-1.21912 -2.94659,-1.07571 -2.89336,-2.89336 z m -3.31676,-16.58382 c 0.12023,1.84494 -5.12625,5.61726 -1.88393,5.05649 2.80793,-0.64795 4.39106,-2.01932 1.88393,-5.05649 z m -17.73751,44.27157 c 0.46157,2.55618 5.73222,4.70594 6.63356,2.1631 -1.81693,-1.51019 -5.07369,-0.38182 -6.63356,-2.1631 z"
       style="fill:#000000;fill-opacity:1;stroke:#d39062;stroke-width:0.799249;stroke-miterlimit:4;stroke-dasharray:none;stroke-opacity:1"
       id="Valdivia" />
  </g>
</svg>
