<?xml version="1.0" encoding="UTF-8" standalone="no"?>
<!-- Created with Inkscape (http://www.inkscape.org/) -->

<svg
   width="210mm"
   height="297mm"
   viewBox="0 0 210 297"
   version="1.1"
   id="svg1283"
   inkscape:version="1.1.2 (b8e25be833, 2022-02-05)"
   sodipodi:docname="vector.svg"
   xmlns:inkscape="http://www.inkscape.org/namespaces/inkscape"
   xmlns:sodipodi="http://sodipodi.sourceforge.net/DTD/sodipodi-0.dtd"
   xmlns="http://www.w3.org/2000/svg"
   xmlns:svg="http://www.w3.org/2000/svg">
  <sodipodi:namedview
     id="namedview1285"
     pagecolor="#ffffff"
     bordercolor="#666666"
     borderopacity="1.0"
     inkscape:pageshadow="2"
     inkscape:pageopacity="0.0"
     inkscape:pagecheckerboard="0"
     inkscape:document-units="mm"
     showgrid="false"
     inkscape:zoom="0.74029882"
     inkscape:cx="361.34057"
     inkscape:cy="561.93525"
     inkscape:window-width="1920"
     inkscape:window-height="1017"
     inkscape:window-x="-8"
     inkscape:window-y="-8"
     inkscape:window-maximized="1"
     inkscape:current-layer="layer1" />
  <defs
     id="defs1280" />
  <g
     inkscape:label="Capa 1"
     inkscape:groupmode="layer"
     id="layer1">
    <path
       d="m 41.307147,30.123171 -5.06106,17.54994 -10.6119,-1.87739 -3.754972,16.24399 h 4.326392 l 0.65306,0.65306 0.65306,0.65306 v 2.44884 l 0.57136,0.65306 0.65306,0.65306 v 0.57153 l 0.65305,0.65306 h 0.57137 l 1.30609,1.22442 0.65306,0.65306 0.57145,0.65306 v 0.65306 l 0.65305,0.57153 v 1.87748 l 0.65306,0.65306 0.57136,0.65306 v 1.22442 h -2.44889 v 0.65306 l 2.44889,2.44875 v 0.65306 l 0.65306,0.65306 h 1.22446 l 1.30607,1.22442 v 1.22442 l 0.57136,0.65306 v 1.87739 l 0.65306,0.65306 v 0.65306 l 0.65306,0.57154 -1.30609,1.30603 v 2.44884 l 0.65306,0.65306 v 1.22442 l -0.65306,0.65306 v 0.65306 l -0.57136,1.2245 v 1.22442 l 0.57136,0.65306 h 1.30603 l 1.22444,1.22442 -1.22444,1.306029 v 1.22442 l 0.57136,1.30603 v 1.22442 l 1.8775,1.87748 0.65306,0.65306 v 0.57154 l 0.65306,0.65306 v 0.65306 l 0.57145,0.57153 v 2.53045 l -0.57145,0.65306 0.57145,0.57154 v 1.30603 l 0.65305,0.57153 h 1.22446 l -0.57145,1.30612 0.57145,0.57153 -0.57145,0.65306 v 0.65306 h 1.22446 l 0.65306,-0.65306 h 0.65305 v 2.53045 l -1.30607,-0.65305 -0.65306,0.65305 v 2.53046 h -1.22445 l -1.22447,-0.65306 -10.04048,-2.53054 -3.75497,14.44821 0.57136,0.65306 v 0.57154 l -1.22443,1.30603 v 0.57153 l -0.65306,0.65306 h -0.57136 l -0.65306,-0.65306 h -0.65306 l -0.57145,0.65306 -0.65306,0.65306 -0.65306,0.57153 h -1.877485 l -0.571448,0.65306 h -1.306092 l -0.571448,0.65306 -0.653059,-0.65306 h -2.53053 l -1.224455,1.22451 0.653059,0.65306 v 0.65306 l 0.571448,0.57153 h 0.653059 v 0.65306 l 0.653059,1.22442 v 0.65306 l 0.571362,0.65306 -1.224438,1.22442 v 1.22442 l 0.653059,0.65306 -0.653059,1.30612 h 1.224438 v -1.30612 l 0.653059,-1.22442 v 0.57153 l 1.224437,1.30604 v 0.65305 h 0.653059 l 0.653059,0.57154 h 0.571448 l 1.306066,0.65306 0.571452,0.65306 v 1.22442 l 0.65306,-0.65306 0.65305,0.65306 h 0.57145 l 0.65306,0.65306 h 0.65306 l 0.57136,0.57153 h 0.65306 l 1.22444,1.30603 0.65306,-0.65306 0.65306,0.65306 h 1.22443 l 0.65306,0.57154 0.65306,0.65306 v 0.65306 h 0.57136 v 3.75487 l -0.57136,0.57153 v 1.87739 1.30604 l -0.65306,0.65305 0.65306,0.57154 v 1.87748 l -0.65306,0.65306 0.65306,0.65306 v 2.44884 l -0.65306,0.65306 v 0.65305 l 0.65306,0.57154 h 1.87747 l -0.65306,1.30603 h -0.65306 l -1.22445,1.22442 v 0.65306 l -0.65306,0.57154 v 0.65305 h -0.57145 l -1.30609,0.65306 -0.65306,-0.65306 h -0.57136 l -0.65306,0.65306 v 1.22442 h -0.65306 l -0.57136,0.65306 h -0.65306 l -0.65306,0.65306 -0.57145,0.57154 h -4.408021 l -1.224438,1.30603 0.571448,0.57153 -1.224438,1.30603 v 1.22451 h -0.653059 l -0.571361,0.65306 -0.653059,0.57153 h -1.877488 l -0.653059,0.65306 h -0.653059 l -1.224455,-1.22442 -0.653059,0.57154 h -0.571361 l -0.653059,0.65306 H 9.9612109 l -0.653059,-0.65306 -0.653059,0.65306 h -0.571361 l -0.653059,0.65306 h -1.877488 l -0.653059,0.57153 -0.571448,-0.57153 h -3.183562 l -0.57144899,0.57153 v 0.65306 l 0.57144899,0.65306 h 1.306091 l 0.571362,1.22442 v 0.65306 h 0.653059 l 0.653059,-0.65306 h 0.571448 l 0.653059,0.65306 0.653059,-0.65306 0.571448,-0.65306 0.653059,0.65306 h 1.224438 l 0.653058,0.65306 h 0.653059 v 0.57153 l 0.5713621,0.65306 h 5.061059 l 1.224455,-0.65306 0.653059,0.65306 v 0.65306 h 1.224438 l 0.653058,0.57154 1.224438,-1.22443 h 0.653059 l 1.224464,1.22443 h 0.653059 l 1.224451,1.30603 v 1.22442 l 0.65306,0.65306 v 0.65305 l 0.65306,0.57154 v 1.30603 h 1.87749 v 0.57154 l 1.22446,1.30603 v 1.22442 l 0.65306,0.65306 h 1.22444 l 0.65306,0.57153 h 0.65306 l 1.22444,-0.57153 0.65305,0.57153 h 1.87747 l 0.57145,0.65306 h 0.65306 l 0.65306,0.65306 h 1.22446 l 0.65305,0.57153 v 5.06091 l -0.65305,0.65306 v 1.22442 l -0.65306,0.65305 v 1.22442 l -0.57136,0.65306 v 1.87748 l 0.57136,0.57154 h 2.53053 l -0.65306,0.65306 v 2.53045 l 0.65306,0.57153 -0.65306,0.65306 v 2.53045 l -1.22444,1.22442 v 0.65306 l -0.65306,0.65306 v 3.75487 l 0.65306,1.22451 v 0.65306 l -1.22446,1.22442 v 0.65306 l -1.30607,1.22442 v 1.22442 l -0.57145,0.65306 v 1.22442 h 0.57145 l 0.65306,0.65306 h 0.65306 l 1.22445,1.22442 v 0.65306 l 1.22444,1.30603 v 3.75487 l 1.30609,1.22442 h 0.57136 l 0.65306,0.65306 h 3.10195 l 1.30607,1.22442 h 0.65306 v 1.22442 h 0.57145 l 0.65306,0.65306 v 0.65306 l 0.65306,0.57153 h 1.22446 l 1.22444,1.30603 1.30609,-0.65306 0.57136,0.65306 v 0.57154 l 0.65306,0.65306 h 1.22445 l 1.30608,1.22442 h 3.10192 l 0.65306,-0.57154 h 0.57136 l 1.95913,-1.87748 0.57145,-0.65306 h 1.30606 l 1.22446,1.22443 v 0.65305 l 0.65306,0.65306 v 1.22442 l 1.87749,1.8774 v 1.87748 l -0.65306,0.65305 v 1.22442 l 1.22443,1.30604 h 0.65306 l 1.22444,0.57153 h 0.65306 l 0.65306,0.65306 h 1.22444 l 0.65306,0.65306 h 3.75498 l 0.65306,0.57153 h 3.10193 l 0.65306,0.65306 h 11.91798 l 0.57136,-0.65306 h 4.40803 l 0.653063,-0.57153 h 3.75498 l 0.57136,-0.65306 h 5.71409 l 0.57137,-0.65306 h 1.87749 l 0.65306,-0.57153 h 0.65306 1.87747 l 0.57145,-0.65306 h 2.53053 l 0.65306,-0.65306 h 3.10193 l 0.65306,-0.57154 h 2.53053 l 0.57136,-0.65306 h 1.30607 l 0.57145,-0.65306 h 2.53052 l 0.65306,-0.57153 h 1.22444 l 1.22446,-1.30612 1.30607,-0.57153 h 0.57145 l 1.30607,-1.30603 0.57144,-0.65306 h 0.65306 l 0.65306,-0.57154 h 0.57145 l 0.65306,-0.65306 h 0.65306 l 0.65306,-0.65306 v -0.57153 l 1.87749,-1.87739 v -0.65306 l 1.22444,-1.22442 v -1.30603 h 0.65306 l 1.22444,-0.57154 v -1.87739 h 1.22446 l 0.65306,-0.65306 0.65306,-0.65306 v -0.57153 l 0.57145,-0.65306 h 0.65306 l 0.65305,-0.65306 v -0.57154 l 0.57145,-0.65306 h 1.30609 l 0.57144,-0.65305 v -0.65306 l 0.65306,-0.57154 h 1.22447 v -0.65306 l 0.65306,-1.22442 h 0.65305 l 1.22447,-1.30603 v -0.57153 h 0.65306 l 1.22445,-0.65306 h 1.87748 l 1.30609,-0.65306 h 0.57136 l 1.8775,-1.87739 h 0.65306 l 0.65306,-0.57154 h 0.57145 l 0.65306,-0.65306 h 0.65306 v -0.65306 l 0.57136,-1.22442 v -0.65306 l 1.30609,-1.22442 h 1.22346 l 1.3061,-0.65305 0.57136,-0.57154 0.65306,-0.65306 h 0.65306 l 1.22443,-0.65306 h 3.755 l 1.22443,-1.22442 h 0.65306 l 1.22444,0.57154 h 0.65306 l 0.65306,-0.57154 h 3.10193 1.30607 l 0.57145,-0.65306 h 1.30606 l 1.22446,-1.22442 v -0.65306 l 0.65306,-0.65305 h 0.57136 l 3.18359,-3.10182 h 0.57144 l 0.65306,-0.65306 v -0.57153 l 1.22446,-1.30612 v -1.22433 l 0.65306,-0.65306 v -0.57154 l 0.65306,-0.65306 h 0.57136 l -0.57136,-0.65305 h -1.30608 l -1.22445,-0.57154 h -4.97943 l -1.30609,-0.65306 h -1.22443 l -0.65306,-0.65306 h -2.53053 l -0.57145,-0.65306 h -2.53053 v -10.61164 l -0.65306,-0.65306 v -1.22442 l -1.87749,-1.87748 h -0.57145 L 177.95571,193.71 v -0.65306 l -0.65305,-0.57153 v -0.65306 l -1.22447,-1.22442 -0.65306,-0.65306 h -0.57136 v -0.65306 l -0.65306,-1.22442 v -3.1019 l -0.65306,-0.65306 v -0.65306 l -1.87748,-1.88138 v -1.87748 l -3.10193,-3.10181 v -0.65306 l -1.8775,-1.87748 h -0.65306 v -1.22442 l -0.65305,-0.65306 h -1.22447 l -0.65306,-0.65306 -0.57136,-0.57153 h -2.53053 v -0.65306 h -1.22442 l -0.65306,-0.65306 h -1.22446 l -0.65306,-0.57154 v -0.65306 h -1.87744 v -1.22442 h -1.87747 l -1.30609,-1.30611 v -0.57154 h -1.22444 v -0.65306 l -1.22446,-1.30603 0.57145,-0.57153 -0.57145,-0.65306 -0.65306,-1.22442 v -1.30603 l 0.65306,-0.57154 -0.65306,-1.30612 v -1.22442 l 0.65306,-0.65306 v -0.57153 l -0.65306,-0.65306 v -1.87748 l 1.8775,-11.26461 1.87747,-12.57074 3.10195,-20.65192 -0.57145,-1.8774 1.22446,-1.30603 v -1.2245 l 0.65306,-0.65306 h 1.22446 l 1.30607,-1.22442 0.57144,0.65306 h 1.30608 l 0.57136,-0.65306 h 1.87749 l 0.65306,-0.65306 0.65306,-0.65306 v -0.57154 l 0.57144,-0.653049 1.30607,0.653049 h 0.57145 l 0.65306,-0.653049 h 3.10192 l 0.65306,-0.65306 h 0.65306 l 0.65306,0.65306 0.57136,-0.65306 h 0.65306 l 0.65306,0.65306 h 2.4489 l 0.65306,-0.65306 h 3.10193 l 1.30609,-1.22442 h 0.57137 l 0.65306,0.65306 1.22446,-0.65306 h 0.65306 l 0.65306,-0.65306 h 0.57145 l 0.65305,-0.57154 v -2.53045 l -1.22446,-1.22442 -0.65306,-0.65306 v -1.87739 l 0.65306,-0.65306 v -0.57153 l 1.22446,-1.30604 h 1.8775 l 0.65306,-0.57153 h 4.97942 l 1.30609,-0.65306 h 0.57145 v -0.65306 l 0.65306,-0.65306 v -2.44884 l 0.65306,-0.65306 0.57145,-0.65306 1.30607,-1.22442 v -0.65306 l 0.57136,-0.57153 v -0.65306 l 0.65306,-0.65306 v -0.57153 h 3.18356 l 1.22444,0.57153 h 1.87748 l 0.65306,0.65306 1.22451,-1.22442 -0.65306,-1.30612 v -0.57153 h -0.57154 l -1.87748,-1.87748 v -1.30603 l -0.65305,-0.57154 h -1.22468 v -0.65306 l -0.65306,-0.65306 v -0.65305 l -0.65306,-0.57154 h -2.53052 l -1.87748,-1.87748 h -1.87749 l -0.57145,-1.30603 h -0.65306 l -0.65306,-0.57153 h -1.8774 l -1.22444,-1.30612 v -1.22442 h -0.65305 l -1.22444,-1.22442 v -2.53045 l -0.65306,-0.65306 h -2.53053 l -0.57145,0.65306 h -1.87747 l -0.65306,-0.65306 h -2.53052 v 1.30611 l -1.22444,1.22442 h -1.87749 l -0.65306,0.65306 -1.22447,1.22442 v 0.65306 l -0.65305,0.57154 h -1.22446 l -0.65306,0.65306 h -0.57136 l -1.30609,0.65306 h -1.22444 l -0.65306,0.57153 h -0.65306 l -1.22444,0.65306 h -1.87749 l -1.22444,1.22442 h -1.87749 l -1.30609,1.30612 h -1.87748 l -1.22445,0.57153 h -0.65306 l -0.57145,0.65306 h -1.30607 l -1.22445,-1.22442 v -0.65306 l -1.30608,-1.22442 h -0.57144 l -0.65306,-0.65306 -0.65306,-0.65306 h -0.57145 l -1.30609,-1.22442 v -0.65306 l -1.87747,-1.87739 h -1.8775 l -0.57136,0.65306 h -2.53053 l -0.65306,0.65306 h -1.87747 l -0.65306,-0.65306 h -0.57145 l -1.87749,-1.87739 h -0.65306 l -1.22446,-1.22442 h -1.87747 v -0.65306 l -1.30609,-1.22442 h -1.22444 l -1.22446,-0.65306 v -0.65306 l -0.65306,-0.57153 h -2.53053 l -0.57136,-0.65306 v -0.65306 l -0.65306,-0.65306 -1.30607,0.65306 h -1.22416 l -1.87747,-1.87453 h -0.65306 l -0.57144,-0.65306 h -0.65306 l -0.65306,-0.57154 h -1.8775 -3.10195 l -0.65306,-0.65305 h -4.40802 l -0.57145,-0.65306 -0.65306,0.65306 h -0.65306 l -1.22446,1.22442 h -2.53053 l -0.57137,0.65305 -0.65305,0.65306 h -3.101963 l -0.65306,-0.65306 -1.22446,0.65306 -0.65306,-0.65306 h -1.22443 l -0.65306,-0.65305 -0.65305,-0.57154 h -0.65306 l -1.22446,-0.65306 h -0.65306 l -0.57136,-0.65306 -0.65306,-0.57153 h -0.65306 l -0.57136,-0.65306 h -0.65306 l -1.22445,0.65306 h -0.65306 l -0.65306,0.57153 h -0.57136 l -0.65306,0.65306 h -0.65306 l -1.22445,1.22442 h -0.65306 l -0.57136,0.65306 -0.65306,-1.22442 h -3.755 l -1.87748,1.87739 v 0.57154 l -1.30608,1.30603 h -0.57136 l -1.30609,1.22442 -0.57136,-0.57154 -0.65306,-0.65305 h -4.97945 l -0.65306,1.22442 h -1.22414 l -0.65306,-0.57154 v -0.65306 l -1.30607,-0.65306 v -2.53045 l -0.57136,-0.57153 v -1.87748 l -0.65306,-0.65306 h -0.65306 v -2.53054 l -1.22443,0.65306 v -0.65306 l -0.65306,-1.22442 -0.57136,-0.65306 -1.30608,-1.22442 -0.57145,-0.65306 h -0.65306 l -1.22443,-0.57153 -0.65306,0.57153 v -1.22442 l -1.22444,-1.22442 h -0.65306 l -0.65306,-0.65306 v -0.65306 l -0.57136,-0.57153 h -0.65306 l -0.65306,-0.65306 v -0.65306 l -0.57145,-0.65306 -0.65305,0.65306 h -1.30599 l -0.57145,-0.65306 h -0.65306 l -0.65306,-0.57153 1.30608,-1.30603 v -1.22442 h -1.8775 l -0.65306,-0.65306 h -0.65306 v -0.57154 z"
       style="fill:#000000;fill-opacity:1;fill-rule:evenodd;stroke:#d38d5f;stroke-width:1.14734;stroke-linecap:butt;stroke-linejoin:miter;stroke-miterlimit:4;stroke-dasharray:none;stroke-opacity:1"
       id="Villarrica" />
  </g>
</svg>
