<?xml version="1.0" encoding="UTF-8" standalone="no"?>
<!-- Created with Inkscape (http://www.inkscape.org/) -->

<svg
   width="210mm"
   height="297mm"
   viewBox="0 0 210 297"
   version="1.1"
   id="svg1283"
   inkscape:version="1.1.2 (b8e25be833, 2022-02-05)"
   sodipodi:docname="vector.svg"
   xmlns:inkscape="http://www.inkscape.org/namespaces/inkscape"
   xmlns:sodipodi="http://sodipodi.sourceforge.net/DTD/sodipodi-0.dtd"
   xmlns="http://www.w3.org/2000/svg"
   xmlns:svg="http://www.w3.org/2000/svg">
  <sodipodi:namedview
     id="namedview1285"
     pagecolor="#ffffff"
     bordercolor="#666666"
     borderopacity="1.0"
     inkscape:pageshadow="2"
     inkscape:pageopacity="0.0"
     inkscape:pagecheckerboard="0"
     inkscape:document-units="mm"
     showgrid="false"
     inkscape:zoom="0.52347032"
     inkscape:cx="155.69173"
     inkscape:cy="611.30496"
     inkscape:window-width="1920"
     inkscape:window-height="1017"
     inkscape:window-x="-8"
     inkscape:window-y="-8"
     inkscape:window-maximized="1"
     inkscape:current-layer="layer1" />
  <defs
     id="defs1280" />
  <g
     inkscape:label="Capa 1"
     inkscape:groupmode="layer"
     id="layer1">
    <path
       id="Lampa"
       style="fill:#000000;fill-opacity:1;fill-rule:evenodd;stroke:#d38d5f;stroke-width:1.16938px;stroke-linecap:butt;stroke-linejoin:miter;stroke-opacity:1"
       d="m 44.440402,241.56029 c 1.251262,-0.76934 1.023374,-2.3475 2.177302,-2.77388 11.3271,-4.18587 9.81882,-8.16465 12.54176,-5.24755 3.3822,2.38165 6.28109,-6.62085 15.03058,-7.32061 l 7.49151,4.84547 c 12.4781,4.49874 18.335356,-4.94969 29.292726,0.64063 9.89243,6.65462 5.07834,0.69482 11.99172,7.8724 12.71868,-9.61671 11.49481,-22.06043 18.8572,-22.33574 3.58722,-0.23903 6.89013,-7.58635 10.24525,-13.62772 -1.17226,-3.64066 -2.68843,-7.53941 -1.26484,-9.23321 l 4.93286,0.25257 1.62366,2.23882 51.85468,-14.37954 -47.47448,-118.760396 c -5.55763,0.19935 -6.40423,-4.31303 -8.62964,-7.44621 -3.1414,-3.68276 -20.57709,1.86499 -19.92657,9.58033 -7.49172,2.8299 -12.80653,-5.04386 -20.77449,-0.59902 -7.33115,3.28715 5.9369,9.73893 -2.33743,14.98591 -9.0577,6.4246 -1.99452,21.059896 -14.019256,24.916936 -14.81294,2.89358 -5.42503,-13.331206 -12.99591,-12.999946 -5.05464,0.2216 -0.30009,2.19556 -0.86998,-7.288 1.61259,-5.72667 3.07672,-10.64927 0.25596,-16.87297 -4.14338,-10.19686 -16.69536,-0.01 -23.99727,0.80611 -6.94062,3.99717 -7.97508,-8.58028 -19.307129,-9.57587 -6.643832,0.78966 -12.932539,7.30793 -18.844058,0.15387 -13.2547312,-4.57229 -0.938881,14.16199 -13.6945792,4.92337 0.406056,4.33683 0.116127,6.22069 -5.97550398,9.60984 -0.392217,1.5618 2.56973098,5.08179 4.22312898,6.87691 2.678977,8.93031 -9.656866,19.681956 0.519084,25.771046 2.281283,-0.029 0.358057,-2.79671 2.21874,5.04095 1.500207,6.3194 10.3899132,16.19169 10.1939882,24.05451 1.023954,4.11329 -0.497505,8.07456 0.749402,8.4841 8.019919,2.63423 2.476598,11.40728 4.781077,15.34445 5.88184,-0.18774 6.475245,7.93656 -2.840102,6.30411 -6.396124,0.8816 -6.309368,8.26733 -12.7733872,7.15242 -1.544655,5.55558 -1.819923,12.03195 -6.212228,15.78544 -2.668265,2.28024 4.294672,7.06842 5.238392,10.7624 -2.068878,11.58873 12.2243712,9.03212 11.8333352,19.825 -1.178306,7.43963 13.462287,5.00359 10.810338,16.65697 3.36392,1.62877 -3.171662,1.17849 15.074054,5.57571 z"
       sodipodi:nodetypes="cscccccccccccccccccscccccccccscscccscccc"
       inkscape:label="#path5606" />
  </g>
</svg>
