<?xml version="1.0" encoding="UTF-8" standalone="no"?>
<!-- Created with Inkscape (http://www.inkscape.org/) -->

<svg
   width="210mm"
   height="297mm"
   viewBox="0 0 210 297"
   version="1.1"
   id="svg64"
   inkscape:version="1.1.2 (b8e25be833, 2022-02-05)"
   sodipodi:docname="vector.svg"
   xmlns:inkscape="http://www.inkscape.org/namespaces/inkscape"
   xmlns:sodipodi="http://sodipodi.sourceforge.net/DTD/sodipodi-0.dtd"
   xmlns="http://www.w3.org/2000/svg"
   xmlns:svg="http://www.w3.org/2000/svg">
  <sodipodi:namedview
     id="namedview66"
     pagecolor="#ffffff"
     bordercolor="#666666"
     borderopacity="1.0"
     inkscape:pageshadow="2"
     inkscape:pageopacity="0.0"
     inkscape:pagecheckerboard="0"
     inkscape:document-units="mm"
     showgrid="false"
     inkscape:zoom="0.74029882"
     inkscape:cx="361.34057"
     inkscape:cy="345.8063"
     inkscape:window-width="1920"
     inkscape:window-height="1017"
     inkscape:window-x="-8"
     inkscape:window-y="-8"
     inkscape:window-maximized="1"
     inkscape:current-layer="layer1" />
  <defs
     id="defs61" />
  <g
     inkscape:label="Capa 1"
     inkscape:groupmode="layer"
     id="layer1">
    <path
       sodipodi:nodetypes="ccsssssssssccccccccccccccccccccccccccsccscscccsccccc"
       d="m 192.71025,195.23629 c 4.88757,-5.0894 14.96843,-5.44965 12.5667,-11.32918 -1.4427,-4.68071 -2.1781,-9.25504 -2.1781,-13.64183 0,-16.09474 -3.2916,-30.6294 -8.08285,-35.69069 -6.03105,-6.37118 -3.22151,-15.43258 6.75183,-21.77579 3.49604,-2.22351 4.88039,-4.56977 4.88039,-8.27153 0,-2.84221 0.78282,-7.226586 1.73957,-9.743076 1.32485,-3.48464 0.90175,-6.70119 -1.77465,-13.49131 -1.93288,-4.90367 -3.51429,-11.01219 -3.51429,-13.57449 0,-6.98733 -7.76116,-18.78677 -14.48153,-22.01653 -3.25995,-1.56672 -8.72234,-4.18865 -12.13857,-5.82647 -10.43702,-5.00367 -17.36946,-10.56762 -20.70046,-16.61403 2.9484,1.66405 -1.00191,11.90267 -0.82767,18.04057 0.17426,5.78025 -0.73078,8.71301 -9.46955,10.87025 3.89748,11.1902 -8.71248,-4.16759 -9.2458,4.24936 -4.17183,-0.19854 -7.82701,0.0604 -6.71327,5.46427 0.78284,7.14837 -2.97936,8.75923 -5.76109,15.05884 -3.488,3.81827 -1.84889,7.71079 -4.14825,9.47625 0.93412,6.6413 -4.21613,12.92662 -7.57239,17.984486 1.83949,8.72945 -6.796,2.52575 -9.00424,8.45934 -4.458732,0.82347 -6.531952,12.28526 -7.402662,5.73894 -7.04975,-8.1345 -9.28754,-12.24011 -13.14943,-3.81612 -11.12833,10.39329 -12.86371,1.15207 -16.19367,0.97647 -3.85641,3.21607 -8.09445,2.76419 -12.30518,-0.63117 -2.40919,4.35325 -6.55488,4.19502 -10.74716,2.94617 l -6.23865,13.09249 -19.199528,5.11991 c 1.117833,6.39983 -4.299695,12.79972 3.413262,19.19954 l 0.853299,7.6798 c -3.218029,-1.42868 -3.099482,2.70363 -2.986576,6.82649 l -7.679829,0.85332 c 0.790866,3.27101 0.0161,6.54208 -5.9731765,9.81309 h -3.839915 c -0.494069,2.97166 -2.25802104,5.82869 2.850516,7.67981 v 10.23975 c -4.53496504,1.85286 -4.40062204,4.41235 0.136093,8.53313 l 0.42666,20.90617 c 3.786691,1.19137 4.198466,2.08091 7.6588005,6.0833 3.460327,4.00239 7.525282,0.165 11.410559,0.37629 11.326605,2.72449 18.428065,11.20643 28.799435,16.15423 5.56887,0.52519 11.69774,-0.59495 17.84208,-0.96272 5.24191,-0.3139 6.02729,0.81355 10.95355,3.08301 3.44508,0.57482 6.19817,-1.48939 9.20466,0.52317 6.64855,4.44998 15.925672,17.16438 21.243662,21.84649 3.12129,-0.30652 -4.045,-5.13567 9.95405,-6.07827 -0.79956,-1.98995 3.04344,-8.0528 4.11568,-11.773 7.92381,-0.19184 9.60106,-6.49668 11.96116,-13.02053 1.06251,-2.93704 5.55126,-3.9225 7.92374,-5.75846 1.55313,-14.37119 14.00982,6.18532 13.98032,-6.03192 4.69288,-3.37477 1.95544,-15.08983 10.9554,-11.70909 8.3275,3.04142 -3.2867,-8.90759 8.94063,-6.18807 -0.39976,-11.67018 15.44955,-4.77816 12.76651,-19.3308 z"
       style="fill:#000000;fill-opacity:1;fill-rule:evenodd;stroke:#d38d5f;stroke-width:1.77467;stroke-linecap:butt;stroke-linejoin:miter;stroke-miterlimit:4;stroke-opacity:1"
       id="San_Esteban" />
  </g>
</svg>
