<?xml version="1.0" encoding="UTF-8" standalone="no"?>
<!-- Created with Inkscape (http://www.inkscape.org/) -->

<svg
   width="210mm"
   height="297mm"
   viewBox="0 0 210 297"
   version="1.1"
   id="svg64"
   inkscape:version="1.1.2 (b8e25be833, 2022-02-05)"
   sodipodi:docname="vector.svg"
   xmlns:inkscape="http://www.inkscape.org/namespaces/inkscape"
   xmlns:sodipodi="http://sodipodi.sourceforge.net/DTD/sodipodi-0.dtd"
   xmlns="http://www.w3.org/2000/svg"
   xmlns:svg="http://www.w3.org/2000/svg">
  <sodipodi:namedview
     id="namedview66"
     pagecolor="#ffffff"
     bordercolor="#666666"
     borderopacity="1.0"
     inkscape:pageshadow="2"
     inkscape:pageopacity="0.0"
     inkscape:pagecheckerboard="0"
     inkscape:document-units="mm"
     showgrid="false"
     inkscape:zoom="0.74029882"
     inkscape:cx="361.34057"
     inkscape:cy="21.612894"
     inkscape:window-width="1920"
     inkscape:window-height="1017"
     inkscape:window-x="-8"
     inkscape:window-y="-8"
     inkscape:window-maximized="1"
     inkscape:current-layer="layer1" />
  <defs
     id="defs61" />
  <g
     inkscape:label="Capa 1"
     inkscape:groupmode="layer"
     id="layer1">
    <path
       id="Sierra_Gorda"
       style="fill:#000000;fill-opacity:1;fill-rule:evenodd;stroke:#d38d5f;stroke-width:1.03753;stroke-linecap:butt;stroke-linejoin:miter;stroke-miterlimit:4;stroke-opacity:1"
       d="M 9.9140739,93.697724 75.997805,90.442574 123.20047,44.813321 c 3.71965,15.423663 20.70139,17.585223 31.8618,25.568123 l 11.40731,19.95283 3.14685,3.64849 1.57342,4.72029 c 2.93509,0.0235 13.62608,5.695216 6.68705,13.374076 l -3.14685,13.76743 11.01396,6.68706 c 7.89222,-9.5661 13.38352,-7.12759 19.27442,-6.68706 2.12533,5.826 7.54789,10.33308 2.15395,19.16678 -8.26428,3.63356 -8.21096,18.9117 -8.55962,33.62709 l -0.6114,18.34204 c -1.07739,2.64937 -1.31828,5.29881 2.4456,7.94822 v 12.83939 c 2.44562,3.26083 2.44559,5.7064 0,7.33684 l -1.22279,27.51306 -23.84465,-2.44561 -29.34726,-25.67888 -12.83943,-7.94821 L 82.446529,215.9339 67.161502,219.60231 3.5757743,211.04268 11.523993,176.8042 2.3529796,123.61231 2.9643772,111.99568 0.51876651,106.49308 V 93.653644 Z"
       sodipodi:nodetypes="cccccccccccccccccccccccccccccc"
       inkscape:label="#path10911" />
  </g>
</svg>
