<?xml version="1.0" encoding="UTF-8" standalone="no"?>
<!-- Created with Inkscape (http://www.inkscape.org/) -->

<svg
   width="210mm"
   height="297mm"
   viewBox="0 0 210 297"
   version="1.1"
   id="svg1283"
   inkscape:version="1.1.2 (b8e25be833, 2022-02-05)"
   sodipodi:docname="vector.svg"
   xmlns:inkscape="http://www.inkscape.org/namespaces/inkscape"
   xmlns:sodipodi="http://sodipodi.sourceforge.net/DTD/sodipodi-0.dtd"
   xmlns="http://www.w3.org/2000/svg"
   xmlns:svg="http://www.w3.org/2000/svg">
  <sodipodi:namedview
     id="namedview1285"
     pagecolor="#ffffff"
     bordercolor="#666666"
     borderopacity="1.0"
     inkscape:pageshadow="2"
     inkscape:pageopacity="0.0"
     inkscape:pagecheckerboard="0"
     inkscape:document-units="mm"
     showgrid="false"
     inkscape:zoom="0.74029882"
     inkscape:cx="361.34057"
     inkscape:cy="561.93525"
     inkscape:window-width="1920"
     inkscape:window-height="1017"
     inkscape:window-x="-8"
     inkscape:window-y="-8"
     inkscape:window-maximized="1"
     inkscape:current-layer="layer1" />
  <defs
     id="defs1280" />
  <g
     inkscape:label="Capa 1"
     inkscape:groupmode="layer"
     id="layer1">
    <path
       d="m 105.6346,17.061395 v 1.0394 l -1.0394,1.03941 h -0.90965 l -1.03941,0.90965 -1.0394,-0.90965 -0.90965,0.90965 -4.027592,-0.90965 h -2.98818 l -1.03941,0.90965 v 1.0394 l -1.0394,1.03941 v 0.90965 h -2.98819 v 1.0394 h -1.94877 v 1.03941 h -1.03941 l -0.90965,1.0394 h -1.0394 v 1.94878 l -1.03941,1.0394 v 0.90966 h -0.90965 v 1.0394 h -1.0394 l -1.03941,1.0394 v 0.90966 l -0.90965,1.0394 v 1.0394 h -1.0394 v 0.90965 l -1.03941,1.03941 v 1.0394 h -0.90965 l -1.0394,0.90965 h -2.98819 v 1.03941 l -1.0394,1.0394 h -7.92528 l -1.03941,0.90965 h -1.94878 l -1.0394,-0.90965 h -4.02759 v 0.90965 l -0.90965,1.03941 v 1.94878 l -1.0394,1.0394 h -1.94878 v 1.0394 h -1.03941 v 7.01564 h -1.0394 v 2.98804 l -0.90965,0.90965 v 5.97623 l 0.90965,1.03941 v 1.0394 l 1.0394,0.90965 v 1.03941 h 1.03941 l 0.90965,1.0394 h 2.98818 l 1.03941,0.90965 h 1.0394 l 1.94878,2.07867 v 0.90965 l -1.0394,1.03941 v 1.0394 l 1.0394,1.0394 v 4.93697 h -1.0394 v 1.0394 l 1.0394,0.90965 v 1.03941 l 1.0394,1.0394 v 3.89756 l -1.0394,1.0394 v 1.94878 l 1.0394,1.03941 v 4.93696 l -1.0394,1.0394 h -1.0394 v 1.03941 h -0.90966 l -2.0788,1.948775 v 1.0394 l -0.90965,1.0394 v 0.90966 l 0.90965,1.0394 v 1.94878 l 1.0394,1.0394 v 1.94878 l -1.0394,1.03941 v 1.0394 l 1.0394,0.90965 v 2.07867 l -1.0394,0.90965 v 1.03941 h -0.90965 v 1.0394 h -1.03941 l -1.0394,0.90965 v 1.03941 h -0.90965 v 2.98818 l -1.03941,1.0394 h -1.0394 v 1.03941 h -0.90965 v 0.90965 h -1.03941 l -1.0394,1.0394 v -1.0394 h -1.94878 v 1.0394 l -2.07881,1.94878 h -0.90965 v 1.03941 h -2.98818 l -1.03941,1.0394 h -1.94891 l -1.03941,0.90965 h -1.0394 l -0.90965,-0.90965 h -2.98819 v 3.89756 l -1.0394,1.0394 h -4.02759 v 1.03941 h -2.98818 l -1.03941,-1.03941 h -1.94891 v -1.0394 l -1.03941,1.0394 v 1.03941 l -1.94878,1.94891 h -1.0394 l -0.90965,1.03941 v 0.90965 l 1.94878,2.07881 v 0.90965 h 1.0394 v 2.98818 l -1.0394,1.03941 v 2.07867 l -1.03941,0.90965 v 4.02745 h -0.90965 l -1.0394,1.0394 h -1.03941 l -1.9487802,1.94878 h -1.0394 v 1.0394 l -0.90965,0.90965 v 4.02745 l -1.0394,1.03941 v 2.98818 l -1.03941,0.90965 v 2.07881 h -0.90965 v 1.94878 l -1.0394,1.0394 v 1.94878 l -1.03941,1.03941 v 1.0394 l -0.90964995,0.90965 v 2.07867 H 1.8226978 v 0.90965 l 1.03941,1.03941 v 1.0394 h 1.0394 v 1.94878 l -2.07867,1.94878 v 1.0394 H 0.91318785 v 2.98819 H 1.8228378 l 1.0394,1.0394 h 5.97637 l 1.0394,0.90965 v 1.03941 h 0.9096602 v 1.94878 h 1.0394 v 1.0394 h 1.0394 l 0.90966,1.0394 h 1.0394 l 1.0394,1.03941 h 0.90965 v 0.90965 h 1.03941 l 2.98818,-2.98805 h 1.03941 l 1.0394,-1.0394 0.90965,-0.90965 h 2.98818 v 1.94878 l 2.98833,2.98804 v 4.02759 l 1.0394,1.0394 v 0.90966 h 1.94892 v 1.0394 l 2.07867,1.94878 v 1.0394 h 0.90965 l 1.0394,1.03941 h 2.98819 l 1.0394,-1.03941 h 3.8977 v 1.03941 h 2.0788 l 1.03941,-1.03941 h 1.94892 l 1.0394,-1.0394 h 1.94878 v 1.0394 h 1.94878 v 1.03941 l 1.0394,0.90965 h 1.03941 v 1.0394 h 0.90965 2.98818 l 1.0394,1.03941 v 0.90965 h 1.03941 v 1.0394 l 0.90965,1.03941 h 1.0394 l 1.03941,0.90965 h 0.90965 l 1.0394,1.0394 v 1.03941 h 1.03941 v 0.90965 l 1.94891,2.07867 h 1.03941 v 1.0394 h 1.94892 l 1.0394,0.90965 h 1.0394 1.94892 l 1.03941,-0.90965 h 3.89769 v 0.90965 l 1.03941,1.03941 v 1.0394 l 1.0394,0.90965 v 1.03941 1.94877 l 0.90965,1.03941 v 4.02745 l -0.90965,0.90965 v 2.07867 l 1.94878,1.94892 v 1.0394 h 1.0394 v 1.94878 l 0.90965,1.0394 h -0.90965 v 0.90965 l 0.90965,1.03941 v 2.07867 l -0.90965,0.90965 v 1.0394 h -1.0394 v 1.03941 l 1.0394,0.90965 -2.0788,2.07867 v 0.90965 l -0.90966,1.0394 v 1.94878 h -1.0394 v 1.03941 h -1.94892 l -1.0394,1.0394 h -1.94892 v 0.90965 l -1.0394,1.03941 v 1.94878 l 1.0394,1.0394 v 1.94878 h 0.90965 v 1.0394 l 2.07867,1.94878 v 1.03941 h 6.88588 l 1.03941,1.0394 h 1.0394 l 2.98818,2.98805 h 1.94878 l 2.07881,1.94878 h 6.885882 l 2.07867,1.0394 h 1.94878 l 1.94892,-1.94878 h 1.0394 l 1.03941,-2.07867 0.90965,-0.90965 h 1.0394 v -3.11807 l -1.0394,-0.90966 v -5.06685 l 1.0394,-0.90965 v -4.02745 l 1.94878,-1.94878 h 1.0394 l 1.94878,-2.07881 v -0.90965 l 2.07881,-2.07867 h 1.03941 l 1.94891,-1.94878 h 4.02759 l 2.98818,-2.98818 h 0.90965 l 1.03941,-1.03941 h 1.0394 l 0.90965,-1.94877 v -1.03941 h 1.03941 l 1.0394,-1.0394 h 2.98819 l 1.94877,-1.94878 h 1.03941 l 0.90965,-1.03941 h 1.0394 l 2.07867,2.07867 h 1.94878 l 1.03941,0.90966 h 1.94891 v 1.0394 h 4.02759 v 1.0394 l -1.0394,1.94878 h -1.03941 v 5.06672 l -0.90965,0.90965 0.90965,1.0394 h 2.07881 l 0.90965,-1.0394 h 2.07881 l 0.90965,1.0394 1.03941,-1.0394 h 1.94878 l 2.0788,-0.90965 v -1.03941 h 0.90965 l 2.07867,-1.0394 0.90966,1.0394 2.0788,-1.94877 1.03941,0.90965 h 3.89756 v -0.90965 l 4.02758,-4.02745 v -2.07867 l 1.03941,-0.90966 h 1.94892 v -1.0394 l 2.98818,-2.98818 v -4.02745 l -1.03941,-0.90965 v -1.03941 l 1.03941,-1.94878 v -2.98818 l -1.03941,-1.0394 v -1.03941 l 1.03941,-1.94878 v -1.0394 l 1.0394,-1.03941 v -0.90965 l 0.90965,-1.0394 v -4.02759 l 1.03941,-0.90965 v -1.0394 l 1.0394,-1.94878 v -1.03941 l 0.90965,-1.0394 v -0.90965 l 1.03941,-1.03941 h 4.02758 l 1.03941,1.03941 h 4.9371 l 1.0394,0.90965 h 0.90965 l 1.03941,1.0394 1.0394,-1.0394 v -1.94878 l 1.94878,-1.0394 -1.0394,-0.90965 h -0.90965 l -2.07881,-2.07868 v -4.93682 l 1.0394,-1.0394 v -5.97623 l -1.0394,-1.03941 v -0.90965 l -0.90965,-1.0394 -1.03941,1.0394 v -2.07867 l -1.94878,-1.94878 v -1.94878 l -2.0788,-2.0788 h -0.90966 v -0.90966 l -2.07867,-2.07867 h -1.0394 l -3.89756,-3.89755 h -1.0394 l -1.94892,-2.07867 h -1.0394 v -1.03941 l -1.03941,-0.90965 v -2.07881 h -0.90965 l -1.0394,-0.90965 h -1.03941 l -0.90965,-1.0394 v -1.03941 l -2.07867,-1.94878 v -1.0394 h -1.94892 l -1.0394,1.0394 h -0.90965 -1.0394 l -1.03941,-1.0394 h -0.90965 l -1.0394,-0.90965 h -2.07881 l -4.93696,-5.06685 v -0.90966 l -1.03941,-1.0394 v -4.02745 l 1.03941,-0.90965 v -11.04294 l 1.0394,-1.03941 v -1.94878 h -2.98818 l -2.07881,-1.94878 h -1.94878 l -1.94878,1.94878 -1.0394,-1.0394 v -0.90965 l -1.03941,-1.03941 v -1.94878 l -1.94878,-2.07867 h -1.94891 v -0.90965 l -2.07867,-1.0394 v -1.03941 h -0.90966 l -2.07867,-1.94877 v -2.07881 l -1.94891,-1.94878 v -1.94878 h -1.03941 l -1.94878,-1.03941 v -1.94877 h -1.0394 l -1.94878,-2.07867 v -0.90966 l 0.90965,-1.0394 v -1.0394 l -0.90965,-0.90965 v -2.07881 l 0.90965,-0.90965 v -1.03941 l -0.90965,-1.0394 v -0.90965 l -1.0394,-1.03941 h -1.94878 v -1.94878 h -1.03941 l -1.0394,-1.039395 v -2.07867 l 1.0394,-0.90965 h 1.03941 l 0.90965,0.90965 h 2.07881 v -3.89756 h -1.03941 l -1.0394,0.90965 h -0.90965 l -2.98819,-2.98804 h -1.0394 l -1.0394,-0.90965 h -0.90966 l -1.0394,-1.03941 h -1.0394 l -0.90966,-1.0394 h -2.0788 l -1.94878,-0.90965 h -1.03941 l -1.0394,-1.03941 h -0.90965 l -1.03941,-1.0394 h -1.0394 l -0.90965,-0.90965 h -1.03941 v -2.07867 l 1.03941,-0.90965 h -1.03941 l -1.0394,-1.03941 1.0394,-1.0394 v -0.90965 h -1.94891 l -1.03941,-1.03941 v -1.0394 l 1.03941,-0.90965 -1.03941,-1.03941 v -1.0394 l -1.0394,-1.03941 1.0394,-0.90965 1.03941,0.90965 0.90965,1.03941 1.0394,-1.03941 v -1.94877 h 2.98819 l 1.0394,-1.03941 h -1.0394 l -1.03941,-0.90965 h -0.90965 l -1.0394,-1.0394 h -1.03941 l -0.90965,-1.03941 0.90965,-0.90965 h 1.03941 v -1.0394 l 1.94878,-1.94878 v 0.90965 l 1.0394,1.0394 1.94878,-1.94878 1.0394,0.90965 h 1.03941 l 1.0394,-0.90965 h 0.90965 l 1.03941,-1.0394 -1.03941,-1.0394 h -0.90965 v -0.90966 h -2.07867 v -1.0394 h -1.94878 l -1.0394,-1.0394 -1.03941,1.0394 -1.94878,-1.94878 v -1.0394 h -1.0394 l -0.90965,1.0394 h -1.0394 l -1.03941,-1.0394 v -1.03941 l 1.03941,-0.90965 v -5.06685 l 1.0394,-1.03941 h 0.90965 l 1.0394,-0.90965 h 1.03941 l 0.90965,-1.0394 v -1.94878 l 1.0394,-1.0394 v -1.94878 h 1.03941 l -2.07881,-2.07867 1.0394,-0.90965 h 1.03941 l -1.03941,-1.03941 v -1.0394 l 1.94878,-1.94878 h 1.03941 v -2.98819 l 1.0394,-1.94877 v -1.03941 l -1.0394,-1.0394 h -1.03941 l -1.94878,-1.94878 h -1.0394 l -5.97637,-5.97623 h -0.90965 l -1.0394,-1.0394 h -1.03941 z"
       style="fill:#000000;fill-opacity:1;fill-rule:evenodd;stroke:#d38d5f;stroke-width:1.82609;stroke-linecap:butt;stroke-linejoin:miter;stroke-miterlimit:4;stroke-dasharray:none;stroke-opacity:1"
       id="Puren" />
  </g>
</svg>
