<?xml version="1.0" encoding="UTF-8" standalone="no"?>
<!-- Created with Inkscape (http://www.inkscape.org/) -->

<svg
   width="210mm"
   height="297mm"
   viewBox="0 0 210 297"
   version="1.1"
   id="svg1283"
   inkscape:version="1.1.2 (b8e25be833, 2022-02-05)"
   sodipodi:docname="vector.svg"
   xmlns:inkscape="http://www.inkscape.org/namespaces/inkscape"
   xmlns:sodipodi="http://sodipodi.sourceforge.net/DTD/sodipodi-0.dtd"
   xmlns="http://www.w3.org/2000/svg"
   xmlns:svg="http://www.w3.org/2000/svg">
  <sodipodi:namedview
     id="namedview1285"
     pagecolor="#ffffff"
     bordercolor="#666666"
     borderopacity="1.0"
     inkscape:pageshadow="2"
     inkscape:pageopacity="0.0"
     inkscape:pagecheckerboard="0"
     inkscape:document-units="mm"
     showgrid="false"
     inkscape:zoom="0.74029882"
     inkscape:cx="361.34057"
     inkscape:cy="561.93525"
     inkscape:window-width="1920"
     inkscape:window-height="1017"
     inkscape:window-x="-8"
     inkscape:window-y="-8"
     inkscape:window-maximized="1"
     inkscape:current-layer="layer1" />
  <defs
     id="defs1280" />
  <g
     inkscape:label="Capa 1"
     inkscape:groupmode="layer"
     id="layer1">
    <path
       d="m 63.206555,62.655225 c -3.21047,1.63463 -4.48739,2.51321 -5.43917,5.12749 -2.26076,1.96058 -3.08683,3.35199 -5.12767,4.34719 -2.16501,-2.44377 -5.69773,-0.92706 -8.07093,0 -1.71357,1.48231 -4.07988,2.82229 -6.909,3.96555 -2.76044,0.3325 -2.10809,3.89775 -6.15353,2.87717 -3.19751,0.21784 -6.84772,-0.76982 -9.37602,1.22843 -2.66225,0.665 -9.0397,-1.93683 -7.17544,2.70797 1.5968,8.49193 0.92345,17.129815 1.05416,25.715925 -2.01819,0.93361 -3.87976,2.02119 -4.03546,4.81596 -2.7581902,2.06836 -1.83681,5.82492 -4.8077202,6.65911 -1.30493,2.5825 -5.860055,0.42749 -6.070478,3.4976 0.969154,1.64562 4.057258,3.13235 4.035448,6.29664 2.05586,-2.06721 4.24192,1.77484 4.21091,3.72396 1.9306502,1.32344 4.8995802,2.19219 5.2636602,4.34719 0.46647,2.87373 5.7868,0.89431 7.07735,2.94317 4.47661,1.27266 3.64801,-2.75906 5.57513,-4.03533 3.09532,-3.06601 1.98488,2.84752 6.29665,1.4037 1.48297,1.24153 3.46858,-0.68957 5.67371,1.22843 3.54825,0.57655 6.0321,-0.11465 6.43271,-3.72396 2.43781,-0.91887 0.798,4.92865 3.1779,5.12765 1.40845,-3.10155 4.81557,-0.18836 5.98517,1.4037 2.29084,2.14714 0.10811,2.04166 1.53964,5.12765 -1.29084,1.78091 -1.85048,5.04757 0,6.66747 1.753,0.66827 3.38584,3.5718 6.76584,2.94317 0.69447,1.46102 3.50088,3.7749 5.34058,1.40369 4.05581,-0.89758 4.96469,1.35292 8.24642,1.22843 0.0983,-2.78036 5.47456,-1.95255 5.80968,-4.03565 2.32944,-1.27103 -0.54051,-5.51273 -2.54647,-6.03588 -4.45611,-3.52267 0.27354,-2.59987 0.77146,-3.12711 -0.45534,-2.4631 -2.77184,-3.06356 -4.03533,-4.71753 0.25552,-5.29079 -2.68127,2.01366 -3.62929,-2.98035 -1.56421,-1.88376 -1.19896,-6.49335 -4.85167,-5.94825 -2.80657,0.40457 -4.47659,1.94519 -8.40414,1.22844 -1.956,-1.13671 -5.55075,-0.63387 -6.64563,-2.6318 -4.44478,1.06628 -6.85995,-2.13093 -1.07054,-1.4037 1.31705,-3.50071 3.40267,1.21534 6.29675,0 2.82229,0.56836 6.38623,-1.33817 3.63601,-3.7903 1.48067,-2.08015 1.17602,-5.34877 2.38644,-7.14704 0.97784,-4.21517 -1.61007,-4.86248 -1.22844,-8.48096 1.85412,-3.41096 2.02332,-0.62241 4.03534,0.64534 -0.8206,4.0314 2.1722,4.24941 1.22843,8.40398 -0.6437,3.98406 2.49487,4.18536 1.40369,8.61707 2.08589,2.0926 3.28992,3.31006 5.1275,4.55979 0.0983,2.88339 2.44541,3.5071 3.48925,5.43919 1.00895,1.90702 2.6644,3.36542 3.48958,6.35576 2.60723,0.68957 2.22609,3.07945 4.03549,5.75056 0.72068,2.52288 1.84085,6.29041 5.53763,5.2636 3.83813,0.75836 4.22533,-1.36602 7.11477,-2.6318 1.15146,-0.49629 4.511965,-4.11591 4.892945,-1.40369 1.92242,-0.0491 4.62547,4.24498 5.43919,1.71522 2.51403,-0.45042 2.43574,-4.51704 2.1229,-5.16893 3.04292,0.69284 4.75192,-3.76982 5.94809,-2.66734 1.54783,1.55274 2.20135,3.99815 3.17788,6.12105 3.89185,0.0491 4.97058,1.32344 8.48096,0 -0.0655,-1.04171 -1.73799,-4.40141 -0.9549,-7.78092 -2.22904,-0.6699 -4.21076,-8.32028 -1.47413,-5.79887 2.47031,2.30176 2.36188,4.51573 4.28069,6.05504 1.1793,1.29887 2.74711,5.02562 1.63906,6.65616 1.8384,1.96485 1.15146,7.15524 0.44716,8.93974 -2.01775,0.53888 -2.56432,6.39786 -0.31285,2.80706 3.70742,-0.2375 2.9453,-5.45786 4.89311,-5.98494 -0.50611,-3.80635 1.52654,-4.2689 3.72036,-7.20994 -1.72358,-1.83757 -2.44508,-5.50962 -3.72036,-6.84632 -1.62809,-2.96462 -2.6888,-4.03811 -2.6318,-7.44793 -0.23258,-3.28156 0.8468,-7.1056 -1.40369,-9.5515 1.06628,-3.76819 -1.96092,-5.84048 -1.4037,-9.39754 0.45043,-3.12104 -0.94835,-7.00765 0.77146,-9.60244 1.14982,-2.06049 -1.56748,-3.79767 -2.00055,-5.75874 -0.3112,-3.464525 -3.01507,-4.434665 -3.35314,-6.978995 -1.38731,-0.9762 -2.62623,-3.61423 -4.71769,-4.58142 -1.13835,-1.91603 -3.54919,-2.55957 -5.67373,-3.48941 -1.06792,-1.20387 -4.78468,-1.95944 -5.20448,-4.0355 -3.65582,1.34146 -4.76699,-3.62994 -6.6673,-4.03549 -1.02697,-2.02365 -3.19327,-3.38344 -5.193985,-5.19383 -1.17438,-1.96484 -2.21249,-3.4483 -4.28052,-4.28085 -0.95163,-2.16549 -3.62193,-3.08682 -5.12766,-1.4037 -1.94585,-0.27025 -4.13426,4.85233 -6.73363,1.64889 -3.42603,-1.64659 -5.54582,1.97156 -8.96071,1.15965 -0.56508,-2.61821 -6.24963,-0.11466 -6.74412,-2.80739 -2.38283,-1.02206 -4.54406,-1.83086 -4.71768,-4.0355 z M 130.58121,163.71737 c -3.86253,-0.5356 0.55525,3.78113 0,0 z M 80.751905,147.57555 c -1.29231,3.20295 3.07846,-1.0499 0,0 z m -36.49461,-8.07082 c -0.53593,3.86253 3.78119,-0.55526 0,0 z m 114.572215,31.05536 c -0.41439,2.71812 -5.19366,1.07119 -4.03549,5.3622 -0.23914,3.57672 -0.17199,6.78195 2.6318,4.11248 -0.57982,-3.96801 0.94999,-4.7226 3.57966,-6.21146 3.67548,-3.15545 1.69311,-3.60882 -2.17597,-3.26322 z m -72.813835,2.63196 c 0.32103,3.31056 -0.13103,6.40392 -2.00055,8.84327 -1.9162,0.47663 -4.46283,-0.69448 -7.22894,-1.93094 -0.61422,1.20551 -5.33829,3.67876 -1.7185,6.35249 1.23663,1.02042 5.76219,3.30794 6.91249,0.55689 2.2143,-1.55438 4.25236,-1.31852 5.43903,1.09249 2.21823,0.3456 3.22816,2.61624 4.03549,5.26361 -3.75983,1.38076 -2.17679,3.52676 -0.63059,6.21146 1.16128,3.88727 2.41281,2.63541 3.80929,0.6306 2.39873,-1.13671 3.32907,-2.36777 5.03397,-5.58005 2.226745,-2.01742 5.052805,-2.88961 8.263275,-2.49094 3.30319,-0.19164 5.53911,1.36438 5.51667,4.39518 2.18252,2.19808 0.42913,6.18198 0.99257,9.11483 2.44901,2.34943 1.92242,3.85091 4.0355,6.6673 4.72047,0.48319 5.00972,-0.34232 5.19399,-2.56203 2.91221,-0.2293 4.55357,1.22025 6.05488,2.56203 2.24804,1.92734 3.53167,3.51185 7.54653,2.63197 3.79538,-0.42259 2.95316,2.71189 6.23947,3.52643 1.13836,1.91718 0.0491,8.59135 2.35582,4.54439 3.41571,1.18749 4.47675,-3.41096 7.45513,-0.0655 3.21294,-0.27517 6.07356,0.30137 8.52699,1.85969 2.4816,2.19759 6.59064,0.4668 9.7546,1.01714 3.83403,-0.63715 5.74188,0.65025 8.36074,1.22844 2.9584,0.19982 3.49465,2.8218 6.6673,2.80738 0.55525,2.90485 6.13907,-0.28827 8.0094,2.05002 2.47686,1.63464 5.39005,2.45605 8.7771,1.98531 3.60488,1.1187 7.14556,-0.92378 4.6959,-4.03533 -1.54128,-1.35128 -2.46785,-4.62285 -4.0355,-5.43919 -0.71085,-1.34636 -5.09113,-2.32108 -4.8931,-5.43902 -2.87307,-0.29482 -4.67232,-3.59277 -6.35577,-4.03566 -2.74318,-0.51758 -5.45557,-1.44136 -6.84255,-2.6318 -1.90637,-0.88447 -4.13656,-2.2939 -6.69564,-3.82683 -1.4774,-2.7951 -6.17133,-1.8587 -6.95049,-3.93247 -2.70125,-0.64861 -3.99176,-1.36438 -6.84288,-3.11875 -3.54494,-0.32103 -3.73215,-3.00197 -7.05335,-3.01802 -2.32978,-2.04052 -5.46065,-1.04827 -6.28108,-3.64928 -4.16112,1.00241 -3.93378,-2.38267 -8.07099,-1.40369 -0.89594,-1.93536 -4.21763,-3.23423 -5.84916,-4.0355 -1.92537,-1.26447 -2.8788,-2.44016 -5.61739,-4.49918 -1.99449,-2.11177 -3.70235,-1.40861 -6.07896,-3.57181 -3.25978,0.20474 -4.34277,-1.76583 -6.53119,-2.6318 -0.78784,-2.76824 -3.16592,-3.18722 -5.06623,-4.8574 -2.17892,-0.95326 -7.06368,-0.98275 -8.75531,-0.0328 -1.4037,1.97615 -6.456005,0.30466 -9.283375,0.85827 -2.79854,-1.25628 -5.90092,-1.78009 -9.37592,-1.40369 -0.50611,0 -1.01223,0 -1.51834,0 z"
       style="fill:#000000;fill-opacity:1;stroke:#d39062;stroke-width:2.15009;stroke-miterlimit:4;stroke-dasharray:none;stroke-opacity:1"
       id="Queilen" />
  </g>
</svg>
