<?xml version="1.0" encoding="UTF-8" standalone="no"?>
<!-- Created with Inkscape (http://www.inkscape.org/) -->

<svg
   width="210mm"
   height="297mm"
   viewBox="0 0 210 297"
   version="1.1"
   id="svg1283"
   inkscape:version="1.1.2 (b8e25be833, 2022-02-05)"
   sodipodi:docname="vector.svg"
   xmlns:inkscape="http://www.inkscape.org/namespaces/inkscape"
   xmlns:sodipodi="http://sodipodi.sourceforge.net/DTD/sodipodi-0.dtd"
   xmlns="http://www.w3.org/2000/svg"
   xmlns:svg="http://www.w3.org/2000/svg">
  <sodipodi:namedview
     id="namedview1285"
     pagecolor="#ffffff"
     bordercolor="#666666"
     borderopacity="1.0"
     inkscape:pageshadow="2"
     inkscape:pageopacity="0.0"
     inkscape:pagecheckerboard="0"
     inkscape:document-units="mm"
     showgrid="false"
     inkscape:zoom="0.52347032"
     inkscape:cx="155.69173"
     inkscape:cy="611.30496"
     inkscape:window-width="1920"
     inkscape:window-height="1017"
     inkscape:window-x="-8"
     inkscape:window-y="-8"
     inkscape:window-maximized="1"
     inkscape:current-layer="layer1" />
  <defs
     id="defs1280" />
  <g
     inkscape:label="Capa 1"
     inkscape:groupmode="layer"
     id="layer1">
    <path
       d="m 202.23025,88.515882 c -3.96845,0.79696 -8.13414,0.10381 -11.94437,0.81284 -2.04029,1.00839 -5.8649,0.14696 -8.5939,0.43337 -2.52906,-0.35645 -4.27437,0.91165 -6.0909,1.67983 -1.26866,1.01715 -3.15142,1.97106 -4.70268,3.25567 -1.49467,0.87994 -2.67096,2.36585 -4.39776,2.97601 -1.19718,1.51849 -3.57366,2.622618 -4.39506,4.172498 -1.91766,0.73242 -2.86482,2.22464 -4.75709,2.92617 -1.31518,1.3048 -3.63138,1.61786 -5.23448,2.49267 -2.91416,0.09 -5.22523,0.065 -7.54924,-0.867 -2.31882,-1.19799 -3.43683,0.63074 -5.46886,1.24634 -1.71485,1.60804 -3.04524,2.27529 -5.41377,2.49267 -1.43357,0.88438 -3.20896,1.73261 -4.92762,2.54682 -2.02897,1.02959 -3.41958,2.70592 -4.75709,4.55185 -1.15097,1.61729 -2.2197,3.77246 -3.56778,4.606 -0.95711,1.12226 -2.37423,3.20432 -3.98146,4.11834 -1.7715,0.99082 -3.52469,2.00077 -6.54791,1.67983 -2.59179,1.34277 -5.49407,-0.45025 -8.32481,0 -1.714043,-0.68295 -3.375303,-2.11564 -6.244493,-1.67983 -2.39474,-0.60347 -3.84676,1.99495 -4.68461,3.35966 -0.81584,2.17699 -2.23333,2.58667 -3.56778,4.17251 -1.84468,0.99631 -4.01254,0.98675 -5.99798,1.62567 -2.2566,1.64419 -3.62119,-1.58665 -6.25319,-0.81284 -1.57521,0.68364 -5.73458,1.07893 -6.3675,-1.18936 -1.74062,-1.29161 -4.1104,-0.075 -5.63189,-2.1703 -0.16948,-2.54651 -2.36923,-2.96475 -3.92712,-4.0685 -2.40618,-0.41149 -2.62393,-2.58566 -3.20845,-4.65584 -0.49403,-2.09807 -4.6362,-0.866 -4.70949,-4.1156 -0.0907,-2.64469 -2.90485,-3.23284 -5.14225,-2.19581 -1.56889,0.50529 -3.40418,1.45108 -5.24673,2.1389 -2.87377,-0.64899 -4.39807,1.63719 -5.1707,3.35967 -0.95204,2.0703 -1.72692,3.44815 -3.56778,4.1725 -1.05041,1.73374 -3.92912,1.16466 -5.94633,2.05917 -1.16335,1.86769 -2.20131,4.36424 -4.6382,4.1725 -2.12396,-0.1332 -3.67147,-2.53425 -6.30822,-2.11332 -2.33239,0.77913 -3.9647,-0.48466 -6.1169199,-0.81284 -2.01665,-1.49016 -3.6215,0.95829 -4.39507,2.49267 -0.82647,2.11064 -0.75461,4.66053 -1.60297,6.73202 -0.31518,2.73043 -0.75306,4.89004 -1.18924,7.16552 0.61472,2.42632 0.21199,4.33722 0.41336,7.10774 0.45276,2.89364 -1.12214001,5.59112 0,8.21492 -0.22451,2.88602 -0.60597,5.6072 -0.41336,8.9304 -0.0125,3.36361 -0.88244001,6.85722 0,10.13121 -0.71772001,2.57841 -1.45790001,4.08614 -1.18924001,7.30835 0.64036001,2.37842 2.95043001,2.18988 4.39506001,3.09583 1.57509,0.41148 4.93988,0.50028 4.41946,2.8465 0.004,2.50436 -0.45339,4.9592 -1.62724,6.31134 1.03878,2.30932 -2.36779,5.75146 -0.64806,5.85233 4.9730799,0 9.9461099,0 14.9191899,0 1.80259,-0.94272 5.01923,-1.29367 6.36,0 2.89708,-0.52404 4.10815,-0.42836 5.17069,2.05918 0.97124,2.08181 4.07939,1.67226 6.72189,1.67983 1.15697,-1.81829 -0.32206,-4.24004 2.37854,-4.606 1.04798,-0.72691 1.3272,-5.39019 3.20583,-3.739 1.64844,0.94285 4.55278,2.82335 5.94633,0.81283 1.74805,-0.72516 4.15586,-1.16066 6.35993,-1.62561 2.45703,0.18198 4.17181,-1.58572 6.72196,-1.24633 2.77964,-2.15304 4.79591,1.74468 3.20582,3.80579 -0.6605,3.01622 1.14021,5.47743 2.79215,2.85931 1.15022,-1.67695 3.24773,-2.53663 4.75709,-3.35966 2.27211,0.0657 4.09621,-1.22582 6.60301,-1.24633 2.13265,-0.70584 3.98414,-1.09763 6.11692,-1.24634 2.03222,-1.11951 5.37719,0.19386 6.72189,-1.24633 2.22758,-0.23201 2.45265,-3.84157 3.98146,-4.17251 1.955183,-0.43462 4.729133,-1.2372 3.154113,-3.80585 -0.52655,-2.48429 -0.88838,-5.84983 0.82734,-7.84466 0.92397,-1.32907 2.27474,-3.02497 2.37855,-5.41883 -1.56752,-1.84162 1.8563,-4.54634 2.79215,-2.49261 1.74643,1.59334 5.28645,-0.07 6.28389,2.46709 1.68615,1.57446 1.14053,3.91761 3.58948,4.96101 2.30094,0.9184 4.01254,-0.42774 6.30753,-0.32956 1.62174,-0.66869 3.11709,-1.85143 4.01223,-3.71349 0.1751,-2.11376 0.94998,-3.92749 1.62724,-5.87785 1.40411,-1.59828 3.10814,-2.66289 5.17069,-3.3055 1.67152,-1.30281 3.85832,-2.00133 5.53265,-2.49267 1.78427,-1.30262 3.35041,-2.58573 6.07052,-2.1134 2.35353,-0.232 3.39875,2.1568 3.85726,3.73901 1.91428,2.02065 3.28675,3.40081 3.56779,5.60676 0.19761,2.34127 2.07868,4.25792 4.22446,4.41814 2.84106,-0.43963 4.58111,0.85117 6.18071,1.62561 2.74832,1.52143 6.20741,1.8338 9.45032,1.67983 0.57908,-1.9346 1.90084,-4.58205 0.25702,-7.13769 -1.94204,-2.65839 -1.33413,-4.87578 0.78401,-7.0195 2.08169,-2.40749 2.53983,-5.10834 2.16499,-8.29497 0.3627,-2.97632 -4.14737,-3.69279 -0.32456,-5.99848 3.15479,-0.72667 6.24987,-1.09137 9.43375,-0.70271 2.69347,-0.39898 4.15811,-2.93336 6.41496,-4.34498 4.24242,-1.44326 5.56361,-6.69831 9.16691,-8.99938 1.80884,-2.05817 3.6357,-3.67565 6.28152,-4.53777 2.95712,-1.55069 0.17447,-5.01123 1.1893,-7.47801 0.986,-3.30832 -3.49537,-5.43103 -1.60291,-8.72434 -0.0188,-3.12384 0.38959,-6.35118 -1.18931,-9.15784 0.67107,-2.86407 0.46402,-5.78223 -0.71984,-8.552118 -1.99639,-3.52251 -2.39699,-7.60246 -3.6235,-11.4434 z"
       style="fill:#000000;fill-opacity:1;stroke:#d39062;stroke-width:0.827296;stroke-miterlimit:4;stroke-dasharray:none;stroke-opacity:1"
       id="Chile_Chico" />
  </g>
</svg>
