<?xml version="1.0" encoding="UTF-8" standalone="no"?>
<!-- Created with Inkscape (http://www.inkscape.org/) -->

<svg
   width="210mm"
   height="297mm"
   viewBox="0 0 210 297"
   version="1.1"
   id="svg64"
   inkscape:version="1.1.2 (b8e25be833, 2022-02-05)"
   sodipodi:docname="vector.svg"
   xmlns:inkscape="http://www.inkscape.org/namespaces/inkscape"
   xmlns:sodipodi="http://sodipodi.sourceforge.net/DTD/sodipodi-0.dtd"
   xmlns="http://www.w3.org/2000/svg"
   xmlns:svg="http://www.w3.org/2000/svg">
  <sodipodi:namedview
     id="namedview66"
     pagecolor="#ffffff"
     bordercolor="#666666"
     borderopacity="1.0"
     inkscape:pageshadow="2"
     inkscape:pageopacity="0.0"
     inkscape:pagecheckerboard="0"
     inkscape:document-units="mm"
     showgrid="false"
     inkscape:zoom="0.74029882"
     inkscape:cx="361.34057"
     inkscape:cy="453.87078"
     inkscape:window-width="1920"
     inkscape:window-height="1017"
     inkscape:window-x="-8"
     inkscape:window-y="-8"
     inkscape:window-maximized="1"
     inkscape:current-layer="layer1" />
  <defs
     id="defs61" />
  <g
     inkscape:label="Capa 1"
     inkscape:groupmode="layer"
     id="layer1">
    <path
       style="fill:#000000;fill-opacity:1;fill-rule:evenodd;stroke:#d39062;stroke-width:2.52312;stroke-linecap:butt;stroke-linejoin:miter;stroke-miterlimit:4;stroke-dasharray:none;stroke-opacity:1"
       d="m 1.2762773,108.10209 c 0.06866,0.5817 0.227534,0.99748 0.288184,1.58491 2.76604,2.96232 5.13044,5.95343 7.6364,8.64492 2.5059497,2.69149 5.1348497,5.05074 8.6449997,7.06002 0.77243,0.77243 -0.10681,1.57728 -1.44092,2.16128 -1.33335,0.58361 -3.11856,1.03181 -4.17841,1.29692 -1.38808,2.52956 -1.70468,5.02442 -1.44072,7.63637 0.26396,2.61196 1.12279,5.30803 2.01717,8.06875 -2.35765,2.33579 -3.5635997,4.52721 -4.0343597,6.91583 -0.4709,2.38881 -0.16211,4.92753 0.14304,8.21274 -0.72188,1.44378 -1.6715,2.29155 -2.30531,3.16983 -0.63377,0.87923 -1.02323,1.81378 -0.57637,3.60219 -0.52582,6.68906 -0.73962,11.86282 1.15274,18.58658 2.52905,3.67715 5.5507397,5.7013 8.9331797,6.77202 3.38237,1.06996 7.06274,1.10048 11.23844,1.00893 3.75167,1.00893 6.76594,2.05962 9.50946,2.59346 2.74359,0.53402 5.22653,0.6065 7.92456,-0.28799 3.18947,-1.28357 6.80997,-1.54677 10.37402,-1.29692 3.56386,0.24984 7.16682,1.02609 10.51802,1.8729 2.21602,5.34617 3.29475,10.27885 6.62784,15.12876 2.72544,1.87291 4.33838,3.39812 5.3311,5.04292 0.99176,1.64404 1.40563,3.39259 2.01709,5.61929 0.78197,2.91578 2.1342,5.1297 3.89019,7.06001 1.75656,1.93032 3.88408,3.60296 6.19565,5.33111 5.08412,-1.56775 9.72576,-4.31779 15.272759,-5.61929 3.14084,1.028 5.74364,1.41708 8.06856,1.29692 2.32511,-0.11443 4.38721,-0.67898 6.33965,-1.43996 3.90525,-1.52198 7.45862,-3.86902 12.5353,-4.89893 2.8456,-0.2117 4.82588,-1.6345 6.62784,-3.31382 1.80233,-1.68027 3.45114,-3.69012 5.76328,-5.18711 0.80676,-0.40433 5.04292,-7.97148 5.04292,-9.50947 0,-1.61161 -0.47872,-2.27419 -0.43104,-2.73746 0.0382,-0.46345 0.53212,-0.69804 2.59346,-1.72986 2.29097,2.10311 4.21766,3.27434 5.90747,3.89038 1.68981,0.61604 3.16334,0.72094 4.61055,0.28799 2.89461,-0.86588 5.72323,-3.47746 9.79766,-5.90728 2.46892,-3.42367 5.47453,-6.00092 8.78911,-8.35693 3.31459,-2.35582 6.84679,-4.44348 10.22984,-6.77183 2.14411,-2.208 4.10532,-4.40686 5.61929,-6.77183 1.51434,-2.36516 2.66479,-4.97903 3.45801,-7.92456 0.7133,-4.27945 1.41898,-5.07954 2.30527,-9.50947 0.45011,-2.25035 1.94977,-2.98826 2.88164,-3.89038 0.93264,-0.90212 1.20919,-1.89389 -0.72093,-4.46656 1.02037,-4.2455 2.53643,-8.09678 3.45801,-11.81475 0.92119,-3.71796 1.33315,-7.31138 0,-11.23857 -6.05014,-3.2505 -12.15367,-6.63317 -18.01041,-10.22984 0.46537,-4.85792 0.40815,-10.0784 0,-14.55239 -2.05352,-2.05371 -4.09598,-3.41681 -7.34819,-5.042924 -0.15258,-4.83523 -0.15258,-9.66167 -0.57599,-14.5524 0,-2.16776 -1.45903,-3.24916 -2.73745,-4.46655 -1.27785,-1.21682 -2.34495,-2.68367 -1.72987,-5.76328 0.5531,-2.76321 0.69424,-4.56287 0.72094,-6.48365 -1.28738,-0.88305 -2.55741,-1.89961 -4.03418,-2.88164 -1.0013,-0.66563 -2.04094,-1.17677 -3.16983,-1.29692 -1.12908,-0.11444 -2.31424,0.11443 -3.60219,1.00893 -4.35384,4.62638 -8.09469,10.83118 -12.8233,15.56113 -2.3644,2.36478 -5.08145,4.39617 -8.06875,5.61909 -2.98711,1.22254 -6.26679,1.56203 -10.22984,0.86398 -2.48417,3.53659 -5.44763,6.22789 -8.9331,7.78057 -3.48567,1.55249 -7.60758,2.03978 -12.24712,1.00892 -2.9812,-0.93454 -6.43273,-1.12336 -9.65367,-0.72093 -3.22074,0.40243 -6.160749,1.33888 -8.212549,2.59346 -3.08247,1.88625 -5.09995,4.478764 -7.2042,6.916014 -2.10425,2.43707 -4.26038,4.70935 -7.78057,6.05147 -3.29989,1.62878 -6.25573,1.80806 -8.9331,1.00893 -2.67719,-0.79913 -5.04254,-2.55379 -7.49239,-4.46656 -2.44965,-1.91276 -4.87489,-4.05363 -7.49219,-5.76328 -2.61749,-1.710794 -5.4648,-2.979484 -8.64492,-3.169824 -1.32362,-2.422 -3.08839,-4.19001 -5.04292,-5.33111 -1.95473,-1.14053 -4.08898,-1.57347 -6.33965,-1.58491 -2.25067,-0.0101 -4.55967,0.47299 -6.77189,1.43996 -2.21226,0.96697 -4.35611,2.38347 -6.1956,4.17856 -3.2093,-1.41326 -5.75083,-1.36176 -7.92454,-0.43294 -2.17377,0.93073 -3.98496,2.68386 -5.61923,4.610744 -1.63431,1.92669 -3.1637797,4.04391 -4.7547597,5.61929 -1.59101,1.57538 -3.28736,2.71724 -5.33108,2.59346 -0.164023,-0.0763 -0.271972,-0.20217 -0.431989,-0.288 z"
       id="Quinta_de_Tilcoco"
       inkscape:label="#path2142" />
  </g>
</svg>
