<?xml version="1.0" encoding="UTF-8" standalone="no"?>
<!-- Created with Inkscape (http://www.inkscape.org/) -->

<svg
   width="210mm"
   height="297mm"
   viewBox="0 0 210 297"
   version="1.1"
   id="svg64"
   inkscape:version="1.1.2 (b8e25be833, 2022-02-05)"
   sodipodi:docname="vector.svg"
   xmlns:inkscape="http://www.inkscape.org/namespaces/inkscape"
   xmlns:sodipodi="http://sodipodi.sourceforge.net/DTD/sodipodi-0.dtd"
   xmlns="http://www.w3.org/2000/svg"
   xmlns:svg="http://www.w3.org/2000/svg">
  <sodipodi:namedview
     id="namedview66"
     pagecolor="#ffffff"
     bordercolor="#666666"
     borderopacity="1.0"
     inkscape:pageshadow="2"
     inkscape:pageopacity="0.0"
     inkscape:pagecheckerboard="0"
     inkscape:document-units="mm"
     showgrid="false"
     inkscape:zoom="0.74029882"
     inkscape:cx="361.34057"
     inkscape:cy="561.93525"
     inkscape:window-width="1920"
     inkscape:window-height="1017"
     inkscape:window-x="-8"
     inkscape:window-y="-8"
     inkscape:window-maximized="1"
     inkscape:current-layer="layer1" />
  <defs
     id="defs61" />
  <g
     inkscape:label="Capa 1"
     inkscape:groupmode="layer"
     id="layer1">
    <path
       style="fill:#000000;fill-opacity:1;fill-rule:evenodd;stroke:#d39062;stroke-width:1.60199;stroke-linecap:butt;stroke-linejoin:miter;stroke-miterlimit:4;stroke-dasharray:none;stroke-opacity:1"
       d="m 105.78846,248.74992 c 0.26247,-0.032 0.43341,-0.17414 0.70084,-0.1997 4.99316,-0.47766 10.86636,-0.14377 15.11883,-1.20134 3.3677,-0.84191 4.64453,-2.02999 5.00623,-3.20386 0.36168,-1.17419 -0.28516,-2.3602 -0.801,-3.50436 -0.51585,-1.14384 -0.93536,-2.25093 -0.20018,-3.00385 0.73519,-0.75244 2.69393,-1.20135 6.80848,-1.20135 1.60323,0 2.63129,-0.91219 3.30412,-2.30284 0.67288,-1.38986 0.9237,-3.18166 1.00118,-5.10637 0.15496,-3.84942 -0.48613,-7.9519 -0.70084,-8.81089 -0.58262,-2.33065 -1.221,-4.2814 -1.40168,-6.90871 -0.18068,-2.62715 0.0959,-5.89012 1.40168,-11.11374 2.32133,-9.28536 4.80858,-13.92765 7.20898,-23.52932 1.90159,-7.60635 3.14093,-8.9593 5.40673,-18.02245 1.58061,-6.32241 2.11019,-11.33165 4.005,-14.71826 0.94733,-1.69339 2.26278,-3.03005 4.20522,-3.90486 1.94246,-0.87545 4.46149,-1.30199 8.00999,-1.30199 5.45068,0 10.42423,-0.59748 15.81968,-0.90102 5.39546,-0.30353 11.23586,-0.31311 18.52307,0.90102 0.53262,0.0958 0.94926,-0.93297 1.30168,-2.60319 0.35241,-1.67118 0.65163,-3.95199 0.90117,-6.40804 0.49907,-4.91226 0.85068,-10.41146 1.40167,-12.61575 0.95645,-3.82594 2.09231,-6.74703 3.10387,-8.91105 1.01156,-2.16403 1.89583,-3.60197 2.50312,-4.70587 0.60722,-1.1039 0.95724,-1.85729 0.70084,-2.50318 -0.25625,-0.6454 -1.12403,-1.21253 -2.70337,-2.00251 -2.18685,-1.092725 -7.44776,-4.189225 -13.61695,-7.509225 -0.26631,-0.14378 -0.53166,-0.2572 -0.80101,-0.40098 -0.82848,0.33548 -1.61904,0.70132 -3.90486,0.70132 -4.36659,0 -8.57509,-0.74605 -12.61571,-1.50169 -4.0406,-0.75563 -7.87172,-1.50168 -11.51432,-1.50168 -3.44575,0 -9.83177,1.27483 -15.91984,1.70201 -3.04404,0.21407 -5.98982,0.24283 -8.51059,-0.19969 -2.52077,-0.44411 -4.59897,-1.39305 -5.80724,-3.00385 -0.75228,-1.00325 -2.90806,-5.18448 -5.10635,-9.31156 -2.19829,-4.12692 -4.47725,-8.19312 -5.50686,-8.81089 -3.35317,-2.01194 -6.58414,-3.17479 -10.21272,-3.80486 -3.62858,-0.62942 -7.62207,-0.70131 -12.41546,-0.70131 -7.553622,0 -15.074552,0 -22.628172,0 -6.07357,0 -9.92119,-0.778 -13.316582,-2.10252 -3.395404,-1.32436 -6.397191,-3.24875 -10.913587,-5.50687 -0.617288,-0.30832 -4.18013,-3.26345 -7.909851,-6.20771 -3.729737,-2.94442 -7.628956,-5.80736 -8.710856,-5.80736 -0.790141,0 -6.729814,1.31157 -12.715832,3.10385 -2.993,0.89622 -5.93718,1.87615 -8.310337,2.90368 -2.373173,1.02722 -4.131677,2.05555 -4.605746,3.00369 -1.8776009,3.75533 -3.3504649,6.10946 -3.8047409,8.61072 -0.22717,1.25088 -0.256245,2.5829 0.100645,4.10519 0.35657,1.52246 1.110767,3.22271 2.202747,5.40671 0.1925029,0.385 4.4202559,5.50607 8.4104709,10.8134 1.995116,2.65367 3.918342,5.34712 5.206484,7.50938 1.288093,2.16243 2.024973,3.88234 1.501844,4.40553 -2.591444,2.59152 -6.201669,12.608085 -10.613218,18.122615 -2.127184,2.65894 -4.3903189,5.94428 -6.3078419,9.41173 -1.917523,3.46729 -3.527632,7.10169 -4.305361,10.21273 -0.905963,3.62401 -2.042131,6.50517 -2.60325,9.31156 -0.28068705,1.40264 -0.45401905,2.76438 -0.30017705,4.2052 0.15336405,1.44098 0.58182305,2.96599 1.40167905,4.6057 2.198162,4.39642 3.586645,6.75135 4.10511,9.31156 0.13579,0.67096 -0.314236,1.96864 -0.300177,2.70351 1.39433,0.15975 2.873553,0.14378 4.2052269,0.40098 2.983911,0.57831 5.746451,1.42181 8.310354,2.70335 0.95309,0.47607 2.46396,0.51122 4.205243,0.30034 1.741267,-0.21087 3.692051,-0.65179 5.60697,-1.1007 3.829886,-0.89942 7.47302,-1.83861 8.310353,-1.00166 0.829441,0.82912 1.506957,2.56772 2.102614,4.80603 0.595562,2.23831 1.09591,4.97649 1.601994,7.60939 0.50594,2.63306 0.941268,5.19567 1.501844,7.20904 0.560575,2.01338 1.243363,3.42512 2.002496,3.80469 3.348708,1.67438 6.936664,3.92084 9.712096,7.10888 1.38762,1.59434 2.572737,3.49557 3.404238,5.60704 0.831518,2.1113 1.301673,4.48764 1.301673,7.20888 0,3.37352 0.393154,6.3443 0.901171,9.01122 0.508016,2.66709 1.124825,4.97985 1.802245,7.20905 1.354711,4.45856 2.703399,8.29601 2.703367,12.61574 0,3.47624 -0.127803,5.89092 -0.100645,7.50938 0.02876,1.61831 0.246021,2.43785 0.90117,2.70336 1.30998,0.53038 4.510517,-1.15183 11.914827,-3.00385 5.78292,-1.44577 12.28097,-3.66475 17.72208,-4.2052 2.72057,-0.26998 5.17607,-0.0958 7.108852,0.80037 0.96635,0.4521 1.82146,1.13904 2.50311,2.00251 0.68167,0.86267 1.16349,1.95059 1.50185,3.30403 0.14058,0.56073 0.33804,0.89621 0.50067,1.40104 z"
       id="Villa_Alegre"
       inkscape:label="#path2866" />
  </g>
</svg>
