<?xml version="1.0" encoding="UTF-8" standalone="no"?>
<!-- Created with Inkscape (http://www.inkscape.org/) -->

<svg
   width="210mm"
   height="297mm"
   viewBox="0 0 210 297"
   version="1.1"
   id="svg57"
   inkscape:version="1.1.2 (b8e25be833, 2022-02-05)"
   sodipodi:docname="vector.svg"
   xmlns:inkscape="http://www.inkscape.org/namespaces/inkscape"
   xmlns:sodipodi="http://sodipodi.sourceforge.net/DTD/sodipodi-0.dtd"
   xmlns="http://www.w3.org/2000/svg"
   xmlns:svg="http://www.w3.org/2000/svg">
  <sodipodi:namedview
     id="namedview59"
     pagecolor="#ffffff"
     bordercolor="#666666"
     borderopacity="1.0"
     inkscape:pageshadow="2"
     inkscape:pageopacity="0.0"
     inkscape:pagecheckerboard="0"
     inkscape:document-units="mm"
     showgrid="false"
     inkscape:zoom="0.74029882"
     inkscape:cx="361.34057"
     inkscape:cy="453.87078"
     inkscape:window-width="1920"
     inkscape:window-height="1017"
     inkscape:window-x="-8"
     inkscape:window-y="-8"
     inkscape:window-maximized="1"
     inkscape:current-layer="layer1" />
  <defs
     id="defs54" />
  <g
     inkscape:label="Capa 1"
     inkscape:groupmode="layer"
     id="layer1">
    <path
       inkscape:connector-curvature="0"
       id="Santa_Barbara"
       style="fill:#000000;fill-opacity:1;fill-rule:evenodd;stroke:#d39062;stroke-width:0.353628;stroke-linecap:butt;stroke-linejoin:miter;stroke-miterlimit:4;stroke-dasharray:none;stroke-opacity:1"
       d="m 186.50709,91.125187 c -0.37511,0.011 -0.68797,0.0523 -0.9062,0.13263 -0.21812,0.0804 -0.35366,0.20715 -0.35366,0.37573 0,0.60471 -0.0292,1.09937 -0.13263,1.50294 -0.10413,0.40354 -0.27658,0.72685 -0.55253,0.92827 -0.27621,0.20131 -0.65567,0.289 -1.17141,0.28717 -0.51574,-0.001 -1.16586,-0.1034 -1.98916,-0.30946 -0.3175,-0.0793 -0.48739,-0.17793 -0.75147,-0.26525 -0.0976,0.46623 -0.26818,1.06144 -0.33138,1.5029 -0.15601,1.08932 -0.22105,2.20801 -0.22105,3.88994 0,0.63244 -0.12824,1.292163 -0.30945,1.967063 -0.18122,0.67489 -0.41998,1.36673 -0.64095,2.03336 -0.22104,0.66664 -0.4114,1.31522 -0.53047,1.92285 -0.1191,0.60763 -0.16879,1.18182 -0.0442,1.67974 0.23895,0.95639 0.22982,2.0482 0.22105,3.05005 -0.007,1.00185 -0.0146,1.91469 0.28717,2.51958 0.36729,0.73459 0.60043,2.21492 0.75147,3.53631 0.15089,1.32139 0.22396,2.46475 0.26525,2.51959 0.52853,0.70474 1.30152,1.77177 1.74605,2.76273 0.22214,0.49546 0.36769,0.991 0.35367,1.39242 -0.0146,0.40142 -0.18086,0.70919 -0.57468,0.90616 -0.74445,0.37226 -1.59808,1.26261 -2.40906,2.05547 -0.40551,0.39645 -0.80737,0.76473 -1.17142,1.03879 -0.36389,0.27402 -0.68859,0.46415 -0.97247,0.46415 -1.35745,0 -2.79167,-0.0796 -4.17726,-0.30946 -1.38555,-0.22981 -2.73387,-0.61548 -3.93411,-1.21562 -0.8355,-0.41775 -2.35831,-0.82841 -3.80152,-1.37031 -0.72158,-0.2711 -1.43242,-0.57146 -2.01126,-0.92827 -0.5788,-0.35696 -1.02015,-0.75845 -1.25979,-1.23769 -0.38827,-0.77657 -0.72151,-1.4249 -1.03879,-1.92288 -0.31713,-0.49795 -0.62082,-0.84654 -0.97248,-1.06086 -0.35147,-0.21446 -0.74631,-0.29557 -1.23768,-0.22104 -0.49138,0.0745 -1.07591,0.29484 -1.81237,0.66305 -0.68753,0.34381 -1.23166,0.45042 -1.70184,0.41995 -0.47014,-0.0292 -0.87379,-0.18524 -1.304,-0.39784 -0.43017,-0.21264 -0.89111,-0.48279 -1.45869,-0.68516 -0.56759,-0.20241 -1.23941,-0.35367 -2.12179,-0.35367 -1.43184,0 -3.33335,0.19109 -5.19394,0.22104 -0.93027,0.0146 -1.85364,-0.004 -2.69638,-0.11033 -0.84277,-0.10596 -1.60688,-0.28389 -2.2323,-0.59674 -1.04288,-0.52144 -1.77061,-0.77142 -2.32069,-0.83989 -0.55008,-0.0683 -0.92991,0.0387 -1.2819,0.24333 -0.35184,0.20423 -0.67865,0.49842 -1.1272,0.79564 -0.44855,0.2974 -1.01672,0.58571 -1.85654,0.79568 -1.4774,0.36934 -2.16789,0.78051 -3.02794,0.95037 -0.43003,0.0848 -0.91007,0.10522 -1.54715,0.0442 -0.63704,-0.061 -1.43462,-0.21483 -2.51959,-0.48626 -1.25482,-0.31384 -2.86331,-0.52374 -4.30984,-0.92827 -0.72326,-0.2024 -1.4215,-0.45626 -1.98916,-0.79567 -0.56769,-0.33942 -1.0055,-0.75118 -1.2819,-1.30401 -0.52706,-1.05409 -1.35394,-2.17344 -2.38699,-3.16053 -0.51655,-0.49356 -1.08194,-0.95987 -1.70185,-1.37031 -0.6199,-0.41045 -1.28131,-0.75564 -1.98915,-1.03879 -1.17522,-0.47007 -2.28481,-0.84292 -3.4921,-1.1051 -1.20729,-0.26197 -2.52149,-0.41995 -4.11095,-0.41991 -0.77912,0 -1.47882,-0.10084 -2.14385,-0.24333 -0.66502,-0.14249 -1.30071,-0.31859 -1.90078,-0.50832 -0.60002,-0.18999 -1.1618,-0.38809 -1.74601,-0.53047 -0.58424,-0.14249 -1.17276,-0.24296 -1.79026,-0.24296 -1.48,0 -2.42041,-0.15418 -3.27106,-0.17683 -0.42532,-0.011 -0.83183,0.007 -1.2819,0.11033 -0.45007,0.1034 -0.92882,0.27658 -1.52503,0.57468 -0.49199,0.24588 -1.12269,0.27219 -1.79024,0.19875 -0.66755,-0.0731 -1.36706,-0.24406 -2.03337,-0.37573 -0.6663,-0.13153 -1.30198,-0.22543 -1.79024,-0.15455 -0.24414,0.0365 -0.45239,0.10851 -0.61885,0.24296 -0.16646,0.13482 -0.28692,0.32992 -0.35363,0.59674 -0.0768,0.30727 -0.37205,0.73061 -0.77356,1.19349 -0.40151,0.46291 -0.91511,0.9614 -1.45872,1.43662 -1.08722,0.95048 -2.26903,1.78288 -2.82903,1.92285 -1.83888,0.45973 -2.58309,0.67346 -2.93954,1.03879 -0.17822,0.18268 -0.26046,0.41176 -0.33152,0.72936 -0.0711,0.3175 -0.12569,0.7237 -0.26522,1.2819 -0.2829,1.13155 -0.72207,2.02321 -1.304,2.76273 -0.58194,0.73952 -1.32128,1.3237 -2.25439,1.79026 -0.31333,0.15674 -1.73324,0.75677 -3.31527,1.14927 -0.79102,0.1962 -1.61266,0.35002 -2.36489,0.35367 -0.75223,0.004 -1.4246,-0.12897 -1.90075,-0.48622 -0.36266,-0.27183 -0.86927,-0.49239 -1.45872,-0.68516 -0.58945,-0.19291 -1.26409,-0.35513 -1.94496,-0.55257 -0.68087,-0.19729 -1.37433,-0.42166 -2.01126,-0.70722 -0.63693,-0.28571 -1.22211,-0.64749 -1.67974,-1.1051 -1.01592,-1.01592 -1.75855,-1.54287 -2.32069,-1.74605 -0.28107,-0.10157 -0.52172,-0.10413 -0.72935,-0.0661 -0.20764,0.0376 -0.36956,0.1308 -0.53045,0.26525 -0.32177,0.26927 -0.58922,0.68198 -0.88407,1.083 -0.29484,0.40105 -0.62374,0.77993 -1.10509,0.97247 -1.94746,0.77898 -4.42401,2.22306 -6.07799,3.05005 -0.9624,0.48122 -2.05672,0.8001 -3.31527,0.90617 -0.62928,0.053 -1.29999,0.0431 -2.01126,-0.0219 -0.71128,-0.065 -1.45581,-0.1761 -2.25439,-0.37573 -0.83053,-0.20752 -1.47978,-0.23529 -1.98916,-0.11034 -0.50937,0.12495 -0.88718,0.39451 -1.2156,0.72937 -0.65682,0.66966 -1.08241,1.63494 -1.85655,2.4091 -0.68713,0.68713 -1.17457,1.12117 -1.56922,1.39238 -0.39466,0.2711 -0.71626,0.37979 -1.06089,0.39784 -0.68924,0.0365 -1.50411,-0.26525 -3.44788,-0.26525 -0.66055,0 -1.232947,0.0691 -1.746039,0.22104 -0.513095,0.15199 -0.967725,0.38966 -1.392415,0.66305 -0.849378,0.54687 -1.581064,1.29378 -2.431195,2.14389 -0.510059,0.51008 -1.205494,1.53444 -2.055468,2.3649 -0.424988,0.41523 -0.889447,0.79114 -1.392411,1.01668 -0.502967,0.22543 -1.037158,0.29886 -1.613431,0.15455 -0.978208,-0.24443 -1.718691,-0.23237 -2.276484,-0.0884 -0.557793,0.14395 -0.929626,0.43719 -1.2377,0.75143 -0.308071,0.31421 -0.544505,0.66203 -0.773563,0.92831 -0.229043,0.26634 -0.452815,0.44204 -0.773563,0.44201 -2.007591,0 -4.0262047,3e-5 -6.0337887,0 -0.426907,0.74211 -0.806274,1.52325 -1.060885,2.54172 -0.198572,0.79426 -0.09989,2.11766 -0.06628,3.46996 0.01681,0.67617 0.01352,1.36597 -0.04421,1.9892 -0.05784,0.62323 -0.176834,1.17141 -0.397832,1.61342 -0.255897,0.51176 -0.393298,1.00865 -0.464137,1.4808 -0.07084,0.47219 -0.06456,0.92205 -0.04421,1.34821 0.04074,0.85231 0.157433,1.6025 0,2.2323 -0.295685,1.18274 -0.763231,1.91547 -1.237704,2.67432 -0.237227,0.37939 -0.462398,0.75169 -0.685154,1.21558 -0.222759,0.4639 -0.427911,1.00438 -0.596747,1.67974 -0.22455,0.89816 -0.60929102,2.24754 -0.92827802,3.5142 -0.13785,0.54731 -0.162585,0.84614 -0.265214,1.32611 0.82716902,0.14943 1.58276702,0.22104 2.18807802,0.22104 0.521221,0 0.85943,0.0986 1.281905,0.15455 0.169125,-0.29667 0.320274,-0.60566 0.552543,-0.86196 0.351877,-0.38826 0.794688,-0.71814 1.32611,-0.95037 0.531418,-0.23236 1.148055,-0.35366 1.900753,-0.35366 1.010311,0 1.753666,-0.0398 2.320689,-0.13263 0.5670217,-0.0928 0.9760697,-0.24114 1.3040047,-0.44201 0.655866,-0.40168 1.020275,-1.04237 1.944958,-1.96709 0.353119,-0.3533 0.879056,-0.52367 1.48082,-0.57464 0.601761,-0.0511 1.294619,0.0292 1.989159,0.15455 1.389083,0.25137 2.799736,0.72202 3.624694,0.92827 2.981466,0.74533 6.034816,1.5208 8.597595,2.03336 0.72502,0.14505 1.26653,0.49605 1.70184,0.95037 0.43531,0.45433 0.7652,1.01384 1.12719,1.54712 0.362,0.53331 0.75474,1.03268 1.2598,1.41452 0.25254,0.19108 0.5331,0.3544 0.86197,0.46415 0.32886,0.10997 0.69492,0.17683 1.12719,0.17683 2.32258,4e-5 5.08985,0.50836 7.60302,0.50836 1.6981,0 3.1506,0.0515 4.39825,0.33138 0.62384,0.13994 1.19251,0.34417 1.72395,0.61885 0.53143,0.27475 1.0283,0.60836 1.48082,1.06089 0.51309,0.51307 0.97668,0.97664 1.43661,1.32611 0.45993,0.34964 0.90386,0.58548 1.37031,0.68515 0.46645,0.0998 0.94815,0.0596 1.48082,-0.17683 0.53268,-0.23639 1.10955,-0.66751 1.76815,-1.32611 0.58565,-0.58563 1.07099,-1.00864 1.50292,-1.304 0.43193,-0.29521 0.82266,-0.4621 1.2377,-0.46411 0.41503,-0.002 0.85745,0.1476 1.39241,0.44201 0.53496,0.29448 1.15324,0.73232 1.94496,1.3261 0.91984,0.68991 1.75247,1.58062 2.69642,2.54173 0.94394,0.96108 2.00219,1.9934 3.38157,3.02795 1.14885,0.86162 2.00113,1.5721 2.96164,2.21016 0.96051,0.63806 2.0343,1.22041 3.6247,1.85657 0.26638,0.10669 0.52773,0.13701 0.77356,0.11034 0.24581,-0.0256 0.47646,-0.11326 0.70726,-0.24296 0.46158,-0.25941 0.89151,-0.69813 1.3261,-1.19352 0.4346,-0.49535 0.8743,-1.05271 1.32611,-1.54711 0.45181,-0.4944 0.92338,-0.93689 1.43662,-1.19348 0.46424,-0.232 1.10727,-0.33211 1.83444,-0.37574 0.72718,-0.0435 1.53854,-0.0146 2.36489,0.0442 1.65272,0.11619 3.33133,0.33138 4.39826,0.33138 0.67185,0 1.2123,0.21776 1.63553,0.55253 0.42324,0.33467 0.72545,0.78308 0.97248,1.30401 0.49408,1.04185 0.72663,2.30972 0.95038,3.20478 0.21929,0.87711 0.5422,1.56179 0.95038,2.09964 0.40818,0.53784 0.89404,0.92728 1.43661,1.25983 1.08516,0.66506 2.37309,1.05391 3.6689,1.7018 0.45787,0.22908 0.90646,0.5925 1.32611,1.01669 0.41965,0.42421 0.8131,0.91361 1.19351,1.41452 0.76079,1.00181 1.45811,2.03278 2.05544,2.63011 1.03999,1.04003 1.72102,1.52701 2.56383,1.94498 0.84277,0.41794 1.82818,0.78147 3.49206,1.61343 2.02226,1.01113 3.14231,1.5904 3.88994,1.87864 0.7476,0.28826 1.12362,0.27182 1.67974,0.13262 0.85022,-0.21264 1.59201,-0.32188 2.23226,-0.35367 0.64026,-0.0329 1.17858,0.0146 1.67974,0.17684 0.50116,0.16112 0.95943,0.43046 1.39242,0.79567 0.43299,0.36536 0.84617,0.83353 1.2819,1.41453 0.3237,0.43145 0.59232,0.93886 0.81778,1.5029 0.22542,0.56408 0.41925,1.17931 0.59674,1.81236 0.35513,1.26608 0.66305,2.61911 1.12717,3.77942 0.18779,0.46989 0.51877,0.85351 0.9283,1.21558 0.40953,0.36207 0.88684,0.70606 1.39242,1.0609 0.47624,0.3343 0.96129,0.6914 1.41448,1.10506 0.18816,-0.11984 0.36547,-0.14797 0.55257,-0.28717 1.2709,-0.9473 2.44714,-2.24824 2.7848,-2.5859 0.38783,-0.38779 0.59035,-0.87409 0.66306,-1.39242 0.0727,-0.5183 0.0292,-1.06904 -0.0661,-1.65763 -0.19401,-1.17719 -0.59678,-2.43939 -0.59678,-3.53627 4e-5,-1.73458 -0.11655,-2.50519 -0.24296,-3.33737 -0.12642,-0.83222 -0.26525,-1.73319 -0.26525,-3.75731 0,-0.80661 0.15418,-1.31 0.39783,-1.59132 0.24333,-0.28133 0.57844,-0.34381 0.95038,-0.22105 0.37193,0.12277 0.78588,0.43383 1.17137,0.83989 0.38549,0.40602 0.75472,0.91263 1.03879,1.4808 0.23712,0.47442 0.65224,0.80744 1.19352,1.03879 0.54124,0.23127 1.20824,0.3708 1.90074,0.44205 1.385,0.14249 2.90529,0.0442 3.97832,0.0442 0.54266,0 1.06363,-0.15856 1.54714,-0.39784 0.48348,-0.23931 0.94745,-0.55962 1.37028,-0.92826 0.84573,-0.73737 1.57163,-1.63794 2.16599,-2.23231 0.4806,-0.48059 0.84862,-0.88212 1.12721,-1.25979 0.2784,-0.37764 0.44921,-0.71998 0.53043,-1.083 0.0811,-0.3628 0.0672,-0.73473 -0.0442,-1.17137 -0.11144,-0.43668 -0.31969,-0.94851 -0.61885,-1.54715 -0.32882,-0.65765 -0.83575,-1.55953 -1.25979,-2.608 -0.21191,-0.52422 -0.39199,-1.07617 -0.53046,-1.65764 -0.13847,-0.58147 -0.22105,-1.17846 -0.22105,-1.79022 0,-0.30946 0.77478,-1.37258 1.61343,-2.387 0.83864,-1.01445 1.7337,-1.99891 1.92284,-2.18809 0.52309,-0.52305 0.91475,-0.98797 1.19352,-1.43663 0.27877,-0.44862 0.44395,-0.87587 0.50833,-1.304 0.0643,-0.42813 0.0329,-0.86459 -0.0884,-1.32611 -0.11984,-0.46152 -0.32225,-0.95406 -0.59678,-1.5029 -0.22323,-0.44654 -0.21921,-0.86115 -0.0661,-1.2819 0.15272,-0.42078 0.45111,-0.84865 0.83985,-1.25983 0.77749,-0.82227 1.8824,-1.63925 2.76273,-2.51958 0.17866,-0.17866 0.38648,-0.28608 0.59674,-0.33138 0.21045,-0.0453 0.42484,-0.0146 0.66306,0.0442 0.47646,0.11838 1.00199,0.40928 1.56921,0.77354 0.56722,0.36426 1.18256,0.79126 1.81237,1.17142 0.6298,0.38015 1.28076,0.718 1.94495,0.88405 0.85293,0.21337 1.60465,0.24699 2.27647,0.15455 0.67186,-0.0921 1.26491,-0.31092 1.79026,-0.59674 1.05073,-0.57131 1.84703,-1.42713 2.51962,-2.09968 0.30289,-0.30288 0.56276,-0.69283 0.79564,-1.14931 0.23274,-0.45644 0.42715,-0.98048 0.61885,-1.5029 0.38344,-1.04489 0.71336,-2.13399 1.1051,-2.91743 0.66039,-1.32081 0.90908,-2.32357 1.43663,-3.00588 0.26379,-0.34124 0.59159,-0.60024 1.08299,-0.77353 0.49137,-0.17318 1.14051,-0.26525 2.03333,-0.26525 0.5518,0 0.97741,-0.0522 1.28194,-0.15455 0.30434,-0.1023 0.50646,-0.25758 0.64095,-0.41994 0.2689,-0.32481 0.25721,-0.7282 0.30945,-1.03879 0.0256,-0.15528 0.0669,-0.28754 0.15455,-0.3757 0.0877,-0.0881 0.23748,-0.13189 0.46415,-0.11034 0.45323,0.0431 1.24646,0.34709 2.71853,1.083 0.56561,0.28279 1.11847,0.32517 1.61342,0.19875 0.49495,-0.12641 0.95066,-0.40434 1.34821,-0.79568 0.39755,-0.39129 0.72126,-0.88003 0.99458,-1.39238 0.27329,-0.51238 0.49649,-1.05771 0.61885,-1.54714 0.0661,-0.26489 0.18706,-0.47676 0.35366,-0.66306 0.16661,-0.18633 0.37424,-0.34343 0.61885,-0.46411 0.48925,-0.24187 1.10064,-0.36244 1.76815,-0.41995 1.33498,-0.11508 2.84702,0.0219 3.82363,0.0219 1.78744,0 2.36449,-0.21484 2.96163,-0.19913 0.59714,0.0146 1.21734,0.26599 3.11633,1.21563 0.22506,0.11253 1.71342,-0.32115 3.22688,-0.81779 1.51346,-0.49663 3.05725,-1.04236 3.35947,-1.19348 0.2627,-0.13153 0.41173,-0.31603 0.48622,-0.50836 0.0745,-0.19218 0.0694,-0.39963 0,-0.64095 -0.13883,-0.48263 -0.52465,-1.04755 -0.97247,-1.65763 -0.44779,-0.61004 -0.94665,-1.2778 -1.34821,-1.92284 -0.40153,-0.64504 -0.70726,-1.26897 -0.70726,-1.85657 3e-5,-0.92871 0.15418,-1.54511 0.33138,-1.98916 0.1772,-0.44402 0.39184,-0.72919 0.50836,-1.01669 0.11655,-0.28753 0.1381,-0.57967 -0.0442,-1.03878 -0.18232,-0.45908 -0.5628,-1.07456 -1.2819,-2.03333 -0.25246,-0.33687 -0.38845,-0.8765 -0.41994,-1.52505 -0.0329,-0.64855 0.0329,-1.4021 0.13262,-2.16595 0.20205,-1.52775 0.57117,-3.10256 0.77354,-3.91205 0.0723,-0.28936 0.22945,-0.49783 0.41994,-0.64094 0.19072,-0.14323 0.4274,-0.20716 0.70726,-0.24297 0.55977,-0.0716 1.26696,0.0329 2.01127,0.15455 0.74431,0.12349 1.51185,0.25831 2.21016,0.26525 0.34928,0.004 0.67803,-0.0256 0.97251,-0.11034 0.29448,-0.0844 0.56262,-0.23091 0.77354,-0.44205 0.50113,-0.50112 0.96623,-1.01058 1.39242,-1.54711 0.35951,-0.45275 0.66612,-0.9347 0.95037,-1.43663 -0.05,-0.0508 -0.13482,-0.0738 -0.17683,-0.13262 -0.29887,-0.41834 -0.38041,-0.99367 -0.41995,-1.56925 -0.0395,-0.57559 -0.0292,-1.16378 -0.11033,-1.63553 -0.0413,-0.23602 -0.11254,-0.43576 -0.22105,-0.59674 -0.10851,-0.16112 -0.25027,-0.27804 -0.46415,-0.33138 -0.5913,-0.5913 -1.14328,-1.46882 -1.74601,-2.29858 -0.30142,-0.4149 -0.60149,-0.81727 -0.95041,-1.17142 -0.34892,-0.35403 -0.74515,-0.64884 -1.17138,-0.86195 -1.16717,-0.58359 -2.28232,-1.12783 -3.27105,-1.85657 -0.49437,-0.36426 -0.94876,-0.77551 -1.37032,-1.25979 -0.42158,-0.48429 -0.79721,-1.04186 -1.1272,-1.70184 -0.0968,-0.19328 -0.0537,-0.40449 0.0661,-0.61885 0.11984,-0.21446 0.30325,-0.44848 0.48626,-0.66305 0.18267,-0.21447 0.37222,-0.42477 0.46411,-0.61885 0.0917,-0.194 0.0866,-0.35549 -0.0661,-0.50836 -0.31457,-0.31457 -0.51435,-0.72954 -0.68516,-1.17137 -0.17098,-0.44183 -0.31055,-0.92184 -0.44201,-1.41452 -0.13116,-0.49265 -0.26817,-0.9917 -0.46415,-1.45874 -0.19583,-0.467 -0.45286,-0.894873 -0.81774,-1.259793 -0.41713,-0.41713 -1.18234,-2.18937 -1.94499,-3.8678 -0.38129,-0.83922 -0.75048,-1.655 -1.08296,-2.27651 -0.33248,-0.62147 -0.62422,-1.03459 -0.81778,-1.08296 -0.11326,-0.0292 -2.15774,-0.49166 -4.17726,-0.77357 -1.00974,-0.14103 -2.01247,-0.24333 -2.7627,-0.22104 z" />
  </g>
</svg>
