<?xml version="1.0" encoding="UTF-8" standalone="no"?>
<!-- Created with Inkscape (http://www.inkscape.org/) -->

<svg
   width="210mm"
   height="297mm"
   viewBox="0 0 210 297"
   version="1.1"
   id="svg66"
   inkscape:version="1.1.2 (b8e25be833, 2022-02-05)"
   sodipodi:docname="vector.svg"
   xmlns:inkscape="http://www.inkscape.org/namespaces/inkscape"
   xmlns:sodipodi="http://sodipodi.sourceforge.net/DTD/sodipodi-0.dtd"
   xmlns="http://www.w3.org/2000/svg"
   xmlns:svg="http://www.w3.org/2000/svg">
  <sodipodi:namedview
     id="namedview68"
     pagecolor="#ffffff"
     bordercolor="#666666"
     borderopacity="1.0"
     inkscape:pageshadow="2"
     inkscape:pageopacity="0.0"
     inkscape:pagecheckerboard="0"
     inkscape:document-units="mm"
     showgrid="false"
     inkscape:object-paths="false"
     inkscape:snap-intersection-paths="false"
     inkscape:snap-grids="true"
     inkscape:snap-object-midpoints="false"
     objecttolerance="10000"
     guidetolerance="10000"
     inkscape:snap-perpendicular="false"
     inkscape:snap-tangential="false"
     inkscape:zoom="0.74029882"
     inkscape:cx="220.85676"
     inkscape:cy="561.93525"
     inkscape:window-width="1920"
     inkscape:window-height="1017"
     inkscape:window-x="-8"
     inkscape:window-y="-8"
     inkscape:window-maximized="1"
     inkscape:current-layer="layer1" />
  <defs
     id="defs63" />
  <g
     inkscape:label="Capa 1"
     inkscape:groupmode="layer"
     id="layer1">
    <g
       id="g917"
       transform="matrix(1.0499366,0,0,1.0499366,-5.2412378,-7.4155861)">
      <path
         inkscape:connector-curvature="0"
         id="Antuco"
         style="fill:#000000;fill-opacity:1;fill-rule:evenodd;stroke:#d39062;stroke-width:0.385976;stroke-linecap:butt;stroke-linejoin:miter;stroke-miterlimit:4;stroke-dasharray:none;stroke-opacity:1"
         d="m 94.202112,21.232449 c -0.59674,0.0449 -1.11569,0.17337 -1.48549,0.40529 -0.61774,0.38784 -1.46594,1.11733 -2.32514,1.75703 -0.42959,0.32003 -0.8668,0.62229 -1.2702,0.83795 -0.40341,0.21573 -0.77848,0.35136 -1.098,0.35136 -0.50689,0 -1.16194,-0.0929 -1.87301,-0.2702 -0.42849,-0.10679 -0.87171,-0.2919 -1.31327,-0.45954 0.032,0.36685 0.0434,0.80567 0.10748,1.10825 0.12527,0.58983 0.29895,1.09284 0.51668,1.56783 0.43539,0.94991 1.03104,1.83221 1.6362,3.35177 0.50543,1.26926 3.74604,6.033 3.74604,6.48745 0,0.49635 -0.14631,1.05759 -0.36598,1.64881 -0.21957,0.59125 -0.50547,1.21252 -0.77506,1.8111 -0.26941,0.59859 -0.51757,1.18461 -0.6674,1.70292 -0.14983,0.51835 -0.20426,0.97405 -0.0644,1.32455 0.0893,0.22427 0.12812,0.26556 0.2153,0.4595 0.39496,0 0.78908,0 1.18408,0 0.89697,0 1.88468,-0.14381 2.86335,-0.35135 0.97874,-0.2079 1.96699,-0.47834 2.84182,-0.70282 0.87487,-0.22427 1.63219,-0.40885 2.21753,-0.45954 0.58528,-0.0505 0.98779,0.0356 1.09793,0.35135 0.11142,0.31754 -0.0623,0.87313 -0.36599,1.54081 -0.30365,0.66761 -0.73137,1.44807 -1.141,2.24352 -0.40963,0.79548 -0.80552,1.59659 -1.01188,2.29759 -0.10324,0.35029 -0.15628,0.66088 -0.15058,0.9461 0.007,0.28514 0.0837,0.53768 0.23708,0.72984 0.73315,0.9205 2.57263,2.37324 4.133538,4.10866 0.78046,0.86771 1.49571,1.80882 1.95913,2.78422 0.23174,0.48766 0.38667,0.98405 0.47367,1.48666 0.0869,0.50261 0.10145,1.00423 0,1.51371 -0.76159,3.82477 -1.17439,6.68161 -1.9807,10.73125 -0.13919,0.69855 -0.89597,2.91985 -1.571588,5.298 -0.33783,1.18913 -0.65651,2.41482 -0.86116,3.51403 -0.2047,1.09924 -0.30046,2.06061 -0.19366,2.73011 0.1965,1.23274 0.41486,3.64129 0.55975,5.86569 0.14488,2.2244 0.2264,4.2707 0.10751,4.86555 -0.22499,1.12634 -0.42694,2.304 -0.55979,3.45995 -0.13278,1.15592 -0.21039,2.30005 -0.19365,3.35177 0.0178,1.051791 0.12139,2.024551 0.34459,2.838301 0.2232,0.81367 0.56772,1.47726 1.054918,1.91914 0.12816,0.11605 0.12851,0.2524 0.0214,0.43256 -0.10679,0.18013 -0.314328,0.38517 -0.581318,0.62169 -0.53391,0.4731 -1.3186,1.04609 -2.0452,1.70292 -0.72667,0.6569 -1.40012,1.40603 -1.72236,2.18952 -0.16126,0.3919 -0.22427,0.8037 -0.17229,1.21639 0.052,0.41245 0.21999,0.81695 0.55975,1.24342 1.90469,2.39146 2.89208,2.92455 3.40153,3.6221 0.25488,0.34851 0.380118,0.74522 0.452128,1.43262 0.0719,0.68748 0.0862,1.6554 0.0862,3.18965 0,2.18375 -0.14488,4.027 -0.387518,5.73053 -0.24278,1.70352 -0.58182,3.27327 -0.92574,5.00072 -0.10573,0.53102 -0.52109,2.81056 -1.11953,4.94657 -0.29938,1.06806 -0.64665,2.09746 -1.01185,2.86528 -0.18262,0.38383 -0.3678,0.69788 -0.55975,0.91905 -0.19188,0.22106 -0.38475,0.35135 -0.58129,0.35135 -0.80808,0 -2.14743,-0.41465 -3.50918,-0.51354 -0.68093,-0.0495 -1.35965,-0.003 -2.00224,0.18903 -0.64255,0.19152 -1.23596,0.55167 -1.72232,1.16229 -0.39223,0.49254 -0.84641,0.92281 -1.35634,1.32454 -0.50988,0.40169 -1.08834,0.7648 -1.70079,1.05421 -0.61241,0.28942 -1.25932,0.52027 -1.95914,0.67577 -0.69982,0.15556 -1.44541,0.24313 -2.21748,0.24313 -1.72965,0 -3.47038,0.0285 -5.14541,-0.16232 -0.83752,-0.0943 -1.66677,-0.24812 -2.45432,-0.48656 -0.78752,-0.23851 -1.54723,-0.55235 -2.26054,-1.00018 -1.01062,-0.63443 -1.88465,-0.96226 -2.6696,-1.08119 -0.78492,-0.1189 -1.48054,-0.0506 -2.13135,0.10822 -0.65082,0.15877 -1.24323,0.39635 -1.85148,0.59467 -0.60826,0.19828 -1.21576,0.37845 -1.87305,0.37845 -0.78064,0 -3.02076,-0.33249 -5.16695,-0.48656 -1.07308,-0.0769 -2.12291,-0.11178 -2.971,-0.0541 -0.84809,0.0577 -1.47684,0.23246 -1.72229,0.5406 -0.53626,0.6733 -0.99653,1.22593 -1.42093,1.6759 -0.42439,0.45003 -0.81666,0.78572 -1.2702,1.00017 -0.45355,0.2143 -0.96938,0.30401 -1.59314,0.27019 -0.62377,-0.032 -1.36861,-0.19294 -2.303605,-0.48656 -0.39503,-0.12388 -2.70002,-0.67444 -4.99473,-1.02715 -1.14735,-0.17657 -2.29748,-0.30615 -3.18628,-0.29725 -0.4444,0.004 -0.83143,0.0285 -1.11952,0.10822 -0.28828,0.0808 -0.46757,0.22783 -0.53821,0.40529 -0.28757,0.7219 -0.58256,1.37377 -0.90421,1.97322 -0.32174,0.59944 -0.68149,1.12953 -1.11952,1.56782 -0.43803,0.43836 -0.95656,0.78868 -1.59314,1.02716 -0.63658,0.23851 -1.38627,0.37844 -2.3036,0.37844 -0.87952,0 -3.525307,-0.38158 -6.028099,-0.67573 -1.251415,-0.14702 -2.465534,-0.28015 -3.401594,-0.3243 -0.93606,-0.0448 -1.603925,-0.0142 -1.743859,0.16233 -0.621882,0.78085 -1.198245,1.18137 -1.765356,1.37859 -0.567143,0.19721 -1.123116,0.19294 -1.722326,0.16232 -0.599213,-0.032 -1.241024,-0.0965 -1.959136,0 -0.718116,0.0968 -1.508938,0.36596 -2.432791,0.9461 -0.813068,0.51041 -1.6052783,1.04962 -2.3466293,1.62183 -0.741354,0.57224 -1.437545,1.17201 -2.066797,1.83812 -0.629248,0.66609 -1.180948,1.39735 -1.657732,2.18945 -0.178312,0.29618 -0.277596,0.65629 -0.430591,0.97315 0.975742,0.30686 2.143985,0.68516 3.358531,1.16229 1.238248,0.48649 2.5162803,1.0661 3.6168693,1.75703 0.442797,0.27802 0.86645,0.27695 1.291737,0.10822 0.425291,-0.16874 0.847018,-0.50087 1.291738,-0.86501 0.44472,-0.36417 0.898301,-0.77337 1.399395,-1.08126 0.50109,-0.30793 1.041794,-0.51355 1.636202,-0.51355 0.673949,0 1.192728,-0.15734 1.636202,-0.37848 0.443474,-0.22106 0.817264,-0.51628 1.184081,-0.81089 0.366816,-0.29511 0.740144,-0.58998 1.184081,-0.81094 0.443972,-0.22106 0.961292,-0.35135 1.636202,-0.35135 0.673308,0 1.226963,-0.16767 1.722329,-0.40529 0.495362,-0.2378 0.928157,-0.55925 1.313268,-0.83795 0.385142,-0.27874 0.733914,-0.52625 1.07646,-0.64875 0.342349,-0.12245 0.687255,-0.12281 1.054926,0.10822 0.290412,0.18227 0.487359,0.4552 0.645869,0.78388 0.15838,0.32893 0.27404,0.72069 0.40902,1.1353 0.13488,0.41465 0.27582,0.85743 0.49519,1.2975 0.21957,0.44013 0.51347,0.8655 0.92574,1.27043 0.8384,0.82339 2.16797,1.52486 3.48768,2.13544 1.31974,0.61055 2.63768,1.12876 3.42313,1.62187 0.69818,0.43832 1.15635,0.93666 1.52854,1.40556 0.37223,0.4689 0.64527,0.91848 0.9688,1.32451 0.32352,0.40618 0.69641,0.75038 1.24868,1.00017 0.5523,0.24991 1.28832,0.40529 2.34666,0.40529 0.81563,0 1.58168,0.15379 2.32514,0.37845 0.743445,0.22462 1.460025,0.51073 2.174405,0.83795 1.42886,0.65441 2.84228,1.40115 4.41346,1.72994 1.21974,0.25524 2.09512,0.7031 2.99253,1.08127 0.89738,0.37801 1.82938,0.67576 3.12169,0.67576 0.78228,0.39276 1.56442,0.79648 2.34666,1.18934 0.65812,0.33071 1.19644,0.80381 1.67927,1.35157 0.48284,0.54768 0.9067,1.15638 1.3348,1.75699 0.4281,0.60062 0.86239,1.18667 1.35633,1.67587 0.49391,0.48926 1.04201,0.89476 1.72229,1.10832 0.51668,0.16233 1.09351,0.4982 1.67927,0.94603 0.58579,0.44786 1.17486,1.00921 1.76539,1.56782 1.18102,1.11715 2.30812,2.27342 3.12168,2.78415 0.86026,0.54006 1.39723,1.09152 1.7008,1.62186 0.30358,0.53035 0.3792,1.03784 0.30145,1.54074 -0.0779,0.50293 -0.29753,1.00195 -0.58128,1.45967 -0.28365,0.45773 -0.63284,0.87565 -0.94727,1.27044 -0.22313,0.28016 -0.30785,0.55014 -0.30145,0.78391 0.007,0.23388 0.11388,0.44947 0.30145,0.64871 0.37475,0.3986 1.06628,0.72368 1.87301,1.05421 0.80673,0.33071 1.71197,0.64405 2.56194,1.00014 0.85001,0.35613 1.62685,0.76829 2.13139,1.24342 0.6242,0.58776 1.10237,1.23587 1.50702,1.89216 0.40464,0.65626 0.74427,1.30514 1.07646,1.91922 0.33206,0.614 0.66964,1.18781 1.07642,1.64884 0.40682,0.46104 0.87855,0.80285 1.50705,1.00014 1.48691,0.46673 2.2515,1.13662 2.90641,1.35153 0.32743,0.10786 0.6396,0.11605 0.99033,-0.0808 0.35054,-0.19757 0.74202,-0.60727 1.27023,-1.27047 0.4112,-0.51621 0.78997,-0.87277 1.16254,-1.13527 0.37261,-0.26272 0.74735,-0.42184 1.16257,-0.51361 0.83044,-0.18369 1.8273,-0.10822 3.3155,-0.10822 0.91939,0 1.59776,-0.073 2.13134,-0.18903 0.53362,-0.11605 0.90794,-0.27553 1.248648,-0.48656 0.6815,-0.42181 1.17151,-1.00569 2.23907,-1.6759 0.60806,-0.38162 1.08696,-0.73333 1.48549,-1.00014 0.39852,-0.26663 0.72115,-0.45527 1.05492,-0.48656 0.33391,-0.032 0.66273,0.0805 1.07642,0.40529 0.41373,0.32501 0.91168,0.87433 1.5501,1.6759 0.83076,1.04307 1.27378,1.94385 1.93762,2.73011 0.33213,0.39322 0.73724,0.75287 1.24869,1.0812 0.5114,0.32857 1.14224,0.62888 1.98065,0.89202 0.80197,0.25168 1.43523,0.37624 1.93759,0.37849 0.5024,0.002 0.8722,-0.10502 1.14104,-0.35136 0.26876,-0.24634 0.43686,-0.6417 0.53824,-1.13527 0.10146,-0.49361 0.12923,-1.09857 0.12923,-1.83812 0,-0.20612 0.13207,-0.36104 0.34459,-0.45951 0.21252,-0.0983 0.51731,-0.14844 0.88273,-0.16233 0.73077,-0.0285 1.70751,0.0979 2.6911,0.2702 1.96717,0.34495 3.95861,0.91146 4.06897,0.9461 0.18867,0.0591 0.47271,0.56441 0.79658,1.32451 0.32395,0.76006 0.68349,1.75777 1.05492,2.78415 0.74287,2.05274 1.48823,4.22022 1.89452,4.73038 0.35562,0.44637 0.6057,0.9696 0.79662,1.54077 0.1908,0.57118 0.3243,1.18151 0.4521,1.78402 0.12779,0.60257 0.26414,1.18962 0.43056,1.72997 0.1666,0.54039 0.361,1.04795 0.6674,1.43266 0.14916,0.18689 0.15414,0.38428 0.0644,0.62169 -0.0897,0.23708 -0.27411,0.49443 -0.4521,0.75686 -0.17799,0.26236 -0.35677,0.54875 -0.47367,0.81093 -0.11676,0.26236 -0.15877,0.52034 -0.0644,0.75686 0.32145,0.80715 0.68733,1.48908 1.09799,2.08136 0.41063,0.59229 0.85323,1.09515 1.3348,1.54077 0.96312,0.89124 2.04933,1.55683 3.18627,2.27058 0.41519,0.26058 0.80118,0.62112 1.14104,1.05417 0.33996,0.43298 0.63219,0.92524 0.92577,1.43266 0.58709,1.0148 1.12477,2.08802 1.70075,2.8112 0.20825,0.0652 0.34637,0.20861 0.45213,0.40529 0.10573,0.19722 0.17515,0.44146 0.21537,0.72981 0.0805,0.57701 0.0691,1.29631 0.10751,2.00027 0.0385,0.70399 0.11819,1.4076 0.40906,1.91922 0.1456,0.25595 0.33925,0.44683 0.60282,0.59467 0.26379,0.14773 0.61454,0.24349 1.03339,0.24349 0.26485,0 0.45523,-0.0712 0.62433,-0.18903 0.16909,-0.11783 0.30187,-0.29902 0.40906,-0.48656 0.21466,-0.37488 0.34566,-0.83058 0.51667,-1.18934 0.0854,-0.17906 0.17586,-0.33035 0.30152,-0.43256 0.12566,-0.10181 0.29582,-0.15912 0.49517,-0.13491 0.39896,0.0484 0.97497,0.3977 1.87305,1.24341 0.49695,0.46798 0.91228,0.99007 1.29172,1.54077 0.37945,0.55068 0.71546,1.12545 1.05493,1.70292 0.3396,0.57748 0.67793,1.1546 1.05488,1.70296 0.37695,0.54832 0.79979,1.07746 1.29176,1.54073 0.96038,0.90438 1.77665,1.79552 2.71264,2.67604 0.93602,0.8806 1.98297,1.74489 3.3801,2.622 0.37193,0.23388 0.59716,0.625 0.73201,1.10825 0.13456,0.48325 0.18582,1.0587 0.21537,1.6759 0.0285,0.61728 0.032,1.28358 0.0862,1.91918 0.0559,0.63569 0.17301,1.24556 0.38752,1.78405 0.38753,0.97383 0.79516,1.53451 1.22711,1.91919 0.43196,0.38471 0.88818,0.59563 1.31334,0.83795 0.42479,0.24206 0.81677,0.53447 1.18403,1.08126 0.36727,0.54676 0.71037,1.351 0.96885,2.64899 0.22,1.10696 0.67128,2.25252 1.141,3.43293 0.46972,1.1804 0.95817,2.40616 1.20561,3.64915 0.11249,0.5641 0.34317,1.08138 0.66744,1.56776 0.32394,0.48641 0.73688,0.92292 1.16257,1.35156 0.85094,0.85732 1.79533,1.63254 2.38968,2.37872 0.95376,1.19746 1.29945,1.93154 1.52856,2.51385 0.2289,0.58232 0.34139,0.99651 0.81813,1.59481 0.39784,0.49963 0.9388,0.823 1.57159,1.02719 0.63277,0.20434 1.3421,0.30188 2.08835,0.32431 1.49193,0.0448 3.0903,-0.16233 4.30577,-0.16233 -0.17693,-1.45381 -0.41804,-3.20681 -0.40906,-4.00055 0.0392,-3.49932 1.10497,-3.00888 2.13138,-5.59536 1.55939,-3.9312 0.3583,-9.45564 4.62872,-7.56864 3.65727,1.61602 3.80383,-1.78936 6.69552,-3.73025 3.90308,-2.61973 4.74132,-4.9568 4.82252,-8.62283 0.0612,-2.78105 -1.50008,-10.93291 -2.49741,-13.164 -0.52597,-1.17649 -2.91035,-5.39604 0,-7.13609 1.33352,-0.79744 2.0426,-6.84988 3.46618,-12.1639 0.82371,-3.07492 0.34602,-5.5473 0.4521,-8.05514 0.241,-5.69321 2.81936,-2.04235 0.75351,-6.35228 -1.22814,-2.56216 -2.89255,-9.36886 -3.35853,-10.08247 -0.46598,-0.7136 -2.44119,2.6869 -3.05712,-0.40528 -1.31639,-6.6097 -1.80121,-14.71496 -5.0162,-15.00206 -9.44914,-0.84375 -5.53445,-0.8152 -6.88929,-3.5681 -1.17226,-2.38153 -1.84763,-7.19002 -1.29172,-9.62292 0.31219,-5.5321 0.40343,-5.72743 -2.21754,-10.10955 0,-1.24905 -1.3381,-6.93482 -2.30357,-9.677 -1.24039,-3.5215 -1.69598,-8.20686 -1.55006,-11.00151 0.19294,-3.70704 -1.29539,-7.40689 3.01405,-6.9199 2.785,0.31469 4.43253,-1.75867 4.9947,-4.5682 0.2289,-1.1457 3.49836,-5.41644 4.60722,-6.13599 2.4785,-1.60923 -0.19401,-4.16049 -0.19401,-6.81172 0,-1.11555 1.06691,-2.59598 4.19819,-1.18941 1.76407,0.79256 7.26908,-4.194101 8.24555,-5.757551 1.13192,-1.81231 -0.8114,-3.4335 -2.00213,-5.56833 -2.05634,-3.68607 -4.24774,-8.58217 -3.87524,-12.73149 0.35029,-3.90368 1.85055,-7.88394 5.27454,-9.78514 3.67461,-2.04039 6.17832,-3.12444 6.17885,-6.24414 -7e-5,-0.79238 -0.40728,-1.87991 -0.9042,-2.94634 -1.07898,0 -2.15042,0 -3.22934,0 -2.34693,0 -4.69326,0 -7.04001,0 -0.99192,0 -2.3821,0.21039 -3.70298,0.24314 -0.66046,0.0178 -1.29628,-0.0142 -1.87298,-0.13492 -0.5768,-0.12281 -1.08197,-0.31575 -1.46398,-0.67576 -0.79214,-0.74589 -1.46548,-1.99643 -2.13138,-3.16263 -0.33321,-0.58307 -0.66794,-1.14068 -1.01185,-1.62183 -0.3446,-0.48111 -0.71379,-0.86704 -1.09804,-1.10825 -0.98782,-0.62016 -1.60954,-0.97394 -2.04519,-1.10825 -0.43573,-0.13456 -0.67114,-0.0619 -0.88274,0.10822 -0.21181,0.17016 -0.39518,0.43654 -0.7104,0.7298 -0.3154,0.29298 -0.75995,0.60343 -1.50702,0.83795 -0.73863,0.23175 -1.79466,0.45645 -2.84182,0.72984 -1.04724,0.2734 -2.09401,0.61172 -2.79878,1.05421 -0.54975,0.34495 -1.59204,0.88295 -2.79875,1.2164 -0.60379,0.1666 -1.25242,0.28763 -1.89455,0.29725 -0.64258,0.0107 -1.27577,-0.10146 -1.87308,-0.35136 -0.46936,-0.1965 -1.00775,-0.69887 -1.50702,-1.05421 -0.24955,-0.17799 -0.48699,-0.31291 -0.71044,-0.35136 -0.22391,-0.0402 -0.42796,0.0214 -0.60279,0.24314 -0.59111,0.74169 -0.98429,1.27421 -1.29176,1.64888 -0.30792,0.37446 -0.52874,0.58919 -0.79662,0.62173 -0.26805,0.032 -0.58306,-0.094 -1.05485,-0.37848 -0.47218,-0.28444 -1.10444,-0.72034 -2.02373,-1.29749 -0.4914,-0.30829 -1.12046,-0.33926 -1.78693,-0.24314 -0.66651,0.0961 -1.3584,0.31576 -2.02374,0.48656 -0.6653,0.17087 -1.29937,0.27339 -1.78689,0.18902 -0.24385,-0.0402 -0.45816,-0.12957 -0.62433,-0.29724 -0.16624,-0.16767 -0.27802,-0.39546 -0.34459,-0.72984 -0.21929,-1.10166 -0.517,-1.85318 -0.86113,-2.37876 -0.34423,-0.5255 -0.74226,-0.83382 -1.14107,-1.10825 -0.39881,-0.27446 -0.80082,-0.48962 -1.18407,-0.83795 -0.38325,-0.3485 -0.73586,-0.82058 -1.03339,-1.56779 -0.29938,-0.75166 -0.60165,-1.39147 -0.92577,-1.91914 -0.3243,-0.52768 -0.67683,-0.94275 -1.09796,-1.27047 -0.42117,-0.32751 -0.91655,-0.57798 -1.50702,-0.7298 -0.59051,-0.15201 -1.27781,-0.21609 -2.10985,-0.21609 -0.59001,0 -1.19198,-0.23601 -1.7869,-0.5947 -0.59499,-0.35884 -1.17535,-0.836 -1.74386,-1.27048 -0.5685,-0.4343 -1.12555,-0.82752 -1.63621,-1.05417 -0.51065,-0.22641 -0.97795,-0.29191 -1.3994,-0.0285 -0.52939,0.33249 -1.20163,0.40394 -1.91605,0.35136 -0.71443,-0.0523 -1.46263,-0.23566 -2.17442,-0.35136 -0.71183,-0.11605 -1.39461,-0.16909 -1.91609,-0.0285 -0.26093,0.0712 -0.46787,0.18262 -0.64586,0.37848 -0.17799,0.1958 -0.31576,0.47745 -0.38752,0.83795 -0.0787,0.39454 -0.49877,2.19454 -1.16258,3.59509 -0.33213,0.70022 -0.72709,1.30763 -1.16257,1.56779 -0.21786,0.12993 -0.4506,0.17478 -0.68893,0.10822 -0.23851,-0.0666 -0.4982,-0.24706 -0.75352,-0.56766 -0.42593,-0.53479 -0.84809,-0.94122 -1.29172,-1.29745 -0.44363,-0.35613 -0.88825,-0.66872 -1.37787,-0.9461 -0.97921,-0.55469 -2.09023,-1.02837 -3.42311,-1.86514 -1.19696,-0.75141 -2.45433,-1.47232 -3.48768,-2.37869 -0.51667,-0.4532 -0.96546,-0.96358 -1.3348,-1.54073 -0.36929,-0.57723 -0.66715,-1.21515 -0.81812,-1.97326 -0.28621,-1.43646 -0.51696,-2.77945 -0.86112,-3.97356 -0.1723,-0.59702 -0.36339,-1.15684 -0.60283,-1.67587 -0.23958,-0.51902 -0.5407,-1.00323 -0.8827,-1.43265 -0.0142,-0.0178 -1.19325,-1.22302 -2.19595,-2.48684 -0.50134,-0.63187 -0.94738,-1.29471 -1.18408,-1.81103 -0.11854,-0.25809 -0.18404,-0.47289 -0.17229,-0.64875 0.0107,-0.17621 0.0954,-0.29368 0.2798,-0.35135 0.22712,-0.63372 0.2976,-1.21871 0.25844,-1.75703 -0.0395,-0.53825 -0.19258,-1.04464 -0.4306,-1.48666 -0.23815,-0.44196 -0.55604,-0.8172 -0.92573,-1.16233 -0.36966,-0.34494 -0.79331,-0.64454 -1.22711,-0.89202 -0.86768,-0.49496 -1.79872,-0.79203 -2.51895,-0.89203 -0.72015,-0.10003 -1.236218,-0.003 -1.270178,0.29725 -0.84874,0 -2.23238,-0.2353 -3.59533,-0.35136 -0.6815,-0.058 -1.36239,-0.0975 -1.95916,-0.0541 z" />
    </g>
  </g>
</svg>
