<?xml version="1.0" encoding="UTF-8" standalone="no"?>
<!-- Created with Inkscape (http://www.inkscape.org/) -->

<svg
   width="210mm"
   height="297mm"
   viewBox="0 0 210 297"
   version="1.1"
   id="svg64"
   inkscape:version="1.1.2 (b8e25be833, 2022-02-05)"
   sodipodi:docname="vector.svg"
   xmlns:inkscape="http://www.inkscape.org/namespaces/inkscape"
   xmlns:sodipodi="http://sodipodi.sourceforge.net/DTD/sodipodi-0.dtd"
   xmlns="http://www.w3.org/2000/svg"
   xmlns:svg="http://www.w3.org/2000/svg">
  <sodipodi:namedview
     id="namedview66"
     pagecolor="#ffffff"
     bordercolor="#666666"
     borderopacity="1.0"
     inkscape:pageshadow="2"
     inkscape:pageopacity="0.0"
     inkscape:pagecheckerboard="0"
     inkscape:document-units="mm"
     showgrid="false"
     inkscape:zoom="0.74029882"
     inkscape:cx="361.34057"
     inkscape:cy="561.93525"
     inkscape:window-width="1920"
     inkscape:window-height="1017"
     inkscape:window-x="-8"
     inkscape:window-y="-8"
     inkscape:window-maximized="1"
     inkscape:current-layer="layer1" />
  <defs
     id="defs61" />
  <g
     inkscape:label="Capa 1"
     inkscape:groupmode="layer"
     id="layer1">
    <path
       id="Alto_del_Carmen"
       style="fill:#000000;fill-opacity:1;fill-rule:evenodd;stroke:#d38d5f;stroke-width:1.83753;stroke-linecap:butt;stroke-linejoin:miter;stroke-miterlimit:4;stroke-opacity:1"
       d="m 133.33185,31.422005 -5.36061,3.49788 c -4.1531,0.73036 -1.6619,6.44707 -5.32695,7.45766 -7.47162,-2.95813 -7.11691,-16.18034 -17.35408,-13.97258 -13.312635,3.76527 -9.334985,12.56747 -17.803555,17.52386 -1.43583,9.09736 -8.88118,13.96707 -18.1167,12.36681 0.18407,-7.63504 -6.32309,-9.14718 -8.34282,-9.15306 -2.95347,-12.61226 -10.99883,1.07999 -17.45429,1.73553 -3.05456,-4.25734 -6.92524,-10.66311 -13.84947,-12.3522 -9.15527,-2.75901 -1.47944,8.02321 -21.2595004,6.75187 1.7932104,5.32267 0.48667,10.48588 -6.157655,8.33923 -6.234366,8.20894 10.0905554,9.76078 11.7545154,17.02334 -0.20093,6.33673 10.60072,11.01392 6.23797,16.17841 -9.94427,-2.66618 -6.64076,14.016835 -9.16459,20.192135 10.13667,2.80856 16.85817,2.50789 22.66418,9.15996 -2.85153,4.20443 0.12938,12.8827 -8.25887,13.59427 9.23963,1.33138 0.21024,11.19548 -3.75146,14.88931 l 0.85682,4.38443 c 2.97108,1.41459 2.97351,6.91978 -0.10568,11.55271 -0.48929,10.99969 17.15339,17.16476 10.29454,29.00755 11.37171,6.46136 0.21441,17.18525 6.92916,23.9116 7.4502,4.36366 2.57985,6.02707 -0.74885,11.98169 -3.74202,5.5113 20.28894,20.48082 18.57149,5.88255 10.6241,-5.35441 20.62722,-0.86301 26.85913,8.09613 6.20365,8.10738 11.55506,16.76623 16.974045,25.96033 5.63463,-1.66688 9.59778,6.86804 13.97868,1.74736 11.57155,4.88614 21.82044,-6.66288 33.10784,-6.43326 3.33939,0.1236 3.80011,-4.99359 0.87804,-10.64422 -1.58908,-3.07296 -2.88926,-7.64864 -2.88926,-10.16809 0,-2.51951 -1.51764,-5.66139 -3.3725,-6.98201 -8.61412,-6.13292 -5.42627,-22.62624 5.46147,-28.25654 5.19693,-2.68742 5.61858,-3.56927 4.76157,-9.95871 -0.83679,-6.23876 -0.20387,-7.71376 5.75166,-13.40313 8.36824,-7.99431 13.20686,-10.50242 20.26121,-10.50242 7.06458,0 9.04364,-3.60426 7.99153,-14.55402 -0.62146,-6.46773 0.16802,-10.65069 3.09078,-16.38015 2.86486,-5.61558 3.82547,-10.54351 3.55551,-18.23998 -0.28788,-8.19963 0.6777,-12.58941 4.33921,-19.73318 2.58999,-5.053195 5.76317,-12.712635 7.05152,-17.020925 2.18443,-7.30473 2.06061,-8.13333 -1.83533,-12.28028 -3.31108,-3.52453 -3.98846,-5.90202 -3.26543,-11.46078 1.13895,-8.75607 5.22967,-19.60502 9.02405,-23.93257 -1.21382,1.01866 -3.10897,1.76486 -7.90896,1.34903 -3.00816,0.77177 -6.45211,0.34246 -8.95786,2.44304 -5.32909,1.07914 -10.43339,3.21974 -16.01559,1.62868 -5.24262,-0.53028 -9.34826,-4.08895 -14.42388,-5.14197 -5.23213,0.11291 -10.53025,0.41096 -13.53552,-4.90165 -2.95577,-4.52378 -6.41031,-1.23362 -9.92606,-0.18301 -2.34994,0.88607 -5.29768,0.78435 -5.20945,-1.00068 z"
       sodipodi:nodetypes="cccccccccccccccccccccccccccsssssssssssssscccccccc"
       inkscape:label="#path10010" />
  </g>
</svg>
