<?xml version="1.0" encoding="UTF-8" standalone="no"?>
<!-- Created with Inkscape (http://www.inkscape.org/) -->

<svg
   width="210mm"
   height="297mm"
   viewBox="0 0 210 297"
   version="1.1"
   id="svg64"
   inkscape:version="1.1.2 (b8e25be833, 2022-02-05)"
   sodipodi:docname="vector.svg"
   xmlns:inkscape="http://www.inkscape.org/namespaces/inkscape"
   xmlns:sodipodi="http://sodipodi.sourceforge.net/DTD/sodipodi-0.dtd"
   xmlns="http://www.w3.org/2000/svg"
   xmlns:svg="http://www.w3.org/2000/svg">
  <sodipodi:namedview
     id="namedview66"
     pagecolor="#ffffff"
     bordercolor="#666666"
     borderopacity="1.0"
     inkscape:pageshadow="2"
     inkscape:pageopacity="0.0"
     inkscape:pagecheckerboard="0"
     inkscape:document-units="mm"
     showgrid="false"
     inkscape:zoom="0.74029882"
     inkscape:cx="361.34057"
     inkscape:cy="345.8063"
     inkscape:window-width="1920"
     inkscape:window-height="1017"
     inkscape:window-x="-8"
     inkscape:window-y="-8"
     inkscape:window-maximized="1"
     inkscape:current-layer="layer1" />
  <defs
     id="defs61" />
  <g
     inkscape:label="Capa 1"
     inkscape:groupmode="layer"
     id="layer1">
    <path
       sodipodi:nodetypes="cccsccccccccccccccccc"
       d="m 22.355896,153.26925 c -7.30638,1.0554 -17.9405698,11.40617 -19.2203798,21.56175 -1.10708,11.8663 -1.30385,26.51085 9.5610998,34.18254 5.79541,3.74044 20.10246,3.75356 23.16434,-5.48475 2.76056,-8.32839 5.34542,-14.7966 1.0097,-22.43252 -5.59983,-4.42377 -8.97774,-10.08601 -8.76725,-17.30215 -1.17268,-3.87222 -2.67609,-10.9687 -5.74791,-10.52487 z m 69.21596,-14.80913 c 7.68481,-7.718 18.074334,-11.88577 28.925174,-10.96711 10.95797,0.78907 16.05316,-15.78821 26.52874,-11.03787 7.35825,6.22413 13.57542,16.67308 24.87268,14.72783 10.81526,-1.63579 22.51301,2.49581 32.60399,-2.34814 9.80994,-8.86901 -7.83169,-23.80474 -17.01872,-17.99423 -9.75111,5.46189 -20.07643,-2.00786 -15.69161,-12.616217 -3.73329,-11.03548 -17.80461,-13.46153 -28.07746,-12.36061 -12.04022,-0.65988 -5.35556,19.831757 -18.21207,18.577387 -12.34432,0.82684 -17.9517,13.80082 -28.426494,18.52611 -5.46567,2.96529 -12.94715,12.58879 -3.89468,16.45862 m -4.18506,8.04834 c -6.1017,6.50816 -0.69566,18.27965 5.63878,8.46792 -0.17888,-3.73467 -3.26222,-5.93811 -5.63878,-8.46792 z"
       style="fill:#000000;fill-opacity:1;fill-rule:evenodd;stroke:#d38d5f;stroke-width:5.25882;stroke-linecap:butt;stroke-linejoin:miter;stroke-miterlimit:4;stroke-opacity:1"
       id="Juan_Fernandez" />
  </g>
</svg>
