<?xml version="1.0" encoding="UTF-8" standalone="no"?>
<!-- Created with Inkscape (http://www.inkscape.org/) -->

<svg
   width="210mm"
   height="297mm"
   viewBox="0 0 210 297"
   version="1.1"
   id="svg1283"
   inkscape:version="1.1.2 (b8e25be833, 2022-02-05)"
   sodipodi:docname="vector.svg"
   xmlns:inkscape="http://www.inkscape.org/namespaces/inkscape"
   xmlns:sodipodi="http://sodipodi.sourceforge.net/DTD/sodipodi-0.dtd"
   xmlns="http://www.w3.org/2000/svg"
   xmlns:svg="http://www.w3.org/2000/svg">
  <sodipodi:namedview
     id="namedview1285"
     pagecolor="#ffffff"
     bordercolor="#666666"
     borderopacity="1.0"
     inkscape:pageshadow="2"
     inkscape:pageopacity="0.0"
     inkscape:pagecheckerboard="0"
     inkscape:document-units="mm"
     showgrid="false"
     inkscape:zoom="0.52347032"
     inkscape:cx="155.69173"
     inkscape:cy="611.30496"
     inkscape:window-width="1920"
     inkscape:window-height="1017"
     inkscape:window-x="-8"
     inkscape:window-y="-8"
     inkscape:window-maximized="1"
     inkscape:current-layer="layer1" />
  <defs
     id="defs1280" />
  <g
     inkscape:label="Capa 1"
     inkscape:groupmode="layer"
     id="layer1">
    <path
       id="Isla_de_Maipo"
       style="fill:#000000;fill-opacity:1;stroke:#d38d5f;stroke-width:1.12455;stroke-miterlimit:4;stroke-opacity:1"
       d="m 98.837221,188.86241 c 2.801289,0.54441 4.232449,-0.5807 5.265359,-2.72001 1.60981,-1.83015 4.57384,-2.65366 6.66105,-2.59205 2.46176,0.39644 4.67483,1.63482 6.7811,2.90734 -1.60495,1.85957 3.08911,2.86826 3.74077,0.71007 1.0473,-2.9389 4.67339,-0.57606 7.02464,-0.80127 2.95843,-0.70261 2.67785,4.41085 5.44877,3.39425 2.1088,-1.25801 4.77344,-1.09506 6.79117,-1.99553 1.00044,-2.18528 2.71795,-4.21663 2.97741,-6.63233 -0.66148,-2.52383 -0.89041,-4.93051 0.15477,-7.39618 0.39867,-2.62751 1.69207,-5.0325 1.26394,-7.77411 -0.67926,-2.51006 2.16245,-2.58739 3.10363,-0.76496 2.16078,1.54864 1.61242,4.34273 2.77901,6.47366 1.9923,1.84523 -0.82369,2.31044 -1.50506,3.07085 0.37467,1.93448 4.71363,1.27067 2.75379,3.54724 -0.54553,1.93941 -5.20581,2.56227 -2.93993,4.77137 2.10213,1.40505 4.50786,2.49061 5.8801,4.76151 1.37224,2.27089 -1.94837,2.32133 -0.45964,5.29885 4.76725,-2.94234 7.58038,-2.8422 10.2924,-1.77451 1.27054,-0.31734 7.18694,-1.46404 8.51782,-2.12944 6.24212,5.75839 8.81863,-2.54086 10.6473,-7.45313 1.18979,-0.89247 4.58776,0.81429 4.96875,-0.71006 1.85984,-5.95754 2.93238,-9.32052 6.03348,-10.6473 1.60234,-2.86696 0.78079,-6.23356 4.96876,-8.16292 4.06382,-1.74938 3.56371,-3.47242 5.67854,-7.80798 0.48578,-1.94332 1.67474,-1.70164 2.88566,-4.12338 -6.87355,-6.24464 -2.39765,-10.92472 -1.32464,-10.86218 3.59739,-3.35823 1.87556,-5.87667 1.23632,-8.56606 2.01554,-2.85533 -0.19263,-5.71065 -0.97138,-8.56607 l -6.7896,-1.14801 -1.43846,-2.15763 -8.27115,-6.8327 -2.87691,6.11342 -35.60184,-14.38457 c -0.0633,8.49525 -7.40949,4.20072 -10.06921,16.18262 l -28.76916,2.15773 c 0.41812,3.10101 -8.78761,3.63313 -12.58652,0.71937 H 90.659431 c -4.31188,7.12407 -13.87773,-3.26517 -20.85765,-5.03455 -5.10467,1.8482 -11.62877,2.24297 -17.2615,8.27115 h -17.26151 c -11.70996,-0.73612 -6.20032,-5.27214 -19.41918,-7.91156 -0.687076,4.69217 -6.0255027,7.60966 -10.0692157,10.06919 -2.956984,1.32939 -9.74818,9.2483 -0.719275,16.5423 6.8790747,1.80829 12.3400447,-1.30314 19.4191907,6.4731 4.78752,1.56074 1.78488,11.78238 16.54227,3.95569 0.35662,-3.11962 2.1137,-4.83884 10.06921,-0.35922 7.6838,-0.0558 11.25153,1.13173 9.34999,3.95578 7.38901,-1.31403 9.40253,5.43528 13.30574,9.35002 0.73565,4.16805 6.39565,0.12935 9.70959,0 0.88539,6.45411 4.18254,5.67277 7.91152,3.59609 10.308349,0.44763 5.0792,11.25294 7.45856,16.9863 z"
       sodipodi:nodetypes="ccccccccccccccccsccccccccccccccccccccccccccccccccccc" />
  </g>
</svg>
