<?xml version="1.0" encoding="UTF-8" standalone="no"?>
<!-- Created with Inkscape (http://www.inkscape.org/) -->

<svg
   width="210mm"
   height="297mm"
   viewBox="0 0 210 297"
   version="1.1"
   id="svg64"
   inkscape:version="1.1.2 (b8e25be833, 2022-02-05)"
   sodipodi:docname="vector.svg"
   xmlns:inkscape="http://www.inkscape.org/namespaces/inkscape"
   xmlns:sodipodi="http://sodipodi.sourceforge.net/DTD/sodipodi-0.dtd"
   xmlns="http://www.w3.org/2000/svg"
   xmlns:svg="http://www.w3.org/2000/svg">
  <sodipodi:namedview
     id="namedview66"
     pagecolor="#ffffff"
     bordercolor="#666666"
     borderopacity="1.0"
     inkscape:pageshadow="2"
     inkscape:pageopacity="0.0"
     inkscape:pagecheckerboard="0"
     inkscape:document-units="mm"
     showgrid="false"
     inkscape:zoom="0.74029882"
     inkscape:cx="361.34057"
     inkscape:cy="561.93525"
     inkscape:window-width="1920"
     inkscape:window-height="1017"
     inkscape:window-x="-8"
     inkscape:window-y="-8"
     inkscape:window-maximized="1"
     inkscape:current-layer="layer1" />
  <defs
     id="defs61" />
  <g
     inkscape:label="Capa 1"
     inkscape:groupmode="layer"
     id="layer1">
    <path
       style="fill:#000000;fill-opacity:1;fill-rule:evenodd;stroke:#d39062;stroke-width:2.32967;stroke-linecap:butt;stroke-linejoin:miter;stroke-miterlimit:4;stroke-dasharray:none;stroke-opacity:1"
       d="m 56.587607,265.71272 18.89116,10.24375 34.057083,-30.86439 h 27.80465 l 10.6428,-18.09271 29.80004,-26.7403 c 4.31305,-0.32227 7.74242,-1.17459 10.50984,-2.52757 2.76741,-1.35245 4.85702,-3.14269 6.78479,-5.05549 3.85554,-3.8256 6.70748,-8.33394 11.44106,-11.57401 1.04251,-5.4135 0.37509,-10.127 -0.93157,-14.90002 -1.30667,-4.7732 -3.24623,-9.55855 -4.39018,-14.90002 -0.97031,-0.48428 -1.03195,-1.20805 -0.66566,-1.99557 0.36629,-0.78717 1.20805,-1.69232 2.26148,-2.6607 2.1081,-1.93763 5.01674,-4.04696 5.9867,-5.9867 -0.93157,-4.69096 -0.3839,-9.25654 -0.14088,-13.56959 0.12327,-2.15652 0.12327,-4.24595 -0.14088,-6.25261 -0.26063,-2.00684 -0.89459,-4.03358 -1.99557,-5.85358 -6.16703,-0.43496 -10.75972,-1.9769 -15.03315,-4.39017 -4.27325,-2.41346 -8.18285,-5.67554 -12.63836,-9.44567 -3.03685,-2.27768 -5.03629,-2.55275 -6.91792,-1.99557 -1.88146,0.55648 -3.62468,1.94556 -5.85358,3.05992 -1.62012,0.81006 -4.16477,0.0528 -6.78479,-0.79774 -2.61984,-0.84528 -5.29304,-1.7698 -7.05088,-1.32955 1.85557,-3.2973 3.31439,-6.86844 5.05549,-10.50984 1.74163,-3.64158 3.7453,-7.31943 6.65166,-10.77593 -1.06541,-4.01931 -1.04956,-7.23578 -0.14088,-10.24375 0.91572,-3.00797 2.72286,-5.77662 5.45435,-8.91349 3.0962,-3.71819 4.67247,-7.88472 5.58749,-12.23915 0.91572,-4.35461 1.15698,-8.98939 1.86261,-13.4368 1.36302,-2.72551 1.91474,-6.58439 1.46339,-9.44549 -0.2254,-1.42994 -0.69207,-2.54853 -1.46339,-3.19288 -0.77132,-0.64452 -1.81524,-0.82239 -3.19287,-0.14088 -2.89967,1.44931 -4.29139,3.21418 -5.72062,4.7894 -1.42817,1.57434 -2.87678,2.94739 -5.98653,3.72487 -3.25609,0.81359 -7.4862,1.2151 -11.57419,1.72931 -4.08782,0.51597 -7.99759,1.13937 -10.77593,2.52774 -3.87966,1.93975 -5.42741,3.27652 -7.58305,4.12409 -2.15547,0.84705 -5.0208,1.32956 -11.70715,1.32956 -4.25652,0 -8.03334,1.5761 -11.17497,3.85801 -3.14145,2.2819 -5.61865,5.25078 -6.91775,7.84914 -5.155863,1.50742 -10.360333,1.72226 -15.698283,2.52757 -2.66897,0.40326 -5.40962,0.94213 -8.11523,1.86261 -2.70543,0.91924 -5.37916,2.22573 -8.11505,4.12409 -2.37401,2.37383 -3.42973,3.65109 -4.7894,4.39018 -1.35949,0.73962 -3.00445,0.93157 -6.91792,0.93157 -3.91189,0 -6.68653,0.52126 -8.91332,1.7293 -2.22679,1.20805 -3.88213,3.08986 -5.9867,5.72045 0.37333,5.41261 -0.54239,7.24652 -1.4634,8.91349 -0.921,1.66767 -1.97778,3.13987 -1.86243,8.11523 -17.85763,5.36436 -24.9476,6.95226 -29.66691,9.1794 -2.3597399,1.11295 -4.0922199,2.36908 -6.2527899,4.39018 -0.62164,0.58113 -1.81243,1.81049 -2.52757,2.52774 0.80126,0.62692 1.81366,1.10063 2.26148,1.99557 1.61308,4.79028 2.9495,8.18497 3.85818,12.10619 0.90868,3.92105 1.43698,8.32514 1.19748,15.03298 -0.65157,5.34147 0.35396,9.67794 1.4633999,13.70271 1.10943,4.02477 2.33667,7.7949 2.12852,12.10619 3.354,2.86251 4.97571,6.10945 6.11966,9.71175 1.14465,3.60213 1.82299,7.51825 3.19287,11.70715 0.12327,3.35312 0.48956,6.51976 1.32956,9.57845 0.84176,3.05886 2.06707,6.03601 3.59209,9.04644 0.74315,5.84442 0.64277,12.03998 2.12853,17.82681 0.29761,0.39622 7.08768,5.52814 8.6474,8.6474 0.38566,3.11751 -0.35572,5.21063 -1.32956,7.18384 -0.97559,1.97338 -2.14771,3.80482 -2.92678,6.38575 3.64968,1.82492 8.92969,3.20925 12.10619,6.38574 1.85662,2.22415 3.91242,4.43984 5.72062,6.78479 1.80802,2.34513 3.33164,4.8808 4.25704,7.58306 0.25007,1.47396 0.80654,2.88751 1.06365,4.39018 z"
       id="Placilla"
       inkscape:label="#path2130" />
  </g>
</svg>
