<?xml version="1.0" encoding="UTF-8" standalone="no"?>
<!-- Created with Inkscape (http://www.inkscape.org/) -->

<svg
   width="210mm"
   height="297mm"
   viewBox="0 0 210 297"
   version="1.1"
   id="svg64"
   inkscape:version="1.1.2 (b8e25be833, 2022-02-05)"
   sodipodi:docname="vector.svg"
   xmlns:inkscape="http://www.inkscape.org/namespaces/inkscape"
   xmlns:sodipodi="http://sodipodi.sourceforge.net/DTD/sodipodi-0.dtd"
   xmlns="http://www.w3.org/2000/svg"
   xmlns:svg="http://www.w3.org/2000/svg">
  <sodipodi:namedview
     id="namedview66"
     pagecolor="#ffffff"
     bordercolor="#666666"
     borderopacity="1.0"
     inkscape:pageshadow="2"
     inkscape:pageopacity="0.0"
     inkscape:pagecheckerboard="0"
     inkscape:document-units="mm"
     showgrid="false"
     inkscape:zoom="0.74029882"
     inkscape:cx="361.34057"
     inkscape:cy="345.8063"
     inkscape:window-width="1920"
     inkscape:window-height="1017"
     inkscape:window-x="-8"
     inkscape:window-y="-8"
     inkscape:window-maximized="1"
     inkscape:current-layer="layer1" />
  <defs
     id="defs61" />
  <g
     inkscape:label="Capa 1"
     inkscape:groupmode="layer"
     id="layer1">
    <path
       sodipodi:nodetypes="ccccccsccsssssscsccccccccccccscscccsccscccccccccsc"
       d="m 3.7581612,141.24773 c 4.214097,0 11.3659258,-7.24491 19.1581458,-14.12765 4.53987,-6.39367 8.57712,-10.2743 11.8825,-10.49558 3.01241,-3.72462 4.46563,-7.44928 10.88738,-11.17395 1.53401,-3.37184 -7.4973,-5.02123 -3.47831,-10.105912 -3.26102,-6.69101 14.78303,-1.0779 18.72948,-1.35481 2.48418,0.37852 4.59664,1.05694 5.69253,2.69245 4.63581,6.918522 8.87635,14.308332 9.9955,5.006022 9.20414,-3.523642 16.16746,-2.304382 19.47787,-7.536622 6.568573,-3.10741 14.247753,-5.64981 17.064943,-5.64981 2.81719,0 6.74832,-1.27057 8.77884,-2.76581 6.00551,-4.42245 13.77822,-3.10732 14.40322,2.29487 0.48673,4.20697 8.15013,9.66261 6.69605,5.78234 -1.70511,-4.55007 18.25317,0.7282 6.53735,10.539752 -4.32451,3.62163 8.65073,13.71764 3.75995,13.29928 -1.35609,-0.11586 7.49757,5.70659 15.25565,9.72138 18.29035,3.09321 20.94211,10.91765 17.65058,-4.30191 -0.52582,-2.43119 5.82629,3.54969 11.3101,5.26121 l 9.67004,3.22162 c 5.17693,4.30134 -0.42008,15.06705 -0.82155,22.71537 0.88629,5.93141 -0.78632,-0.69115 -2.70514,2.99814 0.0876,1.01404 1.03651,2.60122 -4.06741,3.74695 -6.31037,-1.03359 -8.31078,10.91536 -13.61337,5.61346 -5.87702,1.1502 -12.57616,-3.28176 -17.47278,1.66408 -4.00312,4.1769 -5.05687,-2.96148 -16.24166,2.8917 -9.774,-1.64714 -9.94261,3.52041 -15.45883,3.8426 -4.97467,0.22684 -12.02306,-0.22818 -14.79479,3.61385 -5.84805,2.49673 -11.81907,-5.97921 -15.75148,-4.10787 -5.5826,-3.12571 -5.75311,3.73041 -7.436293,7.48833 -4.29616,4.41555 -9.79072,8.55217 -11.05796,7.92526 -5.03817,-2.49239 -4.22448,1.93439 -6.30329,2.43416 -0.40108,3.25824 -1.20039,7.35466 -3.78795,6.51776 -3.13986,-1.01551 -5.47523,0.14416 -7.55607,-0.65246 -3.34358,-3.49919 -6.81244,-8.33129 -13.93663,-5.82426 -6.19336,1.47826 -9.70935,7.02624 -11.46212,12.77355 -0.97258,4.01497 -2.61044,5.68232 -7.64408,8.65419 -0.85097,0.50238 -2.02471,-1.35507 -3.09687,-2.27908 -1.66611,-2.97086 -5.12059,0.33297 -6.29419,-2.0919 -5.79509,-3.00243 -5.03335,-0.73361 -4.88585,-1.53619 0.14716,-0.80268 0.35013,-1.59793 0.54297,-2.37411 -2.1446,-1.61017 0.0483,-4.5208 -2.4046,-5.96015 -2.45709,-2.04065 -2.12665,-2.21262 -3.8358,-4.70408 -1.5435,-2.02067 -2.84763,-8.25281 -5.826426,-8.4066 -2.8248578,0.92445 -4.4287218,-1.27724 -2.6983938,-3.68518 -1.198958,-2.93472 -2.601937,-5.91433 -4.832487,-8.23197 -2.56856,-2.22377 -0.289373,-4.61393 2.371602,-4.80288 1.51221,-0.35729 1.99542,-6.78002 2.029783,-8.29242 -1.798771,-2.28346 -1.182287,-0.98163 -2.397005,-3.26222 -2.296769,-1.62153 -2.812697,-4.63868 -4.82982098,-6.46902 -2.01712302,-1.8303 4.82577498,-10.50588 2.79667198,-10.50588 z"
       style="fill:#000000;fill-opacity:1;fill-rule:evenodd;stroke:#d38d5f;stroke-width:1.16998;stroke-linecap:butt;stroke-linejoin:miter;stroke-miterlimit:4;stroke-opacity:1"
       id="Petorca" />
  </g>
</svg>
