<?xml version="1.0" encoding="UTF-8" standalone="no"?>
<!-- Created with Inkscape (http://www.inkscape.org/) -->

<svg
   width="210mm"
   height="297mm"
   viewBox="0 0 210 297"
   version="1.1"
   id="svg64"
   inkscape:version="1.1.2 (b8e25be833, 2022-02-05)"
   sodipodi:docname="vector.svg"
   xmlns:inkscape="http://www.inkscape.org/namespaces/inkscape"
   xmlns:sodipodi="http://sodipodi.sourceforge.net/DTD/sodipodi-0.dtd"
   xmlns="http://www.w3.org/2000/svg"
   xmlns:svg="http://www.w3.org/2000/svg">
  <sodipodi:namedview
     id="namedview66"
     pagecolor="#ffffff"
     bordercolor="#666666"
     borderopacity="1.0"
     inkscape:pageshadow="2"
     inkscape:pageopacity="0.0"
     inkscape:pagecheckerboard="0"
     inkscape:document-units="mm"
     showgrid="false"
     inkscape:zoom="0.74029882"
     inkscape:cx="361.34057"
     inkscape:cy="561.93525"
     inkscape:window-width="1920"
     inkscape:window-height="1017"
     inkscape:window-x="-8"
     inkscape:window-y="-8"
     inkscape:window-maximized="1"
     inkscape:current-layer="layer1" />
  <defs
     id="defs61" />
  <g
     inkscape:label="Capa 1"
     inkscape:groupmode="layer"
     id="layer1">
    <path
       style="fill:#000000;fill-opacity:1;fill-rule:evenodd;stroke:#d39062;stroke-width:0.293841;stroke-linecap:butt;stroke-linejoin:miter;stroke-miterlimit:4;stroke-dasharray:none;stroke-opacity:1"
       d="m 45.119692,81.116285 c -0.0053,0.16712 -0.05219,0.287084 0,0.495857 0.01084,0.04355 -0.258418,0.176233 -0.532588,0.385667 -0.274183,0.209432 -0.550952,0.485161 -0.550952,0.844793 0,0.271399 -0.395274,0.595652 -0.844793,0.863159 -0.449519,0.267507 -0.956924,0.477974 -1.175364,0.532588 -0.567332,0.141832 -0.909824,0.299471 -1.212098,0.514222 -0.302275,0.214751 -0.559778,0.486319 -0.954985,0.881524 -0.598119,0.598114 -0.964373,0.799089 -1.56103,1.395746 -0.113723,0.113728 -0.664076,1.278927 -0.771335,1.707953 -0.131978,0.527909 -0.308138,0.71059 -0.422396,0.881524 -0.11425,0.170932 -0.178745,0.331805 -0.05506,0.826428 0.04512,0.180661 0.02198,0.336302 -0.05506,0.459127 -0.07709,0.122827 -0.191638,0.215604 -0.348939,0.257111 -0.157295,0.04149 -0.355493,0.02658 -0.550952,-0.03673 -0.195446,-0.06329 -0.396103,-0.175724 -0.587682,-0.367302 -0.788816,-0.788817 -1.244242,-1.236596 -1.707952,-1.854874 -0.292672,-0.390227 -0.553188,-0.812535 -0.771335,-1.248825 -0.139157,-0.278314 -0.295127,1.639635 -0.312205,1.707953 -0.05178,0.2072 -0.349779,0.41538 -0.661143,0.624412 -0.311367,0.209035 -0.635809,0.426823 -0.734604,0.624413 -0.193074,0.386137 -0.227299,0.722162 -0.330572,0.918254 -0.05166,0.09804 -0.122162,0.16085 -0.238756,0.165286 -0.116594,0.0047 -0.274416,-0.04537 -0.514221,-0.165286 -0.24444,-0.122214 -0.688183,-0.122378 -1.138634,-0.09182 -0.450453,0.03056 -0.913243,0.09182 -1.193731,0.09182 -0.49446,0 -0.863848,0.02898 -1.175364,-0.01834 -0.311523,-0.04736 -0.568824,-0.164772 -0.844799,-0.440753 -0.384761,-0.384762 -0.719874,-0.547121 -1.101904,-0.606048 -0.382029,-0.05893 -0.808405,-0.01834 -1.37738,-0.01834 -0.700526,0 -1.10082,-0.02816 -1.377384,0.07346 -0.276556,0.101597 -0.433057,0.338863 -0.642777,0.863158 -0.06786,0.169623 0.05565,0.431207 0.165295,0.716239 0.10962,0.285032 0.207285,0.585014 0.146922,0.826428 -0.03431,0.137241 -0.155478,0.220659 -0.330572,0.275478 -0.175081,0.05483 -0.400085,0.08736 -0.642776,0.09183 -0.485373,0.0089 -1.024033,-0.05507 -1.34065,-0.05507 -0.288306,0 -0.513284,0.06175 -0.67951,0.146922 -0.166233,0.08517 -0.274944,0.200393 -0.385666,0.330571 -0.221438,0.26036 -0.409085,0.571845 -0.808063,0.771336 -0.174964,0.08747 -0.259296,0.224163 -0.293841,0.40403 -0.03455,0.179857 -0.0085,0.399177 0.01846,0.624412 0.05365,0.450465 0.138219,0.935633 -0.03672,1.285556 -0.22932,0.45867 -0.44907,0.62637 -0.624413,0.826429 -0.175345,0.200048 -0.293841,0.44433 -0.293841,1.046809 0,0.522239 -0.122396,0.701883 -0.238756,0.899891 -0.11633,0.197996 -0.238755,0.40785 -0.238755,0.954987 6e-6,0.56371 -0.15709,0.82376 -0.312208,1.06517 -0.155127,0.24143 -0.293841,0.46786 -0.293841,0.95499 -6e-6,0.0452 -0.742771,1.35496 -0.789699,1.54266 -0.155038,0.62017 -0.353207,0.95332 -0.587682,1.26719 -0.234477,0.31387 -0.504962,0.62425 -0.808065,1.23047 -0.379571,0.75913 -0.711658,1.01788 -0.918254,1.21209 -0.103291,0.0971 -0.170803,0.17836 -0.202011,0.29384 -0.03121,0.11548 -0.02344,0.25561 0.03675,0.49586 0.04507,0.18021 0.0035,0.35255 -0.09183,0.49586 -0.09515,0.14331 -0.240103,0.26269 -0.404033,0.3673 -0.327878,0.20922 -0.725256,0.34201 -0.899887,0.38566 -0.239341,0.0598 -0.425983,0.16914 -0.5876819,0.31221 -0.16169,0.14309 -0.292848,0.32287 -0.404033,0.51422 -0.222375,0.38271 -0.367949,0.82772 -0.550951,1.19373 -0.142234,0.28447 -0.337613,0.4782 -0.550955,0.62442 -0.21335,0.14622 -0.452525,0.23251 -0.697871,0.29384 -0.121312,0.0303 -0.124828,0.11756 -0.05506,0.22038 0.06974,0.10282 0.211563,0.23512 0.385669,0.3673 0.348241,0.26437 0.819476,0.5383 1.065173,0.66115 0.271369,0.1357 0.425713,0.2755 0.495857,0.42239 0.07015,0.1469 0.05242,0.29224 0,0.44077 -0.104844,0.29708 -0.372567,0.59821 -0.495857,0.84479 -0.128051,0.2561 -0.50587,0.37008 -0.954984,0.4224 -0.449112,0.0523 -0.975148,0.0367 -1.377381,0.0367 -0.159493,0 -0.319252,0.1257 -0.477491,0.3122 -0.158233,0.18651 -0.300408,0.44009 -0.440763,0.69787 -0.280717,0.51557 -0.515068,1.04766 -0.624413,1.157 -0.358828,0.35883 -0.650922,0.60235 -0.881523,0.86316 -0.23061,0.26082 -0.399397,0.55077 -0.514224,1.01008 -0.08495,0.33975 -0.258594,0.59369 -0.459127,0.80807 -0.200516,0.21437 -0.425629,0.3889 -0.624413,0.58768 -0.389938,0.38994 -0.568258,0.62682 -0.771332,0.80806 -0.203065,0.18124 -0.432576,0.29639 -0.93662,0.4224 -0.455825,0.11396 -0.77811,0.27638 -0.881524,0.49586 -0.05172,0.10973 -0.04712,0.23471 0.01846,0.38567 0.06549,0.15096 0.201981,0.31215 0.404032,0.51422 0.441303,0.4413 0.826037,0.5948 1.028446,0.7897 0.10121,0.0975 0.158643,0.20168 0.146922,0.3673 -0.01172,0.16558 -0.09699,0.39598 -0.257099,0.71623 -0.190114,0.38023 -0.191667,0.81623 -0.12855,1.24883 0.04331,0.29703 0.128169,0.56829 0.202011,0.84479 0.05523,-0.034 0.08867,-0.0994 0.146922,-0.12855 0.02968,-0.0149 2.485315,-1.08926 2.497651,-1.13863 0.116623,-0.46646 0.199314,-0.70587 0.293841,-0.84479 0.0945,-0.13893 0.192897,-0.16166 0.312205,-0.1653 0.119319,-0.004 0.268087,0.005 0.459127,-0.0551 0.191051,-0.0605 0.424913,-0.20453 0.734604,-0.51422 0.402899,-0.40289 0.7083,-0.50621 1.065176,-0.60605 0.356876,-0.0998 0.778013,-0.18701 1.432475,-0.51422 0.276761,-0.13839 0.746568,-0.30594 1.285556,-0.44076 0.5389879,-0.13482 1.1305379,-0.23876 1.6344909,-0.23876 0.464176,0 1.101259,0.0182 1.671225,-0.0551 0.284966,-0.0365 0.568853,-0.084 0.789699,-0.18363 0.220852,-0.0997 0.381171,-0.24814 0.47749,-0.44077 0.182671,-0.36533 0.449185,-0.80731 0.789699,-1.19373 0.340514,-0.38641 0.760472,-0.7227 1.248825,-0.84479 0.464323,-0.11607 0.724513,-0.27392 0.86316,-0.45913 0.138659,-0.18522 0.151112,-0.39559 0.110177,-0.58768 -0.08184,-0.38419 -0.37032,-0.71473 -0.293841,-0.75297 0.615053,-0.30753 1.20043,-0.98004 1.79978,-1.5794 0.197556,-0.19755 0.561559,-0.54312 0.973348,-0.86316 0.411789,-0.32004 0.871282,-0.61267 1.285556,-0.71623 0.518614,-0.12967 0.765281,-0.26997 0.826429,-0.40404 0.06115,-0.13405 -0.05055,-0.25827 -0.220383,-0.40403 -0.169836,-0.14575 -0.413389,-0.31279 -0.587685,-0.47749 -0.17429,-0.16471 -0.28646,-0.34168 -0.238756,-0.53259 0.140359,-0.5614 0.355587,-0.80385 0.624413,-1.1019 0.26882,-0.29806 0.58935,-0.64612 0.954984,-1.37738 0.393511,-0.78703 0.49739,-1.23353 0.899888,-2.03853 0.169953,-0.33988 0.539594,-0.66008 0.93662,-0.99171 0.397027,-0.33163 0.82688,-0.66176 1.101904,-1.02845 0.336959,-0.44927 0.62087,-0.73527 0.881526,-0.91825 0.260644,-0.18296 0.502732,-0.26648 0.734601,-0.31221 0.463742,-0.0915 0.908977,-0.0321 1.542667,-0.34893 0.0018,-5.9e-4 0.238169,-0.23032 0.606049,-0.4775 0.367888,-0.24719 0.872469,-0.52114 1.432475,-0.66114 0.125326,-0.0313 1.187821,-0.0887 2.222176,-0.11018 1.034356,-0.0214 2.045953,-0.007 2.075255,0.11018 0.07768,0.31077 0.340449,0.97908 0.734604,1.59776 0.197059,0.30935 0.423176,0.60387 0.679507,0.8448 0.256337,0.24092 0.54246,0.42027 0.844793,0.49585 0.350805,0.0877 0.740875,0.29874 1.157001,0.56932 0.416125,0.27058 0.848713,0.60134 1.267192,0.91826 0.418476,0.31692 0.817506,0.61806 1.175364,0.84479 0.357858,0.22674 0.683985,0.38567 0.918254,0.38567 0.286607,0 0.536626,0.0468 0.771335,0.14692 0.234712,0.1001 0.445416,0.25194 0.642777,0.4224 0.394729,0.34088 0.732453,0.78683 1.065175,1.23046 0.342577,0.45677 0.84564,0.73278 1.377381,1.01008 0.531741,0.27729 1.093925,0.56133 1.561031,1.02844 0.193805,0.19381 0.477646,0.27424 0.789698,0.31221 0.312056,0.038 0.643102,0.0202 0.973351,0.0185 0.330247,-0.002 0.651497,0.0179 0.899887,0.0918 0.248396,0.074 0.429379,0.21159 0.495858,0.47749 0.169221,0.67689 0.444766,1.10545 0.734604,1.48757 0.28983,0.38212 0.592089,0.7067 0.844793,1.2121 0.183315,0.36662 0.425637,0.95904 0.697874,1.5243 0.272248,0.56526 0.572503,1.10509 0.881523,1.41411 0.519326,0.51932 0.905425,0.94605 1.138637,1.34065 0.233217,0.39461 0.31716,0.76989 0.220383,1.157 -0.111378,0.4455 -0.05084,0.73814 0.110177,0.95498 0.161016,0.21684 0.421473,0.34384 0.752968,0.44077 0.662992,0.19383 1.56229,0.25774 2.295634,0.62441 0.419935,0.20995 0.707201,0.41037 0.89989,0.60605 0.192693,0.19568 0.290768,0.40218 0.3673,0.58768 0.153075,0.371 0.195945,0.71016 0.550954,1.06517 0.853203,0.8532 1.323937,1.78305 2.258904,2.71804 0.272718,0.27272 0.444195,0.51149 0.550952,0.71624 0.106749,0.20473 0.143787,0.38329 0.165295,0.55095 0.04302,0.33531 -0.0024,0.6194 0.183667,0.99171 0.203212,0.40645 0.62654,1.05348 1.101903,1.67122 0.475367,0.61775 0.997186,1.20242 1.377381,1.48758 0.138542,0.18469 0.397709,0.68855 0.67951,0.89989 0.335149,0.25135 0.564745,0.51129 0.716238,0.75297 0.151493,0.24165 0.220559,0.48083 0.275471,0.69787 0.109796,0.43407 0.121458,0.80095 0.367299,1.04681 0.413618,0.41362 2.032895,1.34102 2.938414,2.02016 0.898279,0.6737 1.075678,0.90396 1.08354,1.157 0.0079,0.25302 -0.163038,0.54163 0.03672,1.34065 0.111261,0.44503 0.280804,0.75825 0.422396,1.12027 0.141619,0.36202 0.257099,0.76724 0.257099,1.35901 0,0.43069 0.237261,0.7798 0.440763,1.157 0.101768,0.18859 0.206348,0.38926 0.257099,0.60605 0.05078,0.21678 0.04984,0.44355 -0.01846,0.71624 -0.102265,0.40908 -0.380025,0.77893 -0.606049,1.13863 -0.113019,0.17986 -0.216369,0.3462 -0.275472,0.53259 -0.0591,0.18639 -0.06974,0.38216 -0.01846,0.58768 0.08129,0.32513 0.275735,0.7885 0.440763,1.24883 0.165031,0.46033 0.302421,0.9304 0.238756,1.24883 -0.07531,0.37649 -0.145076,0.74377 -0.220383,1.12027 0.292789,0.5856 0.3836,1.00094 0.440763,1.43247 0.05717,0.43154 0.06414,0.88101 0.220383,1.50594 0.08697,0.3478 0.205292,0.60959 0.330571,0.80806 0.125297,0.19847 0.259531,0.32652 0.404033,0.45913 0.289039,0.26521 0.611907,0.48922 0.86316,0.99171 0.216778,0.43355 0.353937,0.80665 0.569315,1.19374 0.215373,0.38708 0.507083,0.78255 1.010082,1.28555 0.600804,0.60081 1.413792,0.97303 2.258904,1.81815 0.629001,0.629 1.827292,1.36589 2.699667,2.02015 0.366614,0.27495 0.972891,0.45334 1.524303,0.69788 0.275706,0.12228 0.543128,0.26234 0.752968,0.44076 0.209834,0.17839 0.371504,0.40247 0.44076,0.67951 0.08269,0.33074 0.219914,0.67909 0.293841,1.02844 0.07393,0.34935 0.079,0.70514 -0.07346,1.01008 -0.1701,0.34018 -0.251004,0.55575 -0.257099,0.7346 -0.0062,0.17887 0.05696,0.30951 0.165295,0.44076 0.216632,0.26252 0.61447,0.54944 0.991715,1.30393 0.229027,0.45803 0.749771,0.82958 1.175367,1.21209 0.212794,0.19126 0.410591,0.37972 0.532585,0.58768 0.121986,0.20796 0.172298,0.43111 0.110206,0.67951 -0.07906,0.31625 0.164885,0.94867 0.257099,1.41411 0.04612,0.23272 0.06279,0.42898 -0.03672,0.51423 -0.0053,0.005 -0.03086,-0.004 -0.03672,0 0.257157,0.22348 0.535685,0.37961 0.826429,0.49585 0.310701,0.12422 0.643825,0.20175 0.973345,0.27547 0.65905,0.14745 1.33339,0.26956 1.9467,0.66115 0.2033,0.10165 0.95499,0.52114 0.95499,0.69787 0.0686,0.32866 0.13339,0.64469 0.20201,0.97335 0.0476,0.22806 0.25652,0.38853 0.55096,0.49586 0.29443,0.10733 0.66946,0.16755 1.06517,0.20201 0.79143,0.0689 1.64163,0.0455 1.96507,0.11017 0.60429,0.12088 0.96015,0.36899 1.359,0.58769 0.39886,0.21871 0.84722,0.40403 1.63451,0.40403 0.92569,0 1.50029,0.0167 2.00179,0.20201 0.50149,0.18531 0.92664,0.54097 1.5794,1.19373 0.51633,0.51633 1.07747,0.7528 1.59776,0.99171 0.26014,0.11947 0.49872,0.23096 0.7346,0.38567 0.23589,0.15472 0.46639,0.34637 0.66115,0.60605 0.22217,0.29621 0.48122,0.53032 0.77133,0.69787 0.29012,0.16755 0.60422,0.27366 0.93662,0.34894 0.6648,0.15058 1.39522,0.14692 2.07525,0.14692 1.0008,0 1.77848,-0.20201 3.17716,-0.20201 0.97452,-1e-5 1.75044,-0.38567 2.99351,-0.38567 0.97906,0 2.1226,-0.20201 3.17716,-0.20201 0.58726,0 1.13014,-0.0361 1.65286,0 0.5227,0.0361 1.0346,0.15 1.54266,0.40403 0.45927,0.22964 0.86857,0.36719 1.30392,0.45913 0.43536,0.0919 0.90038,0.12855 1.48758,0.12855 0.60587,0 1.22804,-0.0158 1.8365,0 0.60847,0.0158 1.20002,0.0658 1.74469,0.20201 0.6075,0.15187 0.99025,0.83983 1.59776,0.99171 0.22422,0.0561 0.43027,0.0278 0.64278,-0.0551 0.2125,-0.0828 0.43303,-0.21044 0.64277,-0.34893 0.41951,-0.27697 0.84166,-0.58769 1.30393,-0.58769 0.31485,0 0.61931,0.0879 0.91825,0.20201 0.29894,0.11417 0.58154,0.26323 0.86316,0.40404 0.21611,0.10803 0.35933,0.28177 0.44076,0.49585 0.0814,0.21409 0.11003,0.46717 0.12855,0.73461 0.037,0.53489 0.0226,1.11044 0.23876,1.54267 0.10311,0.2062 0.259,0.36577 0.45912,0.47749 0.20014,0.1117 0.44116,0.18053 0.67951,0.25709 0.47669,0.15317 0.97218,0.2923 1.24883,0.66115 0.1146,0.15281 0.0795,0.29505 0.0185,0.4224 -0.0612,0.12735 -0.15704,0.24535 -0.20201,0.38566 -0.045,0.14033 -0.0345,0.30414 0.12854,0.49586 0.16313,0.19173 0.48368,0.41631 1.04681,0.69787 0.25537,0.12768 0.37462,0.41323 0.49586,0.69788 0.12125,0.28464 0.24048,0.57019 0.49585,0.69787 0.13734,0.0687 4e-5,0.28283 -0.18363,0.62441 -0.18368,0.3416 -0.40404,0.80272 -0.40404,1.35902 0,0.16594 -0.0623,0.30246 -0.1653,0.4224 -0.10297,0.11993 -0.26034,0.2229 -0.42239,0.3122 -0.32406,0.17863 -0.71323,0.3107 -1.01008,0.45913 -0.12351,0.0618 -0.1798,0.12597 -0.18367,0.18364 -0.004,0.0577 0.0403,0.1083 0.12855,0.16529 0.17646,0.11399 0.52052,0.23592 0.89989,0.3673 0.37937,0.1314 0.79528,0.28339 1.157,0.45913 0.36172,0.17576 0.66618,0.37738 0.78971,0.62441 0.15987,0.31972 0.0997,0.77725 0.38567,0.99172 0.53828,0.40372 0.62949,0.59966 0.78969,0.69787 0.1602,0.0982 0.39988,0.0918 1.2121,0.0918 0.1417,0 0.18654,-0.0769 0.18364,-0.22039 -0.003,-0.14349 -0.0596,-0.35494 -0.12855,-0.56931 -0.13793,-0.42875 -0.3262,-0.91738 -0.2571,-1.19373 0.0411,-0.16433 0.42352,-0.40167 0.82642,-0.62442 0.40291,-0.22275 0.83387,-0.42983 0.97336,-0.56931 0.41757,-0.41757 0.54444,-0.69938 0.60605,-1.01008 0.0616,-0.3107 0.0511,-0.66363 0.18366,-1.19373 0.045,-0.18001 0.16864,-0.26704 0.33057,-0.31221 0.16193,-0.0451 0.36661,-0.0343 0.58769,-0.0185 0.44215,0.0319 0.93529,0.11085 1.26719,-0.0551 0.30148,-0.15073 0.32789,-0.42713 0.44076,-0.69787 0.0564,-0.13538 0.1318,-0.26352 0.27547,-0.38567 0.14367,-0.12216 0.359,-0.23207 0.67951,-0.31221 0.17505,-0.0438 1.59977,-0.99271 2.00179,-1.19372 0.63145,-0.31574 1.36183,-0.92955 1.98343,-1.39575 0.63239,-0.4743 1.12624,-0.92422 1.59776,-1.39575 0.16029,-0.16028 0.27808,-0.15826 0.38567,-0.0735 0.1076,0.0848 0.20374,0.25748 0.27547,0.45913 0.14347,0.40332 0.22935,0.90886 0.33057,1.01008 0.25605,0.25604 0.52945,0.35992 0.80807,0.3673 0.27863,0.007 0.56655,-0.0756 0.82642,-0.20201 0.51975,-0.25276 0.9602,-0.67293 1.15701,-0.77133 0.40225,-0.20113 0.69118,-0.34169 1.06517,-0.44077 0.37399,-0.0991 0.83378,-0.14692 1.5243,-0.14692 0.0801,10e-6 0.23184,-0.30734 0.51423,-0.60604 0.1412,-0.14936 0.3041,-0.29203 0.51422,-0.40404 0.21012,-0.11202 0.46172,-0.18363 0.75296,-0.18363 1.06207,0 2.13348,0 3.19553,0 0.25956,0 0.3887,-0.12044 0.44076,-0.31221 0.0521,-0.19179 0.0255,-0.45328 -0.0367,-0.71624 -0.12436,-0.52592 -0.38233,-1.07019 -0.40404,-1.157 -0.0905,-0.36197 0.0786,-0.61286 0.23876,-0.91825 0.08,-0.1527 0.16477,-0.32689 0.20201,-0.53259 0.0373,-0.2057 0.0208,-0.44951 -0.0551,-0.75297 -0.0307,-0.12275 0.0724,-0.25645 0.23876,-0.38567 0.1664,-0.12922 0.39781,-0.25329 0.64278,-0.3673 0.48994,-0.22803 1.02732,-0.40358 1.12027,-0.44076 0.25642,-0.10256 0.37001,-0.5277 0.44076,-0.99172 0.0708,-0.46401 0.089,-0.9619 0.14692,-1.19372 0.0301,-0.12052 0.2178,-0.22792 0.47749,-0.31221 0.25971,-0.0843 0.59156,-0.14297 0.93662,-0.20201 0.69011,-0.11809 1.41308,-0.19231 1.5794,-0.27547 0.13277,-0.0664 0.13564,-0.27128 0.20201,-0.40404 0.12239,-0.24479 0.31482,-0.32262 0.55095,-0.29384 0.23612,0.0287 0.50881,0.16981 0.80806,0.33057 0.29925,0.16076 0.62485,0.34469 0.93662,0.49586 0.31177,0.15117 0.60784,0.2571 0.88152,0.2571 0.82157,1e-5 1.39738,0.0478 1.72632,-0.0551 0.16448,-0.0515 0.26756,-0.14575 0.31221,-0.29384 0.0447,-0.14809 0.0363,-0.35085 -0.0367,-0.64278 -0.13218,-0.52871 -0.42816,-0.73893 -0.64277,-1.01008 -0.10731,-0.13558 -0.20292,-0.28165 -0.23876,-0.49586 -0.0358,-0.2142 -0.0234,-0.49337 0.0735,-0.88152 0.0526,-0.21027 0.42917,-0.4038 0.82643,-0.62441 0.39725,-0.22062 0.82273,-0.4701 0.97335,-0.77134 0.0594,-0.11876 0.27128,0 0.40403,0 0.19217,-0.38435 0.39575,-0.51109 0.60605,-0.47749 0.2103,0.0336 0.42506,0.22718 0.60605,0.47749 0.36197,0.50065 0.60934,1.23568 0.56932,1.39575 -0.0795,0.31801 -0.0966,0.52511 -0.0735,0.67951 0.0231,0.15439 0.0835,0.26146 0.18364,0.3673 0.20023,0.21168 0.54603,0.43091 0.89989,1.13863 0.20925,0.41848 0.34372,0.91439 0.44077,1.43248 0.097,0.51809 0.14692,1.06484 0.14692,1.56103 0,0.31311 0.13702,0.59852 0.33057,0.86316 0.19357,0.26463 0.43975,0.51321 0.66114,0.73461 0.21242,0.21238 0.79195,0.19782 1.37738,0.16529 0.58543,-0.0326 1.18036,-0.0985 1.4141,0.0185 0.36054,0.18027 0.66685,0.53526 0.89989,0.93662 0.23305,0.40137 0.39467,0.86243 0.49586,1.26719 0.23208,0.92833 0.19809,1.32827 0.14692,1.67122 -0.0512,0.34296 -0.11662,0.61706 0.0551,1.30393 0.14233,0.56929 0.29027,0.98753 0.40403,1.39574 0.11378,0.40822 0.18364,0.81001 0.18364,1.39575 1e-5,0.8667 -0.12298,1.24008 -0.0367,1.56103 0.0862,0.32095 0.38064,0.5931 1.23045,1.23046 0.23287,0.17464 0.39876,0.37631 0.49586,0.58768 0.0971,0.21136 0.12565,0.43401 0.11019,0.64278 -0.0155,0.20878 -0.0788,0.4025 -0.18364,0.56932 -0.10484,0.16682 -0.25133,0.30014 -0.42241,0.38567 -0.54711,0.27356 -0.90432,0.44705 -1.0468,0.71623 -0.14251,0.26918 -0.0634,0.64452 0.2571,1.28556 0.18443,0.36885 0.38509,0.57563 0.58769,0.71624 0.20259,0.14062 0.40976,0.20101 0.58768,0.27547 0.17792,0.0745 0.33038,0.16014 0.44076,0.33057 0.11038,0.17045 0.18364,0.43466 0.18364,0.86316 0,0.41005 0.0665,0.74315 0.18363,1.02844 0.1171,0.28529 0.2743,0.51263 0.4775,0.71624 0.4064,0.40722 0.95943,0.70789 1.5243,1.04681 0.79465,0.47679 1.01942,0.62874 1.2121,0.58768 0.19266,-0.0411 0.3482,-0.27512 0.97334,-0.58768 0.47807,-0.23902 0.85353,-0.3879 1.26719,-0.47749 0.41367,-0.0896 0.86916,-0.12855 1.52431,-0.12855 0.40513,0 0.7586,0.20063 1.08353,0.47749 0.32494,0.27688 0.61343,0.63179 0.89989,0.91826 0.58703,0.58701 0.6951,0.71621 0.82643,0.7346 0.13134,0.0185 0.29347,-0.0809 0.97335,0.0551 0.11493,0.0229 0.1299,0.0887 0.0918,0.18363 -0.0381,0.0949 -0.13556,0.22089 -0.20201,0.36731 -0.0665,0.14642 -0.10318,0.31846 -0.0735,0.49585 0.0297,0.1774 0.13518,0.36308 0.38567,0.55096 0.16673,0.12503 0.16761,1.91465 0.40403,2.38746 0.32637,0.65273 0.50695,1.09259 0.71624,1.4692 0.20931,0.37662 0.43362,0.69074 0.86316,1.12027 0.60106,0.60108 1.40072,0.99669 2.00179,1.59777 0.0996,0.0996 0.002,0.19427 -0.14692,0.29384 -0.14935,0.0996 -0.35956,0.21264 -0.45913,0.3122 -0.10446,0.10447 -0.15058,0.20254 -0.14692,0.29385 0.004,0.0913 0.0596,0.17443 0.14692,0.25709 0.17028,0.16117 0.49355,0.30516 0.8448,0.45913 1.90452,-0.81261 3.72645,-2.86034 3.96686,-4.55454 0.17191,-1.21153 1.84,-0.5986 1.157,-2.93841 -1.32916,-0.72404 -0.9702,-1.04939 -2.51602,-5.14223 0.8523,-3.36729 -2.18669,-4.70402 -2.69967,-6.06047 -0.21317,-0.50317 0.2944,-2.23765 0.27547,-4.02195 -0.0735,0 -0.14692,0 -0.22038,0 -0.69507,0 -1.4169,0.0723 -2.07525,0.0367 -0.32918,-0.0179 -0.64786,-0.0666 -0.93662,-0.16529 -0.28878,-0.0987 -0.54381,-0.24995 -0.77134,-0.47749 -0.43686,-0.43686 -0.65507,-0.64951 -0.77133,-0.8448 -0.11627,-0.1953 -0.14499,-0.37791 -0.23876,-0.75296 -0.1182,-0.47289 -0.31438,-0.85316 -0.53258,-1.23047 -0.21822,-0.3773 -0.45739,-0.74948 -0.66114,-1.157 -0.10807,-0.2161 -0.24937,-0.45744 -0.34894,-0.69787 -0.0996,-0.24043 -0.14479,-0.48176 -0.0367,-0.69787 0.13274,-0.26551 0.25291,-0.52419 0.38567,-0.7897 -0.18815,-0.75264 -0.78992,-2.03409 -0.99171,-2.18545 -0.79655,-0.5974 -1.59094,-1.20238 -2.38747,-1.79977 -1.15339,-0.86505 -2.1626,-1.94222 -3.19552,-2.97515 -0.63841,-0.6384 -1.37793,-1.194 -2.18544,-1.59776 -0.34145,-0.17071 -2.28273,-0.78229 -2.38747,-0.99171 -0.30272,-0.60546 -0.1013,-1.39634 -0.40403,-2.0018 -0.21253,-0.42503 -0.57041,-0.84151 -0.84479,-1.26719 -0.1372,-0.21285 -0.24421,-0.42327 -0.31221,-0.64277 -0.068,-0.21951 -0.0944,-0.44901 -0.0367,-0.67951 0.13578,-0.54318 0.0854,-0.75117 -0.0551,-0.99172 -0.14048,-0.24054 -0.3613,-0.50859 -0.53259,-1.19373 -0.117,-0.46807 -0.28848,-1.03283 -0.51422,-1.54266 -0.22575,-0.50984 -0.5076,-0.96837 -0.88153,-1.24883 -0.36113,-0.27087 -0.97827,-0.75956 -1.39574,-1.2121 -0.20872,-0.22627 -0.37053,-0.45111 -0.4224,-0.62441 -0.0519,-0.17329 10e-4,-0.29419 0.22038,-0.34894 0.12958,-0.0324 0.46375,-0.15219 0.56932,-0.34893 0.0528,-0.0984 0.0358,-0.20679 -0.0735,-0.34894 -0.10933,-0.14215 -0.32237,-0.30811 -0.69787,-0.49586 -0.2319,-0.11595 -0.783,-0.42628 -1.30392,-0.77133 -0.52092,-0.34505 -1.00952,-0.73239 -1.08354,-1.02844 -0.0871,-0.34828 -0.41754,-0.62598 -0.71624,-0.89989 -0.14936,-0.13696 -0.29542,-0.27615 -0.38567,-0.4224 -0.0902,-0.14625 -0.13535,-0.285 -0.0918,-0.45913 0.0581,-0.23219 -0.084,-0.40659 -0.33057,-0.53259 -0.24658,-0.126 -0.59665,-0.20625 -0.93662,-0.29384 -0.33997,-0.0876 -0.67779,-0.17689 -0.89989,-0.29384 -0.22208,-0.11691 -0.32741,-0.26343 -0.22038,-0.47749 0.10663,-0.21326 0.16514,-0.40738 0.16529,-0.58768 1.4e-4,-0.1803 -0.0531,-0.34731 -0.16529,-0.49586 -0.22449,-0.29709 -0.68644,-0.53891 -1.39575,-0.71624 -0.47318,-0.11829 -0.79306,-0.14402 -1.02844,-0.11018 -0.23539,0.0338 -0.3842,0.1345 -0.53259,0.23876 -0.14839,0.10426 -0.28368,0.21924 -0.49586,0.31221 -0.21218,0.093 -0.50984,0.16529 -0.93662,0.16529 -0.53102,0 -1.04836,0 -1.57939,0 -0.54648,0 -1.0686,0.0264 -1.54267,-0.0367 -0.47407,-0.0631 -0.90372,-0.22419 -1.24883,-0.56932 -0.24162,-0.24162 -1.79978,-1.56644 -1.79978,-1.78141 0,-0.41768 0.0431,-0.5277 -0.11017,-0.62441 -0.15337,-0.0967 -0.50503,-0.17907 -1.28556,-0.56932 -0.77645,-0.38822 -0.81104,-0.49891 -0.7897,-0.62441 0.0105,-0.0628 0.0379,-0.12152 0,-0.23876 -0.0379,-0.11723 -0.15216,-0.28074 -0.40403,-0.53258 -0.17224,-0.17224 -0.4488,-0.62346 -0.77133,-1.02845 -0.16126,-0.20251 -0.32383,-0.39148 -0.49586,-0.53258 -0.17203,-0.14112 -0.3493,-0.23876 -0.51422,-0.23876 -0.67793,0 -1.0805,-0.0914 -1.48758,-0.31221 -0.40706,-0.22082 -0.8251,-0.57292 -1.50593,-1.08354 -0.34036,-0.25528 -0.50544,-0.43726 -0.58768,-0.58768 -0.0823,-0.15041 -0.0856,-0.26102 -0.0551,-0.34893 0.0305,-0.0879 0.0939,-0.15261 0.0918,-0.22039 -0.002,-0.0678 -0.0588,-0.14874 -0.23876,-0.23875 -0.54736,-0.27369 -0.84837,-0.92005 -1.39574,-1.19373 -0.43638,-0.21819 -0.92239,-0.31048 -1.43248,-0.40404 -0.51008,-0.0936 -1.05073,-0.18153 -1.56103,-0.38566 -0.45593,-0.18238 -1.27999,-0.30225 -2.07525,-0.44077 -0.79527,-0.13851 -1.56429,-0.2917 -1.90997,-0.55095 -0.58331,-0.43748 -1.01381,-0.68687 -1.50594,-0.82643 -0.49213,-0.13953 -1.03979,-0.18363 -1.87324,-0.18363 -1.12842,0 -2.25075,0 -3.37917,0 -1.32757,0 -2.65764,0 -3.98523,0 -1.26118,0 -2.52202,0 -3.7832,0 -0.4738,0 -1.05315,0.0631 -1.61613,0.0918 -0.56298,0.0287 -1.11895,0.0232 -1.5794,-0.0918 -0.69551,-0.17389 -1.29882,-0.41897 -1.92833,-0.62442 -0.62951,-0.20544 -1.28779,-0.3673 -2.05689,-0.3673 -0.4239,0 -0.74019,-0.0436 -1.01008,-0.12855 -0.2699,-0.0849 -0.49221,-0.20289 -0.69787,-0.33057 -0.41132,-0.25537 -0.77614,-0.56134 -1.46921,-0.73461 -0.44973,-0.11243 -0.80992,-0.16385 -1.12027,-0.16529 -0.31035,-0.001 -0.57883,0.0449 -0.82643,0.12855 -0.4952,0.16735 -0.93037,0.49273 -1.63449,0.8448 -0.2716,0.13581 -0.81716,0.13142 -1.39575,0.14692 -0.57858,0.0155 -1.19669,0.0382 -1.59776,0.23875 -0.28159,0.1408 -0.66605,0.31797 -1.01008,0.51422 -0.34403,0.19624 -0.63683,0.4105 -0.77133,0.67951 -0.269,0.53802 -0.47871,1.67245 -0.80807,2.0018 -0.30306,0.30306 -0.57561,0.44063 -0.93661,0.51422 -0.36101,0.0736 -0.80833,0.0735 -1.45085,0.0735 -0.4344,0 -0.99868,0.0667 -1.54266,0.0735 -0.54399,0.007 -1.07416,-0.0495 -1.45084,-0.27547 -0.75567,-0.45339 -0.93798,-0.64832 -1.04681,-0.80806 -0.10883,-0.15976 -0.13049,-0.26774 -0.53259,-0.56932 -0.54862,-0.41147 -0.80449,-0.79367 -0.99172,-1.10191 -0.18721,-0.30824 -0.31049,-0.55009 -0.60604,-0.69787 -0.70598,-0.35299 -1.37566,-0.55272 -2.05689,-0.71624 -0.68123,-0.16351 -1.37944,-0.28977 -2.13035,-0.47749 -0.54321,-0.13579 -1.10458,-0.18619 -1.67122,-0.20201 -0.56665,-0.0158 -1.13246,0 -1.70796,0 -1.20262,0 -1.4101,-0.0179 -1.34065,-0.12855 0.0347,-0.0553 0.13245,-0.13087 0.22038,-0.23876 0.0879,-0.10789 0.16398,-0.24529 0.12855,-0.42239 -0.0559,-0.27969 -0.25839,-1.03774 -0.51422,-1.74469 -0.12791,-0.35347 -0.27096,-0.6926 -0.4224,-0.95498 -0.15143,-0.26237 -0.30176,-0.45652 -0.45912,-0.49586 -0.41564,0 -0.99845,0.0993 -1.39575,0 -0.51982,-0.12995 -1.13812,-0.33702 -1.68959,-0.58768 -0.55147,-0.25065 -1.04259,-0.54674 -1.30392,-0.80806 -0.3164,-0.31641 -0.68596,-0.81173 -1.13863,-1.23046 -0.22634,-0.20937 -0.46073,-0.39534 -0.73461,-0.53259 -0.27389,-0.13725 -0.58785,-0.22039 -0.91825,-0.22039 -0.47521,0 -0.978756,-0.0763 -1.414119,-0.23875 -0.43536,-0.16242 -0.800376,-0.40702 -0.973348,-0.75297 -0.14405,-0.2881 -0.32305,-0.50622 -0.532588,-0.67951 -0.209541,-0.17329 -0.438515,-0.30939 -0.697874,-0.4224 -0.518716,-0.22598 -1.120639,-0.38584 -1.744682,-0.69787 -0.346721,-0.17335 -0.534962,-0.62029 -0.734602,-1.04681 -0.09983,-0.21326 -0.193425,-0.41759 -0.330571,-0.58768 -0.137165,-0.1701 -0.308701,-0.29297 -0.532588,-0.34894 -0.384981,-0.0963 -0.635961,-0.20573 -0.789699,-0.3122 -0.153749,-0.10649 -0.21001,-0.22261 -0.238756,-0.34894 -0.05749,-0.25267 0.02962,-0.54674 -0.165294,-0.93662 -0.115744,-0.23149 -0.74169,-1.78472 -1.193731,-2.38746 -0.317406,-0.42321 -1.310384,-3.0231 -1.597761,-3.19552 -0.211856,-0.26481 -0.208985,-0.39034 -0.257099,-0.51423 -0.04814,-0.12389 -0.140388,-0.24218 -0.532588,-0.47749 -0.458893,-0.27535 -0.967625,-0.46861 -1.395748,-0.7897 -0.41432,-0.31074 -0.625581,-0.52092 -0.716237,-0.66114 -0.09066,-0.14021 -0.07328,-0.21792 0,-0.27547 0.07328,-0.0576 0.197967,-0.10247 0.275471,-0.1653 0.07751,-0.0628 0.11469,-0.13789 0.03672,-0.29384 -0.163946,-0.32789 -0.07437,-0.75615 -0.01846,-1.157 0.02784,-0.20043 0.03572,-0.39089 0.01846,-0.56932 -0.01729,-0.17842 -0.07241,-0.34788 -0.20201,-0.47749 -0.04891,-0.0243 -1.300685,-0.49263 -1.395748,-0.58768 -0.273684,-0.27368 -0.567232,-0.57778 -0.899887,-0.80807 -0.332658,-0.23028 -0.696499,-0.38566 -1.083542,-0.38566 -0.439779,0 -1.143282,-0.05 -1.781411,-0.20201 -0.319065,-0.076 -0.614998,-0.18253 -0.863159,-0.31221 -0.248162,-0.12969 -0.454026,-0.28365 -0.550952,-0.47749 -0.197234,-0.39447 -0.379768,-0.84729 -0.477494,-1.24883 -0.09772,-0.40153 -0.09805,-0.76512 0.09183,-0.95498 0.40676,-0.40676 0.53897,-0.62924 0.495857,-0.77133 -0.04313,-0.14209 -0.264131,-0.19973 -0.550952,-0.22039 -0.286811,-0.0208 -0.649035,-0.0126 -0.973348,-0.0551 -0.324312,-0.0425 -0.615692,-0.14141 -0.771334,-0.34894 -0.418837,-0.55843 -1.129202,-0.95466 -1.597761,-1.57939 -0.286402,-0.38187 -0.695413,-0.73578 -1.157001,-1.01008 -0.461591,-0.2743 -0.976495,-0.47369 -1.432478,-0.58768 -0.300463,-0.0751 -0.494653,-0.17116 -0.642777,-0.27548 -0.148123,-0.10431 -0.244205,-0.22428 -0.312207,-0.36729 -0.136022,-0.28605 -0.17347,-0.65918 -0.422397,-1.15701 -0.235942,-0.47187 -0.573183,-0.76025 -0.89989,-1.06517 -0.326704,-0.30493 -0.650445,-0.62138 -0.899887,-1.12027 -0.233276,-0.46654 -0.591357,-0.91128 -0.881523,-1.34065 -0.290182,-0.42938 -0.514225,-0.84412 -0.514225,-1.24883 0,-0.49479 -0.155214,-1.04528 -0.459126,-1.469206 -0.151933,-0.211974 -0.347239,-0.38617 -0.569319,-0.514222 -0.222082,-0.128051 -0.48302,-0.20201 -0.771332,-0.20201 -0.32578,-0.162892 -0.473297,-0.300604 -0.550951,-0.422396 -0.07765,-0.121781 -0.0819,-0.235474 -0.07346,-0.367303 0.0085,-0.131831 0.03074,-0.284438 -0.03675,-0.47749 -0.06748,-0.193044 -0.227181,-0.429192 -0.532588,-0.734605 -0.09362,-0.09362 -2.773116,-1.891634 -2.773128,-1.983429 0,-0.432594 -0.102441,-0.523261 -0.20201,-0.606046 -0.09957,-0.08278 -0.202011,-0.156621 -0.202011,-0.587683 0,-0.565646 -0.133032,-0.899397 -0.404032,-1.983431 -0.103086,-0.412294 -0.117708,-0.937001 -0.146922,-1.469206 -0.0293,-0.532206 -0.06039,-1.078392 -0.238756,-1.524302 -0.132769,-0.331888 -0.271281,-0.659821 -0.404033,-0.991715 -0.587477,-0.587483 -0.803221,-0.60573 -1.395747,-1.395746 -0.166379,-0.221845 -0.284321,-0.22031 -0.40403,-0.312206 -0.1197,-0.09189 -0.234331,-0.276152 -0.385669,-0.881524 -0.04204,-0.168169 -0.57083,-1.105634 -1.01004,-2.203637 -0.106446,-0.266162 -0.285923,-0.804473 -0.550942,-1.285556 -0.132505,-0.240537 -0.286431,-0.460643 -0.459127,-0.624413 -0.172708,-0.163771 -0.356082,-0.275477 -0.569318,-0.275477 -0.263839,0 -0.395905,0 -0.697874,0 z"
       id="Molina"
       inkscape:label="#path2920" />
  </g>
</svg>
