<?xml version="1.0" encoding="UTF-8" standalone="no"?>
<!-- Created with Inkscape (http://www.inkscape.org/) -->

<svg
   width="210mm"
   height="297mm"
   viewBox="0 0 210 297"
   version="1.1"
   id="svg64"
   inkscape:version="1.1.2 (b8e25be833, 2022-02-05)"
   sodipodi:docname="vector.svg"
   xmlns:inkscape="http://www.inkscape.org/namespaces/inkscape"
   xmlns:sodipodi="http://sodipodi.sourceforge.net/DTD/sodipodi-0.dtd"
   xmlns="http://www.w3.org/2000/svg"
   xmlns:svg="http://www.w3.org/2000/svg">
  <sodipodi:namedview
     id="namedview66"
     pagecolor="#ffffff"
     bordercolor="#666666"
     borderopacity="1.0"
     inkscape:pageshadow="2"
     inkscape:pageopacity="0.0"
     inkscape:pagecheckerboard="0"
     inkscape:document-units="mm"
     showgrid="false"
     inkscape:zoom="0.74029882"
     inkscape:cx="361.34057"
     inkscape:cy="669.99972"
     inkscape:window-width="1920"
     inkscape:window-height="1017"
     inkscape:window-x="-8"
     inkscape:window-y="-8"
     inkscape:window-maximized="1"
     inkscape:current-layer="layer1" />
  <defs
     id="defs61" />
  <g
     inkscape:label="Capa 1"
     inkscape:groupmode="layer"
     id="layer1">
    <path
       sodipodi:nodetypes="cccccccccccssssssssssssssscccccccccccccccc"
       d="m 66.945223,95.774577 h -9.32774 l -9.79406,-6.99572 6.99573,0.46631 1.86559,-10.26037 -8.86132,-1.86559 -3.73107,6.99572 h -6.99573 l -3.26476,5.13024 -1.39916,7.46215 -5.92309,4.127553 c -0.66167,2.64794 -2.67703,5.35406 -4.0575,8.11511 -1.05499,2.10988 -2.34861,5.14683 -6.76256,3.38123 -5.9115402,-2.36458 -3.54634,-5.41004 -6.0863002,-5.41004 -2.91166,0 -9.17692999,-1.54221 -8.11511,2.70507 1.08157,4.32647 1.91307,5.97067 4.73377,8.79127 2.18445,2.18455 6.5487302,3.77424 6.0863002,6.0864 -0.47052,2.35092 -2.09707,6.49601 -2.7049602,10.1438 -0.31719,1.90487 -3.02257,9.8264 -1.35254,11.49643 4.6522702,4.65227 1.35254,4.89352 1.35254,9.46753 0,5.69897 -1.56049,4.57865 -0.67638,8.11521 0.89063,3.56398 -0.64906,5.47946 0.67638,8.79126 1.9145302,4.7866 4.9548402,6.52847 6.7625602,10.14391 1.91149,3.82307 0.95154,5.8858 5.41003,8.1151 3.2009,1.60039 10.61348,2.44208 9.46764,4.73376 -1.31052,2.62105 -0.45056,8.1151 -3.38134,8.1151 -6.25749,0 -3.32766,2.94096 -2.70496,6.0863 l -3.06457,9.09553 c 4.15454,-1.95822 10.19326,-1.03662 15.02901,-1.03662 5.32643,0.47368 10.64761,0.51779 15.99158,0.51779 5.37821,-0.20271 9.51794,-3.98902 13.9926,-6.51502 4.2622,-3.0253 8.15124,1.47258 12.9561,2.51717 7.28823,1.95938 7.29243,-5.61178 9.5505,-10.51296 1.39465,-5.18076 5.05641,-6.81246 6.51513,-11.99364 4.793307,-9.86862 7.291057,-7.62641 12.956097,-5.99681 4.33298,0 9.02043,1.2139 10.51296,-2.51728 5.05021,-0.15229 -4.83816,-4.45765 15.99148,-3.47964 1.1701,0 4.82776,-1.94899 6.51512,-2.96134 5.22403,-0.63436 10.45457,1.86538 15.99148,1.99887 4.22953,0 5.10346,-1.66446 8.5141,-2.51718 9.12892,-3.67142 15.72155,1.26348 22.95075,2.51718 3.69495,9.17146 1.74744,-0.36234 17.99056,-5.03435 l 1.04817,-30.71686 -2.71085,-4.87954 h -8.13253 l 0.54193,-14.09648 -10.84348,-28.192953 -8.67468,3.79514 h -34.15691 l -3.79514,-2.71085 -3.79524,3.795253 -7.04824,-4.337403 -8.67479,5.963843 -10.84338,-4.879543 -7.04824,6.506093 -16.807317,-0.54194 -2.1687,-2.16869 -13.55433,-1.0843 z"
       style="fill:#000000;fill-opacity:1;fill-rule:evenodd;stroke:#d38d5f;stroke-width:2.77883;stroke-linecap:butt;stroke-linejoin:miter;stroke-miterlimit:4;stroke-opacity:1"
       id="Llaillay" />
  </g>
</svg>
