<?xml version="1.0" encoding="UTF-8" standalone="no"?>
<!-- Created with Inkscape (http://www.inkscape.org/) -->

<svg
   width="210mm"
   height="297mm"
   viewBox="0 0 210 297"
   version="1.1"
   id="svg53"
   inkscape:version="1.1.2 (b8e25be833, 2022-02-05)"
   sodipodi:docname="vector.svg"
   xmlns:inkscape="http://www.inkscape.org/namespaces/inkscape"
   xmlns:sodipodi="http://sodipodi.sourceforge.net/DTD/sodipodi-0.dtd"
   xmlns="http://www.w3.org/2000/svg"
   xmlns:svg="http://www.w3.org/2000/svg">
  <sodipodi:namedview
     id="namedview55"
     pagecolor="#ffffff"
     bordercolor="#666666"
     borderopacity="1.0"
     inkscape:pageshadow="2"
     inkscape:pageopacity="0.0"
     inkscape:pagecheckerboard="0"
     inkscape:document-units="mm"
     showgrid="false"
     inkscape:zoom="0.74029882"
     inkscape:cx="178.98178"
     inkscape:cy="237.74183"
     inkscape:window-width="1920"
     inkscape:window-height="1017"
     inkscape:window-x="-8"
     inkscape:window-y="-8"
     inkscape:window-maximized="1"
     inkscape:current-layer="layer1" />
  <defs
     id="defs50" />
  <g
     inkscape:label="Capa 1"
     inkscape:groupmode="layer"
     id="layer1">
    <path
       d="m 86.898779,71.202422 13.05902,40.331828 c 3.018371,3.44597 1.761461,6.29657 1.803651,6.61337 l -3.408771,18.83846 10.122531,36.97758 33.56654,51.30182 -14.32765,10.02217 2.70378,28.35526 -9.31715,13.72987 0.0173,8.61123 c -3.10449,0.41154 -6.31242,0.75132 -9.41835,1.44137 -5.49618,3.34946 -5.37157,1.16312 -10.4793,-0.34928 -1.822361,0 -2.960801,1.82962 -4.191721,2.4451 -0.8001,-1.00583 -1.15809,-2.09452 -1.42397,-3.34339 0.11143,-0.93914 0.21843,-1.78666 0.0908,-2.72491 -4.48104,-4.40725 -3.37073,-4.41197 -3.72412,-6.08576 -0.097,-2.35826 0.96408,-0.42067 -1.72582,-5.72252 0.43451,-0.869 0.45341,-0.8396 1.27166,-1.4533 0.78065,-0.58547 1.57972,-0.2171 2.2708,-0.90833 2.5292,-1.55629 2.43829,-3.73998 2.27081,-5.72243 1.90714,-1.30354 -3.69423,-8.46885 -4.17828,-8.71986 0.52033,-0.83252 2.08,-4.00427 -1.81666,-8.99248 1.0044,-3.12038 -0.0982,-5.5383 -2.72497,-7.44831 0.14647,-1.2455 0.30752,-2.4967 -0.72665,-3.26987 -0.18814,-4.53349 -2.52399,-4.34196 -3.81497,-6.44914 7.08409,-6.82416 -1.23772,-11.00657 -3.0883,-11.71739 -1.64256,-0.32924 -2.61404,-6.36261 -3.81496,-10.44571 1.23044,-2.28542 0.22185,-9.94553 2.27142,-10.14382 5.7209,-0.55355 0.0268,-13.73247 0.36272,-22.82834 -1.86268,-2.23972 -3.55038,-4.71272 -6.81243,-5.08662 -0.79535,-2.26733 -2.11475,-3.66126 -3.6333,-4.72329 4.83922,-3.69868 1.77996,-7.70119 0.72666,-11.62654 4.66227,-3.23128 2.36405,-5.74252 0.18166,-8.26574 0.67648,-2.2706 2.7827,-3.46889 0.8175,-7.72075 3.48476,-5.20379 -1.30263,-6.7842 -0.8175,-13.80652 2.20834,-6.81734 0.98551,-11.57598 0.99916,-17.0765 0.58349,-3.77646 3.96051,-2.99577 5.6316,-6.721591 1.6711,-3.725829 2.49203,-13.015277 1.27166,-19.710637 -4.13834,-1.69313 -3.34823,-4.12227 -4.45079,-5.99493 -1.10256,-1.87267 7.77713,-6.90439 7.81159,-8.62908 3.05417,-34.32425 -3.9864,-12.45952 -4.99579,-32.2455 2.05812,-20.51128 2.39795,-5.23956 5.72245,-17.53066 4.64399,-12.87417 2.53576,-13.52201999 2.52016,-13.67022999 l 6.85918,4.28699019 -1.36549,7.8435998 -3.14378,8.38343 v 5.23966 l 1.39723,2.09586 -0.69862,25.84895 -2.09585,3.4931 v 4.54103 l 2.44517,8.73275"
       style="fill:#000000;fill-opacity:1;fill-rule:evenodd;stroke:#d38d5f;stroke-width:0.761813px;stroke-linecap:butt;stroke-linejoin:miter;stroke-opacity:1"
       id="Iquique" />
  </g>
</svg>
