<?xml version="1.0" encoding="UTF-8" standalone="no"?>
<!-- Created with Inkscape (http://www.inkscape.org/) -->

<svg
   width="210mm"
   height="297mm"
   viewBox="0 0 210 297"
   version="1.1"
   id="svg64"
   inkscape:version="1.1.2 (b8e25be833, 2022-02-05)"
   sodipodi:docname="vector.svg"
   xmlns:inkscape="http://www.inkscape.org/namespaces/inkscape"
   xmlns:sodipodi="http://sodipodi.sourceforge.net/DTD/sodipodi-0.dtd"
   xmlns="http://www.w3.org/2000/svg"
   xmlns:svg="http://www.w3.org/2000/svg">
  <sodipodi:namedview
     id="namedview66"
     pagecolor="#ffffff"
     bordercolor="#666666"
     borderopacity="1.0"
     inkscape:pageshadow="2"
     inkscape:pageopacity="0.0"
     inkscape:pagecheckerboard="0"
     inkscape:document-units="mm"
     showgrid="false"
     inkscape:zoom="0.74029882"
     inkscape:cx="361.34057"
     inkscape:cy="345.8063"
     inkscape:window-width="1920"
     inkscape:window-height="1017"
     inkscape:window-x="-8"
     inkscape:window-y="-8"
     inkscape:window-maximized="1"
     inkscape:current-layer="layer1" />
  <defs
     id="defs61" />
  <g
     inkscape:label="Capa 1"
     inkscape:groupmode="layer"
     id="layer1">
    <path
       id="Monte_Patria"
       style="fill:#000000;fill-opacity:1;stroke:#d38d5f;stroke-width:1.18093;stroke-miterlimit:4;stroke-opacity:1"
       d="m 24.612023,124.16727 c 4.281505,-1.89134 -5.636174,6.96387 -2.601895,7.80566 1.814581,1.65492 1.425274,4.38218 0.120956,6.24465 -1.815385,2.85591 -5.147552,4.87505 -8.374844,5.80055 -3.325735,-0.10239 -6.244225,1.17701 -7.654797,4.31629 -2.323222,3.40357 2.921404,5.13524 4.738338,7.19668 -0.04463,2.94088 -0.06284,6.08151 1.754032,8.82629 0.94811,4.43349 4.254712,1.86117 4.965385,-1.11694 1.251279,-2.82234 4.659498,-4.67104 7.641702,-4.29622 1.895958,2.57059 2.711176,5.92762 5.852423,7.65469 2.5604,2.19056 5.094448,4.76257 8.277976,5.97958 3.320158,0.18921 5.869168,-4.09503 9.143248,-0.94762 2.55888,1.13451 7.60096,-0.75818 8.03708,3.11982 -2.05928,3.36462 1.45848,5.36145 4.49161,5.51146 4.69825,1.07682 1.33266,-2.92432 0.38911,-4.88339 0.86304,-2.69053 5.96573,-4.11387 8.39762,-1.85473 3.79526,2.58716 -0.58233,6.85471 1.2589,10.09545 1.52294,3.17016 5.13096,5.00577 6.19105,8.36624 -1.8698,2.72417 0.92241,4.24908 3.31273,4.60078 2.39032,0.35166 0.5515,2.24822 4.77013,1.73457 0.44219,8.29802 3.83536,14.18161 16.912283,12.14215 l 7.37201,10.40755 c 4.9256,6.15846 8.78522,3.78899 12.5758,0.86729 0.88118,3.3573 -0.34127,7.24052 4.77013,9.54026 l -0.43366,13.87675 3.90283,3.03553 -0.43366,9.54024 12.52143,4.4992 c 1.48636,-2.31095 5.20802,-9.90218 4.23112,-18.65601 -2.12993,-19.08581 2.34251,-27.71672 8.79436,-30.84169 2.30545,-1.11665 5.31465,-11.79686 5.73488,-7.05043 0.24214,2.73515 4.92547,11.36158 8.94728,12.82943 4.05309,1.47927 -1.87854,8.01328 4.27594,5.58521 11.51945,-4.54464 5.30998,-6.38887 7.34971,-13.27766 1.85843,-6.2765 10.56948,-18.09358 12.61039,-19.46918 3.95101,-2.66302 10.1124,1.61356 10.50379,-2.38695 0.32672,-3.33905 -1.20792,-3.45641 -3.44977,-5.48526 -4.83332,5.54592 -1.65122,-9.38842 -5.79585,-15.77319 -5.94501,0.0787 -7.07012,-6.73336 -1.32508,-11.19689 3.64514,-2.832 1.23372,-11.53501 3.47232,-19.31471 1.46344,-5.08578 4.12092,-9.19824 2.63967,-12.79124 -1.0255,-2.48756 -0.28119,-5.06431 0.68749,-5.66314 0.9353,-0.57805 1.70054,-2.72706 1.70054,-4.77559 0,-2.04855 4.01372,-8.52926 5.21248,-9.52417 2.91279,-5.356258 -0.12586,-9.344118 1.19051,-15.301208 -0.49873,8.97062 0.004,0.66988 -4.16672,0.54386 -4.17274,-0.126 -2.12049,-5.97924 -6.25557,-5.83855 -6.49668,3.50149 -8.22413,-6.386853 -13.78742,-4.180643 -4.50798,-0.725929 -7.34289,-8.286452 -13.78777,-5.928582 -6.45427,-2.752475 -4.03179,-12.381714 -7.66923,-17.211444 -4.45782,-7.230172 -15.33311,0.61368 -20.56488,-6.58353 0.56009,-4.670281 -3.35595,-8.260377 -8.26455,-10.117909 -1.37387,-4.33191 -7.40333,-5.652354 -10.99324,-2.269264 -5.37835,5.894093 -11.80199,0.181926 -17.51565,-1.251123 -5.43294,-6.152205 -3.83392,7.025942 -9.650273,3.413891 -4.08709,6.003856 -10.56288,7.410661 -17.45729,5.34394 -3.04271,6.262365 -9.9912,2.396001 -14.50947,5.950126 -5.93783,0.367423 -10.22971,3.450558 -10.85168,9.866395 -4.32421,-2.488312 -10.78355,1.859327 -15.945132,3.8444 -7.171595,3.73556 -0.155013,14.329433 -7.679476,17.918443 -3.91123,-2.683922 -11.203741,-3.208469 -10.329959,3.77283 5.431649,4.32147 1.081154,9.29501 -1.989063,12.86292 L 17.373442,105.96241 0.67514496,119.41382 C 3.861093,130.58434 12.177471,131.49398 24.612032,124.16727 Z"
       sodipodi:nodetypes="ccccccccccccccccccccccccccccssssssssccsssssccsccccccccccccccccccc" />
  </g>
</svg>
