<?xml version="1.0" encoding="UTF-8" standalone="no"?>
<!-- Created with Inkscape (http://www.inkscape.org/) -->

<svg
   width="210mm"
   height="297mm"
   viewBox="0 0 210 297"
   version="1.1"
   id="svg1283"
   inkscape:version="1.1.2 (b8e25be833, 2022-02-05)"
   sodipodi:docname="vector.svg"
   xmlns:inkscape="http://www.inkscape.org/namespaces/inkscape"
   xmlns:sodipodi="http://sodipodi.sourceforge.net/DTD/sodipodi-0.dtd"
   xmlns="http://www.w3.org/2000/svg"
   xmlns:svg="http://www.w3.org/2000/svg">
  <sodipodi:namedview
     id="namedview1285"
     pagecolor="#ffffff"
     bordercolor="#666666"
     borderopacity="1.0"
     inkscape:pageshadow="2"
     inkscape:pageopacity="0.0"
     inkscape:pagecheckerboard="0"
     inkscape:document-units="mm"
     showgrid="false"
     inkscape:zoom="0.52347032"
     inkscape:cx="155.69173"
     inkscape:cy="611.30496"
     inkscape:window-width="1920"
     inkscape:window-height="1017"
     inkscape:window-x="-8"
     inkscape:window-y="-8"
     inkscape:window-maximized="1"
     inkscape:current-layer="layer1" />
  <defs
     id="defs1280" />
  <g
     inkscape:label="Capa 1"
     inkscape:groupmode="layer"
     id="layer1">
    <path
       id="Maria_Pinto"
       style="fill:#000000;fill-opacity:1;fill-rule:evenodd;stroke:#d38f61;stroke-width:0.96033;stroke-linecap:butt;stroke-linejoin:miter;stroke-miterlimit:4;stroke-opacity:1"
       d="m 41.697814,82.839157 c 3.18625,-3.75052 -2.07761,6.78912 7.56554,2.90986 5.55915,5.65006 16.01642,4.02557 19.89652,11.66163 1.18941,5.417923 8.26273,5.841743 12.79412,7.233933 5.87702,1.20241 15.1444,4.65141 19.292706,9.42711 4.01762,4.78095 7.04471,0.85989 11.15194,-2.04735 7.75895,0.26941 15.57538,1.18675 23.22481,1.69307 5.68616,0.15099 9.78589,-6.8558 15.54056,-4.59848 3.78704,5.12093 10.17381,-0.0318 14.11338,-2.60493 3.36596,-3.32908 14.12315,-8.818843 11.12561,0.42199 -2.24395,5.37802 -0.55853,13.30153 -6.98099,14.77526 -1.52538,5.94251 5.18069,9.9978 7.19795,15.14679 -1.01813,5.36713 2.14959,10.29773 6.98719,12.79251 5.80507,2.55931 6.30166,9.12385 10.26184,13.20878 2.80314,2.85368 6.18925,5.0483 9.03328,7.85707 2.84403,2.80878 9.40037,3.12182 5.3145,4.83809 -4.08587,1.71636 -7.75328,5.18078 -11.71612,7.38318 -6.27591,3.54341 -13.66739,3.59348 -20.99612,3.64609 -7.8219,-1.45028 -15.66577,-3.11371 -23.6563,-4.11974 -2.56821,5.98956 -6.76595,-0.91846 -11.14397,0.65564 -6.02096,2.88396 -19.23643,-3.05935 -20.18836,5.97684 -2.52197,-1.52975 -11.06768,-1.52053 -15.73398,-3.33408 -7.342976,0.3314 -17.233566,-12.36114 -20.630266,-0.9601 -1.54081,7.20953 -8.05648,8.55237 -12.29567,13.82072 0.0913,7.47282 -8.32243,3.29276 -10.37133,6.42943 5.78039,4.20391 -0.53707,5.42706 -5.01152,5.72953 -6.54998,-7.42029 -9.39143,4.83992 -16.52121,4.16393 -7.725798,-2.34752 -25.140721,0.51498 -22.696666,-4.07373 -2.437602,-4.46179 -3.368615,-8.9235 -1.16393,-13.38521 -1.054965,-13.45706 -3.219748,-20.25516 -5.819647,-24.44262 -13.8498057,0.0556 -4.3983407,-10.24488 -5.8196637,-15.71302 -6.496502,-8.53552 -4.94834098,-17.07104 4.073753,-25.60648 -3.94965,-3.73089 0.656438,-14.13098 0.581973,-23.86065 -0.09306,-6.87153 -9.06534298,-16.280133 0.581973,-20.368723 1.2343887,-4.70887 3.4575197,-7.44016 9.3114437,-2.90987 11.035126,2.19367 19.403544,2.25399 22.696664,-1.74591 z"
       sodipodi:nodetypes="cccccccccccccccccccccccccccccccccccc"
       inkscape:label="#path6598" />
  </g>
</svg>
