<?xml version="1.0" encoding="UTF-8" standalone="no"?>
<!-- Created with Inkscape (http://www.inkscape.org/) -->

<svg
   width="210mm"
   height="297mm"
   viewBox="0 0 210 297"
   version="1.1"
   id="svg1283"
   inkscape:version="1.1.2 (b8e25be833, 2022-02-05)"
   sodipodi:docname="vector.svg"
   xmlns:inkscape="http://www.inkscape.org/namespaces/inkscape"
   xmlns:sodipodi="http://sodipodi.sourceforge.net/DTD/sodipodi-0.dtd"
   xmlns="http://www.w3.org/2000/svg"
   xmlns:svg="http://www.w3.org/2000/svg">
  <sodipodi:namedview
     id="namedview1285"
     pagecolor="#ffffff"
     bordercolor="#666666"
     borderopacity="1.0"
     inkscape:pageshadow="2"
     inkscape:pageopacity="0.0"
     inkscape:pagecheckerboard="0"
     inkscape:document-units="mm"
     showgrid="false"
     inkscape:zoom="0.52347032"
     inkscape:cx="155.69173"
     inkscape:cy="611.30496"
     inkscape:window-width="1920"
     inkscape:window-height="1017"
     inkscape:window-x="-8"
     inkscape:window-y="-8"
     inkscape:window-maximized="1"
     inkscape:current-layer="layer1" />
  <defs
     id="defs1280" />
  <g
     inkscape:label="Capa 1"
     inkscape:groupmode="layer"
     id="layer1">
    <path
       id="Pirque"
       style="fill:#000000;fill-opacity:1;stroke:#d38d5f;stroke-width:1.30817;stroke-miterlimit:4;stroke-dasharray:none;stroke-opacity:1"
       d="m 168.94429,12.782096 0.4904,0.58567 c 0.58892,12.0721 1.90912,16.10609 3.47019,17.48767 1.92005,-0.0325 2.02268,10.84078 2.56657,19.06584 0.38323,4.91326 4.64629,1.02628 8.06625,0.7329 4.10901,-1.29042 -0.0433,12.32185 5.49979,16.68267 8.59942,1.47165 3.53882,6.98909 9.89959,9.34953 -0.56619,6.37949 -5.294,3.83318 -6.59969,13.0161 -14.39703,-0.20461 -9.59733,1.5339 -11.9162,13.016104 -22.88852,20.4131 17.92383,21.52296 26.94881,32.26533 0.12666,2.86232 -1.21151,4.82925 -1.55079,7.22011 -0.94725,6.67937 1.52372,5.53465 -2.39151,14.13743 -1.55912,3.4258 3.09508,6.124 2.49392,11.90776 -0.19161,1.84232 3.6473,1.47186 3.4153,5.59679 -5.92871,7.68898 1.88303,6.95867 -7.14952,23.07364 2.92543,2.74659 1.62212,6.70156 1.78732,10.23691 2.68977,4.11335 3.79161,7.962 1.29996,11.21178 1.6061,8.77447 4.37208,16.57397 -1.46234,25.34844 l -0.81301,14.46166 c -3.41769,5.27116 -4.51433,2.99905 -6.33717,3.08728 -7.83631,-0.54994 0.47958,6.59461 -19.17388,14.46166 -0.78703,4.31037 -2.1187,-6.4478 -8.67109,8.21749 -8.47199,6.39855 -6.56288,-3.80102 -13.68231,0.35075 l -3.15743,2.80657 c -2.11351,-4.87114 -4.71656,-9.66077 -1.40334,-15.4364 -3.86912,0.60515 -3.57812,-7.11067 -3.85905,-13.68232 -1.91485,0.0974 -4.28168,1.25882 -3.50829,-4.91152 -14.22479,-4.39428 -13.31868,7.86803 -27.36452,-1.05226 -7.25259,8.0421 -3.27392,-5.69055 -12.9807,-11.2265 1.87112,-5.37942 0,-7.95204 -5.613246,-7.71821 2.47898,-3.79885 10.297216,-9.12327 0.70151,-9.4724 2.275886,-2.81296 -2.24623,-2.7126 -6.31487,-2.80657 -2.10506,-6.03924 -4.21002,-5.20631 -6.31497,-5.96411 -1.9246,0.15048 -3.21806,-2.8541 -4.20991,-7.36734 -9.36415,6.59784 -7.54954,-3.0337 -17.89222,-0.70151 -3.58462,3.04744 -7.21449,5.89158 -12.62973,0.70151 l -1.7542,-21.04966 c -5.51333,-8.96468 -15.73942,-3.26721 -13.68232,-35.78445 l -6.66573,-2.10495 -0.7015,-9.47241 c -6.74259,2.2602 -2.92143,-3.02536 -3.85916,-4.91152 -3.77103,1.92882 -5.78007,0.33343 -7.7182,-1.40334 -2.08915,-4.52278 -4.69371,-6.4687 -7.7182096,-6.31487 l 1.40334,-6.31497 c -3.87409,0.18837 -2.71801,-6.14003 -7.36734,-13.68221 -3.76378,-3.74537 -0.79136,-7.490754 -0.3356,-11.236134 9.6030796,-5.75106 8.4399596,-4.01147 9.8112496,-3.51565 l -0.36807,-3.1478 c 5.70343,-6.20996 2.19611,-9.79101 3.06595,-9.89299 0.41679,-0.50014 1.01221,-0.90719 1.22645,-1.5943 -0.11042,0.0758 1.73894,-2.61755 1.63523,-2.53463 l 0.16347,-0.24466 c 0.0541,-0.001 0.10825,3.2e-4 0.16346,0 1.98198,-1.34456 4.92712,-1.33048 7.23581,-0.65387 1.55739,0.76754 3.08978,1.09989 4.61945,1.06308 0.76538,-0.0216 1.52989,-0.1364 2.28932,-0.32693 0.75888,-0.19054 1.4933,-0.47417 2.24839,-0.81735 0.65279,0.236 1.28751,0.33019 1.88043,0.2858 0.59325,-0.0433 1.15911,-0.2111 1.71696,-0.40921 1.85976,-0.65929 3.60724,-1.83258 5.68243,-1.18553 2.09716,-0.30745 3.70207,-2.81999 4.49679,0.36808 4.01245,1.41535 4.59249,-4.66178 7.60367,-5.1918 0.98297,0.10825 1.6769,0.40704 2.20758,0.61273 0.26523,0.10826 0.45252,0.16455 0.65387,0.20461 0.30312,0.065 0.56402,0.0433 0.81735,-0.20461 0.2544,-0.25007 0.50123,-0.71233 0.81734,-1.47176 0.4222,-1.0122 0.9505,-2.57273 1.71696,-4.90557 1.82922,-3.00403 5.27343,-2.09229 7.80806,-2.45278 -0.18945,-2.73675 3.04019,-6.78752 5.68242,-4.25159 0.89962,0.42112 1.73234,0.58134 2.53452,0.53154 0.40055,-0.0217 0.80435,-0.0974 1.18553,-0.2046 1.9037,-0.55969 3.55419,-2.10279 5.15088,-3.31127 3.50212,-1.0187 6.85171,0.95916 10.05656,1.75777 2.43103,-1.23012 4.43714,-6.6078 7.644586,-3.63831 1.72605,0.85957 3.38899,1.70841 5.31446,1.5535 0.27497,-0.0217 0.53154,-0.0541 0.81734,-0.12234 0.23059,-0.46117 0.46442,-0.93209 0.69501,-1.38991 0.68419,-1.36707 0.42112,-2.38588 0,-3.22953 -0.79677,-1.59258 1.69131,-1.51701 2.33013,-1.38992 0.27173,0.0541 0.6463,2.78741 0.69501,2.98422 0.21977,0.88122 1.68156,0.94076 2.73891,0.94076 1.34359,0 2.27449,-1.04252 2.53463,-2.08493 0.33668,-1.34943 1.38992,-1.16084 1.38992,-2.98422 0,-0.40488 -0.0541,-0.72749 -0.12233,-0.98081 -0.004,-0.0108 0.004,-0.0325 0,-0.0433 -0.22085,-0.78162 -0.61924,-1.04144 -0.32694,-2.20759 0.38431,-1.53584 1.45411,-0.58026 2.28921,-0.24466 0.50772,0.20353 0.88987,0.29338 1.22645,0.2858 0.11258,-0.003 0.21976,-0.0216 0.32693,-0.0433 0.21327,-0.0433 0.42221,-0.12558 0.65388,-0.24575 0.23275,-0.12016 0.51314,-0.26631 0.81734,-0.44926 1.13161,-0.67878 1.3019,-2.06523 1.55349,-3.18861 -0.15048,0.0866 -0.17971,0.0758 0.0433,-0.24575 0.33344,-1.33319 0.20244,-2.13072 -0.24574,-3.02514 -0.3605,-0.72099 0.0433,-1.19105 0.61382,-1.47165 0.1429,-0.065 0.29229,-0.11475 0.44927,-0.16347 0.472,-0.14614 0.98947,-0.2046 1.26736,-0.2046 0,0.38864 4.32445,-0.22843 5.10997,-4.53772 0.78594,-0.78161 1.54613,-1.55089 2.28931,-2.37105 0.97973,-1.02303 2.09814,-7.6e-4 2.86168,0.73615 1.3937,0.64738 1.37032,-0.27714 1.79869,-1.22644 0.20352,-1.15132 -0.19486,-2.39184 0.81734,-3.51566 0.80435,-0.81085 2.26604,-0.47525 3.22953,-0.0866 1.20805,0.42654 2.12499,1.37336 3.27046,1.88054 0.92127,0.43953 2.32872,0.57918 3.06606,-0.2858 0.79569,-0.97864 2.06068,-1.78061 3.35208,-1.51257 1.11613,-0.16022 2.17456,0.20569 3.27045,0.24466 l 0.0433,-1.10368 c -0.34642,-1.18455 -2.94135,-2.43882 -1.55338,-3.80189 l 0.12233,-1.55349 c -0.37673,-0.33343 -1.19234,-0.88771 -0.57268,-1.38992 0.77079,-0.0758 1.57027,-0.0866 2.28932,0.24575 0.70692,0.41138 1.36458,0.94617 2.20747,1.06308 1.08257,0.24683 2.07659,-0.52721 2.61636,-1.38991 0.53913,-1.03386 0.7957,-2.24472 1.51258,-3.18861 0.35616,-0.6885203 1.18227,-0.8021903 1.88053,-0.8173403 0.80544,-0.14182 1.65396,0.17754 2.20748,0.7772803 0.6766,0.86065 1.34477,1.73093 2.12963,2.50021 z"
       sodipodi:nodetypes="ccccccccccssscccccccccccccccccccccccccccccccccccccccccsscsscccsssscccsscccscsssssssssssssssccssscccccccccccccccccccccc"
       inkscape:label="#path1950" />
  </g>
</svg>
