<?xml version="1.0" encoding="UTF-8" standalone="no"?>
<!-- Created with Inkscape (http://www.inkscape.org/) -->

<svg
   width="210mm"
   height="297mm"
   viewBox="0 0 210 297"
   version="1.1"
   id="svg1283"
   inkscape:version="1.1.2 (b8e25be833, 2022-02-05)"
   sodipodi:docname="vector.svg"
   xmlns:inkscape="http://www.inkscape.org/namespaces/inkscape"
   xmlns:sodipodi="http://sodipodi.sourceforge.net/DTD/sodipodi-0.dtd"
   xmlns="http://www.w3.org/2000/svg"
   xmlns:svg="http://www.w3.org/2000/svg">
  <sodipodi:namedview
     id="namedview1285"
     pagecolor="#ffffff"
     bordercolor="#666666"
     borderopacity="1.0"
     inkscape:pageshadow="2"
     inkscape:pageopacity="0.0"
     inkscape:pagecheckerboard="0"
     inkscape:document-units="mm"
     showgrid="false"
     inkscape:zoom="0.52347032"
     inkscape:cx="155.69173"
     inkscape:cy="458.47872"
     inkscape:window-width="1920"
     inkscape:window-height="1017"
     inkscape:window-x="-8"
     inkscape:window-y="-8"
     inkscape:window-maximized="1"
     inkscape:current-layer="layer1" />
  <defs
     id="defs1280" />
  <g
     inkscape:label="Capa 1"
     inkscape:groupmode="layer"
     id="layer1">
    <path
       d="m 87.72731,73.541167 c 1.44695,2.39017 2.13405,5.09519 4.72293,5.76465 2.71717,2.37022 -1.41585,4.16079 -2.80972,1.00223 -1.32474,-1.05429 -7.40973,-2.83749 -4.15544,0 0.39337,0.78964 6.64497,3.10346 2.63155,3.88485 -2.00606,-0.55824 -7.08447,-2.89245 -5.89004,1.6594 -2.23586,4.71455 -0.58717,-4.16903 -3.58736,-2.66192 -2.30731,-2.08531 -4.54114,-2.1219 -5.50057,0.53221 -0.82579,1.0138 -0.1721,3.2702 1.79361,4.35502 2.91776,0.82868 2.72888,2.31338 0.95595,4.82431 0.73902,3.60906 -0.43386,7.00234 -4.51265,5.70247 -2.67277,-0.41796 -3.41338,3.921293 -6.60838,1.00223 -2.70039,0.474363 -3.897,3.102153 -6.69689,2.505883 -2.53899,-0.88654 -4.95896,-1.26834 -6.09815,-3.508403 -2.5792,-1.09479 -4.03251,-2.13911 -6.81649,-3.25878 -2.60943,-0.71299 -5.31864,-1.41441 -8.1894,-1.50335 -1.23941,-1.61124 -5.0787,-0.46713 -6.8781,-2.75795 -2.1702,-0.54089 -5.0385,-2.38931 -5.73891,0.75348 -3.62134,0.71444 -4.44092,-1.50696 -7.02474,-1.8798 -2.74537,0.18222 -2.99282,2.98298 -6.00863,2.88233 -2.0096798,0.56836 -1.3478798,4.79828 -3.4686298,5.76465 -2.80495,1.617893 1.31462,4.721923 -0.35866,7.143633 -2.06941,1.2611 -1.33487,5.7606 -4.42314,5.3882 -2.75881,0.94438 -2.60653,3.20035 -0.71877,4.76212 3.54947,0.70576 -0.47436,5.30534 2.42127,5.76466 2.3773,-2.96332 3.77754,3.82483 4.99266,-0.87786 -4.049,-2.81233 3.9357498,-4.79814 2.7502798,-1.00224 3.24432,0.38036 4.89938,2.74537 0.83737,2.88233 -1.15843,4.26709 6.03639,-0.48593 5.50071,3.88485 0.74047,2.56401 4.34374,1.77018 5.85982,1.25388 2.74493,2.22487 5.14046,-2.54999 5.76913,1.62859 3.43855,0.23429 3.9871,-1.88689 3.0793,-5.01189 1.86289,-2.8913 3.58143,3.03721 5.1717,3.00684 2.53914,3.56292 2.48809,-2.84053 2.24223,-5.38603 2.61044,-1.83612 5.33165,0.92848 4.54404,4.28835 -1.0919,1.91538 -3.17215,2.79512 -2.75029,6.29701 0.1157,2.98515 5.82048,0.13016 6.4574,2.57037 2.18409,0.87497 2.39046,3.82237 6.30626,2.88233 1.65303,2.34346 2.7458,3.31793 5.26238,3.88485 1.50436,2.33941 5.41857,-0.46135 3.97668,-3.72664 -0.0434,-2.95044 3.99954,-1.3956 5.85982,-3.41699 -0.76506,-1.56207 -0.98778,-3.50652 -0.35867,-6.70267 2.88493,-2.22169 3.76886,0.21982 3.37795,2.19175 1.25966,1.1888 5.16866,-1.2452 6.78641,1.00223 3.7194,-1.64363 2.05349,-2.89592 1.45909,-6.1654 -4.01732,-0.39771 -3.47701,-1.24954 -4.71744,-3.4841 -2.26695,-2.57572 -4.05723,-0.79108 -6.66782,-1.63018 -2.14301,-1.62296 -1.80561,-1.78667 -5.50057,-2.88233 -1.28858,-1.76193 -2.81927,-4.13201 -5.34973,-4.13447 -1.92883,-2.9406 4.11972,-3.54686 2.36111,-7.07912 0.74914,-1.40862 3.37158,-3.89338 5.50072,-2.03802 1.92955,1.09479 5.84564,0.61175 7.79616,-0.8822 1.87561,-0.73323 4.25696,-4.302953 5.47758,-1.15264 2.82823,1.12661 4.69097,-1.10202 7.17356,0.62622 2.43458,-0.49751 5.66964,-1.98582 7.17559,0 -0.87063,-3.971483 4.07358,-1.85045 4.54404,-4.417213 0.4975,-4.02759 5.75843,-0.63923 6.45725,-3.88485 -0.48738,-2.46451 -2.0104,-3.60471 -3.10939,-6.48603 -0.75348,-3.30766 -1.30015,-4.16382 -3.34786,-6.39072 -1.44044,-1.27412 -4.97516,-1.26689 -4.54404,-5.01189 -1.02827,-2.02414 -3.69698,-2.32871 -6.24697,-2.75781 -0.38903,0 -0.77807,0 -1.1671,0 z m -44.00544,6.76717 c -2.20491,1.45606 0.24152,6.04696 -0.95595,7.7697 -0.94439,3.13195 3.42003,5.63088 4.54403,2.34997 0.33119,-2.09601 4.9834,-3.26181 2.36183,-6.23482 -2.97199,-0.69419 -4.31828,-2.66496 -5.94933,-3.88485 z m 65.17108,10.65203 c -1.02248,2.48866 -0.0434,3.35148 -0.95595,6.95388 2.08054,1.40573 1.76497,4.631253 -0.83737,5.107783 -0.84893,2.00331 -5.04891,2.90387 -2.24222,0.3442 2.44701,-1.12083 1.01669,-5.650693 -1.46474,-2.88233 -2.21851,2.72223 -5.40353,-2.708783 -4.54404,3.19428 -0.50907,2.46321 -1.89325,4.01096 -4.66349,4.10525 -2.94842,2.17701 -4.2992,-1.27412 -5.56002,-2.41216 -3.1143,1.00802 -4.37931,0.37602 -6.39809,-1.00223 0.0145,2.38873 -6.33722,0.87497 -4.03598,3.88485 2.75983,1.14686 -0.26032,6.19592 1.28569,6.76717 1.87561,1.19748 4.34142,1.77785 7.26294,1.87981 2.17324,1.04273 -3.52763,4.00937 1.75268,4.58598 2.71167,0.39192 4.0999,-1.64653 6.76804,-1.70366 3.69554,-0.25598 7.79516,0.50908 11.2418,-0.37601 2.33536,-1.67401 6.1304,0.46134 8.39982,-1.50336 2.40319,0.63201 5.49478,-2.91284 3.19905,-3.88484 0.96897,-2.50588 4.28588,-1.62469 0.95595,-4.88738 0.67105,-3.71217 -1.28859,-4.50687 -2.63184,-7.39483 -3.92505,0.7665 -3.71651,-2.691573 -3.82555,-4.134473 -1.19459,-2.3222 -1.73909,-5.62871 -3.25835,-6.64193 z M 107.937,122.66595 c -2.62172,1.54906 -4.34678,1.92001 -7.6514,1.87981 -3.36291,0.28635 -4.68475,-1.56496 -8.4299,-0.87786 -0.91401,1.67776 -4.38611,1.94372 -4.63573,4.76213 -0.33408,2.48664 1.77495,4.68389 5.02072,3.88485 -0.96608,4.14878 4.37931,2.11611 5.6517,3.41468 -0.44544,4.16932 4.155,-0.90389 4.21488,3.35249 1.3985,2.15068 5.17141,0.3847 4.03612,-2.88232 3.2394,1.00223 5.02447,-2.40363 5.50057,-4.88738 -2.41086,-1.54688 2.59236,-2.73915 0.36011,-5.13858 1.57711,-1.65795 -1.95472,-4.09744 -4.0662,-3.50839 z m 23.91607,8.64698 c -1.64696,1.39561 -1.40428,4.77341 -4.27446,4.88737 -1.50335,2.20882 -2.60436,3.98869 -3.97654,6.29701 2.49199,0.92269 1.64899,3.81442 0.95596,6.10958 -1.86491,0.34998 -4.00127,3.68411 -1.91322,5.41973 1.6017,1.9537 7.42594,-2.04974 6.45725,1.34788 1.70467,0.21693 6.50961,2.98312 1.16711,2.88232 -2.91791,-0.66671 -4.00359,-1.41441 -3.91725,2.88233 2.40305,1.14396 2.42084,4.19188 2.30167,5.76465 0.10124,1.8046 3.59531,6.3887 4.87407,5.01175 0.85182,-3.54108 4.08905,-2.01879 2.86902,2.12956 -0.41218,3.2838 -4.39436,-1.68152 -2.75043,2.50819 1.97135,1.439 3.14958,3.79996 6.81446,2.88233 0.93426,-2.24642 6.764,-0.69419 3.34989,1.53488 -0.40349,2.39003 5.4527,2.78745 1.2857,5.23229 -0.8822,0.6696 6.64222,2.29082 1.46459,3.88485 -2.3345,3.4773 0.6508,2.54348 3.49668,1.8798 0.0289,2.26783 -3.51548,1.69165 -4.2613,4.58598 -0.44833,4.05276 -0.0578,8.50279 -0.19235,12.70784 1.43176,1.33197 5.70189,1.63351 7.92199,0 2.57862,-1.88603 3.77392,-3.85145 6.33764,-4.76199 2.70242,-0.37746 2.44817,-3.12659 5.62032,-3.88485 1.18012,-1.82239 3.73719,-2.20303 4.03598,-4.9497 -0.46424,-2.4392 -0.35143,-6.68359 -1.97265,-7.58212 -4.93003,1.32329 -3.13831,-2.93613 -0.2097,-2.88233 3.055,-0.7072 0.75348,-2.85282 0.38903,-5.48206 -1.64493,-0.4035 -2.23109,-6.55501 -5.38212,-3.41468 -2.62288,1.83641 -6.77918,-1.50032 -3.82556,-3.16492 -0.50762,-2.23037 -4.06331,-3.44577 -5.85981,-2.97604 -3.77522,2.54695 -3.84291,-3.14887 -0.59729,-2.78861 1.52013,-1.31462 5.76914,-0.69997 6.45739,-3.885 -0.27767,-1.85854 1.85941,-2.69677 1.79376,-5.88902 -1.30016,-1.20182 -3.4034,-2.8359 -4.54404,-4.63761 -1.70944,-1.42743 -1.90222,-3.68426 -5.1717,-4.35502 -2.57819,-0.1157 -0.43387,-5.28248 -3.07945,-6.64193 -2.24787,-0.92269 -5.53427,-0.75782 -7.47322,-2.00505 -1.69715,-0.97041 -3.65418,-2.50139 -3.64767,-5.76465 -1.64016,-0.61609 -0.61175,-3.84103 -4.54404,-2.88232 z m -57.87676,3.88485 c -2.19652,0.46569 -1.29003,4.99584 -3.70696,5.76465 0.51196,2.39162 -4.23614,4.34316 0,5.76465 1.53575,1.70626 3.27816,2.02226 4.66364,4.76213 2.095,0.68551 4.3825,3.39487 0.269,3.88485 -0.0434,2.83836 4.72698,-0.1504 6.24697,-1.00223 2.75028,0.14462 2.97965,2.76721 6.45739,2.88232 2.77516,0.99067 5.606,-2.70863 7.23503,0 3.08827,-0.0145 4.50311,1.71364 8.251,1.00224 1.77524,-1.64465 -0.38325,-6.32058 3.46877,-6.51756 0.0578,-3.10114 -3.75411,-1.87966 -4.42545,-5.01175 -0.13016,-3.77103 -5.30648,-0.47002 -6.8457,-2.88232 -2.86902,-0.0289 -2.18655,-3.78665 -5.94934,-2.88233 -2.45641,-1.6821 -3.24388,-2.9273 -6.45725,-2.88232 -1.63408,-1.45129 -2.78644,-3.40745 -6.3064,-2.88233 -0.96753,0 -1.93418,0 -2.90127,0 z m 2.75043,52.88439 c 0.35288,3.29797 -4.33115,3.70046 -2.75043,5.41973 3.56495,0.39482 2.84979,0.90389 5.50072,1.8798 2.0574,0.39193 4.08963,-1.08611 6.69559,0.47003 2.52424,-0.10124 7.25166,0.82434 7.05613,-2.59974 -2.63286,-0.67249 2.76171,-5.89062 -2.03209,-5.16996 -3.16304,0.32395 -6.91744,-0.84749 -9.47726,1.00223 -0.0434,2.89014 -5.71533,1.42742 -3.07945,0 0.43387,-1.73475 -0.98343,-0.75493 -1.91321,-1.00223 z m 113.00295,7.7697 c -0.8446,2.43993 -4.2642,0.89811 -6.45725,2.88233 -4.46884,-1.41586 -2.2308,4.19766 -2.75043,6.9209 1.27557,1.35801 4.15081,3.55627 3.70696,6.48806 2.76547,0.63634 -1.02393,6.47504 0.83736,6.76732 1.80851,1.20615 1.73562,4.38408 2.42127,6.76717 3.60168,1.02827 5.49465,-1.26544 7.74309,-2.00519 4.36861,-1.18446 1.5719,-2.49676 1.79361,-6.0766 3.98883,-1.55021 -1.69049,-3.06947 -0.32829,-4.45003 1.71753,-1.20037 3.42654,-3.19067 5.56001,-1.87981 2.70805,-0.0145 5.14248,-3.1088 6.27835,-4.88751 -0.52643,-0.17644 0.5727,-6.44655 -2.86902,-5.76451 -1.00368,2.645 -5.31676,-1.97844 -5.8899,1.53488 0.28346,3.13556 -5.77304,2.80336 -4.1618,-0.006 2.93266,-2.57269 -0.28346,-3.0861 -1.84697,-4.41156 -1.67965,-0.21404 -2.42011,-1.44623 -4.03598,-1.87966 z m -15.66493,10.52664 c -1.87503,1.24086 -1.81718,3.92505 -4.90328,4.26144 -1.84539,1.12227 -6.16164,2.66062 -2.83981,4.38553 0.25888,2.26841 -1.58738,4.91731 3.55612,3.885 3.74963,0.77662 4.08573,-2.88551 6.66753,-2.88233 2.64963,0.30082 3.03216,-4.68591 1.2264,-6.76732 -0.71009,-1.15987 -1.62483,-3.25328 -3.70696,-2.88232 z"
       style="fill:#000000;fill-opacity:1;stroke:#d39062;stroke-width:1.91324;stroke-miterlimit:4;stroke-dasharray:none;stroke-opacity:1"
       id="Guaitecas" />
  </g>
</svg>
