<?xml version="1.0" encoding="UTF-8" standalone="no"?>
<!-- Created with Inkscape (http://www.inkscape.org/) -->

<svg
   width="210mm"
   height="297mm"
   viewBox="0 0 210 297"
   version="1.1"
   id="svg1283"
   inkscape:version="1.1.2 (b8e25be833, 2022-02-05)"
   sodipodi:docname="vector.svg"
   xmlns:inkscape="http://www.inkscape.org/namespaces/inkscape"
   xmlns:sodipodi="http://sodipodi.sourceforge.net/DTD/sodipodi-0.dtd"
   xmlns="http://www.w3.org/2000/svg"
   xmlns:svg="http://www.w3.org/2000/svg">
  <sodipodi:namedview
     id="namedview1285"
     pagecolor="#ffffff"
     bordercolor="#666666"
     borderopacity="1.0"
     inkscape:pageshadow="2"
     inkscape:pageopacity="0.0"
     inkscape:pagecheckerboard="0"
     inkscape:document-units="mm"
     showgrid="false"
     inkscape:zoom="0.52347032"
     inkscape:cx="155.69173"
     inkscape:cy="611.30496"
     inkscape:window-width="1920"
     inkscape:window-height="1017"
     inkscape:window-x="-8"
     inkscape:window-y="-8"
     inkscape:window-maximized="1"
     inkscape:current-layer="layer1" />
  <defs
     id="defs1280" />
  <g
     inkscape:label="Capa 1"
     inkscape:groupmode="layer"
     id="layer1">
    <path
       d="m 43.82247,63.534137 c -3.76483,1.96928 -9.48072,4.87211 -11.08709,5.98957 -1.46284,1.0176 -2.35876,1.94511 -3.12229,3.12229 -0.76379,1.1771 -1.4449,2.61673 -2.54873,4.77889 -0.6887,1.87115 -0.95692,3.82757 -1.14697,5.7984 -0.18986,1.97083 -0.25545,3.98058 -0.57305,5.92587 -0.31761,1.94528 -0.90412,3.81263 -1.97532,5.60723 -1.0712,1.7946 -2.64676,3.51515 -5.09752,5.03384 L 7.6941998,106.2258 10.62525,149.74581 c -1.5678802,6.12013 -3.1473202,13.62018 -4.7152002,20.3901 -1.56788,6.76992 -3.14733,12.80384 -4.71521,16.05715 1.85968,2.35928 3.38915,4.61535 4.58774,6.75421 1.19866,2.13886 2.06947,4.15414 2.73997,6.11703 0.67057,1.9628 1.12651,3.83982 1.40174,5.67101 0.2753102,1.8311 0.3693802,3.60861 0.3823202,5.35239 0.0259,3.48735 -0.28394,6.85518 -0.5100502,10.25874 -0.22525,3.40356 -0.33141,6.83939 0.2545902,10.51359 l 58.17541,-4.07801 c 0,0.72408 -0.24511,0.64295 -0.38233,0.57391 -0.13722,-0.069 -0.16656,-0.15793 0.38233,0.57306 1.19539,1.59386 5.52214,4.88505 6.49927,5.86209 0.59376,1.43877 0.60758,2.59031 0.38232,3.50453 -0.22525,0.91421 -0.72495,1.60887 -1.0832,2.29395 -0.35902,0.68525 -0.57477,1.35152 -0.38232,2.10271 0.19246,0.75083 0.8009,1.62716 2.23017,2.73988 1.4909,1.11815 1.83982,1.54855 1.72038,2.16648 -0.0777,0.41426 -0.38664,1.31821 -0.70079,2.1027 2.62795,-0.0992 3.944,1.34462 0,5.28869 -3.51204,3.51196 -2.2785,6.32356 0.57392,9.17546 4.65626,4.65634 6.91077,4.58782 14.27299,4.58782 10.60707,0 8.91508,14.84648 16.05723,14.84648 9.25607,0 4.88098,-3.83577 17.14033,2.29386 1.58256,0.79141 3.77251,0.24078 5.92588,-0.38233 l -4.97006,-44.22096 c 2.01795,-1.10512 5.0359,-4.29767 7.96488,-7.00906 1.46448,-1.35575 2.88444,-2.56702 4.14171,-3.37715 1.25727,-0.81039 2.36214,-1.19523 3.12221,-0.82852 2.0378,0.54199 4.22224,0.63606 6.30819,0.31846 2.08596,-0.31673 4.08959,-1.07767 5.8621,-2.23017 1.33986,-1.01433 2.46768,-2.44499 3.75947,-3.632 0.64555,-0.59378 1.34858,-1.07932 2.1027,-1.46553 0.75429,-0.38577 1.54242,-0.62484 2.48503,-0.63692 1.14559,0.0173 2.10581,0.38837 2.93104,0.95582 0.82507,0.56787 1.5293,1.31379 2.23018,2.10269 0.70078,0.78882 1.39406,1.60888 2.16648,2.29387 0.77241,0.68525 1.63649,1.20963 2.67618,1.46552 2.11315,0.0518 4.02357,0.80435 5.79841,1.84785 1.77492,1.04358 3.44671,2.37577 4.97005,3.6957 0.60672,0.712 1.34979,1.1039 2.16648,1.14697 0.81643,0.0432 1.6825,-0.25891 2.42134,-0.70079 0.73876,-0.44273 1.34728,-1.04004 1.72038,-1.78406 0.37283,-0.74394 0.53508,-1.62294 0.25459,-2.48503 1.52956,-0.69647 2.51316,-1.95409 3.50462,-3.24968 0.0173,-0.0259 0.0432,-0.0432 0.0604,-0.0605 -9.22223,-3.82765 9.88626,-15.64858 12.74378,-23.12999 6.48459,-15.87599 -16.0146,-23.47563 -20.51749,-36.82957 -6.63684,-13.06059 -0.19418,-29.15717 10.44991,-37.7216 20.53043,2.73333 8.58341,-21.02185 10.83223,-32.815243 10.68543,-8.26652 -11.73299,-11.0795 -4.52413,-20.0077 5.29335,-13.87771 -20.39674,-17.55503 -13.44464,-32.17806 16.65583,-6.98154 0.54371,-31.85459 -10.9597,-29.56556 -5.70511,8.87537 -11.97628,4.61983 -14.97395,-2.6125 -8.9918,1.37766 -16.53293,12.94961 -21.72807,23.19368 0.79745,0.32623 0.88375,0.41598 -0.12772,0.19073 0.0345,-0.069 0.0941,-0.12515 0.12772,-0.19073 -2.29645,-0.93968 -11.08734,-4.03841 -21.28214,-8.72945 -8.51333,-5.82679 -15.34876,4.65091 -22.87513,7.00907 -9.06637,3.20808 -3.1443,12.72539 -10.5136,17.71383 -2.15094,8.59515 -10.46691,4.00811 -15.67481,6.8179 -2.01218,6.35221 -4.72953,15.97239 -13.31726,15.1651 -6.97921,-2.42055 -11.513,2.26858 -14.1456,8.21974 -3.76267,11.14526 -5.17763,-6.95624 -2.16649,-11.78796 1.70028,-2.14576 2.59024,-3.96358 3.37715,-5.86218 z"
       style="fill:#000000;fill-opacity:1;fill-rule:evenodd;stroke:#d39062;stroke-width:2.039;stroke-linecap:butt;stroke-linejoin:miter;stroke-miterlimit:4;stroke-dasharray:none;stroke-opacity:1"
       id="Torres_del_Paine" />
  </g>
</svg>
