<?xml version="1.0" encoding="UTF-8" standalone="no"?>
<!-- Created with Inkscape (http://www.inkscape.org/) -->

<svg
   width="210mm"
   height="297mm"
   viewBox="0 0 210 297"
   version="1.1"
   id="svg64"
   inkscape:version="1.1.2 (b8e25be833, 2022-02-05)"
   sodipodi:docname="vector.svg"
   xmlns:inkscape="http://www.inkscape.org/namespaces/inkscape"
   xmlns:sodipodi="http://sodipodi.sourceforge.net/DTD/sodipodi-0.dtd"
   xmlns="http://www.w3.org/2000/svg"
   xmlns:svg="http://www.w3.org/2000/svg">
  <sodipodi:namedview
     id="namedview66"
     pagecolor="#ffffff"
     bordercolor="#666666"
     borderopacity="1.0"
     inkscape:pageshadow="2"
     inkscape:pageopacity="0.0"
     inkscape:pagecheckerboard="0"
     inkscape:document-units="mm"
     showgrid="false"
     inkscape:zoom="0.74029882"
     inkscape:cx="361.34057"
     inkscape:cy="561.93525"
     inkscape:window-width="1920"
     inkscape:window-height="1017"
     inkscape:window-x="-8"
     inkscape:window-y="-8"
     inkscape:window-maximized="1"
     inkscape:current-layer="layer1" />
  <defs
     id="defs61" />
  <g
     inkscape:label="Capa 1"
     inkscape:groupmode="layer"
     id="layer1">
    <path
       style="fill:#000000;fill-opacity:1;fill-rule:evenodd;stroke:#d39062;stroke-width:0.538681;stroke-linecap:butt;stroke-linejoin:miter;stroke-miterlimit:4;stroke-dasharray:none;stroke-opacity:1"
       d="m 75.425195,105.80938 c -1.57657,0.31211 -2.99613,1.63073 -2.89541,3.80449 -1.32378,1.25293 -3.53117,1.36149 -5.35319,1.21199 -1.60521,-0.0833 -3.13629,-0.0376 -4.57878,0.77435 -1.1991,0.39644 -2.68323,7.6e-4 -3.26575,1.14474 -0.75216,2.4134 -0.33037,4.71029 -2.18838,6.5315 -3.74459,2.41098 -4.83314,5.28647 -5.08384,5.11747 -3.01048,0.89607 -2.91314,-2.097 -5.35313,-1.34672 -0.61416,-1.08 0.22078,-2.08846 -3.40042,-2.0537 -1.89862,0.13053 -1.57889,1.73225 -3.40042,0.77435 -2.10211,-0.40773 -4.44154,-0.23851 -6.26221,-1.41403 -0.53503,-3.28815 1.28897,-5.93941 -0.13483,-9.29224 -0.16975,-0.67937 -0.74658,-1.1673 -1.44771,-1.44771 -1.4595,-0.77923 -2.75939,-1.6224 -3.83809,-2.89541 -0.0392,0.69017 -1.07135,1.49874 -2.49141,2.08738 -1.61796,0.67062 -3.72515,1.04386 -5.45416,0.606 -1.06636,0 -2.26064,1.84796 -3.16475,2.39041 -0.92233,2.64052 -0.44409,5.94548 -3.16476,7.8109 -1.60848,1.41548 -4.0147001,1.83642 -5.7234901,3.29938 -1.99584,1.13243 -3.489157,1.01356 -5.386814,-0.4378 -0.617884,-0.46359 -1.486906,-1.05519 -1.784387,0.13483 -0.15626597,0.80459 -0.40374697,1.20941 -0.70701797,1.48139 0.176357,0.29061 0.370333,0.59058 0.370333,0.84165 0,0.56974 -0.276434,1.72431 -0.370333,2.76075 -0.04673,0.51838 -0.03116,1.02731 0.06731,1.3804 0.09836,0.35293 0.283471,0.57231 0.63968197,0.57231 1.037101,0 1.667641,0.12946 2.188396,0.40396 0.520745,0.27504 0.930122,0.69447 1.515044,1.27941 0.33864,0.33843 1.195337,0.75625 1.952717,1.34666 0.37871,0.29545 0.74717,0.62142 1.01003,1.01007 0.26285,0.38838 0.40402,0.84434 0.40402,1.34666 0,0.74411 0.17738,1.2338 0.43769,1.58238 0.26027,0.34863 0.61653,0.54057 1.0437,0.67336 0.8543201,0.2659 1.9340301,0.29384 2.8954101,0.77435 0.70164,0.35078 1.3949,0.52536 2.15473,0.60605 0.75983,0.0806 1.5842,0.0671 2.55874,0.0671 1.68411,0 3.36603,0 5.05014,0 2.1332,0 4.29733,0 6.43052,0 1.26606,0 2.10721,0.0108 2.76074,0.26913 0.65355,0.25624 1.11757,0.75372 1.61607,1.75074 0.31211,0.62426 0.73433,1.15993 1.07732,1.78436 0.34326,0.62442 0.60605,1.33586 0.60605,2.25573 0,0.59343 -0.0806,1.02436 -0.20198,1.34672 -0.1214,0.32231 -0.30673,0.53503 -0.50495,0.74067 -0.39644,0.41148 -0.877,0.744 -1.31303,1.61606 -0.29384,0.58789 -0.47756,1.18561 -0.57237,1.8854 -0.0951,0.69974 -0.10099,1.49965 -0.10099,2.4914 0,1.13512 -0.002,1.66591 0.13483,2.18838 0.13752,0.52267 0.41363,1.03472 0.87539,2.18842 0.50979,1.27377 1.34667,4.32782 1.34667,5.38682 0,0.50603 -0.0838,0.90268 -0.23583,1.24567 -0.0779,0.17566 -0.21809,0.31587 -0.33681,0.47111 0.24818,-0.16814 0.40289,-0.16491 0.63968,-0.37065 0.44371,-0.3857 0.82968,-0.81824 1.07737,-1.27936 0.24764,-0.4609 0.35293,-0.95044 0.20198,-1.41403 -0.17405,-0.53449 0.55373,-2.11746 1.01001,-3.03008 0.13698,-0.27343 1.16762,-0.43888 2.28942,-0.53869 1.1218,-0.0999 2.33245,-0.13483 2.76074,-0.13483 0.34917,0 0.64602,-0.11496 0.90902,-0.33681 0.26322,-0.22186 0.48454,-0.52967 0.67336,-0.8754 0.37711,-0.69151 0.62383,-1.55262 0.77435,-2.15469 0.10959,-0.43781 0.3019,-0.74352 0.57237,-1.01007 0.27074,-0.26644 0.60154,-0.50065 0.9427,-0.70698 0.68228,-0.4131 1.43154,-0.80943 1.85172,-1.64974 0.21327,-0.42653 1.04225,-0.85359 1.91904,-1.21205 0.87679,-0.3583 1.79961,-0.64725 2.12106,-0.80803 1.50245,-0.7512 1.62793,-1.31894 3.03009,-2.02002 0.37656,-0.18801 0.85202,-0.2557 1.38034,-0.23582 0.52859,0.0215 1.09134,0.11066 1.61606,0.23582 1.04944,0.24979 1.95202,0.62249 2.05371,0.67336 0.85213,0.42598 1.25792,1.44846 2.02007,2.02002 0.69345,0.51999 1.34887,0.81947 2.08739,1.04369 0.73852,0.22454 1.55815,0.37281 2.62607,0.63973 0.95371,0.23851 1.86816,0.82866 2.76074,1.48134 0.89264,0.65273 1.7611,1.36638 2.62607,1.8854 0.82399,0.49421 1.58544,0.63291 2.39041,0.57237 0.80497,-0.0607 1.6513,-0.32016 2.65975,-0.57237 0.82829,-0.20681 1.821,-0.22024 2.82806,-0.16814 1.00711,0.0537 2.02603,0.16814 2.89541,0.16814 1.30111,0 2.47314,0.14826 3.56877,0.43781 1.0957,0.28954 2.1121,0.71934 3.16476,1.24567 1.10096,0.55045 2.18569,0.71219 3.19844,0.90902 1.01275,0.19714 1.951,0.42813 2.86174,1.11105 0.92932,0.697 2.00143,1.28919 3.06376,1.78436 1.06234,0.49529 2.146045,0.8921 3.030085,1.24573 0.0107,0.004 -0.60202,0.0376 -0.9427,0.26913 -0.17029,0.11496 -0.26376,0.27665 -0.20198,0.50495 0.0618,0.22884 0.30028,0.52859 0.80803,0.90902 0.6892,0.51677 1.3024,1.08565 1.98634,1.58238 0.68399,0.49689 1.43691,0.92036 2.39041,1.11105 1.15467,0.23099 2.02362,0.70452 2.89541,1.212 0.87185,0.50763 1.74413,1.04783 2.82811,1.48139 1.35832,0.54336 2.3405,0.72122 3.33305,0.67335 0.99261,-0.0483 1.99268,-0.32123 3.40048,-0.67335 0.94152,-0.23529 1.90866,-0.10583 2.79437,0.13483 0.88576,0.24066 1.68799,0.59149 2.25574,0.87534 0.11818,0.0591 3.05796,1.86569 4.04015,2.35678 0.44425,0.22186 0.7924,0.53938 1.07732,0.90902 0.2847,0.36958 0.4883,0.80309 0.70704,1.24567 0.43726,0.88523 0.85208,1.82841 1.58238,2.55876 0.62356,0.62357 1.7777,1.18825 2.9964,1.64969 1.21871,0.46144 2.4993,0.8184 3.40042,1.0437 0.95726,0.23904 2.01637,0.23474 3.06377,0.20198 1.0474,-0.0322 2.0804,-0.0945 2.9964,0.13483 1.71195,0.42813 3.0418,0.84751 4.71351,1.68337 1.08339,0.54169 1.62633,1.04423 2.25569,1.41402 0.62942,0.36959 1.34312,0.60605 2.79442,0.60605 1.09768,0 1.9691,0.14612 2.79443,0.33682 0.82532,0.1907 1.60231,0.42598 2.59239,0.67336 0.31049,0.0773 0.58875,0.0268 0.84171,-0.13484 0.25301,-0.16169 0.47755,-0.42867 0.70698,-0.70704 0.4593,-0.55668 0.90892,-1.2288 1.48139,-1.51501 0.41471,-0.20736 1.78495,0.13376 2.69344,0.60599 0.45392,0.23636 0.78074,0.52107 0.84166,0.77435 0.0607,0.25355 -0.16492,0.47057 -0.84166,0.63968 -0.61228,0.1531 4.05643,1.09832 7.74354,2.02007 0.4652,0.11657 0.82689,0.34058 1.14468,0.606 0.31801,0.26591 0.62201,0.57468 0.90902,0.90907 0.57409,0.66869 1.17149,1.42472 2.3231,1.88535 2.03662,0.8147 4.77416,1.02087 6.43051,1.68337 0.94109,0.37657 1.57647,0.40773 2.08738,0.16814 0.51087,-0.23904 0.89592,-0.74813 1.27936,-1.51501 0.24871,-0.49744 0.5844,-0.82259 0.97638,-1.01007 0.39215,-0.18748 0.8126,-0.25086 1.27936,-0.26913 0.93357,-0.0376 1.97344,0.13806 2.79442,-0.0671 0.58908,-0.14718 0.95565,-0.66046 1.24567,-1.24572 0.29008,-0.58526 0.50281,-1.2749 0.77435,-1.81804 0.42706,-0.8545 0.66955,-1.58131 0.77441,-2.28937 0.10475,-0.70811 0.072,-1.39555 -0.101,-2.08744 -0.14557,-0.58279 -0.42652,-1.20962 -0.60599,-1.88535 -0.17942,-0.67572 -0.25624,-1.39855 -0.0672,-2.15474 0.087,-0.34864 3.87341,-2.39138 4.3768,-2.69338 0.60079,-0.36045 0.93889,-1.0401 1.17837,-1.75074 0.23958,-0.71069 0.37979,-1.45082 0.50495,-1.95271 0.15793,-0.63275 0.53815,-1.13861 0.9427,-1.61606 0.4045,-0.47756 0.83296,-0.92519 1.07738,-1.41403 0.55695,-1.11384 0.75318,-3.34938 1.01001,-4.3768 0.39912,-1.59592 1.21183,-2.49054 1.68342,-4.3768 0.15149,-0.60675 -0.005,-0.97633 -0.23582,-1.24568 -0.22884,-0.26912 -0.53074,-0.43135 -0.74067,-0.57236 -0.21004,-0.14128 -0.30888,-0.28256 -0.10099,-0.50496 0.20789,-0.22239 0.72557,-0.53127 1.75073,-1.04369 1.00899,-0.50441 1.61746,-0.94173 2.0537,-1.5487 0.4362,-0.60701 0.69899,-1.38201 0.97633,-2.4914 0.53504,-2.14045 1.66667,-3.95629 2.02008,-5.72352 0.0591,-0.29437 0.0161,-0.8871 0.0671,-1.61606 0.0376,-0.51677 0.24549,-1.12405 0.4378,-1.71705 -0.13268,-1.01619 0.18049,-2.05155 -0.90902,-2.35672 -1.91028,-0.53504 -3.1184,-2.56527 -4.27576,-3.60241 -2.35952,-2.11445 -3.76339,-3.56205 -5.35319,-3.87179 -2.03248,-0.39591 -4.11084,0.75049 -4.04009,1.24572 -0.99406,-0.74335 -5.91422,-3.88189 -8.21492,-3.63613 -0.25463,0.47272 1.34865,6.90059 -0.606,6.73353 -4.57502,-0.39107 -3.04534,1.2706 -7.91189,-1.48139 -2.9096,-1.03016 -5.64026,-2.19584 -7.64256,-4.5451 -0.30458,-0.8039 -4.22091,0.9984 -5.89182,0.33681 -1.32222,-0.52375 -3.04324,-2.70069 -5.38681,-0.10099 -2.84583,3.15686 -6.07328,0.88952 -10.60528,3.09745 -8.12768,3.95963 -11.15288,8.68162 -14.51075,0.4378 -2.25536,-5.53711 -7.14593,-12.75105 -9.39329,-10.70626 -0.7239,0.65858 -0.10367,-4.41323 -7.3732,-3.26581 -1.13604,-0.87168 -1.80494,-5.22291 -4.41043,-8.4842 -0.43512,1.74181 -6.3725,-4.95605 -6.73354,-4.64615 -0.84015,2.22646 -2.46115,3.97488 -3.90542,5.85819 -2.766435,1.54929 -1.94552,4.14759 -5.218515,4.71346 -2.18348,0.94936 -4.32733,2.01814 -7.20485,2.35672 -3.27048,-2.04156 -11.12242,-14.00064 -13.13036,-14.37608 -0.50817,-0.12248 -1.05685,-0.13805 -1.58238,-0.0322 z m 119.755695,27.77579 c 0.13322,0.10099 0.18586,0.15363 0.13483,0.13483 -0.0833,-0.0322 -0.11227,-0.0822 -0.13483,-0.13483 z"
       id="Teno"
       inkscape:label="#path2768" />
  </g>
</svg>
