<?xml version="1.0" encoding="UTF-8" standalone="no"?>
<!-- Created with Inkscape (http://www.inkscape.org/) -->

<svg
   width="210mm"
   height="297mm"
   viewBox="0 0 210 297"
   version="1.1"
   id="svg64"
   inkscape:version="1.1.2 (b8e25be833, 2022-02-05)"
   sodipodi:docname="vector.svg"
   xmlns:inkscape="http://www.inkscape.org/namespaces/inkscape"
   xmlns:sodipodi="http://sodipodi.sourceforge.net/DTD/sodipodi-0.dtd"
   xmlns="http://www.w3.org/2000/svg"
   xmlns:svg="http://www.w3.org/2000/svg">
  <sodipodi:namedview
     id="namedview66"
     pagecolor="#ffffff"
     bordercolor="#666666"
     borderopacity="1.0"
     inkscape:pageshadow="2"
     inkscape:pageopacity="0.0"
     inkscape:pagecheckerboard="0"
     inkscape:document-units="mm"
     showgrid="false"
     inkscape:zoom="0.74029882"
     inkscape:cx="361.34057"
     inkscape:cy="453.87078"
     inkscape:window-width="1920"
     inkscape:window-height="1017"
     inkscape:window-x="-8"
     inkscape:window-y="-8"
     inkscape:window-maximized="1"
     inkscape:current-layer="layer1" />
  <defs
     id="defs61" />
  <g
     inkscape:label="Capa 1"
     inkscape:groupmode="layer"
     id="layer1">
    <path
       style="fill:#000000;fill-opacity:1;fill-rule:evenodd;stroke:#d39062;stroke-width:0.790173;stroke-linecap:butt;stroke-linejoin:miter;stroke-miterlimit:4;stroke-dasharray:none;stroke-opacity:1"
       d="m 55.40599,191.59839 c 0.3447,-0.28252 0.65123,-0.70212 1.03783,-0.90246 0.89855,-0.46529 1.90198,-0.78245 3.02324,-1.08289 0.93485,-0.92073 1.95412,-1.26179 3.06834,-1.3988 1.11424,-0.13679 2.30099,-0.0478 3.51959,-0.0478 1.11285,-0.21263 1.75856,-0.92389 2.3464,-1.66956 0.58786,-0.74566 1.13298,-1.55314 2.07566,-2.0305 0.88201,-0.16366 1.68512,-0.18038 2.43663,-0.0902 0.75148,0.0902 1.44392,0.31477 2.12077,0.58654 1.35367,0.54414 2.62571,1.36715 4.01595,2.21101 2.63899,0.92837 5.3803,0.69615 8.07698,1.48905 1.06635,0.21921 1.89049,0.72876 2.61714,1.39881 0.72664,0.67004 1.3517,1.48314 2.03054,2.25616 0.62641,1.59961 1.166,2.78118 1.75979,3.65496 0.59377,0.87372 1.23457,1.43972 1.98539,1.80491 0.75084,0.36494 1.60979,0.51248 2.70738,0.58654 1.0976,0.0741 2.42702,0.0902 4.06107,0.0902 1.39838,0.22996 2.69077,0.10094 3.97081,-0.13558 1.28004,-0.23594 2.56466,-0.59192 3.88056,-0.8573 2.77473,0 5.5279,0 8.30263,0 0.98011,0.1774 1.8432,0.0478 2.61712,-0.22578 0.77393,-0.27057 1.48588,-0.68963 2.16589,-1.1732 0.68002,-0.48381 1.33212,-1.02837 2.03054,-1.489 0.69841,-0.46051 1.42704,-0.83561 2.25614,-1.03786 1.31506,0.41034 2.2697,1.18229 3.24885,1.98541 0.97916,0.80318 2.00555,1.62649 3.38422,2.16591 3.51106,0.18814 6.99673,-0.11468 10.51363,0.27057 0.87551,0.0639 1.41916,0.26699 1.85004,0.63176 0.43089,0.36495 0.74406,0.89893 1.08295,1.57931 0,0.51128 0.8903,0.66622 1.89516,0.72195 1.00486,0.0537 2.13947,0 2.52689,0 0.53046,-0.79106 0.86334,-1.65057 1.08294,-2.52686 0.21963,-0.87635 0.29954,-1.78412 0.36101,-2.70741 0.12298,-1.84648 0.0902,-3.74582 0.49635,-5.55012 0.57925,-1.05716 1.23335,-1.35712 1.80492,-1.71466 0.57155,-0.35778 1.08166,-0.75516 1.39881,-1.94031 0.53368,-0.68993 1.1458,-1.268 1.8049,-1.71465 0.65914,-0.44678 1.34564,-0.78126 2.07566,-1.08296 1.46006,-0.60326 3.00551,-1.01068 4.42205,-1.6244 1.14431,0 3.50319,-0.49635 5.14401,-0.49635 3.5092,0 5.56051,1.2183 9.06971,1.2183 2.15808,-0.0179 3.70892,-0.12961 5.3245,0 1.61559,0.12961 3.28867,0.51905 5.68549,1.48906 0.46888,0.3518 1.56928,0.0538 2.61711,-0.40616 1.04783,-0.45753 2.02005,-1.07245 2.25616,-1.30856 1.27391,-1.22128 2.27939,-2.76254 3.02321,-4.42207 0.74381,-1.65946 1.26692,-3.45511 1.66955,-5.14396 0.77762,-1.15236 1.13152,-2.24385 1.30856,-3.42936 0.17739,-1.18551 0.15231,-2.47519 0.13558,-3.92572 0.0986,-1.30825 0.54294,-2.28644 1.17315,-3.15855 0.62996,-0.87217 1.44694,-1.60248 2.25616,-2.43667 0.47544,-2.41868 1.44097,-4.54815 2.70735,-6.63307 0.40139,-1.02753 0.47784,-1.94993 0.36077,-2.8427 -0.11647,-0.89284 -0.43961,-1.76304 -0.7671,-2.61717 -0.32732,-0.85407 -0.67196,-1.70569 -0.90246,-2.6171 -0.23055,-0.91142 -0.35419,-1.86828 -0.18038,-2.93302 0.17322,-0.69352 0.64926,-1.18533 1.17321,-1.6244 -0.67507,-0.7017 -1.25158,-1.47138 -2.16591,-2.03056 -0.55131,-5.38509 -3.25854,-7.57089 1.3537,-6.81352 -1.31918,-4.11542 1.25594,-4.38575 2.75252,-5.68553 -2.78154,-3.50683 -2.16926,-5.26318 -1.39881,-6.99402 -0.85186,-1.17517 -2.08396,-1.00375 -1.80496,-6.13672 -5.59683,-1.58874 -5.85116,-4.09421 -8.12207,0.27058 -6.75887,-3.47644 -9.40386,-6.94702 -9.52093,-10.42339 -1.23515,-0.56683 -2.0848,-1.14788 -2.70742,-1.71471 -0.41506,-0.37809 -0.76414,-0.7953 -0.99267,-1.17315 -0.34285,-0.566827 -0.51558,-1.102777 -0.63171,-1.669557 -3.45875,0.12006 -5.38509,-0.69805 -5.82085,-2.3915 -0.44481,2.43505 -1.21681,-3.63723 -4.91841,4.647597 -4.78606,3.61471 -3.69411,-2.119847 -7.71601,0.22578 l -1.80492,1.57931 c 1.194,2.75185 0.30325,-0.72679 -4.64765,-0.58655 -4.95093,0.14037 -13.33654,-0.69531 -11.19048,6.45258 -2.44252,3.80853 -5.95198,10.75285 -10.78438,7.03917 -3.35544,4.97445 -6.31881,-5.25034 -11.32585,-2.07566 -3.37719,1.02645 -4.91356,0.0239 -6.4977,4.60252 -3.66938,2.38266 -7.35404,6.13499 -10.87461,1.85006 -7.34407,0.17261 -7.95374,0.87491 -10.73926,5.27936 -0.79779,1.26149 -2.71377,-0.0358 -3.83545,0.6317 -2.48404,1.89259 0.82272,6.12143 -3.7452,6.76848 -4.98508,0.23354 -5.4948,3.57714 -5.27937,7.03918 -4.30391,3.27221 -9.7487,10.50151 -13.76248,2.97811 -3.1729,-3.80566 -8.17624,-6.27315 -8.34774,-11.19049 -2.48324,-4.15455 -9.50009,-7.19507 -12.27343,0.18038 -2.76123,2.00159 -1.79488,3.03682 -4.64766,3.33905 -1.58244,3.45374 -8.70203,-1.29744 -8.6636,5.05377 -7.038086,7.98302 -8.90616,10.28679 -13.491739,6.13673 -5.072171,-0.80934 -11.833902,-9.6932 -14.2588396,-1.17321 0.4265866,5.97002 -4.845802,7.01092 -9.15995896,8.57339 0.66345696,2.08826 -0.04898,3.41377 1.30857096,4.2415 1.357799,0.82779 3.409763,3.3126 4.692775,4.24157 9.5333806,1.37181 5.0682166,5.32584 6.3623266,10.96489 1.029724,1.03888 1.625382,2.05362 1.895162,3.02321 1.170625,0.7591 2.290564,1.52155 3.65497,2.57201 1.743305,0.32493 2.794848,0.73682 3.519575,1.1732 0.724734,0.43663 1.133725,0.93184 1.489061,1.35371 0.355331,0.42169 0.673402,0.80169 1.308559,1.08296 0.635169,0.28132 1.594436,0.43662 3.158613,0.45095 1.174066,0 1.966496,0.531 2.707374,1.03786 0.740871,0.50651 1.417301,0.99271 2.346381,0.99271 1.55014,-0.0717 2.7874,0.14155 3.83546,0.54174 1.04805,0.40019 1.89785,0.99444 2.70736,1.71466 1.61901,1.44055 3.03361,3.37674 5.27938,5.18917 0.49086,0.24549 1.69263,0.52861 2.79762,0.90245 1.10501,0.37391 2.1004,0.82098 2.25614,1.4439 0.0672,-0.0119 1.03361,-0.0239 2.16591,-0.45096 0.56617,-0.21442 1.18786,-0.52263 1.75979,-0.9927 0.57191,-0.47007 1.08503,-1.11431 1.48906,-1.94031 0.0801,0.24967 0.1013,0.47186 0.1805,0.72195 z"
       id="Mostazal"
       inkscape:label="#path2064" />
  </g>
</svg>
