<?xml version="1.0" encoding="UTF-8" standalone="no"?>
<!-- Created with Inkscape (http://www.inkscape.org/) -->

<svg
   width="210mm"
   height="297mm"
   viewBox="0 0 210 297"
   version="1.1"
   id="svg64"
   inkscape:version="1.1.2 (b8e25be833, 2022-02-05)"
   sodipodi:docname="vector.svg"
   xmlns:inkscape="http://www.inkscape.org/namespaces/inkscape"
   xmlns:sodipodi="http://sodipodi.sourceforge.net/DTD/sodipodi-0.dtd"
   xmlns="http://www.w3.org/2000/svg"
   xmlns:svg="http://www.w3.org/2000/svg">
  <sodipodi:namedview
     id="namedview66"
     pagecolor="#ffffff"
     bordercolor="#666666"
     borderopacity="1.0"
     inkscape:pageshadow="2"
     inkscape:pageopacity="0.0"
     inkscape:pagecheckerboard="0"
     inkscape:document-units="mm"
     showgrid="false"
     inkscape:zoom="0.74029882"
     inkscape:cx="361.34057"
     inkscape:cy="453.87078"
     inkscape:window-width="1920"
     inkscape:window-height="1017"
     inkscape:window-x="-8"
     inkscape:window-y="-8"
     inkscape:window-maximized="1"
     inkscape:current-layer="layer1" />
  <defs
     id="defs61" />
  <g
     inkscape:label="Capa 1"
     inkscape:groupmode="layer"
     id="layer1">
    <path
       style="fill:#000000;fill-opacity:1;fill-rule:evenodd;stroke:#d39062;stroke-width:2.34215;stroke-linecap:butt;stroke-linejoin:miter;stroke-miterlimit:4;stroke-dasharray:none;stroke-opacity:1"
       d="m 16.904087,242.96632 c 1.74919,-2.65725 3.40437,-5.63477 5.88493,-7.35599 4.02403,-2.79234 7.50117,-4.26587 12.03738,-5.75127 1.34199,-1.28002 3.1643,-1.88445 5.08239,-2.27377 1.91809,-0.3895 3.88682,-0.59133 5.61742,-0.93656 1.73149,-0.34524 3.23264,-0.85866 4.01252,-2.00626 0.77899,-1.14724 0.93479,-2.95504 0,-5.75109 3.63028,0.47979 6.01949,-0.44792 7.89119,-2.1401 1.87153,-1.69254 3.1443,-4.13911 4.41352,-6.6873 1.26941,-2.54836 2.59051,-5.13497 4.41388,-7.22249 1.8232,-2.08753 4.22355,-3.70199 7.75735,-4.01234 3.18112,-2.34796 6.28186,-2.22828 16.71859,-8.82758 2.61387,-0.50634 4.33084,-1.93969 5.61741,-3.74483 1.28711,-1.80514 2.26174,-3.89744 3.20998,-5.88493 0.947193,-1.98767 1.879153,-3.76147 3.477503,-4.81506 1.5987,-1.05341 3.85123,-1.39864 7.08865,-0.40189 19.12443,-0.10622 38.27738,0.25495 57.37809,-0.14163 1.73503,-2.66398 3.8831,-4.7908 6.28611,-6.5538 2.40319,-1.76336 5.08169,-3.22432 7.75752,-4.68104 2.67584,-1.45707 5.33769,-2.93538 7.8912,-4.68121 2.55332,-1.74565 4.9188,-3.79015 6.9548,-6.41996 1.93881,-0.49041 3.13208,-1.44822 3.87868,-2.67495 0.74712,-1.22692 1.07996,-2.71869 1.47123,-4.14619 0.39127,-1.42697 0.86397,-2.78472 1.73857,-3.87885 0.87459,-1.09413 2.08504,-1.91402 4.28003,-2.13993 -2.60095,-3.30133 -4.88924,-5.49809 -6.95498,-7.08865 -2.06575,-1.58985 -3.88257,-2.5057 -5.61742,-3.20998 -3.46971,-1.40927 -6.3927,-1.8717 -9.76361,-4.68121 -3.87885,-3.11225 -11.85821,-7.05732 -14.84617,-10.96733 -2.16029,-2.82685 -3.06977,-5.61848 -4.14619,-8.29237 -1.07643,-2.67407 -2.29927,-5.17959 -5.21624,-7.222502 -1.26409,-0.86751 -1.78425,-2.10257 -2.00608,-3.47749 -0.22131,-1.37563 -0.20891,-2.81906 -0.26734,-4.27985 -0.0531,-1.46061 -0.2992,-2.88723 -1.06934,-4.01252 -0.77191,-1.126 -2.05017,-2.03937 -4.4137,-2.40744 -3.54619,-3.57912 -7.84428,-6.09774 -12.17105,-8.55989 -4.32677,-2.46214 -8.66558,-4.84356 -12.43855,-7.89119 -0.86929,1.06049 -1.94554,1.64828 -3.20998,1.73857 -1.2641,0.0885 -2.70559,-0.29566 -4.28003,-1.06934 -3.14873,-1.54736 -6.82575,-4.71839 -10.69982,-9.09491 -2.07406,-1.80089 -4.32889,-3.29408 -6.68747,-4.54737 -4.863923,3.66374 -23.165463,7.9004 -36.112133,21.3998 -7.50063,-3.48404 -34.61133,29.628442 -41.46204,28.488462 7.02828,0.31159 15.08005,-0.99853 16.18356,9.22857 l -0.53467,40.92702 c 9.39022,-0.94719 3.7813,16.47976 -4.94872,17.65479 -16.94592,3.32188 -11.68914,30.30528 -28.3547902,32.23346 -10.92572,-0.77722 -8.87236998,0.0885 -1.2039,5.61742 16.5073802,8.58928 -8.50163998,24.16983 2.5412902,31.16341 4.97546,-0.65329 6.50972,0.19121 6.82114,1.47123 z"
       id="Donihue"
       inkscape:label="#path1991" />
  </g>
</svg>
