<?xml version="1.0" encoding="UTF-8" standalone="no"?>
<!-- Created with Inkscape (http://www.inkscape.org/) -->

<svg
   width="210mm"
   height="297mm"
   viewBox="0 0 210 297"
   version="1.1"
   id="svg1283"
   inkscape:version="1.1.2 (b8e25be833, 2022-02-05)"
   sodipodi:docname="vector.svg"
   xmlns:inkscape="http://www.inkscape.org/namespaces/inkscape"
   xmlns:sodipodi="http://sodipodi.sourceforge.net/DTD/sodipodi-0.dtd"
   xmlns="http://www.w3.org/2000/svg"
   xmlns:svg="http://www.w3.org/2000/svg">
  <sodipodi:namedview
     id="namedview1285"
     pagecolor="#ffffff"
     bordercolor="#666666"
     borderopacity="1.0"
     inkscape:pageshadow="2"
     inkscape:pageopacity="0.0"
     inkscape:pagecheckerboard="0"
     inkscape:document-units="mm"
     showgrid="false"
     inkscape:zoom="0.52347032"
     inkscape:cx="155.69173"
     inkscape:cy="611.30496"
     inkscape:window-width="1920"
     inkscape:window-height="1017"
     inkscape:window-x="-8"
     inkscape:window-y="-8"
     inkscape:window-maximized="1"
     inkscape:current-layer="layer1" />
  <defs
     id="defs1280" />
  <g
     inkscape:label="Capa 1"
     inkscape:groupmode="layer"
     id="layer1">
    <path
       d="m 205.84255,170.82153 c -0.15349,-0.0244 -0.25812,-0.0204 -0.42032,-0.0525 -0.95611,-0.19135 -1.79427,-0.56596 -2.57454,-1.02459 -0.78031,-0.45863 -1.49682,-1.0037 -2.18048,-1.54995 -0.68365,-0.54625 -1.33034,-1.09596 -1.99657,-1.54999 -0.66623,-0.45404 -1.3474,-0.81626 -2.0754,-0.99829 -0.50447,-0.12621 -0.99865,-0.43018 -1.47117,-0.78813 -0.47247,-0.35786 -0.93705,-0.78043 -1.39235,-1.15588 -0.45525,-0.37538 -0.88698,-0.68834 -1.33979,-0.86695 -0.45281,-0.17873 -0.9272,-0.20642 -1.39235,0.0244 -1.05675,0.52837 -2.18092,0.76646 -3.41518,0.8669 -1.23426,0.10057 -2.5712,0.0525 -4.01941,0.0525 -1.55683,0 -2.78661,-0.0664 -3.88807,-0.3941 -0.55073,-0.16407 -1.07035,-0.39614 -1.57625,-0.70931 -0.5059,-0.31308 -1.01657,-0.70136 -1.52369,-1.20848 -1.52638,-1.52634 -2.7575,-2.75751 -4.64993,-4.6499 -0.83967,-0.83967 -1.28548,-1.49987 -1.54996,-1.94405 -0.26463,-0.44418 -0.32936,-0.68679 -0.36764,-0.68301 -0.0366,0.004 -0.0484,0.25772 -0.21008,0.76183 -0.16163,0.50419 -0.49539,1.25474 -1.12962,2.31182 -1.14184,1.90301 -1.84818,2.83665 -2.28556,3.1525 -0.21863,0.15797 -0.36968,0.1486 -0.47288,0.0525 -0.10301,-0.0957 -0.15593,-0.27115 -0.18403,-0.52541 -0.0558,-0.50854 -0.002,-1.24256 0,-1.81267 7.8e-4,-0.28499 -0.008,-0.52565 -0.0525,-0.68304 -0.0448,-0.15756 -0.10544,-0.24957 -0.23654,-0.18403 -0.94019,0.47008 -1.60027,0.99483 -2.20674,1.60251 -0.60646,0.60769 -1.17648,1.30779 -1.99657,2.12792 -0.67323,0.67323 -1.17971,0.9945 -1.60251,1.07711 -0.42285,0.0827 -0.75535,-0.0627 -1.10337,-0.28907 -0.3481,-0.22636 -0.70702,-0.53415 -1.15593,-0.78812 -0.4489,-0.25405 -0.98224,-0.47289 -1.70759,-0.47289 -0.67637,0 -1.24794,-0.13964 -1.73389,-0.36764 -0.48592,-0.2284 -0.88698,-0.5245 -1.26097,-0.8932 -0.74807,-0.73736 -1.3564,-1.67164 -2.12796,-2.4432 -1.19509,-1.19509 -2.10389,-2.57682 -3.73042,-4.20331 -0.48425,-0.48424 -1.758,-1.1964 -2.91605,-2.02283 -0.57902,-0.41324 -1.11969,-0.87241 -1.52369,-1.31353 -0.40387,-0.44113 -0.65678,-0.88295 -0.65678,-1.31353 0,-0.32082 -0.18484,-0.61017 -0.44658,-0.89321 -0.26179,-0.28296 -0.6232,-0.55647 -0.97203,-0.84069 -0.34891,-0.28417 -0.6841,-0.569 -0.94577,-0.89316 -0.26178,-0.32408 -0.44658,-0.67421 -0.44658,-1.07711 0,-0.77766 -0.0554,-1.41059 -0.18402,-1.94405 -0.12825,-0.53343 -0.33263,-0.97431 -0.55167,-1.39235 -0.43803,-0.83605 -1.00264,-1.58497 -1.57625,-2.73214 -0.65047,-1.30099 -1.14103,-2.23088 -1.68133,-3.07369 -0.54031,-0.8428 -1.13981,-1.58638 -2.0491,-2.49571 -0.54327,-0.54328 -1.11387,-1.45224 -1.78641,-2.4169 -0.67258,-0.96466 -1.43799,-1.9914 -2.39064,-2.70588 -1.19301,-0.89475 -2.6683,-1.60613 -3.91437,-2.4432 -0.62299,-0.41853 -1.17331,-0.88339 -1.62877,-1.39231 -0.45541,-0.50895 -0.80469,-1.06465 -0.97202,-1.73389 -0.14006,-0.56095 -0.30617,-1.18463 -0.52541,-1.76015 -0.21944,-0.57548 -0.48868,-1.10162 -0.84064,-1.52369 -0.35177,-0.42208 -0.80181,-0.74001 -1.33983,-0.84065 -0.53803,-0.10056 -1.16644,0.004 -1.94402,0.3941 -0.53452,0.26749 -1.30534,0.85584 -2.25929,1.26097 -0.47696,0.20275 -1.02105,0.37741 -1.57621,0.42037 -0.55521,0.0427 -1.14453,-0.0428 -1.76016,-0.28907 -0.55484,-0.22188 -1.85029,-0.47553 -3.1262,-0.78812 -1.27591,-0.31268 -2.52788,-0.68891 -2.91604,-1.07711 -0.62047,-0.62047 -1.05349,-0.97862 -1.41865,-1.18219 -0.3652,-0.20357 -0.64298,-0.24916 -0.91947,-0.21008 -0.55296,0.0778 -1.11338,0.47288 -2.31181,0.47288 -0.75507,0 -1.338535,-0.0794 -1.838985,-0.21008 -0.5004,-0.13069 -0.91588,-0.32489 -1.33979,-0.49914 -0.4239,-0.17425 -0.84056,-0.34199 -1.36609,-0.47288 -0.52548,-0.13069 -1.16505,-0.21008 -1.97027,-0.21008 -1.3825,0 -2.49442,-0.0513 -3.46775,0.10504 -0.48668,0.0782 -0.94295,0.21741 -1.36609,0.42032 -0.42313,0.20316 -0.82305,0.48156 -1.20844,0.86695 -0.41512,0.41511 -0.81431,0.72188 -1.20845,0.91946 -0.39411,0.19746 -0.7771,0.29395 -1.18219,0.2626 -0.4051,-0.0326 -0.81304,-0.17506 -1.26097,-0.44662 -0.44797,-0.27156 -0.94841,-0.68569 -1.47117,-1.20845 -0.42619,-0.42618 -0.98909,-0.77917 -1.62877,-1.07711 -0.63973,-0.29802 -1.33877,-0.52516 -2.0754,-0.7093 -1.47329,-0.36846 -3.04168,-0.52541 -4.20331,-0.52541 -1.28336,0 -2.48098,0.081 -3.57282,-0.0525 -0.54593,-0.0668 -1.05932,-0.18239 -1.54999,-0.3941 -0.49064,-0.21171 -0.93555,-0.51527 -1.36605,-0.94577 -0.43934,-0.43933 -1.89256,-1.22351 -3.25759,-1.97027 -1.36499,-0.7468 -2.6637,-1.46567 -2.81096,-1.76015 -0.35746,-0.71517 -0.66281,-2.50301 -1.02455,-4.20331 -0.18076,-0.85018 -0.36682,-1.67193 -0.57796,-2.33812 -0.21089,-0.66615 -0.44878,-1.17067 -0.7093,-1.36605 -1.47818,-1.108656 -2.44817,-2.141306 -3.25759,-2.863516 0.008,0.47349 0.0456,0.98131 -0.079,1.60251 -0.13598,0.680886 -2.31451,0.599706 -2.81096,0.972026 -1.1484,0.86124 -1.94402,-0.728886 -1.94402,-1.917756 0,-1.23935 -1.06086,-2.26145 -1.91775,-2.36437 -1.50109,-0.18036 -3.38208,-1.18272 -3.23132,-1.49743 0.50069,-1.04515 -2.34598,-1.30759 -3.96685,-1.31353 -1.61318,-0.004 0.27807,-2.59742 -3.02116,-2.23304 -1.23447,0.13639 -0.64067,-2.32297 -4.17701,-2.07535 -1.11017,0.0778 -2.01982,-2.61232 -2.6008,-1.47117 -0.38963,0.76569 0.19705,3.04872 -2.04914,1.99657 -0.89609,-0.41971 -0.35786,-2.22644 -0.079,-2.7847 0.3709,-0.74167 -4.42845,-0.65674 -4.78123,-0.65674 -1.1988,0 -0.25242,2.95915 -0.99833,2.25925 -0.0863,-0.0806 -1.58334,-0.217 -1.10337,2.18048 0.15593,0.77876 -1.16574,1.35953 -1.47113,1.97031 -0.39695,0.79366 -0.78914,2.70637 -1.52373,3.07364 -0.60276,0.30128 -0.75633,3.36287 -1.52369,3.75673 -2.19823,1.128236 -1.21521,2.549006 -1.68133,3.310096 -0.88132,1.43909 -0.93164,1.58843 -2.10166,2.75844 -0.60842,0.60846 -0.27033,1.92961 -0.44658,2.81096 -0.0843,0.422 -0.5809,0.42476 -1.15593,0.28907 l -0.15756,4.54481 -3.36266,3.3364 -0.47289,2.39064 -6.1998798,-3.83555 0.47288,8.59053 -3.80925,12.39976 c -0.15918,0.39736 -0.54002002,0.83988 -0.81438002,1.26101 -0.13721,0.21049 -0.25283,0.41438 -0.28907,0.60423 -0.0366,0.18972 0.004,0.37415 0.15756,0.5254 0.63590002,0.6359 1.28190002,1.25564 1.91780002,1.89149 0.55712,0.55712 0.82823,1.20617 1.12963,1.86524 0.30127,0.65906 0.61281,1.34842 1.23471,1.97031 0.16285,0.16286 0.73418,0.58908 1.05084,0.84065 0.5419,4e-5 1.08778,0.10585 1.60251,0 0.52736,-0.10871 1.03339,-0.26789 1.49744,-0.49914 0.46404,-0.23126 0.89548,-0.52773 1.2609598,-0.89321 0.29965,-0.29965 0.78805,-0.47818 1.36609,-0.57797 0.57805,-0.0997 1.25263,-0.12173 1.94406,-0.10504 1.38282,0.0326 2.83168,0.21008 3.67786,0.21008 0.82286,0 1.32738,-0.1144 1.68134,-0.28906 0.35379,-0.17425 0.55203,-0.39777 0.76186,-0.63048 0.20968,-0.23248 0.42387,-0.48233 0.81439,-0.65675 0.39044,-0.17425 0.943,-0.28906 1.83893,-0.28906 1.51123,0 2.6168,-0.0407 3.54657,0.10504 0.4649,0.0725 0.90623,0.18687 1.31353,0.3941 0.40729,0.20723 0.80025,0.51128 1.20844,0.91947 0.72698,0.72697 1.79574,1.52198 2.96861,2.15421 0.58643,0.31594 1.18699,0.59645 1.78641,0.78809 0.59938,0.19176 1.18715,0.28906 1.73385,0.28906 1.87358,0 3.09823,0.0912 4.22957,0.36764 1.13134,0.27645 2.16973,0.74334 3.67791,1.49743 0.81687,0.40844 1.37138,0.52712 1.78641,0.47289 0.41503,-0.0541 0.71093,-0.27522 0.97203,-0.55171 0.26097,-0.27644 0.48558,-0.60846 0.84064,-0.8669 0.35502,-0.25853 0.82677,-0.44663 1.52374,-0.44663 0.7319,0 1.49364,0.15227 2.25925,0.39411 0.76565,0.24183 1.54417,0.56917 2.2593,0.97202 0.71508,0.40306 1.38999,0.88332 1.97031,1.36605 0.58029,0.48278 1.05736,0.9895 1.41861,1.47117 0.95367,1.2716 1.39382,2.13781 1.8915,3.02113 0.49767,0.88335 1.0438,1.77941 2.28555,3.02116 0.47683,0.47683 1.01421,0.80433 1.57621,1.02455 0.56201,0.22025 1.15548,0.31267 1.78642,0.36764 1.26194,0.11033 2.65767,0 4.09823,0 1.85835,0 3.57734,0.24346 5.25415,0.60422 1.67678,0.36113 3.29793,0.84415 4.96514,1.26097 1.07194,0.26789 2.08256,0.78821 3.12624,1.33983 1.04368,0.55162 2.12385,1.12861 3.38893,1.44487 1.10927,0.27726 1.90187,0.55508 2.44315,0.84068 0.54133,0.2854 0.84016,0.56335 0.94577,0.86691 0.10545,0.30372 0.0122,0.64066 -0.18402,0.97203 -0.19787,0.3314 -0.49805,0.65568 -0.86695,1.02455 -0.48795,0.48798 -0.61188,0.94173 -0.57796,1.33983 0.0326,0.39817 0.20926,0.74448 0.31512,1.07706 0.10585,0.33263 0.14046,0.65426 -0.13151,0.94577 -0.27155,0.29151 -0.84496,0.56587 -1.94401,0.84065 -1.50781,0.377 -2.37696,0.61448 -3.02112,1.05084 -0.64421,0.43637 -1.06205,1.07324 -1.62882,2.20674 -0.34484,0.68964 -0.46718,1.34471 -0.42032,1.94401 0.0468,0.59934 0.26016,1.14612 0.55171,1.62881 0.2915,0.48266 0.6611,0.895 1.0508,1.23471 0.38963,0.33955 0.81504,0.5914 1.15593,0.76187 0.65182,0.3257 1.18476,0.36967 1.76011,0.1315 0.57536,-0.23817 1.17629,-0.75596 1.94406,-1.52369 0.23288,-0.23288 0.49943,-0.36235 0.76182,-0.42036 0.2622,-0.0582 0.53844,-0.0525 0.81443,0.0244 0.55187,0.15756 1.09152,0.54946 1.60251,1.02454 1.0219,0.95021 1.84724,2.24 1.94402,2.6271 0.22677,0.90721 0.21293,1.53579 0.0244,1.97028 -0.18646,0.43453 -0.54901,0.66688 -0.99828,0.81442 -0.89858,0.29517 -2.15963,0.21171 -3.20507,0.47285 -1.60345,0.40102 -2.16956,0.7095 -2.62706,0.99828 -0.45749,0.28866 -0.8051,0.5625 -2.02283,0.86695 -0.14575,0.0366 -0.19095,0.11847 -0.15756,0.2626 0.0326,0.14412 0.12214,0.35746 0.28906,0.57792 0.33344,0.44113 0.90473,0.99369 1.49743,1.54999 1.18545,1.11257 2.52072,2.20413 2.54828,2.2593 0.2451,0.48978 0.67666,0.8209 1.12963,1.05081 0.45297,0.23003 0.92378,0.3424 1.23471,0.44662 0.31105,0.10423 0.47024,0.20235 0.28906,0.31512 -0.18117,0.11278 -0.71032,0.24347 -1.73385,0.49915 -0.52605,0.1315 -0.85832,0.45077 -1.07711,0.8669 -0.21863,0.41617 -0.30413,0.93803 -0.31512,1.49743 -0.0204,1.1188 0.2622,2.38803 0.47289,3.23133 0.081,0.32367 -0.0326,0.60524 -0.23655,0.8669 -0.20275,0.26179 -0.50346,0.49283 -0.81438,0.73561 -0.31105,0.24265 -0.62365,0.49515 -0.86691,0.76182 -0.24346,0.26667 -0.42036,0.55977 -0.42036,0.89321 0,1.84907 -0.16856,2.9289 0.0244,3.94063 0.0973,0.50586 0.26748,0.99625 0.63048,1.54995 0.36275,0.55374 0.90831,1.17103 1.68133,1.94405 0.2797,0.2797 0.51572,0.52109 0.78813,0.78813 0.0122,-4e-5 0.0163,0 0.0244,0 0.68271,0 1.22668,-0.2113 1.68129,-0.55171 0.4546,-0.34036 0.82444,-0.80534 1.12967,-1.33979 0.61041,-1.06896 0.98599,-2.39238 1.47113,-3.36266 0.16041,-0.32041 0.40961,-0.53351 0.7356,-0.68305 0.32611,-0.14941 0.72559,-0.22351 1.20845,-0.2626 0.96568,-0.0782 2.24326,0 3.78299,0 1.65682,0 2.57901,-0.0835 3.28384,-0.36764 0.704835,-0.28458 1.200315,-0.75372 1.970315,-1.52369 1.54641,-1.54645 2.02687,-2.99889 3.33637,-4.30843 0.39858,-0.39858 0.97052,-0.56615 1.62877,-0.60422 0.65829,-0.0366 1.40546,0.0599 2.15422,0.23654 1.49747,0.35339 2.9918,0.97606 3.8355,1.31353 1.97781,0.7911 3.07763,1.64872 4.25587,2.28556 0.58908,0.31837 1.1813,0.57247 1.94402,0.76182 0.76276,0.18932 1.67811,0.31512 2.86352,0.31512 1.68035,0 2.90578,0.13639 3.99315,0.15756 0.54368,0.0122 1.06273,-0.008 1.57625,-0.10504 0.51347,-0.0973 1.04051,-0.27074 1.60251,-0.55166 0.30535,-0.15268 1.66761,-0.0244 3.17872,0.1315 1.51115,0.15756 3.16309,0.36764 3.96689,0.36764 2.16712,0 4.04954,0.47285 6.67277,0.47285 0.94487,0 1.61269,-0.077 2.10165,-0.21008 0.48897,-0.13314 0.79916,-0.32856 1.05085,-0.57797 0.50334,-0.49886 0.76276,-1.20938 1.62877,-2.07535 0.7909,-0.7909 0.66013,-0.7442 0.52541,-0.57797 -0.0672,0.0831 -0.1368,0.19054 -0.10504,0.23655 0.0326,0.046 0.17466,0.044 0.5254,-0.13151 0.44475,-0.44471 1.23377,-0.674 2.18048,-1.02454 0.47333,-0.17548 0.97996,-0.36276 1.49743,-0.65679 0.51746,-0.29395 1.06896,-0.6749 1.57625,-1.18219 0.8036,-0.80359 1.48151,-1.36251 2.04909,-1.97031 0.56763,-0.60781 1.02292,-1.28064 1.28727,-2.33808 0.0525,-0.20926 0.17792,-0.36723 0.39411,-0.47288 0.21618,-0.10545 0.50822,-0.16082 0.84068,-0.18403 0.66489,-0.0464 1.51665,0.0558 2.36434,0.21008 1.69546,0.3082 3.384,0.83817 3.54656,0.91947 0.34037,0.17018 4.48468,-0.94577 6.19989,-0.94577 0.37497,0 0.71374,-0.14412 1.02455,-0.36764 0.31064,-0.22351 0.60377,-0.51632 0.8932,-0.81438 0.28947,-0.29802 0.5561,-0.59087 0.86695,-0.81443 0.31064,-0.22351 0.64962,-0.3941 1.02455,-0.3941 0.48505,0 0.90607,-0.14861 1.28727,-0.39411 0.38107,-0.2455 0.72282,-0.58236 1.02454,-0.94572 0.60345,-0.72673 1.06596,-1.5651 1.49743,-1.99658 0.41768,-0.41763 1.01067,-0.59241 1.68134,-0.63048 0.67066,-0.0366 1.42944,0.0786 2.18047,0.2626 1.50203,0.36845 2.99572,1.02491 3.78299,1.33983 0.0586,0.0244 1.31043,-0.33466 2.7584,-0.63053 1.44796,-0.29598 3.08801,-0.54808 3.91433,-0.34158 2.57779,0.64445 5.6176,1.41755 7.61853,1.91775 0.612,0.15309 1.10085,0.52162 1.49743,1.02455 0.39655,0.50297 0.70878,1.13769 0.97199,1.81271 0.5265,1.35001 0.88075,2.86479 1.36609,3.83551 0.34077,0.68183 0.47252,1.21786 0.5254,1.68133 0.0529,0.46348 0.0204,0.8505 -0.0244,1.23471 -0.0464,0.38433 -0.0957,0.76447 -0.0525,1.20845 0.0432,0.44402 0.17751,0.95961 0.49915,1.60251 0.0712,0.14209 0.23939,0.14046 0.42032,0.10504 0.18077,-0.0366 0.36642,-0.10504 0.5254,-0.10504 l 3.83551,-10.98116 c -0.79488,-0.63585 -1.59575,-1.25559 -2.39064,-1.89149 -0.34931,-0.2797 -0.53867,-0.7591 -0.60422,-1.33979 -0.0656,-0.58069 -0.008,-1.28132 0.0786,-1.94401 0.17466,-1.32546 0.52544,-2.57703 0.52544,-2.91604 0,-0.53554 -0.0965,-0.96189 -0.23654,-1.31357 -0.14006,-0.35177 -0.32001,-0.64852 -0.55167,-0.86691 -0.46327,-0.43681 -1.06501,-0.6335 -1.60251,-0.84069 -0.53753,-0.20723 -1.01192,-0.40591 -1.23475,-0.78812 -0.11155,-0.19095 -0.1714,-0.42488 -0.1315,-0.73557 0.0407,-0.31064 0.17995,-0.70132 0.42032,-1.18219 0.24347,-0.48652 0.56734,-0.8397 0.94577,-1.12962 0.37863,-0.28988 0.79081,-0.53135 1.23471,-0.73561 0.88783,-0.40847 1.84317,-0.73976 2.57454,-1.47113 0.18768,-0.18769 -0.46939,-0.32163 -1.20845,-0.3941 -0.73907,-0.0721 -1.56204,-0.079 -1.65507,-0.079 z"
       style="fill:#000000;fill-opacity:1;fill-rule:evenodd;stroke:#d39062;stroke-width:0.420331;stroke-linecap:butt;stroke-linejoin:miter;stroke-miterlimit:4;stroke-dasharray:none;stroke-opacity:1"
       id="San_Carlos"
       inkscape:connector-curvature="0" />
  </g>
</svg>
