<?xml version="1.0" encoding="UTF-8" standalone="no"?>
<!-- Created with Inkscape (http://www.inkscape.org/) -->

<svg
   width="210mm"
   height="297mm"
   viewBox="0 0 210 297"
   version="1.1"
   id="svg57"
   inkscape:version="1.1.2 (b8e25be833, 2022-02-05)"
   sodipodi:docname="vector.svg"
   xmlns:inkscape="http://www.inkscape.org/namespaces/inkscape"
   xmlns:sodipodi="http://sodipodi.sourceforge.net/DTD/sodipodi-0.dtd"
   xmlns="http://www.w3.org/2000/svg"
   xmlns:svg="http://www.w3.org/2000/svg">
  <sodipodi:namedview
     id="namedview59"
     pagecolor="#ffffff"
     bordercolor="#666666"
     borderopacity="1.0"
     inkscape:pageshadow="2"
     inkscape:pageopacity="0.0"
     inkscape:pagecheckerboard="0"
     inkscape:document-units="mm"
     showgrid="false"
     inkscape:zoom="0.74029882"
     inkscape:cx="361.34057"
     inkscape:cy="561.93525"
     inkscape:window-width="1920"
     inkscape:window-height="1017"
     inkscape:window-x="-8"
     inkscape:window-y="-8"
     inkscape:window-maximized="1"
     inkscape:current-layer="layer1" />
  <defs
     id="defs54" />
  <g
     inkscape:label="Capa 1"
     inkscape:groupmode="layer"
     id="layer1">
    <path
       inkscape:connector-curvature="0"
       id="Santa_Juana"
       style="fill:#000000;fill-opacity:1;fill-rule:evenodd;stroke:#d39062;stroke-width:0.706484;stroke-linecap:butt;stroke-linejoin:miter;stroke-miterlimit:4;stroke-dasharray:none;stroke-opacity:1"
       d="m 65.995222,25.940247 c -3.80404,0.10949 -6.16898,0.66204 -9.2726,0.66204 -1.05743,0 -3.9512,-0.0883 -6.31416,0.30875 -1.18152,0.19854 -2.24297,0.52482 -2.87012,1.05977 -0.31386,0.26715 -0.50875,0.59051 -0.57371,0.97138 -0.0657,0.38102 0.007,0.81028 0.26496,1.32466 0.54379,1.08714 1.90866,1.99932 3.00259,2.91427 0.54671,0.45766 1.05036,0.93393 1.32466,1.41298 0.27445,0.47883 0.31605,0.95773 0.0438,1.5013 -0.75393,1.50786 -1.77041,2.68625 -2.73763,3.70901 -0.96714,1.02276 -1.85801,1.9056 -2.34019,2.87011 -0.5,0.99912 -1.82429,1.88538 -3.09092,2.82596 -0.63357,0.47007 -1.27218,0.96568 -1.76618,1.45706 -0.49416,0.49124 -0.8373,1.00904 -0.97145,1.54546 -0.39781,1.5921 -0.41022,3.18033 -0.39708,4.76878 0.0146,1.58845 0.0292,3.14588 -0.35328,4.68046 -0.34306,1.37378 -0.87284,6.86788 -1.45707,8.03626 -0.8248,1.64962 -1.94246,2.3683 -2.56106,3.22333 -0.30949,0.42773 -0.46934,0.91108 -0.4416,1.54545 0.0292,0.6343 0.2832,1.40539 0.83897,2.51684 0.48904,0.97809 0.68393,1.7629 0.70656,2.42851 0.0219,0.66569 -0.14672,1.23152 -0.39781,1.81042 -0.50072,1.15773 -1.33334,2.38392 -1.76618,4.54798 -0.2584,1.29247 -0.62555,2.25954 -1.01554,3.04668 -0.38978,0.78722 -0.80919,1.39254 -1.23641,1.94283 -0.427,0.55036 -0.86554,1.00773 -1.23634,1.58962 -0.3708,0.58174 -0.70656,1.28181 -0.92721,2.16362 -0.35985,1.43984 -0.17956,3.24471 0,5.07783 0.17956,1.83312 0.35912,3.68463 0,5.122063 -0.37883,1.5151 -0.48029,2.60173 -0.4854,3.39997 -0.006,0.79824 0.0869,1.3248 0.0883,1.72202 0.001,0.39708 -0.0832,0.65985 -0.4416,0.97145 -0.35839,0.31168 -0.99028,0.64963 -2.07531,1.19218 -0.89028,0.44525 -2.74135,1.65195 -4.45966,2.87004 -0.96991,0.68758 -1.32356,1.11159 -1.98698,1.67794 -0.0146,0.42335 0.14744,0.80831 -0.0883,1.2805 -0.58029,1.16115 -1.0605,1.94983 -1.5013,2.47267 -0.44087,0.52262 -0.84729,0.79882 -1.36882,0.97145 -1.04298,0.34525 -2.47742,0.25474 -5.16615,0.92729 -0.43065,0.1073 -2.42946,0.92123 -4.3272503,1.94282 -0.94889,0.51095 -1.87626,1.08656 -2.56099,1.63371 -0.68467,0.54744 -1.14802,1.08991 -1.14802,1.54546 0,1.361 0.11679,2.37829 0.30876,3.22332 0.19196,0.84503 0.45838,1.51385 0.7948,2.11947 0.67226,1.21122 1.60422,2.23705 2.561,4.15061 1.09904,2.198 1.39195,2.7988 1.8986603,2.73763 0.50657,-0.0584 1.24444,-0.78583 3.2234,-1.2805 0.94247,-0.23576 1.7637,-0.34014 2.56099,-0.30875 0.79722,0.0292 1.55356,0.18394 2.25188,0.4854 0.69853,0.30145 1.34122,0.74926 1.98698,1.32465 0.64598,0.57518 1.30327,1.26663 1.9429,2.11947 1.70152,2.26873 3.95062,3.99485 6.53497,6.57912 1.16969,1.1697 1.73159,1.80568 1.81034,2.16363 0.0788,0.35766 -0.30364,0.43284 -0.92729,0.39708 -0.62335,-0.0365 -1.491,-0.1657 -2.42851,-0.17664 -0.93751,-0.0146 -1.96312,0.0985 -2.82595,0.52992 -1.71984,0.85992 -3.16617,1.58721 -4.1947,2.64931 -0.5146,0.53065 -0.91401,1.14459 -1.19225,1.89867 -0.2781,0.75415 -0.4416,1.64545 -0.4416,2.73763 0,2.70311 -0.0511,4.61258 -0.44161,6.53497 -0.38758,1.92239 -1.1056,3.84499 -2.47274,6.57912 -0.32993,0.9897 -0.0759,0.94715 -0.70656,2.20779 -0.49562,0.99145 -2.08604,2.61369 -3.48821,4.28309 -0.70146,0.83467 -1.36627,1.70575 -1.8104203,2.47268 -0.44379,0.767 -0.70948,1.44589 -0.57372,1.98698 0.15766,0.63211 0.8129103,2.21523 1.1921803,3.92981 0.18978,0.85729 0.31021,1.72108 0.26496,2.561 -0.0438,0.83999 -0.23358,1.62144 -0.70656,2.25194 -0.8531303,1.13751 -1.1524703,2.13327 -1.1480203,3.0026 0.004,0.86926 0.30219,1.63341 0.57372,2.38435 0.27226,0.75094 0.5364903,1.46955 0.48539,2.25195 -0.0511,0.78233 -0.4051,1.64152 -1.36882,2.60515 -0.95436,0.95437 -1.40443,2.13232 -1.94282,3.39997 -0.53868,1.26765 -1.16086,2.618 -2.42851,3.88565 -0.89919,0.89919 -1.71276,1.36911 -2.34027,1.67786 -0.62773,0.30876 -1.07291004,0.43139 -1.32466004,0.57372 -0.25182,0.14233 -0.27226,0.30584 -0.0438,0.70656 0.22846,0.40073 0.68904004,1.03671 1.50129004,2.11947 0.76109,1.01481 1.55794,3.42463 2.29611,5.74023 0.73809,2.31552 1.41334,4.54842 2.07523,5.21031 0.83649,0.83648 1.40875,1.70706 1.7221,2.60515 0.31314,0.89809 0.40073,1.81443 0.35328,2.7818 -0.0949,1.93465 -0.76043,4.01324 -1.32465,6.27007 -0.28905,1.15656 -0.0584,2.62428 0.13211,4.23886 0.18905,1.61466 0.33357,3.38916 -0.13211,5.25447 -0.26788,1.07262 -3.79566,8.21962 -3.66486,8.74275 0.4562,1.82648 1.02123,3.28114 1.81035,4.2831 0.39489,0.50072 0.82174,0.88648 1.36882,1.14801 0.54744,0.26131 1.19699,0.39781 1.94282,0.39781 3.8364603,0 6.5816103,-0.70656 10.9505403,-0.70656 1.25262,0 2.13859,0.2854 2.82596,0.70656 0.68758,0.42043 1.17611,0.95357 1.58954,1.54538 0.41314,0.59197 0.76123,1.20882 1.19218,1.7221 0.43065,0.51314 0.93794,0.9189 1.67794,1.10386 2.02158,0.5051 3.94608,0.70218 5.78431,0.92729 1.8383,0.22481 3.60179,0.49853 5.16622,1.2805 2.17159,1.08575 3.88806,1.29327 5.38695,1.67786 0.74941,0.1927 1.40262,0.4343 2.07524,0.83897 0.67298,0.40437 1.33027,0.97882 1.98698,1.85451 0.90043,1.20049 1.61626,1.99954 2.25195,2.47274 0.63576,0.47299 1.18794,0.62408 1.81034,0.4854 0.62263,-0.13796 1.30306,-0.55912 2.16363,-1.19218 0.86058,-0.63357 1.91743,-1.46013 3.26748,-2.47275 1.01123,-0.75838 1.96006,-1.36363 2.91428,-1.81034 0.95422,-0.44671 1.93545,-0.76386 2.91427,-0.92729 0.97875,-0.1635 1.96181,-0.17956 3.04669,-0.0883 1.08487,0.0912 2.2599,0.3 3.53244,0.61824 0.88707,0.2219 1.71692,0.6489 2.51683,1.19218 0.79992,0.54306 1.55802,1.19582 2.20779,1.94282 0.74715,0.85897 0.99678,1.85903 1.45714,2.82596 0.11168,-0.007 0.1489,0.007 0.26496,0 2.2764,-0.17299 5.29928,-0.52992 6.84408,-0.52992 0.37007,0 0.59197,-0.0912 0.75065,-0.30876 0.1584,-0.21824 0.22701,-0.55255 0.22044,-0.92729 -0.0146,-0.74897 -0.31314,-1.7329 -0.70656,-2.73763 -0.78656,-2.0094 -1.95889,-4.03412 -2.03115,-4.10638 -0.8205,-0.8205 -1.11181,-1.49721 -1.05977,-2.03115 0.0511,-0.5343 0.44306,-0.93459 1.01561,-1.23641 1.14517,-0.60364 2.99114,-0.79473 4.10645,-0.79473 0.53503,0 0.8408,-0.39197 1.01554,-1.01561 0.17445,-0.62335 0.23722,-1.47999 0.22117,-2.38436 -0.0292,-1.80881 -0.3073,-3.84959 -0.0883,-4.72462 0.39269,-1.56961 0.52043,-2.98792 0.39707,-4.23893 -0.12336,-1.25101 -0.49269,-2.31041 -0.97138,-3.26748 -0.4489,-0.89751 -0.70656,-1.58115 -0.7948,-2.07531 -0.0883,-0.49415 -0.0146,-0.80546 0.26496,-1.01553 0.56495,-0.42044 1.90501,-0.39781 4.01813,-0.39781 0.95904,0 1.68867,-0.19051 2.25194,-0.52992 0.5635,-0.33941 0.93766,-0.85211 1.23634,-1.41298 0.59781,-1.12167 0.82153,-2.53545 1.14809,-3.84149 0.64963,-2.59822 1.12035,-5.14396 1.72203,-7.55058 0.68174,-2.72675 1.77596,-4.67527 2.34019,-6.9324 0.39343,-1.57312 0.96744,-2.35385 1.67794,-2.9142 0.71021,-0.56058 1.564798,-0.90248 2.384348,-1.7221 0.88496,-0.88488 1.34918,-1.84195 1.81042,-2.73764 0.46131,-0.89568 0.8878,-1.72677 1.63371,-2.47267 1.83275,-1.83268 3.6712,-3.09712 5.2103,-4.6363 0.3781,-0.3781 0.74233,-0.39197 1.05977,-0.13212 0.31752,0.25912 0.60657,0.79364 0.88313,1.41298 0.55255,1.23867 1.0378,2.91471 1.54539,3.92981 0.20583,0.41241 0.45182,0.6343 0.70656,0.75065 0.25401,0.11606 0.51313,0.11022 0.79481,0 0.5635,-0.22043 1.17553,-0.83671 1.72202,-1.54546 1.09313,-1.41735 1.97006,-3.23347 1.98699,-3.26748 0.34452,-0.68904 0.45401,-1.4029 0.4854,-2.07531 0.0292,-0.67225 0.0146,-1.30276 0.0438,-1.8545 0.0292,-0.55182 0.13942,-1.04116 0.4854,-1.36882 0.34671,-0.32773 0.92451,-0.4854 1.89866,-0.4854 0.52846,0 0.89131,0.27226 1.23634,0.70657 0.34525,0.4343 0.67663,1.01028 1.05977,1.58961 0.38321,0.57956 0.814,1.1551 1.45714,1.58955 0.64306,0.4343 1.48078,0.75065 2.60515,0.75065 1.62794,0 2.32297,-0.28467 3.135,-0.57372 0.81204,-0.28978 1.72203,-0.61824 3.79733,-0.61824 2.89647,0 5.8022,0 8.6986,0 0.86911,0 1.61034,-0.11898 2.20778,-0.35328 0.59708,-0.2343 1.05094,-0.56715 1.41298,-1.01554 0.72408,-0.89634 1.01554,-2.21311 1.01554,-3.84149 0,-1.60159 0.1,-2.70997 0.4416,-3.66492 0.3416,-0.95496 0.94794,-1.74276 1.89866,-2.69348 0.34745,-0.34744 0.88905,-0.28613 1.54546,0 0.6562,0.28613 1.40079,0.7981 2.16355,1.36882 1.52554,1.14152 3.06318,2.5099 3.79741,2.69348 1.73538,0.43357 3.43909,0.5343 4.94535,0.39707 1.50633,-0.13722 2.82449,-0.50729 3.75324,-0.97138 0.62043,-0.31021 0.79875,-0.82152 0.70656,-1.45713 -0.092,-0.63576 -0.47444,-1.4178 -0.88313,-2.20779 -0.40875,-0.78992 -0.86283,-1.6113 -1.19217,-2.38435 -0.3292,-0.77313 -0.49927,-1.49028 -0.35328,-2.07531 0.39634,-1.58443 0.64305,-2.95384 0.75064,-4.19477 0.1073,-1.24094 0.0657,-2.3291 -0.17664,-3.31164 -0.16642,-0.66496 -0.0796,-1.26138 0.22044,-1.76619 0.30073,-0.5051 0.81641,-0.93992 1.41298,-1.2805 1.1932,-0.68101 2.79785,-1.01561 4.15061,-1.01561 1.36312,0 3.05347,0.3511 4.6363,0.97145 1.58276,0.62043 3.06727,1.47772 4.06229,2.47268 0.55474,0.55474 0.82262,0.78094 1.01554,0.79481 0.1927,0.0146 0.30656,-0.1438 0.4416,-0.4416 0.13503,-0.29781 0.32481,-0.72408 0.70656,-1.10393 0.38175,-0.37956 0.96685,-0.73846 1.89867,-0.97138 1.66297,-0.41605 2.06559,-0.49051 2.73763,-0.13212 0.67226,0.35839 1.59422,1.17247 4.1947,2.47268 1.57882,0.78941 2.7972,1.26736 3.88572,1.32465 0.54452,0.0292 1.04488,-0.0438 1.54539,-0.26496 0.50072,-0.21897 0.99196,-0.55035 1.5013,-1.05977 0.65692,-0.65692 1.09933,-1.96121 1.28049,-3.31164 0.18102,-1.35042 0.13504,-2.77223 -0.0883,-3.66485 -0.13211,-0.52992 1.1289,-1.68078 2.51684,-2.78179 1.38801,-1.10101 2.8942,-2.14859 3.26755,-2.42859 1.21028,-0.90773 1.89159,-1.75947 2.51684,-2.60516 0.54963,-0.7432 1.11634,-1.49961 1.8545,-2.29603 -0.12335,-0.29635 -0.16642,-0.59853 -0.30875,-0.88313 -0.96627,-1.93246 -1.49743,-5.29089 -2.91428,-8.12458 -0.60072,-1.20138 -1.44487,-2.45779 -2.16362,-3.79733 -0.71897,-1.33962 -1.32466,-2.73275 -1.32466,-4.2831 0,-1.73034 -0.26204,-3.01259 -0.61824,-4.15061 -0.3562,-1.13794 -0.79175,-2.15151 -1.10386,-3.39989 -0.33722,-1.34852 -0.45693,-3.07201 -0.79481,-4.68046 -0.16861,-0.8043 -0.37445,-1.56305 -0.70656,-2.25194 -0.33211,-0.68905 -0.80846,-1.31284 -1.41298,-1.76619 -0.91371,-0.68539 -2.39756,-1.59509 -3.92981,-2.60523 -1.53224,-1.01006 -3.08332,-2.1118 -4.15061,-3.17916 -1.47728,-1.47728 -2.1845,-2.56698 -2.73764,-3.62069 -0.55327,-1.05378 -0.95422,-2.05246 -1.89866,-3.31172 -0.9986,-1.33137 -2.33341,-2.40355 -3.84149,-3.31164 -1.50816,-0.90802 -3.1988,-1.68765 -4.8571,-2.51683 -1.85619,-0.9281 -2.81727,-1.38152 -3.62077,-1.45714 -0.80342,-0.0759 -1.43546,0.23211 -2.73763,0.88313 -1.14992,0.57517 -2.3426,0.66495 -3.66485,0.70656 -1.32225,0.0438 -2.78859,0.0219 -4.45966,0.4416 -1.17875,0.29489 -2.26122,0.35036 -3.2234,-0.13211 -0.48101,-0.24161 -0.93809,-0.60365 -1.36882,-1.14809 -0.0861,-0.10876 -0.13649,-0.31898 -0.22043,-0.44161 -6.31796,-3.20689 -7.94043,1.78772 -12.98169,2.07531 -9.52135,-0.38394 -9.78704,-4.13302 -13.15825,-7.19729 -2.25187,-2.25195 -7.13999,-3.9485 -9.75836,-5.519433 0.22336,-2.94362 -3.95645,-4.66557 -8.91932,-2.95844 -1.53684,0.38394 -7.87641,-1.22867 -9.36092,-2.11946 -7.354588,-4.81616 -11.984318,-7.25876 -16.999818,-10.19982 -4.50279,-3.00515 -9.64456,-4.8082 -12.27519,-9.75836 -0.57226,-4.09229 0.32262,-7.86853 -0.88306,-11.92192 -2.11888,-4.03652 -5.54972,-6.24081 -4.6363,-11.03886 1.19349,-4.94359 -2.91486,-8.15743 -0.88313,-13.15825 -1.16123,-3.91288 -1.59159,-7.80926 -1.67786,-11.74527 z" />
  </g>
</svg>
