<?xml version="1.0" encoding="UTF-8" standalone="no"?>
<!-- Created with Inkscape (http://www.inkscape.org/) -->

<svg
   width="210mm"
   height="297mm"
   viewBox="0 0 210 297"
   version="1.1"
   id="svg64"
   inkscape:version="1.1.2 (b8e25be833, 2022-02-05)"
   sodipodi:docname="vector.svg"
   xmlns:inkscape="http://www.inkscape.org/namespaces/inkscape"
   xmlns:sodipodi="http://sodipodi.sourceforge.net/DTD/sodipodi-0.dtd"
   xmlns="http://www.w3.org/2000/svg"
   xmlns:svg="http://www.w3.org/2000/svg">
  <sodipodi:namedview
     id="namedview66"
     pagecolor="#ffffff"
     bordercolor="#666666"
     borderopacity="1.0"
     inkscape:pageshadow="2"
     inkscape:pageopacity="0.0"
     inkscape:pagecheckerboard="0"
     inkscape:document-units="mm"
     showgrid="false"
     inkscape:zoom="0.74029882"
     inkscape:cx="361.34057"
     inkscape:cy="453.87078"
     inkscape:window-width="1920"
     inkscape:window-height="1017"
     inkscape:window-x="-8"
     inkscape:window-y="-8"
     inkscape:window-maximized="1"
     inkscape:current-layer="layer1" />
  <defs
     id="defs61" />
  <g
     inkscape:label="Capa 1"
     inkscape:groupmode="layer"
     id="layer1">
    <path
       style="fill:#000000;fill-opacity:1;fill-rule:evenodd;stroke:#d39062;stroke-width:0.94705;stroke-linecap:butt;stroke-linejoin:miter;stroke-miterlimit:4;stroke-dasharray:none;stroke-opacity:1"
       d="m 33.562859,182.78044 c 3.2017,0.59847 15.74167,19.62115 20.95656,22.87647 4.5882,-0.53978 7.98361,-2.21787 11.46522,-3.73166 5.21882,-0.90222 3.9175,-5.04687 8.32853,-7.5173 2.30291,-3.00289 4.87971,-5.80599 6.2194,-9.3561 0.57557,-0.49396 10.06805,10.18652 10.76216,7.4092 4.1546,5.20014 5.21918,12.13041 7.03057,13.52029 11.591651,-1.82957 10.581401,6.29615 11.735681,5.24589 3.58347,-3.2604 11.38433,8.20654 14.98054,17.03568 5.3542,13.14525 10.18702,5.61077 23.14679,-0.70299 7.22643,-3.52062 12.3897,0.11239 16.92751,-4.92138 3.73689,-4.14529 6.49059,-0.67292 8.59892,0.16251 2.66435,1.0552 8.87073,-1.82256 9.3561,-0.54121 3.19267,3.74598 7.58301,5.60426 12.22241,7.24691 7.75983,4.38812 5.30587,1.75619 12.60096,2.37958 2.02443,0.17324 1.74595,-3.48232 1.35201,-6.70606 -0.47535,-0.54765 -0.91898,-1.31113 -1.40613,-1.67652 -1.4949,-1.91927 -3.0248,-4.0223 -4.59694,-5.94895 -1.572,-1.92664 -3.17099,-3.65964 -4.92138,-4.86732 0.48322,-0.48322 0.8408,-1.07668 1.08162,-1.67652 0.24053,-0.59991 0.36223,-1.2001 0.21619,-1.78468 -2.81039,-2.70338 -3.53579,-3.25568 -3.67753,-3.83983 -0.14175,-0.58416 0.25198,-1.18757 -0.27061,-3.94793 0.11025,-2.25115 0.56483,-4.51547 0.75712,-6.76018 0.0959,-1.12228 0.15391,-2.23877 0.0573,-3.35303 -0.0995,-1.11427 -0.37226,-2.25115 -0.81124,-3.35303 -1.17726,-4.17694 -2.07733,-8.32216 -2.59591,-12.54685 -2.72564,-1.09028 -5.74428,-1.8688 -8.65304,-2.59591 -0.74867,-0.30282 -1.20339,-0.74172 -1.56835,-1.24391 -0.3651,-0.50183 -0.645,-1.08191 -0.9194,-1.6224 -0.27418,-0.54049 -0.55123,-1.0421 -1.0275,-1.46025 -0.47606,-0.41807 -1.13782,-0.73041 -2.10919,-0.86528 -0.88676,-1.74782 -1.89293,-3.61519 -2.70409,-5.51627 -0.81109,-1.90109 -1.4203,-3.8719 -1.6224,-5.78673 -0.15391,-0.77043 -0.51758,-1.86136 -1.08162,-3.0286 -0.56411,-1.16717 -1.32444,-2.40012 -2.37958,-3.46113 -0.42022,-0.56053 -3.60595,-1.87531 -5.19183,-3.46127 -0.97882,-1.77459 -1.53384,-3.51038 -1.83881,-5.29993 -0.30496,-1.78956 -0.3565,-3.61547 -0.32429,-5.51635 -0.36581,-0.36581 -1.92034,-1.18635 -3.24493,-2.16324 -0.66219,-0.48823 -1.28959,-1.05105 -1.67652,-1.56834 -0.38657,-0.51758 -0.55624,-0.99665 -0.32429,-1.46018 1.27741,-2.02873 1.94346,-4.30458 2.5418,-6.38163 0.59847,-2.07705 1.17525,-3.99052 2.27141,-5.35405 1.9479,-2.55068 4.0795,-4.88029 6.05711,-7.35508 -0.25127,-2.439 -0.55552,-4.78135 -1.18978,-7.03057 -0.63427,-2.24922 -1.59097,-4.383888 -3.1367,-6.381618 -0.86614,-1.70322 -2.06488,-2.80775 -3.40715,-3.62342 -1.34227,-0.81567 -2.86981,-1.3334 -4.43472,-2.00103 -2.03059,0 -3.5635,-0.70227 -5.0836,-1.35208 -1.52009,-0.65001 -3.01134,-1.29788 -4.86733,-1.29788 -0.86857,0 -2.84168,-0.2477 -4.75916,-0.6493 -1.91755,-0.40161 -3.76494,-0.9527 -4.32655,-1.51423 -1.45166,-1.45173 -3.11679,-2.66207 -4.75916,-3.89388 -0.63641,-0.47749 -2.3513,-1.10088 -3.94792,-1.78468 -1.59663,-0.68367 -3.11766,-1.4221 -3.46121,-2.1092 -0.76076,-1.53827 -1.52632,-2.7804 -2.48774,-3.89387 -0.96136,-1.11341 -2.10884,-2.087 -3.56937,-3.02853 -0.99128,-0.99127 -2.15408,-1.65081 -3.35303,-2.27141 -1.19896,-0.62066 -2.42297,-1.1953 -3.56937,-2.05514 -2.08006,-0.88239 -4.50796,-0.87122 -6.76019,-1.08162 -1.12607,-0.10523 -2.1991,-0.29852 -3.19081,-0.64859 -0.99171,-0.35078 -1.85685,-0.85919 -2.59592,-1.73063 -0.0644,-0.26345 -0.432391,-0.85268 -1.189791,-1.51423 -0.6765,-0.5906 -1.79635,-1.20203 -3.19074,-1.73063 -0.10452,1.7229 -0.31713,3.53851 0.0573,5.4081 -0.39445,0.78854 -1.57679,1.64602 -2.4337,2.4337 -0.42809,0.39373 -0.7705,0.76162 -0.91933,1.08162 -0.1489,0.32 -0.12385,0.61422 0.2706,0.81123 0.46532,2.17141 1.25336,4.11673 1.78469,6.05712 0.53118,1.94032 0.80228,3.85644 0.3787,6.05712 -1.92428,1.31714 -3.08365,3.14986 -4.65099,4.70504 -0.78368,0.77759 -1.63321,1.50506 -2.75814,2.05514 -1.125,0.5498 -2.51918,0.89635 -4.27243,1.0275 l -12.11424,10.870398 -4.32655,7.35508 h -11.30301 l -13.8448,12.54684 -7.67958,-4.16426 c 0.37368,2.17319 0.69583,4.4111 1.62246,6.3275 0.83887,0.83887 2.99094,1.85527 3.78571,2.64997 0.94009,1.00094 1.63693,1.8809 1.83873,2.81226 0.10094,0.46603 0.0938,0.96922 -0.10809,1.46017 -0.20188,0.49109 -0.55266,0.96959 -1.13574,1.5143 -1.40377,1.6753 -3.2163,2.57172 -4.65099,4.11022 0.0143,1.59712 -0.47177,2.40749 -1.02758,3.19081 -0.55552,0.78324 -1.21026,1.54379 -1.62239,2.92035 -0.53047,1.50199 -1.44808,2.08063 -2.21736,2.65004 -0.38443,0.28492 -0.74022,0.52689 -0.97345,0.91933 -0.23338,0.3923 -0.32931,0.89492 -0.27061,1.62247 -0.41306,0.18398 -1.32058,0.8859 -2.4337,1.46018 -1.11312,0.57413 -2.4362,1.01976 -3.67754,0.86528 -0.79219,0 -2.76236,1.22258 -2.64996,1.78468 -0.3787,1.48867 -0.97546,2.7963 -1.46018,4.32656 l -0.2706,5.24588 H 0.60660857 c 0.48536003,1.94018 1.38629003,3.49027 1.78468003,5.08367 0.19901,0.79477 1.05413,1.21871 2.00102,1.56835 0.9469,0.34934 1.99165,0.63927 2.48775,1.13566 1.21692,1.217 2.72578,2.49055 4.1642704,3.56945 1.48967,0.55051 2.84826,0.41878 4.11014,-0.0573 1.26195,-0.4732 2.44537,-1.25179 3.67754,-2.00103 0.74437,-0.37225 1.46404,-0.29566 2.16331,-0.1625 0.69942,0.13315 1.35895,0.32286 2.00095,0.1625 0.92392,-0.23123 1.07361,-0.98719 1.40613,-1.67651 0.16609,-0.34434 0.38443,-0.67508 0.75719,-0.91941 0.37297,-0.24411 0.91532,-0.43239 1.73056,-0.43239 3.79595,-0.13959 7.57349,0.11956 11.35712,0.3243 0.8305,1.47957 1.02378,2.50349 0.64859,3.3531 -0.37512,0.84953 -1.33518,1.52568 -2.75814,2.32546 -0.20545,1.53291 -0.37154,2.77653 -0.75711,3.94792 -0.38586,1.1714 -0.95176,2.26318 -1.89285,3.51533 0.0358,0.47605 0.0501,0.80915 0.0809,1.24383 z"
       id="Chimbarongo"
       inkscape:label="#path2137"
       sodipodi:nodetypes="cccccccsssssccsccscscscsscccssscscsccscsscsccscscsssssssscscsscsccsscscssccccccccssccscsscscccccssscscssssccscscs" />
  </g>
</svg>
