<?xml version="1.0" encoding="UTF-8" standalone="no"?>
<!-- Created with Inkscape (http://www.inkscape.org/) -->

<svg
   width="210mm"
   height="297mm"
   viewBox="0 0 210 297"
   version="1.1"
   id="svg57"
   inkscape:version="1.1.2 (b8e25be833, 2022-02-05)"
   sodipodi:docname="vector.svg"
   xmlns:inkscape="http://www.inkscape.org/namespaces/inkscape"
   xmlns:sodipodi="http://sodipodi.sourceforge.net/DTD/sodipodi-0.dtd"
   xmlns="http://www.w3.org/2000/svg"
   xmlns:svg="http://www.w3.org/2000/svg">
  <sodipodi:namedview
     id="namedview59"
     pagecolor="#ffffff"
     bordercolor="#666666"
     borderopacity="1.0"
     inkscape:pageshadow="2"
     inkscape:pageopacity="0.0"
     inkscape:pagecheckerboard="0"
     inkscape:document-units="mm"
     showgrid="false"
     inkscape:zoom="0.74029882"
     inkscape:cx="361.34057"
     inkscape:cy="453.87078"
     inkscape:window-width="1920"
     inkscape:window-height="1017"
     inkscape:window-x="-8"
     inkscape:window-y="-8"
     inkscape:window-maximized="1"
     inkscape:current-layer="layer1" />
  <defs
     id="defs54" />
  <g
     inkscape:label="Capa 1"
     inkscape:groupmode="layer"
     id="layer1">
    <path
       inkscape:connector-curvature="0"
       id="Arauco"
       style="fill:#000000;fill-opacity:1;fill-rule:evenodd;stroke:#d39062;stroke-width:0.463159;stroke-linecap:butt;stroke-linejoin:miter;stroke-miterlimit:4;stroke-dasharray:none;stroke-opacity:1"
       d="m 189.90382,83.441061 c -0.62399,0.07829 -1.37723,0.307738 -2.34476,0.694738 -0.80219,0.32085 -1.47844,0.504105 -2.0842,0.607897 -0.60577,0.103791 -1.16171,0.103217 -1.7079,0.0579 -1.09247,-0.09058 -2.20355,-0.386551 -3.879,-0.665793 -0.97485,-0.162458 -1.72699,-0.02919 -2.43157,0.260508 -0.70457,0.289698 -1.35565,0.731523 -2.05525,1.100004 -0.69965,0.368463 -1.44265,0.678828 -2.40267,0.752635 -0.96001,0.07384 -2.13268,-0.100442 -3.61844,-0.694738 -0.32875,-0.131594 -0.53346,-0.3331 -0.81052,-0.492108 -0.0144,0.0081 -0.0431,0.05029 -0.0579,0.0579 -1.68321,1.363929 -0.74731,1.911273 -1.38949,3.878958 -2.34921,2.298015 -0.62165,3.293189 -2.77893,5.847391 -0.80731,0.807316 -5.44142,4.62944 -5.8474,5.847387 -2.93282,3.11304 -6.252,5.5655 -8.36582,9.46583 -0.35985,0.71942 -3.43972,1.48111 -4.42897,1.67895 -4.24431,0.53873 -7.39643,3.45441 -11.14475,5.00791 -3.62136,1.36849 -6.09518,4.49095 -10.01586,4.74739 -5.79625,5.26628 -13.17249,4.35288 -20.90006,3.32896 -4.484957,1e-5 -9.576917,1.15304 -13.894767,0.28946 -1.76618,-0.3532 -4.63363,-2.9836 -5.84741,-4.19739 -0.19332,-3.65365 -0.92733,-4.15736 -3.06843,-6.9474 -1.09017,-1.45357 -1.04992,-2.5947 -2.51842,-3.32895 -1.91614,0.52778 -3.88704,0.34635 -5.8474,0.2605 -3.26463,0.50206 -5.96211,-0.4566 -8.91584,-1.38947 -2.8363,0.42105 -5.59465,1.06325 -8.33687,1.93948 -3.45622,1.0507 -7.28201,-0.58066 -9.17634,-3.61844 -0.66917,-1.33839 -3.11954,0.1192 -4.45792,-0.55 -2.71806,-1.60428 -0.0895,-5.04736 0.55001,-7.526342 -0.61801,-2.903815 -2.9532,-4.290469 -5.00788,-6.107918 -1.66009,-2.888263 1.54496,-5.31668 -2.51847,-6.136863 -0.48512,-0.121258 -2.1523,1.891792 -2.48946,2.228954 -1.40739,2.557595 -4.73049,2.072908 -6.39737,3.618436 -1.4395,1.916293 -2.65896,3.984999 -4.45792,5.586864 -2.11187,1.821009 0.10192,3.619179 -2.51847,5.268439 -1.63746,1.64989 -3.94585,2.39731 -5.84736,3.90791 0.82326,2.26284 0.6016,4.41152 0.28951,6.94739 0,1.34236 -3.14882,3.75137 -3.61844,3.90791 -1.05146,1.55969 -0.36081,3.12656 0.26079,4.74739 2.93291,2.352 -1.78274,4.32533 -0.55001,6.10791 0.58614,1.52291 -0.67807,2.57719 -0.55002,4.45792 0.15361,2.377 2.30954,4.12369 2.48952,6.39739 -2.5868,2.31748 -3.2195,2.79723 -5.84741,8.07634 0.25649,1.0265 2.01037,-0.83948 3.06843,-0.83948 3.94801,0.82911 1.83131,5.11905 0,7.23687 -0.94532,3.57851 -3.18136,6.43352 -5.55789,9.2053 -1.99099003,1.19456 -3.02451003,2.14417 -2.51847003,4.16843 0.13877,0.55476 2.78022003,-2.51717 4.45792003,-0.83947 0.99308,0.99308 2.49109,6.27396 0.83947,6.68686 -1.49041,0.37258 -2.56694,3.36647 -2.22896,4.71844 3.08757,1.58939 2.82247,-3.37534 6.97634,-0.2605 4.47782,1.10378 6.46331,5.84927 10.56583,5.00791 -0.0239,7.17474 8.72246,8.80658 6.91848,15.83427 1.71349,3.72621 4.75188,6.39914 6.10791,10.36318 -0.0144,0.10958 0.0885,0.26175 0.0866,0.37611 0.28185,-0.14212 0.56173,-0.27467 0.81052,-0.31821 0.30864,-0.0546 0.57762,-0.0335 0.83947,0.1158 0.26175,0.14786 0.50455,0.40387 0.72367,0.81057 0.21916,0.40674 0.42732,0.95666 0.60792,1.67894 0.0775,0.31057 0.67663,0.49403 1.53419,0.60787 0.85756,0.11389 1.96649,0.17706 3.12633,0.17371 2.31969,-0.005 4.77934,-0.17371 5.44214,-0.17371 1.94506,0 3.37177,0.11724 4.48687,-0.1158 0.55753,-0.11628 1.01543,-0.30769 1.44734,-0.66582 0.43211,-0.35793 0.82598,-0.87033 1.18688,-1.59209 0.54016,-1.08036 0.83646,-1.82872 1.21579,-2.51842 0.37946,-0.68974 0.85354,-1.3457 1.76579,-2.25791 0.68965,-0.68969 1.06572,-1.1863 1.30264,-1.59214 0.23687,-0.40579 0.31343,-0.69859 0.40531,-0.95523 0.0919,-0.25648 0.20863,-0.48153 0.46321,-0.72371 0.25457,-0.24214 0.66466,-0.50604 1.38948,-0.86843 0.36894,-0.18471 0.76176,-0.26031 1.18684,-0.26031 0.42492,-4.3e-4 0.87033,0.0627 1.33158,0.20241 0.20816,0.0632 0.42541,0.23209 0.63682,0.3187 0.1694,-0.19715 0.32922,-0.35076 0.49211,-0.57897 0.72085,-1.01107 1.36705,-2.28394 1.65004,-3.41579 0.23113,-0.92484 0.38952,-3.95982 0.95523,-6.2237 0.47039,-1.88103 1.38944,-3.18399 1.91055,-5.26844 0.14643,-0.58542 0.32922,-1.02623 0.57897,-1.36053 0.24978,-0.3343 0.56982,-0.5369 0.92632,-0.66579 0.7129,-0.25778 1.62057,-0.1738 2.77893,0.1158 1.47542,0.36885 2.26944,0.82369 3.01053,1.01316 0.37037,0.0948 0.72898,0.1315 1.15793,0.0579 0.42875,-0.0736 0.94345,-0.25462 1.59209,-0.57895 0.75769,-0.3788 1.36226,-1.26008 2.02635,-2.2579 0.66405,-0.99782 1.36896,-2.12161 2.25786,-3.01054 1.19296,-1.19293 1.71838,-1.78483 2.46057,-2.08422 0.74214,-0.29936 1.70952,-0.28946 3.76315,-0.28946 0.51795,0 0.88015,-0.24376 1.12898,-0.63684 0.24883,-0.39311 0.38042,-0.93289 0.49206,-1.53422 0.22299,-1.20266 0.31822,-2.66297 0.78162,-3.58948 0.51714,-1.03436 1.22617,-1.75109 1.93945,-2.46054 0.71329,-0.70945 1.4272,-1.40699 1.8816,-2.3158 0.60103,-1.20206 0.94958,-2.47724 1.15788,-3.53159 0.20816,-1.05434 0.2608,-1.88232 0.2608,-2.20001 0,-0.36722 2.1256,5.5787 2.40261,6.68687 0.20816,0.83239 0.455557,1.44844 0.752667,1.88158 0.29717,0.43316 0.64864,0.69631 1.04208,0.78158 0.39335,0.0853 0.83431,0.008 1.33159,-0.20265 0.49728,-0.21122 1.0415,-0.5568 1.64999,-1.01316 0.55858,-0.41895 1.0829,-0.64542 1.59214,-0.72369 0.50925,-0.0783 1.01055,-0.0129 1.50524,0.11581 0.98949,0.25773 1.98611,0.786 3.12634,1.07106 0.94556,0.23639 2.09315,0.48584 3.32898,0.66578 1.23584,0.17993 2.53852,0.28946 3.82106,0.28946 0.50714,1e-5 0.86713,-0.20729 1.12893,-0.52105 0.26175,-0.31377 0.4388,-0.71062 0.63686,-1.12896 0.19763,-0.41832 0.40866,-0.84414 0.72367,-1.15789 0.31535,-0.31377 0.71779,-0.52106 1.33159,-0.52106 0.47469,1e-5 1.52189,0.80277 2.51846,1.67895 0.99653,0.87619 1.96683,1.82212 2.28682,2.14212 0.54355,0.54353 1.12778,0.78346 1.70789,0.81053 0.58016,0.0273 1.14539,-0.16672 1.679,-0.43422 1.0671,-0.53495 1.96318,-1.44213 2.34471,-1.82368 0.72726,-0.72724 1.21966,-1.45291 1.7658,-2.11317 0.54613,-0.66026 1.14228,-1.2514 2.0553,-1.7079 0.22108,-0.11049 0.36894,-0.42589 0.49206,-0.86843 0.12298,-0.44254 0.21773,-1.01933 0.34741,-1.59211 0.12968,-0.57278 0.28042,-1.14876 0.52102,-1.65 0.24069,-0.50124 0.58633,-0.90104 1.04212,-1.12895 0.46609,-0.23305 0.86455,-0.28817 1.24474,-0.20261 0.38042,0.0855 0.71936,0.29271 1.10003,0.55 0.38042,0.25725 0.80616,0.55733 1.27368,0.83948 0.46752,0.28213 0.9803,0.5635 1.62104,0.72368 2.03679,0.50918 2.99249,0.60511 3.67635,1.07106 0.34167,0.23299 0.61624,0.5663 0.92633,1.07106 0.31008,0.50476 0.64648,1.17716 1.12893,2.14211 0.4589,0.91757 1.12692,1.63078 1.9395,2.17106 0.81253,0.54027 1.79388,0.91886 2.86577,1.18684 1.62052,0.40512 3.0268,0.43565 4.40002,0.28946 1.37322,-0.14619 2.70499,-0.4831 4.19741,-0.78158 0.90063,-0.18012 1.91524,-0.41387 3.03948,-0.6079 1.1242,-0.19399 2.35161,-0.34736 3.64735,-0.34736 1.23583,-1e-5 2.49521,0.022 3.7053,-0.0287 1.21009,-0.0511 2.37845,-0.1604 3.47369,-0.43421 1.25119,-0.31281 2.4408,-0.42469 3.56055,-0.34736 1.11969,0.0773 2.16306,0.32889 3.12633,0.81053 1.15745,0.57872 2.01496,1.18218 2.86578,1.33158 0.4254,0.0747 0.83535,0.0273 1.30263,-0.1737 0.46752,-0.20069 0.97504,-0.56974 1.56319,-1.1579 0.37133,-0.37119 0.89326,-0.59339 1.47629,-0.75264 0.14978,-0.0411 0.33305,-0.0277 0.49211,-0.0579 -0.0191,-0.0282 -0.0383,-0.11915 -0.0579,-0.14475 -0.5324,-0.70987 -0.83464,-1.12684 -0.98417,-1.38948 -0.14978,-0.26261 -0.1359,-0.36966 0.0287,-0.46316 0.16509,-0.0935 0.45699,-0.17385 0.86842,-0.37631 0.41153,-0.20247 0.9447,-0.51053 1.53419,-1.10001 0.83105,-0.83106 1.23918,-1.71633 1.5921,-2.54738 0.35314,-0.83105 0.64801,-1.60326 1.27373,-2.22896 0.63169,-0.63174 0.86402,-1.19498 0.89737,-1.7079 0.0335,-0.5129 -0.14021,-0.98402 -0.31822,-1.47631 -0.17801,-0.49231 -0.37324,-0.99326 -0.37612,-1.56317 -0.003,-0.56991 0.19333,-1.2227 0.75262,-1.96843 0.31009,-0.41335 0.43355,-0.92568 0.46321,-1.47632 0.0287,-0.55064 -0.0493,-1.11693 -0.1737,-1.67895 -0.24883,-1.12405 -0.67802,-2.16211 -0.78162,-2.57633 -0.0885,-0.35473 0.0852,-0.79983 0.3766,-1.30263 0.29094,-0.50281 0.72721,-1.07384 1.18683,-1.62106 0.91929,-1.09444 1.96185,-2.15795 2.28686,-2.80791 0.41345,-0.82647 0.24692,-0.79856 0.46321,-1.44737 0.89623,-1.79248 1.367,-3.05289 1.62105,-4.31317 0.25409,-1.26029 0.2895,-2.51214 0.2895,-4.28423 0,-0.71601 0.10719,-1.30036 0.28951,-1.79474 0.18232,-0.49439 0.44455,-0.8966 0.78157,-1.24475 0.67429,-0.69629 1.62253,-1.1731 2.75002,-1.73684 0.56566,-0.28281 1.23799,-0.35468 1.8526,-0.34736 0.61467,0.007 1.18329,0.0924 1.59214,0.1158 0.40866,0.0234 0.6595,-0.0258 0.60787,-0.26051 -0.0517,-0.23467 -0.42014,-0.6516 -1.18683,-1.41842 -1.69421,-1.69421 -3.16873,-2.82585 -4.28421,-4.31318 -0.41919,-0.5591 -0.85034,-1.01226 -1.27369,-1.38948 -0.42349,-0.37722 -0.84483,-0.67076 -1.30263,-0.86842 -0.45795,-0.19768 -0.95365,-0.29798 -1.47634,-0.31841 -0.52269,-0.0206 -1.06103,0.0482 -1.67895,0.20265 -1.29732,0.32435 -1.78096,0.79936 -2.11315,0.83948 -0.3321,0.0402 -0.52427,-0.35377 -1.24474,-1.79474 -0.62724,-1.25449 -1.23818,-1.92702 -1.67899,-2.72106 -0.2206,-0.39703 -0.39478,-0.83552 -0.52102,-1.38948 -0.12633,-0.55397 -0.20241,-1.2209 -0.20241,-2.11317 0,-0.29865 0.30386,-0.65445 0.75262,-1.01316 0.44885,-0.3587 1.05691,-0.73621 1.67894,-1.07106 1.24416,-0.6697 2.55441,-1.20306 2.83688,-1.27369 1.76273,-0.44067 2.70308,-0.38152 3.38684,-0.60789 0.34167,-0.11317 0.60839,-0.29405 0.89737,-0.63685 0.28903,-0.34281 0.60361,-0.85984 0.98423,-1.62106 0.30434,-0.60848 0.29573,-1.14473 0.1158,-1.65 -0.17992,-0.50527 -0.55111,-0.97579 -0.98422,-1.44737 -0.43307,-0.47159 -0.9347,-0.93995 -1.38949,-1.44738 -0.4546,-0.50743 -0.85488,-1.0372 -1.09998,-1.650006 -0.21199,-0.530103 -0.29477,-1.156738 -0.28951,-1.794743 0.005,-0.638 0.09,-1.28759 0.20242,-1.968427 0.22538,-1.36167 0.57896,-2.765269 0.57896,-3.907909 0,-0.214618 -0.34597,-0.597938 -0.86842,-1.071059 -0.52255,-0.473115 -1.23464,-1.031475 -1.9395,-1.563161 -1.40973,-1.063388 -2.85449,-2.043963 -2.95263,-2.142112 -0.7353,-0.735303 -1.28694,-1.340773 -1.79475,-1.823694 -0.50785,-0.482915 -0.94771,-0.830371 -1.41843,-1.042108 -0.47087,-0.211746 -0.96815,-0.280892 -1.5921,-0.202606 z" />
  </g>
</svg>
