<?xml version="1.0" encoding="UTF-8" standalone="no"?>
<!-- Created with Inkscape (http://www.inkscape.org/) -->

<svg
   width="210mm"
   height="297mm"
   viewBox="0 0 210 297"
   version="1.1"
   id="svg1283"
   inkscape:version="1.1.2 (b8e25be833, 2022-02-05)"
   sodipodi:docname="vector.svg"
   xmlns:inkscape="http://www.inkscape.org/namespaces/inkscape"
   xmlns:sodipodi="http://sodipodi.sourceforge.net/DTD/sodipodi-0.dtd"
   xmlns="http://www.w3.org/2000/svg"
   xmlns:svg="http://www.w3.org/2000/svg">
  <sodipodi:namedview
     id="namedview1285"
     pagecolor="#ffffff"
     bordercolor="#666666"
     borderopacity="1.0"
     inkscape:pageshadow="2"
     inkscape:pageopacity="0.0"
     inkscape:pagecheckerboard="0"
     inkscape:document-units="mm"
     showgrid="false"
     inkscape:zoom="0.52347032"
     inkscape:cx="155.69173"
     inkscape:cy="611.30496"
     inkscape:window-width="1920"
     inkscape:window-height="1017"
     inkscape:window-x="-8"
     inkscape:window-y="-8"
     inkscape:window-maximized="1"
     inkscape:current-layer="layer1" />
  <defs
     id="defs1280" />
  <g
     inkscape:label="Capa 1"
     inkscape:groupmode="layer"
     id="layer1">
    <path
       d="m 204.07903,204.35311 c 0.0541,-0.63055 0.175,-1.0566 0.175,-1.86261 0,-3.70421 0.10464,-6.71986 0.46548,-9.37143 0.36083,-2.65166 1.00239,-4.91507 2.09553,-7.10143 0.98588,-1.97177 2.05511,-4.57327 2.5029,-7.45054 0.22372,-1.43864 0.29318,-2.96081 0.11637,-4.48198 -0.17681,-1.52127 -0.64318,-3.09044 -1.39696,-4.59844 -1.11091,-2.22191 -2.66357,-4.76722 -4.13278,-7.39245 -1.46913,-2.62523 -2.8079,-5.29475 -3.43422,-7.79982 -0.61341,-2.45222 -1.1856,-5.51017 -2.09553,-8.49831 -0.45464,-1.49402 -0.99282,-3.006 -1.68797,-4.36561 -0.6955,-1.35952 -1.57331,-2.62099 -2.61936,-3.66704 -2.15309,-2.15308 -3.44495,-4.65744 -4.83127,-6.98498 -0.69279,-1.16377 -1.36656,-2.29137 -2.2119,-3.25966 -0.84524,-0.96829 -1.85819,-1.83131 -3.08502,-2.44473 -1.78683,-0.89305 -4.57281,-3.08438 -7.10134,-5.87894 -1.26426,-1.39732 -2.44978,-2.95629 -3.43431,-4.54025 -0.98443,-1.58387 -1.75914,-3.19489 -2.15362,-4.77308 -0.13621,-0.54395 -1.84078,-4.36164 -3.60895,-8.03265 -1.76807,-3.670919 -3.61084,-7.217719 -4.01632,-7.217719 -3.11542,0 -7.17875,-1.31523 -10.82666,-1.97907 -1.82392,-0.33196 -3.52542,-0.48171 -4.94764,-0.23273 -0.71084,0.12448 -1.37702,0.33557 -1.92088,0.69821 -0.54396,0.36353 -1.00681,0.84975 -1.33878,1.51341 -1.25353,2.50706 -2.13233,3.94281 -2.85219,4.71481 -0.71986,0.772179 -1.27536,0.883139 -1.9208,0.814579 -0.64589,-0.0722 -1.356,-0.336479 -2.38654,-0.349109 -1.03053,-0.009 -2.37418,0.226419 -4.24915,1.164139 -0.70813,0.35451 -1.95066,0.48531 -3.43431,0.5241 -1.48365,0.0361 -3.21925,-0.009 -4.94763,-0.0541 -1.72847,-0.0451 -3.44684,-0.0965 -4.88945,0 -1.44269,0.0965 -2.57507,0.34549 -3.20148,0.81458 -4.22885,3.17162 -5.94542,4.9608 -7.62518,5.70438 -0.83983,0.37166 -1.62591,0.46908 -2.79401,0.34911 -1.1681,-0.11998 -2.69135,-0.45465 -4.83126,-0.98949 -1.30432,-0.32656 -2.163909,-0.40684 -2.852199,-0.34911 -0.68828,0.0541 -1.19408,0.28325 -1.92079,0.52411 -0.72708,0.23995 -1.66497,0.4772 -3.08502,0.69821 -1.42006,0.22101 -3.34383,0.40774 -6.11186,0.40774 -5.61751,0 -15.15041,1.28059 -16.47277,1.28059 -2.37572,0 -5.49754,0.007 -8.67295,-0.29137 -1.58775,-0.14884 -3.16846,-0.33467 -4.7149,-0.69821 -1.54634,-0.36444 -3.02142,-0.89937 -4.36561,-1.5716 -2.15128,-1.07573 -3.46182,-1.26373 -4.36552,-0.98958 -0.90379,0.27423 -1.4187,1.01745 -1.97907,1.92088 -0.56019,0.90344 -1.20698,1.92378 -2.32836,2.73574 -0.56019,0.40593 -1.22502,0.80014 -2.09543,1.04776 -0.87051,0.24807 -1.90826,0.34911 -3.20148,0.34911 -1.86162,0 -3.60056,0.33918 -5.23865,0.81458 -1.63817,0.47629 -3.19732,1.11172 -4.71489,1.74624 -1.51748,0.63416 -2.98191,1.2704 -4.48198,1.74624 -1.49998,0.4763 -3.01285,0.81458 -4.59844,0.81458 -2.54052,0 -4.20026,0.50156 -5.41328,1.2805 -1.21303,0.7794 -2.02021,1.83781 -2.73574,2.96865 -0.71535,1.13076 -1.33832,2.32069 -2.3865398,3.37603 -1.04831,1.05544 -2.50381,1.95021 -4.71481,2.50291 -1.17062,0.29228 -2.11429,1.18461 -2.85219,2.38654 -0.7379,1.20193 -1.26435,2.70155 -1.51342,4.30743 -0.24897,1.60588 -0.23815,3.32669 0.0541,4.83117 0.29588,1.50458 0.90668,2.82757 1.80452,3.72532 0.76406,0.76406 1.27761,1.51179 1.62978,2.27017 0.35181,0.75865 0.48803,1.53579 0.52411,2.27008 0.0722,1.4685 -0.37256,2.87114 -0.98949,4.1327 -0.61612,1.26165 -1.38144,2.35253 -1.92089,3.25966 -0.53944,0.90722 -0.82811,1.57395 -0.5241,1.97907 0.26791,0.35632 1.14852,2.8217 1.68797,5.70439 0.26972,1.44134 0.43841,3.03486 0.40774,4.48198 -0.0271,1.44711 -0.23635,2.74782 -0.81458,3.7835 -0.005,0.018 0.005,0.0361 0,0.0541 6.5711,0.14975 12.3031798,1.22241 17.7533598,1.22232 0.93131,0 3.78044,-2.46457 6.40287,-4.48198 1.31117,-1.00871 2.56723,-1.89518 3.49249,-2.32827 0.46276,-0.2165 0.84074,-0.29498 1.10586,-0.23273 0.26521,0.0631 0.40774,0.26701 0.40774,0.69821 0,0.66573 0.37616,2.08028 1.04776,3.7835 0.67115,1.70321 1.62239,3.68246 2.79401,5.41328 1.17153,1.73091 2.5739,3.26787 4.07451,4.01642 0.75053,0.37436 1.52785,0.52591 2.32836,0.46547 0.80014,-0.0632 1.61535,-0.36715 2.44472,-0.98949 1.07817,-0.80826 1.90303,-1.20752 2.61928,-1.28059 0.71625,-0.0722 1.32452,0.18492 2.03734,0.64047 1.42556,0.91083 3.18984,2.64264 6.75206,4.4238 1.00654,0.50336 3.66425,3.48825 6.81034,6.57751 1.57304,1.54463 3.27969,3.10901 4.94763,4.42379 1.66804,1.31478 3.30332,2.40964 4.77308,2.91038 1.46696,0.49975 2.76542,0.40143 3.89987,0.0541 1.13454,-0.3437 2.1419,-0.96983 2.96865,-1.62988 0.82631,-0.66032 1.49357,-1.35393 2.03726,-1.80443 0.54395,-0.45014 0.93699,-0.63506 1.2224,-0.3491 0.87592,0.87592 1.93749,1.62221 3.08502,2.27017 1.14754,0.64769 2.3962,1.20265 3.72523,1.68797 2.65825,0.97073 5.59668,1.6757 8.44021,2.38654 2.0064,0.50155 3.705469,0.54034 5.296919,0.3491 1.59136,-0.19034 3.05967,-0.63596 4.48198,-0.98958 1.42231,-0.35271 2.80826,-0.654 4.30733,-0.64047 1.49908,0.018 3.12589,0.36985 4.94773,1.28059 1.84024,0.92012 3.15827,1.28528 4.24915,1.33877 1.09079,0.0541 1.9595,-0.19304 2.79392,-0.58184 0.83442,-0.38879 1.66451,-0.9323 2.73582,-1.33877 1.07131,-0.40684 2.33161,-0.69821 4.1327,-0.69821 2.29471,0 6.09381,0.50697 9.77898,0.75684 1.8425,0.12539 3.62519,0.21019 5.23865,0.11637 1.61346,-0.0938 3.01646,-0.37346 4.01632,-0.87321 4.18917,-2.09454 9.22268,-3.87723 13.96996,-5.06409 2.43715,-0.60891 5.11677,-1.14582 7.74155,-1.10595 1.31244,0.018 2.63831,0.14884 3.89996,0.52411 1.26165,0.37526 2.46313,1.00329 3.60886,1.86261 1.53885,1.15412 2.8935,1.9023 4.19097,2.44472 1.29746,0.54215 2.53628,0.87502 3.78349,1.16414 2.4947,0.57913 5.05751,1.01538 8.4984,2.73582 1.44802,0.72437 5.03955,2.73727 8.67295,4.36561 0.018,0.007 0.0361,-0.007 0.0541,0 z"
       style="fill:#000000;fill-opacity:1;fill-rule:evenodd;stroke:#d39062;stroke-width:0.931324;stroke-linecap:butt;stroke-linejoin:miter;stroke-miterlimit:4;stroke-dasharray:none;stroke-opacity:1"
       id="Chillan_Viejo"
       inkscape:connector-curvature="0" />
  </g>
</svg>
