<?xml version="1.0" encoding="UTF-8" standalone="no"?>
<!-- Created with Inkscape (http://www.inkscape.org/) -->

<svg
   width="210mm"
   height="297mm"
   viewBox="0 0 210 297"
   version="1.1"
   id="svg1283"
   inkscape:version="1.1.2 (b8e25be833, 2022-02-05)"
   sodipodi:docname="vector.svg"
   xmlns:inkscape="http://www.inkscape.org/namespaces/inkscape"
   xmlns:sodipodi="http://sodipodi.sourceforge.net/DTD/sodipodi-0.dtd"
   xmlns="http://www.w3.org/2000/svg"
   xmlns:svg="http://www.w3.org/2000/svg">
  <sodipodi:namedview
     id="namedview1285"
     pagecolor="#ffffff"
     bordercolor="#666666"
     borderopacity="1.0"
     inkscape:pageshadow="2"
     inkscape:pageopacity="0.0"
     inkscape:pagecheckerboard="0"
     inkscape:document-units="mm"
     showgrid="false"
     inkscape:zoom="0.52347032"
     inkscape:cx="155.69173"
     inkscape:cy="611.30496"
     inkscape:window-width="1920"
     inkscape:window-height="1017"
     inkscape:window-x="-8"
     inkscape:window-y="-8"
     inkscape:window-maximized="1"
     inkscape:current-layer="layer1" />
  <defs
     id="defs1280" />
  <g
     inkscape:label="Capa 1"
     inkscape:groupmode="layer"
     id="layer1">
    <path
       id="San_Bernardo"
       style="fill:#000000;fill-opacity:1;stroke:#d38d5f;stroke-width:1.7003;stroke-miterlimit:4;stroke-dasharray:none;stroke-opacity:1"
       d="m 101.52242,4.5669825 21.60002,9.5942805 22.15934,9.24674 -7.67603,21.74847 -3.19856,-1.27903 v 11.19413 l -5.75677,11.83281 28.46416,12.15417 12.47359,2.55892 -6.88553,28.069327 27.46626,2.54286 -2.1251,15.05191 h 2.58521 l -0.86253,7.00823 17.9208,0.0119 -0.53328,10.37282 -3.29425,5.04775 c 0.1407,-0.11257 -2.27285,3.39048 -2.13018,3.29368 -0.27719,0.89349 -1.04405,1.44689 -1.58661,2.09766 -2.13974,1.46534 -3.44508,1.87338 -5.90339,2.29087 -1.50656,-0.18011 -0.27016,0.58956 -1.49784,1.14535 -3.02858,0.37992 -6.16848,-0.0844 -9.07521,0.52907 -0.59519,1.03138 -0.20825,1.67906 -0.79218,2.73141 -1.76897,0.80907 -4.42103,0.35177 -6.34381,0.35177 -0.89349,0 -0.24201,0.96948 -0.70494,1.58606 -0.27156,0.36302 -1.37471,0.19417 -1.58591,0.6163 -0.90053,2.10625 -1.10456,1.76855 -2.46703,3.61252 -1.56143,2.24654 -3.88972,4.74523 -6.25572,6.07942 -0.79922,-1.51472 -0.92304,-1.38738 -2.64333,-1.58592 -0.78796,-0.15759 -1.65557,-0.0703 -2.29071,0.0845 -1.43888,0.59518 -0.66274,4.18351 -3.34815,2.99566 -0.29407,0.29408 -1.40819,-1.40806 -1.67413,-1.674 -1.21712,2.72889 -2.14284,1.84805 -3.17184,2.46702 -0.45308,1.1313 -0.88363,2.06053 -1.49797,3.08375 -1.24104,0.36303 -3.51586,0.23218 -4.84597,0.17589 -3.413,-0.11256 -2.01198,-0.60223 -2.64319,-2.02648 -0.85128,0 -5.94912,-0.26453 -6.60819,-0.26453 l -12.03022,5.38489 c -11.35946,3.08825 -5.98105,14.5455 -8.81252,21.89776 -10.64565,16.47137 -15.17784,2.29606 -37.386275,23.90059 l -18.29269,12.41757 c -11.46007,-0.92303 -9.9749,10.10816 -18.69314,18.96036 -3.40934,6.04451 -8.21324,-2.92152 -10.68196,10.68181 -9.66155,-3.08585 -16.81835,25.58402 -22.9658702,21.76423 -10.39252,-9.4419 -3.62519,-16.51795 -2.00283,-16.42339 5.4393402,-5.07771 2.83596,-8.8854 1.8693,-12.95171 3.0474502,-4.3172 -0.29126,-8.63452 -1.46871,-12.95171 0.32222,-10.52029 14.6679302,11.95184 16.8731002,-4.83359 -0.91883,-8.09856 4.72875,-10.41982 12.22551,-20.37572 5.44145,-4.2792 1.22134,-5.65996 0.26313,-8.01892 -2.23134,-21.18607 -12.09734,-21.51827 -6.57274,-33.12707 20.50743,-38.30384 30.10608,-7.9338 44.6952,-4.33802 h 15.38047 c 4.59931,-4.14637 3.91955,-11.46007 5.3898,-17.48376 l 1.84032,-6.57287 c -9.39308,-3.29411 -6.11177,-4.16636 -7.62452,-5.52123 l -1.31421,-8.41319 -3.15495,0.12664 c -5.43216,-1.12566 -3.88493,-9.36662 -10.25364,-12.0941 v -3.9436 l 10.25364,-2.76069 c -10.38605,-12.12463 0.0985,-17.51162 -10.12222,-19.71848 9.30035,-7.673487 14.24425,-6.824877 13.80299,-9.859237 -7.05029,0.66695 -9.61286,-18.64136 -13.27717,-17.08936 v -5.78407 c -8.63916,-3.76744 -12.02698,-2.07065 -14.32881,-4.33815 z"
       sodipodi:nodetypes="ccccccccccccccccccccccccscccccccccccccccccccccccccccccccccccccccccc" />
  </g>
</svg>
