<?xml version="1.0" encoding="UTF-8" standalone="no"?>
<!-- Created with Inkscape (http://www.inkscape.org/) -->

<svg
   width="210mm"
   height="297mm"
   viewBox="0 0 210 297"
   version="1.1"
   id="svg1283"
   inkscape:version="1.1.2 (b8e25be833, 2022-02-05)"
   sodipodi:docname="vector.svg"
   xmlns:inkscape="http://www.inkscape.org/namespaces/inkscape"
   xmlns:sodipodi="http://sodipodi.sourceforge.net/DTD/sodipodi-0.dtd"
   xmlns="http://www.w3.org/2000/svg"
   xmlns:svg="http://www.w3.org/2000/svg">
  <sodipodi:namedview
     id="namedview1285"
     pagecolor="#ffffff"
     bordercolor="#666666"
     borderopacity="1.0"
     inkscape:pageshadow="2"
     inkscape:pageopacity="0.0"
     inkscape:pagecheckerboard="0"
     inkscape:document-units="mm"
     showgrid="false"
     inkscape:zoom="0.52347032"
     inkscape:cx="155.69173"
     inkscape:cy="611.30496"
     inkscape:window-width="1920"
     inkscape:window-height="1017"
     inkscape:window-x="-8"
     inkscape:window-y="-8"
     inkscape:window-maximized="1"
     inkscape:current-layer="layer1" />
  <defs
     id="defs1280" />
  <g
     inkscape:label="Capa 1"
     inkscape:groupmode="layer"
     id="layer1">
    <path
       d="m 125.44465,212.48857 c 0.355,0.90873 -0.22825,3.29896 1.60172,2.00217 -0.20359,-0.67371 -0.89462,-1.59375 -1.60172,-2.00217 z m -1.18645,-3.33688 c 0.78301,1.4144 1.93059,1.11735 0,0 z m 51.29936,-29.45376 c 0.48369,0.70491 0.16311,1.42968 1.12712,1.36444 0.77505,0.29034 0.99392,1.16418 0.57844,1.57205 -0.65141,0.58995 0.65529,0.93264 1.05293,1.21611 0.65963,0.35518 1.8532,-0.64153 1.11234,-1.21611 -0.47754,-0.52133 0.4602,-0.43348 0.48939,-0.77121 -0.50998,-0.5143 -1.31522,-0.67684 -1.67585,-1.39408 -0.60527,-0.84769 -1.75822,-0.80241 -2.68437,-0.7712 z m 0.65254,-7.16324 c -0.14644,0.10847 -0.32636,0.17557 -0.50423,0.20763 -0.76607,0.0689 -1.90764,-0.0101 -2.12078,0.96403 -0.0366,1.28434 1.2613,0.10224 1.89833,0.29661 0.88059,0.33134 0.37658,1.33086 0.28176,1.95765 0.0121,1.2799 1.4388,0.79449 2.06149,1.4534 0.61127,0.57068 1.15628,1.58581 2.13562,1.42375 0.76252,0.0558 1.8254,-0.69408 0.87499,-1.33477 -1.31126,-0.0227 -0.0671,-1.1873 -0.50424,-1.91318 -0.53978,-0.38834 -1.36865,-0.5583 -1.37923,-1.43855 -0.51018,-0.93631 -1.7747,-1.27565 -2.74371,-1.61657 z m 8.48316,0.80086 c -0.62934,0.0121 -1.02486,0.83174 -1.61653,1.03814 -0.5197,0.57126 0.0257,1.56167 -0.80084,1.928 -0.74861,0.63578 0.20905,1.40651 0.786,1.72036 0.759,0.42227 1.56892,0.83057 2.03183,1.6017 0.77903,0.66576 1.55938,-0.81347 0.97882,-1.37921 -0.63585,-0.5363 -1.55283,-0.91795 -1.73521,-1.82421 -0.10164,-0.58382 1.25076,-0.41897 0.5339,-1.05296 -0.38736,-0.37668 1.50067,-0.0121 1.06781,-1.09747 -0.10004,-0.43319 -0.44624,-0.94782 -0.94917,-0.88983 -0.10044,-0.0356 -0.20672,-0.046 -0.29661,-0.0446 z m -16.9663,-1.45341 c -0.11872,0.18761 -0.30304,0.32686 -0.41527,0.51907 0.17838,0.044 0.51635,0.49825 0.14825,0.81569 -0.68464,0.59456 -1.60974,-0.43584 -2.43224,-0.089 -0.60579,0.38001 -1.33918,0.41523 -2.03177,0.28181 -0.82706,-0.0542 -1.36068,-0.9828 -2.19494,-0.87503 -0.70808,0.52149 -1.4492,0.22279 -2.20981,0.19284 -0.86279,0.19625 -0.87579,1.22002 -0.96397,1.928 -0.0838,0.63918 -0.14443,1.65711 0.60804,1.89834 0.61753,-0.0538 1.472,-1.22959 1.89834,-0.20763 0.57361,0.67719 0.52914,-0.51198 0.84535,-0.78605 0.51902,-0.34042 1.37892,-1.6496 1.76483,-0.53391 0.046,0.7583 0.30403,1.57202 0.97884,2.00217 0.9119,0.31157 0.69621,-0.75245 0.62289,-1.26062 0.19103,-0.5891 1.0577,-1.23867 1.6017,-0.69703 0.59077,0.5377 0.41352,1.446 -0.22243,1.85382 -0.63632,0.53617 -0.15266,1.41401 0.47459,1.70555 0.91765,0.3172 -0.19867,-1.31023 0.57837,-1.30511 0.54794,0.34978 1.24264,0.76101 1.85386,0.28176 0.59113,-0.30876 1.10924,-1.07403 0.60802,-1.69069 -0.52341,-0.72437 0.47127,-1.09068 0.88985,-1.49789 0.73365,-0.37599 0.36481,-1.31347 -0.43007,-1.053 -0.94308,0.21315 -1.76975,-0.62487 -1.97249,-1.48306 z m 3.29241,0.65255 c -0.13659,0.34617 0.2669,2.54941 1.03814,1.42375 0.17375,-0.72607 -0.5245,-1.0275 -1.03814,-1.42375 z m 1.29029,2.98098 c -0.10204,0.0181 -0.24621,0.11751 -0.45978,0.28177 0.19626,0.054 0.68221,0.32356 0.68221,0.13358 0,-0.26568 -0.0341,-0.44853 -0.22243,-0.41527 z m -0.5339,0.26696 c -0.012,0.006 -0.0141,0.0309 0,0.0593 0.0209,-0.0161 0.0394,-0.0289 0.0593,-0.0446 -0.0237,-0.006 -0.049,-0.0201 -0.0593,-0.0141 z m -3.57422,-8.45351 c -0.1615,0.0257 -0.33501,0.0954 -0.47458,0.11872 0.27652,0.46614 1.38217,1.07352 0.84535,0 -0.0633,-0.12655 -0.20929,-0.14443 -0.37077,-0.11872 z m -0.43007,-7.26703 c -0.11088,0.006 -0.21628,0.0297 -0.32628,0.0297 -0.26021,0.10264 -0.78881,0.5344 -0.47458,1.31994 0.17978,0.44977 0.54728,0.51335 0.65256,0.93432 0.0802,0.32029 -1.29168,0.10385 -1.49793,0.10385 -0.97408,0 -1.37848,-0.0273 -1.98732,0.45974 -0.41507,0.33208 -0.78311,0.42697 -0.65254,0.94916 0.14382,0.57547 1.07843,0.52973 1.49791,0.94917 0.0974,0.0974 -0.0864,1.30967 -0.089,1.31994 -0.22142,0.88575 1.11714,-0.0988 1.12714,-0.10385 0.53903,-0.26951 0.32548,-0.3395 0.57838,-0.84534 0.19886,-0.39767 0.92221,0.006 1.31996,-0.19284 0.30187,-0.15105 0.45972,-1.04743 0.45972,-1.21612 0,-0.50896 0.42727,-0.64463 0.19283,-1.23095 -0.1625,-0.40629 0.55427,-0.73227 0.66737,-0.84534 0.37591,-0.37591 0.5396,-0.71535 0.2818,-1.23095 -0.21212,-0.42433 -1.0126,-0.26797 -1.42373,-0.37077 -0.10686,-0.0267 -0.21552,-0.0364 -0.32628,-0.0297 z m 8.15688,-3.51488 c -0.27284,0.0765 -0.55208,0.82109 -0.75638,1.12714 -0.74516,0.62642 -1.82644,0.42752 -2.72887,0.56355 -0.2584,0.78754 -0.13619,2.18895 -1.03813,2.89199 1.0677,0.13037 2.44318,0.67582 2.04664,2.00214 0.19545,0.89327 0.76611,1.66912 0.63773,2.62504 0.18962,0.43147 0.94332,1.97002 0.11872,1.82417 -0.58426,-0.58991 -0.60307,-1.49538 -1.08267,-2.16528 -0.13278,-1.24879 -1.61099,-0.52098 -2.1653,-1.20128 -0.0317,-0.69301 0.15829,-2.12289 -0.96397,-1.45342 -0.62349,0.54397 -1.20722,1.42805 -0.77119,2.26911 -0.056,0.69086 0.23018,1.00471 0.96397,0.94916 1.00403,0.63709 -0.27007,0.97231 -0.75635,1.23094 0.41234,0.82432 1.48602,2.61671 2.59537,1.76485 0.55093,-1.16571 0.74218,0.43985 0.59322,0.99366 0.3409,1.52712 1.73156,-0.2854 1.92798,-1.00849 0.31376,0.6467 1.27781,0.91245 1.36443,1.61655 -0.35555,1.42253 1.32432,1.3518 2.25426,1.58688 -0.0787,-1.02578 1.3116,-1.12774 1.26064,-2.10596 -0.0534,-0.88046 -0.86516,-0.67515 -1.45342,-1.15678 -0.92789,-0.317 -0.56654,-1.34616 0.35595,-1.17164 1.08779,0.32976 1.47989,-0.8647 0.51906,-1.36441 -0.59348,0.0181 -1.60353,-0.74106 -1.98732,-0.16311 -0.36154,1.32566 -2.06197,0.39235 -1.86867,-0.54872 0.87965,-0.0384 0.24925,-0.23284 0.83051,-0.86018 0.25471,-0.89931 1.36604,-1.34582 1.49794,-2.23944 -0.48361,-0.3038 -1.97816,-0.33972 -1.053,-1.29027 1.15958,-0.76336 -0.51275,-1.30116 -0.29663,-1.88351 1.03247,-0.55933 -0.25531,-1.73255 0.31147,-2.41739 -0.1157,-0.34715 -0.23203,-0.45001 -0.35593,-0.41526 z m 5.94708,13.21415 c -0.25376,-0.002 -0.50572,0.10164 -0.75635,0.13358 -0.47529,0.71384 -1.27092,1.14819 -1.77968,1.82417 -0.40534,0.81874 0.61331,1.02696 1.12714,1.31992 0.74984,0.53225 0.9465,-0.46939 0.86018,-1.02331 0.0446,-0.95964 0.98746,0.13177 1.36442,-0.41527 0.0558,-0.61833 0.1169,-1.46995 -0.56357,-1.7945 -0.0844,-0.0287 -0.16753,-0.044 -0.25214,-0.0444 z m -74.71702,-13.64424 c 0.19015,1.00878 0.36202,2.27107 1.1568,2.93646 0.53973,0.26988 0.83855,0.4585 1.15679,-0.17797 -0.97118,-2.05622 -1.0643,-2.58301 -2.31359,-2.75851 z m 5.73948,-1.2606 c -0.40242,0.0685 -0.0498,1.081 -0.50425,1.34958 -0.47714,0.48206 -0.53683,1.49898 0.31145,1.58688 0.64975,0.85516 -0.76297,2.51869 1.20129,2.41741 -0.15201,-2.69761 0.94379,-4.06519 -0.78603,-5.3094 -0.0932,-0.0333 -0.16498,-0.0542 -0.22246,-0.0444 z m 5.45769,-0.74155 c -0.34073,0.0753 -0.30914,1.21042 0.43009,1.76486 0.64962,0.48723 1.12929,0.2966 1.92799,0.2966 0.53316,0 -0.1154,-1.68247 -1.03815,-1.91315 -0.50259,-0.12575 -0.58357,-0.091 -1.03814,0 -0.11563,-0.11571 -0.20315,-0.16572 -0.28179,-0.14825 z m 17.60403,-0.29661 c -0.65195,0.31654 -1.19282,1.46505 -0.29661,1.91316 1.83115,0.55668 1.71024,-1.60827 0.29661,-1.91316 z m -11.4048,-0.40044 c -0.0804,-0.006 -0.077,0.0685 0.0149,0.25214 0.31037,0.62074 -0.17221,2.6456 0.13348,2.95129 0.60048,0.60049 0.95213,1.3659 1.77968,1.7797 1.65916,0.82956 0.26381,-0.54797 1.03815,-0.74155 1.55584,-0.38895 1.27018,-1.2929 0,-1.92798 -0.0986,-0.0492 -0.21866,-0.0703 -0.29662,-0.14824 -0.62907,-0.62908 -2.32127,-2.14159 -2.66952,-2.1653 z m 5.33905,-2.26908 c -0.95896,0.43905 -1.82191,1.30989 -2.53605,2.10595 0.71736,0.61349 1.47937,1.05875 2.23944,0.54873 0.22572,-0.85582 0.28248,-1.76634 0.29661,-2.65468 z m 0.59323,2.22459 c -0.17918,1.38311 0.34387,2.09704 1.54239,2.68437 -0.34183,-1.37042 -0.12882,-2.32059 -1.54239,-2.68437 z m -18.03412,-7.74162 c 0.19936,0.20535 0.41693,0.63773 0.68221,0.63773 0.37191,-2e-5 -0.21917,-0.46674 -0.68221,-0.63773 z m -0.17798,-0.10385 c -0.0357,2.6e-4 -0.0835,0.01 -0.11865,0.0444 0.0788,0 0.19075,0.0203 0.29661,0.0593 -0.0622,-0.0641 -0.11862,-0.10425 -0.17797,-0.10385 z m -18.048953,-0.13358 c -0.44853,-0.0458 -0.79146,0.73461 -0.65255,1.29027 0.2318,0.92723 0.48936,1.37628 1.24578,1.52756 0.66148,0.13238 -0.13348,0.56319 -0.13348,1.37926 10e-6,1.43403 0.42991,1.62038 1.66104,0.69705 0.77391,-0.58043 -0.0833,0.1163 1.1123,0.41526 0.12781,0.0319 0.80557,-2.08504 0.83052,-2.20978 -0.25076,-0.5015 -2.28038,-1.33121 -3.04029,-2.09114 -0.16345,-0.16351 -0.2914,-0.3638 -0.43009,-0.54872 -0.0785,-0.10466 -0.1745,-0.18922 -0.26695,-0.28179 -0.11085,-0.11088 -0.22278,-0.16732 -0.32628,-0.17797 z m 102.064823,-5.23522 c -0.32742,1.03303 1.05581,1.2429 0,0 z M 78.461017,139.19515 c -0.90394,0.36159 -1.35803,0.19866 -2.2246,0.41526 -0.58762,0.14684 -1.62136,1.1123 -0.41526,1.1123 0.56032,0 3.30401,0.24922 2.63986,0.41526 -1.58572,0.39643 -1.80254,0.42208 -0.28178,1.94283 0.0344,0.0343 2.08636,0.95979 1.80934,-0.14824 -0.10337,-0.41352 1.16336,-0.69774 0.83052,-0.96399 -0.59886,-0.47911 -1.99782,-0.964 -0.28178,-0.96402 0.89766,0 2.00689,2.38361 2.2246,1.51274 0.0842,-0.3367 0.27939,-1.3063 -0.69704,-1.79452 -0.63245,-0.31621 -0.88988,-2.29871 -2.0763,-1.1123 -1.28687,1.28688 -1.10485,0.008 -1.52756,-0.41526 z m 6.5255,2.00214 c -0.5021,0.0368 0.16271,0.66698 0.54874,1.05298 0.25408,0.25409 2.27789,1.10958 2.20977,1.2458 -0.0901,0.18018 0.0739,0.81619 -0.41526,1.7945 -0.8748,1.7496 0.68592,-0.0223 1.39409,1.39408 0.46178,0.92355 0.77508,0.93239 1.80934,0.41526 1.84855,-0.92427 -0.453,-1.52756 -0.43009,-1.52756 0.45524,0 4.39652,-0.35797 2.50639,-0.83051 0.97759,-1.62932 -1.34612,-0.36729 -2.22461,-1.24577 -0.46573,-0.46575 -1.50375,-0.89873 -2.35808,-1.11232 -0.91803,-0.2295 -1.66211,-0.90493 -2.49155,-1.11229 -0.25842,-0.0647 -0.43287,-0.0826 -0.54874,-0.0741 z m -11.03403,-4.74581 c -0.68294,0.0265 -1.477115,0.39004 -1.735191,0.51908 -0.106623,0.0532 0.939801,0.60338 1.394081,0.83051 0.75272,0.37635 1.42656,0.41526 2.49156,0.41526 0.32701,0 0.93741,-0.26696 1.37925,-0.26696 1.04322,-0.26079 -1.94501,-0.91317 -2.90681,-1.39408 -0.17856,-0.0892 -0.39524,-0.11269 -0.62289,-0.10385 z m 1.64621,-3.75217 c 0.0913,0.37708 -0.30956,1.29864 0.089,1.49791 1.46338,0.7317 -0.55947,1.24578 1.79451,1.24578 1.3406,2e-5 1.46157,-0.48126 0.69705,-1.24578 -0.93258,-0.93257 -1.67473,-0.71852 -2.58054,-1.49791 z m -17.084959,-0.74153 c -0.14274,-0.002 -0.293739,0.0141 -0.44492,0.0297 -0.321743,0 0.759454,2.10425 1.394085,2.3581 2.307867,-0.34625 1.192044,-2.34767 -0.949165,-2.38775 z m 83.081532,-3.06996 c -0.33319,0.29412 -1.31405,0.34417 -1.60172,0.91951 -0.2952,0.59035 0.5562,1.57216 0.80086,2.06147 0.42413,0.84822 0.85893,1.00786 1.83901,1.49789 0.82998,0.415 1.3559,0.69074 1.94282,0.10385 0.43496,-0.43495 -0.63757,-1.43843 -0.91951,-1.72038 -0.75096,-0.75094 -1.26061,-1.03958 -1.26061,-1.72036 1e-5,-0.31163 -0.41529,-0.75639 -0.80085,-1.14196 z m -94.901592,-1.06781 c -0.423551,0.65053 -1.076827,1.95251 -0.415259,3.05513 2.087523,-0.37853 2.09637,-2.95628 0.415259,-3.05513 z m 9.565796,1.40893 c -0.422142,0.0251 -1.616414,1.56456 -2.34325,1.92798 0.08091,2.10521 2.80928,-0.049 2.491556,-1.67586 0,-0.18762 -0.05088,-0.25795 -0.148306,-0.25212 z m 8.468324,-7.54882 c -0.280375,0.0203 -0.703939,0.17798 -0.963995,0.17798 0.05767,-0.0289 -1.935822,0.53514 -0.281783,1.52756 0.918168,0.55091 1.527561,-1.27842 1.527561,-1.52756 -6e-6,-0.15608 -0.113554,-0.19023 -0.281783,-0.17798 z m 13.451439,-0.87502 c -0.30861,0.004 -1.79974,1.2558 -2.49156,1.60172 -1.06377,0.53185 -0.35995,3.56337 1.52756,1.67587 0.41552,-0.41551 0.86849,-2.48207 0.964,-3.05513 0.0798,-0.15969 0.0712,-0.22343 0,-0.22246 z m 2.2246,-0.19284 c -0.21984,0.16753 -1.69711,1.58891 -0.83052,3.32208 0.0736,0.14724 0.19607,-1.0266 1.1123,-1.94282 0.57731,-0.57731 1.29192,-0.43504 -0.28178,-1.37926 z m -44.210288,-1.23095 c 0.187375,0.25336 0.523231,2.45696 1.216117,3.17378 0.917684,-2e-5 0.973709,-1.68073 1.794514,-2.09114 0.639661,-0.31981 -2.341271,-0.71374 -3.010631,-1.08264 z M 31.07696,117.9724 c -0.503701,-0.002 -1.431411,0.12635 -1.720359,0.41527 -0.46232,0.46231 1.534381,0.22875 1.942821,-0.28179 0.227647,-0.091 0.07977,-0.13257 -0.222462,-0.13358 z m 4.389886,0.13358 c -4.251289,0.18059 -1.695835,4.6098 -0.563567,3.88564 -0.48492,-0.93081 0.500988,-3.67864 0.563567,-3.88564 z m 33.013116,-1.66104 c -3.339088,0.10084 -3.820885,1.69756 -5.279725,2.35807 -1.988092,0.33134 -0.504986,1.48271 0.415259,1.94283 0.897876,0.44893 1.986737,-0.59266 2.35808,-0.96399 0.72313,-0.72312 2.984955,1.66634 1.112302,-0.83053 -0.937002,-1.24933 0.629683,-1.30399 1.394084,-0.84534 2.467783,1.2086 0.430954,-1.3401 0,-1.66104 z m 0.548736,3.1886 c -0.154492,-0.0201 -0.386448,0.0241 -0.697042,0.14825 0.583715,0.35022 -1.293689,1.61082 0.563566,0.6822 0.424782,-0.21238 0.596961,-0.77173 0.13348,-0.83051 z m 63.668152,-4.34539 c -0.66074,-3e-4 -1.10254,1.1322 -1.42374,1.4534 -0.45149,0.4515 -1.88085,-0.10686 -2.40257,-0.23729 -1.106,-0.2765 -1.32089,-1.41399 -1.83901,-0.11872 -0.47804,1.1951 -1.13175,0.89471 -2.18011,1.15679 -1.35362,0.54039 -2.44506,1.54833 -3.88564,1.36441 -0.85852,-0.24603 -1.61168,-0.56389 -2.52122,-0.45973 -3.23327,0.40174 -2.04585,2.21744 -3.79666,1.49789 -0.77686,-0.46613 -1.77381,-0.92914 -2.62503,-1.14197 -1.18704,-0.0659 -2.40697,0.14985 -3.55936,0.45976 0.12329,0.88471 1.85376,1.61362 0,1.72036 -0.73017,0 -0.87178,-1.24089 -1.4979,-1.61655 -1.45967,-0.21105 -3.02372,0.92348 -5.50219,2.52122 -0.17042,0.68167 1.46081,0.31885 1.95765,0.81569 0.2298,1.03211 -1.64837,-0.04 -3.781833,1.2606 -1.10493,0.27624 0.440703,-1.71192 0.563573,-1.95765 0.12285,-0.24571 -2.896883,-0.24715 -3.870813,0.11872 -0.97393,0.36579 -0.63385,1.45763 -0.29661,2.16527 -0.23132,1.6151 0.41172,2.94201 0.57839,4.55303 -0.039,0.63111 -0.68949,1.81506 -1.36442,1.42373 0.43663,-0.55654 1.09909,-1.2209 0.31145,-1.83899 -0.33689,-1.41003 0.0594,-3.0309 -0.78603,-4.33057 -0.13824,-0.48471 -0.11285,-1.93644 -1.14196,-1.37925 -1.96808,-0.006 -2.56892,1.27004 -2.62504,1.91315 -0.22085,-0.72425 -0.81326,-1.44888 -1.61654,-0.96399 -0.9438,0.37019 -1.87163,1.12622 -2.92165,1.18646 -1.28359,0.0978 -2.51771,-0.36374 -3.78182,-0.0141 -0.89026,0.11229 -0.90813,1.00947 -1.20129,1.66104 -1.18379,1.19654 -0.11428,1.70636 0.10381,2.15045 -0.56499,0.32234 -1.57113,0.5059 -1.98731,-0.0141 0.1698,-0.90345 -0.7787,-1.04458 -0.97883,-0.20764 -0.64298,0.46934 -0.056,1.4002 0.54874,1.43857 0.10242,0.51227 -0.74107,0.0181 -0.41526,0.86018 0.3217,0.82854 0.95048,0.19103 1.63137,0.28178 1.10725,0.0803 3.31112,0.64256 3.33691,1.9725 0.15198,1.90386 -0.57904,2.70976 -0.96399,4.13775 1.50133,0.37533 2.17428,0.23665 3.47038,-0.28179 2.00706,-0.35998 3.45216,-0.12594 4.98311,-1.66102 0.64122,-0.64123 -1.85076,-1.11229 0.1483,-1.11231 2.19774,0.37641 3.42472,-1.63208 5.54668,-2.2246 1.1469,-0.22937 2.1286,-0.16853 1.37925,0.83052 -1.69462,-0.10848 -2.59933,1.04227 -4.01911,1.67586 -1.62782,0.50827 -1.78257,2.51869 -3.32208,3.0403 -0.80332,0.1607 1.53885,0.69703 2.35808,0.69703 1.56292,0 1.57237,0.2818 0,0.28178 -1.85437,1.31201 -3.19888,-0.69701 -4.99794,0.54875 -0.75836,0.75836 0.15198,0.97882 1.37925,0.97882 1.51034,0 1.13425,-0.32743 1.52756,1.24577 1.72839,0.30999 0.85134,-0.48404 2.22461,1.2458 0.53812,0 0.37313,-1.37926 1.37925,-1.37926 2.49825,0.25023 -1.03156,0.86313 -1.09747,3.45554 0.091,0.182 2.30723,0 2.62503,0 0.83346,0 0.64862,-1.70356 1.39409,-2.07628 1.64874,-0.3714 -1.18537,1.49685 1.79451,1.52756 3.554333,0.15487 -0.71184,0.37069 -1.94282,0.83051 -0.28273,0.11309 -0.6214,1.30401 -1.09747,1.66104 2.23263,1.30688 4.922153,-2.10672 3.737333,0.69703 -0.801253,1.18449 -0.10007,2.6532 0.14831,4.01913 0.29141,1.16563 -1.457923,0.61578 0.13348,1.80933 1.28714,0.68345 0.90391,-1.16607 1.24578,-2.22459 0.56262,-1.21293 0.17857,-2.78621 0.69704,-4.01911 -1.34971,-2.78877 1.16041,1.73884 1.52756,2.63985 0.17992,0.71971 -2.52235,2.35807 -0.1483,2.35807 1.97707,-0.0554 5.06339,-2.38486 4.3009,0.13359 0,0.91698 2.68952,0.0986 2.92164,-0.13359 0.19282,-0.19283 -1.32263,-1.93874 -1.39408,-2.22459 -0.0384,-0.15387 2.83083,0.0213 0.56356,-1.11231 -0.64337,-0.32168 -1.48714,0.41257 -2.09112,0.56357 -1.30743,0.32686 -1.89413,-0.52969 -2.62504,-1.2606 -0.73266,-1.66155 2.17735,-2.46914 0.964,-3.73733 -0.54228,-0.40673 -0.92447,-0.51291 -1.66104,-0.69705 -0.67873,-0.16974 0.57984,-1.45055 0.26695,-2.07631 -0.48623,-0.97247 -1.32437,0.525 -1.79451,-0.41524 -0.46197,-0.92394 -0.99172,-1.80935 -1.94282,-1.80935 -1.659723,0 -0.94329,0.58424 -2.358083,-0.83053 -1.43096,-1.43094 1.563283,-0.66132 0.28178,-1.94281 -0.47599,-0.47599 -1.46683,-0.0727 -1.94282,-0.54874 -0.98973,-0.98973 2.20981,-0.59318 3.322083,-0.14825 0.63701,0.25481 1.82956,0.73279 2.50638,0.56357 0.86346,-1.44287 -2.67526,-1.04771 3.32208,-1.52756 0.27822,-1.46501 -1.59655,-2.5177 -2.0763,-3.88563 -0.0705,-1.51786 1.78724,-1.882 2.25427,-3.11446 0.0836,0.33439 1.4179,0.41571 1.48307,0.74154 0.093,0.46508 -1.56231,1.47293 -1.48307,1.63138 0.14348,0.28696 1.69498,3.50218 1.77968,3.54453 0.0553,0.0277 3.2615,3.70147 2.96614,2.22461 -0.0618,-0.30911 -0.88768,-1.126 -0.59323,-1.63138 0.48486,-0.83219 -1.21212,-2.01152 -0.29661,-2.37291 0.29334,-0.1157 1.79556,1.39828 2.07629,2.52122 0.0456,0.18219 0.56566,2.80301 0.5784,2.80301 0.4815,0 4.27887,-0.32588 4.15259,-0.57842 -1.18279,-2.36558 0.0229,-2.08888 1.76486,-2.66951 1.30365,-0.17114 3.62868,0.5281 2.81783,1.92799 -0.98299,1.31063 -1.417,0.61075 -1.92799,2.6547 0.8222,-0.82222 0.44452,0.74313 0.29661,1.33474 -0.16104,0.64416 0.20551,2.17323 -1.18645,2.52122 -4.036,1.00901 -0.86575,0.21693 -2.06147,2.20979 -1.1577,1.92949 0.67402,-0.74154 1.33476,-0.74154 1.87355,0 3.33549,-0.61512 5.02761,-1.03816 1.73769,-0.43443 -1.05016,1.31074 -1.03815,1.33476 0.60901,1.21804 3.14377,0.69342 2.35808,0.88985 -1.30766,0.3269 -0.53176,0.14825 -2.06147,0.14825 -0.93513,0 -2.52167,-1.08699 -3.11444,-0.29661 -0.27752,0.37001 -2.1036,1.51426 -2.20978,1.77968 -0.15328,0.38322 0.4191,1.82145 0.29662,2.20976 -0.29348,0.93047 1.56225,1.41988 2.35808,0 0.39233,-0.69996 -1.11043,2.48738 -1.61655,2.66953 -0.3914,0.14081 3.44711,-0.0552 3.24792,0.74154 -0.24544,0.98177 1.53999,0.86139 2.37291,0.44492 1.46472,-0.73237 -1.60321,-2.01623 -1.18645,-2.2246 0.53296,-0.26649 1.05331,-0.59701 1.63138,-0.74154 1.3899,-0.34747 -0.93804,-1.00686 -1.63138,-1.31994 -0.0493,-0.29588 -0.099,-0.59394 -0.14831,-0.88983 -0.13657,-0.8195 1.02037,-0.63001 1.48307,-0.44493 0.19009,0.0428 1.73134,1.90944 1.92799,2.55089 1.12622,0.76633 2.42094,0.23237 3.70767,0.25212 1.59018,-0.38154 -0.43828,-1.17795 -1.14196,-1.21611 -0.27985,-0.17677 1.22915,-0.3313 1.52756,-0.74155 0.97062,-0.38425 -0.59364,-1.17432 -0.94916,-1.64619 -0.81884,-1.17718 1.86525,0.96744 2.49155,0.74152 0.97377,0.32096 -0.16702,1.11101 0.10382,1.83902 1.15846,0.27383 1.74371,1.35617 2.4174,2.22459 0.62791,1.2201 1.81869,0.9711 2.89198,0.60806 1.16084,-0.48818 2.52159,-0.41438 3.35174,0.62289 0.57059,0.93304 3.91809,1.58399 2.89198,2.93649 0.33503,1.18332 -0.61508,2.87483 -1.61654,3.70766 0.0233,0.20993 1.60268,3.74731 1.77968,1.1568 0.89603,-0.26378 2.99471,-1.46115 3.58901,-0.6229 -0.97107,1.285 1.12316,1.00515 1.29027,2.01699 0.3357,0.94332 -0.24535,1.49839 -1.18644,1.27542 0.22199,0.35135 0.73841,1.19817 0.25212,1.86868 0.76551,0.65919 1.43628,1.47982 2.25426,2.10596 0.0918,0.17295 2.14623,-2.98407 2.87719,-3.32208 -1.09834,-0.3501 -1.43044,-1.64459 -0.0446,-1.95765 1.56911,-0.75756 -1.82007,-1.79931 0.19284,-2.15045 0.58744,-1.85125 -2.88454,-0.767 -2.12082,-2.40257 0.56809,-1.40047 -0.83874,-1.96659 -2.07628,-2.20978 -0.73693,-1.16991 1.18294,-2.11608 1.82419,-2.78817 1.10952,-0.0576 1.91303,-1.62474 0.31143,-1.57205 -1.41871,-0.21719 -2.85015,0.12775 -4.25641,0.10385 -1.70603,-0.2953 -0.72057,-1.4849 0.51906,-1.21611 0.0779,-1.26919 1.9597,-2.10641 0.22247,-3.1886 -0.90104,-0.58719 -1.52011,-1.85932 -2.16527,-0.35593 -0.91415,1.01775 0.29934,-1.63275 -1.17163,-1.0085 -1.13316,-0.22325 -2.92155,2.58703 -3.55936,1.40892 0.78078,-0.93564 1.49997,-3.60664 -0.44493,-3.7225 -1.58393,0.0181 -2.87657,-1.39589 -4.52336,-0.94917 -0.84235,0.0641 -2.14805,0.58197 -3.24792,1.20129 -0.15654,0.52546 -2.55141,2.40939 -1.63137,1.18646 0.36592,-0.39165 0.9563,-0.80633 1.63137,-1.18646 0.002,-0.008 0.0135,-0.0217 0.0149,-0.0297 0.72507,-1.95245 -1.91931,-1.34674 -2.4619,-0.69705 -0.70178,-0.008 0.0318,-1.86409 -1.02332,-2.19495 -1.24681,-0.5349 -0.8704,-1.01662 -0.13348,-1.80934 -0.75808,-0.88509 -2.53452,0.3816 -3.20342,-0.19284 1.01557,-0.66399 2.21932,-1.6279 3.27758,-1.86866 0.60654,0.78786 -0.28538,1.59877 1.08264,1.76485 -0.62146,1.66239 0.51474,2.01305 1.55722,2.89197 1.01306,0.79014 4.20843,0.3589 3.76699,-1.03813 1.62097,-0.47079 3.27384,0.74737 4.8793,0.37075 2.5535,0.72869 2.79098,-2.08878 4.24158,-1.21611 1.48796,0.14061 -0.43208,-2.42273 -1.4979,-2.16527 -0.79596,-0.15467 -3.29316,-1.19763 -1.15679,-1.2013 1.22354,-0.0872 -1.19528,-1.07672 -1.57206,-1.33475 -0.84044,-0.38834 -0.71702,-1.74295 -1.34959,-2.37291 -1.10348,-0.37208 -2.15045,0.17395 -3.24792,0.29661 -2.89487,0.4231 -5.94365,-0.35073 -8.58697,-1.61655 -0.8134,-0.48804 -1.5578,1.31992 -2.50639,1.31994 -2.1129,-0.91974 -3.42531,-2.76673 -5.76914,-3.54453 -3.13745,-0.21805 -1.62608,-2.84421 -2.96613,-4.13777 -0.96168,-0.96168 -1.49448,1.46029 -2.37292,-0.29661 -0.31252,-0.62506 0.22931,-1.74603 0.88985,-2.07631 1.03816,-0.51907 1.5558,0.14544 1.92799,0.88985 0.39177,0.78357 0.78747,1.2324 1.33476,1.77968 0.51599,0.51598 2.0045,0.34454 2.50638,0.44491 2.42467,2.62883 5.15249,5.14555 9.1802,5.17593 1.24286,0 2.38306,0.32007 2.6547,-1.03816 0.25307,-1.26538 -1.37542,-3.38331 -1.61655,-3.26274 -0.2626,-0.0518 -0.52341,-0.0966 -0.78603,-0.14825 0.52077,-0.87878 2.36038,-0.81217 3.20343,-0.34112 0.0285,0.69406 -1.47233,0.72569 -0.3411,1.72038 0.54461,0.2723 1.73758,0.22243 2.40257,0.22245 1.99694,0.13478 3.37585,-1.50537 1.95765,-2.98096 0,-0.46069 -0.5109,-0.93826 -0.9195,-1.48307 -0.23385,-0.31182 0.56357,-0.76706 0.56356,-1.15681 2.18862,0.36396 -0.64408,1.82598 1.03815,2.29877 0.56967,0.34647 1.21736,1.48014 2.98097,1.37924 -0.42308,-1.16625 0.002,-1.95966 0.34111,-3.0996 -0.54629,-1.368 -2.83306,-2.39788 -1.85384,-3.44073 -1.10795,-0.91703 -1.80137,-1.55404 -3.06995,-2.29876 -0.85052,-0.11771 -1.63835,-0.17395 -2.41741,-0.56355 -0.10365,-0.0518 -0.20221,-0.0741 -0.29661,-0.0741 z m 3.14411,12.25014 c -0.2872,0.0364 -1.27391,0.69006 -1.42375,0.88985 -0.0933,0.12434 2.27406,0.48324 2.47673,0.5339 0.45539,-0.81362 -0.39994,-1.0895 -1.05298,-1.42375 z m -16.07647,7.8751 c -1.77197,-0.0799 -0.49111,2.88144 -2.4174,2.72884 -0.73116,0.66708 -0.16865,1.54498 -0.63772,2.61021 0.10343,1.13668 0.88819,0.77276 1.61655,0.13358 0.44697,-2.32463 0.50834,-4.12883 1.839,-5.41321 -0.14718,-0.0342 -0.2823,-0.054 -0.40043,-0.0593 z m -15.36459,0.7267 c -0.53753,0.1848 -1.78111,0.76414 -2.63987,0.97883 -0.20434,0.051 2.54916,0.96399 3.32208,0.96399 0.89532,0 1.72481,0.13358 2.63986,0.13358 0.69349,0 -0.69099,-1.24495 -1.24578,-1.66104 -0.51984,-0.38987 -1.29139,-0.25828 -2.07629,-0.41526 z m 11.18234,2.53606 c -0.23507,0.0364 -0.6541,0.39315 -1.37926,1.08263 -0.62378,0.62377 0.87493,0.88091 1.63138,1.33476 0.0287,-1.64756 0.13965,-2.47815 -0.25212,-2.41739 z m -7.53399,1.24578 c -0.44996,0.0247 0.20371,1.48642 0.37076,1.76485 0.4023,0.67054 2.07679,-0.23203 0.13348,-1.52756 -0.24058,-0.18038 -0.4004,-0.243 -0.50424,-0.23729 z m 2.59537,2.74367 c 0.31761,0.52936 0.15119,2.16852 0,2.77333 -0.16669,0.66676 0.89326,-1.04156 1.37925,-1.52756 0.67201,-0.672 -0.93956,-1.24577 -1.37925,-1.24577 z m 3.12927,4.04878 c 0.14156,0.21883 -2.01264,1.63137 0.0593,1.63137 1.37256,2e-5 2.21199,-0.01 1.66104,-1.11229 -0.0737,-0.14745 -1.38045,-0.40024 -1.72036,-0.51908 z m 11.89422,3.44072 c -0.34399,-0.039 -0.0695,0.49887 0.37076,1.58688 0.94616,0.37846 1.09733,0.46488 1.77969,-0.44492 -1.23859,-0.73196 -1.88291,-1.11167 -2.15045,-1.14196 z m -22.51299,2.20976 c -0.29567,0.88702 0.41525,3.70835 0.41526,2.77334 0.35573,-1.43906 2.68865,-2.52807 -0.41526,-2.77334 z m 61.84397,0.5784 c -0.2499,0.0235 -0.49246,0.11369 -0.72667,0.23729 0.19786,-0.041 0.30064,0.13539 0.23729,0.45976 -0.11932,0.65631 -1.08142,1.37773 -0.31146,1.97247 0.76905,0.46963 0.64505,1.5901 -0.23729,1.83902 -0.29799,0.70723 -1.03269,0.96755 -1.49789,1.52756 -0.0749,0.61242 -0.44785,1.79687 0.51906,1.839 0.74586,-0.18782 1.48525,-0.73572 2.29879,-0.75635 0.57215,-0.58175 0.9977,-1.3755 1.91312,-1.2458 0.84529,-0.052 0.006,-0.53802 -0.089,-0.875 0.12856,-0.74591 0.75994,-1.41751 0.48943,-2.22459 -0.42547,-0.66074 -0.64852,-1.44802 -1.2013,-2.04664 -0.29925,-0.56717 -0.84434,-0.77829 -1.39411,-0.72672 z m -13.62937,1.76485 c -0.364,-0.0253 -0.15889,0.39018 0.62289,1.40893 0.6202,0.82695 1.33524,-0.26463 1.24578,-0.62289 -0.95263,-0.48262 -1.58568,-0.76633 -1.86867,-0.78604 z m 1.36443,8.49799 c -0.0366,-0.008 -0.082,-0.008 -0.13358,0.0141 0.0693,0.0215 0.14744,0.0458 0.22249,0.0593 -0.0181,-0.045 -0.0524,-0.0651 -0.089,-0.0741 z M 75.569037,114.02761 c -0.99841,0.006 -2.954899,0.50904 -3.351734,1.03816 -0.64539,0.8605 1.039904,1.73343 1.527564,1.24577 0.98187,-0.98191 4.05029,-0.58904 2.35808,-1.94282 0.18038,-0.24051 -0.0801,-0.34404 -0.53391,-0.34111 z m 3.39623,1.20128 c -0.69673,0.0364 -1.44446,0.34699 -1.89833,0.80087 -1.25837,0.25167 -1.32275,0.0353 -1.79451,0.97883 -0.68455,1.36909 -1.94791,0.16853 -2.0763,0.68221 -0.0462,0.185 -0.088,0.38272 -0.1483,0.56357 -0.348842,1.04649 -1.478494,2.12536 -0.830522,2.77334 0.823362,0.82335 1.605132,0.64341 3.188602,-0.14825 1.4272,-0.7136 0.17926,-2.71436 0.41526,-2.77334 0.73805,-0.1846 2.91745,-1.01139 2.63986,-0.54874 -1.00359,1.67263 -0.48185,3.52026 1.1123,1.52756 0.52623,-0.6578 1.11229,-1.73589 1.1123,-2.35807 0,-1.1347 -0.82457,-1.54462 -1.72036,-1.49791 z m 74.553883,-1.83899 c -0.36894,0.002 -0.7507,0.11711 -1.15679,0.40042 -1.66978,1.07548 -3.47426,0.1607 -5.23524,0.25212 -1.71186,-0.37586 -2.64709,0.81831 -3.78182,1.72038 -1.40153,-0.65662 -5.01413,-0.42124 -4.18226,1.72036 0.48874,2.36385 3.13153,3.17403 5.27973,3.20342 0.84561,-0.34679 0.72217,-2.92321 1.27544,-0.86018 0.69214,1.47092 1.7242,3.64091 0.60805,4.93861 -0.46608,2.08653 -0.38137,4.89034 1.63137,6.16957 0.84489,0.59641 3.08809,0.4789 0.87503,0.97883 -1.07667,0.3725 -3.04001,0.81221 -1.69071,2.29875 1.43431,0.0396 2.53622,1.44973 3.72254,1.46825 0.34534,-1.80611 2.83567,-0.35963 2.81783,-2.59539 0.84584,-0.81273 2.65448,0.91721 2.28391,-1.27542 0.01,-1.80905 0.91192,2.67051 2.53602,2.25426 1.09173,0.0675 4.58044,2.24201 1.83902,2.09113 -1.31948,0.67881 -3.31809,-3.12609 -3.32208,-0.50425 0.15808,2.80256 3.41197,1.04828 5.02763,1.77968 1.22266,1.15269 3.01184,0.62461 4.40469,1.17163 -1.20407,-1.6112 -0.53167,-3.40378 0.28181,-5.13141 0.52777,-0.51612 1.12826,-0.87412 1.58686,-1.40892 1.3752,0.19464 2.7008,0.29259 3.79666,1.30509 0.98937,0.24942 2.95831,0.49748 0.96401,1.11232 -0.25637,1.66242 -1.19101,3.18426 -0.31147,4.9831 0.0846,1.76793 3.27837,0.50102 4.19711,1.88349 0.85578,0.37539 4.21552,1.55317 3.55937,-0.13338 -1.14303,-1.36504 1.24335,-0.18059 1.52754,-2.5064 0.68301,-1.46135 1.86557,-2.47896 2.78816,-3.75215 1.3835,-0.3963 1.09995,-2.43404 2.32845,-3.11446 -0.18199,-2.07331 0.82772,-4.92343 -0.7712,-6.56998 -1.36869,-1.96734 -2.83235,-3.48011 -3.32208,-5.82846 -0.47884,-2.11004 -2.42799,-2.46602 -4.12292,-2.75852 -1.30739,-1.03931 -3.30746,0.0956 -4.70136,-1.18645 -1.8401,0.27909 -3.64336,1.19579 -5.68014,0.78601 -1.91996,-0.16973 -3.88653,0.67323 -5.68017,-0.35592 -1.90555,0.43223 -2.91393,-2.03969 -4.59751,-1.52757 -1.84323,1.02562 -3.17667,-1.01973 -4.77548,-1.00848 z m 34.73348,6.71831 c -0.51616,0.0325 -1.00085,0.51321 -1.0233,1.17161 -0.20088,1.12985 0.91457,1.87726 1.63137,2.55089 0.98311,0.38817 2.17616,0.68078 2.3284,1.91316 0.39482,1.13274 2.00586,0.32963 2.28393,1.52756 -0.10345,0.66967 1.586,1.9646 1.33476,0.7267 l -0.0141,-0.0297 c 0.1832,-1.49727 0.5894,-3.33325 -0.62289,-4.52337 -0.71229,-0.94695 -2.15848,-0.1161 -2.75849,-1.23093 -0.45162,-0.94093 -1.52113,-1.04148 -2.28393,-1.63137 -0.24986,-0.35673 -0.56538,-0.49415 -0.87504,-0.47458 z m 17.08494,12.10183 c -0.35247,0.0454 -0.668,0.28645 -0.81564,0.74154 -0.54511,0.81921 -1.61635,0.5782 -2.4471,0.60805 0.15969,0.63763 0.15045,1.39086 -0.17798,1.97249 -0.62198,0.34418 -1.34173,0.97892 -0.5487,1.63138 0.73841,0.51232 -0.55512,1.1453 0.38559,1.49789 1.08438,0.63062 2.27325,-0.0637 3.39621,-0.14825 0.46978,-0.19203 2.26328,0.50894 1.75003,-0.37077 -0.24674,-0.53288 -0.52247,-1.62398 0.40044,-1.61653 0.60672,-0.29942 1.22761,-0.68793 1.928,-0.40044 1.0342,0.29537 0.30111,-0.70157 0.31141,-1.2161 0.16813,-1.11915 -1.3263,-0.54654 -1.36441,-1.57206 -0.12574,-0.88477 -1.18366,-0.48051 -1.76483,-0.66738 -0.30137,-0.34769 -0.70055,-0.50524 -1.05302,-0.45976 z m -49.99423,1.75003 c -0.73692,0.97512 -2.84308,1.40609 -1.86866,2.62503 1.63143,0.26686 2.49639,-1.28892 1.86866,-2.62503 z m 35.78644,1.57205 c -0.27895,0.004 -0.54842,0.0331 -0.80086,0.11872 -0.9028,0.35956 -2.08352,0.74831 -1.98732,1.97247 -0.70474,0.4778 -2.33849,0.37355 -1.88347,1.73521 0.9187,0.66979 0.60391,1.76805 1.18646,2.58054 0.66367,0.75771 1.71064,1.48051 2.714,0.86018 0.82491,-0.90869 1.99461,-0.19927 2.92166,-0.62289 0.012,-0.97315 0.86659,-1.57784 1.3051,-2.41741 l -0.20763,-0.10385 c -0.87689,-0.93848 -0.12233,-2.50758 -0.8157,-3.5742 -0.68858,-0.27793 -1.59542,-0.56343 -2.43224,-0.54873 z M 36.504999,109.97883 c -0.728511,-0.004 -1.562186,0.58936 -0.622888,1.17163 0.06185,1.33266 -1.855437,-0.11269 -2.580541,-0.22246 -0.797929,-0.34303 -1.665009,-1.36624 -2.283925,-0.17798 -0.52899,1.5038 -1.911794,-0.40958 -2.862324,0.28177 -0.825636,0.32969 -1.390094,1.12481 -1.512731,1.89833 -1.562234,0.0904 -0.395084,1.75688 -0.548736,2.66953 1.002352,0.65296 -0.163852,2.55738 1.46824,2.37291 1.971147,0.0478 -0.608134,-1.81298 0.474581,-2.75851 0.545009,-0.63914 -0.906186,-0.86647 0.07416,-0.94917 1.689588,0.0247 -0.278282,1.5781 2.847492,2.92165 0.381575,-0.94517 -1.215053,-1.87624 0.05932,-2.62504 0.80199,-0.0446 0.633504,-1.96169 1.127132,-1.52756 0.09023,1.70343 1.263005,-0.3418 2.209773,-0.0297 1.055802,-0.36472 1.96034,0.69691 0.830519,1.36441 -0.718807,0.41376 -0.649581,1.18295 0.281783,0.96402 1.365765,0.0368 2.75573,-0.0641 4.1081,0.0592 -1.10123,0.35549 -1.889045,0.93965 -3.02546,1.09747 1.021196,0.78429 2.170087,0.21902 2.995799,1.31992 0.940227,1.23479 2.059875,0.11028 1.987311,-1.09747 0.689613,-0.82255 1.79732,-0.40409 2.684357,-0.28176 0.666094,-0.21327 2.264491,-1.55024 0.771195,-1.21613 0.100014,-1.78834 -1.405963,-1.31624 -1.601714,-1.14196 -0.191352,-0.72709 -0.503627,-2.1323 -0.993656,-2.34325 -1.400235,0.59746 -2.376775,1.97306 -3.025461,1.14196 -1.125286,0.50052 -0.347808,-0.4887 -0.326277,-0.99366 -1.104214,0.27689 -1.710116,-0.67099 -1.913157,-1.67586 -0.151017,-0.15508 -0.38005,-0.22108 -0.62289,-0.22247 z m 8.349678,0.0297 c 0.117672,0.41297 0.237714,1.14239 0.489414,1.39408 1.494505,0.66808 0.21295,-0.781 -0.489414,-1.39408 z m -0.163129,-0.29661 c -0.02435,0.004 -0.04712,0.0362 -0.07414,0.10385 0.06221,0.0444 0.150494,0.11711 0.237289,0.19284 -0.05082,-0.17838 -0.111725,-0.30515 -0.163129,-0.29661 z m 12.294643,-0.44493 c -0.267471,0.0623 -0.546791,0.35401 -0.86018,0.66738 -0.722916,0.72292 -1.020038,1.49735 -1.94282,1.09747 -0.329294,0.41163 -0.929499,0.55712 -1.245778,0.97883 -0.255326,0.34044 -1.293385,2.82095 -0.13348,1.66105 1.111779,-1.1118 0.06313,-1.18263 1.245778,0 0.493218,0.4932 1.353028,0.91491 2.224603,0.69703 0.66327,-0.16572 1.495146,-0.54875 2.35808,-0.54873 1.005781,0 1.830848,-0.0932 2.773339,-0.28179 1.021965,-0.20438 2.205368,-1.11229 3.188599,-1.11229 1.730079,0 0.553404,-0.48593 -0.281783,-1.11232 -0.686395,-0.51477 -1.855134,-1.24577 -2.77334,-1.24577 -1.028861,0 -2.032791,-0.19184 -2.639862,0.41526 -0.907592,0.90759 -0.822068,0.0317 -1.112302,-0.54874 -0.2811,-0.56219 -0.533389,-0.72957 -0.800858,-0.66738 z m 32.612686,2.35809 c -0.42493,0.0161 -0.86998,0.11168 -1.27544,0.20762 -1.71476,-0.045 -0.13476,1.54449 0.56357,1.94283 1.11584,0.66051 0.3753,2.21374 1.60171,2.8475 1.1267,0.91847 -0.84548,0.46775 -1.27544,0.81568 -0.58157,1.12011 -1.43336,0.19786 -1.73519,-0.56357 -0.14908,-1.06637 0.63446,-2.57551 -0.65255,-3.24792 -0.65214,-0.40789 -1.563,-1.94114 -2.29875,-1.00848 -0.56595,1.27078 -2.28732,0.26168 -2.89199,1.24577 -0.0651,1.30496 1.42418,1.58817 2.35808,1.9873 0.20509,0.61797 2.86015,1.21918 1.60172,1.15681 -0.82921,-0.20467 -1.89091,1.17571 -2.32842,0.47459 -0.46636,-1.26852 -1.23689,-0.0319 -1.60172,0.60804 -0.81659,0.79483 0.33303,0.7319 0.86018,0.80086 -0.31258,0.45289 -0.90555,1.13009 -0.3856,1.85384 0.81428,0.55174 0.86801,1.41124 -0.0297,1.88349 0.46239,0.65922 1.60643,1.12658 2.49155,1.05298 1.03348,0.2911 0.95344,-2.41735 1.51273,-1.34959 1.06844,0.88758 2.64232,0.29364 3.9153,0.35595 1.32591,0.17476 2.12012,-1.24473 3.47039,-1.12714 1.35686,-0.0201 2.61009,-0.65264 3.95979,-0.68221 1.36552,0.33899 1.02913,-0.67395 0.75636,-1.5424 0.61753,-0.3588 1.0447,1.57458 2.031813,1.1568 1.14225,-0.38047 2.12878,-1.19792 3.42589,-0.99366 1.66198,-0.19344 -0.12655,-1.89059 -0.78603,-2.34324 0.0811,-0.41123 1.27223,0.50507 1.76485,0.47458 1.94299,0.15608 3.89473,-0.0329 5.8433,-0.0741 0.27125,-1.00272 -0.37162,-1.71399 -1.39409,-1.52756 -1.25122,-0.15829 -2.58833,0.0715 -3.78182,-0.35593 -0.8811,-0.82091 -2.05391,-0.73092 -3.14411,-0.97884 -0.2892,-0.0534 -1.49566,-0.45057 -1.91316,-0.60806 -1.098353,-0.0161 -1.578933,1.07905 -1.631383,2.04664 -0.14687,0.48342 -1.88395,1.46051 -1.73519,0.60806 0.56961,-0.8894 1.6692,-2.32707 0.74154,-3.29241 -1.42959,-0.27377 -2.58577,-1.36311 -4.06361,-1.43858 -0.65701,0.55689 -1.35801,1.2229 -2.25427,0.51908 -0.35968,-0.74152 -1.01215,-0.93067 -1.72036,-0.90467 z m -25.671923,2.16527 c -0.946876,0.004 -1.89083,0.13459 -2.595371,0.86018 -1.552719,0.65433 -2.970675,1.60385 -4.330561,2.59538 -1.167932,0.67327 0.275618,1.51654 0.904671,1.79451 -1.224146,0.14041 -2.642595,-0.67375 -3.855978,-0.34111 -1.149482,0.34179 -2.502353,-0.18098 -2.654696,-1.48306 -0.476887,-1.59976 -1.160883,0.47954 -1.572052,1.0233 -0.419084,0.65555 -2.081716,2.27128 -2.506387,1.15681 0.373629,-0.88215 0.525264,-2.07293 0.207631,-2.93648 -0.891598,0.48573 -1.283474,1.78088 -2.432234,1.88351 -1.233637,-0.0524 -2.570654,0.26659 -3.277583,1.37923 0.0224,0.57826 2.10518,0.56383 0.889842,1.45342 -1.694153,0.73694 1.139699,2.04053 -0.02967,2.63986 -0.57424,1.50556 3.406745,2.09569 2.18011,2.19494 0.434335,1.21034 2.641715,0.92799 1.839007,-0.54873 -0.408901,-0.73256 0.186893,-1.41796 0.741534,-0.51907 0.737995,0.97976 1.629046,1.87511 1.720359,3.17376 0.33527,1.4228 1.480816,-0.23167 0.978826,-1.00849 -0.819931,-1.07622 0.547345,-1.07596 1.097471,-1.69069 1.021324,-1.24991 1.256031,0.6153 0.711873,1.30509 -0.52251,1.09734 0.435407,1.57485 1.305102,2.3581 0.634904,-0.74462 0.757935,-0.91068 1.008486,-1.94283 0.03967,-0.87038 0.455328,-3.32373 1.572053,-1.72036 0.55025,1.37845 1.873778,-1.29023 1.868668,0.22245 -0.415426,1.39492 1.086232,1.02317 1.883496,1.053 -0.135649,1.02505 -0.433639,2.1317 -1.082638,2.98096 -0.837387,1.44419 1.330651,0.71083 2.061466,0.81568 1.334709,0.27749 1.221882,2.09053 2.209771,2.86233 -0.473898,-1.24612 0.747538,-1.29491 1.720361,-1.4534 0.495754,-0.27126 2.754646,-0.81107 1.646207,-1.37926 -1.005776,-0.72234 -2.153141,-1.04655 -3.381399,-0.88985 0.670799,-0.52333 0.04128,-1.35762 -0.222459,-1.98732 -0.788608,-1.5151 1.329655,-0.65342 2.105958,-0.93432 1.573571,-0.1159 1.869474,1.85448 3.025461,2.50638 0.657557,-0.0942 1.633777,-0.93095 1.824175,-1.55721 -0.655815,-0.83401 -2.355224,-0.77377 -2.862324,-1.26062 1.089579,-0.1599 2.366532,-0.47147 2.35808,-1.82417 -0.02372,-1.41094 -1.960588,-1.00122 -2.817831,-0.63772 -1.232798,0.66905 -2.652572,0.94336 -4.048778,0.81569 -1.003571,0.24073 -2.09397,-1.46403 -1.690698,-1.928 -0.541804,-0.0733 -1.115064,-0.30565 -1.394085,0.37077 -0.680491,1.49205 -2.343862,1.36536 -3.040292,0.23729 -1.229947,-0.27431 -2.137157,-1.97659 -3.411059,-1.24578 -1.788193,-0.10304 -0.406831,-1.70163 0.281783,-2.26908 1.292927,0.0605 1.175454,2.00331 2.595371,1.9873 1.072764,0.28068 0.849403,0.69086 1.720359,-0.48941 0.379803,-0.33264 0.665445,-0.40377 0.87501,-0.44491 -0.006,-0.002 -0.03939,0.002 -0.04447,0 0.42419,-0.008 0.324856,-0.055 0.04447,0 0.320387,0.13458 1.973119,0.012 2.55088,-0.69705 0.898171,-0.38214 0.821436,-0.84152 0.02967,-1.3051 -0.497101,-1.61156 1.418758,-0.94989 2.165282,-1.52756 0.822948,-0.80136 1.865952,-1.23298 2.951307,-1.52756 0.783207,-0.68202 2.049287,-0.80034 2.684354,-1.51274 -0.855861,-0.98731 -2.419523,-0.43057 -3.574195,-0.57839 -0.309377,-0.01 -0.61871,-0.0313 -0.934334,-0.0297 z M 18.826825,103.1123 c -0.139928,0.01 -0.287635,0.049 -0.44492,0.11871 0.346976,0.53087 0.615737,1.00678 0.326274,1.66105 -0.537611,1.13288 0.3612,2.32735 1.468239,2.62503 1.338303,0.84244 1.322205,-0.66399 1.423746,-1.54241 1.002573,-0.42045 0.72499,-1.39992 -0.296614,-1.48307 -0.894468,-0.19625 -1.497207,-1.44333 -2.476725,-1.37923 z m 15.038319,-0.26696 c -0.84522,0.0484 -1.631674,0.29988 -2.313588,0.875 -1.082535,1.39231 1.178365,1.39288 2.076297,1.33476 0.476557,-0.6121 0.904265,-1.42403 1.097471,-2.19494 -0.294768,-0.0217 -0.578439,-0.0309 -0.86018,-0.0141 z m 2.35808,0.93434 c -0.575004,0.05 -0.574841,0.51695 0.459751,1.6462 0.228911,0 1.015288,-1.14414 1.097471,-1.34959 -0.662715,-0.20849 -1.21222,-0.32658 -1.557222,-0.29661 z m -23.091392,-3.48529 c 0.697384,1.24937 0.754866,2.76064 3.173768,2.68437 0.637781,-2.06992 -1.650114,-2.32286 -3.173768,-2.68437 z M 0.31811397,97.001993 c 0.03089,0.26718 0.04437,0.53535 0.08899,0.80084 0.65875803,1.42442 -0.05369,2.999647 0.385598,4.345397 C 1.82411,103.43086 2.54679,101.74007 2.720692,101.0656 c 0.782333,1.10639 1.433109,2.38963 2.105958,3.60385 1.421231,0.14684 0.178456,1.50201 0.830519,2.25426 1.919418,0.0558 2.579695,-2.02617 1.379254,-3.35173 -0.722367,-1.25347 -1.445743,-2.56652 -2.461895,-3.603847 -1.837667,-0.27582 -3.03482,-1.66536 -4.25641103,-2.96614 z M 12.345805,102.69697 c -0.204825,0.15166 0.834952,1.86658 1.51273,2.00215 0.743462,-1.07126 -0.189966,-1.92768 -1.334763,-1.95765 -0.08467,-0.0508 -0.148706,-0.0661 -0.177973,-0.0444 z m -1.839006,2.34325 c -0.290225,-0.0181 -0.566609,0.0675 -0.800857,0.26696 0.02615,-0.10465 -0.0223,1.14188 0.13348,1.4534 0.122955,0.24587 2.430923,1.10424 2.684354,1.23095 0.748924,-1.03516 -0.759331,-2.87267 -2.016972,-2.95131 z M 2.631702,92.730743 c -0.07077,1.22718 -2.01758103,1.83267 -0.904671,3.29242 0.799456,0.23747 0.667902,2.09334 1.601714,1.08264 0.861865,-0.77083 1.872621,0.0832 2.758508,-0.14824 0.31405,-0.91984 -1.188657,-1.52352 -1.824174,-2.06148 -0.648483,-0.55893 -1.771582,-1.17087 -1.631377,-2.16528 z m 128.137168,1.57206 c -0.56906,0 -1.03255,0 -2.06147,0 -0.42228,0 -0.73838,0.0315 -0.99365,0.10385 -0.25528,0.0723 -0.45398,0.19103 -0.63772,0.32628 -0.3675,0.27039 -0.69537,0.64767 -1.34959,1.11229 -0.28882,0.20514 -0.56133,0.358 -0.83052,0.45976 -0.2692,0.10185 -0.52772,0.15829 -0.78603,0.17798 -0.51662,0.0396 -1.01688,-0.0621 -1.54239,-0.22247 -0.52551,-0.1603 -1.07158,-0.38915 -1.67587,-0.57839 -0.60429,-0.18923 -1.27885,-0.33836 -2.0318,-0.3856 -0.38793,-0.0243 -0.67643,-0.19726 -0.91951,-0.43009 -0.24307,-0.23281 -0.42714,-0.53714 -0.59322,-0.81569 -0.16609,-0.27857 -0.31765,-0.53545 -0.47459,-0.69705 -0.15694,-0.1615 -0.33308,-0.22188 -0.54873,-0.10385 -0.37133,0.20328 -0.70705,0.52034 -1.02332,0.88985 -0.31627,0.36949 -0.61155,0.79708 -0.90467,1.23093 -0.29312,0.43387 -0.57312,0.86428 -0.87501,1.26062 -0.3019,0.39632 -0.62141,0.75155 -0.964,1.00849 -0.39017,0.83521 -0.77675,1.58732 -1.20128,2.26908 -0.42454,0.681777 -0.88272,1.299867 -1.39409,1.839017 -0.51136,0.53914 -1.08454,1.00161 -1.73519,1.4089 -0.65065,0.40729 -1.38222,0.75193 -2.2246,1.03815 -2.177,0.0518 -5.7255,-0.0235 -7.178063,-0.0592 -0.15196,-0.004 -0.3172,-0.0918 -0.50424,-0.23729 -0.18705,-0.14544 -0.38521,-0.34697 -0.59323,-0.59322 -0.41604,-0.49251 -0.86007,-1.14376 -1.27544,-1.79453 -0.83073,-1.30151 -1.55425,-2.591477 -1.70553,-2.565707 0.0278,-0.14121 -0.17337,-0.17637 -0.51907,-0.17797 -0.34571,-0.002 -0.83963,0.0241 -1.37926,0.0297 -0.53962,0.006 -1.12187,-0.0141 -1.67586,-0.13359 -0.277,-0.0599 -0.55394,-0.15105 -0.80086,-0.26694 -0.24692,-0.1159 -0.47297,-0.25633 -0.66738,-0.44493 -0.26964,4.6e-4 -0.52051,-0.0544 -0.75637,-0.13338 -0.23585,-0.0791 -0.45582,-0.19123 -0.66738,-0.32628 -0.42312,-0.27019 -0.80358,-0.6253 -1.18645,-0.97883 -0.38288,-0.35352 -0.76789,-0.70005 -1.18646,-0.94917 -0.20928,-0.12454 -0.42011,-0.21853 -0.65255,-0.28179 -0.23244,-0.0633 -0.49127,-0.0956 -0.75636,-0.0741 -0.44852,0.0982 -0.87545,0.27504 -1.3051,0.48941 -0.42966,0.21439 -0.86182,0.47261 -1.29028,0.69705 -0.42845,0.22444 -0.86019,0.42031 -1.3051,0.54873 -0.4449,0.12835 -0.90024,0.17757 -1.37925,0.10385 -0.83861,0.10345 -1.82744,0.21116 -2.81783,0.23729 -0.99039,0.0261 -1.97444,-0.0181 -2.803,-0.19284 -0.3961,-0.0394 -0.806705,-0.20935 -1.230948,-0.44491 -0.424244,-0.23557 -0.867148,-0.5429 -1.334763,-0.86018 -0.467615,-0.31728 -0.956848,-0.64983 -1.483069,-0.93435 -0.52622,-0.28449 -1.090636,-0.5153 -1.690699,-0.65253 -0.896063,-0.13881 -1.911283,-0.29689 -2.921645,-0.3856 -1.010361,-0.0888 -2.010756,-0.1149 -2.906816,0 -0.34194,-0.0554 -0.661781,0.0378 -0.978825,0.20762 -0.317045,0.16994 -0.636126,0.41929 -0.963995,0.68221 -0.32787,0.26294 -0.663736,0.53298 -1.038148,0.75637 -0.374413,0.22339 -0.789102,0.39357 -1.245778,0.44493 0.02017,0.15166 -0.121689,0.29555 -0.385598,0.43009 -0.263905,0.13459 -0.646509,0.26702 -1.112302,0.41525 -0.931586,0.29647 -2.179778,0.65075 -3.42589,1.18646 -1.207849,0.38812 -1.44914,0.60774 -1.764853,0.56357 -0.31571,-0.0442 -0.708968,-0.35203 -2.209771,-1.02333 -0.528329,-0.21942 -0.826272,-0.47326 -0.978827,-0.7267 -0.152543,-0.25342 -0.154592,-0.50879 -0.08899,-0.75637 0.13121,-0.49513 0.535058,-0.93924 0.593227,-1.17161 -0.196836,-0.19706 -0.516212,-0.30083 -0.919503,-0.35595 -0.40329,-0.055 -0.884833,-0.0651 -1.408916,-0.089 -0.52408,-0.0239 -1.086991,-0.0599 -1.646207,-0.16311 -0.559213,-0.10325 -1.122689,-0.27017 -1.631374,-0.56357 -0.388095,-0.31467 -0.696781,-0.68242 -0.949165,-1.08262 -0.252383,-0.40022 -0.448015,-0.82557 -0.62289,-1.27545 -0.349742,-0.89975 -0.604721,-1.87533 -0.993656,-2.75851 -0.107306,-0.39948 -0.363871,-0.79795 -0.711872,-1.20128 -0.348001,-0.40334 -0.781856,-0.80388 -1.230948,-1.20129 -0.02947,-0.0261 -0.05942,-0.0482 -0.08899,-0.0741 -0.656657,-0.0633 -1.233486,-0.0201 -1.468239,0.54875 0.909281,1.17067 2.310754,2.33218 2.239434,3.93012 -0.590124,-0.3643 -1.501018,-0.75809 -1.586883,-1.70553 -1.130133,-0.91936 -1.53785,-4.32842 -3.42589,-2.69918 -1.728181,0.70499 0.0034,-0.0209 0.07416,-0.91949 0.146618,-1.95478 -1.376554,0.31595 -2.061466,-0.44494 -0.04708,-1.88387 -1.937387,-1.66628 -3.129277,-2.53604 -0.699613,1.05697 -2.149822,-0.37033 -2.684354,0.74154 -0.76513,1.94001 1.909894,2.72685 3.277582,1.85382 1.388751,1.09486 -1.240871,1.21345 -2.002143,1.37926 0.273435,1.77744 -1.232713,0.0367 -2.224603,0.47458 -0.853461,-0.46006 -4.028476,-0.38122 -2.714017,-1.88349 0.303567,-1.03703 -0.952662,-1.26733 -1.156794,-0.14824 -0.805347,0.29148 -2.611093,-2.41032 -3.203429,-0.26697 -1.914615,0.78118 1.232694,0.70268 1.156794,1.94283 0.628878,1.7101 2.83298,1.46152 4.152593,2.40257 1.643887,0.41502 -0.201839,0.43605 -0.815688,0.10385 -1.06528,-0.93264 -2.62396,-0.28149 -1.394085,1.05298 -0.342101,1.1968 -2.297418,-0.65744 -3.040292,-1.15679 -1.887393,-0.21255 -2.297066,-2.34152 -4.152593,-2.71402 0.445724,-0.29358 0.359083,-0.84622 -0.08899,-1.4534 -0.128981,-1.74402 -1.812022,-0.9885 -2.35808,-0.0593 -1.229254,0.1159 -0.596218,1.2148 -1.097471,1.66102 -2.113603,0.27351 0.17721,1.67721 1.023317,1.928 1.534676,0.62281 3.110308,-0.62379 4.567853,0.26694 -1.238256,0.97131 0.08346,1.5263 0.993656,1.86869 1.539336,0.90469 2.814253,2.20055 4.434376,2.93647 -0.592896,0.40735 -2.564594,0.25663 -3.411058,-0.45976 -1.417737,-0.77316 -2.268582,-2.2765 -3.989456,-2.47671 -1.898124,-0.60134 -0.142339,1.13742 0.697043,1.29027 0.839389,0.15286 1.44046,1.5192 0.118635,2.31358 -1.321816,0.79437 -1.214014,-0.82228 -2.625032,-0.25212 -1.295329,-0.43879 -3.129887,-1.90926 -2.002142,-3.11444 -0.872491,-2.05668 -2.305749,-1.51975 -1.957653,0.43009 -2.266783,-0.0366 0.01326,-4.14144 -1.942821,-2.74369 -2.637631,-1.24756 -2.868444,1.96149 -0.697042,2.66953 1.230164,1.01704 0.387886,1.33958 -0.608058,0.50425 -1.436266,0.0641 1.174691,1.72367 0.05932,2.714 0.63101,1.42929 3.097736,-1.4683 2.135621,0.94917 0.07567,1.05731 3.496047,2.55918 0.978825,3.01062 -1.798575,-0.81444 -4.473315,0.65801 -1.631376,1.83902 1.06166,1.703847 1.893008,0.0213 2.877154,-0.32628 1.582442,2.014397 2.672965,-0.61493 1.572053,-1.97247 0.771699,-1.85499 1.69703,0.28803 2.343249,0.86018 0.9149,-0.7247 -0.121408,-2.48607 1.171626,-1.09748 1.12996,0.14363 2.561267,0.59111 1.616544,1.95766 0.62343,1.331037 2.255138,1.842587 1.349593,-0.0141 -1.025705,-1.87521 2.614187,-1.091 1.141963,-2.74368 -0.282404,-0.68325 -3.006406,-1.65088 -2.239434,-1.839 1.4726,-0.0878 2.778807,2.47594 3.722504,1.82417 -0.55651,0.76493 -1.081715,1.52668 0.177973,2.19494 -0.108532,1.543757 1.607605,2.398087 1.839005,0.50424 0.04281,-0.93925 1.199162,-3.1587 0.697043,-1.12712 0.696849,1.8684 -0.227296,3.120657 -2.209773,2.906807 -1.267304,0.90281 1.922837,2.6766 2.832663,2.71402 -1.626455,-1.53401 2.36507,-1.79167 1.557222,-3.752167 -0.08398,-1.30544 0.418923,-1.58324 0.296613,-0.14824 1.46842,2.377867 1.818139,-2.06004 2.194943,-3.14411 0.949496,-2.09013 1.882151,2.46843 2.283927,0.31143 -0.05391,-2.13834 -2.735336,-2.12186 -3.811488,-3.50004 0.958728,0.0681 1.882307,-0.31657 1.008486,-1.43857 0.613341,0.74618 2.500475,2.55521 1.898329,0.3856 -0.229797,-0.62761 -0.495335,-1.30683 -0.237291,-1.97248 1.168672,-0.14804 1.590287,2.15083 1.468239,2.31358 -0.246745,2.08898 1.698823,1.46559 1.92799,-0.0444 1.633536,-1.12114 1.578237,0.30783 0.637718,1.21612 -0.0745,1.15474 3.8743,0.52392 1.319933,1.2606 -2.674668,0.54777 -0.401669,3.06983 1.290269,2.80301 0.902114,-0.14523 3.092296,-0.46685 1.06781,0.32628 -1.707105,0.12374 -3.063934,2.078857 -4.612344,0.48941 -1.933036,0.17877 1.138703,4.324637 2.491556,2.254257 0.632588,0.93203 1.955203,0.26344 2.402571,1.48306 -0.237058,-1.14785 -0.261334,-2.46875 1.008487,-2.50637 1.00985,-1.113987 3.194697,-0.883537 2.936476,-3.084787 -0.02828,-0.081 -0.04833,-0.12535 -0.07416,-0.19284 0.131371,0.14402 0.298658,0.27455 0.519075,0.38559 0.982521,1.27001 2.874798,-0.10264 3.544533,0.54875 -0.982626,1.07134 -2.507567,2.08615 -1.453406,3.618687 0.07137,1.81421 -1.307916,2.92655 -1.750023,4.65683 -0.636641,1.94841 2.198047,0.73164 2.002143,-0.71188 0.989343,-1.4087 0.488198,-4.83227 2.35808,-4.73098 0.922673,2.0843 3.310932,1.13079 5.042436,1.06782 0.460723,0.65633 -2.41327,1.01796 -3.322075,1.49789 -1.214731,0.0181 -2.059303,0.39389 -2.120788,1.89833 -0.499588,0.36917 1.674144,0.0773 2.150449,0.86018 1.615891,1.10472 1.942175,-1.4588 3.529703,-1.48307 0.103631,-0.91481 0.665403,-1.98649 0.949165,-0.41526 0.688121,2.14565 2.440516,-1.07285 3.900471,-0.99366 1.392866,-0.66023 2.930061,-2.58205 0.489414,-3.055117 -0.471241,-0.45422 2.960926,-0.46519 1.468239,-2.06147 -0.513,-0.88153 1.562921,-0.63741 2.076295,-0.56357 0.513376,0.0739 1.685256,-0.04 2.313588,0.0444 0.628324,0.0844 -0.274256,1.43188 -0.459751,1.69069 -0.296884,1.384077 -1.554317,1.289617 -2.224603,2.313597 -0.771334,1.80834 -3.473634,1.61279 -3.603858,3.76699 -1.565623,0.30386 -3.839275,-0.10124 -4.92379,1.4979 -0.701831,0.27602 -2.993155,0.19384 -1.898327,1.46824 1.715281,0.5101 0.05871,0.70866 -0.741536,0.66738 -0.398231,0.50966 1.653507,2.82354 2.150451,1.7945 0.284246,-1.9148 1.49789,0.97932 1.987312,-0.29661 -0.149169,-1.40932 0.258158,-1.06258 1.201287,-0.62289 0.963681,-0.58849 1.838928,-1.42051 3.158937,-1.4089 -1.434559,-0.86211 -0.411678,-3.16233 0.963995,-1.51274 1.220211,1.22975 2.59329,2.06295 4.404714,1.55723 1.492386,0.36025 2.551713,1.66488 3.900471,2.34325 0.253647,-1.07931 -0.145794,-2.64024 0.504244,-3.87081 0.770707,-0.25702 1.635786,-0.65135 1.394085,-1.79452 -0.97754,-1.3761 0.419265,-1.90769 1.171624,-2.86232 0.316927,-1.3571 1.942033,-1.31864 1.334762,0.19283 -1.60646,0.46159 -0.4593,2.23329 -1.705528,2.78817 -1.194168,1.2285 -1.868397,3.17215 -1.364424,4.83482 -0.284587,2.09458 2.710225,1.56341 4.033947,1.76485 2.396124,0.22544 -1.51087,-2.42474 0.148305,-1.34961 1.420509,1.40095 4.803889,-0.26015 2.550879,-1.9873 -0.55416,-1.84896 1.63728,0.87239 1.70553,-0.66738 0.8846,-2.27732 1.13444,1.54929 -0.0445,1.80935 -1.16182,1.61783 2.24587,1.54278 3.26276,1.18645 2.36523,0.0593 1.19502,-2.08637 0.66738,-3.35175 0.0715,-1.62372 -1.35132,-3.11946 -0.65255,-4.74581 0.46751,-0.66264 2.36101,-3.117427 1.77968,-0.94917 -0.78916,1.32735 -1.42136,3.04693 -0.35594,4.41956 0.26377,1.1562 0.0836,3.76629 2.12079,3.15893 1.4932,-0.28295 3.42097,0.33325 4.53819,-0.93434 -0.62139,-1.60791 0.43254,-3.28808 -0.0741,-4.80513 -1.25795,-1.64773 0.57121,-0.034 0.83052,0.71187 1.54083,1.11413 -0.45838,1.59859 -0.32628,2.84748 -1.06693,2.13709 2.32986,2.68634 2.71402,0.74155 -1.30171,-0.66684 -0.7229,-1.29726 0.13348,-2.22462 -0.89231,-0.91305 0.0412,-2.33115 -0.25212,-3.17375 0.0898,0.0709 0.16827,0.12233 0.23729,0.16311 1.9045,0.4059 -0.98176,4.20994 0.88984,2.9958 1.60888,-0.32744 1.62032,-1.57155 1.52756,-2.90682 1.01446,-0.53022 9.5e-4,1.77056 0.964,2.16528 -0.70681,0.56515 -0.24128,2.15034 -1.3496,2.23943 -1.91685,0.0307 -1.99616,2.33636 -0.13348,2.63986 2.0797,-0.084 3.16072,2.18186 5.10176,2.62503 1.94105,0.44319 3.683743,-2.23098 3.425893,-0.59322 -0.25785,1.63776 0.86292,1.88524 1.95765,2.32842 1.11275,0.22052 2.27823,-0.16772 3.3814,0.20763 1.37407,0.0474 2.4606,0.77193 3.60386,1.42375 1.2352,0.12454 1.90726,1.31917 3.05512,1.58688 1.12869,0.11389 2.27388,0.006 3.3814,-0.22245 0.92961,-0.10827 1.95449,-1.00075 2.74367,0.0741 1.14557,0.15206 2.11805,-0.81016 3.02546,-1.39408 0.84886,-0.80556 2.03351,-0.26706 3.05513,-0.37077 1.48669,-0.4745 1.27814,-2.26155 -0.0297,-2.80301 -0.9231,-0.80699 -2.2847,-1.03524 -3.01063,-2.03179 -0.42475,-0.9297 -1.02112,-1.74816 -1.94282,-2.23944 -0.80217,-1.02881 -1.6689,-1.09347 -2.69919,-1.39408 -0.96921,-1.4682 0.79646,-0.55909 1.61655,-0.37077 1.1087,0.66047 2.50131,1.07194 3.18859,2.23944 0.60501,1.27974 1.97105,0.95872 3.06996,1.31994 1.16913,0.45684 1.83786,1.57828 2.71401,2.40256 0.26718,0.70075 1.74109,1.05455 2.59538,0.88985 z"
       style="fill:#000000;fill-opacity:1;fill-rule:evenodd;stroke:#d39062;stroke-width:0.474581;stroke-linecap:butt;stroke-linejoin:miter;stroke-miterlimit:4;stroke-opacity:1"
       id="Cabo_de_Hornos" />
  </g>
</svg>
