<?xml version="1.0" encoding="UTF-8" standalone="no"?>
<!-- Created with Inkscape (http://www.inkscape.org/) -->

<svg
   width="210mm"
   height="297mm"
   viewBox="0 0 210 297"
   version="1.1"
   id="svg64"
   inkscape:version="1.1.2 (b8e25be833, 2022-02-05)"
   sodipodi:docname="vector.svg"
   xmlns:inkscape="http://www.inkscape.org/namespaces/inkscape"
   xmlns:sodipodi="http://sodipodi.sourceforge.net/DTD/sodipodi-0.dtd"
   xmlns="http://www.w3.org/2000/svg"
   xmlns:svg="http://www.w3.org/2000/svg">
  <sodipodi:namedview
     id="namedview66"
     pagecolor="#ffffff"
     bordercolor="#666666"
     borderopacity="1.0"
     inkscape:pageshadow="2"
     inkscape:pageopacity="0.0"
     inkscape:pagecheckerboard="0"
     inkscape:document-units="mm"
     showgrid="false"
     inkscape:zoom="0.74029882"
     inkscape:cx="361.34057"
     inkscape:cy="561.93525"
     inkscape:window-width="1920"
     inkscape:window-height="1017"
     inkscape:window-x="-8"
     inkscape:window-y="-8"
     inkscape:window-maximized="1"
     inkscape:current-layer="layer1" />
  <defs
     id="defs61" />
  <g
     inkscape:label="Capa 1"
     inkscape:groupmode="layer"
     id="layer1">
    <path
       style="fill:#000000;fill-opacity:1;fill-rule:evenodd;stroke:#d39062;stroke-width:1.55622;stroke-linecap:butt;stroke-linejoin:miter;stroke-miterlimit:4;stroke-dasharray:none;stroke-opacity:1"
       d="m 0.81340601,156.49733 14.30778299,9.50895 c 0,0 4.013029,4.01478 8.4425,8.08697 4.429435,4.0723 9.305062,8.15672 11.019647,8.44246 0.857327,0.14352 1.475855,-0.39643 2.132861,-1.15518 0.656994,-0.75875 1.292849,-1.67501 2.132837,-2.3106 0.839918,-0.63523 1.881956,-0.95637 3.288136,-0.44466 1.406168,0.51289 3.154208,1.84688 5.509823,4.53226 0.06117,0.32468 -0.114106,1.04461 -0.266679,1.9551 -0.151868,0.9105 -0.276326,1.99757 0.177747,3.11041 0.454073,1.11283 1.408779,2.17813 3.2881,3.1104 1.879357,0.93167 4.674198,1.6756 8.797968,2.04391 0.0976,1.32987 -0.16304,2.55716 -0.71099,3.64364 -0.54794,1.08696 -1.37606,2.11274 -2.31057,3.02147 -1.86899,1.81747 -4.1796,3.29768 -6.043017,4.79894 -0.392432,1.08931 -0.466189,2.1425 -0.266679,3.1104 0.199509,0.96814 0.670287,1.87311 1.244136,2.75491 1.147652,1.76347 2.74987,3.34873 4.08796,4.97657 3.03435,3.62364 6.43538,6.96861 9.77549,10.30875 0.83015,1.12812 1.53824,1.79088 2.31058,2.22166 0.7724,0.43055 1.5515,0.61759 2.66606,0.71052 2.22913,0.18704 5.55493,0.0706 11.55288,1.06696 3.31951,-0.51172 5.34287,-2.09615 7.37607,-3.19922 1.01661,-0.55171 2.09421,-0.96461 3.28814,-1.06578 1.19393,-0.10587 2.56176,0.0471 4.26566,0.79993 3.321591,3.6454 3.729791,7.51361 7.376081,11.46393 1.14753,0.8258 1.7188,1.70042 1.95511,2.66609 0.23621,0.96579 0.18116,2.03956 -0.0882,3.1104 -0.53994,2.14155 -1.73117,4.48744 -1.86625,6.84286 0.42808,0.85638 1.34215,0.86226 2.48831,0.44466 1.14612,-0.41761 2.50411,-1.31987 3.82135,-2.3106 2.6345,-1.98133 5.11761,-4.36992 5.15436,-4.44333 4.22769,-1.40845 8.34479,-2.89995 11.99721,-5.15443 2.89563,-1.09989 4.59863,-2.36353 6.30966,-3.73246 1.71103,-1.36892 3.38658,-2.84007 6.22078,-4.2657 0.89226,-0.44583 2.82117,-1.09989 4.53229,-1.86617 1.71109,-0.76698 3.20093,-1.69512 3.46586,-2.7549 0.42667,-1.70677 -2.33806,-7.04178 -2.84378,-9.06464 -0.2368,-0.94697 -0.19516,-1.59855 0,-2.04392 0.19516,-0.44584 0.55842,-0.67875 1.06637,-0.79992 1.01602,-0.24115 2.53483,-0.0941 4.08794,-0.0941 1.8574,0 3.01228,-0.55759 3.91018,-1.42197 0.89791,-0.86345 1.56157,-1.9931 2.39948,-3.11041 2.77981,-1.0446 5.85011,-1.30845 8.97568,-1.33304 3.12557,-0.0235 6.324,0.17763 9.33118,0.17763 2.02272,-2.49376 3.64756,-3.97608 5.59869,-4.79882 1.95112,-0.82345 4.23557,-0.95756 7.55379,-0.88933 1.37232,-0.34349 1.6134,-1.18353 2.13287,-1.9551 0.51947,-0.77169 1.28939,-1.51079 3.55472,-1.51079 0.0682,-0.95167 -0.22128,-2.05933 -0.79981,-3.19922 -0.57853,-1.13989 -1.42347,-2.2773 -2.39944,-3.46589 -1.95196,-2.37695 -4.44241,-4.7533 -6.48738,-6.48737 -1.51768,-1.51773 -2.54336,-2.97182 -3.6436,-4.17676 -1.10025,-1.20506 -2.36048,-2.14532 -4.44342,-2.66609 -2.37582,-0.59406 -4.1294,-1.18483 -5.15436,-2.13285 -0.51254,-0.47407 -0.88427,-1.01402 -0.97755,-1.68842 -0.0929,-0.67523 0.0635,-1.53797 0.44431,-2.48835 0.79369,-2.52046 1.60642,-4.63107 2.75492,-6.57629 1.14847,-1.94522 2.6677,-3.72011 4.71002,-5.421 1.57863,-1.54385 2.68149,-3.37379 3.55471,-5.33206 0.87332,-1.95816 1.48905,-3.98891 2.13286,-6.04306 4.47684,-3.64682 9.69606,-6.12445 14.30779,-10.30875 0.5336,-6.82992 1.74132,-13.90416 2.84378,-21.15063 1.20594,-2.22943 2.44397,-4.29487 3.55475,-6.39855 1.11071,-2.10355 2.11686,-4.2524 2.75491,-6.75392 1.38242,-2.11579 1.90954,-4.27582 2.04397,-6.398549 -5.76343,-10.08948 -9.60166,-16.11324 -23.2835,-13.95227 -4.60757,0.72816 -7.42865,-6.26198 -13.15249,-6.75405 -2.50798,0 -8.17087,1.00461 -10.13099,-0.71052 -11.05868,-5.17619 -13.12743,-12.11539 -17.06274,-14.92982 -8.15014,-3.1671 -13.05734,-8.40329 -20.97291,-12.17492 -10.11027,7.99886 -17.51189,-2.426 -29.237671,-4.79894 -1.95029,0 -12.13257,1.80923 -13.59685,0.71051 3.44668,5.52734 2.52904,6.26151 3.82133,7.55373 1.29228,1.29235 7.90566,7.9911 8.97571,10.13101 -0.10234,7.12953 3.56954,13.11389 0,20.26201 -2.0228,5.64062 2.1799,11.38405 0.53325,17.862479 h -30.30408 c -7.99521,0.82345 -1.12472,6.19786 -3.55475,11.90836 1.61984,4.48214 2.60082,8.338 -1.24417,12.4416 -4.50762,2.58668 -11.537809,5.37418 -16.618369,6.57629 -6.593364,1.04461 -8.29048,3.49213 -14.841013,4.71001 -6.542721,0 -13.116593,-0.18469 -19.639894,0 0.85227,5.39018 7.348655,7.79935 5.3321,11.90836 -3.880278,2.73667 -8.724813,6.27738 -13.41909299,6.75392 z"
       id="Palmilla"
       inkscape:label="#path2108" />
  </g>
</svg>
