<?xml version="1.0" encoding="UTF-8" standalone="no"?>
<!-- Created with Inkscape (http://www.inkscape.org/) -->

<svg
   width="210mm"
   height="297mm"
   viewBox="0 0 210 297"
   version="1.1"
   id="svg64"
   inkscape:version="1.1.2 (b8e25be833, 2022-02-05)"
   sodipodi:docname="vector.svg"
   xmlns:inkscape="http://www.inkscape.org/namespaces/inkscape"
   xmlns:sodipodi="http://sodipodi.sourceforge.net/DTD/sodipodi-0.dtd"
   xmlns="http://www.w3.org/2000/svg"
   xmlns:svg="http://www.w3.org/2000/svg">
  <sodipodi:namedview
     id="namedview66"
     pagecolor="#ffffff"
     bordercolor="#666666"
     borderopacity="1.0"
     inkscape:pageshadow="2"
     inkscape:pageopacity="0.0"
     inkscape:pagecheckerboard="0"
     inkscape:document-units="mm"
     showgrid="false"
     inkscape:zoom="0.74029882"
     inkscape:cx="361.34057"
     inkscape:cy="561.93525"
     inkscape:window-width="1920"
     inkscape:window-height="1017"
     inkscape:window-x="-8"
     inkscape:window-y="-8"
     inkscape:window-maximized="1"
     inkscape:current-layer="layer1" />
  <defs
     id="defs61" />
  <g
     inkscape:label="Capa 1"
     inkscape:groupmode="layer"
     id="layer1">
    <path
       style="fill:#000000;fill-opacity:1;fill-rule:evenodd;stroke:#d39062;stroke-width:0.692384;stroke-linecap:butt;stroke-linejoin:miter;stroke-miterlimit:4;stroke-dasharray:none;stroke-opacity:1"
       d="m 209.20582,243.08454 c 0.20921,-1.14437 0.51991,-2.53115 0.43292,-2.59647 -0.75129,-0.56341 -2.34176,-1.40246 -3.50518,-2.1204 -0.58206,-0.35903 -1.0417,-0.67457 -1.25498,-0.90878 -0.21335,-0.23406 -0.1664,-0.38942 0.30311,-0.38942 0.60899,0 0.93412,-0.0345 1.08188,-0.1298 0.14776,-0.0953 0.11669,-0.2534 -0.0414,-0.43292 -0.31968,-0.35835 -1.1039,-0.88758 -1.73098,-1.51459 -0.67664,-0.67665 -0.91679,-1.31953 -1.03858,-1.90407 -0.12152,-0.58482 -0.13602,-1.0941 -0.34592,-1.51459 -0.54063,-1.08064 -1.17012,-1.6107 -1.86079,-1.99059 -0.69073,-0.37975 -1.43097,-0.63384 -2.25027,-1.12517 -2.53315,-1.51991 -3.23914,-2.22314 -3.33208,-2.63969 -0.0932,-0.41635 0.40323,-0.52958 0.21611,-0.77898 -0.53441,-0.71255 -1.36331,-1.22363 -2.12039,-1.7742 -0.75716,-0.55029 -1.42842,-1.12648 -1.64447,-1.99059 -0.20852,-0.83345 -0.33487,-1.52274 -0.60553,-2.07717 -0.27135,-0.55444 -0.70282,-1.00055 -1.4713,-1.38479 -1.79885,-0.89946 -3.4228,-2.90144 -3.76486,-3.07247 -2.078,-1.039 -3.17534,-1.26312 -5.49577,-2.4233 -0.54615,-0.27273 -0.81715,-0.5496 -0.90878,-0.82226 -0.0918,-0.27204 -0.0138,-0.5068 0.12981,-0.73562 0.28999,-0.45777 0.84761,-0.79471 0.77897,-0.82219 -1.09845,-0.43914 -2.28396,-0.71408 -3.41866,-1.03859 -1.13477,-0.32452 -2.22583,-0.71732 -3.11576,-1.38478 -0.47089,-0.35283 -1.38831,-0.75744 -2.2935,-1.25498 -0.90526,-0.49713 -1.78918,-1.06842 -2.16375,-1.81749 -0.28654,-0.57239 -0.17814,-1.42152 -0.12981,-2.16369 0.0276,-0.37078 0.0345,-0.7082 -0.0414,-0.9953 -0.0753,-0.28723 -0.22233,-0.53027 -0.51922,-0.64903 -1.27839,-0.51163 -2.078,-0.60346 -2.72628,-0.86549 -0.64834,-0.26237 -1.13663,-0.67181 -1.73097,-1.86078 -0.52889,-1.05806 -1.10667,-1.62838 -1.73098,-2.12047 -0.62418,-0.49229 -1.28129,-0.89179 -2.03388,-1.64439 -0.34938,-0.34937 -0.86708,-0.81357 -1.3415,-1.34149 -0.47434,-0.5282 -0.92417,-1.14347 -1.08181,-1.77427 -0.4557,-1.82191 -0.34591,-1.90263 -0.34591,-3.76479 -7e-5,-0.97189 -0.40392,-1.69936 -0.90879,-2.38008 -0.50472,-0.68079 -1.08574,-1.306 -1.47129,-2.07718 -0.2969,-0.59379 -0.42394,-1.18427 -0.43292,-1.68768 -0.007,-0.50335 0.0877,-0.93578 0.21611,-1.34149 0.25754,-0.81143 0.65663,-1.4412 0.56273,-1.8175 -0.14569,-0.58136 -0.69308,-3.41935 -1.38479,-4.11105 -0.53924,-0.53925 -1.35012,-0.96036 -2.12046,-1.25498 -0.77035,-0.29482 -1.53213,-0.47572 -2.03388,-0.47572 -1.25249,0 -1.89579,-0.0801 -2.2935,-0.43292 -0.3977,-0.35283 -0.53027,-0.95346 -0.77897,-1.94737 -0.41911,-1.67767 -0.70393,-3.44173 -1.38472,-4.80338 -0.22923,-0.45777 -0.46329,-0.92673 -0.69239,-1.38478 0.71677,-0.53787 1.08989,-0.96264 1.1684,-1.60117 0.0787,-0.63868 -0.13257,-1.48152 -0.47573,-2.85608 -0.33418,-1.33618 -1.03859,-2.98699 -1.03859,-4.11099 0,-2.19932 -0.33004,-3.03677 -0.64903,-3.46196 -0.96968,-1.29295 -2.14615,-2.86422 -2.76956,-4.11105 -0.26928,-0.53856 -0.65525,-1.65275 -1.08188,-2.72628 -0.42671,-1.07345 -0.87026,-2.10237 -1.2982,-2.4233 -0.58137,-0.43637 -0.95125,-0.81612 -1.1251,-1.12517 -0.174,-0.30863 -0.17193,-0.56065 -0.12981,-0.8222 0.0836,-0.52336 0.4198,-1.04777 0.21611,-1.86078 -0.18918,-0.75743 -0.52612,-1.38395 -0.82219,-2.03388 -0.29621,-0.64972 -0.56273,-1.3116 -0.56273,-2.07711 7e-5,-0.64903 -0.17054,-2.05853 -0.25961,-3.37537 -0.0891,-1.31691 -0.0967,-2.54586 0.25961,-2.81286 0.99364,-0.74514 1.48062,-0.94302 1.64447,-1.2549 0.16364,-0.31209 0.0138,-0.7185 -0.25961,-1.81757 -0.0552,-0.21887 -0.0622,-1.09672 0.0863,-2.03388 0.14638,-0.93716 0.45363,-1.92472 0.95201,-2.4233 0.95787,-0.95794 1.47551,-1.58874 1.64439,-2.25027 0.16916,-0.66146 -0.0483,-1.3475 -0.64903,-2.55318 -0.41773,-0.83511 -0.40737,-1.45956 -0.30311,-2.07717 0.10426,-0.61727 0.30311,-1.26016 0.30311,-2.07711 0,-1.45969 -0.14154,-1.97526 -0.56272,-2.25027 -0.42118,-0.2748 -1.09928,-0.28999 -2.16376,-0.8222 -0.8976,-0.44879 -1.3776,-0.94951 -1.68769,-1.60117 -0.31001,-0.65179 -0.46882,-1.44264 -0.73561,-2.50988 -0.29966,-1.19781 -0.22647,-1.90456 0,-2.50989 0.22647,-0.60553 0.6152,-1.1436 1.03859,-1.990591 0.46398,-0.92749 0.42946,-1.67498 0.34592,-2.46666 -0.0829,-0.79161 -0.21197,-1.62402 0,-2.68298 0.11461,-0.57239 0.23199,-1.11509 0.34592,-1.68769 -0.74763,-0.74762 -1.52751,-1.24468 -2.20698,-1.86078 -0.67942,-0.61589 -1.24435,-1.38582 -1.55782,-2.63969 -0.1519,-0.6076 -0.36525,-1.69142 -0.77897,-2.68298 -0.20714,-0.49575 -0.49989,-0.96347 -0.8222,-1.34149 -0.32244,-0.37837 -0.69736,-0.66146 -1.16839,-0.77898 -1.77565,-0.44396 -3.85441,-0.34592 -5.84197,-0.34592 -0.87025,0 -1.75818,-0.16364 -2.50995,-0.60553 -0.7517,-0.44189 -1.35585,-1.13953 -1.6011,-2.12047 -0.19955,-0.79747 -0.0704,-1.9939 0.0863,-3.07246 0.15743,-1.0785 0.34523,-2.03824 0.25962,-2.4233 -0.1091,-0.48885 -0.23752,-0.98239 -0.34592,-1.47137 -0.2465,-1.20423 -0.48885,-2.43076 -0.73569,-3.63499 -0.34246,-0.13671 -0.89338,-0.51922 -1.2982,-0.51922 -1.93922,-0.74072 -2.04189,-0.78636 -1.81749,-1.08188 0.11186,-0.14776 0.32175,-0.35628 0.43292,-0.73561 0.11116,-0.37907 0.12083,-0.93488 -0.12981,-1.77427 -0.37699,-0.75378 -0.33694,-1.62279 -0.21611,-2.4233 0.12014,-0.80052 0.32037,-1.52985 0.21611,-1.94737 -0.19471,-0.77918 -0.39632,-1.43408 -0.69239,-1.99059 -0.29621,-0.55651 -0.70648,-1.00234 -1.38478,-1.34149 -0.45847,-0.22924 -1.46729,-0.18298 -2.46659,-0.17331 -0.99937,0.007 -1.99128,-0.0207 -2.42337,-0.34592 -0.39218,-0.29413 -0.85962,-0.79106 -1.2982,-1.38478 -0.43844,-0.59379 -0.82648,-1.27182 -0.9953,-1.9473 -0.34177,-1.3669 -0.93729,-1.93156 -1.29827,-3.37537 -0.12566,-0.50335 -0.2962,-0.74086 -0.51922,-0.86549 -0.22302,-0.12428 -0.51439,-0.0981 -0.8222,-0.0863 -0.30794,0.0138 -0.65731,0.007 -1.03859,-0.0863 -0.38113,-0.0946 -0.76861,-0.29275 -1.21161,-0.73568 -0.0953,-0.0953 -0.90595,-0.77821 -1.77427,-1.34149 -0.86832,-0.56341 -1.78684,-1.02595 -2.07717,-0.73568 -0.35559,0.35558 -0.28655,0.96139 -0.25962,1.51459 0.0276,0.55305 0.004,1.07994 -0.51922,1.34149 -0.49989,0.24994 -1.3959,0.49022 -2.07718,0.77897 -0.34039,0.14431 -0.629,0.30933 -0.7789,0.47573 -0.14983,0.16709 -0.19747,0.32175 0,0.51922 0.0621,0.0691 3.71549,2.01483 3.63498,2.33679 -0.16502,0.65938 -0.46536,1.06613 -0.82219,1.42807 -0.35697,0.3618 -0.78913,0.65939 -1.25491,1.1251 -0.32728,0.32728 -0.87295,0.93537 -1.51459,1.4713 -0.64144,0.5358 -1.36966,1.02409 -2.07717,1.12517 -1.27155,0.18159 -1.95483,0.46744 -2.42337,0.8222 -0.46882,0.35489 -0.71249,0.7557 -1.1684,1.21168 -0.52958,0.52958 -1.17674,1.14423 -1.90407,1.51459 -0.36387,0.18504 -0.7535,0.32797 -1.1684,0.34592 -0.41496,0.0207 -0.83096,-0.069 -1.29819,-0.30311 -1.83214,-0.91603 -2.15064,-1.57252 -3.37538,-1.81749 -2.05266,-0.41013 -4.25936,-0.25962 -6.40455,-0.25962 -1.09431,0 -1.78428,-0.17261 -2.42337,-0.43291 -0.63936,-0.2603 -1.22715,-0.57723 -2.20698,-0.8222 -0.71808,-0.17952 -1.88799,-0.54408 -2.68298,-0.90871 -0.3977,-0.18228 -0.72105,-0.36318 -0.8222,-0.51923 -0.1015,-0.15604 -0.0138,-0.30863 0.38942,-0.38941 0.57308,-0.27619 0.7013,-0.52613 0.56272,-0.73569 -0.13878,-0.2099 -0.5137,-0.35835 -0.99529,-0.38942 -0.48125,-0.0345 -1.05868,0.0414 -1.51459,0.30312 -0.4557,0.25823 -0.80404,0.68148 -0.86549,1.34149 -0.32659,0.65317 -0.79603,1.12392 -1.34149,1.2982 -0.54546,0.17399 -1.15237,0.0621 -1.73098,-0.51923 -0.0939,-0.0939 -0.66422,-0.60829 -1.08181,-1.16839 -0.20852,-0.27964 -0.37146,-0.57308 -0.43292,-0.8222 -0.0621,-0.24856 -0.0207,-0.48608 0.21612,-0.60553 0.73161,-0.36594 0.95138,-0.8599 0.90878,-1.55788 -0.0414,-0.69805 -0.34523,-1.59731 -0.64903,-2.81286 -0.116,-0.46537 0.21128,-1.06351 0.47641,-1.6011 0.26514,-0.53787 0.47228,-0.9973 0.0414,-1.21169 -0.49575,-0.24787 -0.89884,-0.23268 -1.25491,-0.0863 -0.35627,0.14637 -0.69045,0.41634 -0.99529,0.73561 -0.30518,0.31899 -0.60899,0.68148 -0.95207,0.95207 -0.34316,0.27066 -0.69826,0.43292 -1.1684,0.43292 -0.34246,0 -1.53316,-0.096 -2.63969,-0.0863 -1.10653,0.007 -2.13116,0.12981 -2.25027,0.60553 -0.0697,0.27895 0.0138,2.84814 0,2.85608 -0.45294,0.33971 -0.83159,0.47918 -1.1251,0.51923 -0.29345,0.0414 -0.50196,-0.0483 -0.73568,-0.21611 -0.46744,-0.33626 -0.94869,-0.98197 -1.7742,-1.60111 -1.54642,-1.15983 -2.33741,-1.61912 -2.81286,-1.94737 -0.47504,-0.32796 -0.62556,-0.51093 -0.77891,-1.1251 -0.21611,-0.86328 -0.53372,-1.94985 -1.03858,-2.94266 -0.50473,-0.99281 -1.18207,-1.89876 -2.03389,-2.46659 -0.38734,-0.25823 -1.89689,-1.28377 -3.46195,-1.94737 -0.7825,-0.33211 -1.58329,-0.58137 -2.25021,-0.60553 -0.66698,-0.0276 -1.23674,0.17952 -1.51458,0.73568 -0.24443,0.48884 -0.28724,0.8454 -0.25962,1.1251 0.0276,0.27964 0.15743,0.50956 0.30311,0.69239 0.29138,0.36457 0.63868,0.64903 0.47642,1.2982 -0.12221,0.48885 0.0981,1.40605 0.0414,2.07718 -0.0276,0.33556 -0.10771,0.62693 -0.34592,0.73568 -0.23821,0.1084 -0.61106,0.0414 -1.21162,-0.25961 -0.57101,-0.28516 -1.37076,-0.94282 -2.16375,-1.51459 -0.79293,-0.5717 -1.57611,-1.03859 -2.20699,-1.03859 -0.83531,0 -1.8951,-0.0483 -2.81278,0 -0.20783,0.0138 -0.28309,0.0691 -0.47573,0.0863 0.0414,0.0483 0.2313,0.0822 0.25961,0.1298 0.18781,0.31278 0.1595,0.67389 -0.1298,1.03859 -0.2893,0.36456 -0.84395,0.74653 -1.68769,1.1684 -0.63453,0.31761 -1.0611,0.61934 -1.34149,0.952 -0.28033,0.3328 -0.42394,0.70592 -0.43292,1.03859 -0.0138,0.6656 0.4198,1.28383 0.9953,1.86078 1.15106,1.15389 2.85994,2.03312 2.4233,2.12047 -0.69481,0.13878 -1.33321,0.43982 -1.90401,0.82219 -0.57101,0.38252 -1.08057,0.8579 -1.55788,1.2982 -0.9547,0.88068 -1.74617,1.68769 -2.50988,1.68769 -1.01325,0 -1.83697,-0.18504 -2.55318,-0.43292 -0.71621,-0.24787 -1.34536,-0.59103 -1.94737,-0.95207 -1.20402,-0.72215 -2.35328,-1.53517 -4.19757,-1.90408 -0.57929,-0.11599 -1.2559403,0.0787 -1.9473003,0.43292 -0.69142,0.35421 -1.38174,0.88109 -1.94736,1.42801 -0.56549,0.54684 -1.00945,1.13904 -1.21169,1.60117 -0.2023,0.46191 -0.18228,0.80901 0.21611,0.90878 1.22274,0.30587 3.13834,0.35282 4.6735803,0.64903 0.76765,0.14845 1.46211,0.37078 1.90407,0.69239 0.4419,0.32106 0.62901,0.73009 0.47573,1.34149 -0.18504,0.74024 -0.48263,1.47261 -0.90871,2.1204 -0.42602,0.64765 -0.96547,1.23737 -1.55788,1.73098 -0.59242,0.49367 -1.2625803,0.89076 -1.9473703,1.16839 -0.68494,0.27756 -1.37436,0.43292 -2.07711,0.43292 -1.17633,0 -2.02394,0.1153 -2.63976,0.34592 -0.61588,0.23061 -1.00461,0.56617 -1.2982,0.99529 -0.58688,0.85748 -0.7865,2.09223 -1.51458,3.54847 -0.18367,0.36802 -0.79278997,1.68085 -0.99529997,2.98589 -0.1015,0.65248 -0.0939,1.27907 0.12981,1.81749 0.22371,0.53856 0.65937997,0.97631 1.42806997,1.16839 0.69046,0.17262 1.3165,0.46054 1.90401,0.86549 0.58758,0.4053 1.11965,0.93364 1.55788,1.51459 0.43844,0.58068 0.79617,1.20444 1.03859,1.90408 0.24235,0.69964 0.38941,1.44575 0.38941,2.20698 0,0.62832 0.32728,1.27099 0.8222,1.86078 0.49506,0.58965 1.14478,1.14154 1.73098,1.68769 0.5862,0.54615 1.1117803,1.06013 1.3847103,1.55788 0.27273,0.49782 0.27135,0.98356 -0.1733,1.42801 -0.40737,0.40737 -0.7494203,1.15955 -1.2116203,1.77427 0.078,0.0414 0.12774,-0.0207 0.21612,0.0414 h -0.25962 c -0.36663,0.49023 -0.65386,0.8637 -0.99529,1.38472 -0.0925,0.81246 -0.13188,1.72904 -0.12981,2.89937 0.003,1.46757 0.007,3.065911 -0.1298,4.457251 -0.13948,1.39134 -0.4343,2.55469 -1.03859,3.15898 -0.2679,0.26721 -0.41566,0.5213 -0.43292,0.77898 -0.0138,0.25754 0.078,0.53303 0.25961,0.7789 0.3625,0.49161 1.0591,0.95007 1.90408,1.38479 1.6899003,0.86942 3.9392003,1.60172 5.0630603,2.16369 0.63798,0.31899 0.87978,0.8293 0.86549,1.47129 -0.0138,0.64213 -0.2969,1.43843 -0.60553,2.25027 -0.30933,0.81184 -0.66215,1.63812 -0.90878,2.4666 -0.2465,0.82855 -0.34592,1.64487 -0.17331,2.33685 0.26997,1.07891 0.2824,1.70861 0.12981,2.16369 -0.15259,0.45501 -0.50887,0.72284 -0.90871,1.03859 -0.40047,0.31554 -0.86798,0.68079 -1.34149,1.34149 -0.47366,0.66077 -0.9256303,1.6252 -1.2982703,3.11569 -0.15812,0.63315 -0.0414,1.0776 0.30311,1.38478 0.3473003,0.30726 0.9193403,0.48609 1.6011703,0.64903 1.36366,0.3259 3.2147,0.54685 4.88996,1.38479 0.62556,0.31277 1.05937,0.80528 1.34149,1.42807 0.2824,0.62279 0.41635,1.364 0.56273,2.1204 0.14568,0.75639 0.30242,1.53668 0.51922,2.25027 0.21681,0.71359 0.50127,1.36648 0.9953,1.86078 0.37906,0.37906 0.67803,1.04391 0.90878,1.86079 0.23061,0.81681 0.40115,1.79995 0.51922,2.81279 0.23614,2.0258 0.25961,4.18017 0.25961,5.53913 0,0.56755 0.28171,1.59675 0.0863,3.02917 -0.0974,0.71615 -0.32935,1.54877 -0.73561,2.4666 -0.40599,0.91782 -1.01629,1.91947 -1.90408,3.02917 -0.24028,0.30035 0.74349,2.20139 1.81749,4.15435 1.07408,1.95289 2.26436,3.96606 2.46667,4.37067 0.47158,0.9431 1.01124,1.64502 1.64439,2.20698 0.63315,0.56203 1.33341,0.97182 2.07717,1.38478 1.48746,0.82586 3.17991,1.57874 4.80338,3.20228 0.84077,0.84077 1.34329,1.62499 1.73098,2.33678 0.38804,0.7118 0.6366,1.37422 0.90878,1.9906 0.27204,0.61657 0.58827,1.17647 1.08181,1.73097 0.49368,0.55444 1.15459,1.07491 2.20698,1.60111 2.84876,1.42441 4.17209,2.01517 5.27945,2.38007 1.10736,0.36526 2.02111,0.51647 4.11106,1.03859 0.54201,0.13533 0.86183,0.36525 1.08181,0.64903 0.22025,0.28378 0.32935,0.61037 0.34592,0.9953 0.0345,0.76944 -0.23683,1.70612 -0.30311,2.59646 -0.0345,0.44535 0.007,0.8936 0.1298,1.2982 0.12014,0.40461 0.34316,0.76496 0.73568,1.08188 0.39218,0.31692 0.94752,0.59656 1.73098,0.77891 0.78347,0.18228 1.77918,0.25961 3.07247,0.25961 0.72471,0 1.47323,-0.49713 2.20698,-1.25498 0.73368,-0.7575 1.44002,-1.78165 2.1204,-2.85608 1.36068,-2.14891 2.55939,-4.46346 3.33208,-5.23615 0.99564,-0.99557 1.5411,-1.90415 1.86079,-2.68299 0.31968,-0.77883 0.40737,-1.42579 0.60553,-2.03388 0.19816,-0.60829 0.49436,-1.16107 1.1251,-1.64439 0.63108,-0.48332 1.62734,-0.93695 3.24557,-1.34149 0.23475,-0.0621 0.26651,-0.16226 0.1733,-0.34592 -0.0932,-0.18435 -0.31071,-0.41842 -0.64903,-0.69239 -0.67665,-0.54754 -1.78746,-1.25836 -2.94266,-1.94737 -2.31035,-1.37788 -4.89135,-2.72766 -5.10636,-2.9426 -1.02381,-1.02381 -1.73477,-2.02394 -2.29349,-3.02917 -0.55858,-1.00531 -0.96271,-2.03906 -1.29827,-3.07247 -0.67112,-2.06696 -1.15023,-4.20462 -2.38001,-6.66423 0.26376,-0.66284 1.18635,-1.55982 2.4666,-2.50989 1.28024,-0.95007 2.94646,-1.97927 4.71686,-2.94266 1.7704,-0.96333 3.63188,-1.8505 5.36596,-2.55318 1.73409,-0.70261 3.32925,-1.21679 4.50055,-1.38471 1.59786,0 2.75272,0.35213 3.59176,0.90871 0.83904,0.5572 1.35682,1.33569 1.64439,2.20698 0.28724,0.87136 0.35904,1.82619 0.30312,2.76957 -0.0552,0.94337 -0.23959,1.86672 -0.43292,2.63969 -0.11047,0.44258 -0.0801,0.93709 0.0863,1.47136 0.16709,0.53442 0.44396,1.10177 0.82219,1.68769 0.75626,1.17178 1.91126,2.41135 3.11576,3.54847 1.20451,1.13705 2.46825,2.16196 3.59177,2.94259 1.12344,0.7807 2.08318,1.32541 2.5964,1.42808 0.35006,0.0697 0.6221,0.26928 0.82219,0.56272 0.20024,0.29345 0.34937,0.66215 0.43292,1.12517 0.16709,0.92542 0.10357,2.13807 0,3.41867 -0.20645,2.56111 -0.66905,5.39517 -0.38942,6.79397 0.11186,0.55927 2.38878,1.51493 4.88996,2.38007 2.50126,0.86515 5.23326,1.66532 6.18823,1.90408 0.77187,0.19333 1.29641,0.50956 1.68769,0.952 0.39149,0.44259 0.64834,0.98308 0.86549,1.55788 0.4343,1.14962 0.71027,2.44126 1.68769,3.41867 1.53171,1.53178 2.33775,2.76238 2.68298,3.93796 0.34523,1.1755 0.22785,2.33388 -0.12981,3.76479 -0.22371,0.89394 -0.23821,1.66538 -0.0863,2.38008 0.1519,0.71476 0.48401,1.3506 0.86548,1.99066 0.76234,1.28004 1.83552,2.50256 2.63969,4.11098 0.98225,1.96456 2.17612,4.03663 3.59177,6.05843 1.41564,2.02173 3.06156,4.01356 4.93325,5.88526 1.21403,1.21403 2.3149,3.2912 3.20228,5.40925 0.88737,2.11805 1.55774,4.2836 1.90407,5.66887 0.26997,1.08105 0.0898,2.00398 -0.21611,2.85608 -0.30587,0.85209 -0.77021,1.61843 -0.9953,2.29356 -0.22509,0.67527 -0.2099,1.26748 0.30311,1.81749 0.51302,0.5503 1.5543,1.03769 3.46196,1.51459 1.39631,0.34938 2.55456,0.89601 3.5917,1.51459 1.0372,0.61865 1.9455,1.33797 2.81285,2.03388 0.86736,0.69592 1.70951,1.36635 2.5964,1.94737 0.88689,0.58137 1.80362,1.06752 2.89937,1.34149 2.81355,0.70337 5.08184,1.67747 7.09694,2.9426 2.01511,1.26519 3.76804,2.81603 5.66894,4.71686 0.24235,0.24235 1.07836,0.32935 2.20698,0.34592 1.12862,0.0138 2.57962,-0.0483 4.02447,-0.12981 2.88964,-0.16709 5.84549,-0.39908 6.57765,-0.21611 2.46825,0.61727 4.36908,1.24649 6.40455,1.73098 2.03547,0.4847 4.21028,0.82227 7.22675,0.8222 1.93674,0 4.26089,0.33832 6.44784,0.82219 2.18703,0.48402 4.21394,1.11164 5.45255,1.73098 0.67044,0.33557 1.42946,0.29966 2.29356,0.0414 0.86404,-0.25616 1.83697,-0.74528 2.85608,-1.25498 1.01912,-0.50955 2.10963,-1.04714 3.2455,-1.47129 1.13594,-0.42394 2.3341,-0.73569 3.54847,-0.73569 2.20436,0 3.03153,-0.14016 3.33215,-0.64903 0.30035,-0.50886 0.0414,-1.35516 0.0414,-2.72627 0,-1.27479 -0.0621,-2.04562 -0.0863,-2.55318 -0.0207,-0.50748 0.0207,-0.75777 0.30312,-0.952 0.56134,-0.38873 2.03864,-0.60829 5.75545,-2.46659 0.10149,0.50679 0.19954,1.0109 0.30311,1.51459 z"
       id="Retiro"
       inkscape:label="#path2826" />
  </g>
</svg>
