<?xml version="1.0" encoding="UTF-8" standalone="no"?>
<!-- Created with Inkscape (http://www.inkscape.org/) -->

<svg
   width="210mm"
   height="297mm"
   viewBox="0 0 210 297"
   version="1.1"
   id="svg64"
   inkscape:version="1.1.2 (b8e25be833, 2022-02-05)"
   sodipodi:docname="vector.svg"
   xmlns:inkscape="http://www.inkscape.org/namespaces/inkscape"
   xmlns:sodipodi="http://sodipodi.sourceforge.net/DTD/sodipodi-0.dtd"
   xmlns="http://www.w3.org/2000/svg"
   xmlns:svg="http://www.w3.org/2000/svg">
  <sodipodi:namedview
     id="namedview66"
     pagecolor="#ffffff"
     bordercolor="#666666"
     borderopacity="1.0"
     inkscape:pageshadow="2"
     inkscape:pageopacity="0.0"
     inkscape:pagecheckerboard="0"
     inkscape:document-units="mm"
     showgrid="false"
     inkscape:zoom="0.74029882"
     inkscape:cx="361.34057"
     inkscape:cy="561.93525"
     inkscape:window-width="1920"
     inkscape:window-height="1017"
     inkscape:window-x="-8"
     inkscape:window-y="-8"
     inkscape:window-maximized="1"
     inkscape:current-layer="layer1" />
  <defs
     id="defs61" />
  <g
     inkscape:label="Capa 1"
     inkscape:groupmode="layer"
     id="layer1">
    <path
       style="fill:#000000;fill-opacity:1;fill-rule:evenodd;stroke:#d39062;stroke-width:1.05862;stroke-linecap:butt;stroke-linejoin:miter;stroke-miterlimit:4;stroke-dasharray:none;stroke-opacity:1"
       d="m 45.520317,224.3206 h 9.18881 l 7.01249,3.86896 h 6.58935 l 0.78589,4.29219 h 3.08307 c 0,0 1.03954,-1.47168 2.17629,-3.56672 1.13676,-2.09504 2.3945,-4.80873 2.90173,-7.31476 1.22571,-6.05595 1.15412,-7.01533 1.1486,-7.01253 l 6.22662,-0.78581 14.81089,7.01252 -0.42315,5.07801 c 0,0 2.264013,-0.8155 4.110773,-2.17627 0.9234,-0.68018 1.71491,-1.47047 2.11585,-2.41817 0.40098,-0.94761 0.41491,-2.03758 -0.36274,-3.20398 0.0752,-1.47767 0.37754,-2.39296 0.84635,-3.02257 0.46884,-0.62977 1.07551,-0.97026 1.69266,-1.32996 0.61712,-0.36009 1.23299,-0.72259 1.75313,-1.39045 0.52014,-0.66818 0.97086,-1.64948 1.14861,-3.20398 0.29744,-0.59536 0.64649,-1.02067 1.08813,-1.26946 0.44164,-0.24887 0.9854,-0.30248 1.51132,-0.30248 1.05183,1.6e-4 2.17436,0.3737 3.204,0.78581 0.80283,-0.28248 1.38695,-0.70579 1.87402,-1.20905 0.48709,-0.50333 0.88996,-1.09205 1.2695,-1.69269 0.75908,-1.2012 1.50448,-2.47475 3.08309,-3.3249 1.12374,0.80446 2.27749,1.24938 3.4458,1.39046 1.16831,0.14084 2.33857,0.024 3.44581,-0.3625 1.10721,-0.3841 2.20306,-1.04316 3.14352,-1.81353 0.94048,-0.7706 1.75006,-1.70205 2.41811,-2.72041 1.7831,-1.61635 3.78037,-2.51755 5.80345,-3.4458 2.02308,-0.92825 4.07559,-1.83738 5.86392,-3.50623 0.33297,-0.33288 0.64089,-0.50253 0.96724,-0.48333 0.32633,0.016 0.64497,0.17765 0.96723,0.42332 0.64458,0.49133 1.29086,1.35132 1.93448,1.99493 0.57248,0.50894 1.09434,0.60017 1.57177,0.42332 0.47741,-0.17685 0.90487,-0.63057 1.32997,-1.20905 0.85022,-1.15671 1.64172,-2.81315 2.53901,-3.86896 1.35778,-1.15655 3.06819,-1.61563 4.5944,-2.17626 0.76308,-0.28008 1.49674,-0.57936 2.11584,-1.02772 0.61913,-0.44812 1.09985,-1.04644 1.45085,-1.87402 1.20069,-1.52481 2.4609,-2.49843 3.32491,-3.62714 0.43196,-0.56415 0.78949,-1.14766 0.96724,-1.87402 0.17765,-0.72659 0.18989,-1.59747 0,-2.65999 -0.1594,-1.05565 -0.46941,-1.81537 -0.84635,-2.41809 -0.3769,-0.60257 -0.83306,-1.06269 -1.1486,-1.51129 -0.31552,-0.44892 -0.50837,-0.91769 -0.48365,-1.51129 0.0248,-0.59376 0.26279,-1.32011 0.90679,-2.35767 0.22774,-0.91096 0.7226,-1.37397 0.7254,-1.6322 0.002,-0.25847 -0.44252,-0.30248 -2.23673,-0.30248 -0.87694,0 -2.13102,-0.89528 -3.14355,-1.93444 -1.01252,-1.03916 -1.80727,-2.21155 -1.93447,-2.72041 -0.72668,-0.68498 -1.72934,-1.08821 -2.84129,-1.26946 -1.11193,-0.18085 -2.32843,-0.17045 -3.62716,-0.064 -2.59743,0.21926 -5.4031,0.80246 -7.55657,0.90673 -1.1244,0 -2.15767,-0.64738 -3.08309,-1.51129 -0.92543,-0.86351 -1.74062,-1.89763 -2.35765,-2.72033 1.1981,-0.30488 2.2119,-0.90721 3.08307,-1.75319 0.87121,-0.84591 1.59746,-1.95941 2.35767,-3.32482 1.92878,-2.49107 4.44821,-4.00443 6.22663,-6.58937 0.16132,-0.96394 0.49933,-1.77743 0.96723,-2.47858 0.46789,-0.70099 1.11288,-1.30996 1.75314,-1.87403 1.28046,-1.12822 2.7646,-2.11064 3.92942,-3.4458 0.25631,-0.51294 0.58672,-0.75461 1.02768,-0.78581 0.441,-0.032 0.98892,0.14564 1.51133,0.42331 1.04483,0.55455 2.15064,1.5461 2.90171,2.29718 2.87379,0.70019 5.6748,0.98106 8.40293,1.51128 1.36405,0.26487 2.66964,0.58736 3.98986,1.08814 1.32023,0.50093 2.65796,1.19384 3.92943,2.11584 1.7454,0.39931 3.00484,1.43551 4.23167,2.53901 1.22686,1.10357 2.41761,2.27221 3.92944,2.90174 0.55607,0.13923 0.97861,-0.08 1.39041,-0.42332 0.41179,-0.34489 0.78886,-0.82566 1.1486,-1.39037 0.71939,-1.1295 1.41415,-2.47603 2.47855,-2.90174 3.82899,-2.64551 7.24945,-5.98257 10.51876,-9.3097 1.45007,-0.90208 2.67396,-1.81177 3.56669,-2.90174 0.89275,-1.08997 1.47806,-2.37456 1.51133,-4.11079 -1.75326,-2.79771 -1.92455,-5.72474 -3.50625,-8.94704 -0.88153,-1.78952 -1.49464,-3.18646 -1.87403,-4.65485 -0.37938,-1.46832 -0.54999,-2.96072 -0.48365,-5.01751 -0.18333,-0.91641 -1.09977,-1.29275 -2.11586,-1.63228 -1.01606,-0.33929 -2.12105,-0.67538 -2.53901,-1.51128 -1.16107,-2.32215 -1.08698,-2.5983 -3.50625,-5.01759 -1.97142,-1.97141 -3.47301,-3.12692 -5.80345,-4.29212 -0.59712,-0.29848 -1.08216,-0.33769 -1.45085,-0.24166 -0.36874,0.096 -0.61745,0.31128 -0.90679,0.60416 -0.57879,0.58736 -1.14103,1.37909 -2.2972,1.57178 -1.04986,0.17525 -2.13501,1.02084 -3.0831,1.87403 -0.94808,0.85311 -1.81722,1.69445 -2.4181,1.99493 -0.56455,0.28248 -1.33765,0.0856 -2.23675,-0.36249 -0.89911,-0.44893 -1.88125,-1.15159 -2.84127,-1.93444 -1.4361,-1.1712 -2.33533,-2.15138 -3.14354,-2.96224 -0.94349,0.14404 -1.65052,0.42491 -1.93448,0.84631 -0.35337,0.52494 -0.51734,1.09661 -1.45088,1.32995 -2.25722,-0.048 -3.81121,0.048 -5.13846,0.60417 -1.32725,0.55935 -2.43256,1.56802 -3.8085,3.26447 -2.04564,0 -4.22137,-0.13763 -6.34754,-0.12083 -2.12617,0.016 -4.21474,0.19605 -6.1057,0.90681 -0.57,0.7602 -1.02142,1.52825 -1.63225,2.11584 -0.6108,0.58736 -1.3964,0.96722 -2.6599,0.96722 -1.0565,0 -2.08967,-0.10322 -2.78082,0.064 -0.34561,0.0816 -0.59264,0.24087 -0.72539,0.54415 -0.13276,0.30328 -0.16109,0.7466 0,1.39045 0.34401,1.37597 2.22472,5.00519 1.93447,6.16614 -0.18021,0.72099 -1.19367,1.35252 -2.35765,1.87402 -1.16399,0.52174 -2.47613,0.9661 -3.08309,1.26954 -1.92796,0.9697 -3.06776,1.97053 -4.23168,2.90166 -1.16393,0.93129 -2.3224,1.79064 -4.29215,2.53908 -2.48455,1.53362 -5.28521,2.54813 -8.1611,3.50623 -0.0248,0.048 -1.71413,1.67477 -3.50624,3.02265 -0.89606,0.67378 -1.81979,1.28778 -2.59948,1.57178 -0.77965,0.28408 -1.4015,0.28008 -1.69267,-0.30248 0.0919,-1.60219 0.90218,-3.19806 1.26952,-4.65485 0.18357,-0.7282 0.22118,-1.45887 0.06,-2.11585 -0.16068,-0.65698 -0.54934,-1.25154 -1.32996,-1.81353 -2.48039,-2.68728 -2.75806,-5.31863 -5.01757,-7.79841 -1.15908,-0.50814 -2.08955,-0.61297 -2.90172,-0.54415 -0.81217,0.072 -1.54522,0.3505 -2.23675,0.7258 -1.383093,0.7506 -2.759483,1.82801 -5.017573,2.17634 -4.08011,-0.67858 -6.34248,-0.59856 -7.85884,-0.72579 -0.75821,-0.064 -1.28819,-0.19045 -1.81359,-0.48333 -0.52542,-0.29288 -1.00706,-0.7434 -1.57176,-1.51137 -2.27212,-2.27213 -4.58566,-4.54754 -6.64977,-7.01244 -0.91025,-1.10742 -2.00014,-2.18579 -2.78085,-3.38539 -0.39034,-0.60016 -0.71059,-1.21569 -0.84632,-1.87403 -0.13572,-0.65857 -0.0855,-1.37525 0.18141,-2.11585 1.26759,-1.02123 2.83938,-2.02814 4.11076,-3.26439 0.63569,-0.61777 1.19905,-1.31644 1.57177,-2.05544 0.37274,-0.73939 0.54983,-1.57394 0.48365,-2.47858 -2.80519,-0.25047 -4.70638,-0.7562 -5.98481,-1.39037 -1.27841,-0.63378 -1.92785,-1.35885 -2.23673,-2.11585 -0.30889,-0.75701 -0.2243,-1.49673 -0.12092,-2.11585 0.10331,-0.61937 0.22294,-1.10934 0.18149,-1.32996 -1.6024,-1.82673 -2.79151,-2.73449 -3.74805,-3.08307 -0.95655,-0.34889 -1.66538,-0.13043 -2.23675,0.30248 -0.57144,0.43212 -1.00395,1.05565 -1.45087,1.57179 -0.44692,0.51613 -0.86768,0.88311 -1.45087,0.78581 -1.16634,-0.19446 -4.48299,-2.97288 -7.49611,-5.74299 -3.01315,-2.77018 -5.74301,-5.50123 -5.74301,-5.50123 l -9.73287,-6.46838 c -0.34129,0.032 -0.68986,0.32568 -1.0277,0.30248 -0.1442,-0.0864 -0.28128,-0.3521 -0.42316,-0.48333 -0.36065,0.28968 -0.82678,0.7434 -0.90679,0.42331 -0.20262,-0.8103 -0.14524,-1.2633 0,-1.45079 0.0128,-0.016 0.0456,0.016 0.0608,0 -1.182914,-1.60235 -2.276,-3.48829 -3.143537,-1.75319 -2.700558,4.38646 -6.772404,0.45612 -10.156041,4.05037 -1.282537,1.2825 -5.171054,4.29683 -6.045257,6.04522 -0.580156,1.16024 0.08938,5.87246 -0.785891,6.52896 -2.485948,2.69576 -4.641063,3.18734 -6.891596,6.04522 -2.250517,2.85789 -1.378114,3.74221 -3.627142,4.29212 1.318586,0 -0.591679,3.36298 -0.544067,3.5063 0.440919,1.3262 -0.257109,11.68642 -2.11584,9.37012 -1.27267,-1.58595 1.13869,3.0633 1.874031,4.53393 -0.849668,0.56336 -2.559103,2.87958 -3.264437,3.74805 -1.213238,3.67635 0.255829,5.50372 -2.35764896,8.58431 -1.050555,1.05052 0.06962,2.63567 0.48364996,4.29211 0.604562,2.41825 0.846323,6.31994 0.846323,7.738 0,1.59123 0.09002,3.39867 0.544066,4.53394 0.988298,3.17837 2.720627,5.93055 2.297201,8.64472 2.807875,0.3721 3.760563,-1.53937 6.528875,-1.8136 3.37085,-0.30889 6.306775,1.10893 9.672423,-2.53901 0.131475,-0.13123 4.220702,-2.34111 4.473506,-1.32995 0.727476,2.10784 0.772688,4.1023 1.088132,6.22663 1.051123,1.66109 3.131266,1.92212 3.022629,3.02265 -0.140998,5.37697 0.730996,16.43226 -1.329942,16.26173 -2.58555,0.92961 -1.193232,2.48195 -0.846347,4.95709 4.119827,1.11222 5.891863,2.27277 8.342458,2.78083 -0.177888,3.52167 -0.129155,7.03437 -0.604483,10.51875 -0.943765,3.20798 -0.272953,5.32655 2.539005,7.49617 1.60271,1.4123 3.01319,2.79683 3.26444,4.95709 -1.79683,2.5318 -0.98613,4.29524 -1.63222,5.98481 -0.99303,2.59694 -5.589734,4.01196 -8.0402,5.56166 0.155801,2.05719 -0.251348,4.43519 1.088132,6.04522 1.515751,1.01051 2.821238,1.78384 4.896678,2.11585 2.06378,1.25065 4.13837,2.24596 6.46843,2.78083 0.54983,1.14502 1.1342,2.42553 1.5113,3.68763 0.0208,0.04 -0.072,0.3953 -0.0608,0.48333 z"
       id="Santa_Cruz"
       inkscape:label="#path2113" />
  </g>
</svg>
