<?xml version="1.0" encoding="UTF-8" standalone="no"?>
<!-- Created with Inkscape (http://www.inkscape.org/) -->

<svg
   width="210mm"
   height="297mm"
   viewBox="0 0 210 297"
   version="1.1"
   id="svg1283"
   inkscape:version="1.1.2 (b8e25be833, 2022-02-05)"
   sodipodi:docname="vector.svg"
   xmlns:inkscape="http://www.inkscape.org/namespaces/inkscape"
   xmlns:sodipodi="http://sodipodi.sourceforge.net/DTD/sodipodi-0.dtd"
   xmlns="http://www.w3.org/2000/svg"
   xmlns:svg="http://www.w3.org/2000/svg">
  <sodipodi:namedview
     id="namedview1285"
     pagecolor="#ffffff"
     bordercolor="#666666"
     borderopacity="1.0"
     inkscape:pageshadow="2"
     inkscape:pageopacity="0.0"
     inkscape:pagecheckerboard="0"
     inkscape:document-units="mm"
     showgrid="false"
     inkscape:zoom="0.52347032"
     inkscape:cx="155.69173"
     inkscape:cy="611.30496"
     inkscape:window-width="1920"
     inkscape:window-height="1017"
     inkscape:window-x="-8"
     inkscape:window-y="-8"
     inkscape:window-maximized="1"
     inkscape:current-layer="layer1" />
  <defs
     id="defs1280" />
  <g
     inkscape:label="Capa 1"
     inkscape:groupmode="layer"
     id="layer1">
    <path
       id="Tiltil"
       style="fill:#000000;fill-opacity:1;fill-rule:evenodd;stroke:#d38d5f;stroke-width:1.06538px;stroke-linecap:butt;stroke-linejoin:miter;stroke-opacity:1"
       d="m 208.56442,45.884864 -4.11587,-1.51318 c -0.16407,-0.82082 0.65895,-11.1485 0,-13.78412 -1.58574,-3.26423 -6.78281,-10.34619 -16.73787,-8.369 -15.99345,4.60029 -14.08432,13.95339 -17.72245,4.92298 -7.11809,-1.23449 -13.6567,-6.07653 -22.64535,-2.46149 -3.35824,0.83933 -4.20446,2.46149 -8.36893,2.46149 -5.4518,-0.13137 -10.6095,-2.59347 -15.75327,-1.96918 -1.66136,0.9968 -5.24764,2.95372 -6.39978,2.95372 -20.509559,-0.96303 -10.78067,3.29597 -15.75329,3.44603 -1.469519,3.67376 -6.071659,2.46148 -10.338089,2.46148 -5.57787,-1.60461 -8.07986,-3.80944 -12.79955,5.90743 -1.43622,5.10168 -5.02653,6.71387 -6.39977,11.81503 -2.22334,4.82581 -2.17725,12.26732 -9.35351,10.33808 -4.73099,-1.02862 -8.602797,-5.44023 -12.799535,-2.46148 -4.40584,2.48723 -8.488633,6.20031 -13.784131,6.39974 -5.261924,0 -10.508729,-0.0265 -15.753294,-0.49196 -4.761401,0 -10.6779625,-0.94346 -14.7686995,0.98454 -0.206306,4.83657 -2.600805,7.97058 -4.430614,11.81494 3.185289,3.26935 3.209437,7.10656 0.492315,10.33808 5.067062,3.03809 5.654701,10.3589 10.8303835,20.676256 0.367472,12.08147 8.00762,9.78785 5.415199,15.26097 -1.592653,6.31123 -4.110547,7.12958 -6.399776,17.72246 -7.8808845,4.51159 -7.7347505,5.56349 -7.8766435,11.81494 3.527643,2.94816 8.7456085,4.08867 7.8766435,9.35354 -5.0963595,15.66327 -0.519823,14.00682 0.492314,29.04509 5.186138,5.43195 0.30082,8.40903 2.461461,13.78411 3.641799,2.00276 4.927302,5.65325 6.598633,8.5985 2.545614,4.48602 4.686779,8.63579 7.18548,13.0623 5.695063,5.0077 -3.301605,3.06665 -2.083275,9.59212 11.621189,8.41696 0.400711,-8.65113 12.476613,-4.4855 5.385761,6.51797 11.115165,0.57925 17.168108,-0.14018 10.324198,0.90704 11.266658,12.36588 17.589998,8.72422 6.65249,-0.74676 18.08813,-10.02475 21.86301,-0.73442 2.56986,5.67017 1.23595,10.15497 -0.2332,15.37232 0.51912,8.64011 -3.8125,6.84128 0.7926,6.63982 6.897549,-0.30153 -1.65542,14.48 11.840089,11.84377 10.95529,-3.514 4.52029,-16.84768 12.77242,-22.70088 7.53842,-4.78033 -4.5496,-10.65831 2.12954,-13.6531 7.2593,-4.04917 12.10143,3.12431 18.92685,0.54574 -0.59265,-7.02915 15.29234,-12.08349 18.15434,-8.72828 8.01412,-3.86807 15.12126,3.62395 22.70634,4.84751 4.42749,0.52987 7.78252,-5.24302 10.7852,-6.71344 7.1838,-0.28124 4.34553,-5.05187 2.00981,-8.3876 -1.69053,-13.04546 -8.27413,-10.2061 -12.31897,-21.739 -2.75454,-6.50078 7.66288,-11.87798 1.42432,-18.66512 -6.69917,-7.81709 4.75726,-12.68417 5.15251,-20.72361 3.19218,-7.33499 -7.05339,-18.06444 -13.5907,-21.31951 -5.06935,-1.60848 10.99667,-8.27202 3.27422,-15.06859 6.36124,-9.43298 3.89761,-9.61751 3.9038,-12.72163 4.57455,-5.56367 3.68847,-6.08632 -1.76099,-9.29668 -1.86296,-6.622796 -1.3174,-14.330826 -6.42801,-19.184496 4.75882,-2.90452 8.9405,-7.0616 12.26854,-11.80207 5.68993,-2.25589 15.64701,-3.33441 16.97978,-11.71487 0.50545,-3.56373 6.99841,-1.61625 5.81181,-6.14768 z"
       sodipodi:nodetypes="cccccccccccccccccccccccccccscccccccscccccccccccccccccccc"
       inkscape:label="#path5625" />
  </g>
</svg>
