<?xml version="1.0" encoding="UTF-8" standalone="no"?>
<!-- Created with Inkscape (http://www.inkscape.org/) -->

<svg
   width="210mm"
   height="297mm"
   viewBox="0 0 210 297"
   version="1.1"
   id="svg64"
   inkscape:version="1.1.2 (b8e25be833, 2022-02-05)"
   sodipodi:docname="vector.svg"
   xmlns:inkscape="http://www.inkscape.org/namespaces/inkscape"
   xmlns:sodipodi="http://sodipodi.sourceforge.net/DTD/sodipodi-0.dtd"
   xmlns="http://www.w3.org/2000/svg"
   xmlns:svg="http://www.w3.org/2000/svg">
  <sodipodi:namedview
     id="namedview66"
     pagecolor="#ffffff"
     bordercolor="#666666"
     borderopacity="1.0"
     inkscape:pageshadow="2"
     inkscape:pageopacity="0.0"
     inkscape:pagecheckerboard="0"
     inkscape:document-units="mm"
     showgrid="false"
     inkscape:zoom="0.74029882"
     inkscape:cx="361.34057"
     inkscape:cy="345.8063"
     inkscape:window-width="1920"
     inkscape:window-height="1017"
     inkscape:window-x="-8"
     inkscape:window-y="-8"
     inkscape:window-maximized="1"
     inkscape:current-layer="layer1" />
  <defs
     id="defs61" />
  <g
     inkscape:label="Capa 1"
     inkscape:groupmode="layer"
     id="layer1">
    <path
       id="Huasco"
       style="fill:#000000;fill-opacity:1;fill-rule:evenodd;stroke:#d38d5f;stroke-width:3.22917px;stroke-linecap:butt;stroke-linejoin:miter;stroke-opacity:1"
       d="m 190.73326,163.57687 c -7.96832,0.5266 -9.84648,-3.80004 -13.5931,-8.79554 -1.70702,-2.27612 -3.36222,-5.01601 -5.59714,-7.99597 -7.54649,0.70808 -15.21268,1.44014 -22.38856,3.99799 -12.43036,-4.88417 -17.3402,-11.7977 -19.98982,0 1.39501,3.99308 -8.77618,17.088 -11.99385,16.7915 1.83866,3.54944 -13.87418,22.90998 -12.79354,24.78729 3.02746,6.24298 7.46063,10.86233 11.99386,15.99185 -4.01274,0.80305 -12.38522,-1.10153 -16.79142,0 -6.03543,1.50887 -6.02358,8.4224 -11.19427,13.5931 -2.37635,2.37635 -16.36102,7.07395 -16.79142,8.79554 -1.15324,8.32019 -0.70996,16.47499 -4.79756,23.98771 1.98075,8.36025 5.16524,15.67316 3.99799,23.9878 0.40058,1.60339 7.72617,8.53056 2.39873,11.19428 -9.62672,2.7271 -14.23546,-0.32159 -19.98983,-7.99596 -11.29141,5.34362 -15.76267,10.11955 -27.98569,3.99798 -8.9017,0.46735 -18.8100604,0.33194 -23.1881674,-6.39672 l 7.196337,-7.99587 C 21.44938,274.91876 29.72285,258.74271 21.09572,250.43446 c -5.54626,-3.7786 -3.78559,-6.62259 2.03811,-6.98397 -0.7109,-9.37339 8.11351,-12.44766 12.73956,-19.4401 5.02389,-5.3832 10.38557,-7.85359 9.30116,-16.32312 5.34804,-7.41727 -3.02529,-17.67976 8.10918,-21.34307 11.49143,-6.799 -2.67321,-17.79947 -7.7367,-24.03247 -4.89959,-2.92571 -7.13329,-9.28566 1.06757,-7.67992 7.04866,-5.0317 5.14455,-16.32979 7.28958,-23.99486 1.51753,-7.73266 6.93544,-16.37587 1.75657,-23.14882 -7.08233,-3.77963 2.79302,-14.825615 0.99395,-21.834215 2.80666,-7.34919 -1.57001,-7.50915 -8.24893,-9.23262 -1.90044,-7.69533 9.94644,-13.541 12.67617,-20.6254 -3.57661,-6.45426 5.67877,-18.11064 -0.63755,-30.80213 0.53976,-9.01155 -1.27295,-13.20991 5.96021,-18.0773504 8.82272,19.9242904 54.74536,6.8753604 59.85699,35.3549304 6.62635,13.74055 16.57373,11.68005 28.04757,7.48103 14.70178,-8.53366 16.81493,12.28405 27.32671,10.54618 5.82018,-8.74194 16.60795,-7.34533 24.19373,-11.24317 l 2.49437,111.323085 c -18.82397,-10.04273 -12.1367,1.78139 -17.59099,3.1984"
       sodipodi:nodetypes="csccccccsscccccccccccccccccccccccccccc"
       inkscape:label="#path11853" />
  </g>
</svg>
