<?xml version="1.0" encoding="UTF-8" standalone="no"?>
<!-- Created with Inkscape (http://www.inkscape.org/) -->

<svg
   width="210mm"
   height="297mm"
   viewBox="0 0 210 297"
   version="1.1"
   id="svg1283"
   inkscape:version="1.1.2 (b8e25be833, 2022-02-05)"
   sodipodi:docname="vector.svg"
   xmlns:inkscape="http://www.inkscape.org/namespaces/inkscape"
   xmlns:sodipodi="http://sodipodi.sourceforge.net/DTD/sodipodi-0.dtd"
   xmlns="http://www.w3.org/2000/svg"
   xmlns:svg="http://www.w3.org/2000/svg">
  <sodipodi:namedview
     id="namedview1285"
     pagecolor="#ffffff"
     bordercolor="#666666"
     borderopacity="1.0"
     inkscape:pageshadow="2"
     inkscape:pageopacity="0.0"
     inkscape:pagecheckerboard="0"
     inkscape:document-units="mm"
     showgrid="false"
     inkscape:zoom="0.74029882"
     inkscape:cx="361.34057"
     inkscape:cy="561.93525"
     inkscape:window-width="1920"
     inkscape:window-height="1017"
     inkscape:window-x="-8"
     inkscape:window-y="-8"
     inkscape:window-maximized="1"
     inkscape:current-layer="layer1" />
  <defs
     id="defs1280" />
  <g
     inkscape:label="Capa 1"
     inkscape:groupmode="layer"
     id="layer1">
    <path
       d="m 82.926166,63.683465 c 0.46381,6.54874 -10.59499,3.66386 -12.889,7.60307 -8.90111,0.94684 -15.31578,10.40974 -23.64138,3.86969 -1.40562,4.55581 -4.69056,-0.73643 -7.6957,4.23105 -6.0605,-2.96402 -12.099046,4.86684 -15.339386,-0.70899 -9.156482,-2.49746 -27.4634097,2.85424 -17.4105407,14.26617 0.912076,11.249535 12.7482507,17.312965 18.6388707,24.112365 7.309326,-1.6055 6.162136,7.26002 13.892826,6.59174 8.75867,-0.32018 10.85393,8.84128 17.40107,11.90547 4.22876,6.37539 10.01395,14.57538 17.76165,15.777 3.50559,4.29508 4.14871,13.47439 9.5935,18.20218 -0.77897,6.08858 -11.38096,5.36313 -15.08956,7.93012 -3.30982,2.43342 -10.07642,3.97489 -11.22951,5.33477 -7.33576,3.98405 -1.01453,13.50275 -9.93632,15.85521 -5.41217,5.73547 -17.05975,10.77567 -12.62095,21.11634 2.61044,5.37869 10.27009,13.65873 13.3013,13.67382 4.43048,-4.20817 10.2282,-2.65755 13.14103,-8.82435 6.92345,-3.30708 11.82813,-6.36944 20.29817,-6.29122 5.19399,-9.02425 15.39149,6.27429 19.665264,-2.88626 8.95188,3.29792 16.45149,1.16182 24.55227,5.56576 0.78079,5.28904 12.0345,-1.5186 12.21083,6.40695 4.47759,0.36593 10.62198,-0.7776 11.36175,-2.95487 4.68773,6.86252 20.93905,10.53644 17.3772,-2.12696 2.42656,-5.60602 10.79021,-1.95314 7.78398,-10.17463 -1.26017,-9.67834 7.99768,-20.37076 16.79678,-12.07288 8.7117,4.29965 3.05871,-10.20711 12.15115,-7.46723 5.34978,0.0915 4.7857,-3.91085 1.30316,-5.22271 3.6849,-4.51921 1.79854,-7.244 -0.22413,-10.06714 3.07517,-9.12304 -6.02317,-12.55453 -3.64922,-21.54539 -2.46589,-9.15781 -8.57392,-16.84687 -11.9309,-24.19608 6.6491,-5.72815 10.74072,-15.93343 8.23585,-25.38078 2.96356,-4.05723 11.21524,-6.850165 3.1447,-9.921215 -3.75991,-5.47612 -2.36207,-10.20208 -9.07712,-12.061 -2.8236,-7.6822 -11.78262,-11.50706 -16.2098,-5.61013 -5.78628,3.08752 -9.95032,8.53299 -16.49833,9.88829 -5.32004,4.15786 -17.9318,2.89998 -22.46478,-4.167 -4.83236,-4.28136 -7.97422,-10.40975 -14.75601,-13.28823 -3.59982,1.10694 -6.37671,-5.66868 -12.1216,-3.70959 -6.10752,-5.34942 -14.695124,-3.36197 -23.185524,-3.65471 l -1.321,9.1e-4 -1.32055,0.002 z"
       style="fill:#000000;fill-opacity:1;stroke:#d39062;stroke-width:6.05117;stroke-miterlimit:4;stroke-dasharray:none;stroke-opacity:1"
       id="Curaco_de_Velez" />
  </g>
</svg>
