<?xml version="1.0" encoding="UTF-8" standalone="no"?>
<!-- Created with Inkscape (http://www.inkscape.org/) -->

<svg
   width="210mm"
   height="297mm"
   viewBox="0 0 210 297"
   version="1.1"
   id="svg64"
   inkscape:version="1.1.2 (b8e25be833, 2022-02-05)"
   sodipodi:docname="vector.svg"
   xmlns:inkscape="http://www.inkscape.org/namespaces/inkscape"
   xmlns:sodipodi="http://sodipodi.sourceforge.net/DTD/sodipodi-0.dtd"
   xmlns="http://www.w3.org/2000/svg"
   xmlns:svg="http://www.w3.org/2000/svg">
  <sodipodi:namedview
     id="namedview66"
     pagecolor="#ffffff"
     bordercolor="#666666"
     borderopacity="1.0"
     inkscape:pageshadow="2"
     inkscape:pageopacity="0.0"
     inkscape:pagecheckerboard="0"
     inkscape:document-units="mm"
     showgrid="false"
     inkscape:zoom="0.74029882"
     inkscape:cx="361.34057"
     inkscape:cy="345.8063"
     inkscape:window-width="1920"
     inkscape:window-height="1017"
     inkscape:window-x="-8"
     inkscape:window-y="-8"
     inkscape:window-maximized="1"
     inkscape:current-layer="layer1" />
  <defs
     id="defs61" />
  <g
     inkscape:label="Capa 1"
     inkscape:groupmode="layer"
     id="layer1">
    <path
       sodipodi:nodetypes="csssssssccssssscccccccccccccccccc"
       d="m 98.946445,284.96054 c -12.67002,-1.03004 -11.01472,3.82243 -16.01069,5.99028 -4.57797,1.98657 0.86317,-8.39894 -3.60651,-14.00442 -4.67275,-5.86017 -4.58917,2.76408 -16.85408,1.64958 -3.29416,-0.29926 4.42858,-16.17532 2.05439,-16.538 -7.74489,-1.18292 -13.623054,24.11075 -19.936387,7.59356 -2.921346,-7.6429 -13.040558,-6.1489 -17.87046,-12.8819 -2.612431,-3.64189 -3.107696,-8.7265 -14.839735,5.23944 -3.6683745,4.36683 -6.1984675,-1.86665 -9.8835935,-4.17622 3.822164,-5.85963 12.3684415,-9.51475 6.346067,-19.96857 1.577804,-0.97475 -0.08457,-12.64781 -0.08457,-19.70554 0,-7.05773 1.9364105,-17.46666 4.3031285,-23.13102 2.366729,-5.66446 4.303129,-13.72675 4.303129,-17.91652 0,-4.18966 2.118511,-10.64215 4.707804,-14.33891 2.589293,-3.69666 6.276078,-12.05234 8.192864,-18.56794 2.70598,-9.19837 5.341073,-12.40212 11.787519,-14.33101 C 113.29025,104.1384 139.49534,84.496072 136.83861,7.0237123 l 8.09965,-1.1184 c 3.68428,5.9666397 11.88931,5.2269597 16.48354,10.0732497 2.86929,4.42299 10.35718,3.53238 11.29792,9.18384 1.0102,12.18624 2.93993,23.62445 8.34182,28.56073 5.09301,3.62043 0.22368,11.98577 3.69427,16.52694 2.19857,4.01835 6.04249,6.04016 7.13003,10.16325 3.47697,3.90558 2.24194,16.55404 -0.10734,21.925648 1.2539,5.28085 11.04872,7.93044 15.89824,8.95604 l 0.83726,20.66022 c -3.15214,0.43045 -6.14915,2.96966 -8.97985,8.43093 l -1.37574,82.54504 -9.85956,0.68741 c -2.31028,2.34774 -2.89617,-2.97855 -7.10804,-6.72583 -16.37694,12.28263 -32.69154,24.5568 -49.06845,36.83944 -6.21392,5.05923 -13.47251,9.31113 -19.03122,14.90403 -6.82762,1.94135 -21.118025,8.01024 -14.145145,16.32386 z"
       style="fill:#000000;fill-opacity:1;fill-rule:evenodd;stroke:#d38d5f;stroke-width:2.86875;stroke-linecap:butt;stroke-linejoin:miter;stroke-miterlimit:4;stroke-opacity:1"
       id="Santo_Domingo" />
  </g>
</svg>
