<?xml version="1.0" encoding="UTF-8" standalone="no"?>
<!-- Created with Inkscape (http://www.inkscape.org/) -->

<svg
   width="210mm"
   height="297mm"
   viewBox="0 0 210 297"
   version="1.1"
   id="svg57"
   inkscape:version="1.1.2 (b8e25be833, 2022-02-05)"
   sodipodi:docname="vector.svg"
   xmlns:inkscape="http://www.inkscape.org/namespaces/inkscape"
   xmlns:sodipodi="http://sodipodi.sourceforge.net/DTD/sodipodi-0.dtd"
   xmlns="http://www.w3.org/2000/svg"
   xmlns:svg="http://www.w3.org/2000/svg">
  <sodipodi:namedview
     id="namedview59"
     pagecolor="#ffffff"
     bordercolor="#666666"
     borderopacity="1.0"
     inkscape:pageshadow="2"
     inkscape:pageopacity="0.0"
     inkscape:pagecheckerboard="0"
     inkscape:document-units="mm"
     showgrid="false"
     inkscape:zoom="0.74029882"
     inkscape:cx="361.34057"
     inkscape:cy="453.87078"
     inkscape:window-width="1920"
     inkscape:window-height="1017"
     inkscape:window-x="-8"
     inkscape:window-y="-8"
     inkscape:window-maximized="1"
     inkscape:current-layer="layer1" />
  <defs
     id="defs54" />
  <g
     inkscape:label="Capa 1"
     inkscape:groupmode="layer"
     id="layer1">
    <path
       inkscape:connector-curvature="0"
       id="Mulchen"
       style="fill:#000000;fill-opacity:1;fill-rule:evenodd;stroke:#d39062;stroke-width:0.317612;stroke-linecap:butt;stroke-linejoin:miter;stroke-miterlimit:4;stroke-dasharray:none;stroke-opacity:1"
       d="m 190.06756,236.25359 c 0.46355,0.26416 0.99163,0.59553 1.19105,0.59553 1.17253,0 1.93469,-0.15784 2.42179,-0.41688 0.24349,-0.12962 0.43148,-0.3019 0.55585,-0.47641 0.12437,-0.17457 0.1982,-0.34987 0.23823,-0.55581 0.15948,-0.82378 -0.2192,-1.86293 -0.0197,-2.66 0.0758,-0.30288 -0.023,-0.46541 -0.15882,-0.57566 -0.13454,-0.11026 -0.30452,-0.16047 -0.39699,-0.21822 -0.0925,-0.0581 -0.10271,-0.13192 0.0991,-0.27794 0.20214,-0.14603 0.60087,-0.35998 1.34987,-0.73446 0.82092,-0.41048 1.26182,-0.78821 1.46895,-1.13152 0.20706,-0.34327 0.1936,-0.66049 0.0994,-0.95281 -0.0945,-0.29238 -0.27335,-0.55634 -0.35732,-0.8139 -0.0837,-0.2576 -0.0804,-0.49544 0.15882,-0.73446 0.49009,-0.49009 0.74322,-0.94812 0.85358,-1.36972 0.11025,-0.42157 0.085,-0.82247 0,-1.19104 -0.085,-0.36858 -0.2215,-0.70116 -0.31765,-1.03222 -0.0961,-0.33107 -0.15653,-0.66365 -0.0794,-0.9727 0.19787,-0.79182 0.55742,-2.31731 0.91313,-3.45404 0.17786,-0.56835 0.35798,-1.04213 0.51611,-1.27042 0.0791,-0.1142 0.15161,-0.16309 0.21822,-0.13881 0.0666,0.023 0.12929,0.11977 0.17851,0.31765 0.0591,0.23659 0.19755,0.65836 0.41685,1.13148 0.2192,0.47316 0.51713,1.00321 0.87343,1.46895 0.35633,0.46574 0.78014,0.8774 1.2506,1.09181 0.23528,0.10731 0.47503,0.16014 0.73449,0.15883 0.25957,-0.001 0.53304,-0.0581 0.81387,-0.19853 1.08748,-0.54374 1.87231,-1.11016 2.50121,-1.64763 0.62886,-0.53747 1.09883,-1.05913 1.58803,-1.54836 0.2471,-0.2471 0.34324,-0.57167 0.37717,-0.95281 0.0338,-0.38114 0.007,-0.82004 -0.0197,-1.23075 -0.0263,-0.41074 -0.0469,-0.79576 0.0197,-1.13152 0.0666,-0.33573 0.22347,-0.61793 0.53597,-0.77416 0.29074,-0.14537 0.64044,-0.38098 0.95284,-0.65508 0.31239,-0.27401 0.58105,-0.5929 0.71464,-0.91314 0.13355,-0.32027 0.12666,-0.62922 -0.11912,-0.91313 -0.24545,-0.28385 -0.72314,-0.52973 -1.54836,-0.69476 -0.0131,-0.003 -1.90795,-0.5483 -3.41431,-1.27045 -0.7532,-0.36109 -1.40309,-0.76065 -1.68733,-1.17119 -0.14209,-0.20542 -0.19952,-0.41406 -0.11912,-0.61538 0.0804,-0.20148 0.3019,-0.38915 0.67493,-0.57567 0.4093,-0.20476 0.70309,-0.41783 0.91314,-0.61537 0.21001,-0.19754 0.33717,-0.3837 0.39699,-0.57567 0.11978,-0.38396 -0.0131,-0.76071 -0.19853,-1.13152 -0.18638,-0.37077 -0.43683,-0.74184 -0.53596,-1.11163 -0.0495,-0.18507 -0.0656,-0.36887 -0.0197,-0.55581 0.0459,-0.18705 0.1667,-0.36533 0.35729,-0.55582 0.10041,-0.10041 0.47876,-0.74411 0.87346,-1.4888 0.39466,-0.74473 0.79339,-1.6055 0.93296,-2.16374 0.14897,-0.59582 0.19688,-0.99868 0.11911,-1.31016 -0.0778,-0.31141 -0.27203,-0.52189 -0.57567,-0.71461 -0.60717,-0.38547 -1.66941,-0.70391 -3.1761,-1.60792 -0.75782,-0.45468 -1.52503,-0.91504 -2.28285,-1.36969 -0.2028,-0.40539 -0.20313,-0.84652 -0.11912,-1.33001 0.084,-0.48349 0.26284,-1.0083 0.45655,-1.52851 0.19361,-0.52021 0.38951,-1.03287 0.51611,-1.54836 0.12666,-0.51545 0.17687,-1.01949 0.0594,-1.48881 -0.20345,-0.81383 -0.75861,-2.02171 -1.21089,-3.21581 -0.2261,-0.59706 -0.41544,-1.20456 -0.53597,-1.74685 -0.12043,-0.54233 -0.15652,-1.02176 -0.0594,-1.40943 0.21953,-0.87825 0.4938,-1.35423 0.7742,-1.62774 0.28024,-0.27335 0.56661,-0.34475 0.79402,-0.41688 0.2274,-0.0722 0.39591,-0.14274 0.45655,-0.41688 0.0607,-0.274 0.001,-0.74834 -0.21822,-1.62774 -0.0617,-0.24677 -0.007,-0.49133 0.0991,-0.71464 0.10566,-0.22314 0.25924,-0.43867 0.4367,-0.65508 0.35469,-0.43279 0.76514,-0.86598 0.83375,-1.36969 0.25497,-1.87247 0.27204,-2.96244 0.11912,-3.57312 -0.0765,-0.30518 -0.20772,-0.49403 -0.35732,-0.59553 -0.14963,-0.10139 -0.33277,-0.1073 -0.53596,-0.0794 -0.40635,0.0558 -0.88478,0.28976 -1.38954,0.41688 -0.25235,0.0637 -0.5064,0.1096 -0.75434,0.0794 -0.24808,-0.0295 -0.49049,-0.1388 -0.71461,-0.33743 -0.70348,-0.62302 -2.38212,-1.58272 -3.89074,-2.48135 -0.75435,-0.44933 -1.46774,-0.89079 -2.00495,-1.2506 -0.53721,-0.35982 -0.89181,-0.64921 -0.93299,-0.81388 -0.31272,-1.25152 -0.56412,-1.99018 -0.81387,-2.42179 -0.12502,-0.21592 -0.24644,-0.35663 -0.37717,-0.43673 -0.13061,-0.0801 -0.2658,-0.10862 -0.41685,-0.0994 -0.30189,0.0197 -0.6619,0.17786 -1.13152,0.27794 -0.46957,0.10009 -1.05384,0.14833 -1.80641,-0.0397 -1.20903,-0.30223 -2.27065,-0.57702 -3.35475,-0.69479 -0.54207,-0.0587 -1.09746,-0.0742 -1.66748,-0.0397 -0.57003,0.0344 -1.16903,0.11846 -1.80642,0.27794 -0.57212,0.14307 -0.99543,0.16899 -1.34983,0.11911 -0.35443,-0.0499 -0.63402,-0.18638 -0.89328,-0.39702 -0.51858,-0.42144 -0.97244,-1.13122 -1.84613,-2.00492 -0.44021,-0.44021 -1.36929,-1.0247 -2.24315,-1.66748 -0.43693,-0.32125 -0.86148,-0.66157 -1.19104,-0.99251 -0.32953,-0.33097 -0.57678,-0.65958 -0.65508,-0.97269 -0.15029,-0.60064 -0.58099,-1.84406 -1.2109,-2.99746 -0.31502,-0.57672 -0.66364,-1.12788 -1.07192,-1.56822 -0.40828,-0.44034 -0.86598,-0.77233 -1.34987,-0.89328 -0.76626,-0.19164 -1.86276,-0.68498 -2.8982,-1.17119 -1.03543,-0.48622 -2.01249,-0.95475 -2.56076,-1.09181 -1.36952,-0.34236 -2.473,-0.67671 -3.53342,-1.09178 -1.06041,-0.41508 -2.06619,-0.92213 -3.27537,-1.6476 -0.97015,-0.5821 -2.34365,-1.01588 -3.63269,-1.54836 -0.64451,-0.26613 -1.27337,-0.55647 -1.82626,-0.89328 -0.5529,-0.33685 -1.02267,-0.72836 -1.3697,-1.19105 -0.4754,-0.63388 -0.99873,-1.42724 -1.64762,-2.06447 -0.32444,-0.31863 -0.66683,-0.5947 -1.07194,-0.79405 -0.4051,-0.19951 -0.85907,-0.31765 -1.3697,-0.31765 -0.84523,0 -1.55539,-0.0801 -2.16373,-0.19853 -0.60834,-0.11846 -1.11831,-0.28778 -1.60791,-0.49625 -0.97919,-0.41675 -1.84391,-0.98152 -3.05701,-1.58807 -1.17232,-0.58617 -1.96883,-1.04919 -2.6997,-1.52851 -0.73088,-0.47933 -1.39692,-0.9683 -2.30269,-1.64763 -0.74795,-0.56097 -1.79645,-1.02339 -2.87836,-1.62774 -0.54096,-0.30222 -1.09231,-0.6517 -1.60791,-1.05211 -0.51561,-0.4004 -1.01156,-0.85249 -1.42925,-1.40939 -0.45469,-0.60625 -0.89518,-1.21998 -1.34985,-1.82627 l 0.45657,-11.83105 c -0.30311,-0.15161 -0.73344,-0.21034 -1.0918,-0.31765 -0.35835,-0.1073 -0.65228,-0.24676 -0.73448,-0.57567 -0.12331,-0.49327 -0.4468,-0.90165 -0.85358,-1.2506 -0.40677,-0.34892 -0.889,-0.64363 -1.3697,-0.95281 -0.4807,-0.30911 -0.94519,-0.61855 -1.2903,-0.99254 -0.3451,-0.37403 -0.57567,-0.80646 -0.57567,-1.34987 0,-1.0229 -0.0131,-1.759 -0.0993,-2.30268 -0.086,-0.54367 -0.24267,-0.89823 -0.51612,-1.15133 -0.27344,-0.253 -0.66854,-0.40458 -1.23075,-0.55582 -0.56221,-0.15127 -1.29077,-0.29796 -2.24313,-0.53599 -0.28037,-0.0702 -0.73257,0.0328 -1.27045,0.19853 -0.53787,0.16735 -1.17287,0.39115 -1.78657,0.57566 -0.61369,0.18442 -1.21916,0.31568 -1.72701,0.29763 -0.25392,-0.01 -0.48153,-0.0577 -0.67493,-0.15882 -0.19341,-0.10107 -0.3464,-0.25595 -0.45656,-0.4764 -0.34877,-0.69755 -0.73599,-1.19256 -1.15134,-1.58807 -0.41537,-0.39549 -0.86153,-0.68521 -1.34986,-0.97266 -0.48832,-0.28746 -1.02038,-0.55956 -1.58806,-0.93299 -0.56767,-0.37347 -1.17286,-0.85525 -1.82626,-1.50866 -0.3102,-0.3101 -0.63562,-0.53012 -0.97269,-0.69479 -0.33708,-0.16473 -0.67713,-0.26054 -1.03224,-0.31764 -0.71022,-0.1142 -1.45434,-0.0489 -2.18358,0.0397 -0.72925,0.0886 -1.446579,0.19066 -2.124029,0.17852 -0.33873,-0.007 -0.66019,-0.0295 -0.97269,-0.11912 -0.31249,-0.0879 -0.61586,-0.22872 -0.89328,-0.43673 -0.52147,-0.39112 -1.83174,-0.98015 -3.09672,-1.568217 -0.63249,-0.29402 -1.26315,-0.57511 -1.76671,-0.85357 -0.50357,-0.2786 -0.88731,-0.55444 -1.05209,-0.77417 -0.25921,-0.34564 -0.35554,-0.81617 -0.39702,-1.34987 -0.0415,-0.53369 -0.0223,-1.12866 -0.0197,-1.66745 0.003,-0.5388 -0.0112,-1.02866 -0.13897,-1.38955 -0.064,-0.18045 -0.16867,-0.33506 -0.29776,-0.43672 -0.12909,-0.10166 -0.30012,-0.15879 -0.51612,-0.15879 -0.63882,0 -1.20553,0.12305 -1.70716,0.25805 -0.50164,0.13504 -0.93703,0.29189 -1.31015,0.37717 -0.37313,0.0853 -0.6797,0.0896 -0.93299,-0.0595 -0.25329,-0.14921 -0.4534,-0.44391 -0.59552,-1.01239 -0.16348,-0.65401 -0.31906,-1.24059 -0.53597,-1.74686 -0.2169,-0.50628 -0.49537,-0.94228 -0.85358,-1.2903 -0.35821,-0.34803 -0.80216,-0.61476 -1.38955,-0.79403 -0.58739,-0.17927 -1.31882,-0.27791 -2.22329,-0.27791 -0.54366,0 -1.2223,-0.0643 -1.96522,-0.19849 -0.74292,-0.13418 -1.54221,-0.32904 -2.28284,-0.59553 -0.74062,-0.26649 -1.42845,-0.59562 -1.96522,-0.99254 -0.26839,-0.19846 -0.4953,-0.42436 -0.67492,-0.65507 -0.17963,-0.23072 -0.31148,-0.47175 -0.37717,-0.73448 -0.20624,-0.82495 -0.46023,-1.41324 -0.75433,-1.86597 -0.29408,-0.45273 -0.63226,-0.76981 -1.01239,-1.05209 -0.38012,-0.28227 -0.80611,-0.52012 -1.27044,-0.83373 -0.46433,-0.31361 -0.96195,-0.70388 -1.50866,-1.25059 -0.45473,-0.45474 -1.35658,-1.75639 -2.26298,-2.97762 -0.4532,-0.61061 -0.91119,-1.1962 -1.31015,-1.64761 -0.39896,-0.45141 -0.73941,-0.77541 -0.97269,-0.83373 -0.50769,-0.12693 -0.92162,-0.17139 -1.2903,-0.15879 -0.36868,0.0125 -0.6903,0.0922 -1.03223,0.1985 -0.68389,0.21264 -1.42921,0.56076 -2.67986,0.87343 -0.47186,0.11797 -0.83174,0.15406 -1.11164,0.11912 -0.27991,-0.0349 -0.47579,-0.14938 -0.61537,-0.29776 -0.27916,-0.29678 -0.3296,-0.77663 -0.35731,-1.29031 -0.0276,-0.51367 -0.0489,-1.0542 -0.23821,-1.46895 -0.0947,-0.20739 -0.22415,-0.37284 -0.43671,-0.49627 -0.21257,-0.12341 -0.49135,-0.19849 -0.87343,-0.19849 -0.74367,0 -1.34259,-0.0847 -1.84612,-0.21835 -0.50354,-0.13366 -0.91212,-0.31827 -1.2903,-0.51612 -0.75636,-0.39572 -1.37901,-0.855909 -2.32254,-1.091794 -0.851237,-0.212803 -1.974557,-0.431438 -3.116568,-0.714626 -1.142012,-0.283191 -2.309166,-0.618613 -3.255519,-1.091792 -0.432876,-0.216446 -0.925366,-0.630052 -1.449105,-1.111641 -0.523743,-0.481589 -1.086368,-1.039285 -1.627761,-1.588059 -0.541397,-0.548777 -1.062535,-1.09066 -1.54836,-1.508657 -0.485825,-0.417997 -0.933264,-0.704775 -1.290298,-0.794031 -0.689686,-0.172408 -1.194502,-0.174935 -1.607911,-0.07941 -0.41341,0.09556 -0.727312,0.282666 -1.032237,0.496267 -0.304914,0.213623 -0.608431,0.453463 -0.972687,0.635224 -0.364257,0.18176 -0.798166,0.29776 -1.389553,0.29776 -0.969179,0 -1.579546,-0.174902 -2.004924,-0.436714 -0.425377,-0.261829 -0.653754,-0.612743 -0.833733,-0.913136 -0.179989,-0.300386 -0.322864,-0.559199 -0.555819,-0.674923 -0.232952,-0.115738 -0.566976,-0.07383 -1.151344,0.218349 -0.591292,0.295661 -1.018284,0.407864 -1.3697,0.416865 -0.351419,0.0089 -0.621327,-0.08745 -0.893286,-0.198496 -0.271968,-0.111045 -0.540356,-0.253067 -0.893282,-0.317614 -0.352922,-0.06455 -0.795242,-0.04929 -1.389553,0.09927 -0.649528,0.162367 -1.21252,0.273445 -1.727012,0.337463 -0.514496,0.06402 -0.981925,0.08194 -1.429255,0 -0.447331,-0.08194 -0.881958,-0.260483 -1.330001,-0.535969 -0.448042,-0.27548 -0.91262,-0.654562 -1.429252,-1.171194 -0.494403,-0.494403 -0.896721,-0.869278 -1.290298,-1.131494 -0.393579,-0.262223 -0.761432,-0.418936 -1.151343,-0.476417 -0.389915,-0.05749 -0.806888,-0.02067 -1.290298,0.09926 -0.483414,0.119807 -1.03309,0.325883 -1.707167,0.595522 -0.859309,0.343727 -4.5880765,1.390848 -5.4589525,1.826267 -0.696424,0.348214 -1.304008,1.030556 -1.945375,1.687313 -0.320666,0.328381 -0.659717,0.649696 -1.012387,0.913136 -0.352669,0.263436 -0.716329,0.471882 -1.131494,0.575672 -0.510679,0.127649 -1.201925,0.494337 -1.92552197,0.932985 -0.113342,0.06871 -0.222976,0.146124 -0.33746,0.218349 0.469976,0.254117 0.82078497,0.553876 1.23074597,0.794028 0.442342,0.259105 0.962134,0.456567 1.786564,0.456567 0.234757,0 0.41719,-0.11006 0.555823,-0.277908 0.138642,-0.16788 0.242336,-0.403588 0.337463,-0.655073 0.19026,-0.502971 0.342943,-1.077423 0.674923,-1.409403 0.116985,-0.116984 0.233051,-0.172671 0.357313,-0.15879 0.12427,0.01378 0.25123,0.08568 0.377166,0.198496 0.251886,0.225667 0.509373,0.621705 0.734479,1.052089 0.450215,0.860767 0.798418,1.874742 0.873433,2.024774 0.27036,0.540754 0.393944,1.20662 0.456564,1.885825 0.06264,0.67919 0.05953,1.37592 0.05953,2.02477 7e-6,1.30213 0,2.60846 0,3.9106 0,0.35547 -0.03052,0.62292 -0.119117,0.81388 -0.08873,0.19095 -0.221861,0.29464 -0.397016,0.35731 -0.350281,0.12535 -0.885922,0.0315 -1.568209,-0.13897 -0.537761,-0.13444 -0.802871,-0.10241 -0.893282,0.0397 -0.09041,0.14212 0.0098,0.39709 0.178643,0.69477 0.337641,0.59538 1.004764,1.39416 1.250595,1.88582 0.524898,1.04981 0.783931,1.2815 0.913136,1.52851 0.129191,0.247 0.119117,0.50076 0.119117,1.58806 0,0.87702 0.07328,1.56069 -0.01969,2.10418 -0.04656,0.27174 -0.137362,0.5029 -0.29776,0.71463 -0.160399,0.21172 -0.380041,0.40838 -0.714626,0.57567 -0.131423,0.0657 -0.265439,0.20719 -0.397016,0.29776 0.770457,0.94857 1.427132,2.04633 0.992537,2.89821 -1.060175,2.07816 -0.12988,4.3675 1.786568,4.60537 0.667829,0.0829 -2.159025,3.17393 -1.290298,4.7642 1.226858,2.245897 3.7332535,3.702547 3.1562685,4.903137 -1.3479535,2.80477 -2.1302695,3.27458 -1.2704485,6.57059 0.9387275,3.59853 3.0826645,8.15085 5.9552235,11.93029 0.741166,0.97518 1.531213,1.89498 2.36224,2.7394 1.852578,1.88239 3.541594,4.05908 3.771639,4.82373 0.230031,0.76465 1.539332,2.71247 2.898209,4.34733 1.358858,1.63486 2.461492,3.46658 2.461492,4.06939 -1.7e-5,0.6028 1.115638,2.15484 2.481344,3.45404 2.044462,1.9448 3.130561,2.44851 6.094177,2.81879 3.93797,0.49202 5.341013,0.80694 8.674775,4.44656 1.673676,1.82722 2.569623,3.10328 3.73194,2.6997 0.788439,-0.27368 3.039491,-1.55539 4.684771,-1.32998 3.59685,0.49274 5.65377,1.898 7.76164,0.99254 3.21795,-1.38232 4.42166,0.42801 5.77657,1.6873 1.0614,0.98648 2.30269,2.83346 3.61284,3.51357 1.31016,0.68012 3.31507,0.52081 3.31507,0.81391 1e-5,0.90083 4.68085,7.14626 5.51851,7.14626 0.43346,0 1.43961,0.69304 2.24313,1.54836 0.80352,0.85528 2.27527,2.05601 3.31508,1.96521 1.10974,-0.0968 3.85994,0.21986 4.50611,3.21584 0.19492,0.90372 1.4938,-0.1306 2.00493,0.4367 1.08241,1.20128 0.24283,2.21873 1.19104,3.97015 2.13019,3.93472 1.75127,3.93521 4.50612,6.88821 1.30163,1.39525 2.35701,1.66745 3.45403,1.66745 0.927539,3e-5 2.991899,0.14963 5.439109,1.19107 l 3.73194,2.60044 4.40686,-0.81387 c 2.93465,-3.48831 4.41988,-0.97851 5.49866,-0.41688 0.55175,-0.61899 1.70514,-2.82512 3.17612,-4.40686 1.18308,-1.27219 7.4788,-1.85944 7.22567,0.59553 -0.27893,2.70541 2.22413,1.3093 2.6203,4.6252 0.17654,1.47755 2.58993,2.75007 3.83119,2.75926 1.74155,0.0131 2.69676,4.25735 1.64761,6.15374 -0.52713,0.95281 0.33193,-0.49767 4.00985,3.11655 2.07502,2.03904 2.10956,5.61325 3.8709,5.18105 3.99625,-0.98064 4.00642,2.22254 5.37955,0.0991 0.55106,-0.8521 1.6067,-3.89987 2.20343,-4.08927 0.59675,-0.18934 2.53198,-1.1563 3.15627,-1.84613 0.62429,-0.68979 3.74983,-1.727 4.34731,-1.727 0.59749,0 -0.0522,-0.5778 0.85358,-1.29028 0.90578,-0.7125 3.5242,-0.91494 5.53837,-1.60792 2.01413,-0.69298 6.07036,-2.71561 6.41176,-3.05702 0.7282,-0.72816 0.15883,-0.30189 1.56822,1.09178 1.88603,1.86535 4.56909,0.78683 7.46387,3.7121 l 4.00986,4.88329 2.87838,1.56822 1.01237,7.74178 c -0.2238,1.7968 -0.89315,3.05702 -1.19105,5.67731 -0.29795,2.62028 -1.33451,5.32901 -1.727,6.31253 -1.18373,2.96606 -1.53468,3.29667 1.19104,5.91551 1.49291,1.4344 3.60742,1.41733 3.37463,1.86598 -0.22346,0.43049 0.5846,4.08927 0.0794,4.9627 -0.23365,0.40421 -0.84991,0.466 -1.4491,0.53596 z" />
  </g>
</svg>
