<?xml version="1.0" encoding="UTF-8" standalone="no"?>
<!-- Created with Inkscape (http://www.inkscape.org/) -->

<svg
   width="210mm"
   height="297mm"
   viewBox="0 0 210 297"
   version="1.1"
   id="svg64"
   inkscape:version="1.1.2 (b8e25be833, 2022-02-05)"
   sodipodi:docname="vector.svg"
   xmlns:inkscape="http://www.inkscape.org/namespaces/inkscape"
   xmlns:sodipodi="http://sodipodi.sourceforge.net/DTD/sodipodi-0.dtd"
   xmlns="http://www.w3.org/2000/svg"
   xmlns:svg="http://www.w3.org/2000/svg">
  <sodipodi:namedview
     id="namedview66"
     pagecolor="#ffffff"
     bordercolor="#666666"
     borderopacity="1.0"
     inkscape:pageshadow="2"
     inkscape:pageopacity="0.0"
     inkscape:pagecheckerboard="0"
     inkscape:document-units="mm"
     showgrid="false"
     inkscape:zoom="0.74029882"
     inkscape:cx="361.34057"
     inkscape:cy="453.87078"
     inkscape:window-width="1920"
     inkscape:window-height="1017"
     inkscape:window-x="-8"
     inkscape:window-y="-8"
     inkscape:window-maximized="1"
     inkscape:current-layer="layer1" />
  <defs
     id="defs61" />
  <g
     inkscape:label="Capa 1"
     inkscape:groupmode="layer"
     id="layer1">
    <path
       style="fill:#000000;fill-opacity:1;fill-rule:evenodd;stroke:#d39062;stroke-width:1.65924;stroke-linecap:butt;stroke-linejoin:miter;stroke-miterlimit:4;stroke-dasharray:none;stroke-opacity:1"
       d="m 1.5707571,192.09714 c 0.21322,0.67101 0.64216,1.35832 0.56816,1.98983 -0.12918,1.11626 -0.60453,2.1614 -0.94694,3.12678 -0.34240004,0.96576 -0.50545004,1.87156 -0.18939,2.65294 0.31607,0.78138 1.09243,1.51987 2.93728,2.08465 1.9004,0.84159 3.38979,1.90918 4.64276,3.22148 1.25298,1.3123 2.3066499,2.79304 3.3162999,4.26387 1.00966,1.4707 1.95647,2.94617 3.12679,4.26374 1.17019,1.31756 2.52864,2.55837 4.26374,3.41099 1.34403,0.0753 2.45966,-0.66975 3.50581,-1.70549 1.04603,-1.03599 2.05204,-2.42819 3.12679,-3.69533 1.07487,-1.26702 2.26589,-2.42016 3.69533,-3.03197 1.42944,-0.61206 3.10082,-0.64592 5.21131,0.28471 1.20907,-1.18022 2.61945,-2.11161 4.07435,-2.74776 1.45478,-0.63589 2.97314,-0.95446 4.45326,-0.94694 1.48011,0.007 2.88371,0.29224 4.16904,1.04226 1.28546,0.75003 2.44537,1.91308 3.3163,3.50569 2.0913,0.12542 3.96386,0.96074 5.68503,2.08453 1.7213,1.12504 3.31605,2.53228 4.92711,3.79014 1.61092,1.25787 3.16641,2.41125 4.9271,2.93727 1.76055,0.52553 3.70435,0.40763 5.87454,-0.66348 2.3148,-0.88298 3.7327,-2.37689 5.11649,-3.97954 1.38379,-1.60277 2.71064,-3.30814 4.73759,-4.54807 1.3493,-0.82528 3.28281,-1.44035 5.40082,-1.70562 2.11802,-0.26464 4.38791,-0.14048 6.34827,0.4741 3.05116,0.67853 5.76179,0.35745 8.053893,-0.66349 2.29222,-1.02094 4.24091,-2.7909 5.87454,-5.11662 2.60616,0.45905 4.76293,0.2358 6.72742,-0.56816 1.96437,-0.80396 3.75114,-2.14009 5.306,-3.6952 3.10961,-3.11048 5.56965,-7.19098 8.43292,-10.23323 0.8466,-0.58447 1.62623,-0.7425 2.36873,-0.66349 0.7425,0.0753 1.42668,0.41515 2.08452,0.85288 1.31569,0.87545 2.50269,2.07775 3.60051,2.55837 2.20568,-1.09244 3.52689,-2.2911 4.35856,-3.69533 0.83155,-1.40423 1.17145,-2.95972 1.32647,-4.64277 0.15553,-1.68317 0.20193,-3.4712 0.37878,-5.40082 0.17684,-1.92963 0.52552,-4.01528 1.42129,-6.15888 3.55059,-4.89675 7.68276,-15.68096 8.2434,-15.82344 0.98958,-0.25085 2.03373,-0.40512 3.12678,-0.28471 1.09244,0.12542 2.24683,0.45904 3.50569,1.32647 1.73698,0.0878 4.61555,0.17308 7.10645,-0.18939 1.24544,-0.18186 2.44662,-0.51674 3.3163,-0.94694 0.86918,-0.4302 1.39846,-0.93565 1.51598,-1.7055 0.78765,-5.16616 2.98217,-9.76289 3.41099,-15.25503 0.6961,-1.71076 1.28019,-4.11009 2.08453,-6.34826 0.80396,-2.23829 1.75215,-4.3997 3.12678,-5.59034 0.91308,-0.0878 2.37463,0.94318 4.35856,1.89501 1.98406,0.95196 4.54231,1.83694 7.67487,1.7055 1.33223,-0.0502 2.17169,0.33237 2.74775,0.94694 0.57569,0.61457 0.85539,1.44976 1.13759,2.36873 0.28094,0.91935 0.5945,1.89137 1.04226,2.74789 0.44776,0.85663 1.00965,1.6572 2.08452,2.08439 2.01003,0.35244 3.93928,0.27092 5.68503,-0.10033 1.74576,-0.36624 3.30639,-1.05105 4.92711,-2.08453 0.37125,-0.62586 0.38755,-1.26739 0.10033,-1.9897 -0.29349,-0.72244 -0.81399,-1.55299 -1.51598,-2.27404 -1.40411,-1.44223 -3.41651,-2.74926 -4.9271,-3.60063 0.35244,-1.18525 0.2383,-2.25937 0,-3.22148 -0.2383,-0.96199 -0.56691,-1.8308 -0.85288,-2.65307 -0.28596,-0.82277 -0.49165,-1.60277 -0.2847,-2.36873 0.2082,-0.76633 0.84033,-1.48086 2.08452,-2.27404 l 0.85287,-9.47505 H 191.83674 L 184.162,101.69954 V 78.485443 c -6.00335,-0.0251 -12.00244,-0.0376 -18.00278,0 -2.29348,-0.70613 -3.88948,-0.46155 -5.0218,0.28471 -1.13256,0.74627 -1.79178,2.003 -2.46355,3.411 -0.67226,1.40812 -1.36246,2.89023 -2.27404,4.16904 -0.91182,1.27881 -2.12779,2.29474 -3.97953,2.65307 -7.39366,4.675 -9.59031,4.59021 -11.84391,6.25357 -2.50331,0.21949 -4.20379,1.36372 -5.49552,2.84258 -1.29172,1.47886 -2.22763,3.311277 -3.12678,5.116487 -0.89928,1.80533 -1.80082,3.53842 -3.12679,4.73759 -1.32597,1.19904 -3.01854,1.85525 -5.59033,1.51598 0.66223,1.98092 0.55186,3.26149 0,4.07435 -0.55186,0.81274 -1.61645,1.17647 -2.84258,1.42129 -1.22538,0.24458 -2.62058,0.38756 -3.97954,0.66349 -1.35883,0.27593 -2.64955,0.70362 -3.6005,1.6108 -3.21358,1.0523 -5.67688,2.09619 -8.52761,4.07423 -1.7573,1.21911 -2.93025,3.32884 -4.16905,5.21131 0.51298,2.10584 -5.208173,6.69606 -7.011633,9.38036 -8.8685,7.13654 -14.67081,17.45418 -25.10898,22.92976 -8.97248,1.51711 -4.76643,11.61489 -10.42262,14.02325 -8.00171,7.55107 -19.18966,8.53614 -28.04637,14.49685 -7.66408,10.38123 -16.92842,11.10617 -27.3830199,4.45338 -0.34993,0.14549 -0.22953,0.14173 -0.56817,0.28471 z"
       id="Coinco" />
  </g>
</svg>
