<?xml version="1.0" encoding="UTF-8" standalone="no"?>
<!-- Created with Inkscape (http://www.inkscape.org/) -->

<svg
   width="210mm"
   height="297mm"
   viewBox="0 0 210 297"
   version="1.1"
   id="svg1283"
   inkscape:version="1.1.2 (b8e25be833, 2022-02-05)"
   sodipodi:docname="vector.svg"
   xmlns:inkscape="http://www.inkscape.org/namespaces/inkscape"
   xmlns:sodipodi="http://sodipodi.sourceforge.net/DTD/sodipodi-0.dtd"
   xmlns="http://www.w3.org/2000/svg"
   xmlns:svg="http://www.w3.org/2000/svg">
  <sodipodi:namedview
     id="namedview1285"
     pagecolor="#ffffff"
     bordercolor="#666666"
     borderopacity="1.0"
     inkscape:pageshadow="2"
     inkscape:pageopacity="0.0"
     inkscape:pagecheckerboard="0"
     inkscape:document-units="mm"
     showgrid="false"
     inkscape:zoom="0.74029882"
     inkscape:cx="361.34057"
     inkscape:cy="561.93525"
     inkscape:window-width="1920"
     inkscape:window-height="1017"
     inkscape:window-x="-8"
     inkscape:window-y="-8"
     inkscape:window-maximized="1"
     inkscape:current-layer="layer1" />
  <defs
     id="defs1280" />
  <g
     inkscape:label="Capa 1"
     inkscape:groupmode="layer"
     id="layer1">
    <path
       d="m 193.42867,85.702283 c -7.67159,0.24598 -15.34322,0.49174 -23.01481,0.73764 -1.82163,3.13038 3.0831,0.52054 1.52153,3.00274 -0.54937,0.69027 -0.61392,3.04815 -1.17728,4.1771 1.21117,1.37867 0.75605,3.83928 3.04897,4.52426 1.75335,0.86205 2.2256,2.634437 1.86869,4.180067 1.3169,0.68835 4.68192,0.52992 3.78667,1.96631 1.61996,2.02561 -0.11525,4.32806 -0.39359,6.29309 2.02612,2.89073 -3.16536,1.34269 -4.52426,2.31366 -0.33755,2.11435 -3.59789,1.65076 -5.65535,1.86868 -1.75553,-0.59141 -3.60181,-0.92459 -4.52426,-2.65557 -2.30181,0.85194 -3.14013,-2.74673 -4.18007,-2.26213 -1.94326,0.52559 -1.80304,3.85021 -4.86851,3.39322 0.14031,2.59235 -2.56164,1.89155 -3.76571,3.76275 -1.04299,1.4214 -3.56586,1.5802 -4.93861,3.07284 -1.02117,1.28274 -3.68258,1.75968 -4.91767,2.60638 -1.15659,2.0335 -3.69801,1.03388 -5.60911,1.47825 -2.75898,0.74534 -0.58887,3.62253 -1.57072,5.20829 -1.8256,0.22276 -1.72069,3.35008 -3.4908,3.54227 -2.16478,0.80757 -3.11389,2.57472 -4.03325,3.78662 -2.57517,-0.28835 -4.10011,0.73045 -6.04879,1.47529 -0.81509,1.65277 -0.96833,3.32357 -2.26213,4.91771 -0.81003,1.90991 -3.76608,1.57468 -6.0488,1.86873 -1.49287,0.49526 -4.06755,0.27514 -5.26487,1.87165 -2.10784,1.44618 -2.8387,-1.53592 -4.9639,-0.34712 -1.90085,2.3276 -5.584196,0.80366 -8.239816,1.52062 -6.18718,0.37809 -12.37437,0.75664 -18.5616,1.13491 -5.54972,10.56842 -11.20221,21.0829 -16.6218,31.71914 -5.33123,-0.041 -10.45739,0.92801 -15.62115,1.4239 -2.27203,1.03311 -1.81263,2.53509 -5.52492,1.62507 -0.65671,1.36209 -5.96669,1.93356 -6.13076,-0.12254 -1.46561,0.30658 -3.17812,2.31238 -6.311,1.99141 -3.235,0.0478 -3.4795,0.75573 -6.53745,0.39358 -0.90215,-1.07401 -4.937539,2.22501 -5.953496,0 -2.807104,0.87449 -2.122229,-0.28789 -4.9176937,1.13109 0.70394,-2.83136 -1.344593,-5.67694 -3.393202,-4.08244 0.50765,1.88267 -3.67267198,1.26419 -2.262141,3.44237 -0.01184,1.98339 -2.70270098,2.42294 -1.86871498,4.37754 -0.601956,3.11434 2.00149798,3.14559 0.3442,5.80208 -0.08988,2.82193 2.66121998,2.11531 4.52196798,2.5088 1.114298,-0.22048 2.955608,2.20341 4.136127,3.39614 1.6785937,0.7166 2.8789687,1.79594 3.0952057,3.93043 0.872847,-0.056 2.166114,2.62961 1.521531,3.59365 0.260883,2.72728 2.783606,-0.80711 3.837976,-0.69141 1.57896,-0.78183 1.31056,-3.41094 2.90221,-4.18006 -0.0631,-2.34536 2.48895,-2.71406 2.65555,-4.76861 1.24878,-0.51234 3.00469,0.77677 4.76862,0.63775 1.577,1.82053 3.26515,-0.26467 4.3291,1.52453 2.03966,1.67431 2.89184,-0.77354 5.21045,0 1.20638,-1.16503 1.55896,-1.68866 3.44471,-2.65558 1.13451,1.08923 4.35646,0.62964 5.65533,-0.39358 0.88886,1.10226 1.22567,4.37449 2.65555,2.26213 1.39818,-0.13028 3.17823,2.51204 3.78664,0.39358 2.04696,-1.57559 3.48163,0.48683 4.52427,0.39359 1.161,1.81461 2.09645,-0.41226 3.00274,-2.2651 1.75525,-0.52955 1.45669,-3.32867 3.04604,-3.7837 0.89979,-1.2135 2.83254,-2.1657 4.13087,-3.04897 1.20397,-1.82145 2.53923,-1.89502 3.39613,-3.34699 1.24771,-1.68597 5.26624,-0.91995 7.7166,-1.53947 5.14889,-1.95378 1.37685,2.61653 5.7537,2.6287 4.27012,-0.13575 3.92683,2.26395 4.30492,4.49898 2.34404,0.74643 3.90092,-0.33117 6.02347,0.41453 1.81435,-0.83321 3.46506,-2.16259 3.44238,-4.67103 -0.2346,-2.60392 1.928446,-2.85565 3.393216,-4.03329 0.29063,-2.1027 3.48492,-0.36489 4.52426,0.39358 2.09336,0.20954 2.41123,2.54839 4.52431,2.65557 1.62179,0.70234 1.43616,3.73701 4.13086,2.26213 0.30157,3.50838 2.75448,-0.53816 3.78662,1.86874 2.25316,-0.19224 3.64914,-0.87677 4.18002,-3.14655 2.82494,0.66303 2.92061,-2.34777 4.91771,-1.77116 -0.34302,1.99259 2.51928,3.49253 1.86873,4.57346 0.54163,1.69563 4.73304,1.43511 5.241,1.10717 1.81006,0.94187 1.40304,3.21958 1.93884,4.15474 -1.32232,1.57523 -3.15557,0.99283 -4.52431,1.13109 -1.3026,-2.72801 -2.73652,2.66756 0,1.13104 1.08385,1.3891 1.59551,3.292 3.4908,3.78667 1.79188,0.48099 3.05366,-0.32662 5.3111,0.39358 2.96507,0.99124 2.62096,0.92919 4.03329,-1.13105 -0.0364,-1.37265 1.33836,-2.24837 1.52449,-4.52198 -1.47511,-3.76744 -2.41929,2.81314 -3.04897,1.37539 -0.54947,-1.59801 -1.49142,-4.63838 -1.13109,-5.55773 0.61383,-1.43188 1.97892,-3.75414 3.88424,-1.86874 1.05046,-0.44687 4.90887,1.26588 2.9022,2.26214 -1.38651,1.35867 0.99798,3.62285 -0.73765,5.35952 -1.08016,2.70118 -0.62458,2.72437 1.86869,3.68905 1.70679,0.93393 4.38123,1.11082 4.57346,-1.37544 1.62147,-1.14958 2.01924,-1.88795 3.39322,-3.14887 -2.30919,-2.12734 1.91812,-1.69595 2.26213,-3.04893 1.08363,0.27423 3.14045,-1.26319 4.47803,-2.21594 1.60093,-1.3533 -1.09109,-3.12099 0.78393,-4.9639 1.55378,-1.06503 1.35649,-3.92401 3.39317,-4.13086 -0.68061,-2.45592 1.17118,-2.73329 3.37232,-2.63166 2.05185,-0.42456 -0.53649,-3.54783 2.67643,-3.41714 1.22338,0.68494 2.59408,2.62323 3.04898,3.39322 0.55511,1.5295 1.3005,3.89517 2.95358,3.83286 2.83328,-1.03698 2.28705,2.77702 4.5705,2.60934 2.10388,-3.20846 3.08606,2.58187 5.25963,1.47528 1.68056,1.33371 3.92173,1.5679 6.05399,0.43959 0.28836,-1.76136 5.46335,-0.68803 3.87737,-2.8704 -2.44713,-0.12026 -3.45436,-3.55849 -1.22475,-5.09327 -0.37081,-2.92926 2.39875,-4.01206 3.29437,-6.60619 0.4687,-2.21234 -0.27423,-5.18032 -1.37644,-6.229 -1.4168,0.58859 -1.77116,-6.12055 1.13104,-4.18007 1.10531,-3.85021 5.34773,1.59993 5.26196,-0.58854 -1.50417,-2.33019 -1.06039,-4.61742 -2.26218,-7.08227 -0.18176,-2.5027 -2.18957,-4.65345 -3.48405,-7.08495 -1.76697,-1.89383 -1.78811,-7.24671 1.61536,-4.12813 3.02401,1.6759 3.71064,-2.48302 3.78662,-4.62189 0.81472,-3.14882 -1.3077,-5.45332 -1.52449,-8.4085 -0.57679,-2.84717 2.38886,-3.74535 2.99983,-5.85355 -1.99888,-1.73522 -0.52956,-6.09973 -3.98182,-6.0488 -2.21038,-0.88378 -3.27433,-3.9943 -4.38815,-5.76072 -1.50476,-1.83634 -5.3065,-2.86612 -3.24517,-5.78103 2.01947,0.34119 5.53983,-0.1854 6.35318,-2.42449 -1.15245,-2.65717 0.61839,-4.31963 -0.69788,-6.98236 -1.99623,-2.07254 1.27167,-6.105417 -2.22701,-6.702897 -1.97532,-1.27449 -5.48402,-3.0876 -5.14064,-5.75607 0.17219,-1.66447 -2.96561,-2.642 -2.90093,-4.70452 z"
       style="fill:#000000;fill-opacity:1;stroke:#d39062;stroke-width:0.602634;stroke-miterlimit:4;stroke-dasharray:none;stroke-opacity:1"
       id="Puerto_Varas" />
  </g>
</svg>
