<?xml version="1.0" encoding="UTF-8" standalone="no"?>
<!-- Created with Inkscape (http://www.inkscape.org/) -->

<svg
   width="210mm"
   height="297mm"
   viewBox="0 0 210 297"
   version="1.1"
   id="svg64"
   inkscape:version="1.1.2 (b8e25be833, 2022-02-05)"
   sodipodi:docname="vector.svg"
   xmlns:inkscape="http://www.inkscape.org/namespaces/inkscape"
   xmlns:sodipodi="http://sodipodi.sourceforge.net/DTD/sodipodi-0.dtd"
   xmlns="http://www.w3.org/2000/svg"
   xmlns:svg="http://www.w3.org/2000/svg">
  <sodipodi:namedview
     id="namedview66"
     pagecolor="#ffffff"
     bordercolor="#666666"
     borderopacity="1.0"
     inkscape:pageshadow="2"
     inkscape:pageopacity="0.0"
     inkscape:pagecheckerboard="0"
     inkscape:document-units="mm"
     showgrid="false"
     inkscape:zoom="0.74029882"
     inkscape:cx="361.34057"
     inkscape:cy="345.8063"
     inkscape:window-width="1920"
     inkscape:window-height="1017"
     inkscape:window-x="-8"
     inkscape:window-y="-8"
     inkscape:window-maximized="1"
     inkscape:current-layer="layer1" />
  <defs
     id="defs61" />
  <g
     inkscape:label="Capa 1"
     inkscape:groupmode="layer"
     id="layer1">
    <path
       inkscape:label="#path1949"
       sodipodi:nodetypes="cccccccccccccsccccccssscccccsccccccccc"
       d="m 10.23982,165.61416 0.986973,-13.20013 c -3.5304428,-2.65219 -13.1905468,-8.08555 -8.9262178,-12.42021 5.020139,-0.96818 11.3027098,1.58682 14.2416108,-4.32877 4.192679,-2.51593 6.509799,-7.53067 11.601889,-8.5594 5.77781,2.0557 7.54058,-2.88112 8.15651,-7.53356 1.50636,-1.58495 3.50342,-3.03081 5.54872,-3.90507 l 4.89961,3.06223 c 3.12646,-1.60306 8.29782,1.43252 9.5535,-3.43149 1.81022,-3.67815 6.76294,-6.37509 9.15401,-9.5959 0.50003,-1.47465 0.70196,-3.9956 -0.33396,-5.3461 l 12.24897,0.13364 v -3.195932 c 4.96088,0.187951 30.190465,-2.252469 37.115145,-0.285732 3.61588,1.02697 6.98247,2.91281 9.9175,6.167984 8.65264,-4.368663 7.50805,8.81574 12.39255,11.26708 10.14945,0.95471 20.72344,-1.55275 28.52193,7.37951 5.57079,0.91066 14.11984,-5.97178 19.19873,-2.54082 l 8.538,5.76773 c 1.39736,8.3247 1.28275,17.52984 -1.90254,25.85197 -1.63573,4.64272 2.73262,11.71184 -2.63683,13.69931 -6.18897,2.2907 6.41213,11.96944 15.02032,12.92394 8.60829,0.9546 3.89743,10.32344 4.09384,6.45884 0.19689,-3.86471 -0.35574,4.51844 -2.44679,4.16812 -4.30415,0.64014 -4.59958,2.08925 -6.57554,5.18217 -4.24023,-0.2064 -6.54967,3.80716 -10.80502,3.65526 -3.83455,0.1227 -8.59259,0.40044 -10.95124,-3.30094 -2.21274,2.47076 -5.73919,4.02583 -9.37852,3.33994 -4.06217,0.38808 -8.63148,-0.84179 -12.37307,0.90837 -3.74159,1.74949 -1.23939,-1.46747 -5.53108,2.30801 -2.58971,-2.95262 -12.83106,-1.4707 -18.18919,-1.76366 -8.90863,2.98392 -13.30248,-6.68293 -20.62324,-7.97024 -8.11504,3.6875 -14.870385,-1.12172 -20.016055,-6.8823 -7.19918,-0.0761 -17.71315,-1.28189 -20.52902,-8.40521 4.58771,-8.31257 -11.53417,-6.05782 -13.33054,-13.80016 -5.69017,-8.63049 -9.09099,7.71247 -15.84907,1.65713 -6.48042,-4.13481 -15.55813,-0.64965 -23.015157,-1.83256 3.905827,5.63458 -6.710142,2.74092 -7.776718,4.36714 z"
       style="fill:#000000;fill-opacity:1;fill-rule:evenodd;stroke:#d38d5f;stroke-width:2.51664;stroke-linecap:butt;stroke-linejoin:miter;stroke-miterlimit:4;stroke-opacity:1"
       id="Quillota" />
  </g>
</svg>
