<?xml version="1.0" encoding="UTF-8" standalone="no"?>
<!-- Created with Inkscape (http://www.inkscape.org/) -->

<svg
   width="210mm"
   height="297mm"
   viewBox="0 0 210 297"
   version="1.1"
   id="svg64"
   inkscape:version="1.1.2 (b8e25be833, 2022-02-05)"
   sodipodi:docname="vector.svg"
   xmlns:inkscape="http://www.inkscape.org/namespaces/inkscape"
   xmlns:sodipodi="http://sodipodi.sourceforge.net/DTD/sodipodi-0.dtd"
   xmlns="http://www.w3.org/2000/svg"
   xmlns:svg="http://www.w3.org/2000/svg">
  <sodipodi:namedview
     id="namedview66"
     pagecolor="#ffffff"
     bordercolor="#666666"
     borderopacity="1.0"
     inkscape:pageshadow="2"
     inkscape:pageopacity="0.0"
     inkscape:pagecheckerboard="0"
     inkscape:document-units="mm"
     showgrid="false"
     inkscape:zoom="0.74029882"
     inkscape:cx="361.34057"
     inkscape:cy="561.93525"
     inkscape:window-width="1920"
     inkscape:window-height="1017"
     inkscape:window-x="-8"
     inkscape:window-y="-8"
     inkscape:window-maximized="1"
     inkscape:current-layer="layer1" />
  <defs
     id="defs61" />
  <g
     inkscape:label="Capa 1"
     inkscape:groupmode="layer"
     id="layer1">
    <path
       id="Chanaral"
       style="fill:#000000;fill-opacity:1;fill-rule:evenodd;stroke:#d38d5f;stroke-width:2.06148;stroke-linecap:butt;stroke-linejoin:miter;stroke-miterlimit:4;stroke-opacity:1"
       d="M 208.96878,15.56668 C 197.86996,8.6519795 192.2182,3.5529295 189.67816,-0.50885047 179.82817,1.7108095 168.42019,3.1515595 163.95728,8.0647495 L 152.16858,16.63836 123.23256,12.35159 107.15703,9.1364895 C 108.28405,-5.8404705 96.540736,0.63311953 90.009816,-1.5805305 90.182106,27.60817 73.264096,14.0698 63.217196,17.7101 c -8.21557,9.91416 -17.01093,19.10374 -36.43783,15.00385 -4.94351,12.58826 -10.44268,26.93344 -18.2189497,20.3623 -7.20987,10.66882 -1.59545,11.71937 -0.10625,15.86386 5.6747497,2.14192 8.7484697,7.88769 1.8707497,11.1385 -1.5014397,4.84687 7.11881,8.79927 1.40113,13.24176 -1.4698,6.46374 8.15975,10.54635 4.52108,17.37689 -2.75994,2.71977 -9.4152497,7.88654 -2.00271,9.63387 6.10686,-0.25453 9.51946,3.82718 9.24488,9.83324 2.42946,8.07163 -11.59528,2.29902 -9.88241,9.96363 2.22368,5.44862 -7.7054897,2.05896 -6.1091997,8.6409 -5.31433,4.58267 5.8535897,8.76259 1.09203,14.42425 -3.28761,4.16767 -4.92082,9.55188 -5.1834,14.82676 0.0913,5.39201 3.03194,9.77904 6.47179,13.61948 3.1550597,4.56807 0.8227897,10.74199 -5.0374,10.19468 -0.84056,4.50715 2.59245,12.97894 -4.40846004,13.30803 1.70789004,0.78894 3.41968004,1.57594 8.59792004,0.62973 2.3790997,1.1074 1.9848697,3.34248 1.9274797,5.29626 2.25436,1.33612 5.86301,-0.51387 7.64492,2.17974 0.92184,2.87843 2.91956,6.28023 6.50175,5.52581 3.40011,-0.94735 6.1179,1.77855 7.12157,4.7579 2.29133,2.92142 6.57084,1.82135 9.82357,1.95234 3.73455,-0.35119 6.1858,2.95474 9.16005,4.6089 2.9455,2.51146 6.54377,4.68826 10.57979,3.91271 3.02408,0.6367 7.99568,-1.06849 9.32454,2.56316 1.83911,3.33834 3.39428,4.89309 7.66533,4.54935 6.14366,0.76438 17.18317,18.6645 25.774784,27.99672 3.08933,1.39975 3.00673,3.25261 13.77615,3.55517 5.70333,6.36967 5.1343,10.64864 5.77711,15.3315 l 22.66408,-19.55326 c 10.99935,-13.1816 11.56923,9.34344 23.77496,-8.22128 l 5.81535,-0.63663 c 1.4132,-6.62421 3.99268,-13.83157 -3.94507,-15.7803 l -10.62133,0.60692 c -6.68935,-4.70868 1.3073,-15.29165 6.06934,-24.58088 3.37213,-2.88529 2.88156,-6.32244 0.60691,-10.01442 3.69811,-8.32561 18.79237,-20.13688 -2.42772,-33.98838 l 0.30376,-6.3728 -11.53177,-11.2283 1.82081,-9.10404 -15.47684,-3.03464 -11.22831,-5.46243 5.76589,-29.43633 c 6.85064,-27.49605 20.69331,-9.29512 20.33234,-26.40168 7.75148,-3.32706 15.71793,-5.84813 20.33229,-20.93927 l 9.4075,0.60698 c 1.99616,-10.54239 -2.72734,-23.00464 9.4075,-30.65022 l 0.30376,-12.13868 13.35257,-9.71096 0.13627,-6.39411"
       sodipodi:nodetypes="ccccccccccccccccccccccccccccccccccccccccccccccccccccccccc"
       inkscape:label="#path9920" />
  </g>
</svg>
