<?xml version="1.0" encoding="UTF-8" standalone="no"?>
<!-- Created with Inkscape (http://www.inkscape.org/) -->

<svg
   width="210mm"
   height="297mm"
   viewBox="0 0 210 297"
   version="1.1"
   id="svg1283"
   inkscape:version="1.1.2 (b8e25be833, 2022-02-05)"
   sodipodi:docname="vector.svg"
   xmlns:inkscape="http://www.inkscape.org/namespaces/inkscape"
   xmlns:sodipodi="http://sodipodi.sourceforge.net/DTD/sodipodi-0.dtd"
   xmlns="http://www.w3.org/2000/svg"
   xmlns:svg="http://www.w3.org/2000/svg">
  <sodipodi:namedview
     id="namedview1285"
     pagecolor="#ffffff"
     bordercolor="#666666"
     borderopacity="1.0"
     inkscape:pageshadow="2"
     inkscape:pageopacity="0.0"
     inkscape:pagecheckerboard="0"
     inkscape:document-units="mm"
     showgrid="false"
     inkscape:zoom="0.52347032"
     inkscape:cx="155.69173"
     inkscape:cy="611.30496"
     inkscape:window-width="1920"
     inkscape:window-height="1017"
     inkscape:window-x="-8"
     inkscape:window-y="-8"
     inkscape:window-maximized="1"
     inkscape:current-layer="layer1" />
  <defs
     id="defs1280" />
  <g
     inkscape:label="Capa 1"
     inkscape:groupmode="layer"
     id="layer1">
    <path
       d="m 12.374798,109.76422 c -0.96717,1.31519 -3.4437196,0.89325 -3.5785296,2.71276 -0.51363,2.50238 -1.50566,3.66498 -4.4735,3.05907 -2.35335,-0.61347 -5.45003,0.22247 -1.52853,1.09732 1.01091,1.4454 2.57644,2.66821 3.33466,4.21275 0.88846,1.76836 1.62969,3.27944 2.20563,4.89374 0.50684,1.96614 1.30822,3.41814 1.7892596,4.89374 0.95476,3.01156 -0.6147096,2.19509 -1.3275196,4.00719 0.20119,2.02488 1.17,2.81432 1.3275196,4.86911 0.37014,1.3848 1.05751,4.97179 0.47407,5.75105 0.25177,2.50231 -1.6113096,3.3391 -3.1621896,3.52084 -1.46227,-0.79336 -0.66481,3.57994 -1.7562,4.43198 -0.38907,1.38882 -1.36872,3.00102 -2.64272,3.59087 -1.17997,0.47051 -4.21617,-0.19248 -2.20560998,2.18096 0.16950998,2.11442 1.21570998,3.25886 0.46173998,5.31009 -0.90293998,0.53404 0.40259,4.34358 2.04935,2.34956 1.49059,-3.24065 5.92557,-0.55934 3.66476,2.10706 0.38298,2.16111 1.43515,4.81533 3.9750996,5.52158 1.86623,1.08583 3.5856,1.562 5.77931,1.98181 2.27002,-0.0617 3.62133,1.78031 5.77182,1.78926 1.89188,-1.23343 2.06662,-4.79122 4.89375,-3.11678 1.81998,1.63462 3.89402,0.16516 6.22967,0.46174 2.63598,0.46459 4.29088,-1.89966 6.19207,-3.11677 2.72366,1.53842 5.4119,-3.84133 5.62788,0.31776 1.6227,1.90489 0.58533,3.64124 1.87551,5.45405 2.40246,-0.29859 4.51059,1.89867 4.90605,3.98257 0.5565,3.11609 2.9741,1.67601 5.31009,1.78925 1.90813,1.78863 4.22685,1.36844 6.06778,-0.33822 2.94045,-0.0672 6.50737,-0.48253 9.30408,0.20433 0.6002,2.83388 3.58939,3.10055 5.9262,2.32719 1.81298,1.58374 5.42706,-0.65942 6.63761,0.46171 2.35464,0.47823 4.09156,-2.40256 6.17585,-1.32751 1.84197,1.46032 4.31606,3.63707 6.03325,0.60433 3.651422,-0.71373 -0.0551,-2.26257 1.05376,-3.25937 1.602272,-1.12483 4.404342,0.0302 4.456652,-2.19329 1.14616,-1.1169 2.85145,-1.43704 3.98257,-2.25102 2.01622,-0.97945 4.09449,0.38262 6.22126,1.32754 2.37482,-1.21955 4.43762,-0.39928 7.09543,-0.40404 1.78459,0.4015 3.87325,1.32757 5.77575,0 2.45051,1.03437 3.88771,-2.00144 5.72644,-0.9235 0.15065,1.4822 2.20671,2.82798 3.8859,1.92315 1.43696,-1.30924 3.67318,-1.1531 2.75168,-3.28375 1.08791,-1.39578 2.50422,-1.7714 3.98258,-2.62197 1.14526,1.07792 2.15816,-0.44709 2.71275,-1.32752 -3.15839,-1.50167 0.64892,-2.24374 2.65504,-1.78926 -2.24333,-1.59948 0.60887,-2.29906 1.73155,-2.65503 2.60682,0.31576 1.75574,-3.02362 4.30034,-2.97284 1.37266,-0.111 1.018,3.03576 3.26075,2.56882 0.77145,-2.55642 2.53064,1.34628 3.11679,-0.91119 0.14315,-2.35647 2.64481,-0.15621 3.52082,-1.80158 1.58664,-0.99714 3.01052,-2.76613 4.43198,-1.73156 1.62678,1.30128 1.71407,1.96164 3.00558,0.10809 1.99678,-0.27886 -0.60982,-3.23582 2.31684,-3.22489 0.38685,-1.84078 3.54482,-0.91049 4.89374,-1.78925 1.75315,0.16878 1.92965,1.76393 2.19327,2.25101 2.12859,1.79397 1.3302,-2.4956 3.12913,-2.65503 -1.24653,1.76082 0.61991,3.98572 2.65504,2.65503 1.576,0.66646 2.01218,2.16157 3.11677,3.05908 1.46131,2.07969 4.21911,0.12985 5.60464,-1.72619 4.7694,-5.17719 9.53878,-10.35441 14.30818,-15.53158 -2.82108,0.27617 -5.22009,-0.66655 -7.52413,-0.86578 -2.09367,-0.42438 -3.43253,-2.00178 -4.87297,-2.71275 -0.95242,-0.90399 -2.10526,-3.06481 -3.42506,-0.52756 -0.32286,2.66582 -3.16992,1.68958 -4.54009,2.77855 -2.1401,-0.26353 -2.38327,-1.72798 -3.8868,-1.66574 -1.25243,1.46939 -3.82114,0.0684 -6.19768,1.06005 -1.35438,2.25622 -2.96337,0.47388 -4.58826,1.93323 -0.14581,2.41458 -1.07042,-1.60045 -1.32754,-2.70044 -0.83048,-0.33559 -2.20602,-1.8921 -3.98255,-2.20563 -1.06269,-1.67263 -2.21192,-0.22827 -2.65506,1.32754 -2.03946,-0.25023 -2.04985,1.52865 -3.11677,2.25099 -0.5174,0.96178 -1.75444,1.94588 -2.65504,2.65506 0.84332,3.10724 -2.09775,-0.53682 -3.98257,0.86578 -3.08207,-0.87519 -2.75539,-4.18725 -5.31009,-1.32752 -0.56722,1.37677 -2.18846,1.94288 -3.97024,2.65503 -2.51365,0.88943 -4.88507,-4.31109 -1.61073,-4.68438 -0.2487,-0.95839 -0.3232,-6.98898 -1.9224,-3.7425 -1.40134,0.96992 -3.11263,1.33003 -4.7621,2.10706 -2.10605,0.11365 -3.54671,-0.55094 -4.58826,1.00973 -0.85688,0.58422 -3.54035,2.8274 -2.97284,0.14388 -1.23261,-1.98781 -3.48172,-2.19777 -4.99228,-3.24841 -0.12889,-2.93982 -2.45704,-1.94051 -3.98258,-0.89042 -0.31861,3.97614 -3.09305,-0.54676 -2.25101,-2.68422 -1.45483,2.54752 -3.47386,-0.84005 -4.88141,-2.1518 -2.70016,-0.005 0.47791,-4.62894 0.28197,-6.64318 0.57725,-3.6575 -1.33037,0.0194 -3.36569,-0.45615 -1.73944,1.09441 -3.2045,2.16182 -4.44431,1.3275 -1.54205,0.18184 -4.57221,-0.32814 -3.98255,-2.67581 0.0457,-2.63907 -2.06509,-3.14059 -3.98258,-3.55776 -0.965522,0.52422 -3.322792,-0.11414 -5.767932,-0.40404 -2.26028,-1.24303 0.386,1.17089 -0.86965,2.65506 -0.38666,1.1634 1.79629,2.90327 0.86575,3.52081 -1.01188,1.27424 -4.86845,0.84358 -5.31009,2.6427 -1.77097,-0.88089 -4.4358,-0.57101 -5.31007,0.47409 -1.16743,2.11926 -2.34268,-1.04827 -2.65503,-2.25101 0.87802,-1.5237 -1.8706,0.2082 -3.52081,0 -2.37328,-0.17169 -1.33311,-2.61995 -2.71276,-3.98258 -0.71128,-0.71585 -1.93093,-1.55136 -3.55391,-0.86575 -2.29967,-0.88713 -2.9476,-0.83447 -3.98258,0.46174 -1.90452,0.95239 -3.6386,1.07088 -5.32237,-0.46174 -2.75113,-0.55994 -3.61802,1.1234 -4.25498,2.97282 -1.54224,0.87284 -3.90959,0.70872 -4.12652,2.33725 -1.77323,0.74407 -1.69911,2.46963 -2.65504,3.98257 -1.42726,2.52586 -1.48082,2.06473 -3.11679,1.32752 -1.57651,-3.38202 -1.24095,0.77727 -3.5662,-0.40404 -0.8003,-1.33492 -3.2297,0.0907 -4.39893,-1.32752 -2.10496,-1.13257 0.67615,-1.57963 0.86578,-2.71276 1.33639,-1.95811 0.79457,-4.18813 -1.76461,-4.38659 -1.1577,-1.55513 -1.6404,-2.76329 -1.35218,-5.36781 -0.94162,-2.10617 -2.3158,-1.21283 -3.50848,-1.32752 -1.4965,-0.88004 -2.90959,-0.89641 -3.99489,-2.18096 -0.87603,-0.97068 -2.8531,-2.06327 -3.11679,-3.53315 -1.6552,-0.96284 -2.75345,-2.2933 -3.98258,-3.11677 -1.69395,-1.09313 -5.00168,1.15242 -5.75949,-1.32754 -1.15927,-1.39837 -2.89105,-0.48783 -4.86067,-0.92347 z"
       style="fill:#000000;fill-opacity:1;stroke:#d39062;stroke-width:0.319896;stroke-miterlimit:4;stroke-dasharray:none;stroke-opacity:1"
       id="La_Union" />
  </g>
</svg>
