<?xml version="1.0" encoding="UTF-8" standalone="no"?>
<!-- Created with Inkscape (http://www.inkscape.org/) -->

<svg
   width="210mm"
   height="297mm"
   viewBox="0 0 210 297"
   version="1.1"
   id="svg57"
   inkscape:version="1.1.2 (b8e25be833, 2022-02-05)"
   sodipodi:docname="vector.svg"
   xmlns:inkscape="http://www.inkscape.org/namespaces/inkscape"
   xmlns:sodipodi="http://sodipodi.sourceforge.net/DTD/sodipodi-0.dtd"
   xmlns="http://www.w3.org/2000/svg"
   xmlns:svg="http://www.w3.org/2000/svg">
  <sodipodi:namedview
     id="namedview59"
     pagecolor="#ffffff"
     bordercolor="#666666"
     borderopacity="1.0"
     inkscape:pageshadow="2"
     inkscape:pageopacity="0.0"
     inkscape:pagecheckerboard="0"
     inkscape:document-units="mm"
     showgrid="false"
     inkscape:zoom="0.74029882"
     inkscape:cx="361.34057"
     inkscape:cy="453.87078"
     inkscape:window-width="1920"
     inkscape:window-height="1017"
     inkscape:window-x="-8"
     inkscape:window-y="-8"
     inkscape:window-maximized="1"
     inkscape:current-layer="layer1" />
  <defs
     id="defs54" />
  <g
     inkscape:label="Capa 1"
     inkscape:groupmode="layer"
     id="layer1">
    <path
       inkscape:connector-curvature="0"
       id="Los_Alamos"
       style="fill:#000000;fill-opacity:1;fill-rule:evenodd;stroke:#d39062;stroke-width:0.621491;stroke-linecap:butt;stroke-linejoin:miter;stroke-miterlimit:4;stroke-dasharray:none;stroke-opacity:1"
       d="m 206.76554,134.44749 c -0.16978,-0.18043 -0.27945,-0.31848 -0.46611,-0.5047 -0.72597,-0.72596 -2.05308,-1.5876 -2.91324,-2.40828 -0.43008,-0.41031 -0.72086,-0.81445 -0.77687,-1.16529 -0.0559,-0.35059 0.1482,-0.65746 0.73803,-0.89343 0.51028,-0.20419 0.9037,-0.45269 1.24298,-0.77682 0.33929,-0.32426 0.61,-0.71396 0.77686,-1.16529 0.3337,-0.90281 0.32535,-2.07799 -0.0385,-3.53474 -0.16059,-0.64229 -0.16123,-1.28986 -0.0777,-1.90333 0.0835,-0.61321 0.23244,-1.17653 0.38841,-1.70909 0.15596,-0.53231 0.33177,-1.03764 0.38841,-1.43723 0.0565,-0.39939 0.0199,-0.71781 -0.19424,-0.93221 -1.12348,-1.12349 -1.59518,-2.16749 -1.78679,-3.02977 -0.1916,-0.86235 -0.13163,-1.53663 -0.23308,-1.94218 -0.0972,-0.38848 -0.83557,-1.76008 -1.94216,-3.22395 -0.55331,-0.73201 -1.22247,-1.47576 -1.90331,-2.13642 -0.68085,-0.6606 -1.37235,-1.22995 -2.09754,-1.59255 -1.3457,-0.67287 -2.33071,-1.54896 -3.10745,-2.36944 -0.77675,-0.82048 -1.37775,-1.61079 -1.90332,-2.13635 -0.62734,-0.62734 -1.41512,-1.0745 -2.21406,-1.709094 -0.79894,-0.63441 -1.59553,-1.44314 -2.25291,-2.75791 -0.57462,-1.14918 -1.2877,-3.66971 -2.36944,-5.63224 -0.54084,-0.98127 -1.18466,-1.82153 -1.94215,-2.29174 -0.37872,-0.23501 -0.76,-0.3705 -1.20414,-0.38847 -0.44415,-0.0193 -0.92018,0.0912 -1.4372,0.34994 -0.62252,0.10402 -0.96922,0.003 -1.35951,0 -0.39028,-0.002 -0.82817,0.10338 -1.63142,0.5047 -1.24528,0.62284 -2.10169,1.12375 -3.02977,1.28184 -0.92807,0.15795 -1.94281,-0.0578 -3.45704,-0.81574 -0.98498,-0.49249 -1.80852,-1.10981 -2.56365,-1.74794 -0.75513,-0.63812 -1.45333,-1.26319 -2.13637,-1.82562 -0.68305,-0.56242 -1.36763,-1.0553 -2.13638,-1.32067 -0.76875,-0.26539 -1.59027,-0.33075 -2.6025,-0.0777 -1.11652,0.27913 -2.43159,0.26269 -3.80663,0.23309 -1.37503,-0.0295 -2.80766,-0.0652 -4.15622,0.27186 -0.78882,0.1972 -2.77041,0.99477 -4.73887,1.59258 -0.98423,0.2989 -1.95856,0.56043 -2.79671,0.66033 -0.83814,0.0999 -1.54411,0.0263 -1.94216,-0.27187 -1.08732,-0.8155 -2.09332,-1.51531 -3.26282,-2.09753 -1.16952,-0.5822 -2.49299,-1.01911 -4.19507,-1.35951 -1.25272,-0.25055 -2.78419,-0.0825 -4.35044,0 -0.78313,0.0411 -1.58979,0.0616 -2.36943,0 -0.77965,-0.0617 -1.53129,-0.21633 -2.25291,-0.50496 -1.30601,-0.52241 -2.35688,-0.90398 -3.22398,-1.12645 -0.86711,-0.22249 -1.55589,-0.27495 -2.17522,-0.19424 -0.61931,0.0808 -1.14643,0.31187 -1.7091,0.69918 -0.56268,0.38732 -1.16733,0.89544 -1.86447,1.59257 -0.51722,0.51722 -1.02589,0.68318 -1.55373,0.58265 -0.52788,-0.10056 -1.0536,-0.44582 -1.59257,-0.93224 -1.07795,-0.97288 -2.17614,-2.48689 -3.30168,-3.61241 -0.42128,-0.42129 -1.15114,-1.54886 -2.01984,-2.56365 -0.43432,-0.5074 -0.89602,-0.96646 -1.39836,-1.32067 -0.50232,-0.35419 -1.01262,-0.58265 -1.55373,-0.58265 -2.04127,0 -3.32881,-0.21343 -4.5058,-0.62149 -1.177,-0.40806 -2.24815,-1.00755 -3.962011,-1.86447 -1.41461,-0.70731 -2.67338,-1.4795 -3.88432,-2.36944 -1.21094,-0.88994 -2.36451,-1.89839 -3.57357,-3.10745 -0.75466,-0.75466 -1.61592,-1.76002 -2.52481,-2.68019 -0.90889,-0.92016 -1.86618,-1.78763 -2.95208,-2.33058 -1.1452,-0.57257 -2.09289,-1.0386 -3.1463,-1.43721 -1.05342,-0.398615 -2.2347,-0.72659 -3.84548,-1.04876 -1.45532,-0.291067 -3.88203,-1.480171 -6.2926,-2.447125 -1.20527,-0.483441 -2.4301,-0.908419 -3.49588,-1.126447 -1.06579,-0.218059 -1.96726,-0.220499 -2.64134,0.116478 -0.33191,0.165985 -0.64994,0.376146 -1.00992,0.466105 -0.36696,0.09176 -2.33671,0.25787 -4.03969,0.621495 -0.8515,0.181844 -1.65328,0.430596 -2.13638,0.738024 -0.24156,0.15372 -0.40446,0.312641 -0.46611,0.504952 -0.0616,0.192311 -0.0212,0.385778 0.15539,0.621495 0.38661,0.515483 1.25355,2.752283 1.7091,4.544653 0.22776,0.89619 0.35271,1.68509 0.27187,2.09753 -0.0405,0.20625 -0.11359,0.32581 -0.27187,0.31072 -0.15828,-0.0148 -0.39586,-0.16284 -0.69917,-0.46611 -0.34,-0.33999 -1.91371,-1.63838 -3.49589,-2.83555 -1.58218,-1.19718 -3.15615,-2.286819 -3.45705,-2.13638 -0.43271,0.21639 -0.75028,0.67955 -0.97108,1.24298 -0.22082,0.56345 -0.35206,1.21252 -0.50495,1.82563 -0.15289,0.61309 -0.31476,1.18832 -0.5438,1.55373 -0.229039,0.36543 -0.521904,0.52929 -0.971083,0.34957 -0.689044,-0.2756 -1.851494,-0.09 -2.757865,0.31071 -0.453199,0.2004 -0.853006,0.44607 -1.087606,0.73803 -0.234626,0.29196 -0.32131,0.60036 -0.15539,0.93223 0.728078,1.45617 1.529824,1.99867 2.058689,2.52481 0.264419,0.26307 0.457436,0.52132 0.5438,0.89339 0.08636,0.3721 0.06036,0.88378 -0.116479,1.59257 -0.329143,1.31669 -0.728366,1.93048 -1.281823,2.48597 -0.553432,0.55548 -1.233429,1.03919 -2.175225,1.981 -0.04752,0.0475 -1.023716,1.3434 -1.864471,2.71902 -0.420387,0.68782 -0.815918,1.38867 -1.048765,1.981 -0.232828,0.59235 -0.289526,1.06995 -0.0777,1.28183 0.77377,0.77378 1.640363,1.99791 1.82563,3.10746 0.09259,0.55478 0.0062,1.05879 -0.349562,1.47601 -0.356241,0.41737 -0.974673,0.76135 -1.981001,0.89343 -2.348555,0.30821 -4.494615,0.47259 -5.904167,0.11622 -0.704782,-0.17786 -1.230468,-0.46745 -1.514882,-0.97112 -0.284453,-0.50367 -0.298515,-1.20035 -0.03853,-2.13635 0.117442,-0.42341 -0.207143,-0.80086 -0.738017,-1.04877 -0.530894,-0.24791 -1.302237,-0.38436 -2.097536,-0.38841 -0.795294,-0.004 -1.616028,0.15803 -2.291748,0.46611 -0.675721,0.30808 -1.187344,0.78741 -1.359512,1.47604 -0.142163,0.56852 0.03211,1.05397 0.38841,1.5149 0.35624,0.46103 0.882266,0.89157 1.398353,1.28177 0.516061,0.3904 1.022117,0.73117 1.359512,1.08767 0.337363,0.35637 0.529417,0.72795 0.349563,1.0876 -0.289205,0.57854 -1.032719,1.38271 -1.631412,2.13635 -0.5987,0.75364 -1.049388,1.43601 -0.854554,1.82564 0.351746,0.70349 0.555037,1.31991 0.621495,1.82563 0.06639,0.50598 -0.0077,0.9037 -0.194237,1.12645 -0.18711,0.22281 -0.523317,0.3005 -0.932236,0.15539 -0.408893,-0.14512 -0.916003,-0.48864 -1.514889,-1.0876 -0.821536,-0.82158 -1.834369,-1.63936 -2.757865,-2.44713 -0.923497,-0.80784 -1.7513,-1.63814 -2.21406,-2.56368 -0.861225,-1.72238 -3.330072,-6.32103 -4.466966,-7.45787 -0.742127,-0.74212 -2.226779,-1.75591 -3.53473,-2.3306 -0.653985,-0.28734 -1.265001,-0.45493 -1.709101,-0.42726 -0.44408,0.0276 -0.738024,0.2521 -0.738024,0.77686 0,1.21801 -0.165984,-0.23668 1.009924,4.46698 0.207529,0.83012 0.764896,1.6185 1.437201,2.48592 0.672304,0.86748 1.431787,1.81485 2.019841,2.99093 0.439522,0.8791 0.664015,2.15003 1.087613,3.3794 0.21183,0.6145 0.469893,1.21525 0.854547,1.74794 0.384685,0.53295 0.878292,1.02179 1.55373,1.359474 0.752638,0.37628 1.423671,0.80257 1.981,1.32069 0.557348,0.51817 1.004633,1.11058 1.39836,1.74794 0.78744,1.27464 1.269328,2.77306 1.592571,4.38931 0.170222,0.85104 0.13587,1.32074 0,1.59255 -0.13587,0.27161 -0.378008,0.35123 -0.504952,0.427 -0.253953,0.15218 -0.156225,0.31014 1.514882,1.98102 0.277454,0.27739 1.176198,1.02776 2.058689,1.90334 0.882498,0.87551 1.72812,1.86281 1.903318,2.56361 0.113846,0.45525 0.417691,0.81001 0.776866,1.12644 0.35913,0.31656 0.802074,0.58432 1.242982,0.85458 0.440935,0.27033 0.883834,0.53809 1.242983,0.85452 0.35913,0.31655 0.624192,0.67113 0.738018,1.12644 0.239698,0.95892 0.409021,2.05949 0.194237,3.10748 -0.107425,0.52395 -0.307569,1.02749 -0.660336,1.51492 -0.352773,0.48736 -0.828978,0.94794 -1.514882,1.35946 -1.499684,0.89985 -2.745801,1.55095 -3.806637,2.33059 -1.06083,0.77971 -1.951432,1.68881 -2.680177,3.14632 -0.289012,0.5779 -0.482222,1.18816 -0.582647,1.78679 -0.100426,0.59845 -0.09593,1.17666 0.03853,1.74794 0.134778,0.57148 0.398941,1.13544 0.815706,1.6314 0.416727,0.49571 0.963667,0.94801 1.709101,1.32069 1.55251,0.77624 2.414338,1.44275 2.952083,2.21404 0.537764,0.77137 0.769564,1.6411 1.048765,2.75791 0.102929,0.41159 0.251705,1.09274 0.310715,2.01981 0.05907,0.92708 0.02825,2.10078 -0.310715,3.45704 -0.330107,1.32043 -1.005397,2.2563 -1.320671,3.14632 -0.157638,0.44498 -0.223903,0.90325 -0.116479,1.35953 0.107425,0.4559 0.385585,0.92932 0.932236,1.47601 0.392455,0.39233 0.66946,0.73932 0.815706,1.0876 0.146272,0.34866 0.181395,0.69219 0.116478,1.0876 -0.129705,0.79095 -0.673434,1.7742 -1.437194,3.30171 -0.551698,1.1034 -0.685956,2.23408 -0.738024,3.34049 -0.05201,1.10642 0.0025,2.1648 -0.233085,3.10748 -0.536351,2.14534 -1.514882,5.81774 -1.514882,7.96282 0,0.77342 0.153527,1.71031 0.233084,2.60252 0.07956,0.89214 0.08501,1.77209 -0.233084,2.40828 -0.790099,1.58016 -1.359898,2.28751 -2.019848,2.87439 -0.659944,0.58689 -1.396523,1.04689 -2.447118,2.09751 -0.953271,0.95333 -1.299726,1.61419 -1.67026,2.21411 -0.370559,0.59972 -0.776255,1.11829 -1.82563,1.74794 -0.756863,0.45397 -1.969417,1.18147 -2.952083,1.98096 -0.49134,0.40003 -0.921769,0.81625 -1.204136,1.24299 -0.282398,0.427 -0.414287,0.86768 -0.310715,1.28184 0.251256,1.00489 0.297039,1.81459 0.194237,2.719 -0.102801,0.90447 -0.361377,1.87276 -0.699176,3.22401 -0.788404,3.15358 -1.142205,6.16133 -1.476042,7.49672 -0.258833,1.03552 -0.579822,2.12967 -1.165301,2.99093 -0.292736,0.43085 -0.66397,0.7905 -1.126447,1.04875 -0.462445,0.25813 -1.018181,0.427 -1.7090998,0.427 -2.125815,0 -3.124316,0.244 -3.845478,0.62156 -0.721169,0.37756 -1.172878,0.87776 -2.136377,1.35947 -0.72569,0.36279 -1.867977,0.65906 -3.18514305,1.00997 5.84292305,8.38295 11.53740985,16.9805 16.89678785,26.25797 0.909531,-0.45461 1.8095,-0.90473 2.719024,-1.35953 1.557532,-0.77875 2.226844,-0.94435 2.602495,-1.32062 0.375633,-0.37628 0.468738,-0.98165 0.893395,-2.68022 0.192118,-0.76834 1.019941,-1.49334 1.942159,-2.0975 0.922219,-0.60422 1.92533,-1.09865 2.524807,-1.39838 1.568845,-0.7844 2.362212,-0.99597 3.418201,-1.04875 1.055989,-0.0514 2.379331,0.0777 5.049613,0.0777 0.521134,0 1.45213,-0.77765 2.291748,-1.67025 0.839624,-0.89265 1.606087,-1.91854 1.7091,-2.33065 0.252733,-1.01087 0.436568,-1.98083 0.5438,-2.91323 0.107296,-0.93241 0.106269,-1.82802 -0.07769,-2.56361 -0.136768,-0.54708 -0.06492,-1.11952 0.116478,-1.7091 0.181331,-0.58945 0.505402,-1.19643 0.854547,-1.74794 0.698297,-1.10307 1.552498,-2.01865 2.019848,-2.48598 1.389891,-1.3899 2.252175,-3.0283 2.990925,-4.50579 0.741774,-1.48358 1.291237,-2.10476 1.55373,-2.68021 0.262493,-0.57533 0.259411,-1.09877 -0.03853,-2.29174 -0.257099,-1.0284 -0.214913,-1.70518 -0.310715,-2.40829 -0.0958,-0.7031 -0.351103,-1.42624 -1.204142,-2.56367 -0.297038,-0.39618 -0.39085,-0.85798 -0.349562,-1.35947 0.04109,-0.50148 0.239634,-1.03713 0.466105,-1.55376 0.453006,-1.03322 1.122799,-2.01249 1.398353,-2.56361 0.614945,-1.22989 0.548102,-1.86821 0.427257,-2.56368 -0.120844,-0.69546 -0.327281,-1.44878 0.03853,-2.91323 0.216582,-0.86627 0.779164,-1.81119 1.437194,-2.68015 0.658037,-0.86903 1.422606,-1.65568 2.058692,-2.29181 1.18582,-1.18584 1.79863,-1.71076 2.05868,-2.1752 0.26006,-0.46424 0.15706,-0.88662 -0.0777,-1.82564 -0.22679,-0.9071 -0.34443,-1.78531 -0.34956,-2.68015 -0.005,-0.89484 0.10216,-1.80708 0.34956,-2.79669 0.36748,-1.47004 0.81192,-2.53998 1.43719,-3.4571 0.62529,-0.91706 1.4496,-1.68925 2.56366,-2.52476 1.2788,-0.95912 1.83692,-1.59519 2.17522,-2.36944 0.33826,-0.77425 0.46071,-1.68752 0.8157,-3.10747 0.39149,-1.5661 0.45712,-2.93411 0.58265,-4.23392 0.12553,-1.29982 0.29351,-2.52913 0.89339,-3.72897 0.33872,-0.67742 0.87331,-1.24453 1.51489,-1.74794 0.64159,-0.50341 1.38825,-0.92605 2.21406,-1.28177 1.65163,-0.71152 3.56688,-1.15772 5.24383,-1.43723 0.52608,-0.0873 0.99181,-0.40517 1.39836,-0.77688 0.40651,-0.37178 0.77366,-0.81439 1.0876,-1.12645 0.31393,-0.31206 0.56743,-0.47965 0.81572,-0.38847 0.24823,0.0912 0.48967,0.44369 0.69917,1.28183 0.25851,1.03411 0.53385,1.67166 0.81571,2.01981 0.28182,0.34802 0.56916,0.4071 0.8157,0.27161 0.49301,-0.27032 0.85456,-1.3045 0.85456,-2.29174 0,-0.8723 0.60692,-1.75558 1.28182,-2.60252 0.67493,-0.84694 1.42182,-1.65124 1.7091,-2.36944 0.0871,-0.21767 0.30019,-0.33903 0.46611,-0.50469 0.0161,-0.0385 0.0651,1.71295 0.69917,3.14632 0.31701,0.71665 0.7844,1.35767 1.47604,1.67025 0.34584,0.15603 0.73716,0.23565 1.20414,0.19455 0.467,-0.0385 1.02492,-0.20162 1.63142,-0.50533 0.61199,-0.30565 1.26544,-0.16759 1.94216,0.11622 0.67671,0.28381 1.35607,0.68859 2.01985,0.85458 2.04726,0.51176 2.89516,0.87275 2.7967,0.66034 -0.0984,-0.21254 -1.14325,-0.98795 -2.7967,-2.64137 -0.62914,-0.62926 -0.84255,-1.26386 -0.77687,-1.90333 0.0656,-0.63954 0.401,-1.267 0.85455,-1.82557 0.90708,-1.11727 2.29635,-2.0062 2.91324,-2.25296 0.86715,-0.34674 1.61546,-0.50213 2.29175,-0.54386 0.67628,-0.0385 1.286,0.0385 1.90332,0.19455 1.23464,0.31014 2.482511,0.91199 4.272741,1.35954 1.17179,0.2928 2.39678,1.152 3.45705,2.13635 1.06027,0.98435 1.96374,2.08748 2.5248,2.83554 0.74842,0.99789 1.68971,1.73927 2.71903,2.29174 1.02933,0.55221 2.11576,0.92714 3.22399,1.20414 2.74218,0.68558 5.47907,0.85509 7.96285,1.47607 0.85567,0.21383 1.54939,0.77535 2.17521,1.43717 0.62587,0.66182 1.20197,1.43504 1.82563,2.05872 0.94158,0.94158 2.19187,1.44885 3.45705,1.90333 1.26518,0.45461 2.52859,0.86703 3.49589,1.59255 0.51644,0.38719 2.52007,2.47269 4.50581,3.96199 0.0823,0.0642 0.95714,0.80783 2.25291,1.59255 1.29575,0.78478 2.9957,1.61926 4.70002,1.90333 0.84385,0.14062 1.55862,0.39875 2.17522,0.73804 0.61661,0.33903 1.14114,0.75094 1.67026,1.16529 0.52909,0.41416 1.05002,0.83847 1.63141,1.20414 0.58143,0.36601 1.20758,0.70003 1.981,0.89337 0.82905,0.2074 1.52795,0.21189 2.09754,0.11622 0.56961,-0.095 1.03933,-0.29922 1.43719,-0.58239 0.79573,-0.56698 1.30701,-1.42355 1.94216,-2.05866 0.54913,-0.549 1.09092,-0.75897 1.55373,-0.85458 0.46283,-0.0957 0.86835,-0.0578 1.24298,-0.0385 0.37461,0.0193 0.68653,0.0128 0.97108,-0.19392 0.28458,-0.20612 0.54547,-0.62798 0.73803,-1.39838 0.34237,-1.36961 0.94466,-2.05339 1.59257,-2.68021 0.6479,-0.6267 1.35255,-1.19021 1.90331,-2.29175 0.14223,-0.28445 -0.004,-0.59459 -0.19423,-0.93221 -0.19,-0.33774 -0.44845,-0.69341 -0.58265,-1.04875 -0.1342,-0.35572 -0.15417,-0.71081 0.15539,-1.04875 0.30956,-0.33775 0.9562,-0.64692 2.09753,-0.93227 1.80711,-0.45205 2.82271,-0.65791 3.69011,-0.89337 0.8674,-0.23565 1.60165,-0.52909 2.7967,-1.12644 1.17998,-0.5901 1.73135,-0.89484 2.40828,-0.97112 0.67693,-0.0764 1.48017,0.10787 3.06861,0.50469 1.21984,0.305 2.70149,0.27033 4.19507,0.19456 1.49358,-0.0764 2.96496,-0.19456 4.23391,-0.19456 1.01067,6e-5 1.75281,-0.16695 2.29174,-0.38847 0.53892,-0.22153 0.87857,-0.50341 1.20415,-0.85458 0.65116,-0.70266 1.13798,-1.57888 2.48596,-2.2529 0.98546,-0.49249 2.01209,-0.72879 3.1463,-0.85451 1.13421,-0.12585 2.39816,-0.15539 3.84547,-0.15539 0.55633,0 1.06395,-0.24208 1.51489,-0.62156 0.45095,-0.37948 0.82794,-0.8985 1.1653,-1.47601 0.6747,-1.15508 1.11066,-2.52361 1.28182,-3.3794 0.15912,-0.79538 0.66191,-1.3194 1.35951,-1.7091 0.6976,-0.38976 1.58232,-0.64788 2.52481,-0.81567 0.48864,-0.0873 0.82612,-0.16823 1.32067,-0.23308 -0.55639,-1.09338 -1.18664,-2.01345 -1.98101,-2.48598 -5.15596,-3.06702 -4.17797,-4.5158 -0.77686,-5.20498 z" />
  </g>
</svg>
