<?xml version="1.0" encoding="UTF-8" standalone="no"?>
<!-- Created with Inkscape (http://www.inkscape.org/) -->

<svg
   width="210mm"
   height="297mm"
   viewBox="0 0 210 297"
   version="1.1"
   id="svg64"
   inkscape:version="1.1.2 (b8e25be833, 2022-02-05)"
   sodipodi:docname="vector.svg"
   xmlns:inkscape="http://www.inkscape.org/namespaces/inkscape"
   xmlns:sodipodi="http://sodipodi.sourceforge.net/DTD/sodipodi-0.dtd"
   xmlns="http://www.w3.org/2000/svg"
   xmlns:svg="http://www.w3.org/2000/svg">
  <sodipodi:namedview
     id="namedview66"
     pagecolor="#ffffff"
     bordercolor="#666666"
     borderopacity="1.0"
     inkscape:pageshadow="2"
     inkscape:pageopacity="0.0"
     inkscape:pagecheckerboard="0"
     inkscape:document-units="mm"
     showgrid="false"
     inkscape:zoom="0.74029882"
     inkscape:cx="361.34057"
     inkscape:cy="561.93525"
     inkscape:window-width="1920"
     inkscape:window-height="1017"
     inkscape:window-x="-8"
     inkscape:window-y="-8"
     inkscape:window-maximized="1"
     inkscape:current-layer="layer1" />
  <defs
     id="defs61" />
  <g
     inkscape:label="Capa 1"
     inkscape:groupmode="layer"
     id="layer1">
    <path
       id="Vallenar"
       style="fill:#000000;fill-opacity:1;fill-rule:evenodd;stroke:#d38d5f;stroke-width:1.49549;stroke-linecap:butt;stroke-linejoin:miter;stroke-miterlimit:4;stroke-opacity:1"
       d="m 62.311642,74.100376 c 2.35529,1.52249 5.97656,10.14298 -0.25302,13.08262 0.38193,5.08941 -10.05911,4.78426 -3.57376,9.19038 2.30638,5.426054 -7.22673,8.391344 -9.50416,12.906294 -1.79502,-4.24739 -2.19624,14.28916 -8.03727,24.08287 -4.06422,2.4501 -0.95648,13.53044 -7.5244,10.58014 -1.49205,-8.15286 -7.36383,0.69069 -12.29233,-0.64109 -3.21112,2.88781 -7.14865,5.06476 -6.42573,10.56985 -0.71447,7.76723 10.94478,5.79888 16.07582,5.64163 8.0935,1.5629 -0.7774,11.75806 -4.34092,14.44437 -6.53051,4.24903 1.61738,12.40146 -5.5986,15.30878 0.85318,6.21286 3.88928,12.35282 4.39737,18.83721 2.17094,6.22727 6.58081,11.92825 6.52994,18.91006 4.68057,4.5261 2.77319,11.35976 -2.89639,11.78089 5.72768,6.04018 -7.00376,8.29552 -8.72754,13.63465 0.79722,-6.00247 -10.3985695,-5.18561 -13.0047495,-3.17289 -1.94257,2.67634 -7.66232003,-2.39518 -6.13046,3.1077 2.80136,6.77238 -0.90374003,23.13171 7.55496,22.36136 1.7732095,2.96006 5.4683895,1.19356 8.5268195,0.35449 4.00673,-1.09953 6.19723,5.34932 3.85592,10.4194 5.68652,4.78905 15.69925,-5.18017 14.26682,-12.45142 9.87298,-3.3706 -2.39653,-11.06449 7.27851,-18.73299 -4.80616,-7.39431 1.95359,-6.48783 6.50221,-8.9567 1.81793,-5.79783 4.26345,-4.30948 8.68529,-3.321 3.24466,0.72537 8.70424,0.94155 12.02576,-0.54602 15.45276,-13.474 15.01226,-5.12325 16.26065,-13.28804 -6.44524,-4.91604 6.80962,-7.04688 10.01734,-5.42366 2.83151,-0.66613 7.824938,-3.83144 9.106548,-3.83401 1.70693,-0.003 0.79639,3.42343 5.2107,2.98441 3.08684,-0.84234 5.6634,-1.84838 7.24041,-1.09754 l -0.69731,-3.56832 c 3.22427,-3.00622 10.57295,-11.03426 3.05317,-12.11778 6.82686,-0.57912 4.40081,-7.64202 6.72156,-11.06384 -4.7253,-5.4139 -10.19564,-5.16915 -18.44548,-7.45497 2.05405,-5.02579 -0.63456,-18.60344 7.45868,-16.43354 3.55068,-4.20318 -5.2404,-8.0098 -5.07683,-13.16698 -1.35421,-5.91075 -14.640428,-7.17373 -9.56652,-13.85462 5.40754,1.74703 6.47089,-2.45506 5.01146,-6.78697 16.09821,1.03469 9.85116,-7.74053 17.30226,-5.49508 5.63535,1.37464 8.78555,6.58804 11.27153,10.05297 5.25386,-0.53357 11.80165,-11.67715 14.20537,-1.41253 1.64382,0.004 6.9397,1.23546 6.78989,7.44936 7.51643,1.30235 13.57591,-2.66087 14.74447,-10.06485 6.89223,-4.03386 3.65498,-11.19758 14.48962,-14.26203 8.33163,-1.79677 8.04294,8.96423 14.12384,11.37178 2.9828,-0.82248 0.9553,-5.47509 4.33536,-6.0695 l 4.36279,-2.84683 c 0.1829,-3.6967 -4.29821,-4.22718 0.60925,-15.16403 2.79344,-3.3473 -1.05812,-5.5165 -0.77609,-12.402944 -0.4385,-5.62638 -1.44994,-11.35231 -3.54742,-16.2353 -3.4408,-7.07427 -2.38072,-9.11461 -0.11584,-16.89908 1.94183,-3.73572 -1.99491,-7.05768 -4.69185,-9.0927 -2.68961,-1.99122 -5.19854,-2.99965 -3.67989,-20.55145 -9.25418,-0.41415 -17.29041,6.08239 -26.26976,7.37376 3.68063,-8.47939 -7.26279,-5.93092 -8.9536,-7.08415 -6.02128,-4.10681 -9.48347,-1.31346 -10.34762,1.69172 -6.47142,7.17212 -15.0663,11.2349 -22.89903,-0.89917 -9.43844,0.37104 -14.34525,-11.88126 -22.7669,-14.96339 -4.424148,-2.27076 -11.786588,4.11913 -16.642828,-4.73152 -4.12292,2.94007 -11.47478,-13.9088879 -14.48971,-0.90444 -0.4918,3.27471 -1.91844,4.87811 -3.74665,5.81752 l 1.15519,51.55612 c -8.71778,-4.651 -5.62076,0.82501 -8.1468,1.48121 z"
       sodipodi:nodetypes="ccccccccccccccccccsccccscccsccccccccccccccccccccccccccscccccccc"
       inkscape:label="#path10929" />
  </g>
</svg>
