<?xml version="1.0" encoding="UTF-8" standalone="no"?>
<!-- Created with Inkscape (http://www.inkscape.org/) -->

<svg
   width="210mm"
   height="297mm"
   viewBox="0 0 210 297"
   version="1.1"
   id="svg1283"
   inkscape:version="1.1.2 (b8e25be833, 2022-02-05)"
   sodipodi:docname="vector.svg"
   xmlns:inkscape="http://www.inkscape.org/namespaces/inkscape"
   xmlns:sodipodi="http://sodipodi.sourceforge.net/DTD/sodipodi-0.dtd"
   xmlns="http://www.w3.org/2000/svg"
   xmlns:svg="http://www.w3.org/2000/svg">
  <sodipodi:namedview
     id="namedview1285"
     pagecolor="#ffffff"
     bordercolor="#666666"
     borderopacity="1.0"
     inkscape:pageshadow="2"
     inkscape:pageopacity="0.0"
     inkscape:pagecheckerboard="0"
     inkscape:document-units="mm"
     showgrid="false"
     inkscape:zoom="0.52347032"
     inkscape:cx="155.69173"
     inkscape:cy="305.65248"
     inkscape:window-width="1920"
     inkscape:window-height="1017"
     inkscape:window-x="-8"
     inkscape:window-y="-8"
     inkscape:window-maximized="1"
     inkscape:current-layer="layer1" />
  <defs
     id="defs1280" />
  <g
     inkscape:label="Capa 1"
     inkscape:groupmode="layer"
     id="layer1">
    <path
       d="m 164.7946,46.206355 c -1.82389,1.49752 -3.66296,2.1792 -5.61753,3.15574 -2.40179,0.3529 -4.11441,2.51278 -6.56405,2.78201 -1.65082,1.33622 -3.88517,3.13847 -3.90944,5.46274 -0.62748,2.53142 -1.34635,4.60448 -2.6063,6.41276 -2.22423,1.40612 -4.43452,1.13524 -6.94952,2.233 -2.25039,-0.007 -4.66524,-1.52261 -5.23208,-3.18302 -0.57746,-2.37223 -2.27859,-5.0827 -5.35031,-4.51272 -2.52861,0.16925 -4.10171,-3.2294 -5.52813,-0.95002 -2.02014,1.37042 0.52661,4.87515 -1.75642,6.41276 -0.73181,2.03407 -2.97093,3.31122 -2.6063,6.37254 -0.98284,2.74871 2.24001,6.03451 0.0192,7.73596 -2.5047,0.71539 -3.88111,1.09687 -5.23209,3.22975 -0.9049,3.28614 -3.9705,2.81812 -6.65346,3.14704 -3.2849,-0.0274 -5.41909,0.98606 -8.42993,1.36568 -2.06139,0.78591 -5.11511,0.85895 -6.6735,1.84063 -2.65826,-0.16994 -4.23044,1.33259 -6.0708,2.6808 -1.26852,1.70926 -4.10001,3.95055 -3.95778,-0.19941 -0.11621,-2.51668 1.94309,-7.19571 -2.17131,-6.57811 -2.31389,0.56944 -4.88575,0.71677 -6.95071,1.8407 -2.62281,0.19598 -5.2027,0.56464 -7.54168,1.36568 -1.37857,1.14025 -5.00047,2.45906 -6.7613,-0.38236 -2.29641,-1.72318 -3.46576,1.29319 -3.97546,3.50905 -2.11492,0.83558 -2.82147,2.31194 -2.62859,4.90222 -2.04756,1.44099 -5.60313,0.66537 -7.42227,-0.30973 -1.175057,-1.75984 -1.709463,-4.53698 -4.60155,-3.14697 -2.442741,-0.61466 -5.056929,-1.28038 -7.976653,-0.47487 -3.897645,1.13722 -8.639828,0.13773 -12.853644,0.47487 -3.454054,-0.22613 -6.834725,-0.37551 -6.296955,3.58182 0.93469,2.15323 2.262769,2.94818 3.909445,5.027885 1.109645,2.33455 0.714268,5.30719 -1.254834,6.36219 -2.690832,0.61946 -0.540929,4.87529 -3.424534,6.73585 -0.957343,1.9848 -0.315827,6.17916 -3.4350108,6.0809 -2.095844,-0.58999 -4.074841,-2.75083 -6.673522,-1.36569 -2.31505996,0.85608 -0.551071,3.59231 0,5.93776 0.308701,2.19325 1.363239,4.91825 2.606301,5.93782 0.724992,2.19311 2.303904,3.74895 2.606294,6.47847 0.903703,2.23971 2.339002,3.66591 2.153021,6.72249 -0.985076,2.10979 -1.785938,4.1895 -2.606295,6.1031 -1.262844,1.56167 -1.798127,4.17559 -2.606294,5.87834 -0.713569,2.24403 -1.501665,4.55699 -1.756424,7.6131 -0.206463,2.79955 1.283272,4.78531 3.059568,5.50297 0.563268,3.50905 -1.602992,5.09148 -1.303144,8.33842 0.46151,2.36484 0.69637,4.78422 2.209691,6.68412 0.422108,2.11225 2.030588,4.22081 1.699754,7.30344 -1.210513,2.46638 -0.557718,5.25861 0,8.19404 -0.330766,3.53708 1.338187,5.75479 0.90654,9.53883 -0.320213,2.13247 -1.387566,7.36443 0.396617,9.1651 2.7756038,0.83031 5.2198038,1.1878 8.4098688,1.36569 2.831163,1.44154 4.680437,-1.16717 8.233796,-0.41526 2.686447,1.91546 5.129729,-0.29671 6.989069,0.41526 2.057622,1.17683 1.090856,5.61582 0.73046,8.02876 -0.358518,1.82398 -1.486219,4.60345 -3.002905,5.6875 -3.530191,1.22618 0.279647,2.5541 0.396618,4.51266 0.847273,1.32382 3.924219,3.34055 1.756424,5.52208 -3.876642,1.67905 1.961153,4.02915 3.632237,2.25637 2.890772,0.0411 4.2253,-1.54502 6.792946,-1.8407 2.081485,1.76792 5.046565,1.23289 7.956615,0.95002 2.6432,0.28712 4.55792,-1.26523 6.88794,-1.84069 3.13555,-0.81099 7.46781,-0.36798 11.27505,-0.47488 2.06402,-1.02724 1.19636,-4.24904 -0.39662,-5.46274 -1.46373,-2.2837 -2.15061,-4.32373 -1.75642,-8.13285 1.93824,-1.90114 -0.58993,-4.99678 0.81439,-7.77516 2.11417,-1.74031 5.04591,-1.41667 7.85437,-1.43023 1.89318,1.31902 4.27861,2.57698 3.9661,5.46274 -1.03458,1.53179 -2.70695,4.20847 -1.75643,6.12228 3.40029,-0.42416 4.72118,1.69282 5.66587,4.09706 1.33564,1.12126 2.37558,3.32054 3.90944,4.38753 0.75827,1.53289 2.85594,3.0054 4.36272,4.09706 1.09392,1.40865 1.26371,4.75228 2.15303,6.53795 0.59122,2.19504 4.23507,1.85886 5.21258,0.29055 2.25875,-1.59292 2.39537,-4.67205 2.6063,-7.26322 0.31946,-2.72205 3.18552,-3.84934 3.90944,-5.50296 1.58368,-2.13761 1.57966,-3.58018 3.05956,-5.46275 1.03175,-2.45062 2.90798,-3.49637 5.08432,-6.21897 3.90513,-3.28183 7.41115,-7.04976 11.00672,-10.64426 3.64157,-1.19527 4.81403,3.44004 8.22383,3.15581 0.81391,3.57997 3.65033,3.10804 5.8018,1.21911 3.10728,-0.43307 4.11978,-6.42194 0.65688,-6.49903 -3.63164,1.7562 -5.00052,-5.76103 -1.19778,-6.06994 3.71334,-1.73338 0.0962,-6.1277 2.75057,-7.10629 0.58841,-1.17416 2.70778,-5.00103 6.0338,-4.56261 1.48907,-2.61084 2.96621,-5.75055 5.6069,-7.51004 -3.03531,-2.0991 -1.38259,-6.47978 -0.0487,-9.09356 2.16529,-2.38252 2.48,-5.21057 1.74809,-8.24468 -0.50982,-3.96645 -3.32282,-3.51714 -4.49419,-6.02965 -2.33782,-3.02047 1.19835,-5.93926 4.09758,-5.37085 1.01829,-2.21497 2.74968,-5.16452 5.50809,-5.46274 1.17109,-3.09948 3.84111,-2.61413 5.54563,-0.49612 2.40704,0.45226 3.84422,-3.65356 6.34046,-4.0164 -1.64831,-3.27223 3.73375,-4.341 1.75642,-7.77845 2.05469,-2.39135 1.74892,-6.51342 5.74692,-5.04707 2.86131,-0.27684 3.78089,3.2749 6.50037,1.58688 1.72051,-2.46235 2.71037,-6.33115 5.99678,-7.04962 0.58301,-3.04083 -1.60192,-6.13216 -1.30315,-8.66913 0.11677,-2.944 3.12512,-5.3002 0.98245,-8.39639 -3.72144,-4.08658 1.23797,-0.2926 2.927,0.20214 2.86298,0.50845 5.39177,1.92704 7.93281,1.63759 1.73199,0.96009 7.47083,4.43406 6.05351,0.25354 -3.51603,0.54066 -2.07613,-3.63349 -2.65461,-6.11351 -0.91751,-3.72943 5.97812,-2.78393 3.90944,-6.22823 -1.77859,-2.2835 0.88507,-5.828385 -2.42253,-7.417385 0.13081,-4.16373 -5.11558,-3.15622 -7.54938,-4.93319 -3.77864,0.25217 -2.31716,-5.62912 0.84987,-4.572 3.99628,-0.37277 3.93339,-4.74159 5.97419,-7.15159 2.2383,-2.30261 3.09429,-6.10597 0.13663,-8.29539 -4.39354,0.71471 -1.99553,-2.68888 -4.53045,-4.62264 -3.18592,1.09043 -4.6233,-1.91141 -8.09609,-0.89067 -2.73388,-0.22408 -5.37702,-1.71701 -7.42226,-2.25636 -1.10471,-2.37546 -6.10345,-0.25286 -7.77057,-2.26507 -2.20826,-0.97804 -1.95758,-4.51053 -3.10789,-5.98839 -0.61274,-2.39218 -3.71199,-3.77917 -3.90944,-6.35342 -1.20314,-2.33187 -4.02632,-1.84713 -6.51574,-1.84069 z"
       style="fill:#000000;fill-opacity:1;stroke:#d39062;stroke-width:0.906519;stroke-miterlimit:4;stroke-dasharray:none;stroke-opacity:1"
       id="Cochrane" />
  </g>
</svg>
