<?xml version="1.0" encoding="UTF-8" standalone="no"?>
<!-- Created with Inkscape (http://www.inkscape.org/) -->

<svg
   width="210mm"
   height="297mm"
   viewBox="0 0 210 297"
   version="1.1"
   id="svg64"
   inkscape:version="1.1.2 (b8e25be833, 2022-02-05)"
   sodipodi:docname="vector.svg"
   xmlns:inkscape="http://www.inkscape.org/namespaces/inkscape"
   xmlns:sodipodi="http://sodipodi.sourceforge.net/DTD/sodipodi-0.dtd"
   xmlns="http://www.w3.org/2000/svg"
   xmlns:svg="http://www.w3.org/2000/svg">
  <sodipodi:namedview
     id="namedview66"
     pagecolor="#ffffff"
     bordercolor="#666666"
     borderopacity="1.0"
     inkscape:pageshadow="2"
     inkscape:pageopacity="0.0"
     inkscape:pagecheckerboard="0"
     inkscape:document-units="mm"
     showgrid="false"
     inkscape:zoom="0.74029882"
     inkscape:cx="361.34057"
     inkscape:cy="561.93525"
     inkscape:window-width="1920"
     inkscape:window-height="1017"
     inkscape:window-x="-8"
     inkscape:window-y="-8"
     inkscape:window-maximized="1"
     inkscape:current-layer="layer1" />
  <defs
     id="defs61" />
  <g
     inkscape:label="Capa 1"
     inkscape:groupmode="layer"
     id="layer1">
    <path
       style="fill:#000000;fill-opacity:1;fill-rule:evenodd;stroke:#d39062;stroke-width:0.672694;stroke-linecap:butt;stroke-linejoin:miter;stroke-miterlimit:4;stroke-dasharray:none;stroke-opacity:1"
       d="m 109.09253,221.06045 c 0.53264,-0.37969 1.00637,-0.62454 1.63969,-1.17723 1.06896,-0.93298 2.25793,-1.90983 3.53168,-2.22834 1.13792,-0.28442 1.7316,-0.20057 2.27034,0.16838 0.53867,0.36895 1.02079,1.02086 1.93398,1.93405 0.52659,0.52659 1.04219,0.73723 1.55563,0.71469 0.51318,-0.0201 1.03991,-0.25491 1.47152,-0.58831 0.86315,-0.66747 1.47615,-1.74226 1.59763,-2.22834 0.12947,-0.5172 0.34212,-0.88038 0.63058,-1.13516 0.28845,-0.25491 0.64063,-0.3817 1.05111,-0.4622 0.82048,-0.16167 1.85703,-0.0838 2.94303,-0.0838 1.36385,0 2.28019,0.0335 2.98509,-0.16838 0.7049,-0.19923 1.19648,-0.62722 1.63969,-1.51357 0.3334,-0.6668 0.41524,-1.15919 0.42061,-1.55564 0.005,-0.39646 -0.0604,-0.68511 -0.0403,-0.92493 0.0201,-0.23949 0.13215,-0.43402 0.50446,-0.63058 0.37231,-0.19655 0.99235,-0.40584 2.0601,-0.6727 0.8667,-0.21667 1.38082,-0.14556 1.72381,0.0839 0.34279,0.23009 0.53464,0.63325 0.71469,1.00905 0.17978,0.37566 0.33676,0.74602 0.71476,0.96699 0.37768,0.2207 0.95532,0.27638 1.89192,0.0403 0.3059,-0.0765 1.58858,-5.27924 1.68176,-5.46566 0.34681,-0.69303 1.04239,-1.38129 1.7658,-2.01804 0.72348,-0.63661 1.47286,-1.22056 2.0181,-1.76587 0.85933,-0.85926 1.85798,-1.14925 2.77486,-1.55557 0.45817,-0.20326 0.91568,-0.45616 1.30334,-0.79882 0.38774,-0.34279 0.70685,-0.77896 0.96699,-1.42952 0.24955,-0.62387 1.10076,-1.34144 1.97605,-2.01804 0.87535,-0.67665 1.77291,-1.31038 2.22833,-1.76587 0.27169,-0.27168 0.31865,-0.67451 0.20997,-1.13516 -0.10867,-0.46086 -0.35084,-0.98041 -0.6727,-1.51351 -0.64332,-1.06628 -1.5659,-2.15791 -2.06016,-2.81692 -0.66814,-0.89052 -1.09338,-1.79217 -1.30334,-2.69081 -0.20997,-0.89863 -0.20393,-1.79176 0.0403,-2.77485 0.21533,-0.8604 0.78714,-1.49285 1.38739,-2.0601 0.60039,-0.56751 1.22761,-1.06775 1.55564,-1.72381 0.4367,-0.87408 0.73073,-1.97564 1.17723,-2.77486 0.22338,-0.39981 0.48634,-0.73341 0.84087,-0.92493 0.3542,-0.19185 0.7744,-0.22674 1.34534,-0.0838 0.44207,0.11068 1.19305,-0.16167 1.93404,-0.63058 0.74093,-0.4689 1.47045,-1.13308 1.84986,-1.89198 1.09814,-2.19621 2.04608,-2.83074 2.9431,-4.62472 0.38371,-0.76756 0.84182,-1.17817 1.30335,-1.3454 0.46152,-0.16704 0.96142,-0.11002 1.42945,0.0839 0.93607,0.38841 1.77681,1.28006 2.31239,1.68175 0.54538,0.4092 1.04394,0.54605 1.47152,0.50446 0.42731,-0.0402 0.7799,-0.26564 1.0931,-0.58831 0.62655,-0.646 1.03005,-1.68148 1.21929,-2.43851 0.17307,-0.69289 0.64399,-1.46715 1.13517,-2.14421 0.49171,-0.677 1.00294,-1.25518 1.38739,-1.6397 0.5588,-0.55879 1.20815,-0.9804 2.01811,-1.26128 0.80995,-0.28107 1.82047,-0.4206 3.06921,-0.4206 2.41416,0 3.63143,0.1724 6.30647,0.84081 0.93325,0.23344 2.09733,0.19655 3.23732,0.0839 1.14006,-0.1127 2.25329,-0.30053 3.06922,-0.50446 1.44911,-0.36224 2.26724,-0.46152 2.94303,-0.6727 0.67572,-0.21131 1.20694,-0.53397 2.10216,-1.42946 0.48902,-0.48903 0.99268,-0.80364 1.51357,-1.00905 0.52056,-0.20527 1.04011,-0.32535 1.55557,-0.4206 1.03106,-0.18985 2.03052,-0.30657 2.81692,-1.09311 0.42061,-0.4206 0.84074,-0.84067 1.26135,-1.26128 1.01421,-1.01428 1.95592,-1.46541 2.64867,-2.06016 0.34615,-0.29718 0.64466,-0.6232 0.84088,-1.09311 0.19655,-0.46957 0.29449,-1.10685 0.29449,-1.93398 0,-1.12316 0.29449,-2.08787 0.33608,-3.02715 0.0201,-0.46958 -0.0402,-0.91628 -0.20996,-1.3874 -0.17308,-0.47091 -0.46287,-0.96732 -0.967,-1.47151 -1.11772,-1.11773 -1.92519,-1.78634 -2.73286,-1.89199 -0.40383,-0.0537 -0.81834,0.0537 -1.26128,0.29449 -0.44274,0.24015 -0.91165,0.61716 -1.47152,1.17723 -0.31662,0.31662 -0.88843,0.53196 -1.55563,0.63057 -0.66747,0.0986 -1.42168,0.11069 -2.22827,0.0839 -1.61327,-0.0537 -3.29924,-0.29449 -4.20432,-0.29449 -0.52995,0 -0.99617,-0.19789 -1.38746,-0.54672 -0.39109,-0.34883 -0.73985,-0.81384 -1.09311,-1.30334 -0.35352,-0.4897 -0.67686,-1.00798 -1.09317,-1.42946 -0.41591,-0.42127 -0.89132,-0.77989 -1.47151,-0.92499 -1.51506,-0.37902 -2.43167,-0.214 -3.23733,-0.25223 -0.40249,-0.0201 -0.79599,-0.0879 -1.21928,-0.29449 -0.42329,-0.20662 -0.85396,-0.55947 -1.42946,-1.13517 -1.75339,-1.75333 -2.38565,-2.80605 -3.78391,-4.20431 -1.01958,-1.01959 -1.85677,-1.64204 -2.85898,-2.0181 -1.00214,-0.37567 -2.20855,-0.50446 -3.91002,-0.50446 -0.99537,0 -1.82148,-0.55544 -2.52256,-1.26128 -0.70108,-0.70578 -1.27537,-1.56034 -1.68175,-2.10216 -0.69484,-0.92647 -1.01818,-1.53471 -1.59763,-1.93398 -0.57959,-0.39914 -1.41309,-0.58831 -3.02716,-0.58831 -0.45347,0 -0.75494,0.29449 -1.00905,0.71476 -0.25424,0.41993 -0.46152,0.96712 -0.6727,1.55557 -0.21131,0.58831 -0.43201,1.21875 -0.75675,1.72381 -0.32468,0.50513 -0.75072,0.88119 -1.34541,1.05105 -1.0116,0.28912 -1.73454,0.30388 -2.27033,0.12611 -0.53598,-0.17777 -0.85885,-0.51989 -1.05111,-0.96699 -0.38438,-0.89461 -0.23814,-2.15777 -0.0403,-2.9431 0.27973,-1.1198 0.65271,-2.12342 1.13523,-3.02709 0.483,-0.90366 1.07426,-1.70496 1.80787,-2.4385 0.4253,-0.4253 0.64198,-0.86 0.75676,-1.30334 0.11471,-0.44342 0.12007,-0.88744 0.20996,-1.30335 0.0899,-0.41591 0.23747,-0.79224 0.58831,-1.13523 0.35084,-0.34279 0.91018,-0.65875 1.80787,-0.88287 0.61112,-0.15295 1.11115,-0.1241 1.47152,0.0402 0.36023,0.16637 0.60776,0.4783 0.79881,0.84081 0.38237,0.72442 0.47964,1.70771 0.6727,2.48057 0.0818,0.32736 0.2301,0.49506 0.37835,0.54672 0.14825,0.0537 0.31193,3.3e-4 0.50446,-0.16838 0.38572,-0.33675 0.829,-1.04521 1.26128,-1.93398 0.86462,-1.77755 1.63969,-4.24335 1.63969,-5.59177 0,-1.30113 -0.38841,-1.8394 -0.54672,-2.56469 -0.0792,-0.36225 -0.0959,-0.75964 0.0403,-1.34534 0.13819,-0.58563 0.39847,-1.34298 0.92499,-2.39651 0.53532,-1.07016 1.76896,-2.05299 3.19527,-2.85891 1.4263,-0.806 3.04171,-1.43315 4.37255,-1.76588 0.26095,-0.0671 1.33836,-1.40101 2.22827,-2.48056 -3.32969,-0.65942 -4.68086,-3.832083 -5.12931,-3.867973 0,0 -2.13133,1.67102 -1.13516,2.900983 1.0654,1.31548 -2.08754,4.15319 -2.94304,1.42952 -1.44501,-4.600373 -3.53161,-2.480573 -3.53161,-2.480573 -2.36914,1.889713 -4.50135,3.390743 -7.82011,2.732803 3.77693,-2.913323 -0.83799,-5.329623 -3.53161,-3.069153 -3.76419,1.253373 -5.11965,7.378513 -9.7541,5.717893 -4.80369,-0.28711 0.2529,-3.84616 -1.72381,-6.222423 -3.33157,-3.13186 -8.31941,-4.46546 -12.73912,-5.04518 -3.72508,1.47312 -7.21094,-4.98824 -9.29163,0.0839 -1.89246,3.16762 -1.85597,7.305523 -5.29742,9.712033 -4.3199,-0.23881 -3.98214,5.74399 -5.71796,8.57687 1.13537,2.496 8.81193,1.96417 7.73599,7.06329 -2.07881,3.20895 -0.8459,9.48389 -5.75995,9.88021 -1.08364,5.00065 -5.82643,3.8249 -9.50179,5.4236 -4.43401,1.4893 -0.44878,-5.26656 -3.23733,-6.22241 -0.79861,-2.92016 -3.012457,-4.38182 -4.877007,-6.60083 -0.40987,-4.03862 -5.52449,-4.66778 -5.25543,-8.28258 -2.85951,-3.04164 -6.79945,-4.94477 -10.97338,-5.59177 0.50849,0.20393 3.92673,-3.24014 0.25223,-4.66678 -2.06385,-2.11625 -7.34088,-4.883053 -5.46566,-8.030353 1.87354,-4.85421 -0.52458,-6.72875 -4.20431,-7.4837 5.27722,-1.2598 -3.50331,-3.86011 -4.28844,-6.39059 -0.78513,-2.53047 -6.19585,1.40423 -3.06921,-1.63969 -3.12664,3.04392 -6.43701,5.40562 -8.36663,5.75995 -3.40154,-1.34775 -5.21666,-2.07251 -11.43578,-0.63057 -0.65875,-0.26364 -2.88756,-2.59662 -2.06017,-3.69986 0.0537,-2.33513 -1.38176,-3.22182 -3.23732,-4.49867 -1.97557,-0.59435 -4.16205,-0.6737 -6.34853,-0.63057 -0.0268,0.0959 -0.14959,0.19991 -0.16838,0.29449 -0.38572,1.92808 -0.88293,3.80692 -0.88293,6.64282 0,0.66009 -0.16905,1.26108 -0.4622,1.80787 -0.29315,0.54672 -0.72254,1.07097 -1.13517,1.55564 -0.82524,0.96933 -1.71891,1.83027 -1.97604,2.85891 -0.19185,0.76816 0.51855,2.51853 1.13517,4.20438 0.30791,0.84289 0.60642,1.67759 0.75675,2.35438 0.15027,0.6768 0.16301,1.22452 -0.0839,1.47152 -0.50312,0.50312 -1.77412,0.83631 -2.94303,1.21929 -0.58429,0.19118 -1.16106,0.39981 -1.59763,0.63057 -0.43671,0.23076 -0.71966,0.48232 -0.79889,0.79881 -0.13818,0.552763 -0.43536,1.013953 -0.8408,1.387473 -0.40585,0.37365 -0.91071,0.65204 -1.51358,0.84087 -1.2058,0.37768 -2.75862,0.39311 -4.3305,0 -0.829,-0.20728 -1.21003,-0.55275 -1.3454,-0.96699 -0.1355,-0.4139 -0.005,-0.89689 0.0839,-1.345403 0.0899,-0.44878 0.15294,-0.86677 0,-1.17723 -0.15362,-0.31059 -0.52258,-0.50445 -1.38747,-0.50445 -0.95277,0 -2.94719,-1.06614 -4.7509004,-2.10216 -1.8037,-1.03602 -3.41717,-2.03326 -3.69978,-1.89199 -0.6554,0.32736 -1.11954,0.65674 -1.47152,1.05111 -0.35218,0.39445 -0.60173,0.82961 -0.79888,1.30334 -0.39445,0.94747 -0.63527,2.06902 -1.30334,3.4055 -0.36359,0.727113 -0.47763,1.291203 -0.4622,1.723813 0.0134,0.43269 0.17643,0.75119 0.37834,1.05105 0.40384,0.59971 0.96699,1.10498 0.96699,2.14422 0,0.84993 -0.16032,2.23236 -0.25222,3.61573 -0.0919,1.38344 -0.11404,2.75715 0.25222,3.48962 0.32401,0.64801 0.27169,1.22519 0,1.72381 -0.27168,0.49842 -0.75849,0.91903 -1.26128,1.30334 -0.50311,0.38438 -1.01877,0.70396 -1.38745998,1.00905 -0.36895,0.30523 -0.59301,0.57959 -0.4622,0.84081 0.3012,0.60307 0.98282998,1.2264 1.63969998,1.89199 0.65673,0.66546 1.28717,1.36486 1.47151,2.10216 0.33541,1.34077 0.7742,2.18326 1.13517,2.98509 0.3609,0.80177 0.63057,1.58314 0.63057,2.81692 0,0.91124 0.0946,1.52538 0.25223,1.97604 0.15764,0.45079 0.39109,0.72637 0.6727,0.96699 0.56349,0.48098 1.36969,0.78922 2.22827,1.93398 1.34393,1.7919 1.10317,2.29039 2.1862804,4.45661 0.0671,0.13081 1.06151,1.3886 1.97604,2.64874 0.91447,1.26014 1.76306,2.52532 1.59763,2.69081 -0.15831,0.15764 -0.83624,0.28443 -1.26128,0.4206 0.20527,0.1288 0.42866,0.26229 0.63058,0.37835 0.86093,0.49506 1.71381,0.81632 2.60668,0.6727 0.4461,-0.0718 0.90729,-0.27169 1.38746,-0.63058 0.48031,-0.35956 0.98262,-0.86576 1.51351,-1.59763 0.1724,-0.98429 0.44006,-1.76996 0.79888,-2.35445 0.35889,-0.58429 0.79862,-0.95948 1.30334,-1.21922 0.50446,-0.25961 1.07151,-0.36828 1.68169,-0.37834 0.61045,-0.0134 1.25873,0.0879 1.93405,0.25223 2.70113,0.65673 5.78048,2.37605 7.9041,2.81691 1.03675,-0.88461 2.06291,-1.45052 3.06921,-1.72381 1.00624,-0.27302 1.97417,-0.2529 2.90097,0 0.92681,0.2529 1.80841,0.77661 2.60669,1.47152 0.79834,0.6949 1.52343,1.55483 2.14421,2.60668 1.34178,1.67659 4.29394,3.95859 6.30654,6.30654 1.0063,1.174 1.74488,2.38182 1.97604,3.53161 0.11538,0.57489 0.11203,1.13691 -0.0838,1.68175 -0.19588,0.54471 -0.54873,1.05682 -1.13517,1.55564 -0.80156,-0.29919 -1.49506,-0.43 -2.06009,-0.42061 -0.56483,0.007 -1.00939,0.16838 -1.38746,0.42061 -0.15027,0.1 -0.16704,0.37231 -0.2945,0.50446 0.38371,0.22405 0.76964,0.36425 1.17723,0.58831 0.6024,0.33139 1.20446,0.65539 1.93398,0.88294 0.72952,0.2274 1.57644,0.37834 2.52263,0.37834 1.88884,0 3.17158,-0.48031 4.33043,-0.58831 0.57959,-0.0537 1.09793,-0.0134 1.68175,0.20997 0.58362,0.22673 1.2211,0.63258 1.93398,1.34533 1.28476,1.28476 3.6209,4.80329 4.45661,6.47471 0.21332,0.42597 0.6947,0.70987 1.30334,0.88294 0.60844,0.17307 1.36989,0.23479 2.14422,0.25223 1.54873,0.0335 3.16206,-0.12612 3.99414,-0.12612 1.53122,0 2.72891,0.15698 3.74185,0.42061 1.01301,0.26296 1.85657,0.61313 2.73287,1.05111 0.48098,0.24016 0.82115,0.66546 1.05104,1.17723 0.23009,0.51183 0.35419,1.10457 0.42061,1.7658 0.13215,1.3224 0.0402,2.85033 0.0402,4.03614 0,1.91272 0.0852,2.93223 0.37834,3.91009 0.29315,0.97786 0.78318,1.90272 1.59763,3.53161 0.81424,1.62849 1.62084,2.46601 2.31239,3.27939 0.69162,0.81337 1.24538,1.61789 1.63969,3.19533 l 3.48962,5.92812 c 0.39512,1.58026 1.83692,3.71589 2.48057,5.00313 0.15496,0.30992 1.61259,0.71248 3.11121,1.09317 1.49862,0.38036 3.05345,0.72784 3.3635,0.88287 0.46153,0.23076 0.82223,0.59502 1.09311,1.00905 0.27101,0.4139 0.456827,0.86577 0.588307,1.30334 0.26296,0.87523 0.28174,1.62708 0.29449,1.6397 0.47226,0.47225 0.44677,1.16555 0.37834,1.89198 -0.0684,0.72644 -0.1724,1.50499 0.12612,2.10216 0.72912,1.4583 1.48473,2.21358 2.31232,2.85898 0.82766,0.64533 1.71972,1.17307 2.64875,2.10216 0.48299,0.48299 0.5816,1.39665 0.37834,2.22827 -0.20326,0.83162 -0.72496,1.60018 -1.38746,1.7658 -0.54605,0.13685 -0.56349,0.3381 -0.29449,0.63058 0.269,0.29247 0.84845,0.67283 1.55563,1.05104 0.96337,0.51519 1.91735,1.04172 2.85892,1.55564 z"
       id="Hualane"
       inkscape:label="#path2788" />
  </g>
</svg>
