<?xml version="1.0" encoding="UTF-8" standalone="no"?>
<!-- Created with Inkscape (http://www.inkscape.org/) -->

<svg
   width="210mm"
   height="297mm"
   viewBox="0 0 210 297"
   version="1.1"
   id="svg64"
   inkscape:version="1.1.2 (b8e25be833, 2022-02-05)"
   sodipodi:docname="vector.svg"
   xmlns:inkscape="http://www.inkscape.org/namespaces/inkscape"
   xmlns:sodipodi="http://sodipodi.sourceforge.net/DTD/sodipodi-0.dtd"
   xmlns="http://www.w3.org/2000/svg"
   xmlns:svg="http://www.w3.org/2000/svg">
  <sodipodi:namedview
     id="namedview66"
     pagecolor="#ffffff"
     bordercolor="#666666"
     borderopacity="1.0"
     inkscape:pageshadow="2"
     inkscape:pageopacity="0.0"
     inkscape:pagecheckerboard="0"
     inkscape:document-units="mm"
     showgrid="false"
     inkscape:zoom="0.74029882"
     inkscape:cx="361.34057"
     inkscape:cy="345.8063"
     inkscape:window-width="1920"
     inkscape:window-height="1017"
     inkscape:window-x="-8"
     inkscape:window-y="-8"
     inkscape:window-maximized="1"
     inkscape:current-layer="layer1" />
  <defs
     id="defs61" />
  <g
     inkscape:label="Capa 1"
     inkscape:groupmode="layer"
     id="layer1">
    <path
       id="Taltal"
       style="fill:#000000;fill-opacity:1;fill-rule:evenodd;stroke:#d38d5f;stroke-width:0.831438;stroke-linecap:butt;stroke-linejoin:miter;stroke-miterlimit:4;stroke-dasharray:none;stroke-opacity:1"
       d="m 206.72878,155.26304 c 2.57631,2.60575 4.3577,5.05249 0.48994,6.3694 4.1595,5.6104 2.52103,10.39254 -2.44976,14.69861 l -7.3493,4.40957 c 5.75753,1.192 6.09292,4.55284 5.38949,8.32922 2.80912,3.64608 8.50629,8.37518 1.46988,8.32921 1.00344,2.77642 0.58103,5.5528 -4.89955,8.32921 -2.32183,4.68938 -4.98166,9.24361 -20.0881,8.81916 l -14.6986,5.87945 c -1.95982,-4.47283 -3.91964,-3.53148 -5.87946,-2.93973 0.29256,3.06904 -3.33696,2.21584 -6.85933,1.46985 0.52878,3.53592 -0.0559,5.58721 -3.42967,3.91964 l 0.97991,6.3694 c -10.51221,-3.35334 -24.0028,0.25453 -25.96755,-3.91964 -5.89406,0.1854 -13.13072,2.38439 -16.65842,-0.97991 l -2.44977,4.40961 c -5.07407,-3.16124 -7.65792,-5.49237 -8.81916,-7.34931 -4.50314,1.01476 -9.71855,1.67342 -11.75888,3.91961 l -5.38949,3.91964 -13.22875,-1.95982 -7.3493,-1.46985 c 0.51523,-6.84705 -4.85348,-3.88752 -7.83925,-4.89955 0.0789,13.34431 -7.6557,7.15495 -12.248842,8.81919 -3.755966,4.53247 -7.776947,8.7337 -16.658417,6.85933 -2.260039,5.75505 -4.77411,12.31327 -8.329211,9.30912 -3.5550983,-3.00415 -3.5957893,3.91571 -1.469861,-0.97991 2.125929,-4.89562 2.253289,-8.89388 0.489955,-13.7187 -2.6444353,-3.4652 -5.3906833,-5.798 -7.8392563,-9.79906 -5.280653,-7.53826 -3.63827205,-11.07383 -0.979909,-12.24885 -0.830489,-4.51931 9.5472133,-1.25619 3.919628,-9.30912 -3.716441,-4.69042 1.967854,-7.5557 4.4095823,-10.77897 3.065593,-3.41179 2.879953,-7.87234 4.409583,-12.24882 -0.424868,-5.69965 7.723017,-6.4138 9.309117,-9.7991 2.025508,-3.72072 2.397759,-7.38487 5.87944,-9.79906 2.324078,-1.16204 2.834025,-1.74842 3.919628,-3.91964 1.508409,-3.01681 -0.377779,-5.34822 0.489954,-8.81915 0.759561,-3.03824 2.156646,-5.19688 2.939722,-8.32921 0.91059,-4.27056 -1.991193,-8.38801 -4.409582,-11.75888 -1.806097,-2.40812 -3.622755,-5.1819 -3.919628,-6.3694 2.031953,-3.35918 4.910435,-6.46973 2.939721,-11.26891 C 29.213592,101.492 27.380505,96.46198 26.425889,90.09925 22.385403,77.62546 21.927479,73.57447 20.546446,64.62167 26.894233,59.81573 23.871375,54.6311 21.891957,50.71665 l 17.762673,8.02556 148.45591,5.87946 4.89954,8.32921 -0.48997,6.36936 c 3.56546,7.43635 5.74745,17.43553 -3.42966,20.0881 2.4293,8.30875 -2.00529,9.75359 -4.40958,13.22876 l -2.93973,21.55794 5.87946,2.44979 0.48994,5.38948 z"
       sodipodi:nodetypes="ccccccccccccccccccccccccccccccccccssccccccccccccccccc" />
  </g>
</svg>
