<?xml version="1.0" encoding="UTF-8" standalone="no"?>
<!-- Created with Inkscape (http://www.inkscape.org/) -->

<svg
   width="210mm"
   height="297mm"
   viewBox="0 0 210 297"
   version="1.1"
   id="svg64"
   inkscape:version="1.1.2 (b8e25be833, 2022-02-05)"
   sodipodi:docname="vector.svg"
   xmlns:inkscape="http://www.inkscape.org/namespaces/inkscape"
   xmlns:sodipodi="http://sodipodi.sourceforge.net/DTD/sodipodi-0.dtd"
   xmlns="http://www.w3.org/2000/svg"
   xmlns:svg="http://www.w3.org/2000/svg">
  <sodipodi:namedview
     id="namedview66"
     pagecolor="#ffffff"
     bordercolor="#666666"
     borderopacity="1.0"
     inkscape:pageshadow="2"
     inkscape:pageopacity="0.0"
     inkscape:pagecheckerboard="0"
     inkscape:document-units="mm"
     showgrid="false"
     inkscape:zoom="0.74029882"
     inkscape:cx="361.34057"
     inkscape:cy="669.99972"
     inkscape:window-width="1920"
     inkscape:window-height="1017"
     inkscape:window-x="-8"
     inkscape:window-y="-8"
     inkscape:window-maximized="1"
     inkscape:current-layer="layer1" />
  <defs
     id="defs61" />
  <g
     inkscape:label="Capa 1"
     inkscape:groupmode="layer"
     id="layer1">
    <path
       sodipodi:nodetypes="ccccccccccccccccccccccccccccccc"
       d="m 6.5102543,199.02842 5.7146297,6.484 19.654671,1.5723 3.14474,3.14476 24.37179,0.78585 10.22041,-9.43428 15.72374,7.07567 12.57896,-8.64797 10.220455,6.28952 5.50329,-5.50337 5.50332,3.93091 h 49.52971 l 12.57899,-5.50321 18.08229,-18.08224 c -8.63807,-3.16136 -11.70678,-15.60515 -14.15135,-29.08897 1.64714,-9.47174 0.032,-23.02181 9.43421,-22.79946 l 6.28948,-0.78585 7.07567,-4.71706 v -8.64812 l -20.44082,-29.088819 -15.72374,0.78585 -7.86186,10.22042 -15.7237,-0.78584 -19.65467,21.226999 -32.123745,20.0266 -25.69899,19.61236 -14.20208,0.6762 -40.577333,19.61236 -12.1732387,0.67619 5.410327,7.43904 z"
       style="fill:#000000;fill-opacity:1;fill-rule:evenodd;stroke:#d38d5f;stroke-width:4.02949;stroke-linecap:butt;stroke-linejoin:miter;stroke-miterlimit:4;stroke-opacity:1"
       id="Panquehue" />
  </g>
</svg>
