<?xml version="1.0" encoding="UTF-8" standalone="no"?>
<!-- Created with Inkscape (http://www.inkscape.org/) -->

<svg
   width="210mm"
   height="297mm"
   viewBox="0 0 210 297"
   version="1.1"
   id="svg1283"
   inkscape:version="1.1.2 (b8e25be833, 2022-02-05)"
   sodipodi:docname="vector.svg"
   xmlns:inkscape="http://www.inkscape.org/namespaces/inkscape"
   xmlns:sodipodi="http://sodipodi.sourceforge.net/DTD/sodipodi-0.dtd"
   xmlns="http://www.w3.org/2000/svg"
   xmlns:svg="http://www.w3.org/2000/svg">
  <sodipodi:namedview
     id="namedview1285"
     pagecolor="#ffffff"
     bordercolor="#666666"
     borderopacity="1.0"
     inkscape:pageshadow="2"
     inkscape:pageopacity="0.0"
     inkscape:pagecheckerboard="0"
     inkscape:document-units="mm"
     showgrid="false"
     inkscape:zoom="0.52347032"
     inkscape:cx="155.69173"
     inkscape:cy="611.30496"
     inkscape:window-width="1920"
     inkscape:window-height="1017"
     inkscape:window-x="-8"
     inkscape:window-y="-8"
     inkscape:window-maximized="1"
     inkscape:current-layer="layer1" />
  <defs
     id="defs1280" />
  <g
     inkscape:label="Capa 1"
     inkscape:groupmode="layer"
     id="layer1">
    <path
       d="m 197.1986,147.7623 c -0.98864,-0.96088 -1.81178,-1.98952 -2.55854,-2.98498 -1.49343,-1.99087 -2.62887,-3.81208 -3.89875,-4.44698 -2.40003,-1.20007 -5.09508,-1.55623 -7.37096,-2.25395 -1.13799,-0.34884 -2.21848,-0.77952 -3.04596,-1.46202 -0.82701,-0.68247 -1.43603,-1.60181 -1.76656,-2.92405 -0.29266,-1.17161 -1.6881,-3.92451 -3.28953,-6.39635 -0.80058,-1.23593 -1.65902,-2.43585 -2.43675,-3.28956 -0.77792,-0.85372 -1.489,-1.40112 -2.01032,-1.40112 -3.47702,0 -6.21333,-0.17503 -8.77206,-0.54822 -2.55882,-0.37319 -4.92127,-0.92576 -7.79749,-1.64478 -3.16095,-0.79028 -5.98855,-1.35271 -8.52849,-2.13213 -2.53985,-0.77942 -4.7825,-1.78982 -6.94462,-3.41137 -2.09556,-1.5717 -3.28915,-3.03491 -4.32518,-4.62976 -1.03603,-1.59483 -1.97076,-3.29777 -3.47231,-5.29984 -2.50548,-3.34074 -6.94613,-9.200092 -11.02604,-13.280035 -1.98039,-1.980405 -3.41434,-3.376966 -5.29985,-4.264245 -1.88551,-0.887242 -4.23172,-1.279297 -7.98027,-1.279279 -1.65335,0 -3.24016,-0.225822 -4.69063,-0.670104 -1.45048,-0.444282 -2.730553,-1.096298 -3.837763,-1.949373 -1.10731,-0.853066 -2.05667,-1.880418 -2.68042,-3.1068 -0.62403,-1.226382 -0.97468,-2.639124 -0.97468,-4.203324 0,-2.594432 -0.16597,-5.376715 -1.09652,-7.492869 -0.46524,-1.058091 -1.1151,-1.92715 -2.01028,-2.558547 -0.89517,-0.631397 -2.07673,-1.035603 -3.53322,-1.035603 -0.12283,0 -0.24263,0 -0.36555,0 -0.68719,1.564313 -1.49819,3.142986 -2.37578,4.02057 -0.84684,0.846835 -2.55742,1.647807 -4.14241,2.68038 -0.79246,0.516315 -1.52632,1.110553 -2.1321,1.766619 -0.60582,0.656038 -1.04676,1.3959 -1.21837,2.253951 -0.30069,1.503326 -0.66198,2.491046 -1.0356,3.167712 -0.37357,0.676618 -0.76602,1.004609 -1.27927,1.279269 -1.02653,0.549357 -2.40025,0.764606 -4.38608,2.253969 -1.37234,1.029259 -2.39837,1.941415 -3.28955,3.1068 -0.89121,1.165357 -1.63891,2.546803 -2.55854,4.386069 -1.41915,2.838286 -1.77822,6.90689 -3.35047,10.05142 -0.50555,1.01102 -0.65585,3.59864 -0.91377,6.09175 -0.12886,1.24656 -0.30068,2.46376 -0.54822,3.47231 -0.24754,1.00857 -0.61006,1.76726 -1.09653,2.13213 -1.52284,1.14211 -3.2525,2.04462 -4.99524,3.04587 -1.74272,1.00127 -3.44909,2.10889 -4.99526,3.65506 -1.26631,1.26632 -2.06282,2.31663 -3.16771,3.04589 -1.10489,0.7293 -2.55809,1.15744 -5.23893,1.15742 -3.70401,0 -5.81317,0.42116 -7.61469,1.15746 -1.80152,0.73628 -3.24979,1.74671 -5.72628,2.98496 -1.51511,0.75752 -3.07198,1.07501 -4.81249,1.0356 -1.74049,-0.0397 -3.69232,-0.43578 -6.09175,-1.0356 -3.39833,-0.84958 -4.45616,-0.99705 -5.29984,-0.67011 -0.84372,0.32694 -1.4685488,1.16071 -3.8987388,2.3758 -1.85456,0.92727 -3.398755,2.16586 -4.751587,3.59415 -0.414921,0.43814 -0.713343,0.98924 -1.096514,1.46202 0.444942,-0.15936 0.889507,-0.31428 1.279268,0 0.501116,0.40416 0.968867,1.25015 1.279279,2.8022 0.27954,1.39792 0.581928,3.22812 0.670104,4.93433 0.0878,1.70622 -0.03776,3.27141 -0.670104,4.32517 -0.781883,1.30323 -1.860177,3.06643 -2.497617,4.69066 -0.31872,0.8121 -0.518958,1.56544 -0.54822399,2.25395 -0.02927,0.68851 0.11933099,1.33765 0.54822399,1.76662 1.871997,1.87199 3.009268,4.22764 4.934331,6.15267 1.09305,1.09304 1.93559,2.3708 2.924046,3.28956 0.494223,0.45938 1.0131828,0.84174 1.6447728,1.0356 0.63159,0.19401 1.37594,0.2195 2.25395,0 2.26821,-0.56701 4.44975,-1.31809 6.5182,-1.94937 2.06845,-0.63131 4.02143,-1.15745 5.8481,-1.15743 1.54563,0 3.48792,-0.21657 5.29983,-0.18258 0.90594,0.0179 1.76911,0.085 2.55855,0.30456 0.78943,0.21921 1.52034,0.60656 2.0712,1.15742 0.91698,0.91698 2.32618,2.04238 3.65505,3.22864 1.32887,1.18627 2.53642,2.39245 3.1068,3.53322 0.59561,1.19125 1.19614,2.11504 1.82753,2.80224 0.6314,0.68719 1.30959,1.14137 2.0712,1.46202 1.52324,0.64121 3.42,0.731 6.03085,0.731 0.54737,0 2.57513,-0.42663 4.38607,-0.48734 0.90546,-0.0302 1.73935,-0.0113 2.31487,0.24367 0.57551,0.25471 0.85505,0.72212 0.67011,1.46202 -0.18523,0.74072 -0.12283,1.42692 0.0604,2.13212 0.18362,0.70523 0.53717,1.40134 0.97468,2.0712 0.87497,1.33973 2.15109,2.63844 3.35046,3.83781 0.46213,0.46213 1.67632,1.98084 3.04589,3.4114 1.36957,1.43055 2.85351,2.74129 3.71598,2.74129 2.05255,0 3.54685,0.05 4.93433,0.30456 1.38747,0.25452 2.6511,0.74686 4.32515,1.58385 1.49079,0.74544 2.87995,1.00706 3.89873,1.64477 0.50942,0.31891 0.92944,0.72203 1.21836,1.3402 0.28889,0.61809 0.48733,1.42372 0.48733,2.55855 0,2.39197 0.20231,3.88856 0.85288,5.17799 0.65056,1.28943 1.74549,2.35464 3.4723,4.08148 0.87856,0.87856 1.27974,2.75138 1.58387,4.447 0.30409,1.69562 0.47421,3.21554 0.85288,3.59413 0.61846,0.61846 1.18879,1.36367 1.88843,1.88846 1.41298,1.0597 2.49961,1.85083 3.22862,2.92405 0.72883,1.0732 1.09655,2.43922 1.09655,4.5079 0,1.50077 0.28039,4.33236 0.73071,6.45728 0.10951,0.5149 0.23696,0.76064 0.36536,1.15743 0.20675,-0.0406 0.403123,-0.0784 0.608933,-0.12188 1.26477,-0.26415 2.50057,-0.55757 3.59418,-1.15743 1.09362,-0.59986 2.05696,-1.49448 2.74132,-2.86313 0.65141,-1.30219 1.72784,-1.92529 2.86309,-2.19304 1.13525,-0.26774 2.30439,-0.21298 3.22864,-0.18258 0.92425,0.0302 1.62674,0.0434 1.64477,-0.36546 0.0189,-0.40831 -0.60987,-1.21885 -2.19299,-2.80223 -0.88082,-0.88073 -1.29083,-2.1118 -1.4011,-3.53321 -0.11046,-1.42142 0.0472,-3.00983 0.36535,-4.56883 0.63914,-3.11797 1.8198,-6.12177 2.1321,-7.37103 0.27095,-1.08289 0.14728,-2.19618 -0.0566,-3.22864 -0.20864,-1.03247 -0.48903,-1.96703 -0.48714,-2.80221 0.002,-0.83522 0.25678,-1.58018 1.15743,-2.07121 0.90065,-0.49101 2.44648,-0.73099 4.93431,-0.73099 2.2418,0 4.16063,0.30333 6.21361,1.15744 2.05289,0.85411 4.24919,2.21223 7.06641,4.32515 1.00638,0.75469 2.30354,1.2959 3.83785,1.64478 1.53422,0.34883 3.29123,0.52141 5.05618,0.60921 3.5298,0.17559 7.20018,0 9.86861,0 0.83645,0 1.72444,-0.40105 2.55853,-0.97469 0.83457,-0.57362 1.60078,-1.3471 2.37586,-2.19304 1.55008,-1.69189 2.92494,-3.59508 3.89866,-4.56883 0.4541,-0.45438 0.62875,-1.12069 0.73071,-1.88844 0.1029,-0.76772 0.18881,-1.62843 0.36536,-2.55854 0.17654,-0.9301 0.48053,-1.92168 1.15743,-2.86314 0.6769,-0.94143 1.68593,-1.87857 3.28963,-2.68036 0.87138,-0.43569 2.1271,-0.64934 3.5332,-0.731 1.40611,-0.0821 2.96308,0.0132 4.56876,0.12188 3.21155,0.2178 6.52875,0.60921 8.52849,0.60921 1.89986,0 3.3341,-0.0226 4.50796,-0.18258 1.17386,-0.16031 2.0645,-0.45382 2.74131,-0.91377 0.6769,-0.45995 1.17518,-1.11114 1.58378,-2.01029 0.40878,-0.89913 0.72694,-2.05542 1.09654,-3.53322 0.21525,-0.86109 7.7349,-6.63839 8.83305,-7.73655 1.7169,-1.71688 3.32994,-2.71621 4.81252,-3.89873 1.48257,-1.18252 2.82052,-2.53414 4.02053,-4.93433 0.28322,-0.56569 -12.46727,-9.55369 -13.21913,-9.92957 -0.69106,-0.34563 -1.17301,-0.75724 -1.46199,-1.21836 -0.28889,-0.46118 -0.40501,-0.9916 -0.36536,-1.52293 0.0755,-1.06271 0.75809,-2.21821 1.70576,-3.28956 0.29927,-0.33864 0.69578,-0.5942 1.03555,-0.91377 z"
       style="fill:#000000;fill-opacity:1;fill-rule:evenodd;stroke:#d39062;stroke-width:0.974682;stroke-linecap:butt;stroke-linejoin:miter;stroke-miterlimit:4;stroke-dasharray:none;stroke-opacity:1"
       id="Ranquil"
       inkscape:connector-curvature="0" />
  </g>
</svg>
