<?xml version="1.0" encoding="UTF-8" standalone="no"?>
<!-- Created with Inkscape (http://www.inkscape.org/) -->

<svg
   width="210mm"
   height="297mm"
   viewBox="0 0 210 297"
   version="1.1"
   id="svg64"
   inkscape:version="1.1.2 (b8e25be833, 2022-02-05)"
   sodipodi:docname="vector.svg"
   xmlns:inkscape="http://www.inkscape.org/namespaces/inkscape"
   xmlns:sodipodi="http://sodipodi.sourceforge.net/DTD/sodipodi-0.dtd"
   xmlns="http://www.w3.org/2000/svg"
   xmlns:svg="http://www.w3.org/2000/svg">
  <sodipodi:namedview
     id="namedview66"
     pagecolor="#ffffff"
     bordercolor="#666666"
     borderopacity="1.0"
     inkscape:pageshadow="2"
     inkscape:pageopacity="0.0"
     inkscape:pagecheckerboard="0"
     inkscape:document-units="mm"
     showgrid="false"
     inkscape:zoom="0.74029882"
     inkscape:cx="361.34057"
     inkscape:cy="345.8063"
     inkscape:window-width="1920"
     inkscape:window-height="1017"
     inkscape:window-x="-8"
     inkscape:window-y="-8"
     inkscape:window-maximized="1"
     inkscape:current-layer="layer1" />
  <defs
     id="defs61" />
  <g
     inkscape:label="Capa 1"
     inkscape:groupmode="layer"
     id="layer1">
    <path
       id="Punitaqui"
       style="fill:#000000;fill-opacity:1;fill-rule:evenodd;stroke:#d38d5f;stroke-width:1.92322;stroke-linecap:butt;stroke-linejoin:miter;stroke-miterlimit:4;stroke-opacity:1"
       d="m 32.437845,249.9864 c 3.5108,-3.49188 9.67304,7.33198 16.39892,6.73774 2.20918,-6.34664 11.62094,-12.05402 17.45684,-6.42676 5.28412,-0.9609 8.41021,-9.91133 15.84237,-8.51978 7.14466,-0.29716 14.20517,-3.11785 21.433575,-3.96995 8.99457,2.45078 1.85826,-7.6722 6.8975,-11.15103 -1.64397,-5.20452 4.34656,-8.26809 1.70186,-13.31471 4.8404,-5.66692 0.19262,-10.48514 -5.75316,-12.12513 3.88048,-3.00856 9.32624,-9.80627 4.29968,-15.77443 5.38644,-3.28383 2.88239,-11.82527 -1.98476,-14.98981 -6.13662,-2.64769 -7.06128,-20.20337 2.57521,-14.61482 9.00001,5.41261 1.53031,-8.51446 7.12406,-9.07769 6.7479,4.23208 9.14858,-7.29458 7.40733,-12.68013 -7.4319,-5.06187 3.25259,-3.96242 6.96,-6.84563 4.17472,-4.65413 17.82135,-4.53047 11.29355,-13.44468 -7.2533,-4.1352 1.34547,-6.86343 7.94196,-6.19393 9.23166,1.85468 -1.86607,-10.937178 6.27055,-10.288868 24.68017,-3.51698 19.61544,18.180938 18.81347,15.458828 2.29725,-5.11252 7.05014,-7.19616 12.46631,-7.02936 5.25589,-1.50723 10.68253,-4.79553 13.63899,-9.446558 2.12418,-3.03314 2.75824,-7.47466 -0.19698,-10.1698 -4.94152,-1.37092 11.2101,-15.79218 4.23738,-12.71202 -20.25046,11.93201 -33.79423,10.45062 -38.98274,-7.74128 l -7.71073,4.11744 c -3.15505,-1.974167 -6.08694,-4.276505 -9.14139,-6.397318 -5.18378,-8.021321 -13.82885,5.700653 -15.83259,-3.162599 -1.87543,5.59047 -6.91079,10.800377 -10.61289,2.442525 6.36854,-8.434368 -11.1984,-1.637812 -12.37319,-8.513526 2.04756,-3.377961 2.11276,-19.741765 -3.8598,-11.745884 -0.61073,9.824398 -11.948865,6.04037 -15.416045,13.002684 -5.88529,4.718484 -10.75779,22.453438 -19.90042,12.184364 -6.10164,-7.89347 -17.26367,-4.503333 -15.10731,6.211644 10.82232,6.46699 5.89028,17.84925 5.76906,27.976388 -3.10621,9.22808 4.78938,16.85135 3.625,25.55624 -8.49664,-4.00974 -15.98344,4.81634 -25.62864,2.75409 -6.21408,5.46367 -11.61295,1.92046 -16.91274,-2.37175 -10.237309,-3.5889 -18.4264677,6.39981 -19.4622007,15.6242 7.2991537,1.49806 4.6414557,8.23444 2.881928,13.25817 -4.195788,6.38347 -12.897351,17.33768 -0.808406,21.09273 -1.32456,7.88335 -11.890244,16.92736 -3.813548,24.48236 3.634668,8.28865 8.9909077,-2.3021 13.0871167,2.47806 8.75831,3.90479 5.64511,13.12347 10.1414,19.20561 8.43285,1.14491 6.62544,7.00042 4.46105,12.78496 3.79025,4.75608 2.71309,9.0192 0.77243,13.33941 z"
       sodipodi:nodetypes="cccccccccccccccccccccccccccccccccccccccccccc"
       inkscape:label="#path3734" />
  </g>
</svg>
