<?xml version="1.0" encoding="UTF-8" standalone="no"?>
<!-- Created with Inkscape (http://www.inkscape.org/) -->

<svg
   width="210mm"
   height="297mm"
   viewBox="0 0 210 297"
   version="1.1"
   id="svg64"
   inkscape:version="1.1.2 (b8e25be833, 2022-02-05)"
   sodipodi:docname="vector.svg"
   xmlns:inkscape="http://www.inkscape.org/namespaces/inkscape"
   xmlns:sodipodi="http://sodipodi.sourceforge.net/DTD/sodipodi-0.dtd"
   xmlns="http://www.w3.org/2000/svg"
   xmlns:svg="http://www.w3.org/2000/svg">
  <sodipodi:namedview
     id="namedview66"
     pagecolor="#ffffff"
     bordercolor="#666666"
     borderopacity="1.0"
     inkscape:pageshadow="2"
     inkscape:pageopacity="0.0"
     inkscape:pagecheckerboard="0"
     inkscape:document-units="mm"
     showgrid="false"
     inkscape:zoom="0.74029882"
     inkscape:cx="361.34057"
     inkscape:cy="453.87078"
     inkscape:window-width="1920"
     inkscape:window-height="1017"
     inkscape:window-x="-8"
     inkscape:window-y="-8"
     inkscape:window-maximized="1"
     inkscape:current-layer="layer1" />
  <defs
     id="defs61" />
  <g
     inkscape:label="Capa 1"
     inkscape:groupmode="layer"
     id="layer1">
    <path
       id="Coltauco"
       style="fill:#000000;fill-opacity:1;fill-rule:evenodd;stroke:#d39062;stroke-width:1.58528;stroke-linecap:butt;stroke-linejoin:miter;stroke-miterlimit:4;stroke-dasharray:none;stroke-opacity:1"
       d="m 206.27267,28.528084 c -0.74656,-6.92196 -6.18117,-6.03173 -10.94831,-6.2533 -2.20934,-0.36309 -13.9054,-4.0913 -25.36204,-5.27524 -19.72635,2.34044 -24.14754,-6.22466 -29.82577,-7.60859 -0.84242,-0.20612 -8.33453,11.53632 -24.34748,16.63744 -1.28256,6.40429 -4.25683,11.52566 -7.38804,17.24906 -0.88856,4.50221 -5.41321,7.4545 -6.91811,11.70757 -1.893041,4.35865 -1.816441,8.99469 -3.725141,7.71633 0.17722,0.26602 1.87031,11.26646 -2.98429,12.75609 -3.10589,0.95267 -3.5994,3.8303 -2.86954,4.80526 1.89545,4.86876 -7.12602,7.03185 -12.77184,11.17539 -2.35402,6.07643 -0.90306,15.086216 -8.51462,14.900596 -1.95714,0.97902 -3.6809,0.4326 -5.58771,1.86255 -3.88113,2.77698 -3.97397,5.88578 -8.7807,4.78944 -1.58155,-2.81569 -2.929,-4.28962 -6.38594,-3.45907 -2.07686,1.6967 -3.45862,3.70101 -5.32164,5.58776 -3.12204,1.69418 -5.62744,2.34247 -8.51457,-0.53206 -2.6287,-1.74738 -4.68449,-3.11131 -7.98246,-2.12869 -3.46155,3.74978 -6.80993,7.53191 -19.9560799,8.51465 0,0 3.3713809,3.50712 0.995802,7.19183 -2.375497,3.6847 -1.377406,10.93788 -4.42323,14.18196 -3.24876,3.83846 1.650023,6.75037 2.191519,10.13526 -1.463589,3.31095 -0.599159,6.59146 -0.466625,10.01278 -0.09826,3.80982 -1.945158,7.2702 -4.085317,10.28912 -2.26459303,2.81209 -2.23007003,7.6044 1.699922,10.42813 2.192754,3.9391 1.688633,7.10829 4.715872,10.48947 2.7037899,2.99951 4.2211169,6.39638 4.4175669,10.46587 -0.74799,2.67596 -4.5966319,6.41064 -0.50402,8.71812 3.85897,0.58598 9.68403,7.74988 11.08208,8.43472 1.39809,0.68423 1.70351,2.70771 3.07956,4.61928 1.37602,1.91155 0.64134,14.05543 1.82275,16.81168 0.16357,2.76715 -0.5015,7.83424 1.64167,10.13405 1.82973,1.83978 5.42498,3.62875 3.69442,6.68254 0.63248,4.86948 3.74541,8.80225 7.21884,12.76687 3.48564,4.70185 7.40006,9.07391 11.01147,13.53369 2.20861,6.06313 8.67224,-4.61244 3.24246,-14.71606 -15.69707,1.63043 -9.20584,-18.23816 -17.27889,-25.74646 2.84548,-17.34062 12.87737,-11.12579 14.99492,-24.00782 7.81106,-7.0098 2.94997,-20.63408 13.11184,-26.27288 8.80275,-5.5626 3.34005,-6.25773 29.00704,-16.8952 9.988601,6.35624 18.831921,5.6442 26.154401,-4.27429 8.46198,-5.695 19.17659,-6.63772 26.82162,-13.85219 5.40394,-2.30101 1.41425,-11.90853 9.98678,-13.35801 9.973,-5.23149 15.51151,-15.13284 23.98482,-21.95127 2.46433,-3.66828 13.27532,-11.40378 2.08148,-9.93249 -7.47439,-4.7336 9.42656,-15.295446 -1.74656,-21.109086 -5.19039,-3.73696 -6.5693,-4.29357 0.82564,-3.76739 11.28001,-1.30497 7.74965,-19.58615 19.21935,-21.83456 5.90902,-0.79568 9.66395,-12.60749 3.30808,-11.96687 z"
       sodipodi:nodetypes="cccsccccsccccccccccscccccsccsscccccccccccccccccccc"
       inkscape:label="#path1920" />
  </g>
</svg>
