<?xml version="1.0" encoding="UTF-8" standalone="no"?>
<!-- Created with Inkscape (http://www.inkscape.org/) -->

<svg
   width="210mm"
   height="297mm"
   viewBox="0 0 210 297"
   version="1.1"
   id="svg64"
   inkscape:version="1.1.2 (b8e25be833, 2022-02-05)"
   sodipodi:docname="vector.svg"
   xmlns:inkscape="http://www.inkscape.org/namespaces/inkscape"
   xmlns:sodipodi="http://sodipodi.sourceforge.net/DTD/sodipodi-0.dtd"
   xmlns="http://www.w3.org/2000/svg"
   xmlns:svg="http://www.w3.org/2000/svg">
  <sodipodi:namedview
     id="namedview66"
     pagecolor="#ffffff"
     bordercolor="#666666"
     borderopacity="1.0"
     inkscape:pageshadow="2"
     inkscape:pageopacity="0.0"
     inkscape:pagecheckerboard="0"
     inkscape:document-units="mm"
     showgrid="false"
     inkscape:zoom="0.74029882"
     inkscape:cx="361.34057"
     inkscape:cy="561.93525"
     inkscape:window-width="1920"
     inkscape:window-height="1017"
     inkscape:window-x="-8"
     inkscape:window-y="-8"
     inkscape:window-maximized="1"
     inkscape:current-layer="layer1" />
  <defs
     id="defs61" />
  <g
     inkscape:label="Capa 1"
     inkscape:groupmode="layer"
     id="layer1">
    <path
       d="M 0.9315891,118.5463 C 10.082949,105.91747 25.969539,105.96291 43.461399,111.05761 l 12.16317,-0.39237 22.75695,-12.947907 h 18.44096 l 27.465241,-24.71875 7.84721,-11.77083 9.41667,-18.440941 c 3.12169,2.224438 8.25469,4.340781 3.92362,7.847211 -0.11081,5.18649 -5.7228,5.25477 2.74654,11.77082 3.7328,3.61322 14.95362,1.20172 16.8715,5.88541 -0.90006,0.67506 -3.92362,2.01381 -3.92362,3.13888 0.98203,8.16971 0.47071,12.84703 0.39237,21.18749 -1.21924,3.64938 -5.59586,4.60098 -7.0625,8.239587 -1.11876,5.87802 3.5851,5.7235 7.0625,9.41666 0.78132,4.42019 -3.23423,9.13391 2.35416,13.34028 3.16572,1.733 6.59653,4.19757 7.45488,7.84721 1.8683,5.03998 7.2222,7.97984 9.02429,12.94792 3.7793,3.69485 0.32192,7.68482 0.78471,12.16317 1.4725,11.03603 -6.18809,10.26687 9.02432,19.2257 5.53246,2.84552 10.68636,5.90222 14.90971,10.59374 1.90354,2.65169 3.11777,6.34024 4.31596,9.41667 0.43527,2.21736 0.72443,4.48952 0,6.67012 -1.39585,0 -4.76265,3.1932 -5.49304,3.92359 -3.05464,2.22909 -5.65862,0.13623 -10.20141,3.53125 -11.193,-0.19248 -16.10187,1.84095 -25.50346,7.84724 -5.44119,1.48637 -23.02512,4.76537 -27.85762,7.84721 -14.69303,4.72033 -11.00187,7.87927 -18.83329,7.45487 -9.73916,8.36835 -16.14904,2.78781 -19.2257,5.88542 -5.765121,1.75275 -12.372661,1.81496 -17.656251,5.10067 v 10.20137 l -60.0312,-18.83329 -16.8715299,3.53125 c -0.84588,-2.34722 -0.34026,-4.85354 -0.36533,-7.27792 -0.36787,-4.46004 -2.60859,-1.60178 -0.17553,-13.60033 6.1802599,-1.70473 2.40564,-7.50268 0.88803,-11.31668 2.8607999,-1.86515 4.1074899,-6.23435 2.3919499,-9.85614 -0.8515699,-3.88072 -4.8208699,-8.80877 -0.6885099,-12.15575 5.5372599,-6.41719 -5.60202,-13.56515 -1.42446,-12.29244 4.4936299,-3.40174 5.1900299,-8.59234 7.0109299,-13.32202 10.23817,-18.15221 -0.10776,-28.81468 -14.4620699,-40.59968 z"
       style="fill:#000000;fill-opacity:1;fill-rule:evenodd;stroke:#d38d5f;stroke-width:0.89658px;stroke-linecap:butt;stroke-linejoin:miter;stroke-opacity:1"
       id="Arica" />
  </g>
</svg>
