<?xml version="1.0" encoding="UTF-8" standalone="no"?>
<!-- Created with Inkscape (http://www.inkscape.org/) -->

<svg
   width="210mm"
   height="297mm"
   viewBox="0 0 210 297"
   version="1.1"
   id="svg64"
   inkscape:version="1.1.2 (b8e25be833, 2022-02-05)"
   sodipodi:docname="vector.svg"
   xmlns:inkscape="http://www.inkscape.org/namespaces/inkscape"
   xmlns:sodipodi="http://sodipodi.sourceforge.net/DTD/sodipodi-0.dtd"
   xmlns="http://www.w3.org/2000/svg"
   xmlns:svg="http://www.w3.org/2000/svg">
  <sodipodi:namedview
     id="namedview66"
     pagecolor="#ffffff"
     bordercolor="#666666"
     borderopacity="1.0"
     inkscape:pageshadow="2"
     inkscape:pageopacity="0.0"
     inkscape:pagecheckerboard="0"
     inkscape:document-units="mm"
     showgrid="false"
     inkscape:zoom="0.74029882"
     inkscape:cx="361.34057"
     inkscape:cy="237.74183"
     inkscape:window-width="1920"
     inkscape:window-height="1017"
     inkscape:window-x="-8"
     inkscape:window-y="-8"
     inkscape:window-maximized="1"
     inkscape:current-layer="layer1" />
  <defs
     id="defs61" />
  <g
     inkscape:label="Capa 1"
     inkscape:groupmode="layer"
     id="layer1">
    <path
       id="Ovalle"
       style="fill:#000000;fill-opacity:1;fill-rule:evenodd;stroke:#d38d5f;stroke-width:1.16193;stroke-linecap:butt;stroke-linejoin:miter;stroke-miterlimit:4;stroke-opacity:1"
       d="m 145.10116,148.633 -4.65852,2.48759 c -1.90615,-1.1927 -3.67748,-2.58373 -5.52286,-3.86501 -3.13184,-4.84616 -8.35489,3.44408 -9.56542,-1.91072 -1.13306,3.37755 -4.17523,6.52515 -6.41193,1.4757 3.84766,-5.09574 -6.76559,-0.98951 -7.47539,-5.14357 1.2371,-2.04084 1.27649,-11.92719 -2.33192,-7.0964 -0.36889,5.93554 -7.21901,3.64938 -9.31374,7.8557 -3.55566,2.85074 -6.49941,13.56551 -12.02306,7.36135 -3.68636,-4.76892 -10.42999,-2.72075 -9.12724,3.7528 6.53846,3.90712 3.5587,10.78381 3.48545,16.90221 -1.87664,5.57526 2.89355,10.18094 2.19007,15.44009 -5.13333,-2.42251 -9.65655,2.90985 -15.48379,1.66392 -3.75429,3.30091 -7.01608,1.16025 -10.218,-1.43292 -6.18498,-2.16829 -11.13255,3.8665 -11.7583,9.43951 4.40986,0.90506 2.80418,4.97493 1.74116,8.01007 -2.53494,3.85662 -7.79207,10.47473 -0.48843,12.74337 -0.80023,4.76281 -7.18357,10.22683 -2.30398,14.79128 2.19591,5.00764 5.43195,-1.39085 7.90673,1.49712 5.29142,2.35915 3.41052,7.92869 6.12701,11.60328 5.09481,0.69171 4.00285,4.22937 2.69522,7.72417 2.0091,2.52111 1.75447,4.81297 0.86993,7.1 -0.88051,2.27659 -2.38519,4.54838 -2.90256,7.03681 -2.94682,-0.35967 -5.60406,-3.98577 -9.00901,-1.1086 -2.68486,-2.3418 -6.5511,-1.67354 -7.1141,1.30526 -0.84142,-3.2512 -4.93145,-5.54496 -9.55562,-4.77784 1.23912,0.76712 -11.12183,23.7717 -15.82163,12.2173 -3.60103,-11.55439 -3.91389,-14.25959 -2.5587,-22.12552 1.00958,-5.8597 1.00527,-10.50702 -0.0132,-13.4263 -1.47719,-4.2375 -1.15551,-9.82488 1.23297,-21.4145 0.78811,-3.82429 0.0439,-7.27601 -2.89636,-13.43517 -2.17632,-4.55874 -4.41829,-12.20066 -4.9820996,-16.98196 -0.56383,-4.78135 -1.73404,-10.91183 -2.60049,-13.62322 -1.50506,-4.70985 -8.15324103,-31.18047 -4.60073,-35.77088 4.51891,-5.8391 1.48632,-11.63138 -1.165982,-21.83103 -1.44608203379,-5.56098 -0.80839303,-13.21107 0.09029,-16.596391 0.898302,-3.38391 3.521152,-9.73045 1.926962,-19.65997 -1.226957,-7.64214 1.61617,-19.88646 2.28017,-27.47159 0.67814,-7.74666 1.34464,-14.38946 0.91308,-14.82102 -0.43156,-0.43169 0.15498,-2.65047 1.88439,-4.82412 6.9882796,-1.23561 10.8842896,1.9831 16.0186396,2.94493 l 1.16196,9.77306 c 5.33042,-0.73089 8.04853,3.76281 11.78254,6.22472 l 18.67429,0.44464 -0.44464,14.89497 5.78012,-0.88925 c 1.94093,15.60851 9.98569,5.90559 15.11726,2.44544 7.46025,15.94292 7.68768,4.92711 8.89251,-2.44544 l 6.22476,-5.33551 c 2.46151,-4.09197 0.17303,-15.57281 7.55866,-12.00489 l 4.00163,-0.22221 v -7.11401 c -2.63656,-0.97308 -2.81609,-5.63169 -4.22393,-8.44786 h 2.00079 l 0.22221,-5.78012 12.00489,-3.55703 0.44464,-2.44543 4.12029,1.15326 3.21822,0.68961 -0.68965,11.03387 12.18322,6.20654 -0.22967,5.51693 22.27479,-4.21466 4.51364,13.13057 -6.56528,7.38598 c 10.13737,6.15226 8.9037,14.19978 13.13057,21.33716 l 4.92394,2.05164 17.64421,-4.92394 -0.41017,-8.61693 c 5.74214,2.76659 7.13869,0.10144 8.61693,-2.462 l 3.69295,8.20659 7.88183,4.62343 c -5.84235,0.36142 -10.06518,3.39506 -10.67714,9.7077 -4.25463,-2.44829 -10.61008,1.82939 -15.68861,3.78254 -7.05622,3.67547 -0.15239,14.098911 -7.55593,17.630201 -3.84832,-2.64077 -11.02351,-3.15687 -10.16377,3.71214 5.34426,4.25194 1.06372,9.1455 -1.9571,12.65597 l -0.49089,6.58167 z"
       sodipodi:nodetypes="cccccccccccccccccccccscccccsssssssssssscccccccccccccccccccccccccccccccccccccccc"
       inkscape:label="#path1896" />
  </g>
</svg>
