<?xml version="1.0" encoding="UTF-8" standalone="no"?>
<!-- Created with Inkscape (http://www.inkscape.org/) -->

<svg
   width="210mm"
   height="297mm"
   viewBox="0 0 210 297"
   version="1.1"
   id="svg1283"
   inkscape:version="1.1.2 (b8e25be833, 2022-02-05)"
   sodipodi:docname="vector.svg"
   xmlns:inkscape="http://www.inkscape.org/namespaces/inkscape"
   xmlns:sodipodi="http://sodipodi.sourceforge.net/DTD/sodipodi-0.dtd"
   xmlns="http://www.w3.org/2000/svg"
   xmlns:svg="http://www.w3.org/2000/svg">
  <sodipodi:namedview
     id="namedview1285"
     pagecolor="#ffffff"
     bordercolor="#666666"
     borderopacity="1.0"
     inkscape:pageshadow="2"
     inkscape:pageopacity="0.0"
     inkscape:pagecheckerboard="0"
     inkscape:document-units="mm"
     showgrid="false"
     inkscape:zoom="0.74029882"
     inkscape:cx="361.34057"
     inkscape:cy="561.93525"
     inkscape:window-width="1920"
     inkscape:window-height="1017"
     inkscape:window-x="-8"
     inkscape:window-y="-8"
     inkscape:window-maximized="1"
     inkscape:current-layer="layer1" />
  <defs
     id="defs1280" />
  <g
     inkscape:label="Capa 1"
     inkscape:groupmode="layer"
     id="layer1">
    <path
       d="m 97.877586,66.395578 -47.19774,3.37112 -11.23755,0.60523 h -1.38307 l -1.29665,1.38303 h -1.29666 l -0.69156,0.60524 h -0.69157 l -0.60504,0.69156 h -1.3831 v 0.69156 l -0.60505,0.60523 v 1.38304 l -0.69156,0.69156 h -0.69157 l -0.60504,0.60523 h -0.69157 v -2.67964 h -1.29664 l -0.69157,0.69156 h -1.29663 l -0.69156,0.69156 v 0.69157 h -1.98816 l -0.69157,0.60523 v 0.69156 h -1.98819 l -0.69156,0.69156 h -0.60505 l -1.3831,1.29661 h -5.273 l -0.69157,0.69157 h -0.60514 l -1.3830901,1.29661 h -2.679724 l -1.296639,1.29661 v 0.69156 l 0.691563,0.69157 h -0.691563 l -0.691563,0.60523 1.383089,1.38303 h -0.691563 v 1.29661 l -0.691562,0.69157 v 1.29661 l -0.605049,0.69156 h -0.691563 l -0.691562,0.60523 h -0.605049 l -0.691563,0.69156 v 3.37121 l -0.69156203,0.60523 v 0.69157 l 0.69156203,0.69156 h 0.691563 l 0.605049,-0.69156 h 0.691562 v 0.69156 l 1.296639,1.29661 0.691563,-0.69156 0.691563,0.69156 h 1.296638 v 0.69156 h 1.383091 v 0.60524 h 0.60514 l 0.6915601,0.691562 -0.6915601,0.69156 h -0.60514 l -0.69156,0.60523 h -0.691567 l -0.691563,-0.60523 -1.296639,1.29661 -0.691563,-0.69156 v -0.60523 l -1.296638,1.29661 v 0.69156 h -0.691563 l -0.605049,0.60523 0.605049,0.69157 h 0.691563 l 0.691562,0.69156 h 0.605049 l 0.691563,0.60523 h 0.691562 l -0.691562,0.69157 h -1.988184 v 1.29661 l -0.691562,0.69156 -0.605049,-0.69156 -0.691563,-0.60524 -0.69156203,0.60524 0.69156203,0.69156 v 0.69156 l 0.691563,0.69156 -0.691563,0.60524 v 0.69156 l 0.691563,0.69156 h 1.296639 v 0.60523 l -0.691563,0.69157 0.691563,0.69156 h 0.691563 l -0.691563,0.60523 v 1.38304 h 0.691563 l 0.605048,0.60523 h 0.691563 l 0.691563,0.69156 h 0.605048 l 0.691563,0.69156 h 0.691564 l 1.29664,0.60524 h 1.3830901 l 0.60514,0.69156 h 0.69156 l 0.69156,0.69156 h 0.60505 l 0.69156,0.60523 h 0.69157 l 1.98818,1.98809 h 0.60505 l 0.69156,-0.60524 h 0.69156 v 2.59323 h -1.38309 l -0.60505,-0.60524 h -0.69157 l -0.69156,0.60524 v 1.38303 l 0.69156,0.69156 h 0.69157 v 1.29661 h 1.29665 l 0.69156,0.69157 v 0.60523 l 0.60505,0.69156 v 0.69156 l -0.60505,0.60524 v 1.38312 l 0.60505,0.60523 v 0.69157 l -0.60505,0.69156 v 0.60523 l 1.29662,1.38304 h 0.69156 v 1.29661 l 1.29663,0.69156 h 0.69156 v 1.29661 l 1.29663,1.29661 v 1.38313 l 1.3831,1.29661 h 0.60514 v 0.69156 l 1.38307,0.69156 v 0.60524 h 1.29665 l 1.29663,1.38303 v 1.29661 l 0.69156,0.69156 v 0.60524 l 0.69157,0.69156 1.29662,-1.29661 h 1.29666 l 1.38307,1.29661 h 1.98819 v 1.29661 l -0.69156,0.69156 v 7.34738 l -0.69156,0.60523 v 2.67964 l 0.69156,0.69157 v 0.60523 l 3.28481,3.37121 h 1.3831 l 0.69157,0.60523 h 0.60504 l 0.69157,0.69156 h 1.29663 l 0.69156,-0.69156 h 1.29665 v 0.69156 l 1.38308,1.29661 v 0.69156 l 0.60514,0.69157 h 0.69156 l 0.69156,0.60523 h 0.60505 v 1.38312 l 0.69156,0.60524 v 0.69156 h 0.69157 l 1.29663,1.38303 h 0.69156 l 2.59328,2.59323 h 0.69156 l 1.38307,1.38303 v 0.60523 h 0.60514 l 1.38308,1.38313 v 1.29661 l 1.29665,1.29661 v 1.38303 l 0.69156,-0.69156 0.60505,0.69156 v 0.60524 l 0.69156,0.69156 v 3.97626 l -0.69156,0.69156 v 3.28469 l 1.3831,1.38303 h 0.60505 l 1.38309,1.29662 0.60505,-0.69157 v -0.60523 l 1.38308,-0.69156 v 0.69156 l 3.28487,3.28479 h 0.69156 l 1.29661,1.29661 v 0.69156 l -0.69156,0.69156 v 1.29661 l -1.29661,1.29662 v 0.69156 l -0.69156,0.69156 v 2.67965 l -0.60505,0.60523 v 1.38303 l -1.98819,1.98818 v 0.60523 l -0.69157,0.69156 v 2.67965 h 1.29665 l 0.69156,0.60523 h 0.69157 l 1.98825,1.98817 h 0.60524 l 0.69156,0.69157 h 0.69156 l 1.98818,1.98808 v 0.69156 l 2.67964,2.67965 h 0.60523 v 0.60523 l 1.38313,1.38303 v 0.60523 l 1.29661,1.38304 h 1.98817 l 0.69157,0.60523 h 0.60523 l 0.69156,-0.60523 0.69156,0.60523 0.60524,-0.60523 h 1.38303 l 0.60523,-0.69157 h 0.69156 l 0.69157,-0.69156 0.69156,0.69156 2.59331,-2.67964 h 0.69157 l 0.69156,-0.60523 0.60523,0.60523 h 0.69157 l 1.29661,-0.60523 0.69156,0.60523 h 0.69156 l 0.605234,-0.60523 v -0.69157 l 0.69157,-0.69156 v -1.29661 h 2.67973 l 1.29662,1.29661 h 0.69156 l 0.60523,-0.69156 h 4.66791 l 1.98827,-1.98808 0.69156,-0.60524 h 0.69156 l 1.29661,-1.38303 v -0.60523 l 0.69157,-0.69156 h 1.29661 v -0.69157 l 0.69156,-0.60523 h 1.2967 l 1.98818,-1.98817 v -1.98809 l 0.69156,-0.69156 0.60523,0.69156 h 0.69157 l 1.38303,1.29662 h 1.2967 l 0.69156,-0.69157 v -1.29661 l 0.60524,-0.69156 v -1.98818 l 1.38312,-1.29661 v -0.69156 l 0.60523,-0.69156 v -0.60523 l 0.69157,-0.69157 0.69156,-0.69156 h 2.59322 l 1.38313,1.38303 h 2.59331 l 0.69157,0.60524 0.69156,-0.60524 v 1.98818 h 1.98817 v 0.69156 l 0.69157,0.60523 h 2.59331 l 1.98817,1.98818 h 0.69157 v 1.98808 h 0.69156 l 1.2967,0.69156 0.69156,-0.69156 h 2.59323 l 0.69156,-0.60523 h 2.67974 l 0.60523,0.60523 v 0.69156 h 1.38303 l 0.69157,-0.69156 h 0.60523 l 0.69156,0.69156 h 0.69156 l 1.29661,0.69156 -0.69156,0.60524 0.69156,0.69156 h 1.29671 v 0.69156 l 1.38303,1.29661 v 1.29662 l 0.60523,0.69156 h 1.38304 l 1.2967,-1.29671 h 1.98817 l 1.29662,0.60524 0.69156,-0.60524 1.29661,1.29671 h 0.69156 l 0.69157,-0.69156 h 2.67964 v -1.29662 l 0.60523,-0.69156 h 0.69157 v -0.60523 l 1.29661,-0.69156 v -0.69157 l -0.60524,-0.60523 v -1.38303 h 2.59323 l 0.69156,-0.60523 v -0.69157 h 0.69156 l 1.29661,-1.29661 h 0.69157 l 0.60523,-1.38303 V 209.201 h 0.69156 l 0.69156,-0.69157 h 1.29662 v 0.69157 l 0.69156,0.60523 h 0.60523 l 0.69156,0.69156 h 1.38304 l 1.98817,-1.98817 h 0.60523 l 0.69157,-0.69157 v -0.69156 l 1.2967,-1.29661 h 1.38303 v -1.29661 h 1.98827 v -1.38313 l 0.60523,-1.29652 v -0.69156 l 0.69156,-0.60523 1.29661,0.60523 1.38313,-1.29661 v -0.69156 l 0.60523,-0.60524 h 0.69157 l 1.2967,-0.69156 h 0.69156 v -0.69156 l 1.38313,-1.29661 h 0.60523 l 0.69156,-0.69157 v -1.29661 l -0.69156,-0.69156 v -1.29652 l -0.60523,-1.38312 -0.69157,-0.60524 v -0.69156 l -0.69156,-0.69156 v -0.60523 l -0.69156,-0.69157 v -0.69156 l -1.2967,-1.29661 h -0.69157 v -1.29661 l -0.60523,-0.69157 0.60523,-0.69156 v -1.98817 l -0.60523,-0.60523 v -3.37121 l 0.60523,-0.60523 -1.29661,-1.38304 v -0.69156 l 0.69156,-0.60523 v -2.67974 l -1.38312,-1.29661 0.69156,-0.69156 -0.69156,-0.69157 v -0.60523 l -0.60523,-0.69156 v -2.67965 h -1.38313 l -0.60523,-1.29661 v -0.69156 h -4.668 l -0.69157,0.69156 h -0.60523 l -1.38303,-0.69156 h -0.60523 v 0.69156 l -0.69157,0.69157 h -0.69156 l -0.69156,-0.69157 v -3.97625 l 0.69156,-0.69157 -0.69156,-0.69156 v -1.29661 l -1.29671,-1.29661 0.69157,-0.69156 v -0.69157 l -0.69157,-0.60523 v -2.67964 l 0.69157,-0.69157 v -1.29661 h -0.69157 l -0.69156,-0.69156 v -0.60523 l -1.2967,-1.38304 h -1.29661 l -1.98818,-1.98808 v -0.60523 l -1.38312,-1.38304 v -1.98817 l -0.60524,-0.69156 h -0.69156 v -1.98818 l 0.69156,-0.60523 v -1.38303 l -0.69156,0.69156 h -1.29661 v -1.29661 l 0.60523,-0.69156 v -1.98818 l 0.69157,-0.69156 v -1.98808 l 0.69156,-0.60523 v -1.38304 l -1.38313,-1.29661 v -1.38303 h 0.69157 l 0.69156,-0.60524 v -1.38312 l -0.69156,-1.29661 -0.69157,-0.69156 v -1.29662 h -0.60523 l -0.69156,0.69157 h -1.29671 l -0.69156,-0.69157 1.29661,-1.29661 v -0.69156 h -3.28478 v -1.29661 l -0.69156,-0.69156 0.69156,-0.69157 v -1.29661 l -0.69156,-0.69156 h 0.69156 v -1.29661 h 0.69156 l 0.60523,-0.69157 -0.60523,-0.60523 h -1.38312 l -1.98818,-2.0745 h -0.69156 l -0.60523,-0.60523 v -0.69157 l 0.60523,-0.69156 v -1.29661 l -0.60523,-0.69156 0.60523,-0.60524 v -0.69156 l -0.60523,-0.69156 v -0.60523 l -0.69157,-0.69157 v -0.691562 l -0.69156,-1.29661 h -1.29661 l -0.69156,-0.69156 h -0.60524 v -2.59323 l -0.69156,-0.69156 h -0.69156 l -1.2967,-1.29661 v -0.69156 l -0.69157,-0.69157 h -1.2967 l -0.69156,0.69157 h -1.29661 l -0.69157,0.69156 h -0.60523 l -1.38312,1.29661 h -0.69157 v 0.69156 l -1.98826,1.98809 h -0.60524 l -1.38312,1.29661 h -0.60523 v 0.69156 l -1.38313,1.296612 v 2.67965 l -0.60523,0.60523 v 0.69156 l -0.69156,0.69156 h -1.29671 l -1.38303,-1.38312 h -0.60523 l -1.38304,-1.29661 h -0.60523 l -0.69156,-0.69157 h -0.69156 l -0.60524,-0.60523 v -0.69156 l -0.69156,-0.691562 h -4.66791 v 0.691562 l -0.69156,0.69156 h -1.29661 l -1.29662,-1.383032 v -0.60523 l -1.38312,0.60523 v 0.691562 l -1.29661,-0.691562 v -0.60523 l -0.69156,-0.69157 -0.60524,0.69157 h -1.98817 l -0.69156,-0.69157 h -0.69157 l -0.60523,-0.69156 h -0.69156 v -0.60523 l -1.38313,-1.38303 -0.60523,0.69156 h -1.98817 l -0.69157,-0.69156 h -3.28487 l -0.69157,-0.60524 h -3.28478 l -0.69156,-0.69156 h -2.67974 v -0.69156 l -0.60523,-0.60523 v -2.67965 l -0.69157,-0.69156 v -3.2847 l -0.69156,-0.69156 v -0.69156 l 0.69156,-0.60523 1.29662,0.60523 v -1.29661 l 0.69156,-0.69157 h 0.69156 l 1.29661,-1.29661 h 0.69157 l -1.38313,-1.29661 h -0.60523 l -0.69157,-0.69156 v -0.69156 h -0.69156 l -1.98817,-1.98818 v -0.60523 h -0.69156 l -1.29662,-0.69156 v -1.38304 h -0.69156 v -2.59322 l -1.29661,-1.38303 h -0.69156 l -1.29661,-1.29661 v -0.69157 l -1.988184,-1.98808 z"
       style="fill:#000000;fill-opacity:1;fill-rule:evenodd;stroke:#d38d5f;stroke-width:1.21498;stroke-linecap:butt;stroke-linejoin:miter;stroke-miterlimit:4;stroke-dasharray:none;stroke-opacity:1"
       id="Los_Sauces" />
  </g>
</svg>
