<?xml version="1.0" encoding="UTF-8" standalone="no"?>
<!-- Created with Inkscape (http://www.inkscape.org/) -->

<svg
   width="210mm"
   height="297mm"
   viewBox="0 0 210 297"
   version="1.1"
   id="svg1283"
   inkscape:version="1.1.2 (b8e25be833, 2022-02-05)"
   sodipodi:docname="vector.svg"
   xmlns:inkscape="http://www.inkscape.org/namespaces/inkscape"
   xmlns:sodipodi="http://sodipodi.sourceforge.net/DTD/sodipodi-0.dtd"
   xmlns="http://www.w3.org/2000/svg"
   xmlns:svg="http://www.w3.org/2000/svg">
  <sodipodi:namedview
     id="namedview1285"
     pagecolor="#ffffff"
     bordercolor="#666666"
     borderopacity="1.0"
     inkscape:pageshadow="2"
     inkscape:pageopacity="0.0"
     inkscape:pagecheckerboard="0"
     inkscape:document-units="mm"
     showgrid="false"
     inkscape:zoom="0.52347032"
     inkscape:cx="155.69173"
     inkscape:cy="458.47872"
     inkscape:window-width="1920"
     inkscape:window-height="1017"
     inkscape:window-x="-8"
     inkscape:window-y="-8"
     inkscape:window-maximized="1"
     inkscape:current-layer="layer1" />
  <defs
     id="defs1280" />
  <g
     inkscape:label="Capa 1"
     inkscape:groupmode="layer"
     id="layer1">
    <path
       d="m 27.00432,74.883153 c -3.92499,0.63763 -5.16551,1.73818 -4.36511,6.04409 -0.81491,1.76213 -3.066,5.93128 -0.78381,6.82749 2.6208,2.02226 3.86869,2.50831 7.21566,1.79085 1.92191,0.29445 2.77063,4.74582 1.29071,6.56083 -3.31131,1.99313 0.70813,5.042227 -2.16524,7.222707 -1.00776,2.65772 -2.43294,3.54511 -3.34273,6.28691 -2.91141,2.02745 -2.55237,4.76697 -5.35555,6.2389 -3.69793,1.98556 -0.12649,4.73307 -1.11258,7.93313 1.49733,2.11879 2.28893,5.05903 0.78381,7.46335 0.86469,3.68985 2.17872,4.16864 -1.67888,6.42263 0.45205,3.3055 -0.46759,5.9883 -0.89579,8.89464 0.62934,2.63429 2.65119,5.04286 1.79086,8.23017 2.06,2.20142 2.00536,5.59153 5.53678,5.26048 4.43146,-0.005 -0.82839,1.79573 -2.06705,3.35786 -1.14234,2.30676 -5.33959,0.2478 -7.46439,-0.62104 -3.14626,0.22395 -5.3889404,-1.29972 -8.0934204,-0.16174 -1.62921,-1.32284 -5.39319003,2.42911 -5.14861,4.12468 -1.15934003,2.55507 0.62311,5.62056 0,8.76608 -1.81376003,3.08726 2.1755,2.62527 3.8351,3.70405 2.84195,-0.0415 1.89899,2.07359 5.8167204,0.5298 3.01396,-0.79729 6.8589,1.31372 8.6452,-0.23535 2.13776,-0.70398 5.08941,-3.23137 6.66264,-2.33869 2.75911,0.85328 6.2417,0.10471 8.3355,2.30924 3.18596,1.75478 3.74656,-5.2104 5.63228,-0.31725 2.57881,2.01013 5.10174,-1.82849 7.91031,-1.09631 2.79706,0.70398 4.01509,0.47382 7.20613,0 2.79861,0.29238 6.52931,-0.51321 6.95615,-3.60783 1.23286,-2.86829 -0.80766,-4.71575 2.68623,-5.90589 -0.0622,-2.75444 4.51254,-1.3331 5.66535,-4.25323 1.48189,-2.9447 4.03727,-2.62506 5.78074,0.36599 0.58787,3.55257 3.00463,3.51203 5.09605,4.20056 2.64372,1.33508 6.60748,-0.51736 8.28916,3.14055 1.33103,2.18836 3.23075,4.58045 4.38149,6.84387 1.62932,2.78431 6.06524,1.12876 6.82759,4.88195 1.48033,3.48529 3.50571,2.48831 5.66535,0.37843 2.07079,0.48211 5.12487,3.76791 2.05752,5.66545 2.18784,-0.53187 5.26576,-0.12856 5.51408,3.20639 2.65688,2.62983 5.8246,0.0829 4.78324,-3.4661 3.25729,-2.4064 -2.22506,-5.05541 0,-7.19659 3.01707,0.93622 5.67333,0.94866 5.14861,5.02005 -0.52773,2.6941 6.77171,2.05637 3.46973,5.27727 -2.56222,2.85709 1.64311,5.30859 4.12468,5.14861 3.52364,-0.9694 5.95233,1.57479 6.17254,4.88195 3.05429,1.223 0.0933,6.90712 4.12468,6.31075 3.29151,-1.98494 1.11134,3.44641 -0.65525,4.36511 2.01562,2.07639 5.5936,-1.84228 7.72296,0.78382 -0.77759,4.20015 4.0549,1.86819 5.66535,0.89579 2.29919,2.86331 3.77268,-4.71586 5.99557,-1.46033 2.56326,1.39407 4.18522,4.17558 7.39275,4.03468 2.46062,1.49143 4.7678,1.55996 5.74134,3.30509 3.12479,-0.16692 4.09098,3.218 4.31493,-0.61378 2.34917,-1.8625 5.27894,-0.50803 7.85174,0.80974 3.11131,1.64476 6.41142,-1.37583 9.6091,-1.86291 2.52874,-1.50346 7.1378,-0.9269 8.09196,-4.00462 1.40019,-4.83446 3.43002,-9.4231 5.55369,-13.97514 -1.82331,-2.8884 -5.04535,-2.41428 -6.04399,-4.25324 -2.06923,-1.14068 -4.76375,-2.35383 -6.98062,-2.13724 -2.3276,-0.27993 -4.4466,-3.27367 -7.68171,-2.22786 0.55987,-3.50996 -3.45324,-2.52376 -4.25323,-3.35786 -1.89225,-1.48511 -4.47014,-2.98918 -6.40946,-2.15622 -2.99104,0.41679 -4.52508,-0.48211 -2.99239,-3.75921 1.5612,-1.00154 4.18274,-6.70131 0.76723,-5.68629 -1.56172,-0.0207 -3.87699,-2.46072 -6.30381,-2.16524 -0.63866,-1.55653 1.00465,-5.10755 1.56069,-7.27974 1.04851,-2.45564 2.59125,-4.95151 2.18535,-7.90907 -1.24477,-1.82237 1.68655,-5.57473 -1.67888,-7.19659 -2.1726,0.0622 -6.01381,-2.71982 -5.47945,-4.33535 2.59613,-2.57498 -0.83773,-5.66379 1.45234,-8.50564 1.13394,-2.53817 3.66859,-4.19559 4.93907,-6.56093 3.30831,-0.53602 5.63072,-3.05813 1.6624,-4.66225 -2.6432,-0.23224 0.80766,-4.88236 -3.46973,-4.25324 0.72679,-1.78577 3.51358,-6.95159 0.24053,-6.93946 -2.27835,-1.54389 -5.54145,1.18661 -5.90588,-1.67888 -4.64878,-1.05048 -0.60445,5.23435 -4.63177,2.57436 -3.11557,0.46137 -5.10953,-2.14295 -7.34433,-3.46973 -3.67844,0.9808 -4.75847,-1.46551 -7.15346,-3.3052 -0.62622,-2.94221 -4.23468,-3.0997 -6.34683,-4.41777 -3.10706,0.92378 -5.55172,-2.15436 -7.98974,0 -2.89369,0.6594 -5.85622,-2.22911 -8.04883,-0.94763 1.26644,-4.19103 -5.71138,3.03397 -3.28674,-1.00776 1.08241,-2.73569 -4.96323,-1.48241 -6.11511,0.11197 -2.43936,1.62725 -5.21092,3.98398 -5.31315,-0.60238 -0.8512,-2.41552 -1.5076,-6.171717 -0.10368,-8.629227 0.82011,-3.01198 -0.91652,-5.74736 -0.68117,-8.73602 -1.5075,2.27183 -3.20442,1.93124 -4.87158,2.13113 1.45524,3.96615 -3.57258,1.89412 -5.00761,1.70408 -0.96732,3.40431 -4.6129,3.2548 -5.28971,4.34001 -0.6988,-1.24643 -3.96968,1.43741 -6.33066,1.33861 -2.7869,0.96007 2.0601,6.221067 -2.81479,6.043977 -4.14666,1.63254 -3.77383,-2.55984 -6.15938,-3.10426 -3.17435,1.48137 -1.60786,3.79114 -0.5298,5.29998 -0.81078,2.1331 -4.36926,4.76002 -1.67899,7.20613 1.02954,3.26071 -1.61843,5.47758 -4.3651,6.04409 -2.51609,-1.94938 -5.85529,-0.28719 -7.72297,1.67888 -0.56091,2.60172 -6.12963,2.64921 -7.45776,0.28304 -2.46839,0.0518 -4.49304,0.75686 -7.86915,0.61275 -2.28499,-0.24987 -5.24473,-2.49411 -3.58866,-4.76998 -0.55986,-3.0998 -5.03674,-3.17818 -4.25323,-6.8109 -0.61378,-3.20763 0.85535,-5.65498 2.57436,-7.85153 1.29847,-2.036157 1.0992,-5.519157 1.3386,-7.595027 -2.36078,-2.88809 3.50685,-5.30776 0.50492,-8.0648 -0.57542,-2.62993 -2.11869,-4.59983 -3.22526,-7.12059 -0.42405,-2.94542 -4.69014,-1.23554 -6.7066,-2.81126 -2.03906,-2.8996 -4.4073,0.45619 -6.57399,-1.42539 h -0.51633 z"
       style="fill:#000000;fill-opacity:1;stroke:#d39062;stroke-width:1.37159;stroke-miterlimit:4;stroke-dasharray:none;stroke-opacity:1"
       id="Osorno" />
  </g>
</svg>
