<?xml version="1.0" encoding="UTF-8" standalone="no"?>
<!-- Created with Inkscape (http://www.inkscape.org/) -->

<svg
   width="210mm"
   height="297mm"
   viewBox="0 0 210 297"
   version="1.1"
   id="svg1283"
   inkscape:version="1.1.2 (b8e25be833, 2022-02-05)"
   sodipodi:docname="vector.svg"
   xmlns:inkscape="http://www.inkscape.org/namespaces/inkscape"
   xmlns:sodipodi="http://sodipodi.sourceforge.net/DTD/sodipodi-0.dtd"
   xmlns="http://www.w3.org/2000/svg"
   xmlns:svg="http://www.w3.org/2000/svg">
  <sodipodi:namedview
     id="namedview1285"
     pagecolor="#ffffff"
     bordercolor="#666666"
     borderopacity="1.0"
     inkscape:pageshadow="2"
     inkscape:pageopacity="0.0"
     inkscape:pagecheckerboard="0"
     inkscape:document-units="mm"
     showgrid="false"
     inkscape:zoom="0.52347032"
     inkscape:cx="155.69173"
     inkscape:cy="611.30496"
     inkscape:window-width="1920"
     inkscape:window-height="1017"
     inkscape:window-x="-8"
     inkscape:window-y="-8"
     inkscape:window-maximized="1"
     inkscape:current-layer="layer1" />
  <defs
     id="defs1280" />
  <g
     inkscape:label="Capa 1"
     inkscape:groupmode="layer"
     id="layer1">
    <path
       id="Padre_Hurtado"
       style="fill:#000000;fill-opacity:1;stroke:#d38d5f;stroke-width:2.03638;stroke-miterlimit:4;stroke-dasharray:none;stroke-opacity:1"
       d="m 147.05562,191.15272 0.53573,7.03588 17.08153,15.54227 5.30733,-5.04819 7.41625,-1.12403 14.86807,-27.66054 13.13984,1.0364 3.42433,-10.08037 L 189.27254,151.89109 167.444,131.9823 c 1.91972,-0.0843 3.20242,-1.32457 4.58729,-2.57162 1.93809,-0.95888 1.64812,-1.5706 1.18823,-3.5647 0.24604,-2.34664 1.59454,-3.35321 3.39482,-4.5829 2.67281,0.27131 3.99426,-0.17358 5.77117,-1.35828 0.43394,-4.01162 -0.71587,-6.91741 -3.90402,-9.16597 -7.62452,-4.42989 -7.73731,11.05508 -15.61616,10.86331 -3.81565,-1.43579 -7.74399,-2.34209 -11.71209,-3.22497 -2.55674,0.36232 -5.01127,1.02629 -7.63834,1.18807 -6.44654,-1.96562 -10.36822,0.2275 -16.29513,2.0369 -7.26091,-0.0506 -10.85853,-6.97538 -16.63458,-10.18434 -4.03228,2.7976 -9.16945,7.8596 -14.088479,5.26187 -2.31528,-1.8485 -4.35904,-3.92315 -6.78964,-5.60144 -2.06348,-0.94203 -4.00785,-0.65554 -6.11066,-0.17021 -1.16009,0.28986 -1.77569,1.20829 -3.05533,1.52848 -2.49671,-0.74317 -2.72143,-1.71065 -2.54612,-4.0738 0.24183,-2.576 -0.75699,-3.54448 -2.8856,-4.58307 -2.0559,-1.12909 -3.05831,-3.05494 -4.07376,-5.092174 -0.44287,-0.88473 -3.05304,-1.78177 -4.07378,-2.03691 -5.44157,-0.48196 -6.75028,-3.3495 -7.29886,-7.97774 -3.17236,-4.15334 -7.4938,-5.1016 -12.39106,-5.7713 -4.73256,-0.13482 -9.6689,2.77114 -13.40953,3.9041 1.41709,1.64813 0.44742,2.24924 -0.7912,3.9705 -1.45264,0.72632 0.17712,3.85389 0.49478,5.44202 0.48078,2.4036 -0.53657,4.508424 -1.97895,6.431574 -0.79306,5.4801 -2.41056,6.27467 -3.71054,10.88437 0.97522,4.12082 -1.05106,3.79878 -1.23677,11.87359 0.13313,4.27771 -2.02088,8.10345 -2.96842,12.36853 0.002,5.88792 -2.1463,5.89719 -6.4316,9.64743 -2.06947,5.20845 -4.51263,3.59285 -8.9052874,6.67896 -0.183687,1.78934 -2.352523,5.72024 -6.431602,4.94741 -1.68916,1.91152 -0.425681,7.35978 -0.247387,10.8842 0,1.96697 3.228793,0.75497 4.69999,2.22632 1.287999,1.19986 -0.853217,4.32338 0.247388,5.68958 2.675222,2.02628 0.525782,1.36164 2.968413,3.71047 1.7460034,1.74604 5.1947454,-1.23188 5.1947454,1.23694 0,1.63127 -0.75042,6.6193 -1.97894,6.92634 -1.289857,0.32187 3.11593,4.50033 3.71054,5.68957 0.67576,1.35153 -0.12471,3.95787 1.73157,3.95787 3.31419,0.6943 4.01774,2.2644 5.93688,2.4737 0.87041,-0.86956 4.16181,-1.44085 4.94738,-2.22632 3.65899,-1.33636 8.01338,-0.33872 11.87372,0.24773 8.44655,-0.16852 16.81137,-0.50893 25.23166,0 0.89198,0 2.33778,1.84293 2.96843,2.4737 1.4968,-1.0583 3.58138,-2.96039 2.96843,-7.91589 2.44216,-1.85187 4.98714,-3.69008 6.92635,-6.18418 4.04087,-1.80114 0.34361,5.00083 4.45262,2.22632 1.92608,-2.99494 4.30921,-2.43798 6.4316,-5.1948 3.16877,0.72464 1.69078,5.39281 5.44213,5.68957 1.59774,-2.80956 5.907389,-7.63513 6.431609,-8.16328 l 24.73692,-0.49544 0.24739,6.43156 3.95793,1.97893 z"
       sodipodi:nodetypes="ccccscccccccccccccccccccccccccccscccccccccccssscccccccccccccccc" />
  </g>
</svg>
