<?xml version="1.0" encoding="UTF-8" standalone="no"?>
<!-- Created with Inkscape (http://www.inkscape.org/) -->

<svg
   width="210mm"
   height="297mm"
   viewBox="0 0 210 297"
   version="1.1"
   id="svg64"
   inkscape:version="1.1.2 (b8e25be833, 2022-02-05)"
   sodipodi:docname="vector.svg"
   xmlns:inkscape="http://www.inkscape.org/namespaces/inkscape"
   xmlns:sodipodi="http://sodipodi.sourceforge.net/DTD/sodipodi-0.dtd"
   xmlns="http://www.w3.org/2000/svg"
   xmlns:svg="http://www.w3.org/2000/svg">
  <sodipodi:namedview
     id="namedview66"
     pagecolor="#ffffff"
     bordercolor="#666666"
     borderopacity="1.0"
     inkscape:pageshadow="2"
     inkscape:pageopacity="0.0"
     inkscape:pagecheckerboard="0"
     inkscape:document-units="mm"
     showgrid="false"
     inkscape:zoom="0.74029882"
     inkscape:cx="361.34057"
     inkscape:cy="21.612894"
     inkscape:window-width="1920"
     inkscape:window-height="1017"
     inkscape:window-x="-8"
     inkscape:window-y="-8"
     inkscape:window-maximized="1"
     inkscape:current-layer="layer1" />
  <defs
     id="defs61" />
  <g
     inkscape:label="Capa 1"
     inkscape:groupmode="layer"
     id="layer1">
    <path
       id="Copiapo"
       style="fill:#000000;fill-opacity:1;fill-rule:evenodd;stroke:#d38d5f;stroke-width:0.601048;stroke-linecap:butt;stroke-linejoin:miter;stroke-miterlimit:4;stroke-opacity:1"
       d="m 158.87922,156.08854 c 0,0.38845 -0.0989,1.97004 -1.9063,0.57213 -1.80732,-1.39793 -3.03984,-3.55376 -4.47787,-5.32087 -3.98296,-0.81677 -0.74515,-1.9672 -2.07174,-4.59218 2.08368,-3.2343 -2.01581,-4.9066 -4.20064,-6.80958 0.9786,-3.61981 -1.03119,-5.22641 -3.07246,-8.1314 0.0938,-3.15763 -2.86309,-4.56517 -6.08517,-4.01242 -3.20942,3.08291 -5.26892,-1.04539 -6.56959,-0.59723 -2.76165,2.44248 -4.78065,5.51517 -7.16684,8.36132 0.57285,4.58747 -4.37838,4.32803 -3.93723,8.26565 1.26066,3.40614 -2.26971,5.1522 -1.4379,12.23946 -2.95037,2.37982 -2.33322,7.86338 -7.10455,7.80862 -2.18614,-3.26156 -4.11961,-1.14409 -6.04805,0.81866 -4.55308,4.2113 -4.94429,-1.50983 -7.68326,1.26822 -0.93287,-1.29206 -9.28737,-1.06598 -5.36189,-2.73303 0.10768,-2.58074 0.80522,-7.32138 -3.66407,-5.76891 -2.60974,-2.78775 -3.20179,-2.40911 -5.50962,-0.34372 -3.24731,4.54166 -4.91565,0.71873 -6.24267,-0.0396 -1.98425,-1.13394 -4.06764,-2.46102 -5.96573,-3.9964 -0.29912,-3.62079 -4.96159,-7.81908 -7.98565,-3.79804 -4.297212,2.00703 -5.38634,6.06864 -6.321132,10.13619 0.60639,3.3585 0.792211,6.97319 0.119772,10.62482 3.73441,1.39097 -1.077102,3.88456 1.428882,6.30088 6.647358,2.14784 -1.198615,7.58201 2.923198,6.52412 2.4413,3.30836 0.9989,6.42357 5.85482,2.53435 5.28079,0.50051 0.88011,4.94996 3.93412,7.48589 3.95473,-0.17206 3.46647,3.11086 2.98155,6.10216 2.35709,0.90882 0.71351,4.76761 3.03682,4.45657 3.06847,-1.88057 2.51564,-0.2658 1.7917,1.99079 -0.87795,2.13338 0.32616,0.7965 -1.19447,2.38894 -3.71931,-0.16646 -6.94913,2.44454 -10.55798,2.96356 1.47927,-3.40791 -2.91896,-2.38366 -3.59851,-2.84715 -2.41999,-1.65057 -3.811468,-0.52789 -4.158764,0.67989 -2.600908,2.88253 -6.055249,4.5154 -9.203267,-0.36138 -3.793362,0.14913 -5.765436,-4.77513 -9.150145,-6.01386 -1.778103,-0.91263 -4.737114,1.65551 -6.688872,-1.90164 -1.657018,1.18165 -4.61178,-5.59007 -5.823498,-0.36348 -0.197661,1.31612 -0.771031,1.96054 -1.505804,2.33809 -1.41194,0.72551 -3.41988,0.46558 -4.503211,2.09271 -1.95657,0.32348 -2.349884,-3.55134 -5.086343,-1.96296 -2.135653,0.78155 -3.987163,1.16507 -5.220536,-1.39247 -0.951434,-5.30092 -9.4990824,-2.87213 -11.14126238,-6.58066 0.08151,-1.15012 2.20327698,-2.56145 0.78916298,-4.16959 1.553851,-2.48183 -0.79896698,-5.48793 2.388947,-6.96776 -0.210412,-2.86154 1.911572,-6.37658 3.16698,-8.67902 0.580633,-1.06489 0.150839,-4.31577 0.542491,-5.42465 -0.169672,-1.89121 0.647613,1.90071 2.415345,2.6559 0.7257074,1.06086 2.2401324,-4.48417 3.2071984,-0.6621 0.370333,2.20931 4.961027,4.74841 1.968468,6.76783 0.03198,3.76468 4.030094,6.39777 7.386516,4.41686 1.57592,-2.76555 5.022711,2.05806 6.19785,-1.86192 3.243573,-1.26276 0.240431,-2.86775 -0.728019,-4.1621 2.194184,-3.58244 -0.292493,-7.49285 -0.404457,-11.05796 3.892859,-2.59479 -2.215443,-5.85758 0.878708,-10.45466 0.03425,-2.99575 0.953123,-4.58334 0.651926,-7.17328 -0.301198,-2.58995 -1.393546,-4.57881 -1.393546,-4.57881 l 10.153016,-12.74105 13.73644,-9.55578 h 1.791705 l 12.060541,-11.24822 6.60796,-5.701 c 3.20701,-3.84323 3.37315,2.72421 6.93189,-2.39699 l 1.69553,-0.18564 c 1.26458,0.027 2.40013,0.17536 3.53918,0.70785 1.22894,0.61776 1.77464,-0.56242 2.65438,-1.15025 1.1916,0.37293 1.31464,1.88323 0.79632,2.91982 -0.64644,1.05619 -1.27787,1.41755 -0.4424,2.56591 1.42047,1.32001 3.47997,2.33337 5.22029,1.23871 0.62953,-1.08048 0.92638,-2.27974 1.32719,-3.4507 1.258,-0.66993 2.84242,-0.21008 4.24702,-0.53087 2.43859,-1.19662 3.80998,-3.56506 3.98157,-6.193572 0.13593,-0.5437 1.68482,-0.26469 2.1235,-0.17695 1.1631,0.98593 1.95445,2.13064 3.4507,2.56591 1.22819,2.082792 2.11108,5.632202 4.95485,5.751152 1.49425,-0.41443 2.00313,-1.11252 2.12351,-2.5659 0.17118,-0.98948 0.1108,-1.7186 0.53088,-2.65439 1.8679,-1.963922 3.07605,-5.304002 2.83135,-5.485712 l 0.97326,-4.86638 7.60924,-0.53088 2.83134,-3.80462 7.7862,0.0886 c -2.61595,5.14371 5.12059,6.54755 5.48571,9.82121 2.50056,0.31363 4.93368,-1.48907 7.25532,-2.47744 0.96416,-0.51866 0.86489,0.30004 1.68111,0.70785 1.25158,0.29598 2.28346,0.66124 2.91982,1.76959 0.43236,0.62772 1.00619,1.17304 1.59264,1.68111 1.32209,0.0716 2.24552,-0.14667 3.27374,0.79631 1.02903,0.72432 1.56013,1.05554 2.74287,0.53088 1.5424,1.02265 4.00404,0.74047 5.30876,1.946552 -0.1143,1.29583 -0.0635,3.93334 0.61935,4.68941 1.65339,0.22388 0.60436,-2.39083 1.50416,-4.24702 0.32713,-0.88491 0.67764,-1.706142 0.70783,-2.654372 0.0816,-1.30466 0.35508,-2.60957 1.76959,-2.83135 1.25848,-0.1605 2.17658,0.35846 3.09679,1.15024 0.16032,0.84934 1.33154,1.1779 2.12351,1.59263 1.41417,0.22925 3.68938,0.17695 5.13181,0.17695 0.93417,-0.24857 0.44192,-0.76776 2.38894,-1.85806 2.22315,-0.85689 3.87764,0.12812 6.37051,0.0884 1.18617,0.0774 2.08842,0.83061 2.83135,1.68111 1.01595,0.6506 1.85934,0.6832 2.47743,-0.35393 0.88232,-0.34804 1.84874,-0.0665 2.74287,0.26545 1.1206,0.20218 1.68575,-0.24446 2.57554,-0.81318 l 8.14684,12.595942 c 0.29009,1.45047 -0.39271,2.46935 -1.36469,2.98953 -1.47451,0.78913 -2.13482,2.53805 -2.177,5.76602 -0.0313,2.39895 -0.0366,2.40419 -2.43561,2.40419 -3.77002,0 -9.27075,2.13151 -11.55814,4.47876 -1.8617,1.9104 -2.16272,2.02133 -3.80387,1.40185 -1.65443,-0.62448 -1.89105,-0.52998 -3.30068,1.31814 -1.43787,1.88514 -1.62962,1.95671 -3.61205,1.34829 -1.53906,-0.47235 -2.57829,-1.43029 -3.92363,-3.61674 -1.80723,-2.93713 -1.8614,-2.97004 -4.34465,-2.63904 -1.53449,0.20452 -2.74887,0.7554 -3.11566,1.41331 -0.33058,0.593 -1.44351,1.89535 -2.47318,2.89413 -1.44188,1.39861 -1.96387,2.53537 -2.27129,4.94624 -0.36941,2.89712 -0.28593,3.20445 1.12083,4.1262 2.07399,1.35892 1.91066,2.15001 -0.73558,3.56251 -1.85682,0.99113 -2.37338,1.69268 -2.9418,3.99528 -0.37923,1.53617 -1.25828,3.36178 -1.95342,4.05692 -0.69514,0.69516 -1.26389,1.53439 -1.26389,1.86496 0,0.33058 -0.6767,0.60105 -1.50379,0.60105 h -1.50379 l 1.20326,2.24501 c 0.6618,1.23478 1.20327,2.56285 1.20327,2.95131 z"
       sodipodi:nodetypes="cccccccccccccccccscccccccccccccscccccsccccccscccccccccsccccccccccccccccccccccccccccccccccccccccccccccccssssssssssssssssscccc"
       inkscape:label="#path9939" />
  </g>
</svg>
