<?xml version="1.0" encoding="UTF-8" standalone="no"?>
<!-- Created with Inkscape (http://www.inkscape.org/) -->

<svg
   width="210mm"
   height="297mm"
   viewBox="0 0 210 297"
   version="1.1"
   id="svg1283"
   inkscape:version="1.1.2 (b8e25be833, 2022-02-05)"
   sodipodi:docname="vector.svg"
   xmlns:inkscape="http://www.inkscape.org/namespaces/inkscape"
   xmlns:sodipodi="http://sodipodi.sourceforge.net/DTD/sodipodi-0.dtd"
   xmlns="http://www.w3.org/2000/svg"
   xmlns:svg="http://www.w3.org/2000/svg">
  <sodipodi:namedview
     id="namedview1285"
     pagecolor="#ffffff"
     bordercolor="#666666"
     borderopacity="1.0"
     inkscape:pageshadow="2"
     inkscape:pageopacity="0.0"
     inkscape:pagecheckerboard="0"
     inkscape:document-units="mm"
     showgrid="false"
     inkscape:zoom="0.52347032"
     inkscape:cx="155.69173"
     inkscape:cy="611.30496"
     inkscape:window-width="1920"
     inkscape:window-height="1017"
     inkscape:window-x="-8"
     inkscape:window-y="-8"
     inkscape:window-maximized="1"
     inkscape:current-layer="layer1" />
  <defs
     id="defs1280" />
  <g
     inkscape:label="Capa 1"
     inkscape:groupmode="layer"
     id="layer1">
    <path
       d="m 77.188755,104.55113 c -0.74312,1.38785 -2.736921,1.21699 -3.864717,0.84016 -0.376137,0.39406 -2.919193,1.04685 -3.416642,2.18441 -1.606724,-1.63675 -3.1466,-2.02423 -5.208986,-0.44807 -1.208858,2.78402 -4.2457,-0.0382 -4.256799,3.02457 -1.346679,-0.98128 -3.818082,1.70876 -4.760892,-0.8962 -0.944535,-2.24408 -3.517699,-0.34888 -4.312807,1.34428 -2.065305,0.72898 -4.633251,1.32571 -3.425554,2.96853 -4.733592,-0.85128 -1.759645,1.63347 -3.015641,2.5765 -0.907198,1.47775 -3.544083,0.1706 -5.048816,2.48536 -0.277312,2.07537 -1.227047,2.48151 -3.520804,4.01184 -3.023781,1.03552 -3.034073,-3.75529 -5.38601,-1.96566 -1.951326,0.72349 -4.771095,1.26686 -6.565096,1.17368 -2.206516,-0.43191 -4.550989,-0.5204 -6.980436,-0.94433 -2.1841,1.77658 -4.273415,-0.1422 -6.372274,-0.77122 -2.1030327,0.18772 -3.6891687,1.05044 -5.6699837,2.05946 -0.07591,2.62387 -3.850476,1.31372 -5.20898303,3.03349 0.658181,1.91732 4.09004303,2.10693 6.39306403,1.37046 2.969381,-1.97104 2.779105,0.64605 4.6151747,2.68355 1.758146,2.39128 4.650505,2.02372 6.54393,4.01045 1.954038,-0.32807 4.304629,0.46608 6.680032,0.49623 2.659977,0.52819 3.564106,4.06053 5.889547,5.14741 2.704494,0.71477 0.849301,4.39433 3.876637,4.76643 1.085591,1.68459 5.026304,0.1666 3.864715,3.49051 1.112654,2.16803 -0.778058,5.62913 2.184417,6.42337 1.173397,2.06594 -0.195656,4.28076 1.589167,5.88897 2.012984,-0.0868 2.316176,2.02837 4.852028,3.12872 -2.478194,1.16321 0.373199,1.41228 2.153766,3.00756 1.563547,2.32312 5.850305,-0.42322 4.287447,2.60241 0.759926,1.41985 5.016108,2.16317 3.472654,4.69595 0.675176,2.60529 3.41931,2.6393 4.704889,4.76091 2.01186,0.73891 5.001302,-0.83877 6.049132,1.6803 1.418094,-0.22949 3.753204,0.15488 5.361686,1.53179 1.644349,2.45021 4.396506,-1.24304 6.555624,0.52767 1.341143,2.03775 1.698825,3.97212 2.253335,6.19191 2.00758,0.22598 2.85243,2.6653 4.70489,3.39881 1.75983,3.13765 3.91509,0.10372 5.60104,0 1.7289,-1.28866 4.78255,-0.80419 6.49723,-1.73632 2.972731,0.21331 5.313491,-0.20532 7.830051,-0.44809 1.7617,-0.68313 4.04036,-1.3482 5.89252,-2.12838 1.90185,-1.13109 4.72027,-1.74708 6.51504,-0.84019 2.86597,-0.30772 5.27414,0.60295 8.1037,0.39209 2.67797,0.15652 3.75491,1.94858 6.12297,2.57648 4.34167,1.72828 -0.0136,-2.53065 3.0335,-2.57648 0.52587,-2.10583 2.57271,-3.69855 3.78194,-2.56753 -0.87441,1.75184 4.39955,-0.71662 4.20867,2.47639 1.83201,2.10655 4.05131,-0.35905 6.71088,0.091 1.33507,1.39106 4.35333,1.7686 5.43552,0 1.9749,-1.11514 3.61027,-1.32062 5.6189,-0.84014 2.45488,-0.25003 4.54481,-1.63309 6.42336,-0.89618 1.12942,1.52179 4.19405,-0.47855 5.60106,-0.84016 1.90336,-1.86938 0.4278,-5.24245 3.4994,-5.15297 1.18949,0.96404 4.17372,-2.44911 5.0702,0.4481 1.50733,1.11069 4.44135,0.0908 6.04913,-0.4481 3.2546,0.30923 2.1279,-3.37571 4.70489,-3.41664 1.89339,-1.90055 2.09105,-3.19202 2.57648,-6.04915 2.53926,-0.18139 4.37506,-2.28097 6.04915,-1.28823 -0.23137,2.68364 4.78864,2.21489 5.99311,1.67138 -0.31015,-2.45028 0.0906,-5.13941 2.18441,-6.82433 -1.9571,-0.92471 -3.94644,2.64591 -5.92419,0.96509 -0.86638,-2.74993 -4.16517,-2.01046 -4.82983,-3.54159 -1.1283,-1.01921 -5.26479,-2.00739 -4.76089,0 -4.0759,1.07186 -2.43186,-2.53093 -4.20867,-3.77358 -1.6363,-1.24555 -3.83984,-2.62263 -5.71412,-0.98729 -2.45913,0.41558 -2.17145,2.89017 -5.15296,3.02455 -2.18876,1.31645 -4.23282,1.38292 -6.52397,0.84017 -1.9068,-1.17985 -2.01717,2.60191 -4.95713,2.48533 -0.23723,0.74088 0.64873,4.19154 -0.55223,5.76604 -0.87623,2.92648 -3.93978,0.22503 -4.2568,-1.37103 -1.10889,-1.38883 -3.04511,-2.88948 -3.92074,-4.30387 -1.68131,-1.21516 -4.90314,-1.07273 -5.45389,-3.3125 -1.84286,-0.73323 -2.69527,-2.54019 -4.86097,-3.12869 -1.80445,-0.59621 -4.32228,-0.21963 -6.88036,-0.39208 -0.0465,-1.94615 -0.94674,-4.26764 -3.49049,-4.31281 -3.20676,0.64046 -2.77416,-2.12596 -3.79087,-4.31282 -0.6649,-2.02644 -1.2175,-4.67225 -0.44809,-6.88928 -1.80301,-0.95817 -2.62803,-2.7757 -4.76089,-1.73634 -1.50032,0.16895 -4.18595,-0.93966 -6.4412,0 -1.03269,-1.11208 -2.38703,-1.58235 -4.70488,-2.57647 -1.19286,-1.3765 -3.42262,-2.30076 -5.60107,-2.57648 -1.55784,0.42257 -4.92465,-0.13704 -6.05806,-1.28824 -2.14815,-0.99344 -3.59156,-1.85523 -5.53611,-2.5765 -1.973611,-1.16478 -4.212901,2.75451 -5.665981,0 -2.02234,-0.72745 -1.33663,-2.92937 -2.95963,-4.31281 -0.14232,-1.75783 -3.22245,-3.55759 -1.61138,-5.02802 2.07435,-2.54461 -2.43656,0.44217 -2.25333,-2.25335 -1.39871,0.58223 -3.75153,0.13 -4.31283,-2.18439 -1.71785,-0.5433 -2.5261,-0.29766 -3.325494,-3.3125 -1.344902,0.17999 -1.902278,-2.28156 -0.66417,-3.45185 -0.03503,-1.12739 -0.70042,-2.69468 -2.45153,-3.5416 z"
       style="fill:#000000;fill-opacity:1;stroke:#d39062;stroke-width:0.310431;stroke-miterlimit:4;stroke-dasharray:none;stroke-opacity:1"
       id="Rio_Bueno" />
  </g>
</svg>
