<?xml version="1.0" encoding="UTF-8" standalone="no"?>
<!-- Created with Inkscape (http://www.inkscape.org/) -->

<svg
   width="210mm"
   height="297mm"
   viewBox="0 0 210 297"
   version="1.1"
   id="svg64"
   inkscape:version="1.1.2 (b8e25be833, 2022-02-05)"
   sodipodi:docname="vector.svg"
   xmlns:inkscape="http://www.inkscape.org/namespaces/inkscape"
   xmlns:sodipodi="http://sodipodi.sourceforge.net/DTD/sodipodi-0.dtd"
   xmlns="http://www.w3.org/2000/svg"
   xmlns:svg="http://www.w3.org/2000/svg">
  <sodipodi:namedview
     id="namedview66"
     pagecolor="#ffffff"
     bordercolor="#666666"
     borderopacity="1.0"
     inkscape:pageshadow="2"
     inkscape:pageopacity="0.0"
     inkscape:pagecheckerboard="0"
     inkscape:document-units="mm"
     showgrid="false"
     inkscape:zoom="0.74029882"
     inkscape:cx="361.34057"
     inkscape:cy="345.8063"
     inkscape:window-width="1920"
     inkscape:window-height="1017"
     inkscape:window-x="-8"
     inkscape:window-y="-8"
     inkscape:window-maximized="1"
     inkscape:current-layer="layer1" />
  <defs
     id="defs61" />
  <g
     inkscape:label="Capa 1"
     inkscape:groupmode="layer"
     id="layer1">
    <path
       sodipodi:nodetypes="ccccccccccccccccssccccccccccccccccccc"
       d="m 209.08558,269.87533 -5.14899,-1.63064 c -1.13304,-0.93224 -2.22675,-1.92317 -2.8796,-3.27035 -5.31349,-0.61033 -9.69566,-4.28835 -14.76957,-5.99545 -7.29037,0.46726 -12.86853,-4.84845 -19.13051,-7.62339 -1.248,-4.62207 -5.29608,-7.25664 -8.66693,-10.46705 3.83306,-1.00384 5.69525,-5.53434 -2.71418,-13.9538 -11.70571,-2.19087 -11.68684,-3.64787 -15.68047,0.85938 -5.30982,6.36574 -11.68848,-0.9415 -7.69583,-6.92113 2.43315,-5.98756 -7.19657,-9.14461 -3.18892,-13.90306 -1.62661,-5.79686 -13.72818,-3.01418 -12.63738,-10.64552 l -5.81338,-4.79653 c -10.24179,11.36251 -14.564082,5.76063 -15.711012,-0.0484 -2.2853,-9.14669 -7.86276,-7.42626 -8.1405,-0.70213 -1.06626,1.99242 -5.55879,6.36877 -6.22244,11.02423 2.69442,12.29151 0.78253,28.07011 -5.94008,25.05449 0.0836,5.14843 -11.21723,2.19675 -19.00174,-2.71342 -3.25742,-2.05464 -6.98202,-3.17109 -6.84482,-0.0691 0.16175,3.66412 0.16381,9.96247 2.65772,17.75659 1.19012,2.37785 4.35671,4.05763 9.38012,6.6378 -2.5031,0.23294 0.74479,6.03394 3.86305,8.69373 l 5.3941,1.59953 c 6.53777,-0.89456 12.4654,0.42303 16.13354,5.62304 3.98699,0.39675 7.36322,-6.92009 13.05177,-3.87674 11.004472,2.63988 18.759202,12.57061 30.119362,14.50449 5.93877,3.57109 7.65976,13.97932 17.08556,11.5275 5.74129,0.14102 3.8184,-9.93813 10.61427,-4.62013 6.99599,0.82531 13.88711,-4.29852 21.52101,-2.2186 7.15351,2.57533 19.98307,8.12771 22.83673,-2.88325 4.29521,-1.20742 6.13377,-1.97895 7.52912,-6.94497 z M 2.5513481,10.110189 c -1.19745,0.33731 -1.38843,2.5136 -1.45541,2.79893 1.83939,0.46242 3.77879,0.6525 5.59785,0.89568 1.4911,-2.79118 -1.65041,-3.40548 -4.14244,-3.69461 z m 42.7678099,12.31536 c -0.0137,-0.005 -2.03182,1.23154 -2.79893,1.23154 1.80089,1.84607 4.55255,2.13294 2.79893,-1.23154 z"
       style="fill:#000000;fill-opacity:1;fill-rule:evenodd;stroke:#d38d5f;stroke-width:1.82884;stroke-linecap:butt;stroke-linejoin:miter;stroke-miterlimit:4;stroke-opacity:1"
       id="Valparaiso" />
  </g>
</svg>
