<?xml version="1.0" encoding="UTF-8" standalone="no"?>
<!-- Created with Inkscape (http://www.inkscape.org/) -->

<svg
   width="210mm"
   height="297mm"
   viewBox="0 0 210 297"
   version="1.1"
   id="svg1283"
   inkscape:version="1.1.2 (b8e25be833, 2022-02-05)"
   sodipodi:docname="vector.svg"
   xmlns:inkscape="http://www.inkscape.org/namespaces/inkscape"
   xmlns:sodipodi="http://sodipodi.sourceforge.net/DTD/sodipodi-0.dtd"
   xmlns="http://www.w3.org/2000/svg"
   xmlns:svg="http://www.w3.org/2000/svg">
  <sodipodi:namedview
     id="namedview1285"
     pagecolor="#ffffff"
     bordercolor="#666666"
     borderopacity="1.0"
     inkscape:pageshadow="2"
     inkscape:pageopacity="0.0"
     inkscape:pagecheckerboard="0"
     inkscape:document-units="mm"
     showgrid="false"
     inkscape:zoom="0.52347032"
     inkscape:cx="155.69173"
     inkscape:cy="611.30496"
     inkscape:window-width="1920"
     inkscape:window-height="1017"
     inkscape:window-x="-8"
     inkscape:window-y="-8"
     inkscape:window-maximized="1"
     inkscape:current-layer="layer1" />
  <defs
     id="defs1280" />
  <g
     inkscape:label="Capa 1"
     inkscape:groupmode="layer"
     id="layer1">
    <path
       id="Talagante"
       style="fill:#000000;fill-opacity:1;stroke:#d38d5f;stroke-width:1.47726;stroke-miterlimit:4;stroke-opacity:1"
       d="m 181.62066,194.2889 c 0.27996,-9.14031 12.7439,10.3841 14.65994,-4.19955 -0.79952,-7.03639 4.10848,-9.05303 10.62175,-17.703 4.7278,-3.71789 1.06236,-4.91753 0.22861,-6.96707 -1.93865,-18.40704 -10.5105,-18.69567 -5.7107,-28.78172 l -8.7573,-4.20065 -3.26764,-20.83091 -7.76047,0.40832 -11.43655,20.42246 -31.04214,-12.66199 16.74639,-16.33794 -10.17212,0.66626 -13.84806,-5.455313 -25.59795,5.874883 h -9.651689 l -2.93756,7.5535 -6.29457,-0.41932 0.41932,-3.35713 -11.33031,0.41932 -1.6785,8.39288 -21.82126,-2.51788 c 2.59159,10.11661 13.19794,3.85836 21.45072,15.35677 0.33007,13.91995 -12.98278,9.47002 -28.34443,22.20316 -7.47258,-0.36186 -16.81045,22.75049 -25.98255,19.36867 -3.99968,0.47189 -7.64727,2.70553 -10.3928999,9.44814 -5.09431,-1.16016 -8.89276004,-0.0489 -8.97576004,7.55852 9.16916004,2.32447 21.73530994,15.97229 27.39966994,6.61376 h 13.69978 c 4.99052,3.82791 17.08368,3.12888 16.53428,-0.945 l 37.7927,-2.8345 c 3.49392,-15.74002 13.144269,-10.09864 13.227399,-21.25842 l 46.76834,18.89641 3.77925,-8.03101 10.8654,8.97576 1.88963,2.83451 z"
       sodipodi:nodetypes="cccccccccccccccccccccccccccccccccccc"
       inkscape:label="#path4651" />
  </g>
</svg>
