<?xml version="1.0" encoding="UTF-8" standalone="no"?>
<!-- Created with Inkscape (http://www.inkscape.org/) -->

<svg
   width="210mm"
   height="297mm"
   viewBox="0 0 210 297"
   version="1.1"
   id="svg64"
   inkscape:version="1.1.2 (b8e25be833, 2022-02-05)"
   sodipodi:docname="vector.svg"
   xmlns:inkscape="http://www.inkscape.org/namespaces/inkscape"
   xmlns:sodipodi="http://sodipodi.sourceforge.net/DTD/sodipodi-0.dtd"
   xmlns="http://www.w3.org/2000/svg"
   xmlns:svg="http://www.w3.org/2000/svg">
  <sodipodi:namedview
     id="namedview66"
     pagecolor="#ffffff"
     bordercolor="#666666"
     borderopacity="1.0"
     inkscape:pageshadow="2"
     inkscape:pageopacity="0.0"
     inkscape:pagecheckerboard="0"
     inkscape:document-units="mm"
     showgrid="false"
     inkscape:zoom="0.74029882"
     inkscape:cx="361.34057"
     inkscape:cy="561.93525"
     inkscape:window-width="1920"
     inkscape:window-height="1017"
     inkscape:window-x="-8"
     inkscape:window-y="-8"
     inkscape:window-maximized="1"
     inkscape:current-layer="layer1" />
  <defs
     id="defs61" />
  <g
     inkscape:label="Capa 1"
     inkscape:groupmode="layer"
     id="layer1">
    <path
       id="Freirina"
       style="fill:#000000;fill-opacity:1;fill-rule:evenodd;stroke:#d38d5f;stroke-width:2.27487;stroke-linecap:butt;stroke-linejoin:miter;stroke-miterlimit:4;stroke-opacity:1"
       d="m 146.05649,21.029506 c 2.26232,0.14502 9.42635,-9.02029 8.45471,-11.8336899 1.87077,-8.30969001 5.32226,-3.43699 14.08151,0 5.06122,-1.79826 10.45599,-2.32033 15.77246,-2.8134 1.56622,2.1028 2.74088,4.0315699 3.94455,5.6267999 2.63939,3.52401 3.95907,6.56944 9.57137,6.19238 3.58201,2.32033 9.09281,15.42876 -0.43505,19.89974 0.58007,7.74412 -15.3026,7.28004 -5.43829,13.98 3.50951,8.25168 -10.99257,12.76183 -14.45856,19.63291 -2.72639,-6.45343 -3.33548,21.7357 -12.22525,36.633684 -6.17788,3.72704 -1.45021,20.58134 -11.44213,16.0944 -2.26232,-12.39927 -11.1956,1.01515 -18.69897,-1.01515 -4.8872,4.39413 -10.87655,7.7006 -9.7744,16.07845 -1.01514,11.81919 16.64838,8.81726 24.4534,8.58523 12.31225,2.37834 -1.16017,17.8854 -6.59845,21.97208 -9.93392,6.46793 2.46535,18.8643 -8.51272,23.28743 1.30519,9.45535 5.91686,18.79034 6.68546,28.6532 3.30648,9.46985 10.00643,18.14498 9.93392,28.76485 7.12051,6.88849 4.22011,17.28067 -4.40863,17.92166 8.71574,9.17981 -10.65902,12.6168 -13.26939,20.73942 1.16016,-9.13631 -15.81741,-7.88913 -19.78228,-4.8292 -2.95842,4.07508 -11.65966,-3.64002 -9.32483,4.72768 -12.660317,-2.21881 -25.770177,6.11988 -32.661567,-8.17917 -7.41056,-4.24911 -14.35705,-4.9307 -17.78388,4.74218 -1.56623,11.8917 -21.57184,3.5095 -29.84527,4.69867 -8.26618,1.16017 6.13437,-1.30518 -1.01514,-4.85819 -7.20754,-3.495 -5.46728,-15.07636 3.13245,-13.61745 8.68673,-3.72703 1.4502,-14.40056 -5.96036,-12.29776 5.43828,-3.98806 5.09022,-9.99192 -0.11457,-14.11051 3.75604,-5.80083 -2.01579,-11.55815 -4.95971,-16.26552 -2.1608,-4.46664 -9.6728701,3.87205 -6.4824201,-4.04609 2.1753101,-4.2491 5.2497501,-9.68738 -0.29004,-12.6458 -3.50951,-7.00449 0.43506,-14.80226 4.2926101,-20.69881 1.60973,-8.59972 12.52979,-4.9017 14.89073,-11.89169 1.68224,-7.36706 11.79018,-2.7554 15.62453,-8.93328 4.8727,-5.01771 4.27811,-13.74797 11.39863,-17.40539 4.78569,-4.78568 5.72832,-11.61615 9.87591,-16.8775 0.87012,-8.00515 12.05122,-9.25233 8.84626,-17.25457 0.29004,-2.71188 4.8727,-7.28004 -0.43506,-7.83112 -4.10409,-3.07444 -3.21946,-10.03543 -8.28068,-12.036714 3.08894,4.742174 10.06443,4.843684 16.33513,4.510134 8.61423,4.30713 11.76118,1.01516 19.715567,-2.8134 4.06057,5.40928 7.29454,7.55558 14.0815,5.62681 3.75605,-1.87076 -1.4502,-6.75797 -1.69673,-7.889124 0.87012,-5.85884 -1.45021,-11.00708 -2.8134,-16.89928 2.88591,-5.29325 2.56686,-11.03607 3.37897,-16.89926 0.29005,-1.16016 10.15146,-4.52465 11.8337,-6.19238 3.64001,-3.64002 3.64001,-8.51272 7.88912,-9.57136 3.10345,-0.72511 9.00579,0.58007 11.83369,0 -3.19045,-3.61102 -6.3229,-6.85949 -8.45471,-11.26812 -0.7251,-1.30519 10.31098,-14.96178 9.00579,-17.46194 z"
       sodipodi:nodetypes="ccccccccccccccccccccccccccccccccccccccccccccccssccc"
       inkscape:label="#path11840" />
  </g>
</svg>
