<?xml version="1.0" encoding="UTF-8" standalone="no"?>
<!-- Created with Inkscape (http://www.inkscape.org/) -->

<svg
   width="210mm"
   height="297mm"
   viewBox="0 0 210 297"
   version="1.1"
   id="svg1283"
   inkscape:version="1.1.2 (b8e25be833, 2022-02-05)"
   sodipodi:docname="vector.svg"
   xmlns:inkscape="http://www.inkscape.org/namespaces/inkscape"
   xmlns:sodipodi="http://sodipodi.sourceforge.net/DTD/sodipodi-0.dtd"
   xmlns="http://www.w3.org/2000/svg"
   xmlns:svg="http://www.w3.org/2000/svg">
  <sodipodi:namedview
     id="namedview1285"
     pagecolor="#ffffff"
     bordercolor="#666666"
     borderopacity="1.0"
     inkscape:pageshadow="2"
     inkscape:pageopacity="0.0"
     inkscape:pagecheckerboard="0"
     inkscape:document-units="mm"
     showgrid="false"
     inkscape:zoom="0.52347032"
     inkscape:cx="155.69173"
     inkscape:cy="611.30496"
     inkscape:window-width="1920"
     inkscape:window-height="1017"
     inkscape:window-x="-8"
     inkscape:window-y="-8"
     inkscape:window-maximized="1"
     inkscape:current-layer="layer1" />
  <defs
     id="defs1280" />
  <g
     inkscape:label="Capa 1"
     inkscape:groupmode="layer"
     id="layer1">
    <path
       d="m 6.0562244,99.099591 0.40432,7.744339 H 0.52012735 l 3.91880905,88.57756 c 0.512987,-0.45129 1.026247,-1.00271 1.555086,-1.21296 -0.247319,0.47741 -0.447625,0.88919 -0.528729,1.24405 -0.08113,0.3547 -0.0591,0.65152 0.186616,0.80864 0.245759,0.15713 0.697465,0.17819 1.430675,0.0624 0.73321,-0.11585 1.75995,-0.37576 3.1412696,-0.83977 0.25991,-0.0872 0.44736,0.0253 0.59093,0.24896 0.14356,0.222 0.23792,0.55294 0.34214,0.90195 0.10422,0.34922 0.20031,0.70189 0.3421,0.99525 0.1418,0.2932 0.33452,0.5358 0.59093,0.59094 0.48557,0.33279 2.0039,0.89672 3.11017,1.39958 1.07531,-2.11293 2.18528,-4.60457 3.04796,-6.22037 -0.0392,2.66948 4.1954,5.16609 3.20348,6.81126 2.2315,-1.3117 -0.96917,-6.34776 3.60779,-6.81126 4.92603,-0.2279 5.10872,-4.65508 8.14862,-6.15811 4.04177,-3.20883 7.32899,-1.29271 4.04325,1.80389 -2.43136,0.83476 -2.94196,4.91608 -3.04799,5.53609 -0.38713,2.26268 9.3013,-3.82251 11.35209,-5.10068 3.93772,-4.1855 8.54422,-6.08216 14.8044,-6.0648 0.8696,-0.69077 4.40523,1.97459 5.1629,0.43541 1.36309,-2.76899 0.50858,-9.70099 6.43803,-9.61042 6.97037,-3.81008 14.23579,-7.19722 20.68263,-11.91194 3.30508,5.4959 12.120876,9.98226 17.292536,3.51449 1.08532,-3.97964 10.72783,-6.06186 4.57192,-9.92143 -3.90933,-7.63276 11.55497,-4.96461 6.06484,-11.5698 4.21781,-4.08503 2.20164,-11.7169 6.96675,-15.51977 5.70071,2.17754 8.10093,-2.48857 12.6584,-4.82076 1.64568,-0.84217 3.97656,-2.59914 6.28255,-1.8972 5.71091,0.37576 9.92071,3.48988 12.34735,8.61516 4.56181,5.82477 13.09861,6.02141 19.65624,7.71321 5.20527,-5.45621 9.49108,1.49305 14.83553,2.58145 6.15921,1.53817 14.0049,-1.06337 14.55557,8.86399 l 1.58619,-8.80177 -1.89721,-1.71059 h -11.07221 l -5.75379,-5.0385 -16.5772,-0.71533 -14.64888,-11.04108 -15.1465,-7.46442 -27.12066,0.24896 -38.441656,-18.505499 z"
       style="fill:#000000;fill-opacity:1;fill-rule:evenodd;stroke:#d39062;stroke-width:0.995252;stroke-linecap:butt;stroke-linejoin:miter;stroke-miterlimit:4;stroke-opacity:1"
       id="San_Gregorio" />
  </g>
</svg>
