<?xml version="1.0" encoding="UTF-8" standalone="no"?>
<!-- Created with Inkscape (http://www.inkscape.org/) -->

<svg
   width="210mm"
   height="297mm"
   viewBox="0 0 210 297"
   version="1.1"
   id="svg1283"
   inkscape:version="1.1.2 (b8e25be833, 2022-02-05)"
   sodipodi:docname="vector.svg"
   xmlns:inkscape="http://www.inkscape.org/namespaces/inkscape"
   xmlns:sodipodi="http://sodipodi.sourceforge.net/DTD/sodipodi-0.dtd"
   xmlns="http://www.w3.org/2000/svg"
   xmlns:svg="http://www.w3.org/2000/svg">
  <sodipodi:namedview
     id="namedview1285"
     pagecolor="#ffffff"
     bordercolor="#666666"
     borderopacity="1.0"
     inkscape:pageshadow="2"
     inkscape:pageopacity="0.0"
     inkscape:pagecheckerboard="0"
     inkscape:document-units="mm"
     showgrid="false"
     inkscape:zoom="0.74029882"
     inkscape:cx="361.34057"
     inkscape:cy="561.93525"
     inkscape:window-width="1920"
     inkscape:window-height="1017"
     inkscape:window-x="-8"
     inkscape:window-y="-8"
     inkscape:window-maximized="1"
     inkscape:current-layer="layer1" />
  <defs
     id="defs1280" />
  <g
     inkscape:label="Capa 1"
     inkscape:groupmode="layer"
     id="layer1">
    <path
       d="m 19.412228,39.130068 -2.38623,2.38616 h -1.27269 l -1.11348,-1.11381 -1.27268,1.11381 h -2.54533 v 1.27269 h -1.11347 l -1.27269,1.27268 H 4.776823 v 1.27269 H 3.504135 l -1.113475,1.11382 -1.272688,4.93153 v 2.38617 l 1.272688,1.27268 h 1.113475 v 1.27269 l 2.545323,2.38617 h 1.11348 l 1.27268,1.27268 -1.27268,1.11382 v 3.65868 l -1.11348,1.27269 4.77243,4.93137 v 4.93136 l -3.65887,3.65886 1.27269,1.11381 v 4.93137 l -1.27269,1.27269 v 1.11381 l -1.11347,1.27269 v 2.38616 l -1.272692,1.27269 v 1.27269 l 1.272692,1.11381 v 2.54521 l 1.11347,2.386162 v 4.93137 l 1.27269,2.38616 v 3.65885 l -1.27269,1.27269 v 1.27269 l -1.11347,1.11381 -2.545329,2.54521 v 1.11381 l 2.545329,1.27269 h 1.11347 l 2.54533,2.38616 v 1.27269 h 1.11347 l 1.27269,-1.27269 h 3.65887 l 1.27268,-1.11381 1.27269,1.11381 v 7.3177 l 1.11365,1.27269 h 3.65888 l 1.27269,1.27269 v 2.38616 l 1.27269,1.27269 v 1.27269 h 1.11347 l 1.27269,1.11381 v 3.65885 h 1.27269 l 2.38619,2.54521 h 2.38624 l 1.27268,1.11381 h 3.65889 v 1.27269 l 1.27269,1.27269 v 2.38616 l 1.11364,2.38616 2.54527,2.54521 h 1.27269 l 2.38625,1.11381 v 1.27269 l 3.65887,3.65885 3.65885,-1.27269 1.27269,-1.11381 v -2.54538 h 1.11364 l 1.27269,-1.11381 2.38624,1.11381 h 10.97659 v 2.54538 l 2.54529,2.38616 v 1.27269 l 1.27269,1.11381 v 1.27269 l -1.27269,1.27269 v 2.38616 l 1.27269,2.54521 v 1.11381 l -1.27269,1.27269 v 3.65885 l 1.27269,1.27269 v 3.65885 l 2.3862,2.38616 v 2.38616 l 2.38624,2.54521 h 2.54528 l 1.11364,1.11381 v 3.65886 l 1.27269,1.27268 h 1.27269 v 2.54538 l 1.11381,1.11381 h 1.27269 l 1.27269,1.27269 v 1.27269 h 2.38616 v 1.11381 l 1.27269,1.27269 v 2.38616 l 1.11381,1.27269 h 1.27269 l 2.38633,2.38616 v 1.27269 l 1.272692,1.27269 h 1.27269 v -1.27269 l 1.11381,-1.27269 h 4.93154 l 2.5452,1.27269 h 3.65902 v 2.38616 l -1.27268,1.27269 v 1.27269 h 1.27268 l 1.11382,1.11381 h 2.5452 l 1.11382,1.27269 h 1.27268 l 1.27269,1.27269 -1.27269,1.11381 v 1.27269 h 2.38617 l 2.54537,1.27269 v 1.11381 l -1.27268,1.27269 -1.27269,2.5452 1.27269,1.11382 h 2.38616 l 2.54537,-2.38617 h 1.11382 l 1.27269,-1.27268 h 1.27268 l 1.11382,-1.27269 h 1.27268 l 1.27269,-1.11381 h 2.38616 l 1.27269,1.11381 v 9.86291 l 4.93154,4.93137 v 1.11381 l 1.11381,1.27269 v 1.27269 l 2.54521,2.38616 v 1.27269 l 1.11381,1.11381 v 1.27269 l 1.27269,1.27268 v 3.65869 l 1.27269,1.11381 v 1.27269 l 1.11381,1.27269 h 7.3177 v -2.54521 l 1.27269,-1.11381 v -3.65869 l 2.38617,-2.54537 h 1.27268 l 1.27269,-1.11382 h 1.27269 l 4.77232,4.77233 1.27269,-1.11381 v -2.54538 l -1.27269,-1.11381 -1.11381,-2.54521 v -1.11381 l 1.11381,-1.27269 3.65886,3.65868 h 1.27268 l 1.27269,1.27269 1.11381,1.11381 1.27269,1.27269 v -9.70369 l 1.27269,-1.27269 v -4.93137 l 1.11381,-2.38616 v -1.27269 l -1.11381,-1.11381 h -1.27269 v -1.27269 l -1.27269,-2.54521 h -1.11381 l -2.54537,-2.38616 v -1.27269 l -1.11382,-1.11381 v -1.27269 l -1.27269,-1.27269 h -1.27268 l -1.11382,1.27269 -1.27268,-1.27269 h -3.65886 l -1.27268,-1.11381 h -1.27269 v -1.27269 l -1.11381,-1.27269 v -2.38616 l -2.54538,-2.38616 v -2.54521 l -1.11381,-1.11381 -2.54538,-2.54521 v -1.11381 l -1.11381,-1.27269 1.11381,-1.27269 h 1.27269 l 1.27269,-1.11381 h 3.65885 l 1.11381,-1.27269 h 2.54538 l 1.27268,-1.27269 h 2.38617 l 1.27269,-1.27269 1.11381,1.27269 h 1.27269 l 3.65885,3.65885 v 1.27269 h 1.27269 l 1.11381,1.27269 h 1.27269 l 2.38616,-2.54521 1.27269,-1.11381 h 2.38633 l 1.27269,1.11381 h 1.27268 l 2.38634,2.54521 h 3.65885 l 1.27268,1.11381 h 3.65902 l 1.27269,1.27269 h 3.65885 l 1.11382,1.27269 v -1.27269 h 1.27268 v -6.04484 l 1.27269,-1.27269 v -1.27269 l -1.27269,-1.27269 v -1.11381 l -1.27268,-1.27269 v -2.38616 l 1.27268,-2.54521 v -1.11381 h -1.27268 l -1.11382,-1.27269 h -1.27268 l -1.27269,-1.27269 v -4.77232 l -1.11382,-1.27269 h -1.27268 v -1.27269 h -1.27269 v -3.65885 h -1.11381 v -4.77233 h -1.27269 v -1.27268 h -2.54521 l -1.11381,-1.27269 h -1.27269 v -1.27269 l -1.27269,-1.11381 v -3.65868 l 1.27269,-1.27269 v -3.65885 l -1.27269,-1.27269 v -1.11381 h -1.11381 v -1.27269 l -1.27269,-1.27269 -1.27269,-1.11381 v -6.20406 h 1.27269 v -2.38616 l -1.27269,-1.27269 v -1.11381 l 1.27269,-1.27269 v -1.27269 l 1.27269,-1.27269 h 1.11381 l 1.27269,-1.11381 v -1.27269 l 1.27269,-1.27269 v -1.11381 h 1.11381 v -1.27269 l 1.27269,-1.27269 -1.27269,-1.11381 v -1.27269 l -3.65885,-3.65885 v -1.27268 l 1.27269,-1.11382 v -2.5452 l -1.27269,-1.11382 v -1.27269 h -1.11381 v -1.27268 h -1.27269 l -2.38616,-2.38617 h -1.27269 v -9.862902 l 1.27269,-1.11382 v -1.27269 h 1.11381 v -3.65868 h -1.11381 v -1.27268 l -1.27269,-1.11382 v -3.65885 l -2.38616,-2.54521 -1.27269,-1.11381 v -2.54521 l 1.27269,-1.11381 -1.27269,-1.27269 v -4.93137 l -2.38616,-2.38616 h -1.27269 v -7.31753 l -2.38617,-2.54521 v -1.11381 h -1.27268 l -1.27269,1.11381 h -1.11381 l -1.27269,-1.11381 h -3.65885 v 1.11381 h -1.27269 l -2.38616,2.54521 v 1.11381 h -1.27269 v 2.54538 h -1.27269 v 1.11381 l -1.11381,1.27269 h -1.27269 v 1.27269 h -2.38633 l -1.27269,1.11381 h -8.59039 l -2.38633,2.54521 v 6.04484 l -1.27269,1.27269 h -1.11381 l -1.27269,-1.27269 v -1.11381 h -2.38616 v -1.27269 h -3.8179 l -1.11381,-1.27269 h -2.54538 l -1.11381,-1.11381 -1.27269,1.11381 v 1.27269 h -1.27269 l -1.11381,-1.27269 h -2.54537 v 1.27269 h -1.11382 v 1.27269 l -1.27269,1.11381 v 1.27269 l -1.27268,1.27269 -1.11382,-1.27269 h -1.27268 l -1.27269,1.27269 h -2.38616 l -1.27269,1.11381 v -1.11381 h -1.11382 l -1.27268,-1.27269 h -3.65902 l -1.27269,1.27269 v 3.65885 h -2.38633 l -1.27269,1.11381 h -1.272692 v 1.27269 h -2.38633 l -1.27269,1.27269 h -2.38633 l -2.38616,-2.54538 2.38616,-2.38616 v -2.38617 h -1.27269 v -1.27268 l -1.11381,-1.27269 h -3.65787 l -1.27269,-1.11381 h -1.27269 l -2.38625,2.38616 h -2.38623 l -1.27268,1.27269 h -2.3862 l -1.27269,1.11381 h -1.27269 v 1.27269 h -7.3177 v 1.27269 l -1.27269,-1.27269 h -3.65866 v -1.27269 h -2.38625 l -1.27269,1.27269 h -2.38623 l -1.27268,1.27269 h -2.3862 v -1.27269 -1.27269 l 1.27269,-1.11381 v -6.20389 l 1.11347,-1.11382 v -2.5452 l -1.11347,-1.27269 v -2.38616 l 1.11347,-1.27269 v -2.38616 h 1.27269 v -1.27269 h 1.27269 l 1.11364,-1.11381 v -1.27269 h 1.27269 v -1.27269 l -1.27269,-1.11381 v -1.27269 h -1.11364 v -1.27269 h -1.27269 l -2.3862,-2.38616 v -1.27269 l -1.27268,-1.11381 h -2.38612 l -1.27268,-1.27269 v -6.04501 l 1.27268,-1.27269 h -1.27268 l -1.27269,-1.27269 h -1.11365 v 3.65868 h -1.27268 v 1.27269 h -1.27269 l -1.27269,1.27269 v 1.11381 l -1.11364,1.27269 h -2.54528 l -1.11364,-1.27269 v -2.38616 h -3.65884 v -2.38617 l -1.27268,-1.27268 h -1.27269 v 1.27268 h -2.38578 l -1.27268,-1.27268 v -1.27269 h -3.65884 v -1.27269 l -2.38625,-2.38616 z"
       style="fill:#000000;fill-opacity:1;fill-rule:evenodd;stroke:#d38d5f;stroke-width:2.23594;stroke-linecap:butt;stroke-linejoin:miter;stroke-miterlimit:4;stroke-dasharray:none;stroke-opacity:1"
       id="Renaico" />
  </g>
</svg>
