<?xml version="1.0" encoding="UTF-8" standalone="no"?>
<!-- Created with Inkscape (http://www.inkscape.org/) -->

<svg
   width="210mm"
   height="297mm"
   viewBox="0 0 210 297"
   version="1.1"
   id="svg64"
   inkscape:version="1.1.2 (b8e25be833, 2022-02-05)"
   sodipodi:docname="vector.svg"
   xmlns:inkscape="http://www.inkscape.org/namespaces/inkscape"
   xmlns:sodipodi="http://sodipodi.sourceforge.net/DTD/sodipodi-0.dtd"
   xmlns="http://www.w3.org/2000/svg"
   xmlns:svg="http://www.w3.org/2000/svg">
  <sodipodi:namedview
     id="namedview66"
     pagecolor="#ffffff"
     bordercolor="#666666"
     borderopacity="1.0"
     inkscape:pageshadow="2"
     inkscape:pageopacity="0.0"
     inkscape:pagecheckerboard="0"
     inkscape:document-units="mm"
     showgrid="false"
     inkscape:zoom="0.74029882"
     inkscape:cx="361.34057"
     inkscape:cy="561.93525"
     inkscape:window-width="1920"
     inkscape:window-height="1017"
     inkscape:window-x="-8"
     inkscape:window-y="-8"
     inkscape:window-maximized="1"
     inkscape:current-layer="layer1" />
  <defs
     id="defs61" />
  <g
     inkscape:label="Capa 1"
     inkscape:groupmode="layer"
     id="layer1">
    <path
       d="m 143.64431,103.09129 c -0.9873,0 -3.36872,2.25863 -3.88537,2.77525 -2.16063,1.5767 -4.00247,0.0964 -7.21571,2.49775 -7.9171,-0.13614 -11.38928,1.30216 -18.03927,5.55057 -3.84871,1.05134 -16.286304,3.37066 -19.704444,5.55054 -10.39278,3.33881 -7.78194,5.57321 -13.32131,5.273 -6.88876,5.91918 -11.42264,1.97192 -13.59884,4.16291 -4.07783,1.23979 -8.75153,1.2838 -12.48874,3.60787 v 7.2157 l -42.46168,-13.32131 -11.93367092,2.49774 c 2.41709902,1.13107 0.40245402,3.34033 0.35865302,5.85737 -0.04382,2.51702 1.808129,3.41784 2.546984,6.50896 0.829274,3.60657 2.906193,6.27193 3.678982,9.90496 3.7455059,4.53105 0.354828,4.21025 0.283001,7.35796 0,1.289 3.7451509,5.22632 4.2449779,6.22596 1.338364,2.87209 2.044956,5.9966 2.829984,9.05596 0.366764,1.46704 -0.03087,1.66709 1.980988,3.67898 1.456983,2.62877 0.146306,6.07839 -1.980988,7.92397 3.287581,2.48772 -1.776169,7.38686 -1.980988,8.20696 17.027696,-8.79161 24.747236,-15.21541 33.393835,-20.65891 10.063122,-1.71832 16.192902,-6.05887 21.790902,-10.75394 6.43117,2.54293 14.14928,-3.53401 20.94189,-0.283 14.011004,-5.23731 18.142714,-3.41798 27.167864,-5.09398 10.48685,-0.68237 10.54788,0.72041 14.14994,1.415 6.44461,-0.11433 15.66382,-2.07836 15.84792,1.98098 1.64995,-0.60032 3.45718,-0.27425 5.09399,-0.84898 3.20044,-0.49773 4.23275,2.31878 4.24498,4.81096 1.28782,4.67556 6.94277,3.34361 10.75394,3.96198 4.00747,1.53463 3.45482,5.62051 6.50896,8.20696 2.4266,-0.55897 4.38637,-2.80306 6.79198,-3.96198 4.36574,-0.95741 11.65515,-4.27118 15.84792,-4.81098 2.82023,-0.46672 7.25377,0.99428 8.77294,-1.98098 1.21604,-2.65438 5.91762,-3.78355 5.37698,-7.07496 -3.32546,-3.85045 -6.09161,-8.34864 -8.77296,-9.05596 -1.33626,-3.78109 -3.46043,-7.1088 -5.09396,-10.75394 1.04588,-3.3072 0.37377,-5.84938 0.283,-8.48996 0.86931,-3.30442 -1.00623,-7.49672 -2.547,-10.18797 -1.77918,-1.9263 -2.56179,-0.63316 -9.62194,-1.41497 -3.8721,-1.57001 -7.65429,0.66981 -13.58394,3.96198 -2.26827,2.84409 -6.1874,2.30714 -9.05596,0.849 -5.3314,-1.99843 -4.92426,-6.61826 -5.94296,-10.18797 -2.62316,-1.95482 -4.01582,-4.98995 -6.22599,-7.35796 -1.04147,-1.04149 -4.14038,-2.57782 -5.43489,-2.80152 z"
       style="fill:#000000;fill-opacity:1;fill-rule:evenodd;stroke:#d38d5f;stroke-width:0.634175px;stroke-linecap:butt;stroke-linejoin:miter;stroke-opacity:1"
       id="Camarones" />
  </g>
</svg>
