<?xml version="1.0" encoding="UTF-8" standalone="no"?>
<!-- Created with Inkscape (http://www.inkscape.org/) -->

<svg
   width="210mm"
   height="297mm"
   viewBox="0 0 210 297"
   version="1.1"
   id="svg64"
   inkscape:version="1.1.2 (b8e25be833, 2022-02-05)"
   sodipodi:docname="vector.svg"
   xmlns:inkscape="http://www.inkscape.org/namespaces/inkscape"
   xmlns:sodipodi="http://sodipodi.sourceforge.net/DTD/sodipodi-0.dtd"
   xmlns="http://www.w3.org/2000/svg"
   xmlns:svg="http://www.w3.org/2000/svg">
  <sodipodi:namedview
     id="namedview66"
     pagecolor="#ffffff"
     bordercolor="#666666"
     borderopacity="1.0"
     inkscape:pageshadow="2"
     inkscape:pageopacity="0.0"
     inkscape:pagecheckerboard="0"
     inkscape:document-units="mm"
     showgrid="false"
     inkscape:zoom="0.74029882"
     inkscape:cx="361.34057"
     inkscape:cy="453.87078"
     inkscape:window-width="1920"
     inkscape:window-height="1017"
     inkscape:window-x="-8"
     inkscape:window-y="-8"
     inkscape:window-maximized="1"
     inkscape:current-layer="layer1" />
  <defs
     id="defs61" />
  <g
     inkscape:label="Capa 1"
     inkscape:groupmode="layer"
     id="layer1">
    <path
       sodipodi:nodetypes="cccccccccscccccccccccccccscccccccccccccccccccccccccccc"
       d="m 9.8239981,57.209253 c 4.1219699,5.94625 -7.08133,2.89252 -8.20688,4.6087 3.16153,4.2884 3.43085,15.66977 11.3032699,10.56279 3.41921,2.29296 3.06859,6.85809 4.15459,10.37477 2.0384,4.18651 8.49066,5.4294 11.14047,1.15416 2.03829,-2.42968 7.5483,-3.11225 7.29404,1.18056 -1.50589,4.96655 5.05478,7.56416 4.51003,11.98314 -0.80404,3.748757 -3.98605,8.332557 -8.34682,7.129117 -5.12907,-0.55208 -10.56168,-1.78855 -15.52201,0.21582 -2.3847,1.19792 -7.0979999,8.57989 -8.8896599,10.45889 -1.79167,1.87889 5.4509799,7.31973 0.94657,7.10081 l 9.0928299,4.19986 11.74605,4.07759 c 2.64017,-1.01784 5.5349,-1.34066 8.21683,-0.2921 6.67962,1.06833 11.51126,6.10023 16.15721,10.57523 2.46781,3.88105 7.14016,3.95493 10.80238,5.88612 3.66745,3.25409 9.09695,5.74128 13.67554,2.68183 4.74883,-1.07978 5.90991,-5.47096 6.77187,-9.56582 5.5607,-3.44139 5.61058,-12.39369 18.771282,-8.23499 0.2389,4.60137 3.51547,9.04304 1.67803,13.73837 -1.11501,5.01684 -3.86138,10.11148 -2.68082,15.33862 3.84893,2.6499 5.97024,6.6486 5.98199,11.43829 0.33024,4.97528 4.61713,8.12277 6.77076,12.30887 1.83774,3.77004 8.10149,6.44705 6.30953,11.26494 -0.84118,4.00412 -3.85024,8.50632 -0.92951,12.33447 1.61339,-2.83581 1.01553,8.40483 4.58882,8.38797 3.57319,-0.0201 9.71468,0.93553 6.74176,5.86926 1.01172,5.19472 8.84771,4.03986 9.34448,9.30594 2.41813,-3.23572 1.84647,-9.39819 7.87594,-7.39261 5.3777,0.69261 11.2552,3.51798 12.6586,9.23426 1.03089,2.65774 3.71101,13.62625 6.63224,7.20983 0.22886,-4.91466 3.40736,-8.73458 8.63621,-7.7048 0.78898,-2.34063 -5.31869,-9.41525 1.86062,-8.30897 5.27171,-1.20595 9.89928,2.90517 14.81133,2.0393 2.9404,-4.59575 10.35068,-1.79217 12.86658,-4.35735 -5.37138,-3.95915 -0.6103,-9.88292 1.74037,-14.17462 2.35038,-4.29161 -8.84008,1.87217 -8.84008,1.87217 l -0.39047,-7.10513 c 3.50824,-4.48714 -15.76443,-7.84663 -5.85983,-12.90402 -1.99011,-1.04947 -8.41648,-3.88497 -10.13085,-8.27565 -6.7812,-1.28917 -8.6074,-6.00829 -9.70404,-12.03805 8.93534,-3.51076 -5.694,-5.71278 -1.71849,-10.23977 5.41254,-10.0112 -6.35781,-14.17984 -10.71737,-21.41205 4.89208,-2.52854 0.12748,-1.83824 -2.48769,-2.9942 -9.79398,0.27805 -2.77307,-10.72319 -9.45008,-12.91085 3.22628,-1.66027 -3.05915,-6.41512 -1.92477,-10.52133 4.9776,-3.04269 -2.98065,-8.96093 1.54845,-12.945377 -2.73302,-3.11596 -13.54093,-1.55206 -19.19538,-1.86122 -9.4015,3.14899 -14.03841,-7.05263 -21.76418,-8.41116 -8.563932,3.89159 -15.692952,-1.18377 -21.123362,-7.26303 -7.59738,-0.0803 -18.69298,-1.35271 -21.6646,-8.87019 4.84148,-8.77242 -12.17226,-6.39294 -14.06802,-14.56349 -6.00497,-9.10799 -9.59392,8.13903 -16.72585,1.7487 -6.83892,-4.36347 -16.41879,-0.68559 -24.2884099,-1.9339 z"
       style="fill:#000000;fill-opacity:1;fill-rule:evenodd;stroke:#d38d5f;stroke-width:2.65586;stroke-linecap:butt;stroke-linejoin:miter;stroke-miterlimit:4;stroke-opacity:1"
       id="Limache" />
  </g>
</svg>
