<?xml version="1.0" encoding="UTF-8" standalone="no"?>
<!-- Created with Inkscape (http://www.inkscape.org/) -->

<svg
   width="210mm"
   height="297mm"
   viewBox="0 0 210 297"
   version="1.1"
   id="svg64"
   inkscape:version="1.1.2 (b8e25be833, 2022-02-05)"
   sodipodi:docname="vector.svg"
   xmlns:inkscape="http://www.inkscape.org/namespaces/inkscape"
   xmlns:sodipodi="http://sodipodi.sourceforge.net/DTD/sodipodi-0.dtd"
   xmlns="http://www.w3.org/2000/svg"
   xmlns:svg="http://www.w3.org/2000/svg">
  <sodipodi:namedview
     id="namedview66"
     pagecolor="#ffffff"
     bordercolor="#666666"
     borderopacity="1.0"
     inkscape:pageshadow="2"
     inkscape:pageopacity="0.0"
     inkscape:pagecheckerboard="0"
     inkscape:document-units="mm"
     showgrid="false"
     inkscape:zoom="0.74029882"
     inkscape:cx="361.34057"
     inkscape:cy="561.93525"
     inkscape:window-width="1920"
     inkscape:window-height="1017"
     inkscape:window-x="-8"
     inkscape:window-y="-8"
     inkscape:window-maximized="1"
     inkscape:current-layer="layer1" />
  <defs
     id="defs61" />
  <g
     inkscape:label="Capa 1"
     inkscape:groupmode="layer"
     id="layer1">
    <path
       id="Vicuna"
       style="fill:#000000;fill-opacity:1;fill-rule:evenodd;stroke:#d38d5f;stroke-width:0.798208;stroke-linecap:butt;stroke-linejoin:miter;stroke-miterlimit:4;stroke-dasharray:none;stroke-opacity:1"
       d="m 152.68076,240.40277 -1.6208,-3.10784 c -0.7832,-1.50176 0.67958,-4.25461 -0.83534,-5.01208 -1.38164,-0.6908 -5.41352,-2.12082 -4.17674,-4.59439 1.25989,-2.51977 -0.16463,-1.49386 -0.83534,-4.17672 -0.39299,-1.57196 0.9336,-3.6608 -0.41767,-5.01207 -1.66851,-1.6685 -0.38232,-2.05303 -1.67069,-3.34138 -1.23006,-1.23006 -1.18185,-3.68789 -2.50604,-5.01208 -1.06693,-1.06694 -5.80587,-0.75225 -6.26509,-1.6707 -1.41396,-2.82791 0.5563,-2.76648 0.0525,-4.78168 -4.19251,-3.54049 -3.04506,-9.69502 -6.73527,-10.6722 -3.93932,-0.78786 0.74616,-0.84949 -0.41767,-3.75906 -1.25955,-3.14887 -1.36063,-3.49002 -0.41767,-5.84742 0.63115,-1.5779 4.93674,-1.40368 4.17673,-2.92372 -1.58744,-2.55485 -4.26094,-3.59787 -7.10044,-4.17671 -1.94802,-0.48701 -2.92371,-1.57757 -2.92371,-2.50604 0,-0.65019 0.83534,-3.13065 0.83534,-3.34137 -0.78373,-1.68642 -0.99263,-5.40282 -2.42788,-4.84492 -0.90724,0.35267 -1.39868,5.64453 -6.34324,1.92119 -0.79388,0.79389 -2.60676,2.66452 -3.75906,2.08839 -1.71679,-0.85842 -4.28741,-3.22643 -4.5944,-3.34141 -2.88461,-1.08027 -2.90398,0.29535 -2.92371,1.67071 -0.008,0.57308 -2.282791,3.59883 -2.923701,3.75906 -1.99095,0.49772 -6.17609,-0.42632 -6.59907,1.58855 -0.32897,1.56701 -5.54258,0.42716 -6.34879,1.33514 -0.257548,0.28992 -2.635461,3.91786 -2.088361,5.01207 0.813597,1.6272 1.013901,3.7187 1.670691,4.5944 2.44008,3.25343 2.70112,2.53355 1.25302,5.42976 -0.78288,1.56575 -1.502716,2.25181 -2.088368,4.59439 -0.600758,2.40305 -1.211083,3.38331 0.835348,5.42974 1.54498,1.54499 1.75679,2.03872 1.24808,4.07356 -0.55701,2.22804 0.28642,2.7454 -1.24808,4.27989 -0.476452,0.47645 -3.12707,2.09934 -2.506033,3.3414 0.322414,0.64483 0.846725,4.64949 -0.835348,5.01208 -5.573677,1.20146 -4.283852,-1.03384 -5.429743,-1.25302 -1.653332,-0.31626 -5.442365,-0.032 -7.100436,0 -4.599318,0.089 -2.679858,2.57799 -4.648466,2.60922 -1.543959,0.0241 -3.246688,1.36084 -4.95801,3.2382 -1.143752,1.2547 -5.275376,0.63785 -6.682762,-0.41769 -3.219449,-2.4146 -0.786819,-0.13244 -3.759055,-0.41768 -7.375896,-0.70788 -7.362948,2.20622 -7.370731,2.29969 -0.13244,1.59066 -0.198238,-1.18837 -3.601805,-2.03925 -2.184298,-0.54608 -3.350586,-0.67809 -5.734372,-0.67809 -4.924511,0 0.04996,-0.81036 -3.341382,-2.50604 -1.039794,-0.5199 -3.605159,-1.82459 -5.429742,0 -0.886023,0.88602 1.226127,3.50084 0,3.75906 -2.357016,0.49633 -1.050676,-2.28847 -7.100437,1.67067 -2.119634,1.38718 -4.4096,-1.4378 -6.265094,0.41768 -0.7585116,0.75853 -3.1123506,0.75458 -2.5060296,-1.6707 0.597274,-2.38911 0.941973,-1.03973 -0.417671,-3.75903 -1.358687,-2.7174 -2.257592,-1.79554 0.417671,-3.75906 1.9260606,-1.41366 2.3431806,-1.79647 -0.168973,-5.42897 -1.301202,-1.88149 -4.417306,-3.30135 -6.09613,-3.34216 -1.36607897,-0.16593 -1.69158797,-1.14945 -1.49953197,-2.53965 3.09473497,-1.76561 4.22109797,-5.28957 6.37647597,-8.01551 -0.568716,-3.41842 2.071624,-6.05958 2.649134,-9.25612 -2.058555,-3.14033 2.8701756,-2.20816 2.2707456,-4.47773 -4.1231226,-3.19639 3.207427,-4.84118 1.007571,-8.31249 -4.1165306,-2.87204 2.511309,-5.69934 -0.348899,-9.05792 2.951842,-1.44437 4.381746,-5.79748 2.200064,-8.30672 -3.394312,-0.0667 -1.664992,-2.66671 0.31981,-3.58483 3.667419,-1.32063 -2.284409,-3.17807 1.225244,-4.57225 3.435491,-1.58382 7.162384,-2.6574 10.864611,-3.3555 4.670193,-0.85199 -0.230397,-5.9578 3.356978,-7.85027 2.628143,-2.99905 2.846349,-4.26987 5.920093,-6.4894 -1.357179,-2.99929 -0.01056,-5.4017 3.076848,-6.2746 0.752295,-3.35766 4.400245,-2.5007 6.025031,-4.83541 1.58605,-3.4542 6.937424,-1.37737 9.717538,-3.52767 6.173523,-2.02138 8.084627,-1.87693 7.10602,-1.54357 3.808152,-1.28997 8.04288,1.52617 11.770877,0.88451 2.543891,3.00316 6.742686,5.71305 8.020546,0.25131 1.942871,-4.09846 -5.163216,-6.56552 -0.332056,-9.77675 0.196096,-2.35314 -0.653317,-5.451536 2.009197,-6.868736 1.51052,-1.82184 4.042782,-5.86234 2.313742,-7.62253 -3.381316,-2.49101 4.37021,-7.32328 1.78579,-11.16223 4.91796,-1.70443 0.73628,-5.90784 -0.0339,-8.18019 5.71726,-3.61142 -3.991251,-8.23462 -0.41366,-12.89687 1.6998,-4.22832 3.80219,-9.39143 8.396,-10.6881 2.10778,-1.84462 3.03102,1.05614 3.55843,2.10027 -2.8643,4.21859 15.530051,15.67689 14.215411,4.50275 8.13215,-4.09849 15.78896,-0.66057 20.55914,6.19712 4.74858,6.20573 8.84474,12.8336 12.9927,19.87116 4.313,-1.27588 7.34657,5.25711 10.69988,1.33753 8.85737,3.74008 16.70232,-4.28454 24.99962,-4.21817 3.65325,-0.51624 0.98539,4.11351 1.52035,6.38605 0.54694,2.32348 2.10107,2.26116 3.02032,4.46123 1.2311,2.94643 0.3012,5.97689 -0.21142,11.20274 -0.74671,7.612126 -1.15299,8.095056 6.6676,14.855586 2.78991,2.41176 6.10107,7.11826 1.69003,13.44892 -4.86009,6.97511 -4.17948,8.2904 -1.08582,7.54104 1.17893,-0.2857 0.0696,4.93466 0.0696,6.34752 0,1.41282 2.91246,3.50775 2.20173,4.01528 -0.32029,0.22867 -1.01942,8.7632 -4.19129,13.15812 -1.14305,1.58379 5.56965,3.17735 0.31157,8.12028 -2.25397,2.11888 -2.82061,5.70906 -2.23374,8.4432 0.75118,3.49964 -1.57105,6.86588 -3.58455,9.25878 -3.25764,3.8715 -5.43226,0.85474 -1.30992,5.9518 0.73066,0.90343 -2.61414,9.50511 6.12679,2.15569 2.60627,-2.19135 6.95894,-0.24376 7.34028,1.34962 0.53026,2.21552 3.90328,4.63766 6.44877,3.11837 3.5199,-2.10085 5.96586,6.4525 2.07016,6.56754 -2.88637,0.0851 -2.05195,2.61105 -1.23571,4.20835 0.55801,1.09198 -0.97027,4.13152 -2.15617,6.45607 -1.60324,3.14262 -4.97582,0.97025 -7.20764,1.22683 -2.40145,0.27604 -0.23719,5.46753 0.031,7.4007 0.18436,1.32893 -1.46652,3.0453 -2.34986,5.00101 -2.90462,6.43066 -1.72345,8.10052 0.14936,10.95874 2.14235,3.26964 -0.92582,2.71731 -4.9079,2.71731 -1.37395,0 -4.60741,4.80666 -6.39423,6.59348 -2.63111,2.63112 -2.13432,-0.32615 -4.7405,-0.8474 -1.86061,-0.37213 -5.3638,2.23422 -5.7909,2.92526 -1.01436,1.64126 -6.98174,-0.21389 -8.81236,-1.88837 -0.81611,-0.74649 -3.68228,-4.82041 -5.31432,-6.28389 -3.69443,-1.33695 -5.51323,-1.63737 -6.20067,-1.31254 z"
       sodipodi:nodetypes="cssssssssccssccscscsssssssssssssssssssssssssssssssssccccccccccccccccccccccccccccccccsssssssssssssssssssssssssssscc" />
  </g>
</svg>
