<?xml version="1.0" encoding="UTF-8" standalone="no"?>
<!-- Created with Inkscape (http://www.inkscape.org/) -->

<svg
   width="210mm"
   height="297mm"
   viewBox="0 0 210 297"
   version="1.1"
   id="svg64"
   inkscape:version="1.1.2 (b8e25be833, 2022-02-05)"
   sodipodi:docname="vector.svg"
   xmlns:inkscape="http://www.inkscape.org/namespaces/inkscape"
   xmlns:sodipodi="http://sodipodi.sourceforge.net/DTD/sodipodi-0.dtd"
   xmlns="http://www.w3.org/2000/svg"
   xmlns:svg="http://www.w3.org/2000/svg">
  <sodipodi:namedview
     id="namedview66"
     pagecolor="#ffffff"
     bordercolor="#666666"
     borderopacity="1.0"
     inkscape:pageshadow="2"
     inkscape:pageopacity="0.0"
     inkscape:pagecheckerboard="0"
     inkscape:document-units="mm"
     showgrid="false"
     inkscape:zoom="0.74029882"
     inkscape:cx="361.34057"
     inkscape:cy="453.87078"
     inkscape:window-width="1920"
     inkscape:window-height="1017"
     inkscape:window-x="-8"
     inkscape:window-y="-8"
     inkscape:window-maximized="1"
     inkscape:current-layer="layer1" />
  <defs
     id="defs61" />
  <g
     inkscape:label="Capa 1"
     inkscape:groupmode="layer"
     id="layer1">
    <path
       style="fill:#000000;fill-opacity:1;fill-rule:evenodd;stroke:#d39062;stroke-width:0.519267;stroke-linecap:butt;stroke-linejoin:miter;stroke-miterlimit:4;stroke-dasharray:none;stroke-opacity:1"
       d="m 115.56786,23.882611 c -0.60121,0.0196 -1.14501,0.0981 -1.60124,0.32618 -1.10404,0.7052 -2.02979,1.66321 -3.02459,2.46119 -0.4974,0.39896 -1.00505,0.77836 -1.5716,1.03785 -0.56654,0.25946 -1.19778,0.40359 -1.89778,0.41513 -0.46443,0.77298 -0.71204,1.44984 -0.83028,2.16465 -0.11822,0.71481 -0.092,1.48123 -0.0593,2.37224 -0.29407,0.53178 -0.83962,0.7229 -1.45298,0.85993 -0.61338,0.13699 -1.29868,0.19743 -1.86814,0.47443 -0.71174,0.2359 -1.31408,0.52169 -1.86812,0.85992 -0.55404,0.33835 -1.06141,0.75305 -1.601262,1.27509 -0.80469,0.11854 -1.48801,0.0353 -2.13499,-0.17781 -0.64698,-0.21313 -1.27885,-0.56546 -1.95709,-1.03785 -0.83783,-0.20371 -1.47003,-0.0781 -2.10534,0.0891 -0.63532,0.16721 -1.26286,0.36897 -2.10536,0.35601 -0.79498,-0.008 -1.4155,-0.0707 -1.98674,-0.29674 -0.57122,-0.22569 -1.09226,-0.62037 -1.6309,-1.21574 -0.50382,0.051 -0.94242,0.21628 -1.33437,0.4448 -0.39197,0.22845 -0.72932,0.53155 -1.0675,0.85993 -0.67639,0.65675 -1.29532,1.4282 -2.10535,2.01639 -0.69974,0.40343 -1.22348,0.81098 -1.6309,1.30472 -0.40744,0.49375 -0.71524,1.08036 -0.9489,1.8681 -0.15481,0.6192 0.13357,2.34211 0,2.87632 -0.17714,0.29242 -0.39954,0.47388 -0.65236,0.59309 -0.25282,0.11933 -0.52549,0.17624 -0.83028,0.20764 -0.60957,0.0624 -1.31154,0.0157 -1.98674,0.23708 -0.59998,0.42761 -1.25985,0.50996 -1.95708,0.59305 -0.69723,0.0832 -1.42336,0.17664 -2.10535,0.62269 -0.69697,0.51196 -1.41945,0.75171 -2.16465,0.85992 -0.74521,0.10834 -1.52686,0.0699 -2.37223,0.0314 -0.54729,0 -3.98024,-0.65025 -4.06243,-0.44476 -0.32226,0.56192 -0.67613,0.90942 -1.0675,1.15646 -0.39138,0.2469 -0.80491,0.38781 -1.24542,0.50407 -0.4405,0.11619 -0.92402,0.21628 -1.39367,0.38545 -0.46967,0.16918 -0.94448,0.42416 -1.42334,0.83029 -0.71256,0.23041 -1.09242,0.56809 -1.33438,1.03785 -0.24194,0.46973 -0.34557,1.05356 -0.47444,1.8088 -0.15642,1.16871 -0.30118,1.71089 -0.65236,1.98675 -0.35115,0.27594 -0.89575,0.3046 -1.89779,0.4448 -0.14927,0.5971 -0.31978,1.3512 -0.6227,1.95709 -0.42845,0.77989 -0.84993,1.5416 -1.33438,2.28326 -0.48445,0.74166 -1.01137,1.44984 -1.66056,2.0757 -0.72433,0.84572 -1.5626,1.6019 -2.28326,2.43152 -0.22158,0.62108 -0.36304,1.24086 -0.59306,1.83847 -0.23001,0.5976 -0.52092,1.1746 -1.03784,1.6309 -0.43664,0.76462 -0.82419,1.51311 -0.91924,2.40188 l -1.80882,1.95709 v 3.76591 l -12.21696,2.40188 -19.956325,-2.04606 c 0.335719,0.30773 0.682385,0.60467 0.830273,1.00821 0.202931,0.55376 0.273152,1.19733 0.355816,1.83847 0.0838,0.64946 0.168507,1.32246 0.118618,1.95708 -0.04985,0.63462 -0.244733,1.23486 -0.711662,1.74952 -0.284457,0.45838 -0.660059,0.67709 -1.097157,0.80062 -0.437098,0.12364 -0.936205,0.12914 -1.423329,0.14837 -0.487132,0.0196 -0.9591236,0.0624 -1.3936856,0.20764 -0.434566,0.14523 -0.817764,0.41744 -1.097149,0.91923 -0.0063,0.70327 -0.239238,1.25967 -0.563401,1.77916 -0.32414,0.51949 -0.747578,0.97556 -1.18612,1.42334 -0.438539,0.44778 -0.866467,0.90553 -1.215767,1.39367 -0.3493,0.48813 -0.62558,1.02003 -0.682012,1.66054 0.0212,0.63446 0.120463,1.24984 0.08902,1.8385 -0.0314,0.58866 -0.183187,1.13889 -0.593056,1.6309 -0.400229,0.48044 -1.075847,0.90923 -1.71986,1.33436 -0.644024,0.42517 -1.271056,0.86342 -1.571598,1.36403 -0.369357,0.24258 -0.49645,0.57339 -0.533754,0.94891 -0.03729,0.37564 0.02944,0.79296 0.118618,1.1861 0.0893,0.39315 0.196964,0.77212 0.207562,1.06749 0.0082,0.22138 -0.12584,0.3356 -0.266871,0.4448 l 0.800626,0.770979 h 9.1923636 l 10.1116,9.54822 h 1.868132 l 13.610638,9.60749 c 4.64253,0.61433 7.86212,1.19258 10.08195,1.69022 2.21982,0.49763 3.43664,0.93308 4.09209,1.30472 0.65544,0.37171 0.76227,0.6829 0.71166,0.91923 -0.0506,0.2363 -0.24992,0.3827 -0.14825,0.47444 0.20336,0.1833 1.21746,0.12246 2.31291,0.23707 0.54773,0.0573 1.10197,0.15269 1.60126,0.35602 0.49927,0.20293 0.94593,0.52134 1.21576,0.97854 0.28159,0.4771 0.68852,0.77168 1.15646,0.94891 0.46794,0.17702 1.00144,0.23668 1.51229,0.23708 1.02172,8.6e-4 1.98011,-0.23944 2.31292,-0.20765 0.81116,0.0781 5.17486,0.69833 5.30785,0.85993 0.35428,0.69408 1.03347,1.38523 1.39369,2.0757 0.30828,0.7227 0.70178,1.3875 0.77097,2.16465 0.21141,0.50206 0.45379,0.93893 0.77097,1.33439 0.31719,0.39546 0.72506,0.75673 1.21576,1.03785 0.64137,0.64138 1.28645,1.26022 1.86813,1.95709 0.66793,1.08107 1.3534,2.18211 2.16466,3.17286 0.81126,0.99071 1.73402,1.87874 2.84666,2.55014 0.6135,0.5052 1.16146,1.06403 1.66056,1.69021 0.49911,0.62614 0.96871,1.30861 1.36403,2.01639 0.79063,1.41557 1.36979,2.97139 1.80882,4.47755 0.0395,0.86714 0.003,1.52849 -0.44479,2.34257 -0.53157,1.783 -1.01099,3.64938 -1.5716,5.39682 -0.0701,2.50712 0.10335,5.06345 -0.29655,7.53179 -0.83306,0.33756 -1.54268,0.70617 -2.13499,1.12683 -0.59233,0.42066 -1.06609,0.89894 -1.48265,1.39367 -0.83309,0.98949 -1.37797,2.09058 -1.89777,3.32112 -0.60058,0.47957 -1.12567,1.05798 -1.5716,1.69021 -0.44594,0.63222 -0.82561,1.32313 -1.15647,2.04603 -0.66169,1.44583 -1.13296,3.01138 -1.57158,4.44795 -0.36893,1.80192 -0.86099,3.62539 -1.48265,5.33747 -1.30589,0.89968 -2.28625,1.99496 -3.2025,3.20253 -0.91626,1.20754 -1.76688,2.52898 -2.75771,3.79555 -0.66191,1.12409 -1.13692,2.29673 -1.74952,3.41006 -0.30632,0.55667 -0.63855,1.09881 -1.03785,1.60127 -0.29525,0.37171 -0.68799,0.71226 -1.06749,1.03785 0.35016,0.2834 0.98427,1.08739 1.83847,1.92741 0.49105,0.48291 0.99525,0.90864 1.48264,1.09716 0.24367,0.0942 0.49229,0.10402 0.71166,0.0593 0.21938,-0.0447 0.4136,-0.15779 0.59306,-0.38545 0.74253,-0.0765 1.24276,-0.52884 1.6902,-1.00818 0.44746,-0.47938 0.8576,-0.98219 1.45299,-1.18614 1.38285,0.31912 2.41068,0.62544 3.79557,1.00822 0.59548,0.16917 1.4006,0.25238 2.04604,0.5041 0.32272,0.126 0.61456,0.31166 0.80062,0.53375 0.18606,0.22216 0.28725,0.49068 0.23724,0.85992 -0.0955,0.9051 0.0306,1.78638 0.29655,2.63908 0.26604,0.85274 0.67036,1.68652 1.06749,2.46119 -0.50198,1.7905 -0.79439,3.63423 -1.15645,5.45613 -0.16117,0.45018 -0.13059,0.85486 -0.0294,1.27505 0.10095,0.42023 0.26903,0.83574 0.44479,1.24545 0.17577,0.40971 0.35189,0.82672 0.41513,1.24542 0.0632,0.41865 0.0291,0.8576 -0.20756,1.30472 -0.13102,0.85529 -0.28301,1.69398 -0.59307,2.46115 -0.31004,0.76721 -0.80079,1.43771 -1.54193,1.98676 -0.42952,0.34973 -0.532,0.68321 -0.47446,0.97854 0.0575,0.29517 0.29965,0.57562 0.56341,0.85992 0.26377,0.28419 0.55214,0.57312 0.74132,0.8896 0.18919,0.31637 0.25522,0.646 0.089,1.03785 -0.0944,0.58744 0.0259,0.96245 0.26688,1.21574 0.2408,0.25318 0.61592,0.40351 1.03784,0.47448 0.84386,0.14169 1.90632,0.0624 2.55015,0.38545 0.43903,0.0601 0.78823,0.18369 1.06749,0.38545 0.27928,0.20214 0.48693,0.46772 0.62272,0.77098 0.27158,0.60651 0.26396,1.39672 0.0593,2.16464 1.5e-4,1.74375 -0.27512,3.4492 -0.26688,5.18926 0.41936,-0.32815 1.53676,-0.60569 2.78737,-0.80062 1.3156,-0.20489 2.68865,-0.32618 3.23215,-0.32618 0.54787,-0.33324 0.9764,-0.65389 1.45299,-0.8896 0.47658,-0.2355 0.99169,-0.39133 1.74952,-0.41512 0.97285,-0.1311 1.69353,0.0491 2.31291,0.38545 0.61938,0.33639 1.14022,0.82079 1.80882,1.33436 0.89934,0.0314 1.72608,-0.0314 2.49083,0.0593 0.76477,0.0926 1.4726,0.34659 2.16466,1.00821 0.0401,0.38663 0.56206,1.17308 1.12681,1.89778 0.56475,0.7247 1.1682,1.37282 1.39368,1.54192 0.47633,0.11147 0.80495,-0.0196 1.09715,-0.26691 0.292232,-0.24572 0.541692,-0.59478 0.889592,-0.91923 0.76434,0.34109 1.23659,0.80457 1.66055,1.33439 0.42398,0.52978 0.82756,1.12405 1.42335,1.71985 0.14731,0.64361 0.48787,1.04229 0.97853,1.39367 0.49065,0.3513 1.12852,0.65153 1.80882,1.12683 -0.0134,0.62799 0.17125,1.10917 0.47444,1.54192 0.30318,0.43275 0.70236,0.81412 1.09716,1.24541 -0.48697,0.47094 -0.81493,0.84423 -1.0675,1.24542 -0.25258,0.40123 -0.40696,0.84175 -0.5041,1.42334 -0.0439,0.62849 0.0647,1.20942 0.26687,1.74952 0.20218,0.54014 0.47286,1.03883 0.77096,1.57159 0.20027,0.40053 0.51396,0.445 0.80064,0.53375 0.28665,0.0887 0.5674,0.22766 0.68201,0.80065 0.14912,0.72875 -0.0522,1.37145 -0.14829,1.95708 -0.048,0.29282 -0.0782,0.55942 -0.0294,0.83025 0.0486,0.27084 0.19442,0.5425 0.44479,0.80066 0.24737,0.12364 0.83493,-0.38113 1.36403,-0.94891 0.5291,-0.56773 0.9803,-1.19317 1.0082,-1.30472 0.5164,-0.56778 1.10767,-0.69566 1.66056,-0.83029 0.55287,-0.13463 1.08098,-0.29831 1.54194,-0.91923 0.2987,-1.05677 0.66169,-2.40616 1.24541,-3.55832 0.29188,-0.57609 0.63859,-1.11239 1.06751,-1.51232 0.4289,-0.3999 0.93212,-0.6805 1.54194,-0.77094 0.85087,0.23433 1.54213,0.76556 2.19431,1.36403 0.65217,0.59843 1.26804,1.27764 1.92743,1.83847 0.46562,0.52208 0.89797,0.76705 1.36403,0.97854 0.46605,0.21156 0.94865,0.38192 1.54195,0.7413 0.26318,0.26338 0.53755,0.61967 0.85993,0.91924 0.32237,0.29949 0.71611,0.53378 1.15645,0.53378 0.5029,0.40111 0.77358,1.02199 0.97855,1.69017 0.20497,0.66822 0.33564,1.3996 0.47444,2.04607 0.28187,1.112 0.98235,1.99249 1.60126,2.90595 0.82546,0.27908 1.38867,0.4196 1.77916,0.71167 0.39047,0.29203 0.6042,0.74574 0.74132,1.69021 -0.0102,0.69087 -0.0318,1.22359 0.0593,1.71989 0.0912,0.4963 0.29859,0.96975 0.74133,1.48261 0.59567,0.9462 0.71098,2.02472 1.03784,2.78737 1.48745,0.35837 2.83726,0.74245 4.12177,1.5716 0.42102,0.77153 0.89333,1.2838 1.45298,1.66058 0.55965,0.37681 1.22139,0.6436 2.01639,0.88955 0.17624,0.0883 0.51824,0.20843 0.77094,0.32619 l 8.54005,-5.63402 0.20764,-6.4643 c -3.15151,-10.65744 -0.68388,-8.41056 -1.21578,-11.50531 -0.32461,-1.88934 3.11304,-16.22794 3.88453,-11.92043 0.0616,0.34306 3.08235,-8.69113 4.44792,-9.16269 1.05206,-0.36347 3.85262,1.19697 4.12173,-0.8896 0.61381,-4.75985 4.42459,-10.66356 5.93056,-12.03905 1.50596,-2.39415 2.16464,-5.05431 2.16464,-5.69333 0,-0.63897 2.28499,-5.27144 3.67697,-8.21382 1.39194,-2.94238 2.40365,-7.60609 2.72803,-9.19237 0.28496,-2.01871 1.99967,3.06013 6.64223,-0.62269 2.84232,-0.46199 3.43616,-4.45493 8.62899,-9.81509 2.80947,1.84659 3.98545,-1.92085 4.29966,-3.17286 2.38783,-1.33577 -1.14066,-3.53708 0.77094,-5.33747 1.47558,-0.95613 3.20669,-0.86511 4.68514,-1.66058 5.40083,-2.90595 7.55311,-3.95161 6.28642,-10.31916 -0.64432,-3.23869 -5.79872,-5.3998 -3.32112,-13.9665 2.00454,-6.93089 -0.4687,-14.86556 -0.20764,-16.36834 0.4724,-2.71892 -7.15682,-4.8082 0,-6.43463 l 0.50407,-0.23708 c -2.02518,-2.07488 -4.05363,-4.12256 -6.07881,-6.19743 -1.93923,-5.37904 -2.71641,-9.32159 -1.48265,-10.73429 -0.55816,-2.08591 -1.00319,-4.20055 0,-6.28642 -6.48778,-5.171079 -0.92924,-6.028759 -5.0706,-6.256739 l -0.14837,-2.5205 -3.58799,-1.77916 -1.6309,1.77916 c -2.95918,0.10755 -6.25089,0.87665 -8.4807,-0.47443 -0.30498,-2.82372 -0.0275,-6.24528 -5.69332,-3.70661 l -4.29966,-3.55831 c 0.10088,-3.10229 -1.75435,-8.27117 -4.92238,-6.99809 -1.93683,-0.36739 -1.58867,-1.18096 -1.63091,-1.92741 3.51879,-1.06371 1.43999,-4.18783 0.8896,-6.73121 2.20343,-2.84861 10.85848,-7.92953 3.85486,-7.5911 -1.84106,0.25278 -2.24276,-1.26382 -2.52046,-2.96526 -2.53966,-1.48575 -2.51536,-4.12397 0,-5.81198 l -3.4101,-5.98987 -0.62269,-6.25671 0.62269,-4.44795 -3.43974,-4.18104 -5.07059,-0.14837 -2.9653,-0.59305 -9.39993,0.85993 c 0.62249,4.15395 -2.77643,5.20181 -2.07571,9.4296 -0.17035,0.075 -0.34934,0.11854 -0.5041,0.20764 -1.85868,1.06776 -2.67615,3.04219 -3.88452,3.55831 -0.10072,0.0432 -0.18935,0.0969 -0.2965,0.11854 -0.21432,0.0432 -0.43176,0.0589 -0.68202,0 -2.52715,-1.693 -4.30306,-2.38979 -6.10847,-4.32929 -1.41635,0.4083 -2.40596,1.04747 -3.17285,1.42334 -0.19171,0.0938 -0.36445,0.18684 -0.53375,0.23708 -0.50783,0.15112 -0.92763,0.0353 -1.36403,-0.50411 l -0.77098,1.51233 -1.74952,-1.21578 c -1.0488,-3.00887 -2.44312,-1.99873 -3.88451,-0.29674 -4.708,-1.19765 -5.27055,-3.25121 -4.44792,-5.63402 -4.18199,-1.64048 2.39788,-1.54404 0,-5.66369 l 1.92744,-2.0757 c 4.1456,-1.38276 3.49348,-3.06539 1.95708,-4.80373 -0.0385,7.1e-4 -0.0805,-0.001 -0.11862,0 z"
       id="Machali"
       inkscape:label="#path2163" />
  </g>
</svg>
