<?xml version="1.0" encoding="UTF-8" standalone="no"?>
<!-- Created with Inkscape (http://www.inkscape.org/) -->

<svg
   width="210mm"
   height="297mm"
   viewBox="0 0 210 297"
   version="1.1"
   id="svg1283"
   inkscape:version="1.1.2 (b8e25be833, 2022-02-05)"
   sodipodi:docname="vector.svg"
   xmlns:inkscape="http://www.inkscape.org/namespaces/inkscape"
   xmlns:sodipodi="http://sodipodi.sourceforge.net/DTD/sodipodi-0.dtd"
   xmlns="http://www.w3.org/2000/svg"
   xmlns:svg="http://www.w3.org/2000/svg">
  <sodipodi:namedview
     id="namedview1285"
     pagecolor="#ffffff"
     bordercolor="#666666"
     borderopacity="1.0"
     inkscape:pageshadow="2"
     inkscape:pageopacity="0.0"
     inkscape:pagecheckerboard="0"
     inkscape:document-units="mm"
     showgrid="false"
     inkscape:zoom="0.52347032"
     inkscape:cx="155.69173"
     inkscape:cy="611.30496"
     inkscape:window-width="1920"
     inkscape:window-height="1017"
     inkscape:window-x="-8"
     inkscape:window-y="-8"
     inkscape:window-maximized="1"
     inkscape:current-layer="layer1" />
  <defs
     id="defs1280" />
  <g
     inkscape:label="Capa 1"
     inkscape:groupmode="layer"
     id="layer1">
    <path
       id="Maipu"
       style="fill:#000000;fill-opacity:1;stroke:#d38d5f;stroke-width:1.57924;stroke-miterlimit:4;stroke-dasharray:none;stroke-opacity:1"
       d="m 193.40885,93.772349 -5.35949,4.61022 0.3479,-4.3214 -26.33149,-5.5287 -0.78387,-5.48767 c -1.14276,-5.04319 -6.51322,-2.09822 -10.19167,-2.35163 0.83576,4.63701 -3.12516,6.1913 -6.5329,8.10055 -2.08475,-3.84607 -8.95841,-3.38251 -13.84963,-4.70379 l -0.78388,3.65788 c -5.69946,0.52668 -9.82588,-3.08402 -11.90042,-1.25724 -0.28112,1.46504 -0.75657,2.82107 -2.97838,3.01894 -2.03975,0.18166 0.51635,2.51512 -7.42604,2.28995 -17.057285,4.2035 -13.915475,-6.49999 -25.656585,11.159211 0.55386,3.95062 -0.35274,6.29468 -4.86427,4.67347 -2.87874,-1.56985 -8.34238,2.15508 -9.63313,-0.0915 -7.849799,-2.13913 -15.578666,4.04302 -15.928078,0.0915 -4.229451,7.14377 -9.805921,1.82757 -14.974287,0.28621 -8.587395,-0.71879 -3.690995,5.38926 -12.017585,6.48562 -10.327518,-0.55544 -1.34706,3.101 -15.1650415,6.48574 1.3087275,1.45589 0.489695,2.51957 0.06665,2.64438 -0.131736,0.0915 -3.254517,2.0104 -3.422558,4.08079 -0.13265,1.77072 -0.417816,3.35651 -1.448005,4.87055 -1.21816,1.35565 -2.428008,2.66267 -2.896008,4.4756 -0.403963,2.12515 -1.63909905,4.30532 -0.26321,6.18686 1.468915,0.39207 3.150606,0.63646 4.475631,1.57965 1.861586,0.94619 2.752394,2.00857 3.949095,3.68585 2.9009085,-0.87824 6.7291285,-3.12728 10.3992915,-3.0277 3.797912,0.51884 7.149245,1.25463 9.609455,4.47574 0.425395,3.58927 1.440359,5.81269 5.660373,6.18686 0.791589,0.19865 2.815857,0.89261 3.159284,1.57965 0.787537,1.57991 1.56488,3.07317 3.15927,3.94905 1.650809,0.80505 2.425316,1.55652 2.237829,3.55424 -0.135918,1.83267 0.0379,2.58335 1.974554,3.1593 0.992328,-0.24831 1.469738,-0.95926 2.369446,-1.18405 1.630761,-0.37639 3.138647,-0.59856 4.738905,0.132 1.884966,1.30167 3.469934,2.91046 5.265469,4.344 3.814784,2.01458 7.79874,-1.91108 10.92583,-4.08066 4.47942,2.48859 7.26943,7.86099 12.90038,7.89811 4.5964,-1.40309 7.63773,-3.10402 12.63711,-1.57952 2.03735,-0.13069 3.94086,-0.64038 5.923655,-0.92137 3.07734,0.68482 6.12381,1.3878 9.0829,2.50102 6.11017,0.14898 6.19766,-11.86011 12.11058,-8.42466 2.47239,1.74379 3.36411,3.99728 3.02763,7.10835 -1.37803,0.91875 -2.40283,1.26246 -4.47564,1.05336 -1.39611,0.95403 -2.44189,1.73425 -2.63273,3.55424 0.35678,1.54593 0.58157,2.0206 -0.9215,2.76435 -1.07401,0.96711 -2.06874,1.93264 -3.55751,1.99433 l 16.92838,15.43957 15.1405,14.6519 16.51993,3.30462 46.91705,-69.71493 -5.28627,-4.29539 h -16.85048 l 4.6252,-11.89473 c 1.21123,-3.84999 2.42319,-5.89542 3.63438,-5.61692 l 0.15435,-14.70901 6.38099,-0.15422 2.05487,-11.238411 -10.08385,-3.29914 z"
       sodipodi:nodetypes="ccccccccccscccccccccsccccccccscccccccccccccccccccccccccccccc" />
  </g>
</svg>
