<?xml version="1.0" encoding="UTF-8" standalone="no"?>
<!-- Created with Inkscape (http://www.inkscape.org/) -->

<svg
   width="210mm"
   height="297mm"
   viewBox="0 0 210 297"
   version="1.1"
   id="svg1283"
   inkscape:version="1.1.2 (b8e25be833, 2022-02-05)"
   sodipodi:docname="vector.svg"
   xmlns:inkscape="http://www.inkscape.org/namespaces/inkscape"
   xmlns:sodipodi="http://sodipodi.sourceforge.net/DTD/sodipodi-0.dtd"
   xmlns="http://www.w3.org/2000/svg"
   xmlns:svg="http://www.w3.org/2000/svg">
  <sodipodi:namedview
     id="namedview1285"
     pagecolor="#ffffff"
     bordercolor="#666666"
     borderopacity="1.0"
     inkscape:pageshadow="2"
     inkscape:pageopacity="0.0"
     inkscape:pagecheckerboard="0"
     inkscape:document-units="mm"
     showgrid="false"
     inkscape:zoom="0.52347032"
     inkscape:cx="155.69173"
     inkscape:cy="458.47872"
     inkscape:window-width="1920"
     inkscape:window-height="1017"
     inkscape:window-x="-8"
     inkscape:window-y="-8"
     inkscape:window-maximized="1"
     inkscape:current-layer="layer1" />
  <defs
     id="defs1280" />
  <g
     inkscape:label="Capa 1"
     inkscape:groupmode="layer"
     id="layer1">
    <path
       d="m 197.16502,110.6038 c -0.77085,1.37409 -0.85063,3.86057 -2.79492,4.42041 0.0613,2.90359 -3.26439,1.97488 -3.3834,4.42041 0.92682,3.27934 -3.08863,1.28961 -3.97179,0.34611 1.70376,-1.74745 -2.26017,-2.01609 -3.76573,-2.3464 -2.21719,-0.93136 -2.9268,0.82317 -5.83252,0 -0.46125,-2.09567 -2.31463,-0.51644 -3.42041,0 -1.10743,-2.71949 -3.20092,0.42106 -4.42043,0.51508 0.20657,1.51069 1.78317,2.18888 3.03752,2.8685 1.74774,1.78874 -2.42534,4.64974 -3.69217,2.93479 -1.90985,-0.77609 -1.52854,-0.24936 -3.97182,-0.7282 0.0795,-3.22455 -2.74878,-1.19483 -5.03589,-1.78915 -3.2003,-0.13898 -6.40061,-0.27797 -9.60091,-0.41764 0.84377,2.80677 -1.51623,5.48736 -4.36124,4.14222 -3.67564,-1.55102 -1.15588,4.42294 -2.92387,5.47782 -3.53374,1.79713 -4.0686,-1.57896 -6.81466,-0.65202 -1.88582,0.45035 0.0915,-3.52761 -2.89068,-0.50963 -1.21303,-1.18952 -2.59705,1.64199 -4.42041,-0.58866 -1.31694,0.77187 -2.85416,-1.76046 -3.44963,-1.24307 -1.97449,0.46875 -2.66107,-1.49482 -4.56022,-1.55191 -1.11368,-1.40496 -2.36668,-2.11244 -3.69218,-0.58866 -2.73034,0.5069 -4.07826,-1.18346 -5.66349,-1.69172 -0.14199,1.5887 -2.58222,0.49736 -4.48665,1.69172 -1.12983,-1.13624 -3.92749,0.39312 -4.76629,-0.58867 -0.52694,1.69949 -3.255717,0.0273 -2.28008,-1.41203 -0.954427,-1.43405 -2.579147,-0.0341 -3.971827,-0.79449 -0.75098,0.78004 -2.674,-1.74827 -2.34635,-2.28011 0.85758,-3.05866 -0.94405,-3.22422 -3.03753,-3.38337 -1.60963,0.62613 -2.57096,-0.39721 -3.66299,2.1403 -0.81332,1.11021 -3.03786,1.59463 -1.69169,3.52318 1.6704,1.00985 -0.64282,3.62265 -1.55189,3.89824 -1.82136,0.21939 -5.03199,1.93571 -5.72973,1.24308 -1.93071,0.91153 -5.06337,0.49872 -7.14913,-0.0681 -2.42237,-1.99811 -1.24441,2.31384 -3.07458,2.2066 0.003,2.45255 -2.14911,2.54473 -2.79497,3.97176 -0.93533,0.90105 -0.29848,6.25521 -2.79496,2.93479 -1.3804,0.22688 -1.57379,0.16284 -3.17733,1.03704 -0.0966,1.64042 -0.56891,5.94153 -1.9713,2.79498 -1.68056,-0.79067 -4.11216,-1.6597 -5.07507,-2.79498 -1.93523,-1.67135 -2.63663,-2.5061 -5.48664,-2.28011 -0.72029,-1.33641 -2.86411,-2.23732 -3.56023,-3.24357 -0.91126,-1.27761 -2.56525,-1.92922 -3.89825,-2.41991 -1.43972,-1.33185 -2.12634,-2.18268 -3.76574,-2.79499 -0.91785,-1.13113 -3.61906,1.18005 -4.76626,-1.03703 0.30469,-3.45328 -5.164953,0.0272 -4.486664,-3.69215 1.084683,-1.28225 0.283702,-4.76421 -1.508888,-5.8144 -2.012575,0.71437 -5.241288,-0.62886 -7.809746,-0.19485 -4.358179,0.66701 -0.408997,1.83534 -1.737144,4.28905 -2.26747,1.43384 -0.103969,3.69283 -1.374476,5.20645 0.545193,2.6549 -1.903557,3.37908 -2.659531,6.02792 -0.267963,1.74957 2.63704,4.68279 2.071114,5.36527 -1.011107,3.54627 4.858236,0.99405 5.07508,3.17734 0.793616,2.35144 -0.906001,2.92266 1.765241,3.58947 0.156023,1.78063 -0.122637,4.36768 -2.082458,5.4659 0.12986,2.35744 -0.04633,4.34179 -2.786562,3.06608 -1.50123,0.35701 -3.284861,0.67315 -4.177848,3.24364 -1.599987,1.58679 -3.171413,1.45005 -5.075079,2.93472 -1.169297,0.22551 -0.283089,3.09095 -3.8685,2.28011 -0.568154,1.51866 -0.85020696,2.67888 -1.28012096,4.86899 -0.66313,1.68375 1.82126696,3.29725 1.69168596,5.14139 1.554462,-0.23097 0.363212,3.34263 1.176833,4.56021 -1.733104,0.26844 -1.162171,3.38808 0.514874,3.52318 0.822525,1.64444 0.669739,3.43952 -0.514874,4.48664 -0.890521,0.59752 -0.592477,3.44306 0.317223,2.47776 1.36102,-0.93913 1.541339,-3.24833 2.926362,-4.16941 1.390161,-0.71593 3.275561,-0.93661 2.934771,-3.38344 1.692749,-1.55914 4.978958,-1.55744 6.251905,-1.10327 2.34835,0.58526 2.870698,0.48647 4.486656,-1.17684 1.202286,-0.90105 1.706914,-3.29998 4.523161,-2.79492 1.782793,-1.31658 2.941032,-2.18166 5.479155,-1.2041 3.82982,1.00311 8.04915,1.93536 11.47481,3.48421 0.32294,1.58394 2.18093,3.72969 3.24358,2.79492 2.38713,0.53143 1.51198,1.53992 3.45693,2.28011 1.45479,1.97113 1.60938,0.13422 2.93477,-0.58867 2.00822,0.32568 3.57973,-0.75633 4.93527,-2.2801 0.87626,-2.09309 1.56815,0.0756 2.34636,1.03703 1.07506,0.83626 3.83639,0.75593 3.45694,1.83146 1.38459,1.17181 2.08137,1.22584 2.20655,3.10376 2.88696,1.78683 1.78523,-2.26798 3.9718,-2.58888 2.10817,-0.80744 3.7289,-2.38708 5.66349,-0.65475 0.82365,1.9186 2.63602,0.8383 3.97179,0.13967 1.05081,-0.87175 3.28665,-1.9682 4.79547,-1.17678 2.46574,-0.0545 4.14322,1.37409 7.00933,1.17678 2.25057,2.07551 1.73598,-2.40282 3.86904,-2.8685 1.04102,-0.79306 3.92011,-1.40843 3.52319,-3.89825 -0.0807,-0.98341 1.37469,-2.15188 1.69169,-3.76573 1.312707,-1.01769 2.130567,-3.50328 3.898237,-3.58947 -1.21864,-0.8492 1.55602,-2.30545 3.45693,-1.69165 1.53631,-0.9343 5.0227,-0.0845 5.58993,1.10326 1.10352,-0.47624 3.81642,-0.16488 5.45745,0.58866 0.60692,-2.77495 1.94349,0.75191 3.58944,0.51508 1.01322,0.91365 2.90174,4.00924 3.97179,1.38288 1.01621,-0.71675 2.65059,-3.93088 3.38339,-1.38288 -1.17051,0.49464 1.19503,4.17139 2.14031,2.28011 2.27045,0.21121 1.97513,-2.14377 3.38337,-2.79498 1.42029,1.40018 3.9113,-1.16411 5.21489,-1.62543 1.02878,-1.79753 1.71837,-2.2519 3.83197,-2.93479 -0.84495,-0.27117 -0.15923,-5.29788 1.24309,-3.52318 0.64726,1.92691 2.67742,-0.077 3.38337,1.83153 3.46042,-1.09066 2.28569,1.92596 4.28906,2.59733 -0.57278,1.88528 0.68803,1.41878 1.37445,1.96289 1.89242,1.32837 3.00635,-0.53075 3.9718,-2.28011 0.31715,-1.74228 1.96017,-2.15877 3.38338,-2.79499 0.32227,-0.72261 2.51467,-0.0409 4.4204,-1.17684 1.89244,-0.30183 4.09667,-1.15729 6.31814,-1.69165 0.83812,-1.29874 5.1152,-0.63091 5.66351,1.03697 1.61982,1.04535 3.59597,0.99561 4.93527,1.83152 2.80001,-0.5873 3.70636,1.45544 5.52368,1.69166 1.75571,0.64453 2.34183,1.96813 4.49507,2.52381 -0.61448,1.53243 0.72311,2.52443 2.55131,3.06615 1.16043,0.59412 3.45334,3.53988 3.89825,1.38288 0.42582,-2.51087 0.56958,-2.84779 -0.51508,-5.28112 0.65611,-0.52939 -1.98414,-3.75987 -0.58866,-4.56022 0.94151,-1.67278 -0.9918,-4.19919 2.91312,-4.5562 4.52704,-0.52598 1.01435,-2.99066 -0.63295,-5.00553 0.15875,-2.68318 -0.15874,-5.98493 -0.21257,-8.18866 1.61616,-1.02696 1.39685,-5.19576 3.93368,-5.63787 1.5156,-0.23437 6.58122,-1.67911 5.84069,-3.16392 1.62291,-1.60567 -0.95317,-3.2345 -0.51508,-5.76629 0.70135,-2.72644 -1.07907,-2.97117 -1.69165,-4.38389 -1.3965,-0.3904 -2.74572,-1.98537 -3.38337,-2.28011 -0.0729,-1.93448 -1.07349,-2.26185 -1.76524,-4.58938 0.0824,-1.60649 -4.62038,-1.73621 -1.69172,-3.21434 1.40162,-1.74922 -2.46836,-0.20031 -2.79498,-1.24314 z"
       style="fill:#000000;fill-opacity:1;stroke:#d39062;stroke-width:0.901333;stroke-miterlimit:4;stroke-dasharray:none;stroke-opacity:1"
       id="Purranque" />
  </g>
</svg>
