<?xml version="1.0" encoding="UTF-8" standalone="no"?>
<!-- Created with Inkscape (http://www.inkscape.org/) -->

<svg
   width="210mm"
   height="297mm"
   viewBox="0 0 210 297"
   version="1.1"
   id="svg1283"
   inkscape:version="1.1.2 (b8e25be833, 2022-02-05)"
   sodipodi:docname="vector.svg"
   xmlns:inkscape="http://www.inkscape.org/namespaces/inkscape"
   xmlns:sodipodi="http://sodipodi.sourceforge.net/DTD/sodipodi-0.dtd"
   xmlns="http://www.w3.org/2000/svg"
   xmlns:svg="http://www.w3.org/2000/svg">
  <sodipodi:namedview
     id="namedview1285"
     pagecolor="#ffffff"
     bordercolor="#666666"
     borderopacity="1.0"
     inkscape:pageshadow="2"
     inkscape:pageopacity="0.0"
     inkscape:pagecheckerboard="0"
     inkscape:document-units="mm"
     showgrid="false"
     inkscape:zoom="0.52347032"
     inkscape:cx="155.69173"
     inkscape:cy="611.30496"
     inkscape:window-width="1920"
     inkscape:window-height="1017"
     inkscape:window-x="-8"
     inkscape:window-y="-8"
     inkscape:window-maximized="1"
     inkscape:current-layer="layer1" />
  <defs
     id="defs1280" />
  <g
     inkscape:label="Capa 1"
     inkscape:groupmode="layer"
     id="layer1">
    <path
       d="m 20.183788,74.048099 c -1.48534,-0.74267 -1.80606,2.29659 -2.71994,2.75355 -1.49808,0.74902 -1.2012,2.66046 -3.02219,0.83946 -1.38255,-1.3826 -0.10044,-1.56178 -0.10044,-3.15645 -0.36636,-0.0916 -2.55517,-0.0416 -2.92143,-0.13426 -1.6694,-0.41736 -1.81116,2.05684 -1.64541,2.71994 0.3929,1.57083 2.61393,2.3453 3.42513,3.1565 0.93142,0.93136 1.24304,2.11793 1.5111,3.19007 1.32916,3.2585 0.62042,5.40469 -1.17533,8.22699 -0.87314,1.74627 0.32525,4.84011 -1.81329,4.23103 -1.65582,-0.47148 -2.00944,1.84905 -1.41035,3.79452 0.21597,0.701451 -2.32089,0.783621 -3.02218,1.309591 -0.94672,0.71004 -0.28571,2.78785 -0.87308,3.9624 -0.67648,1.353 -2.85655,0.0583 -2.41769,1.81329 0.27061,1.08275 -0.32109,3.58532 0,4.8691 0.10876,2.76167 -1.89203,2.50855 -1.10815,5.57419 0.672,1.34399 1.64541,2.11663 1.64541,3.55945 0,1.17309 -2.14614,1.15779 -3.02218,1.37678 -1.28556,0.3216 -0.72123,2.552 0,3.02213 2.22971,1.45354 1.57531,1.35648 -0.50375,2.88787 -0.70817,0.52165 -0.75495,1.22529 -0.73877,2.04836 1.03461,0.92314 2.27447,2.24314 4.1639,3.6602 0.33306,0.24979 0.63697,0.89462 0.90665,1.74616 0.26956,0.85148 0.50739,1.90186 0.73876,2.98857 0.46212,2.17335 0.85252,4.4586 1.30959,5.37274 0.18839,0.37625 1.84827,1.29528 3.59302,2.24986 1.74481,0.95452 3.60233,1.95687 4.1639,2.51843 0.55027,0.55028 1.11897,0.9385 1.74616,1.2089 0.62713,0.27061 1.28336,0.4184 1.98117,0.50375 1.39567,0.17069 2.92643,0.0671 4.56685,0.0671 1.48486,0 3.48956,0.20087 5.37274,0.67158 0.94156,0.23522 1.83515,0.52581 2.6528,0.90664 0.81766,0.38094 1.53717,0.83202 2.08193,1.37678 0.66819,0.6682 1.30787,1.19781 1.88047,1.54466 0.57255,0.34711 1.09404,0.53092 1.61179,0.57088 0.5178,0.0416 1.00735,-0.0833 1.5111,-0.33566 0.50375,-0.25239 1.01405,-0.64467 1.54465,-1.17527 0.49283,-0.49283 1.00386,-0.84857 1.54466,-1.10815 0.54086,-0.25968 1.12407,-0.43766 1.74616,-0.53726 1.24413,-0.19984 2.66545,-0.13427 4.43253,-0.13427 1.02926,0 1.84676,0.10148 2.51849,0.26853 0.67169,0.16705 1.20427,0.38146 1.74611,0.60445 0.54184,0.22273 1.07291,0.47096 1.71259,0.63801 0.63963,0.16705 1.38542,0.26853 2.35056,0.26853 1.53186,0 2.24819,-0.50531 2.955,-0.60445 0.35335,-0.052 0.70858,0.0104 1.17528,0.26853 0.4668,0.2602 1.02025,0.718 1.81334,1.51109 0.49595,0.49595 2.09644,0.97716 3.72733,1.37678 1.63089,0.39967 3.28682,0.72372 3.99597,1.00734 0.7869,0.31485 1.54018,0.42413 2.24985,0.36949 0.70963,-0.0546 1.40509,-0.27842 2.0148,-0.53726 1.2193,-0.5178 2.20458,-1.2702 2.88781,-1.61179 0.99392,-0.49699 1.79722,-0.63235 2.48493,-0.50375 0.68771,0.12853 1.26265,0.53502 1.71254,1.07452 0.44963,0.5395 0.79413,1.21197 1.07453,1.94761 0.28049,0.73564 0.4923,1.53279 0.67163,2.24986 0.21388,0.85543 0.66029,1.56573 1.24241,2.21624 0.58217,0.65055 1.2856,1.24475 2.08197,1.77972 1.5927,1.06995 3.47843,1.97925 5.00336,3.12294 1.21769,0.91325 2.19605,2.22566 3.05576,3.4587 0.85965,1.23304 1.58899,2.39489 2.28342,3.08932 1.16227,1.16232 1.92861,2.11278 2.61919,3.19007 0.69062,1.07728 1.317652,2.26588 2.149102,3.92883 0.7332,1.46634 1.45489,2.42362 2.01479,3.49226 0.27998,0.53435 0.54101,1.0979 0.70515,1.77973 0.16393,0.68183 0.23522,1.4909 0.23522,2.48487 0,0.5152 0.23626,0.96243 0.57088,1.37678 0.33462,0.41424 0.76297,0.77842 1.20885,1.14171 0.44598,0.36324 0.90805,0.71274 1.24246,1.07458 0.33462,0.36168 0.57083,0.73174 0.57083,1.14171 0,0.55038 0.32317,1.11512 0.83951,1.67898 0.51624,0.56385 1.20749,1.15076 1.94761,1.67897 1.48023,1.05637 3.10836,1.96665 3.72733,2.58562 2.07906,2.07901 3.2407,3.84515 4.76835,5.37274 0.98616,0.98617 1.7638,2.18039 2.71993,3.12294 0.47825,0.47149 0.99069,0.84987 1.61185,1.14171 0.6211,0.29195 1.35174,0.46993 2.21624,0.46993 0.92715,0 1.60892,0.27997 2.18267,0.60444 0.57379,0.32473 1.03263,0.71795 1.47753,1.0074 0.44494,0.28934 0.86985,0.47513 1.41034,0.36948 0.54044,-0.10564 1.18782,-0.51623 2.04836,-1.37677 1.0483,-1.0483 1.77686,-1.94319 2.55205,-2.71994 0.77519,-0.7768 1.61892,-1.4475 2.82069,-2.04836 0.16757,-0.0838 0.24511,0.0312 0.30235,0.23523 0.0572,0.20139 0.0687,0.50843 0.0671,0.87302 -0.003,0.72872 -0.0713,1.66701 0,2.31699 0.0364,0.32525 0.10304,0.54908 0.23523,0.67163 0.13166,0.1223 0.32473,0.13479 0.60444,-0.0671 0.55907,-0.40383 1.46197,-1.59711 2.92144,-4.02958 0.81068,-1.35117 1.23715,-2.31054 1.44391,-2.955 0.2066,-0.64447 0.21961,-0.96899 0.26853,-0.97383 0.0468,-0.005 0.13218,0.30547 0.46992,0.87308 0.33826,0.56776 0.9079,1.41164 1.98123,2.48492 2.41888,2.41888 3.99258,3.99258 5.94357,5.94357 0.64821,0.64821 1.30095,1.14447 1.94761,1.54466 0.6467,0.40019 1.31084,0.69713 2.01479,0.90665 1.40789,0.41892 2.97982,0.50375 4.96979,0.50375 1.85112,0 3.56002,0.0614 5.13768,-0.0671 1.57765,-0.12854 3.01458,-0.43297 4.36539,-1.10814 0.59451,-0.29715 1.20089,-0.26176 1.77973,-0.0312 0.57879,0.22846 1.13057,0.62823 1.71254,1.10815 0.58191,0.47981 1.17575,1.01994 1.77973,1.47748 0.60392,0.45743 1.23559,0.84617 1.88047,1.00739 0.93053,0.23262 1.80117,0.69568 2.65275,1.27603 0.85159,0.58035 1.6782,1.283 2.55206,1.98122 0.87386,0.69818 1.78977,1.39494 2.78712,1.98118 0.99735,0.58623 2.0687,1.06521 3.29082,1.30959 0.20712,0.0416 0.34086,0.0364 0.53726,0.0671 l -0.50375,-6.41375 1.84691,-3.66015 18.26733,-14.64075 c -1.01603,-0.40644 -2.03977,-0.80246 -3.05575,-1.2089 -0.56615,-0.22637 -0.98736,-0.65909 -1.30959,-1.20884 -0.32213,-0.54975 -0.5152,-1.23268 -0.63807,-1.94761 -0.24563,-1.42991 -0.15144,-3.02125 0.13427,-4.1639 0.0734,-0.2935 -0.0104,-0.66044 0.0312,-0.97383 -3.21307,-2.20104 -7.63129,-0.65857 -11.3835,-1.27602 -3.28384,-1.61018 -4.70714,-0.64884 -5.97719,-1.41035 -3.91327,-1.99808 -7.04713,-4.45324 -10.77905,-6.74946 -3.74502,-4.45002 -10.70187,-4.36072 -12.32376,-10.54404 -0.66252,-0.66258 -3.93268,-1.24246 -5.03692,-1.24246 -1.92294,0 -2.00589,-0.67158 -3.92884,-0.67158 -1.97784,0 -3.21046,-1.13495 -3.92883,-2.48487 -0.53794,-1.01099 -0.1275,-3.65219 -2.4513,-4.4661 -1.1324,-2.09654 -4.31653,-2.37688 -2.55206,-5.10411 -0.93027,-0.46524 -2.5636,-0.48189 -3.39151,-1.30964 -1.4704,-1.4704 -3.98275,-1.89463 -4.46615,-3.82808 -0.408,-1.63266 0.72367,-4.60822 -0.2014,-4.7683 -1.25094,-0.21649 -4.72525,-1.23262 -4.56684,-3.29082 0.0661,-0.85715 -1.14676,-2.8644 -1.54466,-3.66015 -1.46468,-1.87142 -3.99305,-3.03436 -6.41371,-3.22368 -1.46753,0 -2.10143,-1.31933 -3.29081,-1.91404 -2.48665,-1.70146 -4.53235,0.50062 -6.88384,1.10814 -1.42668,-1.47461 -0.28206,-2.8363 -2.11549,-3.42513 -1.65337,0 -4.55134,-0.25552 -6.1115,0.13426 -1.75891,0.43974 0.44442,1.28207 1.64541,2.18267 0.75723,1.8326 -2.59036,2.11903 -4.39897,3.02219 -3.62112,-1.20905 -5.897982,1.941 -9.066512,2.48487 -3.33567,3.2878 -3.60717,4.45616 -6.88383,0 -2.34837,-1.76874 -5.25758,-0.97809 -7.68973,-2.21624 -5.42083,-5.06534 -2.25173,7.01826 -6.31296,-2.4513 -0.36636,-1.46488 -0.61787,-1.10815 -3.29081,-1.10815 -4.65886,1.61929 1.35549,9.75235 -6.68234,2.95501 -1.10122,-2.2024 -3.18544,-1.34785 -0.73876,-3.79447 0.96618,-0.96623 1.10809,-3.34286 1.10809,-3.55945 5e-5,-1.5674 -3.90609,1.47748 -5.47349,1.47748 -1.74736,-1.44636 -1.80091,-5.31181 -2.48487,-7.52185 0,-1.93803 -1.02504,-2.31871 -1.64541,-3.5594 -0.69193,-1.38386 1.82776,-0.88755 2.92144,-1.98123 1.45832,-2.53764 -0.76302,-5.26262 -3.22364,-6.01075 -2.03353,0 -2.33208,2.121 -4.39896,0.57083 -0.86928,-0.65196 -0.53727,-2.91441 -0.53727,-4.13028 0,-1.46551 -1.42627,-2.2242 -2.48487,-2.7535 -1.52254,-0.76125 -3.7968,-1.79794 -3.02218,-3.29082 1.46378,-2.821261 0.2857,-4.202881 -4.1639,-3.190071 -1.32427,0.30131 0.61105,-2.78057 -0.53727,-3.92883 -1.08124,-1.08124 -3.6156,0.34242 -4.19746,-0.77233 -0.9921,-1.90114 -0.82885,-1.74559 -2.35056,-4.19747 -1.01114,-1.62917 -0.82952,-1.67424 -2.98862,-1.24246 -1.17788,0.23574 -3.26146,0.005 -3.29076,0 -2.49102,-0.62271 -0.54856,-1.99793 0.23522,-2.58562 -0.89952,-2.04742 -2.821,-3.44741 -3.82808,-5.50706 0.19515,-3.103 4.00064,-3.30242 0.26852,-5.50706 -0.24615,-0.0983 -1.97258,0.81022 -3.59301,0 z"
       style="fill:#000000;fill-opacity:1;fill-rule:evenodd;stroke:#d39062;stroke-width:0.537274;stroke-linecap:butt;stroke-linejoin:miter;stroke-miterlimit:4;stroke-dasharray:none;stroke-opacity:1"
       id="Niquen"
       inkscape:connector-curvature="0"
       inkscape:label="#Ñiquén" />
  </g>
</svg>
