<?xml version="1.0" encoding="UTF-8" standalone="no"?>
<!-- Created with Inkscape (http://www.inkscape.org/) -->

<svg
   width="210mm"
   height="297mm"
   viewBox="0 0 210 297"
   version="1.1"
   id="svg1283"
   inkscape:version="1.1.2 (b8e25be833, 2022-02-05)"
   sodipodi:docname="vector.svg"
   xmlns:inkscape="http://www.inkscape.org/namespaces/inkscape"
   xmlns:sodipodi="http://sodipodi.sourceforge.net/DTD/sodipodi-0.dtd"
   xmlns="http://www.w3.org/2000/svg"
   xmlns:svg="http://www.w3.org/2000/svg">
  <sodipodi:namedview
     id="namedview1285"
     pagecolor="#ffffff"
     bordercolor="#666666"
     borderopacity="1.0"
     inkscape:pageshadow="2"
     inkscape:pageopacity="0.0"
     inkscape:pagecheckerboard="0"
     inkscape:document-units="mm"
     showgrid="false"
     inkscape:zoom="0.74029882"
     inkscape:cx="361.34057"
     inkscape:cy="561.93525"
     inkscape:window-width="1920"
     inkscape:window-height="1017"
     inkscape:window-x="-8"
     inkscape:window-y="-8"
     inkscape:window-maximized="1"
     inkscape:current-layer="layer1" />
  <defs
     id="defs1280" />
  <g
     inkscape:label="Capa 1"
     inkscape:groupmode="layer"
     id="layer1">
    <path
       d="m 72.195258,99.879508 -0.4022,0.352002 v 0.4022 h -0.40221 v 0.40221 h -1.91041 v -0.40221 l -0.40221,-0.4022 h -0.35194 l -0.40221,0.4022 -0.4022,0.40221 -0.35195,0.352 -0.4022,-0.352 -0.40221,0.352 h -0.4022 v -0.352 l -0.35195,-0.80441 h -0.4022 l -0.40221,0.4022 h -0.35189 l -0.4022,0.40221 -0.40221,0.352 v 1.20656 h -0.35194 l -0.40221,0.352 -0.75412,-0.352 h -1.96069 l -0.35189,0.352 h -1.96069 l -0.35195,0.4022 h -0.402201 l -0.402206,0.40221 h -0.402205 v 0.35199 h -2.664539 l -0.804395,0.80436 v 2.31255 l -0.7541,-0.80436 h -0.402206 l -0.351943,-0.352 h -0.80409 v 1.91035 l 0.402205,0.4022 0.402206,0.352 v 0.80436 l -0.402206,0.35199 v 1.55846 l -1.5585,1.55845 h -0.35189 v 1.1563 l -0.402205,0.4022 v 0.352 l -0.402206,0.40221 v 1.1563 l -0.351889,0.4022 v 0.7541 l -0.402206,0.4022 h -0.402205 l -0.754106,0.7541 -0.402206,0.4022 H 45.90187 l -0.351943,0.352 h -0.804379 l -0.351943,0.4022 H 43.9914 l -0.402206,0.40221 -0.351943,0.352 h -0.402205 l -0.754106,0.80435 h -0.402206 l -0.754105,0.7541 h -0.402206 l -0.754122,0.80436 H 38.61199 l -0.402205,-0.40221 -0.402206,0.40221 -0.754122,0.75409 v 0.7541 l -0.804378,0.80435 h -0.351943 l -0.402206,0.352 h -0.402205 l -0.35189,0.40221 -0.402205,0.4022 h -0.754117 l -0.804379,0.352 h -0.351943 l -0.402205,0.4022 h -0.754117 l -0.402205,0.40221 h -1.558501 l -0.7541,0.75404 -0.402206,0.40221 v 0.75409 l -0.402205,0.40221 v 0.35199 l -0.35189,0.40221 v 0.80441 l -0.804395,0.75409 v 0.40221 h -0.753913 v 0.352 l -0.402206,0.4022 -0.351943,-0.4022 h -0.804378 l -0.351944,0.4022 v 0.40221 h -0.402205 l -0.754106,0.75409 v 0.40221 h -0.402205 l -0.402206,-0.40221 -0.351889,0.40221 h -0.402206 l -1.156311,1.15625 v 0.35199 l -0.402205,0.40221 v 0.75409 l -0.351944,0.80436 -4.675501,-1.55845 1.156311,-5.0273 -3.820834,-1.1563 -3.117012,5.4295 -1.156295,0.7541 -0.402206,0.4022 -6.133446,3.46885 -0.402205,0.40221 -0.402206,0.75409 v 0.7541 l 0.402206,0.4022 h 1.558501 v 1.15625 h 0.351889 l 0.402206,-0.40221 h 0.402205 l 0.351943,0.40221 h 0.402206 v 0.75409 l 0.402205,0.40221 h 2.664518 v -0.40221 h 0.804394 v 0.40221 l 0.351943,-0.40221 h 0.402206 l 0.402205,-0.35199 0.402206,0.35199 0.351943,-0.35199 v 0.35199 l 0.402205,0.40221 v 0.40221 h 0.402206 v 0.35199 l 0.351889,0.40221 0.402206,0.4022 v -0.4022 l 0.402205,0.4022 h 0.351943 l 0.804385,0.352 0.351943,0.4022 0.402205,-0.4022 h 0.402205 l 0.351944,0.4022 v 0.40221 l 0.804394,-0.40221 h 1.156312 l 0.351889,0.40221 h 0.402206 l 0.402205,0.352 v 0.80435 h -1.96069 l -0.754106,2.31255 -0.402205,-0.4022 -0.351943,1.55845 H 13.12318 l -0.804384,3.87105 h 1.5585 l 0.402206,-0.4022 0.351943,-0.40221 h 1.156311 l 0.402206,-0.352 h 0.402205 l 0.35189,-0.4022 h 1.156311 l 0.402205,-0.40221 h 0.804385 l 1.910427,-0.35199 0.402206,0.35199 h 0.351889 l 0.804395,0.40221 h 0.35189 v 0.75409 l 8.496346,2.71476 3.468913,0.75409 0.402205,0.40221 -0.754106,0.80436 h -0.402205 l -0.754116,0.75409 v 0.40221 l -0.402206,0.35199 h -0.402205 l -0.351943,0.40221 v 0.4022 h 0.754121 l 0.402206,-0.4022 h 0.754116 l 0.402206,-0.40221 v 0.80436 l -0.804395,0.7541 h -0.351943 l -0.402206,0.4022 h -0.402205 v 0.352 l -0.351943,0.4022 h -0.402206 l -0.754116,0.7541 h -0.804384 l -0.35189,-0.352 h -0.804395 v 1.50819 l -0.351889,0.40221 v 0.4022 H 28.15513 l -0.402206,0.352 h -0.351889 l -0.804395,0.80436 v 1.91039 l -0.35189,0.40221 h 0.35189 l 0.804395,0.75409 -0.402206,0.40221 h -0.402205 l -0.35189,0.4022 v 0.352 l -0.804379,0.80436 v 0.35199 h 0.402206 v 0.40221 l 0.402205,0.4022 h 0.754122 l 0.402205,0.352 v 1.1563 l -0.804394,0.80436 h -0.35189 v 0.352 l -0.402206,0.4022 h -0.402205 l -0.754122,0.7541 h 0.402206 l 0.351943,0.4022 v 0.40221 l 0.402205,0.4022 v 0.352 l -0.402205,-0.352 h -1.508228 l -0.804395,0.75404 v 0.40221 l -0.351889,0.352 v 0.80441 l -0.402206,0.35199 v 0.80436 h -1.156306 l -1.156311,1.1563 v 0.352 l -0.402205,0.4022 h -0.754122 v 0.40221 l -0.402206,0.352 h -0.402205 v 0.4022 h 0.402205 l 0.402206,0.40221 h 0.402205 l 0.351943,-0.40221 0.402206,0.40221 h 1.156311 l 0.754106,-0.80436 0.402205,0.4022 0.402206,-0.4022 h 0.351889 v 0.4022 l -0.351889,0.7541 v 1.96066 h 0.351889 l 0.402206,0.4022 -0.402206,0.352 v 2.31255 l -0.351889,0.80441 0.754105,0.35199 0.402206,0.40221 v 0.40221 l 0.351943,0.35199 h 0.402205 l 1.156312,1.15625 h 0.754105 l 0.402206,0.4022 v 0.40221 l 0.402205,0.352 h 0.35189 l 0.402205,0.4022 0.402206,-0.4022 h 0.7541 l 0.402206,0.4022 h 0.402205 l 0.35189,-0.4022 h 0.402205 l 0.402206,-0.352 h -1.156301 v -1.55845 h 3.066728 l 0.754106,-0.7541 v -0.80436 h 0.402206 l 0.402205,-0.35199 h 0.754106 l 0.402205,0.35199 v 0.40221 l 0.754106,0.40221 -0.754106,0.75409 h 0.351943 l 0.402206,0.40221 0.754122,-0.40221 h 4.273296 l 0.402205,-0.4022 h 1.156301 l 0.351943,0.4022 h 4.273307 v 0.7541 h 0.402206 0.351889 l 0.402206,0.4022 0.402205,-0.4022 h 0.754106 l 0.402205,-0.352 h -0.402205 l -0.402205,-0.40221 0.402205,-0.4022 h 0.754122 l 0.402205,-0.7541 v -0.4022 l 0.402206,-0.352 v -0.4022 l 0.754122,-0.7541 h 2.312601 l 0.402205,-0.4022 h 0.754117 l 0.402205,-0.40221 h 1.156311 l 0.402209,-0.352 h 0.35194 v -0.4022 l -0.35194,-0.40221 0.75412,-0.75409 h 1.1563 l 0.40221,-0.40221 0.35189,0.40221 0.4022,-0.40221 v -0.4022 l 0.40221,-0.352 h 0.35194 l 0.40221,-0.40221 0.75412,0.40221 v -0.40221 h 0.40221 l 0.7541,0.40221 0.8044,-0.80441 v 0.4022 l 0.35189,0.40221 h 0.4022 v -0.40221 l 0.40221,-0.4022 h 1.1563 v -0.352 l 0.75411,-0.80435 h 1.15632 l 0.4022,0.4022 h 0.40221 v -1.15625 h 0.35194 l 0.4022,-0.4022 v -0.352 h 0.75411 l 0.40221,-0.4022 v -1.15625 l 0.4022,-0.40221 h 0.35194 l 0.40221,0.40221 0.40221,-0.40221 h 1.15629 v -1.1563 l 0.35194,-0.35199 h 0.40221 v -0.40221 h 1.15631 l 0.4022,-0.4022 h 0.40221 l 0.35194,0.80435 0.4022,-0.4022 h 2.31261 l 0.40221,0.4022 h 0.35194 l 0.4022,-0.4022 h 0.40221 l 0.35194,-0.40221 h 2.31261 l 0.40221,-0.35199 h 0.4022 l 0.35194,-0.40221 h 0.80438 l 0.40221,-0.40221 h 3.06672 l 0.40221,0.40221 h 0.35189 l 0.80439,0.7541 h 0.75411 l 0.75412,0.80435 h 0.80438 l 0.35194,0.352 -0.35194,0.4022 h 0.35194 l 0.40221,0.40221 h 1.55849 l 0.40221,0.352 h 0.75411 v 0.4022 l 1.1563,1.15625 h 0.4022 l 0.35189,-0.40221 0.80438,0.80436 h 0.351952 l 0.80438,-0.4022 0.35194,0.4022 h 2.7148 l 0.4022,0.352 h 0.35195 l 0.4022,-0.352 h 0.8044 v -0.4022 h 1.15629 l 0.35195,-0.40221 h 0.80438 v 0.40221 h 0.75412 l 0.4022,0.4022 0.35194,0.352 h 0.40221 v 0.4022 l 0.40221,0.40221 0.35194,-0.40221 0.4022,0.40221 h 0.75412 l 0.40221,0.352 0.4022,-0.352 h 0.75412 l 0.4022,0.352 v -0.352 l 0.35189,-0.40221 h 1.20659 l 0.35194,-0.4022 0.40221,0.4022 0.4022,-0.4022 h 0.75411 l 0.75412,-0.7541 h 0.4022 l 0.75412,-0.75409 h 0.80438 l 0.75412,-0.80436 h 0.40221 l 0.35194,-0.352 0.40221,-0.4022 v -0.40221 l 0.4022,-0.35199 h 0.35194 l 0.80438,-0.40221 v -0.4022 h 1.15631 v -0.352 l 0.40221,-0.40221 h 0.35194 l 0.40221,-0.4022 h 0.4022 l 0.35195,-0.40221 h 1.5585 l 0.4022,-0.35199 h 1.91042 l 0.4022,-0.40221 h 0.35195 l 0.4022,-0.4022 h 0.75411 l 0.80439,-0.352 h 0.35189 l 0.40221,-0.40221 h 0.4022 l 0.40221,-0.4022 h 0.75411 l 0.75412,-0.352 h 0.4022 l 0.75412,-0.80436 h 0.80438 l 0.35195,-0.35199 h 0.80438 l 0.35189,-0.40221 h 0.80439 l 0.35194,-0.4022 0.8044,0.4022 h 1.15629 l 0.75412,0.40221 h 0.40221 l 0.4022,-0.40221 0.35194,0.40221 h 1.5585 l 0.40221,0.35199 h 0.75411 l 0.4022,0.40221 h 0.75411 l 0.4022,0.75409 h 1.1563 l 0.35194,0.40221 0.40221,0.7541 h 1.15631 l 0.4022,0.4022 v 0.40221 l 0.35189,0.35199 h 0.40221 l 0.80439,0.40221 h 3.46891 l 0.35195,0.4022 v 0.40221 l 0.80438,0.75404 h 0.35189 l 0.80439,0.7541 h 0.35189 l 0.40221,0.4022 h 0.4022 l 0.75411,-0.75409 v -1.15625 l -0.75411,-0.80441 v -0.40221 l -0.80439,-0.75409 v -1.1563 l -0.7541,-0.7541 0.4022,-0.4022 v -1.55851 l -0.80439,-0.75409 -0.35189,-0.40221 v -0.352 l -0.40221,-0.4022 v -0.40221 l -0.4022,-0.75409 v -0.40221 l 0.4022,-0.35199 0.40221,-0.40221 h 0.75412 l 0.75411,-0.40221 0.4022,0.40221 h 0.75412 l 0.80438,-0.80441 v -0.352 l 0.35194,-0.4022 v -0.40221 l 0.80438,-0.35199 h 0.40221 l 0.35194,0.35199 h 0.40221 l 0.4022,0.40221 h 1.15631 l 0.35195,0.4022 0.4022,-0.4022 h 1.15631 l 0.4022,-0.40221 h 0.35195 l 0.4022,-0.35199 h 1.15631 l 0.40221,-0.40221 h 0.35189 l 0.4022,0.40221 h 0.40221 l 0.75411,0.35199 h 0.80439 v -1.1563 l 0.35189,-0.352 v -1.1563 h 0.4022 l 0.75412,-0.4022 0.40221,-0.7541 v -0.4022 l 0.75412,-0.7541 h 0.4022 v -0.4022 l 0.75411,-0.75415 0.40221,-0.40221 v -1.55845 l 0.4022,-0.4022 v -0.352 l 0.75411,-0.80441 v -0.352 l 0.4022,-0.4022 h 0.35189 l 1.5585,-1.55846 h 0.40221 l 0.75412,-0.75409 v -0.7541 l 0.4022,-0.4022 v -0.40221 l 0.75413,-0.75409 h 0.4022 l 1.15631,-1.1563 0.7541,-0.75404 h 0.8044 l 0.35189,-0.40221 h 1.96069 l 0.35189,-0.40221 h 2.31262 l 0.4022,-0.4022 h 5.02743 l 0.40221,-0.352 h 0.35188 l 0.40221,-0.4022 v -0.40221 l 0.40221,-0.35199 v -5.02731 l -0.40221,-0.75409 v -0.40221 l 0.40221,-0.4022 -0.8044,-0.7541 v -0.80441 l 0.40221,-0.35199 h 0.4022 l 1.91042,-1.96066 v -0.352 l 0.4022,-0.4022 0.35195,-0.40221 v -0.352 l 0.4022,-0.4022 h 0.40221 l 1.15631,-1.1563 v -0.7541 l 1.15629,-1.1563 h 0.40221 l 0.35189,-0.4022 h 0.80438 l 0.35195,-0.40221 h 0.80438 l 0.75412,-0.352 0.4022,-0.4022 h 0.35189 l 0.40221,-0.40221 h 0.4022 v -0.4022 l -1.96069,-0.352 -1.15631,-0.4022 -1.50823,-0.40221 -0.80439,-0.352 -1.50822,-0.4022 -2.36288,-0.75404 -0.75412,-0.40221 -11.96526,-6.1836 h -7.744 l 0.80439,-3.06664 -0.40221,-1.1563 -0.7541,-0.40221 h -1.15631 l -1.15631,-0.4022 -0.80438,-0.352 -0.75412,-1.1563 0.40221,-1.15625 -1.1563,-1.5585 v -0.80436 l -0.40221,-1.15625 -0.4022,-0.75409 -0.75411,-0.7541 h -3.11699 l -0.75412,-0.80441 v -1.15625 l 0.4022,-1.50819 v -0.80435 l 0.75412,-0.7541 -0.75412,-1.1563 -0.4022,-0.80436 -0.75412,-0.75409 h -1.1563 l -1.15631,-0.40221 -0.80439,-0.351992 v 0.351992 l -0.35195,0.40221 h -0.4022 l -0.40221,0.75409 h -0.35194 l -0.4022,0.40221 H 163.292 l -1.15631,1.1563 h -0.40221 l -0.35189,0.4022 h -0.4022 l -1.5585,1.55846 v 1.1563 l 0.4022,0.35199 v 0.80436 l -0.4022,0.352 v 0.4022 l -1.1563,1.1563 v 1.55846 l -0.35194,0.35199 v 0.40221 l -0.40221,0.4022 h -0.75411 v 0.40221 h -0.80439 l -0.35189,0.352 h -0.80439 l -0.35194,0.4022 -0.40221,-0.4022 h -1.15631 v 0.4022 l -0.8044,0.40221 -0.35189,-0.40221 h -0.4022 l -0.40221,0.40221 h -3.06674 l -0.7541,-0.40221 -0.40221,0.40221 v 0.35199 l -0.4022,0.40221 h -0.75411 l -0.4022,-0.40221 h -0.75412 l -0.40221,-0.35199 -0.4022,0.35199 v -0.35199 h -0.75412 l -0.4022,0.35199 v 0.40221 h -1.50822 l -0.40221,0.4022 h -1.5585 l -0.35194,0.352 h -1.15632 l -0.4022,0.40221 h -0.40221 l -0.35189,0.4022 h -1.15631 l -0.4022,0.352 h -1.15631 l -0.40221,0.4022 h -0.75412 l -0.4022,0.40221 -0.75412,0.352 -0.4022,0.4022 h -2.71481 l -0.35195,0.40221 v 0.35199 l -0.80438,0.40221 -0.35194,-0.40221 v -0.35199 l -0.40221,-0.80436 h -0.75411 l 0.35194,-0.352 v -0.4022 l -0.75412,-0.7541 h -0.4022 v -0.4022 h -1.5585 l -0.35194,-0.40221 v -0.352 l -0.8044,-0.80435 H 120.81 l -0.35189,-0.352 h -0.80438 v -0.40221 h -1.15631 l -0.35189,0.40221 -0.40221,-0.40221 v -0.4022 l -0.4022,-0.352 -0.35189,0.352 h -0.8044 l -0.35194,-0.352 h -0.4022 l -0.40221,0.352 h -0.4022 l -0.35189,0.4022 -0.40221,0.40221 h -1.5585 -0.75412 l -0.7541,-0.80436 h -2.71481 l -0.40221,0.40221 h -0.35194 l -0.80438,-0.7541 h -0.35194 l -0.40221,-0.4022 v -0.40221 l -1.1563,-1.1563 v -0.4022 h -0.4022 l -0.75411,-0.7541 h -0.80439 -0.35189 l -0.40221,0.40221 v 0.35199 l -0.4022,0.40221 v 0.4022 l -0.75412,0.352 h -0.4022 l -0.351952,0.40221 h -0.4022 l -0.40221,0.4022 h -0.75412 l -0.75411,0.75415 h -1.1563 l -0.40221,0.40221 h -1.1563 l -0.80439,0.4022 h -0.35194 l -1.1563,-1.1563 h -1.15631 l -0.4022,-0.40221 h -1.5585 l -0.35195,-0.4022 h -0.4022 l 0.75412,-0.40221 v -0.75409 l 0.4022,-0.40221 h 0.75411 l 0.4022,-0.35199 h 0.40221 l 0.7541,-0.40221 v -1.1563 l -0.4022,-0.4022 0.4022,-0.75405 h 0.40221 l 0.35194,-0.4022 v -0.352 l 0.40221,-0.4022 h 0.75411 v -0.40221 l 0.40221,-0.75409 -5.02742,-1.15625 -1.15631,1.55845 -10.80896,-2.31255 -0.7541,-0.80441 h -0.8044 l -0.75411,-0.4022 h -1.15631 l -0.7541,-0.352 v -0.4022 l -0.8044,-0.754102 z"
       style="fill:#000000;fill-opacity:1;fill-rule:evenodd;stroke:#d38d5f;stroke-width:0.706621;stroke-linecap:butt;stroke-linejoin:miter;stroke-miterlimit:4;stroke-dasharray:none;stroke-opacity:1"
       id="Vilcun" />
  </g>
</svg>
