<?xml version="1.0" encoding="UTF-8" standalone="no"?>
<!-- Created with Inkscape (http://www.inkscape.org/) -->

<svg
   width="210mm"
   height="297mm"
   viewBox="0 0 210 297"
   version="1.1"
   id="svg1283"
   inkscape:version="1.1.2 (b8e25be833, 2022-02-05)"
   sodipodi:docname="vector.svg"
   xmlns:inkscape="http://www.inkscape.org/namespaces/inkscape"
   xmlns:sodipodi="http://sodipodi.sourceforge.net/DTD/sodipodi-0.dtd"
   xmlns="http://www.w3.org/2000/svg"
   xmlns:svg="http://www.w3.org/2000/svg">
  <sodipodi:namedview
     id="namedview1285"
     pagecolor="#ffffff"
     bordercolor="#666666"
     borderopacity="1.0"
     inkscape:pageshadow="2"
     inkscape:pageopacity="0.0"
     inkscape:pagecheckerboard="0"
     inkscape:document-units="mm"
     showgrid="false"
     inkscape:zoom="0.74029882"
     inkscape:cx="361.34057"
     inkscape:cy="561.93525"
     inkscape:window-width="1920"
     inkscape:window-height="1017"
     inkscape:window-x="-8"
     inkscape:window-y="-8"
     inkscape:window-maximized="1"
     inkscape:current-layer="layer1" />
  <defs
     id="defs1280" />
  <g
     inkscape:label="Capa 1"
     inkscape:groupmode="layer"
     id="layer1">
    <path
       d="m 90.744303,96.968502 c -1.79653,0.59159 -2.62239,3.554238 -2.93851,3.820178 -2.34466,1.46635 0.20324,1.44812 -0.11795,3.60387 0.0454,1.25567 -1.72912,2.89269 0.42826,4.19455 2.34457,2.83698 -3.99021,3.24311 -1.87702,0.74311 -0.77305,-2.75224 -2.0926,1.41037 -4.50576,1.25403 2.06057,1.76868 0.18963,5.22375 -0.37564,5.54549 0.56437,2.07564 -0.94318,3.93269 0.37564,6.65998 0.19417,2.50743 0.0726,5.16712 -2.88072,5.03402 -3.37703,0.0944 -4.10626,0.77305 -6.91603,0 -2.39792,0.37473 -3.15137,1.53431 -5.89808,2.18687 -2.60034,0.1479 -4.74911,1.35947 -7.61776,0.84927 -1.94616,-1.59329 -3.83769,-1.53948 -6.7586,-1.46926 -0.72043,1.96204 -4.11026,2.26863 -4.50577,3.87943 1.70127,1.45719 1.49603,3.50243 -1.88191,2.87918 -2.93806,-0.17421 -3.89313,1.82675 -5.81769,2.25283 -1.36864,0.8529 -3.53156,1.78656 -5.44187,1.89889 -0.35296,-0.25587 -4.99283,1.35838 -4.88168,0.35386 -1.84662,0.82387 -5.23064,0.1116 -6.07301,1.9398 -1.6412,1.42662 -6.02012,-0.93184 -5.97503,0.31304 -2.25156,-1.084 -2.00613,-2.93081 -4.50576,-3.03651 -0.8892,-1.74137 -1.9213,1.7117 -3.8201805,2.25284 -2.07736,0.40376 -4.13258,0.83021 -3.7221,3.72218 -1.11031,1.9595 -3.22695,0.56618 -1.46934,3.29174 0.37926,2.57195 -2.50064,3.2942 -1.56716,6.50346 -2.86937997,0.39288 -0.41829,3.86101 -0.47091,4.50577 1.71705,2.55053 0.68413,-3.76746 3.91962,-2.25293 2.66922,0.98065 5.8659605,-1.25358 7.1297005,-0.99871 1.17029,1.31102 2.09297,2.86983 4.19265,3.25164 2.17644,-1.2818 1.03554,-4.40433 2.25283,-5.97512 1.04907,-1.44412 3.93678,-1.45619 4.03531,-3.50696 2.10948,-0.52989 2.64563,2.51442 5.28944,2.03771 2.32796,1.81314 3.74813,0.52898 6.54492,0.68595 2.20484,-1.55301 5.13673,-0.40014 6.91449,0 1.07057,1.03219 6.1319,1.72367 3.87797,-1.46926 2.14668,-1.87212 5.72324,-1.21185 8.4772,-1.69283 11.2161,-0.61427 22.41151,-1.83827 33.64203,-2.02936 1.06631,1.38016 1.48686,4.24545 4.13484,3.72219 1.36374,0.73313 3.6849,1.90723 4.09311,3.6643 1.36428,0.77214 3.12779,1.53703 4.505857,2.78127 1.14624,1.80779 3.02389,-0.48634 5.23145,1.0967 -0.0454,-2.68536 1.35975,-2.86701 2.31082,-5.28943 0.26313,-3.16073 1.47643,2.05812 1.93971,-2.25284 1.87384,-0.67869 0.99708,-2.70442 2.56606,-1.9398 2.59835,-2.10685 0.95406,-3.57366 0,-5.07413 -0.0726,-3.01999 5.34006,1.55174 3.0365,-1.9976 0.38835,-1.44521 -2.82682,-5.73902 -0.78394,-4.81898 1.33951,0.58886 2.42215,3.80503 4.50577,2.09559 0.42463,-2.64335 -0.5925,-4.57 -2.25284,-5.60255 2.00441,-1.31828 -2.56388,-3.94521 1.56725,-3.7221 2.08162,-2.24612 -2.45273,-2.16764 -1.56725,-4.91842 0.77033,-2.0643 3.04249,0.28581 2.03771,-2.62394 3.24819,-0.48452 2.70659,-0.0272 5.50456,-0.78395 -0.87377,1.86377 -2.13742,3.33702 -1.46926,6.74246 1.11513,2.13642 1.02612,3.93731 2.25284,5.30558 -3.01092,-0.43008 -2.28559,2.78073 -1.0967,3.82009 2.09559,2.58384 -3.74659,2.46942 -1.15614,4.19273 -1.3581,1.17447 1.56036,5.53723 -0.78394,6.28815 -1.26293,2.10666 -2.27443,2.58792 -3.03651,5.28934 3.74705,1.47598 -1.16702,1.72849 -3.60795,1.46935 -2.25039,0.45639 -2.03299,3.24157 -5.56091,3.03651 -2.17971,1.26266 0.5807,5.46718 2.41026,3.25164 2.22752,-0.35749 5.37645,-0.73586 6.7165,1.15695 1.28997,0.74674 4.32584,0.0272 4.54796,2.35001 0.79574,2.42741 1.51789,4.88576 3.03651,7.01402 0.94844,2.6077 2.32334,1.33779 5.07566,1.31193 -1.48722,-2.09115 2.64726,-1.07693 4.40632,-2.25284 0.68051,-1.93817 2.17499,-3.06201 4.03531,-3.82018 1.86404,-2.01021 3.12289,-0.22411 5.70201,-1.46926 3.55523,0.59976 4.62172,-0.71498 3.40752,-3.44916 0.50176,-1.58077 0.89282,-2.85577 0.68595,-3.77999 1.22681,-2.43439 2.92926,-1.47869 3.0365,1.09825 2.64871,0.31212 4.68098,1.33098 6.70081,0.0544 1.01132,-0.27765 4.0432,-0.56346 4.56365,-0.68595 3.1943,1.27681 1.74137,-0.47363 0.78395,-2.25284 -1.09172,-1.62922 -3.38357,-1.73311 -4.50577,-3.50696 -1.2309,-1.12638 -3.25227,-1.46236 -3.82018,-3.25173 -1.51753,-0.91986 -5.34043,-0.66508 -5.19144,1.46926 -2.81829,0.25133 -1.09625,-4.03676 -3.97742,-3.7221 -1.88337,-0.57797 -3.37114,-1.55219 -4.34843,-3.03651 -0.78848,-1.4042 -2.01249,-3.77045 -5.07576,-3.03659 -1.62459,-0.59613 -3.50506,-2.88136 -2.46652,-3.7221 -1.86132,-1.42861 1.00107,-3.81972 2.18688,-3.112 0.57616,-1.69718 4.15979,-0.85834 3.88614,-3.5888 2.08117,-1.13264 0.0817,-2.79316 2.25284,-3.87798 2.01139,-0.61699 2.92154,-2.85359 2.62874,-4.8599 -0.86106,-1.59402 -2.02318,-3.69796 -3.41232,-4.9353 -2.39929,0.29216 -2.71277,-2.2376 -3.72219,-4.19264 -2.06828,-0.48271 -0.72315,-4.51112 -3.97742,-2.56596 -2.62957,0.0454 -5.39723,0.22592 -6.60136,-1.15623 -2.63102,0.35024 -3.35154,-1.80706 -4.50577,-3.34963 -2.41579,1.24097 -3.71574,-0.22684 -5.44667,0.78394 -1.53786,-0.67143 -5.10425,-0.77033 -4.34853,-3.82018 0.14971,-2.16682 -2.72438,-2.49155 -3.72209,-3.72218 -1.59665,-1.788638 -6.28552,0.5317 -6.75869,-1.724488 -0.39107,-4.08431 -2.70606,2.474228 -4.485447,0.27583 -1.64138,-0.49087 -3.64923,-0.87196 -4.52609,0.66508 -1.80306,1.878198 -2.67611,-1.01686 -3.82017,-0.68595 1.42761,-0.98955 0.85199,-1.97746 -0.78395,-1.56716 z M 186.34521,163.1839 c -1.74128,1.57478 -4.13112,0.82659 -4.50576,3.03651 -0.27311,0.76307 -0.85109,2.43094 -2.25293,3.72218 1.79454,2.07028 -0.0454,4.63198 -2.25284,5.28935 0.62698,3.15473 -1.65789,4.18865 0,6.75869 1.79663,1.58821 3.0092,-0.74674 5.13356,0.78394 2.63256,2.37206 2.03988,-1.8233 3.0943,-3.03651 2.40827,-1.09869 -1.22364,-4.80291 0.43008,-5.59911 -0.4582,-1.9163 0.53896,-4.18084 1.75725,-5.58985 0.93774,-1.02203 3.65169,-6.363 1.6333,-4.58126 -1.06222,-0.2722 -1.19025,-1.23462 -3.0365,-0.78394 z m 1.46926,20.27599 c -2.14659,0.53351 -1.47261,3.91327 0,5.07421 1.8233,0.93184 4.08385,-1.87475 4.50577,0.9988 0.71861,0.8157 0.62515,3.50533 1.56725,5.13356 -0.71317,1.81105 -2.43621,-1.40765 -3.36923,-2.42968 -0.71045,-2.36208 -3.4313,-2.6077 -5.7403,-2.70388 -0.76035,-0.96913 -4.04674,-0.92431 -4.97622,0 0.65692,2.074 -4.11869,2.61106 -2.78127,4.50577 2.46534,0.0181 3.36215,1.56298 4.03531,3.97742 -0.64149,3.93822 3.91372,1.12111 5.60401,1.31201 1.47851,-0.47181 4.54405,-2.83653 6.44412,-1.09679 0.96142,1.67368 3.00266,1.78256 5.28934,1.09679 0.58705,-1.67014 2.18815,-2.48738 4.19264,-3.82017 1.55836,-0.68142 3.51323,-1.56363 4.81889,-2.93852 0.4691,-1.43505 3.09894,-3.15646 1.46935,-4.29054 -2.09432,0.46728 -4.81109,-2.31781 -6.75869,-0.21504 -1.46218,-0.62607 -3.3607,-2.81639 -5.97512,-2.25293 -1.7675,-1.44231 -3.34591,-2.4314 -6.17246,-2.35083 -0.7177,0 -1.43559,0 -2.15339,0 z"
       style="fill:#000000;fill-opacity:1;stroke:#d39062;stroke-width:1.20034;stroke-miterlimit:4;stroke-dasharray:none;stroke-opacity:1"
       id="Castro" />
  </g>
</svg>
