<?xml version="1.0" encoding="UTF-8" standalone="no"?>
<!-- Created with Inkscape (http://www.inkscape.org/) -->

<svg
   width="210mm"
   height="297mm"
   viewBox="0 0 210 297"
   version="1.1"
   id="svg64"
   inkscape:version="1.1.2 (b8e25be833, 2022-02-05)"
   sodipodi:docname="vector.svg"
   xmlns:inkscape="http://www.inkscape.org/namespaces/inkscape"
   xmlns:sodipodi="http://sodipodi.sourceforge.net/DTD/sodipodi-0.dtd"
   xmlns="http://www.w3.org/2000/svg"
   xmlns:svg="http://www.w3.org/2000/svg">
  <sodipodi:namedview
     id="namedview66"
     pagecolor="#ffffff"
     bordercolor="#666666"
     borderopacity="1.0"
     inkscape:pageshadow="2"
     inkscape:pageopacity="0.0"
     inkscape:pagecheckerboard="0"
     inkscape:document-units="mm"
     showgrid="false"
     inkscape:zoom="0.74029882"
     inkscape:cx="361.34057"
     inkscape:cy="345.8063"
     inkscape:window-width="1920"
     inkscape:window-height="1017"
     inkscape:window-x="-8"
     inkscape:window-y="-8"
     inkscape:window-maximized="1"
     inkscape:current-layer="layer1" />
  <defs
     id="defs61" />
  <g
     inkscape:label="Capa 1"
     inkscape:groupmode="layer"
     id="layer1">
    <path
       inkscape:label="#path2330"
       sodipodi:nodetypes="cccscsccccscccccssssssssssscsccccccccc"
       d="m 199.01938,207.13617 c -7.96873,-4.66032 -16.29527,2.35792 -16.36622,10.21846 -8.01304,5.78088 -10.77543,15.31272 -15.53546,23.67709 -1.338,5.80056 6.41211,10.72511 -8.64003,10.38463 -3.79386,-0.0825 5.16344,10.78475 -7.47704,14.04013 -4.82933,0.7413 -11.54267,5.67328 -13.79087,1.7446 -2.57559,-4.50122 -6.07009,-12.89765 -10.96612,-16.61548 1.43476,-10.26301 -4.95437,-20.69643 -15.12015,-24.67391 -13.581198,-4.5975 -4.60634,-17.42019 -2.49227,-26.41862 -7.59301,-7.8583 -13.817728,-17.45566 -21.267898,-25.75403 -2.94035,-9.44993 -10.10214,-8.51322 -13.45852,-9.47091 -3.88672,-1.10901 -0.002,-10.12417 -1.32916,-14.62162 -2.75143,-4.05313 -5.74317,-10.34044 -13.70789,-12.04614 -2.97548,2.70971 -5.05078,8.28328 -8.80609,2.07695 -9.34339,-1.91184 -18.24152,1.94601 -25.08946,8.22459 -5.41412,0.28049 -8.94539,1.10665 -11.48056,2.0476 1.90323,-3.51948 0.009,-14.5225 6.36921,-16.90316 3.46587,-1.29734 2.46764,-7.4002 1.57006,-10.99029 -0.51149,-2.04748 -1.27625,-4.90746 -3.14012,-8.6352 -4.0417,-8.08364 -2.83251,-2.59386 -10.2052496,-6.28023 -3.19905,-1.59952 -8.86655002,-5.26385 -5.49509,-8.635204 1.95462,-1.95461 5.80717,-4.29414 3.14,-7.85029 -6.92325,-9.23107 3.00505,-9.17556 2.35509,-11.77531 -0.93105,-3.72538 -6.6721,-10.49978 -1.57006,-11.77532 2.63499,-0.6588 6.8517096,-3.49815 7.8502896,-5.49508 1.96169,-3.92338 3.61271,-6.7447 2.35508,-11.77543 -0.75191,-3.00706 -3.84653,-10.08835 -3.14011,-12.56035 0.70595,-2.47188 -0.25457,-5.44935 -0.25457,-5.44935 0,0 3.03876,2.76239 7.3203,3.87929 4.28154,1.11727 40.28585,14.65568 54.89852,19.17918 7.47445,7.56908 19.08276,8.89601 26.743778,16.14689 7.9903,3.82037 17.85755,5.01483 23.16395,12.9634 9.63295,2.75662 -0.165,16.590154 8.07303,19.299514 10.55799,-1.20306 22.1801,2.93139 22.92954,20.33355 9.86336,5.97381 1.09604,18.85519 10.98074,25.29841 8.80927,5.48802 15.71118,13.09494 22.47862,20.63114 7.39879,2.40624 21.10138,8.10898 18.12013,17.48773 -7.19113,1.86964 -10.1151,17.57953 -9.01481,20.09277 z"
       style="fill:#000000;fill-opacity:1;fill-rule:evenodd;stroke:#d38d5f;stroke-width:3.11823;stroke-linecap:butt;stroke-linejoin:miter;stroke-miterlimit:4;stroke-opacity:1"
       id="Calle_Larga" />
  </g>
</svg>
