<?xml version="1.0" encoding="UTF-8" standalone="no"?>
<!-- Created with Inkscape (http://www.inkscape.org/) -->

<svg
   width="210mm"
   height="297mm"
   viewBox="0 0 210 297"
   version="1.1"
   id="svg64"
   inkscape:version="1.1.2 (b8e25be833, 2022-02-05)"
   sodipodi:docname="vector.svg"
   xmlns:inkscape="http://www.inkscape.org/namespaces/inkscape"
   xmlns:sodipodi="http://sodipodi.sourceforge.net/DTD/sodipodi-0.dtd"
   xmlns="http://www.w3.org/2000/svg"
   xmlns:svg="http://www.w3.org/2000/svg">
  <sodipodi:namedview
     id="namedview66"
     pagecolor="#ffffff"
     bordercolor="#666666"
     borderopacity="1.0"
     inkscape:pageshadow="2"
     inkscape:pageopacity="0.0"
     inkscape:pagecheckerboard="0"
     inkscape:document-units="mm"
     showgrid="false"
     inkscape:zoom="0.74029882"
     inkscape:cx="361.34057"
     inkscape:cy="345.8063"
     inkscape:window-width="1920"
     inkscape:window-height="1017"
     inkscape:window-x="-8"
     inkscape:window-y="-8"
     inkscape:window-maximized="1"
     inkscape:current-layer="layer1" />
  <defs
     id="defs61" />
  <g
     inkscape:label="Capa 1"
     inkscape:groupmode="layer"
     id="layer1">
    <path
       id="La_Higuera"
       style="fill:#000000;fill-opacity:1;fill-rule:evenodd;stroke:#d38d5f;stroke-width:0.898007;stroke-linecap:butt;stroke-linejoin:miter;stroke-miterlimit:4;stroke-dasharray:none;stroke-opacity:1"
       d="m 205.54376,143.913 c -1.10344,-2.40472 -2.36443,-3.70661 -4.00335,-2.36284 -5.16818,1.45876 -7.53343,7.26741 -9.44573,12.0244 -4.0249,5.24516 6.89745,10.44641 0.46535,14.50935 0.86654,2.55647 5.57106,7.28543 0.038,9.20297 2.90754,4.31892 -5.81316,9.75537 -2.00908,12.55784 1.94524,1.98026 -0.90366,6.52594 -2.60303,8.5756 -2.99541,1.59436 -2.03982,5.08015 -2.2604,7.72751 -5.43519,3.61272 2.55935,6.38824 0.37358,10.99912 -1.43765,6.14479 -6.16142,3.09605 -9.02338,-0.28272 -4.19409,0.72191 -8.95828,-2.44636 -13.24256,-0.9951 0.18464,-4.68617 -0.71909,-12.13502 -6.49746,-12.85985 -5.24788,-0.91643 -13.41101,1.73945 -15.49332,-5.01406 -3.82194,-3.61273 -6.78803,-7.92174 -11.50654,-9.94975 -3.57349,-5.07071 -9.16016,2.54051 -11.89492,5.1658 -2.53511,4.40263 -10.01471,8.53451 -13.97193,2.75139 -1.3992,-3.77198 -4.18656,-5.70692 -6.542584,-1.45007 -3.82679,0.43362 -5.74649,2.95815 -8.6331,5.5306 -1.51632,6.02484 -9.37809,1.00467 -11.27435,6.39564 -3.64795,2.1819 -5.50847,8.10024 -11.20921,6.30557 -0.78515,6.01992 -10.30678,-0.0136 -10.49097,5.58555 -1.47288,6.85516 -7.44288,-1.64982 -6.84644,-5.36963 -1.64754,0.65316 -3.06849,1.00424 -3.1228,-0.46688 0.38933,-1.68559 0.97766,-3.16787 1.74234,-3.75545 5.42823,-4.17098 6.70226,-5.18478 0.0499,-10.07832 -2.69145,-1.97981 -1.89524,-6.13623 -2.54808,-9.9825 -0.87614,-5.16184 -2.4782,-10.14196 -0.66605,-12.14438 1.11488,-1.23191 1.69132,-2.78299 1.28105,-3.44683 -0.41031,-0.66388 -0.13644,-2.54472 0.60845,-4.1797 1.16283,-2.55219 0.91646,-3.41061 -1.74206,-6.06914 -2.81014,-2.8101 -3.03004,-3.74048 -2.37777,-10.06002 l 0.71869,-6.96357 -8.7606,-8.42006 c -8.85327,-8.50912 -13.84464,-11.13373 -16.37034,-8.60805 -0.75706,0.75707 -2.12217,1.37645 -3.03359,1.37645 -1.29189,0 -1.19212,-0.78718 0.45267,-3.57159 2.08938,-3.53704 -0.29328,-2.35828 -1.76332,-7.9828 l -1.6449,-6.29348 c 5.75485,-0.83158 19.67095,5.00211 20.75964,-3.26928 2.38429,-6.73013 7.2111,-6.24817 12.36985,-3.29657 4.79413,9.9453 13.91421,4.15034 22.71925,5.69086 2.96409,7.16586 -0.95627,24.47571 7.9939,23.66056 1.87626,3.13206 5.7861,1.26292 9.02223,0.37491 4.23954,-1.16338 6.55733,5.66011 4.07995,11.02481 6.0169,5.06728 16.611394,-5.48118 15.095784,-13.17488 10.44657,-3.56643 -2.5358,-11.70732 7.70136,-19.82137 -5.08537,-7.82396 2.06708,-6.86481 6.88001,-9.4771 1.92354,-6.134708 4.51117,-4.559908 9.18989,-3.51396 3.43322,0.76749 9.20999,0.99622 12.72453,-0.577768 16.35055,-14.25687 15.88448,-5.42091 17.20541,-14.06012 -6.81976,-5.20161 7.20526,-7.45628 10.59934,-5.73876 2.99603,-0.70484 8.27955,-4.05405 9.63567,-4.05677 1.80611,-0.003 0.84264,3.62234 5.51343,3.15783 3.2662,-0.89128 5.99243,-1.95579 7.66108,-1.16131 2.55854,1.21816 2.56064,5.959 -0.091,9.9486 -0.42137,9.47235 14.77161,14.781378 8.86512,24.979748 9.79271,5.56421 0.18464,14.79904 5.96701,20.59142 6.41573,3.75776 2.22164,5.19018 -0.64484,10.31801 z M 0.4490288,132.69747 c 1.664082,-2.55094 3.180145,-5.81622 3.81861,-3.45925 0.581669,2.14728 -0.355639,5.81017 -1.671705,5.81017 -0.593513,0 -2.146905,-0.71089 -2.146905,-2.35092 z m 4.930955,-9.48511 c -0.295588,1.5338 0.244134,2.43268 1.601689,3.1063 0.602932,-1.50513 -0.293009,-2.5358 -1.601689,-3.1063 z"
       sodipodi:nodetypes="cccccccccccccccccccccccssssssscccsssccccccsccccscccscscccccsscccc" />
  </g>
</svg>
