<?xml version="1.0" encoding="UTF-8" standalone="no"?>
<!-- Created with Inkscape (http://www.inkscape.org/) -->

<svg
   width="210mm"
   height="297mm"
   viewBox="0 0 210 297"
   version="1.1"
   id="svg64"
   inkscape:version="1.1.2 (b8e25be833, 2022-02-05)"
   sodipodi:docname="vector.svg"
   xmlns:inkscape="http://www.inkscape.org/namespaces/inkscape"
   xmlns:sodipodi="http://sodipodi.sourceforge.net/DTD/sodipodi-0.dtd"
   xmlns="http://www.w3.org/2000/svg"
   xmlns:svg="http://www.w3.org/2000/svg">
  <sodipodi:namedview
     id="namedview66"
     pagecolor="#ffffff"
     bordercolor="#666666"
     borderopacity="1.0"
     inkscape:pageshadow="2"
     inkscape:pageopacity="0.0"
     inkscape:pagecheckerboard="0"
     inkscape:document-units="mm"
     showgrid="false"
     inkscape:zoom="0.74029882"
     inkscape:cx="361.34057"
     inkscape:cy="345.8063"
     inkscape:window-width="1920"
     inkscape:window-height="1017"
     inkscape:window-x="-8"
     inkscape:window-y="-8"
     inkscape:window-maximized="1"
     inkscape:current-layer="layer1" />
  <defs
     id="defs61" />
  <g
     inkscape:label="Capa 1"
     inkscape:groupmode="layer"
     id="layer1">
    <path
       sodipodi:nodetypes="cccccccccccsccccccccc"
       d="m 6.5422209,144.70433 c 14.4496801,-2.79955 25.0063801,10.48288 37.9158801,4.1956 4.49501,-13.45979 21.83721,-4.62199 32.55873,-6.374 3.63945,-12.91272 13.16304,-26.06511 19.07414,-36.94025 8.200819,6.64499 29.007779,20.92241 33.225599,3.65215 13.62477,-4.78121 18.9541,-23.982731 36.64512,-18.450637 7.82462,-3.842415 33.24235,-13.836422 33.70398,-10.275198 0.0876,11.431352 -5.33525,23.640915 -0.69436,28.024325 -10.60006,10.02835 -12.41929,20.08037 -4.78655,30.10875 1.66995,6.42455 -9.47837,18.51662 6.79372,18.45126 3.05471,4.91982 5.6316,12.90847 6.87103,28.71912 2.59025,-5.24212 -2.30451,5.20437 -9.3545,4.59132 -7.04999,-0.61309 -14.86191,3.40918 -20.99971,6.48683 -2.77742,13.10279 -19.948,4.63002 -24.1151,15.60362 -7.67754,11.73941 -18.00337,-1.55699 -26.23738,-5.13038 -7.41184,-2.14433 -14.22056,-5.73027 -20.88526,-9.58106 -10.684619,-7.40797 -25.730959,1.26447 -34.724479,-9.52342 -7.47755,-9.35779 -20.00703,-1.89087 -28.43477,-7.82991 -9.17982,-3.59871 -20.28937,-0.74375 -30.00047,-2.93891 L 2.8585409,175.17897 c 6.95186,-7.03734 13.5777901,-13.81121 3.68412,-30.47464 z"
       style="fill:#000000;fill-opacity:1;fill-rule:evenodd;stroke:#d38d5f;stroke-width:2.8977;stroke-linecap:butt;stroke-linejoin:miter;stroke-miterlimit:4;stroke-opacity:1"
       id="Cartagena" />
  </g>
</svg>
