<?xml version="1.0" encoding="UTF-8" standalone="no"?>
<!-- Created with Inkscape (http://www.inkscape.org/) -->

<svg
   width="210mm"
   height="297mm"
   viewBox="0 0 210 297"
   version="1.1"
   id="svg1283"
   inkscape:version="1.1.2 (b8e25be833, 2022-02-05)"
   sodipodi:docname="vector.svg"
   xmlns:inkscape="http://www.inkscape.org/namespaces/inkscape"
   xmlns:sodipodi="http://sodipodi.sourceforge.net/DTD/sodipodi-0.dtd"
   xmlns="http://www.w3.org/2000/svg"
   xmlns:svg="http://www.w3.org/2000/svg">
  <sodipodi:namedview
     id="namedview1285"
     pagecolor="#ffffff"
     bordercolor="#666666"
     borderopacity="1.0"
     inkscape:pageshadow="2"
     inkscape:pageopacity="0.0"
     inkscape:pagecheckerboard="0"
     inkscape:document-units="mm"
     showgrid="false"
     inkscape:zoom="0.52347032"
     inkscape:cx="155.69173"
     inkscape:cy="611.30496"
     inkscape:window-width="1920"
     inkscape:window-height="1017"
     inkscape:window-x="-8"
     inkscape:window-y="-8"
     inkscape:window-maximized="1"
     inkscape:current-layer="layer1" />
  <defs
     id="defs1280" />
  <g
     inkscape:label="Capa 1"
     inkscape:groupmode="layer"
     id="layer1">
    <path
       id="Pudahuel"
       style="fill:#000000;fill-opacity:1;stroke:#d38d5f;stroke-width:1.48986;stroke-miterlimit:4;stroke-dasharray:none;stroke-opacity:1"
       d="m 34.299941,227.33804 c 13.035897,-3.19306 4.563725,-6.64301 14.306714,-6.1186 7.855313,-1.0343 3.236045,-6.79653 11.337401,-6.11859 4.875841,1.45418 10.136688,6.46944 14.126755,-0.26989 0.329686,3.72412 7.621057,-2.10805 15.026559,-0.09 1.21777,2.12303 6.3721,-1.39107 9.08791,0.09 4.25613,1.52945 5.11147,-0.68193 4.58895,-4.40901 11.07658,-16.65963 8.11259,-6.56203 24.20445,-10.52758 7.49281,0.21243 5.08143,-1.98894 7.00572,-2.16037 2.09603,-0.18666 2.5446,-1.46594 2.80981,-2.848 1.95713,-1.72399 5.84999,1.68229 11.22687,1.18558 l 0.73951,-3.45095 c 4.61439,1.24659 11.099,0.80929 13.06576,4.43767 3.21486,-1.80121 6.95164,-3.26755 6.16314,-7.64211 3.47025,0.23907 8.53679,-2.5392 9.61483,2.21845 l 0.73951,5.17716 24.84114,5.21576 -0.3282,4.07684 5.10588,-4.31294 1.27035,0.0555 -0.41427,-14.81945 -7.64433,-1.76333 0.0506,-7.78468 -1.92667,-0.38825 0.24646,-17.50343 -2.21846,0.24646 -6.40963,-0.24646 -3.20444,-1.47897 -6.65615,-0.24646 -4.19117,-1.47972 -1.7262,-2.46496 -0.98597,2.46496 -4.19117,-0.98597 -2.95796,-2.21847 -2.21846,-2.71145 -1.72547,-2.71146 -0.24646,-1.47896 -2.95795,-0.49304 0.49305,-13.06577 23.41933,-24.40605 -7.88862,-5.91666 -4.68416,-5.423639 -15.28427,-14.544763 -12.73907,-12.279149 c -4.27461,7.697054 -8.48268,17.057921 -13.05302,17.362467 -9.38009,0.350769 -7.82083,16.204724 -24.02513,28.456964 -8.80802,-9.14501 -2.67462,-1.55159 -15.27812,-10.02991 -13.960315,-7.122658 -21.422792,4.91516 -37.320588,-0.81645 l -9.544611,-6.173459 c -11.147333,0.891531 -14.840683,12.361239 -19.149783,9.326849 -3.469192,-3.71648 -1.547561,1.35271 -15.9789243,6.68571 -1.470157,0.54323 -1.17979,2.55437 -2.774004,3.53413 1.633816,14.96256 -9.369547,11.52053 -0.496131,19.84434 -3.645513,7.4047 3.746391,11.3776 1.686771,23.81323 -0.708811,11.88117 -7.15281496,10.75837 -5.057254,14.5856 2.095573,3.82724 0.139937,7.19295 -0.420799,7.85645 -3.364479,3.98185 2.548255,5.20114 4.386565,8.61436 l 0.496131,10.21984 c 2.818994,5.48792 2.089938,11.70461 19.9435673,12.89883 1.178434,4.46668 4.829828,7.52028 7.713847,11.01237 z"
       sodipodi:nodetypes="cccccccccccccccccccccccccccccccccccsccccccccccccccsccczscccc" />
  </g>
</svg>
