<?xml version="1.0" encoding="UTF-8" standalone="no"?>
<!-- Created with Inkscape (http://www.inkscape.org/) -->

<svg
   width="210mm"
   height="297mm"
   viewBox="0 0 210 297"
   version="1.1"
   id="svg64"
   inkscape:version="1.1.2 (b8e25be833, 2022-02-05)"
   sodipodi:docname="vector.svg"
   xmlns:inkscape="http://www.inkscape.org/namespaces/inkscape"
   xmlns:sodipodi="http://sodipodi.sourceforge.net/DTD/sodipodi-0.dtd"
   xmlns="http://www.w3.org/2000/svg"
   xmlns:svg="http://www.w3.org/2000/svg">
  <sodipodi:namedview
     id="namedview66"
     pagecolor="#ffffff"
     bordercolor="#666666"
     borderopacity="1.0"
     inkscape:pageshadow="2"
     inkscape:pageopacity="0.0"
     inkscape:pagecheckerboard="0"
     inkscape:document-units="mm"
     showgrid="false"
     inkscape:zoom="0.74029882"
     inkscape:cx="361.34057"
     inkscape:cy="237.74183"
     inkscape:window-width="1920"
     inkscape:window-height="1017"
     inkscape:window-x="-8"
     inkscape:window-y="-8"
     inkscape:window-maximized="1"
     inkscape:current-layer="layer1" />
  <defs
     id="defs61" />
  <g
     inkscape:label="Capa 1"
     inkscape:groupmode="layer"
     id="layer1">
    <path
       inkscape:label="#path3765"
       sodipodi:nodetypes="cccccsscccccccccccccccccscccccccccccccccccccccccccccccccccccccc"
       d="m 85.494885,227.35068 c 0.83565,-4.06192 4.73323,-7.50392 9.00303,-6.97099 2.96532,-0.51554 2.89761,-4.6838 5.860015,-5.26436 3.34225,-1.61616 6.55598,-1.03131 10.14296,-0.919 3.36668,-0.62786 6.69611,1.85398 4.69733,5.3193 -0.48927,3.92086 2.11176,8.29155 6.26649,8.73688 4.15472,0.44537 -1.73076,13.85061 2.89045,13.87602 4.62121,0.0252 9.7123,1.37818 12.18263,5.62579 4.34649,4.39624 5.82983,-2.32156 8.68135,-4.18811 5.96196,-0.89628 2.85254,-6.22253 3.50376,-10.07414 1.25295,-4.54075 7.20202,-5.62816 7.31555,-10.925 4.83689,0.13705 4.01098,-6.59584 7.6305,-8.50109 4.67565,-0.99457 5.96997,-9.34376 11.37595,-4.49141 3.82215,2.21373 0.0857,10.80799 5.59905,9.59569 3.55846,-2.93274 9.22603,-2.28171 11.83192,-6.54496 3.02968,-4.26139 8.17541,-5.86588 11.98171,-9.09396 -1.68691,-4.32672 3.04482,-9.68021 4.26804,-9.43557 l 0.53285,-11.71773 -4.79361,-3.72836 0.53264,-17.04397 c -6.27804,-2.82463 -4.77658,-7.59415 -5.85887,-11.71772 -4.65574,3.58855 -9.39628,6.49882 -15.44609,-1.06523 l -9.0546,-12.78297 c -16.06158,2.50495 -20.2292,-4.72151 -20.77233,-14.91348 -5.18149,0.6309 -2.92297,-1.69851 -5.85886,-2.13047 -2.93588,-0.43198 -6.36539,-2.30492 -4.06883,-5.65085 -1.30203,-4.12746 -5.73355,-6.38203 -7.60408,-10.27575 -2.26148,-3.980406 3.11524,-9.221976 -1.54624,-12.399626 -2.98694,-2.77476 -9.25427,-1.02657 -10.31428,2.27805 1.15892,2.40621 5.29267,7.320566 -0.47793,5.99798 -3.7254,-0.18425 -8.04606,-2.63684 -5.51677,-6.76939 -0.53565,-4.76312 -6.72854,-2.43845 -9.87145,-3.83189 -4.02135,-3.865782 -7.15215,1.3963 -11.230115,1.16391 -3.91013,-1.49479 -7.02255,-4.65383 -10.16733,-7.344359 -3.85821,-2.121259 -4.85949,-6.244494 -7.18818,-9.401804 -3.66286,-0.460384 -7.84897,1.810278 -9.38584,5.276788 -0.87287,3.65784 -4.93417,6.817266 -6.09868,1.371877 -2.23148,-3.371254 -2.20926,-7.22869 -2.15438,-10.840798 -2.23162,-2.531944 -8.67328,-4.65885 -5.81981,-8.839246 0.6048,2.052975 4.42454,-14.311294 -14.18885,-11.658833 -6.136549,-0.488946 2.2332,9.158494 -4.729176,7.759722 -4.974978,-0.504954 -11.460047,1.552665 -5.989693,4.67137 4.923135,6.722975 -5.368952,6.629708 -8.517448,10.13979 -2.796075,2.174474 -10.854158,1.345289 -5.249169,5.162882 1.313235,4.061704 -0.497334,12.754941 -5.586493,9.563169 -4.2187208,0.424806 1.414824,10.928382 -5.3728828,6.846262 -7.26767903,-4.2148 -6.57031003,9.025446 -1.942155,11.022296 3.670761,2.38665 5.5592518,8.82848 1.496879,11.30511 3.7909338,4.50109 -0.316151,9.62783 -3.242759,11.89685 4.484371,1.23685 7.9894918,4.87069 4.33896,9.1446 1.99459,3.80609 -2.523386,6.11659 -1.283545,10.04177 -3.800505,2.62368 1.581572,10.25829 -5.201985,8.40995 0.5947,6.74653 -5.309966,19.4214 14.8899698,15.84558 2.340597,-3.10349 6.77557,-1.47913 10.059549,-2.33855 3.708637,-0.33446 6.369902,3.77025 10.032676,2.40823 3.283272,-0.46871 4.700152,3.71288 8.333382,2.14422 2.71229,1.39584 1.18542,5.75015 3.78181,7.88383 -0.32487,3.55533 5.86083,4.21118 2.90809,7.86373 0.15016,3.69056 1.53668,7.41044 2.60165,10.80373 1.88596,-2.12907 8.39403,3.44205 7.71105,7.90572 l 0.54733,12.58857 c 4.04247,9.499 12.29064,6.85833 9.30457,14.77785 13.6644,6.73159 11.22304,-2.64257 14.23052,-6.5679 z"
       style="fill:#000000;fill-opacity:1;fill-rule:evenodd;stroke:#d38d5f;stroke-width:1.45046px;stroke-linecap:butt;stroke-linejoin:miter;stroke-opacity:1"
       id="Combarbala" />
  </g>
</svg>
