<?xml version="1.0" encoding="UTF-8" standalone="no"?>
<!-- Created with Inkscape (http://www.inkscape.org/) -->

<svg
   width="210mm"
   height="297mm"
   viewBox="0 0 210 297"
   version="1.1"
   id="svg64"
   inkscape:version="1.1.2 (b8e25be833, 2022-02-05)"
   sodipodi:docname="vector.svg"
   xmlns:inkscape="http://www.inkscape.org/namespaces/inkscape"
   xmlns:sodipodi="http://sodipodi.sourceforge.net/DTD/sodipodi-0.dtd"
   xmlns="http://www.w3.org/2000/svg"
   xmlns:svg="http://www.w3.org/2000/svg">
  <sodipodi:namedview
     id="namedview66"
     pagecolor="#ffffff"
     bordercolor="#666666"
     borderopacity="1.0"
     inkscape:pageshadow="2"
     inkscape:pageopacity="0.0"
     inkscape:pagecheckerboard="0"
     inkscape:document-units="mm"
     showgrid="false"
     inkscape:zoom="0.74029882"
     inkscape:cx="361.34057"
     inkscape:cy="561.93525"
     inkscape:window-width="1920"
     inkscape:window-height="1017"
     inkscape:window-x="-8"
     inkscape:window-y="-8"
     inkscape:window-maximized="1"
     inkscape:current-layer="layer1" />
  <defs
     id="defs61" />
  <g
     inkscape:label="Capa 1"
     inkscape:groupmode="layer"
     id="layer1">
    <path
       style="fill:#000000;fill-opacity:1;fill-rule:evenodd;stroke:#d39062;stroke-width:1.12578;stroke-linecap:butt;stroke-linejoin:miter;stroke-miterlimit:4;stroke-dasharray:none;stroke-opacity:1"
       d="m 197.82276,175.36295 c -0.0561,-0.81504 -0.35251,-1.4737 -0.35139,-2.25159 0.002,-2.38081 0.23464,-4.33849 0.21106,-4.3624 -1.15398,-1.15387 -2.36408,-2.2937 -3.51806,-3.44767 h -6.0511 l 0.91497,-20.75673 c 0.81729,-0.81729 1.68499,-2.01673 2.67371,-3.16622 0.98905,-1.14948 2.09082,-2.2416 3.37738,-2.88488 1.58889,-0.79484 2.85031,-1.64435 4.29202,-2.39226 1.44171,-0.74769 3.04239,-1.42902 5.20675,-1.97014 2.21488,-0.55347 3.36897,-1.10469 3.94029,-1.6887 0.57143,-0.5849 0.56469,-1.19383 0.35139,-1.82936 -0.21218,-0.63542 -0.63767,-1.2631 -0.77351,-1.97014 -0.13696,-0.70727 0.0449,-1.4526 0.84423,-2.2516 0.4109,-0.41089 0.51642,-1.10356 0.49285,-1.82936 -0.0224,-0.72635 -0.21218,-1.48886 -0.35139,-2.25159 -0.14033,-0.76228 -0.27281,-1.51985 -0.21106,-2.04042 0.0561,-0.52091 0.33343,-0.84424 0.91496,-0.84424 l -14.70552,-1.68869 -38.9803,15.54986 h -7.73979 l -3.51806,-9.49876 17.30895,-7.81019 -7.73979,-28.566786 -3.8699,-5.98071 c -1.85574,0.0449 -3.96229,0.357 -5.91043,0.84423 -2.06501,0.51642 -3.86496,1.15847 -4.9253,1.6887 -2.50745,1.25366 -4.12092,1.58754 -5.4882,1.97003 -1.36728,0.38282 -2.53731,0.778 -4.08096,2.32198 -1.18653,1.18653 -2.08252,1.73809 -2.81449,1.97014 -0.73197,0.23239 -1.30183,0.19759 -1.75897,0.21106 -0.45692,0.0112 -0.83413,0.10104 -1.19619,0.63318 -0.36261,0.53214 -0.6792,1.44946 -1.12579,3.23661 -0.0449,0.18972 -9.45543,4.30559 -9.56916,4.3624 -1.37154,0.68594 -2.51777,1.738536 -3.51806,2.955156 -1.00028,1.21673 -1.84732,2.56885 -2.53304,3.94029 -0.19197,0.38282 -4.62128,2.07331 -7.31767,2.95516 l 1.26657,0.56244 c -0.86556,0 -3.44295,0.20994 -2.60343,0 0.33568,-0.0786 0.84087,-0.40078 1.33686,-0.56244 L 69.34413,95.783934 c -0.41426,1.53085 -1.41297,3.66221 -2.39226,5.839926 -1.07214,2.38519 -1.9542,4.63723 -1.6887,5.69937 0.50856,2.03313 0.20769,3.00927 -0.49284,4.08096 -0.70054,1.07213 -1.8581,2.23868 -3.02555,4.57346 -1.43352,2.86692 -2.15157,3.68623 -2.1812,4.57357 -0.0337,0.8869 0.62868,1.8214 2.1812,4.92531 1.48796,2.97593 2.30043,4.25261 2.53293,5.41781 0.23239,1.1652 -0.0898,2.24687 -0.77351,4.99569 -0.81392,3.25446 -1.88145,6.36645 -3.44767,9.49877 -1.0856,2.17109 -0.79708,3.4663 -1.12579,4.22173 -0.32894,0.75555 -1.26894,0.98457 -4.92531,0.98457 -1.15397,0 -2.49071,0.42885 -3.72922,0.63317 -1.2384,0.20433 -2.42056,0.183 -3.23661,-0.63317 -1.60674,-1.60674 -2.94461,-3.01174 -4.64385,-3.8699 -0.84985,-0.42885 -1.8141,-0.75667 -2.88489,-0.84423 -1.07101,-0.0898 -2.30536,0.0674 -3.72911,0.42211 -1.85193,0.46254 -3.76268,1.81578 -5.55859,3.37739 -1.7958,1.5615 -3.43431,3.28219 -4.78452,4.36241 -2.59367,2.07488 -4.79317,2.86871 -6.54372,3.94017 -0.87567,0.53551 -1.67949,1.17598 -2.32187,2.04054 -0.64216,0.86444 -1.15308,2.00876 -1.54792,3.58844 -0.64215,2.56863 -1.13994,3.84711 -2.32198,4.50319 -1.18204,0.65563 -3.0480002,0.63317 -6.3325502,0.63317 -1.16071,0 -1.90548,0.17065 -2.32198,0.42212 -0.4165,0.25148 -0.48274,0.57817 -0.35139,1.1258 0.26158,1.09458 1.40129,2.87287 2.67371,5.41781 0.54449,1.08785 0.28852,1.73966 -0.35139,2.25159 -0.64104,0.51193 -1.68376,0.87567 -2.67371,1.19607 -0.99018,0.31996 -1.88898,0.61185 -2.39225995,1.1258 -0.50295,0.51418 -0.60736,1.23009 0.21105995,2.32198 1.47595,1.9679 1.90637,3.56387 1.97014,5.27715 0.0224,0.52427 -0.0449,1.26859 -0.0674,1.82936 0.23576,0.23576 0.46815,0.46814 0.7039,0.7039 2.15752,2.1574 5.33463,3.84902 8.6545302,5.34742 3.3198,1.49841 6.83112,2.78227 9.56916,4.15135 2.9766,1.4883 4.84391,2.85996 6.12149,4.15134 1.27758,1.29139 1.9652,2.52316 2.53304,3.65884 0.56245,1.124 1.65378,1.63907 3.37728,2.04042 1.72361,0.40079 4.03638,0.67472 6.96583,1.40725 0.26495,0.0674 0.18861,-1.21831 0.84424,-2.53304 0.32781,-0.65676 0.86556,-1.33226 1.68869,-1.82937 0.82403,-0.49733 1.93377,-0.84423 3.51806,-0.84423 3.13355,0 5.38604,-0.68931 7.1065,-1.47764 1.72058,-0.7881 2.91576,-1.66119 4.15135,-1.97003 1.1762,-0.29413 1.76155,-0.12461 2.04053,0.28179 0.27842,0.40527 0.26944,1.08448 0.28179,1.82936 0.0112,0.74544 0.0449,1.52748 0.42212,2.25159 0.37609,0.72411 1.09122,1.34584 2.46265,1.6887 2.93349,0.73309 4.68528,2.02436 6.33255,2.81438 0.82402,0.39517 1.61224,0.69604 2.53304,0.7039 0.92057,0.007 1.93961,-0.26607 3.23661,-0.91496 1.74561,-0.87343 4.66844,-2.34264 7.52873,-3.51806 2.8603,-1.17542 5.65042,-2.07028 7.1769,-1.6887 1.55251,0.38844 3.27983,2.31694 5.69925,3.37739 1.20978,0.5299 2.59614,0.80382 4.22174,0.63318 1.62549,-0.17064 3.52513,-0.80157 5.69926,-2.25148 1.06989,-0.71401 2.02639,-1.01263 2.95516,-0.98457 0.92843,0.0225 1.8233,0.39069 2.7441,0.91497 1.84171,1.04743 3.79333,2.79664 6.40294,4.3624 2.49217,1.49526 4.36622,2.39316 6.40293,2.88488 2.03661,0.49172 4.24958,0.63318 7.45835,0.63318 3.63144,0 5.32508,0.15268 6.47321,-0.28179 1.14814,-0.43334 1.72923,-1.4883 3.02555,-4.08095 0.36038,-0.72075 0.95426,-1.03958 1.6887,-1.1258 0.73421,-0.0898 1.61348,0.0449 2.53304,0.35139 1.83913,0.61297 3.83465,1.81174 5.27714,2.53304 1.3839,0.69156 2.84795,0.97446 4.22163,0.98457 1.37367,0.0112 2.67539,-0.2627 3.86989,-0.70391 1.1945,-0.4412 2.24957,-1.09458 3.09594,-1.75908 0.84648,-0.66461 1.5002,-1.38221 1.82936,-2.04053 1.77076,-3.54141 2.96908,-5.50201 5.20676,-7.73968 0.70502,-0.70503 1.41252,-2.82056 2.04053,-4.9957 0.62756,-2.17525 1.16217,-4.43773 1.40725,-5.41792 0.5108,-2.04289 1.16419,-3.08146 1.89975,-4.08096 0.73534,-0.99916 1.51794,-1.98047 2.39226,-3.72911 0.51081,-1.02162 0.54224,-1.43284 0.84423,-2.04054 0.302,-0.60735 0.93293,-1.35459 2.67371,-3.09582 1.44722,-1.44721 1.73911,-2.78003 2.60344,-3.51817 0.43222,-0.36935 0.96323,-0.62307 1.89975,-0.63318 0.93629,-0.0112 2.27607,0.16391 4.15134,0.63318 2.32704,0.58153 4.84739,0.5602 7.38796,0.49284 0.48835,-0.0112 0.92057,0.0786 1.40724,0.0674 z"
       id="San_Rafael"
       inkscape:label="#path2903" />
  </g>
</svg>
