<?xml version="1.0" encoding="UTF-8" standalone="no"?>
<!-- Created with Inkscape (http://www.inkscape.org/) -->

<svg
   width="210mm"
   height="297mm"
   viewBox="0 0 210 297"
   version="1.1"
   id="svg1283"
   inkscape:version="1.1.2 (b8e25be833, 2022-02-05)"
   sodipodi:docname="vector.svg"
   xmlns:inkscape="http://www.inkscape.org/namespaces/inkscape"
   xmlns:sodipodi="http://sodipodi.sourceforge.net/DTD/sodipodi-0.dtd"
   xmlns="http://www.w3.org/2000/svg"
   xmlns:svg="http://www.w3.org/2000/svg">
  <sodipodi:namedview
     id="namedview1285"
     pagecolor="#ffffff"
     bordercolor="#666666"
     borderopacity="1.0"
     inkscape:pageshadow="2"
     inkscape:pageopacity="0.0"
     inkscape:pagecheckerboard="0"
     inkscape:document-units="mm"
     showgrid="false"
     inkscape:zoom="0.52347032"
     inkscape:cx="155.69173"
     inkscape:cy="458.47872"
     inkscape:window-width="1920"
     inkscape:window-height="1017"
     inkscape:window-x="-8"
     inkscape:window-y="-8"
     inkscape:window-maximized="1"
     inkscape:current-layer="layer1" />
  <defs
     id="defs1280" />
  <g
     inkscape:label="Capa 1"
     inkscape:groupmode="layer"
     id="layer1">
    <path
       d="m 8.2558934,105.54056 c -2.338377,1.61137 -3.982952,-0.43154 -4.299215,3.13435 -0.385119,2.00544 1.098122,2.84332 1.621014,4.29925 3.895273,2.16415 -1.767103,2.21357 -2.070648,4.64232 -2.180948,1.37355 -3.14808801,4.24049 -2.299049,6.66761 -2.249217,1.83374 0.924913,3.73858 2.748683,3.95056 1.940443,1.88897 0.721281,4.56568 0.756757,6.82743 -0.563936,2.19888 -1.954642,3.8256 -1.884407,6.14069 -1.527884,2.07804 3.167934,0.83213 3.312489,2.74865 3.397478,-1.28149 -0.0019,2.97591 0,4.29925 -1.566644,2.56683 2.786758,0.53665 3.735396,1.62097 1.8589916,1.31969 3.0601216,0.90904 4.3696766,2.18485 0.690819,1.31727 3.811506,1.34129 5.276435,2.48529 1.499465,0.11947 4.995824,0.39628 5.013451,2.37776 3.756915,-0.52359 3.309337,3.25122 1.559326,5.36641 -1.529849,2.25973 -0.79871,6.51464 -4.287209,6.70201 -2.792686,0.52751 -5.652166,2.70648 -8.401476,2.16311 -1.91175,-1.92997 -4.9689266,-0.95539 -3.5302036,0.92137 1.0857896,1.23886 3.5807536,-0.72558 4.3696766,1.12768 0.02024,2.27252 3.534617,1.25746 4.299196,3.24201 0.893301,1.59408 3.845598,1.28848 3.204899,2.67821 1.779507,1.65636 2.019561,-1.07009 3.242013,-1.62104 1.009582,-1.51188 1.701184,0.87555 3.242047,1.05724 0.553164,-1.57071 3.334954,-1.3255 4.97063,-1.05724 1.345346,1.71544 4.502011,-0.20499 2.678182,-1.9696 0.805552,-1.20047 3.522069,0.38192 4.262087,-1.83622 1.859601,-0.79459 -1.522746,-4.78882 1.465216,-3.46248 2.338655,0.76169 5.595705,-0.50074 7.697015,0.78427 2.73758,0 5.47512,0 8.21267,0 0.30195,-0.51183 4.16872,-0.007 5.88309,0.49356 2.54711,-0.10641 4.22027,1.26746 7.08501,1.12768 2.43494,0.95349 4.80535,0.62543 7.21464,1.05717 2.37408,0.62478 3.42705,1.52703 5.82393,1.62097 1.7867,1.39953 3.34951,1.04033 5.42685,2.18485 1.97079,0.44263 4.64019,1.04613 5.92023,2.07725 2.00857,0.28138 2.97528,1.19512 4.86303,1.72863 1.572265,0.99685 3.709405,1.78523 4.825915,2.67821 1.50648,0.64372 2.50186,1.33085 4.29922,2.18485 0.90459,1.09229 2.68677,1.30701 3.80585,2.18484 1.31534,0.67042 2.88663,1.08485 3.84296,2.11434 1.8197,0.37017 3.82771,1.58467 6.23173,1.62104 3.12868,-0.0261 6.3629,0.22393 9.2327,-0.49356 1.99015,-0.37605 4.30864,-1.03843 6.83265,-1.12768 2.18831,-0.55688 4.58697,-0.96773 6.24306,-1.62104 1.41202,-0.73896 5.0878,-0.12992 4.51441,-2.98968 0.12143,-1.77035 2.06906,-3.11118 3.13442,-4.55151 -1.06826,-3.31657 2.81501,-1.72622 2.7858,-4.36969 1.91729,-0.74113 0.95703,-3.14807 3.07128,-3.56459 0.95088,-1.01572 0.51125,-2.41916 1.29839,-3.48331 0.95079,-1.87892 4.54113,-0.82182 6.63692,-1.2179 9.32273,-0.29901 18.64543,-0.59737 27.96817,-0.89644 0.0903,-3.66297 -0.5134,-7.52403 1.12765,-10.85372 -2.41496,-1.40631 -3.76183,-4.18669 -6.73624,-4.20438 -0.81839,-2.32104 -2.70534,-4.60401 -2.49648,-7.23899 2.01302,-3.91243 3.84797,-8.33625 6.56543,-11.89601 1.31523,-2.72978 5.08126,-1.94511 6.29518,-4.55131 0.66421,-3.05752 4.02115,-2.48189 5.27029,-4.33418 -0.39589,-3.08944 2.46768,-4.14236 3.44247,-6.61845 -0.093,-1.99564 3.79956,-6.08062 -0.13586,-5.68571 -2.41132,-0.38519 -5.88405,0.62935 -5.72077,-2.55077 -1.77565,-1.50764 -2.55729,0.76789 -4.6923,0.88638 -2.72089,-0.21153 -3.94177,1.83733 -3.41277,4.52918 -0.9664,1.17416 -1.27588,2.19634 -2.74866,3.81712 -1.7611,0.55231 -2.98237,1.64454 -3.24203,3.69829 -2.09655,0.66611 -3.31149,1.45652 -5.9202,1.16476 -1.59373,1.38444 -4.1529,0.75235 -4.93354,-1.02002 -1.29361,-1.57723 -3.06557,0.81633 -4.86302,0.45634 -1.15115,-0.094 -3.64121,0.0855 -3.73538,2.18485 -0.36834,1.55497 -0.74312,4.4088 -2.64107,4.86299 -1.71602,0.64045 -3.6588,0.6411 -5.53448,1.62104 -0.62367,-1.86756 -3.09825,-2.12198 -4.2992,-0.56407 -2.41297,-0.13188 -5.22824,0.56798 -6.44692,0.56407 -1.56494,-1.3268 -3.39443,0.82945 -4.86302,1.05717 -1.0961,0.67289 -2.72225,2.70843 -4.90016,1.12767 -0.92339,-1.13982 -3.62105,-1.66112 -5.74947,-0.80503 -1.81817,1.95908 -4.71024,-0.007 -5.10427,-1.72844 -1.16878,-1.24702 -2.97993,-1.33071 -5.17455,-0.77905 0.79854,-1.53819 -0.90441,-1.74443 -1.87334,-1.05717 -2.63642,-0.56798 -0.86342,4.26994 -4.00973,3.24202 -0.55212,0.70769 1.33862,4.61294 -0.28948,3.34966 -2.2174,0.001 -4.40002,0.006 -5.42686,-2.22199 -1.98627,-0.42305 -4.45174,-1.21464 -7.10704,-1.12767 -2.46221,-0.39694 -4.98006,-0.64633 -7.648815,-0.49356 -1.58006,-0.77697 -4.26567,-0.81777 -6.16731,0.30031 -2.12883,0.48834 -3.61061,1.59408 -5.38394,2.15729 -2.44968,0.61956 -3.89429,1.59382 -6.69902,1.27764 -1.19575,1.33418 -4.88437,0.17562 -7.02581,0.56407 -0.90693,1.30734 -5.15086,0.12208 -5.99071,1.62097 -2.46001,0.0196 -3.63269,1.00481 -5.18565,1.94362 -2.26614,1.82532 -3.3671,-1.68607 -5.66807,-1.94362 0.12939,-2.88999 -3.99078,-2.31783 -4.29922,-4.15444 -0.93868,-2.06674 -0.79305,-4.01604 -2.18484,-6.02781 -0.25285,-2.7057 -4.32884,-1.86221 -5.92023,-1.16483 -2.396809,1.72073 -3.404948,-2.70223 -5.775478,-2.18484 -2.265101,-1.60446 -3.700096,0.85543 -5.078234,-2.18485 -2.41281,-0.54905 -4.106414,0.0699 -6.484041,-0.49356 -1.72925,-1.71609 -2.829912,-2.76765 -4.944418,-3.88723 -1.611991,-1.6922 0.426641,-4.22508 -1.943596,-5.7495 -2.233653,-0.6078 -4.333124,-2.07111 -2.838053,-4.31433 -1.564143,0.68074 -3.831712,0.18476 -5.749487,-1.03118 -0.6183186,-0.59997 -1.1925836,-1.24656 -1.8622166,-1.7917 z"
       style="fill:#000000;fill-opacity:1;stroke:#d39062;stroke-width:0.863675;stroke-miterlimit:4;stroke-dasharray:none;stroke-opacity:1"
       id="Puyehue" />
  </g>
</svg>
