<?xml version="1.0" encoding="UTF-8" standalone="no"?>
<!-- Created with Inkscape (http://www.inkscape.org/) -->

<svg
   width="210mm"
   height="297mm"
   viewBox="0 0 210 297"
   version="1.1"
   id="svg64"
   inkscape:version="1.1.2 (b8e25be833, 2022-02-05)"
   sodipodi:docname="vector.svg"
   xmlns:inkscape="http://www.inkscape.org/namespaces/inkscape"
   xmlns:sodipodi="http://sodipodi.sourceforge.net/DTD/sodipodi-0.dtd"
   xmlns="http://www.w3.org/2000/svg"
   xmlns:svg="http://www.w3.org/2000/svg">
  <sodipodi:namedview
     id="namedview66"
     pagecolor="#ffffff"
     bordercolor="#666666"
     borderopacity="1.0"
     inkscape:pageshadow="2"
     inkscape:pageopacity="0.0"
     inkscape:pagecheckerboard="0"
     inkscape:document-units="mm"
     showgrid="false"
     inkscape:zoom="0.74029882"
     inkscape:cx="361.34057"
     inkscape:cy="561.93525"
     inkscape:window-width="1920"
     inkscape:window-height="1017"
     inkscape:window-x="-8"
     inkscape:window-y="-8"
     inkscape:window-maximized="1"
     inkscape:current-layer="layer1" />
  <defs
     id="defs61" />
  <g
     inkscape:label="Capa 1"
     inkscape:groupmode="layer"
     id="layer1">
    <path
       d="m 168.90954,292.52247 c -5.28684,-6.12149 -9.68449,-13.2727 -13.94732,-14.39724 -2.12441,-6.0112 -5.50143,-11.3016 -8.09845,-17.09671 1.66278,-5.25777 0.59426,-9.2994 0.44992,-13.4974 1.38205,-5.25335 -1.59969,-11.91834 -4.04922,-16.19687 -2.82855,-3.0625 -4.07275,-1.00664 -15.29706,-2.24958 -6.1559,-2.49597 -12.16882,1.06491 -21.59583,6.29878 -3.60611,4.52161 -9.836808,3.66792 -14.397233,1.34976 -8.475936,-3.17708 -7.828625,-10.52176 -9.44817,-16.1969 -4.170339,-3.10777 -6.384372,-7.93308 -9.898109,-11.69775 -1.655781,-1.65574 -6.582418,-4.09821 -8.640436,-4.45389 0.814625,-2.45208 0.489506,-5.00719 0,-7.50065 -1.347382,-3.45948 -2.712759,-7.6073 -4.853358,-10.58917 -4.749172,-5.27564 -10.54485,-8.71298 -16.766171,-11.91282 -17.106554,-10.07432 -8.49212,-9.20938 -10.147953,-21.61951 -0.520506,-5.03597 3.367437,-9.52275 -0.88242,-13.6777 -2.026459,-5.58666 -8.047003,-8.89254 -10.147952,-14.5601 -0.965208,-4.10408 -4.823206,-6.87552 -8.383091,-8.82429 -6.2842191,-4.73012 -1.768669,-10.03077 -2.647281,-15.0013 -3.9104097,-4.153053 -9.19994389,-3.979253 -7.9418786,-10.589172 1.6492415,-4.09169 6.570807,-5.161746 7.9418786,-9.265521 0.08805,-9.379 0.663059,-14.638682 -0.4412196,-23.825627 0,-1.265153 3.4000136,-2.7706 4.4121466,-3.529712 1.87836,0.294181 3.778262,0.187108 5.670115,0.136428 2.747008,0.264454 4.107873,-1.691293 2.836356,-4.018194 -2.818569,-1.200411 -4.038298,-2.676554 -5.19999,-5.43634 -1.859113,-3.955355 1.176292,-7.158344 3.072718,-10.399969 1.416916,-2.869416 -1.737793,-4.041164 -1.890901,-6.854529 1.242462,-3.850403 1.481224,-7.782777 2.836356,-11.581744 6.975488,-0.254552 15.446178,-2.166592 17.018126,-6.3818272 5.274355,-2.572751 11.96247,-3.8821067 17.490828,-1.418147 2.166209,0.866454 1.872866,-0.822779 3.30912,-1.181817 4.756446,0.135662 9.575628,-0.841983 14.181749,0.472712 0.96019,0.192045 3.866566,3.1753212 4.018153,3.7818122 3.620364,1.013509 6.320654,-1.8802222 11.818157,-2.6000052 2.799106,-1.107545 5.182937,-0.01904 8.981782,-2.127252 4.159478,-0.489433 8.389268,-0.611147 12.527238,-1.1818161 l 2.43359,-0.621474 c 1.90704,2.8690321 4.51554,5.0712491 7.84024,6.0135693 2.24117,-5.1920424 4.11159,10.491801 11.69356,4.884752 11.41552,4.840403 25.14264,1.107927 30.76871,13.553353 8.08964,1.540575 13.88844,10.723029 2.82284,14.407525 -2.86263,9.367607 -22.94652,12.716005 -11.75216,23.724876 -0.13032,14.175117 23.07925,6.237815 16.51326,23.546956 -4.1122,7.13796 0.0267,11.283683 6.18382,14.860073 -7.74232,10.7278 -3.19681,26.85177 2.56689,38.26971 10.2666,8.316 0.21568,25.52069 2.02209,37.16851 -11.03215,6.22059 7.21627,8.41527 4.10801,18.57533 7.07431,12.49686 -2.25976,11.83766 13.93817,35.96345 3.72653,9.03559 6.55452,24.57982 7.37593,23.67007 3.7013,-4.09942 -9.6135,8.07899 -8.62359,13.6612 -1.59626,-0.46501 -3.40807,-1.22161 -4.58681,0.35019 -0.73974,1.84878 -0.99681,7.00725 -2.28848,5.7794 -0.7165,-0.68102 -2.80243,-2.27335 -5.80997,3.21888 -8.85036,-2.08675 -8.17588,8.03413 -14.84711,11.24783 -0.74989,-0.14975 -1.49974,-0.29989 -2.24959,-0.44992 z"
       style="fill:#000000;fill-opacity:1;fill-rule:evenodd;stroke:#d38d5f;stroke-width:1.00822;stroke-linecap:butt;stroke-linejoin:miter;stroke-miterlimit:4;stroke-dasharray:none;stroke-opacity:1"
       id="Putre" />
  </g>
</svg>
