<?xml version="1.0" encoding="UTF-8" standalone="no"?>
<!-- Created with Inkscape (http://www.inkscape.org/) -->

<svg
   width="210mm"
   height="297mm"
   viewBox="0 0 210 297"
   version="1.1"
   id="svg1283"
   inkscape:version="1.1.2 (b8e25be833, 2022-02-05)"
   sodipodi:docname="vector.svg"
   xmlns:inkscape="http://www.inkscape.org/namespaces/inkscape"
   xmlns:sodipodi="http://sodipodi.sourceforge.net/DTD/sodipodi-0.dtd"
   xmlns="http://www.w3.org/2000/svg"
   xmlns:svg="http://www.w3.org/2000/svg">
  <sodipodi:namedview
     id="namedview1285"
     pagecolor="#ffffff"
     bordercolor="#666666"
     borderopacity="1.0"
     inkscape:pageshadow="2"
     inkscape:pageopacity="0.0"
     inkscape:pagecheckerboard="0"
     inkscape:document-units="mm"
     showgrid="false"
     inkscape:zoom="0.74029882"
     inkscape:cx="361.34057"
     inkscape:cy="561.93525"
     inkscape:window-width="1920"
     inkscape:window-height="1017"
     inkscape:window-x="-8"
     inkscape:window-y="-8"
     inkscape:window-maximized="1"
     inkscape:current-layer="layer1" />
  <defs
     id="defs1280" />
  <g
     inkscape:label="Capa 1"
     inkscape:groupmode="layer"
     id="layer1">
    <path
       d="m 124.58289,94.264539 -0.7219,0.82488 h -1.64965 l -0.72191,0.82488 -0.82488,0.72191 h -0.82476 v 0.82488 l -0.72169,0.82487 h -1.64973 l -0.72168,0.72191 h -2.37147 l -0.82488,0.82488 h -5.56777 l -0.82488,0.824881 h -2.37146 l -0.72169,0.7219 h -2.37147 v 0.82488 l -0.82488,0.82488 h -0.82487 l -0.721688,0.72191 -0.82488,0.82488 v 0.82488 h -1.54662 l -2.37143,2.37144 h -4.0212 l -1.54658,-1.64965 h -0.82488 l -0.82488,-0.7219 v -0.82488 h -0.72169 l -0.82488,0.82488 h -0.82488 l -0.72168,0.7219 h -0.82488 l -0.82488,0.82488 h -1.54662 l -0.82488,0.82488 h -4.74293 -0.72169 l -0.82488,0.72191 h -0.82488 v -0.72191 l -0.72179,-0.82488 h -0.82488 l -0.82488,-0.82488 h -1.54662 l -1.6497,-1.54656 v -0.82488 h -0.72179 l -0.82488,-0.72191 -0.82488,0.72191 h -0.72169 l -0.82488,0.82488 h -1.54658 v -0.82488 l -0.82488,-0.72191 v -0.82488 h -0.82488 l -0.72169,-0.82488 h -0.82488 l -7.11436,27.73511 -1.54661,1.54656 v 0.82488 l -0.82488,0.82488 v 5.56766 l -0.82488,0.7219 v 0.82488 l -0.82488,0.82488 h -0.72169 -1.6497 l -0.7218,-0.82488 h -0.82488 l -0.82487,0.82488 h -0.7218 l -0.82488,0.72191 h -0.82488 v 1.64965 h -1.54661 v 0.7219 l -0.82488,0.82488 h -0.72168 l -1.64973,1.54657 h -1.54659 l -0.82488,0.82488 h -0.72179 l -0.82488,-0.82488 h -0.82488 l -0.72169,0.82488 h -0.82488 l -0.82487,0.82487 h -2.37146 v -0.82487 h -2.37144 l -0.82488,0.82487 h -3.09321 v -0.82487 l -0.82488,-0.82488 h -0.82488 l -0.7218,0.82488 h -0.82488 l -0.82487,0.82487 h -0.72169 l -0.82488,0.72191 -0.82488,-0.72191 h -0.72169 l -0.82487,-0.82487 H 9.8242411 l -0.824879,0.82487 h -0.824879 l -0.721687,-0.82487 h -0.824879 l -0.824879,-0.82488 h -0.721796 l -0.824879,-0.72191 h -0.824879 l -1.54661,1.54657 v 0.82488 l -0.824879,0.7219 3.196313,3.19622 h 0.824879 l 0.721796,0.82487 h 0.824879 l 0.824879,0.82488 v 0.72191 l 0.721687,0.82488 v 0.82488 l 0.824879,0.7219 v 0.82488 l 0.824879,0.82488 h 0.8248789 v 0.72191 l 0.721687,0.82488 h 0.82488 v 0.82487 l 0.82488,0.72191 v 0.82488 l 0.72168,0.82488 h 3.19632 l 0.82488,0.7219 -0.82488,0.82488 v 0.82488 h 0.82488 l 0.72179,0.72191 v 0.82488 l 1.64969,1.54656 v 0.82488 l -0.82487,0.82488 v 0.72191 l 0.82487,0.82488 h 2.37147 l 0.7218,-0.82488 h 0.82488 l 0.82488,0.82488 h 0.72168 v 0.82487 l 1.64973,1.54657 v 0.82488 l -0.82488,0.82488 0.82488,0.7219 h 2.37143 v 0.82488 h 0.82488 l 0.72169,0.82488 -0.72169,0.72191 v 0.82488 h -0.82488 l -0.82488,0.82488 v 1.54667 h 0.82488 l 1.54662,1.54646 v 0.82488 h 0.82488 l 0.82488,0.82488 h 0.7218 v 1.54656 l -0.7218,0.82488 1.54662,1.54657 v 0.82487 l -0.82488,0.72191 v 0.82488 l 0.82488,0.82488 v 0.82488 h 3.19631 v -0.82488 l -1.64972,-1.64965 v -0.72191 l -0.7218,-0.82487 h 3.91806 l 0.82487,0.82487 v 0.72191 h 1.54659 l 0.82488,-0.72191 h 0.7218 l 0.82488,-0.82487 h 0.82488 l 0.72179,-0.82488 h 0.82488 l 0.82488,-0.72191 h 1.5471 v 0.72191 l -1.54661,1.64964 v 2.37134 l 0.72169,0.82488 h 0.82488 v 0.7219 l 0.82488,0.82488 v 0.82488 l 1.54657,1.54657 -0.72168,0.82488 h -0.82488 l -0.82488,0.7219 0.82488,0.82488 v 0.82488 l 0.82488,0.72191 -0.82488,0.82488 0.82488,0.82487 h 0.72168 l 0.82488,-0.82487 h 5.56775 l 0.7218,0.82487 h 1.64969 l 0.72169,0.72191 h 0.82487 l 0.82488,-0.72191 v -1.64964 l 0.72169,-0.72191 2.37147,2.37134 h 0.82488 v -2.37134 l 0.82487,-0.82488 v -0.82488 l -0.82487,-0.7219 v -1.64965 h 0.82487 l 0.7218,-0.72191 h 0.82488 l 0.82488,-0.82488 0.82488,-0.82488 v -1.54656 h 1.54662 v -0.82488 l 0.82488,-0.82488 v -0.7219 l 0.72179,-0.82488 h 0.82488 v -1.54657 l 0.82488,-0.82488 v -0.82488 h 0.72169 l 0.82488,-0.7219 h 2.37143 v -3.19622 h 1.54662 v -0.82488 l 1.64969,-1.54656 1.54662,-0.82488 h 1.54659 v -0.72191 l 0.82488,0.72191 h 0.82488 l 0.72169,0.82488 h 1.64972 l 0.82488,0.82488 h 7.83612 l 0.82488,-0.82488 0.82488,0.82488 h 1.546608 l 0.82488,-0.82488 v -1.54657 h 3.91805 l 0.82488,-0.82488 h 0.7218 l 0.82487,-0.82488 v -0.7219 h 0.82488 l 0.82488,-0.82488 v -1.54657 l 0.7218,-0.82488 h 0.82488 0.82488 l 0.72179,-0.82487 h 0.82488 v -0.82488 l 15.0536,4.02109 22.16789,6.28935 h 1.54656 l 0.82488,-0.72191 h 0.82488 v -0.82488 h 1.54657 l 0.82487,-0.82488 h 1.54657 l 0.82488,-0.7219 0.7219,-0.82488 h 0.82488 l 0.82488,-0.82488 h 0.72191 l 0.82488,-0.72191 h 0.82488 l 0.7219,-0.82488 1.64976,-1.54656 1.54657,-1.64976 v -0.82488 l 0.82487,-0.72191 v -0.82487 l 0.82488,-0.82488 v -0.72191 l 0.72191,-0.82488 h 0.82488 l 0.82488,-0.82488 v -2.37144 l 0.7219,-0.72191 v -1.64976 h 0.82488 l 0.82488,-0.7219 h 0.72191 l 0.82488,0.7219 h 1.54656 l 0.82488,-0.7219 h 3.91812 v -0.82488 h 0.82488 l 1.54668,-1.54646 h 0.82487 l 1.54657,-1.64975 h 0.82488 l 0.82488,-0.72191 h 8.66101 l 1.64976,-7.21731 -1.64976,-0.7219 0.82488,-1.64965 h -1.54657 l 0.72191,-1.54657 3.19632,0.82488 8.76409,-33.30276 -0.82488,0.82488 h -0.82488 l -1.54656,1.54656 h -0.82488 l -0.82488,0.82488 -0.72191,0.82488 -0.82487,0.72191 h -2.37145 l -0.82488,0.82488 h -0.7219 v 0.82488 h -0.82488 v 0.7219 l -0.82488,0.82488 v 0.82488 h -0.72191 l -1.64976,0.72191 h -0.7219 v 0.82488 h -2.37156 v 1.54656 l -0.82487,0.82488 v 1.54657 l -0.82488,0.82487 -28.45756,-7.9391 -16.7033,-4.74278 3.19632,-14.228451 -1.54657,-0.82488 h -0.82488 l -0.82487,0.82488 v -0.82488 h -3.09314 l -0.82487,-0.7219 h -2.37145 l -0.82488,-0.82488 h -3.91801 l -0.82488,-0.82488 h -2.37144 v -0.72191 l -0.72191,-0.82488 h -2.47453 l -0.7219,-0.82487 z"
       style="fill:#000000;fill-opacity:1;fill-rule:evenodd;stroke:#d38d5f;stroke-width:1.4492;stroke-linecap:butt;stroke-linejoin:miter;stroke-miterlimit:4;stroke-dasharray:none;stroke-opacity:1"
       id="Perquenco" />
  </g>
</svg>
