<?xml version="1.0" encoding="UTF-8" standalone="no"?>
<!-- Created with Inkscape (http://www.inkscape.org/) -->

<svg
   width="210mm"
   height="297mm"
   viewBox="0 0 210 297"
   version="1.1"
   id="svg64"
   inkscape:version="1.1.2 (b8e25be833, 2022-02-05)"
   sodipodi:docname="vector.svg"
   xmlns:inkscape="http://www.inkscape.org/namespaces/inkscape"
   xmlns:sodipodi="http://sodipodi.sourceforge.net/DTD/sodipodi-0.dtd"
   xmlns="http://www.w3.org/2000/svg"
   xmlns:svg="http://www.w3.org/2000/svg">
  <sodipodi:namedview
     id="namedview66"
     pagecolor="#ffffff"
     bordercolor="#666666"
     borderopacity="1.0"
     inkscape:pageshadow="2"
     inkscape:pageopacity="0.0"
     inkscape:pagecheckerboard="0"
     inkscape:document-units="mm"
     showgrid="false"
     inkscape:zoom="0.74029882"
     inkscape:cx="361.34057"
     inkscape:cy="561.93525"
     inkscape:window-width="1920"
     inkscape:window-height="1017"
     inkscape:window-x="-8"
     inkscape:window-y="-8"
     inkscape:window-maximized="1"
     inkscape:current-layer="layer1" />
  <defs
     id="defs61" />
  <g
     inkscape:label="Capa 1"
     inkscape:groupmode="layer"
     id="layer1">
    <path
       id="Peralillo"
       style="fill:#000000;fill-opacity:1;fill-rule:evenodd;stroke:#d39062;stroke-width:1.35232;stroke-linecap:butt;stroke-linejoin:miter;stroke-miterlimit:4;stroke-dasharray:none;stroke-opacity:1"
       d="m 200.2128,126.1981 c -1.12293,-1.12296 -0.34715,-1.80805 -3.34226,-6.61124 -2.99508,-4.80319 -9.47864,-6.90071 -10.0349,-13.57665 -1.28122,-2.56246 -0.17204,-12.291502 -2.95143,-12.986342 -7.61978,-1.6263 -5.91082,-3.45851 -7.08348,-10.6252 -4.28076,-3.18842 -7.18016,-4.52231 -6.49318,-10.62522 0.19933,-5.263352 -2.72976,-9.510584 -1.77083,-18.889213 -4.73742,-6.418131 -9.18515,-0.565086 -14.16692,0.590335 -5.07928,0.146281 -10.28219,0.133094 -15.05656,2.092301 -9.72627,-2.354982 -11.39842,9.48727 -19.76085,9.75495 -4.78784,4.377832 -4.21131,12.091117 -11.83896,19.198277 -2.30619,2.14883 4.46571,5.75898 5.91601,8.62941 -9.2879,4.91089 5.96106,12.018212 -4.15986,15.608482 -3.29825,8.12441 -14.880484,4.58877 -15.555564,13.62472 -5.55892,2.6053 -9.73201,-9.42855 -17.15754,-8.90245 -6.08287,-8.42115 -12.89466,-2.75667 -20.57736,-3.36316 1.51164,-4.66646 -4.77607,-5.35266 -8.36583,-2.26056 2.11644,9.37387 -14.9939,13.21854 -6.67942,21.12427 -9.27663,7.38323 1.80351,19.97185 -1.62246,27.02289 6.71811,1.8515 -0.91796,2.76729 -0.62376,7.16832 0.87605,2.70423 6.42007,4.60308 4.0023,6.25669 -7.82287,5.35024 -9.07389,9.73691 -18.324888,13.68646 -7.112069,-0.97479 -15.1718018,4.29037 -21.9281168,5.72421 -2.48509998,3.24813 -2.05198398,7.15143 -1.64856298,10.97385 5.02030098,6.2208 8.00957298,9.29383 16.07211678,10.60079 5.519923,0.22182 5.743709,-3.81283 9.916881,-6.49726 1.867544,-0.93381 7.76017,0.91417 9.57488,1.36782 1.97968,3.67708 1.37659,8.18922 0.68386,10.25881 0.81083,2.02699 3.24154,2.89959 4.78748,4.4455 3.8441,1.53938 3.95865,3.14874 6.83919,6.15527 3.9525,3.19496 3.26096,1.89917 7.52311,6.83922 1.89279,1.51422 3.24268,0.50692 4.44551,1.70979 1.00474,1.00475 1.36784,3.73968 1.36784,5.12942 0,2.23947 5.17808,2.41806 7.18116,3.41958 2.93757,1.46882 4.21302,2.44849 6.83919,3.76159 3.09956,0.27794 5.33406,-0.32344 8.20706,-1.02587 2.873,-0.70247 1.75377,-1.86944 4.62866,-5.52025 2.87492,-3.65079 5.61359,-4.31143 8.78923,-7.75516 1.11807,-0.83853 0.29297,-6.79008 1.03401,-8.27219 1.11675,-2.23349 6.116814,-6.1168 7.755174,-7.75516 4.32239,-4.59137 9.47551,0.43322 12.9253,-5.17011 1.50018,-3.00036 3.51989,2.83575 5.68709,4.13606 4.46917,0.30892 9.19306,-3.57182 12.92533,-6.2041 1.75233,-3.57058 -3.91259,-5.65632 -4.65312,-10.34024 5.6686,-0.16039 11.37589,0 17.06137,0 5.69224,-1.0583 7.19582,-3.22793 12.9253,-4.1361 4.41485,-1.04458 10.55927,-3.43937 14.47633,-5.68711 3.34117,-3.56602 2.44157,-6.96242 1.034,-10.85723 2.11165,-4.96231 -3.84556,-9.62513 3.10208,-10.34026 h 26.36756 c 1.43095,-5.62964 -2.27476,-10.60878 -0.51704,-15.51034 3.10189,-6.21152 -0.0889,-11.38306 0,-17.57837 -0.92981,-1.85966 -6.63221,-7.66624 -7.75517,-8.78919 z"
       sodipodi:nodetypes="ccccccccccscccccccccsccccccccccssscsscscccccccccccccc"
       inkscape:label="#path1899" />
  </g>
</svg>
