<?xml version="1.0" encoding="UTF-8" standalone="no"?>
<!-- Created with Inkscape (http://www.inkscape.org/) -->

<svg
   width="210mm"
   height="297mm"
   viewBox="0 0 210 297"
   version="1.1"
   id="svg1283"
   inkscape:version="1.1.2 (b8e25be833, 2022-02-05)"
   sodipodi:docname="vector.svg"
   xmlns:inkscape="http://www.inkscape.org/namespaces/inkscape"
   xmlns:sodipodi="http://sodipodi.sourceforge.net/DTD/sodipodi-0.dtd"
   xmlns="http://www.w3.org/2000/svg"
   xmlns:svg="http://www.w3.org/2000/svg">
  <sodipodi:namedview
     id="namedview1285"
     pagecolor="#ffffff"
     bordercolor="#666666"
     borderopacity="1.0"
     inkscape:pageshadow="2"
     inkscape:pageopacity="0.0"
     inkscape:pagecheckerboard="0"
     inkscape:document-units="mm"
     showgrid="false"
     inkscape:zoom="0.74029882"
     inkscape:cx="361.34057"
     inkscape:cy="561.93525"
     inkscape:window-width="1920"
     inkscape:window-height="1017"
     inkscape:window-x="-8"
     inkscape:window-y="-8"
     inkscape:window-maximized="1"
     inkscape:current-layer="layer1" />
  <defs
     id="defs1280" />
  <g
     inkscape:label="Capa 1"
     inkscape:groupmode="layer"
     id="layer1">
    <path
       d="m 80.015189,5.6565709 -0.76843,0.76843 -1.75597,0.87804 h -0.87804 l -0.76843,0.87804 v 0.76844 l -3.40231,3.4022001 h -0.87804 l -2.52428,2.52427 h -0.76843 l -1.75597,1.75597 h -2.52439 l -0.76843,0.76843 h -1.75608 l -2.52428,2.52428 v 1.75596 l -0.76843,0.76843 v 2.52416 l -1.75608,1.75597 v 0.76843 l -0.87804,0.87804 v 5.92648 l -0.76843,0.87804 v 1.64624 l -0.87804,0.87804 v 2.52428 l -0.87804,0.76843 v 0.87804 l -0.76844,0.87804 v 1.64623 l -1.75608,1.64624 h -0.76843 l -0.87804,0.87804 v 0.87804 l -0.87804,0.76843 v 2.52428 l -0.76843,0.87804 v 0.87804 l -0.87804,1.64624 v 0.87804 l -0.87804,0.76843 v 0.87804 l -2.52428,2.52428 h -1.64635 l -0.87804,0.87804 h -1.64636 l -0.87804,0.87804 h -0.76843 l -0.87804,0.76843 v 2.52428 l 0.87804,0.87804 v 0.87804 l -0.87804,0.76843 v 0.87804 l -0.87804,0.87804 h -1.64624 l -0.87804,0.76843 h -3.40231 v 0.87804 l -0.76844,0.87804 v 2.52416 l -0.87804,0.76843 v 0.87805 l -3.40231,3.4022 v 0.87804 l -1.64624,1.64623 0.87804,1.64624 v 0.87804 l 0.76843,0.87804 v 1.64624 l 1.75608,1.64624 h 0.76843 l 0.87804,0.87804 0.87804,1.64624 1.64624,0.87804 0.87804,0.87804 v 0.76843 l 0.76843,0.87804 v 0.87804 h 0.87804 l 1.64636,1.64635 h 0.87804 l 0.87804,1.64624 h 0.87804 v 0.87804 h 0.76843 v 1.755969 l 0.87804,0.76843 v 1.75596 l -3.40232,3.29248 h -0.87804 v 0.87804 h -0.76843 v 0.87804 h -0.87804 v 0.76843 l 0.87804,0.87804 v 0.87804 l 2.52428,2.52416 v 1.64624 h -0.87804 l -0.87804,1.64624 -0.76844,0.87804 v 1.64623 h -0.87804 v 0.87804 l -1.64623,3.40232 v 0.87804 l -0.87804,0.76843 v 0.87804 l -0.87804,0.87804 v 0.76843 l -0.76844,1.75597 v 0.76843 h -0.87804 l -0.87804,0.87804 h -2.52427 v 0.87804 h -1.64624 l -0.87804,-0.87804 h -1.64624 l -1.64635,0.87804 h -0.87804 l -1.64636,1.64624 h -0.87804 v 0.87804 h -0.87804 v 0.76843 h -0.87804 l -0.76843,0.87804 v 4.1704 l -0.87804,1.75596 v 0.87804 H 6.6983686 l -0.87804,-0.87804 h -0.76843 v 0.87804 h -0.87805 l -0.87804,0.76843 h -0.76843 l -1.75608001,3.40232 v 0.87804 l 0.87804001,0.76843 v 1.75597 l 1.64624,0.76843 h 0.87804 v 0.87804 h 0.87804 v 0.87804 l 1.64624,0.76843 2.52428,2.52416 v 0.87804 l 2.5243904,2.52428 v 0.87804 l 0.87804,0.76843 v 2.63389 l -0.87804,1.64623 v 0.87805 l -0.87804,1.64623 v 2.52416 l -1.6463504,1.64636 v 0.87804 h -0.87804 v 0.87804 l -0.76843,0.76843 v 1.75596 h -0.87804 v 2.52428 l 0.87804,0.76843 -0.87804,0.87804 v 2.52417 l -0.87804,0.87804 v 2.52427 l 0.87804,0.87804 v 5.81676 l 0.87804,1.75596 v 3.29248 l 0.76843,0.87804 v 5.92636 l 0.87804,0.87804 v 2.52428 h -0.87804 l -1.64636,1.64624 h -0.87804 l -0.76843,0.87804 v 0.76843 l -0.87804,0.87804 v 0.87804 l -0.87804,0.76843 1.75608,1.75596 v 2.52428 l 1.64624,1.64624 v 0.87804 l 0.87804,0.76843 0.76843,-0.76843 h 0.87804 l 0.8780404,0.76843 v 0.87804 l 0.76843,0.87804 v 3.4022 l 1.75597,1.64624 v 2.52428 l 1.64635,1.64624 v 2.52427 l 0.87804,0.87804 v 4.17052 l 2.5244,2.52416 v 0.87804 l 0.87804,0.87804 v 6.6948 l 0.76843,0.87804 v 0.87804 l 0.87804,0.76843 v 3.4022 l 0.87804,0.87804 v 4.17052 l -0.87804,0.87804 v 1.64623 l -0.87804,1.64624 v 0.87804 l -1.64624,1.75597 v 0.76843 l -1.64636,1.75608 h -0.87804 v 1.64624 l -1.75596,1.64623 v 1.75597 h 1.75596 l 0.87804,-0.87804 0.76844,1.64624 h 0.87804 l 0.87804,-0.76844 h 1.64635 l 0.87804,-0.87804 h 1.64636 l 0.87804,-0.87804 h 0.76843 l 1.75608,-1.64623 h 0.76843 l -0.76843,-1.64624 v -4.28024 l 1.64623,-1.64624 v -0.87804 l 0.87804,0.87804 v 0.76843 l -0.87804,0.87804 v 3.4022 l 0.87804,0.87804 v 0.76843 l -0.87804,1.75597 v 1.64623 h -0.87804 l -1.64623,1.64624 -0.87804,-0.76843 -1.64624,1.64624 h -3.40232 l -0.76843,0.87804 h -0.87804 l -0.87804,0.76843 h -0.76843 v -1.64624 l -0.87804,-0.87804 h -3.4022 v -0.76843 h -0.87804 v -1.75596 H 9.2227586 l -0.87804,-0.76843 v -0.87804 h -0.76843 l -1.75596,-1.64624 0.87804,-0.87804 v -0.87804 l -0.87804,-0.76843 -1.64636,1.64623 h -1.64624 v 0.87804 l -0.87804,0.76844 v 2.52427 h 3.40232 l 0.76843,0.87804 h 1.75597 l 0.76843,0.87804 h 1.7559604 l 2.52428,2.52417 v 0.76843 l 0.76843,0.87804 h 0.87804 l 1.75596,1.64623 h 0.76844 l 2.52427,2.52428 v 1.75597 l 0.87804,0.76843 v 0.87804 h 2.52428 l 0.87804,0.87804 1.64624,-1.75597 h 4.17052 v 0.87804 l 0.87804,0.87804 h 1.64623 l 0.87804,-0.87804 h 0.87804 l 0.76844,-0.87804 h 0.87804 l 2.52427,2.63389 h 0.87804 l 0.87804,0.76843 h 1.64624 l 0.87804,-0.76843 h 0.76843 l 0.87804,-0.87804 h 3.40232 l 0.76843,-0.87804 v -0.87804 h 0.87804 l 1.64624,-0.76843 h 0.87804 l 1.64624,-1.75596 v -0.76843 l 0.87804,-0.87804 v -0.87805 l 3.40232,-3.29247 v -1.75596 l 0.87804,-0.76844 v -0.87804 l 0.76843,-0.87804 1.75608,-0.76843 h 1.64624 l 0.87804,-0.87804 h 2.52428 l 0.76843,0.87804 h 0.87804 l 0.87804,-0.87804 h 2.52427 l 0.76844,0.87804 h 0.87804 l 0.87804,-0.87804 h 5.04855 l 2.5244,-2.52428 v -0.87804 l 0.87804,-0.76843 h 0.76843 l 1.75596,-1.75596 v -3.4022 h 0.76843 l 0.87804,-0.76843 v -2.52416 l 0.87804,-0.87804 v -0.87804 l 1.64624,-1.64624 v -1.64612 l 1.64624,-1.75608 v -2.52417 l 0.87804,-0.76843 v -0.87804 l 1.64624,-1.64624 h 0.87804 l 2.52428,-2.634 h 0.87804 v -0.76843 l 0.76843,-1.75596 v -0.76843 l 0.87804,-0.87805 h 0.87804 l 0.878041,-0.87804 v -1.64623 l -0.878041,-0.87804 2.524281,-2.52416 v -0.76844 h 0.87804 l 0.76843,-1.75596 v -0.76843 h 3.40231 l 0.87804,-0.87804 h 3.2926 l 0.87804,-0.87804 v -2.52416 l -0.87804,-0.76843 v -0.87804 l 0.87804,-1.75597 v -0.76843 l 0.87804,-0.87804 v -1.64624 l -0.87804,-0.87804 0.87804,-1.64623 -0.87804,-0.87804 v -0.87804 l -0.87804,-0.76844 v -2.52416 l 0.87804,-0.87804 v -0.87804 l 0.87804,-0.76843 v -1.75596 l 0.76843,-1.64624 v -0.87804 l 2.52428,-2.52416 h 0.87804 0.87804 l 1.64624,-1.64624 h 1.75608 l 0.76843,-0.87804 v -0.87804 l 1.75608,-1.64624 h 0.76843 l 0.87804,0.87804 h 1.64624 l 1.75608,1.64624 h 0.76843 l 0.87804,0.87804 h 1.64635 l 1.75597,0.76843 h 5.04855 l 0.76843,0.87804 h 0.87804 l 4.28025,4.28024 h 1.64635 l 2.52428,2.52416 h 0.87804 l 3.29247,3.29248 h 0.87804 l 0.87804,0.87804 h 3.29248 l 0.87804,-0.87804 h 0.87804 l 2.52428,-2.52416 h 0.87804 l 0.76843,-0.76843 0.87804,-0.87804 v -0.87804 l 4.17063,-4.17052 h 0.87804 l 2.52428,-2.52416 h 0.87804 v -1.75596 l 1.64636,-1.64624 h 0.87804 l 2.52427,-2.52428 v -0.87804 l 0.76844,-0.76843 h 16.90174 l 1.64636,0.76843 h 1.75596 l 1.64636,-1.64624 h 1.64624 v -1.64612 l 0.87804,-0.87804 v -2.52428 l -0.87804,-0.87804 v -0.76843 l 0.87804,-0.87804 v -0.87804 l 0.87804,-0.76843 v -1.75608 l 1.64623,-1.64624 v -0.87804 l -0.76843,-0.87804 V 179.285 l 0.76843,-0.87804 h 0.87804 l 1.64624,-1.64624 v -1.75596 l -0.76843,-0.76843 0.76843,-0.87804 -0.76843,-0.87804 v -1.64636 l -0.87804,-0.87804 0.87804,-0.76843 -0.87804,-0.87804 0.87804,-1.64624 v -0.87804 l -1.75608,-1.64624 h -0.76843 l -2.634,-2.63388 0.87804,-0.76843 -0.87804,-1.75597 v -5.81675 l -0.76844,-0.87804 v -0.87804 l -0.87804,-1.64624 v -2.52416 l -2.52427,-2.52428 h -0.87804 l -0.76844,-0.87804 h -0.87804 l -0.87804,-0.76843 h -1.64635 l -0.87804,-0.87804 -0.76843,-1.75596 v -0.76844 h -2.52428 l -0.87804,-0.87804 v -1.64623 l 1.64624,-1.75597 v -0.76843 l 0.87804,-1.75608 v -1.64624 h 1.64635 v -0.87804 l 0.87804,-1.64623 -0.87804,-0.87804 v -1.64624 l -0.76843,-0.87804 h -0.87804 l -3.40232,-3.29248 v -1.75608 l -0.76843,-0.87804 v -1.64624 l -2.52428,-2.52428 v -0.87804 h -0.87804 l -1.75608,-1.64623 h -0.76843 l -0.87804,-0.87804 v -0.76843 h -3.40232 l -0.76843,-0.87804 -1.75608,-0.87805 -0.76843,-0.76843 v -0.87804 l -0.87804,-0.87804 v -2.52427 l -0.87804,-0.76844 v -0.87804 l -2.52428,-2.52416 v -0.878039 l -0.76843,-0.87804 h -0.87804 l -1.64624,-0.76843 v -2.52428 l -0.87804,0.76843 h -0.87804 l -0.76843,0.87804 v 1.64624 h -3.40232 l -0.87804,0.87804 h -0.87804 l -0.76843,0.878039 h -2.52427 v -0.878039 h -1.75608 l -1.64624,-1.64624 v -0.87804 h -3.40232 l -0.76843,-0.87804 h -0.87804 l -0.87804,-1.64623 v -0.87804 h -0.76843 l -0.87804,-0.76843 -0.87804,0.76843 h -1.64636 l -0.87804,-0.76843 v -2.52428 l -1.64635,-1.75597 v -3.29247 h -0.87804 v -2.52428 l -1.64636,-1.75596 v -2.52417 l -2.52428,-2.52427 v -0.87804 l -2.52427,-2.52417 v -2.52427 l 0.76843,-1.64624 v -0.87804 l 1.75596,-1.64624 v -0.87804 h -1.75596 l 0.87804,-1.64624 v -0.87804 h -0.87804 v -1.64612 l 0.87804,-0.87804 -1.64636,-1.64624 v -4.28024 h 0.76843 v -1.64624 l -1.64635,-1.64624 v -1.75596 l 0.87804,-0.76843 h 0.76843 l 0.87804,-0.87804 -0.87804,-0.87804 0.87804,-1.64624 v -0.87804 h 0.87804 l 1.64624,-0.76843 h -0.87804 v -9.32868 h -2.52428 v -3.4022 l -0.76843,-0.76843 v -0.87804 l 0.76843,-0.87804 -0.76843,-0.76844 1.64635,-1.75596 -0.87804,-0.76843 0.87804,-0.87804 v -1.64624 l 0.87804,-0.87804 v -0.87804 h 0.76843 l 0.87804,-0.76843 v -2.52416 l -1.64623,1.64624 h -0.87804 v -4.17052 l -0.87804,-0.87804 v 0.87804 l -0.76843,0.76843 h -2.52428 l -0.87804,-0.76843 h -1.64624 l -3.40232,-3.4022 h -8.45087 l -0.87804,0.76843 h -0.76843 l -0.87804,-0.76843 -0.87805,0.76843 h -1.64623 l -0.87804,-0.76843 h -2.52428 l -1.64636,1.64624 h -1.64623 l -0.87804,-0.87804 h -5.926601 l -1.64624,-0.76843 h -0.87804 l -0.87804,-0.8780401 h -0.76843 l -1.75608,-1.64624 h -0.76843 l -2.52428,-2.52428 h -3.40232 l -0.87804,0.76843 -0.76843,-0.76843 z"
       style="fill:#000000;fill-opacity:1;fill-rule:evenodd;stroke:#d38d5f;stroke-width:1.5426;stroke-linecap:butt;stroke-linejoin:miter;stroke-miterlimit:4;stroke-dasharray:none;stroke-opacity:1"
       id="Tolten" />
  </g>
</svg>
