<?xml version="1.0" encoding="UTF-8" standalone="no"?>
<!-- Created with Inkscape (http://www.inkscape.org/) -->

<svg
   width="210mm"
   height="297mm"
   viewBox="0 0 210 297"
   version="1.1"
   id="svg64"
   inkscape:version="1.1.2 (b8e25be833, 2022-02-05)"
   sodipodi:docname="vector.svg"
   xmlns:inkscape="http://www.inkscape.org/namespaces/inkscape"
   xmlns:sodipodi="http://sodipodi.sourceforge.net/DTD/sodipodi-0.dtd"
   xmlns="http://www.w3.org/2000/svg"
   xmlns:svg="http://www.w3.org/2000/svg">
  <sodipodi:namedview
     id="namedview66"
     pagecolor="#ffffff"
     bordercolor="#666666"
     borderopacity="1.0"
     inkscape:pageshadow="2"
     inkscape:pageopacity="0.0"
     inkscape:pagecheckerboard="0"
     inkscape:document-units="mm"
     showgrid="false"
     inkscape:zoom="0.74029882"
     inkscape:cx="361.34057"
     inkscape:cy="669.99972"
     inkscape:window-width="1920"
     inkscape:window-height="1017"
     inkscape:window-x="-8"
     inkscape:window-y="-8"
     inkscape:window-maximized="1"
     inkscape:current-layer="layer1" />
  <defs
     id="defs61" />
  <g
     inkscape:label="Capa 1"
     inkscape:groupmode="layer"
     id="layer1">
    <path
       inkscape:label="#path2204"
       sodipodi:nodetypes="cccccccccccccscccsccccccccccccccccccccccsccscccccccccccccccccscscssssssc"
       d="m 207.5715,118.61969 c 2.36814,1.33653 -0.8047,9.56002 -0.66474,14.48988 0.14007,4.64261 -0.58695,6.99815 -7.60584,8.73081 3.1304,8.98778 -6.99766,-3.34734 -7.42606,3.41301 -3.35073,-0.15946 -6.28649,0.0485 -5.39198,4.38882 0.62875,5.74145 -2.39298,7.03521 -4.6272,12.09501 -2.8015,3.06677 -1.48501,6.19318 -3.33183,7.61117 0.75029,5.33417 -3.38629,10.38245 -6.08198,14.44484 1.47741,7.01135 -5.45846,2.02864 -7.23207,6.7944 -3.5812,0.6614 -5.24636,9.86727 -5.94569,4.60943 -5.66226,-6.5335 -7.45962,-9.83106 -10.56141,-3.06505 -8.93811,8.34772 -10.33191,0.92532 -13.00649,0.78428 -3.09742,2.5831 -6.50133,2.22016 -9.88331,-0.50694 -1.93501,3.49646 -5.26479,3.36937 -8.63196,2.36631 -2.35435,-0.70137 -4.72703,-1.83098 -6.65395,-2.4496 0.92623,-3.55114 -6.53845,-4.68479 -3.61348,-6.47844 -2.39244,-3.43795 -15.734176,-4.95345 -13.598006,1.71435 0.083,2.41162 0.48432,5.38072 -0.98114,5.48179 -5.39025,0.37172 -5.66716,3.02189 -9.09574,2.91344 -5.31478,7.37941 -1.76019,9.9422 -3.80128,14.95169 -0.77905,4.77222 -3.59887,8.93402 -6.08204,13.17769 -3.49894,1.35119 -7.66558,3.00698 -8.86964,7.60261 l -2.20265,2.27419 -5.2122,2.97842 c -11.95219,-0.16323 -11.50306,0.74792 -12.90643,1.9856 l -7.19781,5.4604 1.9856,-5.21221 -4.21941,-6.20498 h -4.96401 l -3.72302,-3.97124 v -4.21939 l -7.44602,-0.24835 c -7.34372,-3.59634 -1.57757,-7.85398 -7.79591,-7.138 l -0.695261,-9.32428 c -0.2039634,-6.1907 11.332031,-2.64613 7.085651,-8.49732 -4.76264,-1.99713 -6.37431,-10.03287 0.38336,-9.77784 4.56415,-3.78355 9.40666,-11.14087 2.64137,-15.60548 -4.0801,-3.90713 -13.9368044,0.60015 -15.1966234,-7.97896 -0.162642,-3.57458 -2.361984,-7.33534 -3.942336,-9.22838 5.689877,-3.4267 2.682765,-12.0162 8.805861,-13.58751 5.1868484,-2.67635 5.1906984,-7.29822 5.1892684,-9.66696 -10e-4,-1.68482 3.11507,-1.34031 5.60544,-0.45684 7.82561,1.94034 -3.10061,-8.29574 4.70126,-5.58431 3.52758,0.18532 6.57341,3.98627 10.0067,3.05594 1.45554,-0.39435 1.72087,-2.02201 7.93174,4.59838 4.34478,4.72288 6.81686,-8.40784 10.4714,-0.54115 3.55894,2.12194 13.48433,11.45597 12.48331,2.6576 5.42307,2.12012 7.34617,-0.68715 7.35054,-6.40107 -2.13854,-4.31151 10.48437,-9.9819 3.86236,-15.18388 5.85335,-2.11413 -1.69085,-6.67238 1.58613,-11.09524 -0.0539,-4.00243 -0.18478,-7.271068 5.05371,-5.442458 2.7062,3.251128 7.70534,8.213848 8.89976,1.752218 2.29202,-0.41751 5.07187,-0.9132 7.427676,-0.97472 l 8.55243,-7.386248 h 9.32999 l 1.55499,2.72128 h 6.99745 l 3.88747,-2.72128 1.16629,-6.21996 9.52431,0.19448 c 0.6878,-0.68779 2.66983,-5.4312 2.9156,-6.41432 1.33067,-4.32557 4.23162,-3.09032 5.44252,-7.38625 1.21085,-4.29589 2.67382,-6.99853 -4.48945,-9.73603 2.52454,-0.6065 13.94528,-6.21074 17.10094,-6.9349 4.57839,-1.05069 7.65023,-2.69591 8.97739,-4.30876 1.17561,2.91216 6.54351,8.5317 8.2939,8.07394 3.26686,-0.85426 10.90771,0.16916 12.62836,2.95159 0.66802,1.08037 4.58211,4.40223 8.69789,7.38189 4.11584,2.97971 7.56349,6.0044 7.66149,6.72161 0.0981,0.71716 0.33455,7.23713 0.52634,14.48881 0.25751,9.755258 -0.24405,14.389838 -1.92774,17.817338 -2.11166,4.29863 -2.09172,4.96644 0.27637,9.26507 z"
       style="fill:#000000;fill-opacity:1;fill-rule:evenodd;stroke:#d38d5f;stroke-width:1.42539;stroke-linecap:butt;stroke-linejoin:miter;stroke-miterlimit:4;stroke-opacity:1"
       id="Putaendo" />
  </g>
</svg>
