<?xml version="1.0" encoding="UTF-8" standalone="no"?>
<!-- Created with Inkscape (http://www.inkscape.org/) -->

<svg
   width="210mm"
   height="297mm"
   viewBox="0 0 210 297"
   version="1.1"
   id="svg1283"
   inkscape:version="1.1.2 (b8e25be833, 2022-02-05)"
   sodipodi:docname="vector.svg"
   xmlns:inkscape="http://www.inkscape.org/namespaces/inkscape"
   xmlns:sodipodi="http://sodipodi.sourceforge.net/DTD/sodipodi-0.dtd"
   xmlns="http://www.w3.org/2000/svg"
   xmlns:svg="http://www.w3.org/2000/svg">
  <sodipodi:namedview
     id="namedview1285"
     pagecolor="#ffffff"
     bordercolor="#666666"
     borderopacity="1.0"
     inkscape:pageshadow="2"
     inkscape:pageopacity="0.0"
     inkscape:pagecheckerboard="0"
     inkscape:document-units="mm"
     showgrid="false"
     inkscape:zoom="0.52347032"
     inkscape:cx="155.69173"
     inkscape:cy="611.30496"
     inkscape:window-width="1920"
     inkscape:window-height="1017"
     inkscape:window-x="-8"
     inkscape:window-y="-8"
     inkscape:window-maximized="1"
     inkscape:current-layer="layer1" />
  <defs
     id="defs1280" />
  <g
     inkscape:label="Capa 1"
     inkscape:groupmode="layer"
     id="layer1">
    <path
       d="M 194.19005,4.8463481 14.677203,10.323289 v 13.978459 l 5.476938,7.111848 h 7.929309 l 5.476938,104.143594 0.572198,0.32696 0.572199,28.93786 h 40.627447 l 0.5722,30.0823 19.70064,-0.5722 6.294388,93.92544 c 0.60154,-0.24016 1.22891,-0.19598 1.79841,-0.65402 4.72066,-3.3603 11.01006,-4.98412 16.5943,-3.02458 2.54951,3.65702 5.65547,6.9877 9.97293,7.52057 1.1129,-1.79034 2.29662,-3.67132 3.02458,-5.39519 0.64207,-1.52039 0.90026,-3.03677 0.65402,-4.57774 -0.24613,-1.54097 -1.01109,-3.11193 -2.69759,-4.74123 -0.2087,-3.0978 -1.15168,-5.03994 -2.12538,-6.94836 -0.97367,-1.90843 -2.02379,-3.735 -2.45236,-6.53963 0.31765,-2.52679 1.47034,-4.78631 2.61585,-7.0301 1.14551,-2.2438 2.27689,-4.49995 2.77934,-6.94836 1.3107,3.47346 2.20007,5.56005 2.8611,6.78487 0.66099,1.22482 1.09191,1.59227 1.55316,1.6349 0.46114,0.0432 1.00544,-0.25399 1.71665,-0.32695 0.71115,-0.0731 1.61356,0.10297 3.02458,0.98097 2.45372,1.31199 5.15234,2.12789 7.76581,3.10633 2.61346,0.97843 5.13332,2.09446 7.35708,3.84203 0.73131,-0.70739 1.09081,-1.74378 1.30792,-2.86109 0.21712,-1.1173 0.32286,-2.28665 0.40878,-3.18807 0.0853,-0.90137 0.15279,-1.57518 0.49049,-1.6349 0.3378,-0.0598 0.90734,0.47232 1.88014,1.88013 3.38892,3.40621 5.91102,5.50416 7.84756,6.70313 1.93654,1.19898 3.30858,1.45779 4.41425,1.30793 2.21133,-0.29972 3.35041,-2.39807 5.96741,-2.94284 1.60928,-0.24247 3.13732,-0.92783 4.496,-1.79839 1.35867,-0.87048 2.55169,-1.90492 3.76029,-3.02458 1.02914,-0.95341 2.025,-1.49128 3.02457,-2.37062 L 179.63937,25.200947 h 15.61336 z"
       style="fill:#000000;fill-opacity:1;fill-rule:evenodd;stroke:#d39062;stroke-width:2.61585;stroke-linecap:butt;stroke-linejoin:miter;stroke-miterlimit:4;stroke-opacity:1"
       id="Laguna_Blanca" />
  </g>
</svg>
