<?xml version="1.0" encoding="UTF-8" standalone="no"?>
<!-- Created with Inkscape (http://www.inkscape.org/) -->

<svg
   width="210mm"
   height="297mm"
   viewBox="0 0 210 297"
   version="1.1"
   id="svg64"
   inkscape:version="1.1.2 (b8e25be833, 2022-02-05)"
   sodipodi:docname="vector.svg"
   xmlns:inkscape="http://www.inkscape.org/namespaces/inkscape"
   xmlns:sodipodi="http://sodipodi.sourceforge.net/DTD/sodipodi-0.dtd"
   xmlns="http://www.w3.org/2000/svg"
   xmlns:svg="http://www.w3.org/2000/svg">
  <sodipodi:namedview
     id="namedview66"
     pagecolor="#ffffff"
     bordercolor="#666666"
     borderopacity="1.0"
     inkscape:pageshadow="2"
     inkscape:pageopacity="0.0"
     inkscape:pagecheckerboard="0"
     inkscape:document-units="mm"
     showgrid="false"
     inkscape:zoom="0.74029882"
     inkscape:cx="361.34057"
     inkscape:cy="453.87078"
     inkscape:window-width="1920"
     inkscape:window-height="1017"
     inkscape:window-x="-8"
     inkscape:window-y="-8"
     inkscape:window-maximized="1"
     inkscape:current-layer="layer1" />
  <defs
     id="defs61" />
  <g
     inkscape:label="Capa 1"
     inkscape:groupmode="layer"
     id="layer1">
    <path
       id="Pichilemu"
       style="fill:#000000;fill-opacity:1;fill-rule:evenodd;stroke:#d39062;stroke-width:1.01145;stroke-linecap:butt;stroke-linejoin:miter;stroke-miterlimit:4;stroke-dasharray:none;stroke-opacity:1"
       d="m 150.26317,32.411048 c 5.67562,-6.06807 -0.51241,-7.05175 -4.27128,-9.07646 -9.1043,-6.79066 -9.89744,-5.27018 -13.88167,-6.94082 -12.66255,-2.9385 -13.23542,-0.50384 -13.34777,2.13565 -6.09485,-5.11979 -13.91966,-1.58967 -21.356399,0 -6.46051,-2.00773 -5.65122,-13.27205 -16.01732,-7.47479 1.23998,-3.2025 -5.10985,-5.13997 -12.27994,-6.94081 l -1.06782,4.27128 c -2.49458,0.44038 -4.08162,2.24214 -3.73736,6.94081 -3.69705,-0.0383 -3.76143,-3.7133 -4.8052,-6.40692 -4.17608,-1.72584 -7.72691,-2.51387 -9.07648,0 -1.34956,2.51387 -8.28094,4.1884 -10.144289,2.66961 -1.863354,-1.51888 -5.301982,0.8024 -1.990826,4.78293 3.311165,3.98044 1.255523,7.58159 2.290357,13.40668 1.573408,1.18943 3.367778,5.25895 2.874808,6.36381 0.90661,3.01412 2.39988,5.61217 5.2231,7.239 -0.59268,4.05491 4.01423,3.65206 1.04276,7.83496 -0.28014,6.30746 3.68971,13.85924 2.41045,18.87007 1.2711,6.59525 2.70513,5.90752 -0.77442,11.405 0.22539,6.85619 9.61548,16.11109 3.78157,22.976982 0.3777,10.02001 3.44921,18.12035 1.85026,28.25206 0.31034,5.03576 2.42011,13.79164 -2.28227,13.13091 -1.76593,-0.24848 -5.52655,6.10187 -8.15993,11.13802 -3.47521,2.05658 -12.085983,-1.52729 -12.501084,2.67572 -0.589705,5.97113 -4.110146,4.9249 -6.242423,6.53193 -2.070043,3.9897 1.708444,10.74741 -1.524271,14.31269 -2.149634,2.3709 -2.380369,6.02274 -4.23983,8.76628 -4.848938,-0.88146 -7.851941,-2.08204 -7.135749,-0.25918 1.15375,2.93651 1.645094,6.73201 1.779082,7.27982 13.052456,20.34299 2.835206,15.53346 11.193392,24.93195 1.901596,8.74671 3.562585,21.87464 -1.979121,27.65295 -5.19143,8.773 -8.123329,13.36631 -9.492241,20.128 0.494134,3.88373 -1.126623,6.16517 -1.394402,7.31598 -0.260333,1.11894 0.758289,1.16909 6.243211,0.58413 l -0.415538,-3.73976 h 7.895085 l 4.570839,5.81744 c 2.519068,-2.22073 5.662861,-2.87963 10.38826,0.41516 4.22597,-2.49262 10.47552,-4.17579 9.55721,-8.72614 3.06924,-0.008 4.83962,1.93013 5.69423,5.24304 l 4.69404,-0.25689 c -0.37426,2.07761 -1.01555,4.15529 2.90871,6.23291 l 15.37464,0.41516 c 9.51003,9.94545 5.97668,11.44865 10.80379,10.38828 2.48708,-9.84033 -1.64236,-26.29723 7.479559,-29.50271 -1.138439,-5.87862 1.42104,-8.52154 9.14168,-6.64845 -0.34107,5.71813 2.03696,7.81081 4.98637,9.14167 l 4.57083,-6.23298 c 6.57546,-7.19573 -0.86215,-8.67079 0.83106,-12.88144 4.69641,0.90639 8.27709,1.14339 7.47956,-1.24662 l 3.0204,-0.44115 c 1.85636,3.5581 2.3542,7.11621 8.0057,10.67423 h 5.71837 c -0.45813,3.48625 -3.27833,7.36608 1.90612,9.91183 6.51066,2.04763 9.01444,-7.09106 10.67427,-3.43104 5.2452,2.6469 9.0125,0.86013 13.34285,0.76226 l 6.09958,5.71836 c 4.61191,-0.0902 11.07419,1.67064 12.96163,-1.14361 8.84373,-3.98427 0.97101,-8.97287 6.09958,-10.29311 l -3.38545,-8.93226 c -2.42316,-5.31354 -11.95568,-12.65819 -4.67683,-15.19973 -2.53328,-5.92992 -5.06657,-10.5526 -7.59986,-8.76903 v -5.26147 H 158.9156 c -6.94192,-7.44948 -4.35913,-5.80537 -7.01525,-5.84604 0.92304,-5.1831 -1.12411,-13.21196 -3.83937,-15.57369 -1.71302,-1.48997 2.37002,-4.27533 6.76239,-6.05668 -0.37235,-13.46143 12.17067,-21.24846 5.26144,-28.64556 v -9.35369 l -5.84604,-5.84604 -1.75381,-18.12273 -5.84605,-1.16923 v -4.09223 c 4.12304,-2.14351 4.44412,-4.28711 2.33841,-6.43063 h -0.58457 v -15.19973 l -8.76907,6.43063 1.75381,5.26146 c -12.18608,3.77203 -11.56869,-0.99163 -15.1997,-2.92306 l 4.67683,-6.43062 -3.50763,-7.599792 c -4.19601,-0.55813 -5.5197,-2.07593 -7.01525,-5.84613 -0.88337,-7.03532 -9.96851,-2.63466 -7.59985,-8.76903 0.63878,-2.55515 1.3465,-4.44682 2.33841,-6.43063 1.60997,-3.21993 2.06014,-4.09222 5.84604,-4.09222 1.29683,0 4.32186,-3.25694 4.67684,-4.67689 1.32107,-2.15666 5.20597,-3.48095 6.19892,-5.0395 1.50328,-2.35959 0.15474,-4.50081 3.15475,-4.89876 4.40348,0 3.25692,-5.34457 4.67683,-8.18445 1.50893,-5.33761 6.28982,-2.60715 5.84605,-8.18445 -0.45492,-1.81972 2.97293,-8.34187 4.79347,-8.79334 z"
       sodipodi:nodetypes="cccccccccccccccsccccscscscsccccccccccscccccccccccccccccccccccccccscccccccccccccccccsscscccc" />
  </g>
</svg>
