<?xml version="1.0" encoding="UTF-8" standalone="no"?>
<!-- Created with Inkscape (http://www.inkscape.org/) -->

<svg
   width="210mm"
   height="297mm"
   viewBox="0 0 210 297"
   version="1.1"
   id="svg64"
   inkscape:version="1.1.2 (b8e25be833, 2022-02-05)"
   sodipodi:docname="vector.svg"
   xmlns:inkscape="http://www.inkscape.org/namespaces/inkscape"
   xmlns:sodipodi="http://sodipodi.sourceforge.net/DTD/sodipodi-0.dtd"
   xmlns="http://www.w3.org/2000/svg"
   xmlns:svg="http://www.w3.org/2000/svg">
  <sodipodi:namedview
     id="namedview66"
     pagecolor="#ffffff"
     bordercolor="#666666"
     borderopacity="1.0"
     inkscape:pageshadow="2"
     inkscape:pageopacity="0.0"
     inkscape:pagecheckerboard="0"
     inkscape:document-units="mm"
     showgrid="false"
     inkscape:zoom="0.74029882"
     inkscape:cx="361.34057"
     inkscape:cy="345.8063"
     inkscape:window-width="1920"
     inkscape:window-height="1017"
     inkscape:window-x="-8"
     inkscape:window-y="-8"
     inkscape:window-maximized="1"
     inkscape:current-layer="layer1" />
  <defs
     id="defs61" />
  <g
     inkscape:label="Capa 1"
     inkscape:groupmode="layer"
     id="layer1">
    <path
       sodipodi:nodetypes="ccccsssscccccccccccscccccccccccccccccccccccccccccccccccccccccccssssscc"
       d="m 0.85437276,58.354703 c 3.91121004,5.96841 5.05955004,13.91754 21.74883024,-2.77172 l 5.87528,-5.875299 12.86319,5.527659 c 18.2262,7.83231 31.57669,12.28853 39.82371,11.77506 12.09724,-0.75321 32.836977,-8.24623 31.726567,-12.84581 -1.60482,-6.647823 9.25937,-3.866384 16.21834,-19.067651 4.42679,-9.669943 7.24778,-8.89979 13.10547,1.39429 2.6646,4.68272 7.04564,8.310653 10.03587,8.310653 2.99023,0 -7.09393,12.784938 -4.12136,15.482228 2.97256,2.6973 3.73284,7.14356 7.11752,9.53315 1.79008,3.36086 0.88161,1.44237 3.5324,4.80743 -0.0521,2.22878 -0.76276,11.69372 -2.99121,12.22025 -3.92143,0.27845 -7.28017,3.80079 -3.49499,7.07784 3.28711,3.41545 5.35467,7.806407 7.12149,12.131227 -2.54991,3.54849 -0.18637,6.79303 3.97657,5.43067 4.38971,0.22671 6.31155,9.41078 8.5862,12.38854 2.5187,3.67159 2.03172,3.92501 5.65268,6.93225 3.61483,2.12112 0.38317,6.41044 3.54361,8.78326 -0.28412,1.14384 -0.58323,2.31578 -0.80023,3.49865 -0.46006,2.51085 -0.54934,5.07095 0.66293,7.51603 2.69965,4.1776 -5.3423,5.67896 -1.15473,9.40006 0.91707,4.14637 6.86729,6.20751 7.84209,10.12858 l -5.08652,-0.46476 c -10.95196,4.77466 -12.36311,9.54934 -14.97512,14.324 l -1.30219,20.50935 8.46422,6.83647 -2.27882,2.92995 3.58101,5.53427 9.11528,0.32582 13.99843,10.41748 h 3.58101 c 12.01806,8.89405 3.78192,14.02247 0.651,16.60281 l -0.56433,7.40073 h -4.18509 l -2.57539,1.93155 c -0.65393,2.25347 -1.69051,4.50701 0.96575,6.76048 l -2.89737,5.47276 h -11.26742 c -4.3254,-1.58364 1.76916,-1.67878 -13.52103,-4.82886 l -0.32191,-4.18509 -6.43857,-0.64383 V 255.192 h -4.82892 l -10.6236,8.37018 -3.22554,-1.92992 0.3154,-6.43694 c -10.45208,-6.66606 -7.06942,-16.81694 -18.6718,-22.53498 -3.65706,-8.78913 -12.98204,-10.77673 -20.60342,-14.80868 l 0.64383,-4.1851 -4.82892,-4.18503 -2.848757,-10.18927 -9.11522,-9.76634 3.58095,-5.53431 c 4.63663,3.92597 10.145017,0.87753 15.626187,-1.95326 l -9.766347,-3.58101 -9.44079,-15.62616 -7.48759,5.85981 -3.25545,-3.58099 -5.85977,-0.32557 -2.27882,-2.27882 -4.55764,2.27882 c -2.24409,1.06622 -5.12379,1.07302 -9.9563,-2.17476 -1.85049,-6.79536 -7.79778,-15.13118 -12.17166,-16.49615 -4.22575,-1.31873 -8.031,-17.1124 -12.89831,-9.44588 -1.25494,1.97656 -3.89146,-1.35792 -4.42861,-3.87936 -1.48674,-6.97884 -0.21048,-20.96421 -0.13815,-28.87964 0.10361,-11.390267 -4.25919,-21.774907 -15.81946,-19.287217 -6.1755002,1.32894 -6.5575602,-0.79168 -6.5575602,-6.82422 z"
       style="fill:#000000;fill-opacity:1;fill-rule:evenodd;stroke:#d38d5f;stroke-width:1.72416;stroke-linecap:butt;stroke-linejoin:miter;stroke-miterlimit:4;stroke-opacity:1"
       id="La_Ligua" />
  </g>
</svg>
