<?xml version="1.0" encoding="UTF-8" standalone="no"?>
<!-- Created with Inkscape (http://www.inkscape.org/) -->

<svg
   width="210mm"
   height="297mm"
   viewBox="0 0 210 297"
   version="1.1"
   id="svg1283"
   inkscape:version="1.1.2 (b8e25be833, 2022-02-05)"
   sodipodi:docname="vector.svg"
   xmlns:inkscape="http://www.inkscape.org/namespaces/inkscape"
   xmlns:sodipodi="http://sodipodi.sourceforge.net/DTD/sodipodi-0.dtd"
   xmlns="http://www.w3.org/2000/svg"
   xmlns:svg="http://www.w3.org/2000/svg">
  <sodipodi:namedview
     id="namedview1285"
     pagecolor="#ffffff"
     bordercolor="#666666"
     borderopacity="1.0"
     inkscape:pageshadow="2"
     inkscape:pageopacity="0.0"
     inkscape:pagecheckerboard="0"
     inkscape:document-units="mm"
     showgrid="false"
     inkscape:zoom="0.52347032"
     inkscape:cx="155.69173"
     inkscape:cy="611.30496"
     inkscape:window-width="1920"
     inkscape:window-height="1017"
     inkscape:window-x="-8"
     inkscape:window-y="-8"
     inkscape:window-maximized="1"
     inkscape:current-layer="layer1" />
  <defs
     id="defs1280" />
  <g
     inkscape:label="Capa 1"
     inkscape:groupmode="layer"
     id="layer1">
    <path
       d="m 60.838554,4.0394391 c -1.469598,-0.142235 -2.768256,-0.12989 -3.702563,0.168317 -1.245779,0.397664 -1.880869,1.2861 -1.570796,2.973267 -4.331158,7.6822139 -7.712643,3.9239959 -10.546687,6.9002279 -1.277586,1.703477 -4.244955,3.440816 -6.451448,4.544064 -2.173624,1.086843 -5.440866,1.178087 -7.910023,1.178087 l -0.224392,-0.617103 c -1.943409,8.223871 14.563716,16.453636 3.085464,20.756796 7.545724,5.32306 9.523567,23.82261 0.841492,23.22518 -2.985545,5.03989 -8.438849,9.83321 -8.471011,14.64195 -0.06193,9.26057 8.122281,18.51454 9.817398,29.171725 3.157681,9.66259 -2.800366,17.98817 -2.131767,29.05951 -20.467943,35.35153 16.627844,61.73425 0.280485,100.92292 -11.34028,17.79183 -13.984163,35.69771 -25.413052,54.58477 1.3230945,0.25456 2.660965,0.24865 3.983066,0 1.471063,-0.27673 2.909324,-0.76951 4.263553,-1.2903 1.35423,-0.52078 2.586965,-1.0369 3.702565,-1.40248 1.115599,-0.36559 2.105884,-0.58146 2.861072,-0.39271 2.239765,0.55998 4.498228,2.11719 6.731934,3.25376 1.116862,0.56823 2.225039,1.03655 3.309874,1.23419 1.084834,0.1976 2.165191,0.12354 3.197668,-0.39271 1.495314,-0.74769 2.479287,-1.26787 3.141575,-1.73908 0.662268,-0.47123 0.986599,-0.9224 1.121978,-1.45859 0.270776,-1.07242 -0.168126,-2.6217 -0.168126,-6.00265 0,-1.5435 0.196234,-2.69729 0.560992,-3.64646 0.36475,-0.94916 0.871617,-1.69985 1.570779,-2.30007 1.39834,-1.20046 3.448551,-1.92065 6.002647,-3.19768 0.400161,-0.20014 2.914203,-1.74535 5.722144,-2.86107 1.403962,-0.5579 2.878053,-1.01755 4.207458,-1.122 1.329407,-0.1045 2.506013,0.0937 3.309874,0.89761 0.253101,0.25308 7.895768,10.15043 8.134415,10.21008 0.854234,0.21353 1.82348,0.82307 2.804979,1.6269 0.981499,0.80385 1.969629,1.78384 2.973259,2.74886 1.003631,0.96504 1.996524,1.93959 2.917183,2.63669 0.920659,0.69709 1.791907,1.12199 2.524476,1.12199 4.294536,0 6.07993,0.24925 7.180718,-0.28047 0.550403,-0.26491 0.923268,-0.75855 1.346388,-1.51468 0.423139,-0.75612 0.8836,-1.8233 1.62689,-3.30988 0.786141,-1.57229 1.348254,-2.53972 1.795187,-3.14155 0.446918,-0.60181 0.783734,-0.83098 1.234182,-0.78543 0.900918,0.0912 2.189664,1.16451 5.161156,1.90738 1.56506,0.39123 2.71295,0.29185 3.64646,-0.11224 0.93351,-0.40401 1.60879,-1.11695 2.18787,-1.85128 0.57911,-0.7343 1.06903,-1.47603 1.57079,-2.0757 0.50176,-0.59963 1.03755,-1.06588 1.73908,-1.06588 2.7347,0 4.26418,-0.2663 5.04896,-0.72926 0.78477,-0.46295 0.82855,-1.12445 0.6171,-1.85128 -0.21147,-0.72682 -0.69971,-1.50851 -0.95369,-2.30009 -0.25399,-0.79159 -0.26448,-1.5868 0.39268,-2.24397 1.70719,-1.70718 2.76271,-2.79825 4.26358,-3.30987 1.50085,-0.51164 3.4081,-0.41793 6.90024,0.28047 0.96788,0.19353 4.49208,-1.0156 7.51731,-1.4025 0.68909,-0.0882 1.13483,0.0941 1.73909,0.11224 0.81264,-0.68335 1.62986,-1.3057 2.35618,-2.01957 1.30313,-1.28081 2.38401,-2.57974 2.69277,-3.81477 0.30942,-1.23758 0.10085,-1.44986 0.44879,-2.13177 0.34793,-0.68196 1.21755,-1.8291 3.59038,-4.99286 2.32351,-3.09805 2.68669,-4.22353 3.30985,-4.76845 0.62318,-0.54494 1.49328,-0.51355 4.82456,-1.34638 0.73917,-0.18484 2.32329,-0.59963 3.81477,-1.4025 0.74569,-0.4014 1.48305,-0.90718 2.07567,-1.51468 0.59258,-0.60754 1.0783,-1.33997 1.2903,-2.18789 0.78968,-3.15885 0.85193,-4.44171 0.56094,-5.55384 -0.29099,-1.11213 -0.98264,-2.07934 -1.62689,-4.65624 -0.16962,-0.6784 0.49269,-3.20753 1.23419,-5.83435 0.74152,-2.62682 1.59242,-5.30376 1.85129,-6.33925 0.30072,-1.20301 0.38627,-2.45546 0.33663,-3.64645 -0.0496,-1.191 -0.25334,-2.34461 -0.6171,-3.47817 -0.72752,-2.26712 -2.0497,-4.34979 -3.81477,-6.11484 -1.14373,-1.14374 -2.19161,-1.67731 -3.19766,-1.90738 -1.00606,-0.23005 -1.94841,-0.19754 -2.80497,-0.28047 -0.85654,-0.0826 -1.6609,-0.25118 -2.35618,-0.9537 -0.69526,-0.70257 -1.27301,-1.89436 -1.79517,-3.98307 -0.16728,-0.6691 -0.0148,-1.57634 0.33654,-2.58057 0.35055,-1.00424 0.90755,-2.11215 1.45859,-3.30987 0.55103,-1.19773 1.0805,-2.45299 1.51467,-3.70257 0.43419,-1.24956 0.72927,-2.48669 0.72927,-3.64645 0,-0.65327 -1.74566,-3.96529 -3.64649,-7.34903 -1.90082,-3.38374 -3.94381,-6.87787 -4.48794,-7.96612 -0.45131,-0.90254 -0.54555,-1.9662 -0.39271,-3.08548 0.15301,-1.11927 0.55415,-2.2766 1.00978,-3.42207 0.91118,-2.29092 2.15529,-4.46972 2.46839,-5.72214 0.30976,-1.23901 0.0383,-2.10591 -0.56104,-2.80497 -0.59962,-0.69909 -1.5748,-1.20679 -2.63668,-1.62687 -1.06187,-0.42011 -2.23281,-0.77603 -3.30987,-1.1781 -1.07704,-0.4021 -2.04767,-0.86958 -2.69278,-1.51469 -1.07991,-1.07991 -2.1223,-3.22883 -3.14155,-5.44165 -1.01925,-2.2128 -2.0196,-4.45058 -2.97328,-5.72214 -0.64918,-0.86558 -1.52106,-1.64077 -2.58056,-2.30007 -1.05953,-0.65928 -2.28436,-1.19623 -3.53428,-1.68299 -2.49986,-0.97351 -5.18284,-1.64633 -7.12463,-2.13178 -2.7543,-0.68856 -5.01684,-0.14962 -6.61973,-0.33663 -0.80144,-0.0935 -1.42234,-0.35342 -1.85129,-1.06589 -0.42894,-0.71248 -0.67319,-1.87482 -0.67319,-3.70256 0,-1.63232 -0.24421,-3.11817 -0.56099,-4.54406 -0.31679,-1.4259 -0.71063,-2.79791 -1.0659,-4.15136 -0.35527,-1.35345 -0.66993,-2.68026 -0.78539,-4.09526 -0.11545,-1.415 -0.0101,-2.93353 0.39269,-4.54405 0.17647,-0.70578 0.47688,-1.17497 0.89759,-1.51469 0.42073,-0.33968 0.91914,-0.50964 1.51469,-0.56102 1.19111,-0.10276 2.67764,0.25725 4.15136,0.84149 2.94744,1.16849 5.93172,3.12384 6.67584,3.30987 1.44448,0.36115 2.99383,0.51312 4.60015,0.50487 1.6063,-0.008 3.25163,-0.19597 4.82455,-0.4488 3.14584,-0.50564 6.01299,-1.3954 7.85392,-2.13178 1.73756,-0.69499 4.22257,-2.27499 6.67584,-3.92695 2.45326,-1.65199 4.87467,-3.36297 6.56363,-4.20747 1.81763,-0.90881 3.24912,-2.25028 4.65627,-3.590375 1.40712,-1.34008 2.82433,-2.67441 4.54405,-3.53426 1.8393,-0.91966 3.63235,-2.72925 5.21725,-4.54406 1.58488,-1.81479 2.93996,-3.61316 3.92696,-4.60015 0.38045,-0.38045 1.37833,-0.60188 2.69277,-0.67317 1.31444,-0.0712 2.93695,-0.0391 4.60015,0.0565 3.32639,0.19022 6.75619,0.6171 7.96613,0.6171 5.09219,0 10.223,0 15.31515,0 1.158,0 1.92616,-0.16615 2.46837,-0.39271 0.54224,-0.22657 0.84506,-0.56111 0.89759,-0.95369 0.10503,-0.78517 -0.64214,-1.83074 -1.73909,-2.91718 -2.19388,-2.17288 -5.78331,-4.46244 -6.73193,-4.93674 -0.91648,-0.45827 -1.72455,-1.18746 -2.41226,-2.07568 -0.68771,-0.88823 -1.25517,-1.93679 -1.7952,-2.97328 -1.08004,-2.07299 -1.94132,-4.12922 -2.91716,-5.10505 -0.36003,-0.35993 -1.07728,-0.52756 -1.96349,-0.56103 -0.88621,-0.0331 -1.95519,0.0513 -3.02937,0.16833 -2.14837,0.23439 -4.34644,0.6104 -5.21725,0.3927 -0.85471,-0.2137 -1.47491,-0.53121 -1.96347,-0.89758 -0.4886,-0.36637 -0.81697,-0.8076 -1.00979,-1.2903 -0.38559,-0.96545 -0.26308,-2.09739 0.11223,-3.30986 0.75057,-2.42496 2.44443,-5.0653 2.86108,-6.73194 0.0652,-0.26221 0.29186,-0.56851 0.39271,-0.8415 -1.51623,-0.52799 -3.66108,-2.29787 -4.71236,-3.19767 -1.49213,-1.27708 4.7891,-0.36185 4.20746,-6.339238 -0.2956,-3.036871 -4.90014,-1.62688 -6.45153,-1.62688 -1.3924,0 -3.02954,-2.482541 -3.75866,-3.029371 -0.98467,-3.005113 -1.04413,-2.775512 -12.84678,-3.646464 -2.68296,-4.179705 -2.28703,-6.765679 -0.44878,-11.500387 0.66691,-6.137439 -6.31747,-3.549621 -7.34904,-9.649111 -2e-5,-1.918576 -4.75596,-3.580103 -5.94653,-4.60015 -4.65984,-3.9925219 -4.14467,-3.0900019 -4.03917,2.075678 -1.17676,4.089479 0.66414,7.715617 -2.41228,10.771095 -2.10833,2.108314 -3.82847,3.310309 -1.51469,6.395339 0.62032,0.827064 -1.5664,5.113785 -3.64646,0.953685 -1.39333,-2.786694 -2.01845,-4.43072 -3.98306,-6.39534 -0.71621,-0.716215 2.11313,-4.424312 -1.85128,-4.600149 -4.87574,-0.216221 -7.01466,-0.49556 -7.34903,-1.851284 0.2882,-4.783724 -4.1091,-7.005304 -8.24662,-6.844134 -2.01085,5.823036 -5.4837,0.400448 -10.097905,-1.8512839 -2.083164,4.3697229 -1.975958,8.1721059 -8.246621,5.9465439 -0.355951,0 -1.983328,-5.6279329 -3.758656,-5.217244 -4.532495,1.048528 -9.37013,0.269428 -8.639311,-3.9269689 -3.932291,0.03478 -10.064881,-1.817203 -14.473659,-2.243977 z"
       style="fill:#000000;fill-opacity:1;fill-rule:evenodd;stroke:#d39062;stroke-width:0.897591;stroke-linecap:butt;stroke-linejoin:miter;stroke-miterlimit:4;stroke-dasharray:none;stroke-opacity:1"
       id="Cobquecura"
       inkscape:connector-curvature="0" />
  </g>
</svg>
