<?xml version="1.0" encoding="UTF-8" standalone="no"?>
<!-- Created with Inkscape (http://www.inkscape.org/) -->

<svg
   width="210mm"
   height="297mm"
   viewBox="0 0 210 297"
   version="1.1"
   id="svg1283"
   inkscape:version="1.1.2 (b8e25be833, 2022-02-05)"
   sodipodi:docname="vector.svg"
   xmlns:inkscape="http://www.inkscape.org/namespaces/inkscape"
   xmlns:sodipodi="http://sodipodi.sourceforge.net/DTD/sodipodi-0.dtd"
   xmlns="http://www.w3.org/2000/svg"
   xmlns:svg="http://www.w3.org/2000/svg">
  <sodipodi:namedview
     id="namedview1285"
     pagecolor="#ffffff"
     bordercolor="#666666"
     borderopacity="1.0"
     inkscape:pageshadow="2"
     inkscape:pageopacity="0.0"
     inkscape:pagecheckerboard="0"
     inkscape:document-units="mm"
     showgrid="false"
     inkscape:zoom="0.52347032"
     inkscape:cx="155.69173"
     inkscape:cy="611.30496"
     inkscape:window-width="1920"
     inkscape:window-height="1017"
     inkscape:window-x="-8"
     inkscape:window-y="-8"
     inkscape:window-maximized="1"
     inkscape:current-layer="layer1" />
  <defs
     id="defs1280" />
  <g
     inkscape:label="Capa 1"
     inkscape:groupmode="layer"
     id="layer1">
    <path
       d="m 5.381742,254.3833 c 1.99359,0.10365 3.36949,0.0782 5.9309,0.31583 4.71547,0.44296 9.96688,1.16675 13.88102,2.14526 4.26254,1.06563 8.69708,1.22707 13.12389,1.38812 4.42672,0.16036 8.83192,0.28357 12.99765,1.32495 4.96355,1.24096 7.80794,2.90131 10.22151,3.40724 1.20674,0.25325 2.26328,0.24739 3.47021,-0.25228 1.20693,-0.49967 2.53198,-1.52248 4.16436,-3.15486 0.74511,-0.7451 1.4992,-1.23353 2.27139,-1.57733 0.77249,-0.3442 1.5611,-0.54563 2.33456,-0.56812 1.54692,-0.0391 3.08191,0.49478 4.47972,1.26198 2.7957,1.53519 5.09017,4.08057 6.05724,5.04764 0.97293,0.97294 2.18788,1.27176 3.53327,1.26188 1.34539,-0.009 2.84107,-0.35984 4.35358,-0.75683 1.51259,-0.397 3.06871,-0.82138 4.54288,-1.00951 1.47426,-0.18872 2.87089,-0.1105 4.101288,0.50456 0.86244,0.43122 1.47094,0.98291 1.95595,1.57733 0.485,0.59452 0.8507,1.24712 1.07257,1.89287 0.44296,1.29151 0.42731,2.51839 0.50456,3.34407 0.0391,0.41264 0.13396,0.75488 0.25228,0.88298 0.11832,0.12809 0.25423,0.0782 0.56812,-0.1897 0.62678,-0.53487 1.75637,-2.00543 3.84882,-4.79526 1.57527,-2.10037 2.61627,-4.32013 3.40713,-6.81427 0.79106,-2.49414 1.38177,-5.21152 2.14526,-8.26556 0.43708,-1.74904 0.29823,-3.13501 -0.0587,-4.29051 -0.36082,-1.1555 -0.98731,-2.11034 -1.4512,-3.09169 -0.46348,-0.98125 -0.76074,-1.99124 -0.63069,-3.21783 0.12907,-1.22648 0.72652,-2.65176 2.14525,-4.54288 2.5267,-3.369 3.22966,-4.61778 5.48922,-6.87744 h 13.75038 l 8.26547,16.46796 8.20239,-9.59052 9.65368,8.26556 -12.36676,9.59052 2.71308,6.87734 5.55249,-6.87734 22.02024,4.16427 1.32505,6.87744 6.87744,-2.77625 1.38803,-10.97863 c 1.8341,-0.91721 3.65531,-1.85914 5.48932,-2.77615 3.80061,-1.90031 5.5959,-2.5619 6.7512,-3.97506 1.1554,-1.41305 1.69565,-3.56447 2.90238,-8.3917 0.37451,-1.49793 0.98858,-2.5795 1.70357,-3.4702 0.71479,-0.8908 1.50536,-1.5965 2.27149,-2.39763 0.76661,-0.80084 1.49128,-1.67306 2.01901,-2.90239 0.52803,-1.22932 0.88298,-2.80939 0.88298,-4.98456 0,-1.27616 -1.05048,-4.21032 -2.08218,-7.76071 -1.03161,-3.55049 -2.01902,-7.70361 -2.01902,-11.48339 0,-2.05451 -0.2777,-3.85039 -0.69425,-5.42625 -0.41656,-1.57586 -1.02056,-2.9632 -1.76664,-4.22743 -1.49236,-2.52837 -3.52076,-4.59334 -5.80477,-6.87735 -1.26569,-1.2656 -3.15632,-5.55913 -4.79525,-9.96913 -1.63904,-4.40999 -3.0384,-8.93556 -3.47031,-10.66309 -0.42046,-1.68215 -1.1246,-3.19671 -2.01901,-4.54288 -0.89471,-1.34627 -1.98841,-2.5046 -3.15486,-3.59644 -2.3327,-2.18388 -4.98496,-3.95961 -7.19279,-5.61556 -1.56452,-1.17329 -2.90796,-2.30102 -3.97506,-3.47021 -1.0671,-1.16918 -1.88329,-2.36819 -2.52386,-3.65951 -0.64048,-1.29141 -1.10319,-2.68765 -1.38803,-4.22743 -0.28454,-1.53978 -0.37841,-3.25929 -0.37841,-5.17378 0,-4.11987 0.88591,-6.48885 1.32505,-8.70724 0.21903,-1.10915 0.29041,-2.174 0.12614,-3.40714 -0.16428,-1.23313 -0.57301,-2.59701 -1.45119,-4.35357 -0.82725,-1.6539 -1.02144,-3.41281 -0.8204,-5.11071 0.20143,-1.69799 0.81062,-3.33624 1.57743,-4.85842 1.53362,-3.04427 3.71055,-5.54027 4.73209,-6.5619 1.15501,-1.15501 1.72009,-2.24694 1.8298,-3.344059 0.10952,-1.09712 -0.23956,-2.1832 -0.82039,-3.21783 -1.16107,-2.06947 -3.31835,-4.01241 -5.1108,-5.80487 -2.95411,-2.95411 -4.49067,-4.98339 -5.55239,-7.31902 -1.06163,-2.33573 -1.66064,-5.00227 -2.71308,-9.2119 -0.41655,-1.66602 -1.04793,-3.1399 -1.8298,-4.54288 -0.78129,-1.40309 -1.70396,-2.69939 -2.71308,-3.91199 -2.01823,-2.42511 -4.40022,-4.58953 -6.49883,-6.68814 -1.65878,-1.65868 -2.51457,-3.09863 -2.90238,-4.41664 -0.38819,-1.31801 -0.29628,-2.51203 0.12614,-3.65951 0.84387,-2.29496 2.84743,-4.37 4.16427,-7.00368 0.89862,-1.79705 1.42557,-3.3469 1.57743,-4.73209 0.15156,-1.38529 -0.0587,-2.63984 -0.50456,-3.78575 -0.44393,-1.14591 -1.12919,-2.20187 -2.01911,-3.281 -0.88982,-1.07903 -1.96983,-2.15913 -3.15476,-3.34406 -0.83996,-0.83996 -1.57851,-1.87127 -2.39763,-2.77615 -1.58594,1.45237 -8.55637,6.84195 -8.77022,7.69764 -0.38233,1.53059 -0.71283,2.72823 -1.13574,3.65952 -0.4234,0.93089 -0.93969,1.60578 -1.6405,2.08218 -0.7011,0.4762 -1.62349,0.7803 -2.83931,0.94653 -1.21583,0.16623 -2.70125,0.18872 -4.66903,0.18872 -2.07123,0 -5.50711,-0.40579 -8.83338,-0.63069 -1.66318,-0.11245 -3.27581,-0.21121 -4.73219,-0.12614 -1.45637,0.088 -2.75698,0.30606 -3.65951,0.75683 -1.66094,0.83018 -2.70584,1.80106 -3.40714,2.77625 -0.7011,0.97489 -1.01586,2.00209 -1.19881,2.96545 -0.18286,0.96316 -0.27282,1.85484 -0.37842,2.65 -0.10658,0.79498 -0.2865,1.48532 -0.75684,1.95595 -1.00853,1.00853 -2.43254,2.97983 -4.038128,4.73219 -0.80279,0.87613 -1.59678,1.67726 -2.46069,2.27139 -0.8644,0.59452 -1.78375,1.00951 -2.65001,1.00951 -2.76382,0 -6.56551,0.18187 -10.22151,0 -1.82794,-0.088 -3.64778,-0.26988 -5.23684,-0.6307 -1.58916,-0.3618 -2.93279,-0.92209 -3.97506,-1.70357 -2.91793,-2.18847 -5.19274,-3.59517 -7.31912,-4.47981 -2.12628,-0.88493 -4.11371,-1.19882 -6.43566,-1.19882 -2.57677,0 -4.17835,0.24837 -5.1108,0.75684 -0.93285,0.50847 -1.19715,1.28027 -1.19882,2.14525 -0.002,0.86538 0.28944,1.83304 0.50456,2.90239 0.2161,1.06935 0.34322,2.2225 0.0587,3.34406 -0.32366,1.29396 -1.54672,4.40511 -2.20832,7.63457 -0.33051,1.61469 -0.49282,3.25998 -0.37842,4.73219 0.11441,1.47222 0.53878,2.7473 1.45119,3.65951 1.64001,1.64001 2.29017,2.47948 2.27149,2.90239 -0.0196,0.4234 -0.74608,0.40971 -1.70357,0.37842 -0.95729,-0.0293 -2.16823,-0.088 -3.34406,0.18969 -1.17594,0.27771 -2.29115,0.92307 -2.96555,2.2714 -0.70893,1.41755 -1.7066,2.34414 -2.83922,2.96545 -1.13271,0.62092 -2.41278,0.92502 -3.72268,1.19881 -0.21316,0.0489 -0.41655,0.088 -0.6307,0.12614 0.14179,0.43709 0.28455,1.02105 0.44198,1.26198 0.30508,0.4674 0.66199,0.50554 1.00951,-0.18969 0.30019,-0.60039 2.52924,-1.59142 4.54288,-2.01902 1.00687,-0.21414 1.97589,-0.31681 2.58694,-0.12614 0.61114,0.19068 0.83897,0.67959 0.50455,1.51426 -0.29823,0.74413 -2.00483,2.11973 -3.59644,3.59645 -0.79595,0.73825 -1.5524,1.50702 -2.08208,2.20832 -0.52999,0.7011 -0.82333,1.37521 -0.69426,1.89287 0.17307,0.69426 0.81648,1.13966 1.70357,1.45119 0.88786,0.31193 2.00376,0.4674 3.02852,0.6307 1.02486,0.1633 2.00122,0.31682 2.58694,0.56812 0.58571,0.25032 0.80866,0.56323 0.37841,1.13574 -0.61896,0.82529 -1.41716,1.81935 -2.14525,2.902389 -0.72848,1.08294 -1.39144,2.28498 -1.70357,3.53337 -0.69719,2.78993 -2.46314,5.55718 -3.84882,8.32853 -0.62287,1.24507 -2.25887,2.51849 -3.4703,3.72268 -0.60527,0.60234 -1.09419,1.2083 -1.32495,1.76664 -0.23077,0.55834 -0.17699,1.08529 0.31583,1.57743 0.45665,0.68448 0.41851,1.0494 1.26189,1.89288 1.10416,1.10416 2.24675,2.29828 3.09169,3.65951 0.84484,1.36113 1.38812,2.89084 1.38812,4.66902 0,1.22443 0.1721,3.50697 0.50456,5.61555 0.33246,2.10849 0.86146,4.01574 1.45119,4.60596 1.20341,1.20341 2.27344,2.11357 2.90238,3.21782 0.62874,1.10436 0.76857,2.41387 0.25228,4.47982 -0.81746,3.26867 -0.99836,4.75076 -1.89288,8.32863 -0.45664,1.82765 -1.19392,3.16972 -1.19881,4.16426 -0.002,0.49772 0.21806,0.8908 0.69426,1.26189 0.4762,0.37157 1.19862,0.7099 2.39763,1.0096 1.24487,0.31095 2.16656,0.6483 2.83931,1.07258 0.67274,0.42438 1.12176,0.94751 1.51426,1.51426 0.78519,1.13389 1.29709,2.52866 2.71317,4.41674 0.72653,0.96805 1.4949,1.62055 2.27139,2.08218 0.7764,0.46154 1.55543,0.77151 2.33456,1.00951 1.55817,0.4762 3.07116,0.79986 4.35358,2.08209 2.27393,2.27403 5.0754,3.79963 7.69764,5.1108 1.21632,0.60821 2.44945,2.0548 3.72268,3.34407 0.63656,0.64438 1.2962,1.25807 1.95594,1.70356 0.66004,0.44589 1.33034,0.69426 2.01902,0.69426 1.345,0 3.90798,0.52216 5.48932,1.32495 0.79106,0.40189 1.29346,0.84876 1.32505,1.38813 0.0293,0.53975 -0.43025,1.13007 -1.70357,1.76663 -1.09712,0.54856 -2.3638,0.88982 -3.84882,1.07268 -1.48512,0.18285 -3.18067,0.25228 -5.1108,0.25228 -2.76021,0 -4.23604,0.0489 -5.17378,0.63069 -0.93773,0.5867 -1.3582,1.71003 -1.89287,3.84892 -0.18383,0.73631 -0.6923,1.32427 -1.32505,1.89278 -0.63266,0.56812 -1.36153,1.12773 -2.08219,1.6405 -0.72065,0.51238 -1.38127,1.00882 -1.8297,1.57743 -0.44883,0.56811 -0.68839,1.15686 -0.50456,1.89287 0.37157,1.48728 0.87026,3.11985 1.57733,4.66902 0.70697,1.54917 1.61869,3.06989 2.90248,4.35358 1.54448,1.54457 2.51692,2.70789 3.09159,3.97505 0.57496,1.26707 0.75684,2.57638 0.75684,4.29051 0,2.12687 -0.61701,3.17783 -1.32496,4.03803 -0.70794,0.86048 -1.52335,1.55063 -1.89287,3.02862 -0.24446,0.9789 -0.51629,1.72762 -0.88298,2.27149 -0.36766,0.54367 -0.83995,0.8996 -1.38802,1.13564 -1.09673,0.47132 -2.62546,0.44198 -4.79526,0.44198 -3.41623,0 -6.80528,0 -10.22151,0 -1.44806,0 -3.16747,0.16525 -4.85832,0.25228 -1.69086,0.088 -3.33556,0.0978 -4.73219,-0.25228 -1.80839,-0.45175 -3.3645,-1.57899 -5.04764,-2.58694 -0.8419,-0.50358 -1.69154,-0.97489 -2.65,-1.32495 -0.95827,-0.35006 -2.04356,-0.56812 -3.21793,-0.56812 -1.44806,0 -3.16737,0.16526 -4.85833,0.25228 -1.69085,0.088 -3.33555,0.0978 -4.73209,-0.25228 -1.41638,-0.35397 -4.49516,-4.78763 -5.1108,-4.47981 -0.90644,0.45371 -2.50685,1.20781 -4.03812,2.20832 -1.53118,1.00052 -3.00486,2.22407 -3.65952,3.53338 -0.34419,0.68839 -1.0493,1.20126 -1.89287,1.57733 -0.84387,0.37646 -1.85474,0.66492 -2.77615,0.94653 -0.92111,0.28162 -1.75656,0.54172 -2.33456,0.94654 -0.57789,0.40482 -0.88102,0.95631 -0.69425,1.70357 0.26303,1.05204 1.57078,2.75219 2.71307,4.54288 0.57105,0.89569 1.10465,1.78297 1.45119,2.65 0.34615,0.86734 0.48989,1.70093 0.31584,2.39763 -0.16427,0.65906 -0.72946,1.18972 -1.45119,1.70367 -0.72164,0.51336 -1.59816,1.01537 -2.39763,1.45109 -0.79986,0.43611 -1.49402,0.83702 -1.89286998,1.26198 -0.39896,0.42438 -0.48012,0.84485 0,1.32496 0.85265998,0.85266 1.92826998,1.85591 2.90237998,3.02862 0.72848,0.87809 1.1949,1.95917 1.6405,3.02862 z"
       style="fill:#000000;fill-opacity:1;fill-rule:evenodd;stroke:#d39062;stroke-width:1.00953;stroke-linecap:butt;stroke-linejoin:miter;stroke-miterlimit:4;stroke-dasharray:none;stroke-opacity:1"
       id="Quillon"
       inkscape:connector-curvature="0" />
  </g>
</svg>
