<?xml version="1.0" encoding="UTF-8" standalone="no"?>
<!-- Created with Inkscape (http://www.inkscape.org/) -->

<svg
   width="210mm"
   height="297mm"
   viewBox="0 0 210 297"
   version="1.1"
   id="svg53"
   inkscape:version="1.1.2 (b8e25be833, 2022-02-05)"
   sodipodi:docname="vector.svg"
   xmlns:inkscape="http://www.inkscape.org/namespaces/inkscape"
   xmlns:sodipodi="http://sodipodi.sourceforge.net/DTD/sodipodi-0.dtd"
   xmlns="http://www.w3.org/2000/svg"
   xmlns:svg="http://www.w3.org/2000/svg">
  <sodipodi:namedview
     id="namedview55"
     pagecolor="#ffffff"
     bordercolor="#666666"
     borderopacity="1.0"
     inkscape:pageshadow="2"
     inkscape:pageopacity="0.0"
     inkscape:pagecheckerboard="0"
     inkscape:document-units="mm"
     showgrid="false"
     inkscape:zoom="0.74029882"
     inkscape:cx="149.26405"
     inkscape:cy="559.23363"
     inkscape:window-width="1920"
     inkscape:window-height="1017"
     inkscape:window-x="-8"
     inkscape:window-y="-8"
     inkscape:window-maximized="1"
     inkscape:current-layer="layer1" />
  <defs
     id="defs50" />
  <g
     inkscape:label="Capa 1"
     inkscape:groupmode="layer"
     id="layer1">
    <path
       d="M 0.30184775,95.994442 C 16.474528,87.644312 23.806448,81.543052 32.018868,76.372902 c 9.55782,-1.63204 15.3798,-5.75464 20.6967,-10.213958 6.10825,2.415244 13.43881,-3.356566 19.89034,-0.26879 13.30746,-4.974321 17.2317,-3.246352 25.80368,-4.838189 9.960272,-0.648114 10.018222,0.684236 13.439412,1.343941 6.12098,-0.108568 14.87728,-1.974005 15.05214,1.881522 1.5671,-0.570179 3.28358,-0.260496 4.8382,-0.806365 3.03973,-0.472721 4.02021,2.202354 4.03182,4.569399 -6.75676,11.13047 -1.20843,16.00975 -21.22304,26.59612 l -8.13485,0.67791 -9.038742,6.779048 h -9.03873 c -2.36691,-0.87107 -3.73377,-0.40878 -4.29341,1.12984 l 0.22597,65.07892 5.64921,-2.93759 2.03372,-0.45194 13.332142,-7.45695 2.93758,-4.06744 6.77905,-3.61549 c 5.28224,-2.42318 8.92262,-2.65723 12.42827,-2.71162 l 7.45697,-4.74534 2.03371,0.45194 c 3.6407,-2.45048 7.42067,-4.87312 8.13486,-7.90889 l 0.90388,-2.93759 c 3.75718,-2.08799 3.49488,-3.17107 2.48565,-4.06746 0.64615,-3.27062 2.14554,-5.68802 5.19727,-6.55308 1.66806,-0.92507 4.13482,-0.65211 7.00502,0.22606 l 9.26471,-8.36083 3.84146,-5.64921 c 8.58204,-6.97798 10.77657,-5.24572 12.8802,-3.38953 l 7.00502,5.87518 -12.65423,29.14995 18.52941,11.75035 10.1686,4.51937 c 0.21877,2.45813 -1.6626,4.21625 -3.16358,6.10115 l 2.48567,4.9713 v 13.33214 l -6.32714,9.2647 -10.16857,5.64921 0.45193,3.6155 4.51937,5.64921 0.67791,2.48567 -3.84147,0.22606 c -4.06593,1.80026 -7.31501,3.3577 -11.97632,8.13486 -2.72519,0.92238 -2.78251,0.32026 -9.26471,3.38953 l -11.07245,-0.45194 -3.16355,-2.03371 -3.38953,-0.22606 -84.286232,20.56312 -9.26471,-7.45696 -29.14994,-1.80774 -5.42324,-3.38953 -0.22596,-5.64921 -1.58178,-1.80775 c -0.21006,-3.99212 1.21337,-7.98422 -0.67791,-11.97634 4.10718,-7.39695 -2.73203,-6.94171 -3.38953,-10.62052 1.36652,-6.40779 1.09341,-11.99577 1.35582,-17.8515 l -4.06744,-4.51937 2.03372,-0.90387 c -1.33948,-2.38742 -2.60216,-4.75563 -1.58178,-6.55309 -4.48049,-2.31678 -7.22756,-5.50028 -10.6205203,-8.36083 2.3895703,0.51302 4.4586403,0.2247 5.6492203,-2.25968 1.49782,-1.61659 -2.45455,-0.433 0.45193,-13.78407 -1.85543,-2.20555 -1.29355,-5.18027 -2.0837,-7.89496 -0.79015,-2.7147 -2.6912003,-5.1813 -2.9337603,-7.95916 -0.0908,-3.437 -0.88297,-4.80833 -3.56934,-6.74274 -0.34514,-1.0264 -0.61229,-2.16979 0.22597,-4.97131 l -4.74534,-2.93759 c 0,0 -1.25559995,-3.95784 -0.65390995,-6.55547 0.60168995,-2.597638 0.15191995,-4.064468 -0.60814,-6.096708 z"
       style="fill:#000000;fill-opacity:1;fill-rule:evenodd;stroke:#d38d5f;stroke-width:0.602331px;stroke-linecap:butt;stroke-linejoin:miter;stroke-opacity:1"
       id="Huara" />
  </g>
</svg>
