<?xml version="1.0" encoding="UTF-8" standalone="no"?>
<!-- Created with Inkscape (http://www.inkscape.org/) -->

<svg
   width="210mm"
   height="297mm"
   viewBox="0 0 210 297"
   version="1.1"
   id="svg1283"
   inkscape:version="1.1.2 (b8e25be833, 2022-02-05)"
   sodipodi:docname="vector.svg"
   xmlns:inkscape="http://www.inkscape.org/namespaces/inkscape"
   xmlns:sodipodi="http://sodipodi.sourceforge.net/DTD/sodipodi-0.dtd"
   xmlns="http://www.w3.org/2000/svg"
   xmlns:svg="http://www.w3.org/2000/svg">
  <sodipodi:namedview
     id="namedview1285"
     pagecolor="#ffffff"
     bordercolor="#666666"
     borderopacity="1.0"
     inkscape:pageshadow="2"
     inkscape:pageopacity="0.0"
     inkscape:pagecheckerboard="0"
     inkscape:document-units="mm"
     showgrid="false"
     inkscape:zoom="0.52347032"
     inkscape:cx="155.69173"
     inkscape:cy="611.30496"
     inkscape:window-width="1920"
     inkscape:window-height="1017"
     inkscape:window-x="-8"
     inkscape:window-y="-8"
     inkscape:window-maximized="1"
     inkscape:current-layer="layer1" />
  <defs
     id="defs1280" />
  <g
     inkscape:label="Capa 1"
     inkscape:groupmode="layer"
     id="layer1">
    <path
       style="fill:#000000;fill-opacity:1;stroke:#d38d5f;stroke-width:2.30794;stroke-miterlimit:4;stroke-dasharray:none;stroke-opacity:1"
       d="m 155.45343,62.998883 c -2.50526,0 -1.82781,1.01035 -4.47173,1.01035 -2.15478,0 -3.8699,0.22729 -5.55351,0.64938 -1.39234,0.34761 -1.36751,3.80784 -3.60614,4.25533 -6.86239,1.43627 -8.1642,2.39506 -13.9196,6.56311 l -5.48151,5.7699 -8.07768,-7.71708 -21.997653,-0.43356 15.434363,23.22365 -39.811793,7.717077 0.43164,7.28449 -13.0542,1.65782 -10.16925,-4.47154 -15.00176,5.33712 1.65973,23.36784 3.89455,5.26492 0.72195,17.09314 1.01036,8.79906 -28.56076,5.48132 v 25.17101 l -2.74056,13.77539 -0.72196,14.06399 -4.47152996,6.85169 C 1.157377,233.5605 1.350277,233.41152 1.543187,233.28164 c 3.4967,-2.37213 8.69267,-2.3473 12.7658,-1.15359 2.74763,1.35414 5.45114,1.94049 8.14987,1.87555 1.35033,-0.0382 2.69912,-0.24065 4.03894,-0.5768 1.33886,-0.33615 2.63456,-0.83655 3.96674,-1.442 1.15169,0.41637 2.27148,0.58062 3.31755,0.50422 1.04665,-0.0764 2.04497,-0.37243 3.02916,-0.72195 3.28107,-1.16315 6.36409,-3.23314 10.02524,-2.09157 3.69992,-0.54242 6.53139,-4.97518 7.93348,0.64938 7.07916,2.49704 8.10231,-8.22456 13.41498,-9.15966 1.73422,0.19099 2.9583,0.71813 3.89455,1.08293 0.46793,0.191 0.79835,0.29031 1.1536,0.36098 0.53478,0.1146 0.99507,0.0764 1.442,-0.36098 0.44883,-0.44119 0.8843,-1.25673 1.442,-2.59655 0.74487,-1.78579 1.67692,-4.53896 3.02915,-8.65467 3.22722,-5.29988 9.30367,-3.69133 13.7754,-4.32734 -0.33424,-4.82831 5.36366,-11.9749 10.025233,-7.50088 1.58716,0.74296 3.05628,1.02563 4.47154,0.93778 0.70668,-0.0382 1.41908,-0.1719 2.09157,-0.36098 3.35862,-0.98743 6.2705,-3.70985 9.08746,-5.84191 6.17863,-1.79725 12.08835,1.6922 17.74232,3.10116 4.28895,-2.17026 7.82825,-11.65766 13.487,-6.41891 3.04539,1.51649 5.97904,3.01407 9.37605,2.74076 0.48512,-0.0382 0.93778,-0.0955 1.442,-0.21583 0.40681,-0.81363 0.81936,-1.64445 1.22618,-2.45235 1.20707,-2.41167 0.74296,-4.2093 0,-5.69771 -1.40571,-2.8097 2.98388,-2.67639 4.11094,-2.45217 0.47939,0.0955 1.14023,4.9177 1.22617,5.26512 0.38963,1.55468 2.9667,1.65782 4.83213,1.65782 2.37042,0 4.01277,-1.83927 4.47173,-3.67834 0.59399,-2.38073 2.45216,-2.04802 2.45216,-5.26492 0,-0.71432 -0.0955,-1.28348 -0.21582,-1.7304 -0.007,-0.0191 0.007,-0.0573 0,-0.0764 -0.38962,-1.37897 -1.09248,-1.83735 -0.5768,-3.89473 0.67803,-2.70963 2.56542,-1.02373 4.03894,-0.43165 0.89576,0.35907 1.56996,0.51759 2.16357,0.50422 0.19863,-0.005 0.38963,-0.0382 0.5768,-0.0764 0.37626,-0.0764 0.74487,-0.22156 1.1536,-0.43356 0.40872,-0.212 0.90531,-0.46984 1.442,-0.79262 1.99626,-1.19753 2.29669,-3.64339 2.74056,-5.62552 -0.26548,0.1528 -0.31705,0.1337 0.0764,-0.43355 0.58826,-2.3519 0.35525,-3.75913 -0.43356,-5.33712 -0.636,-1.27202 0.0764,-2.10131 1.08103,-2.59636 0.25211,-0.1146 0.51568,-0.20246 0.79262,-0.2884 0.83273,-0.25785 1.74568,-0.36098 2.23577,-0.36098 l 0.36097,-6.9237 c 2.93003,-0.31514 -0.25784,-14.10276 -0.93777,-19.04051 -0.36862,-2.82861 1.51266,-6.75849 -5.04872,-6.49109 2.49361,-7.48083 -2.66245,-18.85639 7.50088,-22.50246 2.15842,-18.024027 6.63778,-10.781567 10.31364,-12.116607 l -0.36098,-14.35277 c 7.88401,-8.73221 -2.17064,-9.18945 -3.89473,-13.48699 -4.29888,0.42019 -9.44462,-0.85183 -12.76581,0.43165 0.26739,1.06765 -2.60686,2.05814 -3.31755,2.23595 -2.21781,0.55388 -4.33765,0.61118 -6.4911,1.22618 -1.54514,0.4412 -3.15425,-1.20708 -3.82254,-1.87555 -1.33313,-1.33314 -5.66582,-0.5768 -7.35649,-0.5768 -2.38226,0 -5.15605,-0.403 -7.50088,-0.79263 -1.86409,-0.31131 -2.83816,-1.65782 -5.26492,-1.65782 z"
       id="Puente_Alto" />
  </g>
</svg>
