<?xml version="1.0" encoding="UTF-8" standalone="no"?>
<!-- Created with Inkscape (http://www.inkscape.org/) -->

<svg
   width="210mm"
   height="297mm"
   viewBox="0 0 210 297"
   version="1.1"
   id="svg1283"
   inkscape:version="1.1.2 (b8e25be833, 2022-02-05)"
   sodipodi:docname="vector.svg"
   xmlns:inkscape="http://www.inkscape.org/namespaces/inkscape"
   xmlns:sodipodi="http://sodipodi.sourceforge.net/DTD/sodipodi-0.dtd"
   xmlns="http://www.w3.org/2000/svg"
   xmlns:svg="http://www.w3.org/2000/svg">
  <sodipodi:namedview
     id="namedview1285"
     pagecolor="#ffffff"
     bordercolor="#666666"
     borderopacity="1.0"
     inkscape:pageshadow="2"
     inkscape:pageopacity="0.0"
     inkscape:pagecheckerboard="0"
     inkscape:document-units="mm"
     showgrid="false"
     inkscape:zoom="0.74029882"
     inkscape:cx="361.34057"
     inkscape:cy="561.93525"
     inkscape:window-width="1920"
     inkscape:window-height="1017"
     inkscape:window-x="-8"
     inkscape:window-y="-8"
     inkscape:window-maximized="1"
     inkscape:current-layer="layer1" />
  <defs
     id="defs1280" />
  <g
     inkscape:label="Capa 1"
     inkscape:groupmode="layer"
     id="layer1">
    <path
       d="m 154.82596,94.969897 c 0.21184,2.15899 -2.0943,2.03788 -2.92598,3.54202 -1.60842,0.63552 -2.98339,1.504793 -2.92604,3.806223 -0.76348,1.56741 0.0571,4.79509 -1.84801,5.66485 -1.2025,0.3866 -3.20386,3.11842 -4.69709,1.77105 -2.77726,-0.30385 -4.22584,1.40486 -6.87513,0 -4.50558,0.84737 -0.83888,-3.86406 -1.82176,-5.43226 -3.59474,-0.93559 -7.18954,-1.87126 -10.78428,-2.80685 2.57141,-4.160723 -0.69686,-3.607013 -4.02127,-3.008143 -3.99823,0.41227 -7.99653,0.82475 -11.9949,1.23716 -0.61341,2.651653 -1.64894,2.607503 -3.54202,3.399093 0.16833,2.13502 -2.6518,2.26848 -3.399087,3.68496 -1.62098,1.06997 -2.72597,1.79701 -4.30094,2.92604 -0.67261,1.5948 -2.37148,1.63424 -3.28211,3.31456 0.31669,2.87555 -2.51755,2.58347 -3.18603,4.85858 -0.71113,0.70257 -1.49109,4.47805 -2.38703,3.21185 -1.36769,0.51498 -1.27511,-0.58274 -2.86006,-0.68188 -0.96185,-0.81242 -2.8931,-2.52376 -4.08105,-1.23203 -1.8346,0.61341 -3.35985,3.88781 -4.30094,0.61626 -1.73752,0.96727 -3.52162,-1.3398 -4.46956,0.26034 -2.2433,0.92647 -1.64658,-2.79073 -2.61456,-3.80201 -1.11833,-0.34736 -4.78061,0.78153 -6.46806,1.01206 -2.09152,0.35878 -3.57855,-2.02269 -4.77399,0 -1.80664,1.11313 -1.07539,1.81798 -2.92604,1.91399 -0.37946,2.4438 -3.5968,0.11483 -4.51407,1.54351 -1.56334,1.99209 -3.56463,-0.3281 -4.81407,-0.92753 -0.92354,-2.52369 -2.8458,1.19073 -4.30101,-0.4729 -0.0713,-1.73132 -4.15565,-1.7826 -4.69702,-1.44087 -1.07918,-0.26177 -3.29047,-0.65407 -4.15807,-1.62811 -0.57767,1.55635 -1.27333,2.99473 -2.38702,4.01513 -2.13542,0.43082 -1.38042,3.13204 -2.38702,4.22391 -0.94904,1.15935 -1.92048,2.29637 -2.78307,3.5421 0.43324,2.77262 -1.47406,3.20471 -3.47608,3.54202 -0.35314,1.5244 -3.29974,1.4413 -3.75094,2.86007 0.44886,1.73281 2.67505,1.68838 3.54202,3.003 -0.42254,1.79009 -3.43891,1.1458 -4.15805,3.06899 1.6725,1.48902 -1.57266,2.53859 -2.64451,0.82054 -2.47997,-0.34807 -2.46849,1.45015 -5.1767801,0.33452 -0.83227,0.62055 -2.37855,2.29067 -3.42078,0 -2.656848,-0.29529 -3.68091,1.04188 -4.69706102,2.3871 0.59786202,2.17562 1.03232802,4.19567 1.77101902,5.78611 0.962499,2.31 1.243463,4.02063 1.155018,6.85345 0.655922,0.68688 0.874611,2.65065 1.089062,3.29958 3.385202,-1.04586 2.420862,2.25786 4.631092,2.38696 0.76938,1.20849 1.9765801,2.57383 3.6079901,3.54209 0.1189,1.2759 2.98505,0.84879 3.61903,2.38703 1.97898,-0.49929 2.56063,3.3274 4.22397,1.155 1.33498,-1.26491 1.83299,-3.36678 5.41256,-2.38703 1.07793,-1.79951 3.37333,-0.64836 2.28754,1.08909 1.24253,1.39965 2.23851,1.22946 3.87211,0.68189 0.80563,1.2229 2.80143,2.23545 4.63111,2.38702 2.29951,0.19544 2.73453,-2.96177 4.36692,-1.15506 0.62625,0.4087 2.27412,0.98531 4.04103,2.08253 2.96877,-0.37661 1.57811,3.02668 3.18603,3.76955 2.23225,1.50764 1.54266,2.44295 2.38703,4.0921 -0.89944,2.9488 1.79986,2.90893 1.9985,4.57997 -0.52496,1.89951 -3.19394,1.89181 -2.61455,4.46229 -0.54494,1.33952 -1.54644,3.08767 -2.38703,4.03682 -1.73339,0.63837 -4.41385,0.0143 -1.155,1.23203 1.61199,1.3184 -0.49287,3.8901 0.61627,4.69702 -3.3416,1.36284 1.62589,1.58895 2.30999,2.38702 1.32789,0.77782 3.65686,1.95343 5.78611,0.53924 2.59766,-0.0749 4.86599,-0.77469 6.8752,-1.15507 2.70137,0.14978 4.65836,-0.72012 2.73881,-2.92598 -0.7097,-1.4025 -2.4821,-1.74201 -2.38702,-3.94915 -0.88381,-0.86299 0.88516,-3.42077 1.70507,-4.36692 -0.28959,-1.57191 -3.00536,-1.5493 -4.01507,-3.39916 -1.07019,-1.00649 -2.38232,-2.81242 -2.86006,-4.30094 0.59344,-1.89002 3.52476,-0.84908 4.63104,-0.53923 0.12411,-2.1147 -2.73995,-2.27854 -4.158,-3.00301 -0.36092,-2.04273 -2.85115,-2.60593 -3.00301,-4.96121 1.17411,-1.19744 1.71206,-2.83461 2.72155,-4.22841 1.5846,-1.44465 2.8269,-1.88923 4.43946,-3.2075 2.27376,-0.77111 2.73574,0.0892 5.43433,-0.61626 1.14087,-1.90735 -0.0713,-3.87904 -1.35329,-5.313 0.59629,-2.84388 -1.31598,-3.72747 -1.155,-6.46807 0.99573,-0.87903 2.84188,-1.62732 4.15808,-2.38703 1.55157,-1.11291 3.85479,-0.95499 5.50023,-0.61626 0.68046,-1.29216 1.61556,-3.03525 3.35486,-3.54202 0.55493,-1.73696 0.64622,-3.93718 2.71713,-4.15808 1.84223,1.6162 1.62732,-1.34037 3.75094,-1.15507 0.86006,-1.24422 1.51841,-2.28075 3.47605,-2.92597 1.69793,0.66334 4.51071,0.21184 5.45601,1.62811 0.35806,1.79794 2.66178,1.65022 3.54202,2.92597 0.94287,1.43931 2.37419,2.84916 4.488177,1.91399 0.0143,-1.26513 3.77398,-3.97584 3.75094,-1.155 1.78274,1.90143 1.95528,2.22319 3.003,1.62804 0.27104,1.1244 1.54273,-2.56235 1.77098,-3.80622 1.60293,-0.1398 4.02155,0.15335 4.69709,2.17818 -2.1229,1.64958 2.83089,1.30585 2.92604,2.78304 0.75243,1.20585 4.02527,0.74736 4.15801,2.52996 2.02561,0.85707 2.52625,2.54758 3.87654,3.87662 2.06585,3.13089 -0.89893,-0.99858 -0.87346,1.22754 1.22347,0.99351 1.2898,3.33103 2.78303,3.75094 0.63338,1.28566 2.32055,4.04373 1.91399,0.0214 0.53495,-1.25285 1.83124,-5.76692 2.38695,-3.23367 -0.69615,0.40014 0.0642,4.19666 0.53923,5.45608 2.06798,0.41298 0.97932,3.93339 2.38703,5.45594 1.05514,0.99922 1.84815,2.39715 3.54202,3.54202 1.6274,1.47704 1.255,1.83225 1.43646,2.72155 -0.66192,1.35921 2.06277,1.28809 2.10557,3.39466 -0.1933,1.82569 2.83538,2.95037 4.15807,1.64979 2.5799,-0.96227 0.76077,3.97391 1.77098,2.32113 1.10449,1.06541 -0.4565,3.05899 0,5.76435 1.16569,1.20293 0.38302,4.35394 1.77104,5.33483 0.17618,2.12568 1.78232,3.23332 3.47605,4.22398 -0.6719,2.53531 2.72448,2.1413 1.52547,4.51406 -1.97133,-1.11933 -0.95878,2.26963 0.92753,0.94195 0.90735,-2.37975 3.83511,-0.63552 4.69703,-3.06899 0.34094,-2.48124 3.607,-1.22646 4.77405,-2.38702 0.48502,-1.48895 2.38695,-2.16927 2.92604,-3.39916 -0.16334,-2.93503 0.14765,-5.39652 2.38703,-5.92905 -0.12768,-1.81142 1.75643,-4.26242 3.54202,-2.59587 1.45571,0.39872 4.26421,-1.65429 4.77406,0.68189 1.70621,1.73773 2.13346,-1.11114 3.87212,-1.155 1.18845,-1.01719 2.10094,-1.96014 3.21192,-3.5421 1.22141,-1.60977 3.9814,-0.27888 5.17014,-1.23196 0.73402,-0.80841 0.51426,-5.06599 1.91391,-3.608 2.55515,0.84537 2.73525,-1.20571 4.15808,-1.70507 0.31383,-2.13802 0.84386,-3.46606 1.15499,-4.08104 0.86662,-1.28937 0.60272,-3.70964 2.92605,-3.54202 2.98695,-0.65978 -0.45507,-5.66635 2.24408,-6.5451 2.93382,0.52496 3.60515,-1.21277 3.68497,-3.54203 -1.19701,-1.8137 0.19258,-4.32326 0.61626,-5.92905 1.12383,-1.78509 2.54174,-4.15843 0,-4.69702 1.17961,-2.12254 2.22305,-2.98439 1.77105,-6.17149 -0.20043,-1.98638 -1.26655,-4.00878 -2.86014,-4.53161 -0.37233,-1.47961 -2.21627,-2.43867 -3.68496,-2.92604 0.89151,-2.26792 -0.15549,-3.63803 -0.53923,-5.92906 -1.307,-0.70185 -4.25615,-0.65549 -5.313,-1.77104 -1.23189,-1.79216 0.3281,-4.34724 1.95814,-4.69702 1.13331,-2.39637 3.43346,-1.26021 3.89387,-1.08909 1.73332,0.47218 2.74081,1.62311 4.15808,-0.14266 3.33974,0.0642 1.14273,-1.699 2.38703,-3.39908 -1.71841,-0.71962 -0.83111,-3.82291 -3.00308,-4.22398 -0.7816,0.19401 -3.38368,0.55349 -5.9073,0 -2.78596,-0.5913 -1.58181,-1.78253 -2.33175,-2.86007 -0.52425,-1.79266 -2.81555,-2.34937 -2.38702,-4.84003 -0.77069,-1.790883 -2.91071,-2.152433 -3.39909,0 -0.0285,2.35322 -5.04395,-0.27746 -4.84003,2.30999 -0.49572,2.52804 -2.47626,2.23296 -3.54202,3.61906 -1.55721,1.50864 -3.88675,-0.14836 -4.63112,-1.23203 -1.77632,1.86812 -2.36841,1.8881 -3.68496,0.61626 -0.13552,-3.08595 -3.07198,-0.31669 -4.158,-1.77104 -0.70757,-1.44865 -1.51313,-2.79894 -2.92605,-3.54203 -1.90221,-0.0977 -3.34523,-1.661203 -4.158,-2.860063 -1.95043,-0.76912 -2.54944,-1.77447 -4.63118,-2.45301 -2.19687,0.49358 -2.3366,-1.7846 -4.83996,-1.23196 z M 57.882043,181.3647 c -0.21255,1.68332 1.55757,-0.28031 0,0 z m 27.18127,-39.03936 c -1.80607,2.05814 -2.78646,2.02754 -5.31307,2.92604 0.12767,2.40187 -1.34038,2.66849 -2.69852,3.89809 -1.77868,0.91334 1.1132,4.60294 1.54352,2.03096 1.75079,-1.16291 2.35586,-1.86719 2.92604,-4.158 1.75971,-0.87753 4.1386,-1.24915 4.46949,-3.89809 0.9724,-1.08673 -0.3281,-0.75492 -0.92746,-0.799 z m 26.026187,0 c -1.7943,2.50985 1.06976,3.28846 0.92761,1.41498 0.66976,-0.42368 -0.78203,-0.98616 -0.92761,-1.41498 z M 77.979263,161.8065 c -2.58061,0.44722 -2.65001,2.05664 -4.77405,2.38703 -4.4217,-1.0995 0.15192,3.79281 -2.71713,4.15808 -0.80564,2.09052 2.88139,1.39986 3.94908,2.30999 -1.20207,1.04102 -1.86427,3.22833 0.94616,3.54202 1.59051,2.46007 1.38417,-0.78267 3.21192,-1.77097 2.04829,0.89529 4.09652,0.39871 4.69702,-1.77105 3.07697,-1.27119 -0.83117,-2.41791 -1.155,-3.39909 -1.64986,-0.84715 0.75407,-5.74816 -2.65115,-4.84003 -0.5214,-0.21683 -1.94894,0.54423 -1.50685,-0.61626 z m -1.15507,13.62915 c -0.17618,3.40472 4.23718,0.95136 0,0 z"
       style="fill:#000000;fill-opacity:1;stroke:#d39062;stroke-width:0.943598;stroke-miterlimit:4;stroke-dasharray:none;stroke-opacity:1"
       id="Puerto_Montt" />
  </g>
</svg>
