<?xml version="1.0" encoding="UTF-8" standalone="no"?>
<!-- Created with Inkscape (http://www.inkscape.org/) -->

<svg
   width="210mm"
   height="297mm"
   viewBox="0 0 210 297"
   version="1.1"
   id="svg57"
   inkscape:version="1.1.2 (b8e25be833, 2022-02-05)"
   sodipodi:docname="vector.svg"
   xmlns:inkscape="http://www.inkscape.org/namespaces/inkscape"
   xmlns:sodipodi="http://sodipodi.sourceforge.net/DTD/sodipodi-0.dtd"
   xmlns="http://www.w3.org/2000/svg"
   xmlns:svg="http://www.w3.org/2000/svg">
  <sodipodi:namedview
     id="namedview59"
     pagecolor="#ffffff"
     bordercolor="#666666"
     borderopacity="1.0"
     inkscape:pageshadow="2"
     inkscape:pageopacity="0.0"
     inkscape:pagecheckerboard="0"
     inkscape:document-units="mm"
     showgrid="false"
     inkscape:zoom="0.74029882"
     inkscape:cx="361.34057"
     inkscape:cy="561.93525"
     inkscape:window-width="1920"
     inkscape:window-height="1017"
     inkscape:window-x="-8"
     inkscape:window-y="-8"
     inkscape:window-maximized="1"
     inkscape:current-layer="layer1" />
  <defs
     id="defs54" />
  <g
     inkscape:label="Capa 1"
     inkscape:groupmode="layer"
     id="layer1">
    <path
       style="fill:#000000;fill-opacity:1;fill-rule:evenodd;stroke:#d39062;stroke-width:2.28149;stroke-linecap:butt;stroke-linejoin:miter;stroke-miterlimit:4;stroke-dasharray:none;stroke-opacity:1"
       d="m 187.41542,259.89727 17.32797,-71.00526 -8.72917,-13.67978 8.33821,-20.58503 4.2994,-27.09932 c -3.10029,0.17246 -4.52549,-0.51392 -7.16567,-0.26041 -2.63999,0.25352 -6.53618,1.38829 -14.33132,5.08115 l -20.45465,-3.90843 h -34.13461 l 1.04166,-9.77134 11.59544,-13.67995 c 1.79874,-1.01061 2.99112,-2.32716 3.64802,-3.90861 0.65707,-1.581451 0.79676,-3.359151 0.65189,-5.341571 -0.29145,-3.96517 -1.79702,-8.60897 -3.25705,-13.15895 -1.16583,2.38493 -2.64811,4.24542 -4.29958,5.60232 -1.65043,1.35725 -3.44641,2.24697 -5.08098,2.86627 -3.2693,1.23825 -6.05986,1.27447 -6.2537,1.30379 -0.45012,-1.79875 -3.3238,-3.08926 -6.51429,-4.16919 -3.19048,-1.0796 -6.66036,-1.89705 -8.07762,-2.60568 -6.48428,-5.23309 -10.5688,-10.82352 -15.24329,-14.98271 -2.337339,-2.07968 -4.791079,-3.79582 -7.817039,-4.95095 -3.02614,-1.15547 -6.59862,-1.77046 -11.07427,-1.56247 -2.6826,0 -4.6357,-1.40382 -6.77488,-2.86627 -2.13918,-1.46245 -4.42719,-2.99664 -7.81704,-2.99664 -4.51635,-0.0345 -7.28604,-0.49151 -9.11996,-1.30207 -1.83393,-0.81228 -2.75227,-1.90877 -3.77823,-3.12685 -1.02613,-1.21756 -2.20696,-2.64862 -4.2994,-3.90861 -2.09262,-1.25895 -5.12875,-2.4496 -10.16231,-3.38726 -3.93948,-3.03303 -7.17308,-5.23464 -10.5531,-7.42625 2.28594,8.21508 -3.82859,15.3528 -12.50723,20.19407 -3.71218,2.07071 10.04469,27.61893 -14.8525004,39.47634 0.50358,0.46046 1.5642,0.814 1.9543,1.302061 4.0521,5.06529 7.6442404,8.55068 10.6833104,10.94407 3.03907,2.39321 5.53041,3.64077 7.55646,4.29939 4.05226,1.31759 6.12349,0.13797 6.12349,0.13797 l -0.78124,51.85337 c 0.28111,0.37423 2.52618,2.55515 4.1692,4.69019 0.8209,1.06752 1.46762,2.08899 1.69354,2.86626 0.22592,0.77779 -0.0517,1.30207 -1.04165,1.30207 -1.40037,2.01587 -2.62603,3.8172 -2.99664,5.73253 -0.37079,1.91515 0.13796,4.0345 2.21488,6.51411 1.7496,0.99164 2.86351,2.49255 3.7784,4.29957 0.91404,1.80703 1.58663,3.80979 2.60568,5.60216 1.01924,1.79236 2.36631,3.48228 4.42961,4.42977 2.06312,0.9468 4.81315,1.24861 8.85938,0.52083 2.17022,3.14789 3.15203,6.81402 4.16902,10.5531 1.01751,3.73908 2.08468,7.48385 4.42978,10.81368 4.43271,1.20549 8.0978,1.50729 11.59527,1.30207 3.49746,-0.20523 6.81453,-0.92611 10.68348,-1.8241 3.86894,-0.89851 8.26302,-1.86066 13.81015,-2.73588 5.547139,-0.8761 12.313389,-1.68665 20.845619,-1.8241 3.85842,-0.63637 8.16644,-2.33699 12.76781,-3.51764 2.30078,-0.58981 4.57637,-1.04855 7.03546,-1.17272 2.45909,-0.12073 5.08737,0.17245 7.68684,0.9123 2.24679,0.62085 3.93482,1.831 5.34156,3.38744 1.40727,1.5573 2.49962,3.45659 3.51782,5.47194 2.03622,4.03071 3.71614,8.45566 6.90508,11.46507 2.98164,2.46909 6.18816,5.46625 10.16213,8.72917 3.97414,3.26275 8.80403,6.7547 14.8525,10.55293 0.52083,1.7846 1.44176,3.17514 2.3451,4.55998 z"
       id="Graneros"
       inkscape:label="#path2017" />
  </g>
</svg>
