<?xml version="1.0" encoding="UTF-8" standalone="no"?>
<!-- Created with Inkscape (http://www.inkscape.org/) -->

<svg
   width="210mm"
   height="297mm"
   viewBox="0 0 210 297"
   version="1.1"
   id="svg64"
   inkscape:version="1.1.2 (b8e25be833, 2022-02-05)"
   sodipodi:docname="vector.svg"
   xmlns:inkscape="http://www.inkscape.org/namespaces/inkscape"
   xmlns:sodipodi="http://sodipodi.sourceforge.net/DTD/sodipodi-0.dtd"
   xmlns="http://www.w3.org/2000/svg"
   xmlns:svg="http://www.w3.org/2000/svg">
  <sodipodi:namedview
     id="namedview66"
     pagecolor="#ffffff"
     bordercolor="#666666"
     borderopacity="1.0"
     inkscape:pageshadow="2"
     inkscape:pageopacity="0.0"
     inkscape:pagecheckerboard="0"
     inkscape:document-units="mm"
     showgrid="false"
     inkscape:zoom="0.74029882"
     inkscape:cx="361.34057"
     inkscape:cy="561.93525"
     inkscape:window-width="1920"
     inkscape:window-height="1017"
     inkscape:window-x="-8"
     inkscape:window-y="-8"
     inkscape:window-maximized="1"
     inkscape:current-layer="layer1" />
  <defs
     id="defs61" />
  <g
     inkscape:label="Capa 1"
     inkscape:groupmode="layer"
     id="layer1">
    <path
       style="fill:#000000;fill-opacity:1;fill-rule:evenodd;stroke:#d39062;stroke-width:0.334689;stroke-linecap:butt;stroke-linejoin:miter;stroke-miterlimit:4;stroke-dasharray:none;stroke-opacity:1"
       d="m 209.05795,180.86901 c 0,-0.77452 0,-1.54737 0,-2.32189 0,-0.59085 0.0924,-1.1335 0.20927,-1.61071 0.11681,-0.47717 0.26266,-0.88289 0.37654,-1.23417 0.11381,-0.35125 0.19658,-0.64459 0.18824,-0.85762 -0.007,-0.21294 -0.10547,-0.35582 -0.35559,-0.41837 -0.71561,-0.17889 -1.90508,-0.97417 -2.9913,-1.58979 -0.54309,-0.30772 -1.06792,-0.5799 -1.48519,-0.69027 -0.20859,-0.0551 -0.394,-0.0744 -0.54385,-0.0417 -0.14986,0.0334 -0.262,0.12616 -0.3347,0.27201 -0.49059,0.98121 -0.91356,1.90142 -1.25506,2.84485 -0.34153,0.94343 -0.61411,1.89905 -0.81584,2.90763 -0.23897,1.19405 -0.38078,2.15998 -0.64845,3.01219 -0.13384,0.42611 -0.29705,0.82789 -0.52293,1.21325 -0.22596,0.38539 -0.50411,0.75512 -0.87855,1.12957 -0.47871,0.4787 -1.15184,1.51699 -1.98723,2.42651 -0.4177,0.45475 -0.88726,0.88116 -1.38059,1.19232 -0.49333,0.31106 -1.00892,0.50204 -1.56886,0.50204 -0.86437,0 -1.65023,-0.16588 -2.38467,-0.39744 -0.7344,-0.23163 -1.4181,-0.52797 -2.11271,-0.83673 -0.69462,-0.30873 -1.38864,-0.62606 -2.13365,-0.85766 -0.74501,-0.23163 -1.54089,-0.37651 -2.42648,-0.37651 -0.57907,0 -1.0445,-0.0848 -1.46427,-0.22996 -0.4198,-0.14518 -0.79961,-0.3456 -1.17142,-0.56478 -0.3718,-0.21928 -0.73633,-0.46877 -1.17142,-0.69031 -0.43509,-0.22162 -0.93829,-0.43329 -1.54794,-0.58572 -0.64221,-0.16053 -1.07883,-0.32908 -1.40151,-0.52293 -0.32274,-0.19391 -0.5247,-0.41392 -0.7112,-0.66938 -0.37298,-0.51088 -0.66101,-1.16305 -1.58979,-2.09179 -0.48789,-0.48792 -1.01452,-0.85546 -1.52701,-1.17143 -0.51248,-0.31606 -1.02367,-0.57329 -1.50608,-0.83673 -0.48241,-0.26333 -0.92014,-0.54819 -1.31784,-0.87855 -0.39771,-0.33042 -0.74572,-0.71744 -1.00408,-1.23417 -0.3444,-0.70085 -0.48271,-1.46302 -0.54386,-2.23824 -0.0611,-0.77519 -0.0487,-1.57073 -0.0627,-2.34281 -0.0134,-0.77208 -0.0688,-1.50492 -0.27202,-2.19639 -0.10146,-0.34574 -0.22528,-0.69302 -0.41836,-1.00408 -0.19325,-0.31106 -0.43883,-0.59092 -0.75306,-0.85762 -0.51575,-0.51576 -1.25332,-0.88233 -1.90355,-1.29695 -0.32508,-0.20727 -0.63381,-0.43435 -0.87855,-0.69028 -0.24465,-0.25599 -0.43449,-0.54569 -0.52297,-0.89948 -0.11548,-0.46152 -0.23162,-0.72392 -0.35558,-0.89947 -0.12416,-0.17556 -0.26234,-0.25566 -0.41837,-0.35562 -0.15586,-0.0998 -0.33275,-0.22562 -0.54385,-0.46019 -0.21127,-0.23463 -0.4423,-0.59175 -0.73214,-1.17142 -0.33422,-0.66838 -0.87197,-1.22482 -1.35969,-1.79895 -0.48772,-0.57413 -0.92361,-1.16335 -1.10864,-1.90356 -0.0941,-0.37654 -0.34297,-0.66231 -0.66939,-0.92037 -0.32641,-0.25799 -0.74144,-0.49072 -1.12957,-0.71123 -0.38816,-0.22062 -0.76657,-0.42641 -1.04593,-0.69028 -0.27935,-0.264 -0.46018,-0.5741 -0.46018,-0.96222 0,-0.49136 -0.0731,-0.81754 -0.20927,-1.04593 -0.13617,-0.22829 -0.33309,-0.37211 -0.60664,-0.52294 -0.27368,-0.15085 -0.61271,-0.30605 -1.02496,-0.56478 -0.4123,-0.25866 -0.89127,-0.61932 -1.44337,-1.17142 -0.66832,-0.66832 -1.08562,-1.1795 -1.69436,-1.52701 -0.30438,-0.17389 -0.65493,-0.30873 -1.10864,-0.39744 -0.45374,-0.0884 -1.02363,-0.12549 -1.73621,-0.12549 -2.05841,0 -4.11242,0 -6.17084,0 -0.52113,0 -1.0466,0.11314 -1.58976,0.27201 -0.54315,0.15887 -1.09712,0.35505 -1.65253,0.54386 -0.55541,0.18891 -1.11555,0.37024 -1.67346,0.46022 -0.55791,0.0898 -1.12279,0.0958 -1.67343,-0.0417 -0.68036,-0.17022 -1.18637,-0.42861 -1.56886,-0.75306 -0.38248,-0.32441 -0.63754,-0.7113 -0.79488,-1.10864 -0.15753,-0.39734 -0.22528,-0.82442 -0.22995,-1.21325 -0.003,-0.29604 0.0571,-0.54542 0.10446,-0.79491 -0.038,0.11715 -0.0641,0.22396 -0.18824,0.35562 -0.18757,0.19892 -0.49025,0.39077 -0.98315,0.46019 -0.49289,0.0694 -1.16331,0.0267 -2.09182,-0.22996 -0.58768,-0.16187 -1.21802,-0.28636 -1.81987,-0.29271 -0.60185,-0.007 -1.18037,0.0905 -1.69436,0.37652 -0.25699,0.14284 -0.49531,0.3439 -0.71121,0.58571 -0.21591,0.24197 -0.40273,0.52076 -0.56479,0.87855 -0.32415,0.71557 -0.53255,1.68794 -0.56479,2.97037 -0.002,0.0801 -0.15753,0.28737 -0.39745,0.50204 -0.2399,0.21461 -0.5646,0.44523 -0.92039,0.54386 -0.35579,0.0988 -0.73806,0.0591 -1.08774,-0.20927 -0.34968,-0.26834 -0.67792,-0.7663 -0.89948,-1.65253 -0.13951,-0.55804 -0.31012,-0.93646 -0.52295,-1.19232 -0.21283,-0.25599 -0.45334,-0.39707 -0.75305,-0.50203 -0.59942,-0.20994 -1.39807,-0.25967 -2.42649,-0.77399 -0.33293,-0.16654 -1.03672,-0.25299 -1.81988,-0.46018 -0.39157,-0.10347 -0.79735,-0.24999 -1.19232,-0.4393 -0.39498,-0.18924 -0.78305,-0.42744 -1.10866,-0.75305 -0.501,-0.50097 -0.79243,-1.10327 -1.02499,-1.84078 -0.23259,-0.7375 -0.39115,-1.62092 -0.60665,-2.69843 -0.13721,-0.68614 -0.28113,-1.36383 -0.41837,-2.04997 -1.79667,0.89834 -2.51082,1.00458 -2.7821,1.19232 -0.13564,0.0938 -0.157,0.21494 -0.14642,0.46022 0.0107,0.24531 0.0418,0.61795 0.0418,1.23416 10e-6,0.66275 0.1244,1.07183 -0.021,1.31781 -0.14532,0.24598 -0.54517,0.31373 -1.61069,0.31373 -0.58703,0 -1.16621,0.15053 -1.71528,0.35559 -0.54908,0.20493 -1.07623,0.46486 -1.56886,0.71124 -0.49263,0.24631 -0.96292,0.48261 -1.38059,0.6066 -0.41767,0.12383 -0.78444,0.14118 -1.10866,-0.02 -0.59873,-0.29938 -1.57852,-0.6028 -2.63568,-0.8367 -1.057146,-0.23396 -2.180616,-0.39744 -3.116786,-0.39744 -1.45812,0 -2.5094,-0.16321 -3.49331,-0.39747 -0.98392,-0.2343 -1.90276,-0.53842 -3.09588,-0.8367 -0.35392,-0.0884 -1.78273,0.0234 -3.17954,0.10447 -0.6984,0.0404 -1.39982,0.0708 -1.94538,0.0627 -0.54557,-0.007 -0.9498,-0.0504 -1.06683,-0.16721 -0.91886,-0.91887 -1.76618,-1.66852 -2.74026,-2.28006 -0.97408,-0.61158 -2.07053,-1.08245 -3.43056,-1.42244 -0.52969,-0.13251 -0.9728,-0.36761 -1.40152,-0.64846 -0.42871,-0.28069 -0.8358,-0.60494 -1.25508,-0.94133 -0.41927,-0.3364 -0.85831,-0.6841 -1.35967,-0.98315 -0.50137,-0.29905 -1.06123,-0.56338 -1.7362,-0.73213 -0.92212,-0.23063 -1.42559,-0.46626 -1.67345,-0.73213 -0.24785,-0.26601 -0.25522,-0.55224 -0.14642,-0.87855 0.10881,-0.32642 0.33323,-0.69676 0.48112,-1.10865 0.14789,-0.41189 0.23523,-0.85805 0.1046,-1.38062 -0.16741,-0.66962 -0.49144,-1.71641 -0.9204,-2.74025 -0.42895,-1.02383 -0.96107,-2.02791 -1.54793,-2.61476 -0.90475,-0.90475 -1.70035,-1.86757 -2.38466,-2.84484 -0.68431,-0.97731 -1.26139,-1.97892 -1.7362,-2.92853 -0.38875,-0.77752 -0.90749,-1.36844 -1.276,-1.98722 -0.18427,-0.3094 -0.34498,-0.61675 -0.41836,-0.96223 -0.0734,-0.3455 -0.0662,-0.71841 0.0418,-1.15049 0.17292,-0.69172 0.22962,-1.25163 0.0627,-1.81988 -0.16688,-0.56826 -0.55648,-1.16311 -1.29692,-1.90356 -0.47246,-0.47243 -0.60589,-1.09682 -0.8158,-1.65253 -0.10497,-0.27769 -0.22926,-0.53922 -0.41837,-0.75302 -0.1891,-0.21394 -0.44267,-0.36694 -0.8158,-0.46022 -0.4616,-0.11548 -1.78223,-0.50217 -2.99128,-0.92037 -1.20905,-0.41823 -2.30971,-0.88032 -2.36374,-1.1505 -0.13524,-0.67619 0.0883,-2.04613 0.18827,-3.28414 0.0499,-0.61902 0.0809,-1.20516 0,-1.65253 -0.0404,-0.22362 -0.11234,-0.40211 -0.20917,-0.54386 -0.0968,-0.14185 -0.22839,-0.23797 -0.39744,-0.27201 -0.24808,-0.0497 -0.71201,-0.31307 -1.25508,-0.69031 -0.54308,-0.37735 -1.15397,-0.87278 -1.7362,-1.42241 -0.58224,-0.54964 -1.14054,-1.148863 -1.5061,-1.715283 -0.18277,-0.28336 -0.31681,-0.55755 -0.39745,-0.81581 -0.0806,-0.25833 -0.0953,-0.49736 -0.0418,-0.71123 0.0934,-0.37365 0.18186,-0.81998 0.20916,-1.27599 0.0274,-0.45602 -0.007,-0.91757 -0.14642,-1.33877 -0.13901,-0.42117 -0.3893,-0.79762 -0.79489,-1.06682 -0.40558,-0.26935 -0.9638,-0.43926 -1.73619,-0.43926 -0.56619,0.0811 -1.33725,0.32975 -2.17548,0.66938 -0.83824,0.33963 -1.73805,0.76848 -2.59384,1.23417 -0.8558,0.46566 -1.66121,0.96316 -2.28007,1.42241 -0.618861,0.45925 -1.064894,0.89283 -1.19233,1.21324 0.594466,1.18895 0.82612,2.222263 1.15049,3.221403 0.16221,0.49956 0.35747,0.99923 0.62754,1.48518 0.27008,0.48595 0.61376,0.96937 1.10866,1.46426 0.10393,0.1038 1.35154,0.75637 2.46833,1.42241 0.5584,0.33309 1.09531,0.67676 1.42243,0.94133 0.16358,0.13217 0.26858,0.24565 0.31377,0.3347 0.0452,0.0891 0.03,0.13884 -0.0837,0.16721 -0.78224,0.19558 -1.26382,0.41482 -1.56886,0.64846 -0.30502,0.23363 -0.44806,0.50093 -0.54387,0.79487 -0.0958,0.29404 -0.13831,0.60667 -0.29284,0.98315 -0.15456,0.37648 -0.41822,0.81567 -0.89948,1.29692 -0.3735,0.37351 -0.95294,1.49236 -1.61069,2.53108 -0.32888,0.5194 -0.67031,1.01442 -1.02498,1.38059 -0.35468,0.3662 -0.716504,0.60664 -1.066823,0.60664 -0.625155,0 -1.106463,-0.0374 -1.485185,-0.1255 -0.378721,-0.0881 -0.646992,-0.22328 -0.836723,-0.37654 -0.189741,-0.1532 -0.297445,-0.32742 -0.355606,-0.52293 -0.05817,-0.19558 -0.0787,-0.41236 -0.06271,-0.62757 0.03171,-0.43038 0.162707,-0.88315 0.14642,-1.25506 -0.008,-0.1859 -0.06098,-0.344 -0.167346,-0.48114 -0.106335,-0.13718 -0.260965,-0.24832 -0.522952,-0.31374 -1.010251,-0.25265 -1.451919,-0.32574 -1.987216,-0.50203 -0.535294,-0.17656 -1.174953,-0.46196 -2.552004,-1.15047 -0.50872,-0.25432 -0.82828,-0.50594 -1.066819,-0.77398 -0.238537,-0.26801 -0.391521,-0.53878 -0.522952,-0.83673 -0.131434,-0.29805 -0.251887,-0.61815 -0.439282,-0.96222 -0.187405,-0.34407 -0.4303,-0.72316 -0.83672,-1.12957 -0.784774,-0.78477 -1.602867,-1.14873 -2.321905,-1.54794 -0.359517,-0.19958 -0.698001,-0.39777 -1.00407,-0.66938 -0.306055,-0.27168 -0.56694,-0.61094 -0.794883,-1.06682 -0.09779,-0.19559 -0.673149,-1.16872 -1.192333,-2.11272 -0.51918,-0.944043 -0.994661,-1.863003 -0.878557,-2.008163 0.429139,-0.53641 0.724148,-1.02059 0.920394,-1.46426 0.196249,-0.44366 0.308525,-0.84611 0.355608,-1.19231 0.09419,-0.69242 -0.04182,-1.18995 -0.04182,-1.46426 0,-0.65691 -0.01135,-1.6983 -0.125527,-2.67754 -0.05711,-0.48959 -0.139477,-0.96479 -0.251019,-1.35966 -0.111541,-0.39484 -0.256092,-0.71628 -0.439278,-0.89948 -0.238904,-0.23897 -0.376379,-0.55454 -0.481115,-0.89948 -0.104733,-0.34494 -0.180463,-0.72211 -0.251019,-1.08775 -0.07056,-0.36563 -0.135572,-0.72395 -0.271946,-1.02497 -0.136373,-0.30105 -0.34625,-0.53918 -0.648461,-0.69031 -0.809813,-0.40488 -1.704577,-0.51195 -2.363741,-0.66935 -0.329586,-0.0788 -0.606087,-0.16521 -0.773967,-0.31373 -0.167881,-0.14852 -0.222951,-0.36329 -0.14642,-0.66935 0.180129,-0.72052 0.398643,-1.18664 0.627544,-1.50612 0.228891,-0.3194 0.455056,-0.49583 0.648458,-0.64845 0.193413,-0.15253 0.365635,-0.28203 0.439282,-0.50204 0.07363,-0.21995 0.06762,-0.52437 -0.06271,-1.0459 -0.08361,-0.33449 -0.03561,-0.72909 0.08367,-1.12957 0.119285,-0.40051 0.289835,-0.79991 0.439278,-1.19235 0.149457,-0.39243 0.28593,-0.77738 0.292839,-1.08771 0.007,-0.3104 -0.109973,-0.55704 -0.418362,-0.71124 -0.543274,-0.27168 -1.630539,-0.62563 -2.447414,-1.0459 -0.408439,-0.21026 -0.745024,-0.43174 -0.920393,-0.66938 -0.08768,-0.11882 -0.133771,-0.25199 -0.125493,-0.37651 0.0083,-0.12449 0.07983,-0.24732 0.209166,-0.37655 0.292104,-0.29203 0.434756,-0.85445 0.502034,-1.527 0.06729,-0.67256 0.06405,-1.44518 0.06271,-2.15458 -0.0013,-0.56572 0.01802,-1.00875 0.06271,-1.40148 -0.25913,0.39534 -0.58188,0.76631 -0.732135,1.06682 -0.121955,0.24398 -0.300982,0.81634 -0.522951,1.40149 -0.221982,0.58517 -0.492509,1.1828 -0.794887,1.48518 -0.215074,0.21528 -3.409651,2.54547 -3.409644,2.63569 0,0.87161 -0.442353,2.27145 -0.794884,3.68158 -0.08701,0.34801 -0.335977,0.63554 -0.6484615,0.9204 -0.312498,0.2847 -0.678576,0.55654 -1.024987,0.8158 -0.34641,0.25933 -0.668863,0.5236 -0.85764,0.79488 -0.188773,0.27135 -0.244077,0.55774 -0.08367,0.87855 0.223117,0.44624 2.226667,3.48086 2.091806,3.66069 -0.349294,0.46569 -0.954974,0.89741 -1.338755,1.35966 -0.191877,0.23129 -0.340807,0.48061 -0.355606,0.73213 -0.01469,0.25165 0.09045,0.50878 0.376526,0.79488 0.747487,0.74748 0.984454,1.04222 0.983146,1.35969 -0.0013,0.31741 -0.242808,0.65747 -0.460195,1.52701 -0.288633,1.15447 -0.814532,2.19386 -1.296922,3.15862 -0.408876,0.81777 -0.995465,1.42618 -1.589771,2.61475 -0.16501,0.33009 -0.261999,0.60254 -0.292839,0.83673 -0.0307,0.2343 0.01068,0.42785 0.1046,0.62754 0.187605,0.39944 0.625802,0.793173 1.255082,1.422443 0.399611,0.3996 0.640771,0.74307 0.773971,1.04589 0.133202,0.30272 0.157867,0.5706 0.104599,0.83673 -0.106569,0.53228 -0.505596,1.05304 -0.87856,1.79896 -0.194981,0.38993 -0.536485,0.89186 -0.815804,1.40151 -0.279321,0.50965 -0.502034,1.02684 -0.502034,1.48519 0,0.39053 -0.06745,1.17199 -0.230093,1.8617 -0.08134,0.34484 -0.177926,0.66525 -0.313766,0.89948 -0.135839,0.23429 -0.302451,0.39744 -0.502034,0.39744 -1.131142,0 -1.921944,-0.25466 -2.426495,-0.31374 -0.252287,-0.03 -0.446281,-0.0167 -0.564788,0.10447 -0.118517,0.12049 -0.167346,0.35135 -0.167346,0.73213 0,0.54399 -0.0492,0.89587 -0.125493,1.1505 -0.0763,0.25465 -0.187104,0.40564 -0.313765,0.52293 -0.253322,0.23463 -0.57956696,0.34333 -0.87855696,0.94133 -0.18567,0.37134 -0.207731,0.62646 -0.167346,0.83669 0.04035,0.21027 0.160037,0.37989 0.292839,0.5439 0.132835,0.16387 0.263969,0.33208 0.355608,0.56478 0.09162,0.23263 0.125059,0.52523 0.04182,0.9413 -0.183032,0.91516 -0.329318,1.56348 -0.292839,2.11275 0.01836,0.27468 0.07867,0.51979 0.209166,0.77395 0.130499,0.25399 0.34650396,0.51385 0.62754096,0.79488 0.273448,0.27334 0.846116,0.86463 1.171413,1.48518 0.16264,0.3104 0.272813,0.63097 0.230092,0.92041 -0.04272,0.28937 -0.233897,0.53531 -0.627541,0.73213 -0.19932,0.0998 -0.843913,0.58377 -1.38059496,1.08775 -0.268341,0.25199 -0.505866,0.50314 -0.648458,0.73213 -0.05477,0.0878 6.68e-4,0.13317 -0.02103,0.20926 0.140078,-0.19057 0.321642,-0.32741 0.627544,-0.25098 0.192378,0.0481 1.33464296,0.0354 1.52701796,0.0838 0,0.83757 -0.684333,0.92638 0.04182,1.65254 0.956426,0.95641 0.80295,-0.0457 1.589771,-0.4393 0.479987,-0.23997 0.663233,-1.83339 1.443348,-1.44333 0.851102,0.42554 1.753489,-0.0517 1.882626,0 1.960132,1.1579 -0.04392,1.25693 -0.146419,2.8867 0.528949,1.08178 1.556615,1.81134 2.029049,2.88667 -0.411566,0.30873 -1.454746,1.05354 -0.146419,1.38062 0.01535,0.003 1.1175675,0.12383 1.7362005,0 1.134002,-0.22695 1.037789,-0.20726 1.568855,0.64846 0.799246,1.28777 0.713076,1.19789 1.234165,2.19639 0.305589,0.58558 1.64942,-0.14952 2.217315,0.41837 0.60311,0.6031 -0.402691,2.20827 0.292839,2.04997 2.337041,-0.53194 2.944293,0.19158 2.175479,1.67343 -0.40684,0.78413 0.790141,1.3364 1.589774,1.73621 0.556024,0.27802 1.296919,0.67362 1.296919,1.44333 7e-6,0.63865 -0.163708,1.81214 0.292839,2.15457 1.08557,0.81417 1.232954,-0.2927 2.300988,-0.2927 1.292383,0.39296 2.460318,1.82582 1.694364,3.15865 -0.574433,0.57443 -1.911349,0.29804 -1.547937,1.02497 0.325814,0.65162 0.87856,0.86473 0.87856,1.88262 0.35924,1.16074 0.400078,3.19386 1.317835,3.95353 0.82323,0 2.865776,-1.5972 2.865776,-0.77399 0,0.11382 -0.07823,1.37519 -0.585704,1.88263 -1.285027,1.28503 -0.18093,0.80956 0.397442,1.9663 4.22166,3.57011 1.046383,-0.69745 3.493317,-1.54793 1.403898,0 1.543859,-0.18357 1.736197,0.58571 2.133075,4.97362 0.478809,-1.3635 3.325975,1.29691 1.277394,0.6503 2.803774,0.22162 4.037184,1.1505 1.72097,2.34047 1.84593,1.72679 3.5979,0 1.66417,-0.2857 2.86741,-1.93192 4.76932,-1.29692 0.9499,-0.47437 2.6987,-0.62726 2.30099,-1.58978 -0.63072,-0.47304 -1.78147,-0.91954 -0.85764,-1.15047 0.81945,-0.20492 2.33211,-0.0627 3.20046,-0.0627 0.9629,0.30939 0.38026,1.02447 1.12958,1.79895 1.23505,-0.31907 2.29186,-1.47935 3.59791,-0.58571 0.62467,0.3124 0.96541,1.00407 1.73619,1.00407 1.27137,0.0995 2.59855,0.71148 3.36781,1.69436 0.20897,0.41793 0.85047,1.47427 0.81581,1.92448 -0.0832,1.08101 1.72765,1.62249 2.38466,1.73621 0.48589,0.0841 -0.0889,1.6317 0.12552,2.48923 0.25386,1.01549 1.54963,1.25679 2.32191,2.02904 0.43486,0.43489 1.31037,0.446 1.79895,0.69031 -0.92672,1.43242 0.74401,1.57637 1.33876,2.67751 1.22038,0.42747 1.01438,1.81187 1.29692,2.34284 0.37728,0.709 1.03206,1.29692 2.07088,1.29692 1.00996,-4e-5 1.04001,0.35558 2.04998,0.35558 0.57998,0 2.28768,0.30038 2.63567,0.64846 0.85184,3.24763 4.51762,3.20608 6.4846,5.54331 1.96008,1.20604 3.59255,2.4857 5.64788,3.53513 0.66706,0.39994 1.43388,-0.0928 3.15863,0.75306 2.10909,0.34707 4.636446,-0.70433 6.338166,0.85766 0.26303,0.52606 0.75239,2.20897 1.7362,2.02904 1.16561,-0.21327 1.43565,0.97454 2.30098,1.1505 0.98881,0.20092 1.40345,-0.03 2.02906,0.43929 1.2931,1.02937 2.75338,1.58588 4.03719,2.59383 0.0426,0.92978 0.21434,1.97688 2.02905,1.29691 1.50116,-0.27701 3.08348,-0.20726 4.60197,-0.14651 1.00776,0.25198 2.05172,1.29691 3.17955,1.29691 0.83915,0 2.61999,-0.30672 3.17954,0.43926 1.0795,0.58538 1.43246,1.47063 2.30099,2.15457 2.76889,0.13384 3.79224,-0.24698 3.89076,-1.00408 0.10714,-0.66364 0.7609,-1.33453 2.46834,-1.00404 0.77051,-3e-5 1.20977,0.62293 1.58975,1.12957 1.32819,1.10691 2.69473,2.08221 3.59791,3.61883 0.37965,0.50618 0.88202,0.80269 1.73621,1.44334 0.90281,0.98188 -0.55454,0.59526 0.41836,3.47241 -0.29504,1.17997 1.35245,0.84474 1.02497,2.15454 -0.15853,2.93974 2.10661,3.64807 3.26325,6.17085 0.0397,0.1592 -0.29604,2.68638 -0.10447,2.7821 0.70663,0.35332 0.83406,0.56211 1.56886,1.29692 0.76678,1.1297 1.4156,2.43469 2.61476,3.17954 1.63478,-0.0788 3.2766,-0.20526 4.91575,-0.14652 0.3124,0.50784 2.49077,0.61415 3.91167,0.62753 1.25994,0.73587 0.77455,2.55428 1.71528,3.70251 0.43866,0.32908 -0.0511,1.32361 0.43926,1.56886 0.89951,0.4497 -0.12315,1.82101 0,1.88262 1.16375,0.46353 2.42352,1.0181 3.45149,0 0.61955,-0.61955 0.16721,-1.21284 0.43929,-2.30099 0.23096,-0.92317 0.89861,-1.37885 1.29692,-2.1755 1.3889,-2.10838 0.40364,-3.68955 1.88262,-6.04532 0.6759,-1.32568 -0.20426,-3.15684 0.81581,-4.37185 0.9704,-0.53996 2.35883,-0.7603 2.63568,-1.84081 -3e-5,-1.40021 -0.2917,-2.86384 0.85762,-3.89075 1.32198,-1.17145 1.69042,-1.94901 2.02905,-3.61883 1.4133,-0.47771 1.35382,-2.15934 2.57294,-1.63161 0.51789,0.51786 2.10661,1.87906 2.28006,2.57294 0.20326,0.81277 1.21755,0.9968 1.92448,1.52701 1.29148,1.07583 2.57337,1.85102 4.18359,0.85762 0.88235,-1.17212 1.0498,-2.91984 2.74028,-3.03312 1.42701,-0.54593 2.72894,-1.77382 3.32596,-3.17954 0.0901,-0.36093 0.22996,-2.38116 0.22996,-2.84485 0.41867,-1.48055 0.31707,-2.06039 1.21328,-3.34689 0.73163,-1.19425 1.66034,-2.42175 3.17954,-2.44741 0.66761,-3e-5 1.53745,-0.74782 2.15454,-0.43929 0.1068,0.0534 2.1755,0.92174 2.1755,0.2927 0,-0.92958 0.4987,-1.52958 0.98315,-2.1755 2.52267,-2.63054 -0.98486,-3.84382 1.84077,-4.66473 0.85021,-0.75536 1.76201,-1.58595 2.44741,-2.4683 0,-1.18901 1.05678,-0.54136 2.0709,-0.79491 0.4173,-0.10447 0.24164,-1.40859 0.58571,-1.1505 0.22996,0.18958 0.43639,0.38115 0.64846,0.58571 z"
       id="Parral"
       inkscape:label="#path2817" />
  </g>
</svg>
