<?xml version="1.0" encoding="UTF-8" standalone="no"?>
<!-- Created with Inkscape (http://www.inkscape.org/) -->

<svg
   width="210mm"
   height="297mm"
   viewBox="0 0 210 297"
   version="1.1"
   id="svg1283"
   inkscape:version="1.1.2 (b8e25be833, 2022-02-05)"
   sodipodi:docname="vector.svg"
   xmlns:inkscape="http://www.inkscape.org/namespaces/inkscape"
   xmlns:sodipodi="http://sodipodi.sourceforge.net/DTD/sodipodi-0.dtd"
   xmlns="http://www.w3.org/2000/svg"
   xmlns:svg="http://www.w3.org/2000/svg">
  <sodipodi:namedview
     id="namedview1285"
     pagecolor="#ffffff"
     bordercolor="#666666"
     borderopacity="1.0"
     inkscape:pageshadow="2"
     inkscape:pageopacity="0.0"
     inkscape:pagecheckerboard="0"
     inkscape:document-units="mm"
     showgrid="false"
     inkscape:zoom="0.52347032"
     inkscape:cx="155.69173"
     inkscape:cy="305.65248"
     inkscape:window-width="1920"
     inkscape:window-height="1017"
     inkscape:window-x="-8"
     inkscape:window-y="-8"
     inkscape:window-maximized="1"
     inkscape:current-layer="layer1" />
  <defs
     id="defs1280" />
  <g
     inkscape:label="Capa 1"
     inkscape:groupmode="layer"
     id="layer1">
    <path
       d="m 153.21482,3.9681067 -1.75193,1.40762 -1.40157,1.89728 -2.21913,2.32556 -1.81034,1.4076203 -1.75194,1.89727 -1.81035,1.40755 -2.68631,2.81523 -0.4672,0.97925 h -0.46714 l -0.40879,0.42871 v 0.48946 h -0.4672 v 0.48945 h -0.46714 v 0.428 h -0.40879 v 0.48945 l -0.4672,0.48946 v 0.42871 l -0.46714,0.48945 v 0.48945 h -0.40879 v 0.91795 h -0.46714 v 0.91802 h -0.4672 v 0.97926 h -0.40879 v 0.428 l -0.46714,0.48946 v 0.48945 l -0.4672,0.428 v 0.48945 h -0.4088 v 0.48946 h -0.46713 v 0.42871 h -0.4672 v 0.48945 h -0.4088 l -1.34315,1.40761 v 0.48946 h -0.46713 v 0.91802 l -0.46721,0.48945 v 2.32564 h -0.40879 v 2.3868 l -0.46713,0.42871 v 0.97918 l -0.93438,0.91802 h -0.4088 v 0.48946 l -0.4672,0.42871 h -0.4672 v 0.48945 h -0.4088 v 0.48945 h -0.93438 l -0.40879,0.48945 h -1.34315 l -0.46721,-0.48945 h -0.4672 v -0.48945 h -0.4088 v -0.48945 h -0.4672 v -0.91802 h -0.4672 v -0.91803 l -0.4088,-0.48945 v -1.89721 l -0.4672,-0.42871 v -0.97728 h -0.46721 v -0.91802 h -0.40879 v -0.48945 h -0.4672 v -0.42871 h -0.46721 v -0.48945 h -0.40879 l -0.46721,-0.48945 -0.4672,-0.42871 h -0.4672 v -0.48946 h -0.4088 v -0.48945 h -0.4672 v -0.428 h -0.46708 v -0.48945 h -0.40879 v -0.48946 h -0.46721 v -0.48945 h -0.4672 v -0.42871 h -0.40879 v -0.48945 l -0.46721,-0.48945 v -0.42801 h -0.4672 v -0.48945 h -0.4088 v -0.48945 h -0.4672 v -0.42801 h -0.4672 v -0.48945 h -0.4088 v -0.91795 h -0.4672 v -0.48945 h -0.46714 v -0.48945 l -0.40879,-0.42801 v -0.97925 h -0.46706 v -0.92099 h -4.02947 v -0.91795 h -0.46721 v -0.97926 l 0.46721,-0.42871 v -0.97926 l 0.40879,-0.48945 v -0.91802 h 0.4672 v -0.91802 h 0.46714 v -0.48945 l 0.4672,-0.48945 v -1.83598 h -0.4672 v -0.97925 h -0.46714 v -0.42801 h -0.4672 v -0.48945 l -0.87596,-0.9180203 h -0.46721 l -0.40879,-0.48945 h -0.93436 v -0.48945 h -3.562283 -1.34316 l -0.4672,0.48945 h -1.34316 l -0.4088,0.48945 h -0.4672 l -0.93437,0.9180203 v 3.73318 h 0.4672 v 2.3868 h -0.4672 v 1.40761 h -0.4088 v 5.63046 h 0.4088 v 0.48945 h 0.4672 v 0.91796 h 0.4672 v 0.48945 l 0.46721,0.428 v 0.48945 h 0.40879 v 0.48946 l 0.46721,0.428 v 0.48945 l 0.4672,0.48945 v 0.42872 h 0.40879 v 1.8972 l -0.40879,0.48945 h -0.4672 v 0.48946 h -0.46721 v 0.42871 h -10.27806 v 0.48945 h -1.34316 l -0.46721,0.48945 h -1.34315 l -0.4672,0.42871 h -0.87597 l -0.46721,0.48945 h -0.4672 l -0.40879,0.48945 h -0.46721 v 3.73326 l 0.46721,0.48945 v 3.30489 h 0.40879 v 0.42871 l -0.40879,0.48945 v 1.89721 l -0.46721,0.42871 v 1.89721 l -0.4672,0.48945 v 3.24366 l -0.4088,0.48945 v 1.89721 l -0.4672,0.48945 v 0.91802 l -0.4672,0.48945 v 0.91802 l -0.4088,0.48946 v 0.42871 l -0.4672,0.48945 v 0.48945 h -0.467 l -0.40879,0.42871 h -1.34316 v -0.42871 h -3.15348 v 0.42871 h -0.46721 l -0.87597,0.97919 0.87597,0.91802 v 0.48945 l 0.46721,0.42871 v 0.97919 l 0.40879,0.42871 v 0.48945 h 0.4672 v 0.48945 h 0.93436 l 0.4088,0.42871 h 1.81032 v 0.48946 h 0.46721 v 0.48945 h 0.87596 v 0.48945 h 0.4672 v 0.42871 h 0.4088 v 0.97919 h 0.4672 v 1.83604 h 0.46721 l -0.46721,0.48945 v 1.40762 h -0.87597 v 3.73325 l 0.4088,0.48945 v 0.48945 l 0.4672,0.42871 v 0.48945 h 0.4672 v 0.48945 h 0.4088 l 0.4672,0.48946 h 0.46721 v 0.42871 h 0.40879 l 0.4672,0.48945 h 0.46721 v 0.48945 h 0.87597 v 0.42871 h 0.4672 v 0.48945 l 0.4088,0.48945 v 0.91803 l 0.4672,0.48945 v 0.91802 h 0.4672 v 4.22284 h -0.4672 v 0.91802 l -0.4672,0.48946 v 0.48945 h -0.4088 l -0.4672,0.48945 h -1.34316 l -0.46721,0.42871 h -0.87598 l -0.4672,0.48945 h -0.87599 v 0.48945 h -0.46721 l -0.40879,0.42872 h -0.46721 v 0.48945 h -0.46727 L 18.256792,249.31915 78.348447,292.58793 v -2.38687 l 1.75195,-1.83597 1.34316,-2.87647 0.4672,-2.32563 2.68632,-2.81523 4.02947,-2.81516 0.93438,-4.71244 0.40879,-3.73325 h 2.68631 l 1.34316,-1.40761 0.46721,-0.97926 0.4672,-4.22277 v -2.81523 l 0.87597,-2.32564 0.93438,-0.48945 v -2.81523 l -0.4672,-1.89728 0.4672,-3.73318 h 2.21912 l 2.686313,-3.30482 0.46714,-2.81523 1.34316,-1.40761 h 1.34316 l 1.34315,0.48945 1.81035,0.91802 6.24859,3.73325 2.21912,0.97919 2.27754,-0.97919 1.34315,0.48945 2.21913,-4.71243 2.27754,-2.81523 2.21913,-3.73325 2.27751,-2.3868 4.43827,-1.83605 1.34315,-0.97918 v -1.89721 l 0.93436,-2.32563 0.87597,-0.91803 h 3.62069 l 2.68631,-1.8972 2.21913,-2.32564 3.56228,-2.3868 2.74472,-1.40761 2.21913,-1.40762 0.4672,-1.89721 V 194.7893 l -1.34315,-12.17887 -2.74473,-15.54499 -3.09509,-8.93528 0.87597,-4.22284 0.87597,-1.89721 h 2.27753 l 1.34316,2.38687 2.68631,1.40754 1.34316,0.91802 h 2.68631 l 0.87597,-0.48945 3.62067,0.48945 1.81034,0.91803 0.87597,-1.40762 0.876,-3.73318 1.34315,-2.81523 1.34316,-3.30489 h 3.15341 l 0.93438,-1.40762 0.4088,-0.91795 -2.68631,-1.89727 -1.34316,-1.40762 -0.46714,-1.40754 0.93436,-1.89721 1.75193,-1.40761 1.40157,-1.89728 0.4088,-1.83598 -2.21913,-4.71243 0.40879,-1.89728 h 2.74472 l 2.21913,0.97926 2.68631,0.42871 h 7.65017 l 1.75194,-2.32557 1.81034,-3.30482 0.46713,-3.30482 -0.93436,-1.40762 -2.68631,-2.81523 -2.68631,-1.40761 -0.40879,-1.89728 0.40879,-2.81516 -0.40879,-1.83604 -1.81035,-2.3868 -1.81035,-0.91802 v -1.40762 l 0.46721,-2.386803 v -1.83604 l 0.40879,-1.40761 0.46721,-0.97919 v -5.63046 l 0.4672,-0.91802 v -1.40761 l -0.4672,-1.40762 -0.46721,-1.89721 -0.87597,-1.8972 -1.34316,-1.40762 -0.87597,-1.40761 -0.4672,-1.40762 -0.4672,-0.42871 -1.34316,-0.97918 -0.87597,-0.91803 v -3.30482 l -0.46721,-0.91802 -0.87596,0.42871 -1.81035,-0.91802 h -1.34315 l -0.46713,0.48945 h -2.21916 l -0.87596,-0.48945 -0.93436,-0.91802 v -2.3868 l 0.46714,-1.83605 0.4672,-0.48945 0.4088,-0.97918 -0.4088,-1.83605 0.4088,-1.40761 0.46713,-0.97919 v -0.91802 l -0.46713,-1.89721 -0.4088,-0.42871 0.4088,-1.40761 0.46713,-1.40762 v -2.87639 l -1.34315,-1.40761 -0.46714,-0.91803 -2.68632,-0.91802 -1.34315,0.42871 h -1.34316 l -1.34316,-0.42871 -1.81034,-0.48945 -0.40879,-0.48945 -0.46721,-0.91802 -1.81034,-1.89721 -0.87597,-0.428 -0.4672,-0.97926 v -3.73325 l 0.4672,-1.89721 0.4672,-0.91802 0.4088,-0.48945 0.93437,-1.40762 0.40879,-1.40761 0.46721,-0.91802 0.87597,-1.40755 0.93438,-0.48945 0.40879,-0.97918 0.93437,-0.42872 0.4088,-0.97925 -0.4088,-0.91802 v -2.32557 l 0.4088,-1.40761 0.4672,-0.97926 v -2.81523 l -0.87597,-1.40761 -0.93437,-0.91803 -0.87597,-0.48945 -0.4672,-1.40761 -0.4088,-1.89721 v -2.32557 l -0.4672,-1.8972703 -0.46721,-0.42801 -1.34315,-0.97925 v -0.91796 l -0.40879,-0.97925 v -0.91802 z"
       style="fill:#000000;fill-opacity:1;stroke:#d39062;stroke-width:0.934351;stroke-miterlimit:4;stroke-dasharray:none;stroke-opacity:1"
       id="OHiggins" />
  </g>
</svg>
