<?xml version="1.0" encoding="UTF-8" standalone="no"?>
<!-- Created with Inkscape (http://www.inkscape.org/) -->

<svg
   width="210mm"
   height="297mm"
   viewBox="0 0 210 297"
   version="1.1"
   id="svg1283"
   inkscape:version="1.1.2 (b8e25be833, 2022-02-05)"
   sodipodi:docname="vector.svg"
   xmlns:inkscape="http://www.inkscape.org/namespaces/inkscape"
   xmlns:sodipodi="http://sodipodi.sourceforge.net/DTD/sodipodi-0.dtd"
   xmlns="http://www.w3.org/2000/svg"
   xmlns:svg="http://www.w3.org/2000/svg">
  <sodipodi:namedview
     id="namedview1285"
     pagecolor="#ffffff"
     bordercolor="#666666"
     borderopacity="1.0"
     inkscape:pageshadow="2"
     inkscape:pageopacity="0.0"
     inkscape:pagecheckerboard="0"
     inkscape:document-units="mm"
     showgrid="false"
     inkscape:zoom="0.74029882"
     inkscape:cx="361.34057"
     inkscape:cy="561.93525"
     inkscape:window-width="1920"
     inkscape:window-height="1017"
     inkscape:window-x="-8"
     inkscape:window-y="-8"
     inkscape:window-maximized="1"
     inkscape:current-layer="layer1" />
  <defs
     id="defs1280" />
  <g
     inkscape:label="Capa 1"
     inkscape:groupmode="layer"
     id="layer1">
    <path
       d="m 65.661939,42.919659 c -2.05368,2.15059 0.62036,4.93868 -0.82535,6.62783 -1.5092,1.80317 -3.33263,2.16446 -5.42363,4.21938 -3.13332,1.20205 -5.05948,2.25184 -9.07422,1.76856 -2.57212,-1.9255 -4.95269,-1.90115 -8.73757,-1.76856 -5.11267,1.69614 -3.4111,-3.42188 -5.7692,-4.48041 -0.17442,-3.7137 -5.43916,-2.45356 -6.27516,-0.0874 -3.11305,2.20706 -2.53823,5.0585 -3.74675,7.54493 -0.0295,3.28438 0.35671,6.98465 -3.83598,6.10578 -3.444412,0.4183 -4.597351,-4.38845 -4.299451,1.72639 1.540725,1.31651 -0.198447,3.47081 0,5.46588 -2.698316,0.88357 -0.536802,5.20026 -1.768573,5.42361 2.144913,2.18554 1.994412,1.99616 4.480378,4.59825 2.770996,0.45544 4.473886,1.4953 6.366876,3.53711 1.60061,1.77849 3.63741,2.98272 1.76857,4.59836 0.19932,3.00522 5.52239,0.24902 5.54152,4.25717 1.66884,1.45958 2.82394,2.36455 4.3887,4.72987 1.16861,2.29508 1.44998,5.536861 0.0917,8.488021 -0.32623,3.61486 -2.46783,4.79812 -2.71181,7.79438 -1.11266,2.8521 -4.88188,-0.0764 -6.36687,2.45083 -3.10622,2.70072 -3.62318,-2.13639 -5.8494,0.76671 -1.14846,2.63562 -3.729748,2.23927 -2.28604,5.25891 1.36136,0.22498 5.27239,3.79714 6.36687,2.79191 4.33853,-0.30035 -1.00305,2.98228 -1.88648,3.91609 -1.08846,2.74244 -2.43888,4.22975 -4.139273,5.64674 0.891103,1.35669 1.545463,3.5549 0.602113,7.00682 3.73065,2.25118 -1.747821,2.15299 0.82535,4.7837 1.59422,1.19058 0.83038,6.05958 2.71182,7.31012 2.71864,0.26758 1.54704,4.68923 4.59829,6.36681 0.2915,3.02553 -0.46505,7.05061 0.82535,8.13557 -3.37969,1.20729 -0.31618,4.88211 -0.22324,7.19216 2.33847,1.68064 0.63106,4.89151 -0.60211,6.36681 -3.69797,1.87242 0.0524,1.48677 -0.9432,5.98357 -2.01114,0.43468 -0.7323,3.63736 -4.44806,4.82673 -4.7982,0.10922 2.96828,1.36445 -1.9188,3.69209 1.72257,1.39066 3.40982,2.8166 4.59829,4.74133 0.48459,3.86453 -1.10308,5.65678 -1.88648,8.25331 0.82295,4.44863 -0.80296,5.20496 -3.53714,6.93124 -2.321095,1.34326 -3.993077,3.49593 -5.423624,4.74144 -1.219889,2.0725 -1.895746,3.58691 -4.506601,5.07095 0.160112,3.36541 -2.711673,3.47201 -2.803503,6.49623 -0.705433,3.23424 -4.178218,2.9565 -4.480389,5.38582 -1.645573,1.99954 -6.01759696,2.08703 -3.655058,4.25717 1.154534,3.74494 -2.765408,5.8525 1.545378,6.59016 3.82382,-1.92714 4.901169,4.10033 6.590069,0.34075 1.479552,-2.74025 4.442971,-0.0109 6.025755,1.54532 1.906908,0.86609 4.279452,0.57229 6.707973,-1.8864 2.44485,-1.21242 5.69766,0.3899 7.19219,1.54531 1.57788,-0.65203 6.00259,-1.40147 5.42363,-4.25717 1.87459,-0.62254 4.10628,-2.87044 6.79263,-2.28602 2.11799,1.55787 4.39136,1.61903 5.9411,3.22933 2.71133,3.14993 3.49365,1.99889 6.24896,2.71175 1.21057,-0.94145 3.84819,2.30961 4.5336,4.47866 2.79223,1.91632 6.71952,-2.12176 9.96753,-2.59631 6.95678,-2.74975 13.91356,-5.49951 20.87034,-8.24916 0.43031,-2.59314 2.19646,-5.37654 1.76857,-9.03651 0.81727,-1.69013 4.4258,-3.84946 2.71182,-5.12468 4.64844,-0.83224 -2.06237,-1.38859 -3.53715,-3.05295 -3.82251,-1.5476 2.28517,-3.3842 -1.88649,-3.65505 -3.92081,-2.24157 1.2321,-1.29412 3.65506,-2.71186 1.48872,-2.10429 1.40236,-5.49023 3.91608,-6.24897 3.18252,-1.88574 3.43368,2.35735 6.707971,0 3.1019,0.24028 0.86838,3.07545 2.71181,5.42372 2.40735,2.01702 1.13159,3.00915 0.82535,4.4803 3.74111,0.86719 -1.35459,5.14839 1.28435,6.36692 4.17833,-2.21558 -0.74824,3.09838 0.82536,3.91609 1.34845,1.9848 2.80924,3.86956 5.20042,5.16258 1.0641,2.77324 3.34339,1.49485 3.87825,2.97278 -1.56381,1.46351 2.54218,2.8593 3.65505,3.87829 1.64008,1.54674 2.5421,3.18434 5.8494,3.47868 3.17469,0.9338 3.20546,3.51449 6.46314,3.22933 3.04741,0.72629 3.24042,4.07194 5.50371,2.71175 3.91933,-0.96657 0.47193,-5.47877 0.47204,-8.59768 -1.26197,-5.89837 -2.52396,-11.79675 -3.78593,-17.69513 3.49912,-2.18161 1.08617,-6.18638 0.82536,-8.9985 -2.89813,-2.55349 -1.39459,-2.66839 2.18532,-1.84871 0.88815,-2.45761 -4.11892,-1.74365 -0.29882,-4.48042 2.51671,1.05941 6.28977,0.86282 9.90402,0.82569 -1.18028,1.31147 3.71482,-0.64985 5.20043,1.8865 2.75358,0.27414 4.16252,2.39753 7.45321,2.71186 3.99468,-0.57994 6.17708,0.65312 8.47655,1.76855 1.70029,1.95936 5.45811,-1.05394 8.8132,0 4.26536,0.54827 6.76716,-0.66622 10.20733,-0.94363 1.33879,-1.41764 5.92761,-0.16929 6.52117,-3.10832 -0.21003,-1.22946 -3.44645,-2.69318 -2.22173,-6.5302 0.22553,-3.74822 -3.77403,-2.13683 -6.36687,-3.92056 1.76395,-2.76461 -1.24413,-3.92886 -0.9432,-7.83206 1.83344,-2.61553 -1.89142,-4.18149 -0.0917,-6.57847 -1.86673,-1.63498 -2.25624,-4.83046 -1.28038,-7.73705 -1.23904,-1.63629 -1.10247,-3.44743 0.42879,-5.34945 -2.59922,-2.01069 -1.77911,-5.33165 -0.82535,-7.75648 -2.02312,-2.54618 1.32394,-5.73936 -1.5454,-7.31012 -0.46974,-2.0796 -3.55888,-2.92145 -3.87824,-5.42361 -2.50359,-1.36696 -1.17245,-3.71469 -1.03495,-6.27517 -0.51288,-2.22344 -1.26981,-4.74472 -2.62011,-6.34071 1.4345,-2.20498 6.96419,-0.31454 9.97518,-0.94363 6.3432,0 12.68631,0 19.02946,0 -0.30647,-2.19985 -4.24323,-2.3533 -4.59831,-4.48041 -4.92566,0.78199 -4.89163,-0.97094 -5.08252,-3.65495 -1.16373,-2.15147 3.98682,-5.76765 -0.34108,-6.36692 -2.19845,-2.59412 5.15338,-2.78973 3.0529,-4.48041 -2.61884,-0.79619 0.32721,-7.15732 -2.10965,-8.13547 -2.34255,-4.51186 -3.40197,6.37948 -1.76861,0.90541 2.42535,-0.24246 0.88859,3.2479 1.27849,4.91466 -0.13445,1.17801 -3.60353,-3.09499 -5.87675,-0.39646 -2.95111,2.864 -5.57673,-1.44702 -6.3669,-3.09073 -1.49581,-1.84894 -2.0777,-6.04091 1.39638,-4.64817 2.02784,-0.24792 2.4448,-5.11005 2.25867,-7.70657 2.00023,-2.17746 3.19917,-1.33398 6.66573,-0.94364 2.2848,-0.75141 7.79709,-0.63018 5.1617,-3.50488 -0.80504,-3.397751 2.23158,-5.120641 -0.0371,-7.342451 -3.02123,1.31421 -3.92584,2.20684 -3.31395,-0.82568 -1.01288,-2.33407 -7.53746,1.69505 -4.82151,-1.54531 3.1183,-2.50926 2.89572,-1.0321 5.42365,-1.16644 1.0013,0.56575 4.65436,0.0546 7.49105,0.82568 1.02849,0.6007 3.32186,0.58322 4.90154,2.71186 2.78882,1.38913 3.5487,0.81149 1.16645,-2.37066 0.46886,-3.78273 -2.20629,-4.42155 -5.1203,-4.8215 -4.16514,1.10091 -5.96805,-1.90431 -9.07871,-1.8865 -3.53684,2.43423 -3.91894,-1.67026 -4.37183,-3.97638 1.44613,-2.61771 6.35224,-1.72748 5.95501,-4.98445 1.6325,-2.33986 2.51481,-3.42766 4.4804,-4.59825 2.32194,-2.08539 5.22921,-1.44418 6.36687,-4.13922 0.40039,-3.82817 1.19804,-5.57804 -3.61279,-4.93945 -3.46306,-1.14394 -4.51645,0.3484 -8.51437,0 -3.10151,-0.0764 -3.99262,-3.06933 -1.43191,-4.13932 -0.01,-2.31104 -3.65486,-4.14053 -1.88647,-6.7079 -3.22315,-0.12014 -3.89885,-4.20223 -7.83218,-3.53721 -3.51486,0.61489 -4.82512,0.43032 -8.73756,0 -3.04005,-0.61708 -5.96451,-1.22946 -6.67016,1.76866 -0.83398,2.3059 -1.9971,4.28273 -3.05292,6.36681 -2.30769,0.24574 -2.24223,4.49373 -4.74141,4.48041 -2.4788,1.20401 -7.53851,1.73666 -6.93117,-2.74965 -0.56553,-3.14425 -2.65351,-4.03251 -0.9432,-7.15437 -3.70207,0.66732 -5.46485,0.86391 -7.57112,-0.94364 -2.64295,1.05395 -3.9797,2.5499 -5.16261,5.42361 -1.85778,1.557 -2.68995,4.0465 -5.08251,4.48031 -2.91554,0.13215 -1.90607,4.54113 -4.82149,6.36691 -1.61627,1.40999 -2.07809,3.97441 -3.65506,5.42361 -2.15687,0.75578 -3.61915,2.20597 -5.08252,3.65506 -1.00872,1.71493 -5.23459,2.34478 -5.76473,4.25717 -1.73713,0.75469 -3.85414,4.01799 -6.28678,3.8783 -3.15024,1.39131 -4.32678,-0.75469 -6.32905,0.94363 1.92869,2.83834 3.61189,0.33748 6.24896,1.76855 0.62899,0.13871 5.38597,-3.18859 8.73312,-1.76855 3.00163,0.6422 2.14064,4.2208 4.70467,6.2375 -3.50277,1.486 -2.84216,-2.92407 -4.96124,-3.52564 -1.6056,-2.79366 -7.15523,-2.28526 -4.82149,0.60179 3.20462,0.0983 5.68971,0.21188 6.36686,3.65506 1.25241,2.13595 0.5272,6.24939 1.76858,8.396491 -1.43692,4.42023 2.07015,5.50967 3.65504,6.93113 1.29363,2.45793 4.42795,-1.2869 6.969,1.16644 2.96194,0.94473 -1.96546,2.79913 -2.48861,0.94364 -0.86008,2.69001 -4.83794,-0.87701 -5.42363,2.97289 -0.66742,4.67623 -2.4119,0.18785 -4.25717,-1.20434 -1.57279,0.67059 -1.30493,6.13013 -3.87826,3.65506 1.86766,3.71338 0.46046,2.14589 -0.9432,5.42372 -1.74294,2.45443 -3.64903,0.59195 -5.42362,2.48851 -2.59655,2.88311 -3.74935,-1.27642 -5.38668,-3.28154 -2.40234,-2.58069 -1.56923,-4.32729 2.75051,-3.68739 3.00368,1.36041 3.76982,-1.06923 5.34798,-2.97288 1.05231,-1.74595 5.58504,-1.40508 5.02712,-3.84706 -2.7969,-2.43008 0.0732,-4.09859 -0.42878,-7.64006 -0.47335,-2.382681 -3.11965,-3.009591 -3.65505,-6.409191 -1.02631,-2.973 -5.26593,-1.43762 -6.36686,-3.5371 -0.18185,-3.41129 -4.27,-2.55634 -4.48039,-5.54156 -1.379631,-3.13989 -1.416031,-5.48008 -6.101391,-4.48042 -1.53151,0.5166 -5.01011,0.0655 -3.92053,4.48042 2.79046,1.90015 -1.53801,4.37403 -3.53715,4.59825 0.0623,3.79835 -5.77976,0.96548 -8.17326,0.94364 -3.20784,-0.0437 -5.84436,-0.66295 -7.8744,-1.88651 -0.31782,-1.82764 -7.28286,-3.02662 -3.87827,0.94364 -0.95368,-2.24299 -6.7741,1.92735 -4.59829,-1.54532 0.37527,-3.96807 -4.20114,-3.44044 -5.75769,-0.83223 -2.66614,1.89874 -2.78889,-3.98992 -6.0328,-3.04585 0.59917,-4.08002 -3.6004,-2.24954 -6.24895,-1.8865 0.13248,2.45869 -6.06745,3.97594 -2.00777,0.12887 -2.40919,0.0874 -4.86195,-2.37601 -5.30233,-5.47286 -1.47967,-4.03928 4.07651,-2.75577 4.59828,-6.10589 -1.59686,-2.3427 -2.99635,-5.90471 1.20426,-5.76469 -1.35508,1.2454 -0.84075,4.61485 0.56433,6.3668 3.55809,0.15728 4.87029,-1.23655 6.79263,-3.13758 2.75604,-0.63892 1.88138,-2.19101 5.94109,-2.28602 0.38095,2.13694 3.40342,4.52682 2.10968,6.36691 -3.73796,-0.0764 -3.15934,4.58865 -0.43282,2.80349 5.59157,-0.96001 1.33074,4.05272 4.60991,3.56332 5.52048,0.48383 3.80124,-3.31321 2.64166,-3.61814 -0.74551,-3.35504 0.3543,-3.43259 0.63444,-5.46053 0.92256,-2.52127 3.03191,-3.20497 3.99617,0 1.23281,0.60179 -4.50749,2.71088 -0.9432,5.42372 2.99795,2.07731 4.36268,0.13434 0.97553,3.61803 -0.5699,3.71262 4.26838,2.5381 5.05018,0.86282 -1.06028,-3.14021 5.07193,-4.54824 2.10968,-6.24896 0.39897,-3.52618 3.42959,-3.23097 4.5983,-5.20048 -2.12605,-2.10724 -3.58662,-2.31125 -5.54153,-4.4803 -0.31749,-1.43249 -2.86431,-4.95955 -4.48039,-3.05295 -2.09011,3.40539 -2.5019,-4.00728 -4.48039,-3.65506 -2.05292,-2.30032 -3.48947,-4.75279 -0.9432,-6.02572 0.596,-4.74581 4.06148,0.50022 1.76857,2.48862 2.66092,-0.29052 2.62685,-3.27684 5.20042,-3.65506 1.53687,-3.49101 -4.57248,1.21242 -4.25718,-2.97288 -2.84053,-0.56356 -1.15025,-4.408 -3.65505,-5.16258 z m 94.206011,9.07866 c -1.11894,1.46548 -3.77748,6.9983 -0.9432,5.64685 1.21114,-1.37209 2.8819,-4.89194 0.9432,-5.64685 z m -60.721021,21.69455 c -4.19268,2.0298 1.741641,4.12218 0.943201,0 h -0.602121 z"
       style="fill:#000000;fill-opacity:1;stroke:#d39062;stroke-width:1.44485;stroke-miterlimit:4;stroke-dasharray:none;stroke-opacity:1"
       id="Ancud" />
  </g>
</svg>
