<?xml version="1.0" encoding="UTF-8" standalone="no"?>
<!-- Created with Inkscape (http://www.inkscape.org/) -->

<svg
   width="210mm"
   height="297mm"
   viewBox="0 0 210 297"
   version="1.1"
   id="svg64"
   inkscape:version="1.1.2 (b8e25be833, 2022-02-05)"
   sodipodi:docname="vector.svg"
   xmlns:inkscape="http://www.inkscape.org/namespaces/inkscape"
   xmlns:sodipodi="http://sodipodi.sourceforge.net/DTD/sodipodi-0.dtd"
   xmlns="http://www.w3.org/2000/svg"
   xmlns:svg="http://www.w3.org/2000/svg">
  <sodipodi:namedview
     id="namedview66"
     pagecolor="#ffffff"
     bordercolor="#666666"
     borderopacity="1.0"
     inkscape:pageshadow="2"
     inkscape:pageopacity="0.0"
     inkscape:pagecheckerboard="0"
     inkscape:document-units="mm"
     showgrid="false"
     inkscape:zoom="0.74029882"
     inkscape:cx="361.34057"
     inkscape:cy="561.93525"
     inkscape:window-width="1920"
     inkscape:window-height="1017"
     inkscape:window-x="-8"
     inkscape:window-y="-8"
     inkscape:window-maximized="1"
     inkscape:current-layer="layer1" />
  <defs
     id="defs61" />
  <g
     inkscape:label="Capa 1"
     inkscape:groupmode="layer"
     id="layer1">
    <path
       style="fill:#000000;fill-opacity:1;fill-rule:evenodd;stroke:#d39062;stroke-width:0.434177;stroke-linecap:butt;stroke-linejoin:miter;stroke-miterlimit:4;stroke-dasharray:none;stroke-opacity:1"
       d="m 191.52657,226.85572 c 0.18055,-0.60153 0.37365,-1.2189 0.43418,-1.73669 0.0892,-0.7615 0.0173,-1.39355 -0.29831,-1.70958 -0.63222,-0.63222 -2.17619,-1.68269 -3.66336,-2.76788 -0.74362,-0.5426 -1.473,-1.09126 -2.06236,-1.60104 -0.58936,-0.50978 -1.05848,-0.97725 -1.24825,-1.35679 -0.34551,-0.69128 -0.40656,-1.30082 -0.32559,-1.84528 0.081,-0.54441 0.30524,-1.01968 0.56987,-1.46534 0.26455,-0.44565 0.55502,-0.85334 0.75978,-1.24825 0.20479,-0.39487 0.34247,-0.77467 0.24419,-1.16685 -0.19137,-0.76614 -0.0671,-1.78825 -0.1628,-2.76789 -0.0476,-0.48981 -0.15673,-0.97197 -0.37971,-1.41109 -0.22341,-0.43911 -0.58091,-0.82069 -1.11256,-1.1397 -0.98613,-0.59165 -2.06825,-1.12862 -2.41514,-1.49249 -0.17362,-0.18185 -0.1641,-0.30741 0.13552,-0.40699 0.29961,-0.0996 0.89027,-0.1628 1.87237,-0.1628 1.26544,0 2.49862,0.009 3.6091,-0.19007 0.55529,-0.0991 1.0784,-0.25589 1.57393,-0.48843 0.49554,-0.23251 0.9621,-0.52797 1.38395,-0.94977 0.73349,-0.73353 1.65009,-1.29089 2.38795,-1.84527 0.36889,-0.2771 0.6918,-0.5687 0.92262,-0.86836 0.23077,-0.29962 0.35287,-0.60992 0.35287,-0.97687 0,-1.15118 0.0693,-1.85393 0.21691,-2.27945 0.14765,-0.42561 0.38275,-0.57373 0.70553,-0.59698 0.32299,-0.0217 0.7499,0.0801 1.2754,0.13552 0.52553,0.0558 1.14403,0.0533 1.89952,-0.13552 0.85858,-0.21475 1.32445,-0.46717 1.57393,-0.75982 0.24939,-0.29268 0.2784,-0.61057 0.29831,-0.92265 0.0216,-0.31217 0.0216,-0.6227 0.19008,-0.89547 0.17016,-0.27277 0.52155,-0.5035 1.2211,-0.67842 0.76757,-0.19181 2.22378,-0.54645 3.63625,-0.97687 1.41248,-0.43037 2.76754,-0.94941 3.31061,-1.49248 0.003,-0.003 0.69453,-1.24198 1.08546,-2.63224 0.19527,-0.69509 0.31477,-1.4327 0.24419,-2.06232 -0.0346,-0.31477 -0.12426,-0.59434 -0.27147,-0.84122 -0.14721,-0.24679 -0.33512,-0.45245 -0.62412,-0.59702 -0.62842,-0.31433 -1.2244,-0.74904 -1.81813,-1.1397 -0.59373,-0.39054 -1.19079,-0.7522 -1.87237,-0.92262 -1.38927,-0.34724 -2.10021,-0.59403 -2.4694,-0.89551 -0.36932,-0.30135 -0.40699,-0.64564 -0.40699,-1.1397 0,-0.83018 0.48973,-1.75816 0.84121,-2.6322 0.17579,-0.43699 0.33123,-0.86234 0.35287,-1.24825 0.0217,-0.38577 -0.0866,-0.73765 -0.37971,-1.0312 -0.55013,-0.55013 -1.75851,-1.90528 -2.84929,-3.31057 -0.54541,-0.70267 -1.06354,-1.42179 -1.43819,-2.06236 -0.37452,-0.64058 -0.62417,-1.20652 -0.62417,-1.60104 0,-0.78082 -0.13508,-1.3067 -0.35287,-1.70958 -0.21778,-0.40266 -0.5238,-0.66699 -0.84121,-0.92261 -0.31737,-0.25545 -0.65045,-0.50212 -0.94977,-0.84122 -0.29918,-0.33901 -0.54225,-0.78493 -0.70556,-1.43824 -0.15371,-0.61559 -0.10998,-1.11961 0,-1.57388 0.10997,-0.45427 0.2784,-0.84447 0.32559,-1.24825 0.0472,-0.40396 -0.009,-0.81126 -0.35287,-1.2754 -0.34248,-0.46414 -0.97635,-0.99284 -2.03522,-1.62818 -0.80536,-0.4832 -1.33566,-0.87906 -1.68243,-1.22111 -0.34681,-0.34204 -0.49172,-0.61758 -0.56987,-0.84121 -0.1563,-0.4473 0.0303,-0.70366 -0.19008,-0.81411 -1.30315,-0.65154 -1.86986,-0.98904 -2.3337,-1.41105 -0.46384,-0.42215 -0.82801,-0.90941 -1.76387,-1.84527 -0.5297,-0.52974 -1.82722,-1.66581 -3.25632,-2.65934 -0.71453,-0.49675 -1.45738,-0.96306 -2.17087,-1.30251 -0.71353,-0.33944 -1.39191,-0.54277 -1.95381,-0.54272 -1.23254,0 -2.84782,0.0346 -4.47747,0.16279 -1.62961,0.126 -3.27502,0.33729 -4.53172,0.65128 -1.1678,0.29182 -1.82825,0.50692 -2.27945,0.94976 -0.45116,0.44284 -0.67387,1.12156 -0.97687,2.3337 -0.26064,1.0416 -0.64789,2.0082 -1.0312,2.84929 -0.38318,0.84108 -0.77744,1.55492 -1.03116,2.06236 -0.50973,1.01947 -1.0267,1.67706 -1.41109,2.4151 -0.19224,0.36889 -0.34897,0.75476 -0.46129,1.22111 -0.11213,0.46639 -0.16279,1.00691 -0.16279,1.68247 0,0.66465 0.24939,1.89225 0.32559,3.01208 0.039,0.55996 0.026,1.10771 -0.0814,1.51964 -0.10521,0.41175 -0.29398,0.6976 -0.65127,0.78692 -1.43642,0.35937 -2.91665,0.3611 -4.42317,0.27147 -1.50652,-0.0896 -3.04074,-0.27147 -4.58601,-0.27147 -0.64093,0 -1.24799,0.10521 -1.79098,0.29875 -0.54299,0.19354 -1.0212,0.48181 -1.46534,0.84122 -0.44418,0.35936 -0.84957,0.77722 -1.194,1.27539 -0.34421,0.49813 -0.65166,1.07286 -0.89551,1.68244 -0.50419,1.26054 -0.82702,1.86436 -1.08541,2.06232 -0.12946,0.0992 -0.25199,0.10044 -0.35287,0.026 -0.10088,-0.0732 -0.17665,-0.22384 -0.27147,-0.40699 -0.18921,-0.36629 -0.38145,-0.89737 -0.67838,-1.32969 -0.14851,-0.21605 -0.33425,-0.40353 -0.54273,-0.54268 -0.20826,-0.13942 -0.44215,-0.21692 -0.73267,-0.21692 -0.88958,0 -1.45265,0.16539 -1.79098,0.43418 -0.33814,0.26844 -0.4508,0.64573 -0.48847,1.00401 -0.039,0.3585 0.013,0.70821 0.026,0.97691 0.013,0.26888 -0.0303,0.43418 -0.21692,0.43418 -1.17335,0 -2.28552,-0.20219 -3.36487,-0.40699 -1.07934,-0.20479 -2.11457,-0.40699 -3.17492,-0.40699 -0.95119,0 -1.79604,-0.1918 -2.57794,-0.51558 -0.7819,-0.32343 -1.50258,-0.78463 -2.19801,-1.24825 -0.69544,-0.46362 -1.37057,-0.93682 -2.06236,-1.3568 -0.69176,-0.41998 -1.39992,-0.78419 -2.17087,-0.9769 -0.99215,-0.2481 -1.6494,-0.47047 -2.08951,-0.73267 -0.44007,-0.26238 -0.66746,-0.55975 -0.86832,-0.89552 -0.2009,-0.33555 -0.3494,-0.72531 -0.62412,-1.19395 -0.27451,-0.46869 -0.66873,-1.02146 -1.3297,-1.68243 -0.34074,-0.34075 -0.55892,-0.83057 -0.67842,-1.35684 -0.1195,-0.52623 -0.13552,-1.07234 -0.13552,-1.49249 0,-0.8 -0.14504,-1.14776 -0.46132,-1.68243 -0.31607,-0.53463 -0.81845,-1.25696 -1.60104,-2.82214 -0.30048,-0.60114 -0.97578,-1.3187 -1.43819,-1.98092 -0.23121,-0.33122 -0.40266,-0.65747 -0.46133,-0.94976 -0.0584,-0.29226 0.013,-0.54243 0.27147,-0.75982 0.28793,-0.2442 0.53571,-0.67184 0.59698,-1.43824 0.061,-0.7664 -0.0641,-1.86986 -0.59698,-3.47341 -0.0983,-0.29572 0.0901,-0.63153 0.43414,-0.97691 0.34421,-0.34551 0.84455,-0.69565 1.30254,-1.05831 0.45804,-0.36282 0.89668,-0.73764 1.13971,-1.08545 0.12166,-0.17405 0.18401,-0.35157 0.19007,-0.51558 0.004,-0.16409 -0.0667,-0.31087 -0.21691,-0.46128 -0.5546,-0.5546 -1.23003,-1.25852 -1.84528,-1.98097 -0.6152,-0.72241 -1.15105,-1.46651 -1.41109,-2.11661 -0.63018,-1.57554 -0.79896,-2.26023 -0.86832,-2.87643 -0.0693,-0.61621 -0.0593,-1.15984 -0.37971,-2.44225 -0.31304,-1.25224 -0.39703,-1.66815 -0.62413,-2.17087 -0.22731,-0.50272 -0.58602,-1.09065 -1.41109,-2.74074 -0.32775,-0.65517 -0.70396,-1.50552 -1.16685,-2.27945 -0.46284,-0.77394 -1.02254,-1.47461 -1.70958,-1.81813 -0.44132,-0.22081 -0.46548,-0.0476 -0.56983,-0.21692 -0.10435,-0.16929 -0.27926,-0.66707 -1.05831,-2.22515 -0.239,-0.47796 -0.58593,-0.82962 -0.97691,-1.11256 -0.39097,-0.28273 -0.83303,-0.51324 -1.27539,-0.73267 -0.44237,-0.21952 -0.88222,-0.44531 -1.2754,-0.73267 -0.39314,-0.2875 -0.73349,-0.62577 -0.97691,-1.11261 -0.26887,-0.53761 -0.52532,-1.70615 -0.84122,-2.76788 -0.15803,-0.53087 -0.31736,-1.04952 -0.51558,-1.4382 -0.1983,-0.3888 -0.42084,-0.64118 -0.67842,-0.70556 -0.48401,-0.1208 -2.00031,-0.0801 -3.446263,-0.0814 -1.44594,-0.002 -2.83742,-0.0433 -3.12067,-0.32559 -0.82736,-0.82736 -1.35065,-1.49284 -1.81812,-2.22516 -0.46744,-0.73233 -0.88707,-1.5299 -1.46534,-2.68645 -0.33859,-0.67746 -0.7974,-3.21687 -0.81407,-3.28346 -0.18315,-0.73285 -0.58611,-1.49656 -0.94976,-2.25231 -0.3637,-0.75575 -0.67842,-1.50431 -0.67842,-2.25231 0,-1.36186 -0.0953,-2.16909 -0.29832,-2.84928 -0.20306,-0.6802 -0.50731,-1.23171 -0.92261,-2.06236 -0.0546,-0.10911 -0.65924,-1.7544 -1.3568,-3.36487 -0.34897,-0.80524 -0.71938,-1.60095 -1.05831,-2.19801 -0.33901,-0.59711 -0.653,-1.00406 -0.86836,-1.00406 -0.70388,0 -1.35082,-0.0905 -1.95382,-0.24419 -0.60299,-0.15371 -1.15403,-0.36499 -1.68243,-0.56983 -1.05679,-0.40959 -1.98746,-0.81407 -2.90358,-0.81407 -1.30384,0 -2.31444,-0.0437 -3.25632,-0.21692 -0.94188,-0.17319 -1.83332,-0.4689 -2.90353,-1.00405 -0.57001,-0.2849 -1.18543,-0.4567 -1.81813,-0.54273 -0.6327,-0.0862 -1.28003,-0.0922 -1.92667,-0.10868 -0.64668,-0.0173 -1.28765,-0.0346 -1.89952,-0.10867 -0.61187,-0.0758 -1.18123,-0.22428 -1.70958,-0.48844 -0.80957,-0.40482 -1.57688,-0.68963 -2.4694,-0.89551 -0.89252,-0.20609 -1.93091,-0.32559 -3.28346,-0.32559 -1.40867,0 -2.35072,-0.0866 -3.09353,-0.43418 -0.37148,-0.17362 -0.68638,-0.40223 -0.97691,-0.73267 -0.29052,-0.33036 -0.5745,-0.74202 -0.84121,-1.2754 -0.52667,-1.05337 -1.23362,-2.00218 -1.92663,-2.87643 -0.69305,-0.87421 -1.37762,-1.66975 -1.76387,-2.44225 -0.2784,-0.5571 -0.60291,-1.02319 -0.97691,-1.41105 -0.37409,-0.38794 -0.78766,-0.71855 -1.2211,-1.03116 -0.8669,-0.62525 -1.82493,-1.17369 -2.71364,-2.06236 -0.52974,-0.52974 -1.2999,-1.06987 -2.27941,-1.41109 -0.48978,-0.17059 -1.02601,-0.30611 -1.60103,-0.35287 -0.57503,-0.0468 -1.20301,-0.0216 -1.84528,0.10867 -0.68236,0.13639 -1.36004,0.23814 -2.03517,0.407 -0.74142,0.18531 -1.35212,0.23077 -1.87242,0.19007 -0.52025,-0.039 -0.96435,-0.1576 -1.32965,-0.32559 -0.73063,-0.33642 -1.20166,-0.83148 -1.70958,-1.08546 -1.23647,-0.61823 -1.79903,-1.18317 -2.27945,-1.81812 -0.48038,-0.63491 -0.8817,-1.34303 -1.81808,-2.27941 -0.93677,-0.93678 -1.91412,-1.5719 -2.93073,-2.11662 -1.01661,-0.54476 -2.09076,-1.0047 -3.22917,-1.57388 -1.07,-0.53502 -1.74694,-0.85988 -2.27945,-1.30255 -0.53251,-0.44267 -0.89898,-0.98388 -1.38395,-1.95382 -0.3875,-0.77497 -0.71976,-1.80232 -1.194,-2.63219 -0.23726,-0.41478 -0.50176,-0.79554 -0.84121,-1.05831 -0.33945,-0.26281 -0.75272,-0.40699 -1.24825,-0.40699 -0.59806,0 -1.04528,-0.0866 -1.41109,-0.21692 -0.36586,-0.13075 -0.65781,-0.30221 -0.89547,-0.48843 -0.47536,-0.37278 -0.79645,-0.8029 -1.38394,-0.94976 -0.25199,-0.0632 -0.38015,-0.26238 -0.46133,-0.54273 -0.0814,-0.28056 -0.10998,-0.63438 -0.13552,-0.97691 -0.026,-0.34247 -0.0507,-0.67361 -0.13552,-0.92261 -0.0853,-0.24896 -0.22861,-0.40699 -0.48848,-0.40699 -0.71349,0 -1.43022,0 -2.14371,0 0.0303,0.0433 0.11127,0.1234 0.13552,0.1628 0.15024,0.24419 0.17751,0.43989 0.0814,0.62412 -0.1918,0.36846 -0.83706,0.72847 -1.76387,1.65529 -0.3217,0.32169 -0.7525,0.46734 -1.24825,0.51562 -0.49575,0.0485 -1.03991,0.002 -1.57389,-0.026 -0.53398,-0.0303 -1.05588,-0.0346 -1.49249,0.0541 -0.4366,0.0909 -0.80047,0.29832 -1.00405,0.70557 -0.63119,1.26241 -1.17092,2.67558 -1.62814003,4.50457 -0.32733,1.30869 -0.55035,1.99209 -0.62413,2.57794 -0.074,0.58585 0.004,1.07485 0.21692,1.92667 0.16107,0.64426 0.365,1.13659 0.62413003,1.54674 0.20566,0.32559 0.44323,0.54883 0.70552,0.75982 0.41522,-0.16669 0.9269,-0.31434 1.2211,-0.46133 0.3282,-0.1641 0.34248,-0.49428 0.3256,-0.84122 -0.0173,-0.3468 -0.0598,-0.72695 0.16279,-0.94976 0.18185,-0.18184 0.758,0.10824 1.30255,0.46133 0.5445,0.3533 1.05289,0.78151 1.11256,0.84122 0.27796,0.27796 0.52064,0.40179 0.75981,0.46133 0.239,0.0593 0.45813,0.0615 0.65128,0.0541 0.1931,-0.009 0.37581,-0.026 0.51558,0.0541 0.13985,0.0784 0.24679,0.22731 0.32559,0.54268 0.22644,0.90543 0.59979,1.25951 0.81407,2.11662 0.10608,0.42344 0.34897,0.84883 0.62412,1.22114 0.27494,0.37236 0.56832,0.68405 0.81412,0.86837 0.27104,0.20306 0.89295,0.22298 1.51959,0.21691 0.62668,-0.004 1.25929,-0.0346 1.54678,0.10868 0.42518,0.21259 0.68258,0.49224 0.86837,0.84122 0.18574,0.34897 0.31217,0.75964 0.43413,1.24825 0.0654,0.26194 -0.0602,0.71911 -0.13552,1.22114 -0.0753,0.50199 -0.10088,1.04692 0.13552,1.5196 0.15717,0.52636 0.15111,0.87472 0.0814,1.1126 -0.0697,0.2377 -0.2009,0.36845 -0.27147,0.46128 -0.14072,0.18531 -0.0762,0.21389 1.1397,0.67842 0.25373,0 0.59941,0.23987 0.81412,0.32559 0.15457,0.75515 0.30654,1.52427 0.46128,2.27941 0.068,0.30655 0.14894,0.61603 0.21692,0.92266 0.0537,0.2416 -0.0641,0.8433 -0.1628,1.51959 -0.0987,0.67635 -0.17925,1.42655 -0.0541,1.92668 0.15371,0.61511 0.53264,1.05259 1.00406,1.32969 0.47142,0.2771 1.02817,0.37971 1.57389,0.37971 1.24634,0 2.54988,-0.0615 3.66339,0.21692 0.29529,0.074 0.53061,0.25155 0.73267,0.48843 0.2022,0.23727 0.38578,0.53035 0.51558,0.84126 0.25935,0.62179 0.39314,1.30142 0.48844,1.68243 0.19656,0.78628 0.55082,1.26895 0.9769,1.65529 0.42605,0.38621 0.91513,0.69803 1.38395,1.16685 -0.0719,0.35893 -0.14505,0.69929 -0.21692,1.05831 -0.13292,0.66404 -0.052,1.18599 0,1.68243 0.052,0.49644 0.0736,0.96518 -0.21692,1.54678 -0.26541,0.53113 -0.50913,0.86867 -0.65127,1.24825 -0.14201,0.37972 -0.18791,0.82278 0,1.57389 0.16713,0.66924 0.26671,1.16529 0.46133,1.57389 0.1944,0.40872 0.4954,0.72262 1.05831,1.00405 0.6675,0.33382 1.09281,0.34335 1.35679,0.51558 0.26411,0.17232 0.35287,0.49575 0.35287,1.41109 0,0.51229 -0.12469,0.91526 -0.19007,1.3025 -0.0654,0.38708 -0.0719,0.77887 0.19007,1.30255 0.37798,0.75605 0.51294,1.18621 0.40699,1.60103 -0.10607,0.41479 -0.43037,0.81039 -1.03116,1.41109 -0.3126,0.31261 -0.50501,0.93193 -0.59702,1.5196 -0.0918,0.58767 -0.0883,1.13823 -0.0541,1.27539 0.17232,0.6892 0.26541,0.94414 0.1628,1.13975 -0.10262,0.1957 -0.40829,0.31953 -1.03116,0.78692 -0.22342,0.16756 -0.21865,0.93808 -0.1628,1.76384 0.0558,0.8258 0.1628,1.70949 0.1628,2.11665 0,0.48004 0.16712,0.89499 0.35287,1.3025 0.18574,0.40743 0.39703,0.80043 0.51558,1.2754 0.12729,0.50982 -0.0831,0.83866 -0.13552,1.16685 -0.026,0.1641 -0.026,0.3217 0.0814,0.51558 0.1091,0.19397 0.34074,0.43211 0.70556,0.70557 0.26844,0.20133 0.54637,0.84646 0.81407,1.51959 0.26758,0.67314 0.50961,1.37204 0.67842,1.70958 0.39097,0.78186 1.12862,1.76717 1.73668,2.57795 0.20004,0.2667 0.407,0.79177 0.407,2.17086 0,0.70487 0.4418,1.74006 0.65127,2.57794 0.21562,0.86196 0.34767,1.39061 0.29831,1.79098 -0.0494,0.4005 -0.28316,0.66695 -0.73267,1.00406 0.14375,0.28706 0.29053,0.58113 0.43418,0.86836 0.42691,0.85386 0.60538,1.96005 0.86837,3.01208 0.15587,0.62326 0.239,0.99994 0.48843,1.22115 0.24939,0.22124 0.65279,0.27147 1.43824,0.27147 0.31477,0 0.79233,0.11387 1.2754,0.29832 0.48306,0.18487 0.99141,0.44868 1.32964,0.78696 0.43375,0.43375 0.77718,2.21317 0.86837,2.57794 0.0589,0.23597 -0.19094,0.63088 -0.35287,1.13971 -0.081,0.25458 -0.14115,0.52554 -0.13552,0.84121 0.004,0.31564 0.0853,0.68596 0.27147,1.05831 0.2416,0.48354 0.60607,0.87564 0.92266,1.30255 0.3165,0.4269 0.56983,0.88304 0.56983,1.49248 0,1.16772 -0.0684,1.21834 0.21692,2.36081 0.0987,0.39574 0.38101,0.78156 0.67842,1.1126 0.29745,0.33123 0.62213,0.62214 0.84121,0.84122 0.47194,0.47194 0.88391,0.72263 1.2754,1.03116 0.3914,0.30871 0.75371,0.66621 1.08545,1.32969 0.37279,0.7454 0.6789,1.0025 1.08542,1.16685 0.40655,0.1641 0.90798,0.22212 1.70957,0.54273 0.18618,0.0745 0.2784,0.22688 0.3256,0.40699 0.0472,0.18012 0.0433,0.39141 0.026,0.62413 -0.0303,0.4654 -0.0983,0.99773 0.0814,1.35679 0.23467,0.46973 0.78918,0.82776 1.3568,1.13971 0.56767,0.31174 1.14317,0.56567 1.43824,0.78696 0.55805,0.41869 1.24223,0.66487 1.95377,0.86837 0.71159,0.20349 1.455,0.37582 2.14376,0.65127 0.0433,0.0173 -0.30654,0.22861 -0.48843,0.51558 -0.0909,0.14375 -0.13898,0.29052 -0.0814,0.46129 0.0576,0.17102 0.22774,0.34464 0.56988,0.51562 1.45508,0.72752 2.14319,0.86806 3.4463,1.51959 0.21432,0.10738 1.23284,1.36264 2.36081,1.92667 0.4819,0.24073 0.75263,0.52069 0.92266,0.86836 0.17016,0.34768 0.24939,0.77991 0.37971,1.30255 0.13552,0.54186 0.55641,0.903 1.03116,1.24825 0.4748,0.34508 0.99458,0.66573 1.32969,1.11256 0.11734,0.1563 -0.19397,0.22731 -0.13552,0.48847 0.0585,0.26108 0.50104,0.70219 2.08947,1.65529 0.51381,0.30827 0.97795,0.4673 1.41109,0.70552 0.43314,0.23814 0.82806,0.57066 1.16685,1.2483 0.13206,0.26368 0.14072,0.58321 0.21692,0.94976 0.0762,0.36672 0.22688,0.7696 0.65127,1.19395 0.39314,0.39314 0.88504,0.72497 1.08546,0.94981 0.10001,0.11257 0.11993,0.21172 0.026,0.27147 -0.0927,0.0598 -0.29659,0.0814 -0.67838,0.0814 -0.29442,0 -0.32386,0.0974 -0.19007,0.24419 0.13378,0.14678 0.42214,0.34465 0.78692,0.56988 0.7296,0.4502 1.72694,0.97634 2.19801,1.32965 0.0546,0.039 -0.14028,0.91057 -0.27147,1.62818 0.1169,0.56922 0.23813,1.13711 0.35287,1.70958 0.2797,1.39775 0.48523,2.54382 0.78692,3.50055 0.30178,0.95669 0.67976,1.73803 1.32969,2.38796 0.42258,0.42258 0.92582,0.73116 1.4382,0.97691 0.51242,0.24549 1.03878,0.43544 1.54678,0.56983 1.01596,0.26887 1.92892,0.38101 2.36081,0.59702 1.33415,0.66703 2.3702,0.73168 3.14782,1.00401 0.3888,0.13639 0.7008,0.31954 0.97686,0.65128 0.27624,0.33208 0.49744,0.82281 0.67842,1.54678 0.28749,1.14962 0.71323,1.79561 1.16685,2.14372 0.45362,0.3481 0.94955,0.3992 1.41109,0.27147 0.46155,-0.12816 0.88278,-0.42691 1.194,-0.70552 0.31131,-0.27884 0.51294,-0.54754 0.51558,-0.65128 0.0433,-1.66364 0.31217,-2.92505 0.73267,-3.85334 0.21043,-0.46414 0.45259,-0.82606 0.73267,-1.1397 0.28014,-0.31391 0.58923,-0.57438 0.92262,-0.75982 0.66677,-0.37106 1.41728,-0.49696 2.19801,-0.48848 0.78077,0.009 1.59848,0.16973 2.36085,0.37972 1.20452,0.33165 2.07419,0.38837 2.71364,0.29831 0.63941,-0.09 1.032023,-0.33901 1.275403,-0.59697 0.16106,-0.17059 0.19526,-0.30914 0.24419,-0.46133 0.0173,-0.10175 0.004,-0.23294 0.026,-0.3256 0.0433,-0.16669 0.0978,-0.0909 0.0814,0.0814 -0.004,0.0584 -0.0836,0.16626 -0.10868,0.2442 -0.0615,0.32342 -0.14071,0.64729 -0.13552,1.03116 0.004,0.50445 0.0944,1.05843 0.29832,1.57393 0.20393,0.51545 0.53497,1.01734 1.03116,1.43819 0.49618,0.42085 1.1526,0.75627 2.03521,0.97691 0.71432,0.17838 1.44712,0.17102 2.17087,0.0541 0.72375,-0.11647 1.4504,-0.352 2.17091,-0.59698 0.7205,-0.24506 1.43914,-0.49951 2.14376,-0.70552 0.70461,-0.20609 1.38628,-0.35287 2.06232,-0.35287 2.67029,0 5.33487,0 8.00517,0 0.92439,0 1.66368,0.0481 2.2523,0.1628 0.58858,0.11473 1.04333,0.29008 1.4382,0.51558 0.78969,0.45085 1.33103,1.11398 2.19801,1.98096 0.71622,0.71617 1.33757,1.18395 1.87242,1.51959 0.5348,0.33555 0.97466,0.53706 1.32965,0.73272 0.35503,0.1957 0.61022,0.38231 0.78696,0.67837 0.17665,0.29615 0.27147,0.71942 0.27147,1.3568 0,0.50354 0.23467,0.90599 0.59698,1.24829 0.3624,0.34205 0.8533,0.60941 1.35684,0.89547 0.5035,0.28619 1.0419,0.58784 1.46534,0.92261 0.42345,0.33469 0.74623,0.70553 0.86837,1.194 0.23986,0.96024 0.80549,1.72461 1.43819,2.4694 0.6327,0.74479 1.3303,1.46664 1.76383,2.33371 0.37582,0.75198 0.67574,1.21525 0.94981,1.51963 0.27407,0.30438 0.50315,0.46735 0.70552,0.59698 0.2022,0.12946 0.38188,0.23337 0.54273,0.46133 0.16106,0.22774 0.31173,0.56814 0.46128,1.16685 0.11474,0.45895 0.3611,0.83485 0.67842,1.16685 0.31737,0.33209 0.71799,0.62655 1.13971,0.89547 0.84346,0.53788 1.80033,1.01341 2.46939,1.68243 0.40786,0.34594 0.72635,0.70903 0.97691,1.1126 0.25069,0.40353 0.41089,0.85399 0.54273,1.30255 0.26368,0.89702 0.33425,1.8477 0.35287,2.84928 0.0173,1.00159 0.002,2.03357 0.0814,3.03923 0.0792,1.00566 0.25891,1.99434 0.70552,2.90358 0.33512,0.67032 0.78658,1.17244 1.30255,1.60103 0.51592,0.42864 1.08376,0.79792 1.70958,1.13971 0.62581,0.34161 1.28895,0.67556 1.95377,1.08545 0.66482,0.41003 1.34801,0.88668 1.98092,1.5196 1.20487,1.20486 1.57852,2.05084 2.06236,2.71363 0.24203,0.33122 0.50407,0.61703 0.92262,0.86832 0.41868,0.25112 0.985,0.47016 1.81812,0.67842 0.79087,0.19787 1.44365,0.47241 2.00807,0.75982 0.56442,0.28749 1.03731,0.61114 1.51964,0.89547 0.48233,0.28446 0.97504,0.54415 1.51963,0.73271 0.54455,0.18877 1.14832,0.29832 1.89953,0.29832 1.14884,0 2.1813,0.1879 3.14777,0.48843 0.96647,0.30048 1.86679,0.71206 2.76789,1.1126 0.90109,0.4005 1.78803,0.78502 2.74074,1.08541 0.95274,0.30048 1.97221,0.51562 3.09352,0.51562 0.72639,0 1.39524,-0.24765 2.03521,-0.65127 0.63998,-0.40353 1.24912,-0.95682 1.79098,-1.54678 1.08372,-1.17989 1.95694,-2.52677 2.57794,-3.14778 0.48575,-0.48574 0.84668,-0.96543 1.13971,-1.46534 0.29312,-0.49995 0.50475,-1.02111 0.67838,-1.57388 0.34724,-1.10559 0.53142,-2.3586 0.84121,-3.90764 0.26152,-1.30834 0.61529,-2.54802 1.05831,-3.7719 0.44306,-1.22387 0.99176,-2.41761 1.62818,-3.6905 0.0944,-0.18921 0.23986,-0.31044 0.43418,-0.35287 0.1944,-0.0433 0.43492,-0.0173 0.70552,0.0541 0.0896,0.0217 0.22861,0.10089 0.3256,0.13552 z"
       id="Longavi"
       inkscape:label="#path2836" />
  </g>
</svg>
