<?xml version="1.0" encoding="UTF-8" standalone="no"?>
<!-- Created with Inkscape (http://www.inkscape.org/) -->

<svg
   width="210mm"
   height="297mm"
   viewBox="0 0 210 297"
   version="1.1"
   id="svg1283"
   inkscape:version="1.1.2 (b8e25be833, 2022-02-05)"
   sodipodi:docname="vector.svg"
   xmlns:inkscape="http://www.inkscape.org/namespaces/inkscape"
   xmlns:sodipodi="http://sodipodi.sourceforge.net/DTD/sodipodi-0.dtd"
   xmlns="http://www.w3.org/2000/svg"
   xmlns:svg="http://www.w3.org/2000/svg">
  <sodipodi:namedview
     id="namedview1285"
     pagecolor="#ffffff"
     bordercolor="#666666"
     borderopacity="1.0"
     inkscape:pageshadow="2"
     inkscape:pageopacity="0.0"
     inkscape:pagecheckerboard="0"
     inkscape:document-units="mm"
     showgrid="false"
     inkscape:zoom="0.52347032"
     inkscape:cx="155.69173"
     inkscape:cy="611.30496"
     inkscape:window-width="1920"
     inkscape:window-height="1017"
     inkscape:window-x="-8"
     inkscape:window-y="-8"
     inkscape:window-maximized="1"
     inkscape:current-layer="layer1" />
  <defs
     id="defs1280" />
  <g
     inkscape:label="Capa 1"
     inkscape:groupmode="layer"
     id="layer1">
    <path
       d="m 117.19456,63.94558 c -0.73275,1.28279 -3.00863,3.0953 -4.35816,4.61724 -2.36637,1.44775 -3.61363,4.27106 -5.67925,5.42021 -1.76348,1.72707 -4.26556,0.37889 -5.42021,-0.80302 -2.132825,-2.5406 -4.014225,-2.57361 -5.704455,-4.19882 -2.77305,-0.60899 -5.86352,-1.04848 -7.3442,-2.46793 -2.58,-0.46812 -4.00034,2.76654 -5.38645,2.81877 -2.15852,0.1783 -1.77088,4.16198 -3.14534,5.1949 1.6999,2.68277 1.62416,2.83227 0.80302,5.96415 1.59721,4.08285 -3.8207,2.16588 -4.61724,4.23196 -2.09195,2.46755 -2.33837,4.32443 -4.25038,6.58892 -2.82516,2.11949 -2.7718,4.27699 -4.28145,6.56011 -1.04898,2.06718 -0.81946,4.45424 -3.42865,6.54026 -1.35953,2.84438 -3.14669,0.76484 -5.80574,1.89115 -0.84137,-0.002 -5.5634,-1.42871 -6.12282,1.606 -1.37248,1.3851 -2.50098,3.01414 -3.65551,4.61719 -1.05348,1.44894 -3.4794,1.95394 -4.0733,2.3086 -2.71515,2.63605 -4.4095,-3.70148 -6.89207,-0.0336 -1.45667,-1.7261 -4.11005,-0.24096 -4.65096,-0.76921 -2.52356,-0.0492 -2.65582,-3.76779 -5.0018,-4.19887 -1.21904,-2.19552 -2.83021,-2.87974 -5.9906,-2.72697 -1.56399,1.98842 -1.22699,4.72691 2.04287,3.11162 1.95292,0.76257 1.93623,3.49479 2.72638,5.42017 -1.89607,2.92142 1.4375,5.08902 0.80294,8.03949 -0.40538,2.53551 1.13531,7.01755 -1.50558,7.31776 -3.16448,-3.43176 -3.90034,1.59174 -5.16113,3.11162 -1.93981,1.71512 -5.52438,-1.00121 -6.3819,1.08783 -1.59683,2.51154 1.63308,2.85157 3.01124,4.0733 0.31455,2.53812 2.34493,3.3601 2.3086,6.24901 1.12879,1.62707 1.40225,5.95932 -0.35828,7.46805 -2.48753,-1.31151 -6.133,0.50294 -1.95045,1.74057 1.8057,1.0261 2.67756,4.39898 2.3086,7.07776 -0.52325,2.87298 -2.35431,4.43091 -5.31984,3.92133 -1.56865,0.5023 -6.7094296,1.53022 -2.30859,3.81421 -1.90886,1.73943 -4.6088296,1.4383 -3.9146396,4.6172 3.1491296,-0.045 2.0744496,4.58902 3.1116196,6.24901 -0.0168,2.2464 -2.9253696,4.33915 -2.3085996,5.29402 0.0442,2.42205 -6.5017,2.2824 -4.0733,4.71757 0.93771,3.37701 -3.81102,2.27508 -3.65551,4.9021 -3.4e-4,2.42121 -2.70973,5.25116 -0.25904,7.34353 1.3462,1.66382 1.92534,3.04084 4.84251,3.88083 3.73183,0.93922 4.6576396,-1.12821 7.0857496,-1.57219 1.9991,0.98182 4.01683,1.94506 7.33685,1.60596 2.05053,2.18227 3.88886,-1.06168 6.07055,1.18762 2.74858,0.41042 2.02239,4.7547 3.17057,6.54119 0.8031,2.1358 3.1961,2.68168 5.80545,3.01124 2.78126,-1.59427 2.58395,2.12235 3.68802,3.65551 -0.60546,3.13323 1.05041,6.10566 2.14994,7.98785 0.95419,1.23758 -3.81872,5.44662 -0.80302,3.81426 1.87542,-1.45242 2.29825,-3.29357 4.07329,-4.61724 1.56774,-1.31828 2.9284,-2.84358 4.74336,-3.91459 2.12314,0.84923 3.23243,2.71234 6.50809,2.40897 3.40539,0.40875 3.39479,-2.0522 6.51478,-3.11157 -1.08195,-3.94239 1.44182,-5.30419 4.64301,-3.9146 3.11389,0.76934 3.39273,-2.35384 4.59142,-3.81421 2.14451,-1.58005 1.81112,-3.75312 3.11157,-5.42022 -0.72787,-3.48541 0.99945,-4.51568 2.3086,-5.96411 1.39969,-1.55415 0.7867,-4.53645 4.22359,-4.43145 0.83822,-2.15103 4.67931,-2.14775 4.20787,-4.96168 1.51436,-0.45765 3.31308,-4.01258 4.61719,-0.80298 0.85857,1.8554 3.3868,-2.26499 3.9146,-3.11162 1.84783,-0.4275 0.89238,-6.68803 3.01119,-3.27028 1.0304,2.86204 4.218635,0.94629 4.458545,-1.34691 0.47657,-1.86454 2.64602,-3.50258 4.07325,-4.6172 1.5026,-2.0327 4.40976,-1.21538 5.96416,-0.80302 1.23001,1.05609 2.75787,5.11509 0.15853,5.42022 0.31203,1.04792 3.30716,4.81811 4.6172,2.30859 3.08668,-0.961 4.3899,-1.04994 6.58134,-1.09624 0.72544,-0.31665 7.06688,-1.47606 7.11162,1.09624 2.90384,1.77152 4.55261,-0.0921 6.66671,-0.7026 2.41958,-1.24544 2.92243,-2.78403 4.33238,-1.34691 2.11045,-1.84574 1.82042,-4.33213 5.28733,-2.56768 0.49823,2.30359 4.57031,1.03342 5.55306,2.85253 0.71618,-0.069 4.11325,-2.67398 5.31984,-0.54393 2.72058,2.81872 -2.06478,2.24459 -2.3086,4.45853 -3.63289,0.64495 1.78745,1.45537 1.60596,3.27028 2.84353,-0.74264 3.48205,3.84609 5.31983,1.50562 0.83763,2.55317 3.97629,2.54228 7.02621,2.3086 2.72205,-1.49011 1.14133,-4.54231 3.0112,-6.92584 2.12012,-0.82775 1.90099,-3.95118 3.65552,-4.61719 1.73707,-1.21046 4.66694,-1.22804 7.33689,-1.50562 2.85287,-0.23676 3.44727,3.51274 6.35544,2.72701 2.06453,0.27586 4.4328,-3.79912 5.03557,-2.02437 2.51604,0.41841 1.42034,3.45223 3.81422,4.71757 2.65401,-0.2481 4.39941,-3.25829 6.99244,-1.53934 4.01089,3.36123 2.30708,-3.03643 4.39188,-3.88087 1.14137,-2.58396 -1.97155,-3.45514 -4.35811,-3.9146 -2.24397,-1.57913 -3.6588,-2.29543 -4.45854,-4.61719 -2.10679,-2.36293 -3.04349,-3.6884 -6.9191,-3.0112 -1.39772,-1.01458 -4.58906,-1.55234 -5.4269,-3.11162 -0.93574,-2.82083 -5.04327,-2.32638 -7.90661,-2.3086 -2.28909,1.04583 -5.83993,0.83002 -9.20188,0.80298 -4.13373,1.15512 -4.15635,-2.30738 -6.62122,-3.49622 -0.48691,-3.1649 -0.94275,-4.04348 -3.07785,-6.18943 -2.68134,-1.81562 -0.50344,-3.75837 -4.29217,-4.26635 -1.98619,-1.05634 -3.80552,-1.92055 -5.29402,-3.81422 -0.12658,1.67563 -2.1639,5.34789 -3.11162,2.56768 -3.76342,-0.90828 2.2922,-2.5517 -1.91491,-3.72885 -3.09273,-0.69487 -6.67567,0.004 -8.95125,-1.14743 -1.8549,-1.2557 3.66115,-1.70864 0.82875,-4.61719 1.09848,-1.2634 -1.96167,-4.44617 -0.80297,-7.46305 1.83517,-2.08089 -1.84565,-2.91893 0,-5.97084 -0.92178,-2.72907 0.63687,-3.78852 -1.24654,-5.83795 -1.05226,-2.52361 -1.96895,-3.01431 -1.06206,-6.09031 0.86866,-2.71474 3.24723,-4.81871 2.3086,-8.29853 -1.81988,-0.56022 -2.94257,-2.75952 -4.22355,-4.53856 -4.318,-1.73299 -4.02561,0.80529 -4.20791,3.46977 0.96652,3.55097 -4.41417,0.41295 -3.11153,3.11162 -1.85856,1.37215 -3.47053,2.32798 -3.11162,5.42021 -2.416,-0.86992 -1.04065,-4.07531 -1.89022,-5.00184 -1.56378,-2.81831 -0.0126,-4.64285 0.38477,-7.47036 0.2111,-2.92932 -2.95586,-5.13187 -0.25904,-6.79964 0.8031,-1.95456 2.56003,-1.91024 4.87632,-3.11162 2.44796,-0.50445 2.58361,-3.93478 4.61719,-5.42017 3.71237,-0.81412 -1.28976,-3.56649 0,-6.53387 -0.26955,-3.0109 4.65113,-1.67992 5.42018,-4.75012 0.38393,-2.20141 3.64336,-4.94633 1.15478,-6.83311 -3.03937,-0.86383 -1.80549,-4.04756 -3.04497,-6.15658 -2.30359,-2.08947 -5.44153,-2.16453 -8.71025,-1.92399 -2.89043,0 -5.7809,0 -8.67136,0 z"
       style="fill:#000000;fill-opacity:1;stroke:#d39062;stroke-width:0.556311;stroke-miterlimit:4;stroke-dasharray:none;stroke-opacity:1"
       id="Mariquina" />
  </g>
</svg>
