<?xml version="1.0" encoding="UTF-8" standalone="no"?>
<!-- Created with Inkscape (http://www.inkscape.org/) -->

<svg
   width="210mm"
   height="297mm"
   viewBox="0 0 210 297"
   version="1.1"
   id="svg64"
   inkscape:version="1.1.2 (b8e25be833, 2022-02-05)"
   sodipodi:docname="vector.svg"
   xmlns:inkscape="http://www.inkscape.org/namespaces/inkscape"
   xmlns:sodipodi="http://sodipodi.sourceforge.net/DTD/sodipodi-0.dtd"
   xmlns="http://www.w3.org/2000/svg"
   xmlns:svg="http://www.w3.org/2000/svg">
  <sodipodi:namedview
     id="namedview66"
     pagecolor="#ffffff"
     bordercolor="#666666"
     borderopacity="1.0"
     inkscape:pageshadow="2"
     inkscape:pageopacity="0.0"
     inkscape:pagecheckerboard="0"
     inkscape:document-units="mm"
     showgrid="false"
     inkscape:zoom="0.74029882"
     inkscape:cx="361.34057"
     inkscape:cy="345.8063"
     inkscape:window-width="1920"
     inkscape:window-height="1017"
     inkscape:window-x="-8"
     inkscape:window-y="-8"
     inkscape:window-maximized="1"
     inkscape:current-layer="layer1" />
  <defs
     id="defs61" />
  <g
     inkscape:label="Capa 1"
     inkscape:groupmode="layer"
     id="layer1">
    <path
       id="Coquimbo"
       style="fill:#000000;fill-opacity:1;fill-rule:evenodd;stroke:#d38d5f;stroke-width:1.80545;stroke-linecap:butt;stroke-linejoin:miter;stroke-miterlimit:4;stroke-opacity:1"
       d="m 205.6567,97.842153 -15.75585,11.168297 h -11.0727 l -6.78652,8.57243 2.50029,2.85749 -0.35716,9.64397 10.00117,11.07273 v 22.14544 l -10.71555,1.07155 -2.50029,25.00293 -6.40226,-1.79193 -0.69088,3.79982 -18.65367,5.52701 -0.34542,8.9814 h -3.10895 c 2.18757,4.37589 2.46657,11.61458 6.56333,13.12665 v 11.05404 l -6.21789,0.34542 c -11.47616,-5.54398 -7.92017,12.29544 -11.74491,18.65367 l -9.67229,8.29054 c -1.87216,11.45577 -2.22551,28.57258 -13.81753,3.79982 -7.973646,5.37654 -20.473946,20.45334 -23.489826,-3.79982 l -8.98139,1.38175 0.69088,-23.14439 L 46.08245,234.9101 C 40.280365,231.0847 36.056858,224.10215 27.774215,225.23783 L 25.96876,210.05206 c -7.977954,-1.49449 -14.031775,-6.49585 -23.9877154,-4.40996 -3.375053,0.70713 2.194423,-11.69697 3.11768,-17.71323 0.923277,-6.01626 4.022199,-14.73057 6.8865184,-19.36514 4.865146,-7.87198 5.423645,-8.13138 8.486981,-3.94202 1.80353,2.46645 3.27913,6.48365 3.27913,8.92708 0,2.44343 2.115432,6.55805 4.700974,9.1436 3.821968,3.82198 6.36523,4.32563 13.601427,2.6936 14.428762,-3.25422 25.053639,-5.1026 25.890329,-16.32073 l 4.40795,-10.02009 c 3.88108,-22.85786 1.72345,-8.67695 7.096,-22.2193 -2.27108,-13.54236 7.5508,-7.10812 9.17986,-2.86288 1.62907,4.24524 13.451276,2.74744 17.495476,-1.29677 4.04418,-4.0442 4.85463,-24.99899 5.63786,-26.26627 -4.60415,-5.353 1.77677,-13.300567 -0.93385,-17.674987 -6.62484,-2.550033 -2.00251,-23.244992 -9.57564,-25.089233 -16.034006,-3.90466 -1.840806,-18.976726 0.4922,-15.999527 3.99993,5.104484 8.89835,-8.478731 8.77123,-6.793388 -0.83085,11.01594 18.42516,3.484765 1.43698,-5.458569 l 15.12884,-12.387294 c -3.84163,2.374251 -5.15644,9.342805 -1.05101,9.342805 2.26948,0 15.64887,-0.02525 15.64887,-3.721748 l 13.50255,1.160076 16.29006,13.937355 -2e-5,3.988271 h 16.52289 l 8.54633,9.685829 -1.70926,29.057508 13.10437,-6.267302 1.13951,8.546317 z"
       sodipodi:nodetypes="cccccccccccccccccccccccccccssssssscccssccsssccscccccccccc" />
  </g>
</svg>
