<?xml version="1.0" encoding="UTF-8" standalone="no"?>
<!-- Created with Inkscape (http://www.inkscape.org/) -->

<svg
   width="210mm"
   height="297mm"
   viewBox="0 0 210 297"
   version="1.1"
   id="svg1283"
   inkscape:version="1.1.2 (b8e25be833, 2022-02-05)"
   sodipodi:docname="vector.svg"
   xmlns:inkscape="http://www.inkscape.org/namespaces/inkscape"
   xmlns:sodipodi="http://sodipodi.sourceforge.net/DTD/sodipodi-0.dtd"
   xmlns="http://www.w3.org/2000/svg"
   xmlns:svg="http://www.w3.org/2000/svg">
  <sodipodi:namedview
     id="namedview1285"
     pagecolor="#ffffff"
     bordercolor="#666666"
     borderopacity="1.0"
     inkscape:pageshadow="2"
     inkscape:pageopacity="0.0"
     inkscape:pagecheckerboard="0"
     inkscape:document-units="mm"
     showgrid="false"
     inkscape:zoom="0.52347032"
     inkscape:cx="155.69173"
     inkscape:cy="611.30496"
     inkscape:window-width="1920"
     inkscape:window-height="1017"
     inkscape:window-x="-8"
     inkscape:window-y="-8"
     inkscape:window-maximized="1"
     inkscape:current-layer="layer1" />
  <defs
     id="defs1280" />
  <g
     inkscape:label="Capa 1"
     inkscape:groupmode="layer"
     id="layer1">
    <path
       d="m 209.82112,152.32739 c -0.52262,-0.7069 -1.28136,-2.05949 -2.34865,-3.46706 -0.59294,-0.78199 -1.23541,-1.52943 -1.94603,-2.08024 -0.3553,-0.27541 -0.74044,-0.49099 -1.1184,-0.64867 -0.37796,-0.15769 -0.76703,-0.24605 -1.16315,-0.24605 -1.54547,1e-5 -2.73654,0.10881 -3.86968,0.29077 -1.13314,0.18199 -2.20797,0.42371 -3.4447,0.67104 -0.40352,0.0807 -0.79436,0.31743 -1.1855,0.62631 -0.39115,0.30891 -0.76983,0.70852 -1.14078,1.11841 -0.74189,0.81978 -1.44367,1.70907 -2.05787,2.16971 -1.04533,0.78399 -1.76867,1.12962 -2.41575,1.4763 -0.64709,0.34668 -1.21323,0.69875 -1.9684,1.45392 -0.90509,0.9051 -1.518,1.11522 -1.90129,1.61051 -0.19163,0.24764 -0.31546,0.57134 -0.40263,1.07367 -0.0872,0.50233 -0.13422,1.19695 -0.13422,2.19207 0,0.19486 -0.32076,0.41562 -0.80525,0.64868 -0.48449,0.23306 -1.13165,0.463 -1.81182,0.69341 -1.36036,0.46084 -2.83302,0.89086 -3.24338,1.09604 -0.31635,0.15817 -0.64827,0.23409 -0.9842,0.26841 -0.33591,0.0343 -0.66143,0.0201 -1.00656,-0.0447 -0.69026,-0.12937 -1.39302,-0.42891 -2.05787,-0.80525 -1.3297,-0.7527 -2.53529,-1.80081 -3.26575,-2.34866 -1.11703,-0.83777 -1.53885,-1.30622 -2.14734,-1.45393 -0.60848,-0.1477 -1.40785,0.0163 -3.22101,0.46973 -0.65552,0.16387 -1.38421,0.25441 -2.1697,0.29078 -0.7855,0.0364 -1.61069,0.0343 -2.41576,0.0222 -1.61014,-0.0239 -3.15678,-0.0776 -4.18284,0.17894 -2.81679,0.7042 -4.10635,0.91073 -6.82228,1.45393 -1.22722,0.24543 -2.49934,0.3868 -3.80258,0.44736 -1.30325,0.0605 -2.64173,0.0447 -4.0039,0.0447 -1.78729,0 -3.17419,-0.16012 -4.51836,-0.425 -1.34417,-0.26487 -2.63625,-0.6255 -4.24994,-1.02894 -0.81184,-0.20296 -1.42718,-0.55316 -1.92366,-0.93946 -0.49648,-0.3863 -0.88355,-0.81135 -1.29735,-1.1855 -0.4138,-0.37416 -0.84539,-0.68348 -1.40919,-0.84999 -0.56381,-0.1665 -1.26795,-0.19188 -2.21445,0.0447 -1.20881,0.30221 -2.33178,0.67164 -3.5118,0.96182 -1.18002,0.29018 -2.41674,0.4921 -3.80258,0.4921 -1.55413,0 -2.83459,0.0507 -4.00389,-0.11183 -0.58466,-0.0813 -1.13313,-0.21166 -1.67761,-0.425 -0.54449,-0.21333 -1.0912,-0.51083 -1.63288,-0.91709 -0.46212,-0.34658 -0.78026,-0.42755 -1.0513,-0.40262 -0.27105,0.025 -0.48672,0.1606 -0.73815,0.24605 -0.25142,0.0854 -0.53618,0.12036 -0.93946,-0.0447 -0.40327,-0.16507 -0.92865,-0.52603 -1.65524,-1.25261 -0.23766,-0.23767 -0.52482,-0.33827 -0.84999,-0.33553 -0.32516,0.003 -0.68715,0.10005 -1.09604,0.24606 -0.81778,0.29201 -1.80021,0.76879 -2.93022,1.05129 -0.38417,0.0961 -0.86203,-0.003 -1.38683,-0.22369 -0.52479,-0.22089 -1.09447,-0.55566 -1.6776,-0.9171 -1.166278,-0.72286 -2.359778,-1.56295 -3.265748,-1.78944 -0.265192,0.0663 -0.512379,0.0802 -0.738153,0.0222 -0.225774,-0.0579 -0.431258,-0.17978 -0.626305,-0.33553 -0.39009,-0.3115 -0.731941,-0.79602 -1.051304,-1.34208 -0.319369,-0.54606 -0.621265,-1.15126 -0.939459,-1.72235 -0.318192,-0.57109 -0.642338,-1.11207 -1.028934,-1.49866 -0.230593,-0.23059 -0.682591,-0.41706 -1.252618,-0.60394 -0.570023,-0.18688 -1.263246,-0.35765 -1.96839,-0.53684 -0.705148,-0.17919 -1.421936,-0.37409 -2.057871,-0.58158 -0.635936,-0.2075 -1.203369,-0.44398 -1.565769,-0.71578 -0.606012,-0.45451 -1.224109,-0.83095 -1.856554,-1.14077 -0.632441,-0.30984 -1.272012,-0.5522 -1.901289,-0.71578 -0.629279,-0.16359 -1.260015,-0.25264 -1.856557,-0.26841 -0.596545,-0.016 -1.16575,0.0454 -1.699978,0.17894 -0.495975,0.124 -0.985096,-0.001 -1.476294,-0.26841 -0.491198,-0.26727 -0.989138,-0.65992 -1.476298,-1.11841 -0.487156,-0.45849 -0.970073,-0.98195 -1.453928,-1.43156 -0.483849,-0.44961 -0.950265,-0.83302 -1.431559,-1.07367 -1.17867,-0.58934 -2.138302,-1.0476 -2.930227,-1.61051 -0.395962,-0.28144 -0.750964,-0.58877 -1.073669,-0.96182 -0.322698,-0.37306 -0.607295,-0.81197 -0.872359,-1.34209 -0.0797,-0.15943 -0.586534,-0.29074 -1.319715,-0.42499 -0.733188,-0.13426 -1.690629,-0.26145 -2.684173,-0.40263 -0.993555,-0.14116 -2.024694,-0.28959 -2.885491,-0.46973 -0.860801,-0.18016 -1.566369,-0.39748 -1.901296,-0.64868 -0.706857,-0.53016 -1.54715,-1.39745 -2.281548,-2.19208 -0.734395,-0.79462 -1.353778,-1.50742 -1.610504,-1.69997 -0.230246,-0.1727 -1.390114,-0.112 -2.706543,-0.22369 -0.658204,-0.0559 -1.35334,-0.16865 -1.990763,-0.3579 -0.637426,-0.18924 -1.2335,-0.47299 -1.655239,-0.89472 -0.393231,-0.39323 -0.874747,-0.64009 -1.431563,-0.80526 -0.556819,-0.16514 -1.180285,-0.2448 -1.834184,-0.26841 -1.307797,-0.0472 -2.751541,0.11183 -4.048631,0.11183 -0.78416,0 -1.442059,-0.19544 -2.035502,-0.46973 -0.593439,-0.27431 -1.108064,-0.64084 -1.610507,-1.00657 -0.502437,-0.36573 -0.987495,-0.73227 -1.49866,-1.00656 -0.511169,-0.27431 -1.058005,-0.44737 -1.677613,-0.44737 -0.526279,0 -1.039028,0.25479 -1.588138,0.58158 -0.549102,0.32675 -1.125823,0.72076 -1.744713,1.00656 -0.309456,0.14289 -0.626132,0.27181 -0.961829,0.33553 -0.335697,0.0637 -0.705848,0.0615 -1.07367,0 -0.367817,-0.0615 -0.734959,-0.19239 -1.140774,-0.425 -0.405814,-0.2326 -0.84767,-0.55688 -1.297349,-1.00657 -0.338713,-0.33871 -0.718317,-0.59938 -1.118408,-0.80525 -0.400091,-0.20588 -0.803361,-0.35104 -1.230245,-0.46973 -0.853762,-0.23739 -1.729474,-0.35172 -2.482862,-0.51446 -0.376697,-0.0814 -0.729217,-0.18193 -1.028938,-0.31317 -0.299715,-0.13124 -0.549988,-0.28769 -0.738149,-0.51447 -0.188155,-0.22678 -0.315879,-0.52671 -0.357887,-0.89472 -0.04201,-0.36801 -0.004,-0.80955 0.134209,-1.36446 0.05825,-0.23309 0.0034,-0.41753 -0.134209,-0.5592 -0.138075,-0.14168 -0.345307,-0.24526 -0.626306,-0.31317 -0.562006,-0.13575 -1.356515,-0.14299 -2.169713,-0.0895 -1.626395,0.10701 -3.33298,0.45299 -3.399951,0.46973 -0.731108,0.18279 -1.383571,0.29185 -1.968399,0.33553 -0.584828,0.0437 -1.097754,0.0198 -1.565767,-0.067 -0.4679989,-0.0865 -0.8943199,-0.23791 -1.2749689,-0.44698 -0.38065,-0.20906 -0.728566,-0.48251 -1.051304,-0.80525 -0.112211,-0.11221 -0.222973,-0.13156 -0.335521,-0.11183 -0.11254,0.0198 -0.22168,0.0859 -0.33552,0.2013 -0.2276668,0.23087 -0.4547463,0.6102 -0.6934099,1.00656 -0.2386625,0.39638 -0.4807558,0.80157 -0.7381482,1.07367 -0.2573921,0.27213 -0.54374,0.41036 -0.8276186,0.26842 -1.4398184,-0.7199 -2.1752219,-1.02103 -2.9973311,-1.20788 0.026103,0.25305 0.089471,0.45891 0.089471,0.73815 0,1.34 0.3500433,2.81233 0.7157823,4.071 0.365739,1.25867 0.7381548,2.29886 0.7381479,2.75128 0,0.77113 -0.1260563,1.33127 -0.3131544,1.76708 -0.1870947,0.43581 -0.4441907,0.74492 -0.7157757,1.02894 -0.271591,0.28401 -0.5517726,0.53422 -0.8052527,0.84998 -0.2534819,0.31577 -0.4711869,0.69921 -0.60393936,1.23025 -0.267282,1.06912 -0.4550683,1.36044 -0.6486779,1.85655 0.5978598,0.23333 1.24858436,0.47763 2.01313146,0.89473 0.9694839,0.5289 1.9742379,1.19935 2.7289138,1.96839 0.3773348,0.38452 0.6946781,0.7973 0.9170889,1.23025 0.2224184,0.43296 0.3578943,0.8908 0.3578943,1.36446 6.9e-6,0.99641 0.1157087,1.58613 0.3131509,1.96839 0.1974422,0.38226 0.4786413,0.5627 0.7828863,0.73815 0.304245,0.17544 0.64141,0.33979 0.961827,0.71578 0.320424,0.37599 0.626393,0.96217 0.872357,1.94603 0.278417,1.11366 0.76954,2.12564 1.3197219,3.0868 0.550182,0.96117 1.141405,1.85781 1.588139,2.75128 0.295576,0.59115 0.656865,0.99574 1.051298,1.31972 0.394439,0.32398 0.835852,0.58142 1.252617,0.87235 0.416765,0.29095 0.822961,0.62642 1.185513,1.11841 0.362545,0.492 0.68529,1.13069 0.917089,2.05787 0.200399,0.80158 0.465214,1.30069 0.827625,1.58813 0.362404,0.28745 0.815352,0.37543 1.342088,0.3579 1.053478,-0.0351 2.435741,-0.49211 4.160472,-0.49211 0.416335,0 0.86064,0.14276 1.342087,0.3579 0.481446,0.21513 1.005788,0.50921 1.565768,0.82762 0.559977,0.3184 1.159892,0.6744 1.811818,0.9842 0.651927,0.3098 1.345309,0.57119 2.1026,0.76051 2.516269,0.62907 4.81646,0.85183 7.314378,1.4763 1.070123,0.26754 2.335199,0.78611 3.556535,1.40919 1.221339,0.62308 2.394137,1.33706 3.265747,1.99077 1.010169,0.75762 1.943389,1.59736 2.885487,2.37102 0.942101,0.77365 1.901733,1.49888 2.974962,2.03549 0.548388,0.2742 1.089015,0.43562 1.610504,0.55921 0.521488,0.12358 1.030608,0.20608 1.521033,0.26841 0.980846,0.12469 1.897285,0.21049 2.728915,0.62631 0.647101,0.32356 1.28615,0.58506 1.946028,0.78288 0.659879,0.19784 1.329564,0.32301 2.013129,0.42499 1.36712,0.20397 2.789705,0.24606 4.317047,0.24606 1.145332,0 2.20985,0.002 3.243377,-0.0671 1.033527,-0.069 2.049188,-0.19063 3.109175,-0.40263 0.975282,0.65019 1.932553,1.29583 2.907853,1.94603 0.32658,0.21773 0.732828,0.20913 1.185513,0.0671 0.452682,-0.14206 0.952192,-0.41753 1.476298,-0.71579 0.524099,-0.29825 1.069658,-0.62144 1.610504,-0.87235 0.540842,-0.25091 1.08524,-0.425 1.588134,-0.425 0.176931,0 0.776766,0.72245 1.699982,1.45393 0.461604,0.36574 0.995156,0.73227 1.610504,1.00656 0.615341,0.27431 1.310678,0.44737 2.057864,0.44737 2.989851,-1e-5 5.414157,0.4921 8.298577,0.4921 0.549175,0 1.386009,-0.47418 2.460496,-0.96183 0.537237,-0.24384 1.118665,-0.48818 1.767079,-0.67105 0.648419,-0.18285 1.356449,-0.31316 2.102599,-0.31316 0.27871,0 0.57887,-0.13027 0.9171,-0.31317 0.338228,-0.18285 0.713458,-0.42722 1.140768,-0.67104 0.42732,-0.24383 0.90799,-0.48818 1.45393,-0.67104 0.54595,-0.18286 1.16243,-0.29081 1.85655,-0.29081 0.61096,0 1.24173,0.26048 1.9013,0.67105 0.65957,0.41056 1.33973,0.97113 2.01313,1.5434 0.6734,0.57227 1.33834,1.14773 1.99076,1.63288 0.65243,0.48514 1.30463,0.87977 1.90129,1.02893 0.46139,0.11533 0.98812,0.0842 1.56577,0 0.57765,-0.0842 1.18887,-0.22002 1.85656,-0.35789 0.66768,-0.13786 1.37111,-0.26744 2.1026,-0.31316 0.73149,-0.0458 1.49013,-0.0132 2.25918,0.17894 1.71371,0.42842 3.10698,0.76081 4.47362,1.1855 1.36666,0.4247 2.7197,0.94605 4.31706,1.74472 0.66512,0.33257 2.70785,0.7016 4.71967,0.9842 2.01183,0.28259 3.98781,0.46973 4.54073,0.46973 0.42084,0 0.8095,-0.10791 1.20788,-0.29077 0.39837,-0.18286 0.80765,-0.42722 1.27499,-0.67105 0.46732,-0.24383 0.98277,-0.48817 1.6105,-0.67104 0.62772,-0.18286 1.35727,-0.31317 2.23681,-0.31317 0.91084,0 1.53901,-0.0799 1.99077,-0.22369 0.45175,-0.14382 0.74531,-0.34259 0.96182,-0.60394 0.43302,-0.52271 0.61887,-1.26754 1.45393,-2.10261 0.18834,-0.18833 0.68384,-0.27784 1.36446,-0.31316 0.68062,-0.0353 1.5341,-0.0246 2.39339,0.0222 1.71857,0.0941 3.47483,0.29077 4.02626,0.29077 1.57992,0 2.74955,0.12226 3.66837,-0.0671 0.45941,-0.0947 0.87257,-0.26447 1.23025,-0.55921 0.35768,-0.29472 0.66354,-0.72313 0.96183,-1.31972 0.11329,-0.22657 0.27933,-0.40062 0.4921,-0.53683 0.21277,-0.1362 0.47208,-0.22938 0.76052,-0.29077 0.57687,-0.12282 1.27652,-0.12774 2.01313,-0.0448 1.47321,0.16605 3.0799,0.63019 4.04863,0.87236 0.9726,0.24314 1.68566,0.33871 2.23681,0.33552 0.55115,-0.003 0.93253,-0.11581 1.25261,-0.31316 0.64018,-0.39466 1.02068,-1.11015 1.87893,-1.9684 0.7467,-0.7467 1.15888,-1.61484 1.78945,-2.28155 0.31528,-0.33334 0.6943,-0.60191 1.18551,-0.80525 0.4912,-0.20335 1.09754,-0.33552 1.90129,-0.33552 0.50327,0 1.57414,-0.24828 2.77365,-0.4921 1.1995,-0.24383 2.51839,-0.46973 3.55653,-0.46973 0.91351,0 1.53021,-0.13027 1.96839,-0.31316 0.43818,-0.18286 0.70849,-0.42722 0.96184,-0.67105 0.25333,-0.24383 0.49097,-0.48817 0.84998,-0.67104 0.35902,-0.18286 0.83296,-0.31313 1.58814,-0.31313 2.83771,0 4.15141,-0.46973 6.82228,-0.46973 0.4848,0 0.89907,-0.19541 1.25261,-0.49211 0.35355,-0.29669 0.65751,-0.70634 0.9171,-1.16314 0.51918,-0.91359 0.88539,-2.01684 1.25261,-2.75128 0.24145,-0.48289 0.56272,-0.77929 0.93947,-0.9842 0.37675,-0.2049 0.80597,-0.30793 1.23024,-0.42499 0.42427,-0.11706 0.84626,-0.25035 1.23025,-0.46973 0.38399,-0.21936 0.72828,-0.53947 0.9842,-1.0513 0.35829,-0.71658 0.72538,-1.17857 1.09603,-1.52103 0.37066,-0.34249 0.74778,-0.55172 1.09604,-0.78289 0.34826,-0.23118 0.6707,-0.46732 0.96183,-0.84999 0.18893,-0.24834 0.33449,-0.7095 0.4921,-1.1184 z"
       style="fill:#000000;fill-opacity:1;fill-rule:evenodd;stroke:#d39062;stroke-width:0.35789;stroke-linecap:butt;stroke-linejoin:miter;stroke-miterlimit:4;stroke-dasharray:none;stroke-opacity:1"
       id="Pemuco"
       inkscape:connector-curvature="0" />
  </g>
</svg>
