<?xml version="1.0" encoding="UTF-8" standalone="no"?>
<!-- Created with Inkscape (http://www.inkscape.org/) -->

<svg
   width="210mm"
   height="297mm"
   viewBox="0 0 210 297"
   version="1.1"
   id="svg57"
   inkscape:version="1.1.2 (b8e25be833, 2022-02-05)"
   sodipodi:docname="vector.svg"
   xmlns:inkscape="http://www.inkscape.org/namespaces/inkscape"
   xmlns:sodipodi="http://sodipodi.sourceforge.net/DTD/sodipodi-0.dtd"
   xmlns="http://www.w3.org/2000/svg"
   xmlns:svg="http://www.w3.org/2000/svg">
  <sodipodi:namedview
     id="namedview59"
     pagecolor="#ffffff"
     bordercolor="#666666"
     borderopacity="1.0"
     inkscape:pageshadow="2"
     inkscape:pageopacity="0.0"
     inkscape:pagecheckerboard="0"
     inkscape:document-units="mm"
     showgrid="false"
     inkscape:zoom="0.74029882"
     inkscape:cx="361.34057"
     inkscape:cy="453.87078"
     inkscape:window-width="1920"
     inkscape:window-height="1017"
     inkscape:window-x="-8"
     inkscape:window-y="-8"
     inkscape:window-maximized="1"
     inkscape:current-layer="layer1" />
  <defs
     id="defs54" />
  <g
     inkscape:label="Capa 1"
     inkscape:groupmode="layer"
     id="layer1">
    <path
       inkscape:connector-curvature="0"
       id="Tucapel"
       style="fill:#000000;fill-opacity:1;fill-rule:evenodd;stroke:#d39062;stroke-width:0.50768;stroke-linecap:butt;stroke-linejoin:miter;stroke-miterlimit:4;stroke-dasharray:none;stroke-opacity:1"
       d="m 64.476905,216.1761 c 0.22554,-0.37188 0.37188,-0.79465 0.63461,-1.1423 0.70265,-0.92982 1.51576,-1.78825 2.44322,-2.57015 0.92741,-0.7819 1.95342,-1.48591 3.04605,-2.15761 1.09263,-0.67171 2.26026,-1.30464 3.45858,-1.9038 1.36161,-0.68078 2.52714,-0.99696 3.58552,-1.11057 1.05833,-0.11382 2.0043,-0.0367 2.88743,0 0.88309,0.0367 1.70249,0.042 2.53837,-0.1904 0.83588,-0.23132 1.68528,-0.70165 2.60188,-1.61825 0.20614,-0.20614 1.19056,-0.24233 2.57016,-0.1904 1.37954,0.0524 3.16894,0.20823 5.01331,0.3808 3.68874,0.34513 7.588135,0.79328 8.884435,0.79328 1.352,0 2.45685,-0.16417 3.39511,-0.44427 0.93821,-0.28009 1.70244,-0.69126 2.34802,-1.20576 0.64558,-0.51456 1.17587,-1.13669 1.64993,-1.84034 0.47417,-0.70364 0.90894,-1.46886 1.3327,-2.31628 0.10438,-0.20824 0.36874,-0.38133 0.79324,-0.47574 0.42486,-0.0949 0.99496,-0.12169 1.64993,-0.12693 1.30999,-0.0105 3.00508,0.14214 4.69608,0.3488 3.38195,0.41385 6.77912,1.06022 7.36133,1.20577 1.37808,0.34461 2.47585,0.53192 3.39512,0.57115 0.91933,0.0367 1.67957,-0.0656 2.34802,-0.31733 0.6685,-0.25177 1.24663,-0.64579 1.87212,-1.17399 0.62544,-0.52824 1.3038,-1.17692 2.09415,-1.96726 0.36192,-0.36192 1.28848,-0.56675 2.53841,-0.63462 1.24994,-0.0677 2.79717,-0.0262 4.37875,0.0635 3.16313,0.18096 6.46467,0.57115 7.6152,0.57115 0.96869,0 1.86404,-0.21139 2.7605,-0.44427 0.89646,-0.23289 1.76963,-0.51193 2.72882,-0.69809 0.95914,-0.1862 1.98442,-0.26645 3.14125,-0.12693 1.15683,0.13952 2.44505,0.52452 3.93453,1.26918 1.0513,0.52562 2.171,0.89389 3.33165,1.17398 1.16066,0.2801 2.38285,0.46053 3.6172,0.57115 2.46876,0.22135 5.0343,0.1904 7.58352,0.1904 1.1379,0 2.23677,-0.1028 3.26819,-0.28533 1.03141,-0.18254 1.98483,-0.45371 2.88743,-0.79324 0.90259,-0.33989 1.75515,-0.7659 2.50668,-1.23745 0.75148,-0.47154 1.42088,-0.97671 1.999,-1.55478 0.71681,-0.71686 1.59135,-1.13921 2.53837,-1.36438 0.94702,-0.22502 1.94739,-0.2801 2.9509,-0.22188 2.00708,0.11645 3.98101,0.60289 5.17198,0.60289 0.28954,0 0.57383,-0.15264 0.85675,-0.41227 0.28272,-0.25964 0.55584,-0.62817 0.82497,-1.07884 0.53821,-0.90128 1.0503,-2.10967 1.49132,-3.36338 0.88193,-2.50737 1.49409,-5.18321 1.64993,-5.8066 0.50669,-2.02769 1.00692,-3.87039 1.36443,-5.87007 0.35773,-1.99968 0.5711,-4.16338 0.5711,-6.72677 0,-1.80099 -0.021,-2.93715 -0.12693,-3.74413 -0.10596,-0.80697 -0.29111,-1.27228 -0.66635,-1.68167 -0.75085,-0.81882 -2.20608,-1.44458 -5.01337,-4.25186 -0.50039,-0.5004 -0.74839,-0.97514 -0.82497,-1.45959 -0.0766,-0.48465 0.0157,-0.968 0.25387,-1.42785 0.47469,-0.91964 1.46745,-1.79905 2.53837,-2.5701 1.07096,-0.77109 2.22748,-1.44363 3.01436,-1.999 0.39339,-0.27747 0.69929,-0.51875 0.8567,-0.72981 0.15736,-0.21139 0.15683,-0.37136 -0.0315,-0.50774 -0.71801,-0.51875 -1.2257,-1.29761 -1.55473,-2.25282 -0.32887,-0.95515 -0.48308,-2.09708 -0.50774,-3.33165 -0.0262,-1.23456 0.0897,-2.57765 0.28534,-3.93453 0.19565,-1.35688 0.49305,-2.73931 0.82497,-4.06142 0.17519,-0.69829 0.0551,-3.10028 -0.15841,-5.7114 -0.21348,-2.61116 -0.53558,-5.43844 -0.82501,-6.88543 -0.15736,-0.78594 -0.0157,-1.9144 0.28586,-3.20472 0.3016,-1.29037 0.77131,-2.72913 1.26918,-4.12493 0.9958,-2.79162 2.1113,-5.39913 2.31629,-6.21908 1.1884,-4.75364 1.79674,-8.10715 2.91916,-12.59683 0.14949,-0.59807 0.12799,-1.18691 0,-1.77688 -0.12798,-0.589957 -0.35667,-1.172677 -0.69803,-1.745147 -0.68303,-1.14494 -1.73721,-2.24963 -2.88743,-3.2682 -2.3005,-2.03712 -5.01164,-3.74239 -6.09221,-4.82296 -0.22554,-0.2256 -0.34093,-0.5219 -0.3488,-0.85671 -0.0105,-0.33481 0.0703,-0.69911 0.22187,-1.11056 0.30422,-0.822895 0.88759,-1.763303 1.49127,-2.697049 0.60372,-0.933746 1.23409,-1.849864 1.68171,-2.633592 0.44742,-0.783728 0.70354,-1.43578 0.53942,-1.80861 -0.16208,-0.36879 -0.75557,-0.471806 -1.61825,-0.412483 -0.86268,0.05927 -1.97881,0.275898 -3.26818,0.539412 -1.28938,0.263519 -2.74592,0.581253 -4.18835,0.824982 -1.44249,0.243745 -2.89819,0.412483 -4.22009,0.412483 -0.58216,0 -1.16307,0 -1.74518,0 0.73428,1.304729 1.46457,2.279094 1.77686,3.109547 0.18359,0.487751 0.22607,0.999694 0.12694,1.61823 -0.0991,0.61854 -0.34042,1.34751 -0.82497,2.31629 -0.2397,0.47926 -1.27511,1.82046 -2.25281,3.14128 -0.97776,1.32081 -1.90386,2.64635 -1.9038,3.10954 0,1.48415 -0.5283,2.98217 -1.0471,4.410467 -0.51875,1.42832 -1.0471,2.76747 -1.0471,3.87107 0,0.68791 0.84421,2.9394 1.52305,5.10854 0.33936,1.08456 0.65869,2.15218 0.79323,2.98262 0.13428,0.83043 0.0981,1.42649 -0.22187,1.5865 -0.61165,0.3058 -1.15867,0.51131 -1.61825,0.60287 -0.45948,0.0916 -0.82361,0.0724 -1.17404,0 -0.70081,-0.14471 -1.25586,-0.5483 -1.77686,-1.04709 -0.52085,-0.49877 -1.02969,-1.0725 -1.7134,-1.52304 -0.68377,-0.45051 -1.53968,-0.79325 -2.72882,-0.79325 -1.66226,0 -3.5498,-0.13932 -5.20372,-0.0315 -0.82696,0.0538 -1.57073,0.19344 -2.22108,0.41248 -0.65035,0.21904 -1.19732,0.53877 -1.55479,1.01536 -0.35982,0.47994 -0.79218,0.9625 -1.30091,1.39612 -0.50879,0.43362 -1.09882,0.81727 -1.77692,1.11055 -0.67805,0.29326 -1.44836,0.48052 -2.31628,0.53942 -0.86793,0.0589 -1.84091,-0.0163 -2.91917,-0.28555 -1.04338,-0.26085 -3.03592,-0.72975 -5.07678,-0.98364 -1.02046,-0.12693 -2.06326,-0.18935 -2.98264,-0.15866 -0.91938,0.0309 -1.73165,0.1519 -2.31628,0.44421 -1.57461,0.78732 -2.69761,0.9782 -3.64898,1.39612 -0.47574,0.20897 -0.91571,0.49552 -1.33265,0.92018 -0.417,0.42465 -0.81458,0.99459 -1.23745,1.84032 -0.23813,0.47679 -0.65455,1.02822 -1.20577,1.52305 -0.55122,0.49463 -1.24112,0.93134 -1.96727,1.20577 -0.72609,0.27433 -1.48979,0.37503 -2.25281,0.1904 -0.76302,-0.18463 -1.52751,-0.64059 -2.18935,-1.52305 -0.53842,-0.71786 -2.09719,-3.49026 -3.87107,-5.90177 -0.88696,-1.20575 -1.81075,-2.31402 -2.69708,-3.04608 -0.44322,-0.36601 -0.89662,-0.65778 -1.30092,-0.79325 -0.40441,-0.13548 -0.77084,-0.13811 -1.11057,0.0315 -1.15289,0.57645 -2.461,1.16987 -3.77586,1.49131 -0.65744,0.16072 -1.32185,0.25912 -1.96727,0.25382 -0.64542,-0.005 -1.27364,-0.10968 -1.87207,-0.34902 -1.65481,-0.66192 -3.65522,-2.05018 -5.8066,-3.26819 -1.07568,-0.60901 -2.18573,-1.17112 -3.29991,-1.5865 -1.11419,-0.41537 -2.23604,-0.66634 -3.33165,-0.66634 -2.01102,0 -4.43803,-0.27479 -6.790235,-0.31728 -1.17608,-0.021 -2.34733,0.0131 -3.42685,0.15867 -1.07951,0.14566 -2.08916,0.39412 -2.9509,0.82498 -0.97535,0.4877 -1.93296,1.55517 -2.9509,2.57013 -0.50878,0.50747 -1.01301,1.02247 -1.55473,1.42785 -0.54178,0.40541 -1.1241,0.70938 -1.71345,0.85671 -1.05146,0.26289 -1.7743,0.50685 -2.28455,0.79325 -0.51036,0.28639 -0.78563,0.61469 -1.01537,1.01536 -0.45948,0.80134 -0.62161,1.90952 -1.52305,3.71242 -0.23184,0.46341 -0.37451,1.11709 -0.44427,1.8403 -0.0698,0.72326 -0.0629,1.5369 -0.0949,2.3798 -0.0315,0.84286 -0.1028,1.71608 -0.22187,2.53837 -0.11959,0.82229 -0.3037,1.59134 -0.63462,2.25287 -0.8408,1.68156 -1.24725,2.57933 -1.93553,3.29991 -0.68828,0.72054 -1.64532,1.25098 -3.58552,2.22109 -0.97471,0.48728 -2.14597,1.14686 -3.26818,1.87206 -1.12216,0.72526 -2.22035,1.52232 -2.98263,2.28455 -0.60074,0.60079 -1.22014,0.98421 -1.87207,1.26924 -0.65188,0.28481 -1.3316,0.47416 -2.06242,0.63461 -0.73086,0.16051 -1.51041,0.31157 -2.34801,0.53937 -0.83766,0.22764 -1.72489,0.52929 -2.69709,1.01537 -0.5413,0.27065 -2.43933,0.0682 -4.28355,-0.0949 -0.9221,-0.0818 -1.80886,-0.15211 -2.53842,-0.15841 -0.7295,-0.005 -1.29986,0.0624 -1.49131,0.25387 -1.10826,1.10831 -1.97981,1.65213 -2.91917,2.15767 -0.93931,0.50564 -1.93973,0.97886 -3.29992,1.999 -0.92331,0.69247 -1.68066,1.07448 -2.37975,1.26918 -0.69902,0.1946 -1.32771,0.18201 -1.96726,0.0949 -1.2791,-0.17309 -2.60288,-0.66635 -4.63257,-0.66635 -1.24327,0 -2.14833,0.11749 -2.8557,0.31733 -0.70737,0.19932 -1.23267,0.46368 -1.68172,0.7615 -0.44899,0.29793 -0.83257,0.62492 -1.30091,0.92017 -0.4684,0.2953 -1.0117,0.5702 -1.77687,0.7615 -0.59827,0.14949 -1.12845,0.21558 -1.61825,0.1904 -0.4899,-0.0262 -0.92945,-0.15946 -1.42785,-0.41227 -0.99675,-0.50617 -2.13716,-1.5026 -3.87107,-3.23645 -0.73254,-0.7326 -2.43005,-2.37419 -4.12488,-3.87107 -1.69483,-1.49693 -3.39936,-2.84883 -4.1884,-3.0461 -1.12877,-0.28219 -2.71634,-0.46892 -4.44217,-0.57115 -1.72588,-0.10228 -3.58326,-0.12694 -5.23545,-0.12694 -1.47642,0 -2.24542,0.15893 -2.60188004,0.41228 -0.17834,0.12693 -0.25649,0.2654 -0.25387,0.44427 0.003,0.17886 0.0724,0.38027 0.1904,0.60283 0.23604004,0.44532 0.65025004,0.98069 0.95190004,1.55478 0.3016,0.57409 0.50931,1.19974 0.34881,1.84033 -0.33832,1.35306 -0.86667,2.90501 -1.30092004,4.37875 -0.30002,1.01778 -0.40755,1.84002 -0.53941,2.69709 1.66157004,0.33255 3.34382004,0.70291 4.60088004,1.20571 0.95909,0.38343 1.71282,0.77645 2.34802,1.17404 0.63514,0.39759 1.14786,0.79617 1.6182,1.23745 0.94072,0.88256 1.7145,1.90485 2.9509,3.1413 0.60356,0.60351 0.84563,1.19853 0.88843,1.8086 0.042,0.61002 -0.11015,1.21038 -0.31734,1.87207 -0.20718,0.66168 -0.48832,1.36747 -0.63461,2.12593 -0.14634,0.7584 -0.16156,1.57461 0.0635,2.4749 0.17152,0.68539 0.58416,1.3242 1.14231,1.93553 0.55814,0.61138 1.24626,1.21327 1.93553,1.80865 0.68927,0.59539 1.40257,1.20283 1.96727,1.84034 0.56469,0.6375 0.98956,1.29304 1.17398,2.03073 0.15578,0.62255 0.63073,1.25528 1.30097,1.84033 0.67018,0.58505 1.51964,1.12253 2.44321,1.6182 1.8471,0.9914 3.94246,1.73926 5.23545,2.06247 0.0724,0.0157 4.7808,8.93741 5.55274,9.7094 0.91145,0.91146 1.599,2.01584 2.15766,3.20472 0.55867,1.18887 0.98831,2.46194 1.30092,3.71245 0.14529,0.58195 0.53999,1.17482 1.0471,1.77686 0.50721,0.60205 1.12379,1.21962 1.7134,1.74514 1.17923,1.05108 2.22811,1.83335 2.06247,1.999 -0.3892,0.38919 -0.64642,0.78148 -0.82497,1.1423 -0.17834,0.36087 -0.25387,0.70663 -0.25387,1.0471 -2.6e-4,0.68083 0.30632,1.31901 0.82502,1.96721 1.03761,1.29651 2.85292,2.59916 4.41043,4.15667 1.57157,1.57157 2.48172,2.99654 3.58552,4.18835 0.5519,0.59591 1.15416,1.12929 1.9038,1.58652 0.74959,0.45738 1.66682,0.85297 2.82397,1.14225 3.61793,0.90448 7.41934,1.84694 11.07378,2.76055 0.0262,0.005 0.0671,0.0262 0.0949,0.0315 z" />
  </g>
</svg>
