<?xml version="1.0" encoding="UTF-8" standalone="no"?>
<!-- Created with Inkscape (http://www.inkscape.org/) -->

<svg
   width="210mm"
   height="297mm"
   viewBox="0 0 210 297"
   version="1.1"
   id="svg1283"
   inkscape:version="1.1.2 (b8e25be833, 2022-02-05)"
   sodipodi:docname="vector.svg"
   xmlns:inkscape="http://www.inkscape.org/namespaces/inkscape"
   xmlns:sodipodi="http://sodipodi.sourceforge.net/DTD/sodipodi-0.dtd"
   xmlns="http://www.w3.org/2000/svg"
   xmlns:svg="http://www.w3.org/2000/svg">
  <sodipodi:namedview
     id="namedview1285"
     pagecolor="#ffffff"
     bordercolor="#666666"
     borderopacity="1.0"
     inkscape:pageshadow="2"
     inkscape:pageopacity="0.0"
     inkscape:pagecheckerboard="0"
     inkscape:document-units="mm"
     showgrid="false"
     inkscape:zoom="0.74029882"
     inkscape:cx="361.34057"
     inkscape:cy="561.93525"
     inkscape:window-width="1920"
     inkscape:window-height="1017"
     inkscape:window-x="-8"
     inkscape:window-y="-8"
     inkscape:window-maximized="1"
     inkscape:current-layer="layer1" />
  <defs
     id="defs1280" />
  <g
     inkscape:label="Capa 1"
     inkscape:groupmode="layer"
     id="layer1">
    <path
       d="m 94.672102,92.12224 c -0.6265,1.49911 -3.91861,1.89683 -5.76737,2.83606 -2.81383,0.14356 -4.1919,1.0187 -7.04263,1.97286 -3.25192,0.1941 -3.77262,0.6443 -5.19302,0.48007 -1.32822,1.06005 -2.41198,2.36541 -4.80906,2.35691 -0.52187,1.83034 -1.26881,5.2295 -3.28717,5.67224 0.26047,2.62429 -4.29561,2.36576 -4.23464,0.0345 -1.02043,1.37714 -3.28545,0.25381 -2.35693,-1.01411 1.45696,-1.82345 -3.45452,-2.0551 -2.32882,-4.65767 -0.24646,-2.66448 -5.5706,0.81083 -5.67217,-2.86409 -2.91175,1.75086 -2.86287,-0.13437 -4.78097,-0.98654 -1.0736,-3.18693 -2.76518,1.74408 -2.86419,3.41042 2.22108,2.36633 -0.86504,2.70479 -2.83607,3.72751 -1.56386,0.59606 -1.89239,3.4776 -3.79448,4.20643 -2.41614,-0.28712 -4.61926,4.20402 -6.56348,2.35703 -2.58054,-1.78141 -2.4789,2.20715 -3.82256,2.93127 -1.14504,1.3938 -3.35498,1.72307 -5.26013,2.3568 0.48443,-1.40516 -4.0251,-4.01647 -1.426624,-4.80892 -0.149188,-3.21667 -3.480108,-0.98999 -3.794482,0.95783 -2.089572,0.87859 -2.704849,4.75403 -5.672194,2.38506 -0.541165,-2.59569 -2.4647,-1.91556 -3.6992615,-0.0345 -1.707919,1.18202 -2.676641,-1.24691 -4.809028,1.49383 -1.342978,2.46545 -0.763282,3.51918 1.97292,4.17841 0.142067,2.66712 -4.916561,-1.92015 -3.822562,2.90313 -0.205234,2.01927 -2.843769,3.07748 -0.507285,4.26283 2.968367,3.3074 -1.57581,1.77038 -1.465647,4.75288 0.234175,2.87637 -0.463872,6.13898 0.338802,8.77991 1.559145,1.75626 1.63537,3.55651 4.414031,3.48381 2.564033,-0.19065 2.028117,4.30038 4.7419225,3.82261 1.957634,-1.39989 3.84095,-0.45595 6.7258,0 1.759831,-2.69055 4.25809,0.9475 1.782502,2.32878 1.910041,2.13927 3.655872,1.71709 1.493739,4.32977 -3.025447,1.05201 1.987805,2.72949 1.342334,4.65767 1.639093,2.38563 0.70402,4.44957 3.513803,5.39156 0.3527,3.78011 3.68918,-2.02811 4.13136,1.29525 2.95617,-0.27678 2.43407,2.92588 6.19037,1.84963 0.78672,2.98537 4.15649,-2.28214 5.15405,0.95784 3.1875,0.87399 3.35485,0.29975 5.64408,1.01411 2.85881,0.0574 3.62693,1.0612 4.71383,3.69938 0.20891,1.90877 1.31224,4.528 3.41047,4.80892 3.02366,-0.50763 3.15031,1.88294 4.71384,2.83618 1.57881,2.05727 3.43062,-0.57884 5.16494,-0.98655 2.62348,-2.94758 3.36753,1.07843 4.7138,2.83618 1.21913,1.55481 0.43056,5.21181 4.18571,2.81458 5.43412,-1.42251 10.69707,-3.95824 16.24141,-4.66421 0.64774,1.77015 1.56522,3.25824 4.20654,3.69926 1.53239,1.30479 3.68044,1.50175 3.2248,5.12453 0.16871,-1.00492 3.918108,-1.99917 6.837778,-1.7674 10.54799,-0.79016 21.09587,-1.58043 31.64381,-2.37058 -0.81175,3.30728 1.42669,5.61826 4.60817,5.94213 13.86715,4.79376 27.66595,9.79609 41.75591,13.91042 9.21696,-17.31831 18.33999,-34.68647 27.49781,-52.03625 -1.27419,-12.9473 -2.54836,-25.89483 -3.82256,-38.84213 -14.18052,-3.78149 -28.361,-7.5631 -42.54149,-11.34448 -5.24039,1.59547 -9.43674,5.20045 -14.51376,7.22901 -3.41417,1.23726 -6.42529,4.1946 -10.14798,4.11547 -0.5399,-1.68689 -3.02304,-2.00077 -4.1381,-3.1968 -1.85671,-1.19143 -4.08037,-1.60144 -4.37019,-3.46198 -1.54289,-0.48811 0.36855,-3.43052 -2.83609,-3.31533 -1.55591,-1.12092 -3.00307,-2.34956 -4.80906,-3.22 -2.52868,-0.25611 -3.09842,-1.47775 -5.40695,-2.60407 -3.27681,0.1562 -4.58262,-1.03937 -7.2798,-1.21854 -1.71336,-0.69138 -4.51609,-1.0922 -5.53184,-3.17486 -2.36178,-1.14044 -4.831888,-2.01743 -7.824468,-1.63406 -0.44377,0 -0.88766,0 -1.33147,0 z"
       style="fill:#000000;fill-opacity:1;stroke:#d39062;stroke-width:1.51107;stroke-miterlimit:4;stroke-dasharray:none;stroke-opacity:1"
       id="Frutillar" />
  </g>
</svg>
