<?xml version="1.0" encoding="UTF-8" standalone="no"?>
<!-- Created with Inkscape (http://www.inkscape.org/) -->

<svg
   width="210mm"
   height="297mm"
   viewBox="0 0 210 297"
   version="1.1"
   id="svg64"
   inkscape:version="1.1.2 (b8e25be833, 2022-02-05)"
   sodipodi:docname="vector.svg"
   xmlns:inkscape="http://www.inkscape.org/namespaces/inkscape"
   xmlns:sodipodi="http://sodipodi.sourceforge.net/DTD/sodipodi-0.dtd"
   xmlns="http://www.w3.org/2000/svg"
   xmlns:svg="http://www.w3.org/2000/svg">
  <sodipodi:namedview
     id="namedview66"
     pagecolor="#ffffff"
     bordercolor="#666666"
     borderopacity="1.0"
     inkscape:pageshadow="2"
     inkscape:pageopacity="0.0"
     inkscape:pagecheckerboard="0"
     inkscape:document-units="mm"
     showgrid="false"
     inkscape:zoom="0.74029882"
     inkscape:cx="361.34057"
     inkscape:cy="345.8063"
     inkscape:window-width="1920"
     inkscape:window-height="1017"
     inkscape:window-x="-8"
     inkscape:window-y="-8"
     inkscape:window-maximized="1"
     inkscape:current-layer="layer1" />
  <defs
     id="defs61" />
  <g
     inkscape:label="Capa 1"
     inkscape:groupmode="layer"
     id="layer1">
    <path
       id="Rio_Hurtado"
       style="fill:#000000;fill-opacity:1;fill-rule:evenodd;stroke:#d38d5f;stroke-width:1.13933;stroke-linecap:butt;stroke-linejoin:miter;stroke-miterlimit:4;stroke-opacity:1"
       d="m 55.281212,175.92212 c 4.35913,-3.42894 11.06288,0.30143 13.99843,-5.74053 6.65158,1.99392 12.89929,0.63667 16.84242,-5.15571 5.61152,3.4848 4.06879,-9.2292 9.31037,-3.29365 5.512428,1.38258 11.709808,6.89355 16.898758,1.20706 3.46344,-3.26393 9.28053,-1.99 10.60605,2.18933 4.73569,1.79209 8.51383,5.25575 7.97345,9.76153 5.0475,6.94372 15.53974,-0.62387 19.84055,6.35166 3.50934,4.6596 1.17218,13.9497 7.39913,16.60526 6.21787,-2.27486 8.95292,5.01938 13.30213,5.71977 5.36736,-2.12853 7.03397,7.41154 13.30184,4.03336 3.98943,-0.13564 2.00946,5.51136 6.03524,5.63292 4.02582,0.12143 3.5388,8.12997 4.01996,-0.52471 0.48122,-8.65467 0.53819,-17.06127 6.90178,-24.2333 5.14046,-7.18817 8.03816,-18.5974 7.6851,-20.90653 -0.31004,-2.02717 -2.237,-4.0685 -0.6098,-6.56327 -0.8018,1.22928 -2.3698,-3.1459 -6.52812,-2.1591 -4.15828,0.98675 -6.66877,-2.9678 -10.35923,-3.82843 -3.75918,0.21961 -8.42365,-2.65427 -5.23615,-6.71712 3.10495,-1.95607 2.53727,-5.39118 -0.49185,-7.05434 -3.3141,-3.00324 -7.96539,-3.85401 -12.26396,-3.10784 -2.69961,2.55893 -4.65801,6.13588 -8.76745,7.20635 -3.47356,0.14081 -6.58368,-2.02364 -9.99475,-2.51708 -5.64291,-0.10722 -2.35663,-7.43883 -6.43094,-8.8475 -2.85222,-1.18854 -7.65126,-0.33933 -8.60847,-4.11587 -4.51423,-4.46505 4.69676,-4.91624 1.62406,-8.2443 -3.09242,-1.87067 -7.26267,-2.17934 -9.73005,-5.03897 -0.96742,-4.64629 -3.37055,-8.78545 -4.79774,-13.28573 -3.38683,-3.26763 1.14862,-5.960179 -0.40392,-9.507029 -1.32349,-3.58091 -2.98631,-7.05779 -4.12973,-10.6899 -1.14341,-3.63215 -2.96543,-1.36427 -3.85189,-3.13716 0.4602,0.9204 1.20856,6.63652 -1.19233,7.15407 -7.9557,1.71493 -6.11465,-1.47567 -7.75026,-1.78851 -2.3599,-0.45142 -7.76825,-0.0456 -10.134908,0 -6.5649,0.12703 -3.82516,3.67973 -6.63505,3.7243 -2.2038,0.0345 -4.63424,1.94242 -7.0769,4.62209 -1.63255,1.79093 -7.5299,0.91045 -9.53875,-0.59618 -4.59534,-3.44652 -1.12308,-0.18904 -5.36555,-0.59619 -10.5281,-1.01039 -10.50962,3.14909 -10.52073,3.28249 -0.18904,2.27047 -0.28296,-1.69623 -5.14109,-2.91074 -3.1178,-0.77946 -4.78251,-0.96789 -8.18505,-0.96789 -7.02907,0 0.0713,-1.15668 -4.76937,-3.57704 -1.48417,-0.74208 -5.14589,-2.60436 -7.75023,0 -1.26468,1.26468 1.75013,4.99699 0,5.36555 l 5.55403,14.143949 -8.85172,7.64467 -10.05877,-9.25405 -4.023512,-0.4022 -0.8047,5.63292 -15.69167701,19.31283 2.01174801,5.23056 4.425863,12.87522 -6.43761101,7.24234 C 10.820115,162.13214 9.610448,170.02312 13.755089,177.0217 l 4.828208,2.01179 17.301095,-4.82823 -0.40237,-8.44936 c 5.63048,2.71279 6.9999,0.0995 8.44937,-2.41411 l 3.62115,8.04699 z"
       sodipodi:nodetypes="ccccccccccccccsssccccccccccccssssssssssssssccccccccccccccccc" />
  </g>
</svg>
