<?xml version="1.0" encoding="UTF-8" standalone="no"?>
<!-- Created with Inkscape (http://www.inkscape.org/) -->

<svg
   width="210mm"
   height="297mm"
   viewBox="0 0 210 297"
   version="1.1"
   id="svg64"
   inkscape:version="1.1.2 (b8e25be833, 2022-02-05)"
   sodipodi:docname="vector.svg"
   xmlns:inkscape="http://www.inkscape.org/namespaces/inkscape"
   xmlns:sodipodi="http://sodipodi.sourceforge.net/DTD/sodipodi-0.dtd"
   xmlns="http://www.w3.org/2000/svg"
   xmlns:svg="http://www.w3.org/2000/svg">
  <sodipodi:namedview
     id="namedview66"
     pagecolor="#ffffff"
     bordercolor="#666666"
     borderopacity="1.0"
     inkscape:pageshadow="2"
     inkscape:pageopacity="0.0"
     inkscape:pagecheckerboard="0"
     inkscape:document-units="mm"
     showgrid="false"
     inkscape:zoom="0.74029882"
     inkscape:cx="361.34057"
     inkscape:cy="129.67736"
     inkscape:window-width="1920"
     inkscape:window-height="1017"
     inkscape:window-x="-8"
     inkscape:window-y="-8"
     inkscape:window-maximized="1"
     inkscape:current-layer="layer1" />
  <defs
     id="defs61" />
  <g
     inkscape:label="Capa 1"
     inkscape:groupmode="layer"
     id="layer1">
    <path
       id="Canela"
       style="fill:#000000;fill-opacity:1;fill-rule:evenodd;stroke:#d38d5f;stroke-width:1.7824;stroke-linecap:butt;stroke-linejoin:miter;stroke-miterlimit:4;stroke-opacity:1"
       d="m 46.703653,263.59099 c -1.13149,-3.69012 -2.01136,-8.71645 -3.11785,-16.34749 -1.64353,-11.33524 -2.11078,-24.42833 -4.3755,-29.0958 -1.56916,-3.23385 -11.92726,-7.60922 -9.31257,-11.78323 2.82554,-4.51064 8.68654,-12.80045 4.91369,-20.043 -5.23786,-10.05487 -2.70071,-20.60671 -3.98943,-23.9406 -11.68029,-30.21718 -19.8539,-53.21708 -16.4777,-63.122807 3.47562,-10.19723 2.09327,-12.45783 -3.563,-12.04124 -3.8298397,0.28226 -3.5037897,-10.36436 -3.5510797,-15.62324 -0.0472,-5.25887 -2.91797,-18.64858 -6.37937997,-29.75491 7.20939997,17.72445 26.17103967,-17.56446 24.27029967,-18.74121 7.09346,-1.17676 13.36754,2.34185 14.65828,7.32917 0.86363,-4.56945 6.79442,-5.59456 10.91292,-2.00226 5.22317,-4.41356 9.29944,1.14893 13.81984,1.70053 0.79358,-3.81724 3.10181,-7.30216 4.14323,-10.05872 2.94437,-2.50057 8.65541,7.5308 14.88881,6.98001 2.04739,-5.88188 10.77003,-11.1714 16.1786,-5.95618 4.897247,-0.89051 7.794397,-9.18559 14.682397,-7.89593 6.62149,-0.27552 13.16504,-2.88954 19.86414,-3.6792699 0.73078,8.2904899 -6.5251,23.8659599 18.29753,19.4717999 2.87621,-3.81367 8.32613,-1.81761 12.36164,-2.87371 4.55732,-0.41093 7.82761,4.63305 12.32855,2.95933 4.0347,-0.57598 5.77578,4.56258 10.24048,2.63496 3.33301,1.71522 1.45672,7.06605 4.64725,9.68801 -0.39948,4.3689 7.20206,5.17487 3.57365,9.66328 0.18458,4.53516 1.88834,9.10629 3.19699,13.27612 2.31754,-2.6163 10.31498,4.22979 9.47567,9.71495 l 0.67231,15.46937 c -25.08717,-3.36433 -16.71497,12.390937 -18.22997,22.496407 l 0.68262,17.7481 -11.6045,-1.36524 c -1.64461,7.25534 -2.89378,14.70847 -11.60457,18.43072 -5.18471,-7.41035 -10.1304,-17.68943 -17.06548,-4.09573 h -10.23933 c -3.62787,7.28289 -10.23656,14.19318 0,23.20907 h 8.87409 c 8.64066,1.64178 6.86866,9.53118 6.82615,16.38293 l -0.68262,7.50877 -6.82615,5.46097 7.50877,14.33506 c -17.48308,6.77832 -20.21579,-8.34647 -34.81358,2.73049 l -21.84383,-3.41311 v 23.20907 l 11.6045,11.60451 c 5.1901,3.71289 13.38008,2.42599 13.65244,14.33506 v 17.7481 c -2.57938,10.11422 -16.03471,2.86043 -18.43079,11.60457 -8.254847,-1.56741 -4.19105,-8.06226 -4.09573,-12.96982 -0.21288,-14.63126 -10.113287,-13.76298 -19.113337,-14.33499 l -3.41311,-12.96981 c -12.46208,-13.09209 -12.9971,-2.33007 -12.96975,9.5567 -5.8585,0.28631 -11.2191,-0.42238 -20.57586,6.86024 z"
       sodipodi:nodetypes="cssssssssccccccccccccccccccccccccccccccccccccccccccc" />
  </g>
</svg>
