<?xml version="1.0" encoding="UTF-8" standalone="no"?>
<!-- Created with Inkscape (http://www.inkscape.org/) -->

<svg
   width="210mm"
   height="297mm"
   viewBox="0 0 210 297"
   version="1.1"
   id="svg64"
   inkscape:version="1.1.2 (b8e25be833, 2022-02-05)"
   sodipodi:docname="vector.svg"
   xmlns:inkscape="http://www.inkscape.org/namespaces/inkscape"
   xmlns:sodipodi="http://sodipodi.sourceforge.net/DTD/sodipodi-0.dtd"
   xmlns="http://www.w3.org/2000/svg"
   xmlns:svg="http://www.w3.org/2000/svg">
  <sodipodi:namedview
     id="namedview66"
     pagecolor="#ffffff"
     bordercolor="#666666"
     borderopacity="1.0"
     inkscape:pageshadow="2"
     inkscape:pageopacity="0.0"
     inkscape:pagecheckerboard="0"
     inkscape:document-units="mm"
     showgrid="false"
     inkscape:zoom="0.74029882"
     inkscape:cx="361.34057"
     inkscape:cy="561.93525"
     inkscape:window-width="1920"
     inkscape:window-height="1017"
     inkscape:window-x="-8"
     inkscape:window-y="-8"
     inkscape:window-maximized="1"
     inkscape:current-layer="layer1" />
  <defs
     id="defs61" />
  <g
     inkscape:label="Capa 1"
     inkscape:groupmode="layer"
     id="layer1">
    <path
       style="fill:#000000;fill-opacity:1;fill-rule:evenodd;stroke:#d39062;stroke-width:0.547961;stroke-linecap:butt;stroke-linejoin:miter;stroke-miterlimit:4;stroke-dasharray:none;stroke-opacity:1"
       d="m 128.47245,230.11313 c -0.33103,-0.26612 -0.63065,-0.54781 -0.89044,-0.95894 -0.32705,-0.51748 -0.58441,-1.139 -0.7877,-1.95215 -0.26879,-1.07501 -0.36715,-1.69221 -0.27398,-2.43159 0.0932,-0.73933 0.37475,-1.60182 0.78769,-3.25348 0.57708,-2.30832 1.25822,-4.09183 2.05486,-5.68513 0.25693,-0.51365 0.71615,-0.77567 1.26716,-0.89042 0.55101,-0.11475 1.2097,-0.10492 1.88362,-0.0683 0.67391,0.0383 1.3607,0.0951 1.98636,0.0328 0.62566,-0.0612 1.16914,-0.24426 1.57539,-0.6507 1.16971,-1.1697 1.98408,-1.62412 2.2261,-2.08908 0.12103,-0.23224 0.0867,-0.47922 -0.10268,-0.78774 -0.18939,-0.30819 -0.54376,-0.68075 -1.09592,-1.23287 -0.80042,-0.80042 -1.31659,-1.4109 -1.64389,-1.91789 -0.32731,-0.50709 -0.45184,-0.92277 -0.44523,-1.36992 0.0131,-0.89424 0.54755,-1.91624 1.06168,-3.9727 0.2783,-1.11326 0.50539,-1.69647 0.99318,-2.36307 0.4878,-0.66665 1.2493,-1.42057 2.63706,-2.8083 0.85473,-0.85474 1.35238,-1.72985 1.78088,-2.67131 0.42851,-0.94151 0.76969,-1.9504 1.30141,-3.01382 0.34813,-0.69621 0.54861,-1.308 0.61645,-1.91788 0.0679,-0.60983 -3.4e-4,-1.20976 -0.13699,-1.78084 -0.27327,-1.14222 -0.87033,-2.25443 -1.5069,-3.52752 -0.23251,-0.46502 -0.28579,-0.96414 -0.23972,-1.50691 0.0459,-0.54261 0.2036,-1.1367 0.41097,-1.74663 0.41475,-1.21981 1.01364,-2.5476 1.36991,-3.97271 0.42775,-1.711 0.55407,-2.65175 0.37671,-3.52752 -0.17731,-0.87572 -0.65227,-1.68122 -1.40415,-3.18502 -0.28043,-0.56086 -0.42693,-1.08254 -0.47944,-1.57537 -0.0525,-0.49289 0.007,-0.95845 0.10267,-1.43839 0.19191,-0.95992 0.58054,-1.94542 0.89045,-3.18507 0.266,-1.06413 0.81675,-2.30722 1.47264,-3.49321 0.65589,-1.18604 1.43,-2.30979 2.1576,-3.21928 1.50897,-1.88624 2.74384,-5.31245 3.63025,-6.19883 0.17895,-0.17868 -0.0731,-0.76725 -0.51371,-1.50691 -0.44059,-0.73965 -1.09845,-1.66089 -1.78088,-2.56858 -1.36485,-1.81537 -2.81092,-3.56697 -2.8768,-3.69872 -0.37349,-0.74703 -0.6315,-1.32866 -0.75344,-1.84936 -0.12197,-0.52076 -0.11191,-0.97637 -0.0344,-1.40418 0.15541,-0.85561 0.65918,-1.66079 1.30141,-2.94529 0.16213,-0.32404 0.76365,-0.67595 1.57539,-1.02742 0.81174,-0.35135 1.8188,-0.6867 2.84255,-0.9932 2.04752,-0.61294 4.07918,-1.06167 4.34945,-1.06167 0.37005,0 1.70379,0.97927 2.97954,1.98635 1.27575,1.00714 2.49444,2.01783 2.70557,2.1234 1.54483,0.77239 2.57159,1.43079 3.73298,1.88357 1.1614,0.45299 2.47747,0.71922 4.55494,0.71922 2.58371,0 5.15624,0 7.73995,0 1.63958,0 3.00555,0.0219 4.24671,0.23988 1.24115,0.2153 2.34631,0.61327 3.49325,1.30145 0.35218,0.21147 1.1317,1.60216 1.88363,3.01377 0.75192,1.41166 1.48932,2.84196 1.74662,3.18501 0.41327,0.55108 1.12414,0.87567 1.98637,1.02747 0.86222,0.15191 1.86983,0.14152 2.91104,0.0683 2.08242,-0.14644 4.26676,-0.58223 5.44537,-0.58223 1.24596,0 2.55638,0.25519 3.93847,0.51365 1.3821,0.25847 2.82161,0.51365 4.3152,0.51365 1.04136,0 1.59062,-0.10928 1.78088,-0.30819 0.19027,-0.1989 0.0339,-0.48195 -0.30824,-0.82195 -0.6837,-0.67971 -2.11561,-1.56761 -3.01379,-2.46579 -0.96811,-0.96812 -1.59245,-1.63751 -1.84938,-2.50011 -0.25693,-0.86261 -0.13737,-1.91636 0.30825,-3.69873 0.17098,-0.68397 -0.0858,-2.15492 -0.37671,-3.49326 -0.29087,-1.33833 -0.64402,-2.54186 -0.68495,-2.70557 -0.15038,-0.60152 -0.10563,-1.21987 0.0344,-1.8151 0.13989,-0.59523 0.38371,-1.16675 0.68496,-1.71237 0.60246,-1.09129 1.40901,-2.03854 1.88361,-2.67131 0.62662,-0.8355 1.29481,-1.69964 2.12336,-2.50011 0.82854,-0.80048 1.82143,-1.54429 3.04803,-2.15761 0.22891,-0.30546 0.29273,-0.56234 0.23973,-0.75343 -0.053,-0.19125 -0.24022,-0.33824 -0.51371,-0.44534 -0.54695,-0.21366 -1.47439,-0.28633 -2.53432,-0.34262 -1.05993,-0.0557 -2.24093,-0.0683 -3.32202,-0.20546 -1.0811,-0.13715 -2.06086,-0.39835 -2.67131,-0.85615 -0.65722,-0.49289 -2.04825,-0.653 -3.42476,-0.75349 -1.37652,-0.10054 -2.73338,-0.13551 -3.28777,-0.27376 -0.52868,-0.13224 -1.03677,-0.39781 -1.5069,-0.75343 -0.47016,-0.35573 -0.91264,-0.79457 -1.33566,-1.23292 -0.84603,-0.87665 -1.60284,-1.79461 -2.32883,-2.15761 -1.51963,-0.75977 -2.88163,-1.5362 -4.34945,-2.26034 -1.46783,-0.72413 -3.02118,-1.37172 -4.93166,-1.84936 -1.75202,-0.43824 -3.44986,-0.81785 -5.13714,-1.09593 -1.68728,-0.27814 -3.37193,-0.44535 -5.20563,-0.44535 -0.81887,0 -1.65753,0.1235 -2.46583,0.34262 -0.8083,0.21857 -1.59635,0.50054 -2.32884,0.85621 -1.46498,0.71174 -2.72299,1.62707 -3.49326,2.39733 -0.40015,0.39999 -0.82849,0.62993 -1.30141,0.75343 -0.47294,0.12349 -0.97017,0.13825 -1.47264,0.10273 -1.00494,-0.071 -2.04696,-0.34262 -2.91105,-0.34262 -0.53294,0 -1.20127,0.20109 -1.98636,0.51365 -0.78509,0.31256 -1.68861,0.74173 -2.56857,1.19867 -1.75993,0.91391 -3.53039,1.95329 -4.72617,2.43158 -0.39579,0.15847 -0.7091,0.0383 -0.99318,-0.23988 -0.2841,-0.27704 -0.53792,-0.69857 -0.7877,-1.16446 -0.24983,-0.46611 -0.49474,-0.96189 -0.78769,-1.36986 -0.293,-0.40819 -0.64811,-0.75283 -1.06168,-0.85621 -0.32125,-0.0803 -0.52496,-0.39672 -0.65071,-0.85621 -0.12573,-0.45956 -0.15584,-1.04993 -0.20546,-1.64385 -0.0497,-0.59392 -0.11267,-1.19484 -0.20546,-1.67816 -0.0928,-0.48305 -0.22409,-0.8655 -0.47944,-0.99315 -0.77415,-0.38688 -1.31247,-1.13042 -1.71238,-1.98635 -0.39994,-0.856 -0.68052,-1.7974 -0.89044,-2.63711 -0.21131,-0.84523 -0.95584,-1.61669 -1.67813,-2.56858 -0.36114,-0.47595 -0.73553,-1.01522 -0.99318,-1.60964 -0.25765,-0.59436 -0.41098,-1.246476 -0.41098,-2.020556 0,-0.42731 -0.20557,-0.81659 -0.5137,-1.13019 -0.30814,-0.31366 -0.7112,-0.57015 -1.16442,-0.75343 -0.90644,-0.36666 -1.95764,-0.45955 -2.46583,-0.20546 -0.54267,0.27158 -1.09373,0.4377 -1.67813,0.51365 -0.5844,0.076 -1.19455,0.0738 -1.78088,0 -1.17267,-0.14699 -2.31188,-0.5566 -3.25352,-1.02741 -1.2074,-0.6037 -2.23443,-1.34872 -3.15078,-2.15761 -0.91635,-0.80889 -1.72293,-1.68865 -2.53433,-2.50005 -0.87146,-0.87146 -1.73751,-1.16402 -2.53432,-1.60964 -0.3984,-0.22295 -0.77484,-0.46611 -1.13017,-0.85621 -0.35535,-0.39016 -0.6972,-0.90392 -0.99318,-1.64391 -0.28535,-0.71342 -1.06771,-1.40663 -1.91787,-2.02055 -0.85016,-0.61398 -1.74393,-1.16173 -2.19184,-1.60964 -1.87196,-1.87199 -2.22968,-3.25715 -3.63025,-4.65772 -1.89704,-1.89701 -2.73829,-3.25201 -4.14396,-4.65767 -0.24672,-0.24698 -0.56443,-0.38086 -0.92469,-0.44534 -0.36026,-0.0645 -0.75604,-0.0383 -1.198667,0.0328 -0.88523,0.14973 -1.91772,0.54688 -2.94529,0.99321 -1.02757,0.44644 -2.05914,0.93921 -2.97954,1.33565 -0.9204,0.39617 -1.69662,0.68496 -2.26034,0.68496 -1.13744,0 -1.72756,-0.28906 -2.02061,-0.68496 -0.29305,-0.39616 -0.32207,-0.8896 -0.30824,-1.33565 0.0137,-0.44589 0.0798,-0.84332 -0.137,-0.99321 -0.21677,-0.14972 -0.69326,-0.0814 -1.67813,0.41093 -1.78572,0.89287 -2.83277,1.56362 -4.00697,1.98635 -1.17419,0.42294 -2.49251,0.61649 -4.79466,0.61649 -3.87918,0 -4.81761,0.0885 -5.17139,0 -0.0536,-0.0109 0.53321,-0.80365 0.5137,-1.57538 -0.01,-0.38578 -0.15273,-0.7731 -0.61646,-1.06173 -0.4637,-0.28851 -1.23979,-0.47922 -2.46583,-0.47922 -2.79681,0 -4.04366,-0.14973 -5.00015,-0.61644 -0.95649,-0.46665 -1.6084,-1.23199 -3.25352,-2.46585 -0.61617,-0.46228 -1.2309,-0.70261 -1.81512,-0.82195 -0.58423,-0.11912 -1.16401,-0.13169 -1.746634,-0.17103 -0.582622,-0.0383 -1.169479,-0.0847 -1.780876,-0.30819 -0.611392,-0.2235 -1.247357,-0.63092 -1.917863,-1.30145 -0.375729,-0.3754 -0.707706,-0.59605 -1.027432,-0.71917 -0.31972,-0.12295 -0.614392,-0.11967 -0.890435,-0.0683 -0.552093,0.10273 -1.021487,0.45682 -1.472647,0.78769 -0.451139,0.33114 -0.887053,0.61425 -1.335656,0.54796 -0.448625,-0.0661 -0.928216,-0.48633 -1.472647,-1.57537 -0.453433,-0.90687 -1.277433,-1.73325 -2.157601,-2.50006 -0.880167,-0.76682 -1.823487,-1.48101 -2.500074,-2.15761 -0.572513,-0.5725 -1.132725,-0.7531 -1.71238,-0.78769 -0.57966,-0.0328 -1.176025,0.0989 -1.74663,0.17104 -0.570606,0.0721 -1.13278,0.0809 -1.678135,-0.17104 -0.545344,-0.25245 -1.071481,-0.77304 -1.575389,-1.78089 -0.552442,-1.10489 -0.957035,-2.00701 -1.472647,-2.56858 -0.257809,-0.28087 -0.543705,-0.48742 -0.890435,-0.58217 -0.346769,-0.0945 -0.731761,-0.0913 -1.232915,0.0328 -0.298299,0.0749 -1.021394,1.0496 -1.883622,2.22613 -0.862228,1.17654 -1.870606,2.55558 -2.774052,3.459 -0.398626,0.39835 -0.477367,0.84162 -0.445237,1.3014 0.03224,0.4601 0.175352,0.93741 0.20546,1.40417 0.03005,0.46666 -0.04044,0.95037 -0.445236,1.36992 -0.404637,0.41967 -1.159348,0.77785 -2.431584,1.09588 -0.52458,0.13115 -1.258138,0.0273 -2.157595,-0.23988 -0.39409,-0.1164 -0.893135,-0.32022 -1.335661,-0.47923 l -6.335804,14.96619 2.500074,3.76725 -18.39097147,37.261356 c 0.1518,0.81556 1.40516297,1.72461 2.08910497,2.39739 0.509279,0.50927 0.825048,0.99905 1.027432,1.47264 0.2024,0.47376 0.294311,0.95375 0.273984,1.47265 -0.04044,1.03774 -0.464144,2.23323 -0.890436,3.93844 -0.501902,2.00756 -2.123694,4.65903 -2.56856997,6.43856 -0.338189,1.3527 -0.545726,1.99717 -0.410975,2.56858 0.134751,0.57141 0.624173,1.06938 1.71237997,2.15761 0.48693,0.48687 1.373863,1.44953 2.397333,2.29459 0.511738,0.4224 1.033569,0.80944 1.575394,1.09588 0.541847,0.28634 1.107076,0.47923 1.609634,0.47923 0.69757,0 1.271613,0.14371 1.780876,0.37649 0.509279,0.23333 0.9494555,0.57026 1.3356615,0.99321 0.772393,0.84588 1.349125,2.01329 2.020608,3.35627 0.426713,0.85337 0.43021,1.79619 0.479444,2.70551 0.02459,0.45464 0.0547,0.92326 0.171253,1.33566 0.116555,0.41256 0.318026,0.79752 0.650703,1.13019 0.592709,0.59272 1.774848,1.42681 2.808308,1.91789 0.516711,0.24535 0.985154,0.38688 1.335655,0.37649 0.350485,-0.0109 0.582207,-0.16338 0.582207,-0.58222 0,-1.1708 0.0087,-2.12275 0.06847,-2.91104 0.05951,-0.78829 0.170051,-1.41183 0.410975,-1.91788 0.240924,-0.506 0.585769,-0.90878 1.130168,-1.23293 0.544415,-0.32403 1.290481,-0.57944 2.260341,-0.82189 1.290269,-0.3224 2.711687,-0.41857 4.178209,-0.44535 1.466522,-0.0273 2.980638,0.0328 4.417942,0.0328 1.708943,0 2.76014,-0.25792 3.287774,-0.10273 0.263819,0.0776 0.391522,0.27158 0.410975,0.61649 0.01913,0.3448 -0.08295,0.84561 -0.273984,1.60964 -0.570452,2.28181 -0.667385,2.64825 -0.410975,2.84251 0.128194,0.0973 0.362561,0.13387 0.650708,0.37704 0.288136,0.24316 0.644752,0.67304 1.061672,1.50685 0.346715,0.69338 0.14038,1.86854 0.06852,2.87683 -0.03607,0.50436 -0.03279,0.96664 0.06847,1.30139 0.101364,0.33497 0.319065,0.54797 0.719198,0.54797 2.754441,0 5.106392,0.85621 7.739961,0.85621 0.550574,0 2.32004,-0.0656 3.938476,0 0.809219,0.0328 1.578853,0.10328 2.12335,0.23989 0.544524,0.13661 0.862387,0.31802 0.7877,0.61643 -0.275514,1.10206 -0.229832,1.90925 -0.20546,2.67131 0.02459,0.76206 0.0459,1.49413 -0.205515,2.50012 -0.162183,0.64873 -0.4248,1.07686 -0.719199,1.40412 -0.294365,0.32732 -0.6292,0.57053 -0.993181,0.78769 -0.363982,0.21693 -0.759154,0.40054 -1.130168,0.71922 -0.371031,0.31857 -0.711969,0.73894 -1.027433,1.36992 -0.421958,0.84391 -1.427823,1.39876 -2.260341,2.05482 -0.416276,0.32786 -0.800596,0.70097 -1.027427,1.13019 -0.226826,0.4295 -0.294256,0.912 -0.136992,1.54112 0.136937,0.54769 0.154205,0.90665 0.06847,1.13019 -0.08568,0.2235 -0.299776,0.31803 -0.616458,0.34262 -0.08503,0.005 -0.343927,-0.0328 -0.445236,-0.0328 0.03989,0.0721 0.06136,0.16994 0.102675,0.23989 0.46245,0.77823 1.002908,1.44308 1.301405,2.63705 0.157046,0.62824 0.238902,1.73291 0.136992,2.87682 -0.101911,1.14391 -0.384364,2.33903 -0.993182,3.15076 -0.530863,0.70785 -0.847321,1.24265 -1.027427,1.71237 -0.180105,0.46993 -0.23076,0.86096 -0.205515,1.23292 0.05082,0.74392 0.376714,1.44249 0.376714,2.63705 0,0.95894 -0.564333,2.17952 -0.787694,3.25354 -0.111692,0.53715 -0.130052,1.03353 0.03442,1.43839 0.164314,0.40491 0.502831,0.72506 1.164419,0.89047 1.264925,0.31639 2.223145,0.41365 3.082281,0.6507 0.85914,0.23715 1.649927,0.6225 2.534324,1.50691 0.50305,0.50327 1.138491,1.04626 1.71238,1.6781 0.57389,0.63185 1.057973,1.32085 1.267166,2.15761 0.37103,1.48429 0.685335,2.08706 1.164418,2.43159 0.479061,0.3448 1.144501,0.45245 2.294587,1.02741 1.157233,0.57862 1.595874,0.89791 1.643884,1.09593 0.04809,0.19781 -0.298737,0.26503 -0.787694,0.34262 -0.488952,0.0776 -1.121775,0.16011 -1.575388,0.37704 -0.226826,0.1082 -0.403052,0.25355 -0.513706,0.44535 -0.110653,0.1918 -0.145461,0.44534 -0.06847,0.75348 0.139997,0.55999 0.232181,0.9738 0.513705,1.47265 0.281524,0.49889 0.761613,1.06981 1.643884,1.95209 1.164889,1.16489 2.069673,2.47415 3.42476,4.28095 0.85431,1.1391 1.35833,1.61199 1.67813,1.6439 0.31978,0.0328 0.45327,-0.36174 0.58221,-0.85621 0.12896,-0.49453 0.26617,-1.1008 0.54797,-1.54112 0.14087,-0.22021 0.30442,-0.41584 0.54796,-0.51365 0.24354,-0.0978 0.56979,-0.0973 0.95893,0 0.0949,0.0219 0.59414,0.0585 1.19867,0.34262 0.60451,0.2836 1.32039,0.82566 1.81512,1.81509 0.38048,0.76097 0.77374,1.45462 1.3699,2.05488 0.59616,0.60026 1.36378,1.0944 2.46583,1.36992 1.32701,0.33168 2.16162,0.71829 2.53432,1.1644 0.15262,-0.0164 0.21202,-0.0596 0.37672,-0.0683 0.72628,-0.0383 1.56501,0 2.22609,0 0.49928,0 1.11909,0.36939 1.74663,0.82195 0.62754,0.45245 1.26069,0.97276 1.71238,1.19866 0.47556,0.2377 0.77036,0.29125 0.95893,0.20546 0.18858,-0.0858 0.25229,-0.31693 0.27399,-0.58223 0.0432,-0.53114 -0.13098,-1.2568 -0.0344,-1.64384 0.12847,-0.51366 -0.14606,-0.73868 -0.37671,-1.02747 -0.11535,-0.14426 -0.21781,-0.32677 -0.23972,-0.54797 -0.0219,-0.2213 0.012,-0.50327 0.20546,-0.89042 0.21994,-0.43988 0.67085,-0.6014 1.19866,-0.58222 0.5278,0.0218 1.16157,0.21693 1.78088,0.47922 1.23861,0.52513 2.43345,1.33691 2.7398,1.54112 0.67413,0.44917 1.21009,1.16642 1.60964,1.95214 0.39956,0.78572 0.65114,1.6456 0.82195,2.32881 0.12153,0.48633 0.24021,0.63069 0.61646,0.89047 0.37622,0.25956 1.00225,0.62327 2.22609,1.54112 0.65336,0.49015 1.03405,1.00085 1.40415,1.26718 0.18508,0.13333 0.34989,0.20273 0.58221,0.17104 0.23229,-0.0328 0.53217,-0.14208 0.89044,-0.41092 0.009,-0.005 -0.0552,-2.03947 0,-2.26039 0.0943,-0.37704 0.90516,-0.47212 1.78087,-0.47923 0.87571,-0.005 1.81789,0.0683 2.0891,0.0683 0.37202,0 0.65312,-0.12842 0.92469,-0.34262 0.27158,-0.2142 0.51196,-0.50054 0.75345,-0.75343 0.24147,-0.25245 0.50589,-0.46611 0.78769,-0.58223 0.281797,-0.11584 0.600647,-0.12786 0.993187,0.0683 0.33933,0.16939 0.1754,0.53332 -0.0344,0.95889 -0.20961,0.42567 -0.46873,0.8991 -0.37671,1.26718 0.24048,0.96195 0.47999,1.67369 0.5137,2.22608 0.0339,0.55245 -0.14016,0.94342 -0.7192,1.23292 -0.18906,0.0945 -0.21955,0.28251 -0.17125,0.47923 0.0481,0.19672 0.17726,0.42895 0.34245,0.65075 0.33038,0.44316 0.78165,0.85015 0.85619,0.92468 0.45792,0.45791 0.93821,0.5489 1.36991,0.41092 0.43168,-0.1377 0.8032,-0.51037 1.06168,-1.02746 0.0486,-0.52185 0.32414,-0.85725 0.68495,-1.06168 0.36076,-0.20436 0.8175,-0.26447 1.19866,-0.23988 0.38114,0.0273 0.67795,0.14207 0.7877,0.30819 0.10972,0.16612 0.009,0.36338 -0.44524,0.58217 -0.32087,0.0645 -0.3883,0.1847 -0.30824,0.30819 0.0801,0.1235 0.33611,0.26666 0.6507,0.41092 0.62914,0.28852 1.55507,0.57715 2.12335,0.71922 0.77544,0.19399 1.24082,0.4448 1.74663,0.6507 0.50578,0.20601 1.05182,0.34262 1.91787,0.34262 1.69772,0 3.44415,-0.11967 5.06864,0.20546 0.96927,0.19398 1.22133,0.71337 2.67131,1.43838 0.36977,0.1847 0.69909,0.2541 1.02743,0.23989 0.32836,-0.0164 0.63688,-0.12732 0.92469,-0.27377 0.57561,-0.29289 1.08783,-0.7796 1.50689,-1.19866 0.36081,-0.36065 0.55389,-0.67786 0.92469,-0.95894 0.37081,-0.28087 0.91153,-0.5071 1.91787,-0.6507 0.55992,-0.0798 1.13607,-0.46611 1.64388,-0.89042 0.5078,-0.42403 0.93947,-0.90523 1.19866,-1.1644 0.36868,-0.36885 0.71076,-0.60409 0.99319,-0.89047 0.28239,-0.28634 0.52026,-0.60846 0.6507,-1.13014 0.0637,-0.25464 -2.82491,-1.79751 -2.8768,-1.84942 -0.15644,-0.15628 -0.11879,-0.27868 0,-0.41092 0.1188,-0.13224 0.34688,-0.26229 0.61646,-0.3765 0.0333,-0.0164 0.0683,-0.0218 0.10267,-0.0328 z"
       id="San_Javier"
       inkscape:label="#path2831"
       sodipodi:nodetypes="cssssssssssssssssssssssssssssssssssssssssssssssssssssssssssssssssssscssssssssssssssssssssssssssssssssssssssssssssssssssssssssssssssssssssssssssssssssssssssssssssscccccsssssssssssssssssssssssssssssssssssssssssssssssssssssssssssssssssssssssssssssssssscssssssssssssssssssssssssssssssssssscssscsssssssssssssssssssc" />
  </g>
</svg>
