<?xml version="1.0" encoding="UTF-8" standalone="no"?>
<!-- Created with Inkscape (http://www.inkscape.org/) -->

<svg
   width="210mm"
   height="297mm"
   viewBox="0 0 210 297"
   version="1.1"
   id="svg57"
   inkscape:version="1.1.2 (b8e25be833, 2022-02-05)"
   sodipodi:docname="vector.svg"
   xmlns:inkscape="http://www.inkscape.org/namespaces/inkscape"
   xmlns:sodipodi="http://sodipodi.sourceforge.net/DTD/sodipodi-0.dtd"
   xmlns="http://www.w3.org/2000/svg"
   xmlns:svg="http://www.w3.org/2000/svg">
  <sodipodi:namedview
     id="namedview59"
     pagecolor="#ffffff"
     bordercolor="#666666"
     borderopacity="1.0"
     inkscape:pageshadow="2"
     inkscape:pageopacity="0.0"
     inkscape:pagecheckerboard="0"
     inkscape:document-units="mm"
     showgrid="false"
     inkscape:zoom="0.74029882"
     inkscape:cx="361.34057"
     inkscape:cy="453.87078"
     inkscape:window-width="1920"
     inkscape:window-height="1017"
     inkscape:window-x="-8"
     inkscape:window-y="-8"
     inkscape:window-maximized="1"
     inkscape:current-layer="layer1" />
  <defs
     id="defs54" />
  <g
     inkscape:label="Capa 1"
     inkscape:groupmode="layer"
     id="layer1">
    <path
       inkscape:connector-curvature="0"
       id="Tome"
       style="fill:#000000;fill-opacity:1;fill-rule:evenodd;stroke:#d39062;stroke-width:0.9525;stroke-linecap:butt;stroke-linejoin:miter;stroke-miterlimit:4;stroke-dasharray:none;stroke-opacity:1"
       d="m 72.946692,15.059184 c -7.54496,3.79939 -8.72882,10.82661 -10.89423,13.03728 -0.86698,8.82428 0.61605,15.07447 -8.8106,24.11023 -2.1838,2.09307 1.18771,0.47827 4.28623,3.75039 -4.56571,4.36052 5.49449,15.12071 0.7735,16.96648 -9.3057,3.6385 -2.60825,11.16987 -6.42939,10.83469 -17.56206,-1.5406 -5.88892,13.60619 -3.86946,18.097496 -12.32933,5.84946 -16.20342,12.32225 -17.20454,14.82323 0.23913,-1.33502 0.50878,-4.03577 0.11907,-8.87014 -5.6116,-7.814596 -0.0787,-14.569026 -7.20327,-17.561756 -11.59402,2.93535 -11.00455,10.295106 -9.28691,20.419276 -2.93447,8.20213 1.77629,15.30562 -8.3344001,17.68074 -0.47236,0.11809 -5.29521,7.73302 -5.59595,8.3344 1.47732,8.20528 17.2294301,6.90441 13.9303501,17.6212 -1.79873,3.59746 -1.67965,6.16575 0.11908,9.7632 1.83199,3.66389 9.32715,6.39082 11.0133,9.76311 8.74575,13.85507 -4.10141,26.02459 -8.3344,35.24251 4.13871,4.74215 -7.6229001,4.3929 -2.79798,10.23931 3.40635,4.12768 6.71291,8.33735 8.3344,14.82332 0.21945,0.8788 0.15057,1.95333 0.0591,3.03613 l 21.5503,0.59538 c 0.98439,0.24602 2.34204,0.11809 3.81002,-0.11908 1.46787,-0.23717 3.01586,-0.60423 4.4053,-0.89257 1.38934,-0.28834 2.58492,-0.50976 3.33372,-0.41627 0.37395,0.0492 0.66525,0.19386 0.7735,0.41627 0.10923,0.22339 0.0492,0.55798 -0.17812,1.01204 -0.38577,0.77153 -0.30901,1.65456 0,2.55983 0.309,0.90537 0.86698,1.81536 1.36927,2.73844 0.50287,0.92308 0.93489,1.85433 1.13102,2.6789 0.19682,0.82467 0.13383,1.53342 -0.47631,2.14316 -1.35293,1.35294 -2.69523,2.69524 -4.04817,4.04808 l 10.12033,6.1318 11.19192,-15.24009 15.23999,16.25203 -1.01204,15.18055 7.0842,3.09557 8.096248,1.01204 -0.35723,0.71446 c 2.50836,0.53042 5.55531,1.37399 7.20328,1.78593 1.75641,0.43891 3.07894,1.03114 4.22669,1.07158 0.57372,0.0197 1.11704,-0.0689 1.60732,-0.41627 0.49008,-0.35132 0.97622,-0.9408 1.42881,-1.84547 0.78432,-1.56954 4.36278,-4.42233 5.41734,-5.47689 0.77645,-0.77645 1.9552,-1.02306 3.33372,-1.13111 1.37852,-0.10825 2.95829,-0.059 4.52438,-0.059 1.86574,0 2.99962,-0.3838 4.16715,-0.65442 1.16753,-0.27161 2.36114,-0.42218 4.28632,0.059 1.07512,0.26866 1.96366,0.31294 2.6789,0.17812 0.71544,-0.13482 1.28208,-0.46646 1.7264,-0.89257 0.88864,-0.85321 1.32814,-2.15743 1.66686,-3.51233 0.0886,-0.37396 0.71249,-0.38478 1.60732,-0.17812 0.89455,0.20567 2.05273,0.6062 3.21475,1.07148 2.32394,0.93095 4.63498,2.09642 4.82196,2.14316 0.68493,0.17123 1.4292,0.0689 2.14316,-0.17812 0.71347,-0.25095 1.39368,-0.65049 2.08363,-1.13112 1.3798,-0.96146 2.66424,-2.19168 3.63141,-2.91696 1.23966,-0.92997 2.1655,-1.22726 2.85742,-1.19065 0.69181,0.0394 1.12747,0.37592 1.54788,0.59538 0.42021,0.21945 0.82565,0.32081 1.25009,-0.059 0.42513,-0.37986 0.90242,-1.21368 1.60733,-2.97649 0.20666,-0.51764 0.62096,-0.88471 1.13111,-1.13112 0.50977,-0.24603 1.09885,-0.36412 1.7264,-0.53633 0.62785,-0.17124 1.28641,-0.36215 1.84548,-0.65443 0.55896,-0.29227 1.00505,-0.70067 1.30973,-1.30963 0.21256,-0.42611 0.81384,-0.4763 1.54778,-0.35723 0.73414,0.11908 1.60496,0.3897 2.55983,0.59538 0.95457,0.20568 1.98049,0.3464 2.85752,0.17812 0.87682,-0.16729 1.64314,-0.66722 2.14316,-1.66686 1.40056,-2.80122 2.0849,-3.87084 4.22669,-6.01262 1.96828,-1.96829 3.24515,-3.31483 4.82206,-5.41735 0.36707,-0.48909 1.13446,-0.90635 2.14306,-1.25019 1.0087,-0.34345 2.24787,-0.66033 3.51234,-1.01204 1.26456,-0.35132 2.55648,-0.73807 3.69094,-1.2501 1.13457,-0.51173 2.11974,-1.13958 2.73844,-1.96455 1.19007,-1.58665 1.56865,-2.3817 1.30974,-3.1552 -0.25882,-0.7735 -1.13742,-1.49455 -2.50029,-2.85752 -0.86109,-0.86108 -1.80916,-2.19256 -2.50039,-3.63141 -0.69084,-1.43874 -1.13102,-2.98643 -1.13102,-4.22669 0,-1.29241 0.49893,-2.38918 0.89257,-3.51233 0.39364,-1.12315 0.66427,-2.2833 0.2972,-3.75048 -0.23717,-0.94867 -0.63081,-1.61087 -1.07148,-2.14307 -0.44088,-0.53239 -0.89947,-0.96047 -1.36927,-1.36927 -0.46942,-0.40839 -0.92801,-0.79022 -1.2502,-1.36917 -0.32278,-0.57864 -0.53535,-1.33935 -0.53535,-2.38131 0,-1.84764 0.75185,-2.90711 0.89258,-3.81002 0.0689,-0.4517 -0.0197,-0.86404 -0.41627,-1.30963 -0.39266,-0.4458 -1.07326,-0.95359 -2.26214,-1.54779 -0.63573,-0.31786 -0.95753,-0.97228 -1.07158,-1.84547 -0.11416,-0.87289 -0.0787,-1.92115 0.11907,-3.03613 0.27063,-1.55989 0.70265,-2.86736 1.07158,-4.16715 -0.16336,-0.0295 -0.38576,0.0492 -0.53633,0 -0.61703,-0.18993 -1.12433,-0.5629 -1.60732,-1.01205 -0.96638,-0.89749 -1.78928,-2.1465 -2.85752,-3.21474 -1.88119,-1.88119 -2.99263,-4.18319 -4.82196,-6.01262 -0.41923,-0.41923 -0.56487,-1.05357 -0.53634,-1.7264 0.0295,-0.67312 0.22438,-1.40903 0.53634,-2.2027 0.62293,-1.58724 1.6766,-3.3103 2.44075,-4.58391 0.61801,-1.02976 0.74102,-2.55934 0.65442,-4.22669 -0.0886,-1.66735 -0.38183,-3.45594 -0.65442,-4.82206 -0.3031,-1.51669 -0.76071,-2.34343 -1.2502,-2.73845 -0.49008,-0.39462 -1.03467,-0.32081 -1.60732,0 -1.14519,0.64163 -2.35858,2.26372 -3.21464,3.33382 -0.46253,0.57767 -1.015,0.86896 -1.66686,0.89258 -0.65147,0.0197 -1.41365,-0.17419 -2.14316,-0.47631 -1.45912,-0.60521 -2.95199,-1.65455 -4.04818,-2.2026 -0.9034,-0.4517 -1.67316,-0.64163 -2.38121,-0.6554 -0.70855,-0.01 -1.36652,0.15647 -1.96455,0.41627 -1.19597,0.52058 -2.2461,1.39092 -3.51233,2.02408 -1.9863,0.99315 -3.29239,1.20424 -4.58392,0.89258 -1.29143,-0.31098 -2.55146,-1.12699 -4.46484,-2.08363 -1.58685,-0.79318 -2.75713,-0.85616 -3.09557,-1.13111 -0.33852,-0.27555 0.17321,-0.76858 1.90502,-2.50029 1.81221,-1.81221 2.42992,-4.21596 4.22668,-6.01263 1.17964,-1.17973 1.6892,-2.12682 1.42871,-2.73844 -0.26078,-0.6121 -1.32321,-0.89257 -3.27418,-0.89257 -2.08047,0 -3.07795,0.3838 -4.04817,0.89257 -0.97032,0.50976 -1.91446,1.10918 -3.80993,1.48825 -1.86673,0.37297 -3.6502,0.37888 -5.29836,0.059 -1.64807,-0.31983 -3.13503,-0.93784 -4.34577,-1.84547 -0.79613,0.15942 -1.52032,-0.23028 -2.2026,-0.7735 -0.68197,-0.54322 -1.31898,-1.26397 -2.02408,-1.66686 v -26.551 c 0.80597,0.20174 1.57543,0.39364 2.38121,0.59538 0.30507,0.0787 -0.41824,-0.91914 -1.25009,-2.32177 -0.83157,-1.40244 -1.7264,-3.22232 -1.7264,-4.94105 0,-1.77953 -0.14171,-2.68185 -0.65541,-3.45289 -0.51271,-0.77055 -1.40273,-1.43894 -2.97649,-2.61936 -1.21014,-0.90734 -2.5742,-1.45105 -3.63141,-2.26214 -0.52846,-0.40545 -0.98882,-0.88569 -1.30973,-1.48825 -0.32082,-0.60227 -0.53535,-1.31642 -0.53535,-2.26224 0,-0.53633 -0.37494,-1.14096 -1.01204,-1.7264 -0.63671,-0.58553 -1.53864,-1.14096 -2.44076,-1.66686 -1.80443,-1.05189 -3.76623,-1.9238 -4.4054,-2.08362 -0.85517,-0.21355 -1.2929,-0.60719 -1.48824,-1.13112 -0.19485,-0.52354 -0.12597,-1.17963 0.059,-1.84547 0.37199,-1.331576 1.20532,-2.737556 1.42871,-3.631406 0.32771,-1.30993 -0.059,-2.42609 -0.65442,-3.63141 -0.6003,-1.20522 -1.38128,-2.50108 -1.7264,-4.22669 -0.20272,-1.01391 0.32672,-2.5305 1.01204,-3.92909 0.68493,-1.3985 1.541,-2.68963 2.02409,-3.33372 1.05151,-1.40194 1.71685,-2.69426 2.55983,-3.4528 0.42119,-0.37888 0.87486,-0.66918 1.42871,-0.71445 0.55404,-0.0492 1.21398,0.13088 2.02408,0.53535 1.00801,0.50385 1.84341,0.61013 2.50029,0.4763 0.65738,-0.13384 1.15356,-0.49205 1.54789,-1.01205 0.78826,-1.04048 1.10002,-2.61424 1.36917,-3.69094 0.18206,-0.72725 0.6741,-1.06499 1.19065,-1.2502 0.51665,-0.18501 1.05879,-0.19878 1.36918,-0.29719 0.30999,-0.0994 0.43693,-0.30507 0,-0.7735 -0.43694,-0.46843 -1.4295,-1.20601 -3.15511,-2.50029 -0.46646,-0.35034 -0.35723,-0.71445 -0.0591,-1.13112 0.2972,-0.41726 0.79515,-0.87289 1.2501,-1.42871 0.45563,-0.55601 0.82762,-1.25639 0.83353,-2.02409 0.006,-0.76759 -0.37691,-1.62749 -1.42871,-2.6789 -1.0022,-1.0022 -0.82566,-0.92505 -0.65442,-0.71445 0.17024,0.2106 0.35329,0.56389 -0.53634,0.11907 l -6.01262,-9.70356 1.19066,-21.72892 c -1.28277,-1.23327 -2.19739,-1.93827 -2.91706,-2.26224 -0.71937,-0.32376 -1.27007,-0.29326 -1.78593,-0.059 -1.03183,0.46843 -1.97311,1.72856 -4.34577,2.32177 -1.55309,0.38774 -2.44498,1.42064 -3.39335,2.38122 -0.47434,0.48024 -0.93194,0.97425 -1.54779,1.30973 -0.61604,0.33558 -1.36877,0.53535 -2.32167,0.53535 -1.16753,0 -2.06749,-0.16041 -2.85752,-0.41627 -0.79023,-0.25587 -1.49454,-0.62589 -2.14316,-1.01195 -1.29704,-0.77251 -2.55648,-1.66607 -4.70299,-2.2027 -0.93686,-0.23421 -2.2214,0.0591 -3.631408,0.41627 -1.40991,0.36117 -2.94677,0.7735 -4.22669,0.7735 -2.18341,0 -3.4646,-0.15844 -4.4053,-0.71445 -0.94079,-0.55602 -1.50074,-1.51324 -2.2027,-2.91706 -0.20272,-0.40446 -0.54715,-0.47827 -0.9526,-0.35722 -0.40545,0.12104 -0.91324,0.45268 -1.42881,0.89257 -1.03044,0.88077 -2.18262,2.18272 -3.09557,3.09567 -0.34935,0.34935 -0.6554,0.4763 -0.9526,0.35723 -0.2972,-0.11908 -0.58652,-0.48024 -0.83353,-0.95261 -0.49402,-0.94473 -0.83451,-2.43819 -1.13112,-4.10761 -0.59439,-3.33894 -0.86108,-7.2451 -0.71445,-7.97717 0.14564,-0.72922 -0.11022,-1.23839 -0.65541,-1.60732 -0.54519,-0.36904 -1.37507,-0.61802 -2.26214,-0.83353 -1.06075,-0.25685 -1.91426,-0.71052 -2.91705,-1.07148 z" />
  </g>
</svg>
