<?xml version="1.0" encoding="UTF-8" standalone="no"?>
<!-- Created with Inkscape (http://www.inkscape.org/) -->

<svg
   width="210mm"
   height="297mm"
   viewBox="0 0 210 297"
   version="1.1"
   id="svg1283"
   inkscape:version="1.1.2 (b8e25be833, 2022-02-05)"
   sodipodi:docname="vector.svg"
   xmlns:inkscape="http://www.inkscape.org/namespaces/inkscape"
   xmlns:sodipodi="http://sodipodi.sourceforge.net/DTD/sodipodi-0.dtd"
   xmlns="http://www.w3.org/2000/svg"
   xmlns:svg="http://www.w3.org/2000/svg">
  <sodipodi:namedview
     id="namedview1285"
     pagecolor="#ffffff"
     bordercolor="#666666"
     borderopacity="1.0"
     inkscape:pageshadow="2"
     inkscape:pageopacity="0.0"
     inkscape:pagecheckerboard="0"
     inkscape:document-units="mm"
     showgrid="false"
     inkscape:zoom="0.52347032"
     inkscape:cx="155.69173"
     inkscape:cy="611.30496"
     inkscape:window-width="1920"
     inkscape:window-height="1017"
     inkscape:window-x="-8"
     inkscape:window-y="-8"
     inkscape:window-maximized="1"
     inkscape:current-layer="layer1" />
  <defs
     id="defs1280" />
  <g
     inkscape:label="Capa 1"
     inkscape:groupmode="layer"
     id="layer1">
    <path
       id="La_Florida"
       style="fill:#000000;fill-opacity:1;stroke:#d38d5f;stroke-width:1.83495;stroke-miterlimit:4;stroke-dasharray:none;stroke-opacity:1"
       d="m 203.20063,92.960044 -8.5673,4.65074 -6.36438,0.24448 -10.036,-4.40565 -3.67236,0.48896 -3.91655,3.18234 h -8.07802 l -10.03585,8.567286 -6.60962,-0.73496 -11.01513,-5.140006 v 3.182196 l -6.11945,0.24448 -3.67146,3.18219 -10.03675,0.24448 -10.52602,9.30164 -2.20291,-0.24448 -1.86276,3.09169 h -5.54682 l -3.08166,3.08258 -4.19185,1.35603 -23.29868,-0.49352 -34.11852,-2.68123 -27.9257298,-1.28466 2.85297,2.85298 0.15793,3.3386 1.45473,45.909 h -4.84921 l 3.07164,12.77008 2.48915,8.41832 h -2.91433 l 1.85987,11.96436 h 1.17837 l 11.9351998,-4.21828 8.08273,3.55621 10.34592,-1.29378 -0.32344,-5.81939 31.68222,-6.14314 -12.28536,-18.42759 17.45833,0.32344 6.46597,6.14314 4.33717,-4.61688 c 4.57589,-3.31385 5.58737,-4.06232 11.04353,-5.20409 1.77909,-0.35533 1.80278,-3.11811 2.90992,-3.39494 1.33781,-0.33407 2.65193,-0.4844 4.36512,-0.4844 2.10131,0 1.56482,-0.80785 3.5565,-0.80785 1.92958,0 2.72072,1.04625 4.20339,1.29377 1.86428,0.31129 4.08769,0.64689 5.98157,0.64689 1.34389,0 4.76084,-0.574 5.82,0.4844 0.53148,0.53148 1.84363,1.80582 3.07165,1.45474 1.71227,-0.48897 3.41012,-0.52997 5.17326,-0.97033 0.56489,-0.13667 2.79892,-0.92933 2.58679,-1.77833 2.64054,-1.02044 6.76694,0.0109 10.18496,-0.32345 1.51092,0.18982 2.44571,-0.56184 3.5565,-1.29377 1.2877,-1.90406 2.2433,-3.87888 3.71838,-5.65828 2.36053,-1.65836 4.47263,-2.09569 5.98157,-4.6884 1.58427,-1.93155 1.31807,-4.55812 1.61676,-6.95159 1.49877,-1.72124 3.49258,-2.67866 5.65828,-3.23337 3.71003,0.12148 4.89371,0.22778 4.52668,-3.07165 0.67574,-2.69505 1.01892,-5.42549 1.9399,-8.08318 1.02196,-2.77797 2.21521,-3.83091 5.17327,-3.88011 0.65447,0 2.42506,-1.12066 2.42506,-1.45473 -0.3933,-1.94369 0.007,-3.81283 0.16096,-5.65828 2.66757,-0.23688 5.0325,-1.22088 7.59833,-2.26334 1.37729,-0.27637 3.07924,-1.63559 3.71838,-3.23337 0.62411,-1.56042 3.69742,-0.80784 5.33499,-0.80784 2.95593,-0.45556 4.19625,-2.81441 5.98156,-4.84998 2.28946,-0.63625 4.00827,-1.95873 5.65828,-3.55666 3.59234,-2.51359 0.56641,-7.307676 1.52246,-12.631886 z"
       sodipodi:nodetypes="ccccccccccccccccccccccccccccccccccccccccccsssssssscccccccccccccsccccc" />
  </g>
</svg>
