<?xml version="1.0" encoding="UTF-8" standalone="no"?>
<!-- Created with Inkscape (http://www.inkscape.org/) -->

<svg
   width="210mm"
   height="297mm"
   viewBox="0 0 210 297"
   version="1.1"
   id="svg1283"
   inkscape:version="1.1.2 (b8e25be833, 2022-02-05)"
   sodipodi:docname="vector.svg"
   xmlns:inkscape="http://www.inkscape.org/namespaces/inkscape"
   xmlns:sodipodi="http://sodipodi.sourceforge.net/DTD/sodipodi-0.dtd"
   xmlns="http://www.w3.org/2000/svg"
   xmlns:svg="http://www.w3.org/2000/svg">
  <sodipodi:namedview
     id="namedview1285"
     pagecolor="#ffffff"
     bordercolor="#666666"
     borderopacity="1.0"
     inkscape:pageshadow="2"
     inkscape:pageopacity="0.0"
     inkscape:pagecheckerboard="0"
     inkscape:document-units="mm"
     showgrid="false"
     inkscape:zoom="0.52347032"
     inkscape:cx="155.69173"
     inkscape:cy="611.30496"
     inkscape:window-width="1920"
     inkscape:window-height="1017"
     inkscape:window-x="-8"
     inkscape:window-y="-8"
     inkscape:window-maximized="1"
     inkscape:current-layer="layer1" />
  <defs
     id="defs1280" />
  <g
     inkscape:label="Capa 1"
     inkscape:groupmode="layer"
     id="layer1">
    <path
       d="m 59.114885,81.982993 c -0.47489,0.026 -0.89478,0.15077 -1.19051,0.44646 -0.30551,0.30549 -0.633,0.89912 -1.06029,1.41373 -0.21365,0.25715 -0.45554,0.49579 -0.72547,0.66965 -0.26992,0.17383 -0.56804,0.27905 -0.91148,0.27905 -0.26548,0 -0.50538,0.12079 -0.72546,0.27906 -0.22008,0.15827 -0.40891,0.3656 -0.61386,0.57665 -0.20497,0.21102 -0.41237,0.41835 -0.63246,0.57665 -0.2201,0.15826 -0.45998,0.26031 -0.72547,0.26031 -1.21449,0 -4.149118,0.79009 -4.389991,0.66965 -0.11511,-0.0577 -1.310725,-0.43271 -2.511227,-0.65105 -0.600255,-0.10926 -1.203358,-0.18191 -1.674152,-0.14876 -0.23541,0.0173 -0.442315,0.0554 -0.595253,0.13031 -0.152933,0.0747 -0.241954,0.18651 -0.279027,0.33483 -0.187181,0.74873 -0.509568,1.22517 -0.91148,1.65554 -0.401921,0.43038 -0.881911,0.82613 -1.450931,1.39514 -0.359206,0.35919 -0.749708,0.62897 -1.116101,0.83708 -0.366399,0.20814 -0.725136,0.34092 -1.060297,0.46502 -0.01643,0.006 -0.02104,0.0115 -0.03722,0.0173 0.08245,0.24821 0.280123,0.55531 0.316233,0.78127 0.104386,0.65287 0.02739,1.22744 -0.130217,1.74857 -0.315125,1.04219 -0.960153,1.88743 -1.209106,2.88323 -0.275251,1.10098 -0.558123,1.79135 -0.930086,2.36243 -0.371962,0.57106 -0.836616,1.02262 -1.506736,1.692757 -0.294395,0.29439 -0.501225,0.67645 -0.632456,1.09748 -0.131225,0.42104 -0.195425,0.89555 -0.223216,1.35792 -0.05552,0.92478 0.03722,1.83969 0.03722,2.41821 0,0.20353 -0.03727,0.35485 -0.130216,0.46506 -0.09297,0.11012 -0.242819,0.17008 -0.409234,0.20468 -0.332858,0.0692 -0.792513,0.0173 -1.302124,-0.11157 -1.019213,-0.25541 -2.223886,-0.76988 -3.013472,-0.96726 -0.84457,-0.21131 -1.420053,-0.21506 -1.841566,-0.13031 -0.421506,0.0848 -0.687379,0.25369 -0.930082,0.44643 -0.242704,0.19286 -0.454527,0.40781 -0.76267,0.52087 -0.308143,0.11301 -0.721497,0.13578 -1.33932,-0.0173 -0.661711,-0.16547 -1.226095,-0.26176 -1.748557,-0.29762 -0.522469,-0.036 -0.993493,-0.0202 -1.450931,0.0372 -0.914885,0.11531 -1.78316,0.39463 -2.883262,0.66965 -0.48411,0.12107 -0.874297,0.14154 -1.209112,0.11156 -0.334809,-0.03 -0.615111,-0.11041 -0.837075,-0.24187 -0.443929,-0.26262 -0.700309,-0.69265 -0.911483,-1.06029 -0.211165,-0.36768 -0.381092,-0.68928 -0.651059,-0.76268 -0.134973,-0.0366 -0.279315,-1.4e-4 -0.483639,0.11157 -0.204334,0.11185 -0.45252,0.30373 -0.762673,0.61386 -0.321404,0.32141 -0.703906,0.5358 -1.116101,0.66968 -0.412193,0.13376 -0.85592,0.18709 -1.32072,0.18594 -0.92959,-0.002 -1.9352511,-0.21881 -2.8460571,-0.44643 -0.737191,-0.18421 -1.626295,-0.69513 -2.343814,-1.1533 -0.717519,-0.45819 -1.259552,-0.86363 -1.302114,-0.8743 -0.219929,-0.0551 -0.35987,0.06 -0.44644,0.26032 -0.08657,0.20065 -0.125316,0.49573 -0.167405,0.79987 -0.04209,0.30416 -0.08083,0.61867 -0.167404,0.87429 -0.08657,0.25571 -0.207908,0.44724 -0.42784,0.50225 -0.426445,0.10666 -0.824593,0.23235 -1.171904,0.40921 -0.347309,0.177 -0.660596,0.40855 -0.930083,0.66968 -0.269485,0.26118 -0.495304,0.55234 -0.688264,0.91148 -0.192975,0.35914 -0.347292,0.7753 -0.46504,1.2463 -0.06403,0.25599 0.04376,0.47355 0.241809,0.66967 0.198107,0.19603 0.495806,0.38195 0.781273,0.55806 0.285455,0.17614 0.564568,0.34334 0.762669,0.53946 0.198107,0.19603 0.305834,0.41356 0.24181,0.66964 -0.284619,1.13857 -0.239186,1.80778 -0.297627,2.3624 -0.02923,0.27733 -0.08819,0.51352 -0.223215,0.78127 -0.135031,0.26782 -0.33914,0.56238 -0.688262,0.91149 -0.204765,0.20468 -0.337279,0.4012 -0.40924,0.59527 -0.07196,0.19401 -0.07985,0.39443 -0.03722,0.57665 0.08533,0.36444 0.365027,0.69426 0.799872,1.00448 0.434842,0.31025 1.016544,0.59017 1.65555,0.83708 0.639002,0.24677 1.348363,0.45799 2.046181,0.63246 1.316722,0.32916 2.197341,0.47411 2.864665,0.76268 0.333656,0.14414 0.598681,0.31091 0.855674,0.57665 0.257002,0.26579 0.506616,0.6226 0.744064,1.09748 0.147657,0.29531 1.3051931,0.82376 2.5112301,1.32073 1.206039,0.49697 2.452893,0.96603 2.753051,1.11611 0.897562,0.44876 1.460205,0.80669 1.971776,1.2277 0.511571,0.421 0.968173,0.89378 1.674152,1.59975 0.271705,0.27156 0.438121,0.52776 0.520846,0.78127 0.08274,0.2534 0.08138,0.50464 0.01845,0.78127 -0.125547,0.55324 -0.501955,1.20853 -0.948686,2.10197 -0.09678,0.19344 -0.115802,0.37128 -0.093,0.53946 0.02277,0.16807 0.08677,0.31725 0.204622,0.46505 0.235698,0.29558 0.647348,0.55601 1.116101,0.79987 0.9375,0.48768 2.135004,0.91298 2.827456,1.43232 0.865526,0.64915 1.38934,1.11657 1.990382,1.48813 0.601036,0.37157 1.282797,0.65088 2.474022,0.94871 0.234141,0.0585 0.523194,0.34959 0.837074,0.76267 0.313883,0.41305 0.664556,0.93778 1.004491,1.48813 0.679875,1.10072 1.342341,2.2577 1.804363,2.60422 0.370991,0.27819 0.879466,0.53559 1.450931,0.76267 0.571473,0.22717 1.208363,0.44044 1.841565,0.63246 1.26642,0.38408 2.518561,0.70124 3.199494,1.0417 1.242594,0.62128 1.960242,1.25549 2.715843,1.82297 0.377806,0.28367 0.757184,0.5597 1.22771,0.79987 0.470531,0.24014 1.02371,0.45588 1.729957,0.63246 0.374425,0.0937 0.700093,0.28078 0.985891,0.53946 0.285802,0.25858 0.541861,0.57809 0.76267,0.93008 0.44162,0.70392 0.77405,1.5295 1.097496,2.17637 0.264699,0.52937 0.536582,0.95917 0.837077,1.32073 0.300498,0.36156 0.628314,0.65316 0.985891,0.89289 0.715141,0.47947 1.570475,0.75535 2.641438,1.02308 0.362034,0.0905 0.672573,0.38759 0.948688,0.78127 0.27612,0.39368 0.50913,0.89168 0.70687,1.41373 0.39547,1.04412 0.65402,2.16966 0.78127,2.67864 0.0887,0.35485 0.36448,0.70834 0.74406,1.04171 0.37959,0.33336 0.86502,0.64309 1.37653,0.93008 1.023,0.57393 2.13745,1.0261 2.73445,1.26491 0.61974,0.24792 1.1428,0.57945 1.59974,0.93008 0.45694,0.35064 0.84479,0.73535 1.24631,1.07889 0.40153,0.34358 0.8114,0.6476 1.26492,0.8743 0.45352,0.22659 0.94964,0.37203 1.56254,0.37203 0.8614,0 1.58622,0.12598 2.2322,0.31621 0.64599,0.18998 1.2266,0.43482 1.80436,0.68827 0.57777,0.2534 1.14763,0.51677 1.80436,0.70687 0.65675,0.18997 1.40512,0.31621 2.28801,0.31621 1.99065,3e-5 4.73168,0.40924 7.29186,0.40924 0.72961,0 1.40551,0.0721 2.04619,0.18595 0.64068,0.11415 1.2356,0.25714 1.84157,0.40924 0.60596,0.15221 1.21611,0.31376 1.84156,0.42784 0.62546,0.11415 1.27263,0.18594 1.97178,0.18594 0.83141,0 1.50603,0.0574 2.06479,0.18594 0.55875,0.12857 1.00016,0.32841 1.35792,0.61386 0.35776,0.2854 0.64585,0.66443 0.87428,1.1347 0.22843,0.47025 0.40588,1.02827 0.57665,1.71135 0.0957,0.38287 0.47008,0.80263 1.00449,1.2277 0.53442,0.42507 1.22258,0.85666 1.91598,1.24633 1.38679,0.77936 2.81786,1.40894 3.16228,1.58113 1.01595,0.50798 2.22143,0.92284 3.385505,1.30213 1.16407,0.37927 2.29018,0.72656 3.10648,1.13471 0.36518,0.18248 0.83579,0.29975 1.37652,0.37202 0.54073,0.0724 1.13762,0.10667 1.74856,0.11157 1.22188,0.0115 2.47761,-0.0744 3.3483,-0.0744 0.30672,0 1.63253,-0.49731 2.92047,-1.09748 0.64397,-0.30007 1.28089,-0.62289 1.78576,-0.93008 0.50487,-0.3072 0.87637,-0.59945 0.98589,-0.81849 0.13056,-0.26118 0.79683,-0.83783 1.50674,-1.41373 0.7099,-0.57587 1.45585,-1.13963 1.72995,-1.41373 0.16337,-0.16345 0.38202,-0.27761 0.65106,-0.33481 0.26905,-0.0574 0.58401,-0.0579 0.93009,-0.0372 0.69214,0.0415 1.51525,0.20641 2.34381,0.39065 0.82855,0.18421 1.66364,0.38237 2.39961,0.48364 0.73598,0.10119 1.37136,0.0957 1.78577,-0.11156 0.24178,-0.12079 0.54811,0 0.81847,0 0.2532,0 0.46372,-0.16173 0.68826,-0.42784 0.22452,-0.26608 0.4613,-0.63104 0.76265,-0.98589 0.3014,-0.35484 0.66955,-0.70115 1.15332,-0.96727 0.48378,-0.26608 1.0699,-0.44646 1.84157,-0.44646 0.31747,0 0.54371,-0.1796 0.70688,-0.39062 0.16311,-0.21102 0.26542,-0.46537 0.39064,-0.61386 0.12517,-0.14847 0.26144,-0.18738 0.46502,0 0.20364,0.18738 0.47591,0.61698 0.8743,1.41373 0.12093,0.24186 0,0.52951 0,0.79986 0,0.16749 0.33315,0.47768 0.83707,0.83708 0.50387,0.3594 1.19178,0.7689 1.87874,1.17192 1.37403,0.806 2.77613,1.54616 2.95767,1.63694 0.34465,0.17239 0.54465,0.46428 0.65107,0.81849 0.10643,0.35418 0.12212,0.77161 0.13019,1.20911 0.008,0.43746 0.006,0.89854 0.0558,1.3207 0.0497,0.42215 0.15945,0.80784 0.39063,1.1161 0.65862,0.87819 1.38179,1.70732 2.13918,2.51124 0.75744,0.8039 1.55261,1.58981 2.32523,2.36241 0.76965,0.76965 1.47542,1.36697 2.19497,1.93456 0.71961,0.56763 1.45645,1.10167 2.26943,1.71138 0.53372,0.40028 1.11599,1.09284 1.58113,1.69273 0.46517,0.59991 0.79817,1.1144 0.83706,1.15332 0.18132,0.18133 0.28963,0.34461 0.33483,0.50224 0.0453,0.15769 0.0346,0.30105 -0.0173,0.44643 -0.1058,0.29079 -0.36223,0.56365 -0.63243,0.87427 -0.27012,0.31065 -0.55754,0.65676 -0.68824,1.07892 -0.0654,0.21102 -0.1009,0.45073 -0.0744,0.70687 0.0259,0.25599 0.12281,0.52441 0.27905,0.83708 0.15395,0.30765 0.33934,0.57615 0.57668,0.79986 0.23726,0.2237 0.51499,0.40532 0.81843,0.55805 0.60706,0.30546 1.33396,0.49561 2.10203,0.59524 1.53613,0.19921 3.26241,0.0744 4.61324,0.0744 0.63159,0 1.15113,-0.0836 1.59969,-0.22313 0.44863,-0.13981 0.82235,-0.32633 1.17189,-0.53946 0.6992,-0.42622 1.27668,-0.94221 2.08344,-1.26489 0.63557,-0.25426 1.17134,-0.43859 1.637,-0.55805 0.46551,-0.11935 0.86447,-0.15827 1.24624,-0.11156 0.38179,0.0467 0.75033,0.18363 1.13473,0.42783 0.38439,0.24418 0.79182,0.58723 1.26494,1.0603 0.33075,0.3308 0.58579,0.70842 0.79984,1.1347 0.21419,0.42628 0.3822,0.90255 0.50224,1.39513 0.24014,0.98517 0.31621,2.06845 0.31621,3.14368 0,0.40477 -0.26002,0.80758 -0.39059,1.35794 -0.0652,0.27502 -0.10464,0.59052 -0.0559,0.96727 0.049,0.37678 0.18536,0.79891 0.44646,1.32073 0.42945,0.85902 1.21375,1.94805 2.15781,2.88327 0.472,0.46759 0.9796,0.89932 1.50667,1.24629 0.52715,0.347 1.06672,0.61081 1.59975,0.74408 0.34505,0.0862 0.59524,0.20641 0.76271,0.35343 0.16749,0.14703 0.26262,0.31498 0.31618,0.50225 0.10724,0.3745 0.0418,0.81459 0.0744,1.2277 0.0173,0.20669 0.0559,0.4097 0.14875,0.59527 0.0931,0.18565 0.25023,0.3581 0.48368,0.50224 0.23351,0.14414 0.5486,0.25253 0.98589,0.33481 0.43729,0.0822 0.98808,0.1303 1.69278,0.1303 0.40449,0 0.75527,0 1.19057,0 -0.10551,-0.0669 -0.65065,-0.28655 -0.65108,-0.31621 -0.0115,-0.62402 1.67191,-1.44605 3.99938,-2.04619 1.83084,-0.47209 4.32767,-0.89061 4.89226,-0.37203 2.01183,1.84811 5.08954,3.61173 8.16613,2.25081 1.42448,-0.63012 2.4136,-2.03826 3.64588,-2.26943 2.39948,-0.45015 3.19669,1.42941 6.13857,-4.52021 0.92538,-1.87143 1.13375,-3.24445 0.98591,-4.44578 -0.14298,0 -0.28482,0 -0.42786,0 -0.84192,0 -1.54746,0.15135 -2.13916,0.39062 -0.59204,0.23928 -1.07503,0.574 -1.48816,0.89289 -0.41319,0.3189 -0.75478,0.63512 -1.0603,0.87427 -0.30555,0.23928 -0.568,0.39065 -0.83708,0.39065 -0.85074,0 -1.5598,0.10349 -2.15775,0.22313 -0.59807,0.11964 -1.10287,0.2632 -1.58119,0.31622 -0.47829,0.0533 -0.92224,0.0144 -1.4137,-0.18594 -0.4916,-0.19921 -1.01812,-0.57135 -1.65557,-1.20911 -0.90125,-0.90128 -1.74764,-1.53239 -2.58561,-2.15781 -0.83804,-0.62543 -1.66243,-1.23433 -2.51125,-2.08338 -0.90681,-0.90681 -1.74712,-1.68448 -2.62283,-2.38102 -0.87574,-0.69654 -1.80262,-1.31978 -2.92043,-1.87875 -0.67518,-0.33758 -1.06583,-0.69459 -1.30216,-1.09752 -0.23668,-0.40293 -0.30938,-0.83843 -0.33484,-1.3021 -0.0259,-0.4637 -0.0144,-0.96828 -0.0559,-1.48817 -0.0418,-0.51985 -0.14242,-1.06548 -0.42781,-1.63694 -0.43277,-0.86533 -0.92469,-2.01831 -1.54403,-3.06927 -0.30959,-0.52547 -0.64604,-1.02495 -1.023,-1.45094 -0.37718,-0.42597 -0.80655,-0.77525 -1.26494,-1.00449 -0.41888,-0.27934 -2.75628,-2.65232 -3.40417,-2.97626 -0.4519,-0.22602 -0.65609,-0.52021 -0.76264,-0.83708 -0.10667,-0.31688 -0.1009,-0.65267 -0.11157,-0.9859 -0.0115,-0.33319 -0.0398,-0.65514 -0.20468,-0.93007 -0.1646,-0.27502 -0.47355,-0.50902 -1.0417,-0.65106 -0.44923,-0.11243 -0.82837,-0.34493 -1.15326,-0.65105 -0.3249,-0.30613 -0.58942,-0.68227 -0.81849,-1.11611 -0.45811,-0.86767 -0.75901,-1.91995 -1.00451,-2.90186 -0.21103,-0.84455 -0.44984,-1.8868 -0.465,-2.88327 -0.009,-0.49823 0.0473,-0.9807 0.18594,-1.43232 0.1378,-0.45162 0.35822,-0.86052 0.70683,-1.20911 0.32893,-0.32921 0.61644,-0.69746 0.83709,-1.07889 0.22053,-0.38145 0.3803,-0.77786 0.44643,-1.22773 0.066,-0.44986 0.0418,-0.95371 -0.0931,-1.48813 -0.13491,-0.53441 -0.38165,-1.1134 -0.76273,-1.74857 -0.45716,-0.76186 -0.98246,-1.59056 -1.45095,-2.4554 -0.46842,-0.86484 -0.87718,-1.7603 -1.09745,-2.64145 -0.27589,-1.1021 -0.48872,-2.01215 -0.63243,-2.93905 -0.14414,-0.92691 -0.22313,-1.87048 -0.22313,-3.01349 -3.5e-4,-1.27622 0.0683,-2.5023 0,-3.70172 -0.0346,-0.59971 -0.0894,-1.19928 -0.22313,-1.78576 -0.13405,-0.58648 -0.34389,-1.17134 -0.63246,-1.74856 -0.34426,-0.68781 -1.28769,-1.55162 -2.10205,-2.45543 -0.4072,-0.45191 -0.77663,-0.9121 -1.02308,-1.35792 -0.24648,-0.44583 -0.37898,-0.88384 -0.27906,-1.28351 0.22399,-0.8965 0.2583,-1.46597 0.16749,-1.86016 -0.0911,-0.39423 -0.30794,-0.61456 -0.5767,-0.76268 -0.26868,-0.14817 -0.58371,-0.23235 -0.89287,-0.39065 -0.30912,-0.15826 -0.60628,-0.39405 -0.81845,-0.81845 -0.27041,-0.54085 -1.03865,-1.35178 -1.78576,-2.102 -0.74716,-0.75022 -1.47582,-1.42627 -1.61835,-1.71135 -0.37321,-0.74648 -0.78078,-1.76414 -1.37654,-2.45543 -0.29788,-0.34565 -0.64093,-0.61323 -1.0417,-0.72546 -0.4008,-0.11214 -0.85991,-0.0631 -1.39513,0.20468 -0.20526,0.10263 -0.58556,0.2188 -1.02308,0.31621 -0.4375,0.0974 -0.9492,0.17297 -1.45092,0.16749 -0.50175,-0.006 -0.97851,-0.0911 -1.37657,-0.29765 -0.19891,-0.1032 -0.37923,-0.23725 -0.52081,-0.40921 -0.14154,-0.17181 -0.25311,-0.37978 -0.31624,-0.63246 -0.13895,-0.55543 -0.33273,-0.96306 -0.57665,-1.26492 -0.24388,-0.30185 -0.53026,-0.50443 -0.85564,-0.61386 -0.32547,-0.10955 -0.69574,-0.13347 -1.07895,-0.11157 -0.38321,0.0231 -0.79171,0.094 -1.20908,0.18595 -0.83477,0.18421 -1.70031,0.44109 -2.52985,0.53946 -0.41475,0.0493 -0.83111,0.064 -1.20907,0 -0.37803,-0.064 -0.72413,-0.18969 -1.04172,-0.42784 -0.17585,0.0438 -0.26752,0.15567 -0.33483,0.29762 -0.0673,0.14183 -0.11747,0.31062 -0.186,0.42784 -0.0686,0.11733 -0.15529,0.17902 -0.33483,0.14875 -0.17957,-0.0303 -0.43678,-0.1649 -0.83707,-0.46503 -1.41053,-1.05787 -2.48456,-1.84594 -3.57153,-2.56705 -1.08702,-0.7211 -2.19475,-1.36708 -3.66454,-2.102 -1.02096,-0.51046 -1.60619,-0.81283 -1.9346,-1.02308 -0.32841,-0.21015 -0.40872,-0.33094 -0.39064,-0.46505 0.0179,-0.13405 0.13025,-0.27617 0.14884,-0.55805 0.0185,-0.28194 -0.0452,-0.7039 -0.37205,-1.35792 -0.41312,-0.82627 -0.66765,-1.14295 -0.85566,-1.20911 -0.18802,-0.0663 -0.30983,0.12108 -0.46502,0.33484 -0.15524,0.2139 -0.33628,0.45145 -0.65108,0.46505 -0.15743,0.006 -0.36189,-0.0528 -0.59527,-0.18594 -0.23336,-0.13318 -0.50369,-0.33628 -0.83707,-0.66967 -0.86997,-0.86998 -1.31082,-1.25281 -1.84157,-1.48811 -0.53075,-0.23523 -1.15922,-0.33633 -2.41821,-0.65108 -1.84186,-0.46044 -1.44654,-0.3769 -0.94869,-0.27905 0.24893,0.049 0.52345,0.0943 0.55805,0.0931 0.0346,-10e-4 -0.1617,-0.0637 -0.87428,-0.24187 -1.00364,-0.2508 -1.91459,-0.46468 -3.40411,-0.83708 -1.04718,-0.26176 -2.41057,-0.3777 -3.57152,-0.68824 -0.58048,-0.15538 -1.10635,-0.35464 -1.52534,-0.65108 -0.41899,-0.29644 -0.72478,-0.6855 -0.85568,-1.20911 -0.19078,-0.76308 -0.40602,-1.26598 -0.65105,-1.61832 -0.24504,-0.35236 -0.52602,-0.5575 -0.83708,-0.72549 -0.31106,-0.16806 -0.65285,-0.31085 -1.0417,-0.52083 -0.38884,-0.21016 -0.82374,-0.48893 -1.30211,-0.9673 -0.3195,-0.31947 -0.7039,-0.55243 -1.1161,-0.72546 -0.41221,-0.17297 -0.8477,-0.29231 -1.28352,-0.40924 -0.43582,-0.11704 -0.87455,-0.22082 -1.26491,-0.37203 -0.39037,-0.15106 -0.72869,-0.33803 -1.00449,-0.61386 -0.57833,-0.57832 -0.93494,-1.26708 -1.33933,-1.99038 -0.40439,-0.72329 -0.85645,-1.48891 -1.63694,-2.2694 -0.32677,-0.32677 -0.72284,-0.59282 -1.13471,-0.83708 -0.411855,-0.24417 -0.853515,-0.47474 -1.264905,-0.68827 -0.41139,-0.213617 -0.79078,-0.416507 -1.1161,-0.651047 -0.32533,-0.23466 -0.5904,-0.49253 -0.74407,-0.79987 -0.71211,-1.42425 -0.8482,-2.00998 -0.94869,-2.52983 -0.10049,-0.51986 -0.15731,-0.98431 -0.74406,-2.15778 -0.30363,-0.60727 -0.59683,-0.99296 -0.89288,-1.24633 -0.29606,-0.2534 -0.59679,-0.36173 -0.96729,-0.42783 -0.74101,-0.13232 -1.72421,-0.0637 -3.2553,-0.44644 -0.66969,-0.16749 -1.25919,-0.16259 -1.80436,-0.0744 -0.54517,0.0882 -1.04616,0.26377 -1.46953,0.46502 -0.84675,0.40262 -1.44697,0.8929 -1.82297,0.8929 -1.05416,0 -2.92942,-0.043 -4.59461,-0.0372 -1.66519,0.006 -3.11547,0.0649 -3.2925,0.24186 -0.0926,-0.29009 -0.13693,-0.51215 -0.18603,-0.74408 -0.12811,0.0259 -0.24728,0.0259 -0.29762,-0.0744 -0.2276,-0.45523 -0.32287,-0.82031 -0.35343,-1.1347 -0.0305,-0.31437 0.004,-0.58363 0.0372,-0.85568 0.0329,-0.27214 0.0561,-0.54612 0.0185,-0.87427 -0.0375,-0.32818 -0.13065,-0.70773 -0.37203,-1.19051 -0.34368,-0.68735 -0.5945,-1.75992 -0.96729,-2.71583 -0.18641,-0.47797 -0.40744,-0.9274 -0.68827,-1.28355 -0.28081,-0.35614 -0.62694,-0.61712 -1.06029,-0.72545 -1.4168,-0.35418 -3.56923,-0.9016 -5.39449,-1.35792 -0.58512,-0.14616 -1.74638,0.0323 -2.77165,0.24187 -1.02528,0.20958 -1.91168,0.46303 -1.95318,0.44646 -0.55744,-0.22284 -1.61509,-0.68772 -2.67864,-0.94871 -0.53178,-0.13059 -1.06904,-0.21303 -1.54394,-0.18594 z"
       style="fill:#000000;fill-opacity:1;fill-rule:evenodd;stroke:#d39062;stroke-width:0.297627;stroke-linecap:butt;stroke-linejoin:miter;stroke-miterlimit:4;stroke-dasharray:none;stroke-opacity:1"
       id="Coihueco"
       inkscape:connector-curvature="0" />
  </g>
</svg>
