<?xml version="1.0" encoding="UTF-8" standalone="no"?>
<!-- Created with Inkscape (http://www.inkscape.org/) -->

<svg
   width="210mm"
   height="297mm"
   viewBox="0 0 210 297"
   version="1.1"
   id="svg64"
   inkscape:version="1.1.2 (b8e25be833, 2022-02-05)"
   sodipodi:docname="vector.svg"
   xmlns:inkscape="http://www.inkscape.org/namespaces/inkscape"
   xmlns:sodipodi="http://sodipodi.sourceforge.net/DTD/sodipodi-0.dtd"
   xmlns="http://www.w3.org/2000/svg"
   xmlns:svg="http://www.w3.org/2000/svg">
  <sodipodi:namedview
     id="namedview66"
     pagecolor="#ffffff"
     bordercolor="#666666"
     borderopacity="1.0"
     inkscape:pageshadow="2"
     inkscape:pageopacity="0.0"
     inkscape:pagecheckerboard="0"
     inkscape:document-units="mm"
     showgrid="false"
     inkscape:zoom="0.74029882"
     inkscape:cx="361.34057"
     inkscape:cy="453.87078"
     inkscape:window-width="1920"
     inkscape:window-height="1017"
     inkscape:window-x="-8"
     inkscape:window-y="-8"
     inkscape:window-maximized="1"
     inkscape:current-layer="layer1" />
  <defs
     id="defs61" />
  <g
     inkscape:label="Capa 1"
     inkscape:groupmode="layer"
     id="layer1">
    <path
       sodipodi:nodetypes="ccccccscccccccccccscccccccccccccccccc"
       d="m 187.69836,200.16501 c 0.19542,-8.62307 -0.0113,-10.06621 10.85975,-16.28955 3.15774,-14.61147 6.65184,-15.72881 8.84858,-24.43432 3.57598,-7.54952 -6.934,-4.45112 -7.44096,-21.11611 -7.13912,-14.23145 -7.993,-24.26585 -14.98234,-28.45649 3.74801,-4.45768 3.68995,-9.76894 -0.70324,-14.278529 -4.39377,-4.5096 -8.74403,1.24957 -12.98289,1.06556 -4.23871,-0.18544 -7.9676,-2.53367 -11.48938,-4.67664 -4.78847,-3.84629 -10.73279,-1.39792 -16.19226,-1.41219 -6.62232,2.21457 -10.87972,-3.05632 -16.1519,-5.38315 -7.00946,0.6205 -13.20056,-2.80912 -18.85246,-6.52133 -5.98041,-1.26954 -2.95547,-6.16157 -6.87551,-9.41332 -2.98771,-4.29791 -10.48416,-5.87286 -10.31941,-11.90291 0.29528,-5.79583 -0.53349,6.77623 -3.66941,6.25087 -6.455,0.96 -6.89791,3.13321 -9.86137,7.77161 -6.35885,-0.30954 -9.82243,5.70953 -16.2041,5.48173 -5.75062,0.18401 -12.88617,0.60053 -16.42335,-4.95038 -3.31837,3.70537 -8.60695,6.03748 -14.06485,5.00886 -6.09196,0.58199 -12.94451,-1.26099 -18.55562,1.36226 -5.6112404,2.62368 -1.85867,-2.20073 -8.2948304,3.4613 -6.436169,5.66203 4.87305,14.07241 -2.2006,18.396279 -1.61188996,5.83506 7.32014,12.59217 2.73537,14.95139 9.4885004,3.10896 -0.48927,18.74219 13.4292204,18.34735 3.71678,1.64256 10.48702,0.66188 3.53505,4.25497 6.19523,10.27747 22.9217,16.2014 15.23026,30.428 -5.64948,6.43303 15.13982,9.56225 2.44209,14.55142 1.5584,8.56857 4.15341,15.27491 13.79011,17.10676 2.4361,6.23946 11.56841,10.26905 14.39664,11.76027 -14.07526,7.18705 13.31268,11.96111 8.32722,18.33765 l 0.55489,10.09688 c 0,0 15.90241,-8.75929 12.56222,-2.66048 3.78139,-5.66631 9.90231,-12.61885 14.82872,-3.84302 6.93,1.6651 14.59107,-8.75144 22.26625,-8.8968 9.16783,-2.73708 3.02936,-9.2266 12.40859,-12.21174 8.89623,-6.7992 11.10025,8.06047 19.35671,6.5975 4.90544,-2.29945 17.13558,-5.50084 17.82898,-7.21287 z"
       style="fill:#000000;fill-opacity:1;fill-rule:evenodd;stroke:#d38d5f;stroke-width:3.77416;stroke-linecap:butt;stroke-linejoin:miter;stroke-miterlimit:4;stroke-opacity:1"
       id="Olmue" />
  </g>
</svg>
