<?xml version="1.0" encoding="UTF-8" standalone="no"?>
<!-- Created with Inkscape (http://www.inkscape.org/) -->

<svg
   width="210mm"
   height="297mm"
   viewBox="0 0 210 297"
   version="1.1"
   id="svg1283"
   inkscape:version="1.1.2 (b8e25be833, 2022-02-05)"
   sodipodi:docname="vector.svg"
   xmlns:inkscape="http://www.inkscape.org/namespaces/inkscape"
   xmlns:sodipodi="http://sodipodi.sourceforge.net/DTD/sodipodi-0.dtd"
   xmlns="http://www.w3.org/2000/svg"
   xmlns:svg="http://www.w3.org/2000/svg">
  <sodipodi:namedview
     id="namedview1285"
     pagecolor="#ffffff"
     bordercolor="#666666"
     borderopacity="1.0"
     inkscape:pageshadow="2"
     inkscape:pageopacity="0.0"
     inkscape:pagecheckerboard="0"
     inkscape:document-units="mm"
     showgrid="false"
     inkscape:zoom="0.74029882"
     inkscape:cx="361.34057"
     inkscape:cy="561.93525"
     inkscape:window-width="1920"
     inkscape:window-height="1017"
     inkscape:window-x="-8"
     inkscape:window-y="-8"
     inkscape:window-maximized="1"
     inkscape:current-layer="layer1" />
  <defs
     id="defs1280" />
  <g
     inkscape:label="Capa 1"
     inkscape:groupmode="layer"
     id="layer1">
    <path
       d="m 134.2291,87.035797 c -2.74333,1.03097 -2.34182,4.71529 -5.22875,4.6021 -2.66705,1.39175 -4.25747,1.604 -6.26062,3.13294 -1.5175,1.90129 -2.2698,4.37067 -5.57102,3.05936 -3.03086,-2.1021 -4.47735,0.66637 -7.03996,1.19531 -1.74849,1.241203 -1.80985,4.169413 -2.42922,6.539733 -0.52389,2.0902 -0.96029,5.40679 -1.32511,8.02818 -0.94794,1.94627 -3.1685,2.62116 -2.78551,5.89916 -3.88592,2.46859 2.48632,2.96792 2.78551,2.7854 2.27688,2.38872 -2.77048,0.67647 -3.75432,1.93774 -0.92327,2.04006 -2.00719,3.91947 -1.81659,7.07339 -0.47117,2.33532 -1.62722,3.60445 0,5.52873 -0.53624,2.58347 4.52907,3.45828 3.1417,5.07955 -1.2071,-1.23873 -5.31693,-1.12071 -5.07944,-4.72314 -3.80235,1.70687 -3.964,-4.77049 -5.57092,-1.32522 -1.42033,-1.77362 -5.01662,1.77653 -6.06242,-0.49137 -1.73503,0.83689 -4.29598,2.06922 -5.07947,4.24581 -2.51274,-0.16267 -5.10185,1.94929 -4.60208,5.10759 1.04398,2.55689 3.13896,3.77307 5.09353,5.54287 2.78867,1.40532 4.94109,-0.45995 8.16338,0 0.31726,1.20025 6.05539,2.27373 3.45588,3.75433 -0.9401,-2.11354 -4.04785,-2.05913 -7.22262,-1.93774 1.49244,0.58784 -0.97117,6.55386 2.64867,5.57091 1.81946,2.13743 -3.78322,0.221 -3.78244,-1.33925 -0.31243,-1.35674 0.0594,-4.39153 -3.41208,-4.23166 -0.70743,-1.73918 -4.08064,-2.54118 -4.94432,-4.24581 -2.08176,-1.91003 -2.5564,-3.67243 -2.78546,-6.56789 -0.78372,-2.17018 -3.90337,-2.0046 -6.71712,-2.14483 -2.65187,-0.26475 -2.82899,-0.68095 -5.39359,-2.42911 -2.6195,-0.96477 -2.37669,-0.91092 -5.2287,-2.29403 -2.76693,-0.91991 -4.63573,3.55127 -3.12771,3.75433 -2.7366,2.82096 -0.6952,2.43841 -1.93771,5.72011 1.77817,1.4244 -1.81419,3.91857 -1.8166,5.92721 -2.73419,1.92002 0.50628,4.18635 1.8166,5.06542 3.29907,1.31108 0.83521,3.91351 0.96882,6.53984 -1.98036,1.70844 -1.41076,2.38277 -1.81661,5.73414 -3.32248,3.51582 0.73323,-3.79573 -2.58497,-2.209 -2.33806,0.3186 -4.84778,4.22964 -3.46336,5.8001 0.44795,1.36168 1.67271,6.71967 -0.98295,7.3875 -0.74288,-2.16144 -1.68309,-4.12532 -1.32515,-7.3875 1.33407,-1.61993 2.01713,-3.89086 1.8166,-7.04534 -0.36078,-3.1519 4.31022,-1.58796 5.57094,-3.74019 2.49795,-1.54376 -0.21259,-4.59717 -1.81661,-5.07955 -0.58055,-2.40903 -1.71145,-4.2678 -4.72318,-4.2457 -0.20372,-5.00113 -1.89945,0.11219 -4.37294,0.29056 2.673,1.0433 1.3338,3.16985 2.55633,4.92373 3.18317,1.41272 -3.66856,3.6942 0.96882,4.2458 2.12804,2.79841 -0.12228,4.94661 0,7.5367 -0.63619,2.8369 -1.85375,4.55431 -2.42917,6.74682 -0.2044,2.60984 -1.91702,4.06373 -2.29402,7.1665 -0.12217,3.01268 -1.58405,3.73122 -2.51163,6.60816 0.26408,3.5487 -2.28257,3.60142 -3.05929,5.84475 -1.27425,2.01235 -3.25636,3.82994 -4.60208,5.57092 -3.30425,1.01638 -5.73807,-1.64854 -7.50865,0 -0.93818,3.82085 2.45711,1.97992 4.72318,1.81658 1.39315,1.5322 3.76059,-1.87952 5.89456,0.37021 1.36051,2.53893 4.71541,0.54858 7.06391,2.41564 3.32407,-0.884 -0.49215,-4.09054 3.90354,-3.63328 3.56782,-0.99843 4.80611,1.86808 7.38754,1.8167 1.80984,1.06686 3.63952,1.96803 6.40462,2.7854 2.37684,0.84586 4.82551,1.45098 7.03125,0 3.30068,-0.91654 4.87969,2.19857 8.0001,1.81658 3.57487,-0.5755 4.28212,1.71596 8.02821,0.96927 3.15073,0.7449 4.27295,-0.68432 6.24136,0.96926 2.31425,0.59009 6.97795,-1.16951 7.86498,0.84811 2.88917,0.70451 4.78642,0.97487 6.53973,-0.84811 1.65628,1.45738 5.2559,0.85372 7.04534,0 1.94907,-0.46444 3.7946,0.0449 5.06542,-2.4291 2.76935,0.22548 1.45311,-4.92743 3.75432,-5.57092 1.6638,-2.62744 2.73088,-4.11881 5.59908,-4.11062 1.85966,-0.34665 4.22291,-3.18231 6.39052,-0.96926 3.18657,-0.19633 6.03906,-0.0561 7.50866,1.46029 1.81187,2.46848 5.02334,0.48912 6.55386,-0.49137 3.65651,1.11286 4.38727,-3.17434 6.2614,-5.35148 3.38716,-5.55218 7.49823,-10.89087 10.43732,-16.57599 4.28697,-7.54354 9.72013,-14.74 14.44832,-22.15004 4.65393,-6.90702 8.74503,-14.17471 13.40636,-21.07825 0.92663,-1.99058 2.75533,-2.98553 5.41812,-4.4493 2.22067,-1.17019 2.62711,-2.52446 5.25164,-4.37235 1.82937,-1.39388 3.62823,-2.40992 5.19521,-4.13676 1.75107,-0.709 3.97365,-3.34822 7.05948,-2.78551 0.39937,-2.29572 -2.9594,-2.14338 -4.27397,-0.96927 -2.74804,-1.3306 -2.23592,-2.10624 -2.78551,-4.73728 -1.78136,-2.60097 -2.71102,2.58718 -6.22562,0.98273 -4.10355,-1.21337 -4.16985,1.61051 -4.91621,3.75433 -1.97644,2.01448 -4.70833,0.40162 -5.57091,-1.46029 -3.01706,-0.0337 -3.25982,-2.15201 -6.06239,-3.14181 -2.13384,1.53377 -2.27037,-2.86707 -4.92676,-3.48049 -1.54543,-1.74591 -2.45188,-3.42956 -4.87593,-4.02817 0.83688,-3.786183 -3.81379,-2.0847 -5.57092,-3.276873 1.6233,-1.17019 -0.89634,-3.74311 -0.96926,-4.6021 -0.24456,-2.70014 0.94458,-6.83331 -1.81659,-7.01718 0.71237,3.49642 -2.05845,4.76555 -2.78551,6.53984 -1.95053,1.76274 -6.04444,1.54981 -7.50866,-0.96926 -2.02704,-1.20799 -2.40005,-4.16605 -4.61612,-4.60199 -3.56518,0.57101 -5.31278,-0.67647 -8.01415,-0.96926 -2.65437,0.67646 -1.63418,-1.41677 -4.08247,-0.84811 z m -106.9377,0.84811 c 1.99226,1.87548 -3.27931,4.42148 0,6.06239 -1.00864,1.93594 -2.88401,3.00516 -4.60206,4.23178 0.0191,1.18106 -5.01637,-0.9042 -5.57094,1.830613 -0.69699,1.59109 -3.33175,4.06608 -4.72317,2.77137 -2.7358195,-1.9162 -3.6957395,0.59009 -5.5709405,0.4779 -3.157053,-2.24591 -4.002915,1.9944 -3.406806,3.62442 3.561249,0.15818 3.839419,3.15135 3.406806,6.38369 1.287506,0.81557 1.685371,5.97959 0,6.71866 0.980707,3.91194 -2.792333,3.24984 -1.325143,5.07955 2.762234,0.94234 -2.020849,4.48722 3.141764,3.75433 1.10904,-1.42395 0.57404,-5.92845 4.7231795,-4.6021 1.04936,-2.84452 -3.0666,-6.61343 1.8166,-5.57091 0.9521,-2.15583 5.81632,-0.39938 8.35477,-0.96927 1.15643,1.90588 3.68795,1.49137 5.41982,3.48038 1.86938,2.84284 3.77669,2.57662 4.87592,5.36741 1.41501,1.48923 3.88549,1.92294 3.63321,5.07944 3.9203,-0.6372 4.82964,1.50628 7.1664,0 1.50854,2.44492 1.20155,5.14865 4.09657,1.93774 -1.76077,-0.9917 3.06525,-3.85989 0.84777,-5.69207 -3.01274,-0.71573 -4.6372,2.72 -6.41867,0.96926 -1.37561,-1.77418 -3.15939,-4.65291 0,-1.81658 1.99431,2.34889 4.61397,-2.36931 2.24316,-3.32781 -1.01436,-3.05733 -0.12856,-6.90163 -0.42652,-10.25569 1.4385,-2.89029 2.21698,-2.49686 0.96881,-5.55846 -0.0684,-3.14327 -1.3879,-3.79786 -3.15532,-6.37201 -1.34157,-2.421713 2.34868,-5.144733 -3.07034,-4.278453 -0.61342,-2.32186 -0.4484,-5.42205 -2.26589,-6.53984 -3.39139,0.43751 -2.33049,-3.57731 -6.07644,-2.78541 -1.36085,0 -2.72167,0 -4.08251,0 z M 7.7931505,128.81816 c -2.073025,1.11286 0.377945,1.74209 0,0 z M 92.44708,101.81125 c -0.46971,3.39085 -2.01236,2.84912 -1.93773,6.19757 0.1077,3.15448 -2.40963,4.91127 -5.57092,4.0966 -0.26834,-2.38771 -1.20244,-4.81413 -4.60209,-4.6021 -0.66311,0.11779 -2.99905,1.47364 -4.72318,1.32511 -1.87622,0.0336 -3.50759,1.72998 -5.57092,3.27699 -0.907,4.77744 -0.82051,-2.30818 -2.78547,-0.4779 -1.72652,0.8582 -2.99059,3.38199 -5.10758,4.23166 -2.74405,0.50932 -5.89426,0.15033 -7.00314,2.78552 -1.87389,1.07584 -4.32198,1.57662 -5.57093,3.27687 0.6712,2.27811 1.7323,4.16627 3.76839,5.07955 1.56657,-2.45782 4.18982,-1.91429 6.55384,-0.96926 1.74725,1.19273 2.97739,2.90241 5.54281,3.27699 1.61686,2.88861 2.95978,3.47645 4.40158,5.81917 0.3664,2.12162 4.06691,-0.884 7.06684,0.22886 2.54137,0.17725 3.05537,-4.35519 5.24438,-4.24569 2.50406,0.12788 4.7339,-2.39478 7.53676,-2.29404 1.94186,2.17647 4.56329,0.15257 5.54277,-1.46029 1.24602,-2.65146 0.99955,-5.12185 2.78551,-6.41869 -0.60018,-3.36695 1.6188,-4.29617 1.81658,-7.52279 1.10837,-1.3794 2.79202,-4.74524 -0.0112,-5.06541 -1.60074,-1.65168 -3.441,-3.16458 -3.74019,-5.57092 -2.66693,0.65964 -0.99955,-1.62396 -3.63328,-0.96926 z M 1.2533655,195.79039 c -0.133386,2.37661 -1.83464705,7.0551 1.816607,5.07944 1.116449,-0.84362 4.759637,3.77351 4.723178,-0.98273 -2.619156,-1.36101 -3.119528,-3.09401 -5.228687,-4.0966 -0.437067,0 -0.874021,0 -1.311098,0 z"
       style="fill:#000000;fill-opacity:1;stroke:#d39062;stroke-width:1.4841;stroke-miterlimit:4;stroke-dasharray:none;stroke-opacity:1"
       id="Maullin" />
  </g>
</svg>
