<?xml version="1.0" encoding="UTF-8" standalone="no"?>
<!-- Created with Inkscape (http://www.inkscape.org/) -->

<svg
   width="210mm"
   height="297mm"
   viewBox="0 0 210 297"
   version="1.1"
   id="svg64"
   inkscape:version="1.1.2 (b8e25be833, 2022-02-05)"
   sodipodi:docname="vector.svg"
   xmlns:inkscape="http://www.inkscape.org/namespaces/inkscape"
   xmlns:sodipodi="http://sodipodi.sourceforge.net/DTD/sodipodi-0.dtd"
   xmlns="http://www.w3.org/2000/svg"
   xmlns:svg="http://www.w3.org/2000/svg">
  <sodipodi:namedview
     id="namedview66"
     pagecolor="#ffffff"
     bordercolor="#666666"
     borderopacity="1.0"
     inkscape:pageshadow="2"
     inkscape:pageopacity="0.0"
     inkscape:pagecheckerboard="0"
     inkscape:document-units="mm"
     showgrid="false"
     inkscape:zoom="0.74029882"
     inkscape:cx="361.34057"
     inkscape:cy="561.93525"
     inkscape:window-width="1920"
     inkscape:window-height="1017"
     inkscape:window-x="-8"
     inkscape:window-y="-8"
     inkscape:window-maximized="1"
     inkscape:current-layer="layer1" />
  <defs
     id="defs61" />
  <g
     inkscape:label="Capa 1"
     inkscape:groupmode="layer"
     id="layer1">
    <path
       style="fill:#000000;fill-opacity:1;fill-rule:evenodd;stroke:#d39062;stroke-width:1.00665;stroke-linecap:butt;stroke-linejoin:miter;stroke-miterlimit:4;stroke-dasharray:none;stroke-opacity:1"
       d="m 137.70578,275.60111 c 0.19243,-0.63543 0.37734,-1.17219 0.50332,-1.82459 0.19505,-1.00997 0.26813,-2.02908 0.0633,-3.01988 -0.20519,-0.99079 -0.67489,-1.9332 -1.57289,-2.83125 -1.84213,-1.84216 -3.43404,-2.79973 -4.8445,-3.77496 -1.41045,-0.97474 -2.61413,-2.01954 -3.58618,-3.96359 -1.12606,-2.25214 -1.34422,-4.1984 -3.08287,-7.67572 -0.38969,-0.77899 -0.1574,-1.34546 0.44039,-1.8246 0.59789,-0.47883 1.52253,-0.87937 2.57954,-1.25832 1.057,-0.37945 2.22111,-0.71574 3.20869,-1.19538 0.98759,-0.47883 1.81239,-1.10815 2.20204,-1.88743 1.01005,-2.02015 1.87911,-3.12689 3.2087,-3.77497 1.32958,-0.64849 3.14358,-0.81814 6.03989,-0.81814 2.83505,0 4.89103,-0.25999 6.35444,-1.0696 0.73181,-0.40455 1.28954,-0.93056 1.76165,-1.63576 0.47181,-0.70571 0.80208,-1.57093 1.0696,-2.64253 0.27707,-1.10986 0.63243,-1.93863 1.00666,-2.51665 0.37444,-0.57821 0.78702,-0.89744 1.32116,-1.0695 1.069,-0.34432 2.50521,-0.0201 4.59291,0.50293 1.45799,0.3644 2.76248,0.35235 3.90075,0.12548 1.13816,-0.22687 2.16841,-0.71072 2.95703,-1.3841 0.78802,-0.67358 1.35238,-1.47917 1.76155,-2.45371 0.40957,-0.97473 0.62941,-2.07776 0.62941,-3.20869 0,-1.47235 0.96269,-2.75295 2.01332,-4.08948 1.05073,-1.33662 2.17022,-2.7667 2.57949,-4.40418 0.29412,-1.1751 0.89342,-1.95027 1.57292,-2.57948 0.67961,-0.62941 1.45428,-1.11678 2.26498,-1.57293 0.81011,-0.45575 1.6414,-0.91651 2.32783,-1.57283 0.68663,-0.65551 1.26575,-1.47686 1.57292,-2.70537 0.9376,-3.74856 2.14352,-5.74301 3.01998,-9.24864 1.03025,-4.121 2.99217,-7.72571 3.90075,-12.26852 0.47181,-2.35884 1.04129,-4.07201 1.88743,-5.59946 0.84625,-1.52746 1.93572,-2.87954 3.46036,-4.40408 1.8521,-1.8521 3.02199,-2.88506 3.71203,-4.2783 0.68964,-1.39324 0.88037,-3.14314 0.88037,-6.48023 0,-3.84364 0,-7.6699 0,-11.51363 0,-1.32889 0.32023,-3.24805 0.7549,-5.03319 0.43466,-1.78514 1.00635,-3.45996 1.57293,-4.21536 1.82569,-2.43423 2.91778,-3.82777 3.20869,-4.97035 0.14556,-0.57118 0.0904,-1.08726 -0.18872,-1.63576 -0.27706,-0.54811 -0.784,-1.09872 -1.50999,-1.8246 -0.99983,-0.99883 -1.21074,-2.05568 -0.94361,-3.08281 0.26702,-1.02714 1.05414,-2.0354 2.01331,-2.95704 1.91846,-1.84326 4.60776,-3.342 5.85123,-3.96369 0.98377,-0.49188 1.37386,-1.24226 1.32116,-2.07625 -0.0502,-0.8342 -0.54308,-1.74931 -1.13244,-2.64243 -1.17912,-1.78615 -2.88174,-3.44802 -3.2087,-3.77487 -0.63443,-0.63443 -0.98075,-1.37406 -1.13254,-2.07626 -0.15158,-0.70169 -0.16764,-1.35208 -0.18872,-1.69871 -0.0401,-0.69366 -0.12548,-0.25196 -1.76165,3.01998 -0.57922,1.15864 -1.31785,2.10426 -2.1391,2.89409 -0.82115,0.79003 -1.74198,1.4606 -2.70537,2.01332 -1.92678,1.10543 -4.0178,1.82007 -5.91406,2.7682 -2.37621,1.18816 -5.12695,2.20174 -7.61278,2.76831 -2.48583,0.56617 -4.71096,0.69366 -6.22867,0.31421 -2.95302,-0.73783 -4.70052,-1.75332 -6.35446,-2.95703 -1.65393,-1.20372 -3.24614,-2.59826 -5.977,-3.9637 -2.67847,-1.33923 -4.79528,-1.43901 -6.7319,-1.82459 -0.96872,-0.19274 -1.92087,-0.41459 -2.83125,-0.94361 -0.91049,-0.53004 -1.76798,-1.3298 -2.70537,-2.57949 -1.21586,-1.62131 -2.12123,-2.90122 -3.2087,-3.90075 -1.08737,-0.99983 -2.40833,-1.73465 -4.52986,-2.26498 -1.09952,-0.27506 -1.95841,-0.74084 -2.70538,-1.32126 -0.74696,-0.58023 -1.3698,-1.26054 -1.95037,-2.07616 -1.16115,-1.63135 -2.16259,-3.70139 -3.77494,-5.85123 -1.37394,-1.831817 -2.86224,-2.898297 -4.71867,-3.649077 -1.85642,-0.75088 -4.06362,-1.15242 -6.79488,-1.69871 -1.52102,-0.30417 -2.41567,-0.64748 -2.8312,-1.00666 -0.41549,-0.35938 -0.36339,-0.71173 -0.12578,-1.0695 0.47512,-0.71574 1.82917,-1.38872 2.20205,-1.76165 2.34342,-2.34348 4.16529,-2.9223 5.2849,-3.58625 0.55985,-0.33227 0.98508,-0.71474 1.13248,-1.32116 0.14737,-0.60632 0.0211,-1.42416 -0.3146,-2.76831 -0.43778,-1.75131 -1.28034,-2.78477 -1.88747,-3.90075 -0.30356,-0.55814 -0.53384,-1.15834 -0.62911,-1.88743 -0.0954,-0.7288 -0.0281,-1.58508 0.25167,-2.70537 0.34673,-1.38712 1.55971,-2.63771 2.95703,-3.77497 1.39731,-1.13726 2.98113,-2.16319 3.96367,-3.14575 1.11338,-1.11337 1.72333,-1.99314 2.07622,-2.83126 0.35285,-0.83821 0.40073,-1.61358 0.3146,-2.4537 -0.17236,-1.68014 -0.88077,-3.63152 -0.88077,-6.98356 0,-2.56483 0.40244,-3.96349 0.12578,-4.97035 -0.13833,-0.50394 -0.45263,-0.89845 -1.06957,-1.32127 -0.61696,-0.42262 -1.52543,-0.8362 -2.89411,-1.3841 -0.96911,-0.38749 -2.10913,-1.77119 -3.01994,-3.39742 -0.9108,-1.62634 -1.57289,-3.53314 -1.57289,-5.09623 0,-1.43239 0.64627,-2.72023 1.44705,-3.9637 0.80077,-1.24336 1.7502,-2.43081 2.3908,-3.71192 0.42462,-0.84926 0.58423,-1.58668 0.62911,-2.26498 0.0452,-0.6786 -0.0412,-1.32468 -0.25167,-1.95038 -0.42151,-1.25149 -1.24971,-2.46374 -1.95037,-4.21535 -0.36038,-0.90045 0.17939,-2.51554 0.81793,-3.96369 0.63845,-1.44815 1.39745,-2.73197 1.50997,-2.95704 0.21864,-0.43767 0.28288,-0.7308 0.18862,-0.88037 -0.0944,-0.15058 -0.35626,-0.20981 -0.69205,-0.12548 -0.67157,0.16864 -1.74521,0.78099 -2.95703,1.57293 -2.42367,1.58357 -5.36981,3.97202 -6.54322,5.53652 -0.69085,0.92153 -1.44539,1.60756 -2.26496,2.07625 -0.81954,0.4688 -1.72503,0.75891 -2.64246,0.88038 -1.83485,0.24393 -3.81008,-0.11946 -5.85114,-0.62942 -1.85483,-0.46377 -2.58881,-1.42004 -3.6491,-2.26498 -0.53013,-0.42262 -1.14499,-0.84423 -2.0133,-1.13254 -0.86833,-0.2881 -2.02179,-0.44069 -3.58619,-0.44069 -1.67636,0 -2.78364,0.26201 -3.586184,0.62942 -0.80258,0.3674 -1.26945,0.85929 -1.50997,1.3841 -0.48104,1.04902 -0.14757,2.16319 -0.25166,2.57959 -0.22276,0.89141 -0.77457,1.54663 -1.50998,2.01321 -0.73542,0.46679 -1.64355,0.73482 -2.64245,0.94362 -1.99778,0.4186 -4.29432,0.49189 -5.85115,0.88037 -1.99652,0.49892 -6.88021,2.69523 -8.43068,3.08282 -0.68644,0.17166 -0.92304,0.63142 -0.88078,1.25832 0.0422,0.62741 0.34522,1.4091 0.69205,2.26498 0.34683,0.85628 0.71645,1.78464 0.94372,2.64243 0.22727,0.85829 0.31641,1.695 0,2.32792 -0.53094,1.06197 -1.16947,1.81947 -1.82455,2.32782 -0.65511,0.50795 -1.34175,0.73482 -2.07622,0.7549 -0.73452,0.0201 -1.4958,-0.16363 -2.26496,-0.56617 -0.76915,-0.40255 -1.50585,-1.00285 -2.26496,-1.76166 -0.9387,-0.93859 -1.49154,-1.34314 -1.88747,-1.44704 -0.39591,-0.1034 -0.66705,0.10942 -1.06956,0.44069 -0.40254,0.33026 -0.92906,0.76694 -1.88747,1.13244 -0.95837,0.3654 -2.34044,0.62941 -4.40409,0.62941 -1.26696,0 -2.72852,-0.84925 -4.0895,-1.95037 -1.361,-1.10123 -2.60987,-2.42118 -3.58619,-3.39743 -0.48154,-0.48184 -0.91681,-0.45373 -1.32123,-0.0602 -0.40445,0.3915 -0.79545,1.13736 -1.19539,1.95038 -0.79997,1.62593 -1.67595,3.60622 -2.89411,4.21535 -0.48566,0.24294 -1.12699,0.17568 -1.88748,-0.0602 -0.76051,-0.23891 -1.6273,-0.60331 -2.57953,-1.00665 -0.95225,-0.40355 -1.95905,-0.81814 -3.01995,-1.0696 -1.06089,-0.25097 -2.1851,-0.34332 -3.27161,-0.12549 -1.2558,0.25097 -2.29152,0.22186 -3.20869,0.0602 -0.91712,-0.15962 -1.68419,-0.49892 -2.45371,-0.88038 -1.53903,-0.76393 -3.00177,-1.74137 -5.09616,-2.26498 -3.01392,-0.75389 -4.35809,-0.77597 -5.53657,-0.88037 -1.17846,-0.1044 -2.20136,-0.31421 -4.467,-1.44705 -1.07076,-0.53505 -1.74312,-1.04892 -2.51662,-1.57293 -3.590382,4.3041 -5.2805396,9.32855 -3.082857,14.72223 8.812717,11.98654 -7.1339206,5.12152 -11.38771356,17.17602 2.18475296,3.92876 37.29129056,45.689407 44.35545056,83.425937 4.11983,22.00805 10.71584,37.08613 14.91099,40.26602 1.02524,0.48687 1.39358,2.35412 1.44706,4.52986 1.85299,0.40254 3.246,0.85929 5.15907,1.25832 2.79267,0.58224 5.55399,1.21436 8.05319,1.88744 2.4992,0.67358 4.71197,1.3833 6.41739,2.26498 0.7844,0.99983 1.15377,1.94033 1.19539,2.76831 0.0412,0.82817 -0.2336,1.58176 -0.69205,2.26498 -0.91682,1.36644 -2.62876,2.44738 -4.08952,3.39742 -1.46075,0.94964 -2.70527,1.76617 -2.76829,2.51664 -0.0311,0.37544 0.26171,0.7037 0.94372,1.0695 0.68201,0.36641 1.75924,0.74887 3.39744,1.13254 1.47426,0.15058 2.6905,0.48386 3.58619,0.94362 0.89573,0.45976 1.47837,1.03938 1.76164,1.76165 0.28328,0.72177 0.23721,1.57925 -0.12578,2.51665 -0.363,0.93759 -1.03306,1.97778 -2.07622,3.08281 0.98287,0.75289 1.90989,1.55687 2.64246,2.39076 0.7325,0.8342 1.24858,1.69179 1.50996,2.57959 0.2614,0.8874 0.24193,1.79127 -0.18872,2.70537 -0.43065,0.9145 -1.23592,1.85541 -2.57954,2.76831 0.15439,0.8603 0.49189,1.5905 1.00665,2.26488 0.51477,0.67459 1.17338,1.2799 1.88747,1.82459 1.42817,1.08928 3.08245,1.98742 4.34117,2.89409 2.76639,1.99264 5.82572,3.34693 8.934,4.21536 3.108304,0.86833 6.274514,1.21907 9.437344,1.25832 0.58785,1.95178 1.09171,6.05411 2.51662,10.31815 0.71243,2.13197 1.63909,4.33752 2.95703,6.29151 1.31794,1.95409 3.03442,3.69827 5.22199,4.97035 -0.50001,2.00027 -0.56195,3.88328 -0.25166,5.59946 0.31029,1.71628 0.98357,3.28057 2.0133,4.46702 1.02976,1.18645 2.3682,2.04273 4.02659,2.4537 1.65839,0.41058 3.65492,0.35838 5.85114,-0.25196 0.74526,-0.94663 1.52697,-2.08138 2.32788,-3.01988 0.80087,-0.93859 1.57954,-1.70754 2.32788,-1.88753 0.37413,-0.0904 0.72879,0.01 1.06956,0.25197 0.21172,0.14957 0.41951,0.51597 0.62912,0.81813 z"
       id="Chanco"
       inkscape:label="#path2747" />
  </g>
</svg>
