<?xml version="1.0" encoding="UTF-8" standalone="no"?>
<!-- Created with Inkscape (http://www.inkscape.org/) -->

<svg
   width="210mm"
   height="297mm"
   viewBox="0 0 210 297"
   version="1.1"
   id="svg64"
   inkscape:version="1.1.2 (b8e25be833, 2022-02-05)"
   sodipodi:docname="vector.svg"
   xmlns:inkscape="http://www.inkscape.org/namespaces/inkscape"
   xmlns:sodipodi="http://sodipodi.sourceforge.net/DTD/sodipodi-0.dtd"
   xmlns="http://www.w3.org/2000/svg"
   xmlns:svg="http://www.w3.org/2000/svg">
  <sodipodi:namedview
     id="namedview66"
     pagecolor="#ffffff"
     bordercolor="#666666"
     borderopacity="1.0"
     inkscape:pageshadow="2"
     inkscape:pageopacity="0.0"
     inkscape:pagecheckerboard="0"
     inkscape:document-units="mm"
     showgrid="false"
     inkscape:zoom="0.74029882"
     inkscape:cx="361.34057"
     inkscape:cy="453.87078"
     inkscape:window-width="1920"
     inkscape:window-height="1017"
     inkscape:window-x="-8"
     inkscape:window-y="-8"
     inkscape:window-maximized="1"
     inkscape:current-layer="layer1" />
  <defs
     id="defs61" />
  <g
     inkscape:label="Capa 1"
     inkscape:groupmode="layer"
     id="layer1">
    <path
       id="Marchihue"
       style="fill:#000000;fill-opacity:1;fill-rule:evenodd;stroke:#d39062;stroke-width:0.839283;stroke-linecap:butt;stroke-linejoin:miter;stroke-miterlimit:4;stroke-dasharray:none;stroke-opacity:1"
       d="m 207.74823,106.34462 c 0.64518,-0.49865 -0.0636,9.6604 -0.3568,13.54455 l 2.0268,1.23724 c 0.54636,0.0806 -0.23061,0.16114 -2.14159,0.24171 l -0.41047,20.80063 c -6.03636,-1.46157 -7.07413,5.88802 -12.26405,6.05411 -2.97145,2.71702 -2.61364,7.50407 -7.34754,11.91492 -1.43128,1.33361 2.77153,3.57418 3.67162,5.35562 -5.7643,3.0478 3.69957,7.45877 -2.58171,9.68697 -2.04697,5.04222 -9.23518,2.8479 -9.65414,8.45583 -3.45,1.61694 -6.03992,-5.85155 -10.64838,-5.52508 -3.77517,-5.22632 -8.00272,-1.71083 -12.77079,-2.08723 0.93816,-2.89611 -2.96414,-3.32199 -5.19203,-1.40295 1.31351,5.81761 -9.30557,8.20371 -4.14541,13.11023 -5.75729,4.5822 1.1193,12.39498 -1.00693,16.771 4.16941,1.14912 -0.56971,1.71743 -0.38712,4.44885 0.54369,1.67828 3.98445,2.85677 2.48392,3.88301 -4.85506,3.32054 -5.63147,6.04301 -11.37286,8.49414 -4.41392,-0.60523 -9.41597,2.66271 -13.6091,3.55261 -1.91516,0.40666 -3.66156,0.31657 -5.10611,-0.86433 -3.32135,-0.28676 -13.4241,-4.39365 -20.417811,-5.23197 -1.88056,-2.12898 -2.78839,-3.65215 -4.56768,1.03181 -8.17603,-0.37621 -4.47112,5.03461 -11.43248,7.34744 -14.22028,6.80272 -8.10124,8.81217 -6.5835,12.11736 1.51774,3.30518 -4.89169,2.52047 -4.89169,2.52047 l -2.80918,-7.41182 c -2.01069,-4.40907 -9.92061,-10.50354 -3.88075,-12.61247 -2.10207,-4.92053 -4.20415,-8.75634 -6.30622,-7.27638 v -4.36586 h -16.97829 c -5.760279,-6.18144 -3.617124,-4.81719 -5.821126,-4.85094 0.765925,-4.30084 -0.93277,-10.96304 -3.185845,-12.92276 -1.421423,-1.23635 1.966604,-3.54759 5.611309,-5.02572 -0.308961,-11.17005 10.098992,-17.63159 4.365852,-23.76957 v -7.76152 l -4.850939,-4.85094 -1.455283,-15.0379 -4.850941,-0.97021 v -3.39566 c 3.421219,-1.77865 3.687649,-3.55736 1.940376,-5.33601 h -0.485075 v -12.61246 l -7.276412,5.33601 1.455282,4.36587 c -10.111786,3.12996 -9.599494,-0.82284 -12.612441,-2.4255 l 3.880753,-5.33602 -2.910565,-6.30617 c -3.4817754,-0.46312 -4.5801474,-1.72257 -5.8211304,-4.851 -0.733005,-5.837782 -8.271679,-2.1862 -6.30621705,-7.276382 0.53005505,-2.12022 1.11730305,-3.6899 1.94037605,-5.33602 1.335917,-2.67185 1.709462,-3.39565 4.850935,-3.39565 1.076086,0 3.5862004,-2.70255 3.8807544,-3.88079 1.096209,-1.78957 4.319826,-2.88844 5.14375,-4.1817 1.24739,-1.95793 0.128406,-3.73468 2.617756,-4.0649 3.65393,0 2.702527,-4.43482 3.880747,-6.7913 1.252085,-4.42906 5.219176,-2.16336 4.850941,-6.79131 -0.377478,-1.50997 2.466886,-6.92193 3.977534,-7.29655 5.96631,-1.08879 9.364459,1.12425 7.088459,10.6327 5.75546,-0.50563 -1.213867,15.69629 6.20241,11.51872 l 0.0737,2.8814 c -0.16597,1.28717 -1.66292,2.83768 0.44675,3.38119 1.80616,1.00561 2.86324,3.06182 3.44018,4.98619 3.94411,0.96571 3.51975,2.69729 2.7337,7.82148 0.68276,1.25627 2.81452,3.13706 3.35284,4.454052 0.85996,1.609 2.72606,2.50353 3.1922,4.36206 1.00534,3.07844 4.46991,4.06255 6.43719,6.35076 0.92138,1.31547 0.80751,3.6571 3.0133,3.62227 1.76187,0.34576 3.9997,-0.59889 5.31524,1.02198 0.3285,0.40159 -0.10976,1.54056 0.0827,2.01922 l 20.01012,0.33371 c 2.65274,-2.28321 5.47998,-3.65786 8.590331,-4.78211 2.51152,-5.32124 2.47716,-15.042912 10.55876,-13.93148 0.24844,-5.210212 8.57664,-1.442222 13.17093,-2.184802 6.83886,0.56526 4.5532,6.275972 7.70495,7.161802 2.84398,0.7993 7.72135,0.84422 10.41829,0.64476 0.59857,2.04352 5.08598,4.60117 7.65637,3.61085 1.47022,-0.56654 1.41572,-2.29355 1.91731,-5.94157 6.80606,-2.817 2.49936,-8.213412 8.44516,-10.720442 2.00846,-0.84688 3.32821,0.65313 5.21946,0.28105 4.24482,-1.25894 9.82424,-0.26138 7.13137,5.72745 -0.82012,0.95848 -3.83336,3.104012 -3.38786,4.436162 0.52822,1.57938 4.03366,3.61992 5.26198,3.6767 0.97212,0.0444 2.79628,-1.00682 3.023,-2.9862 2.90354,0.25376 6.115,0.0768 9.31493,0.49738 5.64735,0.74233 7.46143,3.92704 10.55522,2.04048 2.40945,-0.16242 8.09396,0.67457 8.89079,0.0571 z"
       sodipodi:nodetypes="ccccccscccccccccscsccccccccccccscccccccccccccccccsscsccccccccccccccscccccscscsccsscscc" />
  </g>
</svg>
