<?xml version="1.0" encoding="UTF-8" standalone="no"?>
<!-- Created with Inkscape (http://www.inkscape.org/) -->

<svg
   width="210mm"
   height="297mm"
   viewBox="0 0 210 297"
   version="1.1"
   id="svg64"
   inkscape:version="1.1.2 (b8e25be833, 2022-02-05)"
   sodipodi:docname="vector.svg"
   xmlns:inkscape="http://www.inkscape.org/namespaces/inkscape"
   xmlns:sodipodi="http://sodipodi.sourceforge.net/DTD/sodipodi-0.dtd"
   xmlns="http://www.w3.org/2000/svg"
   xmlns:svg="http://www.w3.org/2000/svg">
  <sodipodi:namedview
     id="namedview66"
     pagecolor="#ffffff"
     bordercolor="#666666"
     borderopacity="1.0"
     inkscape:pageshadow="2"
     inkscape:pageopacity="0.0"
     inkscape:pagecheckerboard="0"
     inkscape:document-units="mm"
     showgrid="false"
     inkscape:zoom="0.74029882"
     inkscape:cx="361.34057"
     inkscape:cy="561.93525"
     inkscape:window-width="1920"
     inkscape:window-height="1017"
     inkscape:window-x="-8"
     inkscape:window-y="-8"
     inkscape:window-maximized="1"
     inkscape:current-layer="layer1" />
  <defs
     id="defs61" />
  <g
     inkscape:label="Capa 1"
     inkscape:groupmode="layer"
     id="layer1">
    <path
       id="Antofagasta"
       style="fill:#000000;fill-opacity:1;fill-rule:evenodd;stroke:#d38d5f;stroke-width:0.578337px;stroke-linecap:butt;stroke-linejoin:miter;stroke-opacity:1"
       d="m 134.03974,250.85059 4.08964,-0.34079 c 1.35536,1.94699 3.64317,2.02901 6.81612,0.34079 h 6.47527 c 4.64847,4.11225 9.29693,-3.58515 13.94539,-6.84649 3.03639,-0.61803 7.77243,-0.38624 7.33798,-2.3387 -0.0348,-2.78321 1.03038,-5.24156 3.83868,-6.76579 1.55029,-2.23302 -2.83881,-5.87625 1.45689,-6.69825 1.59816,-3.36646 4.80903,-1.84899 7.50155,-0.86627 3.25784,-0.49274 3.56688,-5.4476 1.36322,-7.49773 -1.56624,-2.81728 -3.79309,-5.26025 -4.43046,-8.5201 -1.67958,-2.57313 -2.07074,-5.88011 -5.2811,-7.10867 -3.04377,-1.30324 -2.99588,-5.18838 -5.27092,-7.2698 -2.24067,-2.36784 2.7537,-3.84293 3.20027,-6.4457 1.98621,-2.28558 1.26977,-6.7249 3.00142,-8.89423 3.55186,1.24077 4.4789,-2.4876 5.11636,-5.16773 0.89976,-2.28479 1.01807,-5.82424 4.29826,-5.80326 2.33459,-0.67033 5.99211,0.97974 6.62767,-2.40879 1.14831,-1.32148 1.7361,-3.02449 2.96264,-4.2737 1.22652,-1.24918 12.60978,-4.97779 12.60978,-4.97779 l -0.68161,-11.72162 -19.42589,-22.83392 h -6.81609 l -22.1523,-7.15691 -13.29139,-1.36322 -16.35862,-14.31379 -7.15691,-4.430471 -28.286785,-0.3408 -8.52013,2.04482 -35.44369,-4.77126 4.43046,-19.08507 -5.11207,-29.650011 -6.81609,8.52012 -4.08967,8.860924 -4.08966,4.771267 -18.40344,-1.363216 -8.520124,5.452876 H 3.170712 c -0.692619,4.0912 -0.506105,11.32715 -2.72643996,10.90575 -0.639553,2.55821 0.79203496,1.58883 3.06724296,2.72644 2.184583,1.09228 4.061651,1.41923 5.112073,-0.68161 0.169883,-0.33978 0.273582,-4.82169 1.704027,-3.74886 1.26479,0.9486 3.663,0.25496 5.11207,1.70403 4.65859,4.78431 4.34281,8.93551 4.08965,15.33621 -0.84863,2.250531 -2.40222,2.361031 -2.72643,4.771271 -1.17078,2.34154 -2.83679,5.56323 -4.43046,7.1569 -0.65619,0.65619 -2.15152,2.6405 -1.70403,4.43046 0.38632,1.54526 -2.032027,2.39844 -0.68161,3.74885 0.9041,0.90409 3.93706,1.175 2.38564,2.72645 -1.97474,9.74853 0.39654,9.74778 0.6816,14.31379 -0.28028,0.56058 -1.89876,3.65151 -1.70402,4.43046 0.3373,2.65997 -1.30058,5.52736 -1.70402,8.17931 -0.685758,3.97159 -2.47101,7.07273 -4.089661,10.90576 0.444458,1.33336 2.51828,3.89987 2.044829,5.79368 -0.934602,3.39822 -1.706078,6.81699 -2.385634,10.22414 -1.097192,0.76142 -0.543193,2.04213 0.254309,3.61926 l 12.355467,5.58246 103.263835,4.08967 3.40806,5.79368 -0.3408,4.43046 c 2.48006,5.1726 3.99782,12.12789 -2.38565,13.973 1.68979,5.77943 -1.39485,6.78444 -3.06724,9.20172 l -2.04483,14.9954 4.08967,1.70403 0.34079,3.74885 z"
       sodipodi:nodetypes="ccccccccccccccccccsccccccccccccccccccccssscccssscccccccccccccccccc" />
  </g>
</svg>
