<?xml version="1.0" encoding="UTF-8" standalone="no"?>
<!-- Created with Inkscape (http://www.inkscape.org/) -->

<svg
   width="210mm"
   height="297mm"
   viewBox="0 0 210 297"
   version="1.1"
   id="svg1283"
   inkscape:version="1.1.2 (b8e25be833, 2022-02-05)"
   sodipodi:docname="vector.svg"
   xmlns:inkscape="http://www.inkscape.org/namespaces/inkscape"
   xmlns:sodipodi="http://sodipodi.sourceforge.net/DTD/sodipodi-0.dtd"
   xmlns="http://www.w3.org/2000/svg"
   xmlns:svg="http://www.w3.org/2000/svg">
  <sodipodi:namedview
     id="namedview1285"
     pagecolor="#ffffff"
     bordercolor="#666666"
     borderopacity="1.0"
     inkscape:pageshadow="2"
     inkscape:pageopacity="0.0"
     inkscape:pagecheckerboard="0"
     inkscape:document-units="mm"
     showgrid="false"
     inkscape:zoom="0.52347032"
     inkscape:cx="155.69173"
     inkscape:cy="611.30496"
     inkscape:window-width="1920"
     inkscape:window-height="1017"
     inkscape:window-x="-8"
     inkscape:window-y="-8"
     inkscape:window-maximized="1"
     inkscape:current-layer="layer1" />
  <defs
     id="defs1280" />
  <g
     inkscape:label="Capa 1"
     inkscape:groupmode="layer"
     id="layer1">
    <path
       d="m 127.87789,94.315632 c -0.40077,-0.0616 -0.0204,1.38796 -0.28834,2.81919 -1.31301,0.79068 1.73792,11.782768 5.15787,4.356988 0.65649,-1.4255 -3.75618,-4.116118 -4.16474,-6.567488 -0.36405,-0.40788 -0.57121,-0.58821 -0.7048,-0.60869 z m -28.128033,9.546878 c -0.57577,0.082 -1.40628,0.4367 -3.17161,1.02513 1.36981,2.28305 7.774333,1.34332 7.144143,0.99315 -2.76661,-1.53702 -3.01291,-2.1547 -3.972533,-2.01828 z M 0.56493041,147.01562 c 0.312984,3.21801 -0.399984,6.67702 4.29289099,2.75515 1.553167,-1.55315 -3.665917,-2.75515 -4.29289099,-2.75515 z M 167.1546,165.14828 c -5.59059,5.88962 6.57353,4.69536 0,0 z M 18.985906,138.65411 c -1.061797,-0.29593 -0.734503,5.29069 0.03211,6.82376 0.174999,0.35017 -7.858386,-5.03477 -5.221943,-0.64072 1.104659,1.84106 -4.1112486,0.3506 -6.3111856,1.28144 0.908811,0.28942 2.17322,4.42633 1.089238,5.5103 -1.430478,1.43045 -1.571917,-0.72104 -2.466808,3.07551 -0.299141,1.26924 5.0197216,0.32457 5.2219476,-1.85812 0.231364,-2.49775 4.589294,-2.18086 5.862673,-3.07551 5.201567,-3.65452 3.94594,3.4801 7.368391,1.85812 0.84499,-0.40051 1.364526,-6.17584 4.933615,-2.17848 1.164435,1.30409 3.972852,1.85842 4.901579,2.78718 0.946753,0.94671 -2.907115,0.60869 -3.684193,0.60869 -4.27789,-4e-5 2.623885,3.2453 3.0755,3.39583 1.557377,0.51914 2.926863,1.53775 5.221947,1.53775 1.94522,5e-5 2.14644,-1.93031 2.14644,-4.00452 10e-6,-2.67162 0.21258,-3.00278 -0.89702,-5.22196 -1.04085,-2.08176 -2.865729,-2.46681 -4.933612,-2.46681 -2.796493,-5e-5 -3.440515,-0.3428 -5.830641,-1.53776 -1.013888,-0.50694 -3.786589,0 -4.933615,0 -1.571778,0 -3.714806,-2.81637 -4.613255,-4.61326 -0.406883,-0.81377 -0.71607,-1.21314 -0.961094,-1.28144 z m 6.791734,14.80083 c -1.94541,3.89083 -0.963228,4.71363 -1.21739,5.22196 -0.335634,0.67122 -2.567099,6.12455 -1.217386,4.32492 1.646051,-2.19474 1.507324,-3.0755 4.901583,-3.0755 2.204714,0 3.50598,-1.4827 1.537751,-2.46682 -1.169256,-0.58461 -3.347887,-4.00452 -4.004558,-4.00456 z M 105.9329,120.2011 c 0.0905,-0.27163 -2.27536,5.84155 2.75514,4.16472 1.32667,-0.4422 -2.54453,-3.81373 -2.75514,-4.16472 z m 14.54456,-0.4485 c -4.61428,0.0846 -6.72242,1.52678 -8.58577,6.7917 5.04019,2.65886 11.39452,-1.87999 10.73222,-6.75968 -0.76734,-0.0347 -1.48727,-0.0443 -2.14645,-0.0304 z m 88.99731,6.24709 -2.46677,-36.809908 -7.72079,0.22433 -0.22434,-11.78941 h -15.92211 l -0.22433,-11.34091 -0.22434,-0.128 v 0.19222 l -19.02967,0.67274 v -3.78027 l -13.29514,0.32023 v 2.62697 l -42.64055,1.66589 c -0.64687,2.54691 -2.19283,4.95154 -3.71623,6.85583 -2.82558,3.53194 -4.440043,-2.15947 -7.464503,0.86496 -4.13264,4.13262 3.37465,3.55399 4.581213,4.03659 1.70049,0.68025 11.34929,1.96608 7.20821,4.03659 -1.08433,0.54222 -2.3575,3.44339 -2.59496,3.94052 0.74991,-2.28669 -0.76174,-6.37574 -6.343223,-4.80548 -1.34594,0.3788 -4.78119,-0.93939 -6.02285,-2.59495 -2.44001,-3.25337 -3.47311,0.44238 -5.18991,1.72998 -3.31317,2.48482 -7.61274,4.55846 -11.5011,4.86953 -0.24625,0.0217 -0.49087,0.0447 -0.73684,0.0642 -0.46953,0.5542 -0.85113,1.12818 -0.73684,1.18533 l 0.48055,6.05491 -4.10067,-0.16012 -4.90158,-2.14645 -10.50796,2.46681 -0.67277,3.10753 c -0.20841,0.30374 -0.25887,0.68038 -0.25631,1.12129 0.003,0.44094 0.0586,0.96802 0.16016,1.537748 0.20311,1.13946 0.48914,2.52838 0.41647,4.1327 -0.0364,0.80218 -0.14323,1.65713 -0.41647,2.56293 -0.27324,0.9058 -0.69143,1.85026 -1.3135,2.85126 -0.62207,1.001 -1.44799,2.05173 -2.53088,3.13955 -1.08288,1.08787 -2.44501,2.22959 -4.10067,3.39587 v 2.49884 c 0.55144,-0.22 1.04077,-0.54301 1.37757,-1.12124 0.34943,-0.69887 1.69949,1.66745 2.17848,2.14641 -1.54706,1.13039 -2.73807,1.78673 -2.78717,4.93362 -0.23592,0.94368 -2.06734,0.20915 -2.75514,0.89703 -0.97541,0.9754 1.52134,2.45862 2.75514,3.07551 0.90255,0.45123 -3.99563,1.53776 -4.61325,1.53776 1.74355,2.12974 4.9278,1.59603 7.68875,3.39587 2.19691,1.09151 -5.3166,1.23852 -6.7597,1.21735 -1.68228,0.84114 -3.10976,1.71505 -4.61325,2.46681 -0.91704,0.45856 -1.03787,1.85165 -1.85811,2.46681 -1.160019,0.87005 0.4166,-3.26756 -0.608694,-4.29286 -1.495188,-1.49523 -1.379046,-5.25107 -3.075505,-1.85811 -0.481056,1.03923 -2.627122,5.41952 -2.146443,2.46681 -3.407143,-2.87617 2.598297,-3.56549 -2.466808,-4.32493 -7.85974,-1.90701 2.041058,4.25555 -6.439333,3.71623 -1.697184,-4e-5 1.516119,3.03741 2.146447,4.61322 0.449094,1.12285 3.169682,3.07551 3.684193,3.07551 2.023116,-0.58162 4.348146,0.62033 5.542308,1.2174 1.750022,0.87503 4.077685,0.0998 6.151005,0.92905 0.78617,0.31459 1.64138,3.17913 2.46681,4.00457 0.54354,0.54348 4.39292,-0.66376 4.61325,-0.6087 1.13451,0.28378 -2.60339,3.36385 0.6087,3.36385 0.59035,0 3.02242,-2.5792 3.68419,-3.07551 2.10493,-1.57872 4.27803,-0.0217 5.54231,0.6087 2.15783,1.07889 -1.11459,0.92905 -2.46681,0.92905 -2.71261,0 -3.56971,1.10289 -4.93361,2.46682 -2.08604,2.086 -0.91618,3.10128 0,4.93358 0.84551,1.69101 -3.67614,-0.7909 -5.51028,-1.24942 -0.94374,-0.23605 -2.89293,2.16971 -3.71623,2.78717 -2.55934,1.91952 1.11848,1.93683 3.39586,3.07551 1.766,0.88298 4.45349,-0.96941 1.53775,1.2174 -1.76899,1.32674 -4.22198,1.12471 -5.83063,0.32023 -2.23371,-1.11686 -2.3475,-1.44629 -4.933622,-0.92906 -0.410137,0.30764 -1.953997,1.54587 -3.588085,1.47366 2.135157,1.1816 4.052497,3.54839 6.759697,2.91535 2.15972,0.12193 -0.844881,3.75958 2.53088,3.49194 2.18477,0.33629 3.87938,2.03659 6.11897,2.21054 1.73722,0.6855 3.4791,1.3274 5.22194,1.98625 1.43341,1.40055 5.78991,1.31217 3.07551,-1.24941 -1.56895,-0.79806 -2.54609,-2.07668 -1.79404,-3.87644 -1.11738,-0.62349 -1.50361,-2.01527 -0.64074,-2.94733 -0.53653,-1.91964 -0.82289,-4.40025 2.46681,-3.45995 1.59953,-0.35885 3.36542,1.36826 1.50572,2.27458 0.30283,2.35087 -4.45929,2.97831 -1.50572,4.7414 0.61598,2.44117 3.83662,2.2673 4.61326,4.51715 1.4772,2.94122 3.6777,-0.46581 4.42103,-2.11438 1.60818,-1.30791 5.08584,-3.94 2.27459,-5.99082 -0.94816,-0.78847 -1.17745,-1.57624 0.0961,-0.57667 1.50006,0.5978 3.27095,5.70235 3.71623,2.14645 -0.113,-2.24426 4.58112,-2.72343 3.0755,-5.5103 -3.07192,-1.95748 1.64416,-3.76357 1.44164,-5.18989 -2.73385,-1.1304 -0.0204,-4.61088 -2.88328,-5.44621 0.6741,-1.12593 1.58155,-3.01641 -0.44851,-3.29976 0.18723,-2.12497 0.81554,-4.69041 -1.47368,-6.15097 -1.43853,-1.86059 -2.96929,-2.25893 -4.90158,-3.29976 1.97028,-1.0082 4.6805,-0.87512 6.21508,-2.81924 1.4462,-1.30305 3.63929,-2.67809 3.65215,-4.77342 -1.09442,-2.82796 2.77887,-0.001 4.67733,-0.0959 2.71902,-2.98386 6.48257,-3.89101 8.23337,-6.91987 -0.0745,-2.45349 2.22832,-3.99502 4.16474,-4.99767 1.54273,-1.10492 2.56195,-2.81607 3.39587,-4.48513 0.69047,-1.53862 0.63221,-3.6242 -0.83295,-4.70938 -1.48604,-1.42806 -3.49497,-2.8815 -5.67046,-2.33863 -0.23318,-0.8838 1.53039,-3.01463 -0.51258,-2.5309 -1.29132,-0.34583 -3.03815,1.70707 -3.71623,1.12128 1.11983,-1.93249 -1.41058,-2.62454 -2.69107,-1.50573 -1.85922,0.67556 -1.98098,2.54839 -1.53775,4.13275 -0.2718,2.17057 -2.65648,2.98703 -3.62012,4.77342 -1.30435,2.40645 -1.49436,5.35322 -3.26772,7.52857 0.19943,1.52443 -2.78382,3.7381 -3.01143,1.40962 0.1,-2.66507 1.76135,-4.97138 3.58809,-6.79174 1.46652,-1.47332 1.30917,-3.76908 1.72997,-5.67046 0.0528,-2.05737 1.635,-3.45718 2.3707,-5.18993 0.2735,-1.92937 -1.22092,-3.37939 -2.40274,-4.67731 -0.42098,-1.910408 3.07592,-1.938088 3.62013,-3.748258 0.54422,-1.81021 0.21539,-4.00456 0.48054,-4.00456 0.26513,4e-5 3.56131,0.17053 4.16474,1.37755 0.31351,0.62701 1.40107,2.6409 1.98627,2.78717 0.70513,0.17617 2.57626,0.4452 3.58808,0.19223 3.61246,-1.18251 6.08765,-4.24639 9.73909,-5.15788 -2.16331,3.01923 -0.25358,5.85522 -4.35696,6.9519 0.42836,0.21436 2.39022,0.903278 3.36383,0.41656 2.079623,-0.81919 4.025803,-0.13234 5.958783,-0.60865 1.35605,-1.35612 2.36354,-2.96794 3.39587,-4.58124 0.98103,-1.308 1.72301,-1.18533 3.58808,-1.18533 1.41992,0 1.5084,0.25341 2.56292,-0.80092 0.96009,-0.96004 1.67292,-2.32618 2.9794,-2.9794 2.34344,-0.80895 2.89166,1.12983 3.97252,2.9794 -0.12519,0.50074 -0.74511,2.97939 -1.56979,2.97939 -2.77238,-4e-5 -5.64485,-0.21175 -8.36152,0.22434 -1.80236,1.55984 -1.25178,3.67305 -2.3707,5.157868 -2.61729,-1.319188 -3.54673,3.32301 -1.98626,3.78032 0.99519,0.29159 2.32868,-0.45852 2.97939,0.19222 1.19631,1.82271 1.79659,2.76275 3.55605,4.16473 2.01667,1.6133 2.07017,1.74217 3.20365,0.60869 0.61034,-0.61034 1.55402,-1.346 2.17848,-2.59494 1.09973,-2.19948 -2.89026,0.0989 -2.59495,-1.3776 5.932,-3.26196 5.64098,-7.281408 7.5606,-12.334008 3.9712,-2.85513 5.38974,0.42133 8.36152,0 4.29656,-3.12533 3.64694,-0.96508 5.57435,-2.595 1.89549,-1.89543 1.38581,0.40441 2.56292,0.99315 0.72715,0.36362 3.20364,1.6235 3.20364,0 2e-5,-1.14141 0.71942,-1.26682 1.79404,-0.19222 1.19745,1.19752 2.00635,2.24759 4.16475,2.78717 1.08191,0.27033 2.38066,0.19222 3.58808,0.19222 1.55962,5e-5 2.57263,0.10501 3.78031,-0.80092 0.68628,-0.51467 1.65709,-0.50594 2.56292,-1.18533 1.24809,-0.93604 2.08537,-0.80092 3.7803,-0.80092 1.35414,4e-5 2.05066,0.54483 3.1716,1.2174 1.27662,0.76599 2.45987,1.42215 3.58809,1.98625 0.65786,0.3289 2.28101,2.10796 3.20365,1.18537 0.95856,-0.95865 1.43517,-1.9863 3.17162,-1.9863 0.89907,5e-5 2.11226,-0.21695 2.9794,0 0.71591,0.17921 2.175,1.9863 2.17847,1.9863 1.53706,-5e-5 1.79459,-0.68906 2.78717,-1.18537 0.63018,-0.31503 1.71328,-1.42268 2.78718,-0.99311 0.4655,0.18615 2.10509,0.3979 2.40272,0.99311 0.38271,0.76564 1.70203,2.32834 1.762,2.78717 0.0599,0.45882 2.63921,3.095548 3.97254,4.709368 1.33338,1.61387 3.24348,2.70651 3.9725,4.7414 1.80969,1.50187 2.89726,3.61548 3.94048,5.67046 1.24052,1.24647 2.48938,4.12966 0.32023,4.99767 -0.0473,1.91361 3.44594,2.69501 3.29976,4.86958 -1.2335,2.11065 0.85021,3.8362 2.7551,3.07546 z m -16.27449,-20.24704 c -3.05264,-0.0794 -5.40334,3.24604 -8.84208,4.45306 -3.69944,1.25046 -7.25126,2.89336 -11.2448,2.72309 -4.5717,-0.38142 -9.69631,0.49562 -13.90384,-1.21735 -0.51985,-2.03294 -6.02466,-7.39775 -5.73453,-2.94738 -1.74068,5.71619 -5.90522,-1.9265 -8.84207,-0.0304 -1.93421,3.21367 -5.10408,-2.36393 -5.35009,0.44849 -4.11928,1.32952 -0.60282,5.67233 -4.61325,7.56064 -4.10634,-0.87634 -4.69895,2.77329 -5.35009,5.63839 -3.88886,2.45262 -6.60755,6.38516 -10.25167,9.13042 3.07676,0.55215 0.88653,3.98169 -0.25632,5.92672 -0.6103,6.25998 -3.28491,-1.39482 -3.81234,-3.62011 -4.3138,-1.32089 -8.76312,5.12741 -12.81459,5.57434 1.47468,-3.13812 4.70467,-5.57513 7.59265,-7.88095 2.88794,-2.30583 -2.02206,-1.23723 -2.46681,-1.12129 -0.44473,0.11586 -4.09809,2.07816 -5.31806,3.68421 -1.00722,1.72338 -2.731373,2.70217 -3.908453,4.26084 -1.60838,1.42077 -0.77185,3.8494 -1.60182,5.73454 0.0403,2.8205 -3.45072,0.19396 -3.36383,-1.28148 0.44735,-1.8894 1.79485,-3.39878 3.23568,-4.64529 1.66781,-1.20073 2.61433,-3.07334 4.100673,-4.42104 1.25445,-1.91166 2.74493,-3.17422 3.29976,-5.38212 0.0935,-2.51467 -0.66788,-3.21557 -2.81921,-3.58809 -1.520263,-1.13543 -2.431373,-3.35092 -4.196783,-4.48508 -1.84992,-1.90737 -2.42611,1.29172 -3.10754,2.46681 -1.18634,1.77936 -0.8018,4.09369 -2.17848,5.7345 -0.56753,2.16298 -3.46373,2.53168 -3.74826,4.96565 -2.08772,1.69379 -1.37645,-1.88459 -1.3135,-2.97936 -1.82995,1.33976 -3.94895,2.52105 -5.4462,4.32493 -0.76234,2.57178 -3.43771,2.20577 -5.57435,2.11439 -2.12088,-0.9436 -3.07598,1.46021 -3.84438,2.97939 -0.95746,1.79897 1.09158,3.08111 2.21052,4.19679 1.08974,1.5966 4.1361,3.15197 2.0183,5.12581 -2.35947,1.2712 -0.35316,3.13417 0.44851,4.64529 1.77248,1.28096 0.43875,3.63942 2.08237,4.74139 -0.85777,1.30067 -3.75122,2.57812 -2.69106,4.29291 1.88561,0.23648 1.95212,1.85538 2.01829,3.39587 1.42676,0.41656 1.61739,-2.00908 5.0938,-1.98625 -2.11013,1.71852 -2.98056,4.27724 -4.99768,5.38212 -0.73789,1.85807 -1.66216,3.66472 -3.84438,3.74825 2.24211,0.35972 3.38906,2.20151 4.51714,4.06865 2.03213,1.00474 3.48003,4.98613 6.15101,3.33178 0.37885,-1.77788 2.00212,-2.97931 3.13957,-4.45306 0.54253,-1.70021 2.02523,0.29767 1.89015,1.40958 1.80707,2.3385 2.38967,-2.87326 2.91532,-4.32488 2.09761,-0.56327 1.28628,3.17014 2.49884,4.22881 8.278793,0.2699 1.05067,1.56414 -1.69793,2.17847 -0.95364,-2.1573 -4.47711,-0.026 -3.0755,1.72994 2.5809,-0.38185 1.71784,2.45891 2.69106,3.90845 -0.75362,1.14645 -2.9517,-2.06743 -4.38899,-2.24252 -1.13881,-0.68853 -5.28951,0.0677 -3.87642,1.72994 3.39167,2.13265 6.58957,4.54926 9.64298,7.14416 0.41973,0.87361 4.10034,2.79065 1.47368,2.46682 -2.88806,-0.30244 0.0965,1.71626 -0.86498,3.26769 -0.50123,0.58891 -0.79918,4.53407 -1.56979,2.69106 -0.85581,-2.05039 0.90573,-4.00097 -0.83295,-5.7986 -0.0217,-2.55047 -2.48662,-3.93709 -4.42103,-5.09378 -2.40314,-0.12063 -4.85868,-1.94824 -6.82377,-2.11443 -1.15246,0.89899 -4.75462,1.68217 -4.77344,0.0642 3.54433,-0.57272 1.88235,-4.49784 -0.89702,-4.7414 -2.08623,-0.9629 -1.36947,1.19492 -0.96109,2.27459 -0.97438,1.74868 -3.9554,-0.90766 -5.76657,-0.57667 -2.61557,0.24776 -5.66189,-0.33759 -7.8169,1.56982 0.23826,2.19635 -2.23165,1.42055 -3.39586,0.86497 -2.23109,-0.62011 -5.39506,0.74438 -6.91988,-1.56978 -1.56217,-0.5289 -3.98199,-3.44174 -1.08924,-4.32493 2.34412,-1.54448 -2.02438,-4.06575 -3.6842,-1.24942 0.6749,2.15787 0.58977,3.813 -1.3135,4.77343 0.67717,3.45891 4.78537,2.72681 6.34323,4.70937 -2.07417,2.18195 6.569,1.58649 1.92219,3.42789 -1.13375,2.61543 3.46967,3.94118 5.60638,0.41656 -1.96043,3.70144 -0.42276,5.29525 2.56292,6.31118 2.60969,3.02548 7.92612,0.86506 7.40042,1.69796 2.76678,1.12076 5.97534,5.71575 6.95192,8.48965 2.89739,2.37708 6.73992,-1.51658 7.01599,-0.67279 -2.70151,1.37235 -0.99484,6.16213 1.50571,3.49198 2.29208,-0.0173 3.76993,-0.0508 4.48511,-0.76885 -0.67773,3.07603 1.03975,8.13783 4.00456,7.6567 0.0495,-1.79957 -2.79019,-5.77733 0.73684,-5.83065 0.31133,3.30743 1.8659,6.3409 3.81234,8.97021 3.228343,-0.15491 5.071743,5.59044 8.233373,1.95423 1.06125,-1.68798 6.62771,-2.17101 1.98626,0.41656 -4.13961,1.72459 1.46923,4.84276 2.62699,5.89474 3.16312,-2.74022 1.15278,4.39006 4.61325,2.72309 2.58035,-2.52435 7.18747,0.71032 9.86724,-1.98625 2.13133,-3.3061 -2.90607,-5.37791 -4.03659,-8.13727 -0.48009,-3.24105 -6.24572,-2.65058 -4.61326,-6.91988 -1.10437,-1.52582 -4.19255,-6.16165 -5.12584,-2.08236 -1.34499,2.78952 -4.9059,1.7354 -2.27458,-0.92906 -2.46102,-1.325 -6.19449,-1.68593 -7.14414,-5.28605 -0.38362,-0.82218 -1.08987,-1.41508 -1.601823,-2.14645 -0.51194,-0.73132 1.246653,-1.28309 3.107543,-0.16011 1.86088,1.12293 2.49472,3.87899 4.99769,3.9725 1.80075,1.19964 3.03244,-0.66589 4.35696,-1.56978 1.75405,-0.66081 1.79273,-2.45965 0.32036,-3.39587 -0.8072,-1.9761 0.35459,-4.14099 -0.38445,-6.18304 0.15165,-1.98855 -1.47742,-3.71285 -2.08237,-5.15787 1.96596,0.62427 2.79327,2.72833 4.35695,3.90845 1.45144,1.61925 0.28973,4.6639 2.3707,5.70252 2.6517,-0.10457 0.14667,-3.13729 1.37757,-4.42103 1.0747,-1.53038 1.47522,-3.05234 2.7231,-4.357 -0.0161,-1.50373 -1.13561,-3.92138 -3.04346,-2.7551 -2.42027,1.36123 -4.38145,-1.36866 -6.15101,-2.62702 -1.9588,-1.26816 -3.16805,-3.76543 -5.67045,-4.1327 0.54162,-0.0816 4.62757,1.3234 3.94049,-1.1533 -1.4296,-2.02105 2.29709,-0.57724 2.37069,0.5446 -0.36106,0.79481 -1.08784,1.33525 0.16021,1.92221 1.40387,1.77589 2.82022,3.01897 5.47823,3.01142 1.42745,-1.71597 -2.11698,-2.4932 -2.7231,-3.90846 -1.82246,-1.8726 1.87581,-1.10054 3.01143,-1.21739 2.75062,-0.32457 0.67947,3.36194 2.53088,4.2929 1.37002,1.58575 3.86237,-0.28551 5.02973,1.66589 1.98283,0.78687 4.40702,-2.49328 1.82608,-3.49198 -1.03187,-1.587 -4.18599,-0.74725 -4.45307,-2.56292 1.1218,-1.24456 3.4989,-2.56627 0.92906,-3.81234 -1.8936,-0.89539 -3.36043,-2.37795 -5.15787,-3.4279 -0.73574,-0.44428 -2.0846,-1.48881 -0.38445,-1.3135 2.53676,-0.69167 4.04893,1.4104 5.63842,2.88328 1.59205,0.89526 3.38217,2.36081 1.85811,4.13275 0.50989,1.90606 3.78615,0.91786 4.90158,2.65899 0.61878,2.01949 3.8721,2.06023 5.28602,0.16011 0.61454,-1.22668 2.57924,-1.0827 2.40274,-2.24256 -1.12911,-0.53107 -2.2859,-1.37165 -2.40274,-2.72308 -0.11681,-1.35148 -1.53447,-5.58689 -4.54918,-3.26774 -3.01471,2.31915 -1.70241,-1.32266 -4.45307,-0.89703 -4.1891,0.2994 2.20674,-3.32887 -1.89015,-3.68416 -1.18085,-4.14191 -5.10389,-3.45892 -8.55374,-3.55608 -3.06662,-3.03597 -6.1972,2.59543 -9.80316,1.24942 -4.05849,-0.61277 0.64332,-1.7548 2.27459,-1.53775 2.81775,-3.22873 7.98132,-1.69592 11.66128,-3.90846 4.99004,-2.19986 6.29868,4.53989 10.76425,5.73455 1.48733,-3.47285 -1.52545,-6.33409 -5.02973,-7.40044 -4.10882,-3.22299 0.95917,-1.93235 5.02973,0.51259 5.7545,1.08292 7.86583,5.84311 9.8352,9.643 2.03221,2.78578 5.42109,3.04422 8.32948,1.85811 2.18482,-1.03302 5.23241,-4.02244 6.31119,-5.83066 1.18075,-1.97904 0.34778,-2.8014 1.31349,-5.09378 0.78054,-1.39144 3.00625,-2.37321 3.29976,-3.97254 -0.31441,-5.09834 7.61261,-2.98408 8.64984,-7.68873 8.55904,-5.75399 14.7508,-10.28047 22.42551,-16.81915 2.45792,-4.5923 9.6361,-3.20351 12.39815,-7.17618 3.21736,-1.90381 1.03502,-3.47202 -0.89703,-5.31808 -0.44368,-1.5719 -5.03386,-5.39223 -1.44164,-5.70248 0.44146,-3.08527 -2.59092,-7.85925 -5.15788,-10.25165 -1.23887,-0.99033 -2.31424,-1.38311 -3.33178,-1.40962 z m -68.20567,2.91531 c -4.85945,11.3318 3.66704,5.31577 1.60182,1.18537 -0.29641,-0.5929 -1.05031,-0.81767 -1.60182,-1.18537 z"
       style="fill:#000000;fill-opacity:1;fill-rule:evenodd;stroke:#d39062;stroke-width:1.02517;stroke-linecap:butt;stroke-linejoin:miter;stroke-miterlimit:4;stroke-opacity:1"
       id="Rio_Verde" />
  </g>
</svg>
