<?xml version="1.0" encoding="UTF-8" standalone="no"?>
<!-- Created with Inkscape (http://www.inkscape.org/) -->

<svg
   width="210mm"
   height="297mm"
   viewBox="0 0 210 297"
   version="1.1"
   id="svg1283"
   inkscape:version="1.1.2 (b8e25be833, 2022-02-05)"
   sodipodi:docname="vector.svg"
   xmlns:inkscape="http://www.inkscape.org/namespaces/inkscape"
   xmlns:sodipodi="http://sodipodi.sourceforge.net/DTD/sodipodi-0.dtd"
   xmlns="http://www.w3.org/2000/svg"
   xmlns:svg="http://www.w3.org/2000/svg">
  <sodipodi:namedview
     id="namedview1285"
     pagecolor="#ffffff"
     bordercolor="#666666"
     borderopacity="1.0"
     inkscape:pageshadow="2"
     inkscape:pageopacity="0.0"
     inkscape:pagecheckerboard="0"
     inkscape:document-units="mm"
     showgrid="false"
     inkscape:zoom="0.52347032"
     inkscape:cx="155.69173"
     inkscape:cy="305.65248"
     inkscape:window-width="1920"
     inkscape:window-height="1017"
     inkscape:window-x="-8"
     inkscape:window-y="-8"
     inkscape:window-maximized="1"
     inkscape:current-layer="layer1" />
  <defs
     id="defs1280" />
  <g
     inkscape:label="Capa 1"
     inkscape:groupmode="layer"
     id="layer1">
    <path
       d="m 107.94861,31.121405 c -2.33636,1.24427 -4.53072,0.929787 -6.68733,2.62097 -2.3661,1.140155 -4.32404,4.217619 -5.87178,7.008229 -0.27558,2.803018 -3.08168,3.754279 -2.066,7.359609 0.16524,4.10218 -0.0421,7.49195 -0.81553,10.96343 1.84785,1.97723 -0.88631,7.2994 2.67992,7.88663 3.20164,-1.24829 5.27523,3.1395 7.75798,2.223 2.53931,-0.52143 4.37756,-0.38683 6.63379,1.3096 2.50848,2.18811 3.36567,-0.92577 5.8718,-2.16514 3.43292,-3.01867 3.59488,1.64223 4.62049,3.93058 3.21861,0.69029 2.18623,3.13051 4.36616,3.93231 5.21625,-1.7895 3.5807,3.09286 4.38798,6.34114 -0.42431,2.8151 -1.05634,5.43392 -2.11953,7.67445 0.15794,3.11541 -1.37042,5.05087 -4.56777,4.33118 -2.56504,-0.18352 -6.97967,-0.43911 -8.37275,1.76631 1.04262,2.96732 -2.84601,4.802727 -1.63189,7.463167 0.86733,2.53653 4.94321,-2.82167 5.00274,0.85553 0.84441,1.06402 5.05268,2.70685 3.31647,5.24195 -0.89826,1.87594 -2.37353,3.50269 -3.31647,5.69774 -1.84786,2.95841 -3.55195,5.18147 -5.0019,7.86288 -1.58072,0.94752 -4.63834,3.08698 -6.48572,2.22217 -2.94678,-0.55233 -4.41296,-2.94329 -7.89251,-2.22217 -2.67589,0.84738 -3.64075,4.60018 -1.11679,6.15356 3.58263,-0.46028 3.83356,3.7071 4.18638,6.74003 1.30342,2.29035 1.55625,3.62175 2.93588,5.51015 1.69939,-1.37782 7.08678,-2.84427 5.81743,1.66188 -0.31069,2.55574 -3.83758,4.65935 -2.066,7.51152 0.9841,3.04712 0.0191,6.03138 -2.9359,6.15355 -2.62388,2.05674 -5.00066,-0.49381 -7.50202,-8.5e-4 -2.81733,1.36743 -4.30218,-0.82272 -7.04609,-1.30963 -2.72388,2.08553 -4.80942,-0.38795 -7.96043,0 -2.15423,2.32725 -3.04455,3.04081 -4.62133,5.64081 -1.2622,2.9907 0.0666,5.25436 2.50095,7.00823 -0.56785,2.74249 -1.94603,3.54607 -2.50095,6.34116 -0.58232,2.68449 -0.84765,6.47214 -0.81552,9.84047 -1.6861,2.51603 -5.20442,3.92732 -7.55721,6.60937 -1.56925,1.16537 -2.8239,3.93481 -6.38607,3.01984 -2.44704,0.38203 -3.50618,1.96928 -3.61773,4.81934 0.11092,2.82 -2.33872,3.9231 -4.56696,5.26567 -2.869,0.39387 -4.77838,1.79319 -8.4838,1.31049 -3.07461,0.0927 -5.55845,0.79891 -6.95685,-2.16516 -0.66477,-2.28536 -2.972977,-3.3588 -5.436834,-1.7663 -1.657287,1.0361 -3.178423,2.21487 -4.621331,3.47558 -1.362569,1.66629 -3.415625,2.01702 -5.001056,3.53174 -2.264903,0.88084 -4.842259,0.23211 -7.123101,-0.45502 -1.96776,-1.74973 -4.374535,-2.9483 -5.817423,-0.45568 -2.6207343,2.03773 -1.2102363,6.0594 -1.2504783,9.37046 -0.806945,3.37557 -4.151746,6.18479 -6.687328,7.72286 -1.458518,0.57798 -3.26998597,3.83446 -2.50094797,5.69775 -0.199499,3.36005 4.39182097,3.17521 6.25237497,2.16509 1.825099,-2.51734 5.5986983,-0.48527 7.4802143,-1.31048 2.457741,1.77615 5.264935,1.49348 7.960418,1.76636 1.600376,1.46454 3.961143,1.0282 6.306761,0.45567 2.19573,-1.08468 3.953345,-4.62957 7.457554,-3.98846 3.242787,-0.1874 4.057287,2.33461 7.548147,1.76629 2.30969,-1.0931 4.74134,-4.32486 7.50283,-2.62097 1.09321,2.33777 1.93571,4.73189 4.62133,5.24194 1.86559,1.47928 6.42668,1.34521 6.25238,5.21821 -0.68031,3.72597 -0.37947,7.8779 -0.43497,11.87511 1.44271,3.2726 4.21338,1.00973 5.8718,0 1.60513,-0.76512 3.39363,2.11815 6.25237,1.31049 1.91117,-1.11829 2.57208,-4.43363 3.75142,-6.15363 2.94314,-1.15399 4.87002,1.18522 5.8718,2.62097 -0.0112,2.38597 1.73727,5.74621 3.31648,4.65554 1.47611,-1.43916 1.53655,-5.74614 5.0019,-4.65554 1.9349,1.75032 5.0794,0.42083 7.12226,0 2.58981,-1.17102 5.00496,-2.58145 8.31838,-1.31048 2.99235,-1.53892 4.29839,2.5247 7.89252,1.76629 2.60943,-1.08061 5.18663,0.0967 5.48213,3.26438 0.79758,3.05205 4.97046,1.66266 5.87178,5.05434 0.61349,5.29967 7.08603,6.73937 11.25428,8.31872 2.40754,-0.32351 4.0718,-3.51904 6.86629,-3.93145 3.52495,-0.88598 4.8865,-1.682 8.35012,-0.45568 3.8407,0.83692 2.29843,-6.0016 6.09603,-4.38727 3.45926,-0.45896 3.13454,-4.47656 5.43685,-6.55242 2.9638,-1.70791 4.37698,-5.44 5.38248,-8.29499 -0.91489,-3.28666 -0.43608,-6.80143 2.93506,-5.26475 2.23569,-6.33741 -3.33898,-11.37505 -3.75059,-17.49297 -1.80829,-2.0716 -3.97831,-3.90661 -6.05077,-4.84314 -1.23041,-2.6603 -7.03317,0.006 -6.88893,-3.90772 0.37007,-3.03194 4.24458,-5.91606 1.12228,-8.57418 1.46583,-2.80982 -0.19035,-5.16994 -1.27566,-8.25408 -0.94892,-2.07002 -5.41263,-6.10563 -1.11972,-7.23996 2.25912,-2.02885 0.4328,-5.40027 -0.7929,-7.86291 2.73196,-2.26017 0.19358,-6.37048 2.88154,-7.46404 2.13013,-1.96718 4.17094,-4.41495 3.75141,-7.00824 3.11084,-1.73079 -5.65905,1.97618 -3.31648,-3.47564 1.49632,-3.18916 4.52699,-3.77365 6.8663,-4.38727 2.90077,-1.2183 2.69062,-5.23365 7.08819,-3.28811 3.05463,-3.49728 3.74003,2.02451 6.84718,0.69134 3.03082,0.1131 5.20866,0.45699 7.48789,-2.21323 2.22315,-0.72606 6.28751,-2.83664 6.77811,-4.3634 0.82438,-3.57066 -5.30352,-2.48886 -4.18638,-6.77322 -1.72749,-2.4869 -4.24123,-2.29582 -2.67969,-6.09241 -2.56741,-3.1113 -0.085,-5.2476 3.11465,-5.08229 2.90565,-0.79129 5.73007,-0.77742 7.9378,0.39913 -1.43612,-2.50965 -2.07516,-6.39442 1.83415,-6.29605 4.55514,-1.0238 7.99471,-4.52897 10.6706,-8.11926 0.73162,-1.9811 1.33305,-6.91969 -1.63106,-6.15358 -0.71897,-3.00717 1.24446,-6.48046 -1.44974,-8.9289 -3.03891,-1.099817 -3.75838,-5.280187 -6.68973,-6.948737 -3.29645,-2.0715 -1.68504,-3.75042 -1.66271,-5.09008 -2.64945,-0.64446 -6.48339,-0.63401 -7.47811,-3.77926 -0.55628,-2.47715 -0.55148,-8.45724 -4.46711,-6.30576 -0.24789,-0.70589 3.39821,-5.66936 -0.10665,-7.70985 -1.38791,-2.89784 -5.391,-4.34131 -4.07963,-7.61711 0.63078,-2.61438 -0.49638,-5.81563 -2.88154,-7.00822 -3.39307,1.13159 -6.4147,-1.99868 -10.05817,-0.85467 -4.00371,0.5357 -5.01441,-3.52077 -8.75333,-3.47564 -3.80902,2.84236 -2.28362,-4.42162 -5.0019,-4.84309 -0.71632,3.74904 -5.4675,1.56971 -5.87178,-1.04221 -3.15614,-0.2237 -4.71703,4.09905 -6.9231,6.05146 -0.2884,4.21403 -2.34958,-1.88911 -4.9873,-0.75632 -4.01434,1.5818 -2.43878,-6.23302 -6.80144,-4.65176 -0.4034,-3.268661 -4.02191,-3.528786 -6.73178,-3.533487 -1.35584,1.185433 -6.85339,-4.717609 -2.85745,-5.592504 1.09008,-2.220131 -3.28505,-3.534305 -5.22607,-5.101838 -2.34736,-1.138156 -4.82118,-1.2104 -7.35795,-1.09913 z"
       style="fill:#000000;fill-opacity:1;stroke:#d39062;stroke-width:0.869878;stroke-miterlimit:4;stroke-dasharray:none;stroke-opacity:1"
       id="Coihaique" />
  </g>
</svg>
