<?xml version="1.0" encoding="UTF-8" standalone="no"?>
<!-- Created with Inkscape (http://www.inkscape.org/) -->

<svg
   width="210mm"
   height="297mm"
   viewBox="0 0 210 297"
   version="1.1"
   id="svg1283"
   inkscape:version="1.1.2 (b8e25be833, 2022-02-05)"
   sodipodi:docname="vector.svg"
   xmlns:inkscape="http://www.inkscape.org/namespaces/inkscape"
   xmlns:sodipodi="http://sodipodi.sourceforge.net/DTD/sodipodi-0.dtd"
   xmlns="http://www.w3.org/2000/svg"
   xmlns:svg="http://www.w3.org/2000/svg">
  <sodipodi:namedview
     id="namedview1285"
     pagecolor="#ffffff"
     bordercolor="#666666"
     borderopacity="1.0"
     inkscape:pageshadow="2"
     inkscape:pageopacity="0.0"
     inkscape:pagecheckerboard="0"
     inkscape:document-units="mm"
     showgrid="false"
     inkscape:zoom="0.74029882"
     inkscape:cx="361.34057"
     inkscape:cy="561.93525"
     inkscape:window-width="1920"
     inkscape:window-height="1017"
     inkscape:window-x="-8"
     inkscape:window-y="-8"
     inkscape:window-maximized="1"
     inkscape:current-layer="layer1" />
  <defs
     id="defs1280" />
  <g
     inkscape:label="Capa 1"
     inkscape:groupmode="layer"
     id="layer1">
    <path
       d="m 1.9584454,92.085089 c -1.76211997,2.13858 -0.67709,3.25708 0,5.71494 1.83549,0.93387 3.26228,2.277821 6.43499,1.87508 2.2178996,1.548141 4.0449796,2.956891 3.7950796,6.195021 1.97549,2.08278 1.15243,4.97059 2.47498,6.63001 0.66334,2.04121 2.99893,2.41109 3.12013,4.99505 1.11423,1.7719 1.59446,3.16629 2.67368,5.62874 2.25397,2.98838 -2.72473,2.29615 -3.15376,4.07631 -3.0515,2.4007 1.08671,4.35479 0,7.51497 0.30416,2.54651 4.02664,1.67332 2.47498,6.07504 0.88955,3.2476 -1.41073,5.52312 -4.67989,4.59017 -2.48996,1.21204 -0.96902,3.24577 0.88496,5.43004 -0.60067,1.56312 -1.9949,2.48171 0,3.79493 -0.0764,2.86748 -2.19757,4.8121 -1.32056,8.11488 -1.39087,3.51553 2.94956,4.76854 0,5.91027 1.39393,0.9247 4.34563,1.78123 3.79509,5.23486 -0.0611,5.70898 0.90941,11.36875 1.32056,17.05511 -3.09232,0.6939 -2.40498,0.92011 -2.04167,5.26222 0.23996,2.92097 0.48145,5.84195 0.72141,8.76293 2.89194,-0.42796 5.75101,-1.18453 5.59496,-3.79509 3.19441,-0.44018 1.25331,4.25606 5.78999,2.47499 -3.11845,-3.89046 2.71051,-2.08264 5.08492,-2.47499 -1.19217,4.06241 3.4408,1.75815 5.76844,1.97611 3.14733,-0.27359 6.29452,-0.54718 9.44185,-0.82077 -1.24108,-4.10291 4.16069,-2.40207 4.75494,-1.15549 2.88598,0.0306 6.28917,-0.45853 7.59001,1.15549 3.11173,0.19411 1.91344,-3.42474 5.7151,-2.47498 1.35418,1.72911 4.22778,0.81312 7.22762,0.25066 5.95964,-0.53036 11.81658,-2.21561 17.77744,-2.72595 0.36224,-2.22967 0.60067,-5.45128 3.17913,-4.63526 4.815155,-1.02099 1.79407,4.68631 4.695945,4.63526 5.8713,0.10699 11.68941,-0.89566 17.53518,-1.32056 -1.24873,-4.15334 3.87884,-1.93101 6.2398,-2.47498 3.05777,-1.38628 5.00942,3.10668 6.46509,0.19564 0.3653,-2.53581 0.50591,-5.06933 3.23477,-5.45327 5.31327,-0.60679 10.99871,-0.40351 16.07981,-1.5162 2.31893,-2.09853 6.15605,-0.84522 9.12318,-1.51315 9.9762,-0.26289 19.80688,-2.47437 29.80769,-1.94232 6.32509,-12.26517 12.65002,-24.53018 18.97511,-36.7952 -20.49483,-5.98807 -40.5351,-13.36288 -60.72042,-20.29506 -2.60933,-1.86881 0.5594,-7.5434 -3.71332,-6.09078 -16.08715,1.20593 -32.1746,2.41048 -48.261915,3.6158 0.32861,5.1939 -2.32046,-0.72753 -1.32056,-3 -1.85979,-1.31292 -4.29518,-0.85133 -6.13327,-3.13327 -3.0405,0.16507 -1.57214,-3.83635 -4.21678,-3.93188 -7.15594,1.48869 -14.10264,4.33798 -21.17864,6.34664 -4.42419,2.86091 -3.35429,-0.92775 -4.90656,-2.55156 -0.83605,-1.74683 -2.23624,-4.94644 -3.315,-6.43513 -3.44049,-0.61137 -3.92837,2.97325 -6.55497,2.64005 -0.94609,2.19329 -4.00539,0.79173 -4.35005,-0.95985 -2.07255,-0.65723 -1.81042,-3.64958 -5.355,-2.83493 -3.27022,1.01641 -2.67413,-4.08166 -4.87507,-4.27516 -0.70155,-2.10953 -0.2583,-6.433611 -3.07489,-5.954901 -0.47228,-1.14632 -5.84195,-2.02318 -5.67016,-1.51467 -1.74729,0.37904 -5.04778,-1.37865 -6.07503,-2.27996 -2.79703,-0.77185 -4.44436,3.30859 -5.78999,0 -3.1370996,0.32708 -5.5159396,-0.10699 -5.9550596,-2.47498 -3.7208,0.90788 -1.3282,-2.25428 -5.11503,-1.32056 z"
       style="fill:#000000;fill-opacity:1;stroke:#d39062;stroke-width:2.02199;stroke-miterlimit:4;stroke-dasharray:none;stroke-opacity:1"
       id="Llanquihue" />
  </g>
</svg>
