<?xml version="1.0" encoding="UTF-8" standalone="no"?>
<!-- Created with Inkscape (http://www.inkscape.org/) -->

<svg
   width="210mm"
   height="297mm"
   viewBox="0 0 210 297"
   version="1.1"
   id="svg57"
   inkscape:version="1.1.2 (b8e25be833, 2022-02-05)"
   sodipodi:docname="vector.svg"
   xmlns:inkscape="http://www.inkscape.org/namespaces/inkscape"
   xmlns:sodipodi="http://sodipodi.sourceforge.net/DTD/sodipodi-0.dtd"
   xmlns="http://www.w3.org/2000/svg"
   xmlns:svg="http://www.w3.org/2000/svg">
  <sodipodi:namedview
     id="namedview59"
     pagecolor="#ffffff"
     bordercolor="#666666"
     borderopacity="1.0"
     inkscape:pageshadow="2"
     inkscape:pageopacity="0.0"
     inkscape:pagecheckerboard="0"
     inkscape:document-units="mm"
     showgrid="false"
     inkscape:zoom="0.74029882"
     inkscape:cx="361.34057"
     inkscape:cy="453.87078"
     inkscape:window-width="1920"
     inkscape:window-height="1017"
     inkscape:window-x="-8"
     inkscape:window-y="-8"
     inkscape:window-maximized="1"
     inkscape:current-layer="layer1" />
  <defs
     id="defs54" />
  <g
     inkscape:label="Capa 1"
     inkscape:groupmode="layer"
     id="layer1">
    <path
       inkscape:connector-curvature="0"
       id="Curanilahue"
       style="fill:#000000;fill-opacity:1;fill-rule:evenodd;stroke:#d39062;stroke-width:0.548579;stroke-linecap:butt;stroke-linejoin:miter;stroke-miterlimit:4;stroke-dasharray:none;stroke-opacity:1"
       d="m 150.83591,69.994279 c -0.18817,0.03571 -0.40542,0.01984 -0.58287,0.06858 -0.6906,0.188623 -1.30895,0.451778 -1.74859,0.891443 -0.69663,0.69663 -1.298,1.133727 -1.85146,1.37145 -0.55346,0.237706 -1.039,0.294213 -1.54288,0.20574 -1.00775,-0.176948 -2.02339,-0.891703 -3.39433,-1.577168 -1.14092,-0.570454 -2.37669,-0.868431 -3.70291,-0.96001 -1.32623,-0.09159 -2.73524,0.04081 -4.2172,0.411422 -1.29724,0.324309 -2.68109,0.453818 -4.11435,0.514293 -1.43326,0.06048 -2.92487,0.03401 -4.38863,0.03401 -1.53475,0 -2.9885,0.181652 -4.32007,0.411423 -1.33156,0.229827 -2.53332,0.506641 -3.60005,0.720009 -1.76765,0.353498 -3.34504,0.752582 -4.9715,0.925727 -1.62646,0.17315 -3.29214,0.136989 -5.2115,-0.342843 -1.2696,-0.317395 -2.43191,-0.765816 -3.39434,-1.405735 -0.96242,-0.639918 -1.75378,-1.484663 -2.29717,-2.571468 -0.57146,-1.142909 -0.9699,-1.939325 -1.33717,-2.537178 -0.367271,-0.597852 -0.692161,-0.992645 -1.097151,-1.268592 -0.80998,-0.551869 -1.94195,-0.665502 -4.35435,-1.268586 -0.75889,-0.1897 -1.36629,-0.522964 -1.92003,-0.857158 -0.55374,-0.334171 -1.05772,-0.689585 -1.50859,-0.9943 -0.45087,-0.304699 -0.85255,-0.550113 -1.30288,-0.651435 -0.4503,-0.101283 -0.92223,-0.03571 -1.4743,0.240029 -0.53985,0.269956 -0.94943,0.74348 -1.23431,1.337166 -0.28486,0.593681 -0.46362,1.275892 -0.61715,1.954312 -0.15348,0.678419 -0.26565,1.361594 -0.41142,1.885742 -0.14583,0.524155 -0.32114,0.897717 -0.58287,1.028585 -1.08137,0.540705 -1.78747,1.240854 -2.43432,2.022886 -0.64685,0.782032 -1.23009,1.641536 -2.09146,2.502894 -0.45194,0.45189 -1.51324,1.526423 -2.77718,2.160028 -0.63196,0.316828 -1.30145,0.546372 -1.9886,0.514292 -0.68715,-0.03231 -1.37909,-0.316204 -2.02288,-0.96001 -0.37901,-0.379003 -1.52827,-1.4994 -2.70861,-2.537178 -1.18035,-1.037784 -2.42061,-1.98859 -2.98291,-1.988602 -0.72702,0 -1.20384,0.245528 -1.57716,0.617151 -0.37333,0.371635 -0.6228,0.875964 -0.85716,1.371451 -0.23436,0.495475 -0.44418,0.965553 -0.75429,1.33716 -0.31014,0.371578 -0.73651,0.617162 -1.33717,0.617151 -1.51907,0 -3.06201,-0.129735 -4.52577,-0.342843 -1.46377,-0.213107 -2.82299,-0.508624 -3.94292,-0.788583 -1.35053,-0.337629 -2.53095,-0.963338 -3.70291,-1.268592 -0.58597,-0.152633 -1.17971,-0.229828 -1.78288,-0.13716 -0.60316,0.09272 -1.22415,0.36098 -1.88574,0.857152 -0.72071,0.540534 -1.36532,0.949837 -1.95431,1.200018 -0.58899,0.250175 -1.11113,0.341029 -1.57717,0.240029 -0.46606,-0.101056 -0.88244,-0.412726 -1.2343,-0.925726 -0.35186,-0.513046 -0.64497,-1.242702 -0.89144,-2.228608 -0.32817,-1.312551 -2.84575,-8.355037 -2.84576,-7.92011 0,0.376283 -0.0619,1.356952 -0.30855,2.605752 -0.24672,1.248795 -0.65956,2.759168 -1.37144,4.182914 -0.53821,1.076421 -1.38376,1.902605 -2.22861,2.742895 -0.84484,0.840297 -1.68462,1.689208 -2.29717,2.914328 -0.5487,1.097392 -0.6618,2.827027 -0.92573,4.251494 -0.13195,0.712228 -0.28815,1.351573 -0.58287,1.817169 -0.29472,0.465606 -0.72371,0.754293 -1.33716,0.754293 -2.432378,0 -3.57815,-0.0119 -4.457208,0.342843 -0.879052,0.354575 -1.501395,1.05566 -2.914328,2.468604 -1.052865,1.052865 -1.887777,2.383916 -2.67432,3.565763 -0.786544,1.181852 -1.502637,2.225644 -2.400036,2.674326 -0.768264,0.384161 -1.37769,0.598521 -1.885742,0.685725 -0.508058,0.08723 -0.932551,0.04364 -1.371445,-0.06858 -0.877794,-0.224386 -1.818246,-0.763129 -3.565769,-1.200017 -1.372006,-0.343013 -2.4470489,-0.442482 -3.2914769,-0.13716 -0.422192,0.15269 -0.80124,0.392606 -1.097154,0.788584 -0.295913,0.395949 -0.512365,0.918069 -0.685725,1.611451 -0.61723,2.468882 -1.705905,4.012145 -2.262892,6.24009 -0.670349,2.681409 -0.857595,6.276169 -1.131444,7.371539 -0.335134,1.34061 -1.100548,2.84824 -1.954311,4.04577 -0.192704,0.27035 -0.382234,0.45257 -0.582867,0.68573 0.861698,0.35094 1.736307,0.73697 2.605753,1.26859 1.122437,0.6863 2.225179,1.43009 3.188613,2.05717 0.963439,0.62708 1.818699,1.11468 2.434325,1.26859 0.402978,0.10072 0.710165,0.30356 0.960011,0.54858 0.249835,0.24502 0.4243449,0.53974 0.5485819,0.89144 0.248531,0.70335 0.25981,1.59874 0.17145,2.5029 -0.176778,1.8083 -0.7929589,3.72044 -0.9943009,4.52578 -0.118173,0.47263 -0.106554,0.88389 0,1.2343 0.106554,0.35038 0.325216,0.64108 0.617157,0.89144 0.5839039,0.50075 1.4822149,0.79507 2.5714619,1.02859 2.178494,0.46702 5.060952,0.60076 7.371533,1.06287 1.696332,0.33927 2.09723,0.18624 2.674326,0.37713 0.577092,0.19095 1.30787,0.72342 3.634338,2.43433 1.775697,1.30583 6.835819,4.25242 9.874429,5.62293 -0.30255,-0.047 -0.79358,0.047 -1.33716,0.37713 -0.5436,0.32991 -1.15515,0.90133 -1.68003,1.81717 -0.52489,0.91584 -0.95357,2.16354 -1.20002,3.87434 -0.24643,1.7108 -0.29172,3.86816 0,6.58296 -0.22642,0.76048 -1.19414,1.78648 -2.12574,3.05147 -0.46578,0.63248 -0.940871,1.33452 -1.302877,2.09146 -0.362,0.75694 -0.614232,1.55403 -0.685725,2.43432 -0.160851,1.9808 0.806193,4.90106 0.582867,5.79437 -0.208517,0.83407 -0.179498,1.52484 -0.06858,2.12574 0.110918,0.6009 0.308212,1.11262 0.445712,1.61145 0.1375,0.49882 0.197352,0.98075 0.06858,1.5086 -0.128771,0.52783 -0.477792,1.09495 -1.165733,1.78288 -0.297047,0.29705 -0.292173,0.74719 -0.13716,1.26859 0.155013,0.52143 0.472181,1.12428 0.788578,1.7486 0.04478,0.0888 0.05793,0.18482 0.102813,0.27426 0.582578,0.29212 1.193905,0.58019 2.194315,1.33716 1.39656,1.05673 2.78564,2.20277 3.08576,2.50289 0.26774,0.26775 0.47745,0.39811 0.61715,0.41143 0.13971,0.013 0.20432,-0.0923 0.24003,-0.27427 0.0713,-0.36404 -0.0391,-1.0604 -0.24003,-1.85145 -0.40213,-1.58209 -1.16732,-3.55646 -1.50859,-4.01149 -0.15604,-0.20806 -0.19157,-0.37883 -0.13716,-0.54858 0.0544,-0.16975 0.1982,-0.31003 0.41142,-0.44571 0.42644,-0.27137 1.13415,-0.49094 1.88574,-0.65144 1.50319,-0.32097 3.24183,-0.46759 3.56576,-0.54858 0.31774,-0.0795 0.5985,-0.26497 0.89145,-0.41143 0.595,-0.2975 1.39071,-0.29529 2.33146,-0.10281 0.94075,0.19248 2.02187,0.56755 3.08576,0.99429 2.12776,0.85352 4.26978,1.90312 5.55436,2.16004 1.42181,0.28435 2.46451,0.57389 3.39434,0.92572 0.92983,0.35186 1.76633,0.76318 2.77718,1.2686 0.95851,0.47926 1.80349,1.24495 2.60575,2.05717 0.80227,0.81221 1.56249,1.69963 2.2286,2.36575 1.06722,1.06721 2.08546,1.95736 3.15434,2.74289 1.06887,0.78554 2.17996,1.46714 3.42862,2.09146 1.51279,0.75639 2.45828,1.28555 3.49719,1.64574 1.03891,0.36018 2.1754,0.54858 3.9772,0.54858 0.47762,0 0.92804,0.20166 1.37145,0.51429 0.44339,0.31264 0.85091,0.71786 1.2343,1.16573 0.76678,0.89574 1.41101,1.89102 1.78289,2.26289 0.99348,0.99348 1.96283,2.32987 2.91432,3.18862 0.47575,0.42939 0.93981,0.73413 1.40574,0.82286 0.46594,0.0888 0.9149,-0.0577 1.37144,-0.51429 0.61537,-0.61535 1.14908,-1.06385 1.64574,-1.40573 0.49667,-0.34188 0.96192,-0.54586 1.5086,-0.61715 0.54665,-0.0713 1.15464,-0.0249 1.92002,0.17145 0.76538,0.19638 1.69296,0.53316 2.84576,0.9943 0.63695,0.25476 1.30041,0.3913 1.9886,0.44571 0.68818,0.0544 1.4002,0.0363 2.09145,0 1.3825,-0.0728 2.734311,-0.22116 3.840061,0 1.5024,0.30045 2.67061,0.6861 3.70291,1.20001 1.03231,0.5139 1.92028,1.13164 2.88004,1.85147 0.35135,0.26348 0.9745,0.32815 1.71431,0.23997 0.73981,-0.0882 1.59985,-0.31904 2.46861,-0.58288 1.73753,-0.52767 3.48664,-1.23166 4.18292,-1.40573 1.19035,-0.29762 2.4549,-0.26616 3.66862,-0.24003 1.21372,0.0261 2.37452,0.0408 3.36005,-0.20573 0.89347,-0.22337 1.61861,-0.16568 2.29718,0.0686 0.67856,0.23425 1.28282,0.66928 1.88574,1.16573 0.60291,0.49644 1.2192,1.04819 1.88574,1.61144 0.66653,0.56327 1.39346,1.10818 2.26289,1.54288 1.33657,0.6683 2.23227,0.85956 3.05147,0.72002 0.81919,-0.13954 1.57514,-0.58186 2.67432,-1.13145 0.70902,-0.35452 1.09551,-0.44742 1.44002,-0.44572 0.34449,0.002 0.65051,0.0916 1.20002,0 0.45637,-0.22818 0.87655,-0.32453 1.26859,-0.30854 0.39204,0.0159 0.72856,0.13534 1.06287,0.34283 0.66863,0.41506 1.23689,1.15675 1.71431,2.02289 0.95483,1.73228 1.58428,3.95712 2.09146,4.9715 0.58026,1.16051 1.28339,1.87418 1.9886,2.43432 0.70521,0.56015 1.40059,0.95487 1.95431,1.5086 0.46391,0.4639 0.9944,1.16149 1.68003,1.88574 0.68562,0.72424 1.55507,1.49754 2.7429,2.09145 0.64011,0.32007 1.25048,0.8226 1.85145,1.40575 0.60097,0.58313 1.19163,1.23965 1.68002,1.88574 0.97677,1.29218 1.62853,2.50262 1.71431,2.84575 0.0896,0.35792 0.0363,0.95316 0.20574,1.71431 0.16913,0.76116 0.5855,1.68265 1.57717,2.67433 0.18925,0.18925 0.22144,0.4702 0.17145,0.82287 -0.0499,0.35265 -0.20517,0.7985 -0.34284,1.26859 -0.13767,0.47008 -0.26911,0.96708 -0.34284,1.50859 -0.0737,0.5415 -0.0732,1.1131 0.0686,1.68002 0.32147,1.28588 0.32884,2.32318 0.034,3.12005 -0.1473,0.39844 -0.38626,0.74257 -0.68572,1.02859 -0.29949,0.28599 -0.64672,0.50556 -1.09716,0.68572 -0.52064,0.20823 -0.70088,0.47892 -0.65144,0.78858 0.0493,0.30969 0.30612,0.66639 0.68573,1.02859 0.75925,0.72438 1.93066,1.48495 2.57146,2.12575 0.16476,0.16476 0.26162,0.28639 0.41142,0.44571 1.01888,-0.20648 2.28561,-0.32669 3.66863,-0.41142 2.85411,-0.17485 -1.28378,-4.68487 1.61146,-5.65723 1.94959,-0.65474 6.50092,-1.999 9.15445,-0.20574 0.68891,0.46555 4.83052,-6.5521 4.18292,-8.67441 -1.36315,-4.46705 7.60936,-8.70912 5.24579,-9.63442 -6.61784,-2.59071 -12.97253,-8.80945 -2.36578,-8.81156 0.13376,-0.22008 0.32193,-0.38739 0.44549,-0.61715 0.66165,-1.2295 1.16829,-2.5816 1.54288,-4.08005 0.1825,-0.72968 0.11619,-1.3707 -0.13716,-1.95432 -0.25335,-0.58362 -0.69192,-1.119 -1.16575,-1.57716 -0.9477,-0.91633 -2.102,-1.5877 -2.64004,-2.12575 -0.31569,-0.31587 -0.5203,-0.63823 -0.61716,-0.92573 -0.0969,-0.28747 -0.11052,-0.56258 -0.034,-0.82287 0.15246,-0.52058 0.62731,-0.98712 1.20004,-1.40573 1.14545,-0.83723 2.7488,-1.4702 3.3943,-1.95431 1.26941,-0.95205 1.9742,-1.78811 2.64005,-2.53719 0.66584,-0.74907 1.30494,-1.40676 2.46859,-1.98859 1.2027,-0.60134 1.96745,-1.0871 2.33149,-1.81717 0.18193,-0.36506 0.25278,-0.8057 0.23974,-1.33717 -0.0113,-0.53146 -0.11165,-1.16692 -0.30832,-1.95431 -0.0227,-0.089 0.75523,-1.07454 1.57716,-2.19432 0.82194,-1.11977 1.68509,-2.35162 1.8172,-2.88003 0.19667,-0.78766 0.735,-1.41037 1.30285,-2.0229 0.56785,-0.61252 1.1798,-1.22814 1.54288,-1.95431 0.27488,-0.55 0.79133,-1.08794 1.33713,-1.85145 0.54581,-0.76352 1.10125,-1.76484 1.47436,-3.25719 0.14679,-0.58645 0.15246,-1.14691 0.0686,-1.71431 -0.0839,-0.56741 -0.25732,-1.1269 -0.41148,-1.71431 -0.15416,-0.58742 -0.27885,-1.20497 -0.3429,-1.85146 -0.0641,-0.64649 -0.051,-1.31255 0.13716,-2.05717 0.48573,-1.94353 0.88598,-2.96799 0.68568,-3.63434 -0.10031,-0.33315 -0.35196,-0.60305 -0.82284,-0.82287 -0.47099,-0.21979 -1.15078,-0.40768 -2.12575,-0.65143 -0.46702,-0.1167 -0.73069,-0.40462 -0.85714,-0.82288 -0.12639,-0.41822 -0.13205,-0.97182 -0.10258,-1.54287 0.0283,-0.57105 0.10372,-1.17349 0.10258,-1.7486 -6.8e-4,-0.57511 -0.0589,-1.11244 -0.27431,-1.54288 -0.23635,-0.47241 -0.27716,-0.91055 -0.23975,-1.33716 0.0397,-0.42662 0.15473,-0.85548 0.13716,-1.2343 -0.017,-0.37884 -0.14906,-0.7338 -0.54864,-1.06288 -0.39958,-0.32907 -1.08487,-0.61409 -2.19427,-0.89144 -0.4948,-0.12367 -0.63774,-0.40167 -0.54864,-0.78858 0.089,-0.38694 0.41204,-0.89682 0.82284,-1.44002 0.82143,-1.08642 2.0366,-2.35888 2.57147,-3.42862 0.98619,-1.97237 2.24891,-4.71284 3.39436,-6.24009 0.22954,-0.30617 0.48176,-0.49293 0.75426,-0.58287 0.27262,-0.09 0.55261,-0.0906 0.8572,-0.034 0.60934,0.11279 1.28238,0.44147 1.9543,0.72001 0.67185,0.27852 1.34184,0.52654 1.98859,0.41143 0.32363,-0.0575 0.65933,-0.21918 0.96,-0.48001 0.30039,-0.26083 0.55601,-0.63172 0.8229,-1.16572 0.35197,-0.70429 0.55998,-1.43536 0.61711,-2.19432 0.0572,-0.75896 -0.0113,-1.553 -0.13716,-2.33146 -0.24655,-1.55694 -0.74378,-3.10179 -1.02859,-4.52578 -0.24881,-1.24419 -0.97955,-2.64568 -1.98864,-3.80577 -0.50443,-0.58005 -1.09314,-1.08675 -1.71427,-1.5086 -0.62119,-0.42185 -1.2655,-0.75352 -1.9543,-0.92572 -0.98812,-0.24706 -1.90057,-0.40893 -2.74291,-0.48 -0.8424,-0.0711 -1.60574,-0.0583 -2.36578,0.0686 -0.75999,0.12684 -1.52191,0.3731 -2.26286,0.72 -0.74094,0.34687 -1.47769,0.81683 -2.26291,1.40574 -1.0483,0.78624 -1.86894,1.42821 -2.53717,1.92003 -0.66823,0.49179 -1.19669,0.81846 -1.68004,0.92572 -0.48346,0.10729 -0.91211,-0.01 -1.40571,-0.37713 -0.49367,-0.36738 -1.0495,-0.98786 -1.74862,-1.92003 -0.5101,-0.67996 -1.02059,-1.12573 -1.54288,-1.44002 -0.52257,-0.31427 -1.02949,-0.5021 -1.61145,-0.65144 -1.16382,-0.29863 -2.49671,-0.45977 -4.18292,-1.30287 -1.21472,-0.60739 -2.58411,-0.81955 -4.01147,-0.9943 -1.42737,-0.17473 -2.92173,-0.32754 -4.49148,-0.72001 -0.57459,-0.14362 -0.96822,-0.45863 -1.3029,-0.85715 -0.3344,-0.39856 -0.60469,-0.87759 -0.92572,-1.33717 -0.32079,-0.45959 -0.70059,-0.87329 -1.23432,-1.20001 -0.5339,-0.32675 -1.22168,-0.54859 -2.19432,-0.54859 -3.39243,0 -5.524,0.54859 -8.50298,0.54859 -0.57914,0 -1.08378,-0.10542 -1.50859,-0.30856 -0.4248,-0.20313 -0.75649,-0.50244 -1.06287,-0.89144 -0.61276,-0.77798 -1.05119,-1.90755 -1.40574,-3.32577 -0.10162,-0.40626 2.63754,-5.95579 2.84576,-6.788667 0.36211,-1.448425 0.24949,-2.826314 0.10281,-4.080056 -0.14663,-1.253748 -0.32737,-2.393375 -0.10281,-3.291477 0.43811,-1.752415 0.95492,-3.366422 1.02858,-4.868639 0.0368,-0.751114 -0.0312,-1.462656 -0.27426,-2.160034 -0.24332,-0.697373 -0.68765,-1.373378 -1.33716,-2.022886 -0.51396,-0.513952 -1.03829,-2.247748 -1.61145,-4.045771 -0.55114,-1.728871 -1.14411,-3.449642 -1.71431,-4.285778 z" />
  </g>
</svg>
