<?xml version="1.0" encoding="UTF-8" standalone="no"?>
<!-- Created with Inkscape (http://www.inkscape.org/) -->

<svg
   width="210mm"
   height="297mm"
   viewBox="0 0 210 297"
   version="1.1"
   id="svg64"
   inkscape:version="1.1.2 (b8e25be833, 2022-02-05)"
   sodipodi:docname="vector.svg"
   xmlns:inkscape="http://www.inkscape.org/namespaces/inkscape"
   xmlns:sodipodi="http://sodipodi.sourceforge.net/DTD/sodipodi-0.dtd"
   xmlns="http://www.w3.org/2000/svg"
   xmlns:svg="http://www.w3.org/2000/svg">
  <sodipodi:namedview
     id="namedview66"
     pagecolor="#ffffff"
     bordercolor="#666666"
     borderopacity="1.0"
     inkscape:pageshadow="2"
     inkscape:pageopacity="0.0"
     inkscape:pagecheckerboard="0"
     inkscape:document-units="mm"
     showgrid="false"
     inkscape:zoom="0.74029882"
     inkscape:cx="361.34057"
     inkscape:cy="129.67736"
     inkscape:window-width="1920"
     inkscape:window-height="1017"
     inkscape:window-x="-8"
     inkscape:window-y="-8"
     inkscape:window-maximized="1"
     inkscape:current-layer="layer1" />
  <defs
     id="defs61" />
  <g
     inkscape:label="Capa 1"
     inkscape:groupmode="layer"
     id="layer1">
    <path
       id="Los Vilos"
       style="fill:#000000;fill-opacity:1;stroke:#d38d5f;stroke-width:1.7133;stroke-opacity:1"
       d="m 2.9357334,62.052542 c 0.619638,2.033157 1.449678,4.022578 2.659368,5.780223 8.9799366,6.363871 12.8063086,16.234796 5.6690136,25.933686 -1.9990506,7.298859 -19.9162196,22.667479 -3.5770336,22.745489 14.7535106,1.20005 8.1446136,12.72865 4.3113006,21.38749 -4.4712386,10.42613 6.302386,17.43139 7.249088,25.61978 -6.11577,9.58321 -4.981338,21.02674 -5.704117,31.8174 0.302404,9.35965 -3.8052616,20.42899 1.632215,28.67978 -0.895183,5.04773 -3.838585,9.71153 -5.5682876,14.60142 0.382895,5.85125 -1.526088,13.52874 5.3420466,16.3769 7.844049,-0.86683 12.545607,-8.34499 18.092202,-13.28482 9.43732,4.00721 18.771927,8.30438 28.516497,11.5317 13.1088,5.63393 28.08022,2.29327 40.012774,-4.56457 2.73566,-7.60927 11.53508,-10.3104 15.39961,-18.08069 1.95746,-10.03014 10.338,-6.02599 12.46098,1.4462 8.21041,12.98487 20.46834,-2.79351 27.65462,-8.73439 7.07382,-10.10324 17.9539,-15.1697 24.97315,-24.82169 7.19876,-3.88845 8.05251,-8.4042 1.30897,-13.66658 -1.46038,-13.9969 16.0129,-5.56427 24.33091,-5.69719 -4.20813,-3.54915 1.69292,-7.26483 1.36387,-9.49292 -6.58857,-3.93521 -2.66107,-11.03686 -2.22823,-16.83399 1.87623,-10.65304 -11.89742,-11.64451 -19.19745,-15.63938 -2.96886,-9.46136 -12.63878,-6.9125 -20.56847,-8.20838 l -1.84842,-8.4101 c -9.59446,-2.35038 -18.16961,1.43778 -25.43318,6.23621 -8.93609,-5.0565 -17.59524,-13.94346 -24.65756,-21.21324 0.22917,-10.56337 -15.602084,-4.68914 -17.326744,-15.66293 -3.24478,-9.00233 -9.67019,-11.636191 -18.02966,-16.80985 -3.26099,8.434793 -16.05691,5.698632 -20.35494,11.560764 -7.94852,-5.283036 3.07424,-23.13334 -11.39558,-25.016687 C 41.128958,60.02744 36.634757,58.470691 36.45856,51.126983 36.206599,45.699511 29.509008,38.221631 24.445464,41.861146 21.538895,49.076705 25.478277,58.531825 14.085803,56.233394 9.9515554,57.203725 6.2553284,59.472751 2.9357334,62.052542 Z"
       sodipodi:nodetypes="cccccccccccccccccccccccccccccccccc" />
  </g>
</svg>
