<?xml version="1.0" encoding="UTF-8" standalone="no"?>
<!-- Created with Inkscape (http://www.inkscape.org/) -->

<svg
   width="210mm"
   height="297mm"
   viewBox="0 0 210 297"
   version="1.1"
   id="svg64"
   inkscape:version="1.1.2 (b8e25be833, 2022-02-05)"
   sodipodi:docname="vector.svg"
   xmlns:inkscape="http://www.inkscape.org/namespaces/inkscape"
   xmlns:sodipodi="http://sodipodi.sourceforge.net/DTD/sodipodi-0.dtd"
   xmlns="http://www.w3.org/2000/svg"
   xmlns:svg="http://www.w3.org/2000/svg">
  <sodipodi:namedview
     id="namedview66"
     pagecolor="#ffffff"
     bordercolor="#666666"
     borderopacity="1.0"
     inkscape:pageshadow="2"
     inkscape:pageopacity="0.0"
     inkscape:pagecheckerboard="0"
     inkscape:document-units="mm"
     showgrid="false"
     inkscape:zoom="0.74029882"
     inkscape:cx="361.34057"
     inkscape:cy="453.87078"
     inkscape:window-width="1920"
     inkscape:window-height="1017"
     inkscape:window-x="-8"
     inkscape:window-y="-8"
     inkscape:window-maximized="1"
     inkscape:current-layer="layer1" />
  <defs
     id="defs61" />
  <g
     inkscape:label="Capa 1"
     inkscape:groupmode="layer"
     id="layer1">
    <path
       style="fill:#000000;fill-opacity:1;fill-rule:evenodd;stroke:#d38d5f;stroke-width:5.84394;stroke-linecap:butt;stroke-linejoin:miter;stroke-miterlimit:4;stroke-opacity:1"
       d="m 2.9610604,59.791067 c 2.318864,11.53115 3.169161,23.36799 2.546783,35.10013 3.78478,8.083533 3.015433,17.236973 5.9127866,25.526583 9.469602,10.94429 -12.37455364,17.00815 -4.6570976,27.45194 8.1505666,9.03439 21.6545096,9.56758 31.4456396,16.25585 10.06124,4.14227 15.6166,12.8681 19.06232,22.74557 4.43198,8.26465 5.97613,20.22981 17.43015,21.26549 9.88843,2.25202 18.58965,7.64222 28.241278,10.3932 10.19623,-0.44837 19.51411,3.2358 26.92511,10.24125 9.04557,3.43701 8.9094,8.94781 20.02656,7.26122 8.90187,0.58532 22.08107,6.07182 29.68937,1.23689 6.64129,-6.14316 21.21866,-0.76643 24.76874,-7.00567 -6.42711,-8.42367 0.19437,-18.33008 2.04507,-27.14094 3.94304,-10.60127 -9.8397,-16.49175 -13.88352,-24.7871 -4.7388,-9.21132 -14.17215,-16.13703 -14.89828,-27.08441 -0.0243,-10.5392 -4.69349,-19.33792 -13.16278,-25.16876 -2.5977,-11.50178 3.44547,-22.712 5.899,-33.751263 4.04301,-10.33158 -3.16573,-20.10502 -3.69232,-30.22986 -28.95894,-9.15058 -29.06867,10.54782 -41.30433,18.12047 -1.89665,9.01009 -4.45145,18.67265 -14.90082,21.048593 -10.07469,6.73201 -22.021808,1.25898 -30.091598,-5.901083 -8.05829,-4.24939 -18.33925,-4.41195 -23.76962,-12.95181 -10.22287,-9.84676 -20.85429,-20.91894 -35.55217,-23.26969 -5.901279,-2.30703 -12.2708316,-1.59692 -18.0801826,0.64274 z"
       id="Villa_Alemana"
       sodipodi:nodetypes="cccccccccccccccccccccccc" />
  </g>
</svg>
