<?xml version="1.0" encoding="UTF-8" standalone="no"?>
<!-- Created with Inkscape (http://www.inkscape.org/) -->

<svg
   width="210mm"
   height="297mm"
   viewBox="0 0 210 297"
   version="1.1"
   id="svg1283"
   inkscape:version="1.1.2 (b8e25be833, 2022-02-05)"
   sodipodi:docname="vector.svg"
   xmlns:inkscape="http://www.inkscape.org/namespaces/inkscape"
   xmlns:sodipodi="http://sodipodi.sourceforge.net/DTD/sodipodi-0.dtd"
   xmlns="http://www.w3.org/2000/svg"
   xmlns:svg="http://www.w3.org/2000/svg">
  <sodipodi:namedview
     id="namedview1285"
     pagecolor="#ffffff"
     bordercolor="#666666"
     borderopacity="1.0"
     inkscape:pageshadow="2"
     inkscape:pageopacity="0.0"
     inkscape:pagecheckerboard="0"
     inkscape:document-units="mm"
     showgrid="false"
     inkscape:zoom="0.52347032"
     inkscape:cx="155.69173"
     inkscape:cy="458.47872"
     inkscape:window-width="1920"
     inkscape:window-height="1017"
     inkscape:window-x="-8"
     inkscape:window-y="-8"
     inkscape:window-maximized="1"
     inkscape:current-layer="layer1" />
  <defs
     id="defs1280" />
  <g
     inkscape:label="Capa 1"
     inkscape:groupmode="layer"
     id="layer1">
    <path
       d="m 26.596636,42.705657 c -0.82816,1.55793 -6.18099,2.91781 -2.04272,4.821 3.83365,1.42446 -3.89498,5.89085 0,7.35392 -2.05318,3.792 1.27916,3.82619 5.17492,3.62221 0.41768,2.49129 4.9126,2.68342 5.31113,5.17497 -11.16698,0 -22.333971,0 -33.5009378,0 1.313969,2.01798 1.281044,5.38298 3.132189,6.86383 -0.269956,2.69578 -1.052452,6.18276 0,6.75446 0.322182,2.6978 2.398262,4.63455 4.330936,6.26438 1.0935758,1.80266 3.4844448,3.91601 2.5991258,6.68811 -1.155893,3.2632 1.166616,5.3483 -0.665682,8.23809 -0.550762,3.045213 4.315154,5.219633 0.490084,6.999193 0.19881,2.5931 1.50989,3.76464 0.599455,7.81777 0.587976,3.01064 1.286394,5.3826 2.042726,6.88995 0.564891,3.84397 0.07317,3.79528 0,8.30709 3.089918,3.20466 0.194142,3.90251 1.878872,7.16659 3.939172,-0.20436 6.541162,0.48819 6.564462,4.02815 -1.16599,4.17676 2.04631,5.73948 2.68111,7.03994 -0.59302,2.84993 -3.7998,4.52985 -1.72782,7.06845 1.11489,4.09198 0.49853,4.26771 0,8.66182 -0.7087,1.67663 -2.82644,5.23249 -0.9533,7.48927 0.22101,2.64179 3.69855,3.81736 5.88355,4.57551 1.89644,1.69177 4.01033,3.13087 6.00686,4.61639 1.81305,2.47956 1.83102,5.85137 5.56866,5.86966 4.11774,-0.71778 5.08544,1.42547 8.68797,2.04271 0.31739,2.96687 2.90741,3.33851 4.0855,6.26438 2.56932,0.94359 4.73938,-1.0054 7.35386,3.13225 3.17498,0.42638 6.12131,1.40428 8.62527,3.45028 3.25298,2.6076 2.87563,4.32687 6.08245,1.8608 -0.6016,-5.60374 3.52026,-0.48188 6.26437,-1.08991 2.36587,1.89751 6.30825,1.38573 7.11204,5.06925 3.22308,-1.3682 6.73647,3.85798 6.37004,-1.20219 1.57254,-1.84996 1.05069,-5.79435 2.17894,-8.0886 0.67426,-1.70414 2.85797,-6.58404 4.221664,-2.04272 1.75165,-1.42004 2.05188,-5.73834 0,-6.86383 -2.520974,-0.41503 -1.592244,-6.0937 -6.019784,-5.66493 -3.73789,0.24221 -3.45947,-3.53189 -8.30794,-2.17895 -3.2017,1.25265 -4.15833,3.80891 -7.24379,5.31108 -3.62969,2.58969 0.86575,-3.18814 2.28825,-4.22167 1.86445,-2.57165 2.58547,-4.30744 5.17489,-5.17496 2.69672,0.28635 4.48148,3.37597 6.75451,0.95368 -1.77283,-3.1561 -1.28653,-6.19778 -2.17894,-9.26115 2.13098,-2.04436 2.25401,-3.6699 0,-6.99919 -2.2972,-3.96231 -3.23167,1.54178 -5.88355,1.68886 -2.09398,2.44122 -6.08707,-1.87708 -7.59853,1.08992 -2.73186,-2.60066 -4.24436,-3.45544 -5.91049,-5.31108 -0.77959,-1.57735 -2.55177,-5.63982 -1.93344,-7.35392 1.30608,-2.39895 -2.22073,-4.07533 -3.84083,-5.17484 -3.34858,0.0126 -4.40604,-2.25792 -6.86379,-3.13225 -3.92894,-1.61381 -3.49866,-2.88778 -6.6452,-3.13225 -1.3641,0.80734 -7.37839,2.58754 -7.35385,0.84393 -4.0263,-1.2693 0.22315,-3.35806 -0.9533,-5.06572 -2.6217,-4.54701 1.21102,-2.98706 3.1322,-4.22154 1.78565,-1.80846 1.95228,-3.40562 1.19512,-6.02268 -1.62583,-3.04711 -4.21871,-3.07991 -4.32731,-7.21478 0.21117,-6.12877 1.39882,-0.37718 3.84083,-0.24473 2.11929,2.23623 3.36879,4.46198 5.97958,1.61898 2.98939,-1.24129 5.14921,-1.71145 4.75112,-5.70516 0.40002,-2.67749 5.69225,-2.93231 6.10051,-3.08028 1.49039,-2.46884 0.45589,-5.69709 2.34284,-8.63066 -2.0328,-3.818253 1.24193,-2.601553 0.95317,-7.082333 -0.0807,-3.29612 -1.79914,-4.95496 -3.73154,-6.39973 -1.51953,-1.36328 -3.16223,-4.02387 -4.57555,-5.91054 -1.36975,-1.45373 -3.79165,-3.25499 -5.77433,-4.57551 -1.4558,-1.92161 -3.38798,-3.36689 -5.91042,-4.22166 -2.04562,-1.25013 -3.43437,-3.15686 -5.06574,-4.82113 -2.02042,-1.44035 -2.72069,-4.8196 -4.22166,-6.26437 0.0959,-2.91251 -2.98582,-4.10435 -4.68485,-5.66493 -1.94425,-1.05333 -2.70781,-4.72664 -4.4699,-7.11209 -1.42962,-1.72861 0.0908,-6.40781 -3.37403,-6.50621 z M 100.95233,194.41304 c -3.218744,-0.46675 0.65875,2.97898 0,0 z m -1.089414,1.08992 c -2.9337,-0.89944 1.025084,2.1816 0,0 z m -23.01488,-86.88438 c -0.2195,3.1122 -1.85581,4.808 -3.73156,6.26438 -1.89854,0.93728 -1.88095,5.61863 -4.22165,6.26438 -1.9186,3.25638 -4.63102,-1.87645 -7.35386,1.08992 -2.67289,0.55631 -3.91522,2.29475 -7.04213,3.55598 -2.95465,2.28858 -0.83005,4.0549 2.5758,4.75124 3.38556,-0.59164 8.10111,0.87925 9.28734,0 1.88473,0.91457 5.11112,2.21452 5.17495,5.31108 2.52136,0.98017 2.73032,6.00464 5.42035,3.13212 3.85438,-2.30863 2.67259,0.33808 -0.56035,1.48413 -1.5317,4.08127 3.06888,0.58659 3.5833,3.93632 1.03454,1.83545 2.55925,5.90991 3.73159,1.93347 3.03872,-1.00792 6.32816,-1.13911 8.55255,-2.17895 1.63608,0.0107 0.22745,4.60162 3.37684,0.48945 -2.81625,-0.62821 -1.08323,-6.44086 -3.13216,-7.35392 -3.14779,-2.79468 -1.0363,-5.15188 -2.04279,-7.70763 -4.06244,-0.50838 -3.59606,-3.11876 -5.12377,-6.10052 -1.16056,-2.42708 -4.11919,-3.20214 -4.27281,-6.67373 -0.0542,-3.00837 1.44082,-4.83247 -0.59933,-6.01902 -1.14479,-0.65723 -1.29724,-2.77159 -3.62231,-2.17882 z m 82.662824,67.955 c -3.02442,2.24506 3.10358,3.44813 3.73156,2.17895 3.26717,0.76698 6.45378,0.97134 5.66505,5.03949 1.50777,0.59668 3.54261,6.08575 4.08548,0.51594 4.1201,1.81994 -1.6888,-1.7672 1.08941,-4.11242 -1.2201,0.29392 -3.60092,-0.10092 -6.86372,-1.44338 -2.15612,-2.14641 -6.31495,-0.15391 -7.70778,-2.17896 z m 28.1898,5.31121 c 0.73494,4.10334 -2.28854,4.44822 -4.93032,5.17484 -2.21934,0.87042 -4.73042,4.52997 -1.82418,5.3112 0.85768,-2.13896 2.05059,-5.94106 4.71175,-3.13225 0.48176,1.30815 5.4162,-1.34449 5.59872,2.46657 2.82918,4.22961 -2.73556,0.39737 -3.55597,-0.42386 -4.01333,-1.22489 -6.62234,1.52955 -3.77059,4.61639 4.79482,0.71147 3.06755,2.44007 -0.4511,2.73753 1.06595,4.89378 -2.29284,4.16957 -5.01105,6.07705 -4.35816,1.37072 -3.05599,-0.24599 -0.8023,-2.38634 3.71576,-1.04829 0.5447,-6.1294 -1.64979,-5.86966 -2.78892,-1.0054 -6.37219,-2.05369 -5.06571,3.24225 0.71551,2.83417 0.88442,4.92091 3.13217,7.24379 -2.38217,2.51968 0.23387,5.71274 2.28818,6.26438 4.32007,-0.86159 5.03566,1.88238 5.06567,5.31121 -2.77323,1.18074 0.88997,7.99488 1.08954,6.26438 3.34407,0.0631 3.71877,-2.52674 7.21768,-3.13225 0.93665,-3.2309 2.53432,-4.65499 4.22165,-6.26438 1.908,-2.43214 3.11379,-4.5137 4.64545,-6.82435 3.36983,-1.80884 3.28193,-4.17386 5.35054,-5.84065 4.06573,-0.42512 4.76621,-2.58616 3.62227,-5.5297 1.8386,-2.0605 1.88769,-3.52495 1.08942,-6.99906 -0.55997,-2.7721 -3.61521,-3.04887 -5.31115,-4.68488 -3.37132,-0.27879 -5.58228,-1.71763 -9.37039,-1.5795 -0.73241,-1.84983 -3.5233,-2.16861 -6.29055,-2.04271 z m -16.75046,13.61817 c 3.12603,-1.88869 0.95166,-2.35909 -1.08942,-5.31108 1.49492,-3.17085 -5.64167,-5.01766 -5.17496,-1.33414 -1.75094,3.32639 -0.28762,4.70897 3.13221,5.55581 0.76156,1.28771 1.80438,1.15046 3.1322,1.08991 z m -39.76532,-4.22167 c -2.95763,2.64104 2.63264,3.87438 4.22165,4.821 1.4129,3.30949 7.64235,0.35069 8.17371,1.22868 3.33039,1.64736 2.88925,4.47875 6.75254,4.43662 1.06709,-0.0631 5.2641,-2.02619 2.77749,-3.73145 -0.47873,-2.72038 -6.23045,-1.34411 -8.06532,-4.47006 -1.57442,-2.43907 -6.32432,0.23968 -8.54893,-2.28454 -1.77038,0 -3.54078,0 -5.31114,0 z m 23.01488,8.30722 c -0.46624,3.21867 2.97893,-0.65849 0,0 z m 1.08941,1.08992 c 2.80916,4.48443 -3.07658,1.66931 -4.22165,4.22167 -2.82342,1.33451 -5.66951,-2.4942 -3.1322,1.55262 2.46025,1.64712 5.26966,-2.96775 8.77111,-1.55262 4.67712,2.89055 3.04051,-1.36934 0.20171,-2.60269 -0.53966,-0.53991 -1.07932,-1.07982 -1.61897,-1.61898 z m -29.27924,-1.08992 c -2.85698,1.48388 -6.27566,1.72974 -8.58365,4.44394 -1.87692,1.14038 -5.76882,3.78217 -4.43524,6.04211 3.63835,0.29897 4.15818,3.16871 6.75444,3.73145 0.95419,2.1594 2.51431,2.88273 5.17496,1.57963 4.55652,2.06655 4.15912,-4.28045 7.35385,-1.57963 2.96182,2.30308 5.29782,-1.5221 6.8638,-2.64204 4.05341,-0.68877 4.54175,-1.65393 3.62226,-5.31108 -2.84998,-1.09875 -3.79577,-4.47535 -7.10922,-4.08555 -3.53636,0.2195 -6.45761,-0.72661 -9.39943,-1.93713 z m 20.83594,8.44321 c -1.04161,2.55323 -0.54597,2.80036 0,6.01978 2.35014,1.68798 3.64476,3.48408 5.91048,5.41956 1.10758,-1.68786 5.13477,-2.79203 2.53282,-6.26438 -1.9944,-1.46874 -4.10098,-3.42302 -6.26444,-4.82099 0.15932,-0.83762 -1.67627,-0.11353 -2.17886,-0.35448 z m -15.66103,8.30722 c -3.58086,1.00287 -3.95834,5.5061 -2.04271,7.35379 2.42522,1.1429 5.82678,3.49329 6.26436,-0.70895 0.1891,-4.09312 -2.67351,-0.40241 -2.64213,-4.46627 -1.37747,-0.76067 2.7387,-2.59625 -1.57952,-2.17895 z m 9.39662,3.13212 c 0.60816,3.47853 -7.28402,1.59804 -3.48612,6.26438 1.37843,2.2993 6.81679,0.53865 9.9437,1.08992 4.91724,-2.05583 0.90574,-1.10632 -1.14644,-3.2415 -0.89363,-2.83706 -3.84446,3.79718 -6.26441,0.11354 4.04847,0.64083 3.74649,-3.28288 5.17496,-3.24137 0.59883,-1.96387 -3.14678,-0.55001 -4.22165,-0.98017 z m 48.20857,22.06163 c -2.18737,1.2992 -5.02884,1.94445 -8.41715,2.04272 -2.50564,1.18453 2.66055,6.43215 -3.02296,5.17496 -0.69167,2.27899 -3.07729,6.55629 2.37139,5.31108 4.13516,0.54875 6.79771,-0.3734 7.97931,-2.77828 2.10752,-1.1429 3.86051,-2.63977 5.17493,-4.57551 2.31013,-1.96248 0.81883,-6.07844 -3.35074,-5.17497 h -0.59933 z"
       style="fill:#000000;fill-opacity:1;stroke:#d39062;stroke-width:1.66884;stroke-miterlimit:4;stroke-dasharray:none;stroke-opacity:1"
       id="Quemchi" />
  </g>
</svg>
