<?xml version="1.0" encoding="UTF-8" standalone="no"?>
<!-- Created with Inkscape (http://www.inkscape.org/) -->

<svg
   width="210mm"
   height="297mm"
   viewBox="0 0 210 297"
   version="1.1"
   id="svg1283"
   inkscape:version="1.1.2 (b8e25be833, 2022-02-05)"
   sodipodi:docname="vector.svg"
   xmlns:inkscape="http://www.inkscape.org/namespaces/inkscape"
   xmlns:sodipodi="http://sodipodi.sourceforge.net/DTD/sodipodi-0.dtd"
   xmlns="http://www.w3.org/2000/svg"
   xmlns:svg="http://www.w3.org/2000/svg">
  <sodipodi:namedview
     id="namedview1285"
     pagecolor="#ffffff"
     bordercolor="#666666"
     borderopacity="1.0"
     inkscape:pageshadow="2"
     inkscape:pageopacity="0.0"
     inkscape:pagecheckerboard="0"
     inkscape:document-units="mm"
     showgrid="false"
     inkscape:zoom="0.52347032"
     inkscape:cx="155.69173"
     inkscape:cy="611.30496"
     inkscape:window-width="1920"
     inkscape:window-height="1017"
     inkscape:window-x="-8"
     inkscape:window-y="-8"
     inkscape:window-maximized="1"
     inkscape:current-layer="layer1" />
  <defs
     id="defs1280" />
  <g
     inkscape:label="Capa 1"
     inkscape:groupmode="layer"
     id="layer1">
    <path
       id="Paine"
       style="fill:#000000;fill-opacity:1;fill-rule:evenodd;stroke:#d38f61;stroke-width:0.652834;stroke-linecap:butt;stroke-linejoin:miter;stroke-miterlimit:4;stroke-dasharray:none;stroke-opacity:1"
       d="m 151.04613,88.222314 c 0.94338,7.32466 4.5665,6.31239 6.7323,9.83402 l 0.87539,10.504686 c 2.70244,2.59002 4.51391,1.17067 6.30281,-0.35008 5.16143,-1.16381 4.25586,3.64275 8.92899,0.35008 0.49498,2.25231 1.14047,3.75188 2.10094,3.67662 1.05048,0.37818 2.10094,-0.0378 3.15141,2.97635 2.03046,0.0486 4.28719,-0.003 3.15141,1.4006 4.78858,0.17451 0.88694,2.83135 -0.35014,4.72715 2.80124,-0.1167 3.73501,1.16715 2.80126,3.85171 4.8441,2.76268 2.85854,9.61587 6.47789,5.60251 7.0095,4.45172 6.55728,-1.6677 13.65611,0.52513 -0.38596,3.07926 0.79516,2.50211 1.75077,2.45106 0.1402,3.27954 -0.005,7.12991 1.92586,6.82807 -1.65347,2.88229 -0.35446,5.27252 0.70032,7.70344 1.05475,2.43096 0.28903,-0.65479 -4.08453,-0.53107 -4.37356,0.12372 -11.83296,-0.61999 -9.93719,5.6943 -2.1577,3.36446 -5.21857,9.55466 -9.48742,6.27409 -2.96412,4.3943 -5.61539,-4.67711 -10.03847,-1.87261 -2.98335,0.9067 -4.28584,0.0216 -5.68521,4.06776 -3.24146,2.10476 -6.5202,5.40489 -9.63023,1.61967 -6.48761,0.15235 -7.05971,0.82032 -9.52037,4.71115 -0.70476,1.11438 -2.40021,-0.0675 -3.39108,0.52134 -2.19432,1.67181 0.73863,5.40343 -3.29656,5.97502 -4.40372,0.20637 -4.81407,3.15393 -4.62374,6.21218 -3.802,2.89066 -8.6374,9.27848 -12.18311,2.63242 -2.80289,-3.36181 -7.2186,-5.50737 -7.37008,-9.85131 -2.19365,-3.66998 -8.38603,-6.38447 -10.83595,0.13074 -2.43921,1.76824 -1.58704,2.66598 -4.10716,2.93292 -1.39788,3.05096 -7.692869,-1.12578 -7.658899,4.48478 -6.21729,7.05206 -7.85869,9.12252 -11.90949,5.45648 -4.48068,-0.71491 -10.45776,-8.6049 -12.59991,-1.0785 0.37683,5.27377 -4.27381,6.19684 -8.08488,7.57707 -0.58608,-1.84474 -1.41391,-2.54647 -2.2169,-1.60201 -0.6171,0.75857 -1.7668,1.44226 -3.29657,1.44226 -1.521063,0 -1.555023,0.43166 -2.060352,1.44225 -0.299407,0.59882 -1.080226,1.95441 -1.442248,2.67846 -0.574076,1.14814 -1.020675,1.06818 -0.618112,2.67845 0.386117,1.54436 -0.718085,1.23621 -1.854319,1.23621 -0.563169,0 -1.271886,0.945 -1.854325,1.2362 -0.06024,0.0324 -1.780786,1.7073 -1.854319,1.85435 -0.346679,0.69331 -1.187007,1.44226 -2.060355,1.44226 -0.769268,0 -1.858722,0.72442 -2.26639,1.03015 -0.832916,0.62469 -0.63855,1.0302 -2.266396,1.0302 -0.620148,0 -0.896535,1.03015 -2.26639,1.03015 -1.300275,0 -1.433058,0.2107 -3.090532,-0.6181 -1.936675,-0.96834 -0.883018,-0.90265 -2.06036,-2.4724 -0.643455,-0.85797 -0.829874,-0.9315 -2.060354,-1.85436 -0.824142,-0.6181 -2.134045,0.3825 -3.090538,0 -1.13108,-0.45219 -2.357082,-0.8241 -3.708644,-0.8241 -0.474448,0 -2.020181,0.804 -2.47242,1.03015 -0.923537,0.46192 -2.470988,-1.2362 -3.708649,-1.2362 -1.724248,0 -2.351879,-0.41221 -3.914674,-0.41221 -1.308115,0 -2.8481,-0.33334 -4.326745,-1.44225 -0.274717,-0.20584 -0.549429,-0.41222 -0.824147,-0.61811 -1.402113,-1.05154 -0.536469,-1.52383 0.206052,-2.26635 1.323598,-1.32361 2.06036,-1.02502 2.06036,-2.47246 0,-0.0854 -1.662919,-1.67753 -1.854325,-2.06035 -0.326473,-0.653 1.265181,-0.94004 1.442248,-1.64825 0.298057,-1.19228 0.894024,-2.13388 1.236219,-3.50261 0.390277,-1.56116 1.337061,-1.46964 0,-2.47246 -1.618408,-1.21378 -1.785249,-0.75624 -1.030183,-2.2664 0.590575,-1.18115 0.463481,-2.5756 0,-3.50261 -0.2718,-0.54355 -0.643974,-1.49396 -1.030177,-2.26636 -0.325826,-0.65165 -1.115067,-1.4181 -1.442249,-1.85435 -0.327176,-0.43598 -0.04646,-0.57596 -0.824147,-1.44226 -0.7778691,-0.86623 -3.7202161,-3.04199 -3.5873901,-4.24345 0.716508,-0.78331 -1.273874,-3.49396 0.49044,-5.02817 -0.421342,-2.16057 -1.338828,-2.63923 -0.04106,-4.78646 1.234473,-2.32367 -3.024643,-1.88088 -2.014579,-4.29305 1.262976,-1.004 0.50535,-5.04254 -0.160023,-6.18317 -1.479412,-2.24517 -1.505274,-2.01314 -0.737102,-4.4763 -0.123123,-1.93918 1.026569,-4.65648 -0.548036,-6.21381 -1.566943,-0.61621 -4.04938999,-2.40784 -3.13987299,-4.34356 -0.201351,-1.42902 0.398705,-3.13686 1.12823299,-4.59851 -0.481958,-1.73301 -0.84731899,-3.79391 0.512806,-5.41844 -1.31892499,-1.06489 -0.05743,-2.95733 0.679511,-4.39635 0.736946,-1.43906 -1.214143,-1.55214 0.412104,-1.23625 1.626231,0.31604 2.457055,-0.33712 3.056696,-1.57905 0.934537,-1.06245 2.655246,-1.54052 3.8669321,-1.50476 1.42912,0.23015 2.713869,0.94911 3.936624,1.6878 -0.931722,1.07953 1.793314,1.66511 2.171625,0.41221 0.607987,-1.70611 2.713037,-0.33441 4.078002,-0.46516 1.717458,-0.40788 1.554572,2.56063 3.163174,1.97046 1.224214,-0.73031 2.77112,-0.63571 3.94247,-1.15846 0.580781,-1.26862 1.577846,-2.44782 1.728473,-3.85026 -0.38401,-1.46516 -0.516912,-2.86225 0.08984,-4.29364 0.231444,-1.5254 0.9823,-2.92157 0.733753,-4.51315 -0.394329,-1.45716 1.25537,-1.50206 1.801752,-0.44409 1.254393,0.89904 0.936055,2.52114 1.613292,3.75815 1.156591,1.07121 -0.478176,1.34128 -0.873726,1.78272 0.217505,1.12302 2.736398,0.73766 1.598651,2.05928 -0.316695,1.12588 -3.022126,1.48747 -1.706712,2.76992 1.220346,0.81567 2.616943,1.44592 3.413564,2.76419 0.796627,1.31832 -1.131091,1.3476 -0.26683,3.07619 0.864267,1.72853 4.532246,3.09034 6.18107,3.50255 2.820228,0.89644 1.935751,-3.57559 4.53278,-1.2362 2.083672,1.49531 4.203649,1.06872 5.975039,3.09056 1.602487,2.22999 3.459275,2.34058 5.975029,2.88451 1.916002,1.26132 1.639712,3.8582 4.120722,3.91465 2.13077,0.087 4.04777,-0.64905 5.97503,-1.44225 2.2323,-0.74592 4.38007,-0.11723 6.79918,-0.41221 2.59286,-0.85943 6.31352,1.75716 6.79917,1.8543 l 9.06557,-10.30177 2.06036,2.26635 0.20605,-4.53276 2.47243,-15.45268 5.356919,0.20583 -0.20605,6.38712 14.62854,0.41221 0.20605,1.8543 5.35693,-1.64825 0.20605,-16.070786 7.41729,0.20584 c 2.00828,0.24635 2.14348,-3.54578 3.91467,-4.53282 0.42075,-0.21015 1.42769,-2.26635 1.85433,-2.26635 1.59041,0 1.51756,1.17083 2.8845,1.8543 0.79369,0.39709 3.07583,0.3825 3.5026,1.23621 0.91807,1.83615 1.19273,0.11399 2.47242,-0.20584 1.72514,-0.43112 0.97263,-1.09687 1.23622,-2.67845 2.0354,-0.20422 1.2607,-2.16533 2.06036,-2.47241 1.46447,0.005 2.9289,0.004 4.39333,-0.005 z"
       sodipodi:nodetypes="cccccccccccccccccccccsccccccccccccssssssssssssssssssssssssssssssssccccccccccsscccccccccccccccssccccccccccccccccccccssssccc"
       inkscape:label="#path1946" />
  </g>
</svg>
