<?xml version="1.0" encoding="UTF-8" standalone="no"?>
<!-- Created with Inkscape (http://www.inkscape.org/) -->

<svg
   width="210mm"
   height="297mm"
   viewBox="0 0 210 297"
   version="1.1"
   id="svg64"
   inkscape:version="1.1.2 (b8e25be833, 2022-02-05)"
   sodipodi:docname="vector.svg"
   xmlns:inkscape="http://www.inkscape.org/namespaces/inkscape"
   xmlns:sodipodi="http://sodipodi.sourceforge.net/DTD/sodipodi-0.dtd"
   xmlns="http://www.w3.org/2000/svg"
   xmlns:svg="http://www.w3.org/2000/svg">
  <sodipodi:namedview
     id="namedview66"
     pagecolor="#ffffff"
     bordercolor="#666666"
     borderopacity="1.0"
     inkscape:pageshadow="2"
     inkscape:pageopacity="0.0"
     inkscape:pagecheckerboard="0"
     inkscape:document-units="mm"
     showgrid="false"
     inkscape:zoom="0.74029882"
     inkscape:cx="361.34057"
     inkscape:cy="453.87078"
     inkscape:window-width="1920"
     inkscape:window-height="1017"
     inkscape:window-x="-8"
     inkscape:window-y="-8"
     inkscape:window-maximized="1"
     inkscape:current-layer="layer1" />
  <defs
     id="defs61" />
  <g
     inkscape:label="Capa 1"
     inkscape:groupmode="layer"
     id="layer1">
    <path
       sodipodi:nodetypes="cccccccccccccscccccccccccccccc"
       d="m 99.559558,290.71638 c -8.65934,-2.72442 -6.88562,-9.62211 -27.16758,-7.69745 -7.96546,-7.94699 -15.04839,-19.42397 -24.73327,-20.49321 L 23.632077,255.459 22.218795,212.35248 c 12.447964,-5.81203 9.674975,-17.09973 16.959976,-21.20001 l 0.706641,-24.73321 c 5.906156,-2.10842 4.242266,-9.26364 4.946666,-14.83993 l -14.133295,-0.70711 6.271286,-6.47511 c 3.428075,-13.0843 15.291059,-17.79857 25.253129,-21.6456 7.06991,-12.08254 15.09839,-23.931782 17.31644,-37.519022 5.81128,-14.26259 -4.30917,-21.55924 10.82283,-42.56967 9.761612,0.3083 10.550092,-7.23667 25.896932,-8.29502 4.17242,-0.28836 3.02972,-8.74122 2.79345,-15.60731 -6.08204,-18.9843799 31.9039,-14.6693699 38.71562,-4.88099 -8.32798,5.10677 12.92522,8.33443 10.28803,18.44507 5.48633,1.76131 12.24163,4.97747 18.94484,6.97438 l -14.26644,29.9397 -43.90518,11.70813 c 2.55624,14.63501 -9.83247,29.270022 7.80541,43.905032 l 1.9513,17.56219 c -7.35895,-3.26724 -7.08785,6.18246 -6.82967,15.61069 l -17.5621,1.95136 c 1.80854,7.48008 0.0369,14.96018 -13.65936,22.44042 h -8.781032 c -1.12983,6.79539 -5.16362,13.32894 6.51851,17.56205 v 23.4161 c -10.37049,4.23709 -10.06327,10.09008 0.31121,19.5134 z"
       style="fill:#000000;fill-opacity:1;fill-rule:evenodd;stroke:#d38d5f;stroke-width:4.05829;stroke-linecap:butt;stroke-linejoin:miter;stroke-miterlimit:4;stroke-opacity:1"
       id="Santa_Maria" />
  </g>
</svg>
