<?xml version="1.0" encoding="UTF-8" standalone="no"?>
<!-- Created with Inkscape (http://www.inkscape.org/) -->

<svg
   width="210mm"
   height="297mm"
   viewBox="0 0 210 297"
   version="1.1"
   id="svg64"
   inkscape:version="1.1.2 (b8e25be833, 2022-02-05)"
   sodipodi:docname="vector.svg"
   xmlns:inkscape="http://www.inkscape.org/namespaces/inkscape"
   xmlns:sodipodi="http://sodipodi.sourceforge.net/DTD/sodipodi-0.dtd"
   xmlns="http://www.w3.org/2000/svg"
   xmlns:svg="http://www.w3.org/2000/svg">
  <sodipodi:namedview
     id="namedview66"
     pagecolor="#ffffff"
     bordercolor="#666666"
     borderopacity="1.0"
     inkscape:pageshadow="2"
     inkscape:pageopacity="0.0"
     inkscape:pagecheckerboard="0"
     inkscape:document-units="mm"
     showgrid="false"
     inkscape:zoom="0.74029882"
     inkscape:cx="361.34057"
     inkscape:cy="561.93525"
     inkscape:window-width="1920"
     inkscape:window-height="1017"
     inkscape:window-x="-8"
     inkscape:window-y="-8"
     inkscape:window-maximized="1"
     inkscape:current-layer="layer1" />
  <defs
     id="defs61" />
  <g
     inkscape:label="Capa 1"
     inkscape:groupmode="layer"
     id="layer1">
    <path
       id="Paihuano"
       style="fill:#000000;fill-opacity:1;fill-rule:evenodd;stroke:#d38d5f;stroke-width:2.21478;stroke-linecap:butt;stroke-linejoin:miter;stroke-miterlimit:4;stroke-dasharray:none;stroke-opacity:1"
       d="m 194.75729,213.57436 c -6.56089,5.48474 4.27758,16.08682 10.34677,25.28621 8.2981,19.96746 3.26153,33.74703 -17.94088,43.86854 -6.11623,2.91967 -9.35232,5.52333 -10.91097,7.91287 -1.55864,2.38962 -4.60672,-6.11531 -12.6901,-4.19714 -8.08338,1.91818 -12.96367,-5.76918 -20.13756,-7.44217 -7.30765,0.42691 -16.37503,-5.1597 -10.17868,-13.05759 6.0357,-3.80245 4.93218,-10.48004 -0.95612,-13.71302 -6.44245,-5.83816 -15.48412,-7.49198 -23.84031,-6.0414 -5.24785,4.97428 -9.054823,11.9276 -17.043193,14.00851 -6.75234,0.27373 -12.79826,-3.93379 -19.42905,-4.893 -10.9694,-0.20844 -4.58111,-14.46054 -12.50135,-17.19889 -5.5445,-2.31044 -14.87338,-0.65963 -16.73422,-8.00093 -8.77523,-8.67973 9.13016,-9.55682 3.15714,-16.02631 -6.01151,-3.63646 -14.11817,-4.23648 -18.91457,-9.79538 -1.88059,-9.03205 -6.55211,-17.07827 -9.32637,-25.82646 -6.58383,-6.35205 2.23284,-11.58616 -0.78519,-18.48097 -2.57277,-6.96102 -5.80525,-13.7198 -8.0279597,-20.78035 -2.22271,-7.06064 -5.76458,-2.65205 -7.48772,-6.09841 -1.72322002,-3.44636 5.6314,-7.94928 6.95341,-9.27129 4.2578197,-4.25782 1.9175897,-5.69334 3.4630997,-11.87545 1.41149,-5.64605 0.82369,-7.01602 -3.4630997,-11.30281 -5.67819,-5.678274 -3.98469,-8.398214 -2.3178,-15.065924 1.62503,-6.49995 3.62231,-8.40356 5.7945397,-12.74803 4.01809,-8.03609 3.29376,-6.03864 -3.4767397,-15.06592 -1.82234,-2.4298 -2.37816,-8.23305 -4.63561,-12.74803 -1.51805,-3.03602 5.07993,-13.1022 5.79455,-13.90697 2.2369397,-2.51937 16.7031697,0.64372 17.6159197,-3.70452 1.17368,-5.59071 12.78612,-3.02681 18.31037,-4.40783 1.77839,-0.44449 8.08958,-8.8401 8.11243,-10.43023 0.0586,-3.8160999 0.10882,-7.6331099 8.11235,-4.6355999 0.85181,0.31893 7.98452,6.8894499 12.74811,9.2712899 3.19725,1.59858 8.22737,-3.59185 10.43015,-5.79463 13.71964,10.3312 15.08325,-4.3521699 17.600613,-5.3307199 3.98234,-1.54802 4.56202,8.7639299 6.7366,13.4431499 0,0.58512 -2.31781,7.4672 -2.31781,9.27129 0,2.57621 2.70722,5.60218 8.11235,6.95348 7.8788,1.60612 15.29695,4.50017 19.7016,11.58918 2.10878,4.21756 -9.83791,3.73414 -11.58917,8.11234 -2.61639,6.54106 -2.33597,7.48772 1.15894,16.22478 3.22922,8.07317 -9.77153,8.24419 1.15886,10.43023 10.23921,2.7114 7.05536,19.788324 18.68831,29.612094 1.39785,5.59155 -4.06898,5.42112 -0.14565,13.26769 1.27413,2.54842 14.42329,1.67526 17.38372,4.63569 3.67421,3.67421 3.54045,10.49393 6.95349,13.90697 3.57476,3.57477 0.007,4.64171 4.6356,9.27129 3.74938,3.74938 0.067,9.54526 1.15894,13.90697 1.86101,7.44411 5.81363,4.59752 2.3178,11.58909 -3.43171,6.86342 7.7555,10.83128 11.58918,12.74803 4.20341,2.10175 0.21596,9.70356 2.3178,13.90698 z"
       sodipodi:nodetypes="ccsccccccccccccccssssssssssssssscscsccssccssssssscc" />
  </g>
</svg>
