<?xml version="1.0" encoding="UTF-8" standalone="no"?>
<!-- Created with Inkscape (http://www.inkscape.org/) -->

<svg
   width="210mm"
   height="297mm"
   viewBox="0 0 210 297"
   version="1.1"
   id="svg1283"
   inkscape:version="1.1.2 (b8e25be833, 2022-02-05)"
   sodipodi:docname="vector.svg"
   xmlns:inkscape="http://www.inkscape.org/namespaces/inkscape"
   xmlns:sodipodi="http://sodipodi.sourceforge.net/DTD/sodipodi-0.dtd"
   xmlns="http://www.w3.org/2000/svg"
   xmlns:svg="http://www.w3.org/2000/svg">
  <sodipodi:namedview
     id="namedview1285"
     pagecolor="#ffffff"
     bordercolor="#666666"
     borderopacity="1.0"
     inkscape:pageshadow="2"
     inkscape:pageopacity="0.0"
     inkscape:pagecheckerboard="0"
     inkscape:document-units="mm"
     showgrid="false"
     inkscape:zoom="0.52347032"
     inkscape:cx="155.69173"
     inkscape:cy="611.30496"
     inkscape:window-width="1920"
     inkscape:window-height="1017"
     inkscape:window-x="-8"
     inkscape:window-y="-8"
     inkscape:window-maximized="1"
     inkscape:current-layer="layer1" />
  <defs
     id="defs1280" />
  <g
     inkscape:label="Capa 1"
     inkscape:groupmode="layer"
     id="layer1">
    <path
       d="m 83.544203,94.662922 c -0.57403,1.3928 -2.06069,2.20077 -4.289,2.26209 -0.92822,1.49868 -3.86785,1.30377 -3.85447,2.94067 -1.85017,-1.89423 -2.8183,2.300118 -4.59956,0.656498 -2.24118,1.23254 -2.61271,-0.726478 -3.46851,-0.18196 -1.43724,1.45879 -2.31657,-0.433188 -4.13966,-1.145698 -1.44436,-1.93138 -1.39141,-2.18444 -3.69324,-2.26955 -1.32441,-0.50828 -3.95895,-0.94254 -3.99441,0.35713 -2.1681,0.56094 0.97885,2.846658 3.15601,1.98034 0.39167,1.676718 1.26406,2.872718 2.26208,3.943078 0.6914,1.226 -0.22546,3.52482 1.68102,4.20037 1.4322,1.56841 -1.3484,2.30777 -2.54438,3.20088 -1.44235,2.59618 -5.22131,0.52584 -6.07366,2.47649 -1.46411,1.25816 2.91739,1.91036 1.20643,3.59717 2.27218,0.62589 -0.002,2.74096 0,4.41762 2.90856,-0.23282 2.50438,3.18865 0.52783,3.52177 -2.41296,0.68588 -2.3171,-2.21998 -3.33985,-3.33984 -1.79437,0.0982 -2.58223,-1.31003 -3.59719,-0.60324 -1.58114,1.08201 -3.01281,3.47119 -2.09141,4.98747 -0.53198,2.26872 -1.78917,4.69008 -4.84561,3.75923 -1.8218,-1.58717 -6.02186,0.0935 -6.93704,-0.60321 -0.52078,1.44501 -3.48227,-1.48691 -3.156029,-2.09141 0.802746,-1.09873 -2.333778,-3.4746 -0.915711,-3.71459 -0.943925,-2.81188 -2.545468,1.57956 -2.337481,2.8653 -0.978439,2.31793 -0.177282,5.08217 -2.262056,5.75273 1.003304,1.37612 -1.051848,3.84816 -1.077796,4.12498 0.876787,1.14396 -0.313213,2.9063 -1.131028,4.07174 -1.990459,-1.19463 -5.599112,-0.78071 -6.537875,0.47458 -2.384337,0.19491 -2.703597,3.45729 -5.841334,2.39072 -3.5732318,0.91367 -2.2842228,-3.7616 -3.9609908,-4.59955 -2.927933,0.96791 -4.40082,-1.69638 -5.149532,-2.9407 -1.401339,-2.78673 -4.003893,-0.57509 -0.81378,1.03864 1.434164,2.34565 -0.83716295,2.25523 0.157318,4.76736 0.671572,1.453 -0.467543,3.47899 1.131028,4.67495 2.293974,0.52471 1.133444,1.88904 2.33748,3.46854 1.46432,0.65043 0.287689,1.69846 0.938788,2.59763 -0.599753,2.97232 2.759751,4.47506 1.527351,6.07363 0.136405,2.31917 -1.688807,3.98531 -0.924152,6.14158 0.03996,0.80266 -0.94642,3.16502 1.141408,3.13292 3.1134258,-0.71532 3.3406828,1.45554 3.7258198,3.46854 0.817414,1.76417 2.712945,2.06771 2.865284,4.59955 0.700847,2.57533 2.20527,2.97478 3.814421,4.07174 1.108937,1.62208 4.332121,-0.93863 5.331445,1.13101 1.942041,0.97424 3.185854,1.37189 6.098649,0.60324 2.21089,-2.27074 3.031725,-0.1194 3.907733,1.07779 0.64326,1.77668 -0.1794,5.60322 2.6834,5.85922 1.7511,1.263 5.14895,-2.71319 4.30687,-1.13101 2.57643,0.096 1.72237,2.83598 2.81206,4.07172 -0.15543,2.46777 3.40021,1.22448 2.33748,4.59955 1.68697,1.31827 4.21991,2.41858 5.20276,0.6565 2.41301,-0.52531 3.95368,-0.40976 5.80599,-0.6565 0.50278,2.10101 2.31113,1.53375 4.59956,1.13104 0.30715,0.74966 2.37588,-2.66398 3.46851,-3.33984 0.19412,-3.17801 0.88024,-4.8818 2.20882,-1.86292 0.32395,1.12239 3.27017,4.10956 1.86291,5.806 1.81306,0.12257 1.96734,2.87275 3.46854,3.4685 2.06467,-0.1371 3.23039,2.5591 5.57648,1.4418 2.36787,-2.22232 4.61849,-3.38141 6.95675,-4.30712 2.41082,-0.70364 3.85702,-3.92246 6.61899,-3.46848 1.14962,-0.9439 2.85382,-1.33322 3.46851,-2.81203 0.67306,-1.02029 3.17689,1.45929 3.94308,1.07775 0.88248,0.28336 2.494647,0.18764 3.521787,1.60562 1.43661,-0.52601 2.04097,-3.29113 4.67495,-1.60562 1.76284,-1.07614 -0.70192,-5.94272 2.0698,-3.13293 1.73523,1.55773 1.59245,3.64573 4.264,3.66076 0.92913,0.79342 2.96522,0.34692 3.46851,2.33747 2.18336,0.44497 2.67231,0.21797 4.67495,2.33749 2.37398,0.58997 3.87981,-0.30516 6.62648,0.5278 2.05736,-0.85703 5.09081,-0.87229 6.59114,-1.73425 1.65291,-0.57781 2.728,-3.37952 4.72821,-3.99634 2.66887,2.04769 3.99533,-0.95948 6.15188,-1.20642 2.82473,-0.51589 3.81441,0.0945 6.91913,0 1.44966,-0.59553 3.50363,-1.57441 4.27158,-3.46854 1.57131,-1.65802 2.52438,-3.6612 2.94067,-5.80599 2.30814,0.63666 0.39307,-6.95041 2.26209,-2.39072 1.90663,1.49274 0.56463,3.17516 2.1452,3.93275 -0.26978,3.71604 2.1676,2.30688 2.52975,0.32089 1.50598,-0.64813 3.0821,-1.2262 4.59955,-1.86292 1.25326,2.94509 2.38172,1.87088 4.8922,1.20645 1.93418,-0.46393 -0.19397,-4.99019 1.99158,-5.20276 0.0373,-2.59517 2.48284,-1.5951 4.07175,-0.60324 1.93797,0.93436 3.26348,1.17385 4.48212,2.64998 0.94454,2.27027 3.7834,1.53489 4.24243,-0.9157 1.40502,-0.97982 2.93157,-2.25103 3.54391,-3.94308 1.26644,-1.5993 3.34682,0.0398 3.99631,1.60559 2.83696,-0.48999 2.64398,2.71578 5.02089,1.20645 0.49758,-1.24629 2.73878,-2.65336 3.72581,-3.46851 2.17951,-1.65707 -0.13773,-3.94977 0.5278,-6.73723 1.26641,-0.44984 2.50097,-3.42106 1.20645,-4.74613 -1.61538,-2.00005 -3.56394,-1.0472 -5.27816,-0.12857 -1.70883,0.81638 -3.31479,1.73561 -5.84132,1.73425 -2.04819,-0.0284 -2.63049,-1.56726 -3.83235,-2.86529 -0.935,-1.79807 -2.72226,-2.05309 -3.59718,-3.41528 -2.40803,-1.16052 -3.39287,-0.10519 -5.20275,0.47458 -0.70383,1.49123 -1.72487,1.96555 -3.46854,2.9407 -2.29055,-0.57844 -2.69964,-2.99867 -1.20645,-3.94308 0.34743,-1.77125 2.45817,-1.77914 2.9407,-3.41528 1.75299,-2.5041 -2.29067,-3.4335 -4.15132,-5.16204 -4.02006,-2.78872 -8.04013,-5.57741 -12.06019,-8.3661 0.70149,3.41603 -3.55958,1.86943 -2.94073,5.20276 -0.49982,2.55638 -2.47968,1.87871 -3.20085,4.40732 -0.99056,2.50413 -3.17475,-1.65938 -4.33937,-1.46659 -0.6758,-1.40812 -3.16907,-1.85894 -3.99634,-3.41528 -1.29733,-0.83144 -1.87398,-1.70282 -3.66525,-3.14414 -1.74306,-2.1089 -3.11078,-2.60989 -5.08145,-3.92153 -1.34601,-0.81641 -3.2639,-1.56983 -4.47092,-2.26209 -2.27314,-0.73089 -4.91449,-1.2369 -6.88378,-1.73425 -1.10722,-0.81758 -3.49153,-1.97955 -5.38468,-2.33749 -1.0623,-1.22967 -2.69111,-1.51449 -4.67492,-2.33747 -2.13905,-1.13906 -3.33412,-1.96631 -5.80603,-2.26208 -0.40865,-1.23179 -4.71631,-1.60088 -3.52177,-2.9407 0.0837,-2.605 -2.08828,-3.51204 -3.41524,-4.54629 -2.42133,-0.0862 -2.27776,-3.49637 -4.59955,-1.78752 -2.46212,0.009 -5.3096,-0.36852 -6.280577,1.13105 -0.95102,-0.34834 0.48563,-2.68552 0.47457,-2.8653 -1.62059,-1.01249 -0.31762,-3.47406 1.131027,-2.99396 0.89815,-0.61837 2.52337,-2.46417 1.20645,-3.88982 -1.20829,-1.14693 -4.347007,-0.36347 -3.468507,-3.59717 -0.77243,-0.73589 0.59517,-3.84367 -1.68102,-3.99634 -2.42608,-0.37096 -1.28913,-1.98492 -1.78751,-4.581638 -0.66855,-1.54768 -2.98608,-0.66604 -3.46851,-1.22436 -1.44348,0.94391 -3.62364,-0.0616 -5.1495,-1.20645 -1.08513,-0.87061 -2.03612,-0.0651 -2.99397,-0.5278 z"
       style="fill:#000000;fill-opacity:1;stroke:#d39062;stroke-width:0.417909;stroke-miterlimit:4;stroke-dasharray:none;stroke-opacity:1"
       id="Los_Lagos" />
  </g>
</svg>
