<?xml version="1.0" encoding="UTF-8" standalone="no"?>
<!-- Created with Inkscape (http://www.inkscape.org/) -->

<svg
   width="210mm"
   height="297mm"
   viewBox="0 0 210 297"
   version="1.1"
   id="svg1283"
   inkscape:version="1.1.2 (b8e25be833, 2022-02-05)"
   sodipodi:docname="vector.svg"
   xmlns:inkscape="http://www.inkscape.org/namespaces/inkscape"
   xmlns:sodipodi="http://sodipodi.sourceforge.net/DTD/sodipodi-0.dtd"
   xmlns="http://www.w3.org/2000/svg"
   xmlns:svg="http://www.w3.org/2000/svg">
  <sodipodi:namedview
     id="namedview1285"
     pagecolor="#ffffff"
     bordercolor="#666666"
     borderopacity="1.0"
     inkscape:pageshadow="2"
     inkscape:pageopacity="0.0"
     inkscape:pagecheckerboard="0"
     inkscape:document-units="mm"
     showgrid="false"
     inkscape:zoom="0.74029882"
     inkscape:cx="361.34057"
     inkscape:cy="561.93525"
     inkscape:window-width="1920"
     inkscape:window-height="1017"
     inkscape:window-x="-8"
     inkscape:window-y="-8"
     inkscape:window-maximized="1"
     inkscape:current-layer="layer1" />
  <defs
     id="defs1280" />
  <g
     inkscape:label="Capa 1"
     inkscape:groupmode="layer"
     id="layer1">
    <path
       d="m 91.409643,86.084388 v 1.097408 l -0.54874,0.48009 v 0.548737 l -0.48023,0.548737 -0.54874,-0.548737 h -0.54873 v -0.548737 h -1.02883 -0.54874 l -0.54874,0.548737 v 0.548737 l -0.48023,0.480163 h -0.54874 v 0.548664 l -0.54873,0.548736 v 0.480163 l -0.48024,0.548737 v 0.548737 h -0.54874 l -1.02882,-1.097416 v -0.480162 h -1.09748 l -0.48023,-0.548737 h -0.54874 l -0.54874,-0.548664 h -1.02882 l -1.57764,1.577534 h -0.54874 l -0.48023,0.548737 -0.54874,0.548737 h -2.1263 l -0.54874,-0.548737 v -0.548737 h -1.57763 l -0.48024,-0.480163 h -0.54873 l -0.54874,-0.548736 h -1.02883 l -0.54873,0.548736 h -0.48024 l -0.54874,0.480163 h -0.54873 l -0.48024,0.548737 v 1.028841 l 0.48024,0.548664 v 0.548737 l 0.54873,0.48009 v 1.097408 h -1.02882 -0.54874 l -1.0289,1.028841 h -1.0974 l -0.48024,-0.548737 h -0.54873 v -2.606361 h -0.54874 l -0.54874,-0.548664 -0.48023,0.548664 h -0.54874 l -0.54874,-0.548664 -0.48023,0.548664 -0.54874,-0.548664 h -2.1263 l -0.48023,-0.48009 h -1.57757 l -0.54873,0.48009 h -2.1263 -2.60639 l -0.54874,0.548664 h -1.57756 l -0.54874,0.548737 h -0.48024 v 0.48009 l -1.09747,1.097408 h -2.05773 l -0.54873,-0.548664 h -1.57764 l -1.02883,-1.028827 v -0.548736 l -0.54873,-0.548664 v -1.577542 h -1.0289 l -0.54874,0.548737 -0.54874,-0.548737 h -1.57756 l -0.54874,0.548737 h -0.48023 l -0.54874,-0.548737 h -0.54874 l -0.48023,-0.480163 h -0.54874 l -0.54873,-0.548736 h -0.48024 l -0.54874,-1.02882 -0.54873,0.480163 h -0.48024 l -0.54874,0.548664 v 1.028841 l 0.54874,0.548737 v 0.548737 h 0.48024 l 0.54873,0.48009 h 1.57757 v 0.548663 l 0.54873,0.548737 h 0.48024 v 0.48009 l -0.48024,0.548737 v 2.126234 h 0.48024 l -0.48024,0.480163 1.57757,1.646108 v 0.48009 h 1.0289 l 0.54873,0.548737 v 0.548741 l -0.54873,0.48009 v 1.09741 l -0.54874,0.48009 v 1.57752 l -0.48024,0.54874 v 1.57753 l -0.54873,0.54874 v 2.05766 l -0.54874,0.54874 v 2.12625 l -0.48024,0.54867 v 1.02882 l -0.54873,0.54874 v 1.02882 l -0.54874,0.54874 v 1.02882 l -0.48023,0.54867 v 0.48016 l -0.54874,0.54874 v 2.12623 l 0.54874,0.48009 v 0.54874 h -0.54874 v 1.57753 l -0.54874,0.54874 h -0.48023 v 1.02882 l -0.54874,0.54867 v 0.54874 l -0.54874,0.48016 v 0.54866 h -1.02882 l -0.54874,-0.54866 h -1.02883 l -1.02882,-0.48016 h -1.57764 l -0.54874,0.48016 h -1.09747 l -0.48024,0.54866 h -3.1552 l -1.0974,-1.02882 h -3.15214 l -0.48023,0.48016 h -0.54874 l -0.54874,0.54866 v 1.02882 l -0.48023,0.54874 v 1.02882 l -0.54874,0.54874 v 3.15506 l -0.54873,0.54873 v 1.02883 l -0.48024,0.54866 v 1.02884 l -0.54874,1.02883 v 1.64613 l -0.54873,0.48009 v 1.57754 l -0.5487399,0.54873 v 2.12624 l -0.48024,0.48009 v 1.57752 l -0.54873,0.54874 v 1.02883 l -0.54874,0.54873 v 1.57752 l -0.48024,0.54874 v 1.57754 l -0.54873,0.54867 v 1.02884 l -0.54874,0.54866 v 1.02882 l -0.48023,0.54874 v 1.02882 l -0.54874,0.54874 v 1.57752 l -0.54874,0.48009 v 1.09741 l -0.48023,1.02883 v 1.57753 l -0.54874,1.02882 v 0.54874 l -0.54874,0.54866 v 3.15508 l -0.48023,0.54874 v 1.57752 l -0.54874,0.48016 v 1.57754 l -0.54874,0.54866 v 1.02884 l -0.48023,0.54874 v 1.02882 l -0.54874,0.54874 1.0289,0.54866 h 1.57756 l 0.54874,0.48016 h 0.54874 l 0.48023,-0.48016 h 1.57757 l 1.09747,-1.09741 v -0.48009 l 0.48024,-0.54874 h 0.54873 l 1.02883,-0.54874 h 2.6750399 l 1.02882,1.09742 h 1.09748 l 0.48023,0.48009 h 2.67504 l 1.02883,0.54873 h 1.0289 l 1.0974,1.02883 h 0.48023 l 0.54874,0.54874 h 1.02883 l 1.64613,1.57752 h 1.57764 l 0.48023,0.54873 h 3.70387 l 1.02882,-0.54873 h 0.54874 l 0.54874,-0.48009 h 0.48023 l 1.09748,-1.09742 h 0.48023 l 1.57757,-1.57754 h 0.54873 l 1.0974,-1.02882 v -0.54874 l 0.48024,-1.02882 v -1.09741 l 1.57756,-1.57754 h 1.0974 l 1.02883,-0.48016 h 0.54874 v -0.54867 l 2.05772,-2.12623 v -0.48017 l 1.09748,-1.09741 h 0.48023 l 1.57757,-1.57753 h 0.54873 l 0.54874,-0.54874 h 1.57756 2.1263 l 0.48024,-0.48009 h 2.1263 l 0.54874,-0.54874 h 0.48023 l 0.54874,0.54874 h 0.54874 l 1.02882,1.02883 h 0.54874 l 2.05772,2.12623 h 0.54874 l 0.54874,0.54874 h 1.57763 l 0.54874,-0.54874 h 0.48024 l 0.54873,-0.54874 h 0.54874 l 0.48024,1.09742 h 1.57756 l 2.67504,-2.67495 h 0.48023 l 1.57757,-1.57754 h 0.54873 l 0.54874,-0.54867 h 1.02883 l 0.54873,-0.48016 0.48024,-1.09741 v -0.48017 l 0.54874,-0.54866 v -0.54874 l 2.1263,-2.05763 h 0.54873 l 0.48024,-0.54874 h 0.54873 l 0.54874,-0.54866 h 0.48024 l 1.0974,-0.48017 h 3.63529 v -1.09741 l 0.54873,-0.48009 v -0.54867 l 1.02883,-1.02884 h 0.54874 l 0.54873,-0.54866 h 0.48024 l 0.54874,-0.54874 h 2.67503 l 1.02883,0.54874 h 0.54874 l 0.48023,0.54866 h 0.54874 l 0.54874,0.48017 0.48023,0.54873 v 0.54867 l 1.57757,1.57753 h 1.57756 l 0.54874,0.48016 h 1.028817 l 0.54874,0.54867 h 1.02883 l 1.64621,1.57753 h 0.48023 l 0.54874,0.54873 0.54874,0.48009 h 3.1552 l 0.48023,-0.48009 h 0.54874 l 0.54873,-0.54873 h 0.48024 l 1.09747,-0.54874 h 1.02883 l 2.1263,2.12626 h 0.48024 l 0.54873,0.54866 h 1.57757 l 0.54873,-0.54866 0.54874,0.54866 h 0.48024 l 0.54873,0.48016 h 0.54874 l 1.57756,1.57755 0.48024,0.54866 h 0.54873 l 0.54874,0.54874 0.48024,0.48009 h 1.09747 l 0.48024,0.54873 h 4.2526 l 1.02882,0.54867 h 1.09748 l 1.02882,1.02884 h 0.54874 l 0.48024,0.54874 0.54873,0.54873 v 0.48016 l 0.54874,0.54867 0.48024,1.02883 v 0.54873 l -0.48024,0.54867 v 0.48016 l 0.48024,1.09741 v 0.48017 l 0.54873,0.54866 -0.54873,0.54874 v 1.02882 l -0.48024,1.02882 v 1.09742 l 0.48024,0.48016 v 1.09741 l 0.54873,0.54874 v 0.48009 l 1.0289,1.09743 v 0.48009 l 0.54874,0.54873 v 0.54874 l 0.54874,1.02884 v 0.54866 l 0.48023,0.48009 v 0.54867 l 1.0974,1.02884 0.48024,0.54866 1.09747,1.02883 v 0.54874 l 1.02883,1.02882 v 0.54873 l 0.54873,0.54867 h 0.54874 l 2.05773,2.12623 h 0.54873 l 1.57757,1.57754 h 2.60639 l 0.54873,0.48009 h 0.54874 l 1.02883,0.54867 h 0.54873 l 0.48024,0.54873 h 2.1263 l 0.54874,-0.54873 h 0.54873 l 1.02883,1.02884 h 0.54874 l 1.0289,1.09741 0.54873,0.48009 h 2.60647 l 0.54873,0.54874 h 0.48024 l 1.09747,0.54874 h 1.02883 l 0.54874,0.48009 h 0.48023 l 0.54874,0.54873 1.02883,0.54867 h 1.09747 l 0.54874,0.48016 h 1.57756 v 0.54874 l 0.48023,0.54866 v 0.48016 l 0.54874,0.54867 v 0.54873 l 0.54874,1.02883 v 0.54874 h 0.48023 l 1.0974,0.48009 h 1.57757 l 0.48023,0.54873 0.54874,0.54867 h 1.57756 l 0.54874,0.54874 0.48024,0.48016 h 2.67503 v 0.54866 l 0.54874,0.54874 v 1.02883 l 1.0289,1.02881 0.54874,0.54874 0.48023,0.54874 h 0.54874 l 0.54874,0.48009 h 1.57756 l 3.15513,-13.6491 8.91671,1.57752 4.2526,-14.7465 2.60639,1.02882 3.15513,-13.16898 h -5.28143 l -0.48023,-0.54866 v -1.02883 l -0.54874,-1.02884 h -0.54874 l -0.48023,-0.54867 h -1.09748 l -1.02882,-0.54873 h -0.54874 l -1.02883,-1.02883 h -0.54873 l -1.0289,-1.02882 h -0.54874 l -2.60646,-2.67495 v -0.54874 l -0.54874,-0.48009 v -1.0974 l -0.54874,-1.02884 v -0.54867 l -0.48023,-0.48016 h -2.67497 l 1.57757,-6.31013 3.70386,0.48009 3.70387,-14.1978 1.02882,-4.25249 h -0.48023 l -6.85899,-2.60636 7.33915,-26.33795 -2.05773,-1.02882 1.0289,-4.25249 -1.57763,-1.577534 -0.54874,0.548736 h -0.48024 l -1.0974,-1.028841 h -0.54873 v -1.646465 h -0.48024 l -0.54874,-0.480163 v -0.548737 l -1.0289,-0.548736 h -0.54873 l 0.54873,-0.480163 v -0.548664 l -0.54873,-0.548737 v -1.028827 h -2.12623 l -0.48024,-0.548664 h -1.57756 l -0.54874,0.548664 h -5.83016 l -1.02883,0.548737 -0.54873,-0.548737 h -0.48024 l 1.02883,-1.028819 -1.02883,-0.548737 v -0.548737 l -0.54874,-0.480162 h -1.02889 l -0.54874,0.480162 h -0.54874 v 1.097416 l -1.02882,1.028819 h -4.18403 v 2.126235 h 1.57756 l -0.54873,0.480163 h -0.54874 l -0.48024,0.548736 h -0.54873 l -0.54874,-0.548736 h -1.02883 l -0.54873,0.548736 -0.54874,-0.548736 h -0.48024 l -0.54873,-0.480163 v -0.548664 l -0.54874,-0.548737 h -1.02883 l -1.57756,-1.57752 h -0.54874 l -0.48023,-0.48009 v -0.548736 l -0.54874,-0.548737 -1.02883,-0.480163 h -1.57763 l -0.54874,0.480163 1.02883,1.097415 h 0.54873 l -0.54873,0.48009 h -3.15513 l -0.48024,0.548664 v 0.548737 l 0.48024,0.48009 h 0.54874 v 0.548736 h -0.54874 v 0.548664 l 0.54874,0.480163 -0.54874,0.548737 h -1.0289 l -0.54874,0.548737 h -0.54873 v 0.480162 l -0.48024,0.548664 h -0.54873 l -0.54874,-0.548664 h -0.48024 l 0.48024,-0.480162 h 0.54874 l 0.54873,-0.548737 0.48024,-0.548737 v -0.480163 l -0.48024,-0.548664 V 93.971798 H 148.822 l -0.54873,0.548736 0.54873,0.548664 h 0.54874 v 1.028841 l -0.54874,0.548737 -0.54873,-0.548737 h -0.48024 l -1.09747,1.028827 h 0.54874 l 0.54873,0.548664 h 0.48024 l -1.02883,1.097415 h -1.57756 v 0.48009 l -0.54874,0.548737 v 0.548738 h -1.02883 l -0.54873,-0.548738 h -0.48024 l -0.54873,-0.548737 h -1.57757 v -1.028827 l -0.54873,-0.548736 h -0.54874 l -0.48024,-0.548664 -0.54873,-0.480163 -0.54874,0.480163 h -1.02883 l -0.54873,0.548664 h -0.48024 l -0.54874,0.548736 0.54874,0.548737 v 0.48009 l 0.48024,0.548737 v 0.548738 l 0.54873,0.48009 h 0.54874 l 0.48023,0.54873 h -0.48023 l -0.54874,0.54874 v 0.48009 l 0.54874,0.54867 v 0.54873 l -0.54874,0.48009 v 0.54874 h -0.54873 l -0.48024,-0.54874 v -0.48009 h -2.1263 v -0.54873 l 0.54874,-0.54867 h 1.02882 v -0.48009 h -2.1263 v 0.48009 h -2.60639 l -0.54873,-0.48009 h -2.60639 l -0.54874,0.48009 h -1.02883 l -0.54873,0.54867 h -1.02883 l -0.54874,0.54873 v 1.02882 l 0.54874,0.54874 h 0.48023 l 0.54874,0.48009 v 0.54874 h -1.02883 l -0.54873,-0.54874 h -1.0289 v 0.54874 l -0.54874,-0.54874 v -1.02882 l -0.54873,-0.54874 v -0.48009 l -0.48024,-0.54873 v 1.02882 l -0.54874,0.54874 h -0.54873 l -0.48024,-0.54874 v -0.48009 h -1.0974 l -0.48024,0.48009 v 0.54874 l 0.48024,0.54874 h -2.05773 l -0.54873,0.48009 v -0.48009 h 0.54873 v -0.54874 l 0.48024,-0.54874 -0.48024,-0.48009 -0.54873,0.48009 h -0.54874 l -0.54874,0.54874 h -1.0289 l -1.57756,-1.57754 h -1.02883 v -0.54867 h -1.57756 l -0.54874,-0.48009 h -4.18402 l -0.54874,-0.54873 h -0.54874 v -0.54874 l -0.48023,-0.48009 0.48023,-0.548736 v -2.126257 l -0.48023,-0.548664 h -0.54874 l -1.09747,1.097408 h -2.606387 -1.0289 l -1.0974,-1.097408 v -0.480162 l -0.48024,-0.548737 v -0.548737 l -1.0974,-1.028819 v -2.126235 l -0.48024,-0.48009 v -0.548737 h -1.57909 l -0.54874,-0.548736 v -0.480163 l -0.54873,-0.548737 v -1.577082 l 0.54873,-0.548737 v -1.02882 l -0.54873,-0.548736 z"
       style="fill:#000000;fill-opacity:1;fill-rule:evenodd;stroke:#d38d5f;stroke-width:0.964057;stroke-linecap:butt;stroke-linejoin:miter;stroke-miterlimit:4;stroke-dasharray:none;stroke-opacity:1"
       id="Freire" />
  </g>
</svg>
