<?xml version="1.0" encoding="UTF-8" standalone="no"?>
<!-- Created with Inkscape (http://www.inkscape.org/) -->

<svg
   width="210mm"
   height="297mm"
   viewBox="0 0 210 297"
   version="1.1"
   id="svg1283"
   inkscape:version="1.1.2 (b8e25be833, 2022-02-05)"
   sodipodi:docname="vector.svg"
   xmlns:inkscape="http://www.inkscape.org/namespaces/inkscape"
   xmlns:sodipodi="http://sodipodi.sourceforge.net/DTD/sodipodi-0.dtd"
   xmlns="http://www.w3.org/2000/svg"
   xmlns:svg="http://www.w3.org/2000/svg">
  <sodipodi:namedview
     id="namedview1285"
     pagecolor="#ffffff"
     bordercolor="#666666"
     borderopacity="1.0"
     inkscape:pageshadow="2"
     inkscape:pageopacity="0.0"
     inkscape:pagecheckerboard="0"
     inkscape:document-units="mm"
     showgrid="false"
     inkscape:zoom="0.74029882"
     inkscape:cx="361.34057"
     inkscape:cy="561.93525"
     inkscape:window-width="1920"
     inkscape:window-height="1017"
     inkscape:window-x="-8"
     inkscape:window-y="-8"
     inkscape:window-maximized="1"
     inkscape:current-layer="layer1" />
  <defs
     id="defs1280" />
  <g
     inkscape:label="Capa 1"
     inkscape:groupmode="layer"
     id="layer1">
    <path
       d="m 149.94977,92.742782 -0.73369,0.73369 h -0.64209 l -0.73369,0.73368 h -0.73369 v 1.37559 l -0.64209,0.73369 v 0.6421 l -1.46738,0.73368 h -1.37559 v 0.73369 l -1.46737,1.37559 v 0.733688 h -0.6421 l -0.73368,1.37558 -0.73369,0.73369 h -0.6421 l -2.10937,2.10928 h -0.73369 l -0.73368,0.73368 v 0.6421 h -0.6421 l -0.73369,0.73369 v 2.10927 l -0.73368,0.73369 v 1.37559 l -0.6421,0.73368 v 2.10928 l -0.73369,0.6421 v 0.73368 l -0.73368,0.73369 v 0.6421 h -0.6421 l -0.73369,0.73368 v 0.73369 h -0.73368 v 0.6421 l -1.37569,1.46737 v 1.37559 h -0.73368 l -0.6421,0.73368 v 0.73369 h -2.20106 v 0.6421 l -1.37559,0.73368 h -0.73369 v 1.37559 l -0.64209,0.73369 v 0.73368 l -0.73369,0.6421 -0.73369,0.73369 h -2.10927 l -0.6421,0.73368 h -0.73369 l -1.37558,0.6421 h -2.10938 l -2.84286,2.84287 h -0.73369 l -2.10927,2.10927 h -2.84296 -2.10928 l -2.10927,2.10918 -0.642104,0.73369 h -1.46737 l -1.37559,0.64209 h -0.73369 l -0.6421,0.73369 -1.46737,-0.73369 h -4.21855 l -0.73369,-0.64209 v 0.64209 l -0.64209,1.46738 h -0.73369 l -0.73369,0.73368 -0.64209,-0.73368 h -0.73369 v -0.73369 h -2.84296 l -1.37559,-0.73369 -0.73369,-0.64209 h -2.75127 l -0.73369,0.64209 -0.73368,1.46738 -0.6421,0.73368 v 0.6421 l -1.46737,1.46727 -0.6421,1.37559 -0.73369,0.73369 v 0.6421 h -2.10927 l -1.46738,-1.37559 h -0.64209 l -0.73369,-0.73369 -1.37559,-0.6421 h -10.54647 l -0.73369,0.6421 -1.46727,0.73369 v 0.73368 l -0.6421,1.37559 -2.10928,0.73369 h -0.73368 l -1.37559,0.6421 h -2.84296 l -0.73369,0.73368 h -0.6421 l -0.73368,0.73369 h -2.84296 l -1.37559,-1.46728 -1.37559,0.73369 h -1.46738 l -0.73368,0.73369 h -1.37559 l -2.10928,0.64209 h -0.73368 l -0.6421,0.73369 h -4.21855 l -0.73369,0.73369 h -2.10927 l -2.84296,0.64209 h -0.6421 l -1.46737,0.73369 h -5.59414 l -0.73369,0.73369 -1.37559,-0.73369 -0.73368,-0.73369 v -0.64209 H 9.8158664 l -0.73369,0.64209 h -2.84296 l 0.73369,0.73369 v 1.37559 l -0.73369,0.73369 v 0.73368 l -0.6421,0.6421 v 0.73369 l -0.73368,0.73368 v 0.73369 l -0.73369,0.6421 v 0.73368 h -0.6421 v 2.10928 h -0.73368 v 0.73368 l -0.73369,0.6421 v 2.10928 l -0.73368,0.73368 v 0.73369 l -0.64209998,0.6421 v 0.73368 l 1.37558998,1.37559 h 0.73368 l 0.73369,0.73369 v 0.73369 h 0.6421 l 0.73368,0.64209 h 0.73369 l 2.75128,2.84296 v 0.73369 h 2.8429596 l 2.10927,2.10928 h 0.73369 v 1.37558 l -0.73369,0.73369 v 0.73369 l 0.73369,1.37559 h 0.6421 l 0.73368,0.73368 h 0.73369 l 0.6421,0.6421 h 0.73368 l 0.73369,0.73369 h 0.6421 l 0.73368,-0.73369 h 2.10928 l 0.73368,0.73369 0.73369,-0.73369 h 1.37559 v 2.10927 l 0.73369,0.73369 v 0.73369 l 1.37558,1.37559 h 2.10928 l 0.73369,0.73368 h 2.75127 l 1.46737,-1.46727 v -0.6421 h 0.6421 l 0.73369,-0.73369 h 2.10927 l 0.73369,-0.73368 h 3.48486 2.84296 l 0.73369,-0.6421 h 2.10928 l 0.64209,0.6421 h 2.84296 l 0.73369,0.73368 0.6421,-0.73368 0.73368,0.73368 h 0.73369 l 0.6421,-0.73368 0.73368,0.73368 h 0.73369 v 3.48487 h 0.73369 l 0.64209,0.73368 h 1.46728 l 1.37569,-1.37568 h 2.10927 v -1.46728 l -0.73368,-0.64209 v -0.73369 l -0.6421,-0.73369 v -1.37559 l 0.6421,-0.73368 h 0.73368 l 0.73369,-0.6421 h 0.6421 l 0.73368,-0.73369 h 1.37559 l 0.73369,0.73369 h 0.73368 l 0.6421,0.6421 h 2.10928 v 0.73368 l 0.73368,0.73369 h 2.84296 l 0.73369,-0.73369 0.6421,-0.73368 h 0.73368 l 2.10928,-2.10928 h 1.37569 l 0.73368,0.73369 h 0.73369 l 0.6421,0.73368 h 1.46727 v 0.6421 l 1.37569,1.46728 h 0.73368 v -0.73369 l 0.6421,-0.73369 v -0.64209 l 0.73369,-0.73369 v -0.73369 h 0.73368 l 0.6421,-0.64209 v -0.73369 l 0.73369,-0.73369 h 0.73368 1.37559 v 0.73369 h 0.73369 l 0.73368,0.73369 0.6421,-0.73369 v -0.73369 l 0.73369,-0.64209 v -1.46728 h 1.37559 l 0.73368,0.73369 v 1.37559 l -0.73368,0.73368 v 2.10918 l 0.73368,0.73369 v 0.6421 l 0.73369,0.73368 h 2.10928 v 0.73369 l 0.64209,0.6421 v 2.84286 l 1.46738,1.37559 v 0.73368 l 0.642094,0.73369 v 0.6421 l 1.46728,1.46737 h 4.86055 l 1.46727,-1.46737 h 0.73369 l 0.6421,0.73368 v 2.84287 l -0.6421,0.73368 0.6421,0.6421 v 0.73369 h 0.73368 l 0.73369,0.73369 h 5.59424 l 0.73368,0.64209 h 2.10928 v 0.73369 h 1.37559 l 2.10927,2.10927 h 1.37559 l 0.73369,-0.73368 h 0.73368 l 0.73369,-0.6421 0.6421,0.6421 -0.6421,0.73368 v 0.73369 h 2.75128 l -0.6421,-0.73369 v -0.73368 l 0.6421,-0.6421 h 1.46727 v 0.6421 l 0.6421,0.73368 h 0.73368 l 0.73369,-0.73368 v -1.37559 l 0.6421,0.73369 v 0.64209 l 0.73368,0.73369 v 1.37559 l 0.73369,0.73368 v -0.73368 h 1.37569 l 0.73368,0.73368 h 1.37569 v -0.73368 l -0.73369,-0.6421 h -0.64209 l -0.73369,-0.73369 v -1.37558 l 0.73369,-0.73369 h 1.37568 l 0.73369,-0.73369 h 1.37559 l 0.73368,-0.64209 h 3.48487 l 0.73368,0.64209 h 3.48487 v -0.64209 h 2.84296 v 0.64209 h -1.37559 l -0.73369,0.73369 v 0.73369 h 2.84297 v 0.64209 l 0.64209,0.73369 h 0.73369 v -0.73369 l 0.73369,-0.64209 v -0.73369 l -0.73369,-0.73369 v -0.64209 l 0.73369,-0.73369 h 0.64209 l -0.64209,-0.73369 h -0.73369 l -0.73369,-0.6421 v -0.73368 l -0.64209,-0.73369 v -0.6421 l -0.73369,-0.73368 0.73369,-0.73369 h 0.64209 l 0.73369,-0.73368 h 1.37569 l 0.73368,-0.6421 0.73369,0.6421 0.6421,0.73368 h 0.73368 l 0.73369,0.73369 v 1.37559 h 2.10937 l 0.73369,0.73368 h 0.6421 l 0.73368,0.73369 h 1.37559 v -0.73369 l 0.73369,-0.73368 v -0.6421 h 2.10927 l 1.37559,-1.46728 h -0.6421 l -0.73368,-0.73368 h -0.73369 l 1.46737,-1.37549 h 0.6421 l 0.73369,0.73368 0.73368,-0.73368 v -1.37569 h -0.73368 l -0.73369,-0.73369 0.73369,-0.73368 h 7.06151 v 0.73368 l 0.6421,0.73369 v 0.6421 l -0.6421,0.73368 -0.73369,0.73369 h -0.73368 l -0.6421,0.6421 h 0.6421 l 0.73368,0.73368 h 0.73369 l 0.6421,-0.73368 v -0.6421 h 0.73368 l 0.73369,-0.73369 h 1.37569 l 0.73368,-0.73368 -0.73368,-0.6421 v -0.73369 h 0.73368 v -0.73368 h -0.73368 l -0.6421,-0.6421 v -0.73369 l 0.6421,-0.73368 h 4.21855 l 0.73368,-0.6421 h -0.73368 l -1.37569,-1.46727 0.73369,-0.6421 h 2.10927 l 0.6421,-1.46737 v -4.21846 l 0.73368,-0.6421 -0.73368,-0.73368 h -0.6421 v -3.57655 l 0.6421,-1.37559 v -0.73369 h -0.6421 l -0.73369,0.73369 -0.73368,-0.73369 -1.37569,1.46728 h -2.10927 l -0.73369,-0.73369 -0.6421,0.73369 h -0.73368 l -0.73369,-0.73369 h -0.73369 v -0.73368 h 0.73369 l 0.73369,-0.6421 v -0.73369 h 1.37568 l 0.73369,-0.73368 v -0.6421 l 2.10927,-2.10928 h 2.10938 v -1.46727 l 0.73368,-0.6421 v -1.46737 l 0.6421,-0.6421 v -0.73369 l 1.46728,-1.37549 h 2.75127 l 0.73369,0.6421 v -0.6421 l -0.73369,-0.73368 v -0.73369 l -0.6421,-0.73369 h -0.73368 l 1.37559,-1.37559 h 0.73368 l 0.73369,-0.73368 v -0.6421 h 0.6421 l 1.46737,-1.46727 v -2.10928 l -0.73369,-0.6421 h -1.37559 l -0.73368,-0.73368 v -0.73369 h -0.73369 v -0.6421 l 1.46737,-1.46727 v -0.6421 l 0.6421,-0.73369 h 0.73369 l 0.73368,-0.73368 -1.46737,-1.37559 h -0.6421 l 0.6421,-0.73369 v -3.48486 l 1.46737,-1.46728 h 0.6421 l 0.73369,-0.64209 h 1.46737 v -0.73369 l 0.6421,-0.73369 v -2.75117 h 1.46737 l 0.6421,0.64209 h 1.46737 l 1.37559,-1.37559 h 0.73369 l 0.64209,-0.73368 v -0.6421 h 0.73369 l 0.73369,-0.73369 h 0.64209 l 1.46728,-1.37559 v -1.46727 l -0.73369,0.73369 h -1.37559 l -0.73368,0.73368 h -1.37559 v -0.73368 l 0.6421,-0.73369 h 0.73368 l 0.73369,-0.6421 v -0.73368 l 1.37559,-1.37559 h 0.73368 l 1.37559,-1.46728 -0.73368,-0.73368 -6.32793,-1.37559 -15.49861,-4.95214 v -1.37559 h -0.6421 l -1.46727,-0.73369 h -0.6421 l -0.73369,-0.6421 -3.48486,0.6421 h -1.46737 l -0.73369,0.73369 h -2.10937 l -0.6421,0.73368 h -0.73369 l -0.73368,0.6421 h -2.10928 l -0.64209,0.73369 -0.73369,0.73368 h -2.84296 l 1.46737,-7.06141 h 2.10928 l 0.64209,-2.84286 0.73369,0.73368 1.37559,-4.21845 h 3.57665 v -1.46728 l -0.73369,-0.64209 h -0.73369 l -0.64209,-0.733688 h -2.10928 l -1.46737,0.733688 v -0.733688 l -0.6421,-0.73369 h -0.73369 l -0.73368,0.73369 -0.6421,-0.73369 -1.46737,-0.64209 h -0.6421 l -0.73369,-0.73369 v 0.73369 l -0.73368,-0.73369 -0.6421,-0.73369 v -0.64209 h -0.73369 v -0.73369 l -0.73368,-0.73369 v -0.64209 l -0.6421,0.64209 -0.73369,-0.64209 -0.73368,0.64209 h -0.73369 l -0.6421,0.73369 v -0.73369 h -1.46727 v 0.73369 h -4.86055 l -0.73369,-0.73369 v -1.37558 h -0.73368 l -0.6421,-0.73369 z M 126.74764,201.96452 h -0.73368 v 0.64209 z"
       style="fill:#000000;fill-opacity:1;fill-rule:evenodd;stroke:#d38d5f;stroke-width:1.28899;stroke-linecap:butt;stroke-linejoin:miter;stroke-miterlimit:4;stroke-dasharray:none;stroke-opacity:1"
       id="Padre_Las_Casas" />
  </g>
</svg>
