<?xml version="1.0" encoding="UTF-8" standalone="no"?>
<!-- Created with Inkscape (http://www.inkscape.org/) -->

<svg
   width="210mm"
   height="297mm"
   viewBox="0 0 210 297"
   version="1.1"
   id="svg57"
   inkscape:version="1.1.2 (b8e25be833, 2022-02-05)"
   sodipodi:docname="vector.svg"
   xmlns:inkscape="http://www.inkscape.org/namespaces/inkscape"
   xmlns:sodipodi="http://sodipodi.sourceforge.net/DTD/sodipodi-0.dtd"
   xmlns="http://www.w3.org/2000/svg"
   xmlns:svg="http://www.w3.org/2000/svg">
  <sodipodi:namedview
     id="namedview59"
     pagecolor="#ffffff"
     bordercolor="#666666"
     borderopacity="1.0"
     inkscape:pageshadow="2"
     inkscape:pageopacity="0.0"
     inkscape:pagecheckerboard="0"
     inkscape:document-units="mm"
     showgrid="false"
     inkscape:zoom="0.74029882"
     inkscape:cx="361.34057"
     inkscape:cy="453.87078"
     inkscape:window-width="1920"
     inkscape:window-height="1017"
     inkscape:window-x="-8"
     inkscape:window-y="-8"
     inkscape:window-maximized="1"
     inkscape:current-layer="layer1" />
  <defs
     id="defs54" />
  <g
     inkscape:label="Capa 1"
     inkscape:groupmode="layer"
     id="layer1">
    <path
       inkscape:connector-curvature="0"
       id="Cabrero"
       style="fill:#000000;fill-opacity:1;fill-rule:evenodd;stroke:#d39062;stroke-width:0.82111;stroke-linecap:butt;stroke-linejoin:miter;stroke-miterlimit:4;stroke-dasharray:none;stroke-opacity:1"
       d="m 16.063676,28.296735 c -1.83786,1.83786 -2.40964,2.85358 -4.46476,5.59375 -1.15359,1.53822 -1.6396904,2.6974 -1.7448804,3.69506 -0.1052,0.99757 0.13573,1.81911 0.5132504,2.61723 0.37751,0.7983 0.88652,1.57488 1.1803,2.51468 0.29353,0.93988 0.40721,2.06708 0.0509,3.48976 -0.62099,2.48404 -1.10158,4.69416 -1.7448804,6.72281 -0.64305,2.02865 -1.48995,3.83411 -2.77121,5.54251 -1.70187,2.26916 -2.62063,3.46524 -3.13049,3.90028 -0.25535,0.21717 -0.36563,0.25874 -0.4615,0.15355 -0.0967,-0.10435 -0.17391,-0.38261 -0.2053,-0.71855 -0.0594,-0.67189 -0.0509,-1.66947 -0.4106,-2.71997 -0.0509,-0.13659 -0.14337,-0.27487 -0.2053,-0.4106 0.35546,1.49122 0.52937,2.79233 0.56415,3.90027 0.0339,1.16707 -0.0339,2.16074 -0.0509,3.18173 -0.017,1.02099 -0.0255,2.07166 0.2053,3.23314 0.23415,1.16155 0.69395,2.46563 1.48826,4.05425 1.4181,2.83619 3.52955,5.0665 4.92661,7.28739 0.6990304,1.1104 1.2152504,2.2018 1.3856904,3.38702 0.17051,1.18531 -0.008,2.43654 -0.71855,3.84896 -0.6710504,1.34259 -1.8203004,3.63389 -2.7713004,6.10708 -0.951,2.4731 -1.69356,5.14786 -1.69356,7.338625 0,2.23437 0.8671,4.27474 1.59091,6.41495 0.36224,1.0701 0.67274,2.17957 0.8212,3.33578 0.14846,1.15613 0.12386,2.3797 -0.2053,3.69498 -0.50137,2.00541 -1.05424,4.02685 -1.48834,6.36362 -0.43436,2.33678 -0.71855,4.96767 -0.71855,8.15975 0,3.20132 0.12301,5.18001 0.0509,7.18474 -0.0679,2.00473 -0.34952,4.01412 -1.18031,7.33871 -0.61674,2.46632 -0.72109,3.92708 -0.46235,4.82396 0.25875,0.89695 0.85285,1.25385 1.64224,1.48825 0.78981,0.23415 1.79637,0.34189 2.77129,0.8212 0.97484,0.47932 1.9560404,1.34616 2.7712104,2.9766 0.73722,1.47417 1.01531,2.57923 1.12907,3.541 0.11368,0.96177 0.0424,1.77093 -0.0509,2.566 -0.0916,0.7949 -0.17137,1.59184 -0.0509,2.56591 0.11961,0.97416 0.43096,2.09347 1.1803,3.59241 0.30795,0.6159 1.6413,2.32464 2.3607,3.84895 0.3597,0.76182 0.54718,1.46832 0.4106,2.00142 -0.13658,0.53277 -0.60911,0.87244 -1.64223,0.87244 -1.23409,0 -3.27768,0.54634 -5.4398604,1.38561 -2.16218,0.83902 -4.41879,1.96036 -6.15832,3.07916 -0.86981,0.55906 -1.64452,1.11778 -2.1554,1.64223 -0.51070001,0.52428 -0.78642001,1.01743 -0.76945001,1.43702 0.017,0.41993 0.36394,0.78133 1.07766001,1.02633 0.71346,0.24517 1.80816,0.4106 3.38711,0.4106 1.84524,0 3.58325,0.0509 5.2858804,0.2562 1.70255,0.20276 3.35174,0.52852 4.92669,1.02642 1.57496,0.49798 3.10504,1.16758 4.56742,2.05274 1.46238,0.88525 2.84332,1.97097 4.20814,3.33579 1.7056,1.7056 2.97312,2.84569 3.9516,3.59233 0.97849,0.74654 1.70077,1.1395 2.3607,1.33436 1.31994,0.38939 2.37817,0.0424 4.87537,0.6668 2.14284,0.53616 3.38635,1.32071 3.9516,2.1554 0.2825,0.41739 0.44029,0.84495 0.4106,1.28295 -0.0255,0.43775 -0.22651,0.86048 -0.51325,1.28304 -0.57263,0.84496 -1.6027,1.63994 -2.87386,2.20673 -1.27117,0.56669 -2.78088,0.92376 -4.31088,0.92376 -0.85276,0 -2.09406,0.26214 -3.43835,0.71855 -1.34429,0.45641 -2.76977,1.09513 -3.9516,1.79621 -1.18192,0.70073 -2.14921,1.47375 -2.51467,2.20672 -0.1824,0.36648 -0.19512,0.74315 -0.0509,1.07765 0.14421,0.3351 0.47422,0.64729 1.02641,0.92377 1.98598,0.99307 4.4998,2.40439 7.08209,3.69498 2.5822,1.29067 5.21174,2.47047 7.44128,3.02792 1.35981,0.34019 3.19742,0.0594 5.13191,-0.4106 1.93457,-0.46574 3.95635,-1.12873 5.79913,-1.69356 1.84278,-0.565 3.48272,-1.01886 4.56742,-0.975 0.54209,0.0254 0.95252,0.15524 1.18039,0.4615 0.22735,0.3071 0.27232,0.80847 0.10265,1.48825 l 6.7229,11.18767 -8.98095,17.91048 13.44571,-1.12907 7.18474,24.99257 c 0.57942,-0.0339 1.11838,-0.11028 1.84753,-0.0509 1.11371,0.0899 2.50093,0.29183 4.41344,0.76945 3.51598,0.87897 6.65088,1.16088 9.44279,0.92377 2.79183,-0.23754 5.23982,-1.00334 7.33863,-2.05283 2.23735,-1.11864 4.566144,-1.75642 6.722904,-2.51459 1.07833,-0.37921 2.1397,-0.7983 3.07916,-1.28304 0.93946,-0.48526 1.79332,-1.07486 2.51458,-1.79612 0.44115,-0.44114 1.59066,-0.58621 3.07925,-0.56415 1.48851,0.0254 3.28319,0.21123 5.08058,0.46235 3.59479,0.50052 7.09142,1.23163 7.49261,1.23163 1.25089,0 2.44884,-0.26384 3.59241,-0.71855 1.14357,-0.45472 2.19858,-1.09692 3.28446,-1.79621 2.1716,-1.3985 4.27991,-3.08934 6.51752,-4.20814 1.38713,-0.69395 2.68756,-1.12661 3.90027,-1.38561 1.21271,-0.25874 2.34254,-0.32661 3.54109,-0.2562 2.39692,0.13998 4.96105,0.81696 8.26239,1.64223 0.98799,0.24687 2.02976,0.0254 3.13049,-0.46235 1.10073,-0.4878 2.23506,-1.22815 3.33579,-2.05274 0.21548,-0.16119 0.35206,-0.24602 0.56415,-0.4106 l -5.95303,-30.63773 7.8518,-2.20672 -2.25805,-5.59383 h 5.59384 l -2.2069,-17.91048 -5.59383,-2.25805 10.0586,-13.39439 -3.3357,-10.0586 c 1.49173,-0.74569 2.97303,-1.51218 4.46477,-2.25804 3.03199,-1.516 4.61569,-2.93206 6.05567,-3.9516 0.72025,-0.50986 1.40698,-0.89281 2.20672,-1.18031 0.79999,-0.28759 1.72724,-0.46235 2.92527,-0.46235 4.4691,0 6.12346,0.87991 7.23598,0.6159 0.55652,-0.13234 0.97628,-0.5387 1.53958,-1.48826 0.56331,-0.94989 1.27753,-2.4524 2.41202,-4.72139 0.60233,-1.20406 1.26294,-2.12731 2.00151,-2.87386 0.73891,-0.74654 1.5585,-1.33572 2.41194,-1.89885 1.70696,-1.12619 3.60759,-2.11926 5.64515,-4.15682 1.16691,-1.1669 2.32923,-1.87935 3.38712,-2.41202 1.05789,-0.53277 1.99548,-0.92275 2.82253,-1.38561 0.82714,-0.4632 1.52703,-0.99274 2.00151,-1.95018 0.47422,-0.95736 0.71855,-2.34585 0.71855,-4.36212 0,-0.95965 -0.39703,-2.06369 -1.02642,-3.23313 -0.62947,-1.16945 -1.47027,-2.36935 -2.30937,-3.59233 -0.83901,-1.22306 -1.68007,-2.47217 -2.30937,-3.59241 -0.62947,-1.12025 -1.02641,-2.11536 -1.02641,-2.97651 0,-0.93107 0.14846,-1.60041 0.2562,-2.3607 -0.32492,-0.0424 -0.59215,-0.16288 -0.92377,-0.2053 -1.12516,-0.14337 -2.29325,-0.33255 -3.48968,-0.6159 -1.19651,-0.28335 -2.43687,-0.65408 -3.69506,-1.28296 -2.46224,-1.2312 -4.66396,-2.89507 -6.82546,-4.67006 -2.16142,-1.775 -4.30256,-3.70168 -6.62017,-5.43986 -1.9998,-1.4998 -4.69051,-3.13795 -7.49268,-4.56742 -2.8021,-1.42955 -5.70455,-2.61936 -8.15975,-3.23314 -5.73101,-1.43277 -11.00841,-1.94381 -16.7815,-3.387105 -1.73741,-0.43435 -3.32823,-1.03405 -4.82395,-1.74488 -1.49573,-0.71091 -2.87217,-1.52753 -4.15691,-2.25804 -1.28473,-0.73043 -2.48778,-1.40521 -3.59232,-1.89878 -1.10464,-0.49373 -2.12401,-0.8212 -3.07925,-0.8212 -3.95703,0 -7.12832,1.04856 -9.54535,1.12898 -1.20856,0.0424 -2.2477,-0.16203 -3.07916,-0.8212 -0.83138,-0.65916 -1.43905,-1.8046 -1.89886,-3.64365 -0.53191,-2.12723 -1.27226,-3.59258 -2.10407,-4.72139 -0.83223,-1.12881 -1.7638,-1.89843 -2.71997,-2.566 -0.95617,-0.66765 -1.96893,-1.2581 -2.87386,-2.00142 -0.90493,-0.74315 -1.73385,-1.67158 -2.41202,-3.02783 -1.02498,-2.04987 -2.3814,-4.10711 -3.64365,-6.3123 -1.26235,-2.2052 -2.38912,-4.52704 -3.02784,-7.08209 -0.56415,-2.25728 -1.26633,-3.60217 -2.00151,-4.46477 -0.735514,-0.86268 -1.508704,-1.23969 -2.206724,-1.64223 -0.69819,-0.40212 -1.34319,-0.81611 -1.7962,-1.69356 -0.45302,-0.87702 -0.71855,-2.23005 -0.71855,-4.51609 0,-1.08673 -0.3105,-2.13715 -0.8212,-3.13048 -0.50986,-0.99333 -1.23834,-1.94034 -2.10408,-2.82263 -1.73147,-1.76439 -4.03669,-3.30261 -6.26097,-4.51609 -1.75413,-0.95693 -3.24705,-1.51744 -4.61874,-2.05274 -0.26638,0.68376 -0.52004,2.13461 -0.87244,2.56599 -0.93972,1.14934 -2.39998,1.68745 -5.49119,3.23305 -1.49173,0.7457 -2.97294,1.51218 -4.46476,2.25814 l -1.12907,8.92953 -5.59375,2.25805 -1.07774,-5.59384 -17.91048,-3.38702 -4.51609,5.59383 -2.20672,-5.59383 10.0586,-7.80056 -7.85188,-6.7229 -6.67157,7.80056 -6.72282,-13.3943 z" />
  </g>
</svg>
