<?xml version="1.0" encoding="UTF-8" standalone="no"?>
<!-- Created with Inkscape (http://www.inkscape.org/) -->

<svg
   width="210mm"
   height="297mm"
   viewBox="0 0 210 297"
   version="1.1"
   id="svg1283"
   inkscape:version="1.1.2 (b8e25be833, 2022-02-05)"
   sodipodi:docname="vector.svg"
   xmlns:inkscape="http://www.inkscape.org/namespaces/inkscape"
   xmlns:sodipodi="http://sodipodi.sourceforge.net/DTD/sodipodi-0.dtd"
   xmlns="http://www.w3.org/2000/svg"
   xmlns:svg="http://www.w3.org/2000/svg">
  <sodipodi:namedview
     id="namedview1285"
     pagecolor="#ffffff"
     bordercolor="#666666"
     borderopacity="1.0"
     inkscape:pageshadow="2"
     inkscape:pageopacity="0.0"
     inkscape:pagecheckerboard="0"
     inkscape:document-units="mm"
     showgrid="false"
     inkscape:zoom="0.74029882"
     inkscape:cx="361.34057"
     inkscape:cy="561.93525"
     inkscape:window-width="1920"
     inkscape:window-height="1017"
     inkscape:window-x="-8"
     inkscape:window-y="-8"
     inkscape:window-maximized="1"
     inkscape:current-layer="layer1" />
  <defs
     id="defs1280" />
  <g
     inkscape:label="Capa 1"
     inkscape:groupmode="layer"
     id="layer1">
    <path
       d="m 37.786293,82.781684 -0.54202,0.47435 h -0.54201 l -0.47436,0.54202 h -2.10026 l -1.0163,1.01623 h -0.54201 l -0.54202,0.54201 h -1.55824 l -0.47436,-0.54201 -1.08403,0.54201 -0.47435,0.54202 h -0.54202 l -0.54202,-0.54202 h -0.54201 l -0.47436,0.54202 h -1.55824 l -0.54202,0.47435 h -0.54201 l -1.01623,1.08396 h -2.57447 l -0.54202,0.47436 h -0.54202 l -0.47435,0.54201 h -1.08396 l -0.47436,0.54202 v 0.47436 l -0.54201,0.54201 -0.54202,0.54202 -0.47435,0.47435 h -2.10026 l -1.08396,0.54202 h -0.47436 l -1.08396,1.01623 h -0.47435 l -0.54202,0.54201 v 1.08396 l 0.54202,0.47436 0.47435,0.54201 v 1.01623 l -0.47435,0.54202 v 1.55817 l 0.47435,0.54202 v 1.01622 l 0.54202,0.542016 v 1.01623 l 0.54201,0.54201 v 1.01623 l -1.08396,1.01623 h -0.47435 l -1.08403,1.08396 h -0.47436 l -1.08396,1.01623 -0.47435,0.54201 h -1.08404 l -3.11648,21.81498 -1.01623,0.54201 -0.54202,0.54202 -0.54200998,1.01623 H 1.877593 l 0.54202,0.54201 v 1.55825 l 1.01622,1.01623 -1.01622,0.54201 h -0.54202 l -1.08402998,1.01623 v 4.67466 l 1.08402998,1.08396 0.54202,-0.54202 v -0.54201 h 2.57447 v -1.01623 h 1.01622 l 1.08404,-1.01623 h 2.03245 l 1.08403,-1.08396 h 0.47436 l 0.54201,-0.47435 h 0.54202 v 1.55817 l 0.47435,0.47435 v 6.77485 l 0.54202,0.54201 v 3.11642 l -0.54202,0.54202 v 4.13264 l 0.54202,0.54201 v 0.47436 l 0.54202,0.54202 v 1.01622 0.54202 l -0.54202,0.54202 v 4.13264 h -0.54202 l -0.47435,-0.47436 h -1.55824 v 7.79108 l 0.47435,0.47435 v 1.08396 l 0.54202,1.01623 v 0.54202 l 0.54201,0.54201 h 0.47436 l 0.54201,0.47436 -0.54201,0.54201 -0.47436,0.54202 h -1.55824 l -0.54202,0.47435 v 1.08404 l -1.55824,1.55817 v 0.47435 h 0.54202 l 0.47435,0.54202 h 0.54202 v 0.54202 l 0.54201,0.47435 v 0.54202 h 1.01623 l 0.54202,-0.54202 h 0.47435 l 0.54202,-0.47435 0.54202,0.47435 h 0.47435 v 0.54202 l 1.08396,1.01622 h 1.0163 l 0.54202,0.54202 h 0.54201 l 0.47436,0.54202 v 0.47435 h 0.54201 l 0.54202,-0.47435 h 0.47435 3.11649 l 0.54202,-0.54202 h 1.01622 l 0.54202,-0.54202 h 0.54202 l 0.47435,-0.47435 h 0.54202 l 0.54202,-0.54202 h 0.47435 v 0.54202 l 0.54202,0.47435 h 0.54201 l 1.01623,1.08396 h 2.64228 l 1.55824,-1.55824 h 1.0163 v -0.54202 l 0.54202,-0.54201 0.47435,-0.47436 h 0.54202 l 0.54201,-0.54201 v -0.54202 h 1.55825 l 0.47435,-0.47435 h 1.55824 l 0.54202,-0.54202 h 3.6585 l 0.54202,-0.54202 h 1.55824 l 0.47436,-0.47435 h 1.08403 l 0.47436,-0.54202 v -0.54201 h 0.54201 l 0.54202,-0.47436 0.47435,-0.54202 h 1.08396 l 0.47436,-0.54201 h 1.08396 l 0.47435,0.54201 h 1.62598 l 0.47436,0.54202 v 0.47436 h 1.55824 l 0.54202,0.54201 h 2.57447 l 0.54201,0.54202 h 1.55825 l 0.54201,0.47435 h 2.03253 v 0.54202 l 0.54202,-0.54202 h 0.54201 l 1.01623,0.54202 -2.10019,9.34932 10.97544,3.11641 18.69906,5.21668 0.54202,-0.54202 v -1.01623 l 0.54202,-0.54201 v -1.01623 h 1.55831 v -0.54202 h 0.47436 l 1.08403,-0.47435 h 0.47435 v -0.54202 l 0.54202,-0.54201 v -0.47436 h 0.54202 v -0.54202 h 0.474347 l 0.54202,-0.54201 h 1.55824 l 0.54202,-0.47436 0.47435,-0.54201 0.54202,-0.54202 h 0.54202 l 1.01622,-1.01623 h 0.54202 l 0.54202,-0.54201 -5.75877,21.88278 -2.100257,-0.54202 -0.47435,1.01623 h 1.01623 l -0.54202,1.08396 1.08403,0.47436 -1.08403,4.74239 v 1.01622 l 0.54202,0.54202 h 0.54201 l 1.016227,-0.54202 h 0.54202 l 0.47435,-0.54201 h 1.55824 l 0.54202,0.54201 h 0.54202 l 0.47435,0.54202 h 2.10026 l 1.08396,-1.08403 h 1.55824 l 1.0163,0.54201 h 0.54202 l 0.47435,-0.54201 h 0.54202 l 0.54202,-0.47436 h 1.0163 l 0.54201,-0.54201 h 0.47436 l 0.54201,-0.54202 h 1.55825 l 0.54201,-0.47435 0.47436,-0.54202 h 0.54202 l 0.54201,-0.54202 h 0.54202 l 0.47435,-0.54201 h 0.54202 l 1.01623,-1.01623 h 1.55824 l 0.54202,0.54202 0.54201,-0.54202 v -1.0163 l 0.47436,-1.08396 v -1.01623 l 0.54201,-0.54201 v -0.47436 l 1.0163,-1.08396 h 1.08396 l 0.47436,-0.47435 h 0.54201 l 0.54202,-0.54202 h 2.57454 l 0.54202,0.54202 h 1.55832 l 0.54201,-0.54202 h 0.47436 l 1.08403,-1.01623 h 0.47435 l 1.08404,-1.08396 h 2.57447 l 3.6585,-1.01622 2.10026,-0.54202 h 0.47435 l 3.65858,1.55824 4.13271,-0.47435 4.20052,1.55824 v -2.10019 l -0.54201,-0.54201 0.54201,-0.47436 h 0.54202 l 1.01623,-0.54201 h 0.54201 l 0.47436,-0.54202 h 1.08403 l 1.01623,-0.54202 h 1.0163 l 0.54201,-0.47435 h 1.55825 l 0.54201,0.47435 h 0.47436 l 0.54201,-0.47435 0.54202,0.47435 h 1.55832 l 0.47435,-0.47435 h 1.08403 l 1.01623,-0.54202 h 0.54202 v -0.54201 l 1.01622,-0.47436 h 0.54202 v -1.55817 h 1.01623 l 1.08403,-1.08403 0.47436,-0.47436 v -1.08396 l 0.54201,-0.47435 h 1.01623 l 0.54202,-0.54202 h 0.54201 l 0.47436,-1.01623 v -0.54201 h 1.08403 l 0.47435,-1.01623 h 1.08396 l 0.47436,-0.54202 v -1.01622 l 1.62598,-1.62598 h 0.47435 l 0.54202,-0.47436 v -2.6422 l -0.54202,-1.01623 0.54202,-0.54201 v -0.47436 l 1.0163,-1.08403 v -1.55817 l 0.54201,-0.47436 h 0.54202 l 1.55824,-1.55824 h 1.0163 l 0.54202,0.47435 0.47435,-0.47435 v -0.54202 l -0.47435,-0.54201 0.47435,-0.47436 h 1.08404 v -1.08396 h 1.01622 v -1.55824 l -0.54201,-0.54202 h -2.03246 v -1.55824 h 0.47436 l 0.54201,-0.47436 v -0.54201 l -0.54201,-0.54202 v -2.03245 l 1.08403,-1.08396 v -0.47436 l 0.47435,-0.54202 0.54202,-0.54201 v -0.47436 h 0.54202 l 1.01622,-0.54201 v -0.54202 l 5.21675,-19.24051 9.34953,-35.36474 -0.54201,-0.54201 v -0.54202 h -0.47436 v -0.47435 l 0.47436,-0.54202 -0.47436,-0.54202 v -0.47435 l -0.54201,-0.54202 v -1.558236 h -1.01623 v -0.54202 h -1.55832 v -0.47435 h -0.54201 v -0.54202 h -1.0163 l -0.54202,-0.54202 h -0.54201 v -1.01622 h -0.47436 v -2.57447 h 0.47436 v -2.10019 h -0.47436 v -1.08396 h -0.54202 v -0.47436 h -2.10026 v -0.54201 h -0.47435 v -0.54202 h -1.08403 v 0.54202 h -0.47436 v 0.54201 h -0.54201 l -0.54202,0.47436 h -1.01623 v 1.55817 h -1.55824 v -0.47436 h -1.08403 v 0.47436 h -2.03246 v -0.47436 h -1.08403 l -1.01623,0.47436 -0.54201,1.08403 v 0.54202 l -0.47436,0.47435 v 2.64214 h -2.10026 l -1.01623,-1.08397 h -0.54201 l -0.54202,-0.47435 h -1.0163 l -0.54201,0.47435 v 0.54202 h -1.55825 l -0.54201,0.54202 h -5.69492 l -1.01623,-1.08396 h -0.54201 l -1.55825,-1.55817 v 0.54201 h -1.08403 l -0.47435,0.54202 -0.54202,-0.54202 h -2.10026 l -0.47436,-0.54201 -0.54201,-0.47436 h -1.01623 l -0.54202,-0.54202 h -2.10026 l -0.47435,-0.54201 h -2.10026 l -0.54202,0.54201 -0.47435,-0.54201 h -1.08403 l -0.54202,-0.54202 H 156.416 l -0.54202,0.54202 -0.54202,-0.54202 -0.47435,0.54202 h -2.64228 l -0.47435,-0.54202 h -1.55825 l -0.54201,0.54202 h -3.11656 l -1.01623,0.54201 h -0.54202 l -0.54201,0.54202 -1.0163,-1.08396 h -0.54202 l -0.54201,-0.54202 h -1.55825 v 0.54202 h -3.11656 l -0.47435,0.54202 -0.54202,-0.54202 h -4.13278 l -0.54202,-0.54202 v -0.47435 h -1.55817 l -0.54202,-0.54202 -0.54201,0.54202 -0.47436,0.47435 h -0.54201 l -0.54202,0.54202 h -2.03253 l -0.54201,0.54202 -0.54202,-0.54202 -0.47435,0.54202 h -1.55825 l -0.54201,-0.54202 h -1.01623 l -0.54202,-0.54202 -1.01622,0.54202 h -0.54202 v -1.01623 h -0.54202 v -0.54201 h -2.57447 l -0.54201,0.54201 h -0.54202 l -0.47436,-0.54201 h -2.10026 l -0.54201,-0.54202 h -2.57454 l -0.54202,0.54202 -0.47436,-0.54202 h -0.54201 l -0.54202,-0.47435 v -1.08397 l 0.54202,-1.01622 h -1.55825 l -1.08396,-1.01623 -0.47435,0.47435 -0.54202,0.54202 h -1.01622 l -0.54202,1.01623 -0.54202,-0.47436 -0.47435,0.47436 h -0.54202 l -0.54201,-0.47436 -0.474357,0.47436 h -1.08403 l -0.47436,-0.47436 -0.54201,-0.54201 h -1.55825 l -0.54201,0.54201 h -1.55825 -1.01622 v -1.08396 h -2.64228 l -0.47435,-0.47435 h -0.54202 l -1.55824,-1.55817 h -0.54202 l -0.47436,0.47435 v 0.54202 l -0.54201,0.54201 h -0.54202 l -0.47435,0.47436 -0.54202,-0.47436 -0.54202,-1.08396 v -0.47435 h -0.47435 l -1.08403,0.47435 -1.01623,-1.01622 v -0.54202 h -0.54202 l -1.01622,-0.47435 h -0.54202 l -0.54202,-0.54202 v -0.54202 l -0.47435,-0.47435 -1.55824,1.55824 h -0.54202 l -0.54202,-1.08396 h -1.55824 l -0.47436,0.54202 h -1.55824 l -0.54202,0.54201 -0.54201,-0.54201 -1.01623,-1.01623 -1.55831,1.55824 h -1.55825 l -0.54201,0.47436 -0.54202,-0.47436 h -1.0163 l -0.54202,0.47436 h -0.47435 l -0.54202,-0.47436 -0.54201,0.47436 -0.47436,0.54201 h -1.55824 v 0.54202 l -0.54202,0.47436 h -0.54201 l -1.01623,1.08396 h -2.10026 l -0.47436,-0.54202 h -4.74246 l -0.47435,-0.54202 v -0.47435 l -0.54202,-0.54202 h -0.54202 l -1.0163,-0.54201 -0.54201,-0.47436 h -1.0163 l -0.54202,0.47436 h -0.47435 l -1.08404,1.08403 h -2.03245 l -0.54202,-0.54202 v -0.54201 l -0.54201,-0.47436 h -0.47436 l -1.08403,-1.08396 h -2.10026 z"
       style="fill:#000000;fill-opacity:1;fill-rule:evenodd;stroke:#d38d5f;stroke-width:0.95225;stroke-linecap:butt;stroke-linejoin:miter;stroke-miterlimit:4;stroke-dasharray:none;stroke-opacity:1"
       id="Victoria" />
  </g>
</svg>
