<?xml version="1.0" encoding="UTF-8" standalone="no"?>
<!-- Created with Inkscape (http://www.inkscape.org/) -->

<svg
   width="210mm"
   height="297mm"
   viewBox="0 0 210 297"
   version="1.1"
   id="svg1283"
   inkscape:version="1.1.2 (b8e25be833, 2022-02-05)"
   sodipodi:docname="dibujo.svg"
   xmlns:inkscape="http://www.inkscape.org/namespaces/inkscape"
   xmlns:sodipodi="http://sodipodi.sourceforge.net/DTD/sodipodi-0.dtd"
   xmlns="http://www.w3.org/2000/svg"
   xmlns:svg="http://www.w3.org/2000/svg">
  <sodipodi:namedview
     id="namedview1285"
     pagecolor="#ffffff"
     bordercolor="#666666"
     borderopacity="1.0"
     inkscape:pageshadow="2"
     inkscape:pageopacity="0.0"
     inkscape:pagecheckerboard="0"
     inkscape:document-units="mm"
     showgrid="false"
     inkscape:zoom="0.74029882"
     inkscape:cx="361.34057"
     inkscape:cy="561.93525"
     inkscape:window-width="1920"
     inkscape:window-height="1017"
     inkscape:window-x="-8"
     inkscape:window-y="-8"
     inkscape:window-maximized="1"
     inkscape:current-layer="layer1" />
  <defs
     id="defs1280" />
  <g
     inkscape:label="Capa 1"
     inkscape:groupmode="layer"
     id="layer1">
    <path
       d="m 64.031345,59.101709 -0.95385,0.95385 v 1.78837 l -1.78837,1.90757 0.95385,0.83478 -0.95385,0.95384 v 0.95385 l 0.95385,0.83478 v 0.95385 l -0.95385,0.95385 v 1.78837 l -0.95385,0.95385 h -5.48444 l -1.7885,1.78837 h -0.95385 l -0.83478,-0.95385 h -2.74222 l -0.95385,-0.83477 h -1.78837 l -0.95385,-0.95385 h -0.95385 l -0.83477,0.95385 v 0.83477 l -1.9077,1.9077 -0.95385,0.83478 v 1.90757 l 0.95385,0.83478 v 0.95384 l -0.95385,0.95385 v 1.78838 l -1.78837,1.90757 h -0.95385 l -0.83478,-0.95385 -0.95385,0.95385 h -0.95385 v 0.83477 l -1.78837,1.90757 v -2.74222 h -0.95385 l -1.78837,1.78838 v 1.78837 h -1.7885 l -0.95385,0.95385 0.95385,0.95385 h 2.74222 v 0.83477 l 1.7885,1.90757 0.95385,-0.95384 v 5.48431 l -0.95385,0.95385 v 0.83478 l 0.95385,0.95385 v 2.742221 h -0.95385 l -0.95385,0.95385 0.95385,0.83477 v 2.86142 l -0.95385,0.83478 v 1.90757 l -0.83477,0.83478 v 0.95385 l -1.90757,1.78837 v 1.90757 l -0.83478,0.83478 0.83478,0.95385 v 4.53059 l 0.95384,0.95385 v 2.74222 h 1.78838 v 1.78837 h 1.90769 v 0.95385 h 0.83478 l 0.95385,0.95385 v 0.95385 h 0.95385 l -0.95385,0.83478 v 0.95384 l 0.95385,0.95385 v 1.78838 h 0.83478 v 3.69607 l -0.83478,0.83477 h -1.9077 l -0.83478,0.95385 0.83478,0.95385 v 0.83478 l -0.83478,0.95385 v 0.95385 l 0.83478,0.83477 v 0.95385 l -0.83478,0.95385 h -0.95384 l -0.95385,0.83478 v 1.90757 l -0.83478,0.83477 v 0.95385 h -0.95385 v 0.95385 l -0.95385,0.95385 v 0.83478 l -0.83477,0.95385 v 0.95385 h -1.90758 l -0.83477,0.83477 v 1.90757 h -0.95385 l -0.95385,0.83478 v 0.95385 h -0.83478 v 1.78837 h -2.74222 v 3.69595 l -0.95385,0.95384 h -0.95385 l -0.95385,0.83478 0.95385,0.95385 v 5.48432 l -1.7885,1.90769 v 0.83478 l -0.95384,0.95385 v 1.78837 l -0.95385,0.95385 v 0.95385 l -0.83478,0.83478 v 0.95385 h -3.69607 l -1.7883703,1.78837 v 0.95385 h -1.9077 l -0.83478,0.95385 v 2.74222 l 0.83478,0.83477 v 0.95385 l -0.83478,0.95385 1.78837,1.78837 v 0.95385 l -0.95384,0.83478 v 2.86142 l -0.83478,0.83478 v 1.90757 h -0.95385 v 0.83477 l -0.95385,0.95385 v 1.78825 l 0.95385,0.95385 h 1.78837 l 1.9077,1.78837 v 0.95385 l -1.9077,1.78837 0.95385,0.95385 -0.95385,0.95385 v 2.74209 l -1.78837,1.78838 0.95385,0.95385 v 0.83477 l -0.95385,0.95385 v 1.90757 l 0.95385,0.83478 v 0.95385 l -0.95385,0.95385 h -0.95385 v 1.78837 l 0.95385,0.95385 -0.95385,0.83478 v 0.95384 l -0.83478,0.95385 v 0.83478 l -0.95384,0.95385 v 2.74222 l -0.95384996,0.95385 v 0.83478 H 4.5339647 l 0.95385,-0.83478 h 1.78837 v 0.83478 l 0.95385,0.95384 1.7883703,0.95385 0.95385,-0.95385 h 7.27294 l 1.90757,-0.95384 h 0.83478 l 3.69607,-0.83478 h 2.74209 l 0.95385,-0.95385 h 5.48457 l 0.83478,-0.95385 h 0.95385 l 2.74222,-0.83478 h 1.78837 l 0.95385,-0.95384 h 1.9077 l 1.78837,-0.95385 1.78837,1.90757 h 3.69607 l 0.95385,-0.95385 h 0.83478 l 0.95385,-0.95385 h 3.69607 l 1.7885,-0.83478 h 0.95385 l 2.74222,-0.95385 0.83477,-1.78837 v -0.95385 l 1.9077,-0.95385 0.95385,-0.83477 h 13.71123 l 1.78838,0.83477 0.95384,0.95385 h 0.83478 l 1.90757,1.78838 h 2.74222 v -0.83478 l 0.95385,-0.95385 0.83478,-1.78837 1.90757,-1.90757 v -0.83478 l 0.83478,-0.95385 0.95385,-1.9077 0.95385,-0.83477 h 3.57687 l 0.95385,0.83477 1.788365,0.95385 h 3.69607 v 0.95385 h 0.95385 l 0.83477,0.95385 0.95385,-0.95385 h 0.95385 l 0.83478,-1.9077 v -0.83477 l 0.95385,0.83477 h 5.48444 l 1.9077,0.95385 0.83477,-0.95385 h 0.95385 l 1.7885,-0.83477 h 1.90757 l 3.57687,-3.69595 h 6.4383 l 2.74222,-2.74222 h 0.95385 l 3.69607,-3.69594 h 2.74222 l 1.78837,-0.83478 h 0.95385 l 0.83478,-0.95385 h 2.74234 l 1.90758,-1.78837 v -0.95385 l 0.83477,-0.95385 v -1.78837 h 0.95385 l 1.7885,-0.95385 v -0.83478 h 2.86142 v -0.95385 l 0.83478,-0.95384 h 0.95385 v -1.78838 l 1.78837,-1.9077 v -0.83477 h 0.95385 v -0.95385 l 0.95385,-0.95385 h 0.83477 v -0.83478 l 0.95385,-0.95385 v -0.95384 l 0.95385,-0.83478 v -2.74222 l 0.83478,-0.95385 v -1.78837 l 0.95385,-0.95385 v -2.74222 l 0.95385,-0.95385 h 0.83477 v -0.83478 l 0.95385,-0.95385 h 0.95385 l 2.74222,-2.74222 h 0.83478 l 0.95385,-0.95385 0.95385,-1.78837 h 0.83477 v -0.95385 l 1.9077,-1.78837 v -0.95385 h 1.78837 l 1.9077,-0.95385 v -0.83478 l 0.83478,-0.95385 v -1.78837 h 0.95385 l 0.95385,-0.95385 v -2.74691 h -3.69607 l -0.95385,-0.95384 v -1.78838 l 0.95385,-1.78837 0.95384,-0.95385 14.54576,-8.22653 0.95385,-0.95385 2.74222,-1.78838 7.39214,-12.87633 -22.89174,-8.22641 -0.95385,0.95385 -0.95385,0.83478 h -0.83478 l -0.95385,0.95385 v 0.95385 l -0.95385,0.83477 v 1.9077 l -0.83477,0.83478 v 1.90757 l -1.9077,1.78837 -0.95385,-0.83477 h -0.83478 l -0.95385,-0.95385 v -2.7421 l -0.95385,-0.95385 h -0.83477 l -0.95385,-0.95385 v -1.78837 h -0.95385 v -0.95385 l -0.83478,-0.83477 h -0.95385 l -1.78849,1.78824 v 0.95385 h -0.95385 l -0.95385,0.83478 h -0.83478 l -0.95385,0.95385 h -0.95385 l -0.83477,0.95385 h -0.95385 l -0.95385,0.83477 h -0.83478 l -0.95385,-0.83477 h -1.7885 l -0.95385,-0.95385 h -1.90757 l -0.83477,-0.95385 h -0.95385 l -0.95385,-0.83478 h -2.74222 l -0.83478,-0.95385 v -0.95385 h -0.95385 v -0.83477 l -1.78837,-1.9077 h -0.95385 v -0.83478 l -1.78837,-1.90757 h -0.95385 v -0.83478 -0.95385 -1.78824 l 0.95385,-0.95385 v -0.95385 l -1.9077,-1.78837 h -0.83478 l -0.95385,-0.95385 h -0.95384 l -0.83478,-0.83478 v -1.9077 l -0.95385,-0.95384 v -5.484321 l 0.95385,-0.83478 v -4.64979 l -0.95385,-0.83478 v -0.95385 l -0.95385,-0.95384 h -0.83478 v -0.83478 l -0.95384,-0.95385 v -1.78837 l 1.78837,-1.90757 v -0.83478 l -0.83478,-0.95385 0.83478,-0.95385 -0.83478,-0.95385 h -0.95385 l -0.95385,-0.83477 v -0.95385 h -4.53072 l -0.95385,-0.95385 h -1.78849 l -0.95385,-0.83478 h -1.7885 l -0.95385,-0.95385 v -0.95385 h -1.78837 v -0.83477 l -0.95385,-0.95385 v -1.78837 h -0.95385 l -0.83478,-0.95385 v -2.74222 l -0.95385,-0.95385 h -0.95385 l -0.83477,-0.83478 v -0.95385 l -0.95385,-0.95385 h -0.95385 l -0.83478,-0.83477 v -0.95385 l -1.9077,-1.78838 -0.95385,0.83478 h -1.78837 l -0.95385,-0.83478 h -0.83477 l -0.95385,-0.95384 v -0.95385 h -4.530595 l -0.95384,0.95385 h -6.4383 l -0.83477,-0.95385 h -5.60364 v 0.95385 h -6.3191 l -0.95385,-0.95385 h -10.01516 l -0.95385,0.95385 h -1.7885 l -0.95385,-0.95385 z"
       style="fill:#000000;fill-opacity:1;fill-rule:evenodd;stroke:#d38d5f;stroke-width:1.67579;stroke-linecap:butt;stroke-linejoin:miter;stroke-miterlimit:4;stroke-dasharray:none;stroke-opacity:1"
       id="Temuco" />
  </g>
</svg>
