<?xml version="1.0" encoding="UTF-8" standalone="no"?>
<!-- Created with Inkscape (http://www.inkscape.org/) -->

<svg
   width="210mm"
   height="297mm"
   viewBox="0 0 210 297"
   version="1.1"
   id="svg1283"
   inkscape:version="1.1.2 (b8e25be833, 2022-02-05)"
   sodipodi:docname="vector.svg"
   xmlns:inkscape="http://www.inkscape.org/namespaces/inkscape"
   xmlns:sodipodi="http://sodipodi.sourceforge.net/DTD/sodipodi-0.dtd"
   xmlns="http://www.w3.org/2000/svg"
   xmlns:svg="http://www.w3.org/2000/svg">
  <sodipodi:namedview
     id="namedview1285"
     pagecolor="#ffffff"
     bordercolor="#666666"
     borderopacity="1.0"
     inkscape:pageshadow="2"
     inkscape:pageopacity="0.0"
     inkscape:pagecheckerboard="0"
     inkscape:document-units="mm"
     showgrid="false"
     inkscape:zoom="0.74029882"
     inkscape:cx="361.34057"
     inkscape:cy="561.93525"
     inkscape:window-width="1920"
     inkscape:window-height="1017"
     inkscape:window-x="-8"
     inkscape:window-y="-8"
     inkscape:window-maximized="1"
     inkscape:current-layer="layer1" />
  <defs
     id="defs1280" />
  <g
     inkscape:label="Capa 1"
     inkscape:groupmode="layer"
     id="layer1">
    <path
       d="m 99.216767,26.26002 -0.72644,0.63576 h -4.90334 v 0.72644 l -0.72645,0.72645 -0.63575,0.63575 h -0.72645 l -0.72644,0.72645 v 0.72644 l -0.63576,0.63576 h -3.54133 l -0.63576,0.72644 -0.72644,-0.72644 h -1.36211 l -0.72644,1.45279 h -4.90334 l -0.72645,0.63575 -2.08845,0.72645 h -1.3621 l -0.72644,1.362 h -0.63576 l -0.72644,0.72645 -0.72645,1.45279 v 1.362 l 0.72645,1.36201 v 1.45279 l -0.72645,1.36201 v 1.362 l 0.72645,0.72645 v 5.53881 l 0.72644,0.72644 v 4.17681 l -0.72644,0.72644 v 2.08845 l -0.72645,2.08835 0.72645,0.72644 v 2.08845 l 0.72644,1.36201 1.36201,1.36201 v 1.45279 l 0.72644,2.08845 v 1.36191 h -0.72644 l -0.72645,0.72644 h -0.63575 l -0.72645,0.72645 -1.362,0.63575 h -1.45289 l -0.63576,0.72645 h -1.45288 l -0.63576,0.72644 h -0.72644 l -2.08845,2.08845 v 1.36201 l -0.72645,0.72644 -1.362,1.36201 h -0.72645 l -0.72644,0.72644 v 0.63576 l -0.63576,0.72644 -0.72644,0.72644 v 0.63576 l -3.45055,3.54124 h -0.72645 l -0.72644,0.63576 v 1.45288 l 1.45279,1.36201 -0.72644,0.72644 v 0.72644 l 0.72644,1.36201 v 9.08005 l -0.72644,0.63576 v 0.72644 l -0.72645,0.72645 h -0.63575 l -0.72645,0.63575 h -9.08034 l -0.72644,0.72645 h -2.08845 v 1.45288 l -1.36201,1.36191 v 0.72645 l -0.72644,0.63575 h -0.63576 l -0.72644,0.72645 v 0.72644 l -2.08845,2.08835 h -0.72644 l -2.08845,2.08845 v 0.63576 l -0.63576,0.72644 v 0.72645 l -0.72644,0.63575 v 0.72645 l -1.36211,1.362 -0.72644,0.72645 -1.3621,1.362 v 0.72645 l -0.72645,1.45279 v 0.63575 l -1.45278,1.45279 v 0.63576 l -0.63576,0.72644 v 4.90315 l 0.63576,0.63576 -0.63576,0.72644 v 2.8148 l -0.72645,0.63576 v 0.72644 l 0.72645,0.72644 v 2.08845 l -0.72645,0.72645 v 0.63575 l 0.72645,0.72645 v 9.08005 l -0.72645,1.362 v 2.08845 l -0.72644,0.72645 v 2.08845 l -0.63576,0.72644 v 1.36191 l -1.45278,1.36201 v 1.45288 l -0.63576,1.36201 -1.45289,1.36201 v 2.08835 h -0.63576 v 2.8148 l -1.45288,1.36201 h -0.63576 v 2.08845 h -0.72644 l -1.36201,1.45279 v 1.362 l -0.72644,0.72645 -0.72644,0.72644 v 0.63576 l -1.36201,1.45279 v 0.63575 l 0.72644,0.72645 v 0.72644 l -0.72644,0.63576 0.72644,0.72644 v 1.36201 0.72644 l -0.72644,0.72644 h -0.72644 l -0.6357604,0.63576 v 0.72644 l -2.17933,2.08845 h -0.63576 l -1.45288,1.36191 h -0.63576 l -0.72644,0.72645 h -0.72645 l -0.63575,0.72644 v 0.72644 l -1.45279,1.36201 v 0.72644 l -0.63575999,0.63576 0.63575999,0.72644 h 2.81489 v 0.72644 l 0.72644,-0.72644 h 7.6274604 v -0.72644 l 0.72644,-0.63576 h 0.72644 l 0.63576,0.63576 h 3.54134 v -0.63576 l -0.72645,-0.72644 v -0.72644 h 1.36201 v -2.08845 h 2.08855 l 0.72644,0.72644 v 4.1768 l 2.08845,2.08836 h 0.72644 l 0.63576,0.72644 h 2.17923 l 1.36211,1.36201 h 0.72644 l 1.3621,1.362 v 0.72645 l 2.08845,2.08835 v 0.72644 h 0.72645 l 1.362,0.63576 h 1.36201 l 1.45289,1.45279 h 0.63575 v 0.63576 l 2.8149,2.81479 v 0.72645 l 0.72644,0.72644 v 0.63576 l 2.08845,2.08835 v 0.72644 l 0.72644,0.72645 v 6.90082 l 0.63576,1.45288 v 2.08835 l 0.72644,0.72645 v 2.72401 l 0.72645,0.72644 0.63575,0.72645 h 0.72645 l 0.72644,0.63576 h 2.72411 l 1.45279,0.72644 h 1.3621 l 0.72645,0.72644 v 0.63576 l 0.63575,1.45279 v 0.63576 h 0.72645 l 1.362,1.45278 v 0.63576 l 0.72645,0.72644 v 2.8148 l 0.72644,0.63576 0.63576,0.72644 0.72644,0.72644 h 0.72644 v 0.72645 l 0.72644,0.63575 -0.72644,1.45279 v 1.36201 l 0.72644,0.72644 h 0.63576 l 0.72645,0.63576 h 0.72644 l 0.63576,0.72644 0.72644,0.72645 v 0.63575 l 0.72644,0.72645 v 2.08845 l -0.72644,0.72644 v 0.63576 l -0.72644,0.72644 v 0.72644 l 1.45288,1.36201 h 1.36201 l 0.72644,0.72644 h 1.36201 l 1.3621,1.36201 0.72645,0.72644 v 0.72645 l 1.3621,1.362 v 1.36201 l 0.72644,0.72644 h 0.72644 l 1.36201,0.72645 v 0.63575 h 0.72644 l 0.63576,0.72645 v 0.72644 l 0.72645,0.63576 h 1.45278 l 0.63576,-0.63576 h 0.72644 l 0.72645,-0.72644 h 3.45055 l 1.36201,-1.36201 h 1.45288 l 0.63576,0.63576 h 0.72644 l 2.08846,-2.08836 h 0.72644 l 0.63576,-0.63575 h 0.72644 v -0.72645 l 0.72644,-0.72644 0.63576,-0.63576 h 0.72644 l 2.08845,-2.17923 h 1.45289 l 0.63575,-0.63576 h 0.726453 l 2.08845,-2.08835 h 2.08854 l 0.72645,0.63576 h 0.63575 l 0.72645,0.72644 1.362,-0.72644 h 2.8149 l 0.72644,0.72644 h 2.81489 l 0.63576,-0.72644 h 0.72644 l 0.72645,0.72644 h 0.63575 l 0.72645,0.72644 v 0.63576 l 2.08845,2.17923 h 0.72644 l 0.63576,0.63576 h 0.72644 l 0.72644,-0.63576 h 2.08845 l 0.63576,-0.72644 h 1.45279 l 0.63576,0.72644 h 3.54124 l 0.72644,-0.72644 h 0.63576 l 0.72644,-0.72644 h 5.53891 l 1.45288,0.72644 h 4.1769 l 0.63576,-0.72644 h 0.72644 l 0.72645,-0.72645 h 1.362 l 2.08845,-2.08845 v -2.72401 l 0.72645,-0.72644 h 1.3621 l 0.72644,0.72644 h 0.72645 l 0.63575,-0.72644 h 1.45279 l 1.36201,-1.36201 h 2.81489 l 0.63576,-0.72644 h 2.08845 v -0.72645 l 0.72644,-0.63575 v -4.17681 h 3.54134 l 0.63576,-0.72644 h 2.08845 l 0.72644,0.72644 h 2.08845 l 1.3621,-1.45279 h 0.72645 l 0.72644,0.72645 h 0.63576 l 0.72644,0.72644 h 0.72644 l 0.63576,0.63576 h 6.99179 l 0.72645,0.72644 h 1.362 l 1.45279,-0.72644 h 3.45056 l 0.72644,-1.36201 2.08845,-1.36201 v -3.54114 -1.36211 l -0.72644,-1.45278 v -1.36201 l -0.72645,-1.36201 -0.63575,-0.72644 -0.72645,-2.08845 0.72645,-2.08836 v -2.08845 l 0.63575,-1.362 v -2.17924 l 0.72645,-1.362 v -1.36201 l 1.36201,-0.72644 v -1.36191 l -0.63576,-2.08845 0.63576,-1.45279 0.72644,-0.63576 2.81489,-1.45279 2.08845,-0.63576 1.36201,-0.72644 h 0.72644 l -1.36201,-7.71804 v -2.72402 l 0.63576,-0.72644 v -1.36201 l -0.63576,-0.72644 v -3.45046 l -0.72644,-0.72644 v -2.8148 l 0.72644,-0.63576 v -0.72644 l 1.36201,-1.45288 v -4.81237 l -0.72644,-0.72645 -0.63576,-0.72644 v -0.63576 l -0.72644,-0.72644 v -1.36201 l -0.72644,-0.72644 v -1.36201 l 1.45288,-1.45279 v -2.08845 h -0.72644 l -0.72644,-0.63575 h -0.72645 l -0.63576,-0.72645 -0.72644,-1.45278 0.72644,-0.63576 v -0.72645 l 0.63576,-0.72644 h 0.72645 l 1.45288,-1.36201 h 3.45046 l 0.72644,-0.72644 h 0.63576 l 0.72644,-0.63576 v -0.72644 l 0.72644,-0.72644 v -1.36201 l 0.63576,-1.36201 v -0.72644 l 0.72644,-0.72644 v -2.72402 l -0.72644,-0.72644 v -2.08835 l -0.63576,-0.72645 v -0.72644 l -1.45278,-1.36201 h -1.36211 l -1.36201,-1.362 v -1.45279 l -0.72644,-0.63576 v -0.72644 l -0.72644,-0.72645 h -0.63576 v -3.45045 l -0.72644,-0.72645 v -0.63575 l -0.72644,-0.72645 h -2.08846 l -0.72644,-0.72644 h -1.36201 l -2.08845,-2.08835 h -0.72644 l -1.36201,-1.36201 H 191.201 l -0.63576,-0.72644 v -0.72645 l -0.72644,-1.362 v -2.08836 l -0.72644,-0.72644 v -0.63576 l -0.63576,-0.72644 h -9.08024 l -1.45279,-0.72644 h -0.63576 l -0.72644,-0.63576 v -0.72644 l -0.72644,-0.72645 h -0.63576 l -0.72645,-0.63575 -0.72644,-0.72645 h -0.63576 l -0.72644,-0.72644 h -0.72644 l -1.36201,-1.36191 h -0.72644 l -0.63576,-1.3621 v -2.8148 l 0.63576,-1.45279 -0.63576,-0.63576 v -0.72644 l -0.72644,-0.72644 h -1.36201 l -2.17933,2.08845 h -0.63576 l -0.72644,0.72644 h -0.72644 l -0.63576,-0.72644 h -0.72644 l -0.72644,-0.63576 h -2.08826 l -1.3621,-1.45289 H 155.696 v -0.63575 l -2.08845,-2.08836 0.63576,-0.72644 h 0.72644 l 1.36201,-1.36201 v -0.72644 h 2.81489 l 0.72644,-0.72644 v -0.63576 l 0.63576,-0.72644 v -0.72645 l 0.72644,-0.63575 v -1.45289 l 0.72644,-0.63576 v -5.62959 l -0.72644,-0.72644 h -2.08845 l -0.72644,0.72644 h -1.36211 l -1.362,-0.72644 h -0.72645 l -0.72644,0.72644 v 0.72644 l -1.3621,1.36201 h -0.72644 l -0.63576,0.72644 h -1.45289 l -0.63576,-0.72644 v -0.72644 l -0.72644,-0.63576 v -0.72644 l -1.45279,-1.36201 v -0.72644 l -0.63576,-0.72645 -1.45288,-1.3621 v -1.36201 l -0.63576,-1.45279 h -0.72644 l -0.72644,0.72645 h -0.63576 l -0.72644,-0.72645 v -0.63575 l -0.72645,-0.72645 v -2.08835 l 0.72645,-0.72644 v -2.72402 l 1.362,-1.45279 h 0.72645 l 1.362,-1.362 v -0.72645 l 1.45289,-1.362 h 0.63576 l 0.72644,-0.72645 v -1.362 l 0.72644,-0.72645 h 0.72644 l 1.36201,-0.72644 v -0.63576 l 0.72644,-0.72644 v -0.72644 l 0.63576,-0.63576 v -0.72644 l 1.45279,-1.36201 h 0.63576 l 0.72644,-0.72644 V 74.3868 l 0.72644,-1.45279 v -2.8148 l -0.72644,-0.63575 h -1.3621 l -0.72644,-0.72645 h -0.72645 l -0.63576,-0.72644 v -2.08835 l -0.72644,-1.36201 v -4.1769 l -0.72644,-0.72644 v -0.63576 l -0.63576,-0.72644 h -6.99179 l -2.08845,-2.08845 V 54.8643 l -2.81489,-2.81489 h -0.72645 l -1.362,-1.45279 v -1.362 l -0.72645,-0.72645 v -0.63576 l -0.63576,-0.72644 -0.72644,-0.72644 h -0.72644 l -0.63576,-0.63576 h -2.17923 l -0.63576,-0.72644 v -0.72644 h -1.45279 l -0.63575,-0.63576 h -0.72645 l -0.72644,-0.72644 v -0.72645 l -1.3621,-1.362 v -0.72645 l -0.72645,-0.63575 h -0.63575 l -2.08845,-2.08846 h -0.72645 l -0.72644,-0.72644 h -0.63576 l -1.45288,-1.45279 V 34.6146 l -0.63576,-0.72645 -0.72644,-0.72644 v -0.63576 l -0.72645,-0.72644 v -0.72644 l -0.63575,-1.36201 v -0.72644 l -0.72645,-0.63576 v -0.72644 l -1.45288,0.72644 -1.36201,0.63576 h -4.90334 v -0.63576 h -4.81256 z"
       style="fill:#000000;fill-opacity:1;fill-rule:evenodd;stroke:#d38d5f;stroke-width:1.27626;stroke-linecap:butt;stroke-linejoin:miter;stroke-miterlimit:4;stroke-dasharray:none;stroke-opacity:1"
       id="Melipeuco" />
  </g>
</svg>
