<?xml version="1.0" encoding="UTF-8" standalone="no"?>
<!-- Created with Inkscape (http://www.inkscape.org/) -->

<svg
   width="210mm"
   height="297mm"
   viewBox="0 0 210 297"
   version="1.1"
   id="svg64"
   inkscape:version="1.1.2 (b8e25be833, 2022-02-05)"
   sodipodi:docname="vector.svg"
   xmlns:inkscape="http://www.inkscape.org/namespaces/inkscape"
   xmlns:sodipodi="http://sodipodi.sourceforge.net/DTD/sodipodi-0.dtd"
   xmlns="http://www.w3.org/2000/svg"
   xmlns:svg="http://www.w3.org/2000/svg">
  <sodipodi:namedview
     id="namedview66"
     pagecolor="#ffffff"
     bordercolor="#666666"
     borderopacity="1.0"
     inkscape:pageshadow="2"
     inkscape:pageopacity="0.0"
     inkscape:pagecheckerboard="0"
     inkscape:document-units="mm"
     showgrid="false"
     inkscape:zoom="0.74029882"
     inkscape:cx="361.34057"
     inkscape:cy="561.93525"
     inkscape:window-width="1920"
     inkscape:window-height="1017"
     inkscape:window-x="-8"
     inkscape:window-y="-8"
     inkscape:window-maximized="1"
     inkscape:current-layer="layer1" />
  <defs
     id="defs61" />
  <g
     inkscape:label="Capa 1"
     inkscape:groupmode="layer"
     id="layer1">
    <path
       style="fill:#000000;fill-opacity:1;fill-rule:evenodd;stroke:#d39062;stroke-width:0.505192;stroke-linecap:butt;stroke-linejoin:miter;stroke-miterlimit:4;stroke-dasharray:none;stroke-opacity:1"
       d="m 171.96999,208.78966 c 0.0353,-0.11486 -0.0509,-0.18287 0.0302,-0.31587 0.21511,-0.3456 0.57376,-0.72475 0.9788,-1.1051 0.81009,-0.76072 1.78305,-1.49146 2.08391,-1.64184 0.59417,-0.29724 0.88274,-0.66823 0.94722,-1.10511 0.0645,-0.43678 -0.10176,-0.92097 -0.34711,-1.38929 -0.49119,-0.93669 -1.35538,-1.829 -1.76819,-2.2418 -0.42418,-0.42419 -0.75023,-0.81618 -0.94721,-1.19982 -0.19698,-0.38338 -0.28817,-0.75376 -0.31588,-1.16828 -0.0549,-0.82908 0.16575,-1.80763 0.44182,-3.18902 0.12545,-0.62802 0.0751,-1.06973 -0.063,-1.42082 -0.13854,-0.35114 -0.33603,-0.60495 -0.53679,-0.85256 -0.2005,-0.24736 -0.38086,-0.50379 -0.44182,-0.82092 -0.0609,-0.31739 -0.0302,-0.70248 0.2524,-1.26299 0.45139,-0.90264 0.94379,-1.06672 1.32617,-1.42083 0.19093,-0.17683 0.35869,-0.40505 0.47356,-0.78938 0.11536,-0.38439 0.18942,-0.91543 0.18942,-1.73661 0,-0.57472 0.0736,-0.92303 0.2524,-1.1051 0.17884,-0.18187 0.47154,-0.20252 0.8525,-0.15769 0.76163,0.0892 1.9553,0.47356 3.66268,0.47356 0.30127,0 0.55276,-0.24635 0.7578,-0.59991 0.20504,-0.35365 0.35063,-0.83719 0.47356,-1.3577 0.24534,-1.04107 0.34711,-2.22064 0.34711,-2.81017 0,-0.69185 0.33602,-1.47247 0.75779,-2.2418 0.42167,-0.76928 0.93709,-1.52687 1.23141,-2.11545 0.56298,-1.12596 1.16525,-1.91197 1.32611,-2.71541 0.0806,-0.40151 0.0453,-0.8059 -0.15768,-1.26299 -0.20101,-0.45693 -0.56505,-0.97553 -1.16823,-1.57871 -0.94989,-0.94989 -1.61126,-1.54421 -1.89449,-2.14709 -0.14157,-0.30126 -0.20454,-0.59371 -0.15769,-0.94722 0.0453,-0.35366 0.19295,-0.7649 0.44182,-1.26299 0.89705,-1.79413 1.7825,-2.71249 2.39964,-3.94681 0.72817,-1.45625 1.52199,-3.02514 1.95766,-4.76774 0.32797,-1.31251 0.69266,-1.82577 0.69462,-2.30497 0.002,-0.4791 -0.35567,-0.92404 -1.484,-2.05232 -0.43175,-0.43175 -0.59069,-0.82017 -0.56832,-1.19982 0.0202,-0.37986 0.24685,-0.75629 0.53673,-1.10511 0.57931,-0.69774 1.49353,-1.34939 2.02079,-2.05237 0.20353,-0.27154 -2.8207,-4.85202 -3.15748,-5.52553 -0.24232,-0.48414 -0.15869,-0.91669 0.12645,-1.32612 0.28514,-0.40957 0.7717,-0.80847 1.29458,-1.19986 0.52288,-0.39145 1.07548,-0.80143 1.54713,-1.23141 0.47154,-0.42973 0.84752,-0.86399 0.9788,-1.38924 0.53215,-2.12855 1.19987,-4.24148 1.19987,-5.55712 0,-0.13602 4.82194,-3.65376 5.14663,-3.9784 0.45643,-0.45643 0.8648,-1.35856 1.19982,-2.24179 0.33502,-0.88324 0.6053,-1.74729 0.78938,-2.1155 0.55845,-1.11685 1.83459,-3.03441 2.747,-3.94682 0.32443,-0.32443 0.32544,-0.6788 0.12645,-1.04193 -0.199,-0.36323 -0.58268,-0.7382 -1.0104,-1.13669 -0.42771,-0.3985 -0.90167,-0.80112 -1.26299,-1.2314 -0.36121,-0.43024 -0.59991,-0.89911 -0.59991,-1.35771 0,-0.55542 -0.1073,-1.09987 -0.28413,-1.6103 -0.17683,-0.51049 -0.43779,-0.96541 -0.7578,-1.38929 -0.3199,-0.42369 -0.70797,-0.80939 -1.13664,-1.10511 -0.42872,-0.29572 -0.88571,-0.5056 -1.38929,-0.63149 -0.56067,-0.14006 -0.87876,-0.45946 -1.04198,-0.85251 -0.16323,-0.39295 -0.16877,-0.84999 -0.0947,-1.32612 0.14761,-0.95225 0.59205,-1.91031 0.72621,-2.17867 0.53124,-1.06254 0.67674,-1.96341 1.10511,-2.58911 0.21411,-0.31285 0.49774,-0.55794 0.94727,-0.72621 0.44937,-0.16826 1.06772,-0.2524 1.92602,-0.2524 0.51276,0 1.01594,-0.11284 1.51559,-0.31587 0.49976,-0.20252 0.98858,-0.4922 1.42083,-0.85251 0.43225,-0.3602 0.82596,-0.79034 1.13669,-1.26299 0.31084,-0.47255 0.52802,-1.00702 0.66309,-1.547133 0.11133,-0.44585 -0.0252,-0.74434 -0.34761,-0.9788 -0.32243,-0.23426 -0.82919,-0.39699 -1.38925,-0.5052 -1.12021,-0.21663 -2.51792,-0.25038 -3.41007,-0.47356 -0.29119,-0.0725 -0.3053,-0.32595 -0.15769,-0.66303 0.14761,-0.33704 0.47154,-0.76918 0.88404,-1.16828 0.41261,-0.399 0.91639,-0.78344 1.42088,-1.04193 0.50449,-0.25845 0.99805,-0.40051 1.42083,-0.31588 1.34567,0.26902 2.18422,0.86238 3.06277,1.38929 0.4393,0.26348 0.89825,0.51387 1.42083,0.69462 0.52258,0.18086 1.12364,0.31588 1.8629,0.31588 0.55729,0 1.13473,-0.58888 1.83131,-1.23141 0.34812,-0.32141 0.72017,-0.66827 1.1367,-0.94727 0.41663,-0.27909 0.88228,-0.49874 1.38929,-0.5999 0.31839,-0.064 -0.92833,-0.7052 -1.76819,-1.54713 -0.42016,-0.42117 -0.7387,-0.87231 -0.72621,-1.35771 0.005,-0.24282 0.11134,-0.51522 0.31587,-0.75779 0.20454,-0.24232 0.51573,-0.46298 0.97881,-0.69462 0.61563,-0.30782 1.02052,-0.58656 1.23141,-0.85251 0.21108,-0.266 0.23174,-0.52953 0.0947,-0.75779 -0.27406,-0.45643 -1.20183,-0.83725 -2.52599,-1.16828 -1.01603,-0.25391 -1.72375,-0.70959 -2.27338,-1.263 -0.54958,-0.55341 -0.91221,-1.19291 -1.26294,-1.89443 -0.45593,-0.91226 -1.11614,-1.41182 -1.67348,-1.67348 -0.55734,-0.26147 -1.01755,-0.29371 -1.10511,-0.31588 -0.35869,-0.0897 -0.65955,-0.0902 -0.88409,0 -0.22469,0.0902 -0.37532,0.27054 -0.5052,0.47356 -0.25995,0.40605 -0.3864,0.9649 -0.50515,1.42088 -0.11889,0.45593 -0.24181,0.81876 -0.53678,0.78933 -0.29471,-0.0302 -0.75951,-0.46549 -1.54718,-1.51559 -1.24929,-1.66577 -2.08346,-2.87284 -3.15743,-3.94681 -0.81341,-0.81341 -1.25604,-1.33987 -1.51559,-1.79973 -0.25945,-0.45995 -0.34459,-0.84137 -0.47356,-1.3577 -0.071,-0.28413 -0.0403,-0.51774 0.063,-0.69462 0.10226,-0.17683 0.26448,-0.31084 0.47356,-0.41059 0.41814,-0.2 1.00162,-0.27607 1.45241,-0.3471 0.45089,-0.0715 0.77049,-0.133 0.72621,-0.31588 -0.0453,-0.18237 -0.44887,-0.47708 -1.51559,-1.01039 -1.06032,-0.53014 -1.67378,-0.62958 -2.11545,-0.94722 -0.44182,-0.31789 -0.73145,-0.87337 -1.07357,-2.2418 -0.19295,-0.77145 -0.63915,-1.40667 -1.16823,-1.9892 -0.52913,-0.58248 -1.11498,-1.08334 -1.57871,-1.54713 -0.81538,-0.81538 -1.54446,-1.17085 -2.33657,-1.38929 -0.79205,-0.21864 -1.67549,-0.30832 -2.8417,-0.59991 -0.60989,-0.15264 -0.92203,-0.44786 -1.07352,-0.82092 -0.15164,-0.3733 -0.13451,-0.83104 -0.0302,-1.32616 0.20605,-0.9902 0.72626,-2.1155 0.72626,-2.99955 0,-1.10138 -0.30076,-1.74542 -0.34761,-2.43127 -0.0252,-0.34308 0.0252,-0.70359 0.18942,-1.13664 0.16625,-0.43326 0.45794,-0.92616 0.94722,-1.57877 0.56127,-0.74832 0.82173,-1.8502 0.91568,-2.90483 0.0937,-1.05463 0.0202,-2.07308 -0.12645,-2.65228 -0.27507,-1.10078 -0.77346,-1.71373 -1.19987,-2.43123 -0.0403,-0.0645 -0.0579,-0.15466 -0.0947,-0.22116 -0.60268,-0.0101 -1.36924,-0.12645 -2.65223,-0.12645 -1.00803,0 -1.6499,0.064 -2.05238,0.18943 -0.40252,0.12544 -0.566,0.30579 -0.66303,0.50519 -0.0972,0.1995 -0.12947,0.44132 -0.22116,0.66309 -0.0917,0.22166 -0.24484,0.43829 -0.6315,0.63149 -0.71109,0.35567 -1.52461,0.46349 -2.33651,0.47356 -0.8119,0.0101 -1.63624,-0.0947 -2.43127,-0.0947 -1.30979,0 -2.91491,-0.0841 -4.23095,-0.37885 -0.65804,-0.1471 -1.23171,-0.33905 -1.67348,-0.59991 -0.44182,-0.26096 -0.74071,-0.57769 -0.82092,-0.9788 -0.0403,-0.19094 0.13804,-0.59966 0.0302,-1.10511 -0.0534,-0.2529 -0.19446,-0.53824 -0.44182,-0.82097 -0.24786,-0.28262 -0.60792,-0.5723 -1.16823,-0.85251 -1.60088,-0.80041 -2.37318,-1.38621 -2.84171,-1.67342 -0.46852,-0.28716 -0.65033,-0.27003 -1.13669,0.0947 -1.19387,0.89538 -1.90028,2.31077 -3.15748,3.56791 -0.57482,0.57482 -1.13065,0.82712 -1.79973,1.0104 -0.66907,0.18338 -1.45115,0.29169 -2.55752,0.56832 -1.07482,0.26852 -1.4442,0.77185 -1.95761,1.19987 -0.25693,0.21411 -0.54872,0.39295 -0.97886,0.53673 -0.43023,0.14358 -1.01865,0.22116 -1.83131,0.22116 -0.66021,0 -1.29735,0 -1.95761,0 -1.44864,0 -2.98902,-0.50721 -4.231,-0.72621 -0.62097,-0.10932 -1.17549,-0.15617 -1.6103,0 -0.43477,0.15618 -0.75664,0.50077 -0.91564,1.1367 -0.18136,0.7255 -0.27305,1.16183 -0.37884,1.42088 -0.1058,0.25894 -0.23174,0.34308 -0.44182,0.37884 -0.42016,0.0715 -1.20869,-0.0705 -3.1259,0.56833 -1.70894,0.56963 -4.54652,2.03967 -6.34649,2.39963 -0.38339,0.0766 -0.64324,0.0353 -0.85251,-0.063 -0.20907,-0.0967 -0.37633,-0.27457 -0.56832,-0.44182 -0.19245,-0.16776 -0.39346,-0.33804 -0.72621,-0.47356 -0.3325,-0.13552 -0.79069,-0.22117 -1.42088,-0.22117 -0.78485,0 -1.42168,-0.18841 -1.92602,-0.50519 -0.5044,-0.31638 -0.86888,-0.76022 -1.1367,-1.23141 -0.26801,-0.47104 -0.42973,-0.98878 -0.50519,-1.45241 -0.0751,-0.46349 -0.0736,-0.87427 0,-1.16828 0.10126,-0.40505 0.44786,-0.84384 0.69462,-1.26294 0.24635,-0.41915 0.38993,-0.80984 0.0947,-1.10511 -0.332,-0.332 -1.21241,-0.90873 -2.02079,-1.45247 -0.80837,-0.54368 -1.54713,-1.05986 -1.54713,-1.32611 0,-0.70183 -0.33451,-1.49867 -0.8525,-2.1155 -0.25895,-0.30832 -0.55835,-0.57034 -0.8841,-0.7578 -0.32595,-0.18741 -0.65945,-0.31587 -1.01039,-0.31587 -0.8319,0 -2.09913,-0.0453 -3.15748,-0.0302 -1.05831,0.0151 -1.93605,0.10328 -2.02074,0.44182 -0.19295,0.77074 -0.38137,1.21287 -0.6315,1.45242 -0.25038,0.2398 -0.55487,0.28615 -0.91568,0.18942 -0.72162,-0.19345 -1.70718,-0.86092 -3.18902,-1.2314 -3.18806,-0.79699 -4.08983,-0.89166 -4.23099,-0.97881 -0.0705,-0.0453 0.0509,-0.0816 0.15768,-0.22116 0.10731,-0.13955 0.199,-0.3718 0.0947,-0.78938 -0.13703,-0.54742 -0.34308,-1.71535 -0.663033,-2.81012 -0.1597,-0.54737 -0.35114,-1.09735 -0.56837,-1.51555 -0.21713,-0.41814 -0.44384,-0.70928 -0.72621,-0.82097 -0.85422,-0.33804 -1.55186,-0.80681 -2.02074,-0.75779 -0.19295,0.0202 -0.333,0.20605 -0.44182,0.44182 0.0101,0.0967 0.0101,0.14811 0.0302,0.2524 0.0761,0.35214 0.24988,0.72374 0.56832,1.04193 0.16424,0.16423 1.01856,0.99805 1.6103,1.89449 0.29573,0.44837 0.54193,0.90762 0.56837,1.32611 0.0252,0.41865 -0.16927,0.79498 -0.66308,1.04198 -0.62399,0.31185 -1.97363,1.0641 -2.93642,1.9892 -0.48162,0.46248 -0.87643,0.96853 -1.01039,1.48401 -0.13401,0.51542 -0.0302,1.04561 0.47356,1.54712 0.36424,0.36424 0.61865,0.64042 0.75779,0.91569 0.13905,0.27506 0.16776,0.53421 0.0947,0.82092 -0.14609,0.57336 -0.69401,1.27271 -1.6103,2.49439 -0.28413,0.37935 -0.57109,1.21962 -0.78933,2.1155 -0.21814,0.89584 -0.37885,1.85902 -0.37885,2.52594 0,1.92894 0,3.84918 0,5.77812 0,1.67474 -0.0957,2.55299 -0.44182,3.2522 -0.3461,0.6992 -0.93336,1.21755 -1.86285,2.14708 -0.76515,0.7651 -1.31196,1.4436 -1.7366,2.21021 -0.42469,0.76656 -0.71049,1.62633 -0.94727,2.81012 -0.45593,2.27979 -1.44058,4.08883 -1.95761,6.15703 -0.43981,1.75932 -1.04526,2.76024 -1.51559,4.64143 -0.15416,0.61658 -0.44485,1.02858 -0.78934,1.3577 -0.34458,0.32898 -0.76142,0.56052 -1.16828,0.78939 -0.40705,0.22872 -0.79552,0.47356 -1.13669,0.78938 -0.34106,0.31587 -0.64192,0.7048 -0.78933,1.29453 -0.20555,0.82172 -0.76727,1.53947 -1.29458,2.21021 -0.52731,0.67079 -1.01034,1.31342 -1.01034,2.05238 0,0.56756 -0.11033,1.12117 -0.31588,1.6103 -0.20554,0.48917 -0.48817,0.89351 -0.88409,1.2314 -0.39598,0.33804 -0.91276,0.58077 -1.48401,0.69462 -0.57119,0.11386 -1.22586,0.1199 -1.95761,-0.063 -1.04772,-0.26197 -1.76844,-0.4252 -2.30492,-0.2524 -0.26852,0.0862 -0.47507,0.24686 -0.66308,0.53674 -0.18792,0.29018 -0.36575,0.706 -0.5052,1.26299 -0.13451,0.53779 -0.29975,0.9721 -0.53674,1.32612 -0.23678,0.35416 -0.51688,0.61784 -0.88409,0.82097 -0.73447,0.40605 -1.76622,0.53673 -3.18902,0.53673 -1.45352,0 -2.36391,0.0851 -3.03118,0.41059 -0.66726,0.32544 -1.10339,0.88066 -1.6103,1.89448 -0.19547,0.39094 -0.60948,0.70677 -1.10511,0.94722 -0.49572,0.240313 -1.07981,0.409583 -1.6103,0.599913 -0.53044,0.19043 -0.99447,0.39094 -1.29453,0.6315 -0.30026,0.2403 -0.41663,0.52454 -0.22116,0.91563 0.87251,1.74511 0.98203,2.72186 1.54713,3.8521 0.48766,0.97568 1.0919,1.49977 1.79972,1.9892 0.70787,0.48918 1.50678,0.96999 2.43128,1.89449 0.45088,0.45089 0.68635,0.92359 0.78933,1.42083 0.10277,0.49723 0.0665,1.00873 -0.0302,1.51559 -0.0635,0.32746 -0.15617,0.59693 -0.2524,0.91568 0.064,0.0927 0.13351,0.12645 0.18943,0.2524 0.29471,0.66706 0.53487,1.79821 0.69462,3.59945 0.19396,0.76061 0.63865,1.51262 1.19987,2.27338 0.56116,0.76077 1.22405,1.5157 1.83131,2.27339 0.60726,0.75764 1.15196,1.52219 1.484,2.27334 0.332,0.75114 0.45391,1.50047 0.18943,2.24179 -0.75548,0.11336 -1.38471,0.32898 -1.89444,0.6315 -0.50978,0.30278 -0.90601,0.69215 -1.23141,1.13669 -0.65089,0.88904 -0.98082,2.01742 -1.26299,3.18902 -0.28212,1.17161 -0.51069,2.39913 -0.91568,3.4732 -0.20252,0.53704 -0.46399,1.04259 -0.78933,1.48401 -0.32545,0.44131 -0.72178,0.80686 -1.23141,1.1051 -1.61619,0.17885 -3.06816,0.11436 -4.29417,-0.0947 -1.22597,-0.20907 -2.22492,-0.56489 -2.96796,-1.01034 -0.74308,-0.44535 -1.22183,-0.95422 -1.38929,-1.48401 -0.0836,-0.26499 -0.0776,-0.53189 0,-0.78938 0.0776,-0.25743 0.22318,-0.52666 0.47356,-0.75779 0.31537,-0.29069 0.31537,-0.59447 0.12645,-0.8841 -0.18892,-0.28967 -0.57084,-0.55744 -1.04198,-0.82092 -0.94223,-0.52696 -2.2292,-0.98888 -2.96801,-1.26299 -1.94471,-0.0101 -4.18162,0.13552 -6.28332,0.66308 -1.05085,0.26348 -2.0487,0.60324 -2.96801,1.10511 -0.91931,0.50177 -1.75725,1.14823 -2.43122,1.95761 0.24383,0.55402 0.38338,1.11871 0.44182,1.67348 0.0589,0.55472 0.0403,1.10808 -0.063,1.64184 -0.20504,1.06752 -0.71215,2.08305 -1.42088,2.93642 -0.70868,0.85341 -1.6295,1.55519 -2.65223,2.02079 -1.02274,0.46549 -2.13641,0.69572 -3.28373,0.5999 -0.29371,0.63316 -0.66288,1.16612 -1.04198,1.61031 -0.37936,0.44434 -0.78712,0.77039 -1.23141,1.04198 -0.88863,0.54308 -1.87791,0.77553 -2.90483,0.72621 -1.02697,-0.0504 -2.09243,-0.37331 -3.09431,-0.8841 -1.00193,-0.51094 -1.93353,-1.2106 -2.74699,-2.05232 -1.56637,-0.39648 -2.62715,-0.87296 -3.34691,-1.35771 -0.71976,-0.48464 -1.11215,-0.97064 -1.32611,-1.42088 -0.21411,-0.45038 -0.26651,-0.87533 -0.31588,-1.16823 -0.0504,-0.2932 -0.0907,-0.46096 -0.31587,-0.47356 -0.35114,-0.0202 -0.69815,0.061 -1.04198,0.2524 -0.34358,0.19194 -0.67946,0.49825 -1.0104,0.91568 -0.66177,0.83508 -1.28621,2.12805 -1.86285,3.94682 -0.2599504,0.28816 -0.5850904,0.48665 -0.9156804,0.5999 -0.33048,0.11336 -0.67522,0.15668 -1.04198,0.15769 -0.73351,0.002 -1.50692,-0.18539 -2.17862,-0.2524 -0.67165,-0.0675 -1.2442,-0.0202 -1.57872,0.34711 -0.16725,0.18388 -0.28464,0.43326 -0.31587,0.82092 -0.0302,0.38741 0.0202,0.89306 0.15768,1.54718 0.59301,1.90351 1.12848,3.46408 1.35771,5.2098 0.11486,0.87281 0.17078,1.80986 0.0947,2.84171 -0.0761,1.03186 -0.26751,2.18155 -0.59991,3.50474 -0.61779,0.0927 -1.10994,0.25391 -1.484,0.5052 -0.37381,0.25139 -0.62686,0.58016 -0.82092,0.94722 -0.38792,0.73422 -0.48616,1.65252 -0.53679,2.58916 -0.0509,0.93659 -0.0605,1.89101 -0.28413,2.68382 -0.11184,0.39648 -0.28565,0.74641 -0.53679,1.04193 -0.25088,0.29572 -0.58837005,0.54328 -1.04198005,0.69467 0.81462005,0.74752 1.48219005,1.5435 2.05238005,2.39963 0.32444,0.48717 0.55441,1.03231 0.82092,1.54718 0.29018,0.12645 0.46247,0.12645 1.19981,0.7578 0.565,0.48414 2.84171,1.26818 2.84171,2.17862 0.48968,2.89446 3.7896804,1.66582 3.4732104,4.57831 -0.87231,2.24684 -1.0521604,3.44736 0.22116,5.43082 5.60089,0.4131 5.62664,0.34207 6.0939,1.76819 0.3461,0.25945 1.10742,1.42082 1.76819,1.42082 0.73618,0 2.92246,-0.68333 3.06271,0.7578 0.27608,2.83652 -2.69727,2.42513 -1.9892,3.03113 0.63412,0.54273 2.27525,2.13777 2.81012,1.7366 0.44283,-0.33199 2.61239,-1.64985 3.28378,-1.51554 3.75049,0.332 5.80987,0.20403 8.27253,0.22116 1.81327,0 2.22965,-1.11785 3.44161,-1.42088 0.94188,-0.23526 1.20375,-1.32218 2.43123,-0.0947 1.84567,0.66339 4.46127,3.47588 5.4624,1.95762 1.83277,-1.02586 4.29775,-2.1549 6.31491,-1.54713 0.50489,0.50489 1.29584,2.8404 0.63144,3.50474 -0.31285,0.31285 -2.27681,1.49095 -2.39963,1.7366 0.34106,4.84053 -1.62547,3.65321 -0.6315,5.02038 1.35494,1.28576 2.33818,2.94272 2.58911,4.54672 -1.17669,2.97934 1.21886,3.39593 0.44182,5.46236 -0.4932,2.10733 -0.59552,3.6993 -2.81012,4.57831 -0.66872,0.66872 0.0504,2.67052 0.82097,3.44161 1.25947,1.25947 1.68648,0.49119 3.09431,1.54718 0.49623,0.3723 2.94589,2.07444 3.69421,1.32612 1.99742,-1.18783 3.41603,-1.15453 5.65183,-0.44182 3.45592,-0.80616 3.1131,1.05795 3.7258,1.29452 1.81902,0.50329 4.0183,0.004 5.74654,0.56838 1.61771,1.80204 2.03243,4.06424 3.82052,5.52552 2.33943,1.00062 4.88521,1.47726 7.42001,1.10511 1.39745,-1.04707 2.81727,-1.47887 4.3573,-2.17862 2.05469,0.45189 3.17688,-2.30402 4.76773,-3.69422 2.34372,0.20504 2.34412,3.32983 6.31491,4.76773 1.132723,1.13272 1.205563,1.42658 2.178633,2.39964 0.77683,1.53252 -0.74848,1.84799 -0.44182,6.72539 -0.43779,1.09443 -0.12645,1.41922 -0.12645,2.93642 0,1.46516 -1.921043,-0.0514 -2.241803,1.23141 -0.27356,1.09402 -1.15836,0.49522 -2.17863,1.51559 -1.83227,0.73044 -2.39066,1.80028 -3.28378,2.84171 -0.97392,-0.48717 -1.56425,-1.69353 -2.62064,-1.95762 -0.0504,-0.0101 -3.14096,0.20152 -4.45201,-0.12645 -1.53428,-0.38338 -2.57742,-1.16828 -4.26259,-1.16828 -0.85215,0 -3.48217,-0.43779 -3.69421,0.41059 -0.70268,2.11227 1.56224,2.46366 0.44182,4.3573 -0.60908,2.43631 1.37599,0.24383 1.95766,2.17862 0.39547,1.31523 2.71798,0.1869 3.44162,1.57872 0.1335,0.25693 1.79065,2.47822 1.57871,3.44161 -0.267,1.21413 -0.30227,1.6237 0.69462,2.6207 0.91201,0.912 1.12879,1.71685 2.747,2.52598 1.13906,0.56953 2.77339,2.23077 2.87329,1.83132 0.31084,-1.24411 -0.002,-1.36496 0.91563,-2.58911 0.42772,-0.56994 1.22446,-0.7508 1.9892,-1.51559 0.71755,-0.7175 2.00507,-0.34762 2.33651,-1.67343 0.44938,-1.79837 1.75127,-0.80404 2.81017,-1.8629 0.841883,-0.93579 1.809913,-1.50108 3.062723,-1.7366 0.87115,0 1.40224,-0.72621 2.27334,-0.72621 0.87291,-5e-5 3.57527,-0.1325 4.1047,0 1.28425,0.32091 0.86228,1.8362 2.1155,2.46281 0.82449,0.4121 1.8105,3.05259 2.21021,3.85205 0.62721,1.25443 2.59102,0.30932 3.44161,0.94727 0.70455,0.52837 0.31336,2.17625 1.04199,2.90483 0.80343,0.80349 3.59763,2.18774 3.82051,1.07357 0.17834,-0.89316 -0.17431,-2.25671 0.44182,-2.8733 1.18561,-1.18561 1.25397,-1.28868 2.14709,-2.74699 0.47255,-0.77125 -0.52258,-2.23515 1.70501,-3.37849 0.77759,-0.399 0.90475,-3.48353 1.51559,-3.78893 0.74435,-0.3723 1.14501,-2.3216 1.54713,-3.12589 0.30932,-0.6189 1.64199,-1.20002 1.484,-1.98915 -0.48615,-2.42931 1.04939,-2.29213 1.1367,-2.21021 0.75598,0.70923 -0.20454,-2.27339 1.01039,-2.27339 0.35769,0 5.20668,-0.1199 4.83091,0.6315 -0.28313,0.5657 -0.81337,2.38477 0.0947,2.81012 2.27631,1.06616 1.68889,-1.24486 2.08391,-2.02079 0.58872,-1.15639 1.49569,1.59438 2.6207,1.51559 3.58358,-0.25089 2.97999,2.2221 4.23094,2.08391 3.34333,-0.36927 1.42804,2.26739 3.06277,2.27339 1.6425,0.005 4.54889,0.267 4.04153,1.32611 -0.15265,0.3189 1.73101,1.33287 3.25214,1.51559 0.86838,0.10429 1.95766,1.14375 1.95766,2.39964 0,1.2048 0.79387,2.83042 1.95762,1.95766 0.50328,-0.37733 2.70372,-0.32041 2.8417,-1.01039 0.29724,-1.48562 -0.2796,-2.53455 0.69462,-3.25219 1.64819,-1.21403 2.14659,-1.12103 0.37885,-2.27339 -0.5718,-0.3728 -1.01921,-2.14482 0,-2.39963 0.69452,-0.17381 2.39969,-0.14358 2.39969,-1.07352 0,-1.1439 -0.76183,-1.77625 -1.29458,-2.84171 -0.62147,-2.43042 0.97049,-2.19943 0.88409,-4.38889 -0.25441,-1.01769 0.18288,-3.02523 -0.0302,-3.88363 -0.34761,-1.39161 1.38975,-0.37986 1.92608,-1.45247 0.4655,-0.93115 -0.0559,-2.56296 0.69462,-3.12584 0.55598,-0.41714 2.57092,-0.48565 2.39968,-1.04198 -0.47507,-1.54234 -0.17582,-3.37341 1.13665,-2.9996 1.69559,0.48313 0.72862,-1.96245 1.42088,-3.34685 1.42365,-2.23752 1.96945,-3.95261 0.91563,-6.53592 -0.2126,-0.84999 -0.46147,-1.78759 -1.19982,-2.52599 -0.64313,-0.64313 -2.40407,-1.24903 -2.71541,-2.49439 -0.0856,-0.34207 -0.0151,-1.26259 0.37885,-1.79973 z"
       id="Cauquenes"
       inkscape:label="#path2810" />
  </g>
</svg>
