<?xml version="1.0" encoding="UTF-8" standalone="no"?>
<!-- Created with Inkscape (http://www.inkscape.org/) -->

<svg
   width="210mm"
   height="297mm"
   viewBox="0 0 210 297"
   version="1.1"
   id="svg1283"
   inkscape:version="1.1.2 (b8e25be833, 2022-02-05)"
   sodipodi:docname="vector.svg"
   xmlns:inkscape="http://www.inkscape.org/namespaces/inkscape"
   xmlns:sodipodi="http://sodipodi.sourceforge.net/DTD/sodipodi-0.dtd"
   xmlns="http://www.w3.org/2000/svg"
   xmlns:svg="http://www.w3.org/2000/svg">
  <sodipodi:namedview
     id="namedview1285"
     pagecolor="#ffffff"
     bordercolor="#666666"
     borderopacity="1.0"
     inkscape:pageshadow="2"
     inkscape:pageopacity="0.0"
     inkscape:pagecheckerboard="0"
     inkscape:document-units="mm"
     showgrid="false"
     inkscape:zoom="0.52347032"
     inkscape:cx="155.69173"
     inkscape:cy="611.30496"
     inkscape:window-width="1920"
     inkscape:window-height="1017"
     inkscape:window-x="-8"
     inkscape:window-y="-8"
     inkscape:window-maximized="1"
     inkscape:current-layer="layer1" />
  <defs
     id="defs1280" />
  <g
     inkscape:label="Capa 1"
     inkscape:groupmode="layer"
     id="layer1">
    <path
       d="m 160.01187,95.71677 c -0.73741,0.0411 -1.37816,0.23033 -1.82463,0.67688 -1.46696,1.46695 -2.00519,3.09409 -3.73755,4.82644 -0.86257,0.86259 -1.41764,1.38828 -2.20721,1.70694 -0.78957,0.31881 -1.82267,0.41185 -3.67869,0.41185 -1.72487,0 -3.15607,-0.0876 -4.23786,0 -0.5409,0.0456 -0.98855,0.12679 -1.35375,0.29417 -0.36519,0.16739 -0.64447,0.40592 -0.82402,0.76518 -0.54349,1.08694 -0.96425,2.5695 -1.64806,3.76695 -0.34193,0.59875 -0.75621,1.11978 -1.26547,1.50093 -0.50927,0.38129 -1.11867,0.618 -1.88349,0.618 -0.95118,0 -1.72145,0.10125 -2.35436,0.26498 -0.63292,0.16374 -1.14277,0.37992 -1.5892,0.618 -0.89284,0.4757 -1.53465,1.03112 -2.47208,1.2655 -2.34797,0.58698 -5.13606,1.39517 -6.94537,2.11889 -1.04028,0.41595 -2.31905,0.69037 -3.76698,0.85347 -1.44793,0.16328 -3.0808,0.23534 -4.79701,0.23534 -1.26699,0 -2.67427,-0.10946 -4.00242,-0.088 -1.32815,0.0228 -2.57259,0.16784 -3.47269,0.61805 -0.55892,0.27958 -1.11916,0.33111 -1.67748,0.29417 -0.55831,-0.0365 -1.09898,-0.17696 -1.5892,-0.26498 -0.4902,-0.088 -0.94027,-0.12634 -1.29489,0 -0.3546,0.12633 -0.61361,0.4237 -0.76517,1.03002 -0.14485,0.5795 -0.53422,1.01534 -1.05946,1.32434 -0.52524,0.30877 -1.20612,0.49576 -1.94235,0.61804 -1.47246,0.24446 -3.17315,0.20615 -4.47329,0.20615 -1.46329,0 -2.4435,0.18471 -3.23724,0.618 -0.793754,0.43282 -1.4146,1.12096 -2.118929,2.06004 -0.601618,0.80217 -1.016387,1.73888 -1.471479,2.67809 -0.455082,0.93922 -0.952722,1.86508 -1.736346,2.64868 -0.807605,0.80759 -1.288899,1.6077 -2.001204,2.20722 -0.356158,0.29965 -0.762174,0.5614 -1.294901,0.73572 -0.532726,0.17422 -1.187729,0.26498 -2.03064,0.26498 -2.91307,0 -5.805147,-0.52974 -8.034257,-0.52974 -0.694746,0 -1.595051,0.13865 -2.472081,0.47086 -0.877035,0.33249 -1.71942,0.84075 -2.324934,1.64807 -0.250756,0.33431 -1.073703,1.51635 -1.883493,2.61921 -0.809785,1.1029 -1.604099,2.14474 -1.854061,2.20722 -1.067893,0.26681 -2.356801,0.44879 -3.737546,0.47087 -1.380745,0.0228 -2.844242,-0.11494 -4.26728,-0.47087 -1.816918,-0.45426 -2.557059,-0.68303 -3.207825,-0.61804 -0.650757,0.0652 -1.221147,0.41914 -2.678086,1.14779 -0.957347,0.47866 -1.934903,0.80558 -2.854659,1.17715 -0.919756,0.37171 -1.795236,0.79464 -2.501517,1.50094 -0.87215,0.87213 -1.321987,1.56788 -2.001199,1.97175 -0.339602,0.20204 -0.736479,0.32199 -1.265479,0.35301 -0.528991,0.0319 -1.18326,-0.0319 -2.060062,-0.20615 -1.168314,-0.23352 -2.013468,-0.25085 -2.678086,-0.14732 -0.664617,0.10399 -1.15355,0.34024 -1.61863,0.67688 -0.465066,0.33659 -0.901814,0.77078 -1.47147,1.23608 -0.569664,0.46526 -1.28768,0.95281 -2.266076,1.44201 -0.929183,0.46461 -1.708014,0.87427 -2.47208,1.35375 -0.764067,0.47953 -1.502019,1.03117 -2.32493,1.85408 -0.368472,0.36852 -0.865404,0.58252 -1.412621,0.7063 -0.547221,0.1236 -1.152109,0.17696 -1.736341,0.23534 -0.584232,0.0584 -1.13912,0.12177 -1.618621,0.29417 -0.479515,0.1724 -0.885281,0.44606 -1.118327,0.91231 -0.612063,1.22414 -3.501357,4.79702 -3.737546,4.79702 -0.799172,0 -1.454052,0.23808 -2.001213,0.58858 -0.547157,0.35073 -0.968571,0.82743 -1.353754,1.29492 -0.38521,0.46749 -0.716771,0.91486 -1.030038,1.26545 -0.313285,0.35073 -0.610366,0.58858 -0.941749,0.58858 -2.6713171,0 -5.3629211,0 -8.0342601,0 -0.439767,0 -1.026955,0.21254 -1.618621,0.55921 -0.591666,0.34662 -1.1609152,0.83614 -1.618621,1.35375 -0.45770579,0.51757 -0.78613919,1.07577 -0.82403259,1.58919 -0.018882,0.25678 0.036989,0.51296 0.1765782,0.73571 0.1396215,0.22303 0.3724214,0.42188 0.70630909,0.58863 0.3631948,0.18152 6.5228933,4.52368 6.3862133,4.79697 -0.579773,1.15955 -1.226116,1.81253 -1.942349,2.38382 -0.716241,0.57125 -1.49552,1.05406 -2.324938,1.8835 -0.02144,0.0228 -0.14535,0.11858 -0.176579,0.14732 0.382045,0.42188 0.726563,0.90314 1.118325,1.29491 0.552661,0.55264 1.056435,1.05644 1.47148,1.55977 0.415043,0.50329 0.734526,0.99582 0.941739,1.53031 0.0416,0.10718 0.0265,0.24172 0.05889,0.35301 0.122377,-0.0183 0.268274,-0.0894 0.382583,-0.088 0.394984,0.004 0.741976,0.15553 1.000613,0.50033 1.109415,1.47922 1.807167,2.60197 2.4426451,3.35497 0.317755,0.37627 0.615305,0.66356 0.941744,0.85347 0.326421,0.18973 0.668982,0.26499 1.088891,0.26499 2.059798,0 3.433651,-0.37901 4.649868,-0.41185 0.608104,-0.0182 1.202343,0.041 1.795199,0.29418 0.592857,0.25312 1.204892,0.70456 1.912925,1.41258 0.408014,0.4082 0.894749,0.79095 1.471478,1.11833 0.576716,0.32747 1.227131,0.59966 1.942347,0.79464 0.71522,0.19474 1.501462,0.31287 2.324929,0.32382 0.823468,0.009 1.688311,-0.0985 2.589797,-0.32382 1.348618,-0.33705 2.585742,-1.13639 3.825844,-1.85408 0.620053,-0.35894 1.242099,-0.69367 1.883488,-0.94173 0.641389,-0.24811 1.306152,-0.41185 2.001213,-0.41185 0.244645,0 0.408151,0.0228 0.647446,0.0274 0.0026,-0.009 -0.0027,-0.0182 0,-0.0274 0.292351,-0.52363 0.396202,-1.18126 0.412028,-1.91291 0.01596,-0.73165 -0.06955,-1.53733 -0.206014,-2.26606 -0.272785,-1.45747 -0.718203,-2.70377 -0.853451,-2.88411 -0.153655,-0.20478 -0.0078,-0.54196 0.264849,-1.0006 0.27274,-0.45869 0.659446,-1.01019 0.971176,-1.64807 0.311735,-0.63784 0.536982,-1.347 0.500294,-2.08951 -0.01824,-0.37126 -0.08679,-0.76431 -0.264849,-1.14774 -0.178056,-0.38357 -0.437797,-0.76153 -0.824024,-1.14774 -0.453896,-0.45381 -0.762557,-1.12284 -0.912313,-1.8835 -0.149733,-0.76066 -0.155343,-1.63073 -0.02919,-2.44266 0.125925,-0.81192 0.392051,-1.57007 0.765161,-2.17776 0.373124,-0.60769 0.850217,-1.05867 1.442052,-1.20662 1.117885,-0.27958 1.853802,-0.73188 2.383792,-1.26546 0.529981,-0.53362 0.844817,-1.1352 1.206607,-1.70695 0.361767,-0.5717 0.769882,-1.10701 1.38319,-1.50088 0.613303,-0.39406 1.452432,-0.64746 2.736943,-0.64746 0.801644,0 1.566532,-0.17149 2.32493,-0.41185 0.758411,-0.24081 1.498807,-0.56212 2.26608,-0.88289 0.767269,-0.32063 1.555572,-0.6423 2.383792,-0.88289 0.828215,-0.24081 1.707394,-0.41184 2.648654,-0.41184 0.65385,0 1.17854,-0.0511 1.618622,-0.17651 0.440077,-0.12542 0.776007,-0.32428 1.059464,-0.52974 0.566938,-0.41048 0.893842,-0.92645 1.177189,-1.38318 0.283321,-0.45677 0.543664,-0.83258 1.000598,-0.97118 0.456939,-0.13865 1.119508,-0.0456 2.207218,0.50028 0.679582,0.33978 1.425373,0.6106 2.207214,0.79459 0.78184,0.18426 1.581035,0.27776 2.383791,0.35301 1.6055,0.15096 3.183853,0.14732 4.385001,0.14732 0.668613,0 5.488345,-0.64746 8.328556,-0.64746 1.399472,0 2.372129,-0.0944 3.0901,-0.20616 0.71797,-0.11174 1.192304,-0.23169 1.559767,-0.35301 0.367469,-0.12131 0.623214,-0.23579 0.971176,-0.26498 0.347948,-0.0274 0.782597,0.0137 1.442043,0.1765 1.081931,0.27046 1.852064,0.43967 2.442654,0.50033 0.590581,0.0607 0.987969,0.009 1.412616,-0.17651 0.84931,-0.37581 1.7172,-1.28055 3.85527,-2.8841 0.3167,-0.23762 0.88922,-0.3635 1.61863,-0.41184 0.72939,-0.0488 1.59819,-0.0228 2.47207,0 0.87389,0.0228 1.75139,0.0488 2.50151,0.0274 0.75013,-0.0182 1.3782,-0.0857 1.73635,-0.26499 0.94797,-0.47401 1.62733,-0.5951 2.14835,-0.58857 0.52103,0.005 0.88026,0.14229 1.20661,0.1765 0.32638,0.0365 0.60724,-0.0228 0.97118,-0.41184 0.36391,-0.39041 0.80825,-1.11623 1.44204,-2.38383 0.16784,-0.33568 0.40191,-0.5816 0.67688,-0.76513 0.27498,-0.1838 0.61165,-0.29007 0.97118,-0.35301 0.71906,-0.12588 1.57933,-0.0502 2.50151,0.11767 1.84435,0.33568 3.89873,1.00061 5.47389,1.00061 0.20501,0 1.13669,1.79324 2.03064,3.64928 0.89395,1.85604 1.75587,3.78624 1.82463,4.06126 0.19949,0.79788 0.59115,1.6124 1.08889,2.41324 0.49775,0.8008 1.09715,1.58905 1.73635,2.29548 1.2784,1.41291 2.687,2.5207 3.59039,2.9724 0.62028,0.31014 1.13236,0.74648 1.55977,1.23604 0.4274,0.48956 0.76787,1.05967 1.11833,1.64807 0.7009,1.17674 1.35408,2.44298 2.44264,3.53152 0.5289,0.52892 0.97285,1.16666 1.32433,1.85408 0.3515,0.68736 0.62343,1.45181 0.85346,2.20718 0.46005,1.51078 0.74951,3.05691 1.05946,4.29674 0.31666,1.26655 0.99353,2.61624 1.73635,3.94354 0.7428,1.3273 1.52781,2.61419 2.08949,3.73758 0.38124,0.76244 0.6171,1.5558 0.70631,2.3249 0.0892,0.76914 0.0544,1.53874 -0.0589,2.2661 -0.2264,1.45469 -0.767,2.77004 -1.26547,3.76695 -0.55268,1.10542 -0.87684,2.24978 -1.05946,3.5904 -0.18262,1.34067 -0.23544,2.86536 -0.23544,4.73819 0,0.40728 -0.0594,0.62306 -0.0882,0.94172 0.90948,0.40638 1.8149,0.77188 2.61923,0.97119 0.81228,0.20114 1.52066,0.25495 1.97177,0.0274 0.80422,-0.40227 2.27012,-0.59282 3.85528,-0.82401 1.58514,-0.23124 3.27735,-0.52035 4.47328,-1.11833 0.33814,-0.1692 0.72802,-0.22302 1.17719,-0.20615 0.44915,0.0182 0.95837,0.12178 1.47147,0.26499 1.02621,0.28597 2.11997,0.74889 3.11953,1.1772 0.99956,0.42827 1.90514,0.82388 2.50151,0.91231 0.29819,0.0456 0.52067,0.0137 0.64745,-0.11767 0.12679,-0.13135 0.15055,-0.36897 0.0589,-0.73576 -0.20132,-0.80526 -0.37741,-1.55055 -0.50031,-2.2366 -0.12292,-0.68609 -0.19616,-1.30654 -0.11772,-1.85408 0.0785,-0.54753 0.30357,-1.0229 0.70632,-1.41263 0.40272,-0.3895 1.0041,-0.69982 1.85405,-0.91231 0.58228,-0.14549 1.2384,-0.26955 1.91293,-0.44149 0.67453,-0.17194 1.34956,-0.39999 1.91291,-0.73571 0.56335,-0.33614 1.01674,-0.77494 1.26548,-1.41264 0.24875,-0.6377 0.29873,-1.48305 0.0292,-2.56037 -0.21386,-0.85544 -0.4336,-1.7049 -0.64746,-2.56038 l -7.68111,-5.12074 7.68111,-14.12617 8.97601,5.76821 4.62043,-9.24089 c -0.92281,-0.44423 -1.7905,-0.89201 -2.67808,-1.35375 -0.74161,-0.38585 -1.39287,-0.79784 -1.76577,-1.26546 -0.18645,-0.23397 -0.28766,-0.46968 -0.32373,-0.73576 -0.036,-0.2659 -0.005,-0.54726 0.14713,-0.85343 0.70676,-1.41354 1.30227,-2.45027 1.5009,-3.32555 0.0993,-0.43784 0.10144,-0.83495 -0.0292,-1.23603 -0.1309,-0.4009 -0.39415,-0.80618 -0.82403,-1.23604 -1.11692,-1.11691 -1.83931,-1.86489 -2.64866,-2.53096 -0.80936,-0.66607 -1.6995,-1.23234 -3.11953,-1.94233 -0.47487,-0.23762 -2.44751,-0.97954 -4.35557,-1.76578 -1.90806,-0.7862 -3.73937,-1.62225 -3.97299,-2.08951 -0.37568,-0.75131 -0.77059,-1.31595 -1.17717,-1.73632 -0.40661,-0.42051 -0.82589,-0.68409 -1.35377,-0.91231 -1.05575,-0.45654 -2.44898,-0.68586 -4.53215,-1.20662 -1.10401,-0.27593 -2.22628,-0.60997 -3.23725,-1.00061 -1.01095,-0.39041 -1.93126,-0.8335 -2.61922,-1.32434 -0.68796,-0.49079 -1.13046,-1.0126 -1.26547,-1.58918 -0.0675,-0.28825 -0.055,-0.60532 0.0589,-0.91231 0.11384,-0.30694 0.3235,-0.61781 0.64744,-0.94177 0.55235,-0.55232 0.87524,-1.01844 1.0889,-1.44201 0.21367,-0.4237 0.30694,-0.79733 0.35315,-1.23608 0.0924,-0.87746 0.0205,-1.93622 0.47086,-3.73753 0.1013,-0.40501 -0.0691,-0.74922 -0.38256,-1.05944 -0.31342,-0.31014 -0.75498,-0.57486 -1.20662,-0.85348 -0.45161,-0.27867 -0.92263,-0.57261 -1.23604,-0.88289 -0.31342,-0.31014 -0.48386,-0.65435 -0.38256,-1.05944 0.18626,-0.74515 0.43045,-1.4036 0.73574,-1.9718 0.3053,-0.56819 0.66253,-1.02888 1.08889,-1.44205 0.42634,-0.41321 0.922,-0.77949 1.47147,-1.05944 0.54949,-0.28004 1.17939,-0.4788 1.85407,-0.64746 0.34794,-0.0871 0.53991,-0.39041 0.67688,-0.79459 0.13696,-0.40455 0.19826,-0.902 0.26485,-1.38322 0.0666,-0.48117 0.12788,-0.94806 0.26485,-1.26546 0.13696,-0.31743 0.35834,-0.499 0.7063,-0.41184 0.0674,0.0182 0.92489,0.65831 2.06007,1.38322 1.13517,0.7249 2.54182,1.53304 3.70811,1.82461 1.44098,0.36031 3.03203,0.70251 4.50273,0.7063 0.73535,0.002 1.43736,-0.0825 2.08949,-0.29418 0.65213,-0.21162 1.25729,-0.55099 1.76578,-1.05948 0.49068,-0.49066 0.88332,-0.79432 1.2066,-0.97115 0.32328,-0.17696 0.55162,-0.23443 0.76517,-0.1765 0.42713,0.1163 0.69594,0.62493 1.03004,1.20662 0.33408,0.58169 0.73971,1.26217 1.44204,1.67748 0.35119,0.20752 0.79462,0.33522 1.32433,0.38266 0.5297,0.0474 1.14702,0.0137 1.91292,-0.17651 1.74045,-0.4351 3.11416,-0.87701 4.56158,-1.05949 0.72371,-0.0912 1.46892,-0.11584 2.2955,-0.0588 0.82659,0.057 1.7195,0.20934 2.76638,0.47086 0.97745,0.24446 1.63141,0.20843 2.11893,0.0274 0.48751,-0.17879 0.82262,-0.51903 1.2066,-0.82406 0.38398,-0.30512 0.80461,-0.57225 1.47148,-0.70629 0.66687,-0.13409 1.57734,-0.12816 2.91352,0.20615 1.2492,0.31242 3.1551,1.12607 4.76759,1.5303 0.80624,0.20205 1.53345,0.28597 2.06006,0.17651 0.2633,-0.0547 0.50036,-0.14914 0.64746,-0.32382 0.14709,-0.17423 0.20601,-0.41367 0.20601,-0.73572 0,-0.91531 -0.14677,-2.36279 -0.0589,-3.82587 0.0438,-0.73152 0.14554,-1.48223 0.35315,-2.14835 0.20761,-0.66611 0.53485,-1.27056 1.00061,-1.73632 1.06019,-1.06021 1.79531,-1.77463 2.38379,-2.67809 0.58848,-0.9035 1.03601,-1.99574 1.47147,-3.73757 0.39388,-1.57546 1.41437,-2.91271 1.91293,-4.56155 0.24929,-0.82446 0.37111,-1.73349 0.20601,-2.76638 -0.0571,-0.35758 -0.36984,-0.8434 -0.50029,-1.23604 -1.02616,0.37672 -1.89775,0.63227 -2.3838,1.11832 -0.39305,0.19657 -0.55315,0.1984 -0.58859,0.14731 -0.0356,-0.0515 0.0424,-0.17194 0.11772,-0.26498 0.15092,-0.18608 0.29737,-0.23853 -0.58859,0.64746 -0.97011,0.97009 -1.26074,1.76605 -1.82463,2.3249 -0.28195,0.27958 -0.62943,0.4985 -1.17718,0.64746 -0.54776,0.14914 -1.29587,0.23534 -2.35437,0.23534 -2.93864,0 -5.04738,-0.52975 -7.4751,-0.52975 -0.90044,0 -2.75101,-0.23579 -4.44385,-0.41184 -1.69285,-0.17651 -3.21885,-0.31835 -3.56098,-0.14732 -0.62957,0.3147 -1.21998,0.5089 -1.7952,0.618 -0.57523,0.109 -1.15673,0.12953 -1.76577,0.11767 -1.2181,-0.0228 -2.59088,-0.17651 -4.47329,-0.17651 -1.32792,0 -2.35336,-0.14093 -3.20782,-0.35301 -0.85445,-0.21208 -1.51784,-0.49672 -2.17778,-0.85343 -1.3199,-0.71341 -2.55197,-1.67415 -4.76758,-2.56037 -0.94516,-0.3781 -2.61919,-1.07563 -4.29672,-1.47147 -0.83877,-0.19794 -1.6758,-0.3074 -2.41322,-0.26499 z"
       style="fill:#000000;fill-opacity:1;fill-rule:evenodd;stroke:#d39062;stroke-width:0.470872;stroke-linecap:butt;stroke-linejoin:miter;stroke-miterlimit:4;stroke-dasharray:none;stroke-opacity:1"
       id="Chillan"
       inkscape:connector-curvature="0" />
  </g>
</svg>
