<?xml version="1.0" encoding="UTF-8" standalone="no"?>
<!-- Created with Inkscape (http://www.inkscape.org/) -->

<svg
   width="210mm"
   height="297mm"
   viewBox="0 0 210 297"
   version="1.1"
   id="svg1283"
   inkscape:version="1.1.2 (b8e25be833, 2022-02-05)"
   sodipodi:docname="vector.svg"
   xmlns:inkscape="http://www.inkscape.org/namespaces/inkscape"
   xmlns:sodipodi="http://sodipodi.sourceforge.net/DTD/sodipodi-0.dtd"
   xmlns="http://www.w3.org/2000/svg"
   xmlns:svg="http://www.w3.org/2000/svg">
  <sodipodi:namedview
     id="namedview1285"
     pagecolor="#ffffff"
     bordercolor="#666666"
     borderopacity="1.0"
     inkscape:pageshadow="2"
     inkscape:pageopacity="0.0"
     inkscape:pagecheckerboard="0"
     inkscape:document-units="mm"
     showgrid="false"
     inkscape:zoom="0.52347032"
     inkscape:cx="155.69173"
     inkscape:cy="611.30496"
     inkscape:window-width="1920"
     inkscape:window-height="1017"
     inkscape:window-x="-8"
     inkscape:window-y="-8"
     inkscape:window-maximized="1"
     inkscape:current-layer="layer1" />
  <defs
     id="defs1280" />
  <g
     inkscape:label="Capa 1"
     inkscape:groupmode="layer"
     id="layer1">
    <path
       d="m 174.5905,4.0589688 c -0.83121,0.07041 -1.49017,0.53726 -2.23051,1.029469 2.61962,3.428271 3.48839,1.454568 5.04437,0.686309 0.86109,-0.43057 -1.52684,-1.568179 -1.92167,-1.64714 -0.32488,-0.07729 -0.61513,-0.09212 -0.89219,-0.06865 z m 5.25022,2.26482 c -1.02952,1.486481 -0.58538,3.121797 0.82359,4.0835432 0.81913,0.204735 1.03632,-0.4254112 1.23538,-0.8235682 -0.66575,-1.157492 -1.58485,-1.995667 -2.05897,-3.259975 z m -19.93724,1.921666 c -1.35418,0.13037 -3.27032,1.250796 -4.39239,0.651995 -0.48499,0.767781 1.03715,1.2592322 1.40693,1.8530372 0.51451,0.688624 1.59131,1.373177 2.26482,0.480417 0.67016,-0.536772 2.07081,-2.9664162 0.72064,-2.9854492 z m -7.13764,2.0246142 c -0.12317,0.01348 -0.24076,0.06544 -0.34301,0.137249 -1.38211,0.656624 -2.97727,0.484433 -4.39238,0.926516 -0.11759,0.745443 0.77827,1.728063 1.54417,1.95598 1.52857,0.285049 3.11016,-0.167691 4.39243,-0.995145 0.88462,-0.892183 -0.33928,-2.118183 -1.20108,-2.024614 z m -8.68178,1.750089 c -2.11878,0.304847 -3.95089,3.53147 -1.13243,4.255115 1.39067,0.623295 4.65554,-0.189583 3.80904,-2.127558 -0.74206,-0.889436 -2.38775,-0.788035 -2.67661,-2.127557 z m -9.8142,5.627734 c -0.83874,0.0056 -1.55672,0.110664 -1.99032,0.171596 0.4183,0.332456 0.8907,1.508399 1.33829,1.95598 0.99504,0.995006 2.42981,-0.810358 2.43641,-0.823567 0.53375,-1.067539 -0.56894,-1.311743 -1.78438,-1.30399 z m -1.99032,0.171596 c -0.15384,-0.122422 -0.30628,-0.117821 -0.44618,0.06865 -0.0325,0.0158 0.25144,-0.04136 0.44618,-0.06865 z m 28.65337,4.014909 c -0.0186,-0.0044 0.76912,1.394812 1.23538,3.259975 0.70168,1.40263 2.30971,0.9235 3.39725,2.57365 0.72291,0.96384 1.58266,0.44196 2.16187,-0.13725 0.89497,-2.02635 -2.03694,-2.87819 -3.39725,-4.083535 -1.07424,-1.301694 -1.78545,-1.678327 -3.39725,-1.612826 z m -9.95145,0.960835 c -3.51786,5.02216 -3.68606,4.25031 -9.43676,4.87279 -4.41608,7.01368 -13.34637,3.54951 -18.53032,8.85339 -0.90008,3.69355 -3.30624,7.93238 -7.61803,8.47592 -1.81886,0.22927 -1.36092,3.48279 -2.60801,4.94142 -6.34877,7.8633 -5.83208,0.9607 -6.34835,3.12271 -1.03608,4.33906 -0.80077,10.78935 -1.92167,15.85374 1.45057,6.24254 -3.42542,4.84543 -5.662068,8.02981 -1.38392,10.18679 -4.81407,2.60826 -3.94628,-4.461 0.29141,-2.37244 -5.81828,-2.20319 -7.51509,-0.58337 -0.95991,1.49856 -0.54091,4.42142 -1.57848,5.59342 -2.67717,3.0239 -6.05145,4.4859 -12.59376,2.05893 -7.31174,3.4459 3.56155,5.61691 5.18162,8.78476 -2.52816,3.85297 -9.04577,5.22035 0.30908,3.80901 2.6451,1.29448 3.98826,3.9948 -1.61282,6.17678 -7.17785,-1.12886 -2.14798,5.682848 1.71577,5.833618 6.41612,-0.47138 9.38754,4.47214 4.70118,9.40241 1.42078,1.21391 4.08642,2.273 3.91199,3.0541 -0.2798,1.25248 -5.44297,3.75485 -5.62772,-0.13711 -2.16451,-0.46673 -0.86695,-5.69664 -6.27975,-2.64226 -2.03619,1.14902 -3.20278,-3.70842 -6.27971,-4.08354 -2.31629,1.42636 -4.51,2.37367 -4.56396,4.01489 -0.0624,1.8963 2.25301,4.42311 2.40208,5.21597 -6.92355,-7.05816 -17.81661,-0.92393 -26.4229,-2.50506 -8.802465,-0.6558 -9.239473,-1.22278 -12.525136,0.96084 L 86.949022,291.79429 131.62779,161.39553 c -0.54835,-1.19709 -14.5766,-19.77723 -16.36846,-25.59936 7.66786,-5.00533 0.93425,-9.31791 6.89735,-14.61838 3.74063,-5.54155 4.07085,-15.86059 4.73558,-24.604138 0.77683,-10.21898 1.69272,-18.38687 4.39238,-15.78512 3.76373,3.62727 4.21437,-3.99335 4.32374,-6.76014 0.62452,-7.35851 -5.07296,-15.09033 0.85788,-21.61874 -0.36764,-6.06452 2.53216,-11.3717 8.68177,-13.1085 0.21287,-6.11033 6.16756,-13.29368 6.48565,-11.94178 2.27291,-1.33944 6.91678,-2.666 6.8631,-3.19134 -0.12828,-1.25456 -4.33368,-0.744267 -7.51509,-1.372614 z m -14.89292,1.30399 c -0.59943,0.007 -1.35371,0.19455 -1.54418,0.30884 0.14269,0.25484 1.28874,1.6217 2.19617,0.41179 0.41226,-0.54968 -0.0525,-0.72749 -0.65199,-0.72062 z m -4.80413,1.1324 c -0.59101,0.29556 0.21798,1.41916 0.82354,2.02462 2.66977,1.51149 -0.0772,-1.24931 -0.82354,-2.02462 z m -5.59346,2.12756 c -0.74058,0.0625 -1.51313,0.46125 -2.40207,1.40693 -1.60199,3.02622 0.29281,2.43906 0.92654,3.12271 2.3937,1.0412 3.79626,-1.46266 6.00516,-2.4364 -1.51676,-0.74943 -2.90031,-2.2306 -4.52963,-2.09324 z m 27.34943,2.33345 c -1.45248,0.53993 -1.70443,1.98978 -2.02462,3.43155 2.88437,1.03728 5.88967,-1.71681 2.02462,-3.43155 z m -41.31578,9.95148 c 0.11481,1.87685 -0.53142,4.16914 2.43637,4.08355 0.72459,-1.60562 -1.6059,-2.57025 -2.43637,-4.08355 z m -4.39238,5.14732 c -0.72091,0.0917 0.77716,2.31732 1.40693,3.15702 1.42515,-1.25172 1.07117,-2.68751 -1.23533,-3.15702 -0.0688,-0.0139 -0.12363,-0.007 -0.17151,0 z m -4.22083,6.03952 c -0.46338,0.0195 -1.00192,0.13786 -1.61283,0.2402 -1.681008,3.12903 -4.868308,5.05802 -4.323728,8.95634 1.8724,1.46806 3.589898,0.85827 4.872778,-1.06379 0.4327,-2.78917 -0.65516,-4.81131 2.8825,-6.96603 -0.43921,-0.99059 -1.04635,-1.19955 -1.81872,-1.16673 z"
       style="fill:#000000;fill-opacity:1;fill-rule:evenodd;stroke:#d39062;stroke-width:1.09809;stroke-linecap:butt;stroke-linejoin:miter;stroke-miterlimit:4;stroke-dasharray:none;stroke-opacity:1"
       id="Antartica" />
  </g>
</svg>
