<?xml version="1.0" encoding="UTF-8" standalone="no"?>
<!-- Created with Inkscape (http://www.inkscape.org/) -->

<svg
   width="210mm"
   height="297mm"
   viewBox="0 0 210 297"
   version="1.1"
   id="svg64"
   inkscape:version="1.1.2 (b8e25be833, 2022-02-05)"
   sodipodi:docname="vector.svg"
   xmlns:inkscape="http://www.inkscape.org/namespaces/inkscape"
   xmlns:sodipodi="http://sodipodi.sourceforge.net/DTD/sodipodi-0.dtd"
   xmlns="http://www.w3.org/2000/svg"
   xmlns:svg="http://www.w3.org/2000/svg">
  <sodipodi:namedview
     id="namedview66"
     pagecolor="#ffffff"
     bordercolor="#666666"
     borderopacity="1.0"
     inkscape:pageshadow="2"
     inkscape:pageopacity="0.0"
     inkscape:pagecheckerboard="0"
     inkscape:document-units="mm"
     showgrid="false"
     inkscape:zoom="0.74029882"
     inkscape:cx="361.34057"
     inkscape:cy="561.93525"
     inkscape:window-width="1920"
     inkscape:window-height="1017"
     inkscape:window-x="-8"
     inkscape:window-y="-8"
     inkscape:window-maximized="1"
     inkscape:current-layer="layer1" />
  <defs
     id="defs61" />
  <g
     inkscape:label="Capa 1"
     inkscape:groupmode="layer"
     id="layer1">
    <path
       style="fill:#000000;fill-opacity:1;fill-rule:evenodd;stroke:#d39062;stroke-width:0.784834;stroke-linecap:butt;stroke-linejoin:miter;stroke-miterlimit:4;stroke-dasharray:none;stroke-opacity:1"
       d="m 64.249452,192.67673 c 0.16929,-0.36706 0.38679,-0.65508 0.6867,-0.68639 0.72849,-0.0783 1.81223,0.65195 3.13934,1.17727 0.43844,0.17375 0.79073,0.62534 1.1282,1.27533 0.33747,0.6496 0.63449,1.50417 0.88293,2.35452 0.49691,1.70078 0.81747,3.51512 1.0301,4.36563 0.16216,0.64881 0.0196,1.00969 -0.14706,1.22633 -0.16647,0.2168 -0.35493,0.27549 -0.24529,0.34358 0.2193,0.1354 1.6202,0.28254 6.57299,1.52062 2.3021,0.57524 3.83318,1.6121 4.95427,1.91303 0.56054,0.15027 1.03374,0.0783 1.42251,-0.29428 0.38882,-0.37254 0.68169,-1.059 0.98104,-2.25646 0.13172,-0.52672 1.49521,-0.66447 3.13935,-0.68638 1.64413,-0.0235 3.61279,0.047 4.90521,0.047 0.5452,0 1.06358,0.19957 1.56967,0.49072 0.50606,0.29114 0.97125,0.69812 1.37346,1.17726 0.80441,0.95828 1.32441,2.1962 1.32441,3.28651 0,0.41402 1.14774,1.21545 2.40356,2.06017 1.255808,0.84471 2.623758,1.74085 3.139328,2.25638 0.45871,0.45863 0.23589,1.06573 -0.14706,1.71682 -0.38303,0.65117 -0.9218,1.33278 -1.07915,1.96211 -0.11411,0.45706 -0.11677,1.09469 0,1.81496 0.11677,0.72004 0.36879,1.52437 0.78484,2.25638 0.41605,0.73178 0.98231,1.42106 1.76588,1.91304 0.78356,0.49228 1.77284,0.78484 2.99218,0.78484 0.97901,0 1.69075,0.13305 2.20735,0.34358 0.51662,0.21053 0.82958,0.47507 1.12819,0.73569 0.29858,0.26063 0.55788,0.53612 0.88294,0.68639 0.32504,0.15027 0.72849,0.21757 1.32441,0.0978 2.79627,-0.55881 7.2046,-2.84298 9.85949,-3.72792 2.97844,-0.99279 4.2031,-0.7717 4.85616,-0.88299 0.32652,-0.0548 0.52234,-0.18627 0.68677,-0.58855 0.16444,-0.40228 0.3068,-1.08022 0.58863,-2.20731 0.24701,-0.98802 0.74704,-1.52296 1.42252,-1.76589 0.6755,-0.24263 1.53693,-0.16984 2.50165,0 1.92944,0.34045 4.3225,1.12819 6.573,1.12819 1.02569,0 2.0155,0 3.04124,0 1.26242,0 2.17679,-0.11975 2.84502,-0.34359 0.66838,-0.22305 1.12177,-0.50168 1.52061,-0.83391 0.7976,-0.66525 1.37144,-1.4465 3.04122,-1.86396 1.71878,-0.42968 2.93377,-0.59795 3.97321,-0.88291 1.03951,-0.28488 1.90301,-0.67699 2.79601,-1.56968 1.95311,-1.95311 3.05046,-4.15189 4.90519,-5.54289 0.75525,-0.56664 1.03795,-0.59325 1.76589,-0.14714 0.72787,0.44611 1.92767,1.35626 4.4147,2.59981 0.87054,0.43515 1.43021,0.88518 1.81489,1.3244 0.38506,0.43907 0.6042,0.88267 0.68638,1.27533 0.16514,0.78531 -0.10801,1.42059 -0.047,1.71682 0.12444,0.62299 0.58934,1.11528 1.27533,1.52061 0.68638,0.40542 1.57751,0.70282 2.59981,0.93206 2.04452,0.45785 4.53812,0.58855 6.57301,0.58855 1.2351,0 2.51567,0.1628 3.77699,0.14714 1.26132,-0.0157 2.52515,-0.18314 3.62986,-0.73569 0.60029,-0.30054 0.83853,-0.63629 0.98105,-0.98105 0.14244,-0.34515 0.19253,-0.72082 0.34358,-1.03013 0.15027,-0.30993 0.40463,-0.59011 1.03013,-0.78484 0.62533,-0.19488 1.62243,-0.29427 3.18836,-0.29427 2.30209,0 3.85079,0.31462 4.75804,0.24497 0.45394,-0.0313 0.75996,-0.17062 0.88299,-0.49073 0.12288,-0.3201 0.0978,-0.8343 -0.0978,-1.61875 -0.22541,-0.90107 -0.12836,-1.59254 0.19644,-2.20731 0.3248,-0.61516 0.8754,-1.14893 1.47154,-1.61876 1.19245,-0.93965 2.63307,-1.73435 3.23751,-2.94308 0.45159,-0.90372 0.94012,-1.50605 1.47154,-1.9621 0.53142,-0.45629 1.09736,-0.71926 1.61868,-1.03012 0.52125,-0.31072 1.00093,-0.659 1.42255,-1.1282 0.42185,-0.4688 0.79783,-1.08193 1.03012,-2.01109 0.36002,-1.44086 0.3295,-2.48938 0.29428,-3.58086 -0.0313,-1.09149 -0.10018,-2.24762 0.29427,-3.82607 0.10723,-0.42811 -0.34828,-0.68717 -1.12826,-0.88291 -0.77952,-0.19566 -1.8822,-0.29662 -3.04123,-0.34358 -2.31805,-0.0939 -4.85243,0 -5.64095,0 -3.77206,0 -7.14067,-1.22634 -11.08577,-1.22634 -0.5729,0 -0.88487,-0.30523 -1.03013,-0.78484 -0.14479,-0.47976 -0.14948,-1.14188 -0.0978,-1.86396 0.10331,-1.44414 0.39837,-3.12731 -0.0978,-4.12042 -0.59716,-1.19424 -1.10792,-1.81035 -1.52061,-2.15823 -0.41246,-0.34828 -0.74822,-0.40072 -0.93198,-0.54003 -0.36707,-0.27863 -0.22854,-0.80308 0.58855,-4.07127 0.27315,-1.0943 0.42028,-1.81184 0.39211,-2.30546 -0.0313,-0.49385 -0.21053,-0.77169 -0.58856,-0.88298 -0.75604,-0.22227 -2.26139,0.14714 -4.70905,0.14714 -2.0586,0 -4.22725,-0.0877 -6.32772,-0.047 -2.10048,0.0391 -4.13631,0.17531 -5.98438,0.63786 -1.38905,0.34749 -2.45768,0.71299 -3.23744,1.17718 -0.77952,0.46411 -1.27361,1.04108 -1.61868,1.7659 -0.34514,0.72473 -0.50324,1.61789 -0.58855,2.74694 -0.0853,1.12905 -0.0978,2.49251 -0.0978,4.16942 0,0.60029 -0.33184,0.81951 -0.83384,0.83391 -0.50167,0.0157 -1.17295,-0.18784 -1.91303,-0.53925 -1.48023,-0.7036 -3.17341,-1.898 -4.02227,-2.74694 -0.47664,-0.47664 -0.76544,-1.02801 -0.93198,-1.61876 -0.16671,-0.5909 -0.20975,-1.26179 -0.24497,-1.91303 -0.0704,-1.30241 -0.0783,-2.65279 -0.68639,-3.87506 -0.96172,-1.92352 -1.78773,-3.59557 -2.89408,-4.80712 -0.55334,-0.60577 -1.1836,-1.08843 -1.91304,-1.42254 -0.72943,-0.33419 -1.5516,-0.53925 -2.55065,-0.53925 -0.72004,0 -1.52946,-0.27627 -2.30546,-0.68638 -0.77639,-0.41011 -1.5235,-0.96446 -2.25638,-1.56961 -1.4659,-1.21037 -2.7363,-2.58916 -3.43366,-3.2865 -1.55863,-1.55865 -2.25961,-2.27188 -2.45262,-3.0903 -0.193,-0.81842 0.10425,-1.74147 0.58863,-3.67893 0.63716,-2.54877 2.96003,-6.34643 3.6789,-9.22181 0.61046,-2.44234 1.2171,-4.15462 1.27533,-5.64095 0.0313,-0.74352 -0.10253,-1.431 -0.39211,-2.10924 -0.28958,-0.67856 -0.74195,-1.37982 -1.47154,-2.10925 -1.1262,-1.12623 -2.11871,-2.04514 -3.13932,-3.13936 -0.44776,1.03333 -1.71797,3.6059 -2.2564,3.87513 -0.9537,0.47664 -2.53558,1.09892 -3.67891,1.96203 -0.57165,0.43124 -1.04353,0.95217 -1.27536,1.52069 -0.23182,0.5682 -0.21899,1.18063 0.14706,1.91303 0.51937,1.03873 0.68521,1.66047 0.58863,2.0111 -0.0965,0.35063 -0.43719,0.44846 -0.93199,0.34358 -0.98955,-0.20975 -2.5501,-1.12787 -3.82607,-1.76589 -0.69562,-0.3475 -1.42712,-0.39915 -2.15829,-0.34358 -0.73115,0.0548 -1.46204,0.22775 -2.1583,0.44141 -0.69625,0.21366 -1.3712,0.46255 -1.96208,0.58855 -0.5909,0.12601 -1.10556,0.15888 -1.52062,-0.047 -1.18242,-0.5909 -1.83135,-1.14329 -2.10924,-1.61867 -0.27792,-0.47586 -0.22071,-0.88095 0,-1.3244 0.2207,-0.44377 0.61868,-0.92705 0.93198,-1.42255 0.3133,-0.49542 0.58864,-1.03646 0.58864,-1.66775 0,-0.79916 0,-1.55544 0,-2.35453 l -2.40356,-7.21063 -10.20285,-11.38013 -1.81493,-19.768033 -26.341018,-20.99436 c -1.85183,0.92595 -2.04435,2.19948 -3.62985,2.99223 -1.02472,0.51263 -1.79096,0.75134 -2.40356,0.78484 -0.61258,0.0313 -1.06174,-0.15418 -1.47156,-0.39211 -0.81967,-0.47663 -1.43325,-1.25349 -2.69788,-1.56968 -0.94361,-0.23558 -1.58289,-0.33263 -2.01113,-0.29428 -0.42827,0.0391 -0.66987,0.2074 -0.78484,0.39211 -0.22994,0.37019 -0.006,0.88948 -0.19621,1.0792 -1.07863,1.07864 -2.2028,1.53696 -3.53176,1.71682 -1.32896,0.18001 -2.85989,0.0978 -4.85616,0.0978 -1.99778,0 -5.88543,-0.46333 -8.82939,-0.68639 -1.47197,-0.11191 -2.74052,-0.18157 -3.3846,-0.0978 -0.32206,0.0391 -0.45949,0.12288 -0.44149,0.24497 0.018,0.1221 0.19096,0.31619 0.6377,0.53925 1.3413,0.67073 1.90572,1.08147 1.91303,1.3244 0.008,0.2434 -0.50496,0.27862 -1.27536,0.29428 -1.54081,0.0313 -4.08168,-0.18158 -5.39573,0.14714 -0.41269,0.10331 -2.37279,0.41402 -4.07133,0.83391 -0.84927,0.20975 -1.66228,0.46959 -2.15829,0.73569 -0.49605,0.2661 -0.69946,0.52672 -0.39242,0.83391 0.41042,0.41011 0.61876,0.95061 0.6377,1.52062 0.0188,0.56977 -0.1235,1.19346 -0.39242,1.81488 -0.53776,1.24293 -1.58158,2.48609 -2.64881,3.28651 -1.61981,1.21483 -3.33042,2.22977 -5.15048,3.18836 -1.82006,0.95867 -3.75301,1.85199 -5.641,2.79602 -1.711064,0.85552 -3.13292,1.94434 -4.709006,2.94316 -1.576094,0.99874 -3.271471,1.90927 -5.4447898,2.45259 -0.790672,0.19723 -1.537274,0.592463 -2.158299,1.079123 -0.621033,0.48681 -1.149385,1.06878 -1.569668,1.61875 -0.840559,1.09978 -1.228072,2.06017 -1.079142,2.06017 2.19708,0 3.251333,0.19175 3.973219,0.63786 0.721917,0.44611 1.102426,1.1919 2.011138,2.40352 0.06887,0.0924 1.2944328,0.50325 2.5507118,1.07912 1.256287,0.57603 2.545187,1.31345 2.845028,1.91303 0.454798,0.9096 0.714325,1.64607 0.73577,2.25646 0.02113,0.61047 -0.165061,1.0774 -0.539559,1.47154 -0.749075,0.78829 -2.256874,1.24598 -4.365648,1.66775 -0.9891058,0.19801 -1.4601988,0.60734 -2.2563968,0.88299 -0.238317,0.43515 -0.427796,0.72395 -0.735769,1.42247 -0.497766,1.12905 -0.918621,2.38794 -0.637704,3.09029 0.54629,1.36573 1.191977,2.31085 1.520612,3.28651 0.164278,0.48759 0.231273,0.99177 0.19621,1.52061 -0.03522,0.52907 -0.159426,1.10377 -0.490487,1.76589 -0.499409,0.9989 -1.239679,1.92462 -1.863984,2.89409 -0.62432,0.96939 -1.128198,1.97345 -1.128198,3.09029 0,1.21859 0.516158,2.70523 1.226304,3.97321 0.710098,1.26797 1.598954,2.34662 2.354502,2.6488 1.067097,0.42654 1.7753718,0.74978 2.2563958,1.07919 0.481017,0.3295 0.726065,0.63786 0.833891,1.03005 0.21562,0.785 -0.09807,1.87547 -0.09807,3.87514 0,2.61342 0.552395,4.13482 0.686697,5.44482 0.06731,0.65508 0.02974,1.2596 -0.245282,1.91303 -0.275102,0.65351 -0.750719,1.33927 -1.618725,2.20731 -0.7660578,0.76621 -2.0008688,1.566 -3.0902788,2.45259 -1.089418,0.88667 -2.035111,1.86177 -2.305454,2.94316 -0.218359,0.87344 -0.270484,1.54072 -0.19621,2.10924 0.07435,0.56821 0.253813,1.03654 0.490565,1.47154 0.473347,0.87015 1.130218,1.67589 1.471563,3.04122 0.262031,1.04805 0.360176,1.68544 0.245283,2.15832 -0.114894,0.47272 -0.446502,0.77169 -0.88294,1.03012 -0.872905,0.51733 -2.29333,0.96892 -4.12038,2.79594 -0.290677,0.29037 -1.34640205,0.8156 -1.71683005,1.37348 -0.185175,0.27862 -0.225873,0.55411 0.09807,0.83391 0.323939,0.28019 1.02148405,0.54786 2.20734805,0.78484 2.129428,0.42576 3.850272,0.73882 5.297636,1.3244 1.447363,0.58543 2.6077198,1.41676 3.6789108,2.84502 1.257069,1.67612 2.037841,3.29002 2.943133,4.56183 0.452685,0.6363 0.938234,1.16615 1.520612,1.61876 0.58237,0.45237 1.252013,0.81575 2.109241,1.03004 1.65404,0.41324 2.68394,0.98661 3.53176,1.7659 0.84783,0.77952 1.55366,1.77724 2.50166,3.04122 0.73076,0.9744 1.39951,1.59833 2.10925,2.01118 0.7097,0.41324 1.45241,0.58542 2.20734,0.73569 1.50988,0.30054 3.16026,0.37802 5.24858,1.42247 2.1291,1.06456 3.37046,2.15181 4.65996,3.09029 1.28949,0.93848 2.65195,1.72989 4.95426,2.30545 1.18324,0.29585 2.91811,0.19645 4.85617,-0.24497 1.93805,-0.44141 4.08272,-1.23204 5.93531,-2.15831 1.47845,-0.73882 3.10868,-1.29646 4.6109,-2.15832 0.75111,-0.43124 1.46893,-0.95389 2.10924,-1.56968 0.64029,-0.61595 1.21609,-1.35297 1.66778,-2.25638 1.27561,-2.55121 1.34018,-2.89502 1.37346,-2.35453 0.011,0.19019 0.0524,0.57603 0.0981,0.93198 z"
       id="Empedrado"
       inkscape:label="#path2807" />
  </g>
</svg>
