<?xml version="1.0" encoding="UTF-8" standalone="no"?>
<!-- Created with Inkscape (http://www.inkscape.org/) -->

<svg
   width="210mm"
   height="297mm"
   viewBox="0 0 210 297"
   version="1.1"
   id="svg1283"
   inkscape:version="1.1.2 (b8e25be833, 2022-02-05)"
   sodipodi:docname="vector.svg"
   xmlns:inkscape="http://www.inkscape.org/namespaces/inkscape"
   xmlns:sodipodi="http://sodipodi.sourceforge.net/DTD/sodipodi-0.dtd"
   xmlns="http://www.w3.org/2000/svg"
   xmlns:svg="http://www.w3.org/2000/svg">
  <sodipodi:namedview
     id="namedview1285"
     pagecolor="#ffffff"
     bordercolor="#666666"
     borderopacity="1.0"
     inkscape:pageshadow="2"
     inkscape:pageopacity="0.0"
     inkscape:pagecheckerboard="0"
     inkscape:document-units="mm"
     showgrid="false"
     inkscape:zoom="0.52347032"
     inkscape:cx="155.69173"
     inkscape:cy="611.30496"
     inkscape:window-width="1920"
     inkscape:window-height="1017"
     inkscape:window-x="-8"
     inkscape:window-y="-8"
     inkscape:window-maximized="1"
     inkscape:current-layer="layer1" />
  <defs
     id="defs1280" />
  <g
     inkscape:label="Capa 1"
     inkscape:groupmode="layer"
     id="layer1">
    <path
       d="m 63.257373,90.711596 c -1.569436,1.4072 -4.447666,0.44769 -5.240414,3.41769 -3.514737,-0.63831 -4.896607,0.85623 -4.329067,4.30022 -1.336462,0.93069 -3.214353,2.517544 -4.81317,3.560394 -2.977303,-0.0143 0.09517,4.99771 0.968253,5.24046 0.324166,2.15648 2.22813,3.86384 5.354177,3.53156 2.940954,1.8578 1.582189,3.28992 -2.33474,2.62021 -0.454702,-0.6763 -3.808534,1.15821 -4.899079,1.82277 -2.572019,0.17134 -2.51329,2.97386 -4.81317,3.41768 -1.891746,0.88058 -1.987092,3.41063 -5.354335,3.53157 -2.231486,0.11646 -0.275294,4.16086 -0.967303,5.0137 0.379674,2.16207 -4.35095,2.08155 -1.482123,4.66968 -1.761573,1.02004 -1.722331,3.84084 -3.531594,4.8132 -0.595551,2.8703 -3.351069,1.81113 -3.531594,-1.02514 1.24557,-4.19689 -2.776909,-3.03 -3.417639,-1.1678 -4.193836,2.09104 -1.451487,-1.01737 0,-1.82277 -1.458259,-1.45384 -5.325828,0.0286 -6.494131,-2.0512 -2.673913,-0.80235 -3.585455,0.38564 -5.866339,-0.56901 -3.6040314,0.69897 -4.4022584,-1.40787 -7.8037994,-0.91141 -0.555551,2.46581 -2.995688,1.95159 -4.32902498,4.44298 1.20244298,1.63596 -0.172535,5.84941 4.18629498,4.32905 0.902441,1.91712 3.897633,1.74148 2.762939,5.69573 1.093514,1.87813 1.265439,4.80809 -0.911351,5.69649 -0.608304,2.80191 1.827685,4.97127 4.0157014,3.53157 0.997944,2.23795 5.979273,-0.68595 7.376516,2.62025 2.979323,0.88077 4.210999,-2.8231 5.72456,-0.91136 4.214878,-1.37642 2.241494,3.43549 5.895343,2.6202 3.212754,0.44435 0.241216,5.855 1.96528,7.06318 0.148242,2.39164 3.921234,1.7687 6.032021,2.93903 2.094427,0.18948 3.556451,0.34698 4.876089,-0.31882 2.93517,0.41141 4.041966,-3.45964 7.176919,-2.62021 2.475804,-0.003 3.699295,-4.49743 5.126688,-1.652 -0.811476,5.26714 -2.364889,10.44736 -3.531594,15.66443 3.91282,-1.05821 4.706064,1.13044 5.925107,4.10235 2.103556,3.7398 4.164406,2.26534 6.213577,-0.63201 0.483229,2.45668 -1.153235,6.27982 1.873739,7.80797 0.33958,4.38694 3.53989,-1.03436 3.09884,-2.69304 3.19025,0.72584 5.95795,-3.72625 6.47064,0.55698 0.22733,3.71847 2.91104,2.33408 5.24045,3.95882 -0.86997,3.49568 5.7442,0.043 5.24042,4.32901 0.85921,3.30762 -0.207,3.21551 3.27514,1.82281 2.12658,-0.61712 2.89645,-2.5909 4.6994,-3.53161 2.41045,-1.21548 3.53791,0.25773 6.94927,0 2.19947,-1.67419 4.21226,-1.60017 6.20867,-2.62021 2.90738,-0.71524 3.03717,-2.25618 5.18355,-4.44297 2.49187,2.61496 0.31963,5.20175 1.95413,7.95154 2.70904,3.27312 -5.90558,2.87573 -2.80835,6.08977 1.38122,2.70535 2.10858,6.46085 5.9519,5.21158 2.41186,-0.39089 4.98716,-1.41141 5.38319,-3.41769 3.54423,0.94964 2.36812,-3.25823 6.1518,-3.53161 0.0556,-4.38651 1.59284,4.33339 4.32903,2.6202 2.03421,3.09677 5.55302,0.0673 7.74784,1.59607 2.57491,4.32379 3.15943,-1.6814 3.64442,-1.59607 0.74905,-1.86438 2.80298,-3.50431 4.32902,-4.329 0.70524,-2.11438 2.0924,-3.54674 3.5316,-4.92712 2.97878,-0.0702 2.53003,-2.63171 5.12764,-3.73212 -0.87896,-2.71805 2.56494,1.0272 4.18538,0.68466 2.22048,-0.18089 2.79559,4.94125 5.38409,2.84691 1.57298,0.51178 2.00113,3.58616 1.93555,6.26646 0.27439,3.66983 2.52921,1.23061 2.62021,0.57001 1.52731,-3.43072 3.03954,-0.0191 6.15181,-0.91136 -0.47399,-3.22993 3.49494,-3.78324 6.00903,-3.53157 3.54777,0.003 4.11181,-0.51579 7.09201,0 0.65397,-2.11171 3.59633,-1.57592 4.32906,0 1.3475,1.1269 4.78359,2.86214 6.32259,0.91132 1.4976,-1.36941 6.12477,0.39089 5.98101,-2.62021 0.72527,-2.46671 4.23571,-4.22925 2.32314,-5.13464 -1.99017,-1.90362 -5.91924,-2.76969 -6.6522,-5.34618 3.37444,0.33935 2.94126,-3.33707 5.24045,-3.53161 0.60815,-3.18817 2.24744,-2.27623 0,-5.29725 -0.86856,-2.02261 -1.4667,-3.79655 -2.96254,-5.52592 -2.11177,-2.4554 4.24213,-1.95388 2.27785,-4.67135 0.59978,-1.14427 -1.99383,-3.46904 -2.90377,-4.5558 -2.73694,-0.005 -1.75236,-3.6159 -5.24046,-3.53157 -2.86619,0.19855 -5.29293,-0.66413 -7.69094,-1.59602 -0.57142,-1.86171 -1.77557,-3.93147 -0.0559,-5.46716 1.35367,-0.93298 1.53621,-6.21463 -1.45236,-6.03789 -1.34567,-1.47985 -4.0951,-2.26864 -4.32907,-4.44297 -2.57472,-2.0816 -4.04306,0.98667 -4.75626,-0.79744 -1.97907,-0.91642 -4.37131,-1.41961 -6.86359,-1.82277 -1.03457,-1.83327 -4.3086,-1.82134 -5.44002,-3.10435 -2.68305,0.21238 -2.01814,-4.3291 -4.32907,-4.32905 -0.10209,-0.9758 -0.35581,-4.04054 -2.14153,-6.03202 0.22102,-3.5919 -2.81102,-2.59253 -3.09888,-5.84431 -0.79264,-0.98062 -2.25002,4.05437 -1.82277,6.06591 -2.52379,0.89518 -3.60144,3.61012 -5.01368,5.15645 -0.63168,-2.36772 -5.23662,1.80177 -5.95129,-0.68465 -1.61205,-2.11692 -2.48673,-1.12289 -5.46807,-1.70885 -1.75271,0.89609 -4.17617,1.12137 -6.23748,1.70885 -0.8345,2.28778 -4.54047,-0.86655 -6.15181,-1.70885 0.97104,-3.75264 -1.52319,-4.04 -3.10435,-5.2404 -1.76465,-0.99799 -0.5133,-5.01194 -2.13606,-6.15182 -2.72701,-0.48587 -1.23963,-4.10955 -3.98951,-1.2509 -1.39995,1.57105 -4.90944,1.85041 -7.22001,0.6133 -1.33254,-2.24478 -1.00167,-5.11345 -1.89156,-6.96658 -0.26928,-2.43635 -1.32485,-4.08654 -3.53159,-4.58548 -1.6488,2.72024 -5.01505,1.11177 -7.12006,2.6202 -2.27955,-0.48305 -3.55032,-1.97493 -5.66765,-2.6202 -1.48784,-2.371834 -5.66831,2.1204 -6.46517,-0.91141 -2.42685,-0.354624 -2.96326,-2.599924 -5.24041,-3.104314 -1.47265,-1.48729 -2.17702,-3.91449 -3.87393,-5.09866 -3.1316,-1.35976 -3.05502,-0.61163 -5.80947,-1.36649 -1.54835,1.89699 -3.42853,-0.65592 -6.03789,0.79748 0.47723,-1.54977 -1.92908,-0.48611 -2.734124,-0.79748 z"
       style="fill:#000000;fill-opacity:1;stroke:#d39062;stroke-width:0.6314;stroke-miterlimit:4;stroke-dasharray:none;stroke-opacity:1"
       id="Paillaco" />
  </g>
</svg>
