<?xml version="1.0" encoding="UTF-8" standalone="no"?>
<!-- Created with Inkscape (http://www.inkscape.org/) -->

<svg
   width="210mm"
   height="297mm"
   viewBox="0 0 210 297"
   version="1.1"
   id="svg1283"
   inkscape:version="1.1.2 (b8e25be833, 2022-02-05)"
   sodipodi:docname="vector.svg"
   xmlns:inkscape="http://www.inkscape.org/namespaces/inkscape"
   xmlns:sodipodi="http://sodipodi.sourceforge.net/DTD/sodipodi-0.dtd"
   xmlns="http://www.w3.org/2000/svg"
   xmlns:svg="http://www.w3.org/2000/svg">
  <sodipodi:namedview
     id="namedview1285"
     pagecolor="#ffffff"
     bordercolor="#666666"
     borderopacity="1.0"
     inkscape:pageshadow="2"
     inkscape:pageopacity="0.0"
     inkscape:pagecheckerboard="0"
     inkscape:document-units="mm"
     showgrid="false"
     inkscape:zoom="0.52347032"
     inkscape:cx="155.69173"
     inkscape:cy="305.65248"
     inkscape:window-width="1920"
     inkscape:window-height="1017"
     inkscape:window-x="-8"
     inkscape:window-y="-8"
     inkscape:window-maximized="1"
     inkscape:current-layer="layer1" />
  <defs
     id="defs1280" />
  <g
     inkscape:label="Capa 1"
     inkscape:groupmode="layer"
     id="layer1">
    <path
       d="m 182.19176,62.073734 c -0.43236,1.599682 -1.56503,2.187389 -1.13368,4.288371 -0.31787,2.162274 -2.25963,2.152536 -2.26743,4.436261 -1.31058,1.416477 -4.7575,-0.05654 -5.29887,-1.971667 -1.23722,-1.70877 -3.49203,0.515892 -4.92916,-0.985839 -0.76169,0.845465 -2.96189,1.507224 -3.77082,0 0.0531,-2.437397 -2.27283,-2.524639 -4.16515,-1.774497 -1.43981,0.353102 -2.22378,2.547702 -4.28837,2.168835 -2.15683,-0.514726 -3.08782,1.359388 -5.54532,1.010481 -2.26073,1.664082 -4.71581,0.413197 -6.80225,0 -1.75362,-1.44052 -3.46427,0.445142 -3.99263,2.168831 -0.91226,0.4099 -1.21995,3.044131 -2.46459,1.601984 -0.71976,-0.26386 -1.65196,-2.421361 -2.66175,-1.404819 -0.24872,1.894732 -2.20218,2.385051 -3.57365,2.760335 -0.64827,2.375379 0.70086,2.301328 1.87309,3.598293 -0.84866,1.053399 -2.01691,1.871172 -3.42577,1.577338 0.27322,1.759569 3.02545,0.282489 1.7252,2.784978 -1.13294,0.691442 -2.93544,-1.337036 -4.51019,-0.22183 -1.80445,-0.561763 -4.35069,1.00694 -2.31671,2.390649 -0.29608,1.620942 -0.17175,3.17556 -0.96119,3.770815 2.04039,0.367987 4.16719,0.702912 5.69319,1.577338 2.24569,0.421475 3.11322,-1.378704 3.62295,-2.932855 1.03668,-0.885512 1.33029,-1.26339 2.78497,-1.404819 1.43808,-0.427043 2.54638,0.472324 3.5983,1.355526 0.62445,1.037237 1.46769,1.657733 2.68639,2.193485 1.08282,0.160814 2.12996,1.011602 2.26742,2.784975 1.57556,-0.07035 2.74838,1.181987 3.03145,2.563169 0.42355,1.108645 1.47163,1.306089 2.09489,2.390649 0.4406,1.44653 2.57624,0.910205 3.91869,1.601984 1.91816,0.181321 3.11918,1.03645 3.45042,-1.183004 0.54645,-2.138114 2.38957,-1.387844 4.36232,-1.601983 0.88371,1.295859 -0.82734,2.789052 0.76402,3.770814 0.84117,1.835278 -0.4026,2.081728 -1.13371,1.774508 -1.05108,-0.47051 -1.11884,0.45561 0,1.18299 -0.44323,2.41811 -1.6727,1.23899 -2.09489,0 -1.19702,-0.0478 -1.88973,2.35987 -2.4646,0.41898 -1.1118,-0.23482 -2.76116,-0.62575 -3.7708,-0.41898 -1.5103,-0.28153 -2.315,0.50001 -2.85892,-0.76401 -1.0272,-0.78694 -0.86268,-2.306454 -1.70057,-2.193488 -1.54532,0.02623 -1.42234,-1.949138 -2.83427,-0.616141 -0.50884,-1.330359 -2.06958,-0.902446 -2.07026,-2.760336 -2.03356,-0.214885 -2.59964,-1.689875 -2.09489,-3.844759 -0.39671,-1.442717 -1.67158,-2.415214 -3.40113,-1.897725 1.76884,-1.790042 -2.66661,0.134493 -1.33088,0.788666 1.78182,0.08984 -0.30527,0.907397 -0.93653,1.183004 -1.35833,0.241831 -2.90085,-0.304044 -3.40113,1.207645 -1.05463,0.371806 -1.58402,2.158315 -0.19715,2.563169 0.77268,0.862247 0.84018,5.792585 -0.36969,2.982143 -0.79474,-1.538979 -0.45053,-2.481019 -0.98584,-3.179316 -0.32196,-1.298545 -1.22788,1.276881 -1.89773,1.577341 -2.14316,1.060332 0.87747,3.630547 0,6.136817 0.17256,0.94285 -1.43239,4.10019 -1.30622,2.58781 0.16349,-1.70259 0.49117,-3.29608 0,-4.90453 -0.64719,-1.44349 -1.92128,-0.8467 -3.22861,-0.2218 -0.70204,0.7267 -1.56945,1.7223 -1.89774,3.13002 -0.8198,1.25314 -0.81829,3.59508 -1.33087,5.29886 0.49467,2.29151 -0.2015,5.26888 -0.36968,6.8269 0.11607,2.53013 -1.1646,3.94006 -1.33089,6.53116 0.35288,1.18801 -0.38241,3.50617 -0.17252,4.58412 0.1025,1.15346 -2.2896,3.37145 0,3.77081 0.70089,-0.78344 1.83531,-1.49789 2.07024,-2.58781 0.8171,-0.22278 2.46027,-0.41185 2.83427,-1.79915 1.95213,-0.17255 1.81848,-3.01195 3.03144,-3.77081 0.89671,-1.67006 1.49654,-3.94835 3.03145,-5.15098 2.09211,-1.69118 0.90809,0.98195 2.11954,0.19718 0.24871,-1.09506 1.73892,-1.85055 1.87308,-3.17932 0.57131,-0.96646 3.60776,-1.18831 1.70057,0.22183 -2.02343,-0.14999 -0.68077,2.10869 -2.07026,2.9575 0.62419,2.11818 5.40799,-0.10605 6.2354,1.79915 1.13943,0.36766 2.64616,-1.693 2.46458,-0.22183 -1.467,0.69261 0.12943,2.53395 -1.70055,2.4153 -1.08245,0.26359 -3.22151,0.79919 -3.96799,-0.22183 -1.47961,0.42872 -3.23357,0.27268 -4.92917,0.81331 -1.93117,-0.60036 -1.55112,1.41812 -3.05609,1.35552 -0.72108,0.97794 -1.87406,2.25835 -2.07024,3.77082 -1.54,1.27977 -2.91413,2.26124 -3.96798,3.99263 -1.43998,1.12798 -2.38362,2.54608 -3.03144,3.96797 1.85522,0.43489 -1.50456,3.08796 1.30623,2.76034 1.50201,-0.0424 2.47417,0.7575 4.36231,0.98584 -0.62698,0.78461 -2.57384,-0.4304 -3.96798,0 -1.0805,-0.64555 -1.98637,0.21843 -2.83427,-0.39434 -0.3579,1.80216 -1.72169,2.18208 -1.13371,3.99263 -1.30252,0.68198 0.53527,1.4567 1.70057,0.98583 -0.25602,1.55189 -1.41946,1.36907 -2.0949,1.38017 -0.99402,0.37462 -2.07737,1.79033 -2.07026,2.76033 1.05771,1.66281 -0.0158,3.58561 0.93655,5.42209 1.2669,0.64252 -0.76521,2.88242 0.19715,4.28838 -1.29611,1.42365 0.8801,2.95469 -0.76403,3.99263 0.17289,1.99299 -0.35688,2.80339 0,3.57365 0.52294,0.71632 1.44886,3.21118 0,1.97167 -2.37079,-0.25385 -0.064,3.7237 -2.07024,4.36231 0.70586,1.3952 -1.06695,4.23327 0,4.36232 1.3148,-0.7291 1.11868,-2.32446 2.83427,-2.36601 0.92862,-0.90111 0.71219,-2.87774 2.07024,-3.17931 1.37979,-2.26295 -1.80509,-2.20962 -0.93653,-3.57365 0.58866,-0.69934 1.57701,-1.96898 2.6371,-2.366 0.3046,-2.45268 1.81774,-2.99711 2.29206,-4.95382 0.83084,-0.67338 1.76579,-1.62476 2.26742,-2.80962 1.05305,-1.65554 2.78527,-2.63762 2.26742,-5.32351 0.73876,-0.64723 1.48936,-2.62939 2.83427,-1.57733 1.86981,-1.16105 -0.17753,-0.42202 0.56686,-1.60198 1.46329,0.18823 2.42191,1.19025 1.92238,1.97167 0.37484,1.38852 -1.4556,0.95298 -2.11955,1.79914 -1.92496,-0.37336 -1.02165,2.15157 -2.07025,2.56317 -1.14707,1.49198 -1.33641,3.82675 -2.66175,4.97846 -1.3521,1.01791 0.18871,1.06376 1.33088,1.18301 0.1981,0.88097 -1.85562,0.71998 -2.63711,0.39432 -1.04023,0.46139 -1.22742,2.03732 -2.0949,2.78499 0.0647,1.67977 -0.95954,1.79824 -0.56685,3.94333 -0.011,1.13481 -1.55922,2.1388 -1.5034,3.77082 0.11667,-0.39508 1.03889,2.94319 1.5034,1.01048 1.42926,-1.70038 3.62479,-0.0928 5.49602,-0.19718 0.72317,0.46585 3.04247,0.81654 1.70056,1.97167 -0.42859,-1.52272 -1.42891,-0.60443 -2.66174,-1.01048 -2.05799,0.501 0.81978,0.69432 1.33087,1.40482 -1.00983,0.28001 -2.73131,0.0682 -3.59829,-0.59151 -1.30928,0.84669 -2.45516,0.0188 -3.96798,-0.19718 -1.23005,0.6347 -1.90857,2.59231 -2.46459,3.37648 -0.50233,-0.0289 0.88996,-3.56448 -0.93654,-0.98583 -0.70657,1.39907 -1.47521,2.58704 -2.66176,2.98214 0.5437,2.38664 -2.13361,1.28531 -2.07024,2.95751 0.69877,1.42681 -3.03259,0.68004 -0.96119,1.7745 -0.80149,1.08446 -0.48629,3.35778 -1.70057,3.99263 -1.43328,0.70899 1.14112,0.51446 1.13371,1.7745 1.29723,0.37493 1.25998,2.13895 2.26742,2.58781 1.09826,0.0834 1.94025,1.26646 2.85892,0.76403 0.97879,0.76052 -1.90342,1.44993 -2.0949,0.41898 -1.63012,0.44807 -1.5832,-1.38061 -2.83427,-1.60199 0.90869,-2.58941 -3.85653,-0.91394 -2.26742,-0.17252 -0.1009,1.85497 -2.20599,2.6094 -2.0949,4.75664 -0.44899,1.79305 -1.76925,3.33216 -3.96798,2.78498 -1.455789,0.077 0.20791,-1.64623 -1.503399,-1.40481 -0.27909,0.96575 -1.84324,-3.13756 -1.70056,0.39433 -1.02345,0.96358 -1.67189,3.10085 -0.19718,1.77451 1.08997,0.78589 2.165909,0.35865 3.598289,1.01048 0.12934,0.8781 0.60081,3.31191 -0.19715,3.94333 -2.036049,-0.17161 -0.47988,2.42541 -1.503399,2.98216 -0.98883,0.84255 -0.77259,3.42451 -2.29206,3.59829 -1.04705,-0.47543 -2.80064,-0.51508 -2.63711,-2.19347 -2.20709,-0.12579 -0.17694,-2.3815 -1.70056,-3.17931 0.19593,-1.20618 0.35621,-2.61751 0.93654,-3.96801 1.20835,-0.51862 2.21389,-1.40557 1.52805,-2.9575 0.41757,-0.84142 2.96588,-1.84519 1.1337,-2.41529 -2.83069,-1.66034 1.33365,0.1497 0.73938,-1.87309 -0.96335,-1.98152 2.954389,-1.65383 1.72521,-2.85891 -1.56582,-1.07496 0.17762,-0.74404 0.739369,-1.20765 -0.448259,-0.19161 0.92501,-3.69761 0.76403,-0.78867 0.87641,0.96295 0.42622,2.79114 1.70055,2.95751 0.6275,-0.74194 -0.2167,-2.4738 -0.93653,-3.15467 0.15771,-0.80576 -0.0419,-3.78561 1.33087,-3.96798 0.36338,-1.38967 2.85972,-1.13521 1.70056,-2.58782 1.45514,-0.89929 2.1438,-2.86267 3.03144,-4.75665 0.71032,-1.43457 0.34456,-4.38774 1.13372,-5.3728 0.58084,-1.89042 0.34785,-2.75355 0.17252,-4.732 -0.99301,-1.66887 -2.79055,-1.67448 -4.53484,-2.16883 -0.29217,-1.28366 -2.51535,-1.56884 -1.50339,-3.549 -1.05274,-0.5484 -1.42523,-1.23814 -3.031439,-1.2323 -2.04048,0.34989 -4.58715,0.23909 -4.55948,2.78499 -1.31525,1.41147 -0.41818,4.16194 -0.36969,6.45721 -0.0619,2.23705 -1.02116,3.5152 -1.70056,5.24956 -0.80347,1.56172 -2.50674,1.94771 -3.79547,3.17931 -0.91953,-1.0009 1.62496,-1.25287 1.70057,-2.34135 1.04787,-0.66058 1.22109,-2.35492 2.29206,-3.22861 0.56167,-1.62751 0.58929,-4.24593 -1.52804,-3.549 -0.45738,-0.96522 2.18963,-1.17498 1.52804,-3.00679 0.31933,-2.51925 -2.25191,0.19823 -3.59829,0.41898 -1.78577,0.74294 -3.07552,2.78631 -5.29886,2.76034 -1.22478,1.2158 -2.73311,0.21807 -3.79546,1.183 -1.03948,0.67551 -2.28739,1.92483 -4.16515,1.77449 -0.97505,-1.60528 -4.05562,-0.47961 -5.29885,-2.36599 -0.89817,-0.49252 -2.22006,-1.30751 -2.66175,-2.16884 -0.74168,-0.54952 -0.44094,-2.0011 -0.17253,-3.17931 0.63333,-0.70131 0.80056,2.16565 1.50339,2.58781 0.17122,1.30319 1.99267,1.79906 2.83428,2.366 1.08393,0.45987 1.47833,0.95803 2.85892,1.20765 1.40729,0.28329 2.26988,0.94601 3.00679,-0.2218 1.52207,-1.92797 4.03794,-1.04823 5.69319,-2.16884 1.54172,-1.98528 4.69029,-1.82503 6.2354,-3.77081 1.1517,-0.25906 1.76983,-1.44848 2.66175,-2.19349 0.99398,-1.02638 1.79426,-2.46327 2.07025,-4.06656 1.14353,-1.63454 1.09158,-4.5364 0.96119,-6.45722 -2.24187,-0.0972 -2.44036,-2.39526 -3.79546,-3.35183 -1.30806,0.0375 -2.44387,3.87576 -0.56686,3.96798 -0.6083,1.16804 0.25841,3.02633 -0.19715,4.16515 -1.65754,2.06063 2.50291,0.29042 0.19715,1.99631 -1.54236,0.84256 -1.81532,1.34113 -3.40112,1.97167 -1.06142,0.77579 -1.90922,1.8812 -3.40113,1.97167 0.7951,-1.09641 -1.71404,-1.09171 -2.46458,-0.59151 -1.81128,0.87397 -3.48181,1.12235 -5.29886,0.59151 -1.33296,0.34122 -2.22731,-0.85458 -2.0949,-1.57733 1.33457,0.888 2.72937,0.96318 4.55949,0.78866 0.98245,0.4247 2.28435,-0.69385 3.00679,-0.98583 1.49172,-0.29951 4.29441,1.43662 5.12633,-0.78867 1.27843,-0.90851 2.16755,-1.16779 2.26742,-2.78498 -0.115,-1.99655 0.68437,-4.23 -0.19718,-5.54532 -0.94579,-1.12903 -2.30307,1.27567 -3.20396,0.17253 -1.30522,0.59451 -3.58971,1.92727 -5.29886,0.81331 -0.7381,0.82135 -3.46785,2.18642 -3.79546,0.19715 -0.62114,-0.43953 -3.30303,-1.34606 -0.93654,-1.01047 1.01965,0.66595 3.57294,1.4642 4.53484,0 1.56797,0.76523 2.54423,-0.48662 3.79546,-0.76403 1.61587,0.22946 2.98831,-0.13846 3.20395,-1.40481 2.03987,0.81696 1.94437,-1.63663 2.83428,-2.36601 1.35553,0.81733 1.72576,-1.55755 1.33087,-2.36599 -0.0286,-0.53456 -0.66848,-2.50322 -2.07025,-1.8238 -1.31678,0.32734 -2.63881,0.60632 -3.03144,1.60198 -0.6896,-1.00652 -1.59635,0.65393 -2.83427,0.39434 -1.53683,0.69964 0.45098,-1.57922 1.30623,-1.38017 0.5747,-0.69726 3.61349,-0.11193 2.46458,-1.60198 -1.2066,-0.21819 -2.25879,0.19822 -2.83427,-0.78866 -1.38854,-0.0376 -3.03456,0.38041 -3.96798,1.01047 -1.01673,-0.25086 -3.17464,1.11402 -3.2286,0 1.11183,-0.0347 1.9309,-0.78761 3.03144,-1.01047 0.46624,0.10337 1.37868,-0.88358 2.66175,-0.78867 0.9909,-1.03012 2.80306,-0.52197 3.57365,-1.57734 0.92699,-0.19229 2.32381,-0.78966 1.89772,-1.99631 -0.90607,-1.92414 -1.37876,-0.88254 -2.07025,-1.97167 -0.88006,-1.09672 -3.43533,-0.72242 -4.36231,0.19718 -2.11262,0.26121 -3.68693,0.78276 -5.29886,1.7745 -1.37606,1.25507 1.21032,3.31773 -0.36969,2.78499 -0.45264,-0.8176 -1.99945,-2.08384 -0.56685,-2.78499 0.63681,-1.85425 -2.54899,-0.92033 -2.85892,-2.16883 -1.2275,0.36537 -1.82415,0.95267 -3.20396,1.183 -0.916,1.17811 -1.87534,-0.69718 -2.83427,0 -0.32346,1.24977 1.01257,1.08119 1.30623,2.16884 0.97817,0.21703 1.87468,1.00851 2.29206,1.99631 -0.98085,0.14713 -1.55245,-0.88744 -2.46458,-0.98583 -0.93104,-1.24092 -2.63615,-0.23826 -1.52805,1.38016 1.13974,1.12228 1.1693,2.08855 2.46459,2.56316 0.80958,0.88545 0.78731,2.90215 2.26742,3.00681 -0.22076,1.0808 3.45581,0.82139 1.70056,1.77449 -0.78777,-0.0849 -2.51702,-1.35299 -3.00679,0.17253 1.28391,1.59774 -0.88887,1.5786 0,2.58781 -1.20023,0.61735 -1.05025,1.62896 -1.33088,3.17932 -0.43479,0.49117 -3.18672,0.14496 -2.66175,-0.5915 1.28198,0.4247 0.84578,-2.31219 1.89773,-3.17931 1.14648,-1.31943 1.0377,-4.12616 -0.76402,-4.75665 -1.51336,-0.13548 -1.45086,4.01559 -2.07025,0.81331 -0.31879,-0.81358 2.05518,-1.7864 0.76402,-2.58782 -1.01063,0.20675 -2.23026,0.63914 -3.03144,0.81332 -1.7608,0.0844 1.66635,-1.5024 1.33088,-2.80963 0.43118,-0.83454 -0.95707,-2.0299 -1.52805,-2.56317 -1.49541,-1.1602 -2.47,0.7612 -2.46458,2.19348 -2.079692,0.73025 -0.43505,-0.94216 -0.739378,-2.51387 -1.074866,-1.48439 -2.317104,1.04875 -2.464585,-0.0247 -1.697368,-0.90413 -1.895764,1.62433 -2.661749,2.71104 -0.06915,1.81768 -1.041064,2.26218 -2.464585,2.78497 -0.204095,-0.5249 0.422992,-1.9351 1.133707,-2.58781 -0.702497,-1.17192 0.960244,-1.79855 0.19718,-3.47506 -0.563638,-1.46083 -2.36847,-0.0966 -3.203961,0.0986 -1.507433,0.2269 -2.301986,1.27372 -3.79546,1.40481 0.735629,1.1149 0.360082,3.08435 1.897728,3.17931 0.91002,0.86286 -2.072301,0.63808 -2.094895,-0.39432 -0.45663,-0.45925 -1.651793,-0.0714 -2.464585,0.5915 -1.941123,0.35211 2.221895,1.60733 -0.369687,1.18299 -0.967522,-0.26001 -1.800733,-1.04981 -2.637107,-1.60197 -0.08042,-2.01965 -3.419951,0.71522 -1.330874,1.01047 1.183519,0.84911 1.682369,1.84643 3.031438,1.77451 1.27261,0.28493 1.509233,1.31296 2.637104,1.57732 0.522226,1.0396 1.979021,0.99368 3.031442,1.40482 0.398591,0.99511 -2.145918,0.25629 -2.637107,0 -1.392723,-0.65844 -2.540974,-1.58044 -4.165149,-1.99631 -1.227519,0.41969 -1.878723,-2.33867 -3.425773,-1.35552 1.386162,1.77014 -0.738264,1.99528 -0.739373,0.17253 -0.520333,-1.05114 -1.612944,-1.63934 -2.094899,-2.58782 -1.310277,-0.31862 -2.115773,0.76296 -3.031438,0.41898 -0.161976,0.81345 -1.892113,1.78938 -0.936543,2.76034 -0.49212,0.7064 1.052883,1.85496 0.197179,2.78497 1.012768,0.55296 2.442849,0.88815 2.267417,1.40482 -2.092791,-0.11166 -0.556531,1.80032 0.172529,2.16883 0.777246,-0.12841 2.043775,0.78581 2.661749,-0.22183 2.315244,-0.8044 -2.193226,-1.086 0.369689,-1.55268 0.987032,-0.51242 1.903496,-1.18235 2.464585,0 1.513916,-0.3866 2.480059,1.09687 0.566854,0.5915 -1.74014,-1.46212 -1.841216,0.48805 -2.637104,1.57733 -0.597654,0.8612 -3.643416,-0.0591 -3.598296,0.78867 1.138844,0.56953 1.344906,1.45177 2.834272,0.5915 0.781137,0.89322 2.219838,-1.93054 2.637107,0.22181 1.489792,-0.82309 2.076394,0.63343 3.425773,0.5915 1.634427,-1.5682 0.837241,-0.84277 2.070251,-0.5915 0.388033,-1.36219 2.805036,-1.98551 1.13371,-0.27111 -0.749126,1.07841 -2.745384,1.25166 -4.165149,1.65127 -1.093675,-0.17187 -2.559216,-1.69344 -3.031439,0.17253 -1.869372,-0.0537 -2.484711,1.97247 -4.732002,1.40481 -2.248499,-0.58124 -1.699482,1.91948 -0.936544,2.78498 -0.125014,0.71247 0.166269,1.88185 0.369687,2.56317 1.352762,-0.36608 1.314623,1.20251 2.661752,0.81331 1.513263,-0.22165 3.196279,-0.32514 4.732003,-0.81331 0.591555,1.01784 2.623503,0.7103 2.637107,-0.76402 1.574912,-0.67464 1.954655,-3.14574 1.897728,-4.38696 -1.848673,-0.69884 0.855502,-2.06162 0.394335,-0.39434 2.473593,0.565 2.985066,-1.99622 4.732003,-2.56316 0.28693,-1.04281 1.507537,-2.29723 1.700564,-3.0068 0.992972,-1.18612 0.06364,-1.76911 -1.528042,-1.57733 1.324922,-0.47378 1.714481,-1.97551 1.897731,-3.77081 0.658743,-0.2128 2.373784,-2.14706 1.503397,-0.78867 -0.773282,1.68503 -0.750664,4.3693 -0.172528,5.52067 0.481528,1.35311 0.524526,2.21461 -0.764021,3.03144 -1.25451,1.39002 0.169905,1.54152 1.503397,1.18299 0.801513,0.92514 3.070218,-1.0241 3.598292,0.76403 1.067874,0.31575 2.147663,-0.64324 3.425773,0.2218 0.0865,0.66616 -2.682129,0.8164 -3.598292,0.5915 -0.933366,-0.3511 -2.066301,-1.47977 -2.661752,0.19715 -1.792877,-0.89312 -4.042061,-0.68871 -5.496024,0.98583 1.143195,0.95956 0.486038,0.73488 0.764021,1.99632 -1.651763,0.92027 -2.056354,3.32646 -1.133711,5.49603 0.09258,1.43819 1.276127,1.74123 2.267418,1.84843 1.58426,0.006 1.395832,0.18886 0.566857,1.57734 -2.457479,-0.89993 -0.300222,2.96675 -1.503397,2.39065 -0.16904,-1.41566 -1.534701,-1.58782 -1.700564,-3.0068 -0.436921,-1.2446 -1.406661,-1.78092 -2.464585,-1.57734 -1.633282,-0.42411 -1.727188,-0.77393 -3.031439,0 -1.824266,0.48698 0.804322,0.74883 1.503397,1.20765 1.224404,0.5977 1.107784,2.50215 -0.172528,0.98584 0.512895,-1.50692 -4.255309,-0.65765 -2.094896,-0.19718 2.258622,0.92173 -1.348047,0.97734 -0.936543,2.39064 -1.653813,1.10779 0.07231,2.59113 0.369687,4.06657 0.283443,1.16166 2.019374,0.49544 2.094898,2.07025 1.271054,1.03142 -1.134199,-0.0738 -1.700564,-0.39434 -0.992427,-0.33432 -1.094298,-1.8788 -2.094898,-2.36599 -0.526175,-0.96234 -2.151531,-0.70523 -2.834272,-1.60199 -1.226007,-0.58828 -1.377303,-0.89613 -2.834274,-0.39434 -0.582831,-0.95332 -3.065041,1.16663 -1.330875,0.59151 1.477002,-0.62022 -0.171157,1.44833 -0.764021,1.57734 0.557533,1.16589 -0.45494,3.12096 1.700564,2.78497 1.44923,-0.55165 3.000612,1.00593 0.961189,0.39434 -1.675407,0.75842 -2.332367,-0.81519 -3.598296,0 -0.869943,0.65125 -1.85995,2.3463 -0.369686,3.17931 1.846459,0.52501 2.715901,2.0074 4.904522,1.99632 1.451394,-0.54538 3.016898,0.72057 4.732005,0.5915 0.595476,-0.15942 3.32327,-0.53789 2.267418,0.36968 -1.976299,0.0774 -4.014837,0.53496 -5.471378,-0.36968 -1.360847,1.27868 -3.491959,-0.34395 -5.29886,-0.5915 -1.002383,-1.4294 -3.800524,-1.16316 -4.165146,-3.17932 0.932781,-1.0446 -2.673684,0.18079 -0.961188,0.5915 1.05511,0.58121 0.60882,2.31933 -0.36969,3.549 -0.986599,1.49249 0.686408,2.35261 1.700564,1.60198 0.996112,0.6357 -2.393883,1.30427 -1.330874,2.78499 0.07237,0.81456 2.296626,1.81853 1.133707,2.366 -1.182327,-0.75785 -1.412077,-2.3589 -2.637104,-2.76034 0.2452,-1.85682 1.403639,-2.23623 -0.764024,-2.58781 -1.047872,-0.10847 -1.813291,1.04879 -2.267418,1.94702 0.975267,1.7522 -0.84641,0.29039 -1.897728,0.81332 -1.108901,0.27548 -1.07199,2.41841 -2.637107,2.19347 -0.03145,1.76052 1.309899,1.59014 2.637107,1.40482 -0.08436,1.22692 -2.974035,1.04469 -3.031442,-0.19718 -0.423874,1.05694 -0.670066,2.33605 0.566857,2.9575 1.719662,0.8665 -1.941427,0.18686 -1.503397,1.40481 -0.902878,0.90489 -1.428844,-2.77484 -1.700564,0.96119 -1.055768,0.59666 -0.223529,2.51396 -1.528042,0.81331 -0.809716,-0.79006 -0.34595,1.18626 -2.070253,0.19715 -0.502594,-0.43302 -2.2825069,-0.0769 -2.8342719,0.39434 -0.83099,1.55285 1.8377519,1.31206 2.0702509,2.36599 0.684115,0.89622 3.721792,1.18734 2.267418,2.80963 -0.16916,-0.86515 -1.185108,-1.94098 -2.070251,-1.20764 -1.473553,-1.05225 -2.0649619,1.21186 -0.566854,1.79914 1.638597,2.10046 -0.838987,0.99575 -1.3308739,-0.2218 -0.781393,-0.10844 -2.052658,-1.3871 -2.661752,-0.36969 -0.607309,-0.75044 -1.808132,-0.87524 -2.070254,0.0739 -0.126654,-0.24561 -0.309898,-0.45949 -0.640792,-0.54221 -0.886922,-0.22174 -1.100487,0.6065 -1.183001,0.93654 -0.125044,0.50023 0.558079,0.86971 0.788669,1.33089 0.0092,0.0179 -0.987073,0.12073 -0.517563,1.05976 0.282132,0.56427 0.246452,1.40592 0.246452,1.72522 0,0.31457 -1.212788,0.54477 -1.454104,0.66544 -0.874158,0.43707 -0.788669,-0.0629 -0.788669,0.78865 3e-6,0.98253 0.424694,0.77349 -0.394331,1.18302 -0.67917301,0.33957 -0.58591901,0.56453 -0.39433501,1.33086 0.101764,0.40706 -0.0631,1.12769 0.123226,1.8731 0.27053601,1.08218 0.98621501,0.62826 -0.123226,1.18299 -0.414401,0.20716 -0.154882,1.2922 0,1.60199 0.201621,0.40321 0.28708,1.29623 0.39433501,1.72519 1.55e-4,6.3e-4 -0.14787701,1.40702 -0.14787701,1.72522 3e-6,0.71885 -0.313016,0.9538 -0.665438,1.30621 -0.32188,0.3219 0.461862,0.80053 0.665438,1.20767 0.38034201,0.7607 1.77784101,0.0149 2.53852301,0.39433 0.320712,0.16037 0.448964,1.72191 0.517563,1.99632 0.139829,0.55935 -0.03425,1.49249 -0.123225,1.84842 -0.126803,0.50727 0.457393,1.20189 0.394331,1.45412 -0.132138,0.52861 0.899447,0.15321 1.577335,0.0492 0.0426,0.0268 0.0769,0.051 0.123226,0.0739 1.166693,0.44163 1.872618,1.12712 3.031439,1.18298 1.1837759,1.62468 -1.035738,3.01075 0.764024,3.77082 0.6231819,0.58659 1.4711619,-0.24532 2.4645819,0.39436 1.010064,0.71774 3.033236,-0.10045 3.967982,-0.78869 1.093425,-0.35871 1.613173,-1.84141 3.401128,-1.40482 0.832197,-1.6371 2.341648,-1.80847 3.031438,-3.15465 0.430778,-0.53547 0.429067,-1.39549 0.764021,-2.58781 0.889361,-1.9387 -1.736199,-1.64617 -1.528041,-3.37648 -1.811363,0.12906 0.354368,1.95167 -0.369687,2.19347 1.203067,1.21974 0.656394,1.19559 -0.764021,0.59151 -2.023178,-1.06719 -2.998501,1.51296 -4.904525,1.38016 -0.215541,-0.70332 2.314666,-0.71098 2.267418,-1.97167 1.479622,-0.28646 2.960132,-1.01749 2.834271,-3.17931 -0.209609,-1.17476 -1.103506,-3.24525 -2.267417,-2.19347 -1.017385,0.12161 -2.632285,1.97167 -2.464585,0.59147 1.248688,-0.0861 0.983219,-1.74191 2.094898,-1.97164 -1.525821,-0.71268 -2.017106,1.52768 -3.031438,2.19347 -1.861968,1.40744 -0.21736,-0.44172 0.172528,-1.40481 1.364107,-0.36595 1.597384,-2.62873 0.961188,-2.98216 0.05678,-1.06209 1.021129,-0.75128 1.897731,0.22177 -0.408702,-1.25497 1.249288,-0.96467 1.30623,-1.602 -1.140537,-0.76451 -2.071866,0.41764 -2.834272,-0.39433 -0.895187,-0.934 -2.013007,-0.39108 -3.203961,-0.19732 -0.575253,1.42627 -1.413192,1.16414 -1.330877,0 -0.721992,-0.0635 -0.983228,-0.31677 -1.528042,-0.59148 -1.6233769,0.99919 -1.8726659,2.78632 -2.6371039,3.96796 1.13103,0.38977 1.901558,2.13285 0.197149,1.18302 -1.556628,-0.57207 -1.946878,2.49319 -3.228606,2.5878 -0.658674,0.0179 -1.155795,0.11804 -0.764021,-0.66543 0.16457,-0.32914 0.612919,-0.61109 0.936543,-0.78866 0.0083,0.0885 0.0158,0.18332 0.02474,0.27126 1.117167,-0.69974 1.237683,-2.33632 2.267418,-3.37649 2.169698,-0.57002 -0.278615,-2.32711 0.172528,-2.58783 1.593565,0.52837 2.054303,-0.47157 2.4645849,-1.57732 0.140753,-0.84678 0.690109,-1.99719 2.094895,-1.77452 1.441915,-1.02951 3.284296,-1.95621 4.732003,-2.80961 0.178907,-2.29437 1.485294,0.23847 1.330878,1.01046 -0.111959,2.45787 2.353813,-1.66292 1.700564,0.98584 0.962106,-0.45046 2.1092,-0.97055 1.133707,-1.77449 -1.554589,0.62364 0.439386,-2.03562 1.330878,-0.41898 0.951211,-0.33904 2.40468,0.28526 2.834271,-0.76401 1.411401,1.3117 3.181608,-1.95659 1.30623,-2.21815 0.653854,-1.17238 2.436935,1.39038 1.330877,-1.55268 -1.530811,-1.53827 0.01729,-2.39655 0.394332,-0.22183 0.952287,1.05979 0.147281,2.34494 0.172528,3.17932 0.781965,0.24115 1.310999,-1.07937 2.464585,-1.18301 1.803547,-0.0548 0.291014,-1.53719 2.094896,-1.60198 1.122535,-0.5616 0.921075,-2.66815 2.637107,-1.7745 1.025299,-1.68474 0.752238,-3.54965 1.700564,-5.15098 -0.539845,2.95463 1.304375,0.067 2.094895,-0.41898 0.975717,-1.0206 2.340197,-2.2812 1.503397,-4.36231 0.02593,-1.18994 1.957779,-1.97032 2.661752,-1.57733 -1.963764,0.76793 -1.095711,2.85941 -1.330874,5.17562 0.07002,0.76209 -1.478949,1.58827 -1.897732,2.16883 -0.164956,1.87378 -2.778089,1.32152 -2.07025,3.77082 -1.145413,0.84783 -1.75074,1.11538 -1.897731,2.366 -1.605316,0.72385 -0.166299,2.35535 -1.133711,3.57363 0.709431,1.24463 0.648018,2.94081 1.897732,3.59829 0.52709,1.62515 3.071551,1.84716 1.873086,3.77082 0.993309,0.4729 2.404039,2.40019 3.42577,0.5915 1.54052,0.35832 -0.752798,2.54694 1.13371,1.57735 0.591589,-0.054 3.050462,-0.2945 3.401128,0.5915 -0.703373,1.87209 1.565204,1.5803 2.267418,2.36601 0.83545,-0.0605 1.830905,-2.41918 0.197179,-1.77453 -1.914757,-0.44661 1.08724,-1.04852 1.503397,-1.57731 -0.02534,-1.17911 1.860078,-1.54629 2.464585,-1.40482 -0.17223,0.67199 -1.373631,1.4408 -2.267418,2.16882 1.304611,0.48063 0.350309,2.1271 2.464585,1.8238 0.642638,0.63389 1.741887,1.63908 3.031439,0.96119 0.899388,1.22203 2.878223,1.85151 4.165146,0.8133 0.30807,-0.97841 -1.447289,-2.66783 0.36969,-3.37646 0.91662,-0.9912 1.91033,-0.32928 2.83427,0.19703 1.33317,-0.0939 2.52163,-0.47454 3.96798,-0.19703 0.42599,-1.09126 2.89751,-0.69032 1.72521,-2.39065 -0.55816,-1.07505 -1.97717,0.0829 -3.03144,-0.98583 -0.31906,-1.12349 -1.40299,-0.48739 -2.46458,-0.61616 -0.36982,-1.15563 -3.16033,-0.31194 -1.33088,-1.18299 0.93497,-1.23372 3.12144,0.53642 4.53484,-0.76403 0.1398,0.21819 0.43163,1.57648 1.89773,1.77452 1.14368,0.44101 1.63132,0.49156 2.66175,0.39433 0.65848,1.47659 2.19276,-0.79292 3.40113,0.19703 0.39524,-1.06343 2.40931,0.0268 1.70056,0.81331 1.69297,0.80836 -0.42608,-3.77121 1.33089,-1.60197 4.2e-4,2.21634 1.91694,0.83447 2.46457,0.19703 1.1118,0.56155 1.85984,1.23908 0.73938,2.36597 -0.45712,1.08656 2.58214,0.55195 0.56685,1.57735 -0.71936,-1.19315 -1.95874,0.57422 -2.6371,-0.36968 -1.95642,-0.53136 -0.28094,1.65168 0.93654,1.18298 1.23134,0.76037 1.60539,1.76257 2.66175,2.58784 -0.0305,1.75893 1.1176,3.01038 1.70057,0.78865 0.88308,-0.71372 1.43933,-2.21007 3.40112,-1.77449 0.17244,-0.29182 0.69872,4.11558 -0.36969,2.366 -1.27343,-0.80267 -2.6459,0.9174 -3.2286,1.79915 1.18885,1.12739 2.81569,1.73055 3.03144,3.77081 0.23945,0.23966 0.78039,2.10086 2.0949,2.16883 0.53958,0.68352 1.99698,1.10867 2.43994,0 0.4642,-1.13956 1.63886,-1.53931 2.85891,-0.98584 0.49887,0.75205 1.58417,1.23992 3.03144,0.98584 1.76487,-0.33338 3.619819,-1.81545 5.471379,-0.61613 1.91777,0.99475 3.61222,2.50437 5.49602,3.99261 2.07675,1.34529 5.16242,0.32059 8.13314,0.59151 1.66876,-0.81176 3.35693,-1.26809 5.49602,-1.40481 2.40251,0.48563 4.44563,1.56816 6.62973,1.60196 2.50511,0.82362 2.23267,-2.0436 2.85892,-3.17931 0.42102,-1.516 1.05102,-3.99807 -1.13371,-3.77082 -1.165,-0.59186 -3.31903,-0.62867 -2.6864,-3.25323 0.93125,-2.95104 0.22773,-7.76123 0.76403,-11.23853 -0.30873,-2.41468 0.26958,-5.19706 -0.19718,-7.54161 0.81023,-2.17285 0.55295,-6.63861 2.68639,-7.54162 1.55343,0.24073 2.54481,0.97755 4.36232,0.61614 1.31403,0.70357 3.21708,1.87228 3.96798,-0.19715 0.9637,-1.59246 3.76889,-0.91897 4.33767,-2.58782 0.68063,-1.29281 1.62159,-2.14183 2.09489,-3.37648 -0.0517,-1.72443 2.08347,-2.00367 2.07026,-3.35183 -1.12003,-1.83953 1.37043,-2.88072 2.46458,-3.37648 2.20908,-0.76783 -0.21467,-4.01644 0.76403,-5.6932 -0.51742,-2.00702 -2.06221,-4.11798 -2.26742,-6.40792 -0.3918,-1.60853 -2.1341,-2.63157 -3.22861,-3.96798 0.75278,-2.8047 -2.3834,-3.53772 -1.13371,-6.35863 0.69039,-2.81816 -2.00272,-2.82366 -2.46458,-4.95382 1.78245,-0.34031 4.0897,-0.8731 5.86571,-1.20764 1.22652,-1.12827 1.28774,-3.60486 3.22861,-4.1405 1.70026,-1.24717 0.15085,-4.07694 1.50339,-5.76713 0.31459,-2.08551 -0.35339,-3.79197 -0.56686,-5.54532 -1.4529,-1.68979 -1.33299,-4.53945 0.96119,-5.15098 1.73547,-1.32433 2.8602,-3.49958 2.07025,-5.86571 0.45692,-1.53663 1.7805,-2.99366 3.03145,-1.5034 2.37323,1.35334 4.72878,0.0612 6.06288,-1.35552 0.8444,-0.57152 2.46875,-2.36553 3.77081,-1.40481 0.8608,1.38241 2.03971,2.39584 4.1898,1.79914 2.15452,0.0212 4.41312,-0.68935 5.47137,-2.39064 -0.37468,-2.55929 1.42803,-2.85028 3.40113,-2.9575 0.83095,-1.41326 3.34185,-2.71451 4.5595,-4.1898 -0.0438,-2.83658 0.21283,-5.32407 1.50339,-6.92548 -0.83775,-1.3473 -2.09102,-2.52475 -0.76403,-4.1898 0.64459,-0.75469 1.68569,-2.68029 3.42579,-1.7745 1.44061,-0.22508 3.18974,0.35543 4.53482,0.41898 1.86347,-0.17024 3.54106,1.00378 5.10171,-0.5915 0.81364,-1.35595 -0.65315,-3.7642 0.96119,-5.17563 1.29992,-3.444445 -2.82043,-0.322125 -3.03147,-1.996309 -1.08647,-0.973707 -0.24889,-4.406065 -2.26739,-4.559483 -2.19565,-0.588405 -0.45687,-4.202737 1.70054,-2.760333 1.43471,1.087332 3.82131,1.147946 4.92918,-0.394338 1.54434,-2.00047 2.94549,-4.664389 3.96796,-6.358628 -0.62349,-1.255154 -1.63236,-2.558984 -2.66172,-2.366004 -2.00944,1.26403 -1.34553,-1.66154 -0.56686,-2.415292 -0.2322,-3.22187 4.51754,-0.816039 5.69319,-2.366004 0.37105,-2.520842 1.53472,-4.479975 0.93653,-7.344459 -1.99912,-0.257689 -2.50913,-1.185403 -3.96796,-2.587811 0.38124,-2.743435 -2.65451,-1.561033 -3.22861,-0.172528 -1.32929,0.514302 -2.96449,-1.969512 -4.53486,-0.591502 -2.15156,-1.735499 -5.36163,-0.832812 -7.19658,-3.376486 -1.1397,-1.260599 -2.7109,0.39012 -4.16514,0.985839 -1.71053,0.130798 -2.9373,-1.612532 -4.36233,-1.799147 z m -59.64295,3.598292 c -1.4485,1.152933 -0.85971,2.667592 -1.33087,3.746175 0.85168,0.601407 1.76848,-1.25634 2.46458,-2.168843 -0.22448,-0.831694 -0.0715,-1.632694 -1.13371,-1.577332 z m -14.93538,0.394337 c -1.71865,0.618446 -0.96317,1.491772 -1.15835,2.563163 1.25712,-0.774057 1.34508,0.3373 2.0949,1.799145 2.24546,1.531869 0.75797,-1.009516 2.46458,-1.182992 -0.0802,-1.314289 -1.94449,0.310807 -1.70057,-1.799148 0.79905,-1.449167 -1.24553,-0.650914 -1.70056,-1.380168 z m -6.62973,0.788667 c 1.53227,2.765898 -1.379559,-0.595914 -1.528039,1.182994 -0.99574,-0.208595 -3.58999,-0.171216 -4.33768,0.98584 -1.94071,-0.203976 -1.39733,2.65698 -3.79545,1.60198 -2.65362,-0.93581 -1.46806,2.329368 -3.03145,1.182995 -1.99303,-0.363287 -2.5722,0.551094 -3.77081,-0.19715 -2.01598,-0.128472 -3.54398,0.787898 -4.36231,1.996312 0.61011,0.55609 -1.2965,1.692317 -2.04561,1.971667 0.002,1.332947 -0.45672,2.905799 0.34505,4.510196 -0.17018,2.664245 1.24692,3.766597 3.40112,3.425774 2.21688,-1.718786 -1.16639,-4.370147 0.36968,-6.728315 -0.0342,-3.706948 1.07111,-2.887571 0.76403,-0.41898 0.1637,1.850665 0.64609,2.100926 -0.36969,3.548999 0.74199,1.112881 0.37672,2.53241 2.07025,2.587814 1.14923,0.920754 2.7543,0.196941 2.26742,-1.947018 0.20669,-0.649374 2.92045,-0.791752 1.89773,0 -1.33915,0.141736 -2.1206,3.993959 -0.76402,2.760335 0.007,1.560855 2.81978,0.07142 2.85892,1.971667 0.82477,-1.117334 3.17101,-1.793362 5.07705,-0.985836 1.35719,-0.258554 6.335959,0.984713 3.05608,1.207643 -0.91339,-0.895528 -2.48936,-0.458186 -3.59829,-0.616144 -1.8916,-1.127716 -5.57321,0.157505 -3.5983,2.563171 -0.12368,1.960078 1.65228,2.301986 3.77081,1.601984 2.51058,0.135834 4.680439,-1.553206 6.826899,-1.183004 0.93292,0.784615 1.55407,1.877495 2.26742,2.982148 -0.92682,1.675597 2.34088,1.03646 0.76402,-0.2218 1.5574,-0.625993 1.72504,0.716683 3.5983,0 0.10948,-0.704492 0.59679,-2.016033 -0.76403,-2.366004 -0.89959,-0.763187 -1.55713,-1.924693 0,-2.982143 0.0256,-0.546906 2.86353,-2.140519 -0.56685,-1.774502 -1.3979,-1.154305 1.77517,-0.254351 2.0949,-1.010482 1.09354,-2.472675 -2.47141,-0.298338 -0.76402,-1.774505 1.22644,-1.325158 -0.68113,-2.586544 -0.36969,-4.362308 -0.75379,-0.774319 -1.21989,-2.482496 -1.13371,-3.524357 -1.09651,-2.632853 -1.07712,0.785081 -1.15835,0.542209 -0.95211,-1.025317 -1.24119,-2.197551 -3.57365,-2.168834 1.64974,-0.753532 1.56528,-1.386601 -0.59151,-1.207652 -1.87285,-1.621004 0.49313,-0.976474 -0.36968,-2.513878 -0.0149,-0.330165 -0.46421,-0.709041 -0.93654,-0.640787 z m 16.95635,1.158352 c -0.0431,8.47e-4 -0.0915,0.0069 -0.12323,0.02474 -2.10123,-0.06653 -0.76476,1.969851 0.76402,1.577338 1.75828,0.157535 0.005,-1.619633 -0.64078,-1.60198 z m 5.29885,2.094896 c -0.0796,0.0069 -0.18222,0.02593 -0.29575,0.09857 -1.07949,1.278962 -1.62871,2.35057 -0.76403,3.573645 1.67517,0.457545 -0.26973,-2.267648 1.13371,-2.168834 0.25373,-0.171634 0.48305,-1.549155 -0.074,-1.503397 z m 3.03144,1.749854 c -0.16078,-0.0092 -0.3915,0.03932 -0.69008,0.147877 -1.32781,0.842887 -2.60839,1.7455 -2.26743,4.165143 1.07855,-2.693658 1.14547,-1.064827 1.33088,1.577341 1.19584,1.28382 2.45355,0.673298 3.77081,1.207646 1.94855,0.776493 1.67774,-2.364663 0.19718,-2.784987 -0.94172,-1.070255 -0.60951,-3.148068 -1.89773,-2.563168 -1.15462,0.859996 0.6819,-1.684203 -0.44362,-1.749855 z m -8.05919,0.345044 c 1.16012,1.207849 -3.31,2.267513 -0.39434,3.179313 1.26761,2.631918 3.02624,0.287855 3.5983,-1.010479 -1.23821,-3.521864 -1.50172,-0.441949 -3.20396,-2.168834 z m -48.650909,1.774506 c -0.25927,0.417152 -0.54184,3.034816 -1.33087,1.404807 -1.50011,-1.290312 -0.36434,1.345558 -0.19718,1.577332 0.39345,0.591782 -1.52391,1.867149 -0.73938,2.784987 1.55713,0.445396 2.14364,2.049323 3.57365,1.996309 1.60402,-0.363057 1.7759,1.463824 3.03144,0.172528 -0.4161,1.66678 1.89789,1.651978 3.42577,1.40482 -0.5037,-1.046773 -1.52796,-2.822656 -0.39433,-3.99263 -0.21069,-1.511377 -1.59113,-2.593671 -2.63711,-1.183004 -0.44729,0.602575 -0.66186,5.195515 -1.70056,2.415298 -0.3387,-1.388222 -1.47625,-1.926839 -2.46459,-2.809627 -0.91072,-2.103241 0.0974,-1.723647 0.76402,-0.197179 1.10644,0.644801 2.18777,1.782205 1.87309,0.197179 -0.90583,-1.459361 1.52632,-0.956478 1.40481,-0.172528 0.60951,-1.350756 2.57551,-0.900457 0.88725,-1.996321 -1.88597,-0.273547 -2.31957,-1.072994 -4.16515,-1.207643 -0.0831,-0.336414 -0.93436,-0.409596 -1.33087,-0.394328 z m 49.784619,8.749275 c 1.03901,1.270633 -0.62548,3.908542 0.73937,3.154661 0.26249,1.133931 1.65944,-0.174942 2.85892,0.98584 1.14626,-0.405656 -0.31938,-2.83541 -1.13371,-3.548999 -0.59265,-0.811577 -1.79715,-0.234618 -2.46458,-0.591502 z m -50.548639,0.369686 c 0.0848,0.924903 0.41503,2.316747 0,3.006791 0.10215,1.705151 -0.78729,4.060785 0.56686,5.348146 0.72458,1.334577 2.06134,1.601993 2.46458,2.760342 1.5867,0.287468 2.29392,2.085515 3.79546,1.799148 0.0155,-1.82613 -1.17283,-3.120484 -2.09489,-4.362316 -0.57829,-1.833063 1.99543,0.925776 1.89772,1.799147 1.7485,-0.728427 -0.0588,-2.552011 -0.36968,-3.401131 -1.5223,-1.389861 1.68747,-0.275663 0.73937,-2.168831 1.99248,-0.576413 -0.10674,2.420845 1.70057,3.351835 0.25551,0.879509 -2.01659,2.950144 -0.56686,4.584123 1.23713,0.05723 0.65802,1.988103 1.70056,2.587823 1.4391,1.059306 2.04908,-2.350588 2.29206,-3.598305 -0.62823,-0.900684 0.23495,-2.546202 -1.52803,-2.563159 -2.07774,0.501741 -0.94099,-0.810698 0.19717,-0.394338 0.82016,-0.102986 1.59758,-1.241797 1.13371,-2.784975 -0.34131,-1.979271 -2.20933,-1.248572 -3.2286,-1.601984 0.20475,-1.317407 -0.64683,-0.914717 -1.87308,-1.577341 -0.71379,0.395715 -2.08269,-0.442674 -2.46459,-1.380165 -0.65951,-1.465567 -2.10073,-1.17269 -3.03144,-0.98583 -0.54446,-0.01788 -0.79707,0.278137 -1.33087,-0.41898 z m -7.19659,0.41898 c -1.00673,0.721899 -1.250651,2.808839 -2.637103,3.179313 -0.07708,1.742524 0.983106,2.731371 1.897733,3.15467 1.60729,-0.211696 1.02207,-2.178098 2.26742,-2.119547 0.0767,-1.235719 0.65238,-3.938797 -0.19718,-3.820099 -0.36897,-0.543645 -0.92922,-0.06796 -1.33088,-0.394337 z m 26.69145,1.774502 c -0.98331,1.263915 -2.60915,1.516957 -4.16514,1.996312 0.72621,1.352939 -2.80151,-0.0738 -1.5034,2.563169 -0.14487,0.969213 1.04234,2.453991 1.33088,3.770817 1.37461,0.02891 2.04087,2.488017 0.93654,1.380165 -0.58497,1.485349 1.59329,1.30341 1.33088,2.587814 1.21688,0.663026 0.18656,-1.615069 -0.39434,-2.168834 0.18597,-3.084252 0.25164,0.582965 2.07025,1.182995 1.48375,-0.427129 2.66556,1.07954 3.99263,1.577341 1.41828,0.470631 2.9504,0.642637 4.36231,0.591502 1.30627,0.319031 2.79969,-0.696378 2.83428,-1.183004 1.292419,-1.140304 2.962549,-0.770829 4.165139,0.221831 1.29872,-0.356694 1.80768,-1.287466 1.70057,-2.587823 0.83256,-1.46899 -1.56019,-2.378938 -0.93654,-3.943328 -0.64158,-1.344094 -0.89928,-2.04421 -2.0949,-2.218124 -0.89899,-0.270119 -3.038699,-0.308983 -3.598289,0.788663 -2.04077,-0.782097 -4.77866,1.223927 -6.43257,0.197149 -1.23201,-1.567945 -1.24459,-3.594056 -2.58782,-4.756645 h -0.51755 z m 29.353209,1.799148 c 0.19459,1.736784 -1.60358,1.49528 -1.89773,3.130019 1.47417,1.852489 -1.2984,0.378116 -0.56686,2.218128 1.64916,-0.47721 1.7812,0.484292 2.63711,-0.56686 1.20357,-0.314044 2.88053,-0.75983 3.22861,-2.415289 0.53127,-2.00982 -2.38083,-1.596802 -3.40113,-2.365998 z m 9.29149,3.351835 c -1.05783,0.142034 -3.42344,1.458372 -0.98584,1.40481 -0.61608,1.232371 -2.20918,1.818997 0.19718,2.366004 1.48982,-0.289404 1.78178,-1.833626 3.2286,-1.971666 1.66517,-2.367814 -0.2765,-1.108475 -2.0949,-1.774506 -0.0804,-0.03416 -0.19393,-0.04498 -0.34503,-0.02474 z m -5.32351,0.616144 c -1.539,1.4222 0.48782,2.499877 1.13371,0.788666 0.80048,-0.59188 -1.1457,-0.479415 -1.13371,-0.788666 z m -63.980616,1.774496 c 0.672952,1.410203 2.726382,2.028553 -0.197179,1.207655 2.671293,1.079234 -1.124348,1.386961 1.823792,1.774494 1.997744,-1.392729 -0.564954,-2.710643 -1.626625,-2.982149 z m 61.713206,0 c -1.04834,1.184888 -3.92687,-0.434846 -4.16516,1.971667 0.44809,2.83837 2.18166,1.225832 4.06657,1.207655 2.23461,1.316394 3.17813,-0.748503 3.49971,-1.971667 -1.5003,-0.5978 -1.92108,-0.970259 -3.40112,-1.207655 z m -50.869029,0.345045 c -0.0729,0.006 -0.15906,0.01967 -0.24646,0.04927 -1.23278,1.100671 -3.44051,0.387151 -4.732,1.577332 -0.66531,0.06018 -2.37245,1.336512 -1.89773,2.58782 0.36968,1.326141 1.80176,1.629744 2.83427,2.365998 0.72249,1.310657 2.13128,2.295397 3.91869,2.415287 1.68857,0.66797 2.68146,2.31154 4.97847,1.94703 1.22599,0.28168 3.95772,-0.49282 2.66175,-2.36601 -1.51424,-0.28138 -0.98324,-3.223488 -2.46459,-3.573639 0.55953,-2.524054 -0.83338,-1.970906 -1.13371,-3.130022 -1.28,-0.54673 -1.97838,-0.915225 -2.6371,-1.601981 -0.57709,0.172558 -0.77175,-0.309844 -1.28158,-0.271102 z m 13.013,2.439939 c 0.52732,1.235976 -1.10796,1.55241 -1.52804,3.154674 -1.36658,1.362514 0.41685,2.305054 1.67591,1.601974 0.80147,-0.624633 3.15418,-0.777348 2.48924,-2.193476 -1.02593,-0.513196 -1.28062,-2.241747 -2.63711,-2.563172 z m -7.19658,0.788667 c 0.14731,1.737967 1.40211,2.664977 2.07025,4.362321 1.1679,0.33638 1.27772,2.97448 2.46458,0.81331 -0.73692,-0.94213 -0.73494,-3.276088 -1.89773,-3.006797 0.17691,-2.203546 -1.05834,-1.792495 -2.6371,-2.168834 z m -17.227454,0.394337 c -1.401618,0.765139 -1.629788,1.399254 0.739376,1.97167 2.049683,1.302804 -0.267824,-1.967315 -0.739376,-1.97167 z m 31.029124,0.19715 c -1.80291,0.744428 0.26779,1.03033 -0.93655,2.168834 -0.71461,1.30083 0.72709,1.45577 1.52805,2.58781 1.89968,0.11473 2.47737,-1.3248 3.40113,-2.365998 -0.9601,-0.742509 -1.66209,-1.501552 -3.40113,-1.996309 -0.0675,-0.436531 -0.76671,0.112942 -0.5915,-0.394337 z m 14.417819,1.478754 c -0.1316,0.01162 -0.27089,0.04236 -0.39434,0.09857 -1.25484,0.176969 -1.90249,1.28906 -3.598289,0.813314 -1.2583,0.124508 -2.6716,-0.265827 -4.16514,0.369686 -1.06021,0.28693 -4.2573,1.18832 -1.89774,1.40482 -0.44031,0.75576 -4.56881,1.14948 -1.35552,1.60197 1.51035,0.54869 2.21733,0.41376 3.82011,0.76403 1.78621,-0.10224 1.72095,2.4687 3.37648,1.82379 3.876069,-0.004 0.0422,-2.06578 -0.34504,-1.82379 1.24206,-1.30252 2.683129,0.36842 3.770809,-0.76403 2.20271,1.10871 1.95295,-2.13758 1.72522,-3.00679 0.95479,-0.45947 -0.0152,-1.362834 -0.93655,-1.281578 z m -18.558319,3.10538 c -1.75596,0.62646 -1.91084,0.94072 -0.76403,2.366 0.76127,1.07874 1.9732,-2.21357 0.98584,-2.366 z m 26.494279,1.35551 c -1.12783,1.2637 -1.34197,1.89028 -1.33087,3.17932 -1.81448,-0.31133 -0.46232,2.79899 -2.66175,2.78498 -0.29866,1.3954 -1.1601,1.83651 -1.30623,4.23909 1.02739,1.37628 -1.65611,1.97352 -0.19715,3.10537 -0.20606,0.96999 -1.22898,1.18147 -0.76403,3.57365 -0.87765,2.66397 0.58348,2.37088 1.13371,3.15467 1.42223,-0.25774 1.69803,1.77149 3.5983,1.20765 1.06442,0.95689 1.85705,2.58829 2.83427,3.17931 0.71163,0.98745 1.55209,2.22543 2.09489,2.36601 0.56006,-0.58826 2.26366,-1.7876 2.46459,-3.13003 -0.39407,-2.34085 0.80174,-3.25312 -0.56685,-4.95381 -1.45152,-0.85409 -1.44472,-1.28069 -2.83427,-2.04561 -0.90292,0.16093 -2.84576,-3.43815 -0.19718,-1.35552 1.10334,2.42151 2.35808,-0.11223 3.20396,0.36969 0.40325,1.19767 2.5565,1.43495 1.33088,-0.5915 -1.40101,-1.97908 -1.11507,-0.91088 -0.56685,-2.76034 -0.62315,-0.86035 0.25995,-2.18032 0,-2.78497 -0.096,-2.48519 -0.33173,-1.55546 0.76401,-3.57366 1.12977,-1.12727 0.40062,-4.5303 -1.33087,-4.55948 -0.49451,-1.51395 -1.79168,0.12278 -3.20396,-0.39433 -0.34077,-0.86268 -1.61278,-0.31748 -2.46459,-1.01049 z m -20.061719,0.59151 c -0.30496,0.96067 -3.25804,0.94729 -1.13371,1.82379 1.74545,0.1708 2.41207,0.0523 3.94334,0.5915 2.04732,0.85201 -2.97094,-0.52121 -4.48555,-0.22181 -0.21274,1.74961 -1.74334,1.88472 -1.74985,3.37648 -0.8799,1.70399 0.92503,1.18952 1.33087,2.39065 0.0659,-0.15273 -3.70535,0.12835 -3.03143,0.98584 -1.52915,1.19174 2.36759,1.83348 -0.12323,2.16883 -0.12173,1.27106 1.35697,3.45692 2.21813,1.99631 -1.8406,-0.42548 1.1,-0.80184 0.56685,-1.79914 -1.68085,0.34096 1.42962,-2.42515 1.33087,-0.98583 1.07996,-1.505 0.6995,-1.32913 0.3697,-2.19349 1.15738,-0.0283 3.78199,-0.66248 5.02775,-1.35552 2.85964,0.31868 0.91728,0.12966 -0.49292,0.76402 -2.2607,0.78105 2.40394,1.20244 3.0068,1.40482 0.58228,-0.762 2.45954,-3.40699 1.55268,-0.83796 -0.67886,1.12408 -2.00716,1.39569 -0.56685,3.00679 1.43638,-1.10557 2.385279,1.02511 3.573649,0 0.19202,-2.06778 1.1065,-3.44026 1.89772,-4.90452 0.28845,-1.46794 1.30263,-2.85304 0.56686,-4.01728 -0.55196,-0.0731 -1.94145,-0.22102 -3.03144,-0.19717 -0.61735,2.23361 -1.746909,1.46659 -2.834269,0.78867 -0.98824,0.42065 -2.53478,-0.11619 -3.77082,0.81331 1.73331,-1.17431 0.84145,-2.64127 -1.13371,-2.41529 -1.51634,0.0842 -2.10346,-0.79352 -3.03144,-1.183 z m -24.42403,2.58781 c -0.82029,1.47355 -4.25936,0.40642 -3.59829,3.17931 -1.08099,1.4518 -0.55561,3.23779 -1.70057,3.77082 2.27829,-0.0707 -0.676858,0.80169 -0.19718,1.99632 0.88498,0.91718 1.18871,2.11589 2.46459,2.58781 -0.31302,1.92759 2.73719,3.09278 2.66175,0.5915 0.0664,-1.25264 -0.79914,-2.80516 -0.56685,-3.99263 0.73103,-1.65444 0.8659,-2.6203 1.70056,-3.94334 0.77702,-0.80341 2.1172,-2.93569 1.183,-3.77081 -0.82144,0.0586 -1.17051,-0.28047 -1.94702,-0.41898 z m 3.79546,1.01048 c -1.41796,0.93397 -1.29526,3.29908 -2.46458,3.94334 -0.74549,1.88588 -0.81396,3.20212 -1.13371,4.97846 0.18957,1.44231 -0.13915,4.054 2.07025,2.9575 0.68159,1.24827 -0.94579,1.3089 -2.46459,1.60198 -1.39182,-0.40456 -1.44316,1.04722 -0.17253,2.366 1.97917,0.68432 1.60548,0.94089 2.07025,2.98215 1.52424,1.7617 -2.33545,2.38958 -0.56685,4.36231 -1.15494,0.22502 -3.19353,-0.10057 -1.33088,1.60198 0.81613,1.74928 1.01828,2.85011 3.20396,1.57734 2.03839,-0.12194 3.8018,-0.33078 4.55949,-1.7745 -0.59808,-0.72 -4.92525,-0.91002 -2.46459,-1.57733 1.41268,0.60361 5.12874,0.72597 4.732,-1.99632 -1.69036,-0.16132 -4.39741,0.96267 -6.03823,-0.5915 -1.97837,-1.46555 2.178,0.57116 2.63711,0 3.05864,0.65995 -0.42352,-2.65194 1.70056,-1.40481 0.63166,-1.02715 2.42681,0.37711 4.36232,0 2.36019,-0.10695 2.61206,-1.77697 2.46458,-1.97167 0.91436,-0.92762 1.29251,-3.92452 0.56685,-4.36232 1.30441,-1.51498 -1.7832,-2.09131 -1.13371,-3.17931 -1.91995,-0.43267 -4.35061,0.60787 -6.06287,1.01048 -2.07626,0.89026 0.37467,-1.47031 1.62662,-1.01048 1.20741,-1.4933 -1.40214,-0.75968 -1.82379,-0.39434 -4.30059,0.24296 0.65134,-1.07398 1.82379,-1.40481 0.98525,1.24228 2.04108,1.09957 3.77082,0.5915 0.49225,-1.16011 -1.73391,-1.55606 -1.62663,-3.15467 -0.8095,-2.59118 -1.27169,-0.007 -2.9575,0.19718 -3.62557,0.62007 -2.45755,-0.57988 -0.0493,-0.81332 1.49503,-0.64331 2.36844,-1.8314 1.13371,-2.95749 -1.80537,0.45998 -2.44957,-1.65139 -4.31303,-1.40482 -1.87138,1.47193 -0.29626,0.11783 -2.11954,-0.17253 z m 9.464,1.57734 c -0.89517,1.33738 0.3967,2.83783 1.13371,3.96798 1.4489,0.33793 1.35749,1.33144 1.87308,2.16883 1.53363,2.57608 0.83365,-2.05438 0.19718,-2.56317 -1.14359,-2.4887 0.65176,2.51959 -0.56684,0.98584 -0.79902,-1.7237 -0.18207,-2.73885 -1.70057,-3.57365 -0.14707,-0.62145 -0.72009,-0.74202 -0.93654,-0.98583 z m 13.99885,4.55948 c -1.02032,0.95474 -2.24439,0.5069 -3.03144,1.38017 -1.49049,0.69982 -1.38639,2.21598 -2.66175,2.78497 -0.71767,1.40673 -0.26997,1.8351 0.39432,2.58782 1.50511,1.84019 0.33529,5.47118 2.46459,6.95013 0.18314,1.70412 3.54558,0.73014 4.53484,0.98583 2.17595,0.0337 1.99802,-2.56271 4.16515,-1.57733 0.19184,0.23662 -0.26496,-2.77103 0,-3.77081 1.451169,-0.90777 0.0762,-3.02887 0.936539,-4.36232 -0.226159,-0.44946 -1.365209,-1.61976 -1.700559,-2.58781 -2.05926,0.90607 -2.35302,-2.12158 -4.73201,-1.01048 -0.41294,-0.78616 1.03121,-1.16368 -0.36968,-1.38017 z m -6.62974,3.96798 c -0.65393,0.215 0.27087,0.38127 0,0 z m -25.55774,1.08442 c -0.21137,0.0161 -0.46719,0.0483 -0.739378,0.0986 -0.578163,1.33976 -1.492174,0.97766 -2.637104,1.79915 -1.227602,1.41722 -3.295975,2.04786 -2.686397,4.55948 -1.078527,0.5432 -0.924886,3.07053 -1.30623,3.77081 0.0016,1.67102 0.0057,2.46443 0.739376,3.96798 0.973245,0.58285 2.335857,1.55048 2.661749,-0.41898 1.156612,-1.43879 1.068527,-0.92071 0.764021,0.41898 -1.91989,1.2696 1.062801,1.30761 2.267421,0.19718 0.394332,-1.78942 1.533132,-3.53463 1.700562,-4.55948 1.10644,-1.69409 0.41066,-2.28346 -0.88725,-1.23229 1.04606,-1.15128 -0.42443,-1.77577 0.51756,-2.53853 0.223,-1.5348 1.39885,-2.59579 1.5034,-4.16514 -0.33019,-1.30919 -0.41807,-2.01027 -1.89773,-1.89773 z m -16.833117,2.88356 c -1.041142,2.1009 0.575989,1.4565 1.503396,2.16883 0.77531,0.19581 4.271409,0.20729 1.897732,-0.76401 -0.4342,-1.04704 -2.108366,-1.10188 -3.401128,-1.40482 z m 19.297697,0.81332 c -1.01117,1.15372 -0.87982,2.85938 -0.19718,4.53483 0.13664,-1.54238 2.41508,-1.38815 2.0949,-2.76034 0.26303,-0.37339 -1.45675,-1.13048 -1.89773,-1.77449 z m 39.950929,1.18301 c -0.10526,0.64044 0.17124,2.33044 0.93653,3.17932 -0.37885,1.16699 1.2488,2.41561 1.70057,3.35183 1.16926,0.86125 2.85892,1.5461 3.2286,-0.39434 -1.23784,-1.16588 1.68755,-0.13157 -0.19718,-1.7252 -0.009,-0.20759 -3.16366,-1.25138 -1.13371,-1.65127 -0.85768,-0.57037 -2.17786,-2.68623 -2.83427,-1.40482 -1.96991,0.087 -0.25178,-1.21486 -1.70056,-1.35552 z m -59.076104,0.17253 c -1.527222,0.10275 -1.384568,1.78933 -0.936543,2.78499 1.739523,0.059 2.259673,1.99961 4.165149,1.79914 0.681196,1.05723 1.670807,1.63234 2.834271,2.366 1.46637,-0.29027 0.187462,-2.2153 -0.197179,-3.30254 -1.242789,-0.31932 -0.561596,-2.03474 -2.070254,-2.46459 -0.789763,-0.93747 -2.912767,-0.29459 -3.795459,-1.183 z m -3.820108,0.17253 c -0.04593,0.003 -0.10701,0.0319 -0.147877,0.0493 -0.407355,1.34808 -2.302207,0.44191 -0.566854,1.77451 1.136823,1.6935 2.230626,-0.003 1.330875,-1.183 0.0933,-0.35345 -0.294532,-0.66553 -0.616147,-0.6408 z m 25.607043,1.65127 c -1.6407,0.0643 -1.89774,2.00129 -2.66176,2.9575 1.42898,1.55954 2.0813,0.82079 3.03144,-0.19714 -0.3167,-0.92839 1.39275,-2.64119 -0.36968,-2.76034 z m 11.33709,2.53852 c -1.50485,1.09747 -0.19757,3.86372 -2.63711,3.77082 -0.86568,1.38933 0.113,4.25384 2.07025,3.99263 0.55959,2.15264 1.55418,0.69355 3.22861,0.36969 0.67042,-0.93207 3.16022,-0.76557 4.51019,-0.96119 2.19294,-0.011 1.5174,-1.14725 0.61614,-2.58781 0.45263,-1.42141 -1.4716,-1.68913 -3.05609,-1.40482 -2.10949,0.60625 -0.91044,2.39277 -2.83426,0.81331 -2.13005,0.55967 -3.65258,0.17116 -0.76403,-0.5915 0.97039,-1.4046 2.05078,-0.2618 2.66176,-1.40481 0.38515,-1.5991 -1.97812,-1.46683 -3.35184,-1.99632 z m -14.93539,1.40482 c 0.74483,1.41595 -2.879761,2.63609 0.36969,2.58781 0.89563,-1.0995 1.98379,-2.30478 -0.36969,-2.58781 z m 29.42714,0.17253 c -0.25998,-0.0131 -0.55877,-0.0137 -0.8626,0.0247 -0.49443,0.3486 -0.0605,1.84618 -0.36968,3.17931 1.64698,0.77522 -1.47834,3.56146 -0.3697,1.57733 0.72654,-2.02913 -1.02247,-2.98205 -1.89773,-0.98583 -1.70147,1.03077 -0.53167,2.57557 0.76402,2.98215 1.50168,2.74323 1.50804,-2.75087 2.07026,0.49292 -1.01596,2.08492 0.27482,1.9846 1.33087,0.88725 2.16598,-0.87579 -0.6983,0.86376 -0.96119,1.97167 0.49767,1.16292 1.1303,1.85207 0.96119,3.37648 1.09388,1.29937 0.53599,2.65589 2.07025,1.79914 0.89677,-0.93835 0.72965,-2.49076 1.33088,-3.96798 1.35283,-1.40285 -0.65346,-3.14737 0.36968,-3.96798 1.30911,-1.88971 -1.18233,-2.70112 -0.73937,-3.77081 0.90451,-0.75622 2.44928,-2.08088 3.59829,-2.39065 0.11789,-0.96886 -1.50128,-1.13432 -2.29206,-0.5915 -2.29414,0.61965 -3.18322,-0.52365 -5.00311,-0.61615 z m 9.735109,1.82379 c -1.03377,0.98102 -1.4433,1.23628 -1.50339,1.7745 -1.583279,-0.41264 -1.689629,3.51119 -0.19718,2.19348 1.56526,-0.38753 2.94978,-1.64325 2.0949,-0.19718 -1.47024,0.58712 -2.560699,1.21925 -3.228609,2.76033 1.450049,0.50576 3.961529,0.37343 3.992629,-1.92237 0.91433,-1.13027 3.33327,-0.68136 2.83427,-2.24277 -1.05389,-0.57774 -1.76689,-2.54798 -2.83427,-2.16884 -2.06113,1.58929 -0.70409,0.37999 -1.15835,-0.19718 z m -37.609559,0.76402 c -0.0669,-0.0122 -0.15694,-0.0149 -0.24645,0.0247 -1.8158,0.0787 -2.95482,1.26384 -3.20396,2.98215 -1.814102,1.07075 0.47891,2.01246 1.33087,2.36601 1.70343,1.11995 4.26329,0.57019 4.33767,-1.77451 -0.80029,-1.47418 -1.23876,-2.64481 -1.89773,-3.17931 -0.0289,-0.16105 -0.11968,-0.38268 -0.32039,-0.41898 z m 8.77392,1.23229 c -0.0797,0.007 -0.18779,0.0731 -0.29575,0.17253 -0.58256,1.56795 -3.42174,0.51209 -4.732,1.79914 1.82767,1.36945 3.27544,-0.15893 4.90452,-0.61614 0.54798,0.5184 0.68087,-1.4033 0.12323,-1.35552 z m 35.859709,0.76402 c -1.00276,1.05463 -3.59999,1.17233 -2.66175,3.549 -0.83583,0.78731 -2.58334,1.75589 -3.35183,1.01049 -1.31132,-0.009 -2.984889,-0.21367 -2.71105,1.79914 -2.175019,0.49694 -1.858459,2.18907 -2.267419,4.1405 -1.71942,0.51893 -1.47975,2.33962 -0.19715,1.40482 0.0938,1.13317 0.20305,3.10395 1.89773,3.549 1.105939,-0.66064 2.970429,-0.66649 3.992629,-0.96119 0.36445,-1.17558 1.65195,-3.48937 -0.56686,-3.37648 -1.79165,-2.28455 1.37368,0.46979 2.07026,-0.98584 0.0188,-1.33609 2.9119,-3.23187 0,-2.58781 -1.91254,-1.24158 -0.71444,-1.11416 0.93654,-0.78866 1.38669,-0.57755 3.20666,-0.52285 4.55948,-0.5915 0.97779,1.06447 0.10996,1.81434 2.07025,0.98584 0.99197,-1.58171 -1.12642,-0.59376 -1.33088,-2.98215 1.34276,-1.76878 -0.86075,-2.99966 -0.93654,-3.77082 -0.13351,-0.36179 -1.06559,-0.32805 -1.5034,-0.39434 z m -18.558319,6.35863 c -1.11196,0.37112 -2.55734,0.43126 -3.96798,1.183 -0.13953,0.99914 2.213,0.86734 3.57365,1.60199 -0.57045,-0.89802 2.19379,-1.40516 0.76401,-2.58782 v -0.19718 z m 17.794299,0.39434 c -0.52648,1.47935 -1.44612,2.30284 -2.26742,3.74616 -0.19468,1.75313 -1.7638,2.95465 -1.13371,4.7813 -0.20091,1.42849 2.36736,1.15 3.40113,1.40482 0.94392,1.04127 2.26811,1.0223 3.59829,1.57733 1.59295,-0.75123 1.12397,-2.18954 0.76402,-3.52436 -0.82137,-1.3811 -0.20445,-5.60504 0.17253,-4.60878 0.44258,-2.01847 -2.25914,-1.48854 -3.20396,-1.20764 1.06214,0.83765 -1.29998,1.37152 -1.52804,2.58781 -2.06589,1.03021 -0.0591,-2.31634 0.73937,-2.36599 0.19852,-1.45665 1.78976,-1.54654 -0.54221,-2.39065 z m -14.393179,5.93965 c 0.63821,1.71893 0.88759,2.63495 1.13371,3.77081 1.6814,2.27057 1.64137,-1.45258 0.96119,-2.366 -0.061,-1.29033 -1.16252,-1.27877 -2.0949,-1.40481 z m 6.481859,3.30254 c -2.387489,-0.15271 -1.446039,3.05038 -1.749849,4.23909 -0.63855,2.24451 -0.67414,3.45314 1.52804,3.37648 1.344099,-0.005 1.910979,1.25893 2.834269,2.19348 -0.46411,2.50376 2.57804,0.33297 4.16515,1.57733 3.64275,0.53666 -2.59058,0.62064 -3.03144,1.183 -1.34307,1.46488 2.05006,1.03661 2.07025,2.39065 1.3768,-0.41609 2.73513,2.57074 3.42577,1.183 0.86739,-0.78204 2.3703,-2.30563 1.30623,-3.77081 -2.47813,-1.91042 2.56319,1.18563 1.13371,-1.60198 0.42958,-1.36424 1.29694,-2.27086 1.72521,-3.30255 1.71957,-2.01546 -1.68487,-1.65906 -1.84844,-3.2286 -2.00245,1.49303 -1.94187,-2.57702 -3.84475,-1.38017 -0.70506,1.72939 -1.44524,2.66613 -1.13371,0.24645 -0.0176,-0.81196 -2.7527,-0.69742 -3.03144,-2.41529 -0.53878,-1.24494 -1.9022,0.16281 -3.03143,-0.5915 -0.19018,-0.0416 -0.3584,-0.0884 -0.51757,-0.0986 z m -2.168829,8.33029 c -0.15816,0.008 -0.33252,0.023 -0.51757,0.074 -0.60689,1.33515 -1.05705,2.9984 0.76402,2.36599 0.55121,1.16082 3.286289,-0.36776 2.439949,-1.7745 -1.056009,0.11959 -1.579259,-0.72237 -2.686399,-0.66544 z m -72.458796,52.76676 c -0.04573,0.009 -0.113986,0.0331 -0.172528,0.0739 -0.338922,1.09053 1.35061,1.99692 2.464585,2.58781 0.974855,-0.0668 2.73082,2.66116 2.267417,0 0.2235,-1.64698 -2.183663,-1.66999 -3.795459,-2.36601 -0.409737,0.28527 -0.443911,-0.35423 -0.764021,-0.29569 z m 0.197149,3.05608 c -2.084147,0.59876 0.579799,1.65884 0.936543,2.56316 1.394172,0.67204 2.055156,2.29789 3.795463,1.79914 0.699618,-0.1079 -0.564091,-1.58644 -0.197179,-2.39065 -1.125051,-0.843 -2.616048,-1.7164 -4.115859,-1.97165 z m 30.092584,7.14728 c -1.981581,0.57055 1.17232,1.14644 1.897731,1.77452 0.978718,0.25367 -0.05592,3.08035 1.897728,2.16883 1.068324,-0.99496 2.716974,-2.18567 3.203964,-0.17259 1.24951,1.13282 3.24656,0.70513 5.12633,0.98584 1.06789,-0.051 3.5676,1.46383 3.77082,0.19732 1.35692,-1.4246 2.64088,0.5795 3.59829,-1.01048 2.04574,-1.87561 -0.83096,-1.77465 -2.26742,-1.18302 -1.47107,1.09991 0.0581,-2.04986 -2.26741,-0.98581 -2.26769,0.58641 -2.63413,-1.68319 -5.00311,-1.60199 -1.28407,0.009 -2.5675,0.56805 -4.04192,1.01049 -1.804343,0.57246 -2.982062,0.23965 -4.214439,-0.59151 -0.134404,-0.5031 -1.20812,-0.42196 -1.700564,-0.59151 z"
       style="fill:#000000;fill-opacity:1;stroke:#d39062;stroke-width:0.367886;stroke-miterlimit:4;stroke-dasharray:none;stroke-opacity:1"
       id="Aisen" />
  </g>
</svg>
