<?xml version="1.0" encoding="UTF-8" standalone="no"?>
<!-- Created with Inkscape (http://www.inkscape.org/) -->

<svg
   width="210mm"
   height="297mm"
   viewBox="0 0 210 297"
   version="1.1"
   id="svg64"
   inkscape:version="1.1.2 (b8e25be833, 2022-02-05)"
   sodipodi:docname="vector.svg"
   xmlns:inkscape="http://www.inkscape.org/namespaces/inkscape"
   xmlns:sodipodi="http://sodipodi.sourceforge.net/DTD/sodipodi-0.dtd"
   xmlns="http://www.w3.org/2000/svg"
   xmlns:svg="http://www.w3.org/2000/svg">
  <sodipodi:namedview
     id="namedview66"
     pagecolor="#ffffff"
     bordercolor="#666666"
     borderopacity="1.0"
     inkscape:pageshadow="2"
     inkscape:pageopacity="0.0"
     inkscape:pagecheckerboard="0"
     inkscape:document-units="mm"
     showgrid="false"
     inkscape:zoom="0.74029882"
     inkscape:cx="361.34057"
     inkscape:cy="669.99972"
     inkscape:window-width="1920"
     inkscape:window-height="1017"
     inkscape:window-x="-8"
     inkscape:window-y="-8"
     inkscape:window-maximized="1"
     inkscape:current-layer="layer1" />
  <defs
     id="defs61" />
  <g
     inkscape:label="Capa 1"
     inkscape:groupmode="layer"
     id="layer1">
    <path
       id="María_Elena"
       style="fill:#000000;fill-opacity:1;fill-rule:evenodd;stroke:#d38d5f;stroke-width:1.16318;stroke-linecap:butt;stroke-linejoin:miter;stroke-miterlimit:4;stroke-opacity:1"
       d="m 38.228174,32.955703 c -1.55867,-0.18377 -0.18566,54.30344 -0.18566,54.30344 L 27.017681,109.74975 h 7.055893 l 2.64597,3.08699 7.93788,1.76396 1.76396,15.43475 6.17391,6.17393 c 5.0162,5.14489 5.40832,10.28982 -1.32298,15.43475 -2.61655,2.92736 -5.40141,5.80662 0,11.02484 -0.13137,4.52246 0.25647,10.34297 -4.40993,3.52793 l -16.31675,-0.44099 c -6.190543,6.58748 -14.201661,2.65219 -14.111792,9.26087 v 16.75772 l -1.763971,1.76397 4.409934,4.85096 -1.32298,11.46582 5.291918,8.81988 h 5.732921 l 0.440982,20.2857 -5.732903,22.04963 0.440983,11.46582 -3.968933,6.17393 2.204967,3.96892 -1.763972,10.26428 74.086876,-3.64936 52.919166,-51.15525 8.37889,-25.5776 -7.9379,-22.93166 11.90682,-31.75153 29.54658,-58.652107 -6.61492,-24.69561 2.64595,-36.60244 9.92853,-33.4773804 -64.11036,20.5884704 -40.120966,44.37614 c -1.89814,-0.8455 -2.79572,-2.42864 -3.64729,-4.25526 -1.6443,-1.86337 -1.69591,-4.41243 -3.0395,-6.38288 -2.25401,-2.39593 -3.88898,-5.23401 -5.77497,-7.90259 -1.40399,-2.43762 -2.84159,-4.71401 -3.95131,-7.29472 -1.38918,-2.04195 -2.42185,-5.1808 -4.86313,-6.07888 -3.29099,-0.65215 -8.22281,-1.39648 -10.94207,-3.95129 -1.63078,-1.63081 -3.60105,-1.82371 -5.77498,-1.82371 -2.75469,2.77673 -5.42573,2.46072 -9.1184,1.5197 -2.29026,0.0453 -4.13296,-0.0457 -5.69163,-0.22992 z"
       sodipodi:nodetypes="ccccccccccccccccccccccccccccccccccccccccccccc"
       inkscape:label="#path1937" />
  </g>
</svg>
