<?xml version="1.0" encoding="UTF-8" standalone="no"?>
<!-- Created with Inkscape (http://www.inkscape.org/) -->

<svg
   width="210mm"
   height="297mm"
   viewBox="0 0 210 297"
   version="1.1"
   id="svg1283"
   inkscape:version="1.1.2 (b8e25be833, 2022-02-05)"
   sodipodi:docname="vector.svg"
   xmlns:inkscape="http://www.inkscape.org/namespaces/inkscape"
   xmlns:sodipodi="http://sodipodi.sourceforge.net/DTD/sodipodi-0.dtd"
   xmlns="http://www.w3.org/2000/svg"
   xmlns:svg="http://www.w3.org/2000/svg">
  <sodipodi:namedview
     id="namedview1285"
     pagecolor="#ffffff"
     bordercolor="#666666"
     borderopacity="1.0"
     inkscape:pageshadow="2"
     inkscape:pageopacity="0.0"
     inkscape:pagecheckerboard="0"
     inkscape:document-units="mm"
     showgrid="false"
     inkscape:zoom="0.74029882"
     inkscape:cx="361.34057"
     inkscape:cy="561.93525"
     inkscape:window-width="1920"
     inkscape:window-height="1017"
     inkscape:window-x="-8"
     inkscape:window-y="-8"
     inkscape:window-maximized="1"
     inkscape:current-layer="layer1" />
  <defs
     id="defs1280" />
  <g
     inkscape:label="Capa 1"
     inkscape:groupmode="layer"
     id="layer1">
    <path
       d="m 120.78161,17.823902 c -5.33987,0.052 -0.69258,5.11143 -4.7754,6.04203 -3.83514,-1.78897 -6.01982,0.91062 -5.09197,3.82533 -3.8069,-0.27643 -2.16068,5.40549 -5.53538,6.20865 -2.79233,3.01793 1.04705,6.3028 -1.20333,7.99078 -1.3266,1.71957 -4.846591,4.94394 -6.818961,3.69023 -0.39757,2.70568 -6.23034,1.52881 -4.89356,4.2518 0.23408,1.96339 -1.23624,5.08789 -4.33198,4.97382 -0.11295,3.65552 -3.39076,5.87528 -6.24008,4.33206 -2.95566,-0.77388 -6.3103,-4.24445 -6.67577,0.56179 -1.89197,3.01667 -1.78243,5.4263 -2.32119,8.49833 -1.11623,4.1607 -0.47262,6.20708 4.16627,5.7011 4.75578,0.72602 1.67357,3.9394 1.71006,6.62048 1.22487,4.05933 -5.48909,4.01088 -3.55514,6.40705 -2.50883,1.9454 -0.18875,6.0688 -2.4869,7.9106 -0.23111,3.67307 -0.96159,6.846688 -1.2034,10.509128 -0.19916,1.26545 -1.7056,6.74108 0.64205,8.58386 -0.81416,2.82026 2.53751,4.72502 -1.14841,7.26223 -2.07366,1.59257 -4.31497,3.1274 -5.67056,5.65361 -1.15413,2.74997 -5.62634,2.18201 -7.38046,4.33199 -0.0921,3.48476 -1.94087,5.8891 -5.53538,6.17714 -2.6304,1.76422 -4.88903,2.95023 -8.02222,3.6903 -1.53631,4.14093 -5.38854,1.09045 -8.49833,2.32112 -1.43769,2.52317 -5.41859,-1.42455 -6.90444,2.01087 -2.21821,1.47136 -4.99479,2.71526 -7.38048,4.89355 -5.31576,2.33345 -3.53332,-3.43356 -6.17715,-1.84508 0.54486,1.0501 -0.40247,4.66156 -3.69024,1.84508 -1.65394,-2.55118 -4.7498896,-3.1751 -8.1968706,-2.40665 -4.45972597,-2.45413 -3.17851597,0.4585 0.847856,1.20333 3.925275,-1.54405 6.0893646,4.51033 4.220335,6.17713 -2.43404,3.38325 4.6295196,3.36765 3.7704496,7.52366 -0.23244,3.12294 7.4028,1.95893 4.25181,6.06545 -0.44372,5.50633 1.53235,5.46003 5.17987,4.22037 3.89655,-0.41763 2.56683,4.68028 7.17442,4.33199 -0.16416,4.71699 3.11308,4.8509 6.17714,3.12873 2.64312,0.86513 2.13714,-5.23658 5.5354,-4.97381 0.5774,-3.01868 5.89698,-1.37833 6.17714,-5.53539 3.52451,-1.02215 4.78543,-2.90483 6.09688,-5.53538 1.02438,-1.83765 3.88418,-6.50671 6.17714,-3.04848 2.46372,1.45896 3.07166,5.16948 6.81896,5.53539 2.03286,1.77946 6.06827,0.32102 8.02222,2.40672 1.83393,2.15481 6.48575,0.61678 6.09695,5.53531 2.90543,2.75019 -3.7855,7.36367 1.84515,7.46072 2.01347,1.49737 3.5136,4.5625 4.97374,6.73871 2.63501,0.84581 6.5128,3.3672 7.38054,-0.64205 3.10949,-1.60424 5.13351,2.13667 8.085161,2.4869 4.3079,-0.73568 4.16426,4.16025 1.78221,6.17714 -1.67877,2.69327 -7.838151,2.24316 -3.12866,4.89356 1.50926,5.33972 5.41032,0.36932 6.81889,3.12865 4.35242,-1.14662 4.6082,4.40927 2.60513,7.24544 -0.42283,3.5272 -2.80548,4.77154 -3.24688,8.15732 -1.70293,2.74692 4.58954,3.75733 1.84507,7.38053 -2.32342,1.60825 -5.96074,3.25418 -9.867361,2.48691 -2.44507,-0.96508 -0.93811,-5.20879 -4.25181,-6.17714 -4.1225,-2.22369 -4.65152,-1.26983 -7.38046,0.64205 -2.5795,1.07923 -3.21412,3.93531 -6.17714,5.53539 0.5566,3.48275 -1.85645,5.12882 -3.69023,6.73871 -1.58365,2.96673 -1.72075,6.75045 2.51834,6.81889 2.43942,-2.04617 7.29211,1.26701 9.75568,-0.64205 2.64876,3.61502 -0.23705,4.57647 -2.28842,7.24536 -1.30164,1.88848 1.90148,5.81636 0.44364,8.15739 -0.45627,3.94096 3.33004,4.75727 6.81889,4.89355 2.07998,1.86745 0.18058,6.9942 4.2518,7.46072 2.119441,1.81863 4.564511,3.95798 6.962091,4.89356 3.11543,-0.84656 5.426,-4.10905 4.75043,-8.02222 2.48921,-1.74149 6.41241,0.0825 9.14009,1.1178 2.83171,2.92527 5.32567,-2.22585 8.7246,0.43546 1.91791,-1.15227 8.55132,-2.67722 3.7152,-5.27514 0.37082,-2.88061 4.27573,-7.50018 7.22709,-4.40058 2.94734,0.0595 4.65323,1.48578 6.97234,3.79026 2.07886,1.75984 7.55093,2.22934 10.42894,1.28358 4.51501,0.53281 1.58395,7.40008 4.97381,8.02221 2.2509,2.5827 4.42465,8.46251 8.30691,5.48686 2.77805,-2.64593 5.66342,-5.37049 7.01797,-8.98328 2.66072,-0.3723 6.56497,-2.76781 8.77335,-0.19396 4.04797,0.66063 5.93303,-5.50573 9.75568,-3.77041 4.47764,-0.42952 2.2017,-8.19217 7.69829,-6.09696 5.66855,0.69333 7.41257,-6.70385 4.32627,-10.47642 -3.42896,-4.02382 -0.14194,-8.52545 1.53311,-12.38705 0.0223,-4.02968 -6.94351,-2.7059 -7.38046,-5.59825 0.34704,-4.21115 -1.45531,-6.9126 -4.60196,-9.1377 -0.79022,-5.6308 -5.30754,-10.23224 -4.62365,-16.06948 0.47782,-1.26916 5.00918,-3.85891 3.0484,-8.43442 0.81601,-4.28606 -2.1149,-7.24997 -3.3666,-11.19316 0.18726,-3.63286 -1.55995,-7.01834 -1.33092,-10.53847 -0.69258,-5.55485 7.4356,-3.03518 6.39435,-8.03485 -1.73525,-3.42197 -1.86619,-7.32659 -0.85562,-9.84069 -1.99571,-3.54198 -2.0559,-7.78613 -4.53144,-11.08258 2.35686,-4.48366 -3.34416,-6.13738 -6.14541,-8.30691 -5.01498,-2.76015 2.78534,-5.05384 1.03895,-8.29605 -2.58871,-2.59704 -5.3742,-2.89309 -4.59519,-7.29805 -4.44851,-0.0372 -3.69752,-5.05043 -6.34286,-8.10782 -4.3322,2.17591 -4.72442,-3.7673 -5.53538,-6.81889 -3.70041,-1.84553 -3.30901,-5.60963 -2.02967,-9.234688 1.15718,-3.07976 5.2504,-4.18098 5.7199,-8.01322 2.86552,-0.59449 6.90049,4.62908 3.9851,-1.30097 -1.42002,-3.71468 -3.02418,-6.57366 -4.5162,-10.34876 1.74654,-3.37767 -0.1137,-7.3945 3.01801,-10.49166 0.82679,-4.16991 -3.76893,-7.17885 -1.84508,-11.21389 1.82799,-4.28881 1.06644,-8.0726 -4.28428,-8.19595 -4.22237,-2.03636 -0.52612,-6.95451 -3.55669,-9.39995 -1.94332,-2.73437 -3.44813,-7.33595 -7.56178,-4.48262 -2.294,1.37543 -5.05214,3.36661 -8.87011,3.12866 -2.16009,-1.51669 -6.1625,-1.24434 -7.73604,-3.77048 -2.30225,-5.10579 -6.05549,2.11178 -8.02222,-2.40665 -0.4481,-4.40192 -6.16257,-0.60639 -6.81889,-3.69024 -2.03792,-2.17732 -1.67134,-5.07985 -3.69031,-6.81896 -1.1626,-1.27206 -2.04542,-2.94623 -3.69023,-3.69023 z m -75.168611,33.29241 c -1.47865,3.00835 -1.51357,6.14392 3.1916,6.17713 3.66779,0.49195 1.89428,5.46316 2.98554,7.38047 3.57304,0.74333 3.93442,3.51812 6.17714,5.53538 1.62653,4.08297 -2.71675,6.86296 -0.64205,8.58386 0.72974,1.99957 -2.10264,5.95071 -2.48691,8.02222 1.333,4.16017 0.20956,6.52655 -4.13357,6.68386 0.75731,4.25166 -0.95007,6.762488 -3.80846,7.515558 -1.14455,3.10994 -0.68961,4.9157 -3.12874,7.38047 -2.78549,1.32341 -4.54615,1.19879 -5.53531,4.89363 -2.23268,0.0981 -5.75624,1.13986 -6.73874,3.77041 -2.27159,1.63255 -4.6458,4.33585 -6.85038,1.20332 -3.05634,1.19746 -7.28225,-1.65142 -7.34901,3.19168 -3.60572,0.25043 -1.3958,6.31707 -3.69027,7.87909 -1.73635,2.91725 -5.6561496,1.39096 -7.2622296,4.83864 -1.53303,1.69772 -6.31206097,2.17866 -5.81933197,3.65969 1.88320797,0.78362 4.52241197,2.90082 7.60915197,3.21419 3.5570196,-0.9766 5.3358896,1.13414 8.4353796,1.1178 2.14574,-0.91961 6.14154,-1.66369 8.10777,-2.96295 1.79875,-1.71109 3.13595,-4.94327 6.17715,-5.53538 3.35584,1.07759 4.3421,-0.82456 7.38051,-0.64205 1.37335,-3.02886 3.58033,-2.20698 6.20857,-4.33206 4.78321,2.25498 3.52133,-1.96881 6.70728,-2.40665 1.56381,0.43918 5.40682,-1.97431 7.46072,-3.12866 -1.2896,-2.60863 1.27236,-4.05391 2.40665,-6.88183 2.89012,-1.41764 1.97178,-5.04478 2.4869,-7.87917 2.74031,-1.37781 -0.11518,-8.3509 1.84508,-10.509118 0.95654,-3.5 -0.41094,-5.28823 1.2034,-7.94204 0.88825,-3.48587 -0.0297,-5.14755 0.64205,-8.83867 0.34109,-3.47926 3.82897,-4.50558 2.48691,-7.84766 -1.00558,-2.95767 0.51721,-4.73267 -1.28358,-8.08523 1.71585,-1.94874 1.14863,-6.27516 -3.22311,-6.03394 -3.46433,-1.20377 -6.11925,0.15828 -8.55228,-0.64205 -3.0843,-0.74966 -4.55381,-3.09559 -5.47244,-6.17714 -3.15712,2.37782 -2.07396,-2.44009 -5.53539,-1.20332 z m -0.56179,79.500658 c -4.28316,0.60861 -1.29651,4.4705 -5.61557,5.53531 -4.25791,2.33866 2.81864,3.01913 3.12866,0 1.03271,-1.11898 7.6439,-4.9047 3.01697,-3.69023 -4.89541,2.00686 1.74038,-1.5002 -0.52984,-1.84508 z"
       style="fill:#000000;fill-opacity:1;stroke:#d39062;stroke-width:0.983081;stroke-miterlimit:4;stroke-dasharray:none;stroke-opacity:1"
       id="Cochamo" />
  </g>
</svg>
