<?xml version="1.0" encoding="UTF-8" standalone="no"?>
<!-- Created with Inkscape (http://www.inkscape.org/) -->

<svg
   width="210mm"
   height="297mm"
   viewBox="0 0 210 297"
   version="1.1"
   id="svg1283"
   inkscape:version="1.1.2 (b8e25be833, 2022-02-05)"
   sodipodi:docname="vector.svg"
   xmlns:inkscape="http://www.inkscape.org/namespaces/inkscape"
   xmlns:sodipodi="http://sodipodi.sourceforge.net/DTD/sodipodi-0.dtd"
   xmlns="http://www.w3.org/2000/svg"
   xmlns:svg="http://www.w3.org/2000/svg">
  <sodipodi:namedview
     id="namedview1285"
     pagecolor="#ffffff"
     bordercolor="#666666"
     borderopacity="1.0"
     inkscape:pageshadow="2"
     inkscape:pageopacity="0.0"
     inkscape:pagecheckerboard="0"
     inkscape:document-units="mm"
     showgrid="false"
     inkscape:zoom="0.52347032"
     inkscape:cx="155.69173"
     inkscape:cy="611.30496"
     inkscape:window-width="1920"
     inkscape:window-height="1017"
     inkscape:window-x="-8"
     inkscape:window-y="-8"
     inkscape:window-maximized="1"
     inkscape:current-layer="layer1" />
  <defs
     id="defs1280" />
  <g
     inkscape:label="Capa 1"
     inkscape:groupmode="layer"
     id="layer1">
    <path
       d="m 14.274181,86.680822 -3.055185,6.11036 -5.9352311,-3.8141 -5.07900295,9.34068 5.07900295,3.386008 c 0.141411,0.56564 0.286711,1.12733 0.428113,1.693 0.178082,0.71233 0.145029,1.27131 -0.0193,1.69298 -0.164482,0.4217 -0.464263,0.712 -0.83677,0.93408 -0.372508,0.22196 -0.818863,0.37287 -1.264886,0.48651 -0.446026,0.11369 -0.87986,0.19572 -1.264883,0.29192 -0.562016,0.14054 -0.959669,0.34558 -1.225966,0.60325 -0.26629495,0.25755 -0.41516895,0.57201 -0.46703495,0.93405 -0.0519,0.36208 -0.0036,0.77232 0.07784,1.22598 0.08127,0.45367 0.197685,0.94648 0.33081695,1.47895 0.04116,0.16466 0.0072,0.24005 -0.0193,0.3308 0.212854,0.0241 0.369238,0.0878 0.603251,0.0974 0.627321,0.0271 1.322285,0.0181 1.965439,0.0582 0.643147,0.0413 1.232586,0.13963 1.693001,0.36974 0.942838,0.4714 1.726657,1.05748 2.354632,1.71245 0.627975,0.65497 1.096038,1.37475 1.459483,2.10165 0.243253,0.48651 0.555134,0.80377 0.9146101,1.05082 0.359473,0.24699 0.781135,0.4128 1.225967,0.56434 0.444826,0.1514 0.92126,0.30605 1.420561,0.50596 0.499303,0.19995 1.014418,0.44459 1.53732,0.83676 0.987255,0.74044 1.975405,1.32828 3.016269,1.80978 1.040861,0.4815 2.134133,0.86433 3.347077,1.16759 1.756526,0.4391 3.8865,0.75268 5.935234,1.26486 0.59798,0.14958 1.1165,0.36638 1.576242,0.62273 0.459745,0.25634 0.860529,0.55722 1.264889,0.91459 0.808717,0.71481 1.601116,1.6206 2.685449,2.70493 0.834783,0.8348 1.68871,1.49218 2.490846,2.08219 0.802143,0.59001 1.536696,1.12802 2.160036,1.75139 0.523734,0.52372 1.017072,1.0099 1.47894,1.42056 0.46187,0.41066 0.90696,0.73018 1.34273,0.93408 0.43576,0.20386 0.85839,0.29102 1.3038,0.19451 0.4454,-0.0965 0.91031,-0.36542 1.40111,-0.85621 0.75365,-0.75367 1.51261,-1.42797 2.17949,-2.10167 0.66688,-0.6737 1.23762,-1.34658 1.63462,-2.14058 0.0665,-0.133 0.9789,0.10314 2.00436,0.46706 1.02546,0.36403 2.16763,0.8522 2.66599,1.22594 0.15875,0.11913 0.6907,0.009 1.42056,-0.23342 0.72986,-0.24217 1.64527,-0.62203 2.56869,-1.01192 1.84685,-0.7797 3.71134,-1.64297 4.06709,-1.7319 0.86976,-0.21744 1.17525,-0.22046 1.12867,-0.11671 -0.0466,0.10374 -0.43758,0.32715 -0.99245,0.60324 -1.10973,0.55223 -2.82769,1.28738 -3.52222,1.63462 -0.15676,0.0784 0.0278,1.08885 0.23351,2.08222 0.38708,-0.14264 0.76068,-0.22558 1.10921,-0.17521 0.42201,0.0609 0.82757,0.22588 1.22597,0.35028 0.3984,0.12425 0.79295,0.22679 1.20651,0.17522 0.41355,-0.0516 0.83632,-0.25242 1.3038,-0.71999 0.0939,-0.0938 0.52599,0.0603 1.10921,0.36973 0.58322,0.30936 1.31555,0.76945 2.06274,1.24541 1.49437,0.95196 2.99309,2.00067 3.1914,2.19896 0.46283,0.46283 0.70677,0.91215 0.85623,1.34272 0.14946,0.43059 0.20896,0.83507 0.2919,1.20653 0.0829,0.37145 0.20383,0.70699 0.46703,0.99243 0.26322,0.2853 0.67187,0.52798 1.36219,0.70057 1.15427,0.28861 2.2787,0.75488 3.40546,1.28433 1.12675,0.52946 2.25938,1.11024 3.386,1.67353 2.50008,1.25007 4.36695,1.76511 6.79146,2.97736 0.36906,0.18457 0.76291,0.48615 1.16759,0.85622 0.40468,0.3701 0.81826,0.81106 1.20651,1.24543 0.77648,0.86876 1.46977,1.74222 1.86813,2.14058 0.67877,0.67876 1.45359,1.29724 2.31571,1.80977 0.86213,0.5125 1.79965,0.92666 2.7633,1.16756 0.25839,0.0645 0.47391,0.18276 0.66162,0.35029 0.18774,0.16768 0.3585,0.37643 0.4865,0.62273 0.25601,0.49254 0.40358,1.11026 0.48649,1.77081 0.16584,1.3211 0.0583,2.79865 0.0583,3.61952 1e-5,1.54466 0.16177,2.57488 0.44758,3.50278 0.2858,0.9279 0.71119,1.75317 1.26488,2.86057 0.20553,0.41108 0.26874,0.84903 0.27245,1.30381 0.004,0.45479 -0.057,0.92594 -0.13622,1.40111 -0.0793,0.47517 -0.17073,0.94838 -0.21406,1.42056 -0.0433,0.47218 -0.0336,0.93577 0.0778,1.38165 0.15728,0.62907 0.22414,1.19422 0.25297,1.71246 0.0289,0.51823 0.002,0.99955 -0.0584,1.45949 -0.11598,0.87391 -0.34498,1.68863 -0.58379,2.62705 0.0375,0.054 0.12066,0.18608 0.15568,0.23343 0.0742,-0.19241 0.17268,-0.28198 0.23351,-0.52542 0.0766,-0.1532 0.16879,-0.18909 0.2919,-0.15561 0.1231,0.0335 0.27456,0.15471 0.42811,0.33083 0.30715,0.35225 0.65955,0.93674 0.99245,1.59569 0.6658,1.3179 1.24543,2.89525 1.24543,3.32762 0,0.24096 0.0593,0.46814 0.17513,0.68109 0.11586,0.21291 0.29913,0.41889 0.50595,0.60327 0.413639,0.36874 0.967819,0.68332 1.595699,0.93405 0.62788,0.25092 1.32271,0.43651 1.96544,0.56435 0.64272,0.12787 1.23482,0.19452 1.693,0.19452 0.28879,0 0.62782,-0.0977 0.99244,-0.25303 0.36464,-0.15531 0.75982,-0.37299 1.14813,-0.60325 0.77662,-0.46051 1.54328,-0.98571 2.10166,-1.26488 0.33427,-0.16707 0.80332,-0.26056 1.34272,-0.29193 0.53941,-0.0314 1.15485,-0.003 1.77084,0.0389 1.23199,0.0835 2.48263,0.25302 3.24979,0.25302 0.0308,-0.21653 0.49712,-0.2859 1.14811,-0.21412 0.65099,0.0721 1.49254,0.2859 2.2768,0.64215 0.39214,0.17824 0.77506,0.39371 1.10921,0.64218 0.33415,0.24851 0.62149,0.51851 0.83676,0.83677 0.21532,0.31825 0.35369,0.6828 0.38921,1.0703 0.0356,0.3875 -0.0271,0.80865 -0.23342,1.26488 -0.16677,0.0416 -0.24247,0.12636 -0.25302,0.25303 -0.0121,0.12666 0.0485,0.28107 0.15561,0.46705 0.21382,0.3717 0.61715,0.84889 1.07031,1.30379 0.9063,0.9098 1.97284,1.77826 1.98487,1.79029 0.30915,0.30915 0.58144,0.65772 0.79786,1.03137 0.21653,0.37366 0.38933,0.77669 0.54489,1.20653 0.31108,0.85962 0.51986,1.82645 0.77837,2.86057 0.13632,0.54576 0.40569,1.00504 0.73951,1.42055 0.33381,0.41555 0.7395,0.78299 1.20646,1.10921 0.93408,0.6525 2.07061,1.17152 3.1525,1.71249 1.20478,0.60237 2.209,0.94337 3.09411,1.34272 0.44257,0.19964 0.84445,0.42462 1.24546,0.68108 0.40095,0.25635 0.78257,0.54909 1.16759,0.93408 0.23071,0.23071 0.46567,0.36084 0.68103,0.40864 0.21533,0.048 0.42595,0.0151 0.62276,-0.0778 0.39365,-0.18728 0.75081,-0.62454 1.05082,-1.12866 0.59996,-1.00824 0.97983,-2.30419 1.05082,-2.58815 0.0648,-0.25966 0.18939,-0.46245 0.35029,-0.60325 0.16074,-0.14084 0.34811,-0.22136 0.58379,-0.27233 0.4714,-0.10223 1.08852,-0.0639 1.73194,0.0181 0.64339,0.0835 1.31965,0.21532 1.96539,0.25302 0.6458,0.0377 1.25339,-0.0151 1.73194,-0.25302 0.38092,-0.1906 0.80328,-0.14356 1.26491,0.0181 0.46154,0.16316 0.96505,0.44616 1.47891,0.75892 0.51387,0.3128 1.03846,0.65624 1.57624,0.91463 0.5378,0.25846 1.08188,0.42813 1.61519,0.42813 0.75211,0 1.3733,0.0464 1.90701,0.15561 0.53376,0.10917 0.98155,0.28952 1.36223,0.52541 0.38068,0.23584 0.69945,0.53473 0.99244,0.9146 0.29283,0.37987 0.56618,0.8405 0.83676,1.38165 0.26901,0.5379 0.58765,0.87793 0.93408,1.12866 0.34642,0.25061 0.70983,0.40572 1.07027,0.60325 0.36048,0.19754 0.72026,0.41953 1.03137,0.79786 0.31111,0.37833 0.58012,0.91936 0.77838,1.71245 0.0603,0.24066 0.16104,0.40472 0.31138,0.52542 0.15018,0.12063 0.34398,0.18366 0.56431,0.21412 0.4407,0.0606 1.01382,-0.0121 1.61517,-0.13632 0.60138,-0.12274 1.22679,-0.28107 1.8292,-0.35025 0.60243,-0.0691 1.17133,-0.0467 1.61525,0.17522 0.83061,0.41551 1.40268,0.72906 1.8292,0.93408 0.4261,0.20507 0.71139,0.29585 0.9535,0.27232 0.24217,-0.0241 0.44206,-0.17793 0.72005,-0.44757 0.27776,-0.26961 0.63359,-0.6531 1.1676,-1.18705 0.15772,-0.15802 0.34286,-0.20296 0.54486,-0.17521 0.20175,0.0271 0.41651,0.12515 0.64209,0.25302 0.45134,0.25574 0.938,0.61751 1.36223,0.75892 0.53989,0.18005 1.11253,0.25997 1.69301,0.25303 0.58011,-0.006 1.16705,-0.0941 1.71248,-0.21412 1.09042,-0.24006 2.03313,-0.62738 2.52977,-0.8757 0.63678,-0.31855 1.5829,-0.56211 2.52973,-0.75892 0.94657,-0.19693 1.90098,-0.35852 2.5687,-0.52541 0.67545,-0.16888 1.07688,-0.39229 1.36223,-0.60325 0.285,-0.2108 0.45086,-0.403 0.64213,-0.52541 0.1912,-0.12244 0.40369,-0.17461 0.79785,-0.0778 0.39384,0.0968 0.95574,0.3514 1.84865,0.79786 0.3473,0.17371 0.68121,0.45146 0.9925,0.79786 0.31117,0.34639 0.61362,0.74782 0.91457,1.16759 0.60189,0.83954 1.21032,1.73981 1.92657,2.2768 0.34561,0.25906 0.8016,0.39812 1.32324,0.48648 0.52125,0.0884 1.096,0.10917 1.69301,0.0974 1.19389,-0.0241 2.45045,-0.17522 3.34704,-0.17522 2.12122,0 4.24207,0 6.36341,0 0.97521,0 1.94334,0 2.91898,0 -0.77874,-1.32999 -1.8884,-2.6076 -2.37412,-2.6076 -0.77065,0 -3.21607,-4.61856 -3.95035,-7.27795 -0.34012,-1.23189 1.38482,-2.55844 0.5059,-3.24978 -1.21253,-0.95378 -3.9835,-0.39685 -3.69733,-1.53733 0.20748,-0.82672 -0.0461,-4.30393 -0.5838,-5.93523 -0.53732,-1.63133 0.10405,-2.68547 -0.0778,-3.54168 -0.55535,-2.61339 -5.653,-9.08772 -8.36776,-10.48883 -1.23849,-0.63922 -6.65856,-2.85351 -7.74494,-3.54168 -0.45535,0 -0.82234,0 -1.24546,0 -0.73721,0 -1.31337,-0.0501 -1.77075,-0.13631 -0.45765,-0.0859 -0.78727,-0.19965 -1.03146,-0.35026 -0.24428,-0.15079 -0.40855,-0.33131 -0.50593,-0.52544 -0.0974,-0.19421 -0.13873,-0.40662 -0.15561,-0.6227 -0.0344,-0.43216 0.0344,-0.89255 -0.0778,-1.28433 -0.0561,-0.19603 -0.15562,-0.37167 -0.33077,-0.52541 -0.17552,-0.15381 -0.43696,-0.27957 -0.79792,-0.36974 -0.55771,-0.13933 -1.12212,-0.41539 -1.67352,-0.7784 -0.55144,-0.36302 -1.08246,-0.81463 -1.57624,-1.30379 -0.98773,-0.97838 -1.80799,-2.11763 -2.25728,-3.01627 -0.27323,-0.54592 -0.41597,-0.98749 -0.46703,-1.38166 -0.0513,-0.39413 -0.009,-0.72403 0.0585,-1.01192 0.13661,-0.57571 0.40867,-0.99711 0.40873,-1.42055 -1.2e-4,-1.12483 -0.0796,-2.25808 -0.33083,-3.28869 -0.12576,-0.51531 -0.30158,-1.01355 -0.52545,-1.45949 -0.22407,-0.44595 -0.49073,-0.84102 -0.83679,-1.18705 -0.49489,-0.49492 -0.92117,-0.85377 -1.32324,-1.10921 -0.40209,-0.25543 -0.78763,-0.39874 -1.18701,-0.44757 -0.39962,-0.0489 -0.8168,-0.009 -1.30385,0.11671 -0.48711,0.12486 -1.04756,0.31787 -1.71245,0.5838 -0.84397,0.33759 -1.44815,0.87735 -2.17951,1.32327 -0.3657,0.22286 -0.75667,0.41823 -1.22598,0.56434 -0.46926,0.14627 -1.01283,0.23342 -1.67349,0.23342 -1.41314,0 -3.21906,0.13059 -4.82605,-0.0778 -0.80353,-0.10435 -1.56399,-0.30315 -2.19897,-0.6227 -0.31747,-0.15984 -0.60798,-0.34981 -0.85621,-0.5838 -0.2482,-0.23403 -0.44232,-0.51492 -0.60328,-0.83679 -0.16345,-0.32706 -0.26418,-0.60771 -0.29193,-0.8757 -0.0271,-0.2678 0.009,-0.51865 0.0778,-0.73944 0.13662,-0.44163 0.43732,-0.80374 0.71999,-1.12869 0.28258,-0.32495 0.55099,-0.61039 0.66164,-0.9146 0.0555,-0.15199 0.0666,-0.30215 0.0181,-0.46702 -0.0473,-0.16496 -0.16044,-0.33575 -0.35025,-0.52541 -0.0407,-0.0407 -0.3891,-0.57894 -0.8757,-1.20653 -0.4866,-0.62755 -1.09573,-1.35207 -1.65407,-1.77084 -0.85045,-0.63784 -1.62135,-1.19649 -2.37412,-1.79029 -0.75274,-0.59381 -1.4911,-1.21868 -2.29622,-2.02381 -0.80826,-0.80823 -1.64011,-1.6304 -2.43248,-2.47141 -0.7924,-0.84098 -1.54888,-1.70835 -2.23786,-2.62705 -0.24187,-0.32248 -0.35671,-0.72597 -0.40867,-1.1676 -0.0519,-0.44163 -0.0501,-0.92398 -0.0585,-1.38165 -0.009,-0.45765 -0.0241,-0.89436 -0.13631,-1.26488 -0.11129,-0.37052 -0.32055,-0.67596 -0.68109,-0.85622 -0.18999,-0.095 -1.65675,-0.86927 -3.09411,-1.71245 -0.71866,-0.42161 -1.43829,-0.85 -1.96539,-1.22598 -0.52719,-0.37598 -0.87569,-0.70045 -0.87569,-0.8757 0,-0.28288 0.12636,-0.58379 0,-0.83676 -0.41679,-0.8335 -0.70169,-1.28288 -0.91463,-1.47894 -0.21292,-0.19603 -0.35553,-0.15531 -0.48648,0 -0.13089,0.15531 -0.23795,0.42146 -0.40867,0.64218 -0.17069,0.22076 -0.40743,0.40864 -0.73947,0.40864 -0.8073,0 -1.42044,0.18879 -1.92652,0.46703 -0.50611,0.27835 -0.89122,0.6407 -1.20653,1.01191 -0.31533,0.37122 -0.56295,0.75296 -0.79785,1.03137 -0.23493,0.27836 -0.45515,0.44758 -0.72002,0.44758 -0.28288,0 -0.60328,-0.12636 -0.85625,0 -0.43352,0.21683 -1.0982,0.22256 -1.86813,0.11671 -0.76993,-0.10586 -1.64354,-0.31328 -2.51031,-0.50596 -0.86677,-0.19271 -1.72784,-0.36524 -2.45193,-0.40867 -0.36204,-0.0211 -0.69155,-0.0211 -0.97298,0.0389 -0.28137,0.06 -0.51018,0.17944 -0.68109,0.35029 -0.2868,0.2868 -1.0671,0.87651 -1.80977,1.47894 -0.74264,0.60243 -1.43964,1.20574 -1.57623,1.47894 -0.11457,0.2292 -0.50321,0.53485 -1.03137,0.85625 -0.52816,0.32136 -1.19446,0.65904 -1.86814,0.97298 -1.34735,0.62786 -2.73432,1.14811 -3.05518,1.14811 -0.91086,0 -2.22451,0.0884 -3.50276,0.0778 -0.63912,-0.006 -1.26355,-0.041 -1.82922,-0.11671 -0.56567,-0.0757 -1.05799,-0.19814 -1.44002,-0.38919 -0.853959,-0.42697 -2.032009,-0.79029 -3.249789,-1.18704 -1.21777,-0.39679 -2.47886,-0.83079 -3.54168,-1.36221 -0.36031,-0.18004 -1.85739,-0.83875 -3.30815,-1.65407 -0.72539,-0.40767 -1.4453,-0.85913 -2.00437,-1.30381 -0.55906,-0.44468 -0.95069,-0.88384 -1.05082,-1.28434 -0.17866,-0.71459 -0.36429,-1.29835 -0.60325,-1.79029 -0.23897,-0.49197 -0.54035,-0.88842 -0.91462,-1.18705 -0.37425,-0.29856 -0.83603,-0.50755 -1.42056,-0.64218 -0.58453,-0.1345 -1.29027,-0.19452 -2.16003,-0.19452 -0.7314,0 -1.40843,-0.0754 -2.06274,-0.19451 -0.6543,-0.11943 -1.2926,-0.28862 -1.92651,-0.44761 -0.63392,-0.15923 -1.25629,-0.30878 -1.92652,-0.42809 -0.67024,-0.11942 -1.37732,-0.19452 -2.14058,-0.19452 -2.67828,0 -5.54576,-0.42812 -7.62823,-0.42812 -0.92362,0 -1.70652,-0.13179 -2.39356,-0.3308 -0.68703,-0.19874 -1.28317,-0.47432 -1.88759,-0.73947 -0.60442,-0.26509 -1.21181,-0.52116 -1.8876,-0.72002 -0.67579,-0.19874 -1.43404,-0.33081 -2.33517,-0.33081 -0.64118,0 -1.16019,-0.15199 -1.63462,-0.38921 -0.47445,-0.23704 -0.90322,-0.55518 -1.32327,-0.9146 -0.42005,-0.35942 -0.82579,-0.76185 -1.3038,-1.12866 -0.47803,-0.36681 -1.02521,-0.71366 -1.67355,-0.97299 -0.62453,-0.2497 -1.79039,-0.72285 -2.86058,-1.32326 -0.5351,-0.30007 -1.04293,-0.62424 -1.44003,-0.97299 -0.39709,-0.34877 -0.68558,-0.71854 -0.77839,-1.08975 -0.13312,-0.53247 -0.40359,-1.70996 -0.81731,-2.80221 -0.20685,-0.54613 -0.45062,-1.06711 -0.73947,-1.47895 -0.28885,-0.41183 -0.61372,-0.72261 -0.99245,-0.81731 -1.12036,-0.28016 -2.01515,-0.56871 -2.76329,-1.0703 -0.37407,-0.25061 -0.717,-0.55581 -1.03137,-0.93405 -0.31435,-0.37824 -0.59879,-0.8279 -0.87569,-1.38166 -0.33836,-0.67674 -0.68613,-1.54037 -1.14812,-2.2768 -0.23098,-0.36819 -0.49887,-0.7024 -0.797847,-0.97298 -0.298985,-0.27052 -0.639676,-0.46639 -1.03137,-0.56432 -0.738826,-0.18486 -1.317523,-0.41038 -1.80976,-0.66163 -0.492231,-0.251208 -0.889112,-0.539948 -1.284347,-0.836788 -0.790453,-0.59363 -1.541207,-1.2571 -2.841121,-1.90704 -0.712345,-0.35616 -2.02225,-0.68799 -3.347086,-1.08975 -0.662412,-0.20085 -1.328685,-0.42408 -1.926517,-0.66163 -0.597829,-0.23765 -1.129757,-0.50678 -1.517862,-0.79786 -0.483335,-0.3625 -1.176363,-1.57289 -1.887598,-2.72438 -0.355616,-0.57571 -0.722469,-1.12464 -1.050828,-1.55678 -0.328359,-0.4321 -0.630734,-0.7366 -0.875689,-0.79782 -1.246178,-0.31157 -1.959385,-0.60377 -2.588147,-0.99247 -0.628772,-0.38871 -1.176747,-0.87772 -2.082198,-1.55678 -0.290903,-0.21804 -0.777573,-0.4062 -1.187045,-0.60325 z"
       style="fill:#000000;fill-opacity:1;fill-rule:evenodd;stroke:#d39062;stroke-width:0.311356;stroke-linecap:butt;stroke-linejoin:miter;stroke-miterlimit:4;stroke-dasharray:none;stroke-opacity:1"
       id="Pinto"
       inkscape:connector-curvature="0" />
  </g>
</svg>
