<?xml version="1.0" encoding="UTF-8" standalone="no"?>
<!-- Created with Inkscape (http://www.inkscape.org/) -->

<svg
   width="210mm"
   height="297mm"
   viewBox="0 0 210 297"
   version="1.1"
   id="svg1283"
   inkscape:version="1.1.2 (b8e25be833, 2022-02-05)"
   sodipodi:docname="vector.svg"
   xmlns:inkscape="http://www.inkscape.org/namespaces/inkscape"
   xmlns:sodipodi="http://sodipodi.sourceforge.net/DTD/sodipodi-0.dtd"
   xmlns="http://www.w3.org/2000/svg"
   xmlns:svg="http://www.w3.org/2000/svg">
  <sodipodi:namedview
     id="namedview1285"
     pagecolor="#ffffff"
     bordercolor="#666666"
     borderopacity="1.0"
     inkscape:pageshadow="2"
     inkscape:pageopacity="0.0"
     inkscape:pagecheckerboard="0"
     inkscape:document-units="mm"
     showgrid="false"
     inkscape:zoom="0.52347032"
     inkscape:cx="155.69173"
     inkscape:cy="611.30496"
     inkscape:window-width="1920"
     inkscape:window-height="1017"
     inkscape:window-x="-8"
     inkscape:window-y="-8"
     inkscape:window-maximized="1"
     inkscape:current-layer="layer1" />
  <defs
     id="defs1280" />
  <g
     inkscape:label="Capa 1"
     inkscape:groupmode="layer"
     id="layer1">
    <path
       d="m 5.7921632,71.871005 c -0.2014,-0.002 -0.45818,0.12357 -0.67322,0.15487 0.22708,0.78075 0.41003,1.5769 0.31053,2.48532 -0.12437,1.13678 -0.55687,2.40852 -1.29445,3.88328 -1.08053,2.16122 -2.7246,3.86395 -3.41725001,5.74721 -0.34664,0.94164 -0.42207,1.92147 -0.10351,3.00304 0.31856,1.08166 1.02051001,2.26321 2.38173001,3.62443 1.72214,1.72206 3.67682,3.49828 5.33301,5.48827 0.82809,0.99507 1.58477,2.05892 2.2263808,3.21022 0.64193,1.151295 1.15973,2.360775 1.50155,3.727935 0.86364,3.45447 1.3552,5.64274 2.22638,7.55938 0.87127,1.91673 2.13218,3.5819 4.55635,6.00616 1.47091,1.4709 3.2412,3.0653 4.19398,4.76345 0.47664,0.84904 0.7631,1.74028 0.67323,2.64059 -0.0899,0.9003 -0.55367,1.79644 -1.50148,2.74417 -0.83836,0.83837 -2.62478,2.88661 -3.88328,5.38485 -0.6291,1.24903 -1.1294,2.5934 -1.29446,3.98679 -0.1653,1.3934 -0.005,2.8367 0.67323,4.1939 0.72057,1.44154 1.05565,2.56067 1.19086,3.57259 0.13481,1.01193 0.0802,1.88576 -0.10351,2.79602 -0.36029,1.82035 -1.08735,3.76436 -1.08735,7.14518 0,1.57112 0.0802,2.98209 0.31053,4.24565 0.2335,1.26364 0.61305,2.40941 1.13903,3.46908 0.52558,1.05967 1.19544,2.04359 2.07111,3.00304 0.87568,0.95944 1.97811,1.88487 3.26198,2.84776 1.81177,1.35889 3.98824,2.81608 5.90256,4.60811 0.95712,0.89606 1.85478,1.8466 2.58883,2.95128 0.73421,1.10477 1.3117,2.34754 1.65682,3.72794 0.35467,1.41762 1.50276,5.13136 2.84769,8.75025 1.34501,3.61897 2.89648,7.14221 3.93512,8.18077 1.87428,1.87428 3.53881,3.56882 4.76346,5.64371 0.61224,1.03744 1.10765,2.1759 1.44972,3.46899 0.21103,0.7976 0.26479,1.80215 0.36269,2.74418 1.90301,0.4325 3.60525,1.12956 6.93808,2.79594 0.65717,0.32898 1.31997,0.008 1.91576,-0.62107 0.59539,-0.6299 1.1562,-1.56776 1.70866,-2.48524 0.55206,-0.91756 1.07805,-1.79556 1.60507,-2.32997 0.26319,-0.26721 0.51595,-0.42047 0.77674,-0.46621 0.26078,-0.0481 0.51675,-8e-4 0.77674,0.25918 0.74704,0.74705 1.55235,1.38 2.43348,1.86393 0.88113,0.48386 1.86794,0.83435 2.95128,1.0356 1.08334,0.2014 2.27067,0.25677 3.62434,0.15486 1.35376,-0.1011 2.86406,-0.35386 4.55644,-0.77673 0.15486,-0.0401 4.10531,-0.83957 7.87,-1.08727 1.88238,-0.12358 3.72151,-0.10673 5.02239,0.20702 0.65076,0.15727 1.13012,0.39719 1.44972,0.72458 0.31936,0.32819 0.44534,0.75507 0.31054,1.29437 -0.32097,1.28451 -0.40763,2.30654 -0.31054,3.15839 0.0971,0.85184 0.39318,1.54617 0.82849,2.07111 0.43571,0.52478 1.01482,0.88707 1.70858,1.19086 0.69409,0.30412 1.50983,0.53682 2.38173,0.72458 1.74397,0.37634 3.77103,0.64113 5.747306,1.19087 0.98809,0.27442 1.92154,0.61063 2.84768,1.08727 0.92615,0.47663 1.80479,1.07997 2.58883,1.86401 1.0409,1.04089 2.06373,1.79155 3.00304,2.32989 0.93939,0.53842 1.78922,0.84157 2.64067,0.98384 0.85136,0.14203 1.70826,0.14764 2.48523,0 0.77674,-0.14765 1.51015,-0.44614 2.22646,-0.77674 1.43255,-0.66119 2.76753,-1.57361 4.03856,-2.32997 1.2711,-0.75668 2.45795,-1.34621 3.67618,-1.34621 1.43423,0 2.70004,0.4004 3.88328,1.03552 1.18324,0.63471 2.30598,1.48334 3.469,2.32997 1.16302,0.84654 2.35428,1.69502 3.72794,2.32997 1.37373,0.63471 2.89655,1.08727 4.7117,1.08727 3.00247,0 6.34437,-0.36831 9.37164,-0.25918 0.38756,0.0161 0.71013,0.12357 1.08727,0.15486 0.81381,-0.67081 1.55957,-1.40879 2.43356,-1.91576 1.42629,-0.82737 2.8452,-1.39797 4.03855,-1.39797 0.31615,0 0.43491,-0.0401 0.72458,-0.0481 l 11.70153,-37.1757 6.78281,-4.5046 h -4.50459 v -9.06094 l 9.00919,-13.51379 3.41724,2.22638 7.87008,-19.1574 18.07013,5.6437 c 0,-1.88134 0,-3.76236 0,-5.6437 0,-1.23949 -0.53922,-2.49463 -1.39796,-3.72794 -0.85875,-1.23331 -2.01527,-2.45162 -3.21022,-3.67618 -1.19488,-1.22457 -2.46037,-2.46285 -3.469,-3.6761 -1.00864,-1.21325 -1.77125,-2.42506 -2.07111,-3.62443 -0.83195,-3.32793 -1.7483,-5.57205 -2.27814,-7.71473 -0.26479,-1.07131 -0.44935,-2.14606 -0.4662,-3.26198 -0.016,-1.11584 0.11876,-2.2884 0.4662,-3.6761 0.45497,-1.82084 0.69409,-3.32825 0.72458,-4.65994 0.0321,-1.33161 -0.134,-2.4972 -0.51755,-3.62435 -0.0843,-0.24875 -0.41325,-0.58175 -0.51756,-0.82841 -2.20432,0.78396 -4.53292,1.36033 -6.47212,2.32989 -0.88939,0.44454 -2.13739,0.69329 -3.57259,0.77674 -1.4352,0.0834 -3.02093,0.008 -4.65994,-0.10351 -3.27794,-0.22227 -6.65731,-0.67323 -8.69849,-0.67323 -1.6021,0 -2.72324,0.25998 -3.6761,0.62107 -0.95295,0.36189 -1.69125,0.84518 -2.43357,1.19086 -0.74223,0.34584 -1.51496,0.56571 -2.48532,0.51756 -0.97028,-0.0481 -2.14268,-0.37232 -3.77969,-1.19086 -1.62047,-0.81028 -3.06755,-1.12667 -4.401,-1.13911 -1.33345,-0.0161 -2.56628,0.25517 -3.83145,0.56971 -1.26517,0.31375 -2.57126,0.71094 -3.98688,0.88017 -1.41562,0.16931 -2.92688,0.13561 -4.71169,-0.31053 -2.5293,-0.6323 -5.14308,-1.25947 -7.50764,-2.12287 -1.18227,-0.4317 -2.29297,-0.92518 -3.31373,-1.50156 -1.02075,-0.57613 -1.96519,-1.24029 -2.74417,-2.019265 -0.25357,-0.25357 -0.60342,-0.0899 -1.08728,0.310525 -0.48385,0.40041 -1.07684,1.01794 -1.81217,1.60507 -0.73501,0.58737 -1.63155,1.1444 -2.64066,1.44972 -1.00912,0.30492 -2.16412,0.39238 -3.469,-0.0481 -1.30738,-0.44534 -2.76199,-1.41931 -4.24574,-2.58883 -1.48374,-1.169515 -3.00175,-2.561065 -4.401,-3.935035 -2.7985,-2.74795 -5.16257,-5.40314 -6.05791,-5.85073 -3.16865,-1.58437 -4.73802,-3.12492 -6.00615,-3.93504 -0.63391,-0.40522 -1.174986,-0.63471 -1.812176,-0.56971 -0.63712,0.0642 -1.37085,0.41966 -2.32998,1.13902 -0.73741,0.55367 -1.46256,0.82625 -2.17462,0.88025 -0.71174,0.0562 -1.40358,-0.081 -2.07103,-0.41404 -1.3349,-0.66601 -2.58225,-2.033 -3.62443,-3.57259 -1.04209,-1.53968 -1.88808,-3.30025 -2.48523,-4.81529 -0.597,-1.51504 -0.93201,-2.77355 -0.93201,-3.36549 0,-0.38355 -0.12678,-0.5657 -0.36269,-0.62107 -0.23591,-0.0562 -0.57212,0.016 -0.98376,0.20703 -0.82296,0.38515 -1.94024,1.17377 -3.10663,2.07103 -2.33262,1.7946 -4.86704,3.98687 -5.69538,3.98687 -5.19723,0 -10.52406,-1.1391 -16.93102,-1.1391 -1.22288,0 -2.3924,0.28887 -3.52084,0.72458 -1.12843,0.43651 -2.22284,1.02548 -3.31373,1.65682 -2.18176,1.26268 -4.35831,2.66875 -6.73097,3.26198 -1.58605,0.39639 -3.10759,0.58817 -4.55643,0.56971 -1.44876,-0.016 -2.83204,-0.22628 -4.09031,-0.56971 -1.25835,-0.34344 -2.40267,-0.822 -3.41732,-1.39797 -1.01466,-0.57613 -1.87099,-1.24968 -2.58883,-1.96752 -1.24567,-1.24575 -2.32243,-2.04014 -3.36549,-2.48532 -1.04306,-0.44534 -2.08852,-0.54724 -3.15838,-0.51756 -2.13972,0.0562 -4.55683,0.72458 -8.18078,0.72458 -0.73902,0 -1.3414,-0.13159 -1.91568,-0.4662 -0.57453,-0.3338 -1.09787,-0.83916 -1.65691,-1.50156 -1.118,-1.32478 -2.3456208,-3.30009 -4.2974108,-5.90256 -0.45497,-0.60662 -1.06553,-0.8723 -1.76042,-0.88017 z"
       style="fill:#000000;fill-opacity:1;fill-rule:evenodd;stroke:#d39062;stroke-width:0.828429;stroke-linecap:butt;stroke-linejoin:miter;stroke-miterlimit:4;stroke-dasharray:none;stroke-opacity:1"
       id="Bulnes"
       inkscape:connector-curvature="0" />
  </g>
</svg>
