<?xml version="1.0" encoding="UTF-8" standalone="no"?>
<!-- Created with Inkscape (http://www.inkscape.org/) -->

<svg
   width="210mm"
   height="297mm"
   viewBox="0 0 210 297"
   version="1.1"
   id="svg1283"
   inkscape:version="1.1.2 (b8e25be833, 2022-02-05)"
   sodipodi:docname="vector.svg"
   xmlns:inkscape="http://www.inkscape.org/namespaces/inkscape"
   xmlns:sodipodi="http://sodipodi.sourceforge.net/DTD/sodipodi-0.dtd"
   xmlns="http://www.w3.org/2000/svg"
   xmlns:svg="http://www.w3.org/2000/svg">
  <sodipodi:namedview
     id="namedview1285"
     pagecolor="#ffffff"
     bordercolor="#666666"
     borderopacity="1.0"
     inkscape:pageshadow="2"
     inkscape:pageopacity="0.0"
     inkscape:pagecheckerboard="0"
     inkscape:document-units="mm"
     showgrid="false"
     inkscape:zoom="0.74029882"
     inkscape:cx="361.34057"
     inkscape:cy="561.93525"
     inkscape:window-width="1920"
     inkscape:window-height="1017"
     inkscape:window-x="-8"
     inkscape:window-y="-8"
     inkscape:window-maximized="1"
     inkscape:current-layer="layer1" />
  <defs
     id="defs1280" />
  <g
     inkscape:label="Capa 1"
     inkscape:groupmode="layer"
     id="layer1">
    <path
       d="m 64.743055,14.044982 v 0.4015 l -0.80299,0.75275 v 0.4015 h -0.35137 v 0.40149 l -0.40149,0.35137 -0.40149,0.40149 v 0.4015 h -0.35138 v 0.35137 h -0.40149 v 0.40149 l -0.40149,0.40149 -0.35137,0.35138 h -0.80299 v 0.40149 h -0.35137 v 0.40149 h -0.40149 l -0.75281,0.75276 h -0.4015 v 0.40149 h -0.40149 l -0.75276,0.75271 h -0.40149 v 0.40149 h -0.75281 v 1.55569 h 0.40149 v 1.15425 l -0.40149,0.35137 0.40149,0.40149 v 0.75276 h -0.40149 v 0.40149 l 0.40149,0.4015 h 0.35137 v 0.35137 l -0.35137,0.40149 h -0.40149 v 0.40149 l 0.75281,0.75276 v 0.75276 h 0.40149 v 0.40149 l -0.40149,0.4015 v 0.75275 h -0.35137 v 0.4015 h -0.40149 l -0.80294,0.75275 v 1.1542 l -0.35137,0.40149 h -0.40149 v 0.4015 h -0.40149 v 0.35137 l 0.40149,0.40149 v 0.40149 l -0.40149,0.35138 v 0.80293 l -0.35138,0.35137 h -0.40149 v 0.80293 l -0.75276,0.75276 v 1.15425 l -0.40149,0.40149 v 0.4015 l -0.40149,0.35137 v 1.15425 l -0.75276,0.80293 v 0.75276 h -0.40149 v 0.40149 h -0.35137 l -0.4015,0.35137 h -1.90701 l -0.40149,0.4015 h -0.40149 v 0.40149 h -0.75276 l -0.40149,0.35137 h -0.40149 l -0.35138,0.40149 v 0.4015 l -0.40149,0.35137 h -0.40149 l -0.35137,-0.35137 h -1.15431 v 0.35137 h -0.80293 v 0.40149 l -0.75281,0.75276 h -0.40149 v 0.40149 h -0.35138 v 0.40149 l -0.40149,0.35138 h -0.40149 l -0.35137,-0.35138 h -0.80293 l -0.35138,0.35138 h -0.40149 v 0.40149 h -0.40149 l -1.55569,1.55569 v 0.75276 h -0.35137 v 0.40149 l -0.80299,0.75276 h -0.75276 v 0.40149 h -0.40149 l -0.75276,0.75276 v 0.40149 h -0.40149 l -0.35137,0.40149 h -0.80299 l -0.35137,-0.40149 h -0.80293 l -0.35137,0.40149 -0.4015,-0.40149 h -0.40149 v -0.40149 h -0.35137 l -0.40149,-0.35137 h -0.4015 l -0.35137,-0.4015 h -0.40149 l -0.40149,0.4015 v 0.35137 l -0.4015,0.40149 v 2.70994 h 0.4015 v 0.35137 l -0.4015,0.4015 v 0.75275 h 0.4015 v 0.4015 l 0.80293,0.80298 -0.40149,0.35137 v 1.55569 l -0.4015,0.4015 h -0.75281 v 0.75275 h -0.40149 l -0.75281,0.75276 v 0.4015 h -0.80293 l -1.15425,1.15425 h -0.35138 v 0.40149 h -0.40149 v 0.35137 l -0.40149,0.40149 h -0.75276 l -0.40149,-0.40149 v -0.35137 h -0.35137 l -0.4015,0.35137 h -0.75276 l -0.40149,-0.35137 -0.40149,-0.40149 v -0.4015 h -1.15425 v -0.35137 l -0.40149,-0.40149 v -0.40149 h -0.75276 l -0.40149,-0.35138 v -0.80293 l -0.35138,-0.35137 h -0.80298 l -0.35137,0.35137 h -0.4015 l -0.40149,0.40149 h -0.35137 l -0.40149,0.4015 h -0.75282 v 0.35137 h -0.80293 l -0.75281,0.80293 h -0.40149 v 0.35137 h -0.35137 v 0.4015 h -0.80299 l -0.75276,0.75275 v 0.80294 h 0.4015 v 1.15425 l -0.4015,0.35137 v 0.40149 h -0.40149 v 0.80293 l -0.40149,0.35138 -0.35137,0.40149 h -0.4015 v 1.55569 h -0.40149 v 0.35137 h -0.75276 l -0.75276,0.80293 v 0.75276 l -0.40149,0.40149 v 0.35137 h -0.40149 v 0.4015 h -0.35137 l -0.80299,0.75276 v 0.80293 l -0.35137,0.35137 v 2.35862 l -0.40149,0.35137 v 4.26563 l -0.40149,0.35138 v 1.95718 l -0.35138,0.35137 h -0.40149 v 0.80293 l -0.40149,0.35137 v 0.4015 l 2.70999,2.3085 0.40149,0.40149 h 0.35138 l 0.40149,0.40149 h 0.40149 l 0.35137,0.35138 h 0.4015 v 0.40149 h 0.40149 v 0.75276 h 1.50552 v 0.40149 h 1.20447 v 1.55574 h 0.35138 v 0.35137 h 0.80298 l 0.35137,0.4015 h 0.40149 v 1.15419 l 0.4015,0.4015 v 0.75275 l 0.35137,0.4015 v 0.75276 h 0.40149 v 1.15425 l 0.40149,0.401488 v 0.40149 h 0.35138 v 0.35137 h 0.40149 v 0.4015 l 0.40149,0.40149 h -0.40149 v 1.90695 l 0.40149,0.4015 v 0.75275 h 0.35137 l 0.4015,0.4015 v 0.75276 h 0.40149 v 0.75281 l 0.35137,0.40149 v 0.40149 l 0.40149,0.40149 h 0.4015 v 0.35138 l 0.35137,0.40149 v 1.15425 h 0.40149 v 0.75276 h 1.15425 v 0.40149 h 0.80299 v 0.40149 h 1.50551 v -0.40149 h 3.46281 v -0.40149 h 0.80293 l 0.35137,-0.35137 h 1.95719 v 0.35137 h 0.75281 v -0.35137 h 0.40149 v -0.4015 l 0.40149,-0.40149 h 0.35137 v -0.35137 h 0.4015 v -1.15783 h 0.40149 v -0.80293 h 0.35137 v -0.75275 h 0.40149 v -0.4015 h 1.15425 v -0.40149 h 1.15426 v -0.35137 l 0.40149,-0.40149 h 0.75276 0.40149 v 0.40149 l 0.35137,0.35137 v 0.40149 h 1.15425 v 0.75281 h 0.80299 l 0.75275,0.80294 v 2.70994 h 0.4015 v 0.35137 h 0.75276 v -0.35137 h 0.80298 v -0.4015 h 0.75276 v -0.40149 h 1.55574 l 0.75276,0.80299 v 0.7527 l 0.40149,0.40149 v 0.75276 h 1.90706 v -0.40149 h 0.75276 l 0.80299,0.80298 v 1.90696 l -0.40149,0.40149 v 0.75276 h -0.4015 v 0.40149 h 0.4015 v 0.75271 h 0.40149 l 0.35137,0.40149 h 0.40149 v 0.40149 l 0.40149,0.35138 v 0.80293 l 0.4015,0.35137 v 0.40149 h 0.35137 v 0.40149 h 0.80298 v 0.35138 h 0.35138 v 0.80293 h -0.35138 v 0.35137 h -0.40149 v 0.40149 l -0.40149,0.4015 v 0.35137 h -0.35137 v 1.15425 h -0.4015 v 0.80293 h -0.40149 v 0.35137 h -0.75276 v 0.4015 h -0.80298 v 0.40149 l -0.35137,0.35137 v 0.40149 l -0.4015,0.40149 v 0.4015 h 0.4015 v 1.50551 h 0.35137 v 0.4015 l 0.40149,0.40149 v 0.35137 h 0.75276 v 0.40149 h 1.20448 l 0.35137,0.4015 h 0.40149 v 0.35137 h 0.40149 l 0.35138,-0.35137 0.40149,0.35137 v 0.40149 h 0.40149 v 0.40149 h 0.35137 v 0.35138 h 0.4015 v 1.55569 h 0.40149 v 0.40149 h 0.35137 v 0.35137 l 0.40149,0.40149 v 1.55569 h 0.4015 v 0.40149 h 0.35137 v 0.35138 h 0.40149 v 0.40149 h 0.40149 v 0.75276 h 0.35138 v 1.55569 h -0.35138 v 0.75276 h -0.40149 v 0.40149 h -0.40149 v 0.40149 l -0.75276,0.75276 v 0.40149 h -0.40149 v 0.35137 h -0.35137 v 0.4015 h -0.4015 v 0.40149 h -0.40149 v 0.75276 l 0.40149,0.40149 v 0.35137 h 0.4015 v 1.55569 h -0.4015 v 1.15425 l 0.4015,0.4015 v 0.40149 h 0.35137 v 1.90701 h -0.35137 v 0.7527 h 0.35137 v 2.70994 h -0.35137 v 0.40149 l -0.4015,0.35138 h -0.40149 v 0.40149 l -0.35137,0.40149 v 0.40149 l -0.40149,0.35138 v 0.40149 h -0.4015 v 0.40149 h -0.75275 v 0.35137 h -0.4015 l -0.35137,0.4015 h -0.40149 v 0.40149 h -0.80299 v 0.35137 h -0.35137 v 0.80293 h -0.40149 v 0.35138 l -0.40149,0.40149 h -0.35138 v 0.40149 h -0.40149 l -0.40149,0.35137 h -0.35137 l -0.4015,-0.35137 h -0.75281 v 0.75276 l -0.40149,0.40149 v 0.75276 h -0.40149 v 0.40149 h -0.35138 v 0.35137 h -0.80293 v 0.4015 h -1.15425 v 0.40149 h -0.35137 l -0.40149,0.35137 h -0.40149 v 0.40149 h -2.30851 l -0.40149,-0.40149 h -0.75276 v -0.35137 h -0.75276 l -0.40149,-0.40149 -0.40149,0.40149 h -0.75276 v 0.35137 h -0.40149 v 0.40149 l -0.75276,0.80294 h -1.15425 v 0.35137 h -1.15425 v 0.40149 h -0.40149 l -0.35138,0.40149 h -1.55574 l -0.40149,0.35137 v 0.4015 l -0.40149,0.40149 v 0.35137 h -0.35138 v 0.40149 h -0.40149 v 0.4015 h -0.75276 v 0.35137 h -0.80293 v 0.40149 h -0.35137 v 0.40149 h -0.40149 v 0.35138 h -0.40149 v 0.40149 h -0.75276 l -0.4015,0.40149 h -0.35137 l -0.40149,0.35137 h -0.40149 v 0.4015 h -0.35138 v 0.40149 h -0.40149 v 0.35137 h -0.40149 v 0.40149 h -0.35137 v 0.4015 l 0.35137,0.35137 v 0.80293 h -0.35137 v 1.15425 h 0.35137 v 1.1542 h 0.40149 v 0.75276 l -0.40149,0.40149 v 0.75276 h -0.35137 v 0.40149 h -0.4015 v 0.40149 l 0.4015,0.35137 v 0.4015 l 0.35137,0.75276 v 0.40149 l 0.40149,0.40149 v 0.35137 l 0.40149,0.4015 0.35138,0.40149 v 0.35137 l 0.80298,0.80293 h 0.35137 l 0.4015,0.40149 h 0.40149 l 1.15425,1.15425 h 0.35137 l 0.40149,0.35138 v 0.40149 l 0.75282,0.75276 v 0.40149 l 0.40149,0.40149 h 0.40149 l 0.35137,0.35138 h 0.80294 v 0.40149 l 0.35137,0.40149 h 1.20442 l 0.35137,0.35137 h 0.4015 l 0.40149,0.40149 0.35137,0.4015 v 0.35137 l 0.40149,0.40149 v 0.75276 l 0.75276,0.80293 h 0.40149 l 0.75276,0.75276 0.80299,0.80298 v 0.75271 l 1.15425,1.15425 h 3.86424 l 0.35138,0.40149 v 0.35138 l 0.40149,0.40149 v 2.3085 l 0.40149,0.75276 v 1.15419 l 0.35137,0.4015 h 0.40149 l 0.4015,0.40149 h 0.75281 l 0.40149,0.35137 v 1.55569 l -0.40149,0.80293 v 0.75276 l -0.40149,0.40149 h -0.35138 l -0.80293,0.75276 v 0.40149 l -0.35137,0.35138 v 0.40149 l -0.40149,0.40149 v 0.35137 l -0.75276,0.4015 h -0.40149 l -0.4015,0.40149 v 0.75276 l -0.40149,0.40149 h -0.35137 l -0.80299,0.75276 v 0.40149 l -0.75275,0.75276 h -0.4015 l -0.75275,0.80293 v 1.50552 l -0.4015,0.40149 v 1.1542 l 0.4015,0.40149 v 0.35137 l 0.40149,0.40149 h 0.35137 l 0.40149,-0.40149 h 0.4015 l 0.35137,0.80293 v 0.75276 l 0.80298,0.75281 0.35138,0.4015 v 0.40149 l 0.80293,0.75276 v 0.40149 l 0.40149,0.35137 v 0.40149 l 0.35137,0.4015 h 0.80299 l 0.35137,-0.4015 h 0.40149 l 0.75281,-0.75275 v -0.4015 l 0.4015,-0.40149 h 0.40149 l 0.75276,0.40149 h 0.75281 l 0.40149,-0.40149 h 0.75276 0.40149 l 0.40149,0.40149 v 3.11138 l -0.40149,0.35138 v 0.80298 l -0.40149,0.35137 v 0.40149 l -0.35137,0.4015 v 0.35137 l -0.4015,0.40149 h -1.55574 v 0.40149 l -0.75276,0.75276 h -0.40149 l -0.35137,0.4015 1.15425,1.15419 v 0.35138 h 0.75276 l 0.75281,0.80298 h 1.15425 l 0.40149,0.35137 h 0.40149 l 0.35138,0.40149 h 0.40149 l 0.40149,-0.40149 h 0.35137 l 0.80299,-0.75276 0.40149,-0.40149 h 0.75276 l 0.40149,0.40149 v 0.4015 l 0.35137,0.35137 -0.35137,0.80293 v 1.55569 l 0.35137,0.75281 h 0.4015 l 0.75275,0.75271 h 0.4015 l 0.40149,0.40149 h 0.35137 l 0.40149,0.40149 0.4015,0.35137 h 0.35137 l 0.40149,0.4015 v 0.40149 l 0.40149,0.35137 h 0.35138 l 0.80293,0.40149 h 5.01849 l 0.35138,0.4015 v 0.35137 l 0.40149,0.40149 v 1.1542 l 0.40149,0.75276 v 0.40149 l 0.35137,0.40149 h 0.4015 l 0.75275,0.75276 h 0.4015 l 1.15425,1.1542 h 0.75275 l 0.4015,0.40149 h 1.15425 l 0.40149,0.40149 v 0.35137 l 0.40149,0.4015 v 1.90701 h 0.35138 l 0.40149,0.40149 v 0.40149 l 0.40149,0.35137 v 0.80293 l 0.75276,0.75276 h 0.75281 l 0.80293,0.75276 v 0.40149 l 0.35137,0.4015 v 1.15419 l 0.4015,0.4015 v 1.50551 l -0.4015,0.40149 v 0.4015 l -0.35137,0.75276 v 0.75275 l -0.40149,0.4015 v 0.40149 l -0.40149,0.35137 h -0.35138 l -0.40149,0.40149 h -1.90701 l -0.80298,0.75276 h -0.40149 l -0.35138,0.40149 v 0.4015 l -0.40149,0.35137 0.40149,0.80293 0.35138,0.40149 h 0.40149 l 0.40149,0.35138 h 0.40149 v 1.15425 l -0.80298,0.80293 v 0.75276 l 0.40149,0.40149 v 0.75276 l 0.40149,0.40149 v 0.35137 l 0.35138,0.40149 0.40149,0.4015 v 2.65971 l -0.75276,0.80299 v 0.40149 l -0.40149,0.35137 v 1.55569 l 0.40149,0.40149 v 1.90701 l 0.35137,0.40149 v 0.75276 l -0.35137,0.40149 v 1.50552 l 0.75276,4.26563 h 0.40149 l 0.75276,-0.40149 1.15425,-0.35137 0.40149,-0.80294 0.75281,-0.35137 0.4015,-1.20442 0.35137,-0.35137 1.15425,-0.4015 0.80298,-0.40149 h 0.75276 l 0.75276,-0.35137 0.80298,-0.80293 0.75276,-0.35138 0.80299,-0.80293 0.75276,-0.35137 v -0.80298 l 0.40149,-0.75276 1.90701,-1.90696 0.75281,-0.40149 1.15425,-1.1542 h 1.15425 l 0.80293,-1.55569 v -0.75281 l 0.75281,-0.40149 0.4015,-0.75276 h 1.15425 l 0.75275,0.35137 h 0.4015 l 0.75276,0.40149 0.80298,0.4015 h 1.15425 l 1.15425,-0.4015 0.35137,-0.40149 1.15431,-0.35137 1.15425,-1.15425 1.20442,-0.80293 1.15425,-0.35137 0.35138,-0.80299 0.80293,-0.7527 0.75276,-0.4015 0.75281,-0.35137 1.154255,-1.1542 1.55574,-0.80293 0.75276,-1.15425 0.40149,-0.75276 -0.40149,-1.55569 v -1.15425 l 0.40149,-0.75276 v -4.66707 l 0.40149,-1.15425 0.35138,-0.35137 0.80298,-0.40149 2.3085,-0.75276 0.75281,-0.40149 1.95719,-1.90701 h 0.75275 l 0.4015,0.35137 0.75276,0.40149 0.75281,0.4015 0.80293,0.75281 0.75281,-0.40149 h 0.80293 l 0.75281,0.80293 0.75276,0.35137 h 1.95724 l 0.35137,-0.35137 0.80298,-0.40149 h 1.50552 l 0.80299,0.40149 1.15425,-0.40149 v -1.15426 l 0.75275,-1.55569 v -0.35137 l 0.80299,-0.40149 1.15425,-0.40149 0.75276,0.40149 0.75281,-0.40149 0.80293,-0.35138 1.15431,-0.40149 1.50551,-0.40149 1.15425,-0.35137 0.80299,-0.80293 0.35137,-0.75276 0.80299,-0.40149 0.40149,-0.75276 0.75276,-0.80293 0.75275,-0.35138 0.80299,-1.55569 0.35137,-0.40149 1.55574,-0.75276 0.75282,-0.40149 h 0.80293 l 0.75276,-0.7527 1.55579,-0.75282 0.35137,-0.80293 0.80294,-0.75276 0.75281,-0.40149 0.80293,-0.40149 h 1.1543 l 0.75276,-0.75276 0.75276,-0.40149 0.80298,-0.35137 h 0.75276 l 0.4015,0.35137 v 0.40149 l 0.75275,0.75276 h 1.55575 l 0.75281,-0.35137 1.55569,-0.4015 0.75281,-0.40149 1.15425,-0.35137 h 2.3085 l 1.15425,-0.40149 h 3.51298 l 0.75276,0.75276 0.75276,0.40149 1.55574,1.55569 1.55574,-0.4015 2.30851,-0.75275 1.1543,-0.4015 1.15425,-0.40149 1.55574,-0.35137 h 1.90701 l 1.15425,-0.40149 1.55575,-0.4015 h 3.46275 l 0.40149,0.4015 0.75276,0.40149 h 3.06131 l 1.15425,-0.40149 0.40149,-0.4015 1.90701,-3.81396 0.4015,-1.55574 0.40149,-1.1542 0.35137,-0.80293 0.80299,-2.30845 0.40149,-0.35137 0.35137,-0.80293 1.15425,-1.15425 h 0.80299 v -0.35138 h 0.35137 l 0.40149,-0.40149 0.40149,-0.75276 0.35138,-1.1542 0.40149,-0.40149 v -3.86414 l 0.40149,-0.40149 -0.40149,-0.75276 v -0.75275 l -0.40149,-0.4015 -1.1542,-0.75276 -0.35137,-0.80298 -0.80299,-0.35137 -0.35137,-1.15425 -0.80299,-1.1542 v -0.80299 l 0.4015,-1.90695 v -1.55569 l 0.75275,-0.75276 0.4015,-1.15425 v -2.30845 l 0.75281,-1.1542 0.40149,-0.80298 0.75276,-0.75276 0.80298,-1.1542 0.35138,-0.80293 0.80293,-0.35137 0.75281,-0.40149 h 0.75276 l 1.55574,-1.55569 v -1.1542 l 0.80293,-0.75276 0.75281,-1.15425 v -0.40149 l 0.4015,-0.75281 0.75281,-0.80293 0.40149,-0.75276 0.75276,-0.40149 h 0.75276 l 0.40149,-0.35138 h 1.15425 l 0.75276,-0.40149 0.80298,-0.75276 0.35138,-1.15425 0.80293,-0.80293 v -1.90701 l 0.35137,-1.90695 -0.75281,-1.20443 -0.75276,-2.30845 v -1.15425 l -0.40149,-1.15419 v -4.21546 l -0.4015,-1.95718 -0.35137,-1.15425 v -0.75276 l -0.40149,-1.1542 -0.75276,-1.15425 -0.40149,-1.1542 -0.75276,-1.15425 -0.40149,-0.75276 -0.75276,-0.40149 -1.95724,-1.95713 -0.75275,-0.35137 -0.4015,-1.1542 v -1.55569 l -0.40149,-0.75281 h -1.15425 l -1.50557,-0.80293 h -1.15425 v 0.80293 h -1.15425 l -2.3085,-0.80293 -0.80299,-0.35137 -0.75275,-0.80293 -1.15426,-0.35138 -0.40149,-1.55569 -0.40149,-0.80293 -1.15425,-0.75276 -1.15425,-0.40149 -0.75276,-0.75276 h -1.1543 l -0.4015,-0.75276 v -1.15419 l 0.4015,-1.15425 -0.75276,-1.55569 -1.15425,-0.75276 -0.4015,-0.80293 -0.40149,-1.15425 -0.35137,-0.75276 -0.80293,-0.80293 -0.75281,-1.15425 -0.4015,-0.35138 -0.40149,-1.15425 -0.75281,-0.80293 -0.75276,-1.1542 -1.55574,-0.35137 -0.40149,-0.40149 -0.75276,-0.40149 -0.75281,-0.35138 -0.4015,0.35138 -0.75275,-0.35138 -0.80299,-0.80293 -0.75276,-1.1542 -0.80298,-2.30844 v -6.52391 h -0.35137 l -0.85316,-4.16528 0.048,-0.10024 v -3.4627 l -0.35137,-1.15425 0.35137,-1.1542 -0.75275,-0.80293 0.40149,-1.50552 v -1.15425 l -0.40149,-0.80293 -0.75276,-1.15425 -0.85316,-0.25113 -0.70258,-3.563048 v -2.35862 l -0.4015,-0.60224 v -0.048 l -0.15036,-1.10403 v -0.048 l 0.15036,-0.50173 -0.35137,-1.1542 -0.10024,-0.10024 v -0.048 l -1.10408,-7.82868 0.048,-0.10024 0.75281,-1.1542 v -1.55574 l -0.75281,-1.1542 -0.40149,-1.15425 -0.45161,-0.70258 -3.31218,-23.58643 h 1.05385 l 0.80298,-0.35137 h 0.75276 l 0.75281,-2.30845 v -2.70994 l 0.40149,-1.1542 v -1.15425 l 0.4015,-1.55569 v -3.86419 l -0.80293,-0.75276 -1.15426,-0.40149 -0.35137,-0.35137 v -0.048 l -0.40149,-1.15425 v -1.1542 l -0.40149,-1.15425 -0.75276,-0.35137 -1.15425,-0.40149 -1.15425,-0.40149 -0.80299,-0.50174 -0.35137,-2.55936 v -0.4015 l -0.40149,-1.15425 -0.75276,-1.15425 -0.40149,-1.15419 -0.75276,-0.4015 -1.1543,-0.75276 -2.71,-1.15419 h -0.40149 l -0.40149,-0.40149 v -0.35138 h -0.35138 v -0.40149 l -2.3085,-2.30845 v -0.40149 h -0.40149 l -0.75276,-0.75276 v -0.40143 h -0.40149 v -0.35137 h -0.40149 l -0.75276,-0.80293 v -0.4015 h -0.40149 v -0.35137 h -0.35138 l -0.40149,-0.40149 v -0.40149 h -0.40149 v -0.35138 h -0.35137 l -1.20443,-1.15425 h -0.35137 v -0.40149 l -0.40149,-0.40149 h -0.40149 l -0.35138,-0.35138 h -0.40149 v -0.40149 h -0.40149 l -0.35137,-0.40149 h -0.4015 v -0.35137 h -1.55574 l -0.35137,0.35137 h -0.40149 l -0.4015,0.40149 h -0.35137 l -0.40149,0.40149 h -0.40149 l -0.35138,-0.40149 h -0.40149 v -0.40149 h -1.55574 v 0.40149 h -0.75276 v 0.40149 h -0.40149 l -0.4015,0.35138 h -0.35137 v 0.40149 h -0.40149 l -0.40149,0.40149 -0.35138,0.35137 h -0.40149 v 0.4015 h -0.40149 l -0.75276,0.75276 -0.40149,0.40149 h -0.35137 v 0.40149 h -0.4015 l -0.40149,0.35137 h -0.35137 l -0.40149,0.4015 h -0.4015 l -0.35137,0.40149 h -1.15425 v 0.40149 h -1.55574 l -0.40149,0.35137 h -2.30851 l -0.40149,-0.35137 h -0.35137 l -0.40149,-0.40149 h -0.75276 v -0.40149 h -0.40149 l -0.4015,-0.4015 -0.35137,-0.35137 h -0.40149 l -0.40149,-0.40149 h -0.35138 l -0.40149,-0.40149 h -0.40149 l -0.35137,-0.35138 h -4.26574 l -0.40149,0.35138 h -3.06132 l -0.40149,-0.35138 h -1.50551 l -0.4015,-0.40149 h -3.86424 l -0.40149,-0.40149 h -1.505575 l -0.4015,-0.35137 h -4.26568 l -0.35137,0.35137 h -0.40149 v 1.15425 l -0.4015,0.40149 v 0.40149 l -0.35137,0.35138 h -1.55574 v 0.40149 h -0.40149 v 0.40149 l -0.35138,0.40149 v 0.35138 l -0.40149,0.40149 h -1.15425 v -0.40149 h -0.40149 l -0.35138,-0.35138 h -1.55569 l -0.40149,-0.40149 v -0.80298 l 0.40149,-0.35138 v -1.15425 l -0.40149,-0.40149 -0.35137,-0.40149 h -0.40149 v -0.35137 l -0.40149,-0.4015 v -0.40149 l -0.4015,-0.35137 v -0.40149 h -0.35137 l -0.40149,-0.4015 h -1.90706 l -0.4015,0.4015 h -0.75276 l -0.40149,0.40149 h -0.75276 l -0.40149,-0.40149 h -1.15425 l -0.40149,0.40149 -0.35137,-0.40149 h -1.55575 l -0.40149,0.40149 h -0.40149 l -0.35137,-0.40149 v -0.4015 h -0.80299 l -0.35137,-0.35137 v -0.40149 l -0.40149,-0.40149 -0.4015,0.40149 h -0.75275 l -0.4015,-0.40149 h -0.75276 l -0.40149,0.40149 h -1.15425 l -0.35137,0.40149 v 0.35137 h -0.40149 v 0.4015 h -0.75276 v -0.4015 l -0.40149,-0.35137 h -0.4015 v -0.40149 h -0.35137 l -0.40149,-0.40149 z m 95.953865,40.8497 -0.35137,0.80293 v 2.30845 l 0.35137,1.15425 -0.35137,1.15425 v 1.15419 l -0.4015,1.55569 0.35138,-1.55569 v -1.15419 l 0.40149,-1.15425 -0.40149,-1.15425 v -2.30845 z"
       style="fill:#000000;fill-opacity:1;fill-rule:evenodd;stroke:#d38d5f;stroke-width:0.705368;stroke-linecap:butt;stroke-linejoin:miter;stroke-miterlimit:4;stroke-dasharray:none;stroke-opacity:1"
       id="Lonquimay" />
  </g>
</svg>
