<?xml version="1.0" encoding="UTF-8" standalone="no"?>
<!-- Created with Inkscape (http://www.inkscape.org/) -->

<svg
   width="210mm"
   height="297mm"
   viewBox="0 0 210 297"
   version="1.1"
   id="svg1283"
   inkscape:version="1.1.2 (b8e25be833, 2022-02-05)"
   sodipodi:docname="vector.svg"
   xmlns:inkscape="http://www.inkscape.org/namespaces/inkscape"
   xmlns:sodipodi="http://sodipodi.sourceforge.net/DTD/sodipodi-0.dtd"
   xmlns="http://www.w3.org/2000/svg"
   xmlns:svg="http://www.w3.org/2000/svg">
  <sodipodi:namedview
     id="namedview1285"
     pagecolor="#ffffff"
     bordercolor="#666666"
     borderopacity="1.0"
     inkscape:pageshadow="2"
     inkscape:pageopacity="0.0"
     inkscape:pagecheckerboard="0"
     inkscape:document-units="mm"
     showgrid="false"
     inkscape:zoom="0.52347032"
     inkscape:cx="155.69173"
     inkscape:cy="611.30496"
     inkscape:window-width="1920"
     inkscape:window-height="1017"
     inkscape:window-x="-8"
     inkscape:window-y="-8"
     inkscape:window-maximized="1"
     inkscape:current-layer="layer1" />
  <defs
     id="defs1280" />
  <g
     inkscape:label="Capa 1"
     inkscape:groupmode="layer"
     id="layer1">
    <path
       id="Buin"
       style="fill:#000000;fill-opacity:1;stroke:#d38d5f;stroke-width:1.17939;stroke-miterlimit:4;stroke-dasharray:none;stroke-opacity:1"
       d="m 169.01038,163.23609 c 3.62808,0.44506 3.87227,-6.40567 7.07208,-8.18882 0.76031,-0.37966 2.57918,-4.09441 3.34992,-4.09441 2.87325,0 2.74158,2.11528 5.21106,3.35002 1.43384,0.71735 5.55675,0.691 6.32769,2.23328 1.65851,3.31712 2.15471,0.20593 4.46656,-0.37186 3.11656,-0.77885 1.75719,-1.98157 2.23338,-4.83881 3.67707,-0.36892 2.27749,-3.9119 3.72216,-4.46656 2.64564,0.01 5.29119,0.007 7.93683,-0.01 -0.46068,-3.57772 -0.56804,-8.25646 -0.17276,-14.49582 l -6.00951,-1.89783 -0.63245,-8.5398 c -6.07881,2.0376 -2.63373,-2.72752 -3.47914,-4.4281 -3.3998,1.73903 -5.21106,0.3006 -6.95839,-1.26509 -1.88358,-4.07763 -4.23163,-5.83199 -6.95838,-5.6933 l 1.26509,-5.69319 c -3.49271,0.16982 -2.45044,-5.535668 -6.64206,-12.335358 -3.39326,-3.37666 -0.71346,-6.75323 -0.30159,-10.12989 8.6576,-5.1849 7.60899,-3.61656 8.84538,-3.16956 l -0.33184,-2.83791 c 5.14196,-5.59862 1.97992,-8.82722 2.76511,-8.91048 -1.48333,1.0249 -2.38876,1.30794 -4.09383,1.59752 -1.045,-0.12493 -0.18739,0.40894 -1.03905,0.79446 -2.10074,0.26352 -4.27868,-0.0586 -6.2948,0.36698 -0.41285,0.7154 -0.14445,1.16466 -0.55046,1.89451 -1.22703,0.5612 -3.06659,0.244 -4.40029,0.244 -0.61976,0 -0.16788,0.67246 -0.48898,1.10014 -0.18837,0.25181 -0.95355,0.13469 -1.10015,0.42749 -0.62464,1.46097 -0.76615,1.22673 -1.71121,2.50568 -1.08307,1.55838 -2.69806,3.29156 -4.3392,4.217 -0.55436,-1.05066 -0.64025,-0.96233 -1.83341,-1.10005 -0.54656,-0.10931 -1.14846,-0.0488 -1.58902,0.0586 -0.99796,0.41285 -0.4597,2.90184 -2.32239,2.0779 -0.20399,0.20399 -0.97669,-0.97678 -1.16125,-1.16124 -0.84424,1.89285 -1.48635,1.28198 -2.20009,1.71122 -0.31428,0.78568 -0.61293,1.42925 -1.03895,2.1391 -0.86084,0.2518 -2.43883,0.16104 -3.36134,0.122 -2.36748,-0.0781 -1.39558,-0.41773 -1.83352,-1.40564 -0.59047,0 -4.12652,-0.18349 -4.58368,-0.18349 l -8.34449,3.73525 c -7.87944,2.14212 -4.14878,10.08919 -6.11268,15.189078 -7.38431,11.42504 -10.528,1.59263 -25.93258,16.57831 l -12.688478,8.61329 c -7.94912,-0.64026 -6.91895,7.01138 -12.96624,13.15149 -2.36474,4.19279 -5.697,-2.02637 -7.40929,7.40929 -6.7016,-2.14036 -11.66582,17.7461 -15.93006,15.09646 -1.26987,2.53994 -2.51681,2.28637 -3.02628,4.32445 -2.21805,4.54699 -1.69345,6.35405 -5.95544,8.18883 -4.39249,2.02334 -3.53068,5.55421 -5.21106,8.56097 -3.25242,1.39138 -4.37716,4.91845 -6.32769,11.1665 -0.39918,1.59859 -3.96334,-0.1913 -5.21105,0.74469 -1.91784,5.1519 -4.62009,13.85576 -11.1665,7.81658 -1.39578,0.69784 -7.60069,1.90017 -8.93322,2.23328 -2.8442601,-1.11967 -5.7946001,-1.22478 -10.79426008,1.86113 1.56130998,3.12271 8.18775998,5.583 11.16650008,6.32769 5.09491,1.61938 3.49701,-6.45965 8.18873,-2.23338 3.76433,2.70137 7.59415,1.93082 10.79435,5.5833 2.89501,4.02873 6.24942,4.22842 10.79426,5.21105 3.46138,2.27867 2.96225,6.9702 7.44433,7.07209 3.84944,0.15714 7.31257,-1.17256 10.79425,-2.60552 4.03283,-1.34757 7.91291,-0.2118 12.28324,-0.74469 4.68411,-1.55262 11.40572,3.17443 12.28314,3.34992 l 16.377548,-18.61083 3.72217,4.09441 0.37185,-8.18883 4.46657,-27.9162 9.67761,0.37186 -0.37186,11.53874 26.42732,0.74469 0.37185,3.35002 9.67762,-2.97777 0.37185,-29.03294 z"
       sodipodi:nodetypes="cccccccccccccccccssccccccccccccccccsccccccccccccccccccccccccccccccccccccc" />
  </g>
</svg>
