<?xml version="1.0" encoding="UTF-8" standalone="no"?>
<!-- Created with Inkscape (http://www.inkscape.org/) -->

<svg
   width="210mm"
   height="297mm"
   viewBox="0 0 210 297"
   version="1.1"
   id="svg53"
   inkscape:version="1.1.2 (b8e25be833, 2022-02-05)"
   sodipodi:docname="vector.svg"
   xmlns:inkscape="http://www.inkscape.org/namespaces/inkscape"
   xmlns:sodipodi="http://sodipodi.sourceforge.net/DTD/sodipodi-0.dtd"
   xmlns="http://www.w3.org/2000/svg"
   xmlns:svg="http://www.w3.org/2000/svg">
  <sodipodi:namedview
     id="namedview55"
     pagecolor="#ffffff"
     bordercolor="#666666"
     borderopacity="1.0"
     inkscape:pageshadow="2"
     inkscape:pageopacity="0.0"
     inkscape:pagecheckerboard="0"
     inkscape:document-units="mm"
     showgrid="false"
     inkscape:zoom="0.74029882"
     inkscape:cx="149.26405"
     inkscape:cy="451.16916"
     inkscape:window-width="1920"
     inkscape:window-height="1017"
     inkscape:window-x="-8"
     inkscape:window-y="-8"
     inkscape:window-maximized="1"
     inkscape:current-layer="layer1" />
  <defs
     id="defs50" />
  <g
     inkscape:label="Capa 1"
     inkscape:groupmode="layer"
     id="layer1">
    <path
       d="m 202.60494,229.06088 -67.79498,22.11959 -37.91923,41.94096 c -1.79403,-0.79911 -2.64232,-2.29538 -3.44719,-4.02178 -1.55402,-1.76109 -1.60285,-4.17025 -2.87267,-6.0326 -2.13032,-2.26443 -3.67558,-4.94675 -5.45808,-7.46893 -1.32694,-2.30383 -2.68566,-4.45532 -3.73446,-6.89441 -1.31297,-1.9299 -2.28897,-4.89651 -4.59629,-5.7453 -3.11037,-0.61634 -7.77155,-1.31986 -10.34159,-3.73447 -1.5413,-1.5413 -3.40346,-1.72363 -5.45808,-1.72363 -2.60354,2.62438 -5.12798,2.32572 -8.618,1.43634 -8.28931,0.16386 -10.37516,-1.56195 -14.93788,-2.87265 l -2.035892,-0.19606 v -6.92198 l 7.662272,-11.29122 -2.22354,-23.3189 11.78283,-8.2421 -27.604586,-42.18978 -8.324601,-30.40975 2.803313,-15.49245 c -0.03471,-0.26052 0.998966,-2.60482 -1.48329,-5.43873 L 7.263468,79.394799 l 13.501543,-13.21428 6.032602,6.0326 10.341617,-12.35247 3.2905,-33.009579 9.6365,7.756209 87.66864,-21.388329 3.52555,0.235037 3.29051,2.115333 11.51678,0.470073 c 6.74233,-3.192419 6.80195,-2.566146 9.6365,-3.52555 4.84837,-4.9688482 8.22784,-6.5887972 12.45693,-8.4613112 l 3.99562,-0.235036 c 5.44505,2.630519 2.45036,7.2468592 2.09783,11.2415152 l 1.39,8.89593 c -2.03068,1.836493 -4.98975,1.584107 -5.69896,6.393949 v 4.725959 l 4.30896,2.36298 c -0.53112,4.23335 2.4178,3.75256 4.58698,13.89989 l -4.58698,3.47497 -0.69497,3.33598 -3.75299,3.61397 c -1.30536,6.24488 -8.48707,5.14436 -13.89987,6.25494 l -5.14298,-3.75296 -15.84588,-2.64098 h -9.1739 l -7.64494,3.61397 -12.37091,-0.41699 -3.05798,-3.05798 -3.61397,0.13899 0.834,80.480371 3.33597,-1.66801 10.28591,0.27801 7.36695,-4.30896 h 3.05798 l 2.36297,2.08497 12.78791,0.97299 9.31293,-2.22397 11.9539,-0.13899 7.22795,-3.19698 5.42094,-0.834 2.36299,-1.52899 h 1.94598 l 0.13899,2.08497 2.22399,2.78 0.55601,5.14296 -1.529,4.72594 0.69498,3.89198 -1.94598,2.085 2.64098,3.47497 -1.38998,47.95461 6.39394,8.89596 2.91899,9.31293 z"
       style="fill:#000000;fill-opacity:1;fill-rule:evenodd;stroke:#d38d5f;stroke-width:0.626503px;stroke-linecap:butt;stroke-linejoin:miter;stroke-opacity:1"
       id="Pozo Almonte" />
  </g>
</svg>
