<?xml version="1.0" encoding="UTF-8" standalone="no"?>
<!-- Created with Inkscape (http://www.inkscape.org/) -->

<svg
   width="210mm"
   height="297mm"
   viewBox="0 0 210 297"
   version="1.1"
   id="svg64"
   inkscape:version="1.1.2 (b8e25be833, 2022-02-05)"
   sodipodi:docname="vector.svg"
   xmlns:inkscape="http://www.inkscape.org/namespaces/inkscape"
   xmlns:sodipodi="http://sodipodi.sourceforge.net/DTD/sodipodi-0.dtd"
   xmlns="http://www.w3.org/2000/svg"
   xmlns:svg="http://www.w3.org/2000/svg">
  <sodipodi:namedview
     id="namedview66"
     pagecolor="#ffffff"
     bordercolor="#666666"
     borderopacity="1.0"
     inkscape:pageshadow="2"
     inkscape:pageopacity="0.0"
     inkscape:pagecheckerboard="0"
     inkscape:document-units="mm"
     showgrid="false"
     inkscape:zoom="0.74029882"
     inkscape:cx="361.34057"
     inkscape:cy="129.67736"
     inkscape:window-width="1920"
     inkscape:window-height="1017"
     inkscape:window-x="-8"
     inkscape:window-y="-8"
     inkscape:window-maximized="1"
     inkscape:current-layer="layer1" />
  <defs
     id="defs61" />
  <g
     inkscape:label="Capa 1"
     inkscape:groupmode="layer"
     id="layer1">
    <path
       id="Salamanca"
       style="fill:#000000;fill-opacity:1;fill-rule:evenodd;stroke:#d38d5f;stroke-width:1.16921px;stroke-linecap:butt;stroke-linejoin:miter;stroke-opacity:1"
       d="m 32.475035,185.47352 c -2.87176,-2.42206 1.15531,-4.95778 0.93076,-6.4783 -4.49627,-2.68553 -1.81601,-7.53193 -1.52063,-11.48809 1.28041,-7.27 -8.1192,-7.94661 -13.10099,-10.67285 -2.02605,-6.45675 -8.625131,-4.71732 -14.0366233,-5.60167 l -1.261424,-5.73934 -0.529711,-6.79869 c -1.02316,-3.75992 -3.42666904,-7.02079 -1.858924,-11.03295 -1.63036804,-3.6015 3.272938,-6.23077 0.522438,-9.70174 3.634675,-5.13062 1.32428,-10.62549 -0.0071,-15.98365 -0.250429,-5.207671 4.908733,-10.474907 9.8860283,-11.791445 2.361366,-0.531236 9.585746,0.719233 4.644856,-2.697113 -2.50008,-4.362066 3.29507,-7.048317 6.39162,-6.785793 3.38276,3.149495 10.22166,8.125924 14.2147,3.821422 -0.72266,-5.546774 4.07165,-4.108114 6.83034,-1.803858 5.2055,-0.911485 10.71766,-4.409464 11.40001,-9.951585 3.62529,-1.202057 6.28363,3.846955 9.9342,0.531749 5.14708,1.306542 9.85319,-0.945919 11.87912,-5.720811 2.96728,-1.490169 5.17174,-2.071115 6.64807,1.528455 4.15646,-1.500102 7.40285,4.305431 10.27636,3.191084 1.80577,-5.475273 8.628965,-2.525424 11.743315,-6.981669 5.07978,-2.385798 3.32169,-10.036719 7.67958,-13.291477 -1.93437,-3.360608 0.77811,-12.547771 5.79143,-6.917622 3.7024,10.087229 4.17974,-1.30371 6.97857,2.253468 -2.44203,21.376136 -3.63394,15.00522 4.79935,17.579156 -2.74346,2.069674 7.58819,9.540359 6.67547,16.898843 -0.11092,0.892266 1.13928,4.677464 4.8849,3.946327 4.78432,-0.933877 9.23531,8.308291 7.56733,14.646159 -0.37827,1.43788 -2.38211,5.27203 -0.38446,11.00151 5.25367,15.06869 -3.15262,14.53228 2.19173,17.79001 1.80078,1.09767 5.6015,0.42534 7.5417,3.00565 3.54212,4.71085 11.84421,9.49803 20.65375,8.00909 18.81001,-3.17918 11.88548,2.0947 17.09355,6.15046 4.3098,3.35624 4.76046,5.15471 7.61258,7.29156 7.07814,5.30307 5.59081,14.42742 0.92027,14.66073 -2.61137,0.13045 -3.55378,8.09907 -4.45041,9.34001 -3.32585,4.60274 -8.07407,10.4643 -11.57261,10.76175 -1.58531,0.13478 -8.14495,-3.91493 -9.87604,-2.73093 -0.54788,0.37474 -1.15842,-5.8648 -2.32042,-5.94209 -13.24956,-0.88134 -10.23765,6.6814 -6.9761,7.16024 8.57197,1.25848 9.97896,6.4919 9.42613,7.29679 -3.29695,4.80017 -1.99349,12.82987 4.83077,14.11082 4.57273,0.85835 4.51405,3.28741 1.46024,14.87912 -1.99756,7.58238 3.74403,11.6814 2.56497,15.00066 -1.84099,5.21456 -3.67058,8.9788 -10.85871,10.62835 -2.187,0.50187 -10.10189,4.38579 -11.85145,4.80613 -4.96436,-1.89717 -2.84899,-10.0526 -3.29722,-14.87542 0,-2.30982 -5.84287,-1.2413 -7.24694,-2.40655 0.33894,-6.45765 5.06467,-15.5474 0.69366,-19.1791 l -8.16461,-2.7201 c -4.6301,-1.44506 -9.99332,-6.49484 -9.54938,-4.44216 2.77912,12.85025 0.54019,6.24389 -14.90279,3.63221 -6.55032,-3.38978 -14.02565,-8.30591 -12.88071,-8.20798 4.12942,0.35322 -6.82589,-8.17103 -3.17458,-11.22886 9.8919,-8.28411 -6.95931,-12.7407 -5.51966,-8.89898 1.22771,3.27621 -5.242615,-1.3301 -5.653595,-4.88216 -0.52768,-4.56117 -7.09038,-5.67156 -12.16101,-1.93758 -1.71438,1.26247 -5.03352,2.3352 -7.41213,2.3352 -2.37862,0 -8.86234,2.14663 -14.4083,4.7703 -2.79507,4.41768 -8.67435,3.38823 -16.44564,6.36333 -0.94492,7.85414 -4.52528,1.61477 -8.43942,-4.2267 -0.9253,-1.38092 -2.70889,-1.95353 -4.80635,-2.27332 z"
       sodipodi:nodetypes="cccccccccccccccccccccccccsssssssssssssssssscscccccscssssssccsc" />
  </g>
</svg>
