<?xml version="1.0" encoding="UTF-8" standalone="no"?>
<!-- Created with Inkscape (http://www.inkscape.org/) -->

<svg
   width="210mm"
   height="297mm"
   viewBox="0 0 210 297"
   version="1.1"
   id="svg64"
   inkscape:version="1.1.2 (b8e25be833, 2022-02-05)"
   sodipodi:docname="vector.svg"
   xmlns:inkscape="http://www.inkscape.org/namespaces/inkscape"
   xmlns:sodipodi="http://sodipodi.sourceforge.net/DTD/sodipodi-0.dtd"
   xmlns="http://www.w3.org/2000/svg"
   xmlns:svg="http://www.w3.org/2000/svg">
  <sodipodi:namedview
     id="namedview66"
     pagecolor="#ffffff"
     bordercolor="#666666"
     borderopacity="1.0"
     inkscape:pageshadow="2"
     inkscape:pageopacity="0.0"
     inkscape:pagecheckerboard="0"
     inkscape:document-units="mm"
     showgrid="false"
     inkscape:zoom="0.74029882"
     inkscape:cx="361.34057"
     inkscape:cy="345.8063"
     inkscape:window-width="1920"
     inkscape:window-height="1017"
     inkscape:window-x="-8"
     inkscape:window-y="-8"
     inkscape:window-maximized="1"
     inkscape:current-layer="layer1" />
  <defs
     id="defs61" />
  <g
     inkscape:label="Capa 1"
     inkscape:groupmode="layer"
     id="layer1">
    <path
       sodipodi:nodetypes="ccccccsssscccsc"
       d="m 58.120641,221.7399 c -15.27541,-10.50831 33.24244,0.52484 45.974399,-10.76984 15.51692,-19.95914 42.72774,-21.3882 56.68033,-4.04854 18.71823,2.51328 30.42611,-17.97085 39.02944,-31.53047 12.06488,-14.30846 5.75896,-30.37587 -0.66894,-44.66762 -6.42785,-14.29173 -13.86766,3.3136 -27.81686,-10.63563 -13.94918,-13.94922 -10.1204,5.86175 -18.64089,5.86175 -15.97632,0 -15.01449,4.47078 -22.26727,8.09719 -0.8778,0.43865 -28.50465,7.55188 -31.214269,2.13253 -0.31215,-0.62405 -2.55679,-11.19793 -11.29601,-16.30265 -8.32157,-4.86074 -11.56295,-17.89318 -32.64122,-23.095073 -3.28641,-0.443996 -20.32913,-13.494841 -24.33186,-22.990549 5.52261,23.420369 -4.44347,60.895222 -26.9902248,97.305262 3.711161,6.3481 11.7921898,14.13506 25.7090248,26.99318 13.91686,12.85815 28.4743,20.44884 28.4743,23.65041 z"
       style="fill:#000000;fill-opacity:1;fill-rule:evenodd;stroke:#d38d5f;stroke-width:6.74755;stroke-linecap:butt;stroke-linejoin:miter;stroke-miterlimit:4;stroke-opacity:1"
       id="El_Quisco" />
  </g>
</svg>
