<?xml version="1.0" encoding="UTF-8" standalone="no"?>
<!-- Created with Inkscape (http://www.inkscape.org/) -->

<svg
   width="210mm"
   height="297mm"
   viewBox="0 0 210 297"
   version="1.1"
   id="svg1283"
   inkscape:version="1.1.2 (b8e25be833, 2022-02-05)"
   sodipodi:docname="vector.svg"
   xmlns:inkscape="http://www.inkscape.org/namespaces/inkscape"
   xmlns:sodipodi="http://sodipodi.sourceforge.net/DTD/sodipodi-0.dtd"
   xmlns="http://www.w3.org/2000/svg"
   xmlns:svg="http://www.w3.org/2000/svg">
  <sodipodi:namedview
     id="namedview1285"
     pagecolor="#ffffff"
     bordercolor="#666666"
     borderopacity="1.0"
     inkscape:pageshadow="2"
     inkscape:pageopacity="0.0"
     inkscape:pagecheckerboard="0"
     inkscape:document-units="mm"
     showgrid="false"
     inkscape:zoom="0.52347032"
     inkscape:cx="155.69173"
     inkscape:cy="458.47872"
     inkscape:window-width="1920"
     inkscape:window-height="1017"
     inkscape:window-x="-8"
     inkscape:window-y="-8"
     inkscape:window-maximized="1"
     inkscape:current-layer="layer1" />
  <defs
     id="defs1280" />
  <g
     inkscape:label="Capa 1"
     inkscape:groupmode="layer"
     id="layer1">
    <path
       d="m 35.8389,5.6519851 c -1.091693,3.38945 -9.097423,5.4264299 -6.917506,6.5794099 -2.924308,1.04893 -0.351314,7.59366 -5.714471,6.20289 -3.157788,2.56172 2.088913,6.23004 -2.406084,6.91749 -0.130942,4.15643 -1.688858,5.4625 -4.469297,7.92811 0.81365,4.27484 -2.202387,7.96113 -0.530594,10.56882 1.270137,3.62918 -0.539229,7.05526 -1.917602,9.17318 3.434717,1.08654 3.880184,4.42277 4.661796,8.00863 0.236949,3.8359 3.708107,4.07229 0.338081,7.02948 0.627546,4.56556 -6.285893,-0.86505 -4.999905,5.26429 1.784139,2.92529 1.992016,3.45519 0,7.51801 -1.138776,1.11161 0.723803,4.11478 0.714609,6.91763 4.126355,4.07508 -3.901079,2.72554 -0.907121,6.72498 -2.438848,1.22445 3.049664,2.97976 3.651259,4.85432 2.933794,2.514645 3.277043,3.487245 2.744193,5.714365 -2.342063,1.35539 -4.523192,2.87069 -4.999904,6.09103 1.408851,3.33818 5.235056,0.68675 4.511421,5.22597 4.605379,1.41167 -4.75709,5.12234 1.202994,4.77381 0.20491,4.19014 -3.781964,4.18847 -4.887879,7.06794 -2.335223,3.94218 -6.326986,-3.16838 -6.691437,0.22566 -1.299389,4.31523 0.198503,5.029 3.120652,6.69155 0.548005,3.09886 3.367658,3.92589 3.796868,7.14357 1.207452,1.55445 7.87738,2.51367 1.868318,3.70315 -3.616865,1.02664 -1.20174,7.50228 1.478404,7.49963 0.526832,1.90451 5.298827,-1.12833 5.976869,1.42922 2.840924,1.96663 0.516803,3.93981 3.458761,5.63871 -1.064669,1.37072 3.980257,4.1432 3.45876,7.14358 1.875742,1.69068 4.72129,4.34671 3.45876,8.94918 -1.759149,2.96444 -4.960399,2.46227 -0.488525,4.65986 2.062766,3.16127 1.361935,5.60557 -1.429133,6.91749 -5.830549,-1.85812 -2.781122,5.16371 -6.20294,5.71436 -1.403237,4.67282 -0.318579,4.90308 1.202994,9.06118 -3.164433,-0.2591 -5.300151,-0.39561 -2.255711,2.51812 4.396708,-0.78425 2.570529,8.51332 -1.090996,6.91764 -3.53883,-1.37489 -5.448116,-1.21888 -7.029531,1.9176 3.242455,1.08096 3.027863,3.50241 2.953477,5.50513 -0.855997,3.81695 -3.060766,4.59954 -6.300213,5.35956 -1.680416,2.84269 -4.861649,3.27522 -5.311587,4.04095 -2.658608,-0.1393 -7.579529,1.97012 -8.63545,3.59115 2.312712,1.67104 8.417251,0.21174 7.970168,4.99989 2.804761,2.86415 6.46733,3.07825 10.038171,4.66181 4.338327,-0.0836 8.95095,1.22445 10.864749,-3.45881 0.140972,-3.916 2.733008,-6.70437 5.714471,-2.40599 4.140647,-0.38726 6.608451,3.56245 10.376271,1.20355 2.52384,3.29862 3.8154,7.59351 7.63207,9.32362 2.75297,1.54316 8.46084,1.65154 7.406,6.31697 -1.41502,3.72 -0.45049,5.7496 -0.50524,9.07594 -3.07386,2.47508 -0.25046,7.39279 -2.95348,10.02137 -6.79999,-1.0545 -3.70009,3.87658 0,5.7145 3.84102,-3.51565 6.12615,2.14007 10.37627,1.20355 2.71465,-2.08504 5.66293,3.5711 7.79966,5.41375 3.86918,0.58367 8.30126,-0.38307 11.05803,2.97002 3.98265,0.11144 6.56572,7.0313 9.58828,1.21608 3.65766,-1.32195 6.84101,2.33509 10.23947,-0.74664 2.97999,-1.28017 6.48757,-5.36347 9.22225,-1.46558 3.45019,1.72635 8.567,-0.30367 11.04155,-1.18544 0.21243,-4.29085 8.03989,0.4973 10.37626,-2.74421 2.29256,-1.63454 2.7133,-5.27849 3.45876,-7.6321 1.66683,-3.44906 5.49577,-2.65937 9.17322,-1.69152 3.01732,1.75323 6.75527,-0.68396 7.92809,4.4693 3.32554,0.72158 5.22572,9.01243 8.67392,5.64388 3.61168,-0.92635 6.05227,-3.58266 9.65116,-5.25704 3.36488,-1.15062 7.22336,-5.04071 8.48481,-8.31495 3.01415,-2.5276 5.47816,-4.84973 7.77676,-7.67835 -0.94125,-4.43503 2.45127,-6.91011 3.80255,-10.32992 0.56974,-4.24684 5.79981,-3.65899 5.71449,-7.14358 -1.26596,-4.50816 5.22016,-6.94674 -1.01062,-8.19041 -2.15064,2.89061 -6.84677,1.94295 -9.06489,5.35148 -2.83552,-1.66073 -8.02414,-0.57948 -11.88016,-0.88177 -4.43873,2.02515 -2.99833,-1.05171 -7.63204,-1.20355 -3.5306,-0.54048 -5.50635,-1.81298 -3.94727,-6.31697 0.18053,-4.45132 -0.95031,-7.42329 0,-11.42885 1.62093,-1.2941 5.00744,-6.47828 8.12057,-4.05934 3.19442,-1.1548 7.72091,0.009 11.5793,1.0531 3.11324,1.45611 8.3067,2.67623 9.63639,-1.51586 5.16015,-1.24116 4.22323,-4.22705 -1.51582,-2.99564 -1.66402,-3.099 -5.00602,-5.51363 -4.6618,-9.92609 0.90559,-4.25868 -4.67917,-7.33637 -1.86834,-11.44739 2.13169,-3.166 -1.42217,-8.75137 2.92099,-11.10874 5.20949,-0.42347 -3.61946,-5.8375 1.20313,-9.17318 0.37026,-4.16102 -3.36922,-6.91847 -2.25572,-11.20486 -2.80341,-3.33066 1.14978,-7.59296 4.66179,-8.49506 -0.47195,-4.01741 4.64068,-5.80017 5.71449,-9.17318 0.3449,-2.97795 3.56369,-5.25676 4.66179,-8.83509 -3.40294,-3.93718 2.34584,-6.18325 2.2557,-9.88779 -0.91437,-3.78338 -1.88335,-7.48667 -7.02377,-4.91561 -1.35887,-1.08236 -7.95499,-1.88668 -6.81129,-5.83722 0.49382,-3.59645 2.96408,-6.49597 2.25577,-10.60226 0.20018,-6.652125 -5.74493,1.11858 -9.17326,-0.37471 -3.57089,2.10928 -5.29401,4.9464 -9.77574,4.66181 -4.18587,-0.12537 -8.76769,0.62545 -12.17981,-1.20355 -3.20081,-4.83259 -2.3921,-4.52836 -7.38068,-6.02737 -2.65688,-2.720945 -2.02765,-6.803135 -4.70396,-9.515995 -1.40605,-3.57792 -5.25156,-6.14535 -5.2092,-10.32324 -2.56477,-3.11209 -3.3712,-6.95259 -3.45874,-11.09077 -3.26874,-4.98304 0.32917,-5.74403 4.39982,-6.82639 0.77548,-3.73115 -1.83887,-7.8444 -1.63885,-11.00901 4.18003,-2.66829 -0.53394,-6.78279 -1.51581,-9.67856 1.08724,-3.94887 -5.27452,-6.9955 -1.2452,-10.56868 -1.34132,-3.29597 -4.87622,-6.2951 -4.66181,-10.26431 -1.1931,-6.10342 -4.79708,4.53338 -8.72309,2.14369 -4.36563,-0.64218 -7.8509,0.87759 -10.49956,4.28403 -2.86127,2.77875 -6.51918,4.14598 -10.47906,3.83659 -4.49303,-0.82605 -7.85038,1.08933 -11.95374,1.20355 -2.93884,-1.67132 -6.28935,-3.2273 -10.11387,-3.45881 -2.76552,2.61006 -3.33684,6.82597 -7.06557,9.05895 -3.96805,0.85808 -6.5534,-2.73822 -10.00213,-3.34445 -3.74428,-1.23699 -7.56765,-2.5152 -11.69337,-2.25569 -3.1894,-1.34285 -6.07601,-3.09023 -9.54766,-4.66181 -3.15757,-1.47045 -7.97364,-5.17471 -8.12055,-9.06117 -0.970368,-4.4927 0.10726,-6.7541 0,-11.6912999 -1.741128,-2.98938 -3.859865,-2.4528 -6.917511,-2.40613 z"
       style="fill:#000000;fill-opacity:1;stroke:#d39062;stroke-width:1.84283;stroke-miterlimit:4;stroke-dasharray:none;stroke-opacity:1"
       id="San_Juan_de_la_Costa" />
  </g>
</svg>
