<?xml version="1.0" encoding="UTF-8" standalone="no"?>
<!-- Created with Inkscape (http://www.inkscape.org/) -->

<svg
   width="210mm"
   height="297mm"
   viewBox="0 0 210 297"
   version="1.1"
   id="svg64"
   inkscape:version="1.1.2 (b8e25be833, 2022-02-05)"
   sodipodi:docname="vector.svg"
   xmlns:inkscape="http://www.inkscape.org/namespaces/inkscape"
   xmlns:sodipodi="http://sodipodi.sourceforge.net/DTD/sodipodi-0.dtd"
   xmlns="http://www.w3.org/2000/svg"
   xmlns:svg="http://www.w3.org/2000/svg">
  <sodipodi:namedview
     id="namedview66"
     pagecolor="#ffffff"
     bordercolor="#666666"
     borderopacity="1.0"
     inkscape:pageshadow="2"
     inkscape:pageopacity="0.0"
     inkscape:pagecheckerboard="0"
     inkscape:document-units="mm"
     showgrid="false"
     inkscape:zoom="0.74029882"
     inkscape:cx="361.34057"
     inkscape:cy="561.93525"
     inkscape:window-width="1920"
     inkscape:window-height="1017"
     inkscape:window-x="-8"
     inkscape:window-y="-8"
     inkscape:window-maximized="1"
     inkscape:current-layer="layer1" />
  <defs
     id="defs61" />
  <g
     inkscape:label="Capa 1"
     inkscape:groupmode="layer"
     id="layer1">
    <path
       style="fill:#000000;fill-opacity:1;fill-rule:evenodd;stroke:#d39062;stroke-width:0.382159;stroke-linecap:butt;stroke-linejoin:miter;stroke-miterlimit:4;stroke-dasharray:none;stroke-opacity:1"
       d="m 112.23508,91.976699 c -0.13605,0.420691 -0.28544,0.851417 -0.31059,1.218133 -0.0343,0.51712 -0.008,0.937762 -0.0476,1.146476 -0.25077,1.253709 -1.0535,2.541937 -1.43311,4.060439 -0.19665,0.787068 -0.38316,1.336871 -0.69268,1.767483 -0.30945,0.43061 -0.74116,0.7408 -1.45697,1.09871 -0.72728,0.36364 -1.09447,0.58276 -1.24203,0.74043 -0.14748,0.15766 -0.0774,0.25812 0.0716,0.35827 0.14901,0.10015 0.36318,0.21494 0.52545,0.40605 0.16235,0.19108 0.27477,0.45327 0.1673,0.88374 -0.3346,1.33818 -0.9112,1.97285 -1.19423,3.10504 -0.18217,0.72889 -0.32165,2.31484 -0.71654,3.10504 -0.1734,0.3468 -0.47732,0.66445 -0.76433,1.00317 -0.28696,0.33872 -0.55655,0.6976 -0.66878,1.14648 -0.0892,0.35605 -0.18826,0.88115 -0.35823,1.38532 -0.16997,0.50417 -0.40975,0.98629 -0.83597,1.24202 -0.35709,0.21429 -3.0432,1.66337 -3.10505,1.91079 -0.13415,0.53648 -0.0793,1.04927 0.0476,1.52864 0.12728,0.47937 0.32659,0.92409 0.42995,1.33756 0.12271,0.49083 0.14596,0.97853 0.0716,1.48086 -0.0743,0.50233 -0.24618,1.01797 -0.54935,1.62418 -0.192454,0.3853 -0.343364,0.87458 -0.549344,1.28978 -0.2058,0.4152 -0.46586,0.77927 -0.88377,0.88374 -0.58242,0.14562 -1.32015,0.0217 -1.98242,0.0478 -0.33117,0.013 -0.62957,0.0581 -0.90765,0.19108 -0.2782,0.133 -0.51631,0.36383 -0.69264,0.71654 -0.2721,0.54406 -0.5452,0.90513 -0.90766,1.07483 -0.36242,0.1697 -0.81318,0.14763 -1.48086,-0.11944 -1.17507,-0.47003 -3.11713,-0.6163 -4.56201,-1.19424 -0.817,-0.32679 -1.24077,-0.86315 -1.64805,-1.33756 -0.20351,-0.2372 -0.41944,-0.45647 -0.64489,-0.6449 -0.22561,-0.18841 -0.48193,-0.3474 -0.81212,-0.42992 -2.61572,-0.65394 -5.9279,-1.32451 -5.49352,-1.4331 0.48025,-0.12005 0.64035,-0.27393 0.59713,-0.45381 -0.0431,-0.17992 -0.27477,-0.38177 -0.59713,-0.54936 -0.64447,-0.33517 -1.61669,-0.57697 -1.91078,-0.42993 -0.40617,0.20309 -0.72496,0.67989 -1.05095,1.07483 -0.1631,0.19748 -0.32202,0.38682 -0.50159,0.50158 -0.1795,0.11475 -0.37691,0.15061 -0.5971,0.0955 -0.7024,-0.17561 -1.25362,-0.34238 -1.83917,-0.4777 -0.58552,-0.13533 -1.20373,-0.23883 -1.98242,-0.23883 -1.02964,0 -1.53597,-0.16761 -1.98246,-0.42993 -0.44653,-0.26235 -0.83166,-0.61885 -1.60029,-1.00317 -1.18594,-0.59297 -2.12941,-0.89062 -3.34389,-1.19425 -0.64984,-0.16246 -1.38273,-0.11886 -2.12575,-0.0955 -0.74306,0.0232 -1.49446,0.0263 -2.17354,-0.14329 -0.63932,-0.15983 -1.54778,-0.41308 -2.41237,-0.74043 -0.86459,-0.32736 -1.68338,-0.72796 -2.12579,-1.17037 -0.5181,-0.51811 -0.8123,-1.18724 -1.12259,-1.81525 -0.15511,-0.31398 -0.29954,-0.62152 -0.50156,-0.88374 -0.20198,-0.26224 -0.44916,-0.48731 -0.76433,-0.6449 -0.69675,-0.3484 -2.78222,-1.62997 -2.86618,-1.67194 -0.40278,-0.20137 -0.9719,-0.45039 -1.60029,-0.62101 -0.62839,-0.17062 -1.31448,-0.26254 -1.98246,-0.0955 -0.99874,0.24969 -1.70822,0.44375 -2.41237,0.4777 -0.70415,0.0339 -1.40095,-0.0922 -2.36462,-0.4777 -0.76898,-0.30758 -1.3878,-0.69089 -2.00632,-1.05094 -0.61852,-0.36006 -1.23498,-0.69603 -2.0541,-0.85985 -0.67645,-0.13529 -1.21059,-0.43581 -1.69584,-0.78821 -0.48525,-0.3524 -0.92027,-0.75587 -1.40922,-1.12259 -0.36013,-0.27004 -0.52934,-0.48274 -0.57324,-0.64489 -0.0438,-0.16216 0.0229,-0.27683 0.14329,-0.35827 0.24162,-0.16288 0.67649,-0.18799 0.66875,-0.19108 -0.62717,-0.25088 -1.39595,-0.53243 -2.14965,-0.88374 -0.75365,-0.3513 -1.51424,-0.77144 -2.1735,-1.2659 -0.64611,-0.48459 -1.31173,-0.64855 -2.03021,-0.78821 -0.71851,-0.13963 -1.48806,-0.25438 -2.26908,-0.64489 -0.74679,-0.3734 -1.4679,-0.6784 -2.24518,-0.88374 -0.77732,-0.20534 -1.60876,-0.31052 -2.53181,-0.31052 -0.61677,0 -1.33966,-0.0827 -2.0541,-0.11943 -0.71444,-0.0366 -1.41875,-0.0274 -2.00636,0.11943 -0.71543,0.17885 -1.31581,0.36307 -1.88688,0.40605 -0.57107,0.043 -1.11131,-0.0553 -1.69583,-0.40605 -0.44867,-0.26924 -0.90427,-0.63326 -1.36139,-0.97928 l 0.14329,3.70216 -8.0253404,15.78795 -4.68144997,2.60346 -0.23894,2.0541 c 0.43162,0 0.85810997,0 1.28976997,0 0.27706,0 0.46677,-0.0932 0.621,-0.23883 0.15434,-0.14569 0.2641,-0.33125 0.40606,-0.52547 0.14215,-0.19424 0.30868,-0.40367 0.54935,-0.54935 0.24047,-0.1457 0.55346,-0.23884 1.00315,-0.23884 0.25,0 0.84802,-0.64909 1.40922,-1.33755 0.5612,-0.68846 1.09923,-1.40973 1.19424,-1.50476 0.2721,-0.27229 0.35403,-0.49592 0.38216,-0.69266 0.0267,-0.19672 0.008,-0.37541 0.0229,-0.50158 0.019,-0.12618 0.0709,-0.20213 0.31059,-0.26273 0.23933,-0.0606 0.64287,-0.0955 1.33753,-0.0955 1.2949204,0 2.5983104,0 3.8932704,0 0.60487,0 1.03913,0.0881 1.36142,0.23883 0.32241,0.15069 0.5234,0.36002 0.66879,0.59713 0.29077,0.47419 0.33231,1.07062 0.54935,1.50475 0.27858,0.5568 0.61074,1.11232 1.05094,1.55252 0.696,0.696 1.43643,1.35118 2.31684,1.79137 0.23551,0.11776 0.29496,0.21349 0.28658,0.28662 -0.008,0.0731 -0.0724,0.13681 -0.0956,0.23883 -0.0229,0.10206 7e-5,0.22542 0.19092,0.42993 0.19093,0.20449 0.53621,0.47937 1.17035,0.85986 0.54542,0.32724 1.09595,0.47778 1.64808,0.52547 0.5521,0.0477 1.1067,0 1.7197,0 0.28048,0.16825 0.40201,0.39981 0.40605,0.66877 0.004,0.26898 -0.10404,0.57847 -0.23894,0.90763 -0.26982,0.65832 -0.66879,1.3981 -0.66879,2.05411 0,0.74787 -0.19398,1.22693 -0.0956,1.67194 0.0492,0.22252 0.17568,0.4399 0.42991,0.66878 0.25457,0.22889 0.63818,0.47434 1.21813,0.76432 0.34223,0.17111 0.57009,0.38934 0.71654,0.62101 0.14634,0.23166 0.20884,0.4811 0.21494,0.74043 0.0114,0.51866 -0.19017,1.04889 -0.40606,1.48086 -0.12081,0.24177 -0.15853,0.50273 -0.11928,0.76432 0.0393,0.26159 0.14634,0.52024 0.23894,0.78821 0.0926,0.26794 0.17531,0.55122 0.21494,0.81208 0.0396,0.26086 0.0229,0.50013 -0.0957,0.74042 -0.14558,0.29078 -0.19817,0.7136 -0.19093,1.17038 0.008,0.45675 0.0732,0.96117 0.19093,1.43308 0.17073,0.68383 0.40442,1.28661 1.05091,2.57959 0.41234,0.82465 0.70228,1.19192 1.07484,1.26589 0.37271,0.0739 0.81749,-0.13415 1.50475,-0.47771 0.22523,-0.11242 0.33651,0.12272 0.42992,0.42996 0.0934,0.30754 0.18026,0.68189 0.35823,0.85986 0.54306,0.54302 1.19698,0.8758 1.83916,1.19424 0.64219,0.3186 1.25343,0.63243 1.76749,1.14649 0.12881,0.12881 0.38345,0.13338 0.66878,0.0957 0.28544,-0.0381 0.61029,-0.11814 0.95537,-0.23894 0.69016,-0.24124 1.39504,-0.57519 1.74362,-0.64489 0.9878,-0.19741 1.51139,-0.18369 1.91078,-0.26258 0.39942,-0.0789 0.69573,-0.24199 1.21813,-0.76432 0.2138,-0.2138 0.6636,-0.0873 1.28978,0.0957 0.62622,0.18293 1.4096,0.40606 2.31687,0.40606 0.46155,0 0.77641,0.0652 1.00316,0.1673 0.22675,0.10175 0.38422,0.24695 0.54935,0.40602 0.16501,0.1593 0.34451,0.32965 0.62099,0.5016 0.27668,0.17187 0.63285,0.33727 1.19424,0.4777 0.52473,0.1311 1.04321,0.33689 1.52865,0.59714 0.48544,0.25991 0.95514,0.57294 1.33757,0.95537 0.20655,0.20655 1.00445,0.21874 1.83913,0.1673 0.83467,-0.0514 1.6905,-0.1673 2.03021,-0.1673 0.22561,0.2256 3.43618,1.58673 3.89327,1.81527 1.29469,0.64733 2.96923,0.9599 4.39483,1.81523 0.36128,0.21684 0.63243,0.60369 0.93151,1.0032 0.29916,0.39946 0.63231,0.81775 1.14645,1.0748 0.84093,0.42046 1.58334,0.62744 2.36462,0.71657 0.78129,0.0892 1.60098,0.0716 2.5557,0.0716 0.5856,0 1.42065,0.37462 2.24519,0.85987 0.8245,0.48536 1.63059,1.06767 2.14964,1.45696 0.0728,0.0549 0.21952,0.4939 0.5971,1.02705 0.18865,0.26639 0.43857,0.56399 0.76433,0.83598 0.32584,0.2721 0.73875,0.53913 1.24203,0.74043 0.31478,0.12576 0.57389,0.36966 1.05091,0.59713 0.47705,0.22752 1.17286,0.42992 2.31687,0.42992 1.0735,0 1.87304,0.22904 2.46012,0.5016 0.58712,0.27286 0.96646,0.58429 1.17038,0.78818 0.50248,0.50251 1.21741,0.70834 1.93467,0.90765 0.71726,0.19931 1.42141,0.39432 1.93467,0.90762 0.29611,0.29611 0.44706,0.42218 0.64489,0.4777 0.19779,0.0556 0.441,0.0476 0.90765,0.0476 0.6205,0.62054 0.8362,1.29062 1.05091,1.95856 0.21456,0.66795 0.43453,1.31829 1.02706,1.91082 0.49218,0.49214 0.71581,1.19271 1.02705,1.81523 0.22942,0.4588 0.43064,0.74043 0.59714,0.90765 0.16653,0.1673 0.31097,0.2218 0.42991,0.26258 0.11928,0.0408 0.22332,0.0633 0.31059,0.14329 0.0873,0.08 0.14406,0.21761 0.21494,0.5016 0.0518,0.20693 0.34604,0.41429 0.76433,0.62099 0.41844,0.20656 0.96851,0.41086 1.52861,0.59714 1.12023,0.37271 2.29091,0.69165 2.62735,0.85987 1.05022,0.52511 2.03588,1.2477 2.866184,2.07796 0.40079,0.4008 1.40605,0.78086 2.46016,1.09873 1.05411,0.31784 2.16043,0.57592 2.72289,0.71654 0.40522,0.10137 0.7046,0.0884 0.97926,0.0476 0.27477,-0.0408 0.52538,-0.12919 0.76432,-0.21494 0.23895,-0.0857 0.46631,-0.15625 0.76433,-0.19093 0.29802,-0.0343 0.64679,-0.019 1.0987,0.0957 0.86207,0.2157 1.4937,0.56135 2.10189,0.90761 0.60815,0.34642 1.20502,0.69539 2.05411,0.90762 0.89374,0.22332 1.61569,0.1471 2.26904,0.19093 0.3266,0.0229 0.62301,0.0694 0.93151,0.19093 0.30869,0.12195 0.61322,0.3266 0.93151,0.64489 0.53689,0.53685 1.05221,0.86569 1.457,1.28978 0.40477,0.42412 0.70884,0.94073 0.88373,1.81527 0.0682,0.34108 -0.15092,0.62412 -0.40602,0.90761 -0.25496,0.28354 -0.53662,0.57005 -0.62104,0.90766 -0.1974,0.78982 -0.45914,1.26002 -0.66874,1.71969 -0.2096,0.45972 -0.38216,0.90987 -0.38216,1.64809 -0.0865,0.43163 -0.17645,0.85811 -0.26296,1.28978 -0.0629,0.31516 -0.25152,0.60415 -0.42991,0.93151 -0.17836,0.32736 -0.33422,0.69897 -0.33422,1.14645 0,0.3689 0.10975,0.73151 0.26257,1.07484 0.15282,0.34337 0.33651,0.67328 0.50156,1.00316 0.0671,0.13414 0.1814,0.48833 0.38216,0.93151 0.20084,0.44317 0.50766,0.96146 0.93151,1.38532 0.46395,0.46398 0.59417,0.79542 0.90766,1.00319 0.31364,0.2077 0.80361,0.3106 1.93467,0.3106 0.28315,0 0.80815,-0.43369 1.36142,-0.90762 0.55332,-0.47393 1.12847,-0.99416 1.48086,-1.17034 0.37005,-0.18522 0.70595,-0.19208 1.0032,-0.0717 0.29725,0.12043 0.55598,0.37119 0.78818,0.64489 0.46444,0.54775 0.79996,1.25377 1.05095,1.50476 0.60396,0.60396 1.30277,0.92598 2.078,1.09873 0.77522,0.17264 1.64652,0.19093 2.60345,0.19093 0.86364,0 1.42659,-0.12462 1.81523,-0.40602 0.38865,-0.28163 0.59265,-0.72244 0.76433,-1.40921 0.0949,-0.37996 0.52965,-0.64806 1.07484,-0.81208 0.54516,-0.16387 1.19432,-0.23895 1.76748,-0.23895 0.47047,0 0.79851,0.0606 1.00316,0.1433 0.20465,0.0827 0.28315,0.2035 0.31059,0.33422 0.0545,0.26181 -0.1391,0.58883 -0.26257,0.83597 -0.10938,0.21836 -0.0678,0.40628 0.0716,0.57324 0.13949,0.16692 0.36205,0.30411 0.621,0.45381 0.51798,0.29954 1.14306,0.59024 1.36146,1.02705 0.52877,1.05758 0.72614,1.29287 0.78818,1.43311 0.0621,0.14024 0,0.19512 0,0.90762 0,0.22789 0.93155,0.30259 1.91082,0.31059 0.97922,0.008 1.99442,-0.0476 2.22129,-0.0476 1.38128,0 2.77472,0 4.15596,0 1.14622,0 2.12624,0.18331 3.10505,0.40606 0.9788,0.22294 1.95079,0.47671 3.10505,0.621 0.44253,0.0553 0.92324,-0.0114 1.38532,0 0.42889,-3.98257 1.45525,-3.74457 1.88692,-7.26102 1.04668,-2.19076 -0.60164,-8.36127 4.32314,-10.41381 -0.29763,-1.19393 2.5187,-2.32144 6.13846,-2.03025 3.91778,-2.04019 8.36131,0.51178 8.71798,-1.28978 3.81644,2.60262 6.71677,-5.50145 10.3422,-2.36462 3.35425,-5.28667 3.24739,-2.12087 4.65756,-3.29609 2.83718,1.84461 5.37974,0.80788 6.44894,-0.83597 3.97692,-0.55842 6.27416,-3.8568 6.21006,-8.21642 2.8597,-2.67525 0.33346,-9.76123 0.83597,-11.96636 3.96416,-1.4716 1.2253,-3.13714 -1.28978,-4.87253 1.30724,-1.92956 -0.55781,-8.17743 -0.9793,-12.46792 5.95077,-5.05633 3.94327,-6.68822 4.41873,-8.4314 -1.90312,-0.87192 -2.18071,-3.27329 -0.621,-4.7531 l 1.31368,-0.38216 c -0.89382,0.55643 -6.45889,-2.48372 -7.69097,-2.34072 -1.03307,-0.41268 -0.95834,1.24309 -2.14964,1.50475 -1.51177,0.33205 -1.87068,-1.72864 -3.74994,-2.89008 -2.5368,-1.5827 -3.05162,-3.0737 -4.65756,-0.90763 -3.41965,0.16883 -6.66467,0.84403 -6.49669,1.7436 -2.15265,0.0343 -1.80707,-1.85135 -2.12575,-2.12576 -0.6189,-0.53292 -0.14901,2.39536 -3.82162,2.34073 -1.72949,-0.0259 -2.51973,-1.45828 -3.60661,-2.67511 -1.52728,-1.70986 -0.9636,-3.43944 -2.1974,-3.43944 -2.18364,1e-5 -7.18936,-0.28323 -7.18936,-1.81525 -1.2817,-1.1384 0.30525,-3.89155 0.4538,-4.03655 -1.05876,-0.6937 -3.6305,0.0578 -3.6305,-0.59713 -1.62194,-0.61345 -0.26562,-5.15772 -1.21813,-5.01583 -0.52881,0.0753 -0.97458,2.07527 -2.34073,1.91079 -6.23628,-0.75082 -3.036,1.27454 -4.03656,4.20375 -0.37538,2.18177 -0.39451,0.65669 -5.08751,1.38533 -5.17818,0.17839 -6.66262,-0.0927 -5.8518,4.96806 -0.29078,1.42317 -0.57629,2.65427 -1.26588,3.34389 -1.1585,1.1585 -0.55812,-1.04471 -4.2754,-3.10504 -6.95103,-3.85259 -5.95625,-1.74988 -6.85499,-5.08749 -1.03471,-3.84252 -3.702,-9.24347 -5.06362,-9.24347 -1.60742,0 -2.72898,0.98399 -3.74994,-1.48087 -0.22141,-0.53463 -1.56882,-0.15472 -1.86302,-1.60029 -0.45998,-2.259999 -1.63376,-5.283511 -2.699,-5.230798 -1.33551,0.06608 -4.10592,-1.140089 -6.16231,-3.463315 -0.21798,-0.246112 -0.29725,-0.52877 -0.33422,-0.812088 z"
       id="Romeral"
       inkscape:label="#path2794" />
  </g>
</svg>
