<?xml version="1.0" encoding="UTF-8" standalone="no"?>
<!-- Created with Inkscape (http://www.inkscape.org/) -->

<svg
   width="210mm"
   height="297mm"
   viewBox="0 0 210 297"
   version="1.1"
   id="svg1283"
   inkscape:version="1.1.2 (b8e25be833, 2022-02-05)"
   sodipodi:docname="vector.svg"
   xmlns:inkscape="http://www.inkscape.org/namespaces/inkscape"
   xmlns:sodipodi="http://sodipodi.sourceforge.net/DTD/sodipodi-0.dtd"
   xmlns="http://www.w3.org/2000/svg"
   xmlns:svg="http://www.w3.org/2000/svg">
  <sodipodi:namedview
     id="namedview1285"
     pagecolor="#ffffff"
     bordercolor="#666666"
     borderopacity="1.0"
     inkscape:pageshadow="2"
     inkscape:pageopacity="0.0"
     inkscape:pagecheckerboard="0"
     inkscape:document-units="mm"
     showgrid="false"
     inkscape:zoom="0.74029882"
     inkscape:cx="361.34057"
     inkscape:cy="561.93525"
     inkscape:window-width="1920"
     inkscape:window-height="1017"
     inkscape:window-x="-8"
     inkscape:window-y="-8"
     inkscape:window-maximized="1"
     inkscape:current-layer="layer1" />
  <defs
     id="defs1280" />
  <g
     inkscape:label="Capa 1"
     inkscape:groupmode="layer"
     id="layer1">
    <path
       d="m 110.53736,58.543033 v 0.51205 h -0.51205 v 0.51205 l -2.43221,2.43207 v 0.51205 h -1.47209 l -0.96004,0.96004 h -0.51205 l -0.51205,-0.44812 h -0.44813 v 0.44812 h -0.51205 l -0.51205,0.51205 h -1.4721 v 0.51205 h -0.96004 l -1.024097,-1.02403 -0.96004,1.02403 h -0.51205 l -0.44813,-0.51205 h -0.51205 v 0.51205 h -0.96011 l -0.51205,0.44813 h -1.98415 l -0.44813,0.51205 v -0.51205 h -1.98414 l -0.51205,-0.44813 v 0.44813 h -0.44813 l -0.51205,-0.44813 v -0.51205 h -1.47209 l -0.51205,-0.51205 h -0.96004 l -0.51205,-0.44812 h -1.4721 v 0.44812 l -0.96004,1.02404 h -0.51205 l -0.51205,0.44813 h 0.51205 v 1.02403 h -0.51205 l -0.44813,0.44813 -0.51205,0.51205 v 0.96004 l -0.96004,1.02403 v 0.44813 h -1.98415 l -0.51205,0.51205 h -0.96011 v -0.51205 h -0.51205 -0.44813 v 0.51205 h -1.02403 l -0.51205,-0.51205 h -0.44813 l -0.51205,0.51205 h -1.98414 l -0.44813,0.51205 h -1.47209 v -0.51205 h -1.98415 l -0.51205,0.51205 h -0.44813 v 0.96004 l -0.51205,0.51205 h -0.51205 l -0.44812,0.44813 v 0.51205 l 0.44812,0.51205 h -0.44812 l -0.51205,0.44813 h -0.51205 v 0.51205 h -0.44813 v 0.51205 h -1.02404 l -0.96004,0.96005 -0.51205,-0.44813 v -1.02404 h -1.47209 v -0.96004 l -0.51205,-0.51205 h -1.4721 l -0.44812,0.51205 h -1.98415 l -0.96004,0.96004 h -0.51205 v 0.51205 h -0.96004 l -0.51205,-0.51205 h -0.96005 l -0.51205,0.51205 h -1.47209 v -0.51205 h -1.0241 l -0.96004,1.02404 h -0.96005 l -0.51205,0.44813 h -0.96011 v 0.51205 h -1.98407 l -0.51205,-0.51205 h -0.96005 v 0.51205 h -0.96011 l -0.51205,0.51205 h -1.47209 l -0.51205,0.44813 h -1.47216 v 1.02403 l 0.51205,0.44813 v 0.51205 l -0.51205,0.51205 v 0.44813 h -0.51205 l -0.44813,0.51205 v 0.51205 h -0.51205 l -0.51205,-0.51205 h -1.47216 l -0.96005,0.96004 h -0.51205 v -0.44813 l -0.96004,-1.02403 h -0.96004 l -0.51205,-0.44813 v -0.51205 l 0.51205,-0.51205 -0.51205,-0.44813 h -1.98414 v -0.51205 h -0.44813 v -0.51205 h -1.53609 l -0.44812,0.51205 -0.51206,-0.51205 v -0.44813 l -0.51205,-0.51205 -0.44812,0.51205 h -0.51205 v 0.96004 l -0.51205,0.51205 h -0.44813 l -0.51205,0.44813 h -0.51205 v 0.51205 l -0.44813,0.51205 h -1.02403 l -0.44813,-0.51205 -0.51205,0.51205 h -0.96005 l -0.51205,-0.51205 h -0.51205 l -0.44806,-0.51205 -0.51205,0.51205 v 1.4721 l -0.51205,0.51205 v 0.96004 l 1.4721,1.47209 v 0.51205 l 0.51205,0.44813 h 1.4721 v 1.02403 l 0.51205,0.44813 h 0.44812 v 1.98408 h -0.44812 v 1.02403 l -1.02411,0.96004 h -0.44812 l -0.51205,0.51205 v 0.44813 l -0.51205,0.51205 0.51205,0.51205 v 0.96004 l 0.51205,0.51205 v 0.96005 h -0.51205 l -0.51205,0.51205 h -0.44807 l -0.51205,0.44813 h -0.51205 v 0.51205 h -0.44806 v 0.96004 h -0.51205 l -0.51205,0.51205 v 2.49613 l -0.51205,0.448117 v 0.51205 h -0.44806 l -0.51205,0.51205 H 8.7703531 l -0.44799,0.44813 h -1.4721 l -0.51205,0.51205 v 0.96005 l -0.96007,1.02403 v 0.44813 h -0.51205 v 1.02403 l -0.51205,0.44813 h -2.944197 l -0.51205004,0.51205 v 0.51205 h -0.447993 v 0.96004 h 0.447993 l 0.51205004,0.51205 h 1.024073 l 0.448064,0.44813 v 0.51205 l 0.51205,0.51205 v 4.41621 l 0.51205,0.51205 v 0.96005 h 0.44806 v 1.98407 h 0.51205 l 0.51205,0.44813 v 1.02403 l 0.44806,0.44813 h 0.51205 l 0.51205,0.51205 h 0.44799 v 0.96004 h 1.98414 v -0.44812 h 0.51205 l 0.9600599,-1.0241 h 2.94421 l 1.02407,-0.96005 v -0.51205 h 0.44806 v -0.44813 l 1.02406,-1.02403 h 0.44806 l 0.51199,-0.44813 v -0.51205 h 0.51205 v -0.96004 h 0.44812 l 0.51205,-0.51205 h 0.96012 l 0.51205,-0.51205 h 2.4322 l 0.51205,0.51205 h 1.47209 l 0.51205,-0.51205 h 1.4721 l 0.51205,0.51205 v 0.51205 h 0.44813 v 0.96004 l 0.51205,0.51205 v 0.44813 l 0.51205,0.51205 h 2.43213 l 0.51205,0.51205 h 0.96004 l 0.51205,0.44813 v 0.51205 l -0.51205,0.51205 v 0.44813 l 0.51205,0.51205 v 0.51205 l -0.51205,0.44813 0.51205,0.51205 v 0.51205 h 0.44813 v 0.44813 l 0.51205,0.51205 v 1.02403 l 0.96011,0.96004 v 0.96005 h 0.51206 v 1.47209 l 0.51205,0.51205 v 3.4561 l -0.51205,0.44813 v 0.51205 h -0.51206 v 0.51205 h -0.44812 v 0.44813 l -0.51205,0.51205 h -0.51205 v 1.98407 l -0.44813,0.51205 h -0.51205 v 0.44813 h -0.51205 v 0.51205 h -0.44813 V 138.23 l -1.0241,0.96005 h -0.44813 l -0.51205,0.51205 -0.51205,0.44812 -0.44813,0.51205 v 0.96005 l -0.51205,0.51205 v 1.47209 h 0.51205 l 0.44813,0.51205 h 0.51205 v 0.44813 l 0.51205,0.51205 v 0.51205 h 1.47209 v 2.43214 h 0.44813 v 0.51205 l 1.0241,0.96004 h 0.44813 v 1.98414 h 0.51205 v 0.51205 l 0.51205,0.44813 v 1.47203 h -0.51205 l -0.51205,0.51205 h -0.44813 v 0.51205 h -0.51205 l -0.51205,0.44813 v 0.51205 l 0.51205,0.51205 v 0.96004 l -0.51205,0.51205 v 0.44813 h -0.44813 v 0.51205 l -0.51205,0.51205 0.51205,0.44813 -0.51205,0.51205 v 0.51205 h -0.51205 v 2.94412 h -0.44813 l -0.51205,0.51205 h -0.51205 l -0.44813,0.44813 v 1.02403 h -0.51205 l -0.51205,0.44813 v 1.47202 l 0.51205,0.51205 v 0.51205 l -1.47209,1.47209 1.98414,0.44813 0.44813,-0.44813 0.51205,0.44813 0.51205,-0.44813 h 0.44813 l 0.51205,-0.51205 v -0.51205 l 0.96004,0.51205 h 0.51205 l 0.51205,0.51205 h 0.44813 l 1.98415,1.92009 0.96011,1.02403 h 0.51205 l 0.96011,0.96005 h 0.51205 l 0.51205,0.51205 v 0.51205 l -0.51205,0.96004 v 1.47209 h 1.47209 l 1.02403,-0.96004 h 0.44813 l 0.51205,-0.51205 h 3.90423 l 1.0241,-0.96004 h 0.44813 l 0.51205,-0.51205 h 1.4721 v -0.51205 l 0.51205,-0.44813 h 1.47209 v -0.51205 l 0.51205,-0.51205 h 0.96004 l 0.51205,-0.51205 h 0.96005 v 1.98407 h 0.51205 l 0.44812,-0.44813 h 0.51205 l 0.51205,-0.51205 v -1.02403 l 0.44813,-0.44813 v -0.51205 h 1.02404 l 0.44812,-0.51205 h 0.51205 l 0.51205,-0.44813 h 0.96012 l 0.96004,-1.02403 h 1.0241 l 8.32051,-0.44813 34.946427,-2.49606 h 0.96005 l 1.47209,1.47203 v 0.51205 l 0.96011,0.96004 h 0.51205 l 0.96011,1.02403 v 1.92009 h 0.51205 v 1.02403 l 0.96004,0.51205 h 0.51206 v 0.44813 l 1.47216,1.4721 h 0.51205 v 0.51205 l 0.51205,0.51205 h 0.44813 l 1.02403,0.96004 h -0.51205 l -0.96011,0.96004 h -0.51205 l -0.51205,0.51205 v 0.96004 l -0.96011,-0.44812 -0.51205,0.44812 v 0.51205 l 0.51205,0.51206 v 2.43206 l 0.51205,0.51205 v 1.98408 l 0.44812,0.44813 v 0.51205 h 1.98415 l 0.51205,0.51205 h 2.4322 l 0.51205,0.44813 h 2.43214 l 0.51205,0.51205 h 1.47209 l 0.44813,-0.51205 1.02403,1.02403 v 0.44813 h 0.51205 l 0.44813,0.51205 h 0.51205 l 0.51205,0.51205 h 1.47209 l 0.44813,-0.51205 0.51205,0.51205 v 0.44813 l 0.96011,0.51205 v -0.51205 l 1.02404,-0.44813 v 0.44813 l 0.96011,1.02403 h 0.96004 l 0.51205,-0.51205 v -0.51205 h 3.45624 l 0.51205,0.51205 v 0.51205 l 0.44813,0.44813 h 0.51205 l 0.51205,0.51205 h 0.44813 l 1.0241,0.96004 h 0.44813 l 1.0241,1.0241 h 0.96004 l 0.51205,-0.51205 v -0.51205 l 0.44813,-0.44813 v -1.98407 l 1.0241,-0.96005 v -0.51205 h 0.44813 l 1.02403,-0.96004 h 0.44813 l 1.47209,-1.47202 v -0.51205 h 0.51205 l 1.02403,-0.96005 h 0.44813 l 0.51205,-0.51205 h 0.96005 l 0.51205,-0.51205 h 0.96004 l 0.51205,0.51205 v 0.51205 l 0.96004,0.96005 h 0.51205 l 0.51205,0.51205 v 1.92008 h 0.44813 l 0.51205,0.51205 h 0.96004 l 0.51205,0.96004 v 0.51206 l 0.51205,0.51205 v 0.44812 l 0.44813,0.51205 v 0.51205 l -0.44813,0.44813 0.44813,0.51205 v 0.96005 l -0.44813,0.51205 v 0.51205 l 0.44813,0.44813 h 0.51205 l 1.4721,1.53601 h 1.0241 l 0.44813,0.44813 -0.44813,0.51205 h -0.51205 v 0.96004 h -0.51205 l 0.51205,0.51205 v 0.96005 l -0.51205,0.51205 0.51205,0.51205 v 0.96004 h 2.4322 v 0.51205 l -0.96011,0.96004 0.51205,0.51205 h 0.96004 l 0.51205,-0.51205 h 0.44813 v 0.96004 l 0.51205,0.51205 0.51205,0.96005 v 1.0241 l -0.51205,0.44813 h -0.51205 v 1.02403 l 1.02403,0.96004 v 1.02403 l -0.51205,0.44813 v 1.47203 l -0.51205,0.51205 v 1.47209 l -0.44813,0.51205 v 0.96004 h 0.96005 l 0.51205,-0.51205 v 1.02404 l -0.51205,0.44813 v 1.47209 h 0.51205 l 0.44813,0.51205 v 1.47209 l 1.02403,1.02403 v 0.44813 l 1.47216,1.47203 h 0.96004 l 0.96005,1.02403 v 0.44813 l 0.51205,0.51205 h 0.51205 v 0.96004 l -0.51205,0.51205 v 1.98408 l 0.51205,0.44813 v 0.51205 l -0.51205,0.51205 0.96004,0.96004 v 0.96004 l 0.51205,0.51205 -0.51205,0.51205 v 2.94412 l 0.51205,0.51205 h 0.51205 l 0.51205,-0.51205 v -0.51205 h 0.44813 l 1.0241,0.51205 h 0.44813 l 0.51205,-0.51205 h 3.45623 v 0.51205 l 0.44813,0.96004 h 1.02404 v -0.44812 l 0.44812,-0.51205 h 1.4721 v -0.51205 l 0.51205,-0.44813 h 0.51205 v -0.51205 l 0.96011,-0.96005 v -1.98407 l -0.51205,-0.51205 v -0.51205 l -0.44813,-0.44813 v -1.47209 l 0.44813,-1.02404 v -0.96004 h 1.53608 l 0.96011,-0.51205 h 0.51205 l 0.44813,0.51205 h 2.94419 v -0.51205 l 0.51205,-0.44813 v -0.51205 l 0.51205,-0.51205 v -0.96004 l -0.51205,-0.51205 v -1.47203 l 0.51205,-0.96004 v -1.0241 l -0.51205,-0.44813 v -1.47209 l -0.51205,-0.51205 v -3.90416 l -0.44813,-1.0241 v -0.44813 h -1.0241 l -0.96004,-1.02403 h -0.51205 v -1.4721 l -0.44813,-0.44813 v -0.51205 l -0.51205,-0.51205 -0.51205,-0.51205 0.51205,-0.44813 -0.96011,-1.0241 0.44812,-0.44813 1.02404,-0.51205 h 0.96011 l -1.4721,-1.47202 -0.51205,-0.51205 h -0.44812 v -0.44813 h 0.96011 l 0.51205,-0.51205 h 0.44813 l 0.51205,-0.51205 h 0.51205 l 0.44812,-0.44813 h 0.51205 l 0.96005,-0.51205 h 0.51205 v -0.51205 l 1.47209,-1.47209 h 2.4322 l 1.02404,0.51205 h 0.44813 l 0.51205,0.51205 0.51205,-0.51205 h 0.96004 l 0.51205,-0.51205 h 0.51205 v -0.96005 l 0.44813,-0.51205 v -0.44812 l 0.51205,-0.51205 h 0.51205 l 0.96004,-1.02404 v -2.43213 l -0.51205,-0.51205 h -0.44813 v -0.44813 h -1.02403 l -0.96011,0.44813 h -2.49619 l -0.96005,0.51205 h -0.96004 v -0.51205 l 0.44813,-0.96005 v -0.96004 l 0.51205,-0.51205 v -0.51205 l 0.51205,-0.44813 v -0.51205 l 0.44813,-0.51205 v -0.96004 l 0.51205,-0.51205 v -0.44813 l 0.51205,-0.51205 v -0.51205 l 0.51205,-0.44813 v -1.02403 l 0.44813,-0.51205 -0.96005,-0.96004 h -0.51205 l -0.51205,-0.51205 -0.44812,0.51205 -1.02404,-0.96005 h -0.96011 v -1.02403 l 0.51205,-0.44813 v -0.51205 l 0.96004,-0.96004 v -0.51205 l 0.96005,-0.96005 h 0.51205 l 0.51205,-0.51205 h 0.51205 l 0.96004,-0.96004 v -0.51205 l 0.51205,-0.51205 v -0.44813 l 0.44813,-0.51205 v -0.51205 l -0.44813,-0.44813 -0.51205,-0.51205 v -1.02403 l -0.51205,-0.44813 v -0.51205 l -0.44813,-0.51205 v -0.96004 l -0.51205,-0.51205 v -0.44813 l 0.96005,-1.02403 h 0.51205 l 0.51205,-0.44813 h 1.47209 l 0.44813,0.44813 h 1.02403 l 0.44813,-0.44813 h 0.51205 l 0.51205,-0.51205 h 0.96011 l 0.51205,-0.51205 v -0.44813 l 0.44813,-0.51205 v -0.51205 l 0.51205,-0.44813 h 0.51205 l 1.47209,-1.47209 -0.51205,-0.51205 v -0.96005 l -0.51205,-0.51205 v -1.02403 l -0.44813,-0.96004 h -1.0241 l -0.44813,-0.51205 h -0.51205 l -0.96011,-0.96004 h -0.51205 l -0.51205,-0.51205 -0.44813,-0.44813 -0.51205,-0.51205 h -0.51205 l -1.47209,-1.47203 -0.44813,0.51205 v 0.44813 l 0.44813,1.02403 0.51205,0.44813 v 1.0241 l -0.51205,0.44813 -1.92015,-1.92009 h -0.51205 l -0.51205,0.44813 h -0.51205 l -0.96005,1.0241 v 1.47203 l -0.51205,0.44813 v 1.02403 h -2.94425 l -0.44813,-0.51205 v -0.51205 l -0.51205,-0.44813 v -1.47202 l -0.51205,-0.51205 v -0.51205 l -0.44813,-0.44813 v -0.51205 l -1.0241,-0.96005 v -0.51205 l -0.44813,-0.51205 v -0.44813 l -1.98407,-1.98407 v -3.97094 l -0.51205,-0.44813 h -0.96012 l -0.51205,0.44813 h -0.51205 l -0.44812,0.51205 h -0.51205 l -0.51205,0.51205 h -0.44813 l -1.02404,0.96004 h -0.96011 l -0.51205,-0.44813 0.51205,-1.02403 0.51205,-0.51205 v -0.44813 l -1.02403,-0.51205 h -0.96011 v -0.51205 l 0.51205,-0.44813 -0.51205,-0.51205 h -0.51205 l -0.44813,-0.51205 h -1.0241 l -0.44813,-0.44812 h -0.51205 v -0.51205 l 0.51205,-0.51206 v -0.96004 h -1.47209 l -1.0241,-0.51205 h -1.98414 l -0.44813,0.51205 v 0.51205 h -0.51205 l -0.51205,-0.51205 v -0.51205 l -0.96005,-0.96004 h -0.51205 l -0.44813,-0.51205 v -0.96004 l -0.51205,-0.51205 v -0.44813 h -0.96011 v -0.51205 l -0.51205,-0.51205 h -0.51205 l -0.44813,-0.44813 v -1.0241 h -0.51205 l -0.51205,-0.51205 v -1.4721 l -0.44813,-0.44812 h -1.02403 l -0.96011,-1.02404 v -0.96004 l -0.96004,-0.96004 v -1.4721 l -0.51205,-0.51205 v -1.47209 l 0.51205,-0.51205 v -0.44813 l -0.51205,-1.02403 v -0.96004 l 0.51205,-0.51205 v -0.51205 l -0.51205,-0.44813 v -0.51205 l -1.02403,-0.96005 v -1.0241 h -4.41635 l -0.96004,-0.44813 -0.51205,0.44813 h -0.44813 v 1.0241 l -0.51205,0.44813 -1.4721,0.51205 -1.47209,-1.47209 v -0.51205 l -0.96011,-0.44813 h -0.51205 l -1.02403,-1.02403 -0.44813,-0.96004 v -0.96005 l -0.51205,-0.51205 v -0.51205 h -1.47216 l -0.51205,-0.44813 h -0.96011 l -0.96005,-1.02403 h -0.51205 v -1.47209 l -0.51205,-0.44813 h -0.44813 v -0.51205 l -0.51205,-0.51205 v -0.96004 l -0.51205,-0.51205 h -1.47209 l -0.44813,-0.51205 v -2.94419 l -0.51205,-0.44813 -0.51205,0.44813 h -1.47209 l -0.51205,0.51205 h -0.44813 v -0.51205 l -1.0241,-0.96004 h -0.44813 l -1.0241,-0.51205 v -0.44813 l 1.0241,-1.02404 0.44813,-0.44812 v -0.51205 l 0.51205,-0.51205 v -1.4721 l -0.51205,-0.960037 v -1.98408 l -0.44813,-0.96004 v -1.02403 l -0.51205,-0.44813 v -0.51205 l 0.51205,-0.51205 v -0.96004 l 0.44813,-0.51205 v -0.44813 l 0.51205,-0.51205 v -1.98408 l -0.51205,-0.44813 1.47209,-1.47209 v -1.98407 l -1.92008,-1.98408 0.44812,-0.51205 v -1.47203 l 0.51205,-0.44812 -0.51205,-0.51205 h -0.44812 l -1.0241,-0.96005 v -0.51205 h -0.44813 l -0.51205,-0.51205 v -0.96004 l 0.51205,-1.98414 h -0.51205 l -0.51205,0.51205 h -2.94419 l -0.44813,-0.51205 h -1.0241 v 0.51205 h -0.44813 l -0.51205,-0.51205 h -0.51205 v -0.44813 l 0.51205,-0.51205 -0.51205,-0.51205 h -0.44813 v -0.51205 l -0.51205,-0.44813 v -0.51205 h -1.02403 l -0.44813,0.51205 h -0.51205 l -0.51205,0.44813 v -0.44813 h -0.44813 l -0.51205,-0.51205 h -0.96004 v -0.96005 l -0.51205,-0.51205 h -1.98414 v -0.51205 h -0.44813 v -0.44812 l -0.51205,-0.51205 v -0.51205 l -0.51205,-0.44813 h -0.44813 v -1.4721 l -0.51205,-0.51205 h -0.51205 v -0.96004 l -0.44813,-0.51205 v -0.51205 l -0.51205,-0.44813 h -1.98414 -0.96005 v -1.98407 h 0.44813 v -1.02404 l 0.51205,-0.44813 v -1.98407 l -0.51205,-0.51205 z"
       style="fill:#000000;fill-opacity:1;fill-rule:evenodd;stroke:#d38d5f;stroke-width:0.899603;stroke-linecap:butt;stroke-linejoin:miter;stroke-miterlimit:4;stroke-dasharray:none;stroke-opacity:1"
       id="Angol" />
  </g>
</svg>
