<?xml version="1.0" encoding="UTF-8" standalone="no"?>
<!-- Created with Inkscape (http://www.inkscape.org/) -->

<svg
   width="210mm"
   height="297mm"
   viewBox="0 0 210 297"
   version="1.1"
   id="svg64"
   inkscape:version="1.1.2 (b8e25be833, 2022-02-05)"
   sodipodi:docname="vector.svg"
   xmlns:inkscape="http://www.inkscape.org/namespaces/inkscape"
   xmlns:sodipodi="http://sodipodi.sourceforge.net/DTD/sodipodi-0.dtd"
   xmlns="http://www.w3.org/2000/svg"
   xmlns:svg="http://www.w3.org/2000/svg">
  <sodipodi:namedview
     id="namedview66"
     pagecolor="#ffffff"
     bordercolor="#666666"
     borderopacity="1.0"
     inkscape:pageshadow="2"
     inkscape:pageopacity="0.0"
     inkscape:pagecheckerboard="0"
     inkscape:document-units="mm"
     showgrid="false"
     inkscape:zoom="0.74029882"
     inkscape:cx="361.34057"
     inkscape:cy="561.93525"
     inkscape:window-width="1920"
     inkscape:window-height="1017"
     inkscape:window-x="-8"
     inkscape:window-y="-8"
     inkscape:window-maximized="1"
     inkscape:current-layer="layer1" />
  <defs
     id="defs61" />
  <g
     inkscape:label="Capa 1"
     inkscape:groupmode="layer"
     id="layer1">
    <path
       style="fill:#000000;fill-opacity:1;fill-rule:evenodd;stroke:#d39062;stroke-width:0.417375;stroke-linecap:butt;stroke-linejoin:miter;stroke-miterlimit:4;stroke-dasharray:none;stroke-opacity:1"
       d="m 193.89667,229.71814 c 0.59402,0.0333 1.18962,0.0866 1.77382,0.0782 0.83322,-0.0125 1.59081,-0.0911 2.08689,-0.33922 0.21435,-0.10738 0.71768,-1.21126 1.19995,-2.37379 0.48222,-1.16256 0.96424,-2.39805 1.17384,-2.8173 0.48318,-0.96624 0.83963,-1.67697 1.25214,-2.3216 0.41247,-0.64467 0.87475,-1.21393 1.56517,-1.90426 0.50782,-0.5079 0.98672,-1.3179 1.33038,-2.24343 0.3438,-0.92549 0.54782,-1.98097 0.54782,-2.94771 0,-0.19437 -0.42645,-0.49067 -0.75646,-1.12173 -0.16524,-0.31549 -0.313,-0.71706 -0.36502,-1.226 -0.0529,-0.50895 -0.008,-1.11966 0.1823,-1.87821 0.0554,-0.22017 -0.42874,-1.12943 -0.91301,-2.11295 -0.48439,-0.98347 -0.96515,-2.03108 -0.96515,-2.58248 0,-0.71384 0.2285,-1.18108 0.52168,-1.51297 0.2926,-0.33172 0.62931,-0.54637 0.88695,-0.80866 0.25763,-0.26222 0.41813,-0.56435 0.31299,-1.06959 -0.10488,-0.50512 -0.45692,-1.20897 -1.25209,-2.26944 -0.22309,-0.29718 -0.16191,-0.58524 0.025,-0.88691 0.18813,-0.30176 0.49833,-0.60751 0.80866,-0.96516 0.3105,-0.35753 0.61304,-0.76063 0.75651,-1.22604 0.14359,-0.46545 0.12986,-0.99242 -0.1823,-1.61728 -0.37251,-0.74482 -0.50395,-1.28323 -0.44352,-1.64342 0.0604,-0.36002 0.31882,-0.54428 0.70432,-0.65221 0.7712,-0.21601 2.07083,-0.052 3.49548,-0.052 0.34796,0 0.61109,-0.31924 0.80866,-0.78261 0.1977,-0.4632 0.32798,-1.09227 0.41763,-1.72167 0.17897,-1.25875 0.18314,-2.54518 0.18314,-2.68686 0,-0.72063 0.13443,-1.2116 0.28677,-1.59123 0.15233,-0.37958 0.34254,-0.63868 0.41717,-0.91296 0.0749,-0.27429 0.0499,-0.5606 -0.1823,-0.96524 -0.23267,-0.40456 -0.69025,-0.92504 -1.46083,-1.69557 -0.64908,-0.64909 -1.42819,-1.12307 -2.26944,-1.51298 -0.84126,-0.38999 -1.72463,-0.70619 -2.60858,-1.01731 -0.884,-0.31091 -1.75309,-0.63073 -2.53037,-1.04349 -0.7772,-0.41288 -1.48751,-0.92249 -2.0086,-1.61728 -0.85358,-1.13809 -2.70856,-4.47808 -2.81727,-4.69547 -0.0882,-0.17689 0.59581,-1.28056 1.30429,-2.37383 0.70852,-1.09327 1.43494,-2.19157 1.51298,-2.34773 0.2722,-0.54433 0.32131,-1.03758 0.23474,-1.51298 -0.0866,-0.4754 -0.30176,-0.91151 -0.57392,-1.3564 -0.54424,-0.88995 -1.2893,-1.76612 -1.53903,-2.76515 -0.0841,-0.33631 0.0416,-0.7248 0.26097,-1.1217 0.21726,-0.39665 0.5382,-0.80525 0.88691,-1.19998 0.69736,-0.7894 1.49316,-1.49954 1.69557,-1.90426 0.0766,-0.15317 0.0462,-0.30259 -0.052,-0.44352 -0.0978,-0.1411 -0.26763,-0.28969 -0.49563,-0.41717 -0.45554,-0.25556 -1.14379,-0.47886 -1.85215,-0.67826 -1.41654,-0.39874 -2.9728,-0.69083 -3.2607,-0.83476 -0.7096,-0.35545 -1.27361,-0.55386 -1.72171,-0.65212 -0.44813,-0.0982 -0.78306,-0.0816 -1.06946,0.052 -0.28635,0.13402 -0.50586,0.36252 -0.73041,0.70432 -0.22475,0.34171 -0.44168,0.77919 -0.70431,1.30433 -0.231,0.46229 -0.29801,0.90655 -0.26097,1.33034 0.0375,0.42366 0.17273,0.83663 0.36502,1.22604 0.38541,0.7789 0.97132,1.49928 1.30429,2.16514 0.16523,0.33089 0.15982,0.65804 0.052,0.9913 -0.1078,0.33339 -0.33005,0.66877 -0.60001,0.99125 -0.54012,0.64493 -1.27669,1.2506 -1.79991,1.77382 -0.1923,0.19229 -0.43241,0.31133 -0.70432,0.36502 -0.2722,0.0537 -0.58387,0.052 -0.91297,0 -0.65832,-0.10447 -1.41591,-0.39915 -2.16518,-0.73041 -0.74927,-0.33131 -1.48147,-0.69462 -2.139,-0.99126 -0.65758,-0.29676 -1.23416,-0.52172 -1.61733,-0.52172 -0.60667,0 -1.07262,-0.14484 -1.46082,-0.36502 -0.38874,-0.22059 -0.6932,-0.51452 -1.04345,-0.80866 -0.35045,-0.29426 -0.73316,-0.58807 -1.22604,-0.80866 -0.49284,-0.22101 -1.11433,-0.36502 -1.93035,-0.36502 -0.77316,0 -1.22301,-0.20311 -1.48689,-0.52172 -0.26387,-0.31841 -0.33754,-0.76217 -0.28677,-1.2521 0.10198,-0.97993 0.63814,-2.1614 0.83472,-2.94775 0.25805,-1.03341 0.6229,-1.83471 1.19994,-2.39988 0.28844,-0.28261 0.6185,-0.50479 1.04349,-0.65213 0.42504,-0.14734 0.93989,-0.23474 1.53903,-0.23474 0.75564,0 1.36111,-0.10988 1.87817,-0.28677 0.51706,-0.17731 0.93152,-0.42412 1.27823,-0.73042 0.69337,-0.61299 1.11791,-1.42711 1.53907,-2.26948 0.35753,-0.71485 0.50887,-1.22063 0.57388,-1.61737 0.0645,-0.39665 0.0516,-0.70094 0.0783,-0.99125 0.025,-0.2901 0.0966,-0.56963 0.33921,-0.96516 0.24265,-0.3954 0.64413,-0.90493 1.35648,-1.61732 0.59373,-0.59373 1.06039,-1.44805 1.38254,-2.37379 0.32215,-0.92582 0.49563,-1.91133 0.49563,-2.79121 0,-0.60984 0.38208,-1.68225 0.80866,-2.76511 0.42641,-1.08287 0.91916,-2.18954 1.0956,-2.89552 0.2747,-1.09834 2.14212,-4.28421 2.81726,-5.63457 0.61138,-1.22267 1.04241,-2.10712 1.51302,-2.89551 0.47061,-0.78835 0.9734,-1.46911 1.77386,-2.26949 0.33006,-0.33006 0.59406,-0.76034 0.80866,-1.22604 0.21477,-0.4657 0.39041,-0.96657 0.54778,-1.51298 0.31466,-1.09277 0.55668,-2.30474 0.99129,-3.39114 0.46533,-1.16336 0.80529,-1.76416 0.67822,-2.24343 -0.0637,-0.23974 -0.24057,-0.44306 -0.57391,-0.67826 -0.33339,-0.23516 -0.8286,-0.49251 -1.51298,-0.83468 l -5.165,1.40864 c -0.78435,-0.62749 -1.56338,-1.25072 -2.34774,-1.87821 -0.46923,-0.37542 -0.9232,-0.62902 -1.35648,-0.75647 -0.43336,-0.12736 -0.86555,-0.12652 -1.33034,-0.0782 -0.92961,0.0966 -1.98242,0.46953 -3.44337,0.8348 -0.50233,0.12569 -0.85782,0.32922 -1.1478,0.57387 -0.2901,0.24432 -0.51627,0.51985 -0.78256,0.78257 -0.26638,0.26221 -0.55977,0.49687 -0.99125,0.67822 -0.43149,0.18146 -0.98826,0.31257 -1.77382,0.31257 -0.40539,0 -0.89794,-0.17814 -1.43473,-0.44352 -0.53679,-0.26471 -1.12986,-0.61225 -1.77386,-0.96515 -0.64397,-0.35295 -1.33434,-0.70049 -2.06076,-0.9652 -0.72642,-0.26471 -1.48538,-0.44352 -2.26949,-0.44352 -1.7453,0 -3.15019,-0.28427 -4.53893,-0.65216 -1.38873,-0.36794 -2.76723,-0.8418 -4.40853,-1.25214 -0.68912,-0.17231 -1.40276,-0.20727 -2.11295,-0.18313 -0.71018,0.025 -1.41791,0.12528 -2.08689,0.26096 -1.33792,0.27137 -2.51339,0.68696 -3.31285,0.88687 -1.34799,0.33713 -2.63343,0.43615 -3.93901,0.46953 -1.30553,0.0333 -2.63933,0 -4.0694,0 -0.80512,0 -1.45237,0.0683 -2.0086,0.20852 -0.55627,0.1411 -1.02942,0.34629 -1.43473,0.60002 -0.81066,0.50732 -1.42283,1.21413 -2.21725,2.0086 -0.12778,0.12819 -0.45001,-0.0641 -0.887,-0.44352 -0.4366,-0.37917 -0.97943,-0.94917 -1.51293,-1.53903 -1.06705,-1.1798 -2.11357,-2.49632 -2.29559,-2.73906 -0.76358,-1.01814 -1.45237,-1.83084 -2.37383,-2.39988 -0.46062,-0.28469 -0.98055,-0.50237 -1.59118,-0.65213 -0.61075,-0.14983 -1.30475,-0.23474 -2.13905,-0.23474 -2.35306,0 -4.71632,0 -7.0693,0 -0.71755,0 -1.37683,0.11862 -2.0086,0.28677 -0.63181,0.16857 -1.23116,0.39956 -1.82606,0.65216 -1.18974,0.50483 -2.36867,1.07479 -3.70413,1.40868 -0.85715,0.21435 -1.65386,0.30217 -2.42598,0.33921 -0.77224,0.0375 -1.52401,0.0375 -2.26953,0.052 -0.74552,0.0125 -1.49237,0.062 -2.26945,0.20852 -0.77711,0.14651 -1.58527,0.37543 -2.45212,0.80866 -1.00698,0.50354 -1.85881,0.69683 -2.63467,0.65213 -0.77578,-0.0462 -1.4741,-0.32548 -2.13904,-0.70428 -1.329805,-0.75668 -2.539565,-1.96107 -4.147605,-2.76511 -0.65962,-0.32923 -1.37476,-0.48256 -2.0869,-0.57388 -0.71214,-0.0916 -1.43573,-0.11862 -2.16514,-0.13027 -0.72937,-0.0125 -1.45371,-0.0125 -2.1651,-0.10447 -0.71143,-0.0911 -1.40256,-0.27137 -2.0608,-0.59997 -0.68841,-0.34421 -1.45446,-1.34175 -2.19119,-2.39993 -0.73674,-1.0581 -1.43469,-2.1651 -2.03471,-2.76503 -1.5918,-1.591846 -3.30596,-2.366876 -4.72155,-3.782506 -0.66668,-0.66669 -1.15319,-1.50453 -1.64341,-2.34773 -0.49022,-0.84313 -0.97672,-1.68101 -1.64341,-2.34774 -0.71232,-0.71235 -1.27071,-1.21097 -1.77384,-1.56513 -0.50314,-0.3542 -0.94577,-0.56222 -1.4869,-0.67822 -1.08225,-0.23224 -2.49996,-0.10447 -5.21717,-0.10447 -3.60796,0 -7.21768,0 -10.82565,0 -1.7069,0 -2.96574,-0.0787 -4.17374,-0.0524 -1.20801,0.025 -2.34719,0.1565 -3.80854,0.52177 -1.16915,0.29176 -2.56158,0.28177 -3.96505,0.20852 -1.40348,-0.0728 -2.82611,-0.20852 -4.04332,-0.20852 -1.76209,0 -3.48147,0.51036 -4.90415,0.46948 -0.71133,-0.025 -1.35216,-0.20019 -1.87818,-0.62598 -0.26301,-0.2131 -0.5002,-0.47107 -0.70432,-0.8348 -0.20411,-0.36377 -0.38487,-0.80899 -0.52171,-1.35644 -0.0882,-0.35253 -0.21369,-0.63602 -0.39129,-0.86081 -0.17759,-0.22476 -0.40035,-0.40415 -0.65214,-0.52173 -0.50356,-0.23516 -1.1433,-0.27928 -1.8521,-0.20852 -1.41759,0.1411 -3.11055,0.71897 -4.61721,1.09564 -1.92907,0.48223 -2.76292,0.92087 -3.10421,0.78252 -0.17065,-0.0687 -0.22738,-0.2826 -0.23479,-0.70431 -0.007,-0.42183 0.0262,-1.05073 0.0262,-1.95641 10e-6,-1.12544 -0.35136,-2.12523 -0.70432,-3.28684 -0.17647,-0.58083 -0.33717,-1.1833 -0.46954,-1.87821 -0.13236,-0.69482 -0.23479,-1.46877 -0.23479,-2.34773 0,-0.70898 -0.12249,-1.3281 -0.33917,-1.87821 -0.21664,-0.55002 -0.52538,-1.04548 -0.886923,-1.46078 -0.723096,-0.83059 -1.657878,-1.41587 -2.530332,-1.85207 -0.197785,-0.099 -0.375633,-0.46674 -0.521719,-0.99125 -0.14605,-0.5246 -0.259468,-1.1922 -0.391241,-1.8782 -0.131815,-0.68601 -0.262214,-1.39936 -0.41737,-1.98255 -0.155165,-0.58312 -0.331723,-1.036 -0.5478,-1.2521 -0.218179,-0.21809 -1.16732,0.025 -2.165134,0.26097 -0.498898,0.11695 -1.007145,0.23183 -1.460809,0.28677 -0.453681,0.0549 -0.84729,0.0462 -1.0956032,-0.0782 -0.667989,-0.33339 -1.387722,-0.55344 -2.165133,-0.70432 -0.346956,-0.0674 -0.732328,-0.0641 -1.095603,-0.10447 0.01082,0.53854 0.03122,1.0211 -0.20869,1.98255 -0.271371,1.08545 -0.727541,2.0968 -1.043438,3.02596 -0.157953,0.46453 -0.277948,0.917 -0.313034,1.33038 -0.03496,0.4133 0.0058,0.79356 0.182592,1.14779 0.48486,0.96966 0.939623,1.81682 1.14778,2.68683 0.104095,0.43519 0.15608,0.89199 0.104344,1.35644 -0.05165,0.46458 -0.204402,0.93053 -0.469543,1.46087 -0.405017,0.80995 -0.664888,1.5784 -0.991266,2.2955 -0.326394,0.71717 -0.705432,1.38374 -1.356469,2.03474 -1.057032,1.05701 -1.637071,1.63131 -2.008608,2.13904 -0.371554,0.5077 -0.544503,0.95197 -0.756493,1.79992 -0.39161501,1.56634 -0.79852601,2.34478 -0.80866501,3.02595 -0.005,0.34047 0.08982,0.65729 0.339089,1.04345 0.249312,0.38625 0.64246301,0.85107 1.25212401,1.46079 0.352408,0.35253 0.548756,0.57062 0.70432,0.78256 0.685899,0 1.374882,0 2.060785,0 0.249812,0 0.387745,0.15192 0.469543,0.39124 0.08183,0.23932 0.105885,0.55768 0.130483,0.88691 0.02456,0.32922 0.05232,0.66944 0.1304,0.9391 0.07804,0.26971 0.201114,0.46104 0.443471,0.52173 0.564756,0.14109 0.873428,0.55464 1.330376,0.913 0.22846,0.17856 0.509192,0.34421 0.860838,0.46953 0.351659,0.1257 0.781557,0.20852 1.356469,0.20852 0.476364,0 0.8736362,0.1386 1.1999472,0.39125 0.326311,0.25264 0.580718,0.618526 0.808661,1.017386 0.455899,0.79775 0.775289,1.7853 1.147779,2.53033 0.466193,0.93235 0.818484,1.45266 1.330385,1.87816 0.511901,0.42549 1.16265,0.7379 2.19121,1.25213 1.094366,0.5472 2.126954,0.98934 3.104227,1.51302 0.97726,0.52364 1.91675,1.13414 2.81727,2.03466 0.90014,0.90015 1.28596,1.58086 1.74776,2.19124 0.4618,0.61034 1.00259,1.15341 2.19121,1.74772 0.48828,0.24432 0.94105,0.72022 1.64341,1.04345 0.3512,0.16149 0.77807,0.27387 1.27821,0.31258 0.50014,0.0375 1.08721,-0.004 1.79992,-0.1823 0.64903,-0.16233 1.30046,-0.26014 1.95645,-0.39125 0.61737,-0.12361 1.22107,-0.149 1.77384,-0.10446 0.55278,0.0462 1.06827,0.17522 1.53906,0.33921 0.9416,0.32798 1.68198,0.84716 2.19122,1.35644 0.85429,0.85432 1.77526,1.38149 2.60859,1.98255 0.41668,0.3005 0.81435,0.61837 1.17387,0.99121 0.35952,0.37293 0.67132,0.82098 0.93908,1.35652 0.37131,0.74257 1.0294,1.50732 1.69559,2.34774 0.6662,0.84033 1.34579,1.75246 1.8521,2.76507 0.25635,0.51269 0.52939,0.90851 0.80866,1.22604 0.27928,0.31757 0.58206,0.53729 0.93909,0.70432 0.71406,0.33338 1.61963,0.41717 2.9738,0.41717 1.3002,0 2.29841,0.11487 3.15639,0.31299 0.85798,0.19812 1.59557,0.47169 2.37381,0.86081 0.50791,0.25389 1.05522,0.39665 1.64341,0.46957 0.5882,0.0728 1.20438,0.0887 1.82601,0.10447 0.62164,0.0166 1.24389,0.025 1.8521,0.10447 0.60822,0.0828 1.19982,0.24765 1.74776,0.52173 1.02883,0.51444 1.88576,0.79854 2.79119,0.9652 0.90543,0.16648 1.87691,0.20852 3.1303,0.20852 0.88065,0 1.77528,0.38916 2.7912,0.78256 0.50795,0.19687 1.03766,0.4004 1.61732,0.54782 0.57966,0.14776 1.20156,0.23475 1.87819,0.23475 0.20702,0 0.50893,0.39124 0.83474,0.96515 0.32581,0.57405 0.68207,1.33892 1.01735,2.113 0.67056,1.5481 1.2518,3.12967 1.30429,3.23468 0.39924,0.79847 0.69154,1.3286 0.88692,1.98251 0.19537,0.65387 0.28694,1.4299 0.28694,2.73897 0,0.71906 0.30259,1.43869 0.65215,2.16519 0.34953,0.72646 0.73688,1.46062 0.91302,2.16514 0.0166,0.0641 0.45692,2.50511 0.78256,3.15636 0.5559,1.11183 0.95929,1.87849 1.40864,2.58256 0.44938,0.70394 0.95238,1.34362 1.74776,2.139 0.2722,0.27221 1.60983,0.31175 2.99986,0.31299 1.39003,0.002 2.84765,-0.0375 3.31289,0.0782 0.24765,0.062 0.46154,0.30509 0.65217,0.67822 0.19062,0.37376 0.34379,0.87218 0.49562,1.38258 0.30384,1.02064 0.55024,2.14392 0.80871,2.66073 0.23391,0.46799 0.56109,0.79322 0.9391,1.06954 0.37792,0.27637 0.80071,0.49338 1.22604,0.70432 0.42504,0.21102 0.85016,0.43244 1.22604,0.70431 0.37625,0.27179 0.70935,0.61001 0.93906,1.06955 0.74889,1.49774 0.917,1.97605 1.01735,2.139 0.10031,0.16274 0.12403,-0.003 0.54778,0.20852 0.660485,0.33006 1.198475,1.0037 1.643415,1.74768 0.44489,0.74403 0.80678,1.56143 1.12169,2.19124 0.79314,1.58623 1.13801,2.15141 1.35648,2.63468 0.21851,0.48322 0.29884,0.88303 0.59997,2.08689 0.308,1.23274 0.29843,1.75538 0.36502,2.34769 0.0666,0.5924 0.22892,1.25056 0.83476,2.76516 0.25015,0.6249 0.76504,1.34021 1.35648,2.03466 0.5914,0.69449 1.24073,1.37113 1.77378,1.90426 0.14484,0.14484 0.21477,0.28552 0.20852,0.44351 -0.004,0.15817 -0.0658,0.3284 -0.1823,0.49563 -0.2335,0.33422 -0.65533,0.69487 -1.0956,1.04345 -0.44027,0.34879 -0.9212,0.68538 -1.25213,1.01735 -0.33089,0.33214 -0.51186,0.65466 -0.41718,0.9391 0.51211,1.54145 0.63273,2.60229 0.57388,3.33899 -0.0587,0.7367 -0.29718,1.14783 -0.57388,1.38258 -0.24639,0.20894 -0.31757,0.44951 -0.26096,0.73041 0.0566,0.28095 0.22101,0.59469 0.44352,0.91297 0.44447,0.63659 1.09364,1.32643 1.38257,1.90426 0.75231,1.50461 1.23516,2.19898 1.53912,2.71296 0.30384,0.51394 0.44352,0.84824 0.44352,1.61728 0,0.40372 0.0166,0.92886 0.13027,1.43473 0.11488,0.5059 0.32465,0.9766 0.65217,1.30433 0.63535,0.63539 1.01431,1.16681 1.27819,1.61732 0.26388,0.45043 0.40705,0.82506 0.59993,1.14775 0.19312,0.32256 0.41163,0.60884 0.8348,0.86085 0.42316,0.25223 1.05481,0.46587 2.00856,0.70432 0.74115,0.18521 1.42191,0.53537 2.08689,0.9391 0.66503,0.40373 1.31407,0.85857 1.98255,1.30425 0.66848,0.44585 1.36131,0.88891 2.11295,1.19998 0.75164,0.31091 1.5638,0.49563 2.47818,0.49563 1.0193,0 2.01447,0.19437 3.05205,0.39124 1.03749,0.19687 2.10666,0.39124 3.23464,0.39124 0.18106,0 0.2206,-0.15899 0.20853,-0.41721 -0.0125,-0.25805 -0.0624,-0.59465 -0.025,-0.93906 0.0375,-0.34421 0.14443,-0.70686 0.46953,-0.96516 0.32507,-0.25805 0.86656,-0.41767 1.72171,-0.41767 0.27928,0 0.50395,0.0749 0.70432,0.20852 0.2002,0.13402 0.37917,0.31383 0.52172,0.52173 0.28552,0.41538 0.47012,0.92607 0.65213,1.27819 0.0911,0.17606 0.16398,0.3209 0.26096,0.39124 0.097,0.0703 0.21477,0.0687 0.33922,-0.025 0.24847,-0.19021 0.55876,-0.77075 1.04348,-1.98251 0.23433,-0.58595 0.52968,-1.13851 0.86086,-1.61732 0.33089,-0.47886 0.7208,-0.88054 1.14771,-1.22604 0.42691,-0.34546 0.8867,-0.62278 1.40867,-0.80866 0.52193,-0.18605 1.10555,-0.28678 1.72167,-0.28678 1.48542,0 2.96032,0.17398 4.40849,0.26097 1.44821,0.0857 2.87116,0.0845 4.25199,-0.26097 0.34338,-0.0857 0.52481,-0.36044 0.62611,-0.7565 0.10114,-0.39582 0.11488,-0.92254 0.0782,-1.46087 -0.0737,-1.0765 -0.31257,-2.25654 -0.31257,-2.89552 0,-0.64937 0.0487,-1.16893 0.15649,-1.61728 0.1078,-0.44813 0.25889,-0.81915 0.44352,-1.17388 0.3696,-0.70944 0.86647,-1.34163 1.35648,-2.32164 0.2439,-0.48781 0.62286,-1.17402 0.99125,-1.98255 0.36835,-0.8085 0.74095,-1.73774 0.99126,-2.73902 0.29135,-1.16523 0.50541,-1.8176 0.9391,-2.24339 0.43382,-0.4255 1.06863,-0.63235 2.19124,-0.91301 1.2081,-0.30217 2.78975,-0.50474 4.35634,-0.62602 1.56654,-0.12112 3.11931,-0.1565 4.30414,-0.1565 0.54017,0 1.19229,0.19479 1.87821,0.52168 0.68588,0.32631 1.39993,0.77458 2.08689,1.25214 1.3738,0.95508 2.62102,2.04719 3.1303,2.55638 0.89965,0.89965 1.24964,1.36818 1.69553,1.77386 0.44581,0.40581 0.99071,0.73008 2.24339,1.35648 0.21227,0.10614 0.0333,0.35254 0.1823,0.78257 0.0753,0.21518 0.21435,0.47981 0.54778,0.80862 0.33339,0.32881 0.84312,0.70935 1.61732,1.17389 1.01789,0.61071 1.62731,1.11894 1.95646,1.56517 0.32922,0.44626 0.38416,0.83788 0.33921,1.22604 -0.0462,0.38791 -0.20727,0.76321 -0.31299,1.19998 -0.10572,0.43657 -0.14817,0.92116 0,1.51294 0.15691,0.62798 0.39041,1.0566 0.67818,1.38253 0.28802,0.32548 0.60792,0.56293 0.91304,0.80866 0.30509,0.24515 0.59939,0.49967 0.80866,0.88695 0.20936,0.38708 0.33922,0.89282 0.33922,1.64338 0,0.37917 0.23974,0.92333 0.59993,1.53908 0.36002,0.61578 0.85827,1.30707 1.38258,1.98259 1.0486,1.3509 2.21013,2.65357 2.73905,3.18245 0.2822,0.28219 0.38625,0.62024 0.36502,0.99125 -0.025,0.37085 -0.17023,0.77986 -0.33921,1.19995 -0.33755,0.84016 -0.80866,1.73223 -0.80866,2.53032 0,0.4749 0.0375,0.80583 0.39124,1.09564 0.35545,0.28969 1.03833,0.52693 2.37379,0.86082 0.65524,0.16398 1.2292,0.51136 1.8,0.88686 0.57075,0.37543 1.14363,0.79364 1.74772,1.09569 0.27803,0.13901 0.45875,0.33671 0.60001,0.57383 0.14152,0.23766 0.22684,0.50603 0.26097,0.8087 0.0678,0.60526 -0.047,1.31428 -0.23475,1.98251 -0.3646,1.29625 -0.97722,2.38141 -1.01735,2.45208 z"
       id="Linares"
       inkscape:label="#path2863" />
  </g>
</svg>
