<?xml version="1.0" encoding="UTF-8" standalone="no"?>
<!-- Created with Inkscape (http://www.inkscape.org/) -->

<svg
   width="210mm"
   height="297mm"
   viewBox="0 0 210 297"
   version="1.1"
   id="svg64"
   inkscape:version="1.1.2 (b8e25be833, 2022-02-05)"
   sodipodi:docname="vector.svg"
   xmlns:inkscape="http://www.inkscape.org/namespaces/inkscape"
   xmlns:sodipodi="http://sodipodi.sourceforge.net/DTD/sodipodi-0.dtd"
   xmlns="http://www.w3.org/2000/svg"
   xmlns:svg="http://www.w3.org/2000/svg">
  <sodipodi:namedview
     id="namedview66"
     pagecolor="#ffffff"
     bordercolor="#666666"
     borderopacity="1.0"
     inkscape:pageshadow="2"
     inkscape:pageopacity="0.0"
     inkscape:pagecheckerboard="0"
     inkscape:document-units="mm"
     showgrid="false"
     inkscape:zoom="0.74029882"
     inkscape:cx="361.34057"
     inkscape:cy="453.87078"
     inkscape:window-width="1920"
     inkscape:window-height="1017"
     inkscape:window-x="-8"
     inkscape:window-y="-8"
     inkscape:window-maximized="1"
     inkscape:current-layer="layer1" />
  <defs
     id="defs61" />
  <g
     inkscape:label="Capa 1"
     inkscape:groupmode="layer"
     id="layer1">
    <path
       style="fill:#000000;fill-opacity:1;fill-rule:evenodd;stroke:#d39062;stroke-width:0.730858;stroke-linecap:butt;stroke-linejoin:miter;stroke-miterlimit:4;stroke-dasharray:none;stroke-opacity:1"
       d="m 209.0463,221.99155 c -0.0111,-2.44916 0.37567,-4.84948 0.37567,-7.30378 0.28783,-1.08088 0.29888,-2.19303 -0.0834,-3.04669 -0.19115,-0.42705 -0.4834,-0.80096 -0.87647,-1.08514 -0.3928,-0.28396 -0.88454,-0.45799 -1.50247,-0.54251 -0.90614,-0.45468 -2.40153,-0.34308 -3.58926,-0.54252 -0.59384,-0.1 -1.12183,-0.31103 -1.46076,-0.66775 -0.33866,-0.35634 -0.50826,-0.88432 -0.37567,-1.71119 0.23424,-0.55135 0.14088,-1.01531 -0.12541,-1.46075 -0.26628,-0.44528 -0.67212,-0.85189 -1.04343,-1.25204 -0.37125,-0.39998 -0.71195,-0.79466 -0.79294,-1.21038 -0.0812,-0.41545 0.063,-0.88526 0.66776,-1.37722 1.04315,-0.77278 1.73383,-1.71655 2.17022,-2.79633 0.43644,-1.07977 0.6503,-2.26021 0.83476,-3.46407 0.33314,-0.62925 0.3812,-1.24707 0.29225,-1.83637 -0.0889,-0.58926 -0.337,-1.17624 -0.58428,-1.7529 -0.2475,-0.57666 -0.48395,-1.16149 -0.62604,-1.75289 -0.14198,-0.59147 -0.18508,-1.16105 0.0442,-1.79461 0.50937,-2.56429 0.92117,-5.1593 1.62766,-7.67939 -0.55893,-1.09033 -1.12801,-2.26386 -1.50247,-3.46408 -0.37457,-1.20021 -0.5519,-2.44059 -0.4171,-3.71445 0.0707,-0.51986 -0.0718,-0.89752 -0.33369,-1.21038 -0.26186,-0.31269 -0.67267,-0.57406 -1.12685,-0.75123 -0.90846,-0.35413 -2.04166,-0.47125 -2.8798,-0.70953 -1.94918,-0.53864 -3.39585,-0.96984 -5.34216,-1.41898 -0.83802,0.28727 -1.41528,0.99475 -2.04503,1.66941 -0.6298,0.67472 -1.33386,1.31143 -2.37894,1.41905 -0.25247,0.32042 -0.52594,0.47953 -0.83471,0.54251 -0.30882,0.063 -0.6587,0.0497 -1.00166,-0.0834 -0.68599,-0.26518 -1.39568,-0.8646 -2.0868,-1.54423 -1.38225,-1.35932 -2.61407,-3.06526 -2.96322,-3.13017 -1.19221,0.11049 -2.12233,0.67748 -3.08846,1.33551 -1.55611,1.26231 -3.20459,2.03548 -5.05003,2.71285 -0.61952,0.61952 -0.98972,0.9579 -1.41898,1.04337 -0.42926,0.0856 -0.90836,-0.0784 -1.66942,-0.45909 -1.91665,-1.21668 -3.72396,-2.56424 -5.42569,-4.04836 -0.71953,-1.59467 -0.71466,-3.4522 -1.33552,-5.21698 -0.18562,-0.96111 -0.63615,-1.69367 -1.04342,-2.42065 -0.40717,-0.72698 -0.79676,-1.44948 -0.91819,-2.4207 0,-1.93609 0,-3.90688 0,-5.84297 0,-0.70775 -0.001,-1.08353 -0.20883,-1.2938 -0.20772,-0.21048 -0.61709,-0.25026 -1.33551,-0.25026 -2.12973,0 -4.25586,0 -6.38559,0 -1.06276,-0.0221 -1.95786,-0.35137 -2.87974,-0.70952 -0.92189,-0.358 -1.8635,-0.73991 -2.92151,-0.83471 -1.85355,0.0707 -3.46563,0.61251 -5.05002,1.37728 -1.74096,-0.51932 -4.22482,-1.63755 -4.6327,-1.7529 -0.28617,1.15149 -0.88956,1.95184 -1.66941,2.54589 -0.77985,0.59401 -1.74892,0.99084 -2.79633,1.33552 -1.22789,0.90249 -2.13508,2.03801 -3.13011,2.96327 -0.49777,0.46241 -0.99553,0.8699 -1.586,1.16856 -0.59047,0.29888 -1.26093,0.47898 -2.04503,0.50108 -0.97371,-0.33479 -1.68036,-0.99906 -2.37894,-1.75289 -0.69859,-0.75383 -1.37513,-1.57976 -2.25376,-2.29547 0.27347,-1.70715 0.37788,-3.51485 0.58434,-5.25874 0.29225,-1.16972 1.06701,-1.43003 1.33551,-2.50412 0.66842,-1.88339 0.96962,-3.67131 0.793,-5.6343 -0.94106,-1.22431 -1.73527,-2.40955 -2.33723,-3.8397 0.19391,-1.57876 0.98807,-2.88168 1.586,-4.1736 0.29888,-0.64593 0.57748,-1.27971 0.66775,-1.96156 0.0901,-0.68184 -0.011,-1.42258 -0.33368,-2.21198 -0.39391,-0.4254 -0.79157,-0.65533 -1.21033,-0.793 -0.41876,-0.13756 -0.85487,-0.17182 -1.2938,-0.20883 -0.4392,-0.0387 -0.88139,-0.0862 -1.33551,-0.20883 -0.45412,-0.12265 -0.91288,-0.3138 -1.37734,-0.70952 -0.832,-0.51655 -1.67091,-0.5044 -2.54583,-0.29225 -0.87493,0.21214 -1.77538,0.62814 -2.67108,0.87642 -0.89802,-0.27292 -1.80842,-0.75439 -2.67108,-1.33552 -0.86272,-0.58113 -1.69384,-1.2675 -2.37894,-1.96161 -1.15713,-1.15381 -2.43507,-1.99089 -3.71451,-2.83803 -1.27944,-0.84709 -2.54855,-1.6971 -3.63098,-2.96322 -0.40937,-0.40937 -0.79537,-0.566 -1.16861,-0.54252 -0.373463,0.0221 -0.747643,0.22706 -1.168623,0.54252 -0.20109,0.58245 -0.44915,1.02044 -0.75123,1.33557 -0.30219,0.3149 -0.65964,0.49721 -1.04337,0.58428 -0.76753,0.17347 -1.64837,-0.0801 -2.62937,-0.58428 -1.12365,-1.04852 -2.44507,-1.82803 -3.75622,-2.58761 -1.3112,-0.75963 -2.61545,-1.47363 -3.79798,-2.4207 -0.89272,-0.63881 -1.77931,-1.09216 -2.58761,-1.58595 -0.80824,-0.49389 -1.53931,-1.04884 -2.2537,-1.91984 -0.72637,-0.66268 -1.29385,-1.39734 -1.75289,-2.17028 -0.45909,-0.77289 -0.81786,-1.58335 -1.12691,-2.42065 -0.61803,-1.67461 -1.07281,-3.43491 -1.7946,-5.09179 -1.18773,-1.151762 -2.6297,-1.841172 -4.1736,-2.337172 -1.54385,-0.49611 -3.17304,-0.77764 -4.71612,-1.12685 -2.0916,-0.12486 -4.09553,0.23811 -6.17686,0.16684 -0.37954,-1.11254 -0.89129,-1.96366 -1.54424,-2.75455 -0.65295,-0.79085 -1.47158,-1.49595 -2.54589,-2.2537 -1.2622,-0.24419 -2.33231,-0.23977 -3.25536,-0.45909 -0.46185,-0.10939 -0.90277,-0.2917 -1.2938,-0.58434 -0.39114,-0.29225 -0.71328,-0.6924 -1.04343,-1.2938 0.14088,-1.63461 0.63235,-3.16675 1.04343,-4.71612 0.41103,-1.54937 0.7372,-3.10293 0.50108,-4.75788 l -27.87947,-8.5141 -11.22689,-1.75289 -0.41711,-2.83803 c -0.47401,2.7e-4 -1.04061,0.0597 -1.37727,0.0442 -0.55456,-0.3823 -1.06271,-0.53091 -1.54424,-0.58428 -0.48119,-0.0552 -0.94127,0.0166 -1.37727,0.12541 -0.24695,0.063 -2.0670296,4.81296 -3.6309796,6.96987 -0.39445,0.94421 -0.54804,1.86289 -0.62605,2.71285 -0.0779,0.84995 -0.0983,1.63754 -0.16684,2.37894 -0.0685,0.74139 -0.21822,1.4265 -0.58428,2.04503 -0.36628,0.61853 -0.94829,1.1463 -1.91984,1.62771 -0.12652,-0.0553 -0.28507,-0.20165 -0.41711,-0.29225 -0.006,0.55638 -0.0497,1.07768 -0.20883,1.87808 -0.17844,0.89205 0.13038,1.31678 0.50108,1.66942 0.37015,0.35247 0.79294,0.66588 0.79294,1.29385 0.12431,1.41662 0.12265,2.81472 0.16685,4.21526 0.94205,0.47125 1.53367,0.86592 2.12851,1.46075 0.11822,1.29596 0.1348,2.80815 0,4.21532 1.69648,1.04182 3.46446,2.02166 5.2169696,2.963222 0.38617,1.13756 0.26684,2.17845 0,3.25541 -0.26684,1.07696 -0.70621,2.19254 -1.00166,3.42231 0.55881,0.74516 0.47843,1.03255 0.20883,1.29386 -0.27016,0.26131 -0.70433,0.47511 -0.83471,1.12685 -0.2563396,1.28319 -0.4613096,1.51501 -0.6677596,2.75456 -0.22982,0.85321 -0.56312,1.61036 -1.00166,2.29546 -0.43865,0.68505 -1.00663,1.32198 -1.62771,1.96156 -0.97995,0.67449 -2.0031,1.27916 -2.96322,1.96161 -0.96012,0.6824 -1.83073,1.42893 -2.54589,2.42065 -0.34639,0.20662 -0.54086,0.29943 -0.83471,0.50108 0.0779,0.17955 0.0442,0.31435 0.12541,0.50108 0.40826,0.91277 0.83471,1.90847 0.83471,2.83803 0,1.08835 0.63405,2.17829 1.16856,2.71279 1.11613,0.61511 2.3364,0.74185 3.58932,0.83477 1.25286,0.0928 2.52666,0.13204 3.75622,0.50108 1.2673896,0.29335 2.4470496,0.38782 3.5057796,0.16684 1.05868,-0.22098 1.99283,-0.75178 2.87975,-1.71118 1.58959,-0.89642 3.0768,-1.88947 4.84135,-2.33718 0.26629,0.93791 0.41711,1.81019 0.75124,2.50413 0.33423,0.69394 0.85355,1.23369 1.96156,1.58594 0.2591,0.26187 0.3613,0.54693 0.33368,0.87648 -0.0276,0.32926 -0.15027,0.68118 -0.33368,1.04337 -0.36739,0.72444 -0.91637,1.48351 -1.12685,2.12851 0.80979,0.78963 1.08746,1.68317 1.21032,2.62937 0.1232,0.94619 0.0713,1.96454 0.12541,3.00498 -0.0387,0.70295 0.0972,1.18017 0.37567,1.54424 0.27844,0.36407 0.68776,0.59593 1.16856,0.75123 0.96166,0.31048 2.22359,0.32816 3.29713,0.58428 1.44053,0.72527 2.82665,1.2422 4.25707,1.50252 1.43037,0.26021 2.91521,0.2591 4.46574,0.0442 0.48727,-0.0166 0.8425,0.10165 1.12685,0.29225 0.28452,0.19004 0.4928,0.45743 0.70952,0.75123 0.43313,0.58776 0.86444,1.27905 1.83638,1.66942 1.20728,0.4508 2.20077,1.03508 3.13017,1.71118 0.9294,0.67604 1.78764,1.4681 2.67108,2.37894 3.01697,1.1779 6.33056,1.15779 9.30704,2.29546 0.58356,0.35026 1.05553,1.98576 1.33557,2.54584 1.01271,0.5671 1.84968,0.72019 2.54584,1.04343 0.6962,0.32319 1.2491,0.80725 1.71118,2.04503 2.19873,2.44982 4.47375,4.84937 6.80291,7.17854 1.20005,1.15684 2.17133,2.46545 3.08847,3.83969 0.98978,1.41175 2.33562,2.02675 3.29712,3.50579 0.63969,1.03906 1.63876,1.70621 2.75456,2.21204 1.1158,0.5055 2.32972,0.82919 3.42231,1.25204 0.63334,0.25358 1.2638,0.67648 1.79466,1.16861 0.53091,0.49224 0.95266,1.07067 1.2938,1.7529 0.1442,1.00785 0.31435,1.77234 0.66776,2.37894 0.35357,0.6066 0.91951,1.06453 1.87814,1.50246 2.09122,0.94205 4.22332,1.72693 6.38553,2.50418 1.29739,0.58992 2.636,0.72433 4.00665,0.79295 1.37059,0.0685 2.780023,0.0785 4.131833,0.37567 0.48009,0.19226 0.38009,0.72482 0.25027,1.33557 -0.12928,0.61074 -0.31491,1.29021 -0.0834,1.75289 0.43645,0.87344 0.33093,2.65948 0.58428,3.67274 0.48175,0.82737 1.16227,1.25082 1.91985,1.62771 0.75759,0.37678 1.5897,0.73958 2.33718,1.50247 0.61538,1.98393 1.07812,4.02581 1.58599,6.05168 0.51931,-0.21877 1.03912,-0.50108 1.46076,-0.50108 1.48451,0.27457 3.03774,0.12541 4.54916,0.12541 1.60528,0 3.19437,0 4.79965,0 1.24336,-0.46407 1.78029,-1.59622 3.04669,-2.33718 2.08045,0.0558 4.35365,0.5792 6.46901,0.9599 0.90791,0.50274 1.26635,0.96056 1.50252,1.50246 0.2359,0.54197 0.36076,1.17956 0.70947,2.0868 0.10828,0.54252 2.72969,1.7698 3.42237,2.46242 0.69886,1.47064 0.33423,3.05487 0.95989,4.6744 0.82322,0.6429 1.13116,1.33546 1.16862,2.04504 0.0387,0.70963 -0.17403,1.42788 -0.4591,2.21199 -0.56732,1.12381 -0.65438,2.23336 -1.25209,3.33889 -0.11712,0.84697 -0.0111,1.51854 0.25027,2.12851 0.26076,0.60997 0.67687,1.14536 1.12684,1.71118 0.91294,-0.1011 1.68335,-0.0166 2.42071,0.16685 0.73737,0.18617 1.43777,0.4729 2.2537,0.79299 0.60958,0.0221 1.00243,-0.0586 1.25209,-0.20883 0.24971,-0.15026 0.337,-0.37622 0.37567,-0.62604 0.0774,-0.49998 -0.0867,-1.13641 0.0442,-1.58594 0.27181,-0.95239 1.06558,-1.59788 1.91985,-2.12851 1.68096,0.0552 3.29524,-0.33037 4.92477,-0.66782 1.77124,-0.77228 3.13299,-2.02282 4.84136,-2.9215 0.78803,-0.5265 1.19198,-0.84427 1.62771,-1.04338 0.43589,-0.19888 0.88559,-0.25137 1.7946,-0.16684 0.86156,0.21546 4.20559,0 5.09179,0 0.67311,0 1.02288,0.20883 1.21032,0.54251 0.18729,0.33369 0.20165,0.79891 0.29225,1.2521 0.56975,0.48008 1.12448,0.7388 1.62771,0.87642 0.50329,0.13756 0.96912,0.1243 1.41899,0.0834 0.89979,-0.0812 1.69715,-0.35744 2.46242,-0.16685 0.68599,0.88543 0.97917,1.50877 1.41904,1.87814 0.43976,0.36904 1.02581,0.48285 2.29547,0.45909 0.45577,0.34142 0.65151,1.32717 0.79294,2.33718 0.14143,1.01 0.24198,2.07011 0.45909,2.50413 0.21988,0.4403 0.94515,0.61632 1.71119,0.75128 0.76603,0.1348 1.5724,0.20055 2.00332,0.4591 0.93155,0.9963 2.1453,1.82626 3.46408,2.42065 1.31877,0.59439 2.72903,0.96503 4.09007,1.16861 0.66007,-0.20386 1.23728,-0.8294 1.75289,-1.54423 0.51544,-0.71483 0.97686,-1.53064 1.41905,-2.04503 0.0801,-0.31988 0.31821,-0.48672 0.62604,-0.58434 0.30827,-0.0978 0.67113,-0.0989 1.08514,-0.0834 0.82791,0.0332 1.77682,0.17292 2.29541,0 0.64847,-0.21601 1.21364,-0.58522 1.79466,-0.75123 0.58102,-0.16574 1.14801,-0.14585 1.75289,0.45909 0.87609,0.19447 1.53595,0.59898 2.0868,1.08514 0.5508,0.48616 1.00095,1.06155 1.46076,1.62771 0.45964,0.56615 0.94122,1.10961 1.54423,1.54423 0.60295,0.43478 1.35689,0.78487 2.33717,0.87642 0.53036,-0.99084 1.88046,-2.32591 2.58761,-3.17189 0.44473,-1.02309 0.63963,-1.76007 0.91818,-2.4207 0.27844,-0.66058 0.64494,-1.27646 1.50252,-2.00327 0.0221,-0.0221 0.17789,-0.0166 0.20883,-0.0442 z"
       id="Rengo"
       inkscape:label="#path2176" />
  </g>
</svg>
