<?xml version="1.0" encoding="UTF-8" standalone="no"?>
<!-- Created with Inkscape (http://www.inkscape.org/) -->

<svg
   width="210mm"
   height="297mm"
   viewBox="0 0 210 297"
   version="1.1"
   id="svg64"
   inkscape:version="1.1.2 (b8e25be833, 2022-02-05)"
   sodipodi:docname="vector.svg"
   xmlns:inkscape="http://www.inkscape.org/namespaces/inkscape"
   xmlns:sodipodi="http://sodipodi.sourceforge.net/DTD/sodipodi-0.dtd"
   xmlns="http://www.w3.org/2000/svg"
   xmlns:svg="http://www.w3.org/2000/svg">
  <sodipodi:namedview
     id="namedview66"
     pagecolor="#ffffff"
     bordercolor="#666666"
     borderopacity="1.0"
     inkscape:pageshadow="2"
     inkscape:pageopacity="0.0"
     inkscape:pagecheckerboard="0"
     inkscape:document-units="mm"
     showgrid="false"
     inkscape:zoom="0.74029882"
     inkscape:cx="361.34057"
     inkscape:cy="453.87078"
     inkscape:window-width="1920"
     inkscape:window-height="1017"
     inkscape:window-x="-8"
     inkscape:window-y="-8"
     inkscape:window-maximized="1"
     inkscape:current-layer="layer1" />
  <defs
     id="defs61" />
  <g
     inkscape:label="Capa 1"
     inkscape:groupmode="layer"
     id="layer1">
    <path
       id="Litueche"
       style="fill:#000000;fill-opacity:1;fill-rule:evenodd;stroke:#d39062;stroke-width:0.647166;stroke-linecap:butt;stroke-linejoin:miter;stroke-miterlimit:4;stroke-dasharray:none;stroke-opacity:1"
       d="m 208.6559,104.03617 c 2.6988,0.73277 -0.61932,2.48511 -2.31281,2.90186 -1.69345,0.41679 -3.85921,1.36402 -5.33971,2.24638 -0.94038,0.93921 -4.28472,2.66289 -4.36617,4.0434 0.4437,1.60813 0.24949,3.83685 0.11398,5.47419 -1.27518,2.82529 -2.86233,-2.51456 -4.77043,1.38809 -0.52916,3.24155 -1.42434,10.17937 -5.06239,10.21948 -1.87014,1.38266 -2.95254,-1.03406 -4.57358,-1.44934 -2.09082,-0.34586 -3.57866,-1.4825 -5.42464,-0.85164 -1.72965,0.38842 -0.87908,4.15239 -2.50272,3.7195 -2.95856,0.52119 -3.80697,-2.05941 -7.67909,-1.3606 -0.82562,1.5328 -2.5628,3.62782 -1.34196,5.31423 2.28478,0.41434 0.79719,2.29295 2.34427,3.70991 1.54703,1.417 5.4921,1.4148 7.17395,2.04972 1.6818,0.63488 -0.73409,5.3112 -0.80933,6.35719 1.63666,3.19269 -1.66566,3.70438 -3.80114,7.84733 -1.98594,4.61037 -0.19812,5.88237 -0.77777,5.87636 1.42527,2.93879 -2.97587,6.39319 -6.56838,6.22364 -4.05122,0.33314 -4.17728,-2.83866 -7.88665,-4.29822 -4.64794,-0.32776 -9.31443,0.53479 -13.97822,0.14725 -5.42781,1.50364 -6.09874,0.40163 -7.95172,-2.82021 -3.70638,2.05031 -0.19274,11.54828 -0.52324,14.73563 -0.57476,4.82929 -4.35531,5.56851 -4.8467,1.80068 -1.28795,-0.9419 -7.92687,-0.27395 -5.81188,1.72466 0.77615,4.4098 -2.40885,5.08572 -0.42512,6.89931 -3.3343,0.50793 -4.53611,3.35104 -3.42945,6.48052 3.87893,3.20638 -5.3562,1.84338 -5.7725,4.30267 0.15312,2.70162 -1.81722,5.84857 -2.93581,6.90347 -4.12411,0.0342 -2.92446,8.14666 -6.92363,5.38105 -3.517214,-3.71138 -3.669014,4.01384 -6.876964,2.09116 -3.5133,-2.22799 -4.36929,-2.0621 -9.50178,1.7453 -5.71864,3.2213 -0.34439,-9.27211 -4.78262,-8.88202 1.75499,-7.33191 -0.86528,-9.03837 -5.46588,-8.19881 3.63149,-3.8826 -0.32785,-4.512 -2.73293,-5.80748 -5.8253,-4.34494 -6.33277,-3.37208 -8.88205,-4.44102 -8.10201,-1.88017 -8.46855,-0.32238 -8.54043,1.36647 -3.89973,-3.27584 -8.90636,-1.01713 -13.66468,0 -4.13369,-1.28462 -3.61588,-8.49198 -10.24851,-4.78266 0.79338,-2.04909 -3.26949,-3.28876 -7.8572,-4.44101 l -0.68323,2.73293 c -1.59614,0.28178 -2.61159,1.43462 -2.39132,4.44102 -2.36552,-0.0245 -2.40671,-2.37593 -3.07456,-4.09941 -2.67202,-1.10426 -4.943979,-1.60848 -5.807492,0 -0.863507,1.60847 -5.2984716,2.67991 -6.4907186,1.70812 -1.192252,-0.97183 -1.155078,-11.88372 -1.024854,-12.63987 -2.027744,-1.64199 -6.336413,-6.20936 -2.732938,-6.49074 3.270177,-0.27248 7.140537,0.1585 9.2236616,-2.73294 0.07631,-4.43597 3.493871,-9.32421 1.024849,-12.98143 2.855423,-2.21864 5.930062,-6.67893 5.124262,-3.7578 -0.64439,2.33605 4.37881,-0.48675 5.46587,-2.04968 1.08706,-1.56288 1.19603,-6.97812 2.29816,-5.79496 1.10213,1.18317 3.63467,1.12545 4.61841,2.0354 0.99969,0.92472 0.43519,2.82236 -0.40232,4.6975 3.29565,4.02739 8.2957,3.15496 12.89497,7.49716 2.76477,0.57446 4.34776,-1.82323 6.32935,-4.42296 1.88009,-1.88326 1.76586,0.15458 3.0572,0.91293 1.70339,1.0006 4.48152,5.10622 6.30657,6.48472 1.08996,0.82327 1.31996,-0.88627 2.21908,-0.48772 6.32537,-3.0677 7.70831,-7.61486 11.50851,-7.33314 4.06681,0.45936 8.48532,2.56891 12.22402,0.24215 2.41134,-3.59749 2.20128,-9.23346 7.82022,-9.26486 1.87019,-6.16009 -1.47698,-10.19532 3.92271,-11.95031 2.79233,-2.53232 8.216914,-5.06312 6.794434,-9.39367 2.40919,-3.86939 7.79058,-3.42603 7.7896,-8.68307 1.78972,-1.93647 5.53608,-3.15912 7.74479,-4.94967 1.69252,-1.3721 3.62528,-4.601813 1.93961,-7.217543 3.59265,-0.16339 -10.58907,-3.04666 -4.32976,-5.32234 -0.11154,0.0514 6.41149,-4.02598 2.72256,-4.93241 3.90764,3.85662 11.0724,0.0587 14.12238,3.89296 -1.62755,2.1779 -2.12125,5.7276 -0.70405,8.03445 2.21782,-0.0504 8.7698,-1.50423 11.14054,2.11215 2.22114,3.388163 8.74813,-0.73678 11.92741,4.389943 3.91156,1.39073 6.2162,13.94044 9.98095,8.40716 5.7499,-0.4799 3.51511,-5.39812 0.12426,-7.49604 3.50694,-3.16191 4.42619,-7.859513 4.92834,-12.465773 5.45977,2.14718 7.72161,9.627803 12.2587,11.637473 5.92263,-3.108593 13.05632,-3.274823 19.5477,-1.698 1.62276,0.96822 4.61971,2.58887 7.3185,3.32168 z"
       sodipodi:nodetypes="ccccccccccccccccccccccccccccccccccccccccccssccccsssscccsscccccccscccccsccccccc"
       inkscape:label="#path4805" />
  </g>
</svg>
