<?xml version="1.0" encoding="UTF-8" standalone="no"?>
<!-- Created with Inkscape (http://www.inkscape.org/) -->

<svg
   width="210mm"
   height="297mm"
   viewBox="0 0 210 297"
   version="1.1"
   id="svg1283"
   inkscape:version="1.1.2 (b8e25be833, 2022-02-05)"
   sodipodi:docname="vector.svg"
   xmlns:inkscape="http://www.inkscape.org/namespaces/inkscape"
   xmlns:sodipodi="http://sodipodi.sourceforge.net/DTD/sodipodi-0.dtd"
   xmlns="http://www.w3.org/2000/svg"
   xmlns:svg="http://www.w3.org/2000/svg">
  <sodipodi:namedview
     id="namedview1285"
     pagecolor="#ffffff"
     bordercolor="#666666"
     borderopacity="1.0"
     inkscape:pageshadow="2"
     inkscape:pageopacity="0.0"
     inkscape:pagecheckerboard="0"
     inkscape:document-units="mm"
     showgrid="false"
     inkscape:zoom="0.52347032"
     inkscape:cx="155.69173"
     inkscape:cy="305.65248"
     inkscape:window-width="1920"
     inkscape:window-height="1017"
     inkscape:window-x="-8"
     inkscape:window-y="-8"
     inkscape:window-maximized="1"
     inkscape:current-layer="layer1" />
  <defs
     id="defs1280" />
  <g
     inkscape:label="Capa 1"
     inkscape:groupmode="layer"
     id="layer1">
    <path
       d="m 79.404868,38.488466 c -0.95288,2.40203 -3.54571,3.16525 -7.0412,3.29246 -2.18461,-0.83063 -5.14972,-3.1503 -6.49198,0.44026 0.96486,4.05675 0.69302,4.44679 -3.5272,3.42478 -1.44576,-2.9338 -4.46158,3.0895 -5.47773,-1.07364 -0.22055,-1.8728 -5.44783,-4.94009 -5.25892,-0.57242 2.15686,1.39165 0.95378,6.82081 -0.54599,8.23113 -1.89378,1.44848 -2.64867,3.75138 -3.14163,7.15749 0.68972,3.42206 1.76641,5.00749 4.71252,5.51127 1.89155,2.11218 2.79834,5.05771 1.57081,7.65855 0.23955,3.98002 -4.02198,1.78144 -6.82973,2.21881 -2.82452,0.93917 -1.21728,4.7468 -3.14171,7.15749 -1.24223,3.12453 -3.74981,5.75552 -3.14162,9.69795 -0.49974,2.81354 -1.94855,6.69741 -0.47826,9.033114 0.97642,2.0869 3.12436,4.62455 1.5709,7.60849 -1.59741,2.80907 -4.33306,5.1489 -7.37614,5.51126 -2.32785,0.60794 -5.76923,2.38187 -6.73045,4.84766 -1.07546,2.60142 -3.10445,3.58577 -4.2654,5.60229 -2.42722,1.03259 -5.46716,2.20238 -3.26801,5.37894 0.68972,3.41619 -0.34857,5.99076 -1.878,8.28829 -2.33586,1.90031 -4.6542,2.02528 -7.53679,2.86657 -2.4780196,1.00731 -4.9590896,1.82506 -6.6268696,4.83469 -0.0661,3.03251 5.15633,5.31352 2.06129,7.67151 -0.52286,2.53939 -1.27857,6.65495 0.44687,8.32216 1.96713,1.28865 4.5922496,2.9922 6.8298196,5.51127 -0.43779,3.09933 -2.1923,5.09174 -1.09281,8.45275 1.01062,4.6466 -2.03263,4.05634 -3.6197096,6.93587 -0.21559,3.65474 0.8750696,6.79315 3.1416196,9.37631 3.88966,0.394 2.54046,4.86178 3.14171,6.63496 0.4766,2.38782 5.78946,5.10686 1.4071,5.96227 -2.97767,-2.33165 -5.63814,4.04321 -7.2123396,0.52286 -0.38162,-4.45291 -4.73879,-0.41879 -3.6198,2.54054 0.63024,2.74109 1.40982,6.00935 1.02441,9.60569 -1.74328,1.99604 -3.11965,3.77723 -5.25884,6.08385 -3.13072,2.09053 0.48239,6.52477 3.56173,3.92583 3.79648,-0.90745 8.0741096,-0.5972 12.2149496,-0.63354 3.45791,1.13798 -0.19824,6.08236 1.57082,7.65854 0.78553,3.37374 3.64102,4.00373 2.04898,7.83011 0.10325,3.13494 -0.59885,7.45345 1.57082,9.20467 0.20319,2.80461 3.65102,3.2381 5.69232,4.86351 1.15591,4.45902 2.77282,2.58928 3.80103,-0.54764 0.97823,-2.2792 2.30785,-5.46262 4.71252,-7.60858 1.18911,-1.95663 3.72272,-3.34036 6.28333,-4.36601 2.53013,-0.38739 5.46782,-2.12811 8.82363,-1.64622 3.49383,-0.12473 6.46133,1.99612 9.54844,3.29245 1.59981,-2.8199 3.42082,-4.7107 3.6198,-8.00175 3.10355,-3.23117 -5.55711,-3.76551 -2.59531,-8.13111 -1.95482,-5.66986 3.49508,-1.35167 5.57933,-2.89886 1.71619,-2.8156 2.17826,3.85125 3.84571,5.79029 2.68212,-2.42193 5.44816,-0.67154 8.32877,0.4543 2.04304,3.57181 5.42388,0.82948 4.30621,-2.10053 -0.87598,-2.98328 5.50416,0.55095 5.19061,2.89152 1.80069,-0.41301 5.97978,2.59621 7.95203,-0.50882 6.223122,-0.16025 0.44026,-3.71521 2.01941,-5.67482 2.951482,-0.78718 4.437222,-5.49631 7.539942,-3.79342 0.77314,2.6053 4.27523,1.78697 7.14403,2.71986 2.78223,1.62153 6.16595,-3.1835 7.69662,1.42428 1.17549,4.649 4.98213,-0.2321 8.1278,0.22137 4.7221,1.19259 4.01091,-2.78917 5.68927,-5.51126 3.55777,1.98645 6.4022,-2.17843 8.94695,-2.1472 2.33941,-2.27515 5.44519,-1.90064 8.40063,-2.2189 -0.25771,4.83411 5.99167,2.59894 6.00266,6.56921 2.93355,1.13683 3.79111,4.41731 6.01769,5.52697 3.26817,1.62078 6.01901,-0.91158 8.92853,2.43283 2.62248,-0.18255 6.13903,2.69467 7.85769,0.5815 3.36201,-0.17098 5.81557,-2.18916 6.07147,-5.79698 -0.22137,-3.84108 3.43147,-3.5709 4.93942,-6.59333 1.31302,-2.89647 2.6262,-4.94876 0.56168,-8.77225 -3.83241,-1.72784 1.22761,-5.60758 0.77149,-8.26037 -3.09372,0.35353 -3.76782,-3.68935 -5.76452,-6.57136 -0.18007,-3.34466 5.12305,-3.79822 2.38286,-7.74586 5.28544,0.46256 1.183,-6.98395 4.71252,-5.43965 2.75365,1.21356 5.48558,-1.56371 8.43012,0.91009 3.28535,0.87631 6.71269,-2.95429 3.81614,-5.62682 -0.22302,-2.79041 1.49523,-6.84337 1.34498,-9.59826 -2.43836,-1.46079 -2.45249,-6.29481 -6.33108,-6.08393 -4.54591,0.97154 -5.00765,-4.93472 -1.16103,-6.32018 4.59036,-2.18874 -4.06485,-2.41358 -3.7337,-6.31216 -2.29258,-3.76236 -7.38027,-1.88163 -10.76598,-3.25726 -0.43695,-4.29613 -5.00682,-2.95346 -7.44238,-1.37191 -3.59097,-1.06315 -6.25095,2.99344 -8.79744,-1.12535 -3.46385,2.06782 -3.45179,-2.74209 -3.71801,-5.20143 -2.38088,-1.46096 -5.01707,-2.92141 -7.40885,-0.033 -3.18549,0.033 -6.68956,1.33044 -9.47287,-1.07364 -2.10713,2.99335 -5.16707,1.97489 -8.46993,2.64329 -2.31636,2.84641 -7.10363,3.25686 -9.82135,1.01723 -3.06638,-0.63355 -7.03294,-0.40227 -9.41026,1.85074 -3.04762,1.80416 -7.37308,-1.69438 -8.40063,-3.46409 -1.14253,-5.39679 -2.98534,2.64098 -5.73701,2.89151 -2.67097,-0.65172 -5.49632,1.98431 -6.28333,3.29245 -4.488022,2.14571 -4.509412,-1.85256 -3.083732,-4.3053 -4.38269,-1.6506 -0.68971,-4.8873 -4.29241,-6.76729 2.04948,-1.52703 -2.84476,-4.4833 1.57081,-5.38968 4.005792,-0.0413 5.123052,-2.80494 5.102892,-6.68741 -1.23446,-2.8284 -2.005782,-7.11082 -2.439272,-8.70121 1.370672,-2.47703 -6.65091,-3.78591 -0.28745,-3.86504 1.585762,-1.98646 -0.67154,-8.63827 3.428832,-7.73008 3.30376,-1.45427 -2.10062,-4.349004 -1.80672,-7.333104 -2.447542,-2.60646 -1.739822,-6.21387 -5.520692,-7.82301 -0.52368,-2.22971 -0.87664,-5.31228 -1.32268,-8.02314 -0.22467,-4.70897 6.01199,-2.12895 6.532872,-5.42917 0.8531,-4.39178 -0.812792,-6.02058 -3.981922,-7.41545 -2.29257,-1.79334 -1.26519,-5.32211 -3.3259,-7.35053 -2.05981,-1.40999 -4.06172,-3.76988 -3.21002,-7.73016 -1.71157,-1.37836 -2.95322,-5.30477 -1.02441,-7.1575 1.26164,-2.36865 -4.73763,-1.7009 -4.71252,-4.36601 -1.83605,-0.33866 -1.47327,-3.19556 -4.71261,-2.21889 z"
       style="fill:#000000;fill-opacity:1;stroke:#d39062;stroke-width:1.09274;stroke-miterlimit:4;stroke-dasharray:none;stroke-opacity:1"
       id="Lago_Verde" />
  </g>
</svg>
