<?xml version="1.0" encoding="UTF-8" standalone="no"?>
<!-- Created with Inkscape (http://www.inkscape.org/) -->

<svg
   width="210mm"
   height="297mm"
   viewBox="0 0 210 297"
   version="1.1"
   id="svg57"
   inkscape:version="1.1.2 (b8e25be833, 2022-02-05)"
   sodipodi:docname="vector.svg"
   xmlns:inkscape="http://www.inkscape.org/namespaces/inkscape"
   xmlns:sodipodi="http://sodipodi.sourceforge.net/DTD/sodipodi-0.dtd"
   xmlns="http://www.w3.org/2000/svg"
   xmlns:svg="http://www.w3.org/2000/svg">
  <sodipodi:namedview
     id="namedview59"
     pagecolor="#ffffff"
     bordercolor="#666666"
     borderopacity="1.0"
     inkscape:pageshadow="2"
     inkscape:pageopacity="0.0"
     inkscape:pagecheckerboard="0"
     inkscape:document-units="mm"
     showgrid="false"
     inkscape:zoom="0.74029882"
     inkscape:cx="361.34057"
     inkscape:cy="453.87078"
     inkscape:window-width="1920"
     inkscape:window-height="1017"
     inkscape:window-x="-8"
     inkscape:window-y="-8"
     inkscape:window-maximized="1"
     inkscape:current-layer="layer1" />
  <defs
     id="defs54" />
  <g
     inkscape:label="Capa 1"
     inkscape:groupmode="layer"
     id="layer1">
    <path
       inkscape:connector-curvature="0"
       id="Negrete"
       style="fill:#000000;fill-opacity:1;fill-rule:evenodd;stroke:#d39062;stroke-width:1.66091;stroke-linecap:butt;stroke-linejoin:miter;stroke-miterlimit:4;stroke-dasharray:none;stroke-opacity:1"
       d="m 58.131491,34.913618 c -1.82986,0.0686 -2.72868,0.0858 -4.77512,0.20763 -2.47049,0.13728 -4.85897,0.28829 -6.74743,0.62291 -1.88846,0.33462 -3.20506,0.80481 -3.52943,1.45345 -0.66924,1.33848 -0.9203,2.91206 -0.93419,4.56748 -0.0133,1.65594 0.15958,3.4447 0.41527,4.98275 0.51308,3.07593 1.23329,5.39785 0.51909,5.39785 -5.741481,0 -8.71663,0.64522 -11.626348,0.93522 -2.909701,0.28829 -5.751054,0.21965 -11.522546,-0.93522 -1.034233,-0.20764 -5.469955,-0.6538 -9.446408,-0.51823 -1.988192,0.0686 -3.87586,0.31917 -5.190333,0.83054 -1.314456,0.51137 -2.063507,1.29558 -1.7647,2.49146 0.682625,2.73033 0.02059,5.52329 -0.830373,8.61587 -0.85165,3.09257 -1.86851803,6.41509 -1.86851803,10.3806 0,2.81938 1.00351703,5.3999 1.86851803,8.20076 0.865036,2.80103 1.566708,5.86906 0.830373,9.55023 -1.112998,5.56533 -2.60898903,8.20299 -2.387557,9.861682 0.109824,0.82882 0.651909,1.43286 1.868518,1.97237 1.216644,0.54054 3.183352,1.05534 6.020792,1.76473 2.288423,0.57143 3.913715,1.4689 4.982715,2.59511 1.069068,1.12569 1.516772,2.45594 1.660916,3.94457 0.288288,2.9776 -0.951007,6.57348 -2.595158,9.86168 -1.262976,2.52578 -1.305704,4.28605 -0.726726,5.70947 0.57915,1.42257 1.8053,2.41201 3.114197,3.42548 1.308964,1.01416 2.706681,2.02539 3.633235,3.32183 0.92664,1.29558 1.398368,2.9184 0.830372,5.19039 -0.862461,3.44984 0.648305,17.10268 0,17.75099 -1.929299,1.9293 -3.074094,4.6936 -4.152256,7.47404 -1.078163,2.78043 -2.119157,5.54473 -4.048473,7.47403 -1.840204,1.84024 -2.53702,3.47233 -2.595158,4.87893 -0.05834,1.40712 0.555984,2.56319 1.245644,3.63329 0.68966,1.07079 1.465635,1.97203 1.868518,2.80274 0.402917,0.83055 0.399142,1.59588 -0.51909,2.28383 -2.377243,1.78292 -4.983641,5.08828 -7.370271,8.30441 -1.28048,1.72561 -2.193615,2.87516 -3.321816,4.35984 0.573487,9.9564 12.261815,16.91169 16.297658,18.06244 5.709733,1.62849 -2.808869,18.44083 -4.048456,26.47068 l -9.654027,14.63679 22.837472,-1.76474 c 10.123764,-0.57657 23.851886,-10.3751 32.180066,-9.86168 10.76481,0.6641 14.96906,12.03792 16.60907,14.01389 5.21738,6.28674 -8.68268,-1.77606 18.16618,-11.31479 6.899469,-2.45131 13.524119,-1.94388 19.723259,-0.41527 2.21276,-24.77115 25.37646,-1.9559 32.38769,-2.07619 2.05358,-3.83698 5.76849,-13.18334 8.30453,-13.18334 2.5361,0 10.47265,-0.15444 16.09004,-4.87893 7.3798,-6.20969 19.26469,-15.97785 20.2423,-12.76824 0.36808,1.20806 4.88034,5.31822 8.82357,10.17296 0.68811,-0.47362 1.38876,-1.21321 2.07613,-1.55641 1.74967,-0.87516 2.89828,-1.90305 3.73704,-3.01038 0.83878,-1.10682 1.3136,-2.31591 1.5571,-3.73693 0.487,-2.84221 0.10296,-6.41733 0.10296,-11.00351 0,-5.68597 0.0532,-7.01295 -0.62291,-8.30458 -0.67559,-1.29215 -2.03023,-2.5033 -4.77511,-7.99313 -1.28546,-2.57108 -4.77417,-6.74817 -6.53982,-9.86168 -0.88288,-1.55641 -1.40712,-2.89009 -0.93419,-3.63329 0.47276,-0.74302 1.85915,-0.91119 4.6713,-0.20763 3.56792,0.89232 6.36898,1.38138 8.20073,0.72586 0.91583,-0.32775 1.61218,-0.87001 2.07614,-1.86855 0.464,-0.99871 0.6229,-2.39708 0.6229,-4.25602 0,-6.80943 4e-5,-13.64066 0,-20.44992 0,-3.39304 0.0166,-7.03645 -0.31128,-10.58823 -0.32758,-3.55178 -0.97366,-7.03388 -2.38755,-9.86168 -0.39228,-0.78421 -2.21315,-6.08699 -4.56748,-10.58823 -1.17718,-2.25071 -2.52365,-4.32175 -3.84086,-5.50184 -0.6586,-0.59031 -1.32252,-0.96611 -1.97233,-1.03818 -0.64985,-0.0686 -1.25663,0.21793 -1.86852,0.83054 -1.73604,1.73608 -2.53441,4.74011 -3.52942,7.37039 -0.49747,1.31446 -1.03972,2.54775 -1.76471,3.42548 -0.72501,0.87859 -1.67911,1.45345 -2.9066,1.45345 -4.31124,0 -7.02942,-1.03303 -9.34259,-2.38764 -2.31318,-1.35564 -4.17659,-3.07438 -6.95505,-4.46366 -2.78239,-1.39167 -4.91523,-1.86306 -6.64363,-1.86855 -1.72841,-0.007 -3.06536,0.45302 -4.15228,1.14114 -2.17379,1.37623 -3.52306,3.52947 -5.60555,3.52947 -7.26331,0 -14.43221,0 -21.69559,0 -4.58334,0 -8.64399,-0.49078 -12.56061,-1.24582 -3.91661,-0.75504 -7.77773,-1.84058 -12.04158,-2.90656 -1.19091,-0.29687 -2.32451,0.26427 -3.42562,1.24582 -1.10115,0.98155 -2.09683,2.42419 -3.11419,3.7371 -1.017419,1.31274 -2.070739,2.52166 -3.010399,3.21802 -0.93968,0.69669 -1.83096,0.86829 -2.69898,0 -1.29626,-1.29558 -2.13726,-2.68142 -2.80277,-4.15238 -0.66547,-1.47061 -1.13462,-2.9915 -1.5571,-4.6713 -0.84496,-3.35941 -1.53822,-7.22847 -3.73706,-11.62624 -1.88904,-3.77812 -6.42046,-9.176652 -6.85123,-10.899862 -0.78009,-3.1202 -3.20967,-5.53015 -5.39795,-8.20059 -1.09412,-1.33505 -2.13476,-2.71797 -2.90658,-4.25619 -0.77185,-1.53754 -1.24564,-3.23913 -1.24564,-5.19022 0,-4.14448 -0.63406,-6.96885 -1.45328,-9.55022 -0.81922,-2.58155 -1.78665,-4.96679 -2.59518,-8.20077 -0.97349,-3.89429 -3.07948,-7.31805 -4.87891,-10.79587 -0.8997,-1.73882 -1.66984,-3.48622 -2.28374,-5.2942 -0.61399,-1.80781 -1.03801,-3.71703 -1.03801,-5.70931 0,-0.68125 0.0807,-1.55812 0.10296,-2.28382 z" />
  </g>
</svg>
