<?xml version="1.0" encoding="UTF-8" standalone="no"?>
<!-- Created with Inkscape (http://www.inkscape.org/) -->

<svg
   width="210mm"
   height="297mm"
   viewBox="0 0 210 297"
   version="1.1"
   id="svg1283"
   inkscape:version="1.1.2 (b8e25be833, 2022-02-05)"
   sodipodi:docname="vector.svg"
   xmlns:inkscape="http://www.inkscape.org/namespaces/inkscape"
   xmlns:sodipodi="http://sodipodi.sourceforge.net/DTD/sodipodi-0.dtd"
   xmlns="http://www.w3.org/2000/svg"
   xmlns:svg="http://www.w3.org/2000/svg">
  <sodipodi:namedview
     id="namedview1285"
     pagecolor="#ffffff"
     bordercolor="#666666"
     borderopacity="1.0"
     inkscape:pageshadow="2"
     inkscape:pageopacity="0.0"
     inkscape:pagecheckerboard="0"
     inkscape:document-units="mm"
     showgrid="false"
     inkscape:zoom="0.52347032"
     inkscape:cx="155.69173"
     inkscape:cy="611.30496"
     inkscape:window-width="1920"
     inkscape:window-height="1017"
     inkscape:window-x="-8"
     inkscape:window-y="-8"
     inkscape:window-maximized="1"
     inkscape:current-layer="layer1" />
  <defs
     id="defs1280" />
  <g
     inkscape:label="Capa 1"
     inkscape:groupmode="layer"
     id="layer1">
    <path
       d="m 156.21335,85.604818 c -1.54564,1.18448 -4.63124,0.0431 -6.22206,1.70369 -1.96073,0.64132 -1.67586,2.41471 -3.90049,2.81475 -1.36428,1.62948 -4.50692,-0.91211 -5.80299,0.59256 -0.43477,1.60612 -2.87799,1.20376 -3.40732,2.71532 -1.43215,1.47141 -2.7349,2.28781 -5.64879,1.80309 -2.84904,-0.33838 -3.8454,1.17597 -3.46209,4.06995 0.98429,2.174542 0.19706,3.744292 -1.60423,4.448362 -1.11205,1.86922 -2.71429,2.52425 -3.99991,3.40731 -0.76669,-1.54132 -3.23958,-1.39851 -4.5184,-2.81474 -0.63123,-2.24477 -3.45178,-0.67298 -3.50677,0.59259 -0.56005,2.30818 -3.28709,1.61612 -3.756,4.27452 -1.51473,2.78511 -3.31111,-1.3478 -4.6375,-1.45977 -0.857,-1.03863 -2.88327,-1.64504 -4.71726,-2.29625 -1.748443,-2.06215 -2.082233,1.63495 -3.407323,1.70365 0.47846,3.34938 -0.11016,4.66057 -2.99368,5.28991 -1.44593,1.77633 -2.60397,-3.67773 -3.82097,-1.29 -1.33468,0.89529 -4.06412,0.39579 -3.99991,2.68994 -1.82478,2.37433 -1.53683,-1.94311 -2.81475,-2.68994 1.01663,-0.83223 -1.55554,-2.67162 -1.70366,-4.5184 -0.81047,2.01699 -0.94571,4.13751 -2.29625,6.12263 -1.16478,1.7089 -1.65785,4.08265 -3.71832,5.08723 -1.13161,1.77752 -3.32132,2.08558 -5.93039,1.82686 -1.00418,-0.57981 -4.86345,-0.32296 -5.68423,1.0857 -1.83458,2.00592 -5.28218,-1.59476 -6.16769,2.08077 -2.05836,1.2602 -2.51876,3.1179 -5.40892,2.5371 -2.25032,1.47072 -4.86025,0.95484 -7.50665,0.59256 -1.00486,1.40792 -3.79708,-1.17824 -4.8421,-1.70365 -1.10451,-0.2222 -2.5097,-0.72285 -3.756,-2.05237 -0.34297,-1.08205 -4.04466,0.18619 -4.16972,-2.34126 -1.47647,-0.16757 -2.45238,-4.93833 -3.77843,-2.09628 2.18227,2.8577 -1.35699,2.93097 -3.11027,3.08256 -0.83276,2.54908 -2.38963,0.84387 -3.75603,0.34871 -1.39584,-0.2076 -1.75361,-0.67244 -3.45234,-0.94128 -1.59603,-1.81999 -2.11592,-0.15919 -3.0136,1.11109 -1.47088,1.14548 -3.78988,0.61581 -5.67654,2.62424 -2.2483402,2.07028 -4.6050702,2.42172 -6.6914302,3.70247 -2.699751,1.79601 -4.790507,3.48688 -1.261332,3.96934 1.401812,1.00713 1.652682,-0.66611 3.999902,0.51849 -0.11486,2.07704 2.20048,2.06128 3.40731,3.40735 2.3177002,1.94735 -2.00954,4.04584 0,5.6041 -1.73956,1.57841 3.2521502,2.49204 4.7873302,2.39569 2.38886,0.52395 3.08312,2.06748 4.32358,3.28253 1.40637,0.6905 2.53018,3.14518 0.12475,3.53209 -1.61515,1.06628 0.6048,2.41676 0.98628,3.40735 -0.34462,1.86447 2.4826,2.80854 1.11109,3.99988 -0.96257,1.19391 -1.62009,1.8865 -2.81475,3.40734 -2.96513,0.36755 3.24235,3.44995 4.49305,3.99991 1.51852,0.39855 1.51154,2.24701 3.40731,2.81475 1.53413,1.06963 2.9863,2.40813 5.11101,2.88882 2.45697,0.15144 4.77864,1.14032 7.67615,1.11106 2.71221,0.0335 5.04353,1.02559 7.75621,1.11109 0.64464,1.52804 3.07961,1.30967 2.81478,3.40734 0.95844,1.79005 -0.72566,4.28911 0.59257,6.29614 1.62136,0.65181 1.24481,4.1327 3.77567,3.40731 1.11866,1.09759 5.77016,0.83369 6.93944,0 1.95176,-0.28457 2.90011,-1.03065 3.85545,-2.64494 1.46663,-1.8945 2.37595,-2.0982 3.05863,-4.16969 1.49577,-0.49751 2.4476,-2.31574 4.59248,-2.29625 2.35885,-1.6878 5.36572,0.16292 7.92572,0 1.48556,1.22042 1.52875,4.70522 2.81474,3.50677 -0.0503,-2.62085 3.52893,-1.45924 4.34863,-3.26288 1.72404,-1.2446 1.34281,-3.75988 4.04491,-4.2438 1.24704,1.25514 4.20267,0.80176 5.80299,1.70369 0.31694,-2.52289 2.19984,0.0773 2.91418,1.18513 2.488593,-0.38033 3.414573,1.64882 5.011543,2.22218 1.36903,0.59368 2.78126,1.85823 4.09934,2.29622 1.16989,1.41698 3.24222,1.9625 5.47932,2.29626 1.03106,0.94485 1.97181,1.98006 3.63156,2.29625 1.99868,1.55324 5.2306,-1.2116 6.22209,1.01163 1.46681,0.11234 3.48219,2.35671 4.59248,3.40732 1.85751,0.41378 2.43233,1.2543 4.10474,2.50054 1.42507,0.86236 2.38053,2.16973 2.70988,3.82097 1.24925,1.08236 2.73735,2.50973 3.90049,3.48139 0.73631,1.30458 2.31627,1.76551 3.90048,2.22215 1.33831,1.63948 2.83876,-0.71508 4.61783,-1.11106 2.62234,0.49761 5.55961,0.23492 8.02514,1.11106 2.82093,-0.40367 4.76155,0.4172 6.29617,1.67834 3.07585,-0.65457 4.07613,1.132 6.81463,1.21051 1.71427,0.67611 4.77318,1.05697 6.59041,1.70366 3.41017,-0.99345 3.37312,1.60814 5.82838,2.81475 1.35563,-1.46387 2.17954,1.99334 4.59248,0 1.30166,-1.60997 4.45361,0.0686 5.62949,0.59256 3.03216,-0.0524 5.54909,-0.14585 7.85534,0.86721 1.86046,1.39712 3.86811,1.23212 6.28642,-0.61808 2.45744,-0.41937 5.64994,-2.87563 2.12402,-4.71316 -2.08715,-1.9198 -1.10265,-5.0332 -2.86294,-7.20104 -0.3007,-2.86481 0.18775,-5.70159 -1.66496,-8.09283 -1.89596,-1.42567 -3.96189,-2.46181 -6.42805,-3.57486 -3.04988,-0.28053 -1.18175,4.33215 -4.09934,5.70357 -2.71622,1.45785 -5.37475,-1.49841 -4.76483,-4.36231 -0.71409,-2.97335 -4.148,-4.29919 -5.45714,-7.04483 -3.04113,-0.50074 -4.92068,-2.45213 -5.55204,-5.40056 -2.67783,-0.35321 -4.17201,-3.28129 -4.07733,-6.00654 -1.72023,-3.09053 4.05788,-3.25147 4.46831,-6.37952 3.05373,-2.55513 1.41723,-4.36706 -1.75697,-5.2058 -2.9264,-2.07971 0.31585,-4.50388 -0.48919,-7.29908 1.0807,-2.49868 1.81813,-3.88202 0.59259,-7.06425 0.38084,-4.45588 -5.03785,-1.17387 -4.91279,-3.97977 -0.15144,-3.65424 4.11225,-4.34028 5.26148,-7.38234 1.44925,-2.05339 1.96451,-4.31266 2.46603,-6.24173 -1.51647,-1.48786 -0.0217,-2.36605 -1.11106,-4.1247 -0.39265,-2.68726 -4.67335,-0.99925 -3.6512,-3.26288 1.36764,-2.78394 -1.43718,-2.77947 -2.05237,-4.14434 -0.59927,-2.90397 2.88318,-1.72622 2.88885,-4.02527 1.03249,-1.49307 4.9245,-0.12661 3.92578,-3.65088 -0.98327,-1.709 -0.61184,-4.20659 -2.02835,-5.83111 -2.16629,-0.53439 -2.9575,-1.560262 -4.09425,-2.517712 -2.19137,-1.38272 1.83182,-2.14823 -0.0993,-3.92583 -0.32193,-2.05318 -2.80422,-2.58613 -4.59247,-3.40732 -0.16168,-2.16961 -3.03741,-0.56923 -3.92584,0 -2.34169,2.25756 -3.29221,-1.38467 -3.99991,-3.38196 -0.13872,-1.32397 -2.36431,-1.71259 -3.99991,-1.72904 z"
       style="fill:#000000;fill-opacity:1;stroke:#d39062;stroke-width:0.410536;stroke-miterlimit:4;stroke-dasharray:none;stroke-opacity:1"
       id="Futrono" />
  </g>
</svg>
