<?xml version="1.0" encoding="UTF-8" standalone="no"?>
<!-- Created with Inkscape (http://www.inkscape.org/) -->

<svg
   width="210mm"
   height="297mm"
   viewBox="0 0 210 297"
   version="1.1"
   id="svg1283"
   inkscape:version="1.1.2 (b8e25be833, 2022-02-05)"
   sodipodi:docname="vector.svg"
   xmlns:inkscape="http://www.inkscape.org/namespaces/inkscape"
   xmlns:sodipodi="http://sodipodi.sourceforge.net/DTD/sodipodi-0.dtd"
   xmlns="http://www.w3.org/2000/svg"
   xmlns:svg="http://www.w3.org/2000/svg">
  <sodipodi:namedview
     id="namedview1285"
     pagecolor="#ffffff"
     bordercolor="#666666"
     borderopacity="1.0"
     inkscape:pageshadow="2"
     inkscape:pageopacity="0.0"
     inkscape:pagecheckerboard="0"
     inkscape:document-units="mm"
     showgrid="false"
     inkscape:zoom="0.74029882"
     inkscape:cx="361.34057"
     inkscape:cy="561.93525"
     inkscape:window-width="1920"
     inkscape:window-height="1017"
     inkscape:window-x="-8"
     inkscape:window-y="-8"
     inkscape:window-maximized="1"
     inkscape:current-layer="layer1" />
  <defs
     id="defs1280" />
  <g
     inkscape:label="Capa 1"
     inkscape:groupmode="layer"
     id="layer1">
    <path
       d="m 71.285133,53.067202 -0.83444,0.95362 h -1.90718 l -2.74157,2.74143 v 5.48299 l -1.788,1.78794 v 2.74156 h -0.95362 v 0.95362 l -1.78796,1.78781 h -4.52958 l -0.95362,0.95362 h -2.74158 l -0.95362,0.95362 h -0.95362 l -0.83444,-0.95362 h -0.95362 v -0.95362 h -0.95362 l -0.83445,0.95362 h -3.69516 l -0.95362,-0.95362 h -0.83445 l -0.95362,0.95362 -0.95361,-0.95362 h -2.74159 l -0.83432,0.95362 -1.90717,-1.78794 h -2.74159 l -0.83432,0.83457 -0.95362,-0.83457 v 0.83457 h -0.95361 l -0.95362,0.95362 -0.83445,-0.95362 h -5.48314 v 1.90724 l 0.83432,0.95362 -0.83432,0.83457 v 0.95362 l -0.95362,0.95362 v 1.78794 l -0.95362,0.95362 0.95362,0.83457 h 1.78798 l 0.95362,0.95362 v 0.95362 l 0.95361,0.83457 h 0.83445 v 0.95362 l 0.95362,0.95362 h 2.74157 l -0.95362,0.83457 v 1.90711 l -0.83444,0.83458 v 5.48299 l 0.83444,0.95362 -0.83444,0.95361 v 0.95362 l 0.83444,0.83458 h 1.90719 v 4.648668 l -0.95362,0.83457 h -1.78798 l -0.95362,0.95362 h -1.78797 l -0.95362,0.95362 v 0.83457 l -0.95362,0.95362 h -1.78798 l -0.95362,-0.95362 h -0.83444 l -0.95362,0.95362 h -1.78799 l -0.95362,-0.95362 h -1.78799 l -0.953619,-0.83457 h -0.953619 l -0.834447,-0.95362 h -0.953619 l -1.7879775,-1.78794 h -3.695164 l -0.953619,0.83457 h -0.953618 l -0.834448,0.95362 H 0.83768452 v 2.74143 l 0.95361798,0.95362 v 1.78794 l 0.834448,0.95362 v 0.83457 h 0.953618 l 0.953619,0.95362 v 2.74143 l -0.953619,0.95362 0.953619,0.83458 v 2.86073 l -0.953619,0.83457 v 0.95362 h 1.787991 l 0.953618,-0.95362 0.953619,0.95362 h 0.953618 v 0.95362 h 1.7879785 l 0.953618,1.78794 0.834448,0.95361 h 1.907174 l 0.83445,0.83458 v 0.95362 h 3.69516 l 1.78798,0.95362 h 0.95362 l 0.95362,-0.95362 h 2.74157 l 1.78797,1.78794 v 0.95362 h 2.74157 l 0.95362,0.95361 h 2.74157 l 0.95362,0.83458 0.83445,-0.83458 h 1.90764 l 0.83432,-0.95361 h 1.90719 v -1.78794 l 0.83445,0.83457 h 1.90717 l 0.83445,-0.83457 h 2.74157 l 0.95362,-0.95362 h 0.95362 l 0.83444,-0.95362 1.9072,-0.83458 v -0.95361 h 1.78797 l 0.95362,0.95361 v 0.83458 h -1.90717 l -0.83444,0.95362 h -0.95362 l -0.95362,0.95362 v 4.52949 l -0.83445,0.95362 -0.95362,1.78794 v 1.78794 l -1.78795,1.90711 v 0.83458 h -0.95362 v 1.90723 h -0.95362 v 5.48299 2.74156 l 1.9072,1.78794 v 1.90711 l 1.78796,1.78794 -0.95362,0.95362 0.95362,0.83457 -1.78796,0.95362 h 0.83432 v 3.69505 l -0.83432,0.83457 h -1.9072 l -0.83444,0.95362 -0.95362,1.90711 v 1.78794 l -2.74158,2.74143 0.95361,1.78794 -0.95361,0.95362 v 0.95362 h -0.95362 v 1.78781 l -0.83432,0.95362 h 0.83432 v 0.83458 h -0.83425 l -0.95362,0.95361 0.95362,0.95362 -0.95362,0.83458 v 2.74156 l 0.95362,0.95361 v 2.74156 h 1.78798 l 0.95362,0.95362 h 1.78799 l 0.95362,0.95362 0.83444,1.78794 v 0.95362 h 1.9072 v 2.74143 h 1.78795 v 0.83457 h -0.95361 v 3.69505 l -0.83432,-0.95362 h -0.95362 l -0.95362,1.90711 v 2.74156 h -0.83445 l 0.83445,0.83458 v 0.95362 h 0.95362 l -0.95362,0.95361 v 4.52937 l 1.9072,1.90711 v -0.95361 h 0.83432 l 0.95362,0.95361 h 2.74158 v 0.83458 h 0.95362 l 0.83445,-0.83458 1.90716,1.78794 v -0.95361 l 1.788,1.90711 v 0.83457 h 0.95362 v 0.95362 l 0.95362,0.95362 h 1.78799 v -0.95362 l 0.95362,-0.95362 0.83432,0.95362 v 3.69505 l 0.95362,0.83457 -0.95362,0.95362 v 1.78794 l 0.95362,1.90711 0.95361,0.83458 v 0.95361 l 0.83432,0.95362 v 0.83458 l -0.83432,0.95362 h -0.95361 v 0.95361 l -0.95362,0.83458 0.95362,0.95362 v 4.64854 l 1.78796,-0.95362 v -0.95362 l 2.74158,-2.74143 v -0.95362 h 0.95362 l 0.95362,-0.83457 h 3.57599 l 0.95362,-0.95362 v -0.95362 h 1.78797 l 0.95362,-0.83457 0.95361,0.83457 h 0.95362 l 0.83432,-0.83457 h 0.95362 l 0.95362,-0.95362 h 1.78796 v -0.95362 h 1.788 l 0.95361,-0.83458 h 1.78799 v 0.83458 l -1.78799,1.90711 v 0.83457 l -0.95361,1.90724 0.95361,0.83457 v 1.90712 l -0.95361,0.95361 v 1.78794 l -0.83433,1.78794 h 1.78797 l 0.95362,0.95362 h 2.74158 l 0.83432,0.95362 h 2.74159 l 2.74158,2.74156 h 7.390307 v -0.95362 h 0.95362 l 0.83445,0.95362 v 0.83457 h 2.74154 l 0.95362,0.95362 1.78797,-0.95362 h 6.43673 l 0.95362,-0.83457 h 0.83432 l 0.95362,0.83457 h 1.78797 l 0.95361,-0.83457 h 4.64879 l 1.78796,-0.95362 0.95362,-0.95362 h 0.83445 v -0.83457 l 0.95362,-0.95362 v -0.95362 l 0.95361,-0.83457 v -0.95362 h 1.78799 l 1.78797,-1.78794 h 0.95362 l 1.78796,-1.90711 h 0.95362 l 0.95362,-0.95362 v -0.83458 l 0.83432,-0.95361 -0.83432,-1.78794 1.78796,-1.90711 h 1.78799 v 0.95361 l 0.95362,0.95362 h 0.95362 l 1.78799,1.78794 v 0.95362 h 0.95362 l 0.95362,0.83458 h 0.83445 l 1.90719,1.90711 h 0.83445 l 2.74159,2.74155 v 0.95362 l 0.95361,0.83458 h 1.78799 l 0.95362,0.95361 h 0.95362 l 0.83445,0.95362 v 0.83458 h 0.95362 v 0.95362 l 0.95362,0.95361 h 0.83432 l 0.95362,-0.95361 h 2.74154 l 0.95362,-0.95362 0.95362,0.95362 h 0.83457 l 1.90724,0.95361 h 0.83457 v 0.83458 h 2.74156 l 1.90711,1.90711 0.83458,-0.95362 H 179.4 v -0.95362 l 1.78806,-1.78794 h 3.69505 v -0.95362 l 0.83458,-0.83457 v -0.95362 l 0.95362,-0.95362 v -1.78794 l 0.95361,-0.95362 v -0.83457 l 1.78794,-1.90711 v -5.48312 l -0.95362,-0.95361 0.95362,-0.83458 h 0.95362 l 0.95362,-0.95362 v -3.69505 h 0.83457 1.90724 v -1.78794 h 0.83458 V 216.014 l 0.95361,-0.83458 h 0.95362 v -1.90711 l 0.83458,-0.83457 h 1.90723 v -0.95362 l 0.83458,-0.95362 v -0.83458 l 0.95362,-0.95361 v -0.95362 h 0.95362 v -0.95362 l 0.83457,-0.83457 v -1.90712 l 0.95362,-0.83457 h 0.95362 l 0.83457,-0.95362 v -0.95362 l -0.83457,-0.83457 v -0.95362 l 0.83457,-0.95362 v -0.83457 l -0.83457,-0.95362 0.83457,-0.95362 h 1.90711 l 0.83458,-0.83457 v -3.69505 h -0.83458 v -1.78794 l -0.95362,-0.95362 v -0.95362 l 0.95362,-0.83457 h -0.95362 v -0.95362 l -0.95362,-0.95362 h -0.83457 v -0.95362 h -1.90711 v -1.78794 h -1.78807 v -2.74143 l -0.95362,-0.95362 v -4.5295 l -0.83457,-0.95361 0.83457,-0.83458 v -1.90724 l 1.90724,-1.78794 v -0.95361 l 0.83458,-0.83458 v -1.90711 l 0.95361,-0.83457 v -2.86073 l -0.95361,-0.83458 0.95361,-0.95361 h 0.95362 v -2.74156 l -0.95362,-0.95362 v -0.83458 l 0.95362,-0.95361 v -5.48299 l -0.95362,0.95362 -1.78793,-1.90711 v -0.83458 h -2.74156 v 0.83458 h -0.95362 l -1.78794,-1.78794 -1.90724,1.78794 v 0.95361 h -0.83457 l -0.95362,-0.95361 v -0.83458 h -1.78807 v 2.74156 l -0.95362,-0.95362 h -1.90723 l -0.83458,0.95362 v 1.78794 l -0.95361,-0.95362 h -0.95362 l -0.83458,-0.83457 h -0.95362 v -4.64867 h -0.95361 v -0.83458 l 0.95361,-0.95362 v -1.78794 l 0.95362,-0.95361 v -2.74156 l -0.95362,-0.95362 v -0.95362 l -0.95361,-0.83457 v -1.90724 l 0.95361,-0.83457 v -4.64867 l 0.95362,-0.83458 v -0.95362 l -0.95362,-0.95361 v -0.83458 l -0.95361,-0.95362 v -1.78794 l 0.95361,-0.95361 v -1.78794 l 0.95362,-0.95362 v -0.95362 l 0.83458,-0.95362 v -0.83457 l -0.83458,-0.95362 h -0.95362 l -1.78802,-1.78794 v -3.69505 h -0.95362 l -0.95362,-0.95362 v -0.83457 l -0.83458,-0.95362 h -1.90711 v -1.78782 l -0.83457,-0.95361 v -2.741558 l 0.83457,-0.95362 -2.74155,-2.74156 v -0.83457 l -0.83458,-0.95362 v -0.95362 l -0.95362,-0.95362 h -0.95362 -0.83457 l -0.95362,0.95362 h -0.95362 l -0.83457,-0.95362 -0.95362,0.95362 h -0.95362 l -0.95362,0.95362 h -2.74158 l -0.83432,-0.95362 -0.95362,0.95362 h -2.74158 l -0.95362,0.95362 h -0.83445 l -0.95362,0.83457 v 0.95362 h -0.95362 l -0.83444,0.95362 h -2.74159 l -0.95361,-0.95362 v -1.78794 l -0.95362,-0.95362 h -0.83445 l -0.95362,-0.95362 v -1.78794 h -5.48315 v -0.95361 l -1.90718,-1.78794 h -1.78799 l -0.95362,-0.95362 h -0.83444 v -0.95362 l -0.95362,-0.83458 0.95362,-0.95361 v -7.27106 l 0.83444,-0.95362 h 0.95362 v -0.95362 h -1.78796 l -0.95362,0.95362 h -0.95362 v -3.69505 l -0.83445,-0.83457 v -0.95362 l -0.95362,0.95362 h -4.52957 v 0.83457 l 0.83445,0.95362 v 3.69505 l 1.90717,1.78807 -0.95362,0.95362 h -1.78799 l -0.95361,-0.95362 h -0.95362 v -1.78807 l -0.83432,-0.95362 v -0.95362 l -0.95362,-0.83457 h -2.74155 l -0.95362,-0.95362 h -1.78796 l -0.95362,0.95362 -0.95362,-0.95362 -1.78796,0.95362 -1.78799,1.78794 v 0.95362 l -1.90718,-1.90711 -1.78799,1.90711 h -1.78796 l -0.95362,-0.95362 h -0.95362 v -0.95362 l 0.95362,-0.83457 h 0.95362 v -0.95362 l -0.95362,-0.95362 h -0.95362 l -3.57595,-3.69518 -0.95362,0.95362 h -3.695187 l -0.95362,-0.95362 h -2.74157 v 0.95362 h -0.83445 l -0.95362,-0.95362 -0.95361,-0.83457 h -0.83445 v -2.74143 l -0.95362,-0.95362 h -0.95362 v -1.78794 l -0.83432,-0.95362 h -0.95362 l -0.95362,-0.95362 h -0.83445 l -0.95361,-0.83457 h -0.95362 l -0.83432,0.83457 -0.95362,-0.83457 h -0.95362 v -1.90711 l -0.83432,-0.83458 h -0.95362 l -1.788,-1.90723 h -2.86078 l -0.83432,-0.83458 v -0.95362 l -0.95362,-0.95361 z"
       style="fill:#000000;fill-opacity:1;fill-rule:evenodd;stroke:#d38d5f;stroke-width:1.67538;stroke-linecap:butt;stroke-linejoin:miter;stroke-miterlimit:4;stroke-dasharray:none;stroke-opacity:1"
       id="Cholchol" />
  </g>
</svg>
