<?xml version="1.0" encoding="UTF-8" standalone="no"?>
<!-- Created with Inkscape (http://www.inkscape.org/) -->

<svg
   width="210mm"
   height="297mm"
   viewBox="0 0 210 297"
   version="1.1"
   id="svg57"
   inkscape:version="1.1.2 (b8e25be833, 2022-02-05)"
   sodipodi:docname="vector.svg"
   xmlns:inkscape="http://www.inkscape.org/namespaces/inkscape"
   xmlns:sodipodi="http://sodipodi.sourceforge.net/DTD/sodipodi-0.dtd"
   xmlns="http://www.w3.org/2000/svg"
   xmlns:svg="http://www.w3.org/2000/svg">
  <sodipodi:namedview
     id="namedview59"
     pagecolor="#ffffff"
     bordercolor="#666666"
     borderopacity="1.0"
     inkscape:pageshadow="2"
     inkscape:pageopacity="0.0"
     inkscape:pagecheckerboard="0"
     inkscape:document-units="mm"
     showgrid="false"
     inkscape:zoom="0.74029882"
     inkscape:cx="361.34057"
     inkscape:cy="453.87078"
     inkscape:window-width="1920"
     inkscape:window-height="1017"
     inkscape:window-x="-8"
     inkscape:window-y="-8"
     inkscape:window-maximized="1"
     inkscape:current-layer="layer1" />
  <defs
     id="defs54" />
  <g
     inkscape:label="Capa 1"
     inkscape:groupmode="layer"
     id="layer1">
    <path
       inkscape:connector-curvature="0"
       id="Laja"
       style="fill:#000000;fill-opacity:1;fill-rule:evenodd;stroke:#d39062;stroke-width:0.92351;stroke-linecap:butt;stroke-linejoin:miter;stroke-miterlimit:4;stroke-dasharray:none;stroke-opacity:1"
       d="m 48.067343,200.42625 c 1.0727,-1.11931 2.23891,-2.44461 4.15581,-3.80951 1.20137,-0.85587 2.60232,-1.61985 4.15579,-2.19339 1.55347,-0.57344 3.27336,-0.92361 5.19475,-0.92361 2.77276,0 4.65853,0.38547 6.00282,1.09669 1.3443,0.71084 2.13477,1.72204 2.82825,2.886 0.69348,1.16396 1.25758,2.50911 2.0779,3.86715 0.82028,1.35813 1.91154,2.74688 3.63633,4.04042 1.9381,1.45354 3.62647,2.41474 5.25247,3.05908 1.62598,0.64404 3.2075,0.96435 4.79071,1.09669 3.16644,0.2643 6.47065,-0.2309 11.08213,-0.2309 2.19544,0 3.961527,0.42268 5.483347,0.98124 1.52181,0.55913 2.82496,1.25918 4.15579,1.90476 1.33084,0.64595 2.70644,1.24124 4.32896,1.50068 1.62252,0.25952 3.49054,0.19559 5.88738,-0.40361 1.80585,-0.45131 3.35375,-0.23472 4.73299,0.28815 1.37925,0.52287 2.57745,1.38781 3.75177,2.25102 1.17432,0.8635 2.32985,1.73893 3.52088,2.30874 1.19104,0.56963 2.43777,0.81866 3.8672,0.46181 6.23108,-1.55783 12.69528,-2.20703 19.79777,-3.98269 1.30945,-0.32728 5.11494,-0.48185 8.83107,-0.80816 1.85807,-0.16316 3.69306,-0.3435 5.19475,-0.63451 1.50168,-0.29197 2.66799,-0.70511 3.17457,-1.21214 1.40965,-1.40966 3.21646,-2.92656 4.90615,-4.67522 1.68969,-1.74866 3.30046,-3.71496 4.38667,-5.88745 0.63604,-1.27197 1.32434,-2.30168 2.07791,-3.17453 0.75358,-0.87304 1.54694,-1.59046 2.42421,-2.30874 1.75454,-1.43656 3.77405,-2.79288 6.06055,-5.07939 1.60356,-1.60353 3.26533,-2.98857 5.3679,-4.09805 2.10258,-1.10948 4.64286,-1.97078 7.84984,-2.53964 2.12411,-0.37689 4.22495,-0.71943 6.34916,-1.0967 L 198.8305,151.36483 179.43676,135.5497 167.14253,105.59329 h -14.08354 l -1.38527,-11.312997 c -2.3219,-0.91693 -5.4438,-2.0641 -8.88879,-3.17463 -3.67175,-1.18352 -7.51457,-2.26475 -10.62038,-2.8859 -1.8117,-0.36258 -3.71166,-1.12647 -5.59878,-2.02021 -1.88712,-0.89404 -3.8019,-1.93319 -5.65651,-2.94373 -1.85461,-1.01044 -3.65374,-1.94244 -5.36791,-2.65509 -1.71416,-0.71275 -3.32489,-1.21205 -4.79071,-1.21205 -2.95466,0 -7.9285,-0.64691 -12.813707,-0.98125 -2.44259,-0.16697 -4.83587,-0.24044 -6.98405,-0.11545 -2.14818,0.125 -4.0322,0.42841 -5.36791,1.0967 -1.24237,0.62114 -2.20663,1.42673 -3.05913,2.25101 -0.85253,0.82438 -1.61,1.69351 -2.42421,2.48192 -0.81427,0.78813 -1.7007,1.5065 -2.82826,2.02021 -1.12755,0.51333 -2.47873,0.80816 -4.27123,0.80816 -4.13258,0 -6.92328,-0.0477 -9.17739,0.40361 -1.12706,0.22804 -2.1063,0.61733 -3.05913,1.15432 -0.95281,0.53718 -1.91043,1.21787 -2.88597,2.19339 -1.21398,1.21395 -2.09722,2.0098 -2.94369,2.53964 -0.84652,0.52955 -1.65598,0.84919 -2.53966,1.03897 -1.76734,0.37975 -3.96716,0.41505 -8.31159,1.50068 -1.42109,0.35494 -2.77605,1.10509 -4.04036,2.02021 -1.26433,0.91502 -2.4487,1.97097 -3.52089,3.001347 -1.0722,1.03048 -2.04128,2.01172 -2.88597,2.71282 -0.84471,0.7013 -1.55377,1.11168 -2.13563,1.03897 -6.44553,-0.8053 -12.943,-1.14449 -19.451446,-1.26977 -3.801387,-0.0763 -7.616914,-0.0191 -11.42844298,0 0.367441,1.20918 0.78487898,2.34128 1.15438998,3.52079 0.465909,1.48761 0.808065,3.16375 0.808065,5.42564 0,2.02661 0.792035,3.84769 1.731581,5.59883 0.939546,1.75104 2.043042,3.39341 2.828255,4.96384 1.85208,3.70417 2.546391,8.09429 3.809478,10.62038 1.713776,3.42767 2.247086,7.61102 3.751761,10.62039 1.615481,3.23092 3.023559,7.49013 4.559836,10.56266 0.749862,1.49973 1.50813,3.34619 2.077893,5.3102 0.56982,1.96401 0.92352,4.05769 0.92352,6.06053 0,1.88634 -0.0353,3.15736 -0.34635,4.4444 -0.31144,1.28705 -0.87858,2.56513 -1.904743,4.61758 -0.382135,0.76427 -0.533557,1.67195 -0.519531,2.6551 0.01431,0.98306 0.221934,2.06811 0.46171,3.11681 0.479648,2.09749 1.198384,4.15864 1.558424,5.59882 0.18138,0.72515 0.92829,1.35441 1.96246,1.90466 1.03415,0.55055 2.35333,1.0279 3.75176,1.44305 2.79688,0.83011 5.8343,1.43332 7.15721,1.96249 3.91276,1.56498 7.04641,3.8805 10.62038,5.31009 0.66819,0.26716 1.34026,0.80244 1.96246,1.5585 0.41286,0.50188 0.74042,1.19755 1.09667,1.84704 z" />
  </g>
</svg>
