<?xml version="1.0" encoding="UTF-8" standalone="no"?>
<!-- Created with Inkscape (http://www.inkscape.org/) -->

<svg
   width="210mm"
   height="297mm"
   viewBox="0 0 210 297"
   version="1.1"
   id="svg1283"
   inkscape:version="1.1.2 (b8e25be833, 2022-02-05)"
   sodipodi:docname="dibujo.svg"
   xmlns:inkscape="http://www.inkscape.org/namespaces/inkscape"
   xmlns:sodipodi="http://sodipodi.sourceforge.net/DTD/sodipodi-0.dtd"
   xmlns="http://www.w3.org/2000/svg"
   xmlns:svg="http://www.w3.org/2000/svg">
  <sodipodi:namedview
     id="namedview1285"
     pagecolor="#ffffff"
     bordercolor="#666666"
     borderopacity="1.0"
     inkscape:pageshadow="2"
     inkscape:pageopacity="0.0"
     inkscape:pagecheckerboard="0"
     inkscape:document-units="mm"
     showgrid="false"
     inkscape:zoom="0.74029882"
     inkscape:cx="361.34057"
     inkscape:cy="561.93525"
     inkscape:window-width="1920"
     inkscape:window-height="1017"
     inkscape:window-x="-8"
     inkscape:window-y="-8"
     inkscape:window-maximized="1"
     inkscape:current-layer="layer1" />
  <defs
     id="defs1280" />
  <g
     inkscape:label="Capa 1"
     inkscape:groupmode="layer"
     id="layer1">
    <path
       d="m 56.008612,8.5293429 v 1.28844 h -0.68721 l -0.60124,0.6872101 h -0.6872 v 1.28844 l 0.6872,0.68721 v 1.28844 l -0.6872,0.68721 h -1.28848 v 1.28844 h -1.37437 l -0.60133,0.68721 h -0.68721 v 1.28844 h -1.97566 v 0.68721 h -0.68721 l -1.28847,1.28845 h -2.66285 v 2.06143 h -0.6872 v 0.60142 h -0.60133 l -0.68721,0.68721 v 1.28845 l -0.68721,0.6872 v 0.68721 h -1.28848 l -0.6872,0.60142 h -1.28849 l -1.28847,1.37432 v 0.60142 l -0.6872,0.68721 v 1.97565 h 0.6872 v 1.97556 l -0.6872,0.68721 v 0.60142 h -0.68721 v 2.66276 h -0.60133 l -1.37438,0.68721 h -3.26413 l -0.68721,0.68721 h -1.28817 v 0.60142 h -0.6872 l -0.68721,0.68721 h -0.60133 l -0.68721,0.6872 h -2.66285 l -0.60132,-0.6872 H 21.04783 l -0.687206,0.6872 h -0.601329 v 1.97565 l -0.687207,0.60142 v 0.68721 h -0.687207 v 1.97565 l 0.687207,0.68721 v 1.97565 h -0.687207 v 1.97556 h -3.95133 l -0.601238,0.60142 h -0.687206 v -0.60142 h -1.975661 l -0.687207,0.60142 v 2.66277 l -0.6872071,0.6872 h -1.288472 l -0.687206,0.68721 h -0.601329 l -0.687207,0.60142 v 0.68721 h -0.687207 v 0.6872 l -0.601329,0.60142 -0.687207,-0.60142 h -0.687207 v -0.6872 h -0.601328 l -0.687207,-0.68721 H 0.60366291 v 1.37441 l 1.28848099,1.28845 v 0.68721 l 1.975661,1.97565 1.374368,1.97556 0.601329,0.60142 1.374377,0.6872 1.97566,1.97566 v 0.6872 l 0.601238,0.60142 v 0.68721 l 0.6872071,0.68721 v 1.28844 l 0.687207,0.68721 v 1.28844 l 0.687206,0.68721 v 3.26409 l -0.687206,0.68721 v 0.68721 l -0.687207,0.60142 v 1.37432 l 0.687207,0.60142 v 1.97565 h 0.687206 l 0.601238,0.68721 v 1.97565 l -0.601238,0.68721 0.601238,0.60142 v 1.37432 l 0.687207,0.68721 h 0.687207 v 0.60142 l 0.601237,0.6872 v 1.28845 l 0.687207,0.68721 v 0.6872 l 0.687207,0.60142 v 0.68721 l 0.601329,0.68721 v 2.57679 l 0.687207,0.68721 v 0.68721 l 0.687207,0.60142 v 6.614067 l 0.601328,0.6872 v 1.97566 l -0.601328,0.6872 v 1.97565 l 0.601328,0.60142 v 0.68721 l 0.687207,0.68721 v 1.28844 l 0.687207,0.68721 -0.687207,0.60142 v 1.37432 l 0.687207,0.60142 v 2.66277 h -0.687207 v 5.32562 l 0.687207,0.60142 v 0.68721 l 0.601329,0.68721 v 0.60142 l 0.687207,0.6872 v 0.68721 l 0.687211,0.60142 v 1.37441 l 0.60132,0.60142 v 1.97556 l 0.68721,0.68721 v 0.68721 l 0.68721,0.60142 v 0.68721 l 0.60133,0.6872 v 0.68721 l 1.37437,1.28844 v 1.97556 l 0.60132,1.28845 v 1.37441 h 0.68721 v 0.60142 l 0.68721,0.68721 v 3.264 l 0.6872,0.68721 v 0.68721 l -0.6872,0.60142 0.6872,0.6872 v 1.28845 l 0.60124,0.68721 v 1.37432 h -0.60124 l -1.37437,1.28844 v 3.95121 l 0.6872,0.68721 v 1.97556 l 0.68721,0.60142 v 0.68721 l 0.60124,0.6872 v 0.60142 l 0.68721,0.68721 v 0.68721 l 0.6872,0.60142 v 1.37432 l 0.60133,0.60142 v 0.68721 l 0.68721,0.6872 v 0.68721 l 1.28847,1.28836 v 0.6872 0.60142 l 0.68721,0.68721 v 0.68721 l 0.6872,0.60142 v 0.6872 l 0.60133,0.68721 v 1.28844 l 0.68721,0.68721 v 0.60142 l 0.68721,0.68721 v 0.6872 l 0.60133,0.60142 h 0.6872 l 0.68721,0.68721 v 1.28845 l 0.60133,0.6872 v 0.68721 l 1.37437,1.28844 v 1.97556 l 0.60132,0.68721 v 1.28845 l 0.68721,0.6872 v 0.68721 l 0.68721,0.60142 v 0.68721 l 1.28848,1.28844 v 0.68721 l 0.68721,0.6872 v 0.60142 l 1.28848,1.37433 v 0.60142 l 0.6872,0.6872 v 1.28845 l 1.28848,1.37432 v 0.60142 l 0.6872,0.68721 v 0.6872 l 0.68721,0.68721 v 0.60142 l 0.60133,0.68721 v 0.68721 l 0.68721,0.60142 v 0.6872 l 0.6872,0.68721 v 0.60142 l 0.60133,0.68721 v 1.28844 l 0.68721,0.68721 v 0.6872 h 0.6872 l 0.60133,0.60142 v 0.68721 l 0.68721,0.68721 v 0.60142 l 0.68721,0.68721 v 1.28844 l 0.60124,0.68721 v 0.6872 l 0.6872,0.60142 v 0.68721 l 1.28847,-1.28844 v -2.66277 l -0.60123,-0.68721 0.60123,-0.60142 v -1.97565 l 0.68721,-0.68721 v -0.6872 l 0.68721,-0.60142 v -0.68721 h 0.60133 l 0.6872,-0.68721 h 0.68721 l 0.68721,-0.60142 h 1.28847 l 0.68721,-0.6872 h 3.95132 l 0.60133,0.6872 h 1.37436 l 1.28848,1.28845 h 0.68721 l 0.60124,0.6872 h 1.37438 l 0.60123,0.60142 h 0.68721 l 0.68721,0.68721 h 2.66285 l 0.60133,-0.68721 h 1.97566 l 0.6872,-0.60142 h 0.68721 l 2.57695,-2.66276 v -0.68721 l 1.37437,-1.28844 v -2.66277 l 0.60133,-0.68721 v -9.19086 l -0.60133,-0.68721 v -0.60142 l -0.68721,-0.68721 v -0.68721 l -0.6872,-0.60142 v -2.66276 l -0.60133,-0.68721 v -3.9513 l 0.60133,-0.68721 v -0.60142 h 0.6872 l 0.68721,-0.68721 v -0.6872 h 0.60133 l 0.68721,-0.60142 h 0.6872 l 0.60133,-0.68721 h 0.68721 l 0.68721,-0.68721 h 2.57695 l 0.68721,-0.60142 h 1.97566 l 0.6872,-0.6872 h 1.28847 l 0.68721,-0.68721 h 1.28847 l 0.68721,0.68721 h 0.687208 l 0.60133,0.6872 h 1.97565 l 0.6872,0.60142 h 1.97566 l 0.68721,0.68721 h 9.19112 l 1.37438,1.28844 h 0.60124 l 0.68721,0.68721 h 1.97566 v 1.28845 l 0.6872,0.6872 v 2.66286 l 0.60133,0.60142 -0.60133,0.68721 0.60133,0.68721 h 0.68721 v 0.6872 h 0.68721 l 1.28847,1.28845 h 0.6872 l 0.60133,0.6872 h 1.37437 l 0.68721,0.60142 h 1.28848 l 0.68721,0.68721 h 0.60132 l 0.68721,0.68721 h 1.28848 l 0.68721,0.60142 v 0.6872 l 0.68721,0.68721 v 0.60142 l -0.68721,0.68721 v 1.97556 l -0.68721,0.6872 v 2.57689 l -0.60133,0.68721 v 0.68721 l -0.6872,0.60142 v 1.37441 l -0.68721,0.68721 v 4.55254 l -1.28847,1.37432 v 1.28845 l -0.68721,0.6872 v 1.28854 l -0.60133,0.6872 v 1.28845 l -0.6872,0.68721 v 0.60142 l -0.68721,0.6872 v 0.68721 l -0.68721,0.60142 v 1.37432 l -0.60133,0.68721 v 1.28835 l 1.28848,1.28845 h 0.68721 l 0.68721,0.6872 h 2.57695 v 1.28845 l 0.68721,0.68721 h 0.6872 l 0.60133,0.6872 v 0.60142 l -0.60133,0.68721 0.60133,0.68721 h 0.68721 l 0.68721,0.60142 v 0.6872 l -0.68721,0.68721 h -0.68721 l 1.37438,1.28835 v 1.97565 h 2.57694 v -0.6872 h 2.66285 l 0.68721,0.6872 h 0.60124 l 0.6872,-0.6872 h 1.28849 l 0.6872,0.6872 h 0.68721 l 0.68721,0.68721 v 1.28845 l -0.68721,0.6872 v 2.66277 l -0.68721,0.60142 v 0.68721 l 5.92697,1.97556 v -1.97556 l 2.66285,0.6872 0.68721,-0.6872 5.2398,1.97556 v 1.97565 l 7.90264,1.28844 -0.60123,0.68721 v 0.68721 l -0.68721,0.60142 v 0.6872 h -0.68721 l 0.68721,0.68721 h 0.68721 l -1.37438,1.28854 v 0.6872 l 0.68721,0.60142 -0.68721,0.68721 h -0.60133 v 0.68721 l 0.60133,0.6872 h 1.97566 v 3.2641 l -0.60124,0.68721 v 3.26409 l -0.6872,0.68721 v 1.28844 h -1.97567 l -0.6872,0.68721 v 0.60142 h -3.95132 v 2.66277 l 0.6872,0.6872 v 1.28845 l 0.60133,0.68721 v 0.6872 h 0.68721 l 1.97566,1.97556 -0.60124,0.60142 v 1.97556 l 0.60124,0.68721 v 0.68721 l 0.68721,0.60142 v 0.6872 l 0.6872,0.68721 v 1.28844 l -0.6872,0.68721 v 0.60142 l -1.28847,1.37432 v 0.60142 h 1.97565 l -0.68721,0.68721 v 0.68721 l 0.68721,0.60142 -0.68721,0.6872 v 1.37433 l 0.68721,1.28844 0.60133,-0.68721 h 0.6872 v -0.60142 l 1.28847,-1.37432 v -0.6872 h 0.68721 l 0.68721,0.6872 v 0.68721 h 1.97566 l 0.60133,0.68721 v 1.28844 l 0.6872,0.68721 v -0.68721 l 1.28848,-1.28844 h 0.68721 v -0.68721 l 0.68721,-0.68721 h 1.28848 l 0.68721,-0.6872 h 7.90265 v -0.60143 l 1.28847,-1.37441 h 2.66285 l 0.68721,0.68721 h 1.28847 l 0.6872,0.6872 h 1.97566 l 0.60133,0.60143 h 1.37437 l 1.97566,2.06152 h 1.28844 l 0.6872,0.60142 h 1.28845 l 0.68721,0.68721 h 0.6872 l 0.60142,-0.68721 v -1.28844 l 0.68721,-1.37432 h -0.68721 l -0.60142,-0.60142 h -0.6872 v -1.37442 l -0.68721,-0.60142 v -0.6872 l -0.60142,-0.68721 v -3.2641 l -0.68721,-0.6872 v -0.60142 l 0.68721,-0.68721 v -0.68721 l -0.68721,-0.60142 v -2.66285 l -0.68721,-0.68721 0.68721,-0.60142 v -1.37442 l -1.28845,-1.28844 0.60133,-0.68721 -0.60133,-0.6872 0.60133,-0.60142 v -1.97566 l 0.6872,-0.6872 v -1.28845 h 1.28845 l 0.6872,0.60142 v -0.60142 l 3.2641,-3.34997 v -1.28844 l -0.60142,-0.68721 v -1.28845 l -0.68721,-0.6872 h -3.26409 l -0.68721,-1.28845 v -1.37441 h -0.68721 v -0.60142 l -0.60132,-0.68721 -0.68721,-0.68721 0.68721,-0.60142 v -2.66276 l 0.60132,-0.68721 h -0.60132 v -3.9513 h 0.60132 l 0.68721,-0.60142 V 238.742 l -0.68721,-0.60142 0.68721,-0.68721 h 0.68721 l 0.60142,-0.68721 h 0.6872 l 0.68721,-0.60142 h 1.97565 l 0.60142,-0.6872 h 0.68721 l 1.28854,-1.37433 h 0.6872 v -0.60142 h 0.68721 l 0.60142,-0.6872 v -1.97566 l -0.60142,-0.6872 v -0.60142 l 0.60142,-0.68721 v -0.68721 l -0.60142,-0.60142 v -0.6872 l 0.60142,-0.68721 v -0.60142 h -0.60142 l -0.68721,-0.68721 0.68721,-0.6872 v -0.60142 l -0.68721,-0.68721 -0.6872,-0.68721 h 0.6872 l 0.68721,-0.60142 v -1.97556 h 1.28844 l 0.68721,-0.68721 h 0.60142 v -2.66276 l 1.37432,-1.28845 v -1.37432 l -0.6872,-0.60142 0.6872,-0.68721 v -0.6872 l -0.6872,-0.60142 v -1.37433 h -0.68721 v -1.28844 l -0.60142,-0.68721 h 0.60142 V 206.443 l -0.60142,-0.68721 h -0.68721 l -0.6872,-0.60142 v -1.37432 h -0.60142 l -1.37433,-1.28845 v -0.6872 l -1.28853,-1.28845 h -0.68721 l 0.68721,-1.37432 v -0.60142 h -0.68721 V 194.589 l -0.60142,-0.68721 v -1.28844 h -0.68721 l -1.28844,-1.37442 h -0.68721 v -0.60142 l -1.28844,-1.37432 v -1.28844 l -0.68721,-0.68721 v -0.60142 l -0.68721,-0.68721 v -1.37432 l -0.60132,-0.60142 v -0.68721 h 2.57689 l 0.68721,0.68721 h 1.28844 l 0.68721,-0.68721 v 0.68721 l 1.28845,1.28845 v -0.68721 l 0.6872,-0.60142 v -1.97565 l 0.68721,-0.68721 v -1.28835 l 0.60142,-0.68721 0.68721,-0.68721 h 0.6872 v -1.28844 l -0.6872,-0.68721 h -0.68721 v -0.60142 l -0.60142,-0.6872 v -3.2641 l -0.68721,-0.68721 v -0.6872 h -0.6872 l 0.6872,-0.60142 v -0.68721 l -1.28844,-1.37432 v -0.60142 h -0.68721 l -0.68721,-0.68721 h -0.60142 l -0.6872,-0.68721 v -2.57689 l -0.68721,-0.6872 h -0.60142 l -0.68721,-0.68721 v -0.60142 h -0.6872 v -0.68721 l -0.60133,-0.6872 h -0.68721 l -1.28847,-1.28845 V 158.253 h -0.68721 l -1.37437,-1.28844 v -1.97565 l 0.68721,-0.68721 h 0.68721 l 0.6872,-0.60142 v -0.68721 l -1.37437,-1.37441 v -0.60142 h 0.6872 v -0.68721 l -0.6872,-0.6872 v -1.28845 l 0.6872,-0.6872 v -1.28845 h 0.68721 l 0.60133,-0.68721 -0.60133,-0.60142 v -1.37432 l -0.68721,-0.60142 v -0.6872 h -0.6872 v -1.28845 l -0.68721,-0.68721 v -1.97556 l -0.60133,-0.6872 v -1.28845 l 0.60133,-0.6872 v -1.97556 l -0.60133,-0.68721 v -0.60142 l -0.6872,-0.68721 h -0.68721 v -5.23965 l 0.68721,-0.68721 v -0.68721 l -0.68721,-0.60142 v -0.6872 l -0.60124,-0.68721 h -1.97566 l -0.68721,-0.60142 h -2.66281 v -0.68721 l -1.97566,-1.97556 h -0.60133 l -0.68721,-0.68721 v -1.97556 l 0.68721,-0.6872 v -0.60142 l -0.68721,-0.68721 0.68721,-0.68721 v -1.28853 h -0.68721 l -0.6872,-0.68721 v -1.28844 h -0.60133 l -0.68721,-0.68721 v -2.57689 l 0.68721,0.60142 h 0.60133 v -1.97565 h 0.6872 v -0.60142 l -0.6872,-0.68721 h -0.60133 l -0.68721,-0.6872 0.68721,-0.60142 h 0.60133 0.6872 l 1.28848,-1.37433 v -0.6872 h 1.97566 l 1.37437,-1.28845 v -0.68721 h 1.28848 l 0.6872,-0.601417 h 1.97566 l 0.60124,-0.6872 v -3.2641 l -0.60124,-0.6872 0.60124,-0.68721 v -1.28845 l -0.60124,-0.6872 v -1.28845 l 0.60124,-0.6872 v -0.60142 l 0.68721,-0.68721 v -0.68721 l 0.6872,-0.60142 v -2.06153 l -0.6872,-0.60142 0.6872,-0.6872 v -1.97566 l -0.6872,-0.6872 h -0.68721 v -0.60142 l -0.60124,-0.68721 v -1.28844 l -0.6872,-0.68721 v -1.97565 h 0.6872 l 0.60124,-0.68721 h 0.68721 l 0.6872,-0.60142 h 2.66285 l 1.28848,1.28835 h 0.6872 l 0.60124,0.68721 h 0.68721 l 0.6872,0.60142 h 1.28845 l 0.68721,0.68721 h 1.28844 l 0.68721,-0.68721 h 0.60142 l 0.6872,0.68721 h 1.28854 l 0.68721,-0.68721 v -0.60142 l 0.6872,-0.68721 h 1.28845 l 0.6872,-0.6872 h 1.28854 l 0.68721,-0.60142 v -3.34998 h -1.37433 l -0.60142,-0.60142 v -0.6872 l 0.60142,-0.68721 -0.60142,-0.68721 v -3.9513 l 0.60142,-0.60142 v -1.37432 l 0.68721,-0.60142 h -1.97574 l -0.68721,-0.68721 v -0.68721 h -0.60142 l -0.68721,-0.60142 v -0.6872 l -0.6872,-0.68721 h -1.28854 l -0.6872,-0.60142 0.6872,-0.68721 v -1.28844 l 0.68721,-0.68721 v -0.68721 l 0.60142,-0.60142 -0.60142,-0.6872 v -1.37433 h -1.97565 l -0.68721,-0.60142 h -1.28844 l -0.68721,-0.6872 h -0.68721 l -0.60142,-0.68721 v -1.97565 l -0.6872,-0.60142 v -0.68721 h -0.68721 l -0.60133,-0.6872 v -1.28836 h -1.37519 l -0.60133,-0.6872 v -1.28845 l -0.68721,-0.68721 h -0.6872 v -0.60142 l -0.68721,-0.6872 v -0.68721 h -1.28848 v -0.60142 l -0.68721,-0.68721 h -0.60123 v -0.6872 l -0.68721,-0.60142 h -3.95132 l -0.68721,-0.68721 h -1.28847 v -0.68721 h -0.68721 l -0.60133,-0.6872 -0.6872,-0.60142 h -1.97566 l -1.28848,1.28835 v 0.68721 l -0.68721,0.6872 0.68721,0.60142 v 1.37433 l -0.68721,0.60142 v 1.37432 l -0.68721,0.60142 v 1.97565 l -0.68721,0.68721 v 0.6872 l 0.68721,0.60142 -0.68721,0.68721 v 0.68721 l -0.60132,0.60142 0.60132,0.6872 -1.28847,1.28845 h -2.66285 v -0.60142 l -0.60133,-0.68721 h -0.6872 v -2.66286 l -0.68721,-0.60142 0.68721,-0.6872 v -0.68721 l -0.68721,-0.60142 v -0.68721 l 0.68721,-0.6872 v -0.60142 l -0.68721,-0.68721 0.68721,-0.68721 -1.28847,-1.28844 v -0.68721 h 0.60132 v -0.60142 l -0.60132,-0.68721 v -1.37432 l -0.68721,-0.60142 v -0.68721 l -0.68721,-0.6872 0.68721,-0.60142 0.68721,0.60142 h 1.28847 l 0.6872,-0.60142 -0.6872,-0.68721 v -1.97556 l -0.68721,-0.68721 h -0.60133 v -0.60142 h -0.6872 l -1.28848,-0.6872 -0.6872,-0.68721 0.6872,-0.60142 v -1.37432 l -0.6872,-0.60142 v -3.34998 l -0.68721,-0.60142 v -0.6872 l -0.60124,-0.68721 v -0.68721 l -0.6872,-0.60142 v -0.6872 l 0.6872,-0.68721 v -0.60142 h -0.6872 v -1.97556 l 0.6872,-0.68721 v -1.28844 l -0.6872,-0.68721 h -1.28849 l -0.6872,0.68721 h -0.68721 l -0.60124,0.60142 h -1.37437 l -0.68721,-0.60142 h -0.60133 l -0.68721,0.60142 h -0.6872 l -0.60133,0.6872 h -0.68721 v 0.68721 l -0.68721,0.60142 h -1.28847 l -0.68721,-0.60142 h -0.60132 l -1.37437,1.28845 -0.60133,-0.68721 h -4.63851 l -0.68721,-0.60142 h -0.60123 l -0.68721,-0.68721 H 140.446 v -1.28844 l -0.68721,-0.68721 v -0.68721 h -1.28847 l -0.68721,-0.60142 h -0.60123 l -0.68721,-0.6872 -0.68721,0.6872 h -1.97566 l -0.60124,0.60142 h -0.6872 v 0.68721 l -0.68721,0.68721 h -1.28848 l -0.68721,0.60142 v 1.37432 l 0.68721,0.60142 -0.68721,0.68721 v 1.97565 l -0.60133,0.6872 0.60133,0.60142 v 2.66277 l 0.68721,0.68721 v 1.28844 l 0.68721,0.68721 h 0.60132 v 1.97556 l -0.60132,0.68721 v 0.60142 h -0.68721 v 1.37441 l 0.68721,0.60142 h -0.68721 l -0.68721,0.68721 v 1.28844 l -0.60133,0.68721 0.60133,0.68721 -1.28847,1.28844 0.68721,0.68721 v 0.60142 h -0.68721 l -0.68721,0.6872 0.68721,0.68721 -0.68721,0.68721 h -0.60133 l -0.6872,0.60142 v 0.6872 h -0.68721 l -0.68721,0.68721 h -1.28848 l -0.6872,-0.68721 h -1.28763 l -1.28847,1.28845 h -1.97566 v 0.68721 l -1.37438,1.28844 -0.60123,-0.60142 h -1.37438 l -0.60124,0.60142 h -1.37438 l -0.60133,-0.60142 h -1.37436 l -0.60133,0.60142 h -1.37437 v 0.68721 l -0.68721,0.6872 h -0.60133 l -1.37436,1.28854 h -2.57692 v 3.95121 l 0.60133,0.68721 v 0.60142 h 0.68721 v 4.63833 h -0.68721 l -0.60133,0.6872 h -3.35003 v 0.68721 h -0.60133 l -0.687198,0.60142 h -1.97567 l -0.6872,-0.60142 h -2.57695 l -0.6872,0.60142 h -1.97566 l -0.68721,-0.60142 h -0.68721 l -0.60133,-0.68721 h -1.37436 v -0.6872 h -0.60133 v -0.60142 h -0.68721 v -0.68721 l -0.68721,-0.68721 h -0.60132 v -0.68721 l -1.37437,-1.28844 v -0.68721 h -0.60133 v -5.23965 l -0.68721,-0.68721 0.68721,-0.60142 v -1.37432 l 0.60133,-0.60142 h 0.6872 v -0.68721 h 0.68721 v -1.97556 h 0.60133 v -2.66286 h -0.60133 v -1.28835 l -0.68721,-0.68721 v -0.6872 l -0.6872,-0.60142 v -3.34998 l -0.60133,-0.60142 v -0.6872 l -1.37437,-1.28845 h -0.60097 v -0.68721 h -0.68721 l -0.68721,-0.6872 v -1.28845 h -0.60133 l -0.6872,-0.6872 h -0.68721 v -0.60142 h -0.60133 v -0.68721 l -1.37438,-1.28845 v -0.6872 l -0.6872,-0.68721 h -0.60133 l -1.37438,-1.28844 v -1.37433 l -0.60124,-0.60142 h -1.37437 v -1.97556 h -1.28847 v -1.37432 h -0.68721 v -0.60142 h -1.28847 l -0.68721,-0.68721 v -0.6872 l -1.28847,-1.28845 h -1.28848 v 0.68721 h -0.68721 l -0.68721,-0.68721 h -1.28848 l -0.6872,0.68721 h -2.66285 l -0.60133,-0.68721 V 9.2148129 h -0.68721 v -0.68721 z"
       style="fill:#000000;fill-opacity:1;fill-rule:evenodd;stroke:#d38d5f;stroke-width:1.20733;stroke-linecap:butt;stroke-linejoin:miter;stroke-miterlimit:4;stroke-dasharray:none;stroke-opacity:1"
       id="Carahue" />
  </g>
</svg>
