<?xml version="1.0" encoding="UTF-8" standalone="no"?>
<!-- Created with Inkscape (http://www.inkscape.org/) -->

<svg
   width="210mm"
   height="297mm"
   viewBox="0 0 210 297"
   version="1.1"
   id="svg1283"
   inkscape:version="1.1.2 (b8e25be833, 2022-02-05)"
   sodipodi:docname="vector.svg"
   xmlns:inkscape="http://www.inkscape.org/namespaces/inkscape"
   xmlns:sodipodi="http://sodipodi.sourceforge.net/DTD/sodipodi-0.dtd"
   xmlns="http://www.w3.org/2000/svg"
   xmlns:svg="http://www.w3.org/2000/svg">
  <sodipodi:namedview
     id="namedview1285"
     pagecolor="#ffffff"
     bordercolor="#666666"
     borderopacity="1.0"
     inkscape:pageshadow="2"
     inkscape:pageopacity="0.0"
     inkscape:pagecheckerboard="0"
     inkscape:document-units="mm"
     showgrid="false"
     inkscape:zoom="0.52347032"
     inkscape:cx="155.69173"
     inkscape:cy="611.30496"
     inkscape:window-width="1920"
     inkscape:window-height="1017"
     inkscape:window-x="-8"
     inkscape:window-y="-8"
     inkscape:window-maximized="1"
     inkscape:current-layer="layer1" />
  <defs
     id="defs1280" />
  <g
     inkscape:label="Capa 1"
     inkscape:groupmode="layer"
     id="layer1">
    <path
       d="m 185.78614,137.00233 -0.77019,0.14472 c 0.44239,0.11041 0.67738,0.24694 0.72214,0.38495 0.0448,0.13801 -0.11861,0.26782 -0.38494,0.43343 -0.5334,0.33123 -1.5785,0.71618 -2.84008,1.15528 -1.26159,0.43866 -2.74474,0.94893 -4.04356,1.49226 -1.29881,0.5431 -2.43559,1.13588 -3.08082,1.78111 -1.20429,1.20429 -2.17799,1.88667 -3.0327,2.21432 -0.85463,0.3275 -1.58416,0.30736 -2.31056,0 -1.45279,-0.61397 -2.88365,-2.24692 -5.15071,-3.94724 -0.41255,-0.30885 -0.23052,-0.95468 0.24096,-1.73299 0.47148,-0.77832 1.27009,-1.71166 2.11809,-2.64754 1.69584,-1.87183 3.64458,-3.74738 3.80281,-4.38053 0.22605,-0.90476 0.0224,-1.72031 -0.38494,-2.50318 -0.40658,-0.78279 -1.01548,-1.51299 -1.78111,-2.21432 -1.53113,-1.40266 -3.54298,-2.67655 -4.86186,-3.99543 -1.19564,-1.19564 -2.22581,-1.82894 -3.12894,-2.02178 -0.90313,-0.19247 -1.68204,0.0298 -2.40687,0.52967 -1.44973,0.9975 -2.62105,3.06142 -4.04363,4.95817 -0.82263,1.09686 -8.83043,5.73231 -10.49397,6.97994 -1.00742,0.75557 -2.00082,1.30172 -2.93639,1.58857 -0.93558,0.28721 -1.82147,0.35286 -2.64754,0.19247 -0.82613,-0.16039 -1.58342,-0.56996 -2.26251,-1.15528 -0.67888,-0.58562 -1.28658,-1.36983 -1.78104,-2.35875 -1.21906,-2.43806 -1.31105,-3.79722 -1.92554,-4.95817 -0.30736,-0.5804 -0.76474,-1.0912 -1.54037,-1.68488 -0.77564,-0.59382 -1.85706,-1.24137 -3.51403,-2.06989 -0.34019,-0.17009 -0.54609,-0.41105 -0.62591,-0.67365 -0.0798,-0.2626 -0.0671,-0.57966 0.0448,-0.91462 0.22455,-0.67067 0.76511,-1.47323 1.34783,-2.31056 0.58263,-0.83732 1.24211,-1.71076 1.63668,-2.55129 0.39464,-0.84054 0.53265,-1.63057 0.19247,-2.31064 -1.29546,-2.59091 -2.00797,-4.50996 -2.59942,-6.69109 -0.59159,-2.1812 -1.02487,-4.6429 -1.73299,-8.183415 -0.15965,-0.79921 -6.53278,-5.6181 -7.89456,-6.97995 -0.3469,-0.34689 -0.50431,-1.10887 -0.52967,-2.06989 -0.0224,-0.96109 0.0783,-2.12338 0.24096,-3.32156 0.32452,-2.39628 0.88485,-4.8873 1.15528,-5.96902 0.18203,-0.72736 0.19322,-1.29583 0.0448,-1.73299 -0.14547,-0.43717 -0.42597,-0.75743 -0.81838,-0.96274 -0.78518,-0.41105 -1.97537,-0.40657 -3.27336,-0.24096 -2.59584,0.33198 -5.61989,1.36954 -6.45042,1.2034 -2.99653,-0.59905 -4.63306,-0.67962 -5.92091,-0.24096 -1.28784,0.4394 -2.193575,1.3752 -3.658455,2.84008 -0.56398,0.56398 -0.55503,1.24629 -0.33719,1.92554 0.21783,0.67887 0.63709,1.34999 0.8183,1.97366 0.18128,0.62366 0.14398,1.19123 -0.52967,1.58849 -0.67365,0.39762 -1.98575,0.6259 -4.33234,0.6259 -0.60203,0 -1.06173,0.39987 -1.49225,0.91462 -0.43045,0.51475 -0.85098,1.15095 -1.3479,1.78111 -0.49685,0.63038 -1.07635,1.24182 -1.87735,1.58849 -0.801,0.3469 -1.78604,0.43194 -3.12894,0.0962 -2.5498,-0.6371 -3.65562,-1.55835 -4.42864,-1.63661 -0.38644,-0.0373 -0.67589,0.15741 -1.05905,0.67365 -0.38345,0.51624 -0.86582,1.34656 -1.54045,2.69573 -0.63784,1.27561 -1.03285,2.19127 -1.39594,2.84008 -0.36331,0.64903 -0.68335,1.07247 -1.15535,1.29978 -0.94453,0.45432 -2.47655,0.24096 -6.16157,0.24096 -0.62889,0 -1.37617,-0.3648 -2.1662,-0.96273 -0.78996,-0.5983 -1.64198,-1.43444 -2.50318,-2.26252 -0.8612,-0.82807 -1.70905,-1.66898 -2.5513,-2.35875 -0.84218,-0.69006 -1.67384,-1.21272 -2.40687,-1.39594 -0.20516,-0.0522 -6.76278,-8.54389 -6.97995,-8.76106 -0.69006,-0.69006 -1.69935,-0.85985 -2.84008,-0.77018 -1.14073,0.0895 -2.40567,0.48416 -3.61034,0.96273 -2.40941,0.95736 -4.56666,2.28333 -4.91005,2.45499 -2.19157,1.09582 -3.95082,1.71382 -5.15071,2.74384 -0.5998,0.51475 -1.03488,1.15924 -1.34783,1.97366 -0.31333,0.81443 -0.48118,1.80454 -0.48118,3.12894 0,2.9011 0.37674,4.2305 0.14398,5.15071 -0.11638,0.46029 -0.39464,0.84725 -0.96273,1.25159 -0.56847,0.404345 -1.41266,0.850765 -2.69573,1.492265 -0.88597,0.44313 -1.81297,0.50654 -2.74384,0.3372 -0.93088,-0.16935 -1.88175,-0.57145 -2.84016,-1.05905 -1.91666,-0.975265 -3.85459,-2.311455 -5.77647,-2.791965 -0.64829,-0.16189 -1.49778,0.0224 -2.45506,0.3372 -0.95722,0.31333 -2.01499,0.75661 -3.17706,1.20347 -1.16207,0.44686 -2.3962,0.869715 -3.65846,1.107165 -1.13447,0.21336 -2.2824304,0.21859 -3.4177904,0 -1.74583,2.88514 -3.65488,5.76797 -5.96902,8.71287 -0.55579,5.65599 -1.05539004,12.07254 -1.58857004,18.53296 1.24227004,-0.83442 2.50154004,-1.63504 3.65846004,-2.79196 0.50878,-0.50879 1.43511,-0.66246 2.5513,-0.62591 1.11619,0.0373 2.40538,0.25738 3.7065804,0.57742 2.60247,0.64082 5.16175,1.57924 5.96909,1.78111 0.47894,0.11936 2.18799,-0.74154 4.2361,-1.54045 1.02406,-0.39912 2.14673,-0.78891 3.22525,-1.01085 1.07851,-0.22231 2.12495,-0.27528 3.03263,-0.0448 2.53257,0.63337 4.98562,1.07739 7.22068,1.58856 2.23506,0.51103 4.23729,1.05957 5.87278,1.87735 2.03983,1.01995 3.05583,1.93241 4.2361,2.5513 1.18027,0.61919 2.53959,0.96273 5.39138,0.96273 3.25755,0 5.76536,-0.12906 7.84644,0.14398 1.04062,0.13653 1.97709,0.38122 2.84016,0.77019 0.86299,0.38867 1.64369,0.9217 2.40687,1.68488 0.78033,0.78025 1.54552,1.38826 2.26244,1.78103 0.71692,0.39315 1.42414,0.58413 2.1662,0.67366 1.4842,0.17904 3.08336,-0.14473 5.19884,-0.67366 1.30709,-0.32675 2.18164,-0.89507 2.79203,-1.49225 0.61024,-0.59681 0.94095,-1.2504 1.29971,-1.6848 0.35884,-0.43418 0.74758,-0.64307 1.29971,-0.48118 0.55205,0.16114 1.31254,0.68708 2.50318,1.87742 0.39912,0.39912 0.69753,1.21414 0.96273,2.21432 0.26559,1.00011 0.49014,2.21373 0.67366,3.46592 0.36704,2.50422 0.608,5.176 0.96273,6.59485 0.085,0.34093 2.06945,-0.11414 4.2361,-0.19247 1.08329,-0.0373 2.20843,0.0149 3.17705,0.2887 0.96863,0.2723 1.7838,0.77564 2.2144,1.63669 0.40434,0.80831 0.93685,1.39572 1.58849,1.87735 0.65127,0.48192 1.41325,0.83113 2.16621,1.15535 1.50583,0.64829 3.05836,1.18094 4.091665,2.21432 1.15998,1.15991 1.87004,1.94636 2.26251,2.5513 0.39241,0.60502 0.48715,1.03085 0.3372,1.44414 -0.29989,0.82643 -1.47987,1.61169 -2.59949,3.851 -0.308845,0.6177 -0.240205,1.28173 0,1.92547 0.24022,0.64381 0.66023,1.26442 1.10716,1.92554 0.44687,0.66097 0.89254,1.35186 1.20348,2.02178 0.31108,0.66992 0.5043,1.35148 0.3372,2.02177 -0.52595,2.10392 -1.13395,2.84449 -1.39602,3.80289 -0.26186,0.95833 -0.21933,2.10854 0.48118,4.90998 0.59382,2.37665 0.84255,4.35419 1.25159,6.0654 0.2044,0.85561 0.46476,1.67645 0.8183,2.40687 0.35361,0.73035 0.81152,1.38916 1.44414,2.02178 1.61117,1.61117 3.94112,2.85507 6.01721,4.28421 1.038,0.71469 2.007,1.49509 2.79196,2.35876 0.78496,0.86366 1.39923,1.84198 1.6848,2.98451 0.27081,1.08381 0.65202,2.03938 1.15536,2.88827 0.50356,0.84889 1.09791,1.57551 1.82923,2.21432 0.73109,0.63859 1.59669,1.18303 2.5513,1.63669 0.9546,0.45357 2.00372,0.81382 3.17705,1.10716 1.23869,0.30959 2.32832,0.74706 3.22525,1.25159 0.89686,0.5043 1.59901,1.05994 2.21432,1.73292 1.23056,1.34611 1.98963,3.00055 2.45499,4.86193 0.1313,0.52669 0.8001,0.93423 1.78111,1.25159 0.98101,0.31706 2.262,0.54757 3.56215,0.72214 2.12092,0.28423 3.79603,0.3939 4.91005,0.52967 3e-4,-0.27005 -0.13204,-0.43343 -0.0448,-0.77018 0.20814,-0.8336 0.69827,-1.27852 1.3479,-1.44414 0.64978,-0.16562 1.46249,-0.0895 2.26244,0.14398 1.59983,0.46775 3.20212,1.46913 3.65846,1.92547 0.838,0.838 1.71987,1.42421 2.64761,1.82923 0.92775,0.40508 1.88623,0.64903 2.8882,0.77018 2.0041,0.24246 4.14583,0.0448 6.35419,0.0448 3.42287,0 6.32121,0.67366 9.91633,0.67366 2.32772,0 3.39445,-0.0224 4.33241,-0.28871 0.93797,-0.26409 1.75612,-0.75773 3.61034,-1.6848 1.69958,-0.84979 2.42284,-0.71021 3.03263,-0.91462 0.6095,-0.20441 1.11216,-0.78018 2.26252,-3.08082 0.67365,-1.34723 0.97183,-2.53966 1.2034,-3.80289 0.23126,-1.26322 0.38718,-2.55823 0.77018,-4.09167 0.11638,-0.46477 0.39241,-0.78824 0.77026,-1.05904 0.37749,-0.2708 0.86083,-0.52296 1.34783,-0.81831 0.48715,-0.29542 0.99973,-0.6177 1.44414,-1.15535 0.44462,-0.53788 0.80927,-1.26353 1.05904,-2.26244 0.21336,-0.85299 0.17307,-1.44809 0,-1.92554 -0.17308,-0.47745 -0.46551,-0.83211 -0.72214,-1.2034 -0.25663,-0.37151 -0.49163,-0.76511 -0.52967,-1.29971 -0.0373,-0.53489 0.094,-1.24696 0.57741,-2.21432 0.49163,-0.98302 1.09351,-1.65228 1.73292,-2.16621 0.63934,-0.514 1.32821,-0.85493 1.97366,-1.20347 0.6453,-0.34839 1.27136,-0.66843 1.78111,-1.15528 0.50953,-0.4864 0.9232,-1.14148 1.15528,-2.06997 0.7117,-2.84604 0.47148,-5.25478 1.29971,-8.56843 0.33048,-1.32216 1.23115,-2.71617 2.1662,-3.8992 0.93506,-1.18296 1.89787,-2.18657 2.45507,-2.74385 1.97947,-1.97947 2.41298,-1.80886 2.79196,-2.06989 0.37897,-0.2611 0.70946,-0.93729 2.50318,-4.52496 0.36107,-0.72214 0.5804,-1.49732 0.67365,-2.26244 0.094,-0.76511 0.0522,-1.50956 -0.0448,-2.26244 -0.20515,-1.50576 -0.73632,-2.96459 -1.29978,-4.09174 -0.62442,-1.24816 -0.81652,-2.21977 -0.91454,-3.03263 -0.0977,-0.81286 -0.0992,-1.45898 -0.19247,-1.97366 -0.0933,-0.51475 -0.30513,-0.89805 -0.91469,-1.25159 -0.6095,-0.35361 -1.62595,-0.68111 -3.2733,-1.01093 -2.31943,-0.46402 -3.79841,-0.0783 -5.29514,0.0448 -0.7484,0.0597 -1.5165,0.0373 -2.35875,-0.14399 -0.84233,-0.17904 -1.75239,-0.52221 -2.88827,-1.20339 -0.79473,-0.47671 -1.41251,-1.0824 -1.92555,-1.78112 -0.51325,-0.69901 -0.9578,-1.47957 -1.34782,-2.31063 -0.78004,-1.66205 -1.45518,-3.54484 -2.69573,-5.19883 -0.40881,-0.54459 -0.44835,-0.8007 -0.62591,-1.15528 z"
       style="fill:#000000;fill-opacity:1;fill-rule:evenodd;stroke:#d39062;stroke-width:0.770201;stroke-linecap:butt;stroke-linejoin:miter;stroke-miterlimit:4;stroke-dasharray:none;stroke-opacity:1"
       id="Treguaco"
       inkscape:connector-curvature="0" />
  </g>
</svg>
