<?xml version="1.0" encoding="UTF-8" standalone="no"?>
<!-- Created with Inkscape (http://www.inkscape.org/) -->

<svg
   width="210mm"
   height="297mm"
   viewBox="0 0 210 297"
   version="1.1"
   id="svg1283"
   inkscape:version="1.1.2 (b8e25be833, 2022-02-05)"
   sodipodi:docname="vector.svg"
   xmlns:inkscape="http://www.inkscape.org/namespaces/inkscape"
   xmlns:sodipodi="http://sodipodi.sourceforge.net/DTD/sodipodi-0.dtd"
   xmlns="http://www.w3.org/2000/svg"
   xmlns:svg="http://www.w3.org/2000/svg">
  <sodipodi:namedview
     id="namedview1285"
     pagecolor="#ffffff"
     bordercolor="#666666"
     borderopacity="1.0"
     inkscape:pageshadow="2"
     inkscape:pageopacity="0.0"
     inkscape:pagecheckerboard="0"
     inkscape:document-units="mm"
     showgrid="false"
     inkscape:zoom="0.52347032"
     inkscape:cx="155.69173"
     inkscape:cy="458.47872"
     inkscape:window-width="1920"
     inkscape:window-height="1017"
     inkscape:window-x="-8"
     inkscape:window-y="-8"
     inkscape:window-maximized="1"
     inkscape:current-layer="layer1" />
  <defs
     id="defs1280" />
  <g
     inkscape:label="Capa 1"
     inkscape:groupmode="layer"
     id="layer1">
    <path
       d="m 1.7431557,94.302499 c -1.30672798,1.20803 -1.32749498,2.81956 1.072528,4.03403 1.55515,0.33147 3.110806,3.877151 -0.533396,2.913461 0.297354,0.3896 -2.16881798,2.65965 -1.78244498,2.83881 1.04316498,2.1178 1.14042598,1.57631 2.43858798,2.8388 2.53322,0.70183 1.143983,3.00772 1.120601,5.22932 1.611604,-0.0941 1.435434,1.37252 2.838755,0.52315 -0.39776,2.9916 2.39621,3.01644 -0.52294,4.03403 1.52173,0.87912 -0.0194,3.39143 2.66795,3.43648 4.0773503,-1.02637 -1.51959,1.7817 1.2433703,2.31586 2.53434,0.0782 0.73886,3.66415 3.55915,4.03403 -1.51426,2.06445 0.39161,2.56982 1.59547,3.43641 1.04362,0.84895 2.29382,1.49126 2.96154,2.71604 1.51147,0.92853 -0.28877,5.48003 1.59548,6.39798 0.11258,2.42636 -0.15093,3.51426 -3.27518,4.61247 -2.90747,0.97288 -4.49789,0.93745 -6.00797,4.05914 -0.41976,2.29109 -1.7500603,3.647 -0.9034003,6.92549 -0.73724,3.18342 0.8499203,5.49886 3.1126803,7.56193 0.33645,1.69589 -6.3306803,1.39231 -5.0711403,3.59924 0.34469,2.35115 -1.43905,2.56276 -0.35735,5.62079 1.46419,0.6145 0.2858,3.06024 1.71821,4.25298 -1.81813,2.77153 0.20387,4.28882 3.2312203,1.66032 3.63463,-1.28284 6.67875,-4.3518 10.45041,-4.85163 8.43809,2.25018 16.8762,4.5003 25.31435,6.75048 0.77193,7.84405 1.54385,15.68804 2.31578,23.53202 12.9994,-0.7495 25.99313,-1.68011 38.99599,-2.31585 1.78675,-2.30921 3.54354,-2.29226 5.75227,-1.71817 0.18407,2.21184 3.91106,0.80597 4.63171,-0.47472 0.760723,-1.35106 4.327993,-0.68716 5.154593,-1.841 1.80868,0.92472 4.82062,-0.47541 7.10222,-0.52315 1.59029,-0.63042 4.39484,-0.63526 4.32765,-3.43642 1.52725,-1.64807 1.73249,-3.08128 2.31585,-5.58141 1.12098,-1.13385 2.7896,-1.69202 4.55698,-2.48671 1.80771,-0.68232 4.63004,-0.35016 6.34995,-1.12056 -0.26366,-2.02923 1.83892,-3.4288 3.43641,-4.0341 1.82668,-1.84813 3.77916,-1.09398 4.03403,-4.03403 0.81656,-1.64703 2.98412,-1.7718 2.8388,-3.95936 1.58496,-1.13163 -1.39522,-4.53469 1.12056,-5.75233 2.3088,-2.30188 4.16212,-0.25258 6.88335,-0.59789 1.38241,-1.24831 2.83672,-2.02612 3.97555,-2.8388 1.82896,-0.96182 3.86525,-1.51604 5.59006,-2.67321 1.22519,-1.10388 2.85603,-2.6959 4.84194,-3.07906 1.8363,-0.99386 3.60464,-1.90384 4.43428,-3.43642 1.88799,-0.84839 2.84635,-1.44151 4.15679,-2.31585 -0.004,-2.52014 2.22064,-2.78829 4.55704,-3.43642 0.83124,-1.00008 1.52691,-3.59183 2.79071,-4.03409 1.44283,-1.46871 2.29641,1.61444 3.43642,2.31585 1.5651,1.50594 3.44963,0.97822 5.15465,2.31593 0.13979,2.22762 2.83949,1.89525 4.86104,2.24111 1.57347,1.47978 4.79876,0.15017 6.69152,0 2.98343,-0.28441 2.14722,-4.09312 6.23764,-2.8388 3.87902,1.12354 3.91764,-2.13379 2.95112,-4.26342 0.23804,-1.66807 2.91575,-3.22556 1.38241,-5.8587 -1.46974,-1.79422 0.97801,-4.62528 -1.85734,-3.6236 -2.08707,-0.93524 -2.9592,-1.51486 -5.20268,-2.31586 0.9432,-1.91394 1.2108,-2.35419 -0.59789,-4.55697 -1.22173,-0.51554 -2.16589,-2.34056 -4.03402,-2.31585 -0.63803,-1.65292 -0.94715,-3.63468 -1.71818,-5.15466 -2.34561,-0.26365 -0.26711,-3.36299 1.12056,-3.43641 -1.07959,-2.96503 -1.02935,-2.68836 0.59789,-4.98381 -0.60065,-1.62821 -3.58166,1.68635 -3.43641,-2.31585 2.11504,-1.54247 -3.47579,0.1993 -1.12056,1.54739 -1.38027,1.43486 -0.74833,2.43716 -2.79078,3.43641 -0.83434,1.30719 -1.16,3.64298 -2.83873,4.55704 -2.45889,-0.0346 -1.89062,2.93887 -3.0363,4.63171 -2.57729,1.0715 -1.9576,3.26397 -2.8388,5.0319 -2.05026,1.22712 -4.3419,0.89296 -6.10436,1.84093 -2.29779,0.86085 -5.07542,0.80688 -7.43106,1.47798 -2.64276,0.42904 -4.36024,0.67747 -7.03504,1.36082 -2.96343,-0.24012 -6.32068,0.47056 -9.04959,-0.33562 -2.6339,-0.0879 -3.80954,-1.59894 -5.7686,-1.90536 -0.96783,-1.16478 -2.88032,-1.38497 -4.08212,-2.31585 -1.68821,-0.61589 -2.664,-1.45002 -4.63171,-2.31586 -0.90701,-1.18471 -2.85022,-1.33321 -3.95936,-2.31585 -1.93622,-0.99745 -3.76048,-2.00639 -5.75227,-2.83873 -1.5752,-0.80944 -3.6272,-1.14236 -5.27741,-2.31586 -2.5245,-0.0484 -4.30523,-1.8345 -6.87283,-1.71824 -0.96922,-1.15613 -3.9249,-1.13322 -5.15466,-2.24112 -2.08888,-0.38268 -4.92193,-1.06949 -6.87283,-1.67015 -2.72531,0.10519 -5.379693,-0.25258 -7.806273,-0.98146 -2.5166,-0.55914 -4.54375,-1.05136 -7.43874,-1.38249 -3.38819,-0.21867 -3.2893,-0.34323 -6.57928,0 -2.88164,0.0623 -5.75767,0.11488 -8.28701,-0.59789 -2.39267,0.8994 -6.65886,-1.53105 -7.24111,0.35223 1.56669,1.33501 -0.0692,3.55247 -1.59548,4.27962 -1.56275,0.53976 -4.1772,-0.25119 -2.36388,2.66795 -1.25204,1.83373 -4.01493,-0.0934 -5.49048,-0.0914 -2.78781,-0.0415 -2.74483,1.88785 -4.89357,0.85954 -0.17715,-1.97041 -2.34775,-0.89614 -2.83873,0.47471 0.0484,2.11365 -3.84719,0.82708 -2.31585,-0.42696 -1.91934,-0.43181 -3.92615,-1.26761 -4.55698,-2.96156 -2.57573,-0.25743 -3.41668,-1.87346 -4.63173,-2.83874 -0.32794,-1.25252 -5.35854,1.20416 -3.43641,-1.71824 -0.541,-3.75702 -2.56332,3.06889 -2.8388,0 -2.76324,-0.13771 -2.9556,-1.44781 -5.62952,-2.31585 -2.58652,0.30517 -4.16957,-3.26937 -6.20527,-3.09519 -1.66042,2.43709 -3.43927,1.26706 -5.94497,2.49757 -0.2597,-3.54623 -3.7997303,-1.33625 -5.7522703,-2.24118 2.45349,-2.38374 1.61012,-3.33968 -1.12057,-3.43642 0.0739,-2.562481 -1.396874,-4.675511 -2.725581,-6.759611 -0.441082,-0.44842 -1.320112,-0.0623 -1.906134,-0.18823 z"
       style="fill:#000000;fill-opacity:1;stroke:#d39062;stroke-width:0.915464;stroke-miterlimit:4;stroke-dasharray:none;stroke-opacity:1"
       id="Puerto_Octay" />
  </g>
</svg>
