<?xml version="1.0" encoding="UTF-8" standalone="no"?>
<!-- Created with Inkscape (http://www.inkscape.org/) -->

<svg
   width="210mm"
   height="297mm"
   viewBox="0 0 210 297"
   version="1.1"
   id="svg1283"
   inkscape:version="1.1.2 (b8e25be833, 2022-02-05)"
   sodipodi:docname="vector.svg"
   xmlns:inkscape="http://www.inkscape.org/namespaces/inkscape"
   xmlns:sodipodi="http://sodipodi.sourceforge.net/DTD/sodipodi-0.dtd"
   xmlns="http://www.w3.org/2000/svg"
   xmlns:svg="http://www.w3.org/2000/svg">
  <sodipodi:namedview
     id="namedview1285"
     pagecolor="#ffffff"
     bordercolor="#666666"
     borderopacity="1.0"
     inkscape:pageshadow="2"
     inkscape:pageopacity="0.0"
     inkscape:pagecheckerboard="0"
     inkscape:document-units="mm"
     showgrid="false"
     inkscape:zoom="0.52347032"
     inkscape:cx="155.69173"
     inkscape:cy="611.30496"
     inkscape:window-width="1920"
     inkscape:window-height="1017"
     inkscape:window-x="-8"
     inkscape:window-y="-8"
     inkscape:window-maximized="1"
     inkscape:current-layer="layer1" />
  <defs
     id="defs1280" />
  <g
     inkscape:label="Capa 1"
     inkscape:groupmode="layer"
     id="layer1">
    <path
       d="m 83.977303,85.678319 c -0.59803,2.35021 1.25128,7.14771 -1.02546,7.81927 -0.60405,1.84733 -1.71677,4.2377 -1.92278,6.921941 -2.34929,0.42211 -1.15102,4.39184 -2.94826,5.36601 -1.38881,1.95941 -2.20002,4.08508 -3.93812,4.50423 -3.29493,-0.37753 -3.78885,2.04593 -4.90662,3.84557 -0.12921,2.50804 -3.5135,1.76108 -4.96362,2.94824 -3.11758,-0.52897 -2.38349,4.29281 -5.8965,3.97376 0.51158,1.99925 -4.47065,3.02096 -4.90662,1.02546 -2.68654,1.2334 -4.57115,1.25284 -6.92198,1.92278 -1.75955,2.19608 -5.98458,-0.14124 -5.8965,2.94824 -3.22797,0.91011 1.77626,3.91275 3.97373,2.94825 1.10196,1.72252 3.09323,4.01908 2.94825,6.97897 1.13069,2.31326 2.86397,3.17724 3.93812,4.81405 0.44756,-1.69428 2.74466,-3.20731 5.45857,-2.94824 0.85894,-2.42588 3.86317,1.73665 2.92685,2.94824 -0.99815,-0.94485 -3.16708,-3.53559 -5.40156,-0.89732 -2.16695,0.84351 -5.25147,3.63494 -5.49415,0 -2.98398,0.31792 -1.7457,-4.87769 -3.47879,-5.49415 -1.16119,-3.72607 -1.58268,-3.60723 -2.94825,-0.93287 0.47506,2.42759 -3.49666,4.16784 -4.87103,3.88112 -2.87294,-1.97832 -3.17792,1.99555 -5.8965,1.52044 -1.15411,-1.78939 -4.03984,-1.84717 -6.90777,-1.92279 -1.17225,1.73316 -3.15731,-0.63326 -5.91072,0.89733 1.35609,3.45992 -4.01895,1.79561 -3.97373,3.9737 -1.720387,-0.30557 -5.1762679,2.2508 -2.948253,3.44322 -0.338651,3.82994 1.45743,3.23115 0,5.86088 -1.823261,1.05538 -1.296912,4.54264 -3.6000899,6.18213 -2.788562,0.15735 -4.767905,0.48602 -5.739608,2.20328 0.590599,1.36524 -4.871096,4.82285 -0.932881,2.94824 2.832502,-1.50642 4.66406,0.30879 7.840653,0 2.7598959,-0.18098 6.6107589,0.72854 7.4311389,-1.3922 1.4342,-1.87251 0.31872,-6.08675 2.91266,-6.42707 0.44557,-2.17271 1.59824,-3.63832 4.90662,-2.94824 1.96205,-2.03604 3.55966,-2.34945 6.92198,-2.05097 2.31973,1.3219 4.51681,-0.51448 6.88639,2.05097 -1.04117,3.35155 3.82926,3.84917 5.60657,2.24828 2.46693,-0.7258 4.91374,0.53928 6.22203,1.72548 3.15673,-0.88976 2.90976,3.469 5.89649,2.94824 1.0453,2.57758 3.05559,3.68805 4.32372,5.22095 1.14816,2.572 3.93753,2.61996 4.52105,5.51095 0.80378,1.54799 4.13875,1.6786 4.87102,2.98385 2.64893,-0.53434 2.82926,2.61969 6.02468,1.92279 0.42619,1.80904 3.33872,-2.73123 4.83543,0 0.62032,2.7425 2.81167,3.42915 1.95838,6.90776 -0.57177,3.09158 0.57216,4.4674 2.05098,5.50838 0.32275,2.86693 3.33001,3.18722 5.33034,4.37609 3.3486,0.3582 -0.83991,3.81201 0.56614,6.87217 -0.82455,1.62161 -2.2522,2.64014 -3.44317,3.89535 -3.56583,-0.30235 0.37377,3.7054 0.98986,3.97375 2.45073,-0.23898 4.66684,2.74842 7.32434,0 0.28838,2.13115 2.98782,2.43737 5.458527,2.94824 0.32276,-2.70711 1.44403,-4.76571 2.98385,-1.92283 1.98905,2.68649 3.33448,1.50078 4.3761,3.44322 2.04039,1.78208 2.08132,-4.00152 3.97376,-4.96361 -0.31309,-3.34495 3.76415,-2.21589 2.94824,-5.45854 0.20192,-2.50911 3.19683,-3.63129 4.43302,-4.81404 0.81924,-1.66791 4.29866,-1.31648 6.13713,-2.75089 3.10651,-0.30986 2.23056,-4.03766 3.64058,-5.19657 1.62479,-2.0862 3.80277,-2.22878 7.00035,-1.92278 3.11333,0.31523 3.10033,3.39134 6.27746,2.94824 1.32115,-1.46212 4.77366,-0.79287 6.42707,-1.92278 2.45901,-0.043 -0.51394,-5.32138 4.21429,-2.24828 0.96999,1.02621 5.35017,2.45713 6.09385,0.23307 2.915,-1.30396 2.17185,3.69939 4.67372,1.31545 2.59025,-0.45486 1.4227,3.62082 3.2638,5.62873 1.11074,1.88519 -0.9535,4.74546 3.87687,3.91597 1.60057,2.6409 4.33701,-0.68987 6.90063,0 0.57,-2.29591 2.95318,0.91886 1.02551,1.88718 0.16594,2.57651 2.76265,2.63139 2.94824,5.93214 1.62468,-0.84765 3.46498,-1.47963 4.46863,-2.9483 0.8295,-2.12116 5.36016,-0.54111 7.82647,-1.02546 2.81425,2.40477 2.49047,-1.37538 5.39441,-0.89732 1.7431,-3.11542 5.44909,-1.45675 7.91186,-2.94824 2.67183,-0.8165 1.47006,-2.17621 0.43821,-3.9737 -1.77999,-1.97381 -0.55437,-3.26273 -1.42785,-5.86094 2.17314,-2.10059 0.043,-4.16134 -1.35144,-5.27911 -1.79084,-0.57543 -4.15495,-3.4958 -1.63241,-4.62668 0.66055,-2.158 1.74486,-3.98267 0.0376,-5.86093 0.54782,-3.49607 -0.33403,-5.5623 -2.91264,-5.93209 -0.27012,-2.39838 -5.97897,0.64261 -4.00936,-3.99513 -2.4227,-2.07208 1.20397,-3.60407 2.05097,-4.81405 1.63032,-0.86102 2.1043,-2.87832 5.38733,-2.08658 1.31938,2.43517 3.12987,-0.26905 3.45746,-1.92273 2.7309,-1.85898 -0.19602,-4.38909 -1.70255,-5.59322 -1.44853,-1.39526 -3.56046,0.52199 -4.19399,-2.72103 -0.0559,-2.99652 -1.37029,-1.35186 -2.05092,-4.96361 -1.73606,-1.01337 -0.16756,-4.59408 1.02546,-5.43716 1.31561,-2.21095 1.45138,-5.53684 0,-6.88639 -1.51615,-0.0107 -1.2958,-7.21748 -2.94825,-2.39629 0.0789,2.86221 -3.51067,2.05586 -4.96361,3.38619 -3.21498,0.60755 -6.14018,-0.65533 -7.81926,-1.92278 0.31362,-4.25237 -0.87773,-3.4552 -3.35639,-2.37689 -3.06596,-0.48279 -4.73086,-0.95366 -5.524,-3.11725 -1.40423,-1.95721 -1.95753,-4.44403 -3.9381,-5.40156 -1.99372,-1.69213 -5.26429,-0.20085 -4.90663,-3.40762 0.20837,-2.60422 -1.46571,-4.75438 -3.04082,-3.38619 -3.09249,-0.57483 -2.68827,3.72839 -3.88118,4.87103 -1.82139,1.58939 -3.0333,4.47824 -1.02546,6.922 -1.23334,1.12932 -1.04119,4.97064 -2.94824,5.89648 -1.93202,0.0107 -2.44537,4.76652 -5.36595,1.92278 -1.45551,-1.04672 -4.4755,-0.23253 -5.89654,1.02546 -4.53828,-0.67386 -2.93084,1.13303 -5.40156,1.92279 -0.85876,-1.78563 -2.96747,-2.32132 -2.05092,-5.88231 -0.99941,-1.46582 -2.5808,-2.34956 -2.94829,-4.44726 0.69636,-3.5988 -0.96209,-4.61432 -1.92279,-7.32434 -3.22932,-3.50036 -3.319,1.41889 -5.89648,0.98991 -2.08427,-0.5649 -1.22749,-4.0708 -2.94824,-4.99927 -0.81881,-2.97482 -3.2739,-3.69831 -4.67372,-3.64815 -2.69708,-1.10371 -1.78327,3.29624 -2.74321,4.67367 -1.08228,1.88954 0.15681,4.96806 0.49514,5.89648 -0.0741,2.97219 1.17524,5.95658 1.92273,7.81927 3.14056,0.95468 -0.39472,5.74198 -3.46454,3.97375 -2.42201,-0.43929 -2.55852,-1.9601 -4.35473,-3.97375 0.18582,-3.49886 -2.32689,-3.15661 -1.52044,-5.89649 -3.16939,-0.0886 2.43033,-2.42544 -0.40223,-4.43307 0.2422,-2.6953 -1.49348,-3.41315 -2.9483,-4.41171 -1.70276,-1.94496 -2.0239,-3.37604 -4.96355,-3.9737 0.0607,-1.75587 -3.467227,-2.37738 -2.261707,-3.62528 1.888627,-1.893671 3.045287,-3.619961 0.30342,-4.193991 3.385657,-2.94991 -1.99506,-3.99642 -1.92278,-5.86093 -0.71656,-3.66948 -4.36428,2.26815 -4.99921,-1.55599 -0.79674,-3.1804 -3.61298,-2.61803 -5.95352,-3.35059 -0.9637,0 -1.92751,0 -2.89127,0 z m 55.119497,0 c -0.65383,1.74884 -3.83949,1.92649 -3.97375,3.84551 -1.49601,1.06209 -4.61599,1.84078 -7.34566,2.05098 -2.78617,0.70098 -5.04368,2.43349 -7.85493,2.94824 -0.59917,1.35192 -5.1643,2.40122 -2.48887,2.94824 -0.86462,3.479901 5.50531,1.29397 5.89649,3.845571 1.7889,-1.28388 4.10549,1.10005 4.99921,2.05097 2.65368,0.38075 4.47234,1.95866 7.14374,1.24725 0.583,2.3334 -2.09689,1.16858 -4.19549,0.67548 -0.75453,3.28174 3.43715,2.05919 3.84551,4.99921 0.71076,0.47259 0.15198,2.51186 2.05102,4.3405 2.64703,1.57666 -1.37555,4.52582 0.49515,6.42707 1.40771,1.03362 1.80393,3.0789 4.37604,2.94824 -0.91413,4.06484 4.92768,0.66699 4.99922,1.52039 1.51759,-1.06547 5.00856,-0.20568 6.7938,0.40223 0.61415,-1.92359 4.22112,-3.38044 2.98385,-3.84551 0.22341,-2.43817 -0.84646,-6.47266 0.98986,-7.41692 0.3539,-1.95061 1.97713,-3.949 2.94824,-6.39147 1.20198,-1.94802 3.35875,-4.33593 0,-4.90658 -0.31148,-2.07605 -3.52405,-2.35778 -3.9737,-3.973751 -4.13514,1.202251 -1.9926,-5.18739 -5.86094,-4.87103 -0.83298,-1.42286 -2.14892,-4.00635 -2.45326,-5.89648 -1.92917,-0.24489 -3.03846,-3.37239 -5.98912,-2.94825 -2.43946,-0.81714 -2.14044,1.64573 -3.38619,0 z m -26.53423,14.741211 c -1.90141,1.91672 -2.71829,3.10882 -0.0376,3.84557 2.0818,2.82843 1.76549,-1.02471 0.93293,-2.87703 -0.76258,-0.0585 -1.08899,0.0859 -0.89732,-0.96854 z"
       style="fill:#000000;fill-opacity:1;stroke:#d39062;stroke-width:0.710448;stroke-miterlimit:4;stroke-dasharray:none;stroke-opacity:1"
       id="Corral" />
  </g>
</svg>
