<?xml version="1.0" encoding="UTF-8" standalone="no"?>
<!-- Created with Inkscape (http://www.inkscape.org/) -->

<svg
   width="210mm"
   height="297mm"
   viewBox="0 0 210 297"
   version="1.1"
   id="svg57"
   inkscape:version="1.1.2 (b8e25be833, 2022-02-05)"
   sodipodi:docname="vector.svg"
   xmlns:inkscape="http://www.inkscape.org/namespaces/inkscape"
   xmlns:sodipodi="http://sodipodi.sourceforge.net/DTD/sodipodi-0.dtd"
   xmlns="http://www.w3.org/2000/svg"
   xmlns:svg="http://www.w3.org/2000/svg">
  <sodipodi:namedview
     id="namedview59"
     pagecolor="#ffffff"
     bordercolor="#666666"
     borderopacity="1.0"
     inkscape:pageshadow="2"
     inkscape:pageopacity="0.0"
     inkscape:pagecheckerboard="0"
     inkscape:document-units="mm"
     showgrid="false"
     inkscape:zoom="0.74029882"
     inkscape:cx="361.34057"
     inkscape:cy="453.87078"
     inkscape:window-width="1920"
     inkscape:window-height="1017"
     inkscape:window-x="-8"
     inkscape:window-y="-8"
     inkscape:window-maximized="1"
     inkscape:current-layer="layer1" />
  <defs
     id="defs54" />
  <g
     inkscape:label="Capa 1"
     inkscape:groupmode="layer"
     id="layer1">
    <path
       inkscape:connector-curvature="0"
       id="Quilaco"
       style="fill:#000000;fill-opacity:1;fill-rule:evenodd;stroke:#d39062;stroke-width:0.380347;stroke-linecap:butt;stroke-linejoin:miter;stroke-miterlimit:4;stroke-dasharray:none;stroke-opacity:1"
       d="m 209.76105,188.18604 c -0.61271,-0.87757 -1.11111,-1.75887 -1.73533,-2.59112 -0.33127,-0.44162 -0.48606,-0.96402 -0.54673,-1.5214 -0.0609,-0.55734 -0.0314,-1.1394 0,-1.73533 0.0314,-0.59597 0.0605,-1.20176 0,-1.7591 -0.0609,-0.55738 -0.21574,-1.07979 -0.54677,-1.5214 -0.3686,-0.49129 -1.90411,-1.49586 -3.32805,-2.42471 -1.42391,-0.92889 -2.73704,-1.77631 -2.66241,-1.92552 0.2008,-0.40153 0.24599,-0.91537 0.14264,-1.45008 -0.10335,-0.5347 -0.35956,-1.08053 -0.71315,-1.59268 -0.35366,-0.51219 -0.8051,-0.97353 -1.35498,-1.30747 -0.54987,-0.33402 -1.18557,-0.54673 -1.87797,-0.54673 -0.68486,0 -1.51032,0.0405 -2.35338,0.0476 -0.84307,0.008 -1.71439,-0.0314 -2.49603,-0.1902 -0.78168,-0.15757 -1.47244,-0.43289 -1.97307,-0.92708 -0.25032,-0.24717 -0.45541,-0.53993 -0.59428,-0.90334 -0.13872,-0.36349 -0.21417,-0.78251 -0.21417,-1.28366 0,-0.85925 0.10257,-1.37588 0.23775,-1.71159 0.13518,-0.33559 0.31633,-0.49227 0.45167,-0.68938 0.13518,-0.19727 0.23696,-0.43607 0.23774,-0.87953 6.7e-4,-0.4435 -0.1116,-1.11217 -0.38039,-2.187 -0.1336,-0.53502 -0.471,-2.08409 -0.95085,-3.54198 -0.2401,-0.72899 -0.51117,-1.42843 -0.80825,-1.97307 -0.29708,-0.54465 -0.61625,-0.91474 -0.95089,-0.99841 -0.4424,-0.11042 -0.94213,-0.0491 -1.45008,0.0951 -0.50791,0.14422 -1.04352,0.35996 -1.54513,0.54673 -0.50162,0.18705 -0.97903,0.33952 -1.40253,0.35642 -0.42354,0.0157 -0.77237,-0.0869 -1.04595,-0.45167 -0.4305,-0.57393 -0.7776,-1.32068 -1.0935,-2.09191 -0.31595,-0.77123 -0.60155,-1.58828 -0.92712,-2.32961 -0.32577,-0.74132 -0.70537,-1.39372 -1.16483,-1.87797 -0.22949,-0.24207 -0.47423,-0.43529 -0.7607,-0.57054 -0.28647,-0.13518 -0.61589,-0.21378 -0.97463,-0.21378 -1.09805,0 -1.81435,-0.27468 -2.5198,-0.54673 -0.70545,-0.27232 -1.39655,-0.54677 -2.37715,-0.54677 -0.45227,0 -1.0377,-0.28254 -1.66405,-0.71315 -0.62634,-0.43057 -1.28208,-0.99974 -1.90171,-1.61645 -1.23929,-1.23344 -2.29691,-2.60284 -2.42474,-3.11413 -0.20042,-0.80192 -0.235,-1.3694 -0.23775,-1.83042 -0.002,-0.46103 0.0275,-0.81729 0.0236,-1.16483 -0.004,-0.34738 -0.0582,-0.70336 -0.26132,-1.16478 -0.20356,-0.46142 -0.53903,-1.02772 -1.14105,-1.83043 -0.54072,-0.72093 -0.84597,-1.34798 -0.9984,-1.90174 -0.15247,-0.55377 -0.1623,-1.04694 -0.0951,-1.47385 0.134,-0.8538 0.54673,-1.48014 0.54673,-2.06813 0,-0.67028 -0.12025,-1.22138 -0.33284,-1.66401 -0.21259,-0.44267 -0.51207,-0.7763 -0.92708,-0.99844 -0.41501,-0.22203 -0.93757,-0.34778 -1.54517,-0.35642 -0.60757,-0.008 -1.30174,0.0876 -2.09191,0.28529 -0.67204,0.16819 -1.24003,0.28136 -1.71155,0.30926 -0.47152,0.0275 -0.8624,-0.0314 -1.1886,-0.21416 -0.32616,-0.18116 -0.59593,-0.46849 -0.83202,-0.92708 -0.23617,-0.45863 -0.44067,-1.0733 -0.64183,-1.87798 -0.21259,-0.85076 -0.67122,-1.55704 -1.28366,-2.187 -0.61243,-0.62996 -1.3703,-1.19052 -2.21077,-1.73533 -0.84047,-0.5448 -1.74185,-1.0687 -2.63868,-1.66404 -0.89678,-0.5953 -1.7859,-1.26291 -2.56735,-2.04436 -0.49014,-0.49014 -1.50733,-2.14593 -2.63863,-3.73213 -0.56567,-0.79312 -1.15913,-1.55339 -1.73537,-2.16323 -0.57624,-0.60988 -1.12946,-1.06686 -1.61646,-1.1886 -1.19382,-0.29865 -2.02529,-0.45363 -2.6149,-0.59432 -0.58956,-0.14068 -0.9494,-0.26092 -1.18859,-0.49918 -0.23932,-0.23813 -0.35642,-0.59762 -0.49919,-1.1886 -0.14264,-0.59097 -0.29472,-1.41577 -0.59431,-2.6149 -0.37057,-1.48284 -0.24443,-2.15411 -0.2853,-2.73373 -0.0196,-0.28961 -0.0868,-0.54877 -0.28529,-0.87957 -0.19845,-0.33087 -0.52009,-0.73406 -1.06972,-1.28365 -1.43193,-1.431934 -2.46841,-1.908674 -2.82883,-2.329654 -0.18037,-0.21063 -0.18705,-0.38825 0,-0.68938 0.18705,-0.30101 0.5685,-0.71115 1.18859,-1.3312 0.4202,-0.4202 1.5563,-1.14911 2.42471,-2.09191 0.43418,-0.4714 0.79276,-1.00657 0.97463,-1.56894 0.0908,-0.28137 0.13675,-0.58061 0.11867,-0.87954 -0.0196,-0.29904 -0.081,-0.58991 -0.23774,-0.90334 -0.34542,-0.69056 -0.81917,-1.25332 -1.3312,-1.73533 -0.51204,-0.48201 -1.07272,-0.87827 -1.61646,-1.25992 -0.54378,-0.38157 -1.05715,-0.75158 -1.49763,-1.14101 -0.44047,-0.38943 -0.79626,-0.80204 -0.9984,-1.30747 -0.49918,-1.24798 -0.83057,-2.70324 -1.21237,-4.06494 -0.19098,-0.68089 -0.39933,-1.34264 -0.64183,-1.94929 -0.24246,-0.6067 -0.53152,-1.15241 -0.87957,-1.6165 -0.46865,-0.62485 -0.91305,-1.12859 -1.37875,-1.52136 -0.46571,-0.39296 -0.9586,-0.68262 -1.49763,-0.8558 -0.53903,-0.17329 -1.11802,-0.22399 -1.80665,-0.19019 -0.68863,0.0354 -1.48646,0.15168 -2.40093,0.38039 -0.59813,0.14972 -1.00257,0.1674 -1.80665,-0.14265 -0.80409,-0.31005 -2.00879,-0.93309 -4.18385,-2.02062 -1.7896,-0.89478 -2.84946,-1.28578 -3.75591,-1.73533 -0.90645,-0.44951 -1.63897,-0.97333 -2.75755,-2.0919 -0.64245,-0.6425 -1.39246,-1.75132 -2.21073,-2.82883 -0.40916,-0.53875 -0.8323,-1.06513 -1.2837,-1.5214 -0.45136,-0.45623 -0.93384,-0.84727 -1.4263,-1.0935 -1.39372,-0.69684 -2.778957,-1.11508 -3.946097,-1.83043 -0.58359,-0.35759 -1.10616,-0.77649 -1.54518,-1.35498 -0.43902,-0.57848 -0.78632,-1.31489 -1.02217,-2.25832 -0.2405,-0.96264 -0.49078,-2.32631 -1.02218,-3.44688 -0.26565,-0.56029 -0.59074,-1.0425 -1.04595,-1.40253 -0.45521,-0.35996 -1.03652,-0.59432 -1.75911,-0.59432 -1.14757,0 -2.953,-0.23185 -4.73057,-0.35642 -0.88881,-0.0625 -1.76147,-0.0943 -2.54358,-0.0476 -0.78212,0.0468 -1.47373,0.15444 -1.97307,0.40409 -0.552,0.27586 -1.0592,0.75194 -1.54514,1.28369 -0.48594,0.53176 -0.95887,1.13123 -1.4263,1.66401 -0.46743,0.53282 -0.92987,1.00453 -1.4263,1.2837 -0.24835,0.1395 -0.49631,0.23302 -0.7607,0.26132 -0.26446,0.0275 -0.54551,-0.004 -0.83202,-0.11868 -1.71057,-0.68423 -2.8655,-1.31053 -3.89856,-1.99681 -1.0331,-0.68627 -1.94977,-1.45043 -3.1854,-2.37719 -1.48364,-1.11268 -2.62182,-2.223 -3.63708,-3.25673 -1.01526,-1.03369 -1.91083,-1.99174 -2.90015,-2.73373 -0.85156,-0.63865 -1.51653,-1.10973 -2.09191,-1.4263 -0.57537,-0.31673 -1.05125,-0.47761 -1.49762,-0.47545 -0.44641,0.002 -0.86664,0.18155 -1.33125,0.49922 -0.46456,0.31752 -0.98657,0.77265 -1.61645,1.40253 -0.70836,0.70836 -1.32881,1.17209 -1.90175,1.4263 -0.5729,0.25425 -1.09099,0.29747 -1.59268,0.19019 -0.5017,-0.10727 -0.97919,-0.36113 -1.47385,-0.73692 -0.49471,-0.37607 -0.9933,-0.87446 -1.54518,-1.4263 -0.48672,-0.48673 -1.02111,-0.84562 -1.59272,-1.14105 -0.57157,-0.29551 -1.18321,-0.51506 -1.85416,-0.6656 -1.34193,-0.30101 -2.9042,-0.35681 -4.73058,-0.35642 -2.70308,0 -5.67943,-0.54677 -8.1775,-0.54677 -0.46491,0 -0.85862,-0.0719 -1.21233,-0.1902 -0.35367,-0.11828 -0.6555,-0.29393 -0.92712,-0.49922 -0.5432,-0.41068 -0.96563,-0.94783 -1.35498,-1.5214 -0.38943,-0.57357 -0.74416,-1.17535 -1.21237,-1.664 -0.46818,-0.48869 -1.05059,-0.86625 -1.83039,-1.02218 -2.75644,-0.55129 -6.04048,-1.38535 -9.24723,-2.187 -0.88727,-0.22163 -2.4045,-0.72785 -3.89855,-0.99844 -0.74703,-0.13518 -1.49224,-0.22124 -2.13945,-0.16623 -0.64725,0.055 -1.21293,0.23814 -1.59273,0.61806 -0.9945501,0.99455 -1.3864901,1.68369 -2.0919001,2.11567 -0.35288,0.21613 -0.79265,0.37568 -1.40253,0.47545 -0.60988,0.0998 -1.40936,0.14265 -2.49603,0.14265 -0.80958,0 -1.47278,0.13046 -2.04435,0.38039 -0.57157,0.24992 -1.04788,0.60453 -1.42629996,1.02217 -0.24993,0.27586 -0.41242,0.60792 -0.59432,0.92708 0.42354,0.0562 0.94432996,0.0629 1.28368996,0.16623 0.70341,0.21456 1.23505,0.53408 1.66401,0.95085 0.42896,0.41678 0.76243,0.93891 1.02218,1.54518 0.25975,0.60626 0.44605,1.30872 0.64183,2.0919 0.17015,0.68077 0.40986,1.03365 0.71315,1.21237 0.30336,0.1788 0.67047,0.1733 1.11727,0.0711 0.44684,-0.10217 0.96822,-0.29001 1.56895,-0.45163 0.60072,-0.16191 1.27937,-0.30887 2.0443501,-0.30887 0.25857,0 0.46347,0.0684 0.6181,0.19019 0.15443,0.12182 0.27979,0.30691 0.35642,0.523 0.15325,0.43218 0.16897,1.01879 0.16622,1.664 -0.003,0.64521 -0.0275,1.35769 0.0236,1.99681 0.0495,0.63915 0.16504,1.20263 0.47544,1.61649 0.19727,0.26329 0.65688,0.59362 1.25989,0.92709 0.60304,0.33362 1.35828,0.67008 2.11567,1.02221 1.51488,0.70419 3.08395,1.4096 3.7084,1.87794 0.33206,0.24914 0.69551,0.41752 1.06973,0.52299 0.3741,0.10532 0.75921,0.13558 1.16482,0.14265 0.81128,0.0157 1.6703,-0.10767 2.54358,-0.21377 0.87328,-0.1061 1.76437,-0.1843 2.6149,-0.0476 0.42523,0.0684 0.83246,0.18312 1.23611,0.38039 0.40365,0.19726 0.79335,0.46055 1.16482,0.83202 0.78247,0.78247 1.50721,1.35946 2.187,1.80665 0.67979,0.44719 1.31694,0.77304 1.90175,1.11728 0.58477,0.34423 1.11905,0.69118 1.61646,1.16478 0.49741,0.47364 0.96111,1.06643 1.37875,1.90175 0.13204,0.26368 0.31516,0.44967 0.54677,0.57054 0.23146,0.12104 0.50414,0.17919 0.80825,0.1902 0.60815,0.0236 1.33321,-0.13557 2.06813,-0.35642 0.73492,-0.22085 1.49535,-0.48916 2.13945,-0.68938 0.64411,-0.20041 1.18565,-0.32183 1.5214,-0.23774 1.14046,0.2849 2.01292,0.46071 2.68618,0.64183 0.67327,0.18115 1.1464,0.36231 1.47386,0.6656 0.32733,0.30298 0.51505,0.72773 0.61805,1.37875 0.10296,0.65107 0.11867,1.53256 0.11867,2.75755 0,0.65075 0.27626,1.16859 0.68938,1.61646 0.41328,0.4479 0.96952,0.81834 1.54517,1.18859 0.57566,0.37018 1.15312,0.72318 1.64024,1.14105 0.48711,0.41784 0.8745,0.90689 1.02221,1.49759 0.0982,0.39375 0.45042,0.56095 0.87953,0.68941 0.42916,0.1285 0.94445,0.19884 1.30743,0.38039 l -0.54665,14.16796 c 0.54449,0.72604 1.07197,1.461 1.61646,2.187 0.5002,0.66694 1.09413,1.20829 1.71159,1.68778 0.61743,0.47954 1.27769,0.89805 1.92549,1.25993 1.29564,0.72372 2.55124,1.27752 3.44692,1.94929 1.08466,0.81348 1.88226,1.39903 2.75751,1.97304 0.87524,0.574 1.82908,1.12847 3.23295,1.830424 1.45275,0.72636 2.48825,1.40269 3.66085,1.90175 0.5863,0.24953 1.19701,0.45254 1.92552,0.59428 0.72848,0.14186 1.57893,0.23774 2.59113,0.23774 0.61149,0 1.15512,0.14147 1.64023,0.38039 0.48511,0.23892 0.89513,0.56933 1.28366,0.9509 0.77708,0.76309 1.40378,1.71316 1.97307,2.47225 0.4156,0.55412 0.97812,1.02296 1.64023,1.4263 0.6621,0.40334 1.41518,0.75088 2.187,1.06973 1.54364,0.63766 3.18847,1.15712 4.35023,1.8542 1.44803,0.8688 2.65247,1.47597 3.92233,1.97303 1.26986,0.49706 2.59132,0.89745 4.23139,1.30747 0.65653,0.16426 1.826577,0.72518 3.066537,1.30743 1.23996,0.58225 2.55304,1.17312 3.47065,1.40253 0.57947,0.145 1.12758,0.54241 1.6165,1.06972 0.48893,0.52736 0.90653,1.18734 1.28366,1.87798 0.75433,1.38127 1.27025,2.87025 1.45007,3.58953 0.0939,0.37488 0.38982,0.76852 0.78448,1.16482 0.39465,0.3963 0.90307,0.80373 1.4263,1.1886 1.04646,0.7697 2.15906,1.46964 2.68622,1.99681 1.04627,1.04626 1.58978,1.89624 2.21078,2.40093 0.31044,0.25228 0.64532,0.41579 1.06972,0.47544 0.4244,0.0597 0.93137,0.0275 1.61646,-0.14264 0.76333,-0.19098 1.48065,-0.29158 2.16323,-0.33284 0.68261,-0.0413 1.34771,-0.0236 1.99684,0.0476 1.29824,0.14107 2.56955,0.47006 4.01743,0.83202 0.90118,0.22517 1.60086,0.1674 2.16323,0.0476 0.56233,-0.11986 0.99329,-0.31005 1.35498,-0.33284 0.18076,-0.0118 0.34266,0.0236 0.49918,0.11867 0.1564,0.0959 0.30219,0.26447 0.45167,0.523 0.29905,0.51686 0.59998,1.40146 0.97463,2.90015 0.0495,0.19727 0.47395,0.54374 1.11728,0.97463 0.64332,0.43088 1.49766,0.95958 2.40097,1.49762 1.80661,1.07613 3.81681,2.2254 4.65925,2.97148 0.26839,0.23774 0.55887,0.36781 0.85576,0.40412 0.29708,0.0354 0.60111,-0.0197 0.90334,-0.0951 0.60446,-0.15207 1.1774,-0.43233 1.66401,-0.49922 0.24324,-0.0354 0.46275,-0.0275 0.64187,0.0951 0.17919,0.12143 0.33637,0.34738 0.42786,0.71315 0.18351,0.73131 0.16268,2.03658 -0.14265,4.27891 -0.0821,0.60324 -0.57369,1.12195 -0.99844,1.64027 -0.2122,0.25896 -0.3965,0.51706 -0.52296,0.78443 -0.12653,0.26722 -0.19255,0.56053 -0.11867,0.8558 0.26328,1.0531 0.33401,1.62105 0.26171,1.9493 -0.0727,0.32812 -0.27429,0.41284 -0.54677,0.49918 -0.27232,0.0864 -0.61511,0.17172 -0.95086,0.49922 -0.33598,0.32734 -0.66418,0.89753 -0.92712,1.94926 -0.11592,0.46425 -0.0731,1.03841 0.0711,1.68782 0.14422,0.64941 0.37096,1.3769 0.64183,2.0919 0.54162,1.43 1.20644,2.87642 1.45008,3.85101 0.14068,0.56202 0.0802,1.16561 -0.0711,1.78288 -0.15169,0.6173 -0.38628,1.23127 -0.61805,1.8542 -0.23185,0.62296 -0.44625,1.25143 -0.54674,1.83042 -0.10059,0.57899 -0.1002,1.10726 0.14265,1.59272 0.90751,0.54449 1.82626,1.09574 2.73377,1.64023 1.8043,1.08262 3.07636,1.46391 3.80346,1.92553 0.36349,0.23067 0.59636,0.48279 0.68938,0.85576 0.0931,0.37292 0.0354,0.85544 -0.14265,1.56894 -0.16701,0.66851 -0.64462,1.6993 -1.11727,2.59113 -0.47266,0.89179 -0.92571,1.66263 -1.04596,1.78288 -0.22831,0.22831 -0.37292,0.44173 -0.42789,0.6656 -0.055,0.22399 -0.0354,0.4442 0.0236,0.6656 0.11868,0.44283 0.41878,0.88719 0.64183,1.33124 0.2232,0.44401 0.38118,0.89518 0.23774,1.35498 -0.0715,0.22989 -0.22399,0.45282 -0.4754,0.68938 -0.2515,0.23656 -0.60332,0.49183 -1.0935,0.73692 -0.44676,0.22321 -0.71198,0.44826 -0.80825,0.68938 -0.0963,0.24089 -0.0275,0.49109 0.14264,0.73693 0.34031,0.49163 1.11865,0.97011 2.02058,1.40252 1.80391,0.8648 4.07237,1.51814 4.08875,1.5214 0.98819,0.19766 1.56007,0.49203 1.85417,0.83199 0.29393,0.33991 0.30258,0.71004 0.14264,1.0935 -0.15993,0.38353 -0.48165,0.76529 -0.8558,1.0935 -0.3741,0.32812 -0.79272,0.61035 -1.14101,0.78447 -0.3741,0.18705 -0.56205,0.52504 -0.64186,0.92712 -0.0798,0.40204 -0.055,0.86315 -0.0236,1.35498 0.0314,0.49183 0.0645,1.01742 0.0236,1.47385 -0.0405,0.45643 -0.15601,0.84523 -0.45164,1.14105 -0.58587,0.58583 -1.14867,1.21056 -1.90174,1.8542 -0.75312,0.6436 -1.69297,1.32189 -2.99525,1.97303 -0.33638,0.16819 -0.66392,0.23617 -0.97463,0.23775 -0.31084,0.002 -0.59786,-0.0617 -0.87957,-0.1902 -0.5634,-0.2566 -1.07091,-0.7497 -1.49759,-1.30743 -0.42672,-0.55773 -0.78345,-1.19253 -1.04599,-1.75914 -0.2625,-0.56658 -0.42833,-1.07161 -0.49918,-1.35498 -0.0593,-0.23696 -0.134,-0.35131 -0.21417,-0.38039 -0.0798,-0.0275 -0.16662,0.0314 -0.26132,0.16622 -0.18941,0.27351 -0.40507,0.84075 -0.61805,1.5214 -0.42598,1.36123 -0.85647,3.18804 -1.0935,4.13626 -0.0927,0.37017 -0.0196,0.76837 0.0951,1.16483 0.11514,0.39646 0.27861,0.79473 0.38039,1.2361 0.10178,0.44142 0.13204,0.92146 0,1.42631 -0.13203,0.50488 -0.43532,1.05337 -1.02221,1.64027 -0.28608,0.28607 -0.2904,0.57109 -0.1902,0.87953 0.10021,0.30847 0.31477,0.62457 0.4279,0.97467 0.11317,0.35013 0.12928,0.72993 -0.11868,1.14105 -0.24796,0.41107 -0.77602,0.86346 -1.7591,1.35497 -0.8969,0.44845 -1.37455,0.70459 -1.61649,0.87954 -0.24207,0.17487 -0.2295,0.26328 -0.11868,0.33284 0.11082,0.0695 0.31437,0.12928 0.47541,0.26171 0.16111,0.13204 0.28097,0.32695 0.19019,0.68938 -0.23853,0.95451 0.21495,2.19891 0.0236,3.1854 -0.0479,0.24678 -0.13636,0.45678 -0.28529,0.6656 -0.14894,0.20906 -0.3741,0.41541 -0.6656,0.57055 -0.58332,0.31005 -1.49606,0.49918 -2.90016,0.49918 -0.23892,0 -0.8712,-0.39685 -1.4263,-0.71315 -0.83292,0.0974 -1.63697,0.20552 -1.64027,0.95089 -0.008,1.38721 0.96705,5.44593 0.523,6.27575 -0.38393,0.71583 -2.5079,0.22164 -2.97148,1.37876 -0.83709,2.0875 1.46379,3.79847 2.90015,4.75435 0.92021,0.61063 3.23394,2.7939 3.96988,4.06494 1.21968,2.10652 1.85652,5.86899 0.7607,6.96512 -0.66124,0.66121 -4.80217,1.18801 -5.34863,1.1886 -2.127,-8e-5 -0.13479,0.90115 0.78444,3.96984 0.94468,3.15311 5.86667,7.25042 7.82092,7.25042 0.62139,0 2.16924,1.36095 3.44688,2.63864 4.66782,4.6677 7.26559,8.2542 8.41521,-0.9509 0.54488,-4.36296 1.42705,-10.44183 2.92392,-12.00465 1.0568,-1.10356 3.28278,-1.74834 4.16004,-3.73222 1.94513,-4.39887 4.61638,-8.93784 8.3201,-6.67979 3.66942,2.23545 4.02415,4.50776 7.39303,1.61645 3.92351,-3.36895 5.0033,-1.72805 4.77809,-4.73061 -0.0971,-1.29608 -1.71254,-6.2354 -0.83199,-6.82245 0.74801,-0.50024 4.23439,1.39216 5.22976,1.1886 2.58417,-0.53022 3.66086,-2.81944 3.66086,-3.94614 0,-0.38432 3.94135,-2.46554 5.30108,-3.09035 1.35973,-0.62477 2.60287,-3.63503 3.30428,-3.39933 2.31428,0.77759 6.14021,3.31107 5.20602,0.33284 -0.0947,-0.30219 4.38599,0.21338 6.56097,-8.12995 0.81449,-3.12426 3.26934,-6.93472 3.82727,-7.60692 0.71036,-0.85595 -0.69402,-0.50971 -1.02218,-3.2805 l -0.45167,-7.4168 c 0.86723,0.22634 1.64137,0.13046 2.37715,-0.16623 z" />
  </g>
</svg>
