<?xml version="1.0" encoding="UTF-8" standalone="no"?>
<!-- Created with Inkscape (http://www.inkscape.org/) -->

<svg
   width="210mm"
   height="297mm"
   viewBox="0 0 210 297"
   version="1.1"
   id="svg1283"
   inkscape:version="1.1.2 (b8e25be833, 2022-02-05)"
   sodipodi:docname="vector.svg"
   xmlns:inkscape="http://www.inkscape.org/namespaces/inkscape"
   xmlns:sodipodi="http://sodipodi.sourceforge.net/DTD/sodipodi-0.dtd"
   xmlns="http://www.w3.org/2000/svg"
   xmlns:svg="http://www.w3.org/2000/svg">
  <sodipodi:namedview
     id="namedview1285"
     pagecolor="#ffffff"
     bordercolor="#666666"
     borderopacity="1.0"
     inkscape:pageshadow="2"
     inkscape:pageopacity="0.0"
     inkscape:pagecheckerboard="0"
     inkscape:document-units="mm"
     showgrid="false"
     inkscape:zoom="0.52347032"
     inkscape:cx="155.69173"
     inkscape:cy="458.47872"
     inkscape:window-width="1920"
     inkscape:window-height="1017"
     inkscape:window-x="-8"
     inkscape:window-y="-8"
     inkscape:window-maximized="1"
     inkscape:current-layer="layer1" />
  <defs
     id="defs1280" />
  <g
     inkscape:label="Capa 1"
     inkscape:groupmode="layer"
     id="layer1">
    <path
       d="m 36.168381,4.102356 c 3.860861,2.684398 -0.985468,7.992122 2.715339,9.925026 3.277515,2.874847 4.104837,7.408579 6.532764,10.926369 0.870397,2.95417 -1.669615,6.14073 -1.943529,8.27202 -1.715854,2.72192 -0.538846,6.71478 -2.671005,9.21667 -3.465137,6.95315 -8.03831,13.76815 -11.938152,20.66571 -2.329324,-1.81726 -3.862655,-3.57418 -5.786728,-5.12269 -1.222053,-0.61837 -4.810653,-3.69702 -6.545646,-2.18189 -4.893634,-1.0206 -3.369205,3.74146 -1.596908,6.37628 1.195022,2.80568 -0.584893,6.42006 -0.584981,9.65582 1.909829,2.38098 5.693941,3.86793 5.122687,7.86184 1.62356,1.89852 2.147705,5.86775 4.819238,3.28594 3.113006,-0.68111 4.085777,3.32328 4.397415,6.13238 -1.66683,-0.4015 -5.823187,3.38877 -2.671006,4.53872 -2.968594,3.69513 3.02398,2.98836 2.845929,5.88159 3.720148,-0.55492 3.641553,4.860259 5.814381,5.122689 0.429531,2.79516 1.357714,4.97046 3.67209,7.20971 3.251408,-1.25818 5.792395,-0.28313 4.363776,3.59292 -1.447134,2.37079 -0.03866,6.43671 -2.181888,8.83438 -1.14221,1.66277 -4.007181,3.21275 -7.197737,3.60482 -3.883471,-0.45458 -1.576406,4.55108 -5.134663,5.12268 0.832786,2.10241 1.911199,4.28961 3.604865,5.12266 0.79131,2.33922 4.198704,2.06241 3.604849,5.7868 2.640513,1.69044 -2.116317,3.63308 -2.181888,5.12264 -4.662365,0.0439 -5.153434,2.47595 -5.786737,6.54569 -3.30234,0.0791 -5.753045,1.01389 -7.968624,2.18192 -0.840608,1.46829 -3.909395,3.9489 -5.122687,5.12264 -1.972202,0.94658 -2.823178,4.02966 -0.758971,5.78679 -2.081755,2.81656 2.010928,5.12669 5.122695,4.36376 1.326289,2.62569 -6.456568,6.54419 -0.798516,7.30457 0.60651,2.32498 2.494774,3.36841 2.980395,5.8143 0.516878,3.93204 -1.028105,5.80218 -2.181888,8.06354 -1.819925,3.07894 1.562628,4.03221 2.181888,5.85394 3.08095,0.26186 6.373975,-0.0896 8.687982,1.42295 2.581981,-0.0351 4.61269,2.80662 4.673148,4.85295 -1.602875,1.57463 -2.719162,3.11867 -5.392514,3.87465 -1.372898,3.11814 -5.905973,1.97963 -3.604813,5.81439 1.411097,1.81549 4.858404,2.80997 8.47428,2.24906 2.071904,-0.47365 4.745573,-3.10118 6.798892,-1.51785 0.894097,1.94756 7.044914,-1.67006 5.881597,3.52569 -2.210755,2.97086 1.236798,3.75743 1.422978,6.71968 3.826186,0.5 0.879676,5.599 2.940824,7.96872 1.219953,1.99203 3.023436,-2.74142 5.122687,-2.18193 1.815689,-4.19407 3.964386,1.98061 7.130521,0.75924 0.473556,-1.89255 2.983093,-5.10638 5.20188,-2.94072 -0.253694,2.34775 2.924128,3.70383 5.122686,4.36376 2.895816,0.43938 6.419591,3.61058 2.181871,5.88161 -0.941953,1.71795 -1.920436,4.32386 -4.363785,4.36376 -0.0025,1.84941 -2.929797,5.52353 0,6.5456 1.520114,2.13657 3.649708,2.33526 5.122686,4.36385 3.818128,0.93094 5.188135,-1.72613 5.786736,-4.32422 0.674261,-1.81215 4.314875,-3.0996 5.786759,-0.79878 2.552711,0.42795 1.910297,4.07693 4.391399,5.12273 2.09738,2.71321 3.032144,-2.60021 6.50607,-1.42304 2.097058,2.04739 5.326168,1.34132 7.968618,2.18193 0.12152,-2.52631 -2.46642,-6.90308 1.30429,-9.26101 3.97719,-1.31399 4.827,1.58262 8.24942,1.95644 1.73302,1.77989 5.00827,-1.23358 5.82631,-0.75924 3.8789,0.43411 4.3788,-2.81215 6.37071,-4.09389 3.84006,-1.42032 5.18492,1.20107 6.05656,3.3626 2.77056,0.0615 2.58203,2.92973 5.78673,3.6721 1.974,0.92585 6.21572,1.51021 2.94082,4.36384 -1.92402,2.14634 -1.65914,5.55429 0,7.30457 3.34411,2.3046 1.09723,6.23144 2.94081,9.4864 -0.18963,4.08212 3.4212,3.1409 4.85286,5.51693 1.35431,2.26612 2.12101,4.44154 2.45171,7.46758 1.40469,2.56312 2.26343,4.4555 5.02783,5.89356 2.96422,1.13236 5.42142,2.53975 6.46474,-2.4285 1.45157,-3.73808 2.8887,-6.14471 2.63491,-10.53764 2.27912,-2.77797 2.89508,-6.14374 5.50948,-8.85273 1.68334,-3.27465 -0.53311,-8.2132 3.23332,-10.11322 3.58495,-0.29262 3.85018,-4.7729 5.2244,-7.83092 3.68789,-3.59408 0.80328,-9.03658 0.80151,-13.35042 -0.0521,-5.37591 -4.59243,-3.8352 -7.83623,-4.37448 -5.57123,2.50433 -3.11027,-3.3859 -6.32019,-5.65613 1.22215,-3.84785 0.60638,-8.81478 -1.64846,-12.55788 -4.03787,2.26927 -6.51855,2.84827 -9.14853,-0.95177 -5.04923,-0.3682 -3.38071,-6.37327 -2.59704,-9.83051 0.6027,-3.44065 2.01206,-6.26159 0.0773,-9.61365 -0.84,-4.84909 6.38192,-5.23064 5.12269,-10.07129 2.37656,-2.31927 4.98079,-5.51132 6.46844,-8.67963 1.36083,-3.35303 2.06029,-7.10861 5.86396,-8.28542 4.66212,2.65698 4.34838,-3.70321 5.12269,-6.54568 1.847,-5.38478 6.31684,1.9154 7.68244,1.60248 0.18638,-4.97528 8.89924,-1.348 6.98659,-6.43364 -4.07779,-3.61507 -0.53329,-6.23962 3.54497,-4.65533 0.39048,-3.47921 3.32297,-7.07706 0.9768,-10.45917 -1.96345,-3.40004 -3.5569,-7.19955 -8.10806,-7.321 -4.7821,-1.54297 -9.68937,-2.82628 -14.58797,-0.69491 -3.90965,0.97312 -9.10434,-0.71667 -9.05433,-5.41988 -2.49556,-3.21027 1.29814,-8.06279 -3.36687,-9.81929 -3.52842,-4.06684 -5.38382,1.8077 -8.83317,0.22734 -5.94871,-1.08171 -0.55556,-5.17985 -3.83205,-7.95784 -1.34496,-2.49503 -2.90911,-10.26179 -6.40931,-5.8961 -5.31601,-0.0404 -9.82398,5.44643 -15.27722,2.94455 -4.05709,0.5413 -8.97544,0.40448 -7.30458,-5.1227 2.76949,-5.331119 4.1097,-11.563029 5.88162,-17.387859 -1.29772,-3.59477 -4.24571,-5.02622 -5.12269,-8.13071 -5.49278,4.19833 -1.1808,-5.20378 -5.59575,-3.85916 -2.7245,1.66829 -6.97004,2.02931 -10.33682,1.27449 -3.43353,-2.23005 4.27774,-7.05729 -1.0457,-7.81617 -1.93051,-1.93644 -5.414264,-0.92653 -7.022479,-2.69049 -3.33727,-0.91647 -4.430572,-3.12574 -4.363779,-6.37161 0.192621,-3.55414 -5.306601,-1.87799 -7.304552,-3.7789 -1.621214,-0.82804 -4.286659,-1.7723 -4.363777,-4.36376 2.644653,-1.65003 0.597459,-4.54424 -2.833987,-4.45866 -1.916507,-3.62227 -2.575486,0.98821 -4.403345,1.51784 -0.40642,-2.87884 -2.453034,-5.24859 -4.431028,-6.54564 -3.361866,0.2203 -3.176855,-2.46683 -6.337049,-3.46135 -2.321767,-1.46625 0.322059,-5.35209 -4.493172,-4.60214 -4.90626,0.0228 0.337702,-5.14083 3.379257,-3.60487 1.682524,-2.16999 1.231535,-7.62617 -1.995902,-5.12269 -4.247034,2.37631 -4.291121,-0.84368 -3.644417,-4.21736 -1.745997,-0.99986 -3.555613,-1.936126 -4.458663,-3.778882 C 49.713994,14.700096 48.656372,12.677666 47.077926,10.648152 44.700896,9.641681 44.316242,6.642825 41.291164,6.284376 39.986254,5.26787 38.513997,3.891852 36.168477,4.102487 Z"
       style="fill:#000000;fill-opacity:1;stroke:#d39062;stroke-width:1.16251;stroke-miterlimit:4;stroke-dasharray:none;stroke-opacity:1"
       id="Palena" />
  </g>
</svg>
