<?xml version="1.0" encoding="UTF-8" standalone="no"?>
<!-- Created with Inkscape (http://www.inkscape.org/) -->

<svg
   width="210mm"
   height="297mm"
   viewBox="0 0 210 297"
   version="1.1"
   id="svg57"
   inkscape:version="1.1.2 (b8e25be833, 2022-02-05)"
   sodipodi:docname="vector.svg"
   xmlns:inkscape="http://www.inkscape.org/namespaces/inkscape"
   xmlns:sodipodi="http://sodipodi.sourceforge.net/DTD/sodipodi-0.dtd"
   xmlns="http://www.w3.org/2000/svg"
   xmlns:svg="http://www.w3.org/2000/svg">
  <sodipodi:namedview
     id="namedview59"
     pagecolor="#ffffff"
     bordercolor="#666666"
     borderopacity="1.0"
     inkscape:pageshadow="2"
     inkscape:pageopacity="0.0"
     inkscape:pagecheckerboard="0"
     inkscape:document-units="mm"
     showgrid="false"
     inkscape:zoom="0.74029882"
     inkscape:cx="361.34057"
     inkscape:cy="561.93525"
     inkscape:window-width="1920"
     inkscape:window-height="1017"
     inkscape:window-x="-8"
     inkscape:window-y="-8"
     inkscape:window-maximized="1"
     inkscape:current-layer="layer1" />
  <defs
     id="defs54" />
  <g
     inkscape:label="Capa 1"
     inkscape:groupmode="layer"
     id="layer1">
    <path
       inkscape:connector-curvature="0"
       id="Florida"
       style="fill:#000000;fill-opacity:1;fill-rule:evenodd;stroke:#d39062;stroke-width:0.842515;stroke-linecap:butt;stroke-linejoin:miter;stroke-miterlimit:4;stroke-dasharray:none;stroke-opacity:1"
       d="m 93.888797,31.572218 c -0.32642,1.14979 -0.70856,2.3062 -0.94785,3.68597 -0.17061,0.98624 -0.2063,1.91354 -0.10532,2.68555 0.10097,0.7721 0.38561,1.35113 0.94784,1.63238 1.05161,0.52576 1.65344,0.97457 2.00102,1.36906 0.34731,0.39432 0.43088,0.75904 0.36821,1.15841 -0.12448,0.79909 -0.78951,1.73579 -0.78951,3.37008 0,0.92165 0.18889,1.59443 0.4744,2.10634 0.28551,0.51184 0.69027,0.84958 1.10575,1.21108 0.41521,0.36124 0.82084,0.73989 1.21116,1.21116 0.38996,0.47092 0.73815,1.0563 0.94784,1.8956 0.32468,1.29778 0.0871,2.32396 -0.26288,3.31742 -0.34818,0.99346 -0.78951,1.96359 -0.78951,3.10677 0,1.09713 0.3891,2.46601 1.00051,3.73863 0.61107,1.2727 1.449763,2.45026 2.211593,3.21209 1.2055,1.20559 1.98256,1.84338 2.21158,2.52756 0.22893,0.68418 -0.1062,1.38743 -1.15841,2.79088 -0.54752,0.72944 -1.41877,1.28506 -2.422243,1.7377 -1.00355,0.45264 -2.14629,0.79473 -3.26475,1.10575 -1.11854,0.31075 -2.21463,0.59104 -3.10677,0.89518 -0.89222,0.30379 -1.57118,0.67287 -1.89569,1.10583 -1.39483,1.85975 -2.52425,3.0508 -4.26526,4.79181 -1.89447,1.89447 -2.49971,2.84058 -3.73863,5.31835 -0.4422,0.88456 -1.11985,1.32615 -1.8957,1.47439 -0.77558,0.14797 -1.68286,0.0261 -2.52747,-0.15756 -0.84435,-0.18192 -1.6154,-0.4213 -2.26433,-0.52663 -0.6485,-0.10532 -1.18052,-0.0609 -1.36906,0.31598 -0.26985,0.53882 -0.66417,0.89962 -1.15841,1.15841 -0.49443,0.25853 -1.07738,0.4274 -1.63238,0.57886 -0.55536,0.15146 -1.07581,0.25591 -1.52705,0.4744 -0.45177,0.21761 -0.81737,0.54317 -1.00051,1.00051 -0.62412,1.55926 -1.04612,2.2968 -1.42173,2.6328 -0.37604,0.336 -0.7338,0.24721 -1.10583,0.0522 -0.37169,-0.19411 -0.7573,-0.49442 -1.36906,-0.52662 -0.61194,-0.0348 -1.43104,0.23067 -2.52756,1.05317 -0.85567,0.64153 -1.99153,1.72934 -3.2121,2.58013 -0.61019,0.42566 -1.2115,0.7782 -1.84302,1.00051 -0.63109,0.22197 -1.28968,0.30989 -1.89561,0.15756 -0.16539,-0.0435 -2.20967,-1.0725 -4.26526,-1.8957 -1.02784,-0.41172 -2.05203,-0.766 -2.84354,-0.94776 -0.79125,-0.18192 -1.33903,-0.17235 -1.42173,0.15756 -0.29943,1.19845 -0.68853,2.35207 -1.47438,3.10685 -0.39345,0.37691 -0.8944,0.67113 -1.52705,0.78951 -0.63283,0.11925 -1.4186,0.0783 -2.36958,-0.15755 -1.70288,-0.42566 -2.75858,-0.29248 -3.79129,-0.0522 -1.03272,0.24025 -2.03566,0.57886 -3.68606,0.57886 -1.38517,0 -2.78261,-0.0435 -4.00195,0.0522 -1.21934,0.0958 -2.26189,0.31337 -2.94877,1.00051 -0.93279,0.932792 -4.0977,3.456172 -4.79181,4.844472 -0.40041,0.79995 -0.83042,1.32136 -1.26374,1.63238 -0.43349,0.31075 -0.91416,0.38648 -1.42181,0.3682 -1.01522,-0.0348 -2.18503,-0.5597 -3.73863,-0.94784 -1.45768,-0.36473 -4.1528,-1.11089 -6.37152,-1.57972 l -10.42613012,20.90493 4.47583002,3.58073 -1.68496,12.7957 c 0.33774,0.30466 0.65111,0.63196 1.15841,0.63196 3.12026,0 5.32618,-1.05318 8.5831001,-1.05318 1.29273,0 2.9567,-0.17931 4.2126,0.0522 0.62761,0.11577 1.16599,0.32294 1.47439,0.73728 0.30815,0.41434 0.37604,1.02384 0.15756,1.89569 -0.30815,1.23249 -0.81563,1.99014 -1.52705,2.73813 -0.71204,0.74773 -1.61689,1.45898 -2.73822,2.58022 -0.65284,0.65285 -1.08703,1.35009 -1.3164,1.94836 -0.2298,0.598 -0.23763,1.09565 0,1.52705 0.23764,0.43088 0.7251,0.7956 1.47439,0.94784 0.74947,0.15234 1.74937,0.13406 3.0541,-0.10532 l 1.57972,25.11744 c -1.69096,0 -2.93276,0.28899 -3.94929,0.89518 -1.01643,0.60671 -1.76425,1.52757 -2.42223,2.84354 -0.47875,0.95698 -1.06527,1.88681 -1.89561,2.79078 -0.83042,0.90398 -1.9294601,1.75459 -3.4754001,2.52756 -0.90197,0.4509 -2.17381,1.50669 -3.0541,2.79079 -0.44046,0.6424 -0.8017,1.34495 -0.94785,2.05368 -0.14624,0.70856 -0.0783,1.42538 0.26288,2.10626 0.59801,1.19558 1.305,2.05803 2.10626,2.84354 0.80169,0.78515 1.6772,1.51921 2.68555,2.52756 0.65893,0.65894 1.5563801,1.55395 2.1062501,2.6328 0.27507,0.53968 0.49704,1.10426 0.52663,1.7377 0.0261,0.63369 -0.11403,1.33346 -0.4744,2.05359 -0.66764,1.3352 -0.85741,2.37836 -0.52663,3.37008 0.33078,0.99172 1.20167,1.94131 2.68546,3.0541 0.68157,0.51184 1.05666,1.05631 1.31649,1.68504 0.2594,0.62848 0.37865,1.32833 0.47353,2.00102 0.0957,0.67287 0.17931,1.35792 0.3682,2.00093 0.1889,0.64327 0.51271,1.25033 1.05309,1.79037 1.61532,1.61531 2.2632,2.28339 2.52756,3.15943 0.26462,0.87603 0.10533,1.95331 0.10533,4.31792 0,2.63167 -0.42218,5.70092 -0.47354,7.26671 0.70421,-0.121 1.41381,-0.27768 2.10626,-0.26288 1.0738,0.0261 2.09938,0.20891 3.10677,0.63195 1.00738,0.42305 1.99527,1.04743 2.8962,1.94836 0.79908,0.79908 1.45019,1.84059 2.05359,2.94877 0.60323,1.10827 1.16294,2.28018 1.68504,3.47541 1.04412,2.39037 2.01738,4.75551 3.42274,6.16087 1.43696,1.43704 1.98535,2.32439 2.0536,2.94877 0.0696,0.62412 -0.31424,1.00347 -0.78951,1.42173 -0.47527,0.41869 -1.0174,0.86611 -1.21116,1.68504 -0.19412,0.8191 -0.0696,1.96533 0.8426,3.79138 0.65546,1.31057 1.33904,2.39743 2.05368,3.31733 0.71465,0.91999 1.46882,1.70915 2.31691,2.36957 1.69619,1.32102 3.74934,2.24754 6.42419,3.31742 0.31597,0.12622 0.6659,-0.47005 1.05317,-1.42173 0.38735,-0.95193 0.7956,-2.28261 1.15841,-3.6333 0.72596,-2.70139 1.31466,-5.52195 1.36906,-5.73965 0.24373,-0.97597 0.87481,-1.99554 1.7377,-2.94878 0.86263,-0.95324 1.96777,-1.81787 3.05411,-2.36957 1.08633,-0.55188 2.19243,-0.80779 3.10685,-0.57973 0.45699,0.11403 0.87107,0.35689 1.21107,0.73728 0.34035,0.38039 0.61629,0.88587 0.78951,1.57972 0.59366,2.37566 1.19584,4.12381 1.94836,5.42376 0.75294,1.29986 1.64787,2.16266 2.68546,2.79078 1.03759,0.62848 2.23691,1.00861 3.68605,1.36907 1.44906,0.36037 3.12061,0.71465 5.1077,1.21116 2.07257,0.51792 4.57576,0.4979 7.10871,0.3682 2.53305,-0.1297 5.1111,-0.3682 7.26671,-0.3682 1.49589,0 2.98002,0 4.47591,0 0.0522,0 0.0522,0.0522 0.10533,0.0522 0.15668,-0.61019 0.26201,-1.3177 0.4744,-1.84302 0.25417,-0.63109 0.58756,-1.14309 1.00051,-1.57972 0.4126,-0.43697 0.92286,-0.78341 1.57971,-0.94784 1.28663,-0.32208 2.9621,-0.30205 4.63382,-0.15756 1.671723,0.1445 3.308893,0.40564 4.423163,0.68506 0.75469,0.18889 1.37272,0.1767 1.8957,0 0.52314,-0.17671 0.95924,-0.49182 1.31639,-0.89519 0.71465,-0.80692 1.1874,-1.95349 1.63238,-2.84354 1.06223,-2.12436 0.87603,-5.19143 1.57972,-6.95072 0.54926,-1.37254 1.00442,-2.08188 1.68504,-2.36957 0.6807,-0.28812 1.61984,-0.12187 3.15942,0.26288 0.80344,0.20108 1.38003,0.17235 1.8957,0.0522 0.51531,-0.12013 0.93113,-0.32207 1.3164,-0.63196 0.77035,-0.61977 1.44104,-1.51034 2.63288,-2.10626 1.35044,-0.67547 1.96046,-1.29246 2.58022,-1.36906 0.61977,-0.0783 1.27453,0.37952 2.79079,1.89561 0.61977,0.61977 0.84435,2.42571 1.00051,4.31792 0.15581,1.89221 0.21936,3.89271 0.57886,4.79181 0.24286,0.60758 0.77471,0.80169 1.47439,0.78951 0.69985,-0.009 1.55873,-0.24634 2.42223,-0.57886 1.72708,-0.6659 3.48324,-1.68704 4.10727,-1.84303 0.70856,-0.1767 1.43783,-0.11751 2.15892,0.0522 0.72162,0.17061 1.43792,0.45003 2.15901,0.73728 0.72074,0.28725 1.45036,0.61629 2.15892,0.78951 0.70856,0.17322 1.42268,0.22371 2.10626,0.0522 0.52227,-0.13057 0.65632,-0.47005 0.57972,-0.89519 -0.0783,-0.42565 -0.38561,-0.94497 -0.78951,-1.52705 -0.80865,-1.16407 -1.99344,-2.5125 -2.47489,-3.4754 -0.19586,-0.39171 -0.0783,-0.87099 0.21065,-1.36907 0.28725,-0.4979 0.76862,-0.99224 1.26374,-1.47438 0.9911,-0.96439 2.09468,-1.77879 2.26424,-1.94836 0.38823,-0.38823 0.61194,-1.01034 0.68418,-1.68504 0.0696,-0.67461 0.0174,-1.40031 -0.10532,-2.15892 -0.24808,-1.51713 -0.78603,-2.99456 -1.10575,-3.63331 -0.551,-1.10209 -1.32754,-2.04097 -2.05368,-2.94886 -0.72596,-0.9078 -1.39831,-1.80194 -1.68504,-2.94878 -0.31337,-1.25407 -1.03002,-2.39133 -1.84294,-3.37008 -0.81301,-0.97866 -1.71089,-1.81621 -2.42224,-2.52747 -0.40128,-0.40128 -0.33338,-0.75121 0,-1.10583 0.33252,-0.35428 0.91242,-0.68941 1.57972,-1.05318 0.66764,-0.36385 1.39883,-0.78254 2.00093,-1.21107 0.60236,-0.42914 1.07363,-0.87168 1.21116,-1.42172 0.14537,-0.58147 0.0261,-1.27741 -0.26288,-2.00102 -0.28899,-0.72336 -0.73467,-1.46438 -1.21107,-2.21158 -0.95333,-1.4945 -2.04481,-2.91335 -2.26434,-3.7913 -0.15581,-0.62325 0.0966,-1.08355 0.57973,-1.42181 0.48224,-0.33861 1.1793,-0.55449 1.94827,-0.78951 0.76862,-0.23503 1.61297,-0.47615 2.31691,-0.78951 0.7042,-0.31424 1.29246,-0.74163 1.57971,-1.3164 0.54665,-1.09269 1.77627,-2.11383 3.05419,-2.94878 1.27784,-0.83477 2.61313,-1.46455 3.36999,-1.84303 0.51358,-0.25678 3.08318,3.44312 4.26527,3.73864 1.16555,0.2916 2.53818,0.28377 3.94928,0.21065 1.4112,-0.0696 2.84606,-0.21065 4.05461,-0.21065 0.97997,0 1.8856,0.18192 2.68555,0.47353 0.79996,0.2916 1.5093,0.68505 2.21159,1.10575 1.40466,0.84086 2.7033,1.78166 4.2126,2.159 1.16554,0.29161 2.53809,0.28377 3.94928,0.21065 1.41111,-0.0696 2.84606,-0.21065 4.05461,-0.21065 2.85103,0 5.67933,0 8.53044,0 1.81082,0 3.08666,0.0261 4.00195,-0.3682 0.45786,-0.19673 0.85218,-0.49355 1.15841,-0.94785 0.3064,-0.45351 0.53272,-1.07867 0.73728,-1.8956 0.30814,-1.23353 0.98858,-1.80961 1.57971,-2.52756 0.59105,-0.71813 1.10575,-1.59504 1.10575,-3.37008 0,-1.43052 -0.15233,-2.52321 -0.63195,-3.58073 -0.47963,-1.05744 -1.29116,-2.02836 -2.58023,-3.31734 -1.07127,-1.07136 -1.83214,-2.34049 -2.42223,-3.63339 -0.59017,-1.29281 -1.00608,-2.65534 -1.3164,-3.89662 -0.1532,-0.61455 0.0435,-1.10523 0.4213,-1.57972 0.3743,-0.4744 0.92565,-0.88848 1.52706,-1.3164 0.60148,-0.42826 1.20985,-0.89457 1.7377,-1.36915 0.5275,-0.4744 0.95228,-0.96542 1.10583,-1.57971 0.44655,-1.78497 0.79735,-2.7228 1.57972,-3.21209 0.78254,-0.4892 2.01425,-0.52663 4.31784,-0.52663 1.61087,0 3.02581,-0.0609 4.26526,-0.21065 1.23945,-0.15233 2.29654,-0.43697 3.21209,-0.89518 1.06249,-0.53099 1.4481,-1.02393 1.42173,-1.47439 -0.0261,-0.45003 -0.44568,-0.82346 -1.10575,-1.15841 -1.3198,-0.67026 -3.45878,-1.10584 -4.58124,-1.10584 -0.57451,0 -1.13439,-0.20717 -1.68496,-0.57886 -0.55013,-0.37168 -1.10113,-0.88378 -1.63237,-1.42172 -1.06258,-1.07598 -2.09172,-2.28331 -3.10686,-2.79088 -2.18842,-1.09425 -4.5264,-2.36748 -6.42409,-4.26526 -1.07032,-1.07023 -2.33301,-1.34007 -3.6334,-1.73761 -0.65023,-0.19847 -1.30029,-0.457 -1.94826,-0.84261 -0.64763,-0.38562 -1.28959,-0.92957 -1.89569,-1.7377 -1.18183,-1.57571 -1.60914,-2.73978 -2.26425,-3.68606 -0.32729,-0.47266 -0.70246,-0.90998 -1.26382,-1.26374 -0.56145,-0.35341 -1.33059,-0.63544 -2.36957,-0.89518 -1.0006,-0.24982 -1.6034,-0.53272 -2.00094,-0.84261 -0.3978,-0.30988 -0.58146,-0.63805 -0.57885,-1.05308 0.003,-0.83042 0.6189,-1.9501 1.00042,-3.47541 0.74686,-2.98594 0.89779,-4.22287 1.57971,-6.95072 0.43088,-1.72421 0.31424,-2.81708 -0.21065,-3.73872 -0.52489,-0.92156 -1.41798,-1.68121 -2.42223,-2.68547 -0.49268,-0.49268 -0.9334,-2.08432 -1.21116,-3.84404 -0.27768,-1.75964 -0.42131,-3.66456 -0.42131,-4.68648 0,-1.48405 -0.45351,-2.76058 -1.15849,-3.89662 -0.70508,-1.13596 -1.65867,-2.13264 -2.58023,-3.05411 -0.7042,-0.7042 -0.67199,-1.00825 -1.05308,-1.57971 -0.41086,-0.41086 -0.45612,-0.85044 -0.26288,-1.3164 0.19237,-0.4657 0.60062,-0.97196 1.10583,-1.47439 1.01096,-1.00503 2.37663,-2.06778 2.89612,-3.10685 1.15649,-2.31291 2.63001,-4.62233 3.21209,-6.95073 0.26027,-1.04176 0.81388,-2.04497 1.42172,-2.94877 0.60759,-0.90389 1.27392,-1.73361 1.79037,-2.422242 0.35863,-0.47788 0.17322,-0.73902 -0.31598,-0.94784 -0.4892,-0.20891 -1.30369,-0.33774 -2.15892,-0.47353 -0.85566,-0.13667 -1.78688,-0.26637 -2.52756,-0.52663 -0.74076,-0.26027 -1.27679,-0.63109 -1.42172,-1.21108 -0.10794,-0.43175 0.13753,-0.99441 0.57885,-1.57971 0.4422,-0.58495 1.07354,-1.22683 1.73771,-1.84303 1.32832,-1.2324 2.75292,-2.38002 3.00144,-3.00144 0.27854,-0.69724 0.0888,-1.10496 -0.42131,-1.26382 -0.51009,-0.15843 -1.31866,-0.0696 -2.15892,0.10532 -1.6806,0.35689 -3.54095,1.18427 -3.79138,1.68504 -0.28986,0.57973 -0.58756,0.54839 -0.84261,0.15756 -0.25504,-0.38997 -0.49007,-1.13526 -0.68418,-2.0536 -0.3891,-1.83685 -0.63196,-4.28441 -0.63196,-5.58166 0,-1.78819 -0.31771,-2.96897 -0.94784,-3.89671 -0.63022,-0.92765 -1.56944,-1.61148 -2.79079,-2.52747 -0.60497,-0.45351 -1.09783,-1.09783 -1.63238,-1.63238 -0.32729,-0.32729 -0.4744,-1.64108 -0.73728,-3.10676 -0.26288,-1.46577 -0.60932,-3.08457 -1.36915,-3.84405 -1.49266,-1.49267 -2.43912,-2.41344 -3.00144,-3.52798 -0.56231,-1.11463 -0.73728,-2.40822 -0.73728,-4.47592 0,-0.98092 -0.17148,-1.67729 -0.4213,-2.21158 -0.24982,-0.53446 -0.61281,-0.88282 -1.05317,-1.15841 -0.88065,-0.551 -2.08145,-0.77732 -3.37008,-1.42181 -1.44706,-0.72336 -2.53931,-1.14901 -3.73864,-1.36906 -1.19932,-0.22023 -2.491,-0.26288 -4.26526,-0.26288 -0.74511,0 -2.02826,-1.133 -3.21209,-2.36958 -1.18383,-1.23657 -2.23343,-2.54932 -2.63289,-2.94877 -1.03672,-1.03672 -2.13977,-2.15936 -2.89611,-3.31742 -0.37778,-0.57886 -0.68331,-1.18078 -0.84261,-1.79036 -0.15842,-0.60933 -0.21239,-1.20272 -0.0522,-1.84295 0.16016,-0.63979 -0.0784,-1.04368 -0.57886,-1.26382 -0.49704,-0.22023 -1.2183,-0.23677 -2.00102,-0.21065 -1.56535,0.0522 -3.31811,0.4213 -3.7913,0.4213 -2.25676,0 -3.89636,-0.0783 -5.21302,-0.63195 -0.65807,-0.27681 -1.24458,-0.66939 -1.79036,-1.26383 -0.54578,-0.59365 -1.06484,-1.39248 -1.57972,-2.42214 -0.49268,-0.98615 -1.53689,-2.02879 -2.68555,-3.05419 -1.14866,-1.02541 -2.36678,-1.99824 -3.15943,-2.79079 -0.47614,-0.47614 -1.10792,-0.81127 -1.79036,-1.00051 -0.68244,-0.18976 -1.42843,-0.24895 -2.21158,-0.26375 -1.56623,-0.0261 -3.24509,0.15755 -4.58116,0.15755 -1.57901,0 -3.2671,0.45525 -5.05512,1.00051 -1.787933,0.54578 -3.673693,1.19489 -5.634323,1.68504 -0.57451,0.14363 -1.02454,0.0696 -1.47439,0 z" />
  </g>
</svg>
