<?xml version="1.0" encoding="UTF-8" standalone="no"?>
<!-- Created with Inkscape (http://www.inkscape.org/) -->

<svg
   width="210mm"
   height="297mm"
   viewBox="0 0 210 297"
   version="1.1"
   id="svg1283"
   inkscape:version="1.1.2 (b8e25be833, 2022-02-05)"
   sodipodi:docname="vector.svg"
   xmlns:inkscape="http://www.inkscape.org/namespaces/inkscape"
   xmlns:sodipodi="http://sodipodi.sourceforge.net/DTD/sodipodi-0.dtd"
   xmlns="http://www.w3.org/2000/svg"
   xmlns:svg="http://www.w3.org/2000/svg">
  <sodipodi:namedview
     id="namedview1285"
     pagecolor="#ffffff"
     bordercolor="#666666"
     borderopacity="1.0"
     inkscape:pageshadow="2"
     inkscape:pageopacity="0.0"
     inkscape:pagecheckerboard="0"
     inkscape:document-units="mm"
     showgrid="false"
     inkscape:zoom="0.74029882"
     inkscape:cx="361.34057"
     inkscape:cy="561.93525"
     inkscape:window-width="1920"
     inkscape:window-height="1017"
     inkscape:window-x="-8"
     inkscape:window-y="-8"
     inkscape:window-maximized="1"
     inkscape:current-layer="layer1" />
  <defs
     id="defs1280" />
  <g
     inkscape:label="Capa 1"
     inkscape:groupmode="layer"
     id="layer1">
    <path
       d="m 20.884102,4.7500213 -0.97545,0.97545 h -1.828925 l -0.97545,0.97545 v 0.85368 l -0.853552,0.97546 v 1.8288697 l 0.853552,0.97545 v 1.82887 l -0.853552,0.97545 0.853552,0.97545 v 4.6332 l -0.853552,0.97545 h -2.804337 l -0.975451,0.85368 h -1.828912 v 0.97545 l -1.9508499,1.82888 h -2.804337 v 0.97545 l -1.828912,1.95077 h -0.975451 -0.853551 l -0.975451,0.85368 0.975451,0.97545 h 0.853551 l 0.975451,0.97545 v 0.85369 h -0.975451 v 2.80432 h -0.853551 l -0.975451,-0.85368 v 3.65774 l 0.975451,0.97545 h 0.853551 v 1.82888 l 0.975451,0.97545 h 0.975451 v 1.82887 l -0.975451,0.97545 0.975451,0.97545 v 0.85368 l -0.975451,0.97546 v 2.80432 l 0.975451,0.97545 h 0.853552 l 2.804402,2.80251 v 0.97545 h 3.7797619 l 0.97545,0.85368 h 2.804337 l 0.853552,0.97545 v 0.97545 l 0.975451,0.85369 v 0.97545 l -0.975451,0.97545 v 7.43752 h 0.975451 l 0.975449,0.97545 v 0.85368 l 0.85355,0.97545 v 2.80433 l -0.85355,0.97545 v 1.82887 l 0.85355,0.97545 v 2.8042 l 0.97545,0.97545 v 1.82887 h 0.97546 v 0.97545 l 0.97545,0.85368 v 1.95077 l 0.85355,0.85368 -0.85355,0.97546 h -0.97545 v 1.82887 l -0.97546,0.97545 v 1.82887 l 0.97546,0.97545 v 0.97545 h -0.97546 v 0.85369 l 1.95085,1.95077 v 0.97545 l -0.97545,0.85368 h -0.97545 l -0.97545,0.97545 v 2.804319 l 1.95084,1.82888 h 0.97545 v 0.97545 l 1.82891,1.82874 h 0.97545 l 0.85355,0.97545 v 0.97545 h 0.97546 v 0.85369 l 0.97545,0.97545 h 0.85355 l 0.97545,0.97545 v 3.65774 l 0.97545,0.97545 h 0.85355 l 0.97545,0.97546 h 0.97545 v 0.85368 l 1.82893,1.95077 v 0.97545 l -0.97545,0.85368 h 0.97545 v 0.97545 l 0.97545,0.97545 v 4.6332 l 0.85355,0.97545 v 0.85368 h 0.97545 l 0.97545,0.97545 v 1.82901 h -0.97545 l -0.97545,0.97545 -0.85355,0.97545 v 1.82887 l -0.97545,0.97545 v 2.80432 l -0.97545,0.85369 v 0.97545 l -1.82892,-1.82888 v -0.97545 l -0.97545,0.97545 h -1.82891 l -0.97545,-0.97545 h -3.65784 v 0.97545 l 0.85356,0.85369 v 1.95077 l 0.97545,0.97545 v 0.85368 l 0.97545,0.97545 v 1.82887 l 1.82892,1.95078 v 0.85368 h 0.97545 l 0.85356,0.97545 0.97545,0.97545 h 0.97545 v 1.82887 l 0.85355,0.97545 v 5.60865 h 0.97545 v 0.85368 l -0.97545,1.95077 h 0.97545 l 1.82891,1.82888 v 0.97545 l 1.95085,1.82887 h 0.85355 v 1.95077 l 0.97545,0.85368 h 0.97546 l 0.85342,0.97546 v 1.82887 h -0.85342 l 0.85342,0.97545 v 1.82874 h 0.97545 v 1.9509 l 0.97545,0.85369 v 0.97545 l -0.97545,0.97545 0.97545,0.85368 v 1.95077 l -1.95085,1.82887 v 3.77965 h -0.85342 l -0.97545,0.97545 h -1.82892 v 2.8042 l -0.97545,0.85368 h -0.97545 l 0.97545,0.97545 0.97545,0.97545 v 0.85368 l -0.97545,0.97545 0.97545,0.97545 h 0.85356 v 0.85368 l -0.85356,0.97545 v 0.97545 l 0.85356,0.85369 v 0.97545 l -0.85356,0.97545 v 0.85368 l 0.85356,0.97545 v 2.80419 l -0.85356,0.97545 h -0.97545 v 0.85369 h -0.97545 l -1.82891,1.95077 h -0.97545 l -0.85355,0.97545 h -2.80434 l -0.97545,0.85368 h -0.97545 l -0.85355,0.97545 h -0.97545 l -0.97545,0.97545 0.97545,0.85368 v 1.95078 l -0.97545,0.85368 h -0.85356 v 5.60852 h 0.85356 l -0.85356,0.97545 v 3.77977 l -0.97545,0.85368 0.97545,0.97545 0.85356,0.97545 v 0.85369 h 0.97545 v 1.95077 l 0.97545,1.82887 h 4.63326 l 0.97545,0.97545 v 1.82887 l 0.85355,0.97546 v 1.82887 l -4.63325,4.75509 v 0.85369 l -0.97545,-0.85369 h -1.82892 v 1.82888 l -0.97545,0.97545 v 2.80432 l -0.85356,0.85368 0.85356,0.97545 -0.85356,0.97546 1.82892,1.82887 v 1.95077 l -0.97545,0.85368 0.97545,0.97545 v 3.77965 l 0.97545,0.85368 v 0.97545 l -0.97545,0.97545 v 0.85368 l 0.97545,0.97545 v 4.63307 l 0.85355,0.97545 v 0.97545 l 0.97545,0.85368 v 1.95078 h 0.97545 l 0.85355,0.85368 h 0.97545 l -0.97545,1.95077 v 1.829 l 1.95084,-0.85368 h 2.80435 v -0.97545 l 1.82891,-1.95077 v -0.85368 h 0.97545 l 0.85355,-0.97545 0.97546,-0.97545 h 1.82891 l 0.97545,-0.85369 h 3.77976 v -0.97545 h 1.82892 l 0.97546,0.97545 h 0.97545 l 0.85355,0.85369 h 0.97545 l 0.97545,0.97545 h 1.82892 l 0.97546,0.97545 0.85355,-0.97545 h 1.95086 l 0.85342,0.97545 v 0.85368 l 0.97545,0.97545 h 2.80435 v 2.80432 l 0.97545,0.97545 h 0.85356 v 1.82888 l 0.97545,0.97545 h 0.97545 l -0.97545,0.97545 v 0.85368 h 1.95086 l 0.85342,-0.85368 1.95083,1.82887 3.65782,-3.77964 v -4.6332 l 0.97545,-0.97545 v -1.82887 h 8.41301 l 0.97545,0.85368 h 0.85355 v -0.85368 l 0.97545,-0.97546 0.97546,0.97546 h 0.85342 l 0.97545,-0.97546 V 279.092 l 0.97545,-0.85368 v -0.97545 h 2.80435 l 0.97545,0.97545 h 1.8289 l 0.97545,0.85368 h 3.657818 l 0.97546,0.97545 h 2.80434 l 0.97546,0.97546 h 3.65783 l 0.97545,0.85368 1.82893,-1.82888 0.97545,-0.97545 v -0.85368 l 1.95082,-1.95077 h 1.82893 l 0.97545,0.97545 0.85355,-0.97545 0.97545,0.97545 v 0.97545 h 0.97545 l 0.85355,0.85368 h 0.97546 l 0.97545,-0.85368 0.85355,0.85368 h 1.95086 v 0.97545 l 0.85342,0.97545 v 0.85369 h 2.80435 l 0.97545,-0.85369 h 1.8289 v -0.97545 l 0.97545,-0.97545 h 0.97545 l 0.85343,-0.85368 h 0.97545 v -0.97545 h 0.97545 l 0.97545,-0.97545 0.85355,0.97545 h 0.97545 v -0.97545 l 0.97545,-0.85368 h 1.8289 l 0.97545,-0.97545 h 1.82893 v -0.97545 h 7.4376 v -0.85369 l 0.97545,-0.97545 v -0.97545 l 0.97545,0.97545 h 1.8289 l 0.97545,0.97545 h 1.82892 l 0.97545,0.85369 v 1.95077 l -0.97545,0.85368 v 4.7551 l 0.97545,0.85368 v 0.97545 l 0.97545,0.97545 h 0.85356 l 0.97545,0.97545 v 0.85368 l 0.97545,0.97545 h 0.85342 l 0.97545,-0.97545 h 0.97545 l 0.85342,-0.85368 h 5.60869 l 1.95084,1.82887 h 5.60868 l 0.85343,-0.97545 h 1.95086 l 0.97545,-0.85368 h 2.80435 l 1.8289,0.85368 h 1.82892 l 0.97546,0.97545 h 1.82889 v -0.97545 l 0.97546,-0.85368 v -0.97545 l 0.97545,-0.97545 v -1.82887 h 0.85342 l 0.97545,-0.97545 v -2.8042 h 0.97545 v -0.97545 l -0.97545,-0.85368 v -3.77965 l 0.97545,-0.97545 v -0.85368 l 0.85342,-0.97545 v -1.82887 l 0.97545,-0.97545 v -1.82888 l 0.97545,-0.97545 v -1.82887 l 0.85356,-0.97545 v -3.77965 l 0.97545,-0.97545 v -3.65774 l 0.97545,-0.97545 v -2.80433 l 0.85355,-0.97545 v -2.80419 l 0.97545,-0.85369 v -1.9509 l 0.97545,-0.85368 v -0.97545 l -0.97545,-0.97545 h -1.83145 v -0.85368 l -2.80435,-2.92609 0.85355,-0.85369 h -0.85355 v -3.77964 l 0.85355,-0.97545 v -0.85368 h -0.85355 l -0.97545,-0.97545 v -0.97546 h -2.80435 l -0.97545,-0.85368 h -0.85342 v -0.97545 l -0.97546,-0.97545 v -1.82887 l 0.97546,-0.97545 h 0.85342 l 0.97545,-0.85368 v -0.97545 l 0.97545,-0.97546 v -1.82887 h -0.97545 l -2.80431,-2.80432 h -3.77976 v -0.97545 l -2.80435,-2.80433 -0.85343,-0.97545 h -0.97545 l -0.97545,-0.85368 h -0.85355 v -0.97545 l -0.97545,-0.97545 h -0.97545 l -1.8289,-1.82887 v -0.97546 l 0.85342,-0.85368 v -0.97545 l 0.97545,-0.97545 v -2.80432 l 0.97545,-0.85368 v -0.97545 h 0.97545 v -2.8042 h 0.85356 v -0.97545 l 0.97545,-0.85368 v -0.97545 l 0.97545,-0.97545 v -0.97545 l 0.85342,-0.85369 v -0.97545 l 0.97545,-0.97545 v -1.82887 l -0.97545,-0.97545 v -0.85368 l 0.97545,-0.97545 v -2.80433 l 0.97545,-0.97545 v -0.85368 l 0.85355,-0.97545 v -0.97545 l 0.97545,-0.85368 -0.97545,-0.97545 v -1.82888 h 0.97545 l 0.97546,-0.97545 v -0.97545 l -0.97546,-0.85368 v -1.95077 l 0.97546,-0.97545 v -0.85368 l -0.97546,-0.97545 1.8289,-1.82875 v -2.80432 l 0.97545,-0.97545 -0.97545,-0.97545 1.95087,-1.82888 v -0.97545 l -1.95087,-1.82887 h -1.8289 l -0.97545,-0.97545 v -1.82887 l 0.97545,-0.97546 v -0.85368 h 0.97546 v -1.9509 l 0.85342,-0.85368 v -2.92622 l 0.97545,-0.85368 v -0.97546 l -1.82894,-1.82887 0.85342,-0.97545 v -0.97545 l -0.85342,-0.85368 v -2.80433 l -1.95082,-1.95077 h -2.80435 v -0.85368 h -0.85343 l -1.95086,-0.97545 h -0.85355 l -0.97545,-0.97545 -0.97545,0.97545 h -2.80431 l -0.97545,0.97545 h -0.85343 l -0.97545,-0.97545 v -0.97545 h -0.97545 v -0.85368 l -0.85355,-0.97545 h -0.97545 l -0.97545,-0.97545 h -1.82893 l -0.97545,-0.85368 v -0.97546 l -2.80435,-2.80432 h -0.85342 l -1.95086,-1.95077 h -0.85342 l -0.97546,-0.85368 h -0.97545 v -0.97545 l -1.82892,-1.82888 h -0.97545 l -0.97545,-0.97545 v -0.97545 h -1.82893 l -1.8289,1.95077 0.85343,1.82888 -0.85343,0.97545 v 0.85368 l -0.97545,0.97545 h -0.97545 l -1.8289,1.95077 h -0.97545 l -1.8289,1.82887 h -1.82892 v 0.97546 l -0.97545,0.85368 v 0.97545 l -0.97545,0.97545 v 0.85368 h -0.85356 l -0.97545,0.97545 -1.8289,0.97545 h -4.75521 l -0.97545,0.85368 h -1.8289 l -0.97545,-0.85368 h -0.85342 l -0.97545,0.85368 h -6.5841 l -1.8289,0.97545 -0.97545,-0.97545 h -2.80395 v -0.85368 l -0.85355,-0.97545 h -0.97545 v 0.97545 h -7.55951 l -2.80435,-2.80419 h -2.80435 l -0.85342,-0.97545 h -2.80435 l -0.97546,-0.97545 h -1.828888 l 0.85342,-1.82888 v -1.82887 l 0.975448,-0.97545 v -1.95077 l -0.975448,-0.85368 0.975448,-1.95091 v -0.85368 l 1.82892,-1.95077 v -0.85368 h -1.82892 l -0.975448,0.85368 h -1.82893 v 0.97545 h -1.8289 l -0.97545,0.97545 h -0.97545 l -0.85355,0.85368 h -0.97545 l -0.97545,-0.85368 -0.97545,0.85368 h -1.8289 v 0.97545 l -0.97545,0.97545 h -3.65786 l -0.97546,0.85369 h -0.97545 v 0.97545 l -2.80435,2.80419 v 0.97545 l -1.8289,0.97545 v -4.75496 l -0.97545,-0.97545 0.97545,-0.85369 v -0.97545 h 0.97546 l 0.85355,-0.97545 v -0.85368 l -0.85355,-0.97545 v -0.97545 l -0.97546,-0.85368 -0.97545,-1.95077 v -1.82888 l 0.97545,-0.97545 -0.97545,-0.85368 v -3.77964 l -0.85342,-0.97546 -0.97545,0.97546 v 0.97545 h -1.82892 l -0.97545,-0.97545 v -0.97546 h -0.97546 v -0.85368 l -1.82893,-1.950769 v 0.97545 l -1.95083,-1.82887 -0.85355,0.85368 h -0.97545 v -0.85368 h -2.80435 l -0.97545,-0.97545 h -0.85342 v 0.97545 l -1.95087,-1.95077 v -4.63307 l 0.97545,-0.97545 h -0.97545 v -0.97545 l -0.85355,-0.85368 h 0.85355 v -2.80433 l 0.97545,-1.95077 h 0.97546 l 0.85342,0.97545 v -3.77964 h 0.97545 v -0.85369 h -1.82889 v -2.80419 h -1.95086 v -0.97545 l -0.85355,-1.82887 -0.97545,-0.97546 h -1.82893 l -0.97545,-0.97545 h -1.82891 v -2.80432 l -0.97545,-0.97545 v -2.80432 l 0.97545,-0.85369 -0.97545,-0.97545 0.97545,-0.97545 h 0.85355 v -0.85368 h -0.85355 l 0.85355,-0.97545 v -1.82887 h 0.97545 v -0.97545 l 0.97545,-0.97545 -0.97545,-1.82888 2.80435,-2.80419 v -1.82888 l 0.97545,-1.95077 0.85355,-0.97545 h 1.95087 l 0.85342,-0.85368 v -3.77965 h -0.85342 l 1.82888,-0.97545 -0.97545,-0.85368 0.97545,-0.97545 -1.82888,-1.82887 v -1.9509 l -1.95087,-1.82875 v -8.41284 h 0.97546 v -1.9509 h 0.97545 v -0.85368 l 1.82888,-1.95077 v -1.82888 l 0.97545,-1.82887 0.85355,-0.97545 v -4.63307 l 0.97546,-0.97545 h 0.97545 l 0.85355,-0.97545 h 1.95082 V 9.5049913 l -0.97545,-0.97545 h -1.8289 v 0.97545 l -1.95086,0.8536797 -0.85355,0.97545 h -0.97545 l -0.97545,0.97545 h -2.80434 l -0.85355,0.85368 h -1.95084 l -0.85355,-0.85368 v 1.82887 h -1.95085 l -0.85355,0.97546 h -1.95084 l -0.85355,0.85368 -0.97545,-0.85368 h -2.80434 l -0.97545,-0.97546 h -2.80434 v -0.97545 l -1.82891,-1.82887 h -2.80434 l -0.97545,0.97545 h -0.97545 l -1.82891,-0.97545 h -3.77976 v -0.97545 l -0.85355,-0.8536797 h -1.95084 l -0.85355,-0.97545 -0.97545,-1.82875 h -1.82892 v -0.97545 h -0.97545 z"
       style="fill:#000000;fill-opacity:1;fill-rule:evenodd;stroke:#d38d5f;stroke-width:1.71374;stroke-linecap:butt;stroke-linejoin:miter;stroke-miterlimit:4;stroke-dasharray:none;stroke-opacity:1"
       id="Nueva_Imperial" />
  </g>
</svg>
