<?xml version="1.0" encoding="UTF-8" standalone="no"?>
<!-- Created with Inkscape (http://www.inkscape.org/) -->

<svg
   width="210mm"
   height="297mm"
   viewBox="0 0 210 297"
   version="1.1"
   id="svg64"
   inkscape:version="1.1.2 (b8e25be833, 2022-02-05)"
   sodipodi:docname="vector.svg"
   xmlns:inkscape="http://www.inkscape.org/namespaces/inkscape"
   xmlns:sodipodi="http://sodipodi.sourceforge.net/DTD/sodipodi-0.dtd"
   xmlns="http://www.w3.org/2000/svg"
   xmlns:svg="http://www.w3.org/2000/svg">
  <sodipodi:namedview
     id="namedview66"
     pagecolor="#ffffff"
     bordercolor="#666666"
     borderopacity="1.0"
     inkscape:pageshadow="2"
     inkscape:pageopacity="0.0"
     inkscape:pagecheckerboard="0"
     inkscape:document-units="mm"
     showgrid="false"
     inkscape:zoom="0.74029882"
     inkscape:cx="361.34057"
     inkscape:cy="345.8063"
     inkscape:window-width="1920"
     inkscape:window-height="1017"
     inkscape:window-x="-8"
     inkscape:window-y="-8"
     inkscape:window-maximized="1"
     inkscape:current-layer="layer1" />
  <defs
     id="defs61" />
  <g
     inkscape:label="Capa 1"
     inkscape:groupmode="layer"
     id="layer1">
    <path
       sodipodi:nodetypes="cccccccccccccccccccccccccccccccccccccccccc"
       d="m 16.398273,57.456491 c -10.0830136,-14.423887 0.265521,1.952238 9.525778,2.153284 9.260233,0.201127 19.369943,-0.613774 27.910013,2.734128 7.84058,5.525211 19.49694,-1.421411 26.45344,7.284321 8.36685,10.03618 22.364786,1.96804 32.304926,8.85983 6.20029,3.58245 12.53453,6.91853 19.42994,8.91344 7.66029,3.32439 17.26658,15.694296 24.40913,4.77289 3.8768,-10.20895 19.85091,-2.32657 22.43473,-14.51635 5.71016,-2.8632 12.97777,-6.60514 19.5365,-6.03482 6.55872,0.57037 11.11242,-9.148242 8.70263,-4.2714 -2.4098,4.87685 -1.37157,9.77497 1.29285,14.65178 l -3.87843,5.09942 c -1.52704,8.77725 -3.39099,16.473886 -8.25962,15.226356 l -8.25955,7.61316 c -9.60505,-0.27541 -22.44529,-3.76411 -15.87279,12.13803 -12.93402,4.48308 -7.84533,14.11242 -10.19879,21.61858 l -9.5524,-8.2596 -9.5524,7.61317 0.64648,3.16019 c -13.84299,18.47749 -1.26066,16.66533 5.74578,19.10477 -0.56843,5.33474 -7.37816,7.57024 4.45301,19.10481 l 11.41978,7.61318 c 3.44144,15.83694 9.28897,7.58013 21.04398,19.1048 l -0.64637,11.41973 c 0.12369,5.0889 -2.07468,10.20939 -7.0386,15.2982 -9.33488,1.78915 -20.96579,-2.34261 -27.29256,6.9668 -7.07861,-6.04176 -19.10027,-5.11295 -19.10478,-5.0994 h -15.2982 l -12.71257,-9.55242 H 90.681204 l -5.0994,3.87837 c -5.3503,-6.21527 -10.37989,-10.49896 -15.04753,-9.86175 l -0.78678,-19.41458 c -4.55713,-0.96386 -13.76141,-3.4535 -14.9397,-8.41606 2.20768,-5.04776 3.36825,-16.93358 0.10087,-20.60368 -1.02197,-3.87452 -4.63414,-5.77438 -6.70016,-9.55054 -3.26134,-4.26735 1.3144,-12.12834 -3.47153,-15.5305 -5.0762,-4.63868 -6.8896,-15.38722 -7.83888,-26.83875 -0.88398,-5.31065 -7.920455,-4.47374 -10.616752,-8.63015 -4.317235,-4.55407 -12.02757,-3.85896 -15.489719,-9.46584 l -7.6113086,1.05099 C 14.797478,92.366994 26.481308,71.880364 16.398294,57.456491 Z"
       style="fill:#000000;fill-opacity:1;fill-rule:evenodd;stroke:#d38d5f;stroke-width:2.69579;stroke-linecap:butt;stroke-linejoin:miter;stroke-miterlimit:4;stroke-opacity:1"
       id="San_Antonio" />
  </g>
</svg>
