<?xml version="1.0" encoding="UTF-8" standalone="no"?>
<!-- Created with Inkscape (http://www.inkscape.org/) -->

<svg
   width="210mm"
   height="297mm"
   viewBox="0 0 210 297"
   version="1.1"
   id="svg1283"
   inkscape:version="1.1.2 (b8e25be833, 2022-02-05)"
   sodipodi:docname="vector.svg"
   xmlns:inkscape="http://www.inkscape.org/namespaces/inkscape"
   xmlns:sodipodi="http://sodipodi.sourceforge.net/DTD/sodipodi-0.dtd"
   xmlns="http://www.w3.org/2000/svg"
   xmlns:svg="http://www.w3.org/2000/svg">
  <sodipodi:namedview
     id="namedview1285"
     pagecolor="#ffffff"
     bordercolor="#666666"
     borderopacity="1.0"
     inkscape:pageshadow="2"
     inkscape:pageopacity="0.0"
     inkscape:pagecheckerboard="0"
     inkscape:document-units="mm"
     showgrid="false"
     inkscape:zoom="0.74029882"
     inkscape:cx="361.34057"
     inkscape:cy="561.93525"
     inkscape:window-width="1920"
     inkscape:window-height="1017"
     inkscape:window-x="-8"
     inkscape:window-y="-8"
     inkscape:window-maximized="1"
     inkscape:current-layer="layer1" />
  <defs
     id="defs1280" />
  <g
     inkscape:label="Capa 1"
     inkscape:groupmode="layer"
     id="layer1">
    <path
       d="m 85.296301,90.364986 c -2.43736,0.60622 -3.7627,1.8876 -4.22216,3.97135 -0.31459,2.77251 -4.03673,1.74892 -4.95642,3.0962 3.59443,0.15729 1.92704,1.48841 2.10457,2.747864 1.0196,0.92012 3.8132,2.26434 4.96297,2.85108 -2.19385,0.22276 -0.75585,1.84747 -2.84538,3.32891 -1.03677,1.34626 -0.76436,5.09824 -1.86039,6.58402 -0.29928,2.56778 -4.73639,2.67398 -6.99604,4.04293 -5.49224,2.17081 -10.98448,4.34171 -16.47663,6.51252 -2.01871,-2.11759 -1.56571,-3.40509 -4.21307,-4.85559 -1.1155,0.85177 -2.6006,0.79242 -4.27267,-0.78476 -1.64902,-1.63142 -2.92029,-2.02295 -4.75611,-2.80415 -1.70513,-1.51366 -4.05262,0.65978 -5.1155,1.12605 -0.7414,1.87042 -2.23406,1.98827 -4.22216,3.83046 -1.39557,-0.57645 -3.73073,-2.48914 -5.64026,-1.51902 -1.47702,0.73715 -4.57102,2.78289 -4.91519,1.51902 -2.21995,0.7261 -3.41291,-4.07448 -4.95642,-1.4686 -1.91736,2.64133 -2.07304,-0.14284 -4.77958,0 -2.4303,0.25507 -4.89333,-3.50253 -4.39909,1.04094 -2.3435,0.88925 0.1794,4.01496 -1.37678,5.29234 -1.75046,1.01901 -1.88531,3.63976 -2.84539,4.95643 0.0425,2.03205 -2.63248001,3.40407 -2.11104,6.15644 2.21503,1.8654 2.16257,2.50886 2.84539,3.75649 0.034,3.09339 1.06457,1.86464 2.75356,4.22225 -0.93347,3.09339 1.46733,4.87871 2.83892,6.97011 0.49058,2.57501 0.30013,4.79241 -0.0425,5.64596 0.85975,2.24393 -2.70484,3.82102 -0.68359,5.49045 -0.64192,1.35501 -0.23041,4.1964 0,5.11542 -0.55095,2.14759 -1.04969,3.36164 -2.11104,5.69076 0.22786,2.93653 0.0425,4.88246 -1.37678,6.81682 -1.24822,1.03634 -2.20278,3.95425 0.48378,2.27003 0.37836,1.59214 -2.91884,1.67827 -3.32891,3.32891 -0.48803,1.14347 -2.39782001,4.5853 0,5.84976 -2.19393001,0.83578 -1.7195,2.33916 -2.11112001,4.06317 1.11984001,1.07894 -1.29082,2.90507 0.73460001,4.45504 0.80772,1.68439 1.20877,3.77596 2.59465,4.88262 0.18705,2.53862 -0.24657,3.48876 1.6276,1.37678 -0.50759,-3.37363 2.25167,-2.57739 4.17166,-4.17174 1.83599,-0.51694 1.87374,-3.05735 3.86294,-1.4272 1.0565,0.56625 2.50478,3.49649 3.73863,2.11104 0.76351,1.28087 5.67198,1.23666 5.84977,-0.48378 2.13748,0.15134 4.26008,-1.53084 5.59894,-0.25082 1.65489,-1.47303 3.94116,-0.22956 5.44003,-1.37678 2.4814,-0.034 3.35731,-1.67683 5.43995,-2.11112 0.63597,-2.04022 4.91434,-0.73971 6.10049,-1.86039 0.91587,-0.90882 -2.18245,-3.09918 0.64278,-3.73864 2.36747,-1.25307 3.46112,-2.80874 6.71368,-2.11104 1.28427,1.18267 4.19589,1.64052 6.68715,1.37678 1.69247,-1.4828 5.09765,-0.74565 6.1743,-2.11104 1.53143,-1.8524 4.54712,0.49653 5.84967,-0.7346 2.61302,0.30353 6.00748,0.068 5.59903,-2.82744 0.34604,-2.66225 -1.45993,-5.53662 0,-7.31828 -1.14994,-1.57489 2.24538,-2.91528 0.3707,-5.68456 0.43872,-0.53565 3.62828,-3.65353 3.8518,-1.55992 -2.08451,2.41482 3.92739,2.10202 1.79263,-0.59687 -2.18875,-1.47294 0.0425,-2.76503 -0.66573,-4.20014 0.738,-1.8217 -2.0749,-1.80886 0.34179,-3.14602 0.42087,-0.0255 1.07682,-3.59053 3.23717,-3.57965 1.96429,0.62152 -0.79581,2.14174 1.71934,1.95213 0.84598,2.7681 2.97964,-2.45062 4.22216,-0.48378 1.68644,-1.29464 3.86175,1.98801 4.86469,-1.21787 1.90417,-0.35114 1.88623,3.41427 5.820509,1.86031 1.58134,1.27568 4.17659,1.1916 4.82676,3.07817 0.51694,1.74408 1.10547,4.22659 3.48782,4.47299 2.0715,-0.45063 3.46622,0.81962 4.95651,-0.48379 3.02708,-0.48378 1.83845,4.22038 5.59894,2.84547 0.89989,1.82154 4.12694,1.31591 6.78757,1.37678 2.34493,-0.5739 1.18454,-2.81766 1.90757,-3.4879 -0.11818,-1.086 1.6401,-2.48625 3.32891,-3.57964 2.66293,0.22956 3.40663,-1.46028 4.22217,-3.07818 0.5433,-1.14909 3.88224,-3.07894 4.22216,-3.25511 3.30936,-0.29758 4.2197,0.017 7.83981,0 2.68537,0.12838 1.21048,-3.90418 3.4499,-4.22216 0.65213,-2.06454 2.10228,-2.33721 3.434,-4.89895 0.48038,-1.00217 4.29613,-3.22612 4.61803,-1.09238 2.57782,1.68779 3.61221,0.051 6.62254,0.39196 1.29983,-1.89041 3.2455,-1.12494 4.80882,0 1.49513,1.94941 3.21345,0.29248 4.95642,1.37678 2.63351,0.40811 3.25987,-2.16869 4.47298,-3.48791 0.068,-2.28882 3.81992,-0.89172 3.48782,-3.57972 0.44297,-1.72019 2.9906,-4.08273 1.6276,-0.64278 -0.57136,0.97479 3.019,3.53127 3.97143,1.37678 1.35731,-0.39791 2.56557,-3.1944 4.79751,-1.37678 2.7329,-0.085 3.2387,2.05654 5.83174,2.11104 2.49407,-0.9333 5.09577,2.39867 6.35123,1.6276 1.11269,-1.88471 0.95651,-5.80989 0,-7.06755 -1.69349,-1.68312 0.81537,-6.49764 -2.43566,-6.58402 -1.80309,-0.58751 -3.98427,-1.54411 -5.70811,-3.18735 -2.08111,-0.68443 -4.12422,-1.10249 -5.98487,-2.40598 -0.40726,1.28342 -2.52017,4.74233 -2.85184,2.10543 -2.05816,-1.26362 -3.98299,-2.84913 -6.28278,-3.52923 -2.34494,-0.48888 -4.27964,-2.7232 -5.64945,-2.16154 -1.60184,-1.05395 -2.87242,-2.38754 -3.4879,-3.97143 -2.1249,-1.09603 -3.69596,-1.98283 -6.71377,-1.62751 -2.03392,-0.74906 -1.62989,-3.37865 -3.68269,-4.22225 -0.82132,-1.18429 -2.60273,-2.68027 -4.45504,-2.8453 -1.15598,-1.57463 -2.97284,-1.72597 -3.45534,-4.17174 0.52289,-2.37751 1.5322,-3.72512 1.32636,-6.38371 1.85724,-0.85261 -1.22297,-3.760494 -0.32394,-5.320414 2.38694,-2.85575 -0.71419,-0.50418 -3.1638,-1.01288 -1.71661,1.14144 -4.21289,1.50313 -7.19729,1.37678 -2.62611,-0.68954 -6.05611,0.99273 -7.58032,0.25082 -2.06461,-0.55435 -3.03898,-2.19955 -6.23015,-1.6276 -2.66327,0.159 -4.29001,-1.40458 -5.7939,-2.11112 -2.12805,-0.68444 -4.45326,-1.59359 -5.28053,-1.09816 -0.39621,-1.18352 -5.71789,0.562 -6.49271,-1.01288 -2.86298,1.07316 -2.07286,1.73184 -0.25082,3.07818 -1.92526,0.91289 -4.95531,-1.09298 -2.27011,1.7865 0.3741,1.80368 2.15627,4.979984 -0.13264,6.716494 -0.50164,2.51354 1.0985,5.64783 1.36879,8.3894 0.83407,3.89856 1.66824,7.79713 2.5024,11.69569 -2.70705,1.5016 -2.74302,0.94274 -4.22225,-0.64277 -2.48089,-0.66573 -3.78685,-1.08677 -5.29839,-2.453 -1.86532,-1.35612 -4.21986,-1.03941 -5.09807,-2.50351 -0.78306,-1.4113 -2.60757,-1.78166 -3.73863,-2.84538 -0.171749,-2.49203 -0.595169,-0.87293 -2.111039,-2.59457 -1.31659,-1.13395 -2.82575,-2.16205 -4.17175,-3.68821 -1.84857,-2.11504 -0.3928,-2.19403 -0.051,-4.83 -2.60809,0.9225 -1.80088,-1.15181 -1.37678,-3.487904 -3.36768,-0.95983 1.92373,-2.67882 -1.46852,-3.02232 -0.76096,-2.08511 -0.61472,-4.61378 -1.37687,-5.44003 -1.72698,-0.67849 -3.25927,2.07949 -4.22216,-0.89317 z"
       style="fill:#000000;fill-opacity:1;stroke:#d39062;stroke-width:1.12479;stroke-miterlimit:4;stroke-dasharray:none;stroke-opacity:1"
       id="Dalcahue" />
  </g>
</svg>
