<?xml version="1.0" encoding="UTF-8" standalone="no"?>
<!-- Created with Inkscape (http://www.inkscape.org/) -->

<svg
   width="210mm"
   height="297mm"
   viewBox="0 0 210 297"
   version="1.1"
   id="svg1283"
   inkscape:version="1.1.2 (b8e25be833, 2022-02-05)"
   sodipodi:docname="vector.svg"
   xmlns:inkscape="http://www.inkscape.org/namespaces/inkscape"
   xmlns:sodipodi="http://sodipodi.sourceforge.net/DTD/sodipodi-0.dtd"
   xmlns="http://www.w3.org/2000/svg"
   xmlns:svg="http://www.w3.org/2000/svg">
  <sodipodi:namedview
     id="namedview1285"
     pagecolor="#ffffff"
     bordercolor="#666666"
     borderopacity="1.0"
     inkscape:pageshadow="2"
     inkscape:pageopacity="0.0"
     inkscape:pagecheckerboard="0"
     inkscape:document-units="mm"
     showgrid="false"
     inkscape:zoom="0.52347032"
     inkscape:cx="155.69173"
     inkscape:cy="611.30496"
     inkscape:window-width="1920"
     inkscape:window-height="1017"
     inkscape:window-x="-8"
     inkscape:window-y="-8"
     inkscape:window-maximized="1"
     inkscape:current-layer="layer1" />
  <defs
     id="defs1280" />
  <g
     inkscape:label="Capa 1"
     inkscape:groupmode="layer"
     id="layer1">
    <path
       d="m 59.402086,87.939502 c -0.65263,1.93351 -3.57378,1.86119 -4.37805,4.23957 -1.05775,1.08184 -3.71706,2.17125 -3.3001,4.43389 -1.51442,0.0536 -1.47998,5.813518 -4.61258,4.060918 -1.30231,-2.232078 -1.9853,-2.319468 -4.0609,-4.060918 0.16221,2.38117 -0.64898,5.786468 -2.1328,6.540618 0.031,1.91892 -2.95095,2.57663 -3.27032,4.40786 -2.57608,3.61308 -2.29993,-2.26305 -4.25159,-2.13283 -0.86949,1.52635 -3.38885,1.4028 -3.9172,3.27031 -1.27414,1.12986 -1.06668,4.01089 -3.9172,4.26567 -2.38871,1.001 -2.28135,4.10256 -5.72344,3.27031 -1.22085,1.3953 -1.07187,4.16046 -2.95004,4.89847 -0.16376,2.23208 -1.84739,2.94429 -3.27032,3.91718 0.59242,3.42681 -0.59596,5.07278 -1.13751,7.36567 0.36063,3.18489 -1.86122,2.757 -2.8266744,5.27197 -0.9388,1.60136 -2.191424,3.12956 -3.067086,4.85148 -0.41121,2.31172 -5.92307005,-0.47716 -6.19223605,1.97658 1.98696405,-0.0864 0.96512405,4.6786 3.27032105,4.5641 0.561205,2.10966 5.116377,0.22518 4.407832,3.60468 -0.234287,3.77302 3.3893234,0.74713 3.7609534,-0.33418 2.65655,0.0477 2.53717,-2.67647 5.05472,-2.76564 1.49366,-1.18187 5.55945,0.20849 6.38439,-1.64222 1.77922,-0.47537 2.9592,-4.67925 6.37033,-3.27031 3.14248,-0.83094 4.91343,1.0925 4.73438,4.09529 -0.75538,3.33679 1.24645,5.53152 0.99534,8.6594 1.49071,1.28432 1.84492,3.70512 2.27503,6.05002 0.81182,1.91111 2.41835,3.02744 2.1328,6.03595 1.51143,2.3032 1.4938,4.32255 2.1328,6.55475 0.29582,2.36777 3.26828,2.05884 2.27503,5.71564 2.12782,2.15517 3.27336,2.68546 4.95947,5.10173 1.53656,2.76635 -4.63221,0.59212 -4.9454,2.57644 -0.7934,1.77071 -2.93071,2.19741 -5.55942,2.13284 -0.45612,1.96002 -2.73465,2.72709 -0.99528,4.40779 2.74101,-0.19419 3.63696,-3.41775 5.73751,-3.27031 2.13655,-1.67707 5.31656,-1.05462 8.17653,-1.13748 1.75798,1.09298 5.63666,0.40388 5.70787,3.27031 1.81142,0.96306 1.35119,3.30463 3.86745,5.00492 2.20903,1.21606 5.71107,-0.14118 6.92474,1.53571 2.68838,1.58253 -0.49264,5.90478 2.94125,7.22312 2.39107,0.83814 5.90324,0.60385 8.39057,0.13165 2.5329,-0.32228 2.25096,-4.49668 5.51049,-4.08476 1.74867,-0.92213 2.95096,-2.39064 5.87964,-2.13283 2.9409,-0.27878 5.62761,0.0536 8.00473,1.13755 -0.20015,-2.87079 1.846904,-3.49484 2.132894,-5.87971 -1.487034,-1.43444 -0.78465,-2.32018 0,-3.42656 1.07917,-0.1245 2.25102,-5.20145 1.13749,-4.91253 -0.0357,-2.75933 2.72501,-2.72085 3.27031,-4.89848 -0.11795,-2.89198 -0.17752,-5.76193 0.99529,-8.16878 -0.0596,-2.66306 1.76231,-3.62088 2.27503,-6.54063 4.41309,-0.0179 -0.51647,3.24571 1.97658,3.25626 0.84046,1.81812 1.55417,3.9721 2.28908,5.24683 -1.94048,1.39155 1.13629,3.09042 2.27496,3.91724 1.30214,2.53427 3.4576,0.48549 4.40786,1.78441 0.44618,-2.54958 5.53396,-0.45749 7.84997,-1.13754 3.07796,-0.5988 4.80918,2.05396 8.01885,1.13754 3.55464,0.50158 3.31439,-3.67443 4.72238,-5.51555 1.52159,-2.59754 -0.55578,-2.4146 0.0238,-6.0876 0.7059,-3.29331 3.38028,-1.8643 4.38182,-4.86089 -0.0685,-3.30945 3.34466,2.68975 3.29635,0.12629 0.81777,1.16101 5.43716,-0.0977 4.4078,3.43431 1.71971,0.84446 1.3592,3.76903 3.60474,4.08755 2.23904,-0.61142 3.64316,-0.8615 5.06878,-3.27031 1.27634,-3.42806 -4.02852,-2.31744 -4.26567,-4.25155 0.88241,-1.79317 1.32656,-4.02453 2.13284,-5.89376 -1.86704,-1.38416 -1.34223,-2.20319 -1.62816,-4.07349 -1.89908,-0.93793 -2.82485,-3.05759 -3.42806,-3.61725 1.35676,-2.29176 2.91248,-2.84832 5.86708,-2.92338 3.39273,1.17936 5.02589,-1.88907 7.35786,-3.27032 2.26538,-0.45749 2.44915,-2.99671 4.89847,-3.27037 0.0643,-2.94393 -3.68867,-2.02936 -3.25625,-4.74216 -2.73014,-2.52045 1.54678,-2.98146 -1.13748,-5.06878 -0.40448,-1.93923 -2.27098,-2.41656 -3.27032,-3.76093 0.38959,-3.17173 -1.18001,-4.38457 -4.42966,-3.91724 -1.7112,0.38065 -4.96549,-1.78483 -3.75318,-3.27032 2.5186,0.43665 -0.16203,-2.92254 3.91718,-2.13283 0.68058,0.52362 3.4819,0.305 5.72345,0.99535 2.55643,1.02585 2.87215,-0.40031 4.08755,2.11871 1.65669,0.19897 2.25376,4.61963 5.40315,3.42663 0.25019,2.40119 2.83611,2.45629 4.25154,1.13748 1.90301,-2.95686 1.11407,1.12486 2.27503,0.99529 2.837,-0.50396 3.42013,-1.36128 5.89376,0 2.94554,0.0179 2.44962,-3.12663 5.06878,-3.27031 1.00917,4.46022 2.82509,-3.46934 3.27031,0 2.31196,-2.26299 4.55946,-2.35896 5.38909,-4.4078 1.84868,0.7753 7.74965,-1.42633 4.42191,-2.13283 -0.33537,-2.72549 1.68559,-4.44741 2.76564,-5.40315 2.82599,-0.62059 -0.71715,-2.5989 0.50456,-5.54534 -3.12157,0.91583 -5.10857,-1.00428 -6.54063,-2.13283 -1.40691,-1.29492 0.47477,-3.88853 0.79061,-5.75008 -2.44569,-0.84398 -4.9917,-1.44569 -7.17499,-2.923378 -2.56697,1.262218 -3.43949,1.729248 -5.90633,2.479768 -1.93958,1.87084 -5.12096,-0.75975 -4.06092,-3.290688 -1.32614,-0.96288 -2.53326,-2.04479 -3.27031,-3.59687 -1.78739,0.006 -2.96705,2.99939 -5.38903,3.27031 -2.17453,1.21385 -4.46141,0.0602 -6.55475,-0.49085 -0.41162,-3.27216 -3.1,-2.96955 -6.0437,-2.7797 -2.96478,-0.0733 -4.03912,1.74312 -7.67817,0.99529 -0.80014,1.59307 -3.16082,1.62565 -2.77189,4.40785 -1.8821,0.641328 -1.83564,3.647568 -4.23957,4.378018 0.58855,3.41661 -2.04056,3.54647 -1.16364,7.22508 -1.56304,1.79751 -5.2093,1.55107 -8.02022,1.47816 -2.36688,0.21207 -3.11418,-3.13503 -5.04697,-3.27031 -0.70918,3.19537 -2.4398,-1.55721 -3.97824,-1.68916 -2.85178,-0.12748 -2.70673,-2.17292 -4.85148,-2.57651 -1.07964,-1.89252 -3.41483,-1.61332 0,-2.76558 -0.39494,-2.954118 4.16303,-0.95579 4.4078,-3.270368 -0.38661,-2.12056 -1.63006,-3.38451 -3.60468,-3.91718 -2.60939,-1.12724 -4.61438,3.97657 -5.06878,1.29379 -2.06576,-0.70924 -4.22873,-1.32131 -6.54063,-1.78441 -0.53493,-2.02471 -4.08219,-1.03657 -4.89847,-2.7797 -2.68022,0.34968 -1.28861,4.85797 -3.91718,4.89848 -0.53851,2.04681 -3.13849,-5.09595 -3.27031,0.33418 -1.07381,1.53773 -3.84088,1.38208 -5.389154,2.44539 -1.48412,1.493888 -4.18304,1.337458 -6.54063,0 -1.20706,-1.68671 -2.95525,-2.83217 -6.54837,-2.13283 -3.71191,0.31036 -3.27621,0.13046 -6.04233,1.13749 -1.65556,-1.18532 -3.34907,-0.12391 -6.02017,0.96925 -1.16042,0.628998 -3.7063,2.532248 -5.43299,0.0238 -0.16262,-1.78095 -3.85487,-2.43026 -1.13742,-3.76093 2.71536,-1.65353 -0.73503,-2.75998 0,-5.72345 -0.45511,-1.95007 -2.83951,-3.06623 -4.8985,-1.4641 -1.13067,0.15786 -1.43528,-1.61839 -2.77968,-0.99529 z"
       style="fill:#000000;fill-opacity:1;stroke:#d39062;stroke-width:0.788059;stroke-linejoin:round;stroke-miterlimit:4;stroke-dasharray:none;stroke-opacity:1"
       id="Mafil" />
  </g>
</svg>
