<?xml version="1.0" encoding="UTF-8" standalone="no"?>
<!-- Created with Inkscape (http://www.inkscape.org/) -->

<svg
   width="210mm"
   height="297mm"
   viewBox="0 0 210 297"
   version="1.1"
   id="svg1283"
   inkscape:version="1.1.2 (b8e25be833, 2022-02-05)"
   sodipodi:docname="vector.svg"
   xmlns:inkscape="http://www.inkscape.org/namespaces/inkscape"
   xmlns:sodipodi="http://sodipodi.sourceforge.net/DTD/sodipodi-0.dtd"
   xmlns="http://www.w3.org/2000/svg"
   xmlns:svg="http://www.w3.org/2000/svg">
  <sodipodi:namedview
     id="namedview1285"
     pagecolor="#ffffff"
     bordercolor="#666666"
     borderopacity="1.0"
     inkscape:pageshadow="2"
     inkscape:pageopacity="0.0"
     inkscape:pagecheckerboard="0"
     inkscape:document-units="mm"
     showgrid="false"
     inkscape:zoom="0.74029882"
     inkscape:cx="361.34057"
     inkscape:cy="561.93525"
     inkscape:window-width="1920"
     inkscape:window-height="1017"
     inkscape:window-x="-8"
     inkscape:window-y="-8"
     inkscape:window-maximized="1"
     inkscape:current-layer="layer1" />
  <defs
     id="defs1280" />
  <g
     inkscape:label="Capa 1"
     inkscape:groupmode="layer"
     id="layer1">
    <path
       d="m 110.51383,55.589857 c -16.128738,1.35967 -32.375448,1.64691 -48.420838,3.76499 -1.5314,2.64467 0.62096,5.07559 -4.76288,3.96501 -1.72391,-1.48644 -4.38888,-2.03169 -7.73006,-1.9008 -2.62936,0.29581 -6.33035,2.17689 -8.14969,0.88742 -2.79644,-0.18546 -6.11425,-1.38725 -7.4083,-2.91465 -3.59162,-2.79645 -2.15837,2.85279 -5.66365,2.42727 -3.23248,0.66792 -2.07236,4.47024 -3.40191,6.56003 0.80713,4.04249 -4.50441,2.2505 -4.94216,0.65383 -1.10423,-2.85197 -2.88944,-2.88143 -5.94606,-0.89681 -3.09493,0.30754 -7.8128099,-1.00833 -8.6269699,1.57905 0.22538,3.32844 -1.799726,4.40638 -4.045231,5.26387 -2.664322,1.77028 3.677931,2.70407 4.045231,3.92839 3.26602,-0.8346 3.33523,4.13933 3.47992,4.81546 0.49395,1.76276 4.7356499,-1.58093 6.2776699,1.57906 0.99308,2.16245 2.89321,2.75583 3.80166,5.82919 -0.0692,3.2539 1.94659,4.42187 2.02755,7.52517 1.24008,2.431033 0.58727,5.564843 2.91461,7.496403 -1.10306,4.14449 2.4932,5.16022 1.90083,8.65569 1.58915,1.66334 1.27809,5.22702 2.02756,7.73012 0.15529,3.16539 0.95257,5.68904 1.90082,8.06161 -0.0352,3.10153 1.55805,4.76417 1.90083,8.17853 0.53129,3.86171 -0.62507,6.03579 -0.88707,9.10422 -0.98439,3.63621 2.55391,5.45215 0.088,8.74432 0.0786,3.29392 -0.0716,6.37444 -2.7003,8.52938 -1.39274,2.30813 -6.49567,0.14204 -7.14487,2.89482 -2.07097,4.68024 0.99318,1.08581 1.90084,4.81546 2.35118,1.64608 3.50869,4.26751 2.91459,7.88554 0.89083,3.03849 0.16211,5.22795 0.61404,7.53573 -2.33994,1.21035 -0.16786,6.28957 -4.54241,5.4295 0.73412,0.0822 -7.68796,0.56461 -2.91461,1.9008 -0.20366,3.94224 1.30159,4.25847 0,7.85666 2.66755,1.60382 6.32485,1.38795 4.94215,5.85807 0.0775,3.3957 1.81302,4.73364 0,7.49629 -3.49056,-1.53833 -0.28536,1.72449 -2.02754,3.11949 -3.92051,0.0117 1.23525,1.6131 -1.33552,2.91465 2.6972,0.0939 0.034,7.04718 5.26389,4.94224 1.57655,1.64655 0.84728,5.599 4.85412,4.81535 0.96443,3.94728 2.45873,-0.57871 4.90348,2.02758 2.33534,-1.75244 5.1338,1.11867 7.73004,-0.5658 2.4956,-0.36037 5.38575,-1.93273 7.65193,-2.34933 4.0824,0.82991 4.85279,-1.65218 7.73,-2.02746 1.63024,1.63775 4.63387,1.87157 5.14707,1.46214 1.57847,-0.65735 2.50029,3.24392 3.80162,4.36705 2.39757,-0.61979 7.74983,0.40498 6.72929,-3.14543 -0.25824,-5.11867 -0.51531,-10.23733 -0.77356,-15.356 1.42376,1.59502 4.01279,2.58269 5.61497,4.72789 1.79821,1.03064 3.3019,1.14568 7.20282,1.10107 2.89811,1.60969 1.92393,-0.1479 5.80044,-0.88743 1.43725,-1.54325 4.95139,-1.57119 7.45027,-2.77203 3.317518,0.22655 4.803958,-0.0822 7.005968,0.74422 2.18511,1.31236 2.6604,-0.5118 5.94599,1.0142 3.52424,-0.69726 5.94646,1.40838 7.1648,2.91454 4.33958,-1.00599 0.42258,6.24544 4.17196,5.82931 3.07171,0.16434 5.51202,1.73823 7.79233,3.76546 0.91325,2.35848 4.57823,1.59079 6.21539,3.07746 2.28911,0.53293 3.94916,0.40733 6.59935,1.57906 2.62108,0.83225 3.5679,3.70078 7.20341,3.23641 2.39429,-0.83813 6.24662,-1.48069 7.36963,-2.91466 -1.83777,-0.42258 0.14556,-3.72602 2.91466,-4.81546 0.74656,-2.32046 0.41554,-5.51965 3.92839,-5.82908 4.04647,-1.56931 4.03931,-2.05458 0.20425,-2.91465 -4.0169,-2.53469 4.86875,-1.72884 0.80877,-4.49371 2.72473,-1.84329 -2.65852,-3.99706 -2.02758,-6.27761 2.74856,0.14791 5.78964,-1.07289 5.95597,-3.80173 2.57213,-2.43408 1.99577,-5.27784 4.81546,-5.82919 0.0117,-6.8657 0.26529,-13.74642 -1.0142,-20.52901 3.56696,0.61861 6.35414,-0.83695 9.66954,-0.88743 4.33771,0.69609 5.24944,-0.90738 7.73059,-2.82697 3.35215,0.0939 3.65535,-3.12958 7.17407,-3.00222 3.59126,1.18464 3.95726,0.28289 6.38513,-1.81324 -0.35685,-2.76311 4.93284,-3.14473 3.12899,-4.70794 -1.97205,-1.23089 -2.77262,-2.89857 -3.92838,-5.82919 -1.36483,-2.8488 -2.57084,-5.76322 -1.90093,-9.45485 0.84635,-2.80889 1.11868,-5.732 -2.70031,-3.75348 -4.45497,-0.80761 -3.54477,3.2026 -8.071,2.11515 -2.18089,-2.68834 -4.78717,-4.54337 -6.71627,-5.38079 -2.12031,-2.68857 1.921,-3.25871 2.91454,-5.50744 -2.55921,-2.1695 0.60805,-6.68469 1.90092,-3.68482 0.6151,3.48398 4.95703,-0.48362 1.90081,-1.9008 0.13969,-5.45709 -3.00985,0.0117 -5.74115,-1.0142 -4.60535,-0.34394 -3.92593,-0.67614 -8.29533,0 -1.62131,-1.8231 -4.0122,-2.31741 -6.36576,-3.92839 -3.15106,0.01 -3.39769,-2.88637 -6.51143,-2.91466 -2.81265,-1.77461 -4.08545,-4.25424 -6.2776,-4.81546 -0.46954,-2.55851 -2.63059,-3.37715 -3.68482,-6.07276 0.40498,-2.89611 -4.85642,-2.63493 -4.49371,-5.58562 -1.24838,-1.56051 -5.05304,1.17032 -5.82919,-2.02759 1.17831,-1.55205 0.35333,-5.86769 -0.44841,-7.73 2.72109,-0.63622 1.892,-3.624713 3.92839,-5.829193 2.13827,-1.12572 5.0048,-1.60617 6.6287,-3.71416 -1.70501,-0.14438 -3.03873,-5.03168 0.21481,-5.02969 0.38854,-2.23112 3.83894,-4.15635 1.10107,-7.64243 -1.65101,-1.65946 -4.01185,-2.06315 -6.04342,-3.12888 -1.91161,1.53903 -4.84246,2.0588 -8.3242,2.02746 -2.79035,-0.0939 -2.85949,-0.35098 -5.14754,-3.8407 -0.26295,-2.16903 4.42128,-5.65523 0.11738,-5.91688 -1.53175,-3.05035 -4.80349,2.04319 -5.14707,-2.02746 -2.70971,-1.25191 -5.06444,-1.63482 -5.8292,-4.04531 -2.44324,-0.54701 -3.05352,-4.08967 -6.0629,-3.68481 -3.00493,0.34628 -3.11996,-3.98638 -5.14708,-4.81534 -1.45897,0 -2.91794,0 -4.37691,0 z"
       style="fill:#000000;fill-opacity:1;stroke:#d39062;stroke-width:1.5529;stroke-miterlimit:4;stroke-dasharray:none;stroke-opacity:1"
       id="Chonchi" />
  </g>
</svg>
