<?xml version="1.0" encoding="UTF-8" standalone="no"?>
<!-- Created with Inkscape (http://www.inkscape.org/) -->

<svg
   width="210mm"
   height="297mm"
   viewBox="0 0 210 297"
   version="1.1"
   id="svg64"
   inkscape:version="1.1.2 (b8e25be833, 2022-02-05)"
   sodipodi:docname="vector.svg"
   xmlns:inkscape="http://www.inkscape.org/namespaces/inkscape"
   xmlns:sodipodi="http://sodipodi.sourceforge.net/DTD/sodipodi-0.dtd"
   xmlns="http://www.w3.org/2000/svg"
   xmlns:svg="http://www.w3.org/2000/svg">
  <sodipodi:namedview
     id="namedview66"
     pagecolor="#ffffff"
     bordercolor="#666666"
     borderopacity="1.0"
     inkscape:pageshadow="2"
     inkscape:pageopacity="0.0"
     inkscape:pagecheckerboard="0"
     inkscape:document-units="mm"
     showgrid="false"
     inkscape:zoom="0.74029882"
     inkscape:cx="361.34057"
     inkscape:cy="345.8063"
     inkscape:window-width="1920"
     inkscape:window-height="1017"
     inkscape:window-x="-8"
     inkscape:window-y="-8"
     inkscape:window-maximized="1"
     inkscape:current-layer="layer1" />
  <defs
     id="defs61" />
  <g
     inkscape:label="Capa 1"
     inkscape:groupmode="layer"
     id="layer1">
    <path
       inkscape:label="#path1937"
       sodipodi:nodetypes="ccsssssssssccssssssssssssssscccsccccccssccccccscccc"
       d="m 129.45339,7.5866142 7.4672,6.2062658 c 1.3177,-2.635524 9.6476,10.5946 10.26513,13.064659 1.12857,4.514368 2.74799,6.493674 6.53233,9.331893 2.1986,1.649003 4.1278,9.188802 4.66595,10.265133 1.28248,2.565079 4.50442,3.57124 6.53233,5.599139 2.8615,2.861501 -1.26336,5.516621 6.5323,7.465525 3.84108,0.9603 5.59922,5.599165 8.39884,8.39873 2.50265,2.502698 -2.63773,8.074965 -2.79962,8.398713 -2.07815,4.15626 -1.98539,3.275718 -2.79961,6.532328 -0.21594,0.864072 3.63427,9.233437 4.66602,10.265133 2.33816,2.338151 4.50791,5.053553 7.46549,6.532327 v 11.19828 c -0.91306,3.65399 -3.69411,7.38822 -5.59922,11.19832 -1.45568,2.9115 -3.24079,7.10234 -9.3319,4.66596 -8.15753,-3.26303 -4.89371,-7.46552 -8.39868,-7.46552 -4.01779,0 -12.66352,-2.12815 -11.19828,3.73275 1.49253,5.97025 2.63993,8.23911 6.53233,12.13147 3.01446,3.01446 9.03682,5.2082 8.39871,8.39874 -0.64885,3.24408 -2.89379,8.96408 -3.73276,13.99785 -0.43813,2.62855 -4.17087,13.55978 -1.86638,15.86426 6.41985,6.41988 1.86638,6.75275 1.86638,13.06467 0,7.86409 -2.15326,6.31807 -0.93321,11.1983 1.22959,4.91808 -0.89479,7.56132 0.93321,12.13147 2.64204,6.60511 6.83735,9.00884 9.33188,13.9979 2.63773,5.27553 1.31307,8.122 7.46564,11.19827 4.41689,2.2085 14.64576,3.37 13.06457,6.53233 -1.80844,3.61691 -0.62175,11.19832 -4.66588,11.19832 -8.63493,0 -4.59211,4.05831 -3.73282,8.39871 l -4.2289,12.55118 c -0.28842,6.77824 -3.66746,11.16266 -6.23199,16.55043 -4.46414,-4.58182 -8.884,1.26959 -13.19068,1.08263 -4.30669,-0.18841 -8.09524,-2.57425 -11.67343,-4.75153 -4.86516,-3.9079 -10.90469,-1.42031 -16.45157,-1.43481 -6.72839,2.25004 -11.05395,-3.10527 -16.41055,-5.46937 -7.12178,0.63045 -13.41211,-2.8541 -19.154509,-6.62576 -6.076209,-1.29017 -3.002689,-6.2602 -6.985499,-9.56413 -3.035628,-4.36664 -10.652152,-5.96681 -10.484769,-12.09352 -0.299429,5.88858 6.878552,-8.38685 -6.237834,-9.84124 -13.116385,-1.4544 -32.316649,-16.20187 -22.886548,-19.69236 8.181485,-3.0283 1.525414,-13.79944 4.017753,-20.87356 4.853385,-12.68044 5.028129,-26.70631 2.898929,-39.39065 L 54.799737,150.0397 c 4.230175,-4.63335 6.811175,-18.99898 18.255842,-14.88211 L 17.802458,76.433431 36.988833,60.051524 c 4.300781,4.524034 14.667061,3.649482 23.485612,8.597579 12.135049,6.808955 22.165413,22.571421 32.113765,3.648094 4.89778,-8.874746 12.34701,-15.934288 17.22191,-24.718916 5.86257,-7.986407 -1.11655,-13.722176 -5.76334,-19.580607 -1.30089,-7.988061 22.25858,-13.242169 25.40661,-20.4101898 z"
       style="fill:#fdf9d2;fill-opacity:1;fill-rule:evenodd;stroke:#d38d5f;stroke-width:3.8346;stroke-linecap:butt;stroke-linejoin:miter;stroke-miterlimit:4;stroke-opacity:1"
       id="Hijuelas" />
  </g>
</svg>
