<?xml version="1.0" encoding="UTF-8" standalone="no"?>
<!-- Created with Inkscape (http://www.inkscape.org/) -->

<svg
   width="210mm"
   height="297mm"
   viewBox="0 0 210 297"
   version="1.1"
   id="svg64"
   inkscape:version="1.1.2 (b8e25be833, 2022-02-05)"
   sodipodi:docname="vector.svg"
   xmlns:inkscape="http://www.inkscape.org/namespaces/inkscape"
   xmlns:sodipodi="http://sodipodi.sourceforge.net/DTD/sodipodi-0.dtd"
   xmlns="http://www.w3.org/2000/svg"
   xmlns:svg="http://www.w3.org/2000/svg">
  <sodipodi:namedview
     id="namedview66"
     pagecolor="#ffffff"
     bordercolor="#666666"
     borderopacity="1.0"
     inkscape:pageshadow="2"
     inkscape:pageopacity="0.0"
     inkscape:pagecheckerboard="0"
     inkscape:document-units="mm"
     showgrid="false"
     inkscape:zoom="0.74029882"
     inkscape:cx="361.34057"
     inkscape:cy="345.8063"
     inkscape:window-width="1920"
     inkscape:window-height="1017"
     inkscape:window-x="-8"
     inkscape:window-y="-8"
     inkscape:window-maximized="1"
     inkscape:current-layer="layer1" />
  <defs
     id="defs61" />
  <g
     inkscape:label="Capa 1"
     inkscape:groupmode="layer"
     id="layer1">
    <path
       sodipodi:nodetypes="cccsssssssssccscccccccccscccccccccccccccccccccccccccc"
       d="m 207.89331,72.358462 -1.73974,-23.33122 c 8.20358,13.81009 -10.26698,-2.43086 -17.14021,5.07701 -8.89673,-9.3502 -21.73612,-10.75509 -34.02148,-13.54642 -9.65687,-14.92678 -18.93549,-3.50577 -28.41456,5.40067 -16.57243,-7.00588 -25.80629,11.89511 -41.435519,11.1204 -10.28842,3.03694 -27.60266,7.23936 -28.96428,-1.80174 -1.20647,-8.00705 -13.34948,-12.62883 -25.65977,-12.42394 -0.91395,8.80372 -4.29853,24.04162 -15.59836,14.24092 l -7.4601505,3.75623 c -2.82557,6.34359 -10.01167,16.51419 -1.99775,19.97831 10.7406705,2.67607 5.9569905,8.90697 6.6594305,11.32099 5.11718,5.34742 9.88738,4.53335 7.32536,11.987038 -0.66322,2.65369 -4.84745,11.02685 -5.32761,11.98704 -1.72707,6.95007 0.90587,13.48077 -3.99563,19.31226 0.0944,6.3285 0.82498,10.97549 -1.3318405,16.64859 0.18064,0.72119 2.4076805,7.58148 1.3318405,8.65733 -1.3143105,1.3143 -3.8775505,5.40174 -5.9935205,7.32535 l -1.28735,3.68883 c 1.22534,-2.45122 8.9732905,9.85422 9.5476805,12.15163 1.0501,4.19892 2.55596,6.03989 6.07575,8.6797 2.04507,1.53377 3.8394,8.54665 4.33992,9.54768 1.19299,2.38585 4.18961,3.32163 6.07575,5.2079 2.66151,2.66151 -1.17547,5.13107 6.07588,6.94374 3.5725,0.89238 5.20777,5.20776 7.81172,7.81171 2.32774,2.32775 -2.45338,7.51057 -2.60395,7.81172 -1.93291,3.86582 -1.84664,3.04677 -2.60382,6.07588 -0.20085,0.80342 3.38013,8.58804 4.33978,9.54768 2.17475,2.17475 4.19285,4.70038 6.94374,6.07575 v 10.41567 l 7.60223,-5.29768 1.79582,-9.57761 4.19029,-6.58462 h 8.97895 l 4.78881,-8.97896 11.37343,2.39447 -2.39447,13.16911 -8.97896,-0.59851 12.57059,8.97895 h 11.972079 l 2.39434,-11.97207 -4.788809,-6.58449 10.774779,-0.59852 35.9161,-17.3594 12.57059,-0.59851 22.74686,-17.3594 -4.19016,-31.1273 -5.38745,-0.59851 -4.78881,-6.58463 0.59852,-6.58462 32.92298,-59.261468 0.59851,-25.14132 z"
       style="fill:#000000;fill-opacity:1;fill-rule:evenodd;stroke:#d38d5f;stroke-width:3.5666;stroke-linecap:butt;stroke-linejoin:miter;stroke-miterlimit:4;stroke-opacity:1"
       id="Catemu" />
  </g>
</svg>
