<?xml version="1.0" encoding="UTF-8" standalone="no"?>
<!-- Created with Inkscape (http://www.inkscape.org/) -->

<svg
   width="210mm"
   height="297mm"
   viewBox="0 0 210 297"
   version="1.1"
   id="svg57"
   inkscape:version="1.1.2 (b8e25be833, 2022-02-05)"
   sodipodi:docname="vector.svg"
   xmlns:inkscape="http://www.inkscape.org/namespaces/inkscape"
   xmlns:sodipodi="http://sodipodi.sourceforge.net/DTD/sodipodi-0.dtd"
   xmlns="http://www.w3.org/2000/svg"
   xmlns:svg="http://www.w3.org/2000/svg">
  <sodipodi:namedview
     id="namedview59"
     pagecolor="#ffffff"
     bordercolor="#666666"
     borderopacity="1.0"
     inkscape:pageshadow="2"
     inkscape:pageopacity="0.0"
     inkscape:pagecheckerboard="0"
     inkscape:document-units="mm"
     showgrid="false"
     inkscape:zoom="0.74029882"
     inkscape:cx="361.34057"
     inkscape:cy="453.87078"
     inkscape:window-width="1920"
     inkscape:window-height="1017"
     inkscape:window-x="-8"
     inkscape:window-y="-8"
     inkscape:window-maximized="1"
     inkscape:current-layer="layer1" />
  <defs
     id="defs54" />
  <g
     inkscape:label="Capa 1"
     inkscape:groupmode="layer"
     id="layer1">
    <path
       inkscape:connector-curvature="0"
       id="Nacimiento"
       style="fill:#000000;fill-opacity:1;fill-rule:evenodd;stroke:#d39062;stroke-width:0.634631;stroke-linecap:butt;stroke-linejoin:miter;stroke-miterlimit:4;stroke-dasharray:none;stroke-opacity:1"
       d="m 151.53443,47.824981 c -0.66309,0.71542 -1.1723,1.3949 -1.66589,2.06258 -0.56192,0.75968 -1.17361,1.52473 -2.26086,2.3402 -0.33505,0.25178 -1.68838,1.19249 -2.93516,2.18152 -1.24685,0.98903 -2.3798,2.02317 -2.26086,2.49887 0.20064,0.80183 0.24195,2.07904 0.0793,3.29212 -0.16261,1.21314 -0.55996,2.38458 -1.15027,2.97483 -0.45766,0.45766 -0.89894,0.75541 -1.34854,0.95198 -0.4498,0.19671 -0.8994,0.26359 -1.38827,0.23801 -0.97776,-0.0524 -2.07229,-0.48061 -3.49046,-1.18993 -2.336,-1.16797 -3.16452,-1.89944 -3.76814,-2.22119 -0.60389,-0.32194 -0.96537,-0.2544 -2.45921,0.11868 -0.83704,0.20916 -1.36277,0.5311 -1.70556,0.87265 -0.34292,0.34095 -0.5134,0.72426 -0.6347,0.99159 -0.12196,0.26751 -0.22359,0.40914 -0.39669,0.39668 -0.1731,-0.0131 -0.41439,-0.21572 -0.91231,-0.71397 -0.89376,-0.89376 -2.22729,-1.66405 -3.64914,-2.22119 -1.42178,-0.55733 -2.94027,-0.87258 -4.16476,-0.87258 -1.21513,0 -2.65663,0.3003 -3.72845,0.91225 -0.53589,0.3062 -0.99929,0.69679 -1.26926,1.15026 -0.27001,0.45374 -0.34771,0.98917 -0.19834,1.58656 0.22063,0.88268 0.25493,1.8601 0.15867,2.9749 -0.0963,1.11472 -0.31846,2.34485 -0.67429,3.76807 -0.1314,0.52586 0.0216,1.1698 0.31728,1.86424 0.29584,0.6945 0.70365,1.43227 1.07094,2.14191 0.36731,0.70958 0.71036,1.41221 0.79329,1.98318 0.0829,0.5711 -0.0774,1.03034 -0.63464,1.30894 -0.83427,0.41701 -2.01839,0.74938 -3.37147,0.87265 -1.35309,0.12327 -2.88352,0.0328 -4.44242,-0.35735 -0.65955,-0.16458 -2.04079,-1.39411 -3.41115,-2.41953 -0.68518,-0.51275 -1.35393,-0.97231 -1.94355,-1.2296 -0.589657,-0.25703 -1.076347,-0.31211 -1.388257,0 -0.85403,0.85402 -1.3987,1.5617 -1.70557,2.41953 -0.30686,0.85789 -0.39663,1.85348 -0.39663,3.29218 0,1.46276 -0.26188,2.64568 -0.91228,3.45079 -0.32522,0.40259 -0.73261,0.70178 -1.26926,0.91232 -0.53668,0.21047 -1.20253,0.31735 -1.98323,0.31735 -2.60185,0 -5.21203,6e-5 -7.81389,0 -1.86426,0 -2.6817,0.29505 -3.41115,0.55536 -0.72944,0.26031 -1.35377,0.51602 -2.81618,0.51537 -1.01001,0 -1.7625,-0.28391 -2.3402,-0.67431 -0.57765,-0.39013 -0.96457,-0.90753 -1.30892,-1.42788 -0.34437,-0.52061 -0.64198,-1.03768 -0.95195,-1.42794 -0.31001,-0.39013 -0.63601,-0.6347 -1.11061,-0.6347 -0.8751,0 -1.39433,0.14228 -1.70557,0.43603 -0.31125,0.2944 -0.40724,0.7339 -0.43629,1.22953 -0.0288,0.4957 -0.0111,1.06194 -0.0393,1.66596 -0.0289,0.60388 -0.12668,1.24488 -0.43629,1.86424 -0.0151,0.0328 -0.80298,1.66189 -1.7849,2.93516 -0.49097,0.63666 -1.04081,1.19032 -1.54691,1.38821 -0.25303,0.099 -0.48547,0.10425 -0.71396,0 -0.2285,-0.10426 -0.44953,-0.30424 -0.63463,-0.67424 -0.45596,-0.91192 -0.89152,-2.4175 -1.38826,-3.53019 -0.24837,-0.55668 -0.50815,-1.03638 -0.79328,-1.26921 -0.28516,-0.23277 -0.61234,-0.22096 -0.95196,0.11868 -1.38263,1.38264 -3.03409,2.51848 -4.6804,4.16476 -0.67004,0.67005 -1.05327,1.41667 -1.46758,2.22126 -0.41433,0.80459 -0.83132,1.66425 -1.62624,2.4592 -0.73626,0.7362 -1.50363,1.04352 -2.14189,1.54689 -0.63824,0.50356 -1.15396,1.20468 -1.50725,2.61787 -0.50684,2.027499 -1.48989,3.777849 -2.10221,6.227279 -0.54048,2.16185 -0.96342,4.44867 -1.54692,6.78264 -0.29328,1.17321 -0.49458,2.4432 -1.03127,3.45079 -0.26831,0.50356 -0.60461,0.96477 -1.1106,1.26927 -0.50599,0.30424 -1.16141,0.47603 -2.0229,0.47603 -1.8982,0 -3.1019,-0.0197 -3.60946,0.35734 -0.25375,0.18884 -0.31748,0.46816 -0.23801,0.91225 0.0795,0.4439 0.31086,1.05801 0.71396,1.86424 0.42986,0.85973 0.76187,1.81139 0.87262,2.93516 0.11068,1.12378 -0.005,2.39783 -0.35696,3.80781 -0.1965,0.78603 0.0498,2.61932 0.0793,4.2441 0.0144,0.81239 -0.0413,1.5817 -0.19834,2.14185 -0.15697,0.55996 -0.43157,0.91232 -0.91229,0.91232 -1.00184,0 -2.66009,0.17179 -3.68879,0.71397 -0.51432,0.2708 -0.86552,0.63077 -0.91229,1.1106 -0.0465,0.47996 0.21494,1.08751 0.95195,1.82456 0.0649,0.0656 1.11804,1.88371 1.82457,3.68881 0.35328,0.90254 0.62309,1.78634 0.63463,2.4592 0.006,0.33636 -0.0557,0.63667 -0.19834,0.83291 -0.14242,0.19605 -0.34181,0.27736 -0.6743,0.27736 -1.38766,0 -4.10313,0.32062 -6.14799,0.47602 -0.10393,0.007 -0.1377,-0.007 -0.23801,0 0.30574,0.64191 0.86924,1.25242 0.99161,1.86424 0.32948,1.64733 0.90483,3.43453 1.18993,5.23569 0.14255,0.90058 0.2251,1.81919 0.15868,2.69721 -0.0664,0.87803 -0.3066,1.72372 -0.71396,2.53847 -0.30889,0.61766 -0.60415,1.04687 -0.95195,1.34861 -0.34784,0.30162 -0.7365,0.48849 -1.11061,0.55537 -0.74819,0.1331 -1.52326,-0.15343 -2.30053,-0.47603 -0.77727,-0.32194 -1.55591,-0.7025 -2.26088,-0.83298 -0.35249,-0.0656 -0.67621,-0.0656 -0.9916,0.0393 -0.31539,0.10426 -0.60697,0.31997 -0.87263,0.67431 -1.3251,1.76686 -2.78592,4.93722 -3.92677,7.21893 -0.61877,1.23753 -2.02454,2.7096 -2.97484,3.96648 -0.475173,0.62814 -0.848846,1.21826 -0.951946,1.66589 -0.103073,0.44783 0.06229,0.76925 0.634635,0.91225 1.283441,0.32063 2.076201,0.65044 2.538531,1.03133 0.46232,0.38095 0.61437,0.79134 0.63463,1.2296 0.0203,0.43799 -0.11586,0.93435 -0.15867,1.42788 -0.0426,0.49373 0.004,1.00044 0.27768,1.54695 0.24896,0.49766 0.31656,1.11958 0.31728,1.7849 7.4e-4,0.66532 -0.0856,1.36224 -0.11894,2.02284 -0.0334,0.66067 -0.0275,1.30107 0.11894,1.7849 0.14628,0.48389 0.4515,0.81698 0.99162,0.95199 1.1279,0.28194 1.91422,0.49963 2.45919,0.75364 0.545,0.2544 0.83611,0.56651 0.95195,0.95192 0.23165,0.77088 -0.2312,1.95603 -0.79329,4.20443 -0.21533,0.86143 -0.2327,1.63199 -0.15868,2.37986 0.074,0.74794 0.21854,1.46231 0.39662,2.14192 0.17815,0.67955 0.37905,1.32677 0.47596,1.98318 0.0969,0.6564 0.0902,1.3048 -0.0793,1.98324 -0.43164,1.72648 -1.07414,2.88487 -1.70558,3.76814 -0.63142,0.88327 -1.22877,1.50558 -1.54691,2.14185 -0.42003,0.84006 -1.12798,1.55226 -1.7849,2.26086 -0.65692,0.7086 -1.27947,1.42899 -1.50725,2.3402 -0.15284,0.61109 -1.151349,2.03641 -2.102213,3.33185 -0.950871,1.29543 -1.850296,2.43566 -1.824567,2.53854 0.227718,0.91087 0.342528,1.64602 0.356953,2.26085 0.01442,0.61503 -0.06701,1.12463 -0.277616,1.54689 -0.421145,0.84458 -1.305883,1.40657 -2.697188,2.10225 -1.346188,0.67312 -2.0855495,1.43397 -2.8558385,2.30052 -0.770289,0.86655 -1.585643,1.83382 -3.054161,2.93517 -0.746763,0.55995 -2.601663,1.29235 -3.926783,2.26085 -0.662567,0.48455 -1.21205498,1.02405 -1.38825698,1.62629 -0.08806,0.30096 -0.07272,0.61962 0.03934,0.95192 0.112318,0.33243 0.348561,0.70558 0.71395898,1.07093 0.62244,0.62224 1.957835,1.39916 3.054162,2.4592 0.548151,0.52979 1.055517,1.14941 1.348594,1.82457 0.29309,0.67515 0.369674,1.41673 0.158675,2.26086 -0.433406,1.73355 -1.019474,3.29775 -1.784898,4.72012 -0.14307,0.26555 -0.36115,0.45964 -0.515628,0.71391 0.302269,-7e-5 0.466714,-0.0459 0.79329,-0.0393 5.8899355,-6.4689 12.1633925,-1.72051 14.7155165,2.30059 2.61768,4.12431 5.29696,2.76318 9.44014,-1.11066 1.92916,-1.80372 4.76767,-4.55201 6.86195,-4.91834 20.04586,-3.50659 22.6553,-5.98244 23.99699,-4.64079 2.34876,2.34885 0.0295,6.75556 4.56142,2.77656 3.26993,-2.87111 8.39528,-7.57595 12.21665,-7.57595 8.73484,0 11.36024,2.05713 13.56524,-1.7849 1.97662,-3.44404 4.78534,-6.89195 11.225037,-6.22728 3.72758,0.38489 13.73958,1.92941 18.7613,1.15026 6.04277,-0.93762 11.78589,-7.29571 13.44621,-7.89323 1.30868,-0.47078 -1.19557,4.25171 0.51537,7.02059 0.98051,1.58648 2.94401,5.237 6.74297,7.61561 2.20204,1.37871 3.96111,5.28631 7.17926,5.51331 11.52985,0.8135 8.93131,3.08033 10.43178,3.49052 1.8304,0.50029 6.53558,1.00169 9.12283,-0.0793 4.37281,-1.82713 3.17613,-5.10737 8.09152,-2.81622 2.90821,1.35562 5.981,3.78925 7.97257,4.2441 1.30389,0.29768 6.49309,-5.55612 5.43403,-3.68881 -0.62487,1.10135 -0.76971,2.12618 -0.71397,3.09384 0.43144,-0.56717 0.78,-1.00654 1.26927,-1.66589 0.91192,-1.22888 1.90784,-2.49186 2.81615,-3.17318 0.35079,-0.26293 0.3521,-0.55536 0.19867,-0.87258 -0.15408,-0.31735 -0.45045,-0.66204 -0.71397,-1.07092 -0.26358,-0.40915 -0.49832,-0.85082 -0.47602,-1.38828 0.0197,-0.53766 0.2885,-1.16108 0.99159,-1.86424 0.73724,-0.73718 1.13498,-1.79342 1.54695,-2.85582 0.41177,-1.06247 0.84937,-2.11864 1.58655,-2.85583 0.24785,-0.24784 -0.32981,-5.46445 0,-6.78264 0.21703,-0.86812 0.0393,-1.48787 -0.31735,-1.98324 -0.35407,-0.49504 -0.88812,-0.88196 -1.38828,-1.26927 -0.50028,-0.38751 -0.96863,-0.76505 -1.18993,-1.30894 -0.22162,-0.54356 -0.20457,-1.21642 0.27736,-2.18152 0.62814,-1.25648 1.10174,-2.6304 0.99158,-3.76814 -0.0525,-0.56847 -0.22621,-1.07715 -0.6347,-1.50721 -0.40849,-0.43013 -1.02948,-0.77305 -1.9039,-0.99166 -1.08417,-0.27079 -1.83565,-0.46816 -2.30053,-0.67424 -0.46488,-0.20654 -0.67168,-0.43668 -0.71397,-0.75364 -0.0846,-0.63404 0.48717,-1.64169 0.91232,-3.76814 0.28128,-1.40663 0.0131,-2.57886 -0.31735,-3.64913 -0.33047,-1.07021 -0.71398,-2.05622 -0.71398,-3.13351 0,-1.51528 0.38882,-2.78475 0.71398,-3.96642 0.32521,-1.18167 0.57831,-2.24886 0.31735,-3.29218 -0.11409,-0.45635 0.17178,-0.75639 0.6743,-0.95192 0.50225,-0.19539 1.2235,-0.29178 1.98318,-0.31735 1.51941,-0.0525 3.21428,0.11934 3.60946,0.19802 2.20532,0.44127 3.291,0.4675 4.40278,0.35735 1.11177,-0.11016 2.24859,-0.35735 4.44244,-0.35735 0.27277,0 -0.003,-0.88721 -0.19801,-2.06252 -0.0977,-0.58749 -0.16392,-1.27136 -0.15868,-1.9039 0.005,-0.63273 0.10163,-1.23386 0.35669,-1.74523 0.12393,-0.24785 0.62683,-0.42751 1.34854,-0.55536 0.72158,-0.12786 1.63423,-0.18294 2.57821,-0.23802 0.78197,-0.0459 1.12535,-0.0525 1.82457,-0.0793 0.0393,-1.17053 0.10819,-2.40695 0.11868,-3.68881 0.0131,-1.58524 -0.10163,-3.13849 -0.67431,-4.28377 -0.39341,-0.78721 -0.92116,-1.42925 -1.54688,-1.98317 -0.62552,-0.55405 -1.37005,-0.99985 -2.18159,-1.38828 -1.62301,-0.77685 -3.54488,-1.30271 -5.63237,-1.82457 -1.34232,-0.33571 -2.73512,-0.46946 -4.1251,-0.51536 -1.38991,-0.0459 -2.78075,0 -4.20443,0 -1.12128,0 -2.61066,0.0911 -4.04576,0.0793 -1.43509,-0.0131 -2.82428,-0.12327 -3.76814,-0.59471 -0.0715,-0.0328 -1.33018,-0.72643 -2.65748,-1.58662 -1.32736,-0.86012 -2.71092,-1.89164 -3.05417,-2.57814 -0.76321,-1.52643 -1.79021,-2.37141 -2.81615,-3.25251 -0.51275,-0.44062 -1.00956,-0.91121 -1.50728,-1.46762 -0.49767,-0.55602 -0.99946,-1.20553 -1.42795,-2.06251 -0.57897,-1.15853 -0.75882,-2.50307 -0.91225,-3.92682 -0.15343,-1.42368 -0.26621,-2.93031 -0.6347,-4.40271 -0.24982,-0.99821 -0.22752,-1.70661 -0.0793,-2.26086 0.14819,-0.55405 0.43079,-0.93893 0.75364,-1.26927 0.3226,-0.33046 0.67883,-0.62552 0.95192,-0.95198 0.27342,-0.32653 0.47603,-0.68722 0.47603,-1.2296 0,-1.08391 -0.0197,-2.42458 0.11868,-3.72847 0.13703,-1.30383 0.41963,-2.58398 0.91231,-3.5698 0.83469,-1.6693 1.0565,-2.79498 1.15027,-3.84741 0.0938,-1.05244 0.0459,-2.00501 0.39668,-3.41119 0.26621,-1.06614 1.17892,-1.95997 2.02292,-2.77649 0.42226,-0.40849 0.85042,-0.78695 1.15026,-1.18993 0.29965,-0.40324 0.47602,-0.83357 0.47602,-1.26927 0,-3.24477 -0.30161,-5.37089 -1.03125,-8.28986 -0.1672,-0.66951 -0.80433,-2.5245 -1.15027,-4.2441 -0.1731,-0.85979 -0.2721,-1.6889 -0.19867,-2.34019 0.0741,-0.65109 0.31735,-1.10076 0.83298,-1.2296 0.70932,-0.17769 1.118,-0.47537 1.34854,-0.83298 0.2308,-0.358 0.28522,-0.79377 0.23802,-1.26927 -0.0944,-0.95094 -0.55537,-2.048749 -0.55537,-3.093769 0,-1.26717 -0.46947,-2.91077 -1.15026,-4.32344 -0.3403,-0.70637 -0.72269,-1.38447 -1.15026,-1.90391 -0.42751,-0.5193 -0.88944,-0.88727 -1.34861,-1.07092 -2.45599,-0.98241 -4.60945,-2.57362 -7.29827,-3.64914 -0.9091,-0.3639 -2.9964,-0.77809 -4.9184,-1.3486 -0.96097,-0.28523 -1.86752,-0.61372 -2.57815,-0.99159 -0.71069,-0.37833 -1.22403,-0.81056 -1.3486,-1.30894 -0.2472,-0.98969 -0.74132,-2.40609 -1.07093,-3.84748 -0.16458,-0.72066 -0.30752,-1.46624 -0.31735,-2.14185 -0.0131,-0.67562 0.0944,-1.29937 0.35735,-1.82457 0.70518,-1.41037 1.09492,-2.28872 1.30887,-3.17317 0.21375,-0.88445 0.23801,-1.75789 0.23801,-3.05417 0,-1.37634 -0.24326,-2.81511 -0.6347,-4.16476 -0.39144,-1.34966 -0.91264,-2.61854 -1.42794,-3.64914 -1.05572,-2.11143 -2.02331,-5.03833 -3.13344,-7.2586 -0.92176,-1.84345 -1.39221,-4.31865 -2.30053,-6.50496 z" />
  </g>
</svg>
