<?xml version="1.0" encoding="UTF-8" standalone="no"?>
<!-- Created with Inkscape (http://www.inkscape.org/) -->

<svg
   width="210mm"
   height="297mm"
   viewBox="0 0 210 297"
   version="1.1"
   id="svg1283"
   inkscape:version="1.1.2 (b8e25be833, 2022-02-05)"
   sodipodi:docname="vector.svg"
   xmlns:inkscape="http://www.inkscape.org/namespaces/inkscape"
   xmlns:sodipodi="http://sodipodi.sourceforge.net/DTD/sodipodi-0.dtd"
   xmlns="http://www.w3.org/2000/svg"
   xmlns:svg="http://www.w3.org/2000/svg">
  <sodipodi:namedview
     id="namedview1285"
     pagecolor="#ffffff"
     bordercolor="#666666"
     borderopacity="1.0"
     inkscape:pageshadow="2"
     inkscape:pageopacity="0.0"
     inkscape:pagecheckerboard="0"
     inkscape:document-units="mm"
     showgrid="false"
     inkscape:zoom="0.74029882"
     inkscape:cx="361.34057"
     inkscape:cy="561.93525"
     inkscape:window-width="1920"
     inkscape:window-height="1017"
     inkscape:window-x="-8"
     inkscape:window-y="-8"
     inkscape:window-maximized="1"
     inkscape:current-layer="layer1" />
  <defs
     id="defs1280" />
  <g
     inkscape:label="Capa 1"
     inkscape:groupmode="layer"
     id="layer1">
    <path
       d="m 159.10175,81.518447 c -2.11276,1.87855 -5.94076,0.10488 -6.61746,2.60423 1.88054,2.45142 -2.95433,0.57161 -3.27223,3.84143 -1.18685,2.46117 -3.09802,3.07987 -3.13127,5.66953 -2.92213,0.78137 -0.14159,2.98349 -2.4102,5.1276 -0.48771,2.656153 -4.14423,2.599103 -5.4024,3.590763 -2.21449,1.10662 -1.75217,6.84957 -4.30249,4.70503 -2.61598,0.021 -5.41467,-1.28879 -8.34152,-1.19503 -1.23803,-1.00477 -5.08817,-1.83429 -6.49108,-0.90618 -2.34486,0.42687 -4.45698,1.087 -5.71169,2.60413 -1.6647,1.05679 -4.67808,1.20845 -4.70503,-1.69837 -3.33726,-0.61251 -4.56491,-0.68069 -6.71836,0.90619 -2.709956,0.33982 -4.852286,2.06891 -4.604236,4.61745 -1.55499,2.36815 -5.29583,-1.00792 -3.79926,-2.01322 0.0315,-1.71514 -5.07768,-1.69175 -3.10747,-3.51 -1.77461,-1.13158 -4.94814,-0.86423 -6.11423,-2.60423 -0.93031,-3.19745 -1.60837,-2.29609 -3.86587,-0.54959 -0.74676,1.77357 -3.00887,4.72129 -5.56433,2.4423 -2.50827,-0.12062 -2.52473,4.72223 -4.09409,2.4102 -2.14768,-0.72054 -4.01784,-2.00798 -3.76424,-3.26699 -2.85815,-1.30012 -3.17154,-0.0944 -5.71253,-1.39147 -1.50318,-1.73791 -1.85013,-3.969913 -4.42887,-4.996503 -6.74878,-1.91631 -13.46409,-4.34686 -20.46448,-5.06436 -1.03099,1.83303 -4.18418,3.02617 -6.90673,2.60423 -0.99953,3.11029 -2.90493,2.39248 -4.17296,5.060163 -1.93917,1.72637 -2.78882,1.97316 -5.65296,1.05397 -2.37852,-1.644773 -3.93991,0.87052 -7.43565,0 -3.9076095,-0.16676 -1.72689,5.32667 -4.4777495,5.20836 -0.92506,1.7871 -4.28948,0.97646 -4.3026,4.3026 -0.8873,0.61881 -4.42646,5.14008 -2,4.3026 0.84745,2.51634 2.66884,3.36694 2.7926,5.92576 -0.0839,3.04851 1.56695,4.37087 0.90619,8.00096 -1.16221,2.39279 -2.15744,4.42657 -0.90619,6.11424 -1.27159,-0.50659 0.42058,7.06604 1.81153,3.50999 1.01002,1.11847 4.9912595,1.95659 2.60424,4.01323 0.53385,3.41508 -2.21491,4.12881 -2.60424,6.21503 0.92297,1.34963 2.63161,3.52814 4.3025995,4.2018 -1.1073495,1.11815 1.54324,1.7592 0,5.30916 -1.0058195,1.173 1.99738,2.63926 2.2017,4.60424 2.31989,1.38214 3.10767,2.7132 4.41587,4.30259 2.21816,0.65028 0.83381,4.90284 3.39672,5.20837 0.34716,2.08108 2.97563,3.28681 1.30831,5.71169 1.45367,1.35603 1.53779,4.08161 2.60413,5.82486 1.25838,1.44224 1.11616,4.28509 2.2018,5.90017 -0.26641,2.44754 -0.18145,3.16106 0.40275,5.81249 -2.17863,1.39074 1.7766,3.74032 0.90618,6.21502 0.34087,2.44157 0.71425,5.74484 2.93566,6.58055 0.81179,4.55232 3.28923,0.93135 2.27281,-2.30438 -0.41534,-3.3511 2.12167,-3.74903 4.61745,-4.18848 1.12613,1.52352 5.60136,1.1537 6.80594,0 4.10521,-0.35241 2.02035,-1.91233 3.29593,-3.39684 -0.96177,-3.55226 1.30338,-4.91332 2.60413,-6.61746 2.75086,-0.22444 2.38136,-3.90939 4.41577,-4.70503 1.26981,-2.32881 2.47166,-3.30495 5.20846,-4.30259 1.6861,-1.08585 3.351,-2.19289 4.3025,-4.01334 2.74309,0.0629 4.88385,-1.2009 6.21502,-3.00666 2.99262,0.10907 4.30795,-2.56921 6.11424,-0.90619 2.78222,1.29593 3.11354,-0.26955 6.11412,0.90619 1.36505,1.77954 0.41429,4.89539 2.26043,6.8718 3.05397,-0.0315 5.4367,0.26745 6.24387,2.34989 1.92439,1.55897 4.07553,3.13809 4.41587,5.30916 -0.0315,1.74314 -3.00404,0.95443 -5.20836,0.30206 -1.17007,2.86843 -2.34004,5.73676 -3.51,8.60519 3.18623,-0.89884 4.12555,2.5111 6.11413,3.51 -0.47827,2.54991 3.17385,4.06976 0.79291,5.7117 0.66181,2.07667 2.32944,3.14731 3.51,4.70503 0.25486,2.40275 3.458076,3.34313 4.302596,0.90618 3.03152,-0.16886 5.22116,-0.12691 6.82596,-2.4102 1.88097,-0.92821 3.37659,-1.56464 4.99986,-0.19403 3.09466,-1.41067 2.99356,1.2653 5.96677,0.54958 0.56951,-0.28423 5.67383,0.8055 3.4434,2.9601 0.9366,1.85275 4.40853,-0.11432 4.51666,-1.81153 3.73864,-0.13739 4.97878,0.22235 6.61746,0.90619 0.6723,-0.66181 -1.40994,-5.11219 3.42242,-3.51 2.25204,0.79291 4.91868,1.1707 8.22825,0.90618 2.56815,-0.36079 2.55001,-5.11166 6.47786,-3.51 1.16053,-3.18559 1.07347,-3.39609 2.60413,-5.20836 2.46128,0.29052 4.01386,-3.23028 2.60423,-4.01323 0.8999,-0.92611 0.82648,-3.27747 -1.6176,-4.5111 -3.20227,-2.68174 1.20552,-5.2972 1.6176,-1.8924 2.48069,-0.96072 3.85528,-0.73837 6.11424,0.50344 2.4553,0.95968 4.14454,0.41009 6.37969,0.86318 1.22702,0.37234 5.16977,-0.129 6.44713,1.94904 1.65075,1.62589 5.25252,0.79501 8.14633,0.98694 2.6228,-0.51392 4.96493,-0.72264 8.01712,-1.15979 2.01291,-3.27139 2.20138,-1.59715 5.46826,-1.44444 2.50208,-0.61461 2.24239,-0.44366 5.92576,-0.79291 4.07028,1.37008 4.8761,-2.08528 3.09425,-4.9191 -2.77834,-0.67859 -0.70481,-1.58708 -1.81153,-4.70503 -0.0734,-2.84368 1.11165,-6.02267 0.50343,-6.90683 1.23111,-0.76565 -2.14275,-3.56654 -0.50343,-5.20837 4.14044,1.26468 3.69071,-3.12025 3.51,-5.83818 -2.20201,0.14159 -2.60266,-4.63329 -1.8924,-6.19615 1.72626,-1.74755 3.45567,-1.75573 1.8924,-5.21392 -1.84059,-0.82647 -1.02995,-4.30469 -3.51,-4.49107 -0.11537,-2.39594 -1.52038,-4.19876 -1.69847,-7.02 -0.83382,-2.68835 -4.36889,-2.17275 -5.71159,-3.39673 -2.46988,-0.57161 -1.5488,-3.58236 -3.71851,-5.1276 -2.62238,-0.1783 -1.28439,-4.20715 -3.30149,-5.40239 -1.61194,-2.54036 -1.6346,-2.3821 -0.28948,-5.20837 1.03624,-0.74257 -3.38582,-1.71262 -0.90618,-4.61745 -1.23667,-1.3188 -3.75899,1.57607 -6.11413,-0.59049 -1.66606,0.78662 -4.55757,1.80681 -5.01444,-1.50444 -1.84656,-1.11846 -3.97567,-1.45262 -5.40239,-2.79816 -1.37249,-2.46264 -0.81179,-5.72596 -0.90619,-8.71836 -1.09382,-4.27281 3.94327,-1.01736 1.81164,-5.20836 -3.49983,-0.938703 1.10672,-2.419963 0,-5.624123 1.95973,-0.46568 5.61698,-0.18564 1.31963,-1.72731 -1.32834,-1.30002 1.81877,-4.96766 2.98297,-4.3736 1.04463,1.29655 5.39044,-2.26568 3.15402,-2.55767 -2.29011,-1.21349 -3.65998,-1.9827 -5.45661,-3.15403 -0.22236,3.22252 -3.04128,0.88626 -5.31608,0.19403 -1.95564,0.50029 -4.51803,1.62401 -4.49653,-0.98694 -2.88112,0.56741 -4.5111,-0.72264 -7.02,-0.90619 z m -6.11413,125.227573 c -0.38387,2.68363 2.47177,-0.55169 0,0 z"
       style="fill:#000000;fill-opacity:1;stroke:#d39062;stroke-width:1.38751;stroke-miterlimit:4;stroke-dasharray:none;stroke-opacity:1"
       id="Fresia" />
  </g>
</svg>
