<?xml version="1.0" encoding="UTF-8" standalone="no"?>
<!-- Created with Inkscape (http://www.inkscape.org/) -->

<svg
   width="210mm"
   height="297mm"
   viewBox="0 0 210 297"
   version="1.1"
   id="svg57"
   inkscape:version="1.1.2 (b8e25be833, 2022-02-05)"
   sodipodi:docname="vector.svg"
   xmlns:inkscape="http://www.inkscape.org/namespaces/inkscape"
   xmlns:sodipodi="http://sodipodi.sourceforge.net/DTD/sodipodi-0.dtd"
   xmlns="http://www.w3.org/2000/svg"
   xmlns:svg="http://www.w3.org/2000/svg">
  <sodipodi:namedview
     id="namedview59"
     pagecolor="#ffffff"
     bordercolor="#666666"
     borderopacity="1.0"
     inkscape:pageshadow="2"
     inkscape:pageopacity="0.0"
     inkscape:pagecheckerboard="0"
     inkscape:document-units="mm"
     showgrid="false"
     inkscape:zoom="0.74029882"
     inkscape:cx="361.34057"
     inkscape:cy="453.87078"
     inkscape:window-width="1920"
     inkscape:window-height="1017"
     inkscape:window-x="-8"
     inkscape:window-y="-8"
     inkscape:window-maximized="1"
     inkscape:current-layer="layer1" />
  <defs
     id="defs54" />
  <g
     inkscape:label="Capa 1"
     inkscape:groupmode="layer"
     id="layer1">
    <path
       inkscape:connector-curvature="0"
       id="Yumbel"
       style="fill:#000000;fill-opacity:1;fill-rule:evenodd;stroke:#d39062;stroke-width:0.749656;stroke-linecap:butt;stroke-linejoin:miter;stroke-miterlimit:4;stroke-dasharray:none;stroke-opacity:1"
       d="m 209.60711,236.58946 -6.55944,-22.81769 -12.27565,1.03081 8.19934,-16.35189 -6.13779,-10.2141 c 0.1549,-0.62039 0.11385,-1.07868 -0.0937,-1.35875 -0.20835,-0.28037 -0.58244,-0.40197 -1.07759,-0.42134 -0.99031,-0.0387 -2.48754,0.37487 -4.17004,0.89024 -1.68242,0.51583 -3.52826,1.12058 -5.2944,1.5461 -1.76623,0.42522 -3.44392,0.68546 -4.68541,0.37487 -2.03552,-0.50886 -4.43616,-1.58607 -6.79373,-2.76435 -2.35757,-1.17836 -4.65264,-2.46686 -6.46579,-3.37344 -0.50422,-0.25249 -0.80559,-0.53751 -0.9371,-0.84337 -0.13167,-0.30517 -0.12005,-0.64905 0.0465,-0.98396 0.33382,-0.66919 1.21685,-1.3747 2.29584,-2.01469 1.07907,-0.63975 2.38042,-1.22289 3.60773,-1.6399 1.22731,-0.41669 2.36059,-0.65602 3.13922,-0.65602 1.39686,0 2.77512,-0.32607 3.93567,-0.84338 1.16054,-0.51738 2.10089,-1.24318 2.62377,-2.01469 0.26179,-0.38571 0.44148,-0.77142 0.46859,-1.17131 0.0232,-0.39965 -0.11696,-0.79032 -0.37487,-1.17131 -0.51583,-0.76213 -1.65136,-1.4788 -3.60773,-1.96791 -2.27989,-0.57005 -3.24595,-0.25327 -4.45103,-0.60877 -0.60258,-0.17814 -1.26193,-0.53675 -2.15527,-1.21817 -0.89333,-0.68158 -2.05055,-1.72254 -3.60773,-3.2798 -1.24613,-1.24605 -2.5069,-2.23721 -3.84202,-3.04543 -1.33512,-0.80821 -2.73205,-1.41954 -4.16996,-1.87419 -1.4379,-0.45464 -2.94349,-0.75206 -4.49796,-0.93701 -1.55439,-0.18512 -3.14124,-0.23391 -4.8259,-0.23391 -1.44147,0 -2.44091,-0.15181 -3.09229,-0.37487 -0.65137,-0.22384 -0.96854,-0.55378 -0.98395,-0.9371 -0.0155,-0.38338 0.23623,-0.83307 0.70249,-1.31188 0.46626,-0.47866 1.17371,-0.9886 1.96783,-1.49933 1.58824,-1.02144 3.64839,-2.04512 5.62242,-2.81121 1.97403,-0.766 3.83978,-1.26502 4.96648,-1.26502 0.94337,0 1.37431,-0.30981 1.49932,-0.79652 0.1247,-0.4864 -0.0465,-1.1315 -0.37487,-1.82734 -0.65679,-1.39166 -1.87427,-2.95201 -2.15527,-3.51401 -0.6839,-1.3685 -0.96815,-2.39033 -1.07767,-3.27972 -0.1092,-0.88938 -0.0387,-1.61681 0.0465,-2.3427 0.0836,-0.72573 0.15104,-1.46462 0.0465,-2.3427 -0.10379,-0.87808 -0.35783,-1.88697 -1.03074,-3.23286 -0.74432,-1.48856 -1.64005,-2.2802 -2.53013,-2.71749 -0.89001,-0.43761 -1.80937,-0.53597 -2.53006,-0.74974 -0.72108,-0.21377 -1.26294,-0.53984 -1.49932,-1.35875 -0.23623,-0.8189 -0.14097,-2.15255 0.42134,-4.40425 0.75903,-3.03527 1.01199,-4.86981 1.07767,-6.70009 0.062,-1.83019 -0.0465,-3.63677 -0.0465,-6.55943 0,-2.91438 0.25946,-5.31633 0.65602,-7.44976 0.39655,-2.13342 0.901,-3.978881 1.35874,-5.809851 0.30052,-1.20074 0.32298,-2.31792 0.18744,-3.37344 -0.13554,-1.05552 -0.41902,-2.06852 -0.74974,-3.0455 -0.66067,-1.95397 -1.45246,-3.8167 -1.45246,-5.85663 0,-2.00013 0.6777,-4.44221 1.54618,-6.7001 0.86824,-2.25789 1.91725,-4.34987 2.53005,-5.57556 0.64518,-1.28958 0.81155,-2.43192 0.65603,-3.51401 -0.15568,-1.08209 -0.62737,-2.07851 -1.26503,-3.09236 -1.27557,-2.02762 -3.20328,-4.06385 -4.49797,-6.65323 -0.72495,-1.4503 -1.14536,-2.64097 -1.35875,-3.70137 -0.21376,-1.06048 -0.20447,-2.01965 -0.18743,-2.95179 0.0155,-0.93214 0.0805,-1.83941 0.0465,-2.90492 -0.031,-1.01145 -0.19131,-2.19942 -0.51506,-3.56088 -0.16187,-0.35473 -0.34234,-0.70404 -0.60877,-1.03081 -0.36016,-0.44148 -0.81178,-0.85097 -1.45247,-1.17131 -0.91362,-0.45697 -1.95071,-0.51506 -3.0455,-0.37487 -1.09471,0.14019 -2.25022,0.45465 -3.37343,0.74974 -1.12322,0.29432 -2.23381,0.55456 -3.23286,0.5623 -0.99906,0.008 -1.90154,-0.21454 -2.62386,-0.93709 -0.71798,-0.71799 -2.42185,-2.60829 -4.49789,-3.74831 -1.03801,-0.57005 -2.17788,-0.96947 -3.32665,-0.93702 -0.57392,0.0155 -1.16008,0.16653 -1.73354,0.42134 -0.57315,0.2556 -1.13328,0.61807 -1.68676,1.17132 -1.21213,1.21212 -2.19608,1.97147 -3.09236,2.3427 -0.8962,0.37099 -1.68079,0.37564 -2.57691,0.18743 -1.79225,-0.37564 -3.90445,-1.60868 -7.59027,-2.53013 -3.09343,-0.77298 -6.36459,-0.86437 -9.651845,-0.98388 -3.28724,-0.11928 -6.58024,-0.23933 -9.74553,-1.03081 -2.90655,-0.72651 -6.80622,-1.26395 -10.30778,-1.59304 -1.90208,-0.17892 -2.92382,-0.15723 -4.40424,-0.23391 0.11123,0.26721 0.35148,0.46859 0.42165,0.74974 0.25505,1.02036 0.85326,1.81595 1.49932,2.62377 0.64603,0.80783 1.33697,1.64316 1.82729,2.62378 0.28417,0.5685 0.76329,1.88294 0.98392,3.23294 0.11037,0.67461 0.15831,1.32071 0.0937,1.92097 -0.0643,0.60025 -0.26357,1.15381 -0.60909,1.49932 -0.15088,0.15103 -1.1328,0.87552 -2.0147,1.73362 -0.44093,0.42908 -0.86861,0.8687 -1.12449,1.31188 -0.2559,0.44303 -0.36186,0.86925 -0.18743,1.21817 0.42839,0.85678 1.48233,2.05652 2.20211,3.09237 0.35992,0.51815 0.63387,0.98031 0.70281,1.35874 0.0689,0.37874 -0.0504,0.68003 -0.51537,0.79652 -0.60823,0.15181 -1.24365,0.10766 -1.87414,-0.0465 -0.63046,-0.1549 -1.27938,-0.4469 -1.92099,-0.70249 -0.64162,-0.25559 -1.27937,-0.50422 -1.921,-0.65602 -0.64162,-0.15181 -1.29045,-0.20448 -1.921,-0.0465 -0.55525,0.13864 -2.11784,1.04738 -3.65458,1.63982 -0.7684,0.29664 -1.53256,0.50499 -2.15526,0.51583 -0.62271,0.008 -1.09556,-0.16188 -1.3119,-0.70249 -0.31995,-0.80001 -0.37649,-2.58002 -0.51537,-4.26368 -0.13887,-1.68366 -0.3387,-3.29048 -0.89021,-3.84202 -1.34917,-1.34914 -1.93179,-1.75491 -2.48324,-1.68676 -0.55146,0.0697 -1.0942,0.6173 -2.29582,1.21825 -1.06045,0.53055 -1.65712,1.32273 -2.34268,1.87412 -0.34281,0.27573 -0.71249,0.45541 -1.17134,0.5623 -0.45882,0.10688 -0.97198,0.13167 -1.68673,-0.0465 -1.36989,-0.34234 -2.20559,-0.49028 -2.81121,-0.23391 -0.6056,0.25559 -1.01079,0.88706 -1.49931,2.10841 -0.62613,1.56531 -0.46046,4.29442 -1.40561,6.18464 -0.39601,0.79195 -0.8169,1.81177 -1.45246,2.53006 -0.31779,0.35938 -0.70598,0.63976 -1.17134,0.79652 -0.46533,0.15723 -1.01538,0.16807 -1.68672,0 -0.99149,-0.24785 -2.44823,-0.48098 -3.9357,-0.60877 -1.48748,-0.12857 -2.97827,-0.14561 -4.12312,0.14019 -0.58445,0.14638 -1.03852,0.45464 -1.4056,0.84337 -0.36705,0.38881 -0.66385,0.84408 -0.89022,1.40561 -0.18844,0.46704 -0.28208,1.09657 -0.42165,1.63982 0.36851,0.0155 0.65408,0.062 0.79651,0.23391 0.16017,0.19208 0.2054,0.45154 0.1405,0.79652 -0.12966,0.6901 -0.63945,1.64609 -1.26505,2.71749 -0.62558,1.0714 -1.33866,2.27733 -1.92099,3.42029 -0.58237,1.14304 -1.03078,2.23404 -1.03078,3.13922 2e-5,0.58244 -1.59355,1.76359 -3.27975,2.90493 -1.6862,1.14134 -3.44634,2.27501 -3.88884,2.71749 -1.11147,1.11144 -1.34823,2.2352 -1.78044,3.23286 -0.21609,0.4988 -0.47857,0.96266 -0.93707,1.35883 -0.45844,0.39578 -1.13276,0.73967 -2.10841,0.98387 -1.495716,0.3741 -2.654922,0.68313 -3.514015,1.03082 -0.8590938,0.34698 -1.4241708,0.7234 -1.5930238,1.17131 -0.168846,0.44767 0.03408,0.96474 0.609085,1.6399 0.5750058,0.67538 1.5324018,1.50071 2.9049188,2.53005 1.044646,0.78351 2.763285,2.39382 4.544795,3.79517 0.89076,0.700941 1.80304,1.350771 2.67065,1.827251 0.86761,0.47633 1.68334,0.79652 2.38953,0.79652 1.5502,0 3.68104,0.75129 5.66928,1.6399 1.98824,0.88838 3.80679,1.90339 4.68536,2.3427 2.14674,1.07334 3.76542,1.68126 4.82591,2.81121 0.53024,0.56463 0.90782,1.24706 1.17134,2.20213 0.2635,0.95498 0.42166,2.15247 0.42166,3.74822 0,1.21113 -0.45426,1.87412 -1.03079,2.29585 -0.57647,0.42211 -1.29317,0.6049 -1.87413,0.93709 -0.58097,0.33227 -1.01731,0.79133 -1.03079,1.73354 -0.0132,0.94221 0.42018,2.38646 1.54617,4.63854 0.36976,0.73967 0.29742,1.47206 0,2.20213 -0.29742,0.7296 -0.82705,1.46082 -1.45246,2.1084 -1.25081,1.29508 -2.84562,2.33023 -3.37346,2.85807 -3.57029,3.57024 -5.69268,7.33257 -8.76161,10.40146 -1.35155,1.35155 -2.17572,2.33829 -3.23289,2.99865 -1.05718,0.66067 -2.37341,0.98387 -4.77907,0.98387 -1.309244,0 -2.19138,0.26334 -2.811207,0.7025 -0.619851,0.43915 -0.95268,1.03677 -1.124484,1.82733 -0.343656,1.58111 -0.04647,3.77154 -0.04647,6.2315 1.6e-5,3.99298 0,8.00153 0,11.9945 1.6e-5,3.99298 0,8.00153 0,11.9945 0,1.36634 0.376651,2.51333 0.937073,3.56087 0.560445,1.04762 1.326758,1.98836 2.014697,2.99865 0.687931,1.01029 1.304271,2.07224 1.686731,3.32658 0.38246,1.25441 0.49655,2.71803 0.1405,4.49796 -0.22484,1.1243 -0.61915,1.99912 -1.17134,2.76435 -0.55215,0.76523 -1.263605,1.3991 -2.014699,1.92098 -1.502195,1.04374 -3.2515958,1.71952 -4.7790638,2.48327 -1.130943,0.5654 -2.271444,0.82332 -3.27975,0.98396 -1.008297,0.16032 -1.896312,0.24707 -2.530088,0.46858 -0.633793,0.22152 -1.02343196,0.56308 -1.03078296,1.31189 -0.0075,0.74897 0.39407796,1.86583 1.26505296,3.60773 0.01084,0.0232 -0.943385,0.49105 -1.21819396,0.65602 1.04927796,0.44148 1.98105296,0.95592 2.81120996,1.54618 0.954972,0.67926 1.861172,1.42164 2.858068,2.06155 0.996897,0.63976 2.120134,1.19772 3.5140118,1.54618 1.001784,0.25017 4.286735,0.67771 7.356005,1.59304 1.53465,0.45774 3.03475,1.03709 4.12312,1.7804 0.54418,0.37177 0.99967,0.76058 1.31189,1.21817 0.31221,0.45774 0.46851,0.99193 0.46851,1.54618 0,1.88287 0.15591,3.17996 0.46851,4.02946 0.31268,0.84942 0.79377,1.228 1.45246,1.35874 0.65866,0.1309 1.49194,-0.008 2.53009,-0.28115 1.03816,-0.27341 2.29726,-0.66841 3.74829,-1.03081 1.84015,-0.46007 3.72339,-1.48306 5.62242,-2.38948 0.94952,-0.4531 1.92349,-0.86019 2.85807,-1.17139 0.93459,-0.31136 1.81762,-0.51506 2.71751,-0.51506 3.36545,0 6.43195,0.5197 9.41756,1.03081 2.98562,0.51041 5.9176,0.98388 8.99589,0.98388 0.46037,0 0.83562,-0.12857 1.17133,-0.42134 0.33576,-0.29355 0.5984,-0.72263 0.84336,-1.21817 0.48989,-0.99054 0.84131,-2.30886 1.17135,-3.56087 0.33002,-1.2521 0.6832,-2.44827 1.12448,-3.23294 0.22066,-0.39191 0.45039,-0.65757 0.74966,-0.79652 0.29928,-0.13864 0.66586,-0.15878 1.07763,0.0465 0.59073,0.29509 1.20855,0.93183 1.87414,1.73362 0.66555,0.80171 1.361,1.78148 2.01471,2.76435 1.30738,1.96582 2.49371,3.94619 3.23289,4.68532 1.25932,1.25938 2.08145,2.57498 2.67065,3.84202 0.58918,1.26705 0.93568,2.5234 1.3119,3.74831 0.37619,1.22491 0.78524,2.38104 1.4056,3.51401 0.6204,1.13297 1.48958,2.24163 2.81122,3.23286 2.33472,1.75104 4.65456,3.00585 5.99725,4.21682 0.67136,0.60567 1.06254,1.18703 1.12449,1.82733 0.062,0.64053 -0.24242,1.32002 -1.03078,2.10841 -1.23288,1.23288 -2.00106,2.34037 -2.43638,3.37343 -0.43529,1.03306 -0.52815,2.00555 -0.28116,2.95179 0.24708,0.94616 0.82568,1.88589 1.63988,2.85807 0.349,0.41669 0.9207,0.8756 1.35875,1.31188 1.75578,-0.28657 3.78648,-0.28115 6.88747,-0.28115 1.45506,0 2.55188,-0.23855 3.46716,-0.65602 0.915295,-0.41669 1.634895,-0.99983 2.295835,-1.63982 0.66098,-0.63976 1.27584,-1.34566 1.96785,-2.01477 0.69203,-0.66918 1.47474,-1.32304 2.48324,-1.82725 1.08426,-0.54217 2.61359,-0.78854 4.35735,-0.89024 1.74376,-0.10146 3.6865,-0.0387 5.66928,0.0937 3.96555,0.27108 8.00307,0.79652 10.40146,0.79652 1.1899,0 2.49745,0.40585 3.88888,0.98395 1.39143,0.57857 2.85187,1.33497 4.35739,2.15527 1.50544,0.82022 3.05975,1.66398 4.5916,2.38948 1.53193,0.72573 3.07416,1.34573 4.54483,1.6399 2.52115,0.50421 5.64054,1.3819 8.62106,2.3427 2.98052,0.96072 5.78391,2.00431 7.68397,2.76435 0.37952,0.15181 2.54996,-1.78233 4.68532,-3.79516 2.13544,-2.01284 4.27274,-4.13216 4.54483,-4.40425 1.71325,-1.71325 3.19677,-2.50659 4.40425,-3.51402 0.60413,-0.50344 1.13344,-1.05435 1.59304,-1.78039 0.45929,-0.72573 0.82084,-1.6437 1.12445,-2.85807 0.34621,-1.38555 0.77956,-2.4454 1.31189,-3.2798 0.5321,-0.83431 1.16976,-1.4544 1.96783,-1.87411 0.79807,-0.41979 1.76142,-0.65525 2.90493,-0.79652 1.1435,-0.14174 2.46081,-0.18744 4.02945,-0.18744 5.10729,8e-5 10.2138,0 15.32108,0 3.55483,8e-5 5.14206,-0.4376 6.70009,-0.65602 0.26876,-0.0387 0.6111,0.0155 0.89016,0 z" />
  </g>
</svg>
