<?xml version="1.0" encoding="UTF-8" standalone="no"?>
<!-- Created with Inkscape (http://www.inkscape.org/) -->

<svg
   width="210mm"
   height="297mm"
   viewBox="0 0 210 297"
   version="1.1"
   id="svg1283"
   inkscape:version="1.1.2 (b8e25be833, 2022-02-05)"
   sodipodi:docname="vector.svg"
   xmlns:inkscape="http://www.inkscape.org/namespaces/inkscape"
   xmlns:sodipodi="http://sodipodi.sourceforge.net/DTD/sodipodi-0.dtd"
   xmlns="http://www.w3.org/2000/svg"
   xmlns:svg="http://www.w3.org/2000/svg">
  <sodipodi:namedview
     id="namedview1285"
     pagecolor="#ffffff"
     bordercolor="#666666"
     borderopacity="1.0"
     inkscape:pageshadow="2"
     inkscape:pageopacity="0.0"
     inkscape:pagecheckerboard="0"
     inkscape:document-units="mm"
     showgrid="false"
     inkscape:zoom="0.52347032"
     inkscape:cx="155.69173"
     inkscape:cy="611.30496"
     inkscape:window-width="1920"
     inkscape:window-height="1017"
     inkscape:window-x="-8"
     inkscape:window-y="-8"
     inkscape:window-maximized="1"
     inkscape:current-layer="layer1" />
  <defs
     id="defs1280" />
  <g
     inkscape:label="Capa 1"
     inkscape:groupmode="layer"
     id="layer1">
    <path
       style="fill:#000000;fill-opacity:1;stroke:#d38d5f;stroke-width:3.44685;stroke-miterlimit:4;stroke-dasharray:none;stroke-opacity:1"
       id="Vitacura"
       d="m 11.868194,190.91999 c -1.13811,5.50376 0.19967,11.37121 -0.5334,16.89208 l -0.17115,9.52626 -5.7199699,3.91296 17.6856199,0.28524 147.433726,-63.07232 14.61927,-17.86561 22.05554,-10.6618 -5.77332,-6.75398 -43.37544,3.02642 -13.1129,-9.07813 -16.47619,-15.80274 -10.76136,-5.716553 h -12.77631 l -2.01666,-2.35325 -4.706506,-0.67318 -3.02642,-4.70821 -6.05343,0.67317 -4.7065,3.69817 -5.3058,-10.44873 -10.45929,-5.67176 -3.69817,8.0698 -4.70651,2.68984 -13.44948,1.00691 -9.75159,11.09623 -8.40639,8.741553 7.73321,6.38801 -1.34634,19.5029 -4.70651,4.36964 0.33659,11.76969 0.28809,0.42786 -7.2058,3.27402 -0.32518,6.54946 3.60176,5.56708 -0.32517,8.51478 -7.86015,6.54946 z" />
  </g>
</svg>
