<?xml version="1.0" encoding="UTF-8" standalone="no"?>
<!-- Created with Inkscape (http://www.inkscape.org/) -->

<svg
   width="210mm"
   height="297mm"
   viewBox="0 0 210 297"
   version="1.1"
   id="svg1283"
   inkscape:version="1.1.2 (b8e25be833, 2022-02-05)"
   sodipodi:docname="vector.svg"
   xmlns:inkscape="http://www.inkscape.org/namespaces/inkscape"
   xmlns:sodipodi="http://sodipodi.sourceforge.net/DTD/sodipodi-0.dtd"
   xmlns="http://www.w3.org/2000/svg"
   xmlns:svg="http://www.w3.org/2000/svg">
  <sodipodi:namedview
     id="namedview1285"
     pagecolor="#ffffff"
     bordercolor="#666666"
     borderopacity="1.0"
     inkscape:pageshadow="2"
     inkscape:pageopacity="0.0"
     inkscape:pagecheckerboard="0"
     inkscape:document-units="mm"
     showgrid="false"
     inkscape:zoom="0.74029882"
     inkscape:cx="361.34057"
     inkscape:cy="561.93525"
     inkscape:window-width="1920"
     inkscape:window-height="1017"
     inkscape:window-x="-8"
     inkscape:window-y="-8"
     inkscape:window-maximized="1"
     inkscape:current-layer="layer1" />
  <defs
     id="defs1280" />
  <g
     inkscape:label="Capa 1"
     inkscape:groupmode="layer"
     id="layer1">
    <path
       d="m 158.95806,40.867568 -1.40474,0.74922 v 0.6557 l -0.74922,0.74922 h -2.15393 l -0.65559,0.74922 h -1.49836 v 1.40462 l 0.74922,0.74922 v 1.40472 l -0.74922,0.74923 h -0.65559 l -1.49842,1.40471 v 0.74923 h -0.74922 l -1.40476,0.74922 h -0.74922 l -0.6555,0.65569 v 0.74923 l -1.49841,1.40471 -1.40474,-0.65569 -0.74922,0.65569 v 0.74923 l -0.6556,1.40461 v 1.49845 h -2.15384 v 1.40472 h -1.49839 l -1.40476,1.40472 v 0.74922 l -0.74922,0.74922 h -0.6555 l -1.49842,1.40472 -0.65549,0.74922 h -1.49839 l -0.74922,-0.74922 h -0.65559 l -0.74923,-0.6557 v -0.74922 h -1.40476 l -0.74923,0.74922 h -0.74922 v 0.6557 l -0.65549,1.49834 h -0.74923 l -1.40473,1.40472 h -0.74923 v 0.74922 l -0.74922,0.6557 h -2.80951 v 1.49834 l 0.6556,0.6557 v 0.74922 l -1.40477,0.74922 v 0.6557 h -0.74922 l -0.6556,0.74922 v 1.40472 h -2.90315 l -0.74922,0.74922 h -0.74922 l -1.40476,-1.40482 -0.74922,0.6557 -1.40474,-0.6557 h -2.15396 l -1.40477,1.40482 h -1.49839 l -0.65549,-0.74922 v -1.40472 l -1.49842,-1.40472 v -0.74922 h -1.40473 l -0.74923,-0.74922 0.74923,-0.6557 -1.40476,-0.74922 h -0.749224 l -0.74923,-0.74922 h -0.65559 l -0.74922,0.74922 h -1.49839 v -0.74922 l -0.65559,-0.6557 h -2.90316 l -0.74922,0.6557 h -2.8095 l -0.74922,0.74922 -1.40477,-0.74922 h -0.74922 v -2.15384 h -0.74922 l -2.15396,-2.15394 h -2.8095 l -0.74922,-0.6557 v -0.74922 h -2.15395 v -2.15394 l -0.74922,0.65569 -0.74923,-0.65569 h -2.8095 l -1.49839,-1.49835 h -2.80949 l -0.74922,0.74923 -0.74923,0.74922 v 0.65569 l -0.65559,0.74923 v 0.74922 l -1.49842,1.40472 v 2.15394 l -0.65559,0.74922 v 1.40472 l -0.74922,0.74922 h -1.40477 l -1.49839,-1.40472 h -0.74922 l -0.6556,-0.74922 -0.74922,0.74922 v 2.15384 l -2.15395,2.15394 h -1.40407 l -0.74922,0.6557 v 0.74922 h -1.40474 l -0.74922,0.74922 v 0.6557 l -1.40477,1.49834 h -0.74922 l -2.90316,2.80944 v 3.65228 l -1.40475,1.40472 v 1.49835 l 0.74922,0.65569 v 2.90317 l 0.65549,0.74922 v 2.80943 l 0.74923,0.74923 v 1.40471 l 0.74922,0.74923 v 1.40472 l 0.65559,0.74922 v 5.057002 l -0.65559,0.74922 v 1.40472 l 0.65559,1.40472 v 5.057 l -0.65559,0.74923 v 1.40471 l -1.4984,0.74923 -0.65549,-0.74923 h -1.49842 l -0.65549,0.74923 h -2.24765 l -0.65549,-0.74923 h -2.90316 l -1.40476,1.40472 h -0.74922 l -2.15395,2.24757 v 0.6557 h 0.74922 v 1.49834 h 1.40476 l 0.74922,0.6557 v 5.80612 l -0.74922,0.6557 0.74922,0.74922 h 2.15395 l 1.40477,0.74922 -0.74922,0.6557 h -1.40474 l -0.74922,0.74922 2.90315,2.90306 v 4.30778 l 0.74923,0.74923 v 3.55866 l 0.65549,0.74922 v 1.40472 l -0.65549,0.74922 v 0.65569 l -0.74923,0.74923 0.74923,0.74922 v 2.15384 h -0.74923 l -0.74922,1.40472 v 0.74922 l -0.6555,0.65569 v 2.24757 l 2.15396,2.15394 v 0.6557 l 0.6555,0.74922 v 2.90306 4.30778 l 0.74922,0.6557 1.49842,1.49834 -0.74922,0.6557 0.74922,1.49834 v 1.40472 l -0.74922,0.74922 h -5.05712 v -1.49834 l 0.74922,-0.6557 v -0.74922 h -0.74922 l -0.74922,0.74922 h -2.80955 l -0.74922,0.6557 h -1.40474 l -1.49841,0.74922 v 0.74922 h -1.404739 l -0.749223,0.74923 -0.655595,-0.74923 h -2.15395 l -1.498396,-1.49834 -0.749222,0.74922 -0.655595,-0.74922 h -0.749223 l -1.404737,1.49834 h -2.153961 l -0.749222,0.74923 h -1.404768 l -0.749223,-0.74923 -1.404757,1.40472 h -0.749223 l -0.749223,0.74922 H 9.3986112 l -1.404737,1.40472 v -0.65569 h -1.498416 l -0.749222,-0.74922 -0.655496,0.74922 v 0.65569 l -2.15395,2.15384 0.655495,0.74923 h 2.903153 v 2.15384 l -0.749222,-0.74923 h -1.404738 v 3.65229 l -0.749223,0.65569 v 0.74923 l 0.749223,0.74922 h 0.749223 v 5.057 l 0.655495,0.6557 -0.655495,0.74922 h -2.153652 l -0.749223,0.74922 h -0.749223 l -0.65559401,0.6557 0.65559401,1.49834 v 2.15394 l 0.749223,0.6557 h 0.749223 l 0.655495,-0.6557 h 2.15396 l -0.655495,0.6557 v 2.90306 l -0.749223,0.74922 v 0.6557 l 0.749223,0.74922 h 3.558698 v 0.74922 l -0.655495,0.6557 h -2.247608 l -0.655496,0.74922 h -0.749222 l -0.749223,0.74922 v 5.05701 l -0.655495,0.65569 h 1.404758 l 0.749222,0.74922 v 1.40472 l 0.655495,0.74923 v 0.74922 l -0.655495,1.40472 -0.749222,0.74922 v 1.40472 l -0.749223,0.74922 v 0.65569 l 0.749223,0.74923 h 0.749222 l 0.655495,0.74922 h 0.749223 l 2.903153,-2.90307 h 1.4047678 l 0.749223,-0.74922 v -2.15394 l 0.749222,-0.65569 v -0.74923 h 0.655595 l 0.749223,-0.74922 0.749222,0.74922 v 0.74923 l 0.655595,0.65569 v 0.74922 l 0.749223,-0.74922 h 1.404737 l 0.749223,-0.65569 h 0.749223 l 0.655594,-0.74923 h 2.153951 l 0.749222,0.74923 h 0.749223 l 0.655595,0.65569 h 1.498395 v -3.55856 h 0.749223 l 0.655595,-0.74922 h 0.749222 l 0.749223,-0.65569 v -0.74923 h 1.404767 l 0.749223,-0.74922 h 2.15396 l 0.6556,-0.65569 h 0.74922 l 0.74922,-0.74923 h 2.15396 l 0.6556,-0.74922 h 0.74922 l 0.74922,-0.74922 h 0.6555 l 0.74922,-0.6557 h 1.40474 l 0.74922,0.6557 0.74922,0.74922 h 0.74922 l 1.40474,-1.40472 h 0.74922 l -1.49841,-1.49834 0.74922,-0.6557 v -0.74922 l 0.74922,-0.74922 h 0.6555 l 0.74922,-0.6557 v -0.74922 l 0.74923,-0.74922 h 0.65559 l 0.74922,-0.6557 h 0.74923 l 0.65549,-0.74922 h 0.74922 l 0.74923,0.74922 h 0.65549 v -0.74922 l 0.74922,-0.74922 h 1.40477 l 0.74922,0.74922 h 2.15395 l 0.74923,0.74922 v 2.15394 l 0.65559,0.6557 v 0.74922 l -0.65559,0.74922 v 1.40472 h 0.65559 l 0.74922,0.74922 h 2.15396 l 0.74923,-0.74922 0.74922,0.74922 v 0.6557 l 0.65559,0.74922 v 0.74922 l 0.74923,0.74923 h 2.15393 0.74922 l 1.40473,1.40471 h 1.40477 v 2.15395 h -2.15396 l -0.6555,0.74922 h -0.74922 l -1.40474,0.65569 h 0.65559 l 0.74923,0.74922 v 0.74923 l 1.40475,1.40472 v 0.74922 l 0.74923,0.65569 v 0.74922 l -0.74923,0.74923 2.15397,2.15394 h 0.74922 l 1.40474,1.40472 h 1.49841 v 0.74922 l 0.6555,0.65569 h 1.49841 l 0.6555,-0.65569 h 0.74922 l 0.74922,-0.74922 0.74922,0.74922 h 2.15396 l 0.65559,-0.74922 h 0.74922 l 0.74923,0.74922 h 1.40476 l 0.74923,0.65569 0.65549,-0.65569 h 1.49842 l 0.65549,-0.74922 h 5.8063 l 0.65559,0.74922 v 1.40462 l 13.017344,10.7695 -2.90315,1.49845 h -0.74922 l -0.6555,0.65569 0.6555,1.49835 -4.96346,10.02038 0.6556,0.74922 v 0.74922 l 1.49841,1.40472 -0.74922,0.74922 0.74922,0.6557 h 3.55869 l 0.74922,-0.6557 v -0.74922 h 2.15396 l 0.6555,0.74922 1.49841,-1.49834 v 0.74922 h 0.6555 l 0.74922,0.74922 h 1.40476 l 0.74922,0.6557 v 0.74922 l 0.74922,0.74922 v 0.65569 h 2.15395 l 0.74923,-0.65569 h 3.55872 v 0.65569 l 0.74922,0.74923 h 0.65549 l 0.74923,0.74922 h 0.74922 l 0.65549,0.65569 0.74923,-0.65569 v -0.74922 l 1.40475,-1.40472 h 0.74923 l 0.74922,0.65569 h 0.65559 l 0.74923,0.74923 h 0.74922 l 0.65559,0.74922 h 0.74923 l 0.74922,-0.74922 h 2.15396 l 0.74922,0.74922 h 0.6555 l 0.74922,0.65569 0.74922,-0.65569 h 0.6555 l 0.74922,-0.74922 h 0.74922 l 0.6556,-0.74923 h 0.74922 l 0.74922,0.74923 v 0.74922 h 2.80951 l 0.74922,-0.74922 h 2.15394 v 0.74922 h 2.15395 l 0.74922,-0.74922 h 0.74923 l 0.65559,-0.74923 h 0.74922 l 0.74923,0.74923 h 0.65559 l 0.74922,-0.74923 h 1.40474 l 1.49842,-1.40471 h 0.65549 l 0.74923,-0.74923 v -0.65569 h 1.40475 v -1.49835 h 0.74923 l 0.74922,-0.65569 h 0.65559 l 0.74923,-0.74922 h 0.74922 l 0.65559,0.74922 h 2.15394 l 0.74923,-0.74922 v -0.74923 l 0.74922,-0.65569 v -5.057 l 0.74922,-0.74923 v -0.74922 l 1.40476,-1.40472 6.46185,-25.19129 v -0.6557 l 1.40474,-1.49834 0.74922,-0.6557 v -1.49844 l 0.74922,-0.65569 h 2.15395 l 0.6556,-0.74923 0.74922,-0.74922 -0.74922,-0.65569 h -0.6556 l -0.74922,-0.74923 v -0.74922 l -0.74922,-1.40472 v -1.49834 l -0.6555,-0.6557 v -10.7695 h 2.15395 l 0.6556,0.65569 h 0.74922 v -5.7125 l 0.74922,-0.74922 v -2.15384 l -0.74922,-0.74922 v -0.6557 l -0.74922,-0.74922 v -5.7125 l 0.74922,-0.74922 v -4.30778 l -0.74922,-0.74922 v -9.36479 l -0.6556,-0.65569 V 156.715 h -0.74922 l -0.74922,0.6557 h -0.6555 l -1.49841,1.49834 h -2.80951 l -1.49838,1.40472 h -1.40477 v 1.40472 h -3.55869 v 0.74922 l -0.74922,0.74923 -1.49842,-1.49835 v -6.46172 l 1.49842,-1.40472 h 0.74922 l 1.40476,-0.74922 -1.40476,-1.40472 v -2.15394 l -0.74922,-0.74922 h -1.49842 l 0.74923,-1.40472 0.74922,-0.74922 1.40473,-0.74923 4.30792,-30.15457 h 1.49838 l 2.15396,-2.15394 h 0.6556 l 1.49841,-1.49834 h 0.6555 l 1.49841,-1.40472 v -1.40472 l -0.74922,-0.74922 v -1.40472 l -0.74922,-0.74922 v -1.40472 l -0.6555,-0.74922 v -2.15384 l 0.6555,-0.74923 v -1.404712 l -0.6555,-0.74923 -0.74922,-0.65569 v -1.49835 l 0.74922,-0.74922 h 0.6555 l 1.49841,-1.40472 h 0.6556 l 1.49838,-0.74922 h 2.90316 l 0.65559,-0.65569 0.74922,-0.74923 0.74923,-0.74922 v -0.65569 l 0.65559,-0.74923 h 1.49611 l 0.65549,-0.74922 h 0.74923 l 0.74922,-0.65569 h 3.5587 l 1.40477,-1.49835 h 0.74922 l 0.74922,-0.65569 h 2.15396 l 0.6555,-0.74923 h 0.74922 l 0.74922,0.74923 h 0.74922 l 0.6555,-0.74923 1.49842,-0.74922 -0.74923,-1.40472 -0.74922,-0.74922 v -1.40472 l -0.6555,-0.74922 v -2.15384 l 1.40476,-1.40472 v -0.74922 l 1.40474,-1.40472 v -1.49834 l 0.74922,-0.6557 v -3.65219 l -0.74922,-0.65569 v -0.74922 l -1.40474,-0.74922 h -0.74922 v -2.80944 l -1.40474,-1.49835 -0.74922,-0.65569 v -1.49835 l -0.74922,-0.74922 -0.6555,-0.65569 -1.49841,-1.49835 -0.6556,-0.65569 -0.74922,-0.74923 v -0.74922 h -3.5587 l -1.49842,-1.40462 h -0.65549 l -1.49842,-0.74922 h -1.40472 l -1.40477,-1.40472 h -1.49839 l -1.40476,-0.74922 v -0.65569 l -0.74923,-0.74923 v -0.74922 l -0.74922,-0.65569 h -0.65559 v -0.74923 l -0.74923,0.74923 h -0.74922 l -1.40476,0.65569 h -2.15394 l -2.15395,-2.15394 h -1.40477 l -2.90315,2.90306 h -0.74922 l -2.15396,-2.15384 h -0.6555 l -1.49839,-1.40472 v -0.74922 l -2.90316,-2.90306 v -0.74922 l -0.65559,-0.6557 h -3.65235 l -0.65549,-0.74922 z"
       style="fill:#000000;fill-opacity:1;fill-rule:evenodd;stroke:#d38d5f;stroke-width:1.31628;stroke-linecap:butt;stroke-linejoin:miter;stroke-miterlimit:4;stroke-dasharray:none;stroke-opacity:1"
       id="Traiguen" />
  </g>
</svg>
