<?xml version="1.0" encoding="UTF-8" standalone="no"?>
<!-- Created with Inkscape (http://www.inkscape.org/) -->

<svg
   width="210mm"
   height="297mm"
   viewBox="0 0 210 297"
   version="1.1"
   id="svg1283"
   inkscape:version="1.1.2 (b8e25be833, 2022-02-05)"
   sodipodi:docname="vector.svg"
   xmlns:inkscape="http://www.inkscape.org/namespaces/inkscape"
   xmlns:sodipodi="http://sodipodi.sourceforge.net/DTD/sodipodi-0.dtd"
   xmlns="http://www.w3.org/2000/svg"
   xmlns:svg="http://www.w3.org/2000/svg">
  <sodipodi:namedview
     id="namedview1285"
     pagecolor="#ffffff"
     bordercolor="#666666"
     borderopacity="1.0"
     inkscape:pageshadow="2"
     inkscape:pageopacity="0.0"
     inkscape:pagecheckerboard="0"
     inkscape:document-units="mm"
     showgrid="false"
     inkscape:zoom="0.74029882"
     inkscape:cx="361.34057"
     inkscape:cy="561.93525"
     inkscape:window-width="1920"
     inkscape:window-height="1017"
     inkscape:window-x="-8"
     inkscape:window-y="-8"
     inkscape:window-maximized="1"
     inkscape:current-layer="layer1" />
  <defs
     id="defs1280" />
  <g
     inkscape:label="Capa 1"
     inkscape:groupmode="layer"
     id="layer1">
    <path
       d="m 111.47064,56.61366 -0.84208,0.84208 v 0.84209 h -0.73697 l -0.84208,-0.84209 h -0.84209 l -0.73696,0.84209 h -0.84208 l -0.84209,0.73696 h -0.73696 l -0.84208,0.84208 v 0.84209 l -0.84209,0.73696 h -0.73696 l -0.84208,0.84208 v 0.84209 l -0.84209,0.73696 1.68406,1.68406 H 101.786 l -1.57882,1.57882 h -0.842083 l -0.84209,-0.84208 -0.84208,-0.73697 h -1.57882 l -0.84209,0.73697 h -0.73696 l -0.84209,0.84208 h -0.84208 l -0.73696,0.84208 h -2.42091 l -0.84208,0.84209 h -0.84209 l -0.73696,0.73696 h -2.42091 l -0.84208,0.84209 h -1.57883 v 0.84208 l -0.84208,0.73696 h -0.84208 l -0.73697,0.84209 h -0.84208 v 3.99962 h -1.68417 l -0.73696,-0.73697 h -0.84209 l -0.84208,-0.84208 h -2.42091 l -0.73696,0.84208 h -0.84208 l -0.84209,0.73697 h -1.57882 l -0.84209,0.84208 V 76.8239 l -0.73696,-0.73697 v -0.84208 l -0.84208,-0.84209 -0.84209,0.84209 h -0.73696 v 0.84208 l -0.84208,0.73697 v 2.4209 l -0.84209,0.84209 h -1.57882 l -1.57882,1.57882 -1.68417,1.68406 h -0.84209 l -0.73696,-0.84209 h -0.84208 l -0.84209,-0.84208 -1.57882,1.68405 h -2.42091 l -0.84208,0.73697 h -2.42091 l -0.73696,-0.73697 h -0.84209 l -3.26299,3.15765 h -0.73696 l -0.84208,0.84208 h -0.84209 l -0.73696,0.84209 h -0.84208 l -0.84209,0.84208 h -2.42102 l -0.84208,0.73697 -1.57894,-1.57883 h -4.84181 l -0.84209,-0.84208 h -0.73696 l -0.84208,-0.84209 h -1.57883 l -0.84208,0.84209 v 0.84208 h -0.84208 v 3.99973 l 0.84208,0.84209 v 0.84208 l 0.84208,0.73696 v 0.84209 h -0.84208 l -0.84208,0.84208 v 0.73697 l -0.73697,0.84208 v 0.84208 l 0.73697,0.73697 v 0.84208 l 0.84208,0.84208 v 3.15765 l 0.84208,0.84208 h 0.73697 l 0.84208,0.84209 v 0.73696 h -0.84208 l -1.57883,0.84209 h -3.99979 v 0.84208 h -1.68053 l -0.84208,0.84208 h -0.73674 l -0.84208,0.73697 h -1.57887 v 0.84208 l -0.84209,0.84208 v 3.15776 l -0.84208,0.84209 v 0.84208 h -0.73685 v 0.73696 l -0.84208,0.84209 h -3.99978 l -0.84208,0.84208 h -0.84209 l -0.73674,0.73697 h -0.84208 l -0.84209,0.84208 -1.578864,1.57882 v 0.84209 h 0.842084 l 1.57887,1.57882 h 0.84208 l 3.99977,4.10496 0.84208,-0.84208 h 3.15771 l 0.84209,0.84208 -0.84209,0.84209 v 2.4209 l 0.84209,0.73697 v 2.4209 l 0.84208,0.84209 -0.84208,0.84208 v 0.73697 l -0.84209,0.84208 h -0.73685 v 1.57882 l 0.73685,0.84209 v 2.42079 l -0.73685,0.84209 v 0.73696 l -0.84208,0.84208 v 0.84209 l -0.84208,0.73696 v 4.10496 l -0.73686,0.84209 v 3.15764 l 0.73686,0.84209 2.42091,-2.42091 h 1.68412 l 0.73685,-0.84208 h 0.84208 l 0.84208,0.84208 v 0.84209 l 0.73674,0.73696 h 2.52619 l 1.57892,1.68405 h 0.84209 l 0.73696,0.73697 v 1.68405 h 0.84208 l 0.84209,0.73697 0.73696,-0.73697 h 0.84208 l 0.84209,0.73697 h 0.73696 l 0.84209,0.84208 h 0.84208 l 0.73696,0.84208 v 1.57883 h 0.84209 l 0.84208,0.84208 v 2.42091 h 0.73696 l 0.84209,0.73696 0.84208,0.84209 h 0.73696 v -0.84209 h 2.42091 l 0.84209,0.84209 h 3.26288 l 0.84208,-0.84209 3.15776,3.26288 h 0.84208 l 0.84209,0.84209 v 0.84208 h -0.84209 l -0.84208,0.73696 v 0.84209 h 0.84208 l 0.84209,0.84208 h 1.57882 l 1.57882,-1.68406 1.68417,1.68406 v -0.84208 l 1.57882,-1.57883 1.57883,-0.84208 0.84208,0.84208 0.84209,-0.84208 h 1.57882 l 0.84208,0.84208 h 2.42091 l 0.84208,0.73697 v 0.84208 l 0.73697,0.84208 v 1.57883 h 0.84208 l 0.84208,0.84208 h 1.57883 l 0.84208,-0.84208 -1.68405,-1.57883 v -3.26288 l -0.73697,-0.84208 v -0.73696 h 3.99985 l 0.84208,-0.84209 v 0.84209 l 0.73696,0.73696 v 3.26299 h 0.84209 l 0.84208,-0.84208 h 1.57894 v 0.84208 h -0.84209 l -0.73696,0.84209 v 6.42052 l -0.84209,0.84209 0.84209,0.73696 v 0.84208 h 0.73696 l 0.84209,0.84209 h 1.57882 l 1.68406,1.57893 v 0.84209 h 4.84192 v 1.57882 l 0.84209,0.84208 h 0.73696 l 0.84208,0.84209 v 1.57882 l 0.84209,0.84208 h 2.4209 l 0.73697,-0.84208 h 0.84208 v -0.84208 l 0.84208,-0.73697 h 0.73697 l 0.84208,-0.84208 h 2.42091 l 0.84208,-0.84208 0.73697,0.84208 h 2.4209 l 0.84209,-0.84208 h 0.84208 l 0.842093,-0.84209 0.73696,0.84209 h 0.84208 l 0.84209,-0.84209 h 0.73696 0.84208 l 0.84209,0.84209 v 0.84208 l 0.73696,0.84208 v 0.73697 l 2.42091,2.42079 -0.73697,0.84209 v 0.84208 1.57871 l 0.73697,0.84209 v 1.57882 h 1.68417 l 0.73696,0.84208 v 0.73697 l 0.84208,0.84208 h 0.84209 v 3.26288 l 1.57882,1.57882 h 0.84208 l 0.73697,0.84209 v 0.73696 l -0.73697,0.84208 v 0.84209 l -0.84208,0.84208 v 1.57883 l -0.84208,0.84208 v 1.57882 l 0.84208,0.84209 v 0.73696 l 0.84208,0.84208 v 0.84209 l -0.84208,0.73696 v 4.10496 l -0.84208,0.73697 v 1.68405 l 0.84208,0.73697 v 0.84208 l 0.84208,0.84208 v 2.4208 l -0.84208,0.84208 v 1.57883 l -0.84208,0.84208 v 0.73696 h 0.84208 v 4.10497 h 0.84208 l 0.73697,0.73696 h 0.84208 l 0.84208,0.84208 v -1.57882 l 0.73697,-0.84208 h 1.68405 l 0.84209,0.84208 v -2.42091 h 1.57882 v 0.73697 l 0.84209,0.84208 h 0.73696 v -0.84208 l 1.68417,-1.57883 1.57882,1.57883 h 0.84208 v -0.73697 l -0.84208,-0.84208 0.84208,-0.84208 h 1.57883 v -1.57883 l 1.57893,-1.57882 h 0.84209 v 2.42091 l 1.57882,-1.68406 v -0.73696 h 0.84208 l 0.84209,-0.84209 0.73696,0.84209 h 0.84208 l 1.57883,-1.68406 v -1.57882 l 0.84208,-0.84209 v -0.84208 l -0.84208,-0.73696 v -1.68406 l 2.52625,-2.42091 v -0.73696 l 0.73696,-0.84208 h 0.84209 l 0.84208,0.84208 h 1.57882 l 0.84209,0.73696 h 2.42091 l 0.73696,0.84209 h 0.84208 l 1.57883,-1.57883 h 4.84192 l 0.84209,-0.84208 v -1.57882 l 0.84208,-0.84209 v -0.84208 l -0.84208,-0.73696 v -0.84209 l 0.84208,-0.84208 -0.84208,-0.73697 1.57882,-1.68405 v -1.57882 l 0.84208,-0.84209 h 0.84209 l 0.84208,0.84209 h 1.57894 l 0.84208,-0.84209 h 8.84166 l 0.84208,0.84209 h 5.57867 v -0.84209 h 4.94704 l 0.73697,0.84209 h 5.6839 l 0.84208,-0.84209 h 3.99984 l 1.57883,-0.84208 h 1.68416 v -0.73697 l 0.73697,-0.84208 v -0.84208 l 0.84208,-0.73697 h 0.84209 l 0.84208,-0.84208 v -2.4208 l -0.84208,-0.84208 v -3.99973 h -0.84209 v -1.57871 l -1.57882,-1.68417 v -0.73696 l -1.68417,-1.68406 v -1.57882 l -0.73696,-0.84209 v -4.8417 l 0.73696,-0.84208 h 0.84208 l 0.84209,-0.73697 v -3.26288 l 2.42091,-2.4209 h 0.84208 v -0.84209 l 0.73696,-0.73696 v -0.84208 l 0.84209,-0.84209 h 0.84208 l 0.73696,-0.73696 -0.73696,-0.84209 v -1.57882 h 0.73696 l 0.84209,-0.84208 v -1.68406 h 0.84208 l 1.57882,-1.57882 h 1.57883 v -2.4208 l -0.73697,-0.84208 v -1.57882 l 0.73697,-0.84209 v -0.73696 l -0.73697,-0.84209 v -3.26925 l -0.84208,-0.73696 v -3.26288 h -0.84208 v -2.42091 l -0.73697,-0.84208 0.73697,-0.84209 v -3.15764 l 0.84208,-0.84209 v -2.42079 l 0.84208,-0.84209 -0.84208,-0.73696 h -3.26299 l -0.73696,-0.84208 v -0.84209 l -0.84209,-0.73696 v -0.84209 h -0.84208 l -0.73696,-0.84208 v -0.73696 h -0.84209 l -0.84208,-0.84209 v -0.84208 l -0.84209,-0.73696 v -0.84209 l -0.73696,-0.84208 v -0.73696 l -0.84208,-0.84209 h -0.84209 l -0.73696,-0.84208 h -0.84208 l -3.99985,-3.99973 h -0.84208 l -0.84208,-0.84209 h -0.73697 l -0.84208,-0.84208 v -0.73696 h -3.99973 l -0.84209,0.73696 h -2.4209 v -0.73696 l -0.84209,-0.84209 v -0.84208 l -0.84208,-0.73696 h -1.57894 l -0.84208,-0.84209 h -0.73696 v -0.84208 l -1.68417,1.68405 -0.73697,-0.84208 h -2.4209 v 0.84208 l -0.84209,0.73697 h -3.99984 l -0.84208,-0.73697 0.84208,-0.84208 -1.68405,-1.57882 v -0.84209 l -0.73697,-0.84208 5.57867,-11.26234 -0.73697,-1.68406 0.73697,-0.73696 h 0.84208 l 3.26299,-1.68417 -14.63079,-12.10431 v -1.57871 l -0.73696,-0.84209 h -6.52598 l -0.73696,0.84209 h -1.68417 l -0.73697,0.73696 -0.84208,-0.73696 h -1.57882 l -0.84209,-0.84209 h -0.84208 l -0.73696,0.84209 h -2.42091 l -0.84208,-0.84209 -0.84209,0.84209 h -0.84208 l -0.73697,0.73696 h -1.68416 l -0.73697,-0.73696 v -0.84209 h -1.68416 l -1.57883,-1.57882 h -0.84208 l -2.42091,-2.42091 0.84208,-0.84208 v -0.84209 l -0.84208,-0.73696 v -0.84208 l -1.57893,-1.57883 V 75.2406 l -0.84209,-0.84209 h -0.73696 l 1.57882,-0.73696 h 0.84209 l 0.73696,-0.84208 h 2.42091 v -2.42091 h -1.57894 l -1.57882,-1.57882 h -3.26299 l -0.84209,-0.84209 v -0.84208 l -0.73696,-0.84208 v -0.73697 l -0.84208,-0.84208 -0.84209,0.84208 h -2.42091 l -0.84208,-0.84208 h -0.73696 v -1.57883 l 0.73696,-0.84208 v -0.84208 l -0.73696,-0.73697 v -2.4209 l -0.84209,-0.84209 h -2.4209 l -0.84209,-0.84208 z"
       style="fill:#000000;fill-opacity:1;fill-rule:evenodd;stroke:#d38d5f;stroke-width:1.47943;stroke-linecap:butt;stroke-linejoin:miter;stroke-miterlimit:4;stroke-dasharray:none;stroke-opacity:1"
       id="Galvarino" />
  </g>
</svg>
