<?xml version="1.0" encoding="UTF-8" standalone="no"?>
<!-- Created with Inkscape (http://www.inkscape.org/) -->

<svg
   width="210mm"
   height="297mm"
   viewBox="0 0 210 297"
   version="1.1"
   id="svg64"
   inkscape:version="1.1.2 (b8e25be833, 2022-02-05)"
   sodipodi:docname="vector.svg"
   xmlns:inkscape="http://www.inkscape.org/namespaces/inkscape"
   xmlns:sodipodi="http://sodipodi.sourceforge.net/DTD/sodipodi-0.dtd"
   xmlns="http://www.w3.org/2000/svg"
   xmlns:svg="http://www.w3.org/2000/svg">
  <sodipodi:namedview
     id="namedview66"
     pagecolor="#ffffff"
     bordercolor="#666666"
     borderopacity="1.0"
     inkscape:pageshadow="2"
     inkscape:pageopacity="0.0"
     inkscape:pagecheckerboard="0"
     inkscape:document-units="mm"
     showgrid="false"
     inkscape:zoom="0.74029882"
     inkscape:cx="361.34057"
     inkscape:cy="561.93525"
     inkscape:window-width="1920"
     inkscape:window-height="1017"
     inkscape:window-x="-8"
     inkscape:window-y="-8"
     inkscape:window-maximized="1"
     inkscape:current-layer="layer1" />
  <defs
     id="defs61" />
  <g
     inkscape:label="Capa 1"
     inkscape:groupmode="layer"
     id="layer1">
    <path
       id="Lolol"
       style="fill:#000000;fill-opacity:1;fill-rule:evenodd;stroke:#d39062;stroke-width:1.02633;stroke-linecap:butt;stroke-linejoin:miter;stroke-miterlimit:4;stroke-dasharray:none;stroke-opacity:1"
       d="m 170.24236,44.728042 c -3.00486,-1.46651 -6.10088,-2.66917 -9.51134,-2.09422 -5.6077,-0.29869 -7.78159,5.16091 -10.08582,9.17534 -1.54115,6.68506 -10.0932,1.90538 -12.8903,7.27421 -1.64975,4.95385 3.48688,12.24568 -3.84723,14.95892 -4.94043,1.28435 -11.59408,0.30722 -14.05937,-4.38813 -5.88582,-0.68582 -9.93997,6.77513 -15.91936,2.93954 -4.871384,0.22576 -9.619414,0.64857 -13.505904,-3.21697 -10.57513,1.55309 -10.09614,8.54033 -12.64848,13.43887 1.13641,4.29231 -7.41681,8.04366 -13.39744,7.2023 -6.38266,-4.05345 -7.45552,5.34222 -12.66523,0.25136 -4.12428,-4.93415 -10.80873,2.62091 -15.97716,0.22343 -4.35415,-2.59151 -7.25296,-7.0514 -11.79757,-9.45905 -4.54469,-2.40772 -5.65821,-3.45374 -5.10095,-3.74948 -1.74657,0.92686 -9.8947403,-4.78217 -12.6009203,-5.45068 -8.77339,-5.46743 -5.39131996,8.40201 -3.28206,12.60092 5.99065,5.51747 -3.78562996,11.55148 3.51651,16.820778 9.6844203,6.52214 1.03873,12.05009 9.2016403,17.40682 11.65947,3.91372 2.38421,12.74499 9.72903,16.4691 6.08149,10.72765 -3.48881,10.8109 0.23429,17.17237 6.42913,8.27214 -3.31976,12.33335 -0.46858,18.69622 -5.89941,-0.2405 -3.0916,7.25327 1.87551,7.26747 4.96712,0.0155 6.14348,-0.75409 1.81687,3.45793 -4.32653,4.2121 3.20417,-1.23749 4.29061,2.26404 1.08637,3.50154 13.18906,7.11906 5.88668,8.8623 5.09171,1.0447 8.40147,3.6238 5.80895,10.34091 -2.59493,4.355 4.72498,8.17245 7.58081,11.10082 5.08458,1.9742 0.3274,6.7604 -0.37626,6.47792 5.77566,0.89529 11.23037,3.51069 15.18723,7.71961 -0.37239,5.00203 6.70089,5.90856 7.26762,11.49694 2.58011,3.07066 5.69428,5.04424 6.79935,9.08504 3.85848,1.32259 -1.65612,10.69623 4.47944,8.63537 5.08581,-2.21222 11.60501,-0.60513 13.10457,-7.52449 6.799734,-0.5485 5.079074,-9.19256 7.955694,-13.6329 1.48878,-7.05598 -9.071614,-6.3697 -10.642624,-9.82353 2.4019,-3.92 1.95565,-12.1819 7.933264,-11.85133 4.76223,-3.33 4.70373,-9.09698 7.32247,-13.48014 2.87918,-7.0189 7.68462,1.9631 12.83917,-0.0776 6.11586,0.80226 12.99596,2.66366 17.60605,6.9974 2.73566,3.28819 -4.23095,8.17028 2.41618,8.56772 6.41299,2.29787 8.27206,-6.15984 13.48077,-7.89424 3.72729,-3.12798 10.0838,0.22809 4.85749,4.25912 4.5924,0.91041 7.55909,-1.17823 10.83743,-3.79309 0.62608,-1.42431 -0.27929,-2.123 -0.68194,-3.23179 -1.54044,-1.79553 -3.19695,-1.61779 -5.40607,-1.45541 -1.74968,-0.93633 -3.4601,-2.63031 -4.99023,-4.15857 -0.30877,-1.01197 -1.0572,-1.83603 -1.66341,-2.70307 -0.56557,0.56556 -1.73068,1.60716 -2.91099,2.07932 -1.73937,-1.50096 -1.51849,-3.01883 -1.2475,-5.19815 0.42592,-3.20735 -1.18109,-4.08425 -1.4555,-6.86164 0.72383,-1.44766 -0.37006,-3.37299 0.83167,-4.57433 0.91809,-2.39872 1.80725,-4.58138 3.32682,-6.65365 1.38249,-1.63641 2.58166,-2.59399 3.32683,-4.5744 0.22964,-2.10601 -0.0776,-4.63926 1.24757,-6.23773 0.0846,-2.12564 0.77349,-3.85019 1.87133,-5.61406 1.03897,-1.03897 3.20138,-0.62376 4.5744,-0.62376 1.52618,0 2.34194,-0.42747 2.703,-1.87132 1.3686,0 1.96171,1.75371 2.49516,2.28716 3.09299,0.6447 4.53018,-9.3e-4 6.44565,-2.07925 1.89693,-1.61019 4.08549,-3.87671 5.82198,-5.61398 1.78544,-1.81656 3.68044,-3.68052 5.40607,-5.40615 -1.25262,-1.6285 0.72848,0.93369 1.2475,-5.19815 2.39903,-0.95952 3.60766,0 6.02989,0 3.26352,0.18464 3.64041,-1.65666 3.11891,-3.74266 0.4523,-8.3574 2.47095,-0.19395 5.40607,-12.89138 0.25679,-1.02686 0.67185,-5.51771 0.41583,-6.0299 -0.3654,-1.22352 -0.92243,-2.42463 -1.45549,-3.53474 -2.259,-0.51824 -4.237,-1.49056 -6.23782,-2.70307 -2.01213,-0.32196 -3.31278,-1.09955 -4.78231,-2.07924 -1.29863,-1.56093 -0.88862,-3.82738 -1.03959,-5.82191 2.37568,-1.50243 6.86389,-2.87879 7.82659,-5.396598 0.62608,-1.63804 -0.21179,-3.37686 1.53005,-5.83144 -0.2436,-2.09438 -1.56503,-3.41302 -3.1189,-4.78232 -2.72612,-2.10338 -3.41007,-4.16734 -2.49508,-7.2774 0.46083,-3.3781 0.45152,-6.77413 0.62375,-10.18839 -2.37584,-0.49263 -4.11497,-1.62477 -8.10906,-2.70299 -0.33671,-2.39966 -1.67498,-3.88106 0.83166,-4.78232 1.99802,0.16525 1.11088,-10.5894 1.2475,-15.80245 0.10551,-1.06689 -1.89188,-1.30049 -2.91091,-2.91091 -0.30567,-2.05954 -0.33437,-3.98634 -1.03966,-6.0299 -0.24516,-0.98031 -4.23902,1.12019 -4.36641,1.24758 -3.26297,3.53668 -6.08862,2.19554 -9.35672,2.49508 -2.68391,0.2661 -3.58943,2.08576 -6.31167,1.72501 z"
       sodipodi:nodetypes="cccccccccccccccccccccscccccccssccccccccccccccccccccccccsccccccccccccccscccccccccccc" />
  </g>
</svg>
