<?xml version="1.0" encoding="UTF-8" standalone="no"?>
<!-- Created with Inkscape (http://www.inkscape.org/) -->

<svg
   width="210mm"
   height="297mm"
   viewBox="0 0 210 297"
   version="1.1"
   id="svg64"
   inkscape:version="1.1.2 (b8e25be833, 2022-02-05)"
   sodipodi:docname="vector.svg"
   xmlns:inkscape="http://www.inkscape.org/namespaces/inkscape"
   xmlns:sodipodi="http://sodipodi.sourceforge.net/DTD/sodipodi-0.dtd"
   xmlns="http://www.w3.org/2000/svg"
   xmlns:svg="http://www.w3.org/2000/svg">
  <sodipodi:namedview
     id="namedview66"
     pagecolor="#ffffff"
     bordercolor="#666666"
     borderopacity="1.0"
     inkscape:pageshadow="2"
     inkscape:pageopacity="0.0"
     inkscape:pagecheckerboard="0"
     inkscape:document-units="mm"
     showgrid="false"
     inkscape:zoom="0.74029882"
     inkscape:cx="361.34057"
     inkscape:cy="453.87078"
     inkscape:window-width="1920"
     inkscape:window-height="1017"
     inkscape:window-x="-8"
     inkscape:window-y="-8"
     inkscape:window-maximized="1"
     inkscape:current-layer="layer1" />
  <defs
     id="defs61" />
  <g
     inkscape:label="Capa 1"
     inkscape:groupmode="layer"
     id="layer1">
    <path
       style="fill:#000000;fill-opacity:1;fill-rule:evenodd;stroke:#d39062;stroke-width:0.765613;stroke-linecap:butt;stroke-linejoin:miter;stroke-miterlimit:4;stroke-dasharray:none;stroke-opacity:1"
       d="m 175.06173,219.6296 c 0.55963,-0.47977 1.1386,-0.9824 1.57392,-1.53022 0.58874,-0.74083 1.07857,-1.54017 1.53021,-2.36093 0.90323,-1.64151 1.60361,-3.37046 2.57952,-5.02783 1.46089,-1.86744 2.71505,-3.81579 4.06598,-5.5962 1.35093,-1.78046 2.79642,-3.39535 4.7218,-4.72185 0.91659,-2.52431 1.64214,-5.21285 2.18603,-7.86969 0.64673,-2.11803 1.34156,-4.42629 2.31718,-6.55804 0.48787,-1.06585 1.04761,-2.08453 1.70511,-3.01669 0.65749,-0.93216 1.43166,-1.78498 2.31717,-2.49207 0.76642,-1.81432 1.56981,-3.43777 2.7981,-4.89669 0.61415,-0.72943 1.31268,-1.43461 2.18604,-2.05484 0.8733,-0.62028 1.91959,-1.16394 3.14788,-1.66141 0.58961,-3.6394 0.33393,-7.40844 0.43695,-11.10496 0.8266,-2.57644 1.53346,-5.32824 2.31717,-7.95712 0.66045,-1.20029 0.71392,-2.17539 0.65582,-3.45392 -0.64731,-2.2207 -1.50123,-4.51461 -2.66696,-6.6018 -0.58284,-1.04357 -1.27523,-2.04975 -2.01115,-2.97299 -0.73585,-0.92319 -1.54376,-1.74713 -2.44831,-2.49207 -1.64047,-0.98992 -3.00106,-2.29918 -4.19718,-3.75995 -1.19612,-1.46071 -2.20675,-3.08411 -3.19158,-4.67805 -0.85762,-1.02747 -1.80876,-1.9399 -2.7544,-2.88554 -0.72347,-0.41437 -1.32483,-0.94715 -1.7925,-1.53022 -0.46762,-0.58307 -0.82504,-1.2272 -1.13674,-1.96745 -0.10186,-1.14583 -0.68221,-2.12602 -1.13675,-3.19158 -0.53127,-1.01804 -1.53253,-2.03707 -2.05483,-3.06044 -0.19619,-0.23843 -6.62999,-1.15294 -7.82599,-1.26788 -0.49076,-0.0463 -1.90373,0.30731 -3.41017,0.30615 -0.75321,-5.8e-4 -1.53982,-0.0885 -2.22972,-0.34955 -0.68997,-0.26159 -1.28999,-0.69569 -1.70512,-1.39908 -0.39758,-0.67411 -1.05641,-1.14334 -1.79255,-1.44277 -0.73615,-0.29921 -1.55331,-0.43984 -2.36087,-0.52491 -1.61518,-0.16957 -3.11039,-0.0793 -3.41023,-0.34955 -0.14989,-0.13485 0.14411,-0.35129 0.21876,-0.69951 0.0747,-0.3484 -0.0828,-0.80739 -1.04923,-1.35533 -0.96642,-0.54806 -2.76054,-1.18999 -6.03343,-1.9237 -3.27295,-0.73377 -8.01998,-1.5863 -14.86496,-2.49207 L 121.67901,90.523401 h -2.75434 L 104.01601,76.445461 H 90.46267 l -1.18045,-1.13674 c -0.0694,0.0521 -0.0301,0.18808 -0.1312,0.21876 -1.53012,-0.93506 -3.09163,-1.86502 -4.72181,-2.66691 -0.66583,-0.16436 -1.35895,-0.34608 -2.14229,-0.39353 -1.00563,-0.0608 -2.05184,-0.006 -2.84184,0.21876 -0.79,0.22512 -1.35824,0.65101 -1.48648,1.26788 -0.0877,0.42247 -0.26998,0.76878 -0.56837,1.04929 -0.29839,0.28069 -0.69094,0.49192 -1.13674,0.65582 -0.89158,0.32814 -2.00216,0.42247 -3.10413,0.43694 -2.20397,0.0289 -4.35999,-0.34145 -4.37206,-0.34955 0,0 -7.04552,2.17185 -13.02868,3.80364 -1.49577,0.408 -2.49892,0.40164 -3.19158,0.21876 -0.69267,-0.18288 -1.10037,-0.55153 -1.35534,-0.8744 -0.25498,-0.32293 -0.38566,-0.59933 -0.56837,-0.61207 -0.1827,-0.0116 -0.39845,0.25754 -0.8744,1.00555 -0.47595,0.74789 -1.17155,1.24797 -1.92369,1.61766 -0.75215,0.36981 -1.55229,0.58052 -2.31718,0.69951 -1.52978,0.23786 -2.84183,0.13137 -2.84183,0.13137 0,0 -0.33062,1.15642 -1.48649,2.14229 -0.57792,0.49307 -1.35927,0.93823 -2.40463,1.18049 -1.04535,0.24249 -2.34679,0.25233 -3.97856,-0.0874 -0.81588,-0.17015 -1.69456,-0.18056 -2.5795,-0.0874 -0.88494,0.0932 -1.80555,0.32525 -2.71066,0.61207 -1.81026,0.57352 -3.60496,1.42605 -5.20274,2.36093 -3.16692,1.85297 -5.46665,3.85509 -5.50877,3.89108 h 1.26789 l -0.39347,4.37208 c -0.57439,0.36575 -0.86594,0.6958 -0.96185,1.04929 -0.0958,0.3536 -0.001,0.71357 0.13119,1.09299 0.13213,0.37965 0.28352,0.78024 0.39348,1.22419 0.10996,0.44388 0.16257,0.939559 0,1.486459 0.69702,0.39296 1.6256,0.99588 2.27347,1.66142 0.32392,0.33277 0.56426,0.71595 0.69952,1.04929 0.1352,0.33335 0.12727,0.62937 -0.0434,0.9181 -0.74785,0.47687 -1.4679,0.79286 -2.27346,0.96185 -0.80557,0.16899 -1.69576,0.20661 -2.62324,0.0463 -0.49597,-0.19735 -0.755359,-0.56658 -0.961844,-0.96185 -0.206491,-0.39527 -0.351115,-0.84385 -0.480924,-1.26788 -0.129867,-0.42421 -0.258808,-0.8093 -0.524677,-1.09299 -0.26581,-0.28358 -0.653171,-0.46298 -1.267881,-0.43694 -1.445441,0.0608 -2.625893,-0.34782 -3.541362,-0.78696 -0.9154582,-0.43925 -1.5895332,-0.91381 -2.0111382,-0.8744 -0.634282,0.54921 -1.071599,1.54671 -1.442767,2.57951 -0.371139,1.03275 -0.64048,2.13986 -0.961849,2.92924 -0.197867,2.53415 -1.210175,4.65525 -1.57393,7.03898 -0.0544,0.35534 -0.298277,0.58822 -0.69954,0.78701 -0.401233,0.19851 -0.955529,0.35361 -1.530213,0.43694 -0.643588,0.0938 -1.204383,0.0405 -1.83625702,0.0463 l 0.43723,2.97299 11.76078222,1.83625 29.20525,8.91892 c 0.24763,1.73365 -0.094,3.36115 -0.52462,4.98414 -0.43064,1.62305 -0.94527,3.22804 -1.09302,4.94044 0.34585,0.62995 0.68335,1.04895 1.09302,1.35533 0.40962,0.30614 0.87184,0.49713 1.35532,0.61206 0.96695,0.22976 2.08795,0.22513 3.41019,0.48093 1.12542,0.79378 1.98293,1.53241 2.66694,2.36092 0.68402,0.82845 1.21996,1.72005 1.61766,2.88555 2.18034,0.0747 4.27957,-0.30557 6.47063,-0.17478 1.61647,0.36576 3.32313,0.66085 4.94039,1.18044 1.61728,0.5197 3.12788,1.24178 4.37206,2.44837 0.75609,1.73567 1.23252,3.57968 1.87997,5.33386 0.32374,0.87713 0.69959,1.72612 1.18045,2.53582 0.48087,0.80965 1.07537,1.57924 1.83626,2.27343 0.74839,0.91242 1.51418,1.49387 2.3609,2.01114 0.84672,0.51738 1.77548,0.99223 2.71066,1.66142 1.23878,0.99206 2.60504,1.74006 3.97856,2.53576 1.37352,0.79569 2.75776,1.61228 3.93484,2.71065 1.02764,0.52838 1.9504,0.79402 2.75439,0.61207 0.40199,-0.0909 0.77675,-0.28184 1.09301,-0.61207 0.31628,-0.32987 0.57636,-0.78892 0.78697,-1.39902 0.44099,-0.33103 0.83318,-0.544 1.22417,-0.56831 0.39099,-0.0231 0.79524,0.13947 1.22418,0.56831 1.1339,1.32628 2.46338,2.21671 3.80366,3.10413 1.34028,0.88737 2.67901,1.76432 3.89116,2.973 0.71768,0.72711 1.58832,1.44607 2.49206,2.05483 0.90369,0.60877 1.85738,1.11331 2.7981,1.39908 0.9383,-0.26043 1.88157,-0.6958 2.7981,-0.91815 0.91654,-0.22223 1.7954,-0.23497 2.66696,0.30615 0.48672,0.41437 0.96706,0.61467 1.44278,0.74326 0.47571,0.12848 0.93928,0.17998 1.39902,0.21876 0.46009,0.0405 0.91665,0.0747 1.35533,0.21876 0.43867,0.1441 0.85547,0.38543 1.26793,0.83071 0.3403,0.82694 0.44447,1.6029 0.34956,2.31717 -0.0949,0.71427 -0.38659,1.37819 -0.69951,2.0549 -0.62636,1.35336 -1.458,2.71818 -1.66136,4.37201 0.63052,1.49822 1.46251,2.73977 2.44831,4.02229 0.1852,2.05634 -0.13021,3.92934 -0.83065,5.90223 -0.28126,1.12517 -1.09275,1.39786 -1.39908,2.62327 -0.21644,1.82676 -0.32582,3.72042 -0.61206,5.50875 0.92035,0.7498 1.62907,1.61495 2.36087,2.40462 0.7318,0.78968 1.47206,1.4856 2.49207,1.83625 0.82145,-0.0231 1.52379,-0.21181 2.14228,-0.5249 0.61855,-0.3131 1.14021,-0.73956 1.66142,-1.22419 1.04235,-0.96926 1.99274,-2.15878 3.27902,-3.10413 1.09716,-0.36113 2.11231,-0.77683 2.92924,-1.39908 0.81699,-0.62225 1.44897,-1.46072 1.74881,-2.66696 0.4271,0.12095 3.02924,1.29247 4.85299,1.83625 1.65974,-0.80114 3.34847,-1.36852 5.29017,-1.44277 1.10833,0.0995 2.09471,0.49944 3.06044,0.87446 0.96572,0.37501 1.90338,0.7208 3.01668,0.7432 2.23101,0 4.45825,0 6.68925,0 0.75258,0 1.18154,0.0405 1.39902,0.26217 0.2176,0.22049 0.21876,0.61397 0.21876,1.35532 0,2.02822 -6e-5,4.09266 0,6.12088 0.12732,1.01741 0.53533,1.77421 0.96179,2.53576 0.42653,0.76155 0.89848,1.52895 1.09305,2.53576 0.65038,1.8487 0.64528,3.79456 1.39902,5.46506 1.78266,1.55476 3.67598,2.96634 5.68371,4.24088 0.79725,0.39874 1.29913,0.57062 1.7488,0.48092 0.44967,-0.0897 0.83748,-0.44389 1.48647,-1.09299 1.93319,-0.70958 3.66006,-1.51951 5.29017,-2.84179 1.01208,-0.68939 1.98643,-1.28328 3.23533,-1.39908 0.0463,0.0116 0.31598,0.37444 0.39353,0.43694 z"
       id="Requinoa"
       inkscape:label="#path2183" />
  </g>
</svg>
