<?xml version="1.0" encoding="UTF-8" standalone="no"?>
<!-- Created with Inkscape (http://www.inkscape.org/) -->

<svg
   width="210mm"
   height="297mm"
   viewBox="0 0 210 297"
   version="1.1"
   id="svg1283"
   inkscape:version="1.1.2 (b8e25be833, 2022-02-05)"
   sodipodi:docname="vector.svg"
   xmlns:inkscape="http://www.inkscape.org/namespaces/inkscape"
   xmlns:sodipodi="http://sodipodi.sourceforge.net/DTD/sodipodi-0.dtd"
   xmlns="http://www.w3.org/2000/svg"
   xmlns:svg="http://www.w3.org/2000/svg">
  <sodipodi:namedview
     id="namedview1285"
     pagecolor="#ffffff"
     bordercolor="#666666"
     borderopacity="1.0"
     inkscape:pageshadow="2"
     inkscape:pageopacity="0.0"
     inkscape:pagecheckerboard="0"
     inkscape:document-units="mm"
     showgrid="false"
     inkscape:zoom="0.74029882"
     inkscape:cx="361.34057"
     inkscape:cy="561.93525"
     inkscape:window-width="1920"
     inkscape:window-height="1017"
     inkscape:window-x="-8"
     inkscape:window-y="-8"
     inkscape:window-maximized="1"
     inkscape:current-layer="layer1" />
  <defs
     id="defs1280" />
  <g
     inkscape:label="Capa 1"
     inkscape:groupmode="layer"
     id="layer1">
    <path
       d="m 12.147657,95.588814 -0.552098,0.48318 v 0.55209 h -0.552097 l -1.035142,0.5521 H 9.4562231 l -0.48303,0.48318 h -0.552097 l -0.552097,0.5521 h -0.483104 l -0.552097,0.55209 h -1.035142 v 0.48318 h 0.483104 l 0.552097,0.5521 1.587239,1.587146 h -1.035164 l -1.10415,0.55209 -0.483104,0.48318 1.035142,1.1042 -0.552097,0.48317 0.552097,0.5521 0.552097,0.5521 v 0.55209 l 0.483104,0.48318 v 1.58723 h 0.552097 l 1.035142,1.10412 h 1.1041719 v 0.48317 l 0.48303,1.1042 v 4.2095 l 0.552097,0.5521 v 1.58722 l 0.552098,0.48318 v 1.10419 l -0.552098,1.03513 v 1.58715 l 0.552098,0.5521 v 1.03513 l -0.552098,0.55209 v 0.5521 l -0.552097,0.48318 v 0.55209 H 7.8690141 l -0.483104,-0.55209 h -0.552097 l -1.035142,0.55209 h -1.656189 v 1.03513 l -0.48303,1.10412 v 1.58723 l 0.48303,0.48317 v 0.5521 l 0.552097,0.5521 v 2.13925 l -1.035142,1.03512 v 0.5521 h -0.552097 l -0.552097,0.48318 v 0.55209 H 0.96801109 l -0.48303,0.5521 v 2.62228 l 0.48303,0.5521 v 0.48317 l 0.55209801,0.5521 -0.55209801,0.5521 1.10417301,1.03512 v 2.13933 l -0.552097,0.48317 v 0.5521 l 1.035141,1.10412 -0.48303,0.48318 v 2.69134 l 0.48303,0.48318 v 1.58722 l -0.48303,0.5521 0.48303,0.5521 v 1.03513 h 0.552098 l 1.035156,1.03512 v 0.5521 l 0.552097,0.5521 v 0.48317 l 0.552098,0.5521 v 0.5521 l 0.552097,0.48318 0.483103,1.10419 h 1.10415 l 0.483104,-0.5521 h 1.587217 l 0.5520969,-0.55209 v -0.48318 l 1.035142,-0.5521 h 1.104172 l 0.48303,0.5521 h 2.69139 l 0.483103,0.48318 v 0.55209 l 2.139314,2.13925 v 0.5521 l 1.104158,1.03513 h 0.48303 l 1.587236,1.58715 h 0.5521 l 2.13931,-2.13925 h 1.03517 l 1.58723,1.58722 h 1.58722 l 1.03516,-0.48317 h 0.5521 l 0.5521,-0.5521 v 0.5521 h 0.4831 l 0.5521,0.48317 v 0.5521 l 0.55209,0.5521 v 0.48317 l 1.03517,0.5521 h 1.10415 l 1.03516,1.03513 h 1.03514 l 1.10417,0.55209 h 0.48303 l 1.10417,1.03506 h 2.62238 v 0.5521 l 2.13932,2.13924 0.48303,0.48318 0.55209,0.5521 v 1.10412 l 0.5521,0.48318 1.03514,1.10412 v 2.07025 h 0.5521 l 1.03514,0.5521 v 0.5521 l 0.5521,0.48317 v 2.69127 l -0.5521,0.48318 v 1.10412 l -1.03514,1.03513 v 0.5521 l -1.03516,1.03512 v 1.58715 l 0.48303,0.5521 v 1.03513 l 0.5521,0.5521 0.5521,1.03512 0.48303,0.5521 h 1.58724 l 0.55209,-0.5521 h 0.5521 l 1.03516,-1.03512 h 2.13931 l 0.4831,-0.5521 h 0.5521 l 0.5521,-0.48318 0.4831,0.48318 h 2.13932 l 1.10415,1.10412 h 0.4831 l 0.5521,0.48318 v 0.55209 l 0.55209,0.5521 h 2.0703 l 1.10418,-1.10419 h 0.48303 l 0.55209,-0.48318 h 1.03517 l 0.55209,0.48318 1.03516,0.55209 h 0.5521 l 0.55209,0.5521 v 0.48318 l 0.48303,0.5521 h 4.83073 l 0.48303,0.55209 h 2.13931 l 1.03516,-1.10412 h 0.5521 l 0.5521,-0.48318 v -0.55209 h 1.58723 l 0.48311,-0.5521 0.5521,-0.48318 0.55209,0.48318 h 0.48311 l 0.55209,-0.48318 h 1.03516 l 0.5521,0.48318 0.55209,-0.48318 H 86.334 l 1.58723,-1.58722 1.58722,1.58722 0.5521,-0.55209 h 1.58722 l 0.4831,-0.5521 h 1.58724 l 0.5521,1.10412 h 0.55209 l 1.58724,-1.58722 0.48303,0.48317 v 0.5521 l 0.5521,0.5521 h 0.5521 l 1.03514,0.48317 h 0.5521 v 0.5521 l 1.03515,1.03513 1.10416,-0.48318 h 0.4831 v 0.48318 l 0.5521,1.10412 0.5521,0.48318 0.48303,-0.48318 h 0.55209 l 0.5521,-0.5521 v -0.5521 l 0.48311,-0.48317 h 0.55209 l 1.58724,1.58715 h 0.5521 l 0.4831,0.48318 h 2.69139 v 1.10412 h 1.03517 1.58721 l 0.5521,-0.5521 h 1.58722 l 0.55209,0.5521 0.48303,0.48317 h 1.10416 l 0.4831,-0.48317 0.5521,0.48317 h 0.5521 l 0.48303,-0.48317 0.5521,0.48317 0.55209,-1.03512 h 1.03515 l 0.55209,-0.5521 0.48303,-0.48318 1.10415,1.03513 h 1.58724 l -0.55209,1.03513 v 1.10412 l 0.55209,0.48317 h 0.5521 l 0.4831,0.5521 0.5521,-0.5521 h 2.62238 l 0.5521,0.5521 h 2.13931 l 0.48303,0.5521 h 0.5521 l 0.5521,-0.5521 h 2.62239 v 0.5521 h 0.5521 v 1.03513 h 0.5521 l 1.03516,-0.5521 0.5521,0.5521 h 1.03514 l 0.5521,0.55209 h 1.58723 l 0.4831,-0.55209 0.5521,0.55209 0.5521,-0.55209 h 2.07027 l 0.5521,-0.5521 h 0.5521 l 0.48317,-0.48318 0.5521,-0.55209 0.5521,0.55209 h 1.58722 v 0.48318 l 0.5521,0.5521 h 4.20958 l 0.55209,0.55209 0.48318,-0.55209 h 3.17445 v -0.5521 h 1.58722 l 0.5521,0.5521 h 0.5521 l 1.03512,1.10412 0.5521,-0.5521 h 0.5521 l 1.0352,-0.5521 h 3.17445 l 0.5521,-0.55209 h 1.58722 l 0.48318,0.55209 h 2.69134 l 0.48318,-0.55209 0.5521,0.55209 0.55209,-0.55209 h 0.48318 l 0.5521,0.55209 h 1.10412 l 0.48317,0.5521 0.5521,-0.5521 h 2.13932 l 0.48318,0.5521 h 2.13932 l 0.5521,0.5521 h 1.03513 l 0.55209,0.48317 0.48318,0.5521 h 2.13932 l 0.5521,0.5521 0.48318,-0.5521 h 1.10419 v -0.5521 l 1.58722,1.58715 h 0.5521 l 1.03513,1.10413 h 5.79687 l 0.5521,-0.5521 h 1.58722 v -0.5521 l 0.5521,-0.48318 h 1.0352 l 0.5521,0.48318 h 0.5521 l 1.0352,1.10412 h 2.13932 v -2.69127 l 0.48317,-0.48318 v -0.55209 l 0.5521,-1.1042 1.03513,-0.48317 h -0.48318 l -1.10419,-1.10413 -0.48318,-0.48317 v -0.5521 l -0.5521,-0.5521 h -2.62242 l -0.5521,-0.48317 h -1.5873 l -1.10412,1.03512 h -2.07032 l -1.10413,0.5521 h -0.48317 l -0.5521,0.48318 h -1.03513 l -0.55209,-0.48318 h -0.5521 l -0.48318,0.48318 h -0.55209 l -0.5521,0.5521 h -2.07026 v -0.5521 l -0.55209,-0.48318 -0.5521,-0.5521 h -0.5521 l -1.03513,-1.03512 h -0.55209 v -0.5521 l -1.03513,-0.5521 h -0.5521 l -1.03512,-1.03512 v -0.5521 l -0.5521,-0.48318 v -0.5521 l -1.03513,-0.55209 h -0.5521 v -1.03513 h -0.48317 l -1.10412,-1.03513 h -3.17445 l -0.48318,-0.55209 v -0.5521 l -0.5521,-0.48318 h -1.10566 l -1.58722,-1.65622 h -0.48318 l -0.5521,-0.48317 v -0.5521 l -0.55209,-0.5521 h -1.03513 l -0.5521,-1.03512 h -1.58729 v -0.5521 l -0.48318,-0.48318 -0.5521,-0.5521 h -0.5521 l -0.48317,-0.55209 h -1.1042 l -1.58722,-1.58715 v -0.48318 h -0.48318 l -1.10412,-0.5521 h -0.5521 v -0.5521 l -1.03512,-1.03512 h -0.5521 l -0.48318,-0.5521 h -1.10412 l -0.48317,-0.48318 h -1.10413 l -1.03512,-0.55209 h -1.5873 l -0.5521,0.55209 h -0.48317 l -1.58723,-1.58722 h -0.5521 l -0.55209,-0.5521 h -0.48318 l -0.5521,-0.5521 -0.55209,-0.55209 h -0.5521 l -0.48318,0.55209 h -1.10419 l -0.48318,-1.03512 v -0.5521 h -0.5521 l -0.55209,-0.5521 h -1.58721 l -1.03517,-0.48317 -0.55209,0.48317 h -0.48311 l -1.10417,-1.03512 -0.48303,-0.5521 h -0.5521 l -0.55209,-0.48318 v -0.55209 l -0.48311,-0.5521 -0.55209,-0.48318 h -0.5521 l -0.48311,-0.5521 v -1.03512 l -1.10415,-0.5521 -2.13931,-2.13925 h -1.58724 l -0.48303,-0.48318 h -0.5521 l -0.55209,-0.55209 h -1.58724 l -0.48303,0.55209 h -0.5521 l -0.5521,0.48318 -0.4831,-0.48318 h -0.5521 l -0.55209,-0.55209 v -0.5521 h -1.58578 v -0.48318 l -0.48303,-0.55209 h -2.69142 l -0.55209,-0.5521 h -0.48303 v -0.5521 h -0.5521 l -0.5521,-0.48317 h -0.48303 l -0.5521,-0.5521 h -2.13931 l -0.48303,-0.5521 h -1.58731 l -0.5521,-0.48318 -0.5521,-0.55209 h -1.03514 v -0.5521 l -0.5521,-0.48318 -1.03516,0.48318 h -0.5521 l -0.55209,-0.48318 h -0.48311 v -0.55209 l -0.55209,-1.03513 v -1.10412 l -0.5521,-0.48318 v -0.5521 l -0.4831,-0.55209 h -1.10415 l -1.03517,-0.48318 h -2.13931 l -1.58722,1.58722 h -1.58724 l -0.48303,0.48318 h -0.5521 l -1.58721,-1.58722 h -0.5521 l -1.58722,-1.58715 -0.55209,0.55209 h -1.03515 l -0.55209,-0.55209 -0.48311,-0.48318 h -0.55209 l -0.5521,0.48318 h -0.4831 l -1.10416,-0.48318 h -0.48303 v -0.5521 l -0.55209,-0.5521 v -0.48317 h -0.5521 l -0.4831,0.48317 -2.13932,-2.13924 h -1.03515 l -1.10416,1.10412 -0.5521,-0.5521 v -1.58722 l -0.4831,-0.5521 v -0.48318 l -0.5521,-0.5521 h -1.58724 l -1.03514,-0.55209 -0.5521,-0.48318 v -1.58715 l -0.55209,-0.5521 v -0.55209 l -0.48311,-0.48318 h -0.5521 v -0.5521 l -1.03515,-1.03513 h -0.5521 l -0.5521,-0.55209 v -0.5521 l -0.4831,-0.48318 h -1.10415 l -0.48303,0.48318 -1.10417,-0.48318 h -0.48303 l -0.5521,-0.55209 v -0.5521 H 69.9087 l -0.5521,0.5521 -0.55209,-0.5521 h -1.03514 v -0.48318 l 0.55209,-0.55209 v -0.5521 l -0.55209,-0.5521 v -0.48318 l -1.03516,-1.10412 h -0.5521 l -0.5521,-0.48317 v -0.5521 l -1.03516,-1.03513 v -0.5521 l -0.5521,-0.55209 -0.48303,-0.48318 h -0.55209 l -0.5521,-0.5521 H 61.9725 l -0.5521,-0.55209 h -1.58723 l -0.5521,-0.48318 0.5521,-0.5521 -0.5521,-0.55209 h -0.4831 v -0.48318 l -1.10415,-1.10412 h -0.5521 -0.4831 l -1.10415,-1.03513 v -0.5521 l -0.48311,-0.48317 v -0.5521 l -0.55209,-0.5521 v -2.13793 l -1.58722,-1.58722 v -0.48318 l -0.5521,-0.55209 v -0.5521 l -0.48303,-0.48318 v -0.5521 l -0.55209,-0.55209 v -0.48318 l -1.03517,-1.10419 -0.55209,-0.48318 v 1.03513 l -0.5521,0.55209 H 48.1703 l 1.58724,4.20951 -4.20961,2.62228 -2.13931,-6.34876 -1.58724,0.5521 -1.10415,-1.58722 -2.07031,0.55209 v 1.03513 l -0.5521,0.5521 v 0.48318 l -0.55209,0.55209 v 2.13925 l -0.48303,0.48318 -0.5521,0.55209 v 0.5521 l -1.58723,1.58723 v 0.55209 l -0.5521,0.48318 v 1.58715 l -0.4831,1.10412 v 0.48318 l -1.10415,-1.03513 -0.48311,-0.5521 h -0.55209 l -0.5521,-0.48317 v -0.5521 l -0.5521,-0.5521 v -1.03512 l -0.4831,-0.5521 -1.10415,-0.5521 v -0.48317 l -0.48303,-0.5521 h -1.10345 l -0.48303,-0.5521 h -0.5521 l -0.55209,-0.48318 1.10417,-1.10412 0.48303,-0.48317 v -1.10412 l 0.5521,-0.48318 v -1.10412 l 0.55209,-0.48318 h 0.48303 v -0.5521 l 1.10415,-1.03512 v -1.10412 l 0.48311,-0.48318 1.10415,-1.10412 v -0.48318 l 0.5521,-0.5521 v -2.69134 l -0.5521,-0.48318 0.5521,-0.5521 v -1.03512 H 21.11896 l -1.03514,-1.104116 h -0.552095 l -0.48303,-0.48318 h -0.552097 l -0.552097,0.48318 h -1.035156 l -0.552098,-0.48318 H 15.80515 l -1.587232,-1.58722 h -0.483103 z"
       style="fill:#000000;fill-opacity:1;fill-rule:evenodd;stroke:#d38d5f;stroke-width:0.969961;stroke-linecap:butt;stroke-linejoin:miter;stroke-miterlimit:4;stroke-dasharray:none;stroke-opacity:1"
       id="Ercilla" />
  </g>
</svg>
