<?xml version="1.0" encoding="UTF-8" standalone="no"?>
<!-- Created with Inkscape (http://www.inkscape.org/) -->

<svg
   width="210mm"
   height="297mm"
   viewBox="0 0 210 297"
   version="1.1"
   id="svg1283"
   inkscape:version="1.1.2 (b8e25be833, 2022-02-05)"
   sodipodi:docname="vector.svg"
   xmlns:inkscape="http://www.inkscape.org/namespaces/inkscape"
   xmlns:sodipodi="http://sodipodi.sourceforge.net/DTD/sodipodi-0.dtd"
   xmlns="http://www.w3.org/2000/svg"
   xmlns:svg="http://www.w3.org/2000/svg">
  <sodipodi:namedview
     id="namedview1285"
     pagecolor="#ffffff"
     bordercolor="#666666"
     borderopacity="1.0"
     inkscape:pageshadow="2"
     inkscape:pageopacity="0.0"
     inkscape:pagecheckerboard="0"
     inkscape:document-units="mm"
     showgrid="false"
     inkscape:zoom="0.52347032"
     inkscape:cx="155.69173"
     inkscape:cy="611.30496"
     inkscape:window-width="1920"
     inkscape:window-height="1017"
     inkscape:window-x="-8"
     inkscape:window-y="-8"
     inkscape:window-maximized="1"
     inkscape:current-layer="layer1" />
  <defs
     id="defs1280" />
  <g
     inkscape:label="Capa 1"
     inkscape:groupmode="layer"
     id="layer1">
    <path
       id="Calera_de_Tango"
       style="fill:#000000;fill-opacity:1;stroke:#d38d5f;stroke-width:2.52294;stroke-miterlimit:4;stroke-dasharray:none;stroke-opacity:1"
       d="m 67.132335,120.89798 6.49273,-9.28802 6.57545,-6.25438 9.18825,-1.3926 18.420565,-34.269622 16.27937,1.28403 4.24257,-12.48892 26.68881,5.0261 c 3.41552,3.36436 8.4423,0.84766 21.26143,6.43685 v 8.58275 c 5.43725,-2.30311 9.23959,26.347052 19.70093,25.357622 0.65475,4.50224 -6.68116,3.24327 -20.48118,14.62938 15.17406,3.27459 -0.39148,11.26773 15.01954,29.25877 l -15.21459,4.09616 v 5.85184 c 9.45004,4.0471 7.15432,16.27608 15.21459,17.94553 l 4.68141,-0.18791 1.95068,12.4837 c 2.24451,2.0106 -2.62429,3.30465 11.31341,8.19253 l -2.73081,9.75278 c -2.18153,8.93831 -1.17295,19.79056 -7.99744,25.94284 H 174.9162 c -21.64781,-5.3353 -35.89059,-50.39913 -66.32,6.43707 l -14.956175,-7.17429 -5.58054,-35.57578 -13.25378,0.69734 -19.53194,34.87823 -53.0151894,-21.62453 28.6002994,-27.90271 39.06384,-51.62011 z"
       sodipodi:nodetypes="ccccccccccccccccccccccccccccccc"
       inkscape:label="#path1947" />
  </g>
</svg>
