<?xml version="1.0" encoding="UTF-8" standalone="no"?>
<!-- Created with Inkscape (http://www.inkscape.org/) -->

<svg
   width="210mm"
   height="297mm"
   viewBox="0 0 210 297"
   version="1.1"
   id="svg64"
   inkscape:version="1.1.2 (b8e25be833, 2022-02-05)"
   sodipodi:docname="vector.svg"
   xmlns:inkscape="http://www.inkscape.org/namespaces/inkscape"
   xmlns:sodipodi="http://sodipodi.sourceforge.net/DTD/sodipodi-0.dtd"
   xmlns="http://www.w3.org/2000/svg"
   xmlns:svg="http://www.w3.org/2000/svg">
  <sodipodi:namedview
     id="namedview66"
     pagecolor="#ffffff"
     bordercolor="#666666"
     borderopacity="1.0"
     inkscape:pageshadow="2"
     inkscape:pageopacity="0.0"
     inkscape:pagecheckerboard="0"
     inkscape:document-units="mm"
     showgrid="false"
     inkscape:zoom="0.74029882"
     inkscape:cx="361.34057"
     inkscape:cy="561.93525"
     inkscape:window-width="1920"
     inkscape:window-height="1017"
     inkscape:window-x="-8"
     inkscape:window-y="-8"
     inkscape:window-maximized="1"
     inkscape:current-layer="layer1" />
  <defs
     id="defs61" />
  <g
     inkscape:label="Capa 1"
     inkscape:groupmode="layer"
     id="layer1">
    <path
       style="fill:#000000;stroke-width:1.3784"
       d="m 133.63333,254.67659 c -7.79467,-5.24552 -21.59253,-17.04441 -32.77702,-28.02887 -4.052725,-3.98011 -7.988285,-7.23657 -8.745645,-7.23657 -2.40039,0 -12.59301,-10.74996 -11.07951,-11.68537 2.48018,-1.53288 1.55545,-5.63443 -2.03011,-9.00273 -2.17764,-2.04582 -3.1727,-4.15098 -2.68631,-5.6834 0.46687,-1.46773 -0.43177,-3.63789 -2.26185,-5.46828 -2.43014,-2.43014 -2.71682,-3.47342 -1.44027,-5.23957 2.92539,-4.04663 3.40507,-6.00808 2.01027,-8.21943 -1.766,-2.79952 -7.15891,-4.17921 -10.97378,-2.80761 -1.62732,0.58588 -9.76238,0.70488 -18.07792,0.267 -12.22578,-0.64537 -15.08861,-1.19157 -14.9603,-2.85276 0.0915,-1.20988 -3.60906,-4.03457 -9.00715,-6.87055 -8.72307,-4.58276 -9.32038,-4.70711 -12.3676697,-2.57265 -7.18103,5.02995 -10.48434,1.335 -8.80698,-9.85086 0.63927,-4.25931 2.01775,-7.15083 4.24635,-8.90401 8.2107297,-6.45846 21.1982897,-23.23053 23.1946697,-29.9534 1.12597,-3.79168 4.25504,-9.78541 6.95325,-13.319105 2.69821,-3.53368 4.90575,-7.92725 4.90575,-9.76329 0,-4.13115 1.9854,-8.00674 7.14243,-13.94265 3.85271,-4.43476 3.95143,-4.91185 3.05721,-14.77965 -0.90932,-10.03807 -0.8605,-10.25686 3.17026,-14.02596 2.25194,-2.10577 4.38366,-4.69932 4.73701,-5.76319 0.5401,-1.62839 1.17632,-1.59482 4.0181,0.21207 1.85647,1.18089 6.78709,3.56847 10.95684,5.3064 10.30797,4.29638 15.91143,8.07327 18.51428,12.47935 1.63281,2.76427 3.94318,4.07714 9.133635,5.19029 3.82128,0.81931 7.24282,1.49062 7.60335,1.49062 0.36006,0 1.24497,-1.55073 1.96556,-3.44596 0.95204,-2.50597 2.35371,-3.46259 5.13491,-3.50653 2.10365,-0.0305 6.30589,-0.9795 9.33839,-2.10333 7.98248,-2.95758 7.95029,-2.95972 8.84862,0.56908 0.59198,2.32564 3.08178,4.18227 8.89578,6.63407 4.44056,1.8725 8.92629,3.0775 9.96849,2.67746 2.66099,-1.02069 3.26333,2.68341 3.65346,22.46906 l 0.33718,17.090635 -4.13512,2.30077 c -2.81325,1.56537 -4.74097,4.18561 -6.02989,8.19593 -1.73595,5.40084 -1.66958,6.19665 0.79184,9.49415 4.00955,5.37048 9.88077,6.36097 18.9044,3.18934 4.15434,-1.4601 12.84796,-3.09581 19.31908,-3.63484 l 11.76562,-0.9795 4.84763,4.84762 c 2.66616,2.66632 4.84762,6.18109 4.84762,7.81084 0,1.62961 0.94288,4.78782 2.09693,7.01794 3.23479,6.25539 1.2465,10.55726 -10.60228,22.93073 -10.08125,10.52843 -10.79222,11.66493 -10.79222,17.25252 0,3.29002 -1.74099,10.51439 -3.86889,16.05438 -3.45938,9.00654 -4.45002,10.33283 -9.36126,12.53168 -3.02074,1.35177 -7.0901,4.35771 -9.04285,6.67846 -2.63962,3.137 -5.18862,4.46498 -9.93646,5.17702 -3.51232,0.52637 -6.38599,1.12903 -6.38599,1.33957 0,0.21055 1.22667,3.08605 2.72659,6.39087 3.60264,7.93947 3.47632,11.07342 -0.6942,17.21865 -1.9146,2.82118 -3.84264,6.57045 -4.28463,8.33157 -1.11377,4.43949 -4.49717,4.03961 -12.73811,-1.50587 z"
       id="path1517" />
  </g>
</svg>
