<?xml version="1.0" encoding="UTF-8" standalone="no"?>
<!-- Created with Inkscape (http://www.inkscape.org/) -->

<svg
   width="210mm"
   height="297mm"
   viewBox="0 0 210 297"
   version="1.1"
   id="svg1283"
   inkscape:version="1.1.2 (b8e25be833, 2022-02-05)"
   sodipodi:docname="vector.svg"
   xmlns:inkscape="http://www.inkscape.org/namespaces/inkscape"
   xmlns:sodipodi="http://sodipodi.sourceforge.net/DTD/sodipodi-0.dtd"
   xmlns="http://www.w3.org/2000/svg"
   xmlns:svg="http://www.w3.org/2000/svg">
  <sodipodi:namedview
     id="namedview1285"
     pagecolor="#ffffff"
     bordercolor="#666666"
     borderopacity="1.0"
     inkscape:pageshadow="2"
     inkscape:pageopacity="0.0"
     inkscape:pagecheckerboard="0"
     inkscape:document-units="mm"
     showgrid="false"
     inkscape:zoom="0.74029882"
     inkscape:cx="361.34057"
     inkscape:cy="561.93525"
     inkscape:window-width="1920"
     inkscape:window-height="1017"
     inkscape:window-x="-8"
     inkscape:window-y="-8"
     inkscape:window-maximized="1"
     inkscape:current-layer="layer1" />
  <defs
     id="defs1280" />
  <g
     inkscape:label="Capa 1"
     inkscape:groupmode="layer"
     id="layer1">
    <path
       d="m 130.8402,3.9809313 -1.02643,1.094815 h -1.57385 l -0.54744,-0.547367 h -1.57382 l -0.47903,0.547367 h -2.66869 v 3.147623 l -0.54744,0.478956 v 0.547367 h -1.57379 l -0.47903,0.547441 h -2.12127 L 117.223,10.823522 h -1.09486 l -0.47896,0.547367 h -0.54744 l -0.54744,-0.547367 h -1.02643 l -0.54744,0.547367 v 2.0528 l -1.57385,1.573815 h -1.02643 l -0.54744,0.547368 h -0.54744 l -0.47895,0.54744 h -3.14771 l -1.09483,-0.54744 h -3.14771 l 0.54744,0.54744 v 2.600206 h -1.02641 l -0.54744,0.54737 v 0.54744 l 0.54744,0.47895 h 0.47896 l 0.54744,0.54737 h 0.54744 l -0.54744,1.0264 v 1.09482 l 1.02643,1.0264 v 0.54737 l 0.54744,0.47896 v 1.09482 l -1.57385,1.57381 h -0.54744 l -0.47895,0.47895 v 1.09482 h 0.47895 l 0.54744,0.54745 0.54744,0.47895 v 1.09482 h 1.57384 l 0.47903,0.47896 v 0.54744 l -0.47903,0.54744 v 0.47896 l 0.47903,0.54744 0.54744,0.54736 0.54744,0.47896 h 1.57385 l 0.47896,0.54744 v 1.57379 l 0.54744,0.54744 v 0.47896 l 0.54744,0.54744 v 3.14762 l -0.54744,0.54737 0.54744,0.54744 v 0.47896 h 1.57383 l 0.47902,0.54744 v 0.54744 l 0.54744,0.47895 h 0.54745 l 1.02643,1.09483 h 0.54744 l 0.54744,0.47902 1.02643,1.09482 0.54744,0.47903 v 1.09482 l 0.47896,0.47903 v 1.09482 l 0.54744,1.02639 v 1.02639 l -1.02643,1.09482 v 3.14763 l 1.02643,1.02638 v 2.12122 l -0.54744,0.54744 -1.02641,1.02639 v 1.02638 l -1.02644,1.09483 v 0.47903 l -0.54744,0.54744 0.54744,1.02639 h 0.47903 l 0.54744,0.54736 v 0.54744 l 0.54744,0.47896 -0.54744,0.54737 v 0.54744 l -0.54744,0.47895 v 0.54744 l -1.57385,1.57381 h -0.47903 l -0.54744,0.54737 v 0.54744 l -0.54744,0.47896 v 0.54744 l 0.54744,1.02638 v 1.09483 l 0.54744,0.47895 -0.54744,0.54744 -0.54744,0.54737 h -0.54744 l -0.47903,0.47896 h -0.54744 l -0.54744,0.54736 v 1.57381 l 0.54744,0.54744 v 0.47896 l 0.54744,0.54744 -0.54744,0.54737 v 0.47903 l -1.02641,1.09482 v 2.12121 l -0.54744,0.47896 0.54744,0.54744 h 1.02641 v 1.02638 h 0.54744 l 0.47903,0.54737 h 0.54744 l 1.09485,1.02641 v 0.54737 l 0.47902,0.54744 h 0.54745 v 0.47896 l 0.54744,1.09483 -0.54744,0.47896 v 0.54744 h 0.54744 l 1.57385,1.57382 h 0.47895 l 0.54744,0.54736 0.54744,-0.54736 h 0.47896 l 1.09486,-1.02642 v -0.54736 l 1.02641,-1.02639 1.02643,1.02639 0.54744,0.54736 v 0.47896 l 0.54744,0.54744 v 1.02639 l 0.47903,0.54737 0.54744,0.54744 h 0.54744 l 0.47903,0.54737 -0.47903,0.47895 v 1.57382 l -0.54744,0.54736 V 100.667 l 0.54744,0.54736 v 0.54744 l -1.57385,1.5738 h -0.54744 l -0.54744,0.47895 -0.47903,0.54744 h -0.54744 l -0.54744,0.54737 0.54744,0.47896 v 2.12121 l 0.54744,0.54744 v 1.02638 l -0.54744,0.54744 v 3.1476 l -0.54744,0.54744 v 1.57377 l -1.02642,1.02639 -0.54745,0.54744 h -0.47895 l -0.54744,0.4791 h -0.54744 l -0.47896,-0.4791 h -1.57385 l -0.54744,-0.54744 h -1.57385 l -1.09484,1.0264 v 0.54744 l -0.47903,0.54744 h -1.09484 l -1.02643,1.0264 h -0.54744 l -0.47895,0.54744 h -0.54744 l -1.02644,1.02639 v 0.54744 l -0.54744,0.4791 h -2.12127 v -0.4791 h -2.05283 l -0.54744,-0.54744 h -1.026427 l -1.09484,0.54744 h -1.02643 l -0.54744,0.4791 h -1.57386 l -1.02642,1.09481 h -0.54744 l -0.54744,0.54744 h -4.17411 l -1.57385,1.57384 v 0.4791 h -1.57384 v 1.09481 l -0.54744,0.4791 v 2.12128 l -0.54744,0.54744 -0.47896,0.4791 h -0.54744 l -1.57383,1.57376 H 80.95612 l -1.094837,-1.02639 h -1.026432 l -0.547441,0.54744 -0.479028,0.4791 v 0.54744 l 0.479028,0.54744 -0.479028,0.4791 v 0.54744 l -1.094845,1.0264 -0.478956,0.54744 v 1.0948 l 0.478956,0.47911 h 0.547441 l 1.026425,1.0948 v 0.47911 l 1.573851,1.57383 h 0.547441 l 0.54744,0.54744 h 0.478956 l 1.573851,1.57384 v 4.72144 l -0.478956,0.54744 0.478956,1.02639 v 0.54744 l -0.478956,0.54744 v 1.57384 l -0.54744,0.4791 v 1.09481 l 1.026411,1.0264 h 2.121266 l 0.54744,0.54744 h 0.54744 l 1.02641,1.02639 v 1.57384 l -0.54744,1.0264 v 1.0948 l 0.54744,0.47911 -1.02641,1.0948 h -0.54744 l -1.09485,1.0264 v 1.09481 h -1.02642 v 1.57383 l -0.547444,0.47911 v 0.54744 l -0.478955,0.54744 h -0.547441 l -1.026433,1.02639 v 1.0264 l -0.54744,1.09481 v 1.02639 h -0.54744 l -0.479029,0.54744 h -1.094837 l -0.479029,0.47911 h -0.54744 l -0.54744,0.54744 h -1.573844 l -0.478956,0.54744 h -0.547441 v -0.54744 l -1.026432,-1.0264 -0.547441,0.4791 v 0.54744 l -0.54744,0.54744 -0.547441,-0.54744 h -1.573829 l -0.479029,-0.54744 h -1.573829 l -1.094859,-0.4791 H 64.670081 L 64.12264,170.05331 H 63.5752 l -1.026411,0.54744 h -1.026425 l -1.094845,-1.09481 h -1.573844 l -1.026411,-0.4791 h -0.54744 v -0.54744 l 0.54744,-0.54744 h 0.479029 v -0.4791 l -0.479029,-0.54744 -0.54744,0.54744 -0.54744,-0.54744 h -1.026411 l -0.547441,0.54744 h -1.02641 l -1.026426,1.02639 h -0.54744 l -0.547441,-0.54744 h -2.052836 v -0.4791 h -1.094575 l -0.479029,-0.54744 v -1.02639 h 1.573851 l -0.54744,-0.54744 h -0.54744 l -1.026411,-1.02633 H 44.68924 l -0.547441,-0.54744 -0.54744,0.54744 0.54744,0.4791 h 0.547441 l -0.547441,0.54744 0.547441,1.0264 v 0.54744 h 2.121269 v 1.0264 h 1.026426 l 0.54744,0.54744 0.479029,0.54744 v 1.57383 l -0.479029,0.47911 1.026411,0.54744 h 0.54744 v 0.54744 l 0.479029,0.4791 0.54744,-0.4791 1.026426,1.02632 -0.479029,0.54744 v 1.0264 l 0.479029,0.54744 h 0.54744 l 1.026426,1.02639 v 1.57377 h -8.895653 v 0.54744 l -0.54744,1.02639 v 0.54744 l -0.547441,0.54744 v 1.57384 l 0.547441,0.4791 v 1.57384 l 1.026411,1.09481 v 1.57376 l -0.478956,0.4791 v 1.64218 l 0.478956,0.4791 h 1.094859 l 1.02641,1.09481 h 1.57383 l 0.54744,0.4791 v 0.54744 l -0.54744,0.54744 v 1.0264 l -0.479029,0.54744 v 0.4791 l -0.54744,0.54744 h -0.547441 l -0.478955,0.54744 v 2.05279 h 0.478955 l 0.547441,0.54744 h 1.026469 l 0.54744,0.54744 0.547441,0.4791 -0.547441,0.54744 v 0.54744 l 1.026433,1.0264 v 2.66864 l 0.54744,0.47911 h 0.547441 l 0.479028,0.54744 v 0.54744 l 0.547441,1.02639 1.026425,0.54744 v 0.4791 l 0.54744,0.54745 v 0.54744 l 1.026411,1.02639 v 1.0264 l 0.547441,0.54744 v 0.54744 l -0.547441,1.02632 0.547441,0.54744 v 0.4791 l 1.02641,1.09489 v 0.54744 l -0.479028,0.4791 v 0.54744 l -0.547441,0.54744 v 7.3216 l -0.54744,0.54744 -0.479029,0.4791 h -0.54744 l -0.54744,0.54744 v 0.54744 l -1.573852,1.57383 v 2.12121 l 1.573852,1.57384 v 0.4791 l 1.094837,1.0948 1.026432,0.47911 h 0.547441 v 0.54744 l 2.600262,2.60023 h 0.54744 v 0.54744 l 2.12127,2.1212 v 0.47911 l 0.479029,0.54744 h 0.54744 l 0.547441,0.54744 h 2.600262 l 0.54744,-0.54744 h 1.573851 l 1.026404,-0.54744 h 0.54744 v 2.66864 l 0.479029,0.54744 v 1.57376 l 0.54744,0.47911 v 0.54744 l 0.54744,0.54744 0.479029,0.4791 v 0.54744 l 0.54744,0.54744 v 0.4791 l -0.54744,0.54744 v 0.54744 l -2.052836,2.05279 v 0.54744 l -0.547441,0.54744 v 2.12121 l 0.547441,0.4791 v 1.57376 l -0.547441,0.54744 v 2.60016 l -0.54744,0.54744 v 1.57384 l -0.478956,0.54744 v 0.4791 l -0.54744,1.09481 h 0.54744 l 1.026404,-1.09481 0.54744,0.54744 0.479029,1.57384 H 70.9659 l 1.026433,1.0264 0.54744,1.0948 1.573851,1.0264 1.57383,3.1476 h 6.295397 l 1.026411,0.54744 h 1.573841 l 1.09485,0.54744 0.54744,1.0264 1.02641,1.02647 0.54744,1.09481 v 0.4791 l 0.47903,1.09481 v 1.02639 l 0.54744,1.0264 v 2.1212 l -0.54744,1.57384 0.54744,1.57384 v 1.0948 l 0.54744,1.0264 v 1.57376 l 1.02643,1.0264 1.02641,0.54744 h 2.66869 l 1.02643,0.54744 h 1.02643 l 1.09484,0.4791 h 5.747947 l 1.09485,-0.4791 h 0.47903 l 1.09483,-0.54744 h 1.02644 l 1.57382,0.54744 h 3.1477 l 1.09484,0.4791 h 2.60028 l 0.54744,-0.4791 h 1.02643 l 0.54744,1.02632 1.02642,1.02647 1.57384,0.54744 h 4.72153 l 0.54744,-0.54744 h 1.57383 l 1.02643,-1.02647 v -0.54744 l 1.09484,-1.57383 v -0.4791 l 0.47903,-1.09481 1.09484,-1.0264 0.47903,-1.02639 0.54744,-1.57384 0.54744,-1.09481 1.02642,-0.4791 v -0.54744 l 0.54744,-1.0264 0.47896,-0.54744 1.57385,-3.1476 v -1.09946 l 1.09484,-2.05279 v -1.09481 l 2.60028,-2.60023 0.54744,-1.0264 v -1.57376 l -1.02643,-0.54744 v -0.54744 l -1.09484,-2.12128 -1.02643,-1.0264 v -1.02639 l -0.54744,-1.09481 -0.54744,-0.4791 v -1.57384 l 0.54744,-1.09481 h 0.54744 v -2.60023 l -0.54744,-0.54744 h -5.26895 l -0.47902,0.54744 h -1.09484 l -1.57385,-0.54744 h -1.02643 l -0.54744,-0.4791 -1.02641,-0.54744 -0.54744,-0.54744 h -1.02641 l -1.09486,-1.0264 -1.02641,-0.54744 -0.54744,-0.54744 h -0.47903 l -0.54744,-0.4791 -1.02641,-0.54744 -0.54744,-1.0264 -0.54744,-0.54744 -0.47896,-1.02639 -0.54744,-0.54745 v -2.1212 l 1.02641,-1.02647 -0.47896,-0.54744 0.47896,-0.4791 0.54744,-0.54744 v -0.54744 l 0.54744,-0.4791 2.05284,-4.24241 0.54744,-0.54744 v -1.0264 l 0.54744,-0.54744 h 4.17368 l 0.54744,-0.4791 1.57384,-0.54744 0.54744,-0.54744 h 0.47903 l 1.09484,-1.0264 h 1.02643 l 0.54744,-0.54744 h 1.02643 l 1.02641,-1.02639 0.54744,-1.0264 0.54744,-0.54744 v -1.57384 l 0.47895,-1.0948 v -0.47911 l 1.09484,-2.1212 1.02643,-1.0264 v -1.57376 l 1.09484,-2.12121 v -1.02646 l 0.47903,-1.09481 v -2.60016 l -0.47903,-1.09488 0.47903,-0.4791 h 0.54744 l 0.54744,0.4791 h 2.05284 l 0.54744,-1.0264 v -0.54744 l -0.54744,-0.4791 v -1.09488 l 0.54744,-1.0264 v -1.02639 l -0.54744,-1.09481 v -1.0264 l 1.57385,-1.57384 0.54744,-1.02632 -0.54744,-1.09488 v -1.0264 l -2.05284,-1.0948 h -1.09486 l -1.02641,-2.0528 v -1.57383 l -0.54744,-1.09481 -0.47903,-0.4791 v -1.09481 l -0.54744,-1.0264 0.54744,-0.54744 h 1.02644 l 0.54744,-0.4791 h 1.57385 l 0.47895,-0.54744 1.09486,-0.54744 v -1.0264 l 0.47896,-0.54744 v -2.1212 l -1.02643,-0.4791 v -0.54744 l -0.54744,-1.0264 v -2.1212 l -1.0264,-0.54744 v -4.72144 h 3.6951 l 0.47903,-0.4791 h 1.57385 l 0.54744,-0.54744 h 0.54744 l 1.02642,-1.0264 h 0.54744 v -0.54744 l 0.47896,-0.54744 h 0.54744 l 0.54744,-1.0264 1.02641,-0.54744 0.54744,-0.54744 1.02643,-2.05279 1.09484,-0.54744 1.57385,-1.0264 0.47896,-0.54744 1.09486,-0.54744 0.47895,-1.02639 1.09486,-1.0264 v -4.24241 l 1.02641,-2.1212 v -4.72144 l 1.02644,-2.05279 0.54744,-0.54744 v -4.72144 l -0.54744,-2.1212 v -1.0264 l 0.54744,-1.09481 0.54744,-1.57384 v -1.02639 l 0.47903,-1.57377 0.54744,-1.02639 1.09483,-1.57384 h 1.02644 v -1.09481 l 0.54744,0.54744 v -4.24248 l -1.09485,-1.02639 v -1.0264 l -1.02642,-0.54744 -1.09484,-0.54744 -1.02643,-1.0264 v -1.57383 l 0.54744,-0.54744 v -2.60024 l 0.47903,-1.09481 v -1.02639 l 0.54744,-1.57384 v -2.1212 l -0.54744,-1.57377 v -1.57383 l -0.47903,-1.57377 -0.54744,-2.05286 v -1.09481 l -0.54744,-1.57379 0.54744,-1.02639 v -0.54737 l 1.02643,-0.54744 v -3.14762 l -1.02643,-0.47896 -0.54744,-1.09482 v -0.47896 l -1.02644,-1.094822 v -0.47903 l -0.54744,-0.54737 -0.47903,-1.02641 0.47903,-0.54737 v -1.57381 l -0.47903,-0.54737 h -0.54744 l -0.54744,-1.02641 v -1.09482 l 0.54744,-0.47896 v -2.66863 h -1.02641 v -3.62661 l -0.54744,-0.54737 -2.12127,-1.02639 h -0.47903 l -1.57386,-1.63972 -0.54744,-1.02639 H 152.395 v -2.6002 l 0.54744,-1.09482 v -3.62662 l -0.54744,-1.57379 v -3.69502 l 0.54744,-1.57381 v -1.57381 l 0.54744,-1.57382 0.47895,-1.09482 0.54745,-2.05278 v -1.09482 l -0.54745,-1.57382 v -1.02638 l 0.54745,-1.57382 -0.54745,-1.09481 -0.47895,-0.47903 -1.09486,-2.12122 0.54744,-1.02639 v -1.57381 l -0.54744,-1.09482 v -1.02639 l -1.02641,-2.12123 v -1.02639 l 0.54744,-0.54744 0.47896,-1.0264 v -1.09482 l 1.57385,-3.1476 0.54744,-0.47896 0.54744,-1.09482 v -0.47896 l 0.47903,-0.54737 1.09483,-2.12123 v -3.1476 l -1.09483,-0.47896 -1.02644,-1.09482 -2.12127,-1.02639 -0.47895,-0.54744 -0.54744,-1.02639 -1.09486,-1.09482 -0.47896,-1.0264 h -0.54744 v -5.74781 l 0.54744,-1.573819 v -3.216034 l -0.54744,-1.026389 v -0.547441 l -0.54744,-0.479028 -1.02641,-0.547368 h -0.54744 l -1.02648,-1.0264247 h -1.02642 l -1.09485,-1.094823 v -1.026411 l 0.54744,-2.121211 h -2.60025 l -1.09486,0.54744 h -1.02641 l -0.54744,-0.54744 h -5.26897 l -0.47896,-0.479029 h -0.54744 l -0.54744,-0.547368 h -0.47895 l -0.54745,-0.54744 z"
       style="fill:#000000;fill-opacity:1;fill-rule:evenodd;stroke:#d38d5f;stroke-width:0.961779;stroke-linecap:butt;stroke-linejoin:miter;stroke-miterlimit:4;stroke-dasharray:none;stroke-opacity:1"
       id="Curarrehue" />
  </g>
</svg>
