<?xml version="1.0" encoding="UTF-8" standalone="no"?>
<!-- Created with Inkscape (http://www.inkscape.org/) -->

<svg
   width="210mm"
   height="297mm"
   viewBox="0 0 210 297"
   version="1.1"
   id="svg1283"
   inkscape:version="1.1.2 (b8e25be833, 2022-02-05)"
   sodipodi:docname="vector.svg"
   xmlns:inkscape="http://www.inkscape.org/namespaces/inkscape"
   xmlns:sodipodi="http://sodipodi.sourceforge.net/DTD/sodipodi-0.dtd"
   xmlns="http://www.w3.org/2000/svg"
   xmlns:svg="http://www.w3.org/2000/svg">
  <sodipodi:namedview
     id="namedview1285"
     pagecolor="#ffffff"
     bordercolor="#666666"
     borderopacity="1.0"
     inkscape:pageshadow="2"
     inkscape:pageopacity="0.0"
     inkscape:pagecheckerboard="0"
     inkscape:document-units="mm"
     showgrid="false"
     inkscape:zoom="0.52347032"
     inkscape:cx="155.69173"
     inkscape:cy="458.47872"
     inkscape:window-width="1920"
     inkscape:window-height="1017"
     inkscape:window-x="-8"
     inkscape:window-y="-8"
     inkscape:window-maximized="1"
     inkscape:current-layer="layer1" />
  <defs
     id="defs1280" />
  <g
     inkscape:label="Capa 1"
     inkscape:groupmode="layer"
     id="layer1">
    <path
       d="m 158.43038,103.54375 c -1.8631,0.88792 -2.82048,3.2932 -4.77908,3.859 -1.54713,0.13988 -3.91604,2.30651 -2.93892,3.859 -0.76933,2.12599 -1.56873,4.8547 -4.56802,4.5301 -3.06209,0.0311 -4.52863,0.69318 -7.13075,0 -2.06288,-0.002 -5.40356,2.99774 -6.33794,-0.46004 -1.16791,1.16588 -3.27928,2.40613 -5.45019,0.46004 -2.82763,-1.13456 -4.5364,0.34193 -4.19727,3.55865 -0.41575,1.62577 -3.23786,1.93933 -3.51327,4.48472 -1.74334,1.64147 -1.51355,3.89918 -2.27527,6.13435 -2.15101,0.93975 -3.29474,2.99067 -4.83496,4.83488 -1.66757,2.06949 -3.80001,3.39352 -6.15486,4.14147 -1.90894,1.67256 -4.57051,3.70949 -6.00496,0.26499 -1.727493,-0.69783 -2.467293,-4.40289 -4.454413,-3.69122 -1.81134,0.76001 -4.71567,-2.64991 -6.0369,-0.1865 -1.5134,1.28719 -1.27289,2.70329 -2.12762,4.95478 -1.62056,1.67209 -6.68686,-1.04784 -6.45972,1.92947 -2.39113,-0.22614 -5.30798,1.98308 -7.13074,-0.67142 -2.07648,0.17174 -3.95531,1.63735 -5.78851,2.60064 -2.42661,-1.83659 -4.85566,0.79226 -6.43912,0.60769 -2.04618,-1.31897 -4.02169,-2.97302 -6.51804,-3.20841 -3.18679,0.84774 -3.81385,-2.2232 -6.0536,-3.53409 -2.01674,1.71902 -4.43958,-2.26866 -6.53285,-0.32483 -2.76494,-1.15453 -3.56086,-3.54761 0.11423,-3.51319 0.0202,-2.19219 1.26659,-4.58481 1.17123,-6.35893 -0.38723,-1.63734 0.97731,-3.64483 0.10771,-5.88924 -2.05005,-1.12804 -5.13031,-1.42676 -6.13435,-3.99375 -1.06666,-2.99681 -2.90484,-2.39013 -4.99018,-2.8117 -2.21652,-0.0466 -5.28453,-3.79326 -5.63142,-0.32483 -0.53658,3.13785 -3.41582,3.26327 -6.22698,2.92555 -2.00122,-0.91652 -4.80189,-0.91667 -5.71824,-3.06069 -0.0614,-1.76285 -5.03563,-3.18347 -4.44625,-0.76078 0.10561,3.01048 -0.0699,4.76137 -0.6711,6.4218 -1.0829834,0.46315 -3.4887824,-0.19117 -3.8590084,0.58748 -2.56017,-0.45771 -1.769028,2.95694 -1.342269,3.27175 0.06295,0.69783 0.903418,3.5738 2.925936,2.86252 1.597801,0.26344 2.0450814,2.77106 2.9464714,3.97331 -1.7354314,0.46782 -1.3210504,2.66219 0.58726,3.48281 2.02037,-0.40798 2.06467,2.22476 1.34227,4.35696 -1.90558,1.24484 -3.3908804,-0.39632 -5.2012874,0.76078 0.431368,2.64455 -2.07418,4.07247 -1.718408,5.11736 -0.588731,1.6194 -2.666268,3.46167 -0.211061,4.5301 0.181298,1.3952 2.784022,3.33632 1.971354,4.53026 -2.298349,3.08128 0.347209,-0.97449 -1.300219,-1.92962 -1.689889,-1.67908 -2.665732,2.07121 -1.342261,3.1879 1.848199,1.69501 -3.680352,-0.54475 -3.859015,0.67141 0.644294,1.21671 2.146249,3.69457 1.667563,4.85548 0.30369,1.68444 -1.465897,2.91264 -2.25480897,4.12095 -0.853799,3.87649 3.24416597,-0.91829 5.60985097,0.67142 2.63837,0.94557 5.7252824,-0.67763 7.2255624,1.34228 0.76373,0.79902 2.03698,4.71979 0.6711,5.57748 -1.22806,4.04465 5.16794,0.38466 4.53014,3.39896 0.58438,2.11946 4.02215,2.4927 5.11739,1.25835 1.5442,0.7196 2.62883,1.89947 4.19185,2.60064 0.89964,1.95355 3.09557,1.64792 4.5226,2.92594 0.63737,2.05589 2.60392,1.59197 3.53371,3.5337 1.285,1.91859 4.02996,0.80586 5.45023,1.92947 1.47153,1.00836 2.72099,3.35124 5.18306,3.52352 2.08599,0.89149 3.44585,3.50767 4.80274,2.47615 -0.64926,-3.22193 0.70856,-4.43677 2.38955,-5.32849 0.99515,0.23623 1.7907,0.71881 4.0701,1.25835 -0.2158,-2.74603 -0.0897,-5.1503 1.80231,-5.78853 1.62153,-0.66909 2.09808,-3.42678 3.39897,-4.31905 -0.40487,-3.22426 2.35864,-1.47213 4.31905,-0.88224 2.365,-0.10257 6.0472,0.25178 6.58689,-0.46004 2.03033,-0.17562 4.06478,-1.06222 6.12137,-1.46942 0.81961,-0.56728 3.312,-2.94723 1.80777,-4.44625 -1.78282,-1.83737 0.52377,-2.6911 1.59119,-3.859 0.85932,-2.17013 2.41538,-2.51796 3.39896,-2.38958 2.14603,0.0699 4.24242,-0.51755 4.53018,1.84017 -0.88287,2.40621 0.31394,2.76065 1.25835,4.40841 1.65756,0.35669 2.83214,0.28753 4.99023,0 1.19991,1.5019 -0.10258,2.51974 2.381963,3.51319 0.61158,-0.9821 1.72299,-0.4344 4.20481,-0.99648 1.34392,0.89312 3.29622,0.71105 5.52658,-0.3256 1.58007,0.88566 2.3895,-2.33425 3.5337,0.3256 1.95899,0.46316 5.81869,1.69066 6.24858,-0.58748 1.7299,0.54863 2.47638,2.08091 4.31912,2.51679 1.35285,0.98769 3.33213,1.37694 4.19727,1.13115 0.8803,2.30379 2.52091,0.50356 4.18429,1.79478 1.44183,2.62559 3.05688,-1.68195 4.20489,0.34581 3.61281,-3.63861 0.73358,1.63502 3.71974,0.48258 2.80751,-0.9305 3.16016,2.86556 6.84508,0.90843 2.59559,-0.30229 0.34426,-5.65542 2.13959,-6.53354 2.4425,0.38389 5.91466,1.40748 6.67451,-1.7773 -1.26753,-4.22657 3.4403,-2.21248 5.97489,-2.46807 2.73445,0.0987 5.4672,0.27742 8.20275,0.32716 2.01836,-1.78391 2.02901,2.66055 4.44625,1.92953 0.83461,0.2681 2.05349,1.00363 4.44082,1.34221 2.62581,-0.17407 3.84322,-3.90912 1.34772,-4.31904 -0.69628,-1.22813 -3.60792,-1.51814 -1.92954,-3.39896 1.92153,-0.40797 3.32941,-2.3351 4.99022,0 1.30056,-1.92254 2.8159,-0.99127 4.31905,0 3.0805,0.86903 3.42265,-1.19727 6.2485,0 1.52537,0.49657 5.65441,0.68074 3.82115,2.5168 0.49035,1.2962 4.4719,2.6785 4.53018,1.00937 -1.35464,-3.64973 3.25209,-2.49325 3.1879,-4.90622 0.34425,-2.34598 3.50689,-2.19041 3.18782,-4.74132 0.74679,-1.6448 0.49889,-3.49656 -0.30307,-4.54354 1.14917,-1.79899 1.64154,-0.81293 0.30307,-3.6345 -0.29142,-1.68475 -1.6766,-0.93003 -2.51672,-1.68055 -2.36339,-1.16977 1.56189,-3.63978 -0.67141,-5.3285 -1.34003,-0.96997 -2.2853,-1.97002 -3.1879,-1.7184 -0.85077,-3.46299 -1.12291,-1.77388 0.58749,-4.31904 -0.84323,-1.7501 5.24573,-0.10491 2.60064,-2.8117 0.0699,-1.4719 -4.36862,-2.37412 -3.39896,-4.07014 0.74213,-1.66641 0.63645,-1.92355 -2.38958,-2.51671 -3.62517,-1.60021 2.13757,-4.33661 -1.34228,-5.78854 -3.35847,0.87059 -0.88403,-4.68816 -3.4368,-4.53018 -4.17536,-1.46336 -1.99202,1.19565 -1.68056,3.76971 -1.10651,1.62266 -0.37689,5.86741 -3.64801,3.94837 -1.2854,-1.43266 -1.87608,-4.13246 -4.53003,-2.60064 1.3586,-1.2837 0.39088,-4.50563 -2.1406,-4.44626 -2.09832,3.70055 -3.53821,-0.28286 -5.16017,-1.97235 -2.56948,-0.38389 -3.94821,-2.06025 -5.35305,-4.31695 -1.17094,-1.88314 -2.40108,-4.83558 -5.04454,-4.70052 -2.72055,-0.49035 -4.97756,-0.003 -6.28402,-2.49278 -0.0233,-1.41657 -1.89364,-2.18481 -2.65457,-3.29568 z"
       style="fill:#000000;fill-opacity:1;stroke:#d39062;stroke-width:1.02804;stroke-miterlimit:4;stroke-dasharray:none;stroke-opacity:1"
       id="Rio_Negro" />
  </g>
</svg>
