<?xml version="1.0" encoding="UTF-8" standalone="no"?>
<!-- Created with Inkscape (http://www.inkscape.org/) -->

<svg
   width="210mm"
   height="297mm"
   viewBox="0 0 210 297"
   version="1.1"
   id="svg1283"
   inkscape:version="1.1.2 (b8e25be833, 2022-02-05)"
   sodipodi:docname="vector.svg"
   xmlns:inkscape="http://www.inkscape.org/namespaces/inkscape"
   xmlns:sodipodi="http://sodipodi.sourceforge.net/DTD/sodipodi-0.dtd"
   xmlns="http://www.w3.org/2000/svg"
   xmlns:svg="http://www.w3.org/2000/svg">
  <sodipodi:namedview
     id="namedview1285"
     pagecolor="#ffffff"
     bordercolor="#666666"
     borderopacity="1.0"
     inkscape:pageshadow="2"
     inkscape:pageopacity="0.0"
     inkscape:pagecheckerboard="0"
     inkscape:document-units="mm"
     showgrid="false"
     inkscape:zoom="0.52347032"
     inkscape:cx="155.69173"
     inkscape:cy="611.30496"
     inkscape:window-width="1920"
     inkscape:window-height="1017"
     inkscape:window-x="-8"
     inkscape:window-y="-8"
     inkscape:window-maximized="1"
     inkscape:current-layer="layer1" />
  <defs
     id="defs1280" />
  <g
     inkscape:label="Capa 1"
     inkscape:groupmode="layer"
     id="layer1">
    <path
       d="m 136.29414,57.428157 c -0.17049,-0.015 -0.33885,0.018 -0.57195,0.0716 -2.35045,0.40384 -1.51653,2.81117 -3.28864,3.28863 -1.21686,1.35894 -3.32884,4.29373 -6.07685,3.36014 -2.43699,0.0377 -4.74964,0.86964 -6.36281,1.64432 -1.32105,1.06463 -2.08389,2.67983 -3.50314,3.28866 -1.15354,0.90484 -4.39924,0.72025 -4.93296,3.14565 -1.62548,-0.0356 -2.86527,2.31943 -4.14655,3.21717 -1.15466,1.71474 -2.11231,2.29559 -3.00268,4.50402 -1.65965,0.46686 -3.86859,1.72139 -4.932976,2.71671 -2.21011,0.19499 -4.4109,1.17019 -6.79178,1.21535 -2.66806,0.56295 -4.35154,1.333 -7.3637,1.07239 -1.60524,0.83512 -4.64194,0.60796 -6.86327,1.14389 -2.93054,0.37137 -5.13152,-0.98328 -8.07865,-0.57196 -2.18693,-0.81675 -3.51574,-1.56764 -3.78907,-4.36103 -0.20774,-2.87386 -2.76685,-2.31416 -3.86058,-0.57192 -2.44858,-0.67745 -4.36094,0.96929 -5.50494,2.21624 -1.02402,1.64333 -2.12819,2.87983 -3.28863,4.36106 -1.81243,0.84212 -4.070449,0.81292 -4.932965,2.78818 -2.012375,1.21415 -3.86434,1.27663 -5.361925,2.14478 -2.210062,0.49513 -3.198358,1.08715 -3.789098,3.07418 0.151495,3.29595 -2.043117,1.37889 -2.931188,2.8597 -1.506886,-0.55956 -3.185005,1.17662 -4.932963,1.21535 -1.183826,-1.36625 -1.855284,-2.56042 -3.717609,-3.28864 -0.557878,1.1234 -1.854349,1.54033 -2.359242,2.71671 -1.604891,2.439783 -2.774169,1.625183 -1.286875,4.218043 1.491142,0.11651 2.673654,3.62131 0.214484,2.43073 -1.339495,-0.0689 -2.177786,3.35148 -3.288644,1.64435 -0.870708,-1.04492 -2.292249,-2.5683 -3.074171,-0.21445 -0.85812,1.58765 -4.22568,0.73915 -5.147459,1.8588 -0.741964,-1.10704 -4.8545193,-2.44094 -3.8605843,1.14386 -0.255308,2.06115 -0.795158,3.82312 -1.644322,5.29046 0.83163,1.37355 0.382651,3.53136 -0.571919,4.93295 -0.732771,1.34295 -1.422496,2.72163 -3.860583,2.35924 -0.413564,1.23353 -2.062325,1.29176 -1.644352,3.28867 -1.29283898,0.13059 -2.46397998,3.16416 -0.50043,3.28863 0.743353,-1.76828 1.316207,-1.39973 3.288647,-1.64431 1.153224,1.24817 3.03096,1.96489 4.932959,2.14478 0.231737,-0.27676 2.7575643,-1.07152 3.2886683,0.42894 1.166032,1.28786 0.490947,3.34617 1.072376,4.43252 1.69087,0.018 3.514935,1.16737 2.430731,3.21714 -6.17e-4,1.46165 0.474683,4.03953 3.074177,3.50315 1.251634,0.94555 1.287271,2.76712 0,3.71761 0.0072,0.0644 -3.352614,1.34354 -2.287756,2.28774 0.744204,0.98604 0.649691,2.19325 -0.357456,3.28864 0.785031,1.40716 2.211491,-1.60931 4.647005,-0.50043 2.840093,-0.6401 3.61019,-0.34469 5.004448,1.07239 2.388293,0.70087 2.481424,2.16086 4.504024,3.28864 -1.122155,2.62655 0.522981,2.45714 2.216262,3.86059 1.794802,0.41127 3.534715,1.27636 5.290439,2.00179 1.660538,0.95999 3.762154,1.28568 4.575513,2.35924 1.723263,0.20068 3.446693,1.49174 5.361925,2.21625 1.440477,0.89118 3.536283,1.33174 5.933853,1.64432 2.06365,0.88291 2.90969,1.41677 5.07596,2.21627 0.9394,1.19529 2.94667,1.51724 4.07506,2.78821 1.55725,1.63746 3.11215,3.14469 4.28955,3.7891 0.45963,1.18078 2.50268,2.20477 3.64612,3.07415 1.39509,0.57639 2.22187,2.6666 4.4325,2.9312 0.44724,-1.97694 2.11334,-2.71932 2.9312,-3.71761 0.60882,-2.37742 1.0501,-4.07706 3.28865,-4.36103 -0.10243,-0.5869 0,-1.19154 0,-1.78731 4.31359,2.9749 8.62654,5.96165 12.9401,8.93654 2.15787,1.36439 3.40468,1.91323 2.43074,4.07508 -0.58759,1.12181 -1.89949,1.53844 -2.78819,2.35924 -0.34777,1.75736 -1.39643,1.67172 -0.50046,3.8606 1.57819,0.40988 3.38837,0.39006 3.7891,-1.0724 0.90663,-0.80663 2.245166,-1.18902 2.931186,-2.21627 1.85139,-0.027 3.23915,0.8281 4.21804,1.42986 0.31229,1.23252 2.63811,1.33315 2.78821,2.93117 0.9545,1.44708 1.55384,2.06265 3.28865,2.21627 2.43818,0.49178 2.53965,-1.30487 4.71848,-1.07239 1.47555,-0.16323 2.13107,-2.1703 4.07508,-1.64432 1.62128,0.8905 2.59851,1.75113 2.14476,3.8606 -0.54002,1.15389 4.00504,0.18899 5.50493,0.50043 0.38006,-1.17521 1.82606,-2.04133 2.57371,-2.71671 1.34678,-0.4242 2.4237,-1.16722 3.14567,-2.21624 1.83474,0.16563 3.63599,1.02914 4.93296,0 1.77777,-0.66598 1.94927,-1.34858 3.07417,-2.71671 2.02193,-0.4459 2.9277,-1.35355 5.14746,-1.14389 1.65191,-0.41103 3.08778,-0.71668 4.71848,0.21445 0.51508,0.95948 1.60913,2.70545 1.64432,4.36103 1.71632,1.45164 2.95884,-0.69335 4.43252,-0.71491 1.55995,-1.86537 1.20208,0.15155 2.71671,0.57192 1.29407,1.22638 3.04822,1.32875 3.8606,2.71671 1.36786,1.99419 -0.56977,2.17234 -0.57193,3.8606 1.36691,0.34178 1.39728,2.04145 2.93119,2.21625 1.82092,0.5453 3.22086,1.31781 2.57369,3.64611 0.91569,1.15682 1.37904,2.69688 1.0724,5.07594 -1.8967,-0.1243 -3.06248,0.45545 -3.78907,1.50136 -0.28814,1.48213 -2.48096,1.11076 -2.78821,2.57372 -0.67367,2.50004 2.24722,1.43125 2.21625,3.28864 0.92161,0.20457 -1.31755,2.28379 0,3.07418 2.24491,-0.75523 3.1525,1.70363 3.86059,2.78821 -1.21026,2.04885 0.90829,1.44154 0.50044,4.00355 -0.88598,0.75416 -1.55078,3.03938 -1.35834,4.64701 0.52607,2.30637 3.03258,2.40794 4.86146,3.28864 2.5352,-0.10573 4.90079,0.87621 7.22073,1.8588 1.92239,0.72064 3.54888,2.12232 5.29043,3.21715 1.59837,0.68424 3.85478,1.2568 5.57644,0.42896 2.29981,-0.9459 3.11914,-3.09874 3.21714,-5.43342 1.0372,-3.76448 -0.45122,-7.60722 -1.78734,-11.08129 -0.95321,-1.58687 -1.80474,-3.65462 -1.00087,-5.36192 2.62012,-0.81035 1.35277,-3.98511 1.64432,-6.00538 -1.63359,-2.23898 1.4928,-3.62128 2.14475,-5.50492 1.23668,-1.25908 2.504,-4.01164 3.8606,-4.07505 1.7691,1.30281 4.35273,1.17633 5.50491,-0.8579 -0.73148,-1.98688 2.69464,-3.77802 0.21446,-5.29043 -1.81822,-0.87564 -1.95498,-4.18249 0.14287,-4.57552 2.65348,0.6277 3.71473,-1.92409 3.21714,-3.86059 2.73732,-3.73208 0.79926,-8.86175 -2.50222,-11.51026 -1.7694,0.26237 -4.68793,-0.50721 -4.93299,-2.43074 0.51041,-2.555 -1.79701,-3.6857 -4.00356,-3.07418 -1.41357,1.44838 -3.84145,1.46239 -5.5764,0.14287 -1.83104,-1.90705 -1.16387,-4.88213 -1.9303,-7.29222 1.8234,-1.5314 3.09646,-3.46401 4.647,-5.21894 -1.44373,-0.87486 -2.54125,-2.22319 -3.7891,-3.36013 0.59092,-2.21972 1.40037,-5.2169 0.57196,-7.36372 0.0333,-2.75819 -3.1065,-3.6034 -4.43255,-5.93385 -1.34708,-2.74954 -1.51706,-5.12875 0.21445,-7.07777 1.95109,-1.34609 -1.11854,-5.36723 3.00263,-5.50491 2.81906,1.83041 4.54505,-3.43846 1.21541,-3.86057 -3.47377,-0.43316 -1.12675,-5.38271 -3.7176,-6.21983 -2.83448,-0.46713 -3.55764,-4.32569 -2.43077,-5.93388 3.24626,-0.62599 3.09611,-3.39179 3.64615,-6.07685 -0.55684,-3.93568 0.9598,-7.644723 1.07236,-11.510263 1.54805,-2.08413 0.96705,-5.05878 1.07239,-7.72116 2.69403,0.13598 1.46554,-2.86895 0.57193,-4.28956 0.0599,-3.71009 -2.18564,-1.42723 -4.4325,-1.71582 -1.17192,-2.0082 -2.70664,-2.61718 -3.7891,-4.28953 -1.73846,-0.81043 -3.84271,0.56818 -5.50491,0.85791 -2.25309,-0.0602 -3.12346,0.79494 -3.8606,2.71671 -1.61194,0.22134 -1.97208,-2.32992 -3.28867,-2.57372 -2.71317,0.39197 -3.68816,-3.25054 -6.64877,-2.21628 -2.14349,-0.84069 -2.36091,-3.79362 -4.36102,-3.86057 -0.89236,-0.81486 -3.49121,-1.32788 -3.78911,-2.64521 -1.47679,-0.85482 -1.1703,-2.63563 -2.64521,-4.36103 -0.56519,-1.68305 -0.9099,-3.15029 -2.7167,-3.43166 -2.55176,0.46545 -3.49301,-1.54362 -6.00536,-1.64432 -2.64487,-0.26537 -4.21716,-1.05792 -6.57729,-1.64432 -0.46238,-0.28364 -0.7754,-0.60146 -1.28686,-0.64342 z"
       style="fill:#000000;fill-opacity:1;stroke:#d39062;stroke-width:0.396237;stroke-miterlimit:4;stroke-dasharray:none;stroke-opacity:1"
       id="Panguipulli" />
  </g>
</svg>
