<?xml version="1.0" encoding="UTF-8" standalone="no"?>
<!-- Created with Inkscape (http://www.inkscape.org/) -->

<svg
   width="210mm"
   height="297mm"
   viewBox="0 0 210 297"
   version="1.1"
   id="svg57"
   inkscape:version="1.1.2 (b8e25be833, 2022-02-05)"
   sodipodi:docname="vector.svg"
   xmlns:inkscape="http://www.inkscape.org/namespaces/inkscape"
   xmlns:sodipodi="http://sodipodi.sourceforge.net/DTD/sodipodi-0.dtd"
   xmlns="http://www.w3.org/2000/svg"
   xmlns:svg="http://www.w3.org/2000/svg">
  <sodipodi:namedview
     id="namedview59"
     pagecolor="#ffffff"
     bordercolor="#666666"
     borderopacity="1.0"
     inkscape:pageshadow="2"
     inkscape:pageopacity="0.0"
     inkscape:pagecheckerboard="0"
     inkscape:document-units="mm"
     showgrid="false"
     inkscape:zoom="0.74029882"
     inkscape:cx="361.34057"
     inkscape:cy="453.87078"
     inkscape:window-width="1920"
     inkscape:window-height="1017"
     inkscape:window-x="-8"
     inkscape:window-y="-8"
     inkscape:window-maximized="1"
     inkscape:current-layer="layer1" />
  <defs
     id="defs54" />
  <g
     inkscape:label="Capa 1"
     inkscape:groupmode="layer"
     id="layer1">
    <path
       inkscape:connector-curvature="0"
       id="Canete"
       style="fill:#000000;fill-opacity:1;fill-rule:evenodd;stroke:#d39062;stroke-width:0.547988;stroke-linecap:butt;stroke-linejoin:miter;stroke-miterlimit:4;stroke-dasharray:none;stroke-opacity:1"
       d="m 169.77985,41.139776 c -0.43595,0.0572 -0.73358,0.12852 -1.16443,0.20552 -0.83102,0.14776 -1.61114,0.37536 -2.22622,0.71925 -0.61508,0.34366 -1.05845,0.8056 -1.19874,1.50696 -0.1506,0.75459 -0.53503,1.9612 -1.13024,2.97968 -0.29724,0.50955 -0.62986,0.96672 -1.02748,1.3015 -0.39744,0.3346 -0.84517,0.54805 -1.33569,0.54805 -1.27614,0 -2.39064,0.0283 -3.39065,0.13701 -1.00008,0.11097 -1.90532,0.31875 -2.77421,0.75351 -1.18856,0.59424 -1.61782,1.36683 -2.19197,1.98645 -0.28705,0.30969 -0.58655,0.55823 -1.06173,0.7535 -0.47501,0.19533 -1.12956,0.34253 -2.0207,0.34253 -1.11886,0 -2.41623,0.10418 -3.73318,0.17099 -1.3169,0.0674 -2.62333,0.0974 -3.69893,-0.17099 -1.40058,-0.34989 -2.1088,-0.51237 -2.70565,-0.445 -0.59691,0.0674 -1.08307,0.33573 -2.12346,0.85621 -1.05375,0.5271 -1.70116,0.78561 -2.46599,0.99322 -0.76478,0.20779 -1.66028,0.38953 -3.25364,0.78777 -1.00636,0.25137 -1.57654,0.52427 -1.84949,0.82196 -0.27289,0.2978 -0.25534,0.6114 -0.13701,0.92471 0.11833,0.31366 0.34592,0.62715 0.51351,0.92478 0.16758,0.2978 0.29667,0.57109 0.17098,0.82196 -0.48577,0.97125 -1.10691,1.46806 -1.67823,2.0207 -0.57126,0.55258 -1.10226,1.15554 -1.4042,2.36323 -0.16985,0.67923 -0.39971,1.05114 -0.65075,1.23294 -0.25081,0.18174 -0.52597,0.18796 -0.85621,0.17098 -0.33008,-0.017 -0.68789,-0.051 -1.09599,0.034 -0.4082,0.0844 -0.88576,0.26949 -1.36995,0.75345 -0.55993,0.55994 -1.01088,1.3152 -1.71248,1.81524 -0.35102,0.25025 -0.765,0.42972 -1.26719,0.51351 -0.50219,0.0838 -1.11851,0.0798 -1.84949,-0.10247 -0.68195,-0.17042 -1.23407,-0.46539 -1.74673,-0.78771 -0.51238,-0.32271 -0.97194,-0.69644 -1.43846,-1.06173 -0.46652,-0.36517 -0.92902,-0.72831 -1.47271,-1.02747 -0.54352,-0.29894 -1.17389,-0.52654 -1.91794,-0.65076 -1.50277,-0.25024 -3.00164,-0.98626 -4.14416,-1.67822 -1.14252,-0.69197 -1.91398,-1.3498 -1.98645,-1.40421 -1.75092,-1.31316 -3.51759,-3.1519 -3.97295,-3.49341 -0.85287,-0.63971 -1.96686,-1.00352 -3.082429,-1.40426 -1.11558,-0.40084 -2.21796,-0.84794 -3.04818,-1.67817 -0.54975,-0.54974 -1.05788,-1.23169 -1.60972,-1.81524 -0.55201,-0.58354 -1.16347,-1.0786 -1.91794,-1.26724 -2.19005,-0.54749 -4.60327,-0.69695 -7.02114,-1.30145 -0.97714,-0.24402 -1.93509,-0.5746 -2.84266,-1.06173 -0.90761,-0.4869 -1.73756,-1.14082 -2.39748,-2.0207 -0.49483,-0.65964 -1.29131,-1.63231 -2.22616,-2.50019 -0.93491,-0.86793 -2.01498,-1.62546 -3.04818,-1.88374 -1.57853,-0.39462 -2.67881,-0.92495 -3.76743,-1.19869 -0.54409,-0.13701 -1.08195,-0.20778 -1.67823,-0.17098 -0.59629,0.034 -1.2561,0.17381 -2.0207,0.47954 -0.54409,0.21741 -1.76893,1.00138 -2.56869,1.98645 -0.39972,0.49256 -0.6956,1.04588 -0.75351,1.60972 -0.0577,0.5639 0.13021,1.1235 0.685,1.67823 1.45788,1.45788 2.37914,2.14163 2.46593,2.32892 0.0866,0.1874 -0.66077,-0.13078 -2.46593,-0.58219 -0.5853,-0.14663 -1.18431,-0.50332 -1.78099,-0.75351 -0.59668,-0.25024 -1.17287,-0.37253 -1.71242,-0.10247 -0.53503,0.26723 -1.02674,0.40877 -1.43851,0.445 -0.41161,0.034 -0.7568,-0.034 -1.06168,-0.17098 -0.60987,-0.27572 -1.02198,-0.84081 -1.3015,-1.47276 -0.5588,-1.2638 -0.6024,-2.80943 -0.6165,-2.77416 -0.14607,0.14607 -0.33403,0.25308 -0.41103,0.44501 -0.25308,0.63325 -0.91187,1.34243 -1.50696,2.0892 -0.5951,0.74678 -1.13024,1.52559 -1.13024,2.29467 0,0.87054 -0.31875,1.78246 -0.75345,2.02076 -0.21741,0.1189 -0.47049,0.0674 -0.71926,-0.23949 -0.24855,-0.30686 -0.49143,-0.86912 -0.71926,-1.78098 -0.18457,-0.73885 -0.39744,-1.04979 -0.61649,-1.13018 -0.21911,-0.0804 -0.44218,0.0674 -0.7192,0.34253 -0.27686,0.27515 -0.60054,0.66552 -0.95897,0.99322 -0.35839,0.32781 -0.76914,0.60767 -1.233,0.685 -1.4786,0.24629 -3.16736,0.63983 -4.62365,1.2672 -0.72814,0.31365 -1.38648,0.68636 -1.95219,1.13023 -0.5656,0.44388 -1.03705,0.94386 -1.33576,1.54122 -0.52879,1.05788 -0.67702,2.14186 -0.7877,3.28795 -0.11097,1.14608 -0.16872,2.35224 -0.51351,3.73318 -0.31309,1.25202 -0.42066,2.05722 -0.71926,2.7399 -0.29837,0.68268 -0.79037,1.24358 -1.91794,2.08921 -0.9823,0.73675 -1.70914,1.41756 -2.26047,2.22621 -0.55145,0.80866 -0.94318,1.75206 -1.26719,3.04818 -0.21798,0.87263 -0.31309,1.67698 -0.30857,2.46594 0.004,0.789 0.10814,1.5634 0.30857,2.36323 0.20721,0.8279 0.2978,1.20021 0.0685,1.60972 -0.2293,0.40934 -0.76964,0.87235 -1.81524,1.91794 -0.56107,0.56107 -1.23497,1.25451 -1.81518,2.0207 -0.58026,0.76625 -1.07628,1.59936 -1.26725,2.36323 -0.32271,1.29126 -0.14097,1.95548 -0.034,2.56869 0.10644,0.61322 0.16532,1.17604 -0.3765,2.26042 -0.24288,0.48577 -0.83356,1.34945 -1.23299,2.26047 -0.19986,0.45576 -0.37481,0.92778 -0.41104,1.36995 -0.034,0.44218 0.0453,0.84953 0.30799,1.19874 0.75221,1.00291 0.97726,1.64047 1.06173,2.26048 0.0844,0.61995 0.0453,1.21669 0.27403,2.12346 0.2627,1.05182 0.26553,1.5133 0.034,2.0207 -0.23156,0.50728 -0.71592,1.0551 -1.37001,2.363174 -0.65137,1.3028 -1.41168,2.74743 -2.6372,3.97295 -0.41217,0.41217 -1.16522,1.2193 -1.78093,2.19191 -0.30799,0.48634 -0.59357,1.02137 -0.75351,1.54122 -0.15966,0.51974 -0.22363,1.02453 -0.10247,1.50696 0.16192,0.64866 0.16305,1.43834 0.0685,2.26047 -0.0945,0.82213 -0.25647,1.67738 -0.47954,2.5687 -0.0906,0.36347 -0.76664,1.26787 -1.50696,2.05495 -0.74032,0.78708 -1.5612,1.47277 -2.0207,1.47271 -2.35446,0 -3.52132,-0.11493 -4.45238,-0.0685 -0.93112,0.0453 -1.63067,0.23326 -3.0139904,0.92472 -0.52879,0.2644 -1.41303,0.70023 -2.22616,1.23294 -0.81318,0.53276 -1.54308,1.17196 -1.71248,1.84949 -0.37423,1.49768 -0.45633,2.03135 -0.7877,2.36318 -0.33121,0.33177 -0.92138,0.47784 -2.29473,1.16449 -0.80197,0.40084 -1.59551,0.79772 -2.39742997,1.19874 10.35992037,17.93385 19.76155037,38.02525 28.22137037,61.99115 8.50131,24.08343 12.85535,43.4755 14.52169,59.83349 0.4535,-0.1959 0.94974,-0.338 1.37,-0.54805 0.43595,-0.21797 0.77593,-0.27969 1.06173,-0.20552 0.28592,0.0742 0.4988,0.26044 0.68495,0.58225 0.37197,0.64407 0.61627,1.74554 0.89052,3.11668 0.27176,1.35738 0.15796,2.30418 0.308,2.97967 0.0753,0.338 0.19249,0.59159 0.47954,0.82196 0.28704,0.23043 0.74371,0.41726 1.4042,0.58224 0.63026,0.1574 1.10691,0.10248 1.50696,-0.10247 0.40028,-0.20495 0.71547,-0.55654 0.95903,-0.95897 0.4869,-0.80526 0.72464,-1.82611 1.02748,-2.43168 0.16192,-0.32385 0.89624,-0.3765 1.71242,-0.58225 0.40821,-0.10304 0.83883,-0.22646 1.233,-0.47954 0.39405,-0.25364 0.76562,-0.60659 1.02747,-1.13024 0.62126,-1.2425 0.91204,-1.81688 1.50697,-2.05495 0.59498,-0.23835 1.49479,-0.13701 3.3222,-0.13701 1.74651,0 2.79255,0.28138 3.49341,0.65075 0.70086,0.36914 1.05726,0.81749 1.3357,1.09598 2.77777,2.77778 2.95436,2.50913 3.9387,3.49341 0.55087,0.55088 1.06773,0.96475 1.54121,1.233 0.47332,0.26836 0.90156,0.40424 1.30145,0.3765 0.39971,-0.0283 0.76596,-0.21118 1.09598,-0.54805 0.33007,-0.33687 0.62663,-0.84732 0.89046,-1.50696 0.077,-0.19193 0.29894,-0.26497 0.44501,-0.41104 1.14603,-1.14609 1.83132,-1.88765 2.60295,-2.46593 0.77157,-0.57834 1.60847,-1.0157 3.08243,-1.50702 1.06518,-0.35499 2.47957,-0.32838 3.90439,-0.23949 1.42486,0.0889 2.87062,0.23949 4.00714,0.23949 1.08693,0 1.88692,0.13078 2.70571,0.27402 0.16645,-0.32837 0.32611,-0.73443 0.51351,-0.99322 0.38556,-0.53163 0.81098,-0.9425 1.26725,-1.26725 0.91249,-0.64945 1.9394,-0.98683 2.97967,-1.50696 0.89958,-0.44954 1.47384,-1.14892 1.98645,-1.88369 0.51295,-0.73483 0.94544,-1.52768 1.506959,-2.08921 0.43878,-0.43878 0.76104,-0.89969 0.99323,-1.37 0.23212,-0.47049 0.40367,-0.94012 0.47954,-1.40421 0.1523,-0.92811 0.034,-1.78863 -0.13701,-2.46593 -0.33574,-1.34312 -0.63088,-2.18347 -1.13024,-2.97967 -0.499359,-0.79626 -1.219069,-1.5616 -2.397429,-2.73996 -0.87801,-0.87801 -1.37306,-1.82798 -1.57547,-2.73996 -0.20268,-0.91198 -0.0968,-1.79287 0.27403,-2.53444 0.59396,-1.18798 0.82394,-1.86919 1.13023,-2.46593 0.3063,-0.59674 0.69231,-1.10334 1.50697,-1.918 0.32724,-0.32724 0.828469,-0.27742 1.335689,-0.0685 0.50729,0.20892 1.02386,0.58882 1.3015,0.95898 0.55315,0.7376 1.82764,1.41456 3.15094,1.95219 1.3233,0.53786 2.68714,0.91153 3.42491,1.09598 1.4307,0.35782 2.3292,0.2678 3.18519,0.0685 0.85598,-0.19929 1.65473,-0.47954 2.94541,-0.47954 0.38217,0 0.70075,-0.18401 0.92478,-0.47954 0.2242,-0.29554 0.35272,-0.70845 0.44501,-1.16449 0.18457,-0.91215 0.15116,-2.03322 -0.034,-2.77421 -0.0838,-0.33631 0.17041,-0.53956 0.61649,-0.68495 0.44614,-0.14551 1.07096,-0.21401 1.74668,-0.23949 1.35149,-0.051 2.85359,0.0685 3.3222,0.0685 0.36744,0 0.56107,-0.17948 0.6165,-0.47955 0.0566,-0.30006 -0.0113,-0.73918 -0.13701,-1.19874 -0.24912,-0.91905 -0.71218,-1.99239 -0.89047,-2.7057 -0.18117,-0.72571 -0.55767,-1.15962 -0.99322,-1.43846 -0.43595,-0.27912 -0.94023,-0.41783 -1.37001,-0.54805 -0.42972,-0.13021 -0.79586,-0.26779 -0.95897,-0.54804 -0.16306,-0.28026 -0.12456,-0.7102 0.23949,-1.43846 0.0985,-0.19646 -0.60795,-4.54659 -0.89052,-4.82917 -0.45463,-0.45463 -0.61339,-0.83215 -0.6507,-1.19868 -0.0396,-0.36688 0.051,-0.7089 0.13701,-1.06173 0.0861,-0.35272 0.15287,-0.71682 0.0685,-1.13024 -0.0844,-0.4133 -0.30799,-0.89018 -0.85621,-1.43845 -0.46256,-0.46256 -1.04928,-0.7846 -1.67823,-1.02748 -0.62895,-0.24288 -1.30761,-0.39462 -2.0207,-0.51408 -1.42617,-0.23779 -2.94179,-0.3329 -4.21267,-0.65069 -0.94074,-0.23553 -2.05778,-1.21618 -3.15093,-2.26047 -1.09316,-1.0443 -2.1477,-2.15268 -2.97968,-2.5687 -0.62074,-0.31026 -1.26832,-1.23826 -1.91794,-2.29472 -0.649669,-1.05647 -1.323799,-2.24853 -2.054949,-2.97967 -0.66123,-0.66117 -1.07062,-1.06054 -1.3015,-1.36995 -0.231,-0.3097 -0.28535,-0.5288 -0.20552,-0.75351 0.15966,-0.44897 0.82292,-0.99544 1.50702,-2.70571 0.23892,-0.59702 -0.34819,-4.73812 0,-6.13061 0.15796,-0.63082 0.16192,-1.05278 0.034,-1.33569 -0.12795,-0.28309 -0.39066,-0.41783 -0.75351,-0.47955 -0.72571,-0.12342 -1.85629,0.0685 -3.21944,0.0685 -0.6738,0 -1.23453,-0.15626 -1.74668,-0.41104 -0.51238,-0.25477 -0.97867,-0.61389 -1.40426,-0.99322 -0.85112,-0.75861 -1.61442,-1.6463 -2.56869,-2.12346 -0.92393,-0.46199 -1.44644,-0.97879 -1.78093,-1.50696 -0.33461,-0.52823 -0.4869,-1.0743 -0.58225,-1.57547 -0.0957,-0.50106 -0.13531,-0.9549 -0.34253,-1.3357 -0.20721,-0.38103 -0.5639,-0.68897 -1.23294,-0.85621 -1.66112,-0.41557 -3.41777,-0.96412 -4.58939,-1.74673 -0.58587,-0.39122 -1.01768,-0.82768 -1.23299,-1.3357 -0.21515,-0.50785 -0.21798,-1.10538 0.10247,-1.74673 0.11946,-0.23893 1.85244,-0.231 3.66468,-0.17099 1.81224,0.0594 3.7141,0.17099 4.24692,0.17099 1.54784,0 2.94808,0.45123 4.34962,0.89046 1.40154,0.43878 2.79323,0.89047 4.41818,0.89047 0.59431,0 1.29562,-0.64164 1.98645,-1.3357 0.69084,-0.69406 1.39356,-1.45029 1.98645,-1.74674 0.48011,-0.24005 0.999059,-0.98286 1.472709,-1.78093 0.47388,-0.79806 0.9053,-1.63933 1.16449,-2.15771 1.0927,-2.18545 1.62586,-3.45536 2.19196,-5.71963 0.14551,-0.58151 4e-4,-0.96622 -0.34253,-1.19874 -0.34309,-0.23269 -0.90144,-0.32328 -1.54121,-0.34253 -1.27948,-0.0396 -2.963139,0.23949 -4.281119,0.23949 -1.82628,0 -2.75128,0.17551 -3.42496,0 -0.33687,-0.0878 -0.61202,-0.27063 -0.89046,-0.6165 -0.27856,-0.34593 -0.58576,-0.82904 -0.95897,-1.57547 -0.15457,-0.30856 -0.34593,-0.47614 -0.58225,-0.58224 -0.23666,-0.10588 -0.49426,-0.16872 -0.75351,-0.23949 -0.2593,-0.0713 -0.53106,-0.17268 -0.75345,-0.3765 -0.2225,-0.20382 -0.38782,-0.52314 -0.51351,-1.02748 -0.13871,-0.55427 -0.13418,-1.08245 -0.034,-1.64397 0.10021,-0.56164 0.26836,-1.15577 0.51351,-1.71248 0.4903,-1.11337 1.2014,-2.19729 1.71248,-3.21939 0.17268,-0.34536 0.53899,-0.57217 1.02748,-0.71926 0.4886,-0.1472 1.09587,-0.21627 1.74667,-0.23948 1.30173,-0.0453 2.76957,0.10247 3.80169,0.10247 0.48804,0 0.73279,-0.27176 0.85621,-0.68494 0.12343,-0.41274 0.13362,-0.99408 0.10248,-1.60973 -0.0283,-0.6157 -0.0945,-1.27557 -0.0685,-1.88374 0.0283,-0.60818 0.11833,-1.15079 0.411039,-1.54122 0.6161,-0.82145 1.4132,-1.61532 2.26047,-2.29466 0.84727,-0.6794 1.74538,-1.23232 2.56869,-1.64398 1.22037,-0.61021 2.03775,-1.17106 2.73996,-1.84944 0.70222,-0.67843 1.29001,-1.50311 2.08921,-2.56874 0.94776,-1.26369 1.97173,-1.98481 2.84266,-2.80841 0.43538,-0.4116 0.82269,-0.84251 1.16449,-1.37001 0.34196,-0.52766 0.62357,-1.1586 0.82201,-1.95219 0.13192,-0.52767 -0.12908,-1.16308 -0.6165,-1.81519 -0.48746,-0.65211 -1.19008,-1.33445 -1.91799,-1.95219 -1.45573,-1.2356 -3.00368,-2.21597 -3.15094,-2.36323 -0.76404,-0.7641 -0.99855,-1.29494 -0.85621,-1.64398 0.1421,-0.34875 0.64056,-0.53332 1.3015,-0.61649 1.32182,-0.16646 3.3145,0.0685 4.38387,0.0685 0.75623,0 1.32024,0.077 1.78099,0.23949 0.46086,0.16249 0.81307,0.41104 1.16443,0.65075 0.70284,0.47954 1.35733,1.02493 2.73996,1.30144 0.22986,0.0453 0.25874,0.13305 0.13701,0.27403 -0.12172,0.14097 -0.37367,0.30969 -0.65075,0.51351 -0.55371,0.40877 -1.23294,0.93576 -1.23294,1.4042 0,0.51238 0.65262,1.04809 1.54122,1.57547 0.88854,0.52767 2.00281,1.03886 2.91116,1.54122 0.90836,0.50219 1.61878,0.96712 1.67823,1.4042 0.0283,0.21854 -0.0996,0.4218 -0.445,0.6165 -0.34537,0.19476 -0.91765,0.38216 -1.74674,0.54805 -0.33064,0.0662 -0.22024,0.33573 0.13701,0.685 0.35725,0.34932 0.96249,0.79467 1.64398,1.26719 1.36293,0.9451 3.01647,1.95474 3.49341,2.43168 0.35782,0.35782 0.66117,0.38556 0.95897,0.20552 0.2978,-0.18004 0.59787,-0.54012 0.89047,-0.95897 0.2927,-0.4184 0.58241,-0.90847 0.92471,-1.26725 0.34253,-0.35895 0.75181,-0.58224 1.19874,-0.58224 0.37311,0 1.28628,0.46029 2.08921,1.02747 0.80294,0.56702 1.47741,1.20973 1.40421,1.57547 -0.15344,0.76767 -0.0696,1.31209 0.17098,1.71248 0.24118,0.40028 0.63189,0.68235 1.06173,0.95897 0.42972,0.27686 0.92296,0.52824 1.33575,0.92478 0.41274,0.39631 0.76908,0.91872 0.95897,1.67817 0.19476,0.77865 0.50276,1.09547 0.89047,1.09598 0.38782,5.1e-4 0.82773,-0.31082 1.30144,-0.75345 0.94748,-0.88548 1.98798,-2.33045 2.6372,-2.97973 1.40936,-1.40935 2.59796,-3.04314 3.9387,-4.38387 0.96452,-0.96452 1.36921,-1.55135 1.71242,-1.98645 0.3431,-0.43538 0.6349,-0.72843 1.37001,-1.09599 0.87439,-0.43707 2.33583,-0.41783 3.83588,-0.30856 1.50012,0.10927 3.01512,0.30856 4.04146,0.30856 0.36575,0 0.6516,-0.17777 0.85621,-0.47954 0.20439,-0.3012 0.33065,-0.71348 0.47955,-1.13023 0.1489,-0.4167 0.31478,-0.85287 0.51351,-1.19875 0.19929,-0.34592 0.43312,-0.59628 0.78776,-0.685 1.19671,-0.29893 2.15885,-0.18457 3.04818,0 0.88928,0.18457 1.71899,0.44501 2.67145,0.44501 0.81726,0 1.44219,0.17891 1.98645,0.47954 0.54408,0.30063 0.98841,0.70459 1.4042,1.16443 0.83153,0.91974 1.55531,2.0292 2.73996,2.73996 0.81018,0.48634 1.72862,0.60325 2.67145,0.51351 0.94278,-0.0895 1.91998,-0.3748 2.87691,-0.68495 0.95694,-0.30969 1.88749,-0.64678 2.73996,-0.82201 0.85248,-0.17495 1.6309,-0.21231 2.26042,0.10247 0.57986,0.28988 0.98088,0.68003 1.3015,1.09599 0.32045,0.41613 0.54352,0.86516 0.7877,1.30144 0.17495,0.31253 0.40085,0.57993 0.6165,0.85627 1.14898,-2.19599 2.88342,-6.03917 5.37716,-7.50062 2.87442,-1.68451 7.05589,-3.43362 7.46636,-5.06887 0.3731,-1.48653 1.60004,-4.95656 2.7399,-7.19234 1.13986,-2.23579 1.67823,-8.412884 1.67823,-9.247304 0,-0.83447 3.71042,-0.92777 4.76066,-2.7057 2.08762,-3.53406 1.1522,2.69789 -5.13739,-8.04861 -3.27351,-2.94553 -5.39255,-7.2733 0.3765,-9.04177 2.87844,-2.44482 5.19355,-4.54863 6.30188,-6.81561 0.96808,-1.98028 1.01609,-4.08172 -0.34253,-6.61016 -0.70748,-1.31661 -2.81436,-4.28796 -3.18519,-6.09635 -0.43652,-2.1272 1.19053,-7.13159 -0.85627,-6.37038 -6.51425,2.42273 -6.96848,-3.00555 -6.09636,-4.6579 -3.03782,1.87418 -7.53147,-2.17515 -11.3365,0.30856 -1.38065,1.47299 -4.21142,5.62933 -5.82239,6.23337 -1.28627,0.48237 -5.03547,2.34421 -6.54159,2.0207 -2.42958,-0.52201 -3.11838,-7.43489 -5.06893,-11.26799 z" />
  </g>
</svg>
