<?xml version="1.0" encoding="UTF-8" standalone="no"?>
<!-- Created with Inkscape (http://www.inkscape.org/) -->

<svg
   width="210mm"
   height="297mm"
   viewBox="0 0 210 297"
   version="1.1"
   id="svg1283"
   inkscape:version="1.1.2 (b8e25be833, 2022-02-05)"
   sodipodi:docname="vector.svg"
   xmlns:inkscape="http://www.inkscape.org/namespaces/inkscape"
   xmlns:sodipodi="http://sodipodi.sourceforge.net/DTD/sodipodi-0.dtd"
   xmlns="http://www.w3.org/2000/svg"
   xmlns:svg="http://www.w3.org/2000/svg">
  <sodipodi:namedview
     id="namedview1285"
     pagecolor="#ffffff"
     bordercolor="#666666"
     borderopacity="1.0"
     inkscape:pageshadow="2"
     inkscape:pageopacity="0.0"
     inkscape:pagecheckerboard="0"
     inkscape:document-units="mm"
     showgrid="false"
     inkscape:zoom="0.74029882"
     inkscape:cx="361.34057"
     inkscape:cy="561.93525"
     inkscape:window-width="1920"
     inkscape:window-height="1017"
     inkscape:window-x="-8"
     inkscape:window-y="-8"
     inkscape:window-maximized="1"
     inkscape:current-layer="layer1" />
  <defs
     id="defs1280" />
  <g
     inkscape:label="Capa 1"
     inkscape:groupmode="layer"
     id="layer1">
    <path
       d="m 80.371793,6.0426663 -1.30173,1.30173 h -2.44061 l -1.30172,1.30173 h -3.74234 l -1.30173,1.13922 h -4.88121 l -1.30173,1.3017297 h -1.30173 l -1.13923,1.30173 h -1.30172 l -1.30173,1.13923 h -1.13923 v 1.30172 l -1.30173,1.30173 h -1.30172 v 1.13923 l -1.13923,1.30172 v 7.4845 l 1.13923,1.30173 v 5.04389 l 1.30172,1.13923 v 1.30173 l 1.30173,1.30172 v 1.13923 l 1.13923,1.30173 v 17.40961 l -1.13923,1.30172 v 5.04389 l -2.60328,2.44061 v 1.30173 l -4.88139,5.04406 h -1.30173 l -1.30173,1.13923 h -3.74233 l -1.13923,1.30173 h -5.04406 l -1.30173,-1.30173 h -1.30173 l -1.13922,-1.13923 h -2.60346 l -1.13923,-1.30172 h -1.30172 l -2.44061,-2.44061 h -2.60346 l -1.13922,-1.30173 h -7.48485 l -1.30173,1.30173 h -2.44078 l -1.30172,1.13922 H 9.1021433 l -1.30173,1.30173 h -1.13923 v 1.30173 l -1.30172,1.13923 v 1.30172 l -1.30173,1.30173 v 3.74234 l -1.13923,1.13922 1.13923,1.30173 v 5.04389 l -2.44061,2.44061 1.30173,1.30173 v 1.30172 l 1.13923,1.13923 v 2.60328 l 1.30172,1.13923 v 1.30173 l 1.30173,1.30173 v 1.13922 l 1.13923,1.301734 v 1.30173 l 1.30172,1.13922 v 2.60346 l 1.3017297,1.13923 v 1.30172 l 1.30173,1.30173 v 1.13923 l 1.13923,1.30173 v 1.30172 l 1.30172,1.13923 v 1.30173 h 1.30173 v 1.30172 l 1.13923,1.13923 v 1.30173 l 1.30172,1.30173 v 2.4406 l 1.30173,1.30173 v 2.44061 l 1.13923,1.30173 v 2.44061 l 2.60345,2.60328 v 2.44061 l 1.13923,1.30172 v 2.44061 l 1.30173,1.30173 v 3.74216 l 1.30173,1.13923 h 1.13922 l 1.30173,1.30173 v 5.04389 l 1.30173,1.30173 v 2.4406 l 1.13922,1.30173 v 2.44044 l 1.30173,1.30173 v 2.4406 l 1.30173,1.30173 v 2.44061 l 1.13923,1.30173 v 1.13922 l 1.30172,1.30173 v 1.30173 l 1.30173,1.13923 v 1.30172 l 2.44061,2.44061 v 1.30173 h 1.30173 v 2.44078 l 1.30172,1.30173 v 2.60328 l 1.13923,1.13923 v 2.60328 l 1.30173,1.13923 v 2.60345 l 1.30173,1.13923 v 2.60328 l 1.13922,1.13923 v 1.30172 l 1.30173,1.30173 v 1.13923 l 1.30173,1.30173 v 1.30172 l 1.13923,1.13923 v 1.30173 l 1.30172,1.30173 v 1.13922 l 1.30173,1.30173 v 1.30173 l 1.13923,1.13922 v 1.30173 l 2.60328,2.60328 v 1.13923 l 1.13923,1.30173 v 1.30173 l 1.30172,1.13922 v 3.74217 l 1.30173,1.30172 v 3.74217 l 1.13923,1.30172 v 2.44061 l 1.30173,1.30173 v 1.13923 l 1.30172,1.30172 v 2.44061 l 1.13923,1.30173 v 2.44061 l 2.60345,2.60328 v 2.44061 l 1.13923,1.30173 v 3.74233 l 3.90518,3.74217 v 1.30172 l 1.13923,1.13923 v 3.74234 l 1.30173,1.30172 v 2.44061 l 1.30172,1.30173 v 2.44061 l 2.44061,2.60328 v 1.13923 l 1.30173,1.30172 v 1.30173 l 1.13923,1.30173 v 2.44078 h 1.30173 v 1.30173 l 1.30172,1.13923 v 2.60345 l 1.13923,1.13923 v 1.30172 l 1.30173,1.30173 v 1.13923 h 2.44078 l 1.30173,-1.13923 v -3.74216 l -1.30173,-1.30173 v -1.30173 l -1.13923,-1.13922 v -3.74234 l 1.13923,-1.30173 h 1.30173 l 1.30172,-1.30172 h 6.18312 l 1.301727,-1.30173 h 1.13923 l 1.30172,-1.13923 v -1.30173 l 1.30173,-1.30172 h 1.30173 v -1.13923 l 1.13923,-1.30173 v -1.30172 l 1.30172,-1.13923 v -1.30173 l 3.74234,-3.74216 1.30173,-1.30173 v -1.13923 l 1.13922,-1.30172 v -1.30173 l 1.30173,-1.13923 v -1.30173 l 1.30173,-1.30172 v -1.13923 h 1.13922 v -1.30173 h 1.30173 l 2.44061,-1.30172 h 1.30173 l 2.44061,2.60345 h 1.30172 l 1.30173,1.13923 h 1.13923 l 1.30173,1.30172 h 1.30172 l 2.44061,2.44061 h 1.30173 l 1.30173,1.30173 h 1.13922 l 1.30173,1.30173 h 2.44078 v 1.13922 h 2.60328 l 3.74234,3.74234 v 1.30173 h 1.13923 v 1.30173 l 1.30172,1.13922 h 1.30173 v 1.30173 l 1.13923,1.30173 v 1.13922 h 3.74234 l 1.30172,1.30173 1.30173,1.30173 h 2.44061 l 1.30173,1.13923 v -1.13923 h 2.4406 l 2.60346,2.44061 h 1.13923 l 2.60345,2.60328 h 1.13923 l 1.30173,1.13923 v 1.30172 l 1.30172,1.30173 h 4.88122 l 1.30173,-1.30173 h 2.44078 l 3.74234,-3.74233 v -3.74234 l 1.30172,-1.30173 h 2.44078 v -2.44043 h 1.30173 l 1.30173,-1.30173 v -2.44061 l 1.13923,-1.30172 h 1.30172 v -1.30173 l 1.30173,-1.13923 v -2.60345 h 2.44078 l 1.30173,-1.13923 v -1.30173 l 1.30173,-1.30173 h 1.13922 l 2.60329,-2.4406 v -3.74234 h -1.30173 l -1.30173,-1.30173 v -5.04389 l -1.13923,-1.13923 v -1.30172 l -1.30172,-1.30173 1.30172,-1.13923 v -6.34544 l -1.30172,-1.13923 v -7.4845 l 1.30172,-1.30173 v -3.74216 l -1.30172,-2.44061 v -2.60328 l 1.30172,-1.30173 -1.30172,-1.13922 v -1.30173 l 1.30172,-1.30173 h -3.74233 v -1.13923 l 2.44078,-2.60328 v -1.13922 l 1.30173,-1.30173 v -2.44061 l -1.30173,-1.30173 v -1.30173 l -1.30173,-1.13922 v -1.30173 l -1.13922,-1.30173 v -3.74233 l 1.13922,-1.13923 -3.74233,-3.74234 h -1.30173 v -1.30172 l -1.13923,-1.30173 v -2.44061 l -1.30173,-1.30173 v -5.04389 h 7.48468 v -1.13922 l 1.30172,-1.30173 h 3.74234 v -2.44044 l 1.30173,-1.30173 v -6.18294 l 1.13922,-1.30173 v -6.18277 h -3.74233 l -1.13923,-1.30173 v -1.30172 h 1.13923 l 1.30173,-1.30173 -1.30173,-1.13923 v -1.30173 l 2.60328,-2.4406 h -1.30173 l -1.30172,-1.30173 h 1.30172 v -1.30173 l 1.30173,-1.13923 v -1.30172 l 1.13923,-1.30173 -14.96935,-2.44078 v -3.74217 l -9.92545,-3.74233 -1.30173,1.30173 -5.04406,-1.30173 v 3.74233 l -11.22701,-3.74233 v -1.30173 l 1.30173,-1.13923 v -5.04389 l 1.30173,-1.30172 v -2.44079 l -1.30173,-1.30172 h -1.30173 l -1.30173,-1.30173 h -2.44061 l -1.30172,1.30173 h -1.13923 l -1.30173,-1.30173 h -5.04406 v 1.30173 h -4.88139 v -3.74234 l -2.60328,-2.44061 h 1.30172 l 1.30173,-1.30173 v -1.30172 l -1.30173,-1.13923 h -1.30172 l -1.13923,-1.30173 1.13923,-1.30172 v -1.13923 l -1.13923,-1.30173 h -1.30173 l -1.30172,-1.301734 v -2.4406 h -4.88139 l -1.30173,-1.30173 H 134.074 l -2.44061,-2.44061 v -2.44061 l 1.13923,-1.30173 v -2.60345 l 1.30173,-1.13923 v -1.30173 l 1.30172,-1.30172 v -1.13923 l 1.30173,-1.30173 v -2.44061 l 1.13923,-1.30172 v -2.44061 l 1.30173,-1.30173 v -2.44061 l 2.44078,-2.60328 v -8.62355 l 1.30172,-1.30173 v -2.60328 l 1.30173,-1.13923 v -1.30173 l 1.13923,-1.30172 v -4.8814 l 1.30173,-1.30172 v -3.74234 l 1.30172,-1.30173 v -1.13922 l -1.30172,-1.30173 v -1.30173 l -1.30173,-1.13922 h -2.44078 l -1.30173,-1.30173 h -1.13923 l -1.30172,-1.30173 h -2.44061 l -1.30173,-1.13923 h -2.60328 l -1.13923,-1.30172 h -1.30173 l -2.44061,-2.44061 h -1.30172 v -1.30173 h -1.30173 l -1.13923,-1.30173 1.13923,-1.30172 -1.13923,-1.13923 v -5.04389 l -1.30172,-1.30173 v -2.44061 h -3.74234 l -1.30173,-1.30173 h -1.13923 l -2.60345,-2.4406 H 96.650293 l -1.30172,-1.3017297 h -3.74251 l -1.30173,-1.13923 h -3.74234 l -1.13922,-1.30173 h -1.30173 l -1.30173,-1.30172 z"
       style="fill:#000000;fill-opacity:1;fill-rule:evenodd;stroke:#d38d5f;stroke-width:2.28696;stroke-linecap:butt;stroke-linejoin:miter;stroke-miterlimit:4;stroke-dasharray:none;stroke-opacity:1"
       id="Saavedra" />
  </g>
</svg>
